G04 #@! TF.FileFunction,Copper,L1,Top,Signal*
%FSLAX46Y46*%
G04 Gerber Fmt 4.6, Leading zero omitted, Abs format (unit mm)*
G04 Created by KiCad (PCBNEW 4.0.4-1.fc24-product) date Mon Aug 27 11:40:24 2018*
%MOMM*%
%LPD*%
G01*
G04 APERTURE LIST*
%ADD10C,0.100000*%
%ADD11R,2.032000X2.032000*%
%ADD12O,2.032000X2.032000*%
%ADD13R,1.727200X1.727200*%
%ADD14O,1.727200X1.727200*%
%ADD15O,4.700000X1.700000*%
%ADD16O,1.700000X2.700000*%
%ADD17O,3.700000X1.700000*%
%ADD18O,1.998980X1.998980*%
%ADD19R,1.998980X1.998980*%
%ADD20C,0.500000*%
%ADD21C,0.300000*%
G04 APERTURE END LIST*
D10*
D11*
X127300000Y-81000000D03*
D12*
X127300000Y-83540000D03*
D13*
X125100000Y-90500000D03*
D14*
X127640000Y-90500000D03*
X125100000Y-93040000D03*
X127640000Y-93040000D03*
X125100000Y-95580000D03*
X127640000Y-95580000D03*
D15*
X122500000Y-71500000D03*
X117500000Y-71500000D03*
X112500000Y-71500000D03*
X122500000Y-77500000D03*
X117500000Y-77500000D03*
X112500000Y-77500000D03*
D16*
X115000000Y-82500000D03*
X115000000Y-86500000D03*
X115000000Y-90500000D03*
X120000000Y-82500000D03*
X120000000Y-86500000D03*
X120000000Y-90500000D03*
D17*
X117500000Y-94700000D03*
D11*
X107700000Y-81000000D03*
D12*
X107700000Y-83540000D03*
D18*
X108200000Y-90640000D03*
D19*
X108200000Y-88100000D03*
D18*
X108200000Y-96340000D03*
D19*
X108200000Y-93800000D03*
D20*
X125100000Y-95580000D02*
X125100000Y-96750000D01*
X128700000Y-97200000D02*
X129100000Y-96800000D01*
X125100000Y-96750000D02*
X125550000Y-97200000D01*
X125550000Y-97200000D02*
X128700000Y-97200000D01*
X129100000Y-96800000D02*
X129100000Y-91960000D01*
X128503599Y-91363599D02*
X127640000Y-90500000D01*
X129100000Y-91960000D02*
X128503599Y-91363599D01*
X107700000Y-81000000D02*
X109216000Y-81000000D01*
X109216000Y-81000000D02*
X113000000Y-84784000D01*
X113000000Y-84784000D02*
X113000000Y-90000000D01*
X113000000Y-90000000D02*
X113600000Y-90600000D01*
X113600000Y-90600000D02*
X115000000Y-90600000D01*
X125000000Y-81000000D02*
X127300000Y-81000000D01*
X120000000Y-86500000D02*
X120000000Y-86000000D01*
X120000000Y-86000000D02*
X125000000Y-81000000D01*
X125560000Y-83540000D02*
X127300000Y-83540000D01*
X121450010Y-87649990D02*
X125560000Y-83540000D01*
X120600613Y-88500010D02*
X121450010Y-87650613D01*
X120599990Y-88500010D02*
X120600613Y-88500010D01*
X120000000Y-89100000D02*
X120599990Y-88500010D01*
X121450010Y-87650613D02*
X121450010Y-87649990D01*
X120000000Y-90500000D02*
X120000000Y-89100000D01*
X113800000Y-74500000D02*
X112500000Y-73200000D01*
X112500000Y-73200000D02*
X112500000Y-71500000D01*
X120850000Y-74500000D02*
X113800000Y-74500000D01*
X122500000Y-77500000D02*
X122500000Y-76150000D01*
X122500000Y-76150000D02*
X120850000Y-74500000D01*
D21*
G36*
X110025906Y-70580761D02*
X109744102Y-71002512D01*
X109645145Y-71500000D01*
X109744102Y-71997488D01*
X110025906Y-72419239D01*
X110447657Y-72701043D01*
X110945145Y-72800000D01*
X111800000Y-72800000D01*
X111800000Y-73200000D01*
X111853284Y-73467879D01*
X112005025Y-73694975D01*
X113305023Y-74994972D01*
X113305025Y-74994975D01*
X113418573Y-75070845D01*
X113532121Y-75146716D01*
X113800000Y-75200001D01*
X113800005Y-75200000D01*
X120560050Y-75200000D01*
X121560051Y-76200000D01*
X120945145Y-76200000D01*
X120447657Y-76298957D01*
X120025906Y-76580761D01*
X120000000Y-76619532D01*
X119974094Y-76580761D01*
X119552343Y-76298957D01*
X119054855Y-76200000D01*
X115945145Y-76200000D01*
X115447657Y-76298957D01*
X115025906Y-76580761D01*
X115000000Y-76619532D01*
X114974094Y-76580761D01*
X114552343Y-76298957D01*
X114054855Y-76200000D01*
X110945145Y-76200000D01*
X110447657Y-76298957D01*
X110025906Y-76580761D01*
X109744102Y-77002512D01*
X109645145Y-77500000D01*
X109744102Y-77997488D01*
X110025906Y-78419239D01*
X110447657Y-78701043D01*
X110945145Y-78800000D01*
X114054855Y-78800000D01*
X114552343Y-78701043D01*
X114974094Y-78419239D01*
X115000000Y-78380468D01*
X115025906Y-78419239D01*
X115447657Y-78701043D01*
X115945145Y-78800000D01*
X119054855Y-78800000D01*
X119552343Y-78701043D01*
X119974094Y-78419239D01*
X120000000Y-78380468D01*
X120025906Y-78419239D01*
X120447657Y-78701043D01*
X120945145Y-78800000D01*
X124054855Y-78800000D01*
X124552343Y-78701043D01*
X124974094Y-78419239D01*
X125255898Y-77997488D01*
X125354855Y-77500000D01*
X125255898Y-77002512D01*
X124974094Y-76580761D01*
X124552343Y-76298957D01*
X124054855Y-76200000D01*
X123200000Y-76200000D01*
X123200000Y-76150000D01*
X123146716Y-75882122D01*
X122994975Y-75655025D01*
X122994972Y-75655023D01*
X121344975Y-74005025D01*
X121117879Y-73853284D01*
X120850000Y-73800000D01*
X114089949Y-73800000D01*
X113200000Y-72910050D01*
X113200000Y-72800000D01*
X114054855Y-72800000D01*
X114552343Y-72701043D01*
X114974094Y-72419239D01*
X115000000Y-72380468D01*
X115025906Y-72419239D01*
X115447657Y-72701043D01*
X115945145Y-72800000D01*
X119054855Y-72800000D01*
X119552343Y-72701043D01*
X119974094Y-72419239D01*
X120000000Y-72380468D01*
X120025906Y-72419239D01*
X120447657Y-72701043D01*
X120945145Y-72800000D01*
X124054855Y-72800000D01*
X124552343Y-72701043D01*
X124974094Y-72419239D01*
X125255898Y-71997488D01*
X125354855Y-71500000D01*
X125255898Y-71002512D01*
X124974094Y-70580761D01*
X124890641Y-70525000D01*
X129475000Y-70525000D01*
X129475000Y-91345051D01*
X128998574Y-90868624D01*
X128998571Y-90868622D01*
X128921368Y-90791419D01*
X128979335Y-90500000D01*
X128879343Y-89997307D01*
X128594590Y-89571145D01*
X128168428Y-89286392D01*
X127665735Y-89186400D01*
X127614265Y-89186400D01*
X127111572Y-89286392D01*
X126713600Y-89552309D01*
X126713600Y-89487215D01*
X126599419Y-89211559D01*
X126388441Y-89000581D01*
X126112784Y-88886400D01*
X125437500Y-88886400D01*
X125250000Y-89073900D01*
X125250000Y-90350000D01*
X125270000Y-90350000D01*
X125270000Y-90650000D01*
X125250000Y-90650000D01*
X125250000Y-90670000D01*
X124950000Y-90670000D01*
X124950000Y-90650000D01*
X123673900Y-90650000D01*
X123486400Y-90837500D01*
X123486400Y-91512785D01*
X123600581Y-91788441D01*
X123811559Y-91999419D01*
X124087216Y-92113600D01*
X124143770Y-92113600D01*
X123860657Y-92537307D01*
X123760665Y-93040000D01*
X123860657Y-93542693D01*
X124145410Y-93968855D01*
X124571572Y-94253608D01*
X124855073Y-94310000D01*
X124571572Y-94366392D01*
X124145410Y-94651145D01*
X123860657Y-95077307D01*
X123760665Y-95580000D01*
X123860657Y-96082693D01*
X124145410Y-96508855D01*
X124400000Y-96678967D01*
X124400000Y-96750000D01*
X124453284Y-97017879D01*
X124605025Y-97244975D01*
X124835050Y-97475000D01*
X109502045Y-97475000D01*
X109607826Y-97378640D01*
X109898132Y-96760827D01*
X109755557Y-96490000D01*
X108350000Y-96490000D01*
X108350000Y-96510000D01*
X108050000Y-96510000D01*
X108050000Y-96490000D01*
X106644443Y-96490000D01*
X106501868Y-96760827D01*
X106792174Y-97378640D01*
X106897955Y-97475000D01*
X105525000Y-97475000D01*
X105525000Y-91060827D01*
X106501868Y-91060827D01*
X106792174Y-91678640D01*
X107296809Y-92138330D01*
X107779174Y-92338123D01*
X108049998Y-92194772D01*
X108049998Y-92341694D01*
X107200510Y-92341694D01*
X107033750Y-92373072D01*
X106880591Y-92471627D01*
X106777842Y-92622005D01*
X106741694Y-92800510D01*
X106741694Y-94799490D01*
X106773072Y-94966250D01*
X106871627Y-95119409D01*
X106940360Y-95166372D01*
X106792174Y-95301360D01*
X106501868Y-95919173D01*
X106644443Y-96190000D01*
X108050000Y-96190000D01*
X108050000Y-96170000D01*
X108350000Y-96170000D01*
X108350000Y-96190000D01*
X109755557Y-96190000D01*
X109898132Y-95919173D01*
X109607826Y-95301360D01*
X109459937Y-95166642D01*
X109519409Y-95128373D01*
X109540608Y-95097346D01*
X114950124Y-95097346D01*
X114964390Y-95173712D01*
X115262563Y-95725305D01*
X115749125Y-96120805D01*
X116350000Y-96300000D01*
X117350000Y-96300000D01*
X117350000Y-94850000D01*
X117650000Y-94850000D01*
X117650000Y-96300000D01*
X118650000Y-96300000D01*
X119250875Y-96120805D01*
X119737437Y-95725305D01*
X120035610Y-95173712D01*
X120049876Y-95097346D01*
X119904513Y-94850000D01*
X117650000Y-94850000D01*
X117350000Y-94850000D01*
X115095487Y-94850000D01*
X114950124Y-95097346D01*
X109540608Y-95097346D01*
X109622158Y-94977995D01*
X109658306Y-94799490D01*
X109658306Y-94302654D01*
X114950124Y-94302654D01*
X115095487Y-94550000D01*
X117350000Y-94550000D01*
X117350000Y-93100000D01*
X117650000Y-93100000D01*
X117650000Y-94550000D01*
X119904513Y-94550000D01*
X120049876Y-94302654D01*
X120035610Y-94226288D01*
X119737437Y-93674695D01*
X119250875Y-93279195D01*
X118650000Y-93100000D01*
X117650000Y-93100000D01*
X117350000Y-93100000D01*
X116350000Y-93100000D01*
X115749125Y-93279195D01*
X115262563Y-93674695D01*
X114964390Y-94226288D01*
X114950124Y-94302654D01*
X109658306Y-94302654D01*
X109658306Y-92800510D01*
X109626928Y-92633750D01*
X109528373Y-92480591D01*
X109377995Y-92377842D01*
X109199490Y-92341694D01*
X108350002Y-92341694D01*
X108350002Y-92194772D01*
X108620826Y-92338123D01*
X109103191Y-92138330D01*
X109607826Y-91678640D01*
X109898132Y-91060827D01*
X109755557Y-90790000D01*
X108350000Y-90790000D01*
X108350000Y-90810000D01*
X108050000Y-90810000D01*
X108050000Y-90790000D01*
X106644443Y-90790000D01*
X106501868Y-91060827D01*
X105525000Y-91060827D01*
X105525000Y-90219173D01*
X106501868Y-90219173D01*
X106644443Y-90490000D01*
X108050000Y-90490000D01*
X108050000Y-90470000D01*
X108350000Y-90470000D01*
X108350000Y-90490000D01*
X109755557Y-90490000D01*
X109898132Y-90219173D01*
X109607826Y-89601360D01*
X109459937Y-89466642D01*
X109519409Y-89428373D01*
X109622158Y-89277995D01*
X109658306Y-89099490D01*
X109658306Y-87100510D01*
X109626928Y-86933750D01*
X109528373Y-86780591D01*
X109377995Y-86677842D01*
X109199490Y-86641694D01*
X107200510Y-86641694D01*
X107033750Y-86673072D01*
X106880591Y-86771627D01*
X106777842Y-86922005D01*
X106741694Y-87100510D01*
X106741694Y-89099490D01*
X106773072Y-89266250D01*
X106871627Y-89419409D01*
X106940360Y-89466372D01*
X106792174Y-89601360D01*
X106501868Y-90219173D01*
X105525000Y-90219173D01*
X105525000Y-83963418D01*
X105985511Y-83963418D01*
X106188263Y-84452931D01*
X106652701Y-84961955D01*
X107276580Y-85254499D01*
X107550000Y-85112128D01*
X107550000Y-83690000D01*
X107850000Y-83690000D01*
X107850000Y-85112128D01*
X108123420Y-85254499D01*
X108747299Y-84961955D01*
X109211737Y-84452931D01*
X109414489Y-83963418D01*
X109271357Y-83690000D01*
X107850000Y-83690000D01*
X107550000Y-83690000D01*
X106128643Y-83690000D01*
X105985511Y-83963418D01*
X105525000Y-83963418D01*
X105525000Y-83116582D01*
X105985511Y-83116582D01*
X106128643Y-83390000D01*
X107550000Y-83390000D01*
X107550000Y-83370000D01*
X107850000Y-83370000D01*
X107850000Y-83390000D01*
X109271357Y-83390000D01*
X109414489Y-83116582D01*
X109211737Y-82627069D01*
X108984473Y-82377988D01*
X109035919Y-82344883D01*
X109138668Y-82194505D01*
X109174816Y-82016000D01*
X109174816Y-81948766D01*
X112300000Y-85073950D01*
X112300000Y-90000000D01*
X112353284Y-90267879D01*
X112505025Y-90494975D01*
X113105025Y-91094975D01*
X113332121Y-91246716D01*
X113600000Y-91300000D01*
X113752660Y-91300000D01*
X113798957Y-91532752D01*
X114080761Y-91954503D01*
X114502512Y-92236307D01*
X115000000Y-92335264D01*
X115497488Y-92236307D01*
X115919239Y-91954503D01*
X116201043Y-91532752D01*
X116300000Y-91035264D01*
X116300000Y-89964736D01*
X116201043Y-89467248D01*
X115919239Y-89045497D01*
X115497488Y-88763693D01*
X115000000Y-88664736D01*
X114502512Y-88763693D01*
X114080761Y-89045497D01*
X113798957Y-89467248D01*
X113742255Y-89752305D01*
X113700000Y-89710050D01*
X113700000Y-87035264D01*
X113798957Y-87532752D01*
X114080761Y-87954503D01*
X114502512Y-88236307D01*
X115000000Y-88335264D01*
X115497488Y-88236307D01*
X115919239Y-87954503D01*
X116201043Y-87532752D01*
X116300000Y-87035264D01*
X116300000Y-85964736D01*
X118700000Y-85964736D01*
X118700000Y-87035264D01*
X118798957Y-87532752D01*
X119080761Y-87954503D01*
X119502512Y-88236307D01*
X119812152Y-88297898D01*
X119505025Y-88605025D01*
X119353284Y-88832121D01*
X119353284Y-88832122D01*
X119346108Y-88868198D01*
X119080761Y-89045497D01*
X118798957Y-89467248D01*
X118700000Y-89964736D01*
X118700000Y-91035264D01*
X118798957Y-91532752D01*
X119080761Y-91954503D01*
X119502512Y-92236307D01*
X120000000Y-92335264D01*
X120497488Y-92236307D01*
X120919239Y-91954503D01*
X121201043Y-91532752D01*
X121300000Y-91035264D01*
X121300000Y-89964736D01*
X121205015Y-89487215D01*
X123486400Y-89487215D01*
X123486400Y-90162500D01*
X123673900Y-90350000D01*
X124950000Y-90350000D01*
X124950000Y-89073900D01*
X124762500Y-88886400D01*
X124087216Y-88886400D01*
X123811559Y-89000581D01*
X123600581Y-89211559D01*
X123486400Y-89487215D01*
X121205015Y-89487215D01*
X121201043Y-89467248D01*
X120969393Y-89120557D01*
X121093710Y-88996240D01*
X121095588Y-88994985D01*
X121944985Y-88145588D01*
X121946240Y-88143710D01*
X125849949Y-84240000D01*
X126009739Y-84240000D01*
X126234660Y-84576619D01*
X126710265Y-84894407D01*
X127271279Y-85006000D01*
X127328721Y-85006000D01*
X127889735Y-84894407D01*
X128365340Y-84576619D01*
X128683128Y-84101014D01*
X128794721Y-83540000D01*
X128683128Y-82978986D01*
X128365340Y-82503381D01*
X128321141Y-82473849D01*
X128482760Y-82443438D01*
X128635919Y-82344883D01*
X128738668Y-82194505D01*
X128774816Y-82016000D01*
X128774816Y-79984000D01*
X128743438Y-79817240D01*
X128644883Y-79664081D01*
X128494505Y-79561332D01*
X128316000Y-79525184D01*
X126284000Y-79525184D01*
X126117240Y-79556562D01*
X125964081Y-79655117D01*
X125861332Y-79805495D01*
X125825184Y-79984000D01*
X125825184Y-80300000D01*
X125000000Y-80300000D01*
X124732121Y-80353284D01*
X124505025Y-80505025D01*
X120288022Y-84722028D01*
X120000000Y-84664736D01*
X119502512Y-84763693D01*
X119080761Y-85045497D01*
X118798957Y-85467248D01*
X118700000Y-85964736D01*
X116300000Y-85964736D01*
X116201043Y-85467248D01*
X115919239Y-85045497D01*
X115497488Y-84763693D01*
X115000000Y-84664736D01*
X114502512Y-84763693D01*
X114080761Y-85045497D01*
X113798957Y-85467248D01*
X113700000Y-85964736D01*
X113700000Y-84784000D01*
X113646716Y-84516122D01*
X113646716Y-84516121D01*
X113494975Y-84289025D01*
X111170686Y-81964736D01*
X113700000Y-81964736D01*
X113700000Y-83035264D01*
X113798957Y-83532752D01*
X114080761Y-83954503D01*
X114502512Y-84236307D01*
X115000000Y-84335264D01*
X115497488Y-84236307D01*
X115919239Y-83954503D01*
X116201043Y-83532752D01*
X116300000Y-83035264D01*
X116300000Y-81964736D01*
X118700000Y-81964736D01*
X118700000Y-83035264D01*
X118798957Y-83532752D01*
X119080761Y-83954503D01*
X119502512Y-84236307D01*
X120000000Y-84335264D01*
X120497488Y-84236307D01*
X120919239Y-83954503D01*
X121201043Y-83532752D01*
X121300000Y-83035264D01*
X121300000Y-81964736D01*
X121201043Y-81467248D01*
X120919239Y-81045497D01*
X120497488Y-80763693D01*
X120000000Y-80664736D01*
X119502512Y-80763693D01*
X119080761Y-81045497D01*
X118798957Y-81467248D01*
X118700000Y-81964736D01*
X116300000Y-81964736D01*
X116201043Y-81467248D01*
X115919239Y-81045497D01*
X115497488Y-80763693D01*
X115000000Y-80664736D01*
X114502512Y-80763693D01*
X114080761Y-81045497D01*
X113798957Y-81467248D01*
X113700000Y-81964736D01*
X111170686Y-81964736D01*
X109710975Y-80505025D01*
X109483879Y-80353284D01*
X109216000Y-80300000D01*
X109174816Y-80300000D01*
X109174816Y-79984000D01*
X109143438Y-79817240D01*
X109044883Y-79664081D01*
X108894505Y-79561332D01*
X108716000Y-79525184D01*
X106684000Y-79525184D01*
X106517240Y-79556562D01*
X106364081Y-79655117D01*
X106261332Y-79805495D01*
X106225184Y-79984000D01*
X106225184Y-82016000D01*
X106256562Y-82182760D01*
X106355117Y-82335919D01*
X106415972Y-82377500D01*
X106188263Y-82627069D01*
X105985511Y-83116582D01*
X105525000Y-83116582D01*
X105525000Y-70525000D01*
X110109359Y-70525000D01*
X110025906Y-70580761D01*
X110025906Y-70580761D01*
G37*
X110025906Y-70580761D02*
X109744102Y-71002512D01*
X109645145Y-71500000D01*
X109744102Y-71997488D01*
X110025906Y-72419239D01*
X110447657Y-72701043D01*
X110945145Y-72800000D01*
X111800000Y-72800000D01*
X111800000Y-73200000D01*
X111853284Y-73467879D01*
X112005025Y-73694975D01*
X113305023Y-74994972D01*
X113305025Y-74994975D01*
X113418573Y-75070845D01*
X113532121Y-75146716D01*
X113800000Y-75200001D01*
X113800005Y-75200000D01*
X120560050Y-75200000D01*
X121560051Y-76200000D01*
X120945145Y-76200000D01*
X120447657Y-76298957D01*
X120025906Y-76580761D01*
X120000000Y-76619532D01*
X119974094Y-76580761D01*
X119552343Y-76298957D01*
X119054855Y-76200000D01*
X115945145Y-76200000D01*
X115447657Y-76298957D01*
X115025906Y-76580761D01*
X115000000Y-76619532D01*
X114974094Y-76580761D01*
X114552343Y-76298957D01*
X114054855Y-76200000D01*
X110945145Y-76200000D01*
X110447657Y-76298957D01*
X110025906Y-76580761D01*
X109744102Y-77002512D01*
X109645145Y-77500000D01*
X109744102Y-77997488D01*
X110025906Y-78419239D01*
X110447657Y-78701043D01*
X110945145Y-78800000D01*
X114054855Y-78800000D01*
X114552343Y-78701043D01*
X114974094Y-78419239D01*
X115000000Y-78380468D01*
X115025906Y-78419239D01*
X115447657Y-78701043D01*
X115945145Y-78800000D01*
X119054855Y-78800000D01*
X119552343Y-78701043D01*
X119974094Y-78419239D01*
X120000000Y-78380468D01*
X120025906Y-78419239D01*
X120447657Y-78701043D01*
X120945145Y-78800000D01*
X124054855Y-78800000D01*
X124552343Y-78701043D01*
X124974094Y-78419239D01*
X125255898Y-77997488D01*
X125354855Y-77500000D01*
X125255898Y-77002512D01*
X124974094Y-76580761D01*
X124552343Y-76298957D01*
X124054855Y-76200000D01*
X123200000Y-76200000D01*
X123200000Y-76150000D01*
X123146716Y-75882122D01*
X122994975Y-75655025D01*
X122994972Y-75655023D01*
X121344975Y-74005025D01*
X121117879Y-73853284D01*
X120850000Y-73800000D01*
X114089949Y-73800000D01*
X113200000Y-72910050D01*
X113200000Y-72800000D01*
X114054855Y-72800000D01*
X114552343Y-72701043D01*
X114974094Y-72419239D01*
X115000000Y-72380468D01*
X115025906Y-72419239D01*
X115447657Y-72701043D01*
X115945145Y-72800000D01*
X119054855Y-72800000D01*
X119552343Y-72701043D01*
X119974094Y-72419239D01*
X120000000Y-72380468D01*
X120025906Y-72419239D01*
X120447657Y-72701043D01*
X120945145Y-72800000D01*
X124054855Y-72800000D01*
X124552343Y-72701043D01*
X124974094Y-72419239D01*
X125255898Y-71997488D01*
X125354855Y-71500000D01*
X125255898Y-71002512D01*
X124974094Y-70580761D01*
X124890641Y-70525000D01*
X129475000Y-70525000D01*
X129475000Y-91345051D01*
X128998574Y-90868624D01*
X128998571Y-90868622D01*
X128921368Y-90791419D01*
X128979335Y-90500000D01*
X128879343Y-89997307D01*
X128594590Y-89571145D01*
X128168428Y-89286392D01*
X127665735Y-89186400D01*
X127614265Y-89186400D01*
X127111572Y-89286392D01*
X126713600Y-89552309D01*
X126713600Y-89487215D01*
X126599419Y-89211559D01*
X126388441Y-89000581D01*
X126112784Y-88886400D01*
X125437500Y-88886400D01*
X125250000Y-89073900D01*
X125250000Y-90350000D01*
X125270000Y-90350000D01*
X125270000Y-90650000D01*
X125250000Y-90650000D01*
X125250000Y-90670000D01*
X124950000Y-90670000D01*
X124950000Y-90650000D01*
X123673900Y-90650000D01*
X123486400Y-90837500D01*
X123486400Y-91512785D01*
X123600581Y-91788441D01*
X123811559Y-91999419D01*
X124087216Y-92113600D01*
X124143770Y-92113600D01*
X123860657Y-92537307D01*
X123760665Y-93040000D01*
X123860657Y-93542693D01*
X124145410Y-93968855D01*
X124571572Y-94253608D01*
X124855073Y-94310000D01*
X124571572Y-94366392D01*
X124145410Y-94651145D01*
X123860657Y-95077307D01*
X123760665Y-95580000D01*
X123860657Y-96082693D01*
X124145410Y-96508855D01*
X124400000Y-96678967D01*
X124400000Y-96750000D01*
X124453284Y-97017879D01*
X124605025Y-97244975D01*
X124835050Y-97475000D01*
X109502045Y-97475000D01*
X109607826Y-97378640D01*
X109898132Y-96760827D01*
X109755557Y-96490000D01*
X108350000Y-96490000D01*
X108350000Y-96510000D01*
X108050000Y-96510000D01*
X108050000Y-96490000D01*
X106644443Y-96490000D01*
X106501868Y-96760827D01*
X106792174Y-97378640D01*
X106897955Y-97475000D01*
X105525000Y-97475000D01*
X105525000Y-91060827D01*
X106501868Y-91060827D01*
X106792174Y-91678640D01*
X107296809Y-92138330D01*
X107779174Y-92338123D01*
X108049998Y-92194772D01*
X108049998Y-92341694D01*
X107200510Y-92341694D01*
X107033750Y-92373072D01*
X106880591Y-92471627D01*
X106777842Y-92622005D01*
X106741694Y-92800510D01*
X106741694Y-94799490D01*
X106773072Y-94966250D01*
X106871627Y-95119409D01*
X106940360Y-95166372D01*
X106792174Y-95301360D01*
X106501868Y-95919173D01*
X106644443Y-96190000D01*
X108050000Y-96190000D01*
X108050000Y-96170000D01*
X108350000Y-96170000D01*
X108350000Y-96190000D01*
X109755557Y-96190000D01*
X109898132Y-95919173D01*
X109607826Y-95301360D01*
X109459937Y-95166642D01*
X109519409Y-95128373D01*
X109540608Y-95097346D01*
X114950124Y-95097346D01*
X114964390Y-95173712D01*
X115262563Y-95725305D01*
X115749125Y-96120805D01*
X116350000Y-96300000D01*
X117350000Y-96300000D01*
X117350000Y-94850000D01*
X117650000Y-94850000D01*
X117650000Y-96300000D01*
X118650000Y-96300000D01*
X119250875Y-96120805D01*
X119737437Y-95725305D01*
X120035610Y-95173712D01*
X120049876Y-95097346D01*
X119904513Y-94850000D01*
X117650000Y-94850000D01*
X117350000Y-94850000D01*
X115095487Y-94850000D01*
X114950124Y-95097346D01*
X109540608Y-95097346D01*
X109622158Y-94977995D01*
X109658306Y-94799490D01*
X109658306Y-94302654D01*
X114950124Y-94302654D01*
X115095487Y-94550000D01*
X117350000Y-94550000D01*
X117350000Y-93100000D01*
X117650000Y-93100000D01*
X117650000Y-94550000D01*
X119904513Y-94550000D01*
X120049876Y-94302654D01*
X120035610Y-94226288D01*
X119737437Y-93674695D01*
X119250875Y-93279195D01*
X118650000Y-93100000D01*
X117650000Y-93100000D01*
X117350000Y-93100000D01*
X116350000Y-93100000D01*
X115749125Y-93279195D01*
X115262563Y-93674695D01*
X114964390Y-94226288D01*
X114950124Y-94302654D01*
X109658306Y-94302654D01*
X109658306Y-92800510D01*
X109626928Y-92633750D01*
X109528373Y-92480591D01*
X109377995Y-92377842D01*
X109199490Y-92341694D01*
X108350002Y-92341694D01*
X108350002Y-92194772D01*
X108620826Y-92338123D01*
X109103191Y-92138330D01*
X109607826Y-91678640D01*
X109898132Y-91060827D01*
X109755557Y-90790000D01*
X108350000Y-90790000D01*
X108350000Y-90810000D01*
X108050000Y-90810000D01*
X108050000Y-90790000D01*
X106644443Y-90790000D01*
X106501868Y-91060827D01*
X105525000Y-91060827D01*
X105525000Y-90219173D01*
X106501868Y-90219173D01*
X106644443Y-90490000D01*
X108050000Y-90490000D01*
X108050000Y-90470000D01*
X108350000Y-90470000D01*
X108350000Y-90490000D01*
X109755557Y-90490000D01*
X109898132Y-90219173D01*
X109607826Y-89601360D01*
X109459937Y-89466642D01*
X109519409Y-89428373D01*
X109622158Y-89277995D01*
X109658306Y-89099490D01*
X109658306Y-87100510D01*
X109626928Y-86933750D01*
X109528373Y-86780591D01*
X109377995Y-86677842D01*
X109199490Y-86641694D01*
X107200510Y-86641694D01*
X107033750Y-86673072D01*
X106880591Y-86771627D01*
X106777842Y-86922005D01*
X106741694Y-87100510D01*
X106741694Y-89099490D01*
X106773072Y-89266250D01*
X106871627Y-89419409D01*
X106940360Y-89466372D01*
X106792174Y-89601360D01*
X106501868Y-90219173D01*
X105525000Y-90219173D01*
X105525000Y-83963418D01*
X105985511Y-83963418D01*
X106188263Y-84452931D01*
X106652701Y-84961955D01*
X107276580Y-85254499D01*
X107550000Y-85112128D01*
X107550000Y-83690000D01*
X107850000Y-83690000D01*
X107850000Y-85112128D01*
X108123420Y-85254499D01*
X108747299Y-84961955D01*
X109211737Y-84452931D01*
X109414489Y-83963418D01*
X109271357Y-83690000D01*
X107850000Y-83690000D01*
X107550000Y-83690000D01*
X106128643Y-83690000D01*
X105985511Y-83963418D01*
X105525000Y-83963418D01*
X105525000Y-83116582D01*
X105985511Y-83116582D01*
X106128643Y-83390000D01*
X107550000Y-83390000D01*
X107550000Y-83370000D01*
X107850000Y-83370000D01*
X107850000Y-83390000D01*
X109271357Y-83390000D01*
X109414489Y-83116582D01*
X109211737Y-82627069D01*
X108984473Y-82377988D01*
X109035919Y-82344883D01*
X109138668Y-82194505D01*
X109174816Y-82016000D01*
X109174816Y-81948766D01*
X112300000Y-85073950D01*
X112300000Y-90000000D01*
X112353284Y-90267879D01*
X112505025Y-90494975D01*
X113105025Y-91094975D01*
X113332121Y-91246716D01*
X113600000Y-91300000D01*
X113752660Y-91300000D01*
X113798957Y-91532752D01*
X114080761Y-91954503D01*
X114502512Y-92236307D01*
X115000000Y-92335264D01*
X115497488Y-92236307D01*
X115919239Y-91954503D01*
X116201043Y-91532752D01*
X116300000Y-91035264D01*
X116300000Y-89964736D01*
X116201043Y-89467248D01*
X115919239Y-89045497D01*
X115497488Y-88763693D01*
X115000000Y-88664736D01*
X114502512Y-88763693D01*
X114080761Y-89045497D01*
X113798957Y-89467248D01*
X113742255Y-89752305D01*
X113700000Y-89710050D01*
X113700000Y-87035264D01*
X113798957Y-87532752D01*
X114080761Y-87954503D01*
X114502512Y-88236307D01*
X115000000Y-88335264D01*
X115497488Y-88236307D01*
X115919239Y-87954503D01*
X116201043Y-87532752D01*
X116300000Y-87035264D01*
X116300000Y-85964736D01*
X118700000Y-85964736D01*
X118700000Y-87035264D01*
X118798957Y-87532752D01*
X119080761Y-87954503D01*
X119502512Y-88236307D01*
X119812152Y-88297898D01*
X119505025Y-88605025D01*
X119353284Y-88832121D01*
X119353284Y-88832122D01*
X119346108Y-88868198D01*
X119080761Y-89045497D01*
X118798957Y-89467248D01*
X118700000Y-89964736D01*
X118700000Y-91035264D01*
X118798957Y-91532752D01*
X119080761Y-91954503D01*
X119502512Y-92236307D01*
X120000000Y-92335264D01*
X120497488Y-92236307D01*
X120919239Y-91954503D01*
X121201043Y-91532752D01*
X121300000Y-91035264D01*
X121300000Y-89964736D01*
X121205015Y-89487215D01*
X123486400Y-89487215D01*
X123486400Y-90162500D01*
X123673900Y-90350000D01*
X124950000Y-90350000D01*
X124950000Y-89073900D01*
X124762500Y-88886400D01*
X124087216Y-88886400D01*
X123811559Y-89000581D01*
X123600581Y-89211559D01*
X123486400Y-89487215D01*
X121205015Y-89487215D01*
X121201043Y-89467248D01*
X120969393Y-89120557D01*
X121093710Y-88996240D01*
X121095588Y-88994985D01*
X121944985Y-88145588D01*
X121946240Y-88143710D01*
X125849949Y-84240000D01*
X126009739Y-84240000D01*
X126234660Y-84576619D01*
X126710265Y-84894407D01*
X127271279Y-85006000D01*
X127328721Y-85006000D01*
X127889735Y-84894407D01*
X128365340Y-84576619D01*
X128683128Y-84101014D01*
X128794721Y-83540000D01*
X128683128Y-82978986D01*
X128365340Y-82503381D01*
X128321141Y-82473849D01*
X128482760Y-82443438D01*
X128635919Y-82344883D01*
X128738668Y-82194505D01*
X128774816Y-82016000D01*
X128774816Y-79984000D01*
X128743438Y-79817240D01*
X128644883Y-79664081D01*
X128494505Y-79561332D01*
X128316000Y-79525184D01*
X126284000Y-79525184D01*
X126117240Y-79556562D01*
X125964081Y-79655117D01*
X125861332Y-79805495D01*
X125825184Y-79984000D01*
X125825184Y-80300000D01*
X125000000Y-80300000D01*
X124732121Y-80353284D01*
X124505025Y-80505025D01*
X120288022Y-84722028D01*
X120000000Y-84664736D01*
X119502512Y-84763693D01*
X119080761Y-85045497D01*
X118798957Y-85467248D01*
X118700000Y-85964736D01*
X116300000Y-85964736D01*
X116201043Y-85467248D01*
X115919239Y-85045497D01*
X115497488Y-84763693D01*
X115000000Y-84664736D01*
X114502512Y-84763693D01*
X114080761Y-85045497D01*
X113798957Y-85467248D01*
X113700000Y-85964736D01*
X113700000Y-84784000D01*
X113646716Y-84516122D01*
X113646716Y-84516121D01*
X113494975Y-84289025D01*
X111170686Y-81964736D01*
X113700000Y-81964736D01*
X113700000Y-83035264D01*
X113798957Y-83532752D01*
X114080761Y-83954503D01*
X114502512Y-84236307D01*
X115000000Y-84335264D01*
X115497488Y-84236307D01*
X115919239Y-83954503D01*
X116201043Y-83532752D01*
X116300000Y-83035264D01*
X116300000Y-81964736D01*
X118700000Y-81964736D01*
X118700000Y-83035264D01*
X118798957Y-83532752D01*
X119080761Y-83954503D01*
X119502512Y-84236307D01*
X120000000Y-84335264D01*
X120497488Y-84236307D01*
X120919239Y-83954503D01*
X121201043Y-83532752D01*
X121300000Y-83035264D01*
X121300000Y-81964736D01*
X121201043Y-81467248D01*
X120919239Y-81045497D01*
X120497488Y-80763693D01*
X120000000Y-80664736D01*
X119502512Y-80763693D01*
X119080761Y-81045497D01*
X118798957Y-81467248D01*
X118700000Y-81964736D01*
X116300000Y-81964736D01*
X116201043Y-81467248D01*
X115919239Y-81045497D01*
X115497488Y-80763693D01*
X115000000Y-80664736D01*
X114502512Y-80763693D01*
X114080761Y-81045497D01*
X113798957Y-81467248D01*
X113700000Y-81964736D01*
X111170686Y-81964736D01*
X109710975Y-80505025D01*
X109483879Y-80353284D01*
X109216000Y-80300000D01*
X109174816Y-80300000D01*
X109174816Y-79984000D01*
X109143438Y-79817240D01*
X109044883Y-79664081D01*
X108894505Y-79561332D01*
X108716000Y-79525184D01*
X106684000Y-79525184D01*
X106517240Y-79556562D01*
X106364081Y-79655117D01*
X106261332Y-79805495D01*
X106225184Y-79984000D01*
X106225184Y-82016000D01*
X106256562Y-82182760D01*
X106355117Y-82335919D01*
X106415972Y-82377500D01*
X106188263Y-82627069D01*
X105985511Y-83116582D01*
X105525000Y-83116582D01*
X105525000Y-70525000D01*
X110109359Y-70525000D01*
X110025906Y-70580761D01*
G36*
X127790000Y-95430000D02*
X127810000Y-95430000D01*
X127810000Y-95730000D01*
X127790000Y-95730000D01*
X127790000Y-95750000D01*
X127490000Y-95750000D01*
X127490000Y-95730000D01*
X127470000Y-95730000D01*
X127470000Y-95430000D01*
X127490000Y-95430000D01*
X127490000Y-95410000D01*
X127790000Y-95410000D01*
X127790000Y-95430000D01*
X127790000Y-95430000D01*
G37*
X127790000Y-95430000D02*
X127810000Y-95430000D01*
X127810000Y-95730000D01*
X127790000Y-95730000D01*
X127790000Y-95750000D01*
X127490000Y-95750000D01*
X127490000Y-95730000D01*
X127470000Y-95730000D01*
X127470000Y-95430000D01*
X127490000Y-95430000D01*
X127490000Y-95410000D01*
X127790000Y-95410000D01*
X127790000Y-95430000D01*
M02*
