G04 #@! TF.FileFunction,Copper,L1,Top,Signal*
%FSLAX46Y46*%
G04 Gerber Fmt 4.6, Leading zero omitted, Abs format (unit mm)*
G04 Created by KiCad (PCBNEW 4.0.7) date 04/30/18 06:53:42*
%MOMM*%
%LPD*%
G01*
G04 APERTURE LIST*
%ADD10C,0.100000*%
%ADD11O,4.700000X1.800000*%
%ADD12O,1.800000X2.700000*%
%ADD13O,3.700000X1.800000*%
%ADD14R,1.700000X1.200000*%
%ADD15O,1.700000X1.200000*%
%ADD16R,1.700000X1.700000*%
%ADD17O,1.700000X1.700000*%
%ADD18O,1.998980X1.998980*%
%ADD19R,1.998980X1.998980*%
%ADD20C,0.500000*%
%ADD21C,0.300000*%
G04 APERTURE END LIST*
D10*
D11*
X122500000Y-71600000D03*
X117500000Y-71600000D03*
X112500000Y-71600000D03*
X122500000Y-77600000D03*
X117500000Y-77600000D03*
X112500000Y-77600000D03*
D12*
X115000000Y-82600000D03*
X115000000Y-86600000D03*
X115000000Y-90600000D03*
X120000000Y-82600000D03*
X120000000Y-86600000D03*
X120000000Y-90600000D03*
D13*
X117500000Y-94800000D03*
D14*
X107600000Y-83800000D03*
D15*
X107600000Y-81800000D03*
D16*
X128200000Y-90000000D03*
D17*
X128200000Y-92540000D03*
X128200000Y-95080000D03*
D14*
X127600000Y-81800000D03*
D15*
X127600000Y-83800000D03*
D16*
X125000000Y-90000000D03*
D17*
X125000000Y-92540000D03*
X125000000Y-95080000D03*
D18*
X108600000Y-90640000D03*
D19*
X108600000Y-88100000D03*
D18*
X108600000Y-96340000D03*
D19*
X108600000Y-93800000D03*
D20*
X117500000Y-91200000D02*
X117500000Y-86500000D01*
X117500000Y-86500000D02*
X117500000Y-85500000D01*
X115000000Y-86500000D02*
X116350000Y-86500000D01*
X116350000Y-86500000D02*
X117500000Y-86500000D01*
X125000000Y-95080000D02*
X121380000Y-95080000D01*
X121380000Y-95080000D02*
X117500000Y-91200000D01*
X117500000Y-85500000D02*
X120000000Y-83000000D01*
X120000000Y-83000000D02*
X120000000Y-82500000D01*
X125000000Y-95080000D02*
X126600000Y-93480000D01*
X126600000Y-93480000D02*
X126600000Y-91600000D01*
X126600000Y-91600000D02*
X128200000Y-90000000D01*
X120000000Y-82000000D02*
X120000000Y-82500000D01*
X113000000Y-85900000D02*
X110900000Y-83800000D01*
X110900000Y-83800000D02*
X107600000Y-83800000D01*
X113000000Y-90000000D02*
X113000000Y-85900000D01*
X115000000Y-90600000D02*
X113600000Y-90600000D01*
X113600000Y-90600000D02*
X113000000Y-90000000D01*
X120000000Y-86500000D02*
X121300000Y-86500000D01*
X121300000Y-86500000D02*
X126000000Y-81800000D01*
X126000000Y-81800000D02*
X127600000Y-81800000D01*
X120000000Y-90500000D02*
X120000000Y-89100000D01*
X120000000Y-89100000D02*
X120599990Y-88500010D01*
X120599990Y-88500010D02*
X120600613Y-88500010D01*
X120600613Y-88500010D02*
X121450010Y-87650613D01*
X121450010Y-87650613D02*
X121450010Y-87649990D01*
X121450010Y-87649990D02*
X125300000Y-83800000D01*
X125300000Y-83800000D02*
X127600000Y-83800000D01*
X122500000Y-77600000D02*
X122500000Y-76200000D01*
X122500000Y-76200000D02*
X120800000Y-74500000D01*
X120800000Y-74500000D02*
X114000000Y-74500000D01*
X114000000Y-74500000D02*
X112500000Y-73000000D01*
X112500000Y-73000000D02*
X112500000Y-71600000D01*
D21*
G36*
X110040551Y-70645406D02*
X109747908Y-71083377D01*
X109645145Y-71600000D01*
X109747908Y-72116623D01*
X110040551Y-72554594D01*
X110478522Y-72847237D01*
X110995145Y-72950000D01*
X111800000Y-72950000D01*
X111800000Y-73000000D01*
X111853284Y-73267879D01*
X112005025Y-73494975D01*
X113505025Y-74994975D01*
X113732122Y-75146716D01*
X114000000Y-75200000D01*
X120510050Y-75200000D01*
X121560050Y-76250000D01*
X120995145Y-76250000D01*
X120478522Y-76352763D01*
X120040551Y-76645406D01*
X120000000Y-76706095D01*
X119959449Y-76645406D01*
X119521478Y-76352763D01*
X119004855Y-76250000D01*
X115995145Y-76250000D01*
X115478522Y-76352763D01*
X115040551Y-76645406D01*
X115000000Y-76706095D01*
X114959449Y-76645406D01*
X114521478Y-76352763D01*
X114004855Y-76250000D01*
X110995145Y-76250000D01*
X110478522Y-76352763D01*
X110040551Y-76645406D01*
X109747908Y-77083377D01*
X109645145Y-77600000D01*
X109747908Y-78116623D01*
X110040551Y-78554594D01*
X110478522Y-78847237D01*
X110995145Y-78950000D01*
X114004855Y-78950000D01*
X114521478Y-78847237D01*
X114959449Y-78554594D01*
X115000000Y-78493905D01*
X115040551Y-78554594D01*
X115478522Y-78847237D01*
X115995145Y-78950000D01*
X119004855Y-78950000D01*
X119521478Y-78847237D01*
X119959449Y-78554594D01*
X120000000Y-78493905D01*
X120040551Y-78554594D01*
X120478522Y-78847237D01*
X120995145Y-78950000D01*
X124004855Y-78950000D01*
X124521478Y-78847237D01*
X124959449Y-78554594D01*
X125252092Y-78116623D01*
X125354855Y-77600000D01*
X125252092Y-77083377D01*
X124959449Y-76645406D01*
X124521478Y-76352763D01*
X124004855Y-76250000D01*
X123200000Y-76250000D01*
X123200000Y-76200000D01*
X123146716Y-75932122D01*
X123146716Y-75932121D01*
X122994975Y-75705025D01*
X121294975Y-74005025D01*
X121067879Y-73853284D01*
X120800000Y-73800000D01*
X114289950Y-73800000D01*
X113439950Y-72950000D01*
X114004855Y-72950000D01*
X114521478Y-72847237D01*
X114959449Y-72554594D01*
X115000000Y-72493905D01*
X115040551Y-72554594D01*
X115478522Y-72847237D01*
X115995145Y-72950000D01*
X119004855Y-72950000D01*
X119521478Y-72847237D01*
X119959449Y-72554594D01*
X120000000Y-72493905D01*
X120040551Y-72554594D01*
X120478522Y-72847237D01*
X120995145Y-72950000D01*
X124004855Y-72950000D01*
X124521478Y-72847237D01*
X124959449Y-72554594D01*
X125252092Y-72116623D01*
X125354855Y-71600000D01*
X125252092Y-71083377D01*
X124959449Y-70645406D01*
X124779249Y-70525000D01*
X129475000Y-70525000D01*
X129475000Y-88979451D01*
X129378883Y-88830081D01*
X129228505Y-88727332D01*
X129050000Y-88691184D01*
X127350000Y-88691184D01*
X127183240Y-88722562D01*
X127030081Y-88821117D01*
X126927332Y-88971495D01*
X126891184Y-89150000D01*
X126891184Y-90318866D01*
X126600000Y-90610050D01*
X126600000Y-90337500D01*
X126412500Y-90150000D01*
X125150000Y-90150000D01*
X125150000Y-90170000D01*
X124850000Y-90170000D01*
X124850000Y-90150000D01*
X123587500Y-90150000D01*
X123400000Y-90337500D01*
X123400000Y-90999185D01*
X123514181Y-91274841D01*
X123725159Y-91485819D01*
X124000816Y-91600000D01*
X124086363Y-91600000D01*
X124055292Y-91620761D01*
X123773488Y-92042512D01*
X123674531Y-92540000D01*
X123773488Y-93037488D01*
X124055292Y-93459239D01*
X124477043Y-93741043D01*
X124823712Y-93810000D01*
X124477043Y-93878957D01*
X124055292Y-94160761D01*
X123908802Y-94380000D01*
X121669949Y-94380000D01*
X119656983Y-92367033D01*
X120000000Y-92435264D01*
X120516623Y-92332501D01*
X120954594Y-92039858D01*
X121247237Y-91601887D01*
X121350000Y-91085264D01*
X121350000Y-90114736D01*
X121247237Y-89598113D01*
X120954594Y-89160142D01*
X120939736Y-89150214D01*
X121089135Y-89000815D01*
X123400000Y-89000815D01*
X123400000Y-89662500D01*
X123587500Y-89850000D01*
X124850000Y-89850000D01*
X124850000Y-88587500D01*
X125150000Y-88587500D01*
X125150000Y-89850000D01*
X126412500Y-89850000D01*
X126600000Y-89662500D01*
X126600000Y-89000815D01*
X126485819Y-88725159D01*
X126274841Y-88514181D01*
X125999184Y-88400000D01*
X125337500Y-88400000D01*
X125150000Y-88587500D01*
X124850000Y-88587500D01*
X124662500Y-88400000D01*
X124000816Y-88400000D01*
X123725159Y-88514181D01*
X123514181Y-88725159D01*
X123400000Y-89000815D01*
X121089135Y-89000815D01*
X121093710Y-88996240D01*
X121095588Y-88994985D01*
X121944985Y-88145588D01*
X121946240Y-88143710D01*
X125589950Y-84500000D01*
X126553697Y-84500000D01*
X126582069Y-84542462D01*
X126922713Y-84770074D01*
X127324531Y-84850000D01*
X127875469Y-84850000D01*
X128277287Y-84770074D01*
X128617931Y-84542462D01*
X128845543Y-84201818D01*
X128925469Y-83800000D01*
X128845543Y-83398182D01*
X128617931Y-83057538D01*
X128320524Y-82858816D01*
X128450000Y-82858816D01*
X128616760Y-82827438D01*
X128769919Y-82728883D01*
X128872668Y-82578505D01*
X128908816Y-82400000D01*
X128908816Y-81200000D01*
X128877438Y-81033240D01*
X128778883Y-80880081D01*
X128628505Y-80777332D01*
X128450000Y-80741184D01*
X126750000Y-80741184D01*
X126583240Y-80772562D01*
X126430081Y-80871117D01*
X126327332Y-81021495D01*
X126311434Y-81100000D01*
X126000005Y-81100000D01*
X126000000Y-81099999D01*
X125732121Y-81153284D01*
X125505025Y-81305025D01*
X121233098Y-85576952D01*
X120954594Y-85160142D01*
X120516623Y-84867499D01*
X120000000Y-84764736D01*
X119483377Y-84867499D01*
X119045406Y-85160142D01*
X118752763Y-85598113D01*
X118650000Y-86114736D01*
X118650000Y-87085264D01*
X118752763Y-87601887D01*
X119045406Y-88039858D01*
X119483377Y-88332501D01*
X119728743Y-88381307D01*
X119505025Y-88605025D01*
X119353284Y-88832121D01*
X119353284Y-88832122D01*
X119325228Y-88973171D01*
X119045406Y-89160142D01*
X118752763Y-89598113D01*
X118650000Y-90114736D01*
X118650000Y-91085264D01*
X118718230Y-91428281D01*
X118200000Y-90910050D01*
X118200000Y-85789950D01*
X119628569Y-84361381D01*
X120000000Y-84435264D01*
X120516623Y-84332501D01*
X120954594Y-84039858D01*
X121247237Y-83601887D01*
X121350000Y-83085264D01*
X121350000Y-82114736D01*
X121247237Y-81598113D01*
X120954594Y-81160142D01*
X120516623Y-80867499D01*
X120000000Y-80764736D01*
X119483377Y-80867499D01*
X119045406Y-81160142D01*
X118752763Y-81598113D01*
X118650000Y-82114736D01*
X118650000Y-83085264D01*
X118695590Y-83314460D01*
X117005025Y-85005025D01*
X116853284Y-85232121D01*
X116818892Y-85405025D01*
X116800000Y-85500000D01*
X116800000Y-85800000D01*
X116287395Y-85800000D01*
X116247237Y-85598113D01*
X115954594Y-85160142D01*
X115516623Y-84867499D01*
X115000000Y-84764736D01*
X114483377Y-84867499D01*
X114045406Y-85160142D01*
X113752763Y-85598113D01*
X113696357Y-85881685D01*
X113646716Y-85632122D01*
X113494975Y-85405025D01*
X113494972Y-85405023D01*
X111394975Y-83305025D01*
X111167879Y-83153284D01*
X110900000Y-83100000D01*
X108890000Y-83100000D01*
X108877438Y-83033240D01*
X108778883Y-82880081D01*
X108700737Y-82826686D01*
X108887874Y-82677666D01*
X109144739Y-82213680D01*
X109151658Y-82158032D01*
X109120674Y-82114736D01*
X113650000Y-82114736D01*
X113650000Y-83085264D01*
X113752763Y-83601887D01*
X114045406Y-84039858D01*
X114483377Y-84332501D01*
X115000000Y-84435264D01*
X115516623Y-84332501D01*
X115954594Y-84039858D01*
X116247237Y-83601887D01*
X116350000Y-83085264D01*
X116350000Y-82114736D01*
X116247237Y-81598113D01*
X115954594Y-81160142D01*
X115516623Y-80867499D01*
X115000000Y-80764736D01*
X114483377Y-80867499D01*
X114045406Y-81160142D01*
X113752763Y-81598113D01*
X113650000Y-82114736D01*
X109120674Y-82114736D01*
X109002782Y-81950000D01*
X107750000Y-81950000D01*
X107750000Y-81970000D01*
X107450000Y-81970000D01*
X107450000Y-81950000D01*
X106197218Y-81950000D01*
X106048342Y-82158032D01*
X106055261Y-82213680D01*
X106312126Y-82677666D01*
X106499203Y-82826638D01*
X106430081Y-82871117D01*
X106327332Y-83021495D01*
X106291184Y-83200000D01*
X106291184Y-84400000D01*
X106322562Y-84566760D01*
X106421117Y-84719919D01*
X106571495Y-84822668D01*
X106750000Y-84858816D01*
X108450000Y-84858816D01*
X108616760Y-84827438D01*
X108769919Y-84728883D01*
X108872668Y-84578505D01*
X108888566Y-84500000D01*
X110610050Y-84500000D01*
X112300000Y-86189949D01*
X112300000Y-90000000D01*
X112353284Y-90267879D01*
X112505025Y-90494975D01*
X113105025Y-91094975D01*
X113332121Y-91246716D01*
X113600000Y-91300000D01*
X113692714Y-91300000D01*
X113752763Y-91601887D01*
X114045406Y-92039858D01*
X114483377Y-92332501D01*
X115000000Y-92435264D01*
X115516623Y-92332501D01*
X115954594Y-92039858D01*
X116247237Y-91601887D01*
X116350000Y-91085264D01*
X116350000Y-90114736D01*
X116247237Y-89598113D01*
X115954594Y-89160142D01*
X115516623Y-88867499D01*
X115000000Y-88764736D01*
X114483377Y-88867499D01*
X114045406Y-89160142D01*
X113752763Y-89598113D01*
X113725437Y-89735487D01*
X113700000Y-89710050D01*
X113700000Y-87336630D01*
X113752763Y-87601887D01*
X114045406Y-88039858D01*
X114483377Y-88332501D01*
X115000000Y-88435264D01*
X115516623Y-88332501D01*
X115954594Y-88039858D01*
X116247237Y-87601887D01*
X116327178Y-87200000D01*
X116800000Y-87200000D01*
X116800000Y-91200000D01*
X116853284Y-91467879D01*
X117005025Y-91694975D01*
X118460050Y-93150000D01*
X117650000Y-93150000D01*
X117650000Y-94650000D01*
X119904787Y-94650000D01*
X119924782Y-94614732D01*
X120885023Y-95574972D01*
X120885025Y-95574975D01*
X120998573Y-95650845D01*
X121112121Y-95726716D01*
X121380000Y-95780001D01*
X121380005Y-95780000D01*
X123908802Y-95780000D01*
X124055292Y-95999239D01*
X124477043Y-96281043D01*
X124974531Y-96380000D01*
X125025469Y-96380000D01*
X125522957Y-96281043D01*
X125944708Y-95999239D01*
X126226512Y-95577488D01*
X126246431Y-95477346D01*
X126650124Y-95477346D01*
X126823097Y-95894968D01*
X127239782Y-96359850D01*
X127802652Y-96629887D01*
X128050000Y-96485464D01*
X128050000Y-95230000D01*
X126795487Y-95230000D01*
X126650124Y-95477346D01*
X126246431Y-95477346D01*
X126325469Y-95080000D01*
X126269803Y-94800147D01*
X126980263Y-94089687D01*
X126823097Y-94265032D01*
X126650124Y-94682654D01*
X126795487Y-94930000D01*
X128050000Y-94930000D01*
X128050000Y-94910000D01*
X128350000Y-94910000D01*
X128350000Y-94930000D01*
X128370000Y-94930000D01*
X128370000Y-95230000D01*
X128350000Y-95230000D01*
X128350000Y-96485464D01*
X128597348Y-96629887D01*
X129160218Y-96359850D01*
X129475000Y-96008658D01*
X129475000Y-97475000D01*
X109902045Y-97475000D01*
X110007826Y-97378640D01*
X110298132Y-96760827D01*
X110155557Y-96490000D01*
X108750000Y-96490000D01*
X108750000Y-96510000D01*
X108450000Y-96510000D01*
X108450000Y-96490000D01*
X107044443Y-96490000D01*
X106901868Y-96760827D01*
X107192174Y-97378640D01*
X107297955Y-97475000D01*
X105525000Y-97475000D01*
X105525000Y-91060827D01*
X106901868Y-91060827D01*
X107192174Y-91678640D01*
X107696809Y-92138330D01*
X108179174Y-92338123D01*
X108449998Y-92194772D01*
X108449998Y-92341694D01*
X107600510Y-92341694D01*
X107433750Y-92373072D01*
X107280591Y-92471627D01*
X107177842Y-92622005D01*
X107141694Y-92800510D01*
X107141694Y-94799490D01*
X107173072Y-94966250D01*
X107271627Y-95119409D01*
X107340360Y-95166372D01*
X107192174Y-95301360D01*
X106901868Y-95919173D01*
X107044443Y-96190000D01*
X108450000Y-96190000D01*
X108450000Y-96170000D01*
X108750000Y-96170000D01*
X108750000Y-96190000D01*
X110155557Y-96190000D01*
X110298132Y-95919173D01*
X110007826Y-95301360D01*
X109902266Y-95205201D01*
X114950527Y-95205201D01*
X114968196Y-95292845D01*
X115277207Y-95860660D01*
X115779990Y-96266999D01*
X116400000Y-96450000D01*
X117350000Y-96450000D01*
X117350000Y-94950000D01*
X117650000Y-94950000D01*
X117650000Y-96450000D01*
X118600000Y-96450000D01*
X119220010Y-96266999D01*
X119722793Y-95860660D01*
X120031804Y-95292845D01*
X120049473Y-95205201D01*
X119904787Y-94950000D01*
X117650000Y-94950000D01*
X117350000Y-94950000D01*
X115095213Y-94950000D01*
X114950527Y-95205201D01*
X109902266Y-95205201D01*
X109859937Y-95166642D01*
X109919409Y-95128373D01*
X110022158Y-94977995D01*
X110058306Y-94799490D01*
X110058306Y-94394799D01*
X114950527Y-94394799D01*
X115095213Y-94650000D01*
X117350000Y-94650000D01*
X117350000Y-93150000D01*
X116400000Y-93150000D01*
X115779990Y-93333001D01*
X115277207Y-93739340D01*
X114968196Y-94307155D01*
X114950527Y-94394799D01*
X110058306Y-94394799D01*
X110058306Y-92800510D01*
X110026928Y-92633750D01*
X109928373Y-92480591D01*
X109777995Y-92377842D01*
X109599490Y-92341694D01*
X108750002Y-92341694D01*
X108750002Y-92194772D01*
X109020826Y-92338123D01*
X109503191Y-92138330D01*
X110007826Y-91678640D01*
X110298132Y-91060827D01*
X110155557Y-90790000D01*
X108750000Y-90790000D01*
X108750000Y-90810000D01*
X108450000Y-90810000D01*
X108450000Y-90790000D01*
X107044443Y-90790000D01*
X106901868Y-91060827D01*
X105525000Y-91060827D01*
X105525000Y-90219173D01*
X106901868Y-90219173D01*
X107044443Y-90490000D01*
X108450000Y-90490000D01*
X108450000Y-90470000D01*
X108750000Y-90470000D01*
X108750000Y-90490000D01*
X110155557Y-90490000D01*
X110298132Y-90219173D01*
X110007826Y-89601360D01*
X109859937Y-89466642D01*
X109919409Y-89428373D01*
X110022158Y-89277995D01*
X110058306Y-89099490D01*
X110058306Y-87100510D01*
X110026928Y-86933750D01*
X109928373Y-86780591D01*
X109777995Y-86677842D01*
X109599490Y-86641694D01*
X107600510Y-86641694D01*
X107433750Y-86673072D01*
X107280591Y-86771627D01*
X107177842Y-86922005D01*
X107141694Y-87100510D01*
X107141694Y-89099490D01*
X107173072Y-89266250D01*
X107271627Y-89419409D01*
X107340360Y-89466372D01*
X107192174Y-89601360D01*
X106901868Y-90219173D01*
X105525000Y-90219173D01*
X105525000Y-81441968D01*
X106048342Y-81441968D01*
X106197218Y-81650000D01*
X107450000Y-81650000D01*
X107450000Y-80631964D01*
X107750000Y-80631964D01*
X107750000Y-81650000D01*
X109002782Y-81650000D01*
X109151658Y-81441968D01*
X109144739Y-81386320D01*
X108887874Y-80922334D01*
X108473002Y-80591965D01*
X107963284Y-80445509D01*
X107750000Y-80631964D01*
X107450000Y-80631964D01*
X107236716Y-80445509D01*
X106726998Y-80591965D01*
X106312126Y-80922334D01*
X106055261Y-81386320D01*
X106048342Y-81441968D01*
X105525000Y-81441968D01*
X105525000Y-70525000D01*
X110220751Y-70525000D01*
X110040551Y-70645406D01*
X110040551Y-70645406D01*
G37*
X110040551Y-70645406D02*
X109747908Y-71083377D01*
X109645145Y-71600000D01*
X109747908Y-72116623D01*
X110040551Y-72554594D01*
X110478522Y-72847237D01*
X110995145Y-72950000D01*
X111800000Y-72950000D01*
X111800000Y-73000000D01*
X111853284Y-73267879D01*
X112005025Y-73494975D01*
X113505025Y-74994975D01*
X113732122Y-75146716D01*
X114000000Y-75200000D01*
X120510050Y-75200000D01*
X121560050Y-76250000D01*
X120995145Y-76250000D01*
X120478522Y-76352763D01*
X120040551Y-76645406D01*
X120000000Y-76706095D01*
X119959449Y-76645406D01*
X119521478Y-76352763D01*
X119004855Y-76250000D01*
X115995145Y-76250000D01*
X115478522Y-76352763D01*
X115040551Y-76645406D01*
X115000000Y-76706095D01*
X114959449Y-76645406D01*
X114521478Y-76352763D01*
X114004855Y-76250000D01*
X110995145Y-76250000D01*
X110478522Y-76352763D01*
X110040551Y-76645406D01*
X109747908Y-77083377D01*
X109645145Y-77600000D01*
X109747908Y-78116623D01*
X110040551Y-78554594D01*
X110478522Y-78847237D01*
X110995145Y-78950000D01*
X114004855Y-78950000D01*
X114521478Y-78847237D01*
X114959449Y-78554594D01*
X115000000Y-78493905D01*
X115040551Y-78554594D01*
X115478522Y-78847237D01*
X115995145Y-78950000D01*
X119004855Y-78950000D01*
X119521478Y-78847237D01*
X119959449Y-78554594D01*
X120000000Y-78493905D01*
X120040551Y-78554594D01*
X120478522Y-78847237D01*
X120995145Y-78950000D01*
X124004855Y-78950000D01*
X124521478Y-78847237D01*
X124959449Y-78554594D01*
X125252092Y-78116623D01*
X125354855Y-77600000D01*
X125252092Y-77083377D01*
X124959449Y-76645406D01*
X124521478Y-76352763D01*
X124004855Y-76250000D01*
X123200000Y-76250000D01*
X123200000Y-76200000D01*
X123146716Y-75932122D01*
X123146716Y-75932121D01*
X122994975Y-75705025D01*
X121294975Y-74005025D01*
X121067879Y-73853284D01*
X120800000Y-73800000D01*
X114289950Y-73800000D01*
X113439950Y-72950000D01*
X114004855Y-72950000D01*
X114521478Y-72847237D01*
X114959449Y-72554594D01*
X115000000Y-72493905D01*
X115040551Y-72554594D01*
X115478522Y-72847237D01*
X115995145Y-72950000D01*
X119004855Y-72950000D01*
X119521478Y-72847237D01*
X119959449Y-72554594D01*
X120000000Y-72493905D01*
X120040551Y-72554594D01*
X120478522Y-72847237D01*
X120995145Y-72950000D01*
X124004855Y-72950000D01*
X124521478Y-72847237D01*
X124959449Y-72554594D01*
X125252092Y-72116623D01*
X125354855Y-71600000D01*
X125252092Y-71083377D01*
X124959449Y-70645406D01*
X124779249Y-70525000D01*
X129475000Y-70525000D01*
X129475000Y-88979451D01*
X129378883Y-88830081D01*
X129228505Y-88727332D01*
X129050000Y-88691184D01*
X127350000Y-88691184D01*
X127183240Y-88722562D01*
X127030081Y-88821117D01*
X126927332Y-88971495D01*
X126891184Y-89150000D01*
X126891184Y-90318866D01*
X126600000Y-90610050D01*
X126600000Y-90337500D01*
X126412500Y-90150000D01*
X125150000Y-90150000D01*
X125150000Y-90170000D01*
X124850000Y-90170000D01*
X124850000Y-90150000D01*
X123587500Y-90150000D01*
X123400000Y-90337500D01*
X123400000Y-90999185D01*
X123514181Y-91274841D01*
X123725159Y-91485819D01*
X124000816Y-91600000D01*
X124086363Y-91600000D01*
X124055292Y-91620761D01*
X123773488Y-92042512D01*
X123674531Y-92540000D01*
X123773488Y-93037488D01*
X124055292Y-93459239D01*
X124477043Y-93741043D01*
X124823712Y-93810000D01*
X124477043Y-93878957D01*
X124055292Y-94160761D01*
X123908802Y-94380000D01*
X121669949Y-94380000D01*
X119656983Y-92367033D01*
X120000000Y-92435264D01*
X120516623Y-92332501D01*
X120954594Y-92039858D01*
X121247237Y-91601887D01*
X121350000Y-91085264D01*
X121350000Y-90114736D01*
X121247237Y-89598113D01*
X120954594Y-89160142D01*
X120939736Y-89150214D01*
X121089135Y-89000815D01*
X123400000Y-89000815D01*
X123400000Y-89662500D01*
X123587500Y-89850000D01*
X124850000Y-89850000D01*
X124850000Y-88587500D01*
X125150000Y-88587500D01*
X125150000Y-89850000D01*
X126412500Y-89850000D01*
X126600000Y-89662500D01*
X126600000Y-89000815D01*
X126485819Y-88725159D01*
X126274841Y-88514181D01*
X125999184Y-88400000D01*
X125337500Y-88400000D01*
X125150000Y-88587500D01*
X124850000Y-88587500D01*
X124662500Y-88400000D01*
X124000816Y-88400000D01*
X123725159Y-88514181D01*
X123514181Y-88725159D01*
X123400000Y-89000815D01*
X121089135Y-89000815D01*
X121093710Y-88996240D01*
X121095588Y-88994985D01*
X121944985Y-88145588D01*
X121946240Y-88143710D01*
X125589950Y-84500000D01*
X126553697Y-84500000D01*
X126582069Y-84542462D01*
X126922713Y-84770074D01*
X127324531Y-84850000D01*
X127875469Y-84850000D01*
X128277287Y-84770074D01*
X128617931Y-84542462D01*
X128845543Y-84201818D01*
X128925469Y-83800000D01*
X128845543Y-83398182D01*
X128617931Y-83057538D01*
X128320524Y-82858816D01*
X128450000Y-82858816D01*
X128616760Y-82827438D01*
X128769919Y-82728883D01*
X128872668Y-82578505D01*
X128908816Y-82400000D01*
X128908816Y-81200000D01*
X128877438Y-81033240D01*
X128778883Y-80880081D01*
X128628505Y-80777332D01*
X128450000Y-80741184D01*
X126750000Y-80741184D01*
X126583240Y-80772562D01*
X126430081Y-80871117D01*
X126327332Y-81021495D01*
X126311434Y-81100000D01*
X126000005Y-81100000D01*
X126000000Y-81099999D01*
X125732121Y-81153284D01*
X125505025Y-81305025D01*
X121233098Y-85576952D01*
X120954594Y-85160142D01*
X120516623Y-84867499D01*
X120000000Y-84764736D01*
X119483377Y-84867499D01*
X119045406Y-85160142D01*
X118752763Y-85598113D01*
X118650000Y-86114736D01*
X118650000Y-87085264D01*
X118752763Y-87601887D01*
X119045406Y-88039858D01*
X119483377Y-88332501D01*
X119728743Y-88381307D01*
X119505025Y-88605025D01*
X119353284Y-88832121D01*
X119353284Y-88832122D01*
X119325228Y-88973171D01*
X119045406Y-89160142D01*
X118752763Y-89598113D01*
X118650000Y-90114736D01*
X118650000Y-91085264D01*
X118718230Y-91428281D01*
X118200000Y-90910050D01*
X118200000Y-85789950D01*
X119628569Y-84361381D01*
X120000000Y-84435264D01*
X120516623Y-84332501D01*
X120954594Y-84039858D01*
X121247237Y-83601887D01*
X121350000Y-83085264D01*
X121350000Y-82114736D01*
X121247237Y-81598113D01*
X120954594Y-81160142D01*
X120516623Y-80867499D01*
X120000000Y-80764736D01*
X119483377Y-80867499D01*
X119045406Y-81160142D01*
X118752763Y-81598113D01*
X118650000Y-82114736D01*
X118650000Y-83085264D01*
X118695590Y-83314460D01*
X117005025Y-85005025D01*
X116853284Y-85232121D01*
X116818892Y-85405025D01*
X116800000Y-85500000D01*
X116800000Y-85800000D01*
X116287395Y-85800000D01*
X116247237Y-85598113D01*
X115954594Y-85160142D01*
X115516623Y-84867499D01*
X115000000Y-84764736D01*
X114483377Y-84867499D01*
X114045406Y-85160142D01*
X113752763Y-85598113D01*
X113696357Y-85881685D01*
X113646716Y-85632122D01*
X113494975Y-85405025D01*
X113494972Y-85405023D01*
X111394975Y-83305025D01*
X111167879Y-83153284D01*
X110900000Y-83100000D01*
X108890000Y-83100000D01*
X108877438Y-83033240D01*
X108778883Y-82880081D01*
X108700737Y-82826686D01*
X108887874Y-82677666D01*
X109144739Y-82213680D01*
X109151658Y-82158032D01*
X109120674Y-82114736D01*
X113650000Y-82114736D01*
X113650000Y-83085264D01*
X113752763Y-83601887D01*
X114045406Y-84039858D01*
X114483377Y-84332501D01*
X115000000Y-84435264D01*
X115516623Y-84332501D01*
X115954594Y-84039858D01*
X116247237Y-83601887D01*
X116350000Y-83085264D01*
X116350000Y-82114736D01*
X116247237Y-81598113D01*
X115954594Y-81160142D01*
X115516623Y-80867499D01*
X115000000Y-80764736D01*
X114483377Y-80867499D01*
X114045406Y-81160142D01*
X113752763Y-81598113D01*
X113650000Y-82114736D01*
X109120674Y-82114736D01*
X109002782Y-81950000D01*
X107750000Y-81950000D01*
X107750000Y-81970000D01*
X107450000Y-81970000D01*
X107450000Y-81950000D01*
X106197218Y-81950000D01*
X106048342Y-82158032D01*
X106055261Y-82213680D01*
X106312126Y-82677666D01*
X106499203Y-82826638D01*
X106430081Y-82871117D01*
X106327332Y-83021495D01*
X106291184Y-83200000D01*
X106291184Y-84400000D01*
X106322562Y-84566760D01*
X106421117Y-84719919D01*
X106571495Y-84822668D01*
X106750000Y-84858816D01*
X108450000Y-84858816D01*
X108616760Y-84827438D01*
X108769919Y-84728883D01*
X108872668Y-84578505D01*
X108888566Y-84500000D01*
X110610050Y-84500000D01*
X112300000Y-86189949D01*
X112300000Y-90000000D01*
X112353284Y-90267879D01*
X112505025Y-90494975D01*
X113105025Y-91094975D01*
X113332121Y-91246716D01*
X113600000Y-91300000D01*
X113692714Y-91300000D01*
X113752763Y-91601887D01*
X114045406Y-92039858D01*
X114483377Y-92332501D01*
X115000000Y-92435264D01*
X115516623Y-92332501D01*
X115954594Y-92039858D01*
X116247237Y-91601887D01*
X116350000Y-91085264D01*
X116350000Y-90114736D01*
X116247237Y-89598113D01*
X115954594Y-89160142D01*
X115516623Y-88867499D01*
X115000000Y-88764736D01*
X114483377Y-88867499D01*
X114045406Y-89160142D01*
X113752763Y-89598113D01*
X113725437Y-89735487D01*
X113700000Y-89710050D01*
X113700000Y-87336630D01*
X113752763Y-87601887D01*
X114045406Y-88039858D01*
X114483377Y-88332501D01*
X115000000Y-88435264D01*
X115516623Y-88332501D01*
X115954594Y-88039858D01*
X116247237Y-87601887D01*
X116327178Y-87200000D01*
X116800000Y-87200000D01*
X116800000Y-91200000D01*
X116853284Y-91467879D01*
X117005025Y-91694975D01*
X118460050Y-93150000D01*
X117650000Y-93150000D01*
X117650000Y-94650000D01*
X119904787Y-94650000D01*
X119924782Y-94614732D01*
X120885023Y-95574972D01*
X120885025Y-95574975D01*
X120998573Y-95650845D01*
X121112121Y-95726716D01*
X121380000Y-95780001D01*
X121380005Y-95780000D01*
X123908802Y-95780000D01*
X124055292Y-95999239D01*
X124477043Y-96281043D01*
X124974531Y-96380000D01*
X125025469Y-96380000D01*
X125522957Y-96281043D01*
X125944708Y-95999239D01*
X126226512Y-95577488D01*
X126246431Y-95477346D01*
X126650124Y-95477346D01*
X126823097Y-95894968D01*
X127239782Y-96359850D01*
X127802652Y-96629887D01*
X128050000Y-96485464D01*
X128050000Y-95230000D01*
X126795487Y-95230000D01*
X126650124Y-95477346D01*
X126246431Y-95477346D01*
X126325469Y-95080000D01*
X126269803Y-94800147D01*
X126980263Y-94089687D01*
X126823097Y-94265032D01*
X126650124Y-94682654D01*
X126795487Y-94930000D01*
X128050000Y-94930000D01*
X128050000Y-94910000D01*
X128350000Y-94910000D01*
X128350000Y-94930000D01*
X128370000Y-94930000D01*
X128370000Y-95230000D01*
X128350000Y-95230000D01*
X128350000Y-96485464D01*
X128597348Y-96629887D01*
X129160218Y-96359850D01*
X129475000Y-96008658D01*
X129475000Y-97475000D01*
X109902045Y-97475000D01*
X110007826Y-97378640D01*
X110298132Y-96760827D01*
X110155557Y-96490000D01*
X108750000Y-96490000D01*
X108750000Y-96510000D01*
X108450000Y-96510000D01*
X108450000Y-96490000D01*
X107044443Y-96490000D01*
X106901868Y-96760827D01*
X107192174Y-97378640D01*
X107297955Y-97475000D01*
X105525000Y-97475000D01*
X105525000Y-91060827D01*
X106901868Y-91060827D01*
X107192174Y-91678640D01*
X107696809Y-92138330D01*
X108179174Y-92338123D01*
X108449998Y-92194772D01*
X108449998Y-92341694D01*
X107600510Y-92341694D01*
X107433750Y-92373072D01*
X107280591Y-92471627D01*
X107177842Y-92622005D01*
X107141694Y-92800510D01*
X107141694Y-94799490D01*
X107173072Y-94966250D01*
X107271627Y-95119409D01*
X107340360Y-95166372D01*
X107192174Y-95301360D01*
X106901868Y-95919173D01*
X107044443Y-96190000D01*
X108450000Y-96190000D01*
X108450000Y-96170000D01*
X108750000Y-96170000D01*
X108750000Y-96190000D01*
X110155557Y-96190000D01*
X110298132Y-95919173D01*
X110007826Y-95301360D01*
X109902266Y-95205201D01*
X114950527Y-95205201D01*
X114968196Y-95292845D01*
X115277207Y-95860660D01*
X115779990Y-96266999D01*
X116400000Y-96450000D01*
X117350000Y-96450000D01*
X117350000Y-94950000D01*
X117650000Y-94950000D01*
X117650000Y-96450000D01*
X118600000Y-96450000D01*
X119220010Y-96266999D01*
X119722793Y-95860660D01*
X120031804Y-95292845D01*
X120049473Y-95205201D01*
X119904787Y-94950000D01*
X117650000Y-94950000D01*
X117350000Y-94950000D01*
X115095213Y-94950000D01*
X114950527Y-95205201D01*
X109902266Y-95205201D01*
X109859937Y-95166642D01*
X109919409Y-95128373D01*
X110022158Y-94977995D01*
X110058306Y-94799490D01*
X110058306Y-94394799D01*
X114950527Y-94394799D01*
X115095213Y-94650000D01*
X117350000Y-94650000D01*
X117350000Y-93150000D01*
X116400000Y-93150000D01*
X115779990Y-93333001D01*
X115277207Y-93739340D01*
X114968196Y-94307155D01*
X114950527Y-94394799D01*
X110058306Y-94394799D01*
X110058306Y-92800510D01*
X110026928Y-92633750D01*
X109928373Y-92480591D01*
X109777995Y-92377842D01*
X109599490Y-92341694D01*
X108750002Y-92341694D01*
X108750002Y-92194772D01*
X109020826Y-92338123D01*
X109503191Y-92138330D01*
X110007826Y-91678640D01*
X110298132Y-91060827D01*
X110155557Y-90790000D01*
X108750000Y-90790000D01*
X108750000Y-90810000D01*
X108450000Y-90810000D01*
X108450000Y-90790000D01*
X107044443Y-90790000D01*
X106901868Y-91060827D01*
X105525000Y-91060827D01*
X105525000Y-90219173D01*
X106901868Y-90219173D01*
X107044443Y-90490000D01*
X108450000Y-90490000D01*
X108450000Y-90470000D01*
X108750000Y-90470000D01*
X108750000Y-90490000D01*
X110155557Y-90490000D01*
X110298132Y-90219173D01*
X110007826Y-89601360D01*
X109859937Y-89466642D01*
X109919409Y-89428373D01*
X110022158Y-89277995D01*
X110058306Y-89099490D01*
X110058306Y-87100510D01*
X110026928Y-86933750D01*
X109928373Y-86780591D01*
X109777995Y-86677842D01*
X109599490Y-86641694D01*
X107600510Y-86641694D01*
X107433750Y-86673072D01*
X107280591Y-86771627D01*
X107177842Y-86922005D01*
X107141694Y-87100510D01*
X107141694Y-89099490D01*
X107173072Y-89266250D01*
X107271627Y-89419409D01*
X107340360Y-89466372D01*
X107192174Y-89601360D01*
X106901868Y-90219173D01*
X105525000Y-90219173D01*
X105525000Y-81441968D01*
X106048342Y-81441968D01*
X106197218Y-81650000D01*
X107450000Y-81650000D01*
X107450000Y-80631964D01*
X107750000Y-80631964D01*
X107750000Y-81650000D01*
X109002782Y-81650000D01*
X109151658Y-81441968D01*
X109144739Y-81386320D01*
X108887874Y-80922334D01*
X108473002Y-80591965D01*
X107963284Y-80445509D01*
X107750000Y-80631964D01*
X107450000Y-80631964D01*
X107236716Y-80445509D01*
X106726998Y-80591965D01*
X106312126Y-80922334D01*
X106055261Y-81386320D01*
X106048342Y-81441968D01*
X105525000Y-81441968D01*
X105525000Y-70525000D01*
X110220751Y-70525000D01*
X110040551Y-70645406D01*
M02*
