G04 #@! TF.FileFunction,Legend,Top*
%FSLAX46Y46*%
G04 Gerber Fmt 4.6, Leading zero omitted, Abs format (unit mm)*
G04 Created by KiCad (PCBNEW 4.0.4-1.fc24-product) date Mon Aug 27 11:40:24 2018*
%MOMM*%
%LPD*%
G01*
G04 APERTURE LIST*
%ADD10C,0.100000*%
%ADD11C,0.150000*%
G04 APERTURE END LIST*
D10*
D11*
X128570000Y-82270000D02*
X128570000Y-84810000D01*
X128850000Y-79450000D02*
X128850000Y-81000000D01*
X128570000Y-82270000D02*
X126030000Y-82270000D01*
X125750000Y-81000000D02*
X125750000Y-79450000D01*
X125750000Y-79450000D02*
X128850000Y-79450000D01*
X126030000Y-82270000D02*
X126030000Y-84810000D01*
X126030000Y-84810000D02*
X128570000Y-84810000D01*
X123830000Y-91770000D02*
X123830000Y-96850000D01*
X123550000Y-88950000D02*
X125100000Y-88950000D01*
X126370000Y-89230000D02*
X126370000Y-91770000D01*
X126370000Y-91770000D02*
X123830000Y-91770000D01*
X123830000Y-96850000D02*
X128910000Y-96850000D01*
X128910000Y-96850000D02*
X128910000Y-91770000D01*
X123550000Y-88950000D02*
X123550000Y-90500000D01*
X128910000Y-89230000D02*
X126370000Y-89230000D01*
X128910000Y-91770000D02*
X128910000Y-89230000D01*
X108970000Y-82270000D02*
X108970000Y-84810000D01*
X109250000Y-79450000D02*
X109250000Y-81000000D01*
X108970000Y-82270000D02*
X106430000Y-82270000D01*
X106150000Y-81000000D02*
X106150000Y-79450000D01*
X106150000Y-79450000D02*
X109250000Y-79450000D01*
X106430000Y-82270000D02*
X106430000Y-84810000D01*
X106430000Y-84810000D02*
X108970000Y-84810000D01*
X105599040Y-92169080D02*
X105599040Y-86570920D01*
X105101200Y-86769040D02*
X105599040Y-86769040D01*
X105599040Y-91970960D02*
X105101200Y-91970960D01*
X105101200Y-89370000D02*
X105599040Y-89370000D01*
X110900020Y-86570920D02*
X110900020Y-92169080D01*
X105101200Y-86570920D02*
X105101200Y-92169080D01*
X105101200Y-92169080D02*
X111298800Y-92169080D01*
X111298800Y-92169080D02*
X111298800Y-86570920D01*
X111298800Y-86570920D02*
X105101200Y-86570920D01*
X105599040Y-97869080D02*
X105599040Y-92270920D01*
X105101200Y-92469040D02*
X105599040Y-92469040D01*
X105599040Y-97670960D02*
X105101200Y-97670960D01*
X105101200Y-95070000D02*
X105599040Y-95070000D01*
X110900020Y-92270920D02*
X110900020Y-97869080D01*
X105101200Y-92270920D02*
X105101200Y-97869080D01*
X105101200Y-97869080D02*
X111298800Y-97869080D01*
X111298800Y-97869080D02*
X111298800Y-92270920D01*
X111298800Y-92270920D02*
X105101200Y-92270920D01*
X126866667Y-78102381D02*
X126866667Y-78816667D01*
X126819047Y-78959524D01*
X126723809Y-79054762D01*
X126580952Y-79102381D01*
X126485714Y-79102381D01*
X127771429Y-78435714D02*
X127771429Y-79102381D01*
X127533333Y-78054762D02*
X127295238Y-78769048D01*
X127914286Y-78769048D01*
X123966667Y-87652381D02*
X123966667Y-88366667D01*
X123919047Y-88509524D01*
X123823809Y-88604762D01*
X123680952Y-88652381D01*
X123585714Y-88652381D01*
X124395238Y-87747619D02*
X124442857Y-87700000D01*
X124538095Y-87652381D01*
X124776191Y-87652381D01*
X124871429Y-87700000D01*
X124919048Y-87747619D01*
X124966667Y-87842857D01*
X124966667Y-87938095D01*
X124919048Y-88080952D01*
X124347619Y-88652381D01*
X124966667Y-88652381D01*
X107266667Y-78002381D02*
X107266667Y-78716667D01*
X107219047Y-78859524D01*
X107123809Y-78954762D01*
X106980952Y-79002381D01*
X106885714Y-79002381D01*
X107647619Y-78002381D02*
X108314286Y-78002381D01*
X107885714Y-79002381D01*
X111527382Y-89833333D02*
X112241668Y-89833333D01*
X112384525Y-89880953D01*
X112479763Y-89976191D01*
X112527382Y-90119048D01*
X112527382Y-90214286D01*
X111527382Y-89452381D02*
X111527382Y-88833333D01*
X111908334Y-89166667D01*
X111908334Y-89023809D01*
X111955953Y-88928571D01*
X112003572Y-88880952D01*
X112098811Y-88833333D01*
X112336906Y-88833333D01*
X112432144Y-88880952D01*
X112479763Y-88928571D01*
X112527382Y-89023809D01*
X112527382Y-89309524D01*
X112479763Y-89404762D01*
X112432144Y-89452381D01*
X111652381Y-95373333D02*
X112366667Y-95373333D01*
X112509524Y-95420953D01*
X112604762Y-95516191D01*
X112652381Y-95659048D01*
X112652381Y-95754286D01*
X111652381Y-94468571D02*
X111652381Y-94659048D01*
X111700000Y-94754286D01*
X111747619Y-94801905D01*
X111890476Y-94897143D01*
X112080952Y-94944762D01*
X112461905Y-94944762D01*
X112557143Y-94897143D01*
X112604762Y-94849524D01*
X112652381Y-94754286D01*
X112652381Y-94563809D01*
X112604762Y-94468571D01*
X112557143Y-94420952D01*
X112461905Y-94373333D01*
X112223810Y-94373333D01*
X112128571Y-94420952D01*
X112080952Y-94468571D01*
X112033333Y-94563809D01*
X112033333Y-94754286D01*
X112080952Y-94849524D01*
X112128571Y-94897143D01*
X112223810Y-94944762D01*
M02*
