M48
;DRILL file {KiCad 4.0.7} date 04/30/18 06:53:54
;FORMAT={-:-/ absolute / metric / decimal}
FMAT,2
METRIC,TZ
T1C0.750
T2C1.000
T3C1.097
%
G90
G05
M71
T1
X107.6Y-81.8
X107.6Y-83.8
X127.6Y-81.8
X127.6Y-83.8
T2
X125.Y-90.
X125.Y-92.54
X125.Y-95.08
X128.2Y-90.
X128.2Y-92.54
X128.2Y-95.08
T3
X108.6Y-88.1
X108.6Y-90.64
X108.6Y-93.8
X108.6Y-96.34
T2
X111.05Y-71.6G85X113.95Y-71.6
G05
X111.05Y-77.6G85X113.95Y-77.6
G05
X115.Y-83.05G85X115.Y-82.15
G05
X115.Y-87.05G85X115.Y-86.15
G05
X115.Y-91.05G85X115.Y-90.15
G05
X116.05Y-71.6G85X118.95Y-71.6
G05
X116.05Y-77.6G85X118.95Y-77.6
G05
X116.55Y-94.8G85X118.45Y-94.8
G05
X120.Y-83.05G85X120.Y-82.15
G05
X120.Y-87.05G85X120.Y-86.15
G05
X120.Y-91.05G85X120.Y-90.15
G05
X121.05Y-71.6G85X123.95Y-71.6
G05
X121.05Y-77.6G85X123.95Y-77.6
G05
T0
M30
