M48
;DRILL file {KiCad 4.0.4-1.fc24-product} date Mon Jan 15 09:21:45 2018
;FORMAT={-:-/ absolute / metric / decimal}
FMAT,2
METRIC,TZ
T1C0.400
T2C0.800
T3C1.000
T4C1.097
%
G90
G05
M71
T1
X138.3Y-75.
X142.02Y-83.486
X142.25Y-88.75
X146.8Y-88.3
X148.464Y-83.111
X149.6Y-88.9
X151.9Y-89.1
X152.1Y-91.9
X152.3Y-76.5
X153.8Y-86.1
X154.7Y-88.1
X158.924Y-82.966
X160.Y-89.
X160.5Y-73.4
T2
X147.Y-95.2
X149.Y-95.2
X151.Y-95.2
X153.Y-95.2
X155.Y-95.2
T3
X148.5Y-70.
X148.5Y-72.5
X151.Y-70.
X151.Y-72.5
X153.5Y-70.
X153.5Y-72.5
T4
X138.06Y-94.3
X140.6Y-94.3
X161.26Y-94.3
X163.8Y-94.3
T0
M30
