%TF.GenerationSoftware,KiCad,Pcbnew,4.0.4-1.fc24-product*%
%TF.CreationDate,2018-01-12T13:17:57+11:00*%
%TF.ProjectId,A_BND_BUF,415F424E445F4255462E6B696361645F,rev?*%
%TF.FileFunction,Legend,Bot*%
%FSLAX46Y46*%
G04 Gerber Fmt 4.6, Leading zero omitted, Abs format (unit mm)*
G04 Created by KiCad (PCBNEW 4.0.4-1.fc24-product) date Fri Jan 12 13:17:57 2018*
%MOMM*%
%LPD*%
G01*
G04 APERTURE LIST*
%ADD10C,0.100000*%
%ADD11C,0.150000*%
%ADD12C,0.120000*%
G04 APERTURE END LIST*
D10*
D11*
X163757143Y-69432143D02*
X163671429Y-69460714D01*
X163642857Y-69489286D01*
X163614286Y-69546429D01*
X163614286Y-69632143D01*
X163642857Y-69689286D01*
X163671429Y-69717857D01*
X163728571Y-69746429D01*
X163957143Y-69746429D01*
X163957143Y-69146429D01*
X163757143Y-69146429D01*
X163700000Y-69175000D01*
X163671429Y-69203571D01*
X163642857Y-69260714D01*
X163642857Y-69317857D01*
X163671429Y-69375000D01*
X163700000Y-69403571D01*
X163757143Y-69432143D01*
X163957143Y-69432143D01*
X163042857Y-69175000D02*
X163100000Y-69146429D01*
X163185714Y-69146429D01*
X163271429Y-69175000D01*
X163328571Y-69232143D01*
X163357143Y-69289286D01*
X163385714Y-69403571D01*
X163385714Y-69489286D01*
X163357143Y-69603571D01*
X163328571Y-69660714D01*
X163271429Y-69717857D01*
X163185714Y-69746429D01*
X163128571Y-69746429D01*
X163042857Y-69717857D01*
X163014286Y-69689286D01*
X163014286Y-69489286D01*
X163128571Y-69489286D01*
X162757143Y-69746429D02*
X162757143Y-69146429D01*
X162528571Y-69146429D01*
X162471429Y-69175000D01*
X162442857Y-69203571D01*
X162414286Y-69260714D01*
X162414286Y-69346429D01*
X162442857Y-69403571D01*
X162471429Y-69432143D01*
X162528571Y-69460714D01*
X162757143Y-69460714D01*
X161785714Y-69146429D02*
X161585714Y-69746429D01*
X161385714Y-69146429D01*
X161071428Y-69146429D02*
X161014285Y-69146429D01*
X160957142Y-69175000D01*
X160928571Y-69203571D01*
X160900000Y-69260714D01*
X160871428Y-69375000D01*
X160871428Y-69517857D01*
X160900000Y-69632143D01*
X160928571Y-69689286D01*
X160957142Y-69717857D01*
X161014285Y-69746429D01*
X161071428Y-69746429D01*
X161128571Y-69717857D01*
X161157142Y-69689286D01*
X161185714Y-69632143D01*
X161214285Y-69517857D01*
X161214285Y-69375000D01*
X161185714Y-69260714D01*
X161157142Y-69203571D01*
X161128571Y-69175000D01*
X161071428Y-69146429D01*
X160614285Y-69689286D02*
X160585713Y-69717857D01*
X160614285Y-69746429D01*
X160642856Y-69717857D01*
X160614285Y-69689286D01*
X160614285Y-69746429D01*
X160214285Y-69146429D02*
X160157142Y-69146429D01*
X160099999Y-69175000D01*
X160071428Y-69203571D01*
X160042857Y-69260714D01*
X160014285Y-69375000D01*
X160014285Y-69517857D01*
X160042857Y-69632143D01*
X160071428Y-69689286D01*
X160099999Y-69717857D01*
X160157142Y-69746429D01*
X160214285Y-69746429D01*
X160271428Y-69717857D01*
X160299999Y-69689286D01*
X160328571Y-69632143D01*
X160357142Y-69517857D01*
X160357142Y-69375000D01*
X160328571Y-69260714D01*
X160299999Y-69203571D01*
X160271428Y-69175000D01*
X160214285Y-69146429D01*
X164585714Y-70482143D02*
X164500000Y-70510714D01*
X164471428Y-70539286D01*
X164442857Y-70596429D01*
X164442857Y-70682143D01*
X164471428Y-70739286D01*
X164500000Y-70767857D01*
X164557142Y-70796429D01*
X164785714Y-70796429D01*
X164785714Y-70196429D01*
X164585714Y-70196429D01*
X164528571Y-70225000D01*
X164500000Y-70253571D01*
X164471428Y-70310714D01*
X164471428Y-70367857D01*
X164500000Y-70425000D01*
X164528571Y-70453571D01*
X164585714Y-70482143D01*
X164785714Y-70482143D01*
X163928571Y-70396429D02*
X163928571Y-70796429D01*
X164185714Y-70396429D02*
X164185714Y-70710714D01*
X164157142Y-70767857D01*
X164100000Y-70796429D01*
X164014285Y-70796429D01*
X163957142Y-70767857D01*
X163928571Y-70739286D01*
X163728571Y-70396429D02*
X163500000Y-70396429D01*
X163642857Y-70796429D02*
X163642857Y-70282143D01*
X163614285Y-70225000D01*
X163557143Y-70196429D01*
X163500000Y-70196429D01*
X163385714Y-70396429D02*
X163157143Y-70396429D01*
X163300000Y-70796429D02*
X163300000Y-70282143D01*
X163271428Y-70225000D01*
X163214286Y-70196429D01*
X163157143Y-70196429D01*
X162728571Y-70767857D02*
X162785714Y-70796429D01*
X162900000Y-70796429D01*
X162957143Y-70767857D01*
X162985714Y-70710714D01*
X162985714Y-70482143D01*
X162957143Y-70425000D01*
X162900000Y-70396429D01*
X162785714Y-70396429D01*
X162728571Y-70425000D01*
X162700000Y-70482143D01*
X162700000Y-70539286D01*
X162985714Y-70596429D01*
X162442857Y-70796429D02*
X162442857Y-70396429D01*
X162442857Y-70510714D02*
X162414285Y-70453571D01*
X162385714Y-70425000D01*
X162328571Y-70396429D01*
X162271428Y-70396429D01*
X161642856Y-70167857D02*
X162157142Y-70939286D01*
X161242857Y-70482143D02*
X161157143Y-70510714D01*
X161128571Y-70539286D01*
X161100000Y-70596429D01*
X161100000Y-70682143D01*
X161128571Y-70739286D01*
X161157143Y-70767857D01*
X161214285Y-70796429D01*
X161442857Y-70796429D01*
X161442857Y-70196429D01*
X161242857Y-70196429D01*
X161185714Y-70225000D01*
X161157143Y-70253571D01*
X161128571Y-70310714D01*
X161128571Y-70367857D01*
X161157143Y-70425000D01*
X161185714Y-70453571D01*
X161242857Y-70482143D01*
X161442857Y-70482143D01*
X160757143Y-70796429D02*
X160814285Y-70767857D01*
X160842857Y-70710714D01*
X160842857Y-70196429D01*
X160299999Y-70767857D02*
X160357142Y-70796429D01*
X160471428Y-70796429D01*
X160528571Y-70767857D01*
X160557142Y-70710714D01*
X160557142Y-70482143D01*
X160528571Y-70425000D01*
X160471428Y-70396429D01*
X160357142Y-70396429D01*
X160299999Y-70425000D01*
X160271428Y-70482143D01*
X160271428Y-70539286D01*
X160557142Y-70596429D01*
X160014285Y-70396429D02*
X160014285Y-70796429D01*
X160014285Y-70453571D02*
X159985713Y-70425000D01*
X159928571Y-70396429D01*
X159842856Y-70396429D01*
X159785713Y-70425000D01*
X159757142Y-70482143D01*
X159757142Y-70796429D01*
X159214285Y-70796429D02*
X159214285Y-70196429D01*
X159214285Y-70767857D02*
X159271428Y-70796429D01*
X159385714Y-70796429D01*
X159442856Y-70767857D01*
X159471428Y-70739286D01*
X159499999Y-70682143D01*
X159499999Y-70510714D01*
X159471428Y-70453571D01*
X159442856Y-70425000D01*
X159385714Y-70396429D01*
X159271428Y-70396429D01*
X159214285Y-70425000D01*
X155201160Y-82300080D02*
X155201160Y-86099920D01*
X148500640Y-82300080D02*
X153499360Y-82300080D01*
X148503180Y-86099920D02*
X153501900Y-86099920D01*
X155704080Y-81296780D02*
X155704080Y-82396600D01*
X156303520Y-81797160D02*
X155104640Y-81797160D01*
X150000000Y-89575000D02*
X152000000Y-89575000D01*
X152000000Y-91625000D02*
X150000000Y-91625000D01*
D12*
X155810000Y-74610000D02*
X155810000Y-67940000D01*
X146190000Y-74610000D02*
X146190000Y-67940000D01*
X155810000Y-74610000D02*
X146190000Y-74610000D01*
X155810000Y-67940000D02*
X146190000Y-67940000D01*
D11*
X153200000Y-82014286D02*
X153228571Y-82042857D01*
X153314285Y-82071429D01*
X153371428Y-82071429D01*
X153457143Y-82042857D01*
X153514285Y-81985714D01*
X153542857Y-81928571D01*
X153571428Y-81814286D01*
X153571428Y-81728571D01*
X153542857Y-81614286D01*
X153514285Y-81557143D01*
X153457143Y-81500000D01*
X153371428Y-81471429D01*
X153314285Y-81471429D01*
X153228571Y-81500000D01*
X153200000Y-81528571D01*
X152685714Y-81471429D02*
X152800000Y-81471429D01*
X152857143Y-81500000D01*
X152885714Y-81528571D01*
X152942857Y-81614286D01*
X152971428Y-81728571D01*
X152971428Y-81957143D01*
X152942857Y-82014286D01*
X152914285Y-82042857D01*
X152857143Y-82071429D01*
X152742857Y-82071429D01*
X152685714Y-82042857D01*
X152657143Y-82014286D01*
X152628571Y-81957143D01*
X152628571Y-81814286D01*
X152657143Y-81757143D01*
X152685714Y-81728571D01*
X152742857Y-81700000D01*
X152857143Y-81700000D01*
X152914285Y-81728571D01*
X152942857Y-81757143D01*
X152971428Y-81814286D01*
X155930111Y-81842557D02*
X155472968Y-81842557D01*
X155701539Y-82071129D02*
X155701539Y-81613986D01*
X153800000Y-89214286D02*
X153828571Y-89242857D01*
X153914285Y-89271429D01*
X153971428Y-89271429D01*
X154057143Y-89242857D01*
X154114285Y-89185714D01*
X154142857Y-89128571D01*
X154171428Y-89014286D01*
X154171428Y-88928571D01*
X154142857Y-88814286D01*
X154114285Y-88757143D01*
X154057143Y-88700000D01*
X153971428Y-88671429D01*
X153914285Y-88671429D01*
X153828571Y-88700000D01*
X153800000Y-88728571D01*
X153257143Y-88671429D02*
X153542857Y-88671429D01*
X153571428Y-88957143D01*
X153542857Y-88928571D01*
X153485714Y-88900000D01*
X153342857Y-88900000D01*
X153285714Y-88928571D01*
X153257143Y-88957143D01*
X153228571Y-89014286D01*
X153228571Y-89157143D01*
X153257143Y-89214286D01*
X153285714Y-89242857D01*
X153342857Y-89271429D01*
X153485714Y-89271429D01*
X153542857Y-89242857D01*
X153571428Y-89214286D01*
X145871429Y-68942857D02*
X145585714Y-68742857D01*
X145871429Y-68600000D02*
X145271429Y-68600000D01*
X145271429Y-68828572D01*
X145300000Y-68885714D01*
X145328571Y-68914286D01*
X145385714Y-68942857D01*
X145471429Y-68942857D01*
X145528571Y-68914286D01*
X145557143Y-68885714D01*
X145585714Y-68828572D01*
X145585714Y-68600000D01*
X145271429Y-69114286D02*
X145871429Y-69314286D01*
X145271429Y-69514286D01*
X145871429Y-70028572D02*
X145871429Y-69685715D01*
X145871429Y-69857143D02*
X145271429Y-69857143D01*
X145357143Y-69800000D01*
X145414286Y-69742858D01*
X145442857Y-69685715D01*
M02*
