%TF.GenerationSoftware,KiCad,Pcbnew,4.0.4-1.fc24-product*%
%TF.CreationDate,2018-01-15T12:19:21+11:00*%
%TF.ProjectId,A_BND_BUF,415F424E445F4255462E6B696361645F,rev?*%
%TF.FileFunction,Copper,L2,Bot,Signal*%
%FSLAX46Y46*%
G04 Gerber Fmt 4.6, Leading zero omitted, Abs format (unit mm)*
G04 Created by KiCad (PCBNEW 4.0.4-1.fc24-product) date Mon Jan 15 12:19:21 2018*
%MOMM*%
%LPD*%
G01*
G04 APERTURE LIST*
%ADD10C,0.100000*%
%ADD11O,1.998980X1.998980*%
%ADD12R,1.998980X1.998980*%
%ADD13R,1.500000X1.500000*%
%ADD14C,1.500000*%
%ADD15C,1.800000*%
%ADD16R,1.950720X1.501140*%
%ADD17R,1.500000X1.250000*%
%ADD18C,0.600000*%
%ADD19C,0.300000*%
%ADD20C,0.400000*%
%ADD21C,0.254000*%
G04 APERTURE END LIST*
D10*
D11*
X138060000Y-94300000D03*
D12*
X140600000Y-94300000D03*
D11*
X161260000Y-94300000D03*
D12*
X163800000Y-94300000D03*
D13*
X147000000Y-95200000D03*
D14*
X149000000Y-95200000D03*
X151000000Y-95200000D03*
X153000000Y-95200000D03*
X155000000Y-95200000D03*
D15*
X153500000Y-70000000D03*
X151000000Y-70000000D03*
X148500000Y-70000000D03*
X153500000Y-72500000D03*
X151000000Y-72500000D03*
X148500000Y-72500000D03*
D16*
X152124140Y-90650000D03*
X149375860Y-90650000D03*
D17*
X153000000Y-83350000D03*
X150500000Y-83350000D03*
D18*
X152300000Y-76500000D03*
X149600000Y-88900004D03*
X151900000Y-89100004D03*
X160000000Y-89000000D03*
X142250000Y-88750000D03*
X158923600Y-82966300D03*
X142020500Y-83486200D03*
X153800000Y-86100000D03*
X160500000Y-73400000D03*
X138300000Y-75000000D03*
X146800000Y-88300000D03*
X154700000Y-88100000D03*
X152100000Y-91899978D03*
X148463800Y-83111000D03*
D19*
X152300000Y-76075736D02*
X152300000Y-76500000D01*
X152300000Y-73700000D02*
X152300000Y-76075736D01*
X153500000Y-72500000D02*
X152300000Y-73700000D01*
D20*
X149000000Y-95300000D02*
X149000000Y-91025860D01*
X149000000Y-91025860D02*
X149375860Y-90650000D01*
X153500001Y-85800001D02*
X153800000Y-86100000D01*
X153000000Y-83350000D02*
X153000000Y-85300000D01*
X153000000Y-95300000D02*
X155509000Y-92791000D01*
X155509000Y-92791000D02*
X155509000Y-87384736D01*
X154224264Y-86100000D02*
X153800000Y-86100000D01*
X153000000Y-85300000D02*
X153500001Y-85800001D01*
X155509000Y-87384736D02*
X154224264Y-86100000D01*
X160200001Y-73699999D02*
X160500000Y-73400000D01*
X153526000Y-80374000D02*
X160200001Y-73699999D01*
X153126000Y-80374000D02*
X153526000Y-80374000D01*
X143674000Y-80374000D02*
X138300000Y-75000000D01*
X153126000Y-80374000D02*
X143674000Y-80374000D01*
X153000000Y-80500000D02*
X153126000Y-80374000D01*
X153000000Y-83350000D02*
X153000000Y-80500000D01*
D19*
X147099999Y-88000001D02*
X146800000Y-88300000D01*
X154400001Y-87800001D02*
X147299999Y-87800001D01*
X154700000Y-88100000D02*
X154400001Y-87800001D01*
X147299999Y-87800001D02*
X147099999Y-88000001D01*
X152124140Y-91875838D02*
X152100000Y-91899978D01*
X152124140Y-90650000D02*
X152124140Y-91875838D01*
X152124100Y-90650000D02*
X152174100Y-90700000D01*
X149060700Y-83111000D02*
X149299700Y-83350000D01*
X148463800Y-83111000D02*
X149060700Y-83111000D01*
X150500000Y-83350000D02*
X149299700Y-83350000D01*
D21*
G36*
X149573000Y-69196574D02*
X149252666Y-68875681D01*
X148765115Y-68673231D01*
X148237202Y-68672771D01*
X147749297Y-68874369D01*
X147375681Y-69247334D01*
X147173231Y-69734885D01*
X147172771Y-70262798D01*
X147374369Y-70750703D01*
X147747334Y-71124319D01*
X147763696Y-71131113D01*
X147685852Y-71163357D01*
X147599446Y-71419841D01*
X148500000Y-72320395D01*
X148514143Y-72306253D01*
X148693748Y-72485858D01*
X148679605Y-72500000D01*
X148693748Y-72514143D01*
X148514143Y-72693748D01*
X148500000Y-72679605D01*
X147599446Y-73580159D01*
X147685852Y-73836643D01*
X148259336Y-74046458D01*
X148869460Y-74020839D01*
X149314148Y-73836643D01*
X149400553Y-73580161D01*
X149515110Y-73694718D01*
X149573000Y-73636828D01*
X149573000Y-79747000D01*
X143933712Y-79747000D01*
X139016134Y-74829422D01*
X138916680Y-74588725D01*
X138712350Y-74384039D01*
X138445244Y-74273126D01*
X138156025Y-74272874D01*
X137888725Y-74383320D01*
X137684039Y-74587650D01*
X137573126Y-74854756D01*
X137572874Y-75143975D01*
X137683320Y-75411275D01*
X137887650Y-75615961D01*
X138129799Y-75716511D01*
X143230644Y-80817356D01*
X143434058Y-80953273D01*
X143674000Y-81001000D01*
X149573000Y-81001000D01*
X149573000Y-82331483D01*
X149446433Y-82412927D01*
X149348936Y-82555619D01*
X149336921Y-82614948D01*
X149281508Y-82577922D01*
X149060700Y-82533999D01*
X149060695Y-82534000D01*
X148915043Y-82534000D01*
X148876150Y-82495039D01*
X148609044Y-82384126D01*
X148319825Y-82383874D01*
X148052525Y-82494320D01*
X147847839Y-82698650D01*
X147736926Y-82965756D01*
X147736674Y-83254975D01*
X147847120Y-83522275D01*
X148051450Y-83726961D01*
X148318556Y-83837874D01*
X148607775Y-83838126D01*
X148865383Y-83731685D01*
X148891699Y-83758001D01*
X149078892Y-83883078D01*
X149299700Y-83927001D01*
X149299705Y-83927000D01*
X149314635Y-83927000D01*
X149314635Y-83975000D01*
X149344409Y-84133237D01*
X149437927Y-84278567D01*
X149573000Y-84370858D01*
X149573000Y-84900000D01*
X149583006Y-84949410D01*
X149611447Y-84991035D01*
X149653841Y-85018315D01*
X149700000Y-85027000D01*
X152300000Y-85027000D01*
X152349410Y-85016994D01*
X152373000Y-85000876D01*
X152373000Y-85300000D01*
X152420728Y-85539943D01*
X152498705Y-85656644D01*
X152556644Y-85743356D01*
X153083866Y-86270578D01*
X153183320Y-86511275D01*
X153387650Y-86715961D01*
X153654756Y-86826874D01*
X153943975Y-86827126D01*
X154029387Y-86791835D01*
X154475588Y-87238036D01*
X154400001Y-87223000D01*
X154399996Y-87223001D01*
X147300004Y-87223001D01*
X147299999Y-87223000D01*
X147079191Y-87266923D01*
X146891998Y-87392000D01*
X146891996Y-87392003D01*
X146711076Y-87572922D01*
X146656025Y-87572874D01*
X146388725Y-87683320D01*
X146184039Y-87887650D01*
X146073126Y-88154756D01*
X146072874Y-88443975D01*
X146183320Y-88711275D01*
X146387650Y-88915961D01*
X146654756Y-89026874D01*
X146943975Y-89027126D01*
X147211275Y-88916680D01*
X147415961Y-88712350D01*
X147526874Y-88445244D01*
X147526923Y-88389079D01*
X147539001Y-88377001D01*
X154027839Y-88377001D01*
X154083320Y-88511275D01*
X154287650Y-88715961D01*
X154554756Y-88826874D01*
X154843975Y-88827126D01*
X154882000Y-88811414D01*
X154882000Y-92531288D01*
X153344624Y-94068664D01*
X153235147Y-94023205D01*
X152766907Y-94022796D01*
X152334154Y-94201606D01*
X152002770Y-94532412D01*
X152000216Y-94538563D01*
X151998394Y-94534154D01*
X151667588Y-94202770D01*
X151235147Y-94023205D01*
X150766907Y-94022796D01*
X150334154Y-94201606D01*
X150002770Y-94532412D01*
X150000216Y-94538563D01*
X149998394Y-94534154D01*
X149667588Y-94202770D01*
X149627000Y-94185916D01*
X149627000Y-91835935D01*
X150351220Y-91835935D01*
X150509457Y-91806161D01*
X150654787Y-91712643D01*
X150751293Y-91571401D01*
X150836707Y-91704137D01*
X150979399Y-91801634D01*
X151148780Y-91835935D01*
X151373055Y-91835935D01*
X151372874Y-92043953D01*
X151483320Y-92311253D01*
X151687650Y-92515939D01*
X151954756Y-92626852D01*
X152243975Y-92627104D01*
X152511275Y-92516658D01*
X152715961Y-92312328D01*
X152826874Y-92045222D01*
X152827056Y-91835935D01*
X153099500Y-91835935D01*
X153257737Y-91806161D01*
X153403067Y-91712643D01*
X153500564Y-91569951D01*
X153534865Y-91400570D01*
X153534865Y-89899430D01*
X153505091Y-89741193D01*
X153411573Y-89595863D01*
X153268881Y-89498366D01*
X153099500Y-89464065D01*
X151148780Y-89464065D01*
X150990543Y-89493839D01*
X150845213Y-89587357D01*
X150748707Y-89728599D01*
X150663293Y-89595863D01*
X150520601Y-89498366D01*
X150351220Y-89464065D01*
X148400500Y-89464065D01*
X148242263Y-89493839D01*
X148096933Y-89587357D01*
X147999436Y-89730049D01*
X147965135Y-89899430D01*
X147965135Y-91400570D01*
X147994909Y-91558807D01*
X148088427Y-91704137D01*
X148231119Y-91801634D01*
X148373000Y-91830366D01*
X148373000Y-94185555D01*
X148334391Y-94201508D01*
X148288327Y-94090301D01*
X148109698Y-93911673D01*
X147876309Y-93815000D01*
X147285750Y-93815000D01*
X147127000Y-93973750D01*
X147127000Y-95073000D01*
X147147000Y-95073000D01*
X147147000Y-95327000D01*
X147127000Y-95327000D01*
X147127000Y-96426250D01*
X147285750Y-96585000D01*
X147876309Y-96585000D01*
X148109698Y-96488327D01*
X148288327Y-96309699D01*
X148334546Y-96198116D01*
X148764853Y-96376795D01*
X149233093Y-96377204D01*
X149665846Y-96198394D01*
X149997230Y-95867588D01*
X149999784Y-95861437D01*
X150001606Y-95865846D01*
X150332412Y-96197230D01*
X150764853Y-96376795D01*
X151233093Y-96377204D01*
X151665846Y-96198394D01*
X151997230Y-95867588D01*
X151999784Y-95861437D01*
X152001606Y-95865846D01*
X152332412Y-96197230D01*
X152764853Y-96376795D01*
X153233093Y-96377204D01*
X153665846Y-96198394D01*
X153997230Y-95867588D01*
X153999784Y-95861437D01*
X154001606Y-95865846D01*
X154332412Y-96197230D01*
X154764853Y-96376795D01*
X155233093Y-96377204D01*
X155665846Y-96198394D01*
X155997230Y-95867588D01*
X156176795Y-95435147D01*
X156177204Y-94966907D01*
X155998394Y-94534154D01*
X155764649Y-94300000D01*
X159805563Y-94300000D01*
X159914148Y-94845894D01*
X160223372Y-95308681D01*
X160686159Y-95617905D01*
X161232053Y-95726490D01*
X161287947Y-95726490D01*
X161833841Y-95617905D01*
X162165510Y-95396291D01*
X162165510Y-95425800D01*
X162262183Y-95659189D01*
X162440812Y-95837817D01*
X162674201Y-95934490D01*
X163514250Y-95934490D01*
X163673000Y-95775740D01*
X163673000Y-94427000D01*
X163927000Y-94427000D01*
X163927000Y-95775740D01*
X164085750Y-95934490D01*
X164925799Y-95934490D01*
X165159188Y-95837817D01*
X165337817Y-95659189D01*
X165434490Y-95425800D01*
X165434490Y-94585750D01*
X165275740Y-94427000D01*
X163927000Y-94427000D01*
X163673000Y-94427000D01*
X163653000Y-94427000D01*
X163653000Y-94173000D01*
X163673000Y-94173000D01*
X163673000Y-92824260D01*
X163927000Y-92824260D01*
X163927000Y-94173000D01*
X165275740Y-94173000D01*
X165434490Y-94014250D01*
X165434490Y-93174200D01*
X165337817Y-92940811D01*
X165159188Y-92762183D01*
X164925799Y-92665510D01*
X164085750Y-92665510D01*
X163927000Y-92824260D01*
X163673000Y-92824260D01*
X163514250Y-92665510D01*
X162674201Y-92665510D01*
X162440812Y-92762183D01*
X162262183Y-92940811D01*
X162165510Y-93174200D01*
X162165510Y-93203709D01*
X161833841Y-92982095D01*
X161287947Y-92873510D01*
X161232053Y-92873510D01*
X160686159Y-92982095D01*
X160223372Y-93291319D01*
X159914148Y-93754106D01*
X159805563Y-94300000D01*
X155764649Y-94300000D01*
X155667588Y-94202770D01*
X155235147Y-94023205D01*
X155163570Y-94023142D01*
X155952356Y-93234356D01*
X156088273Y-93030942D01*
X156136000Y-92791000D01*
X156136000Y-87384736D01*
X156088272Y-87144793D01*
X155952356Y-86941380D01*
X154667620Y-85656644D01*
X154464207Y-85520728D01*
X154224264Y-85473000D01*
X154185765Y-85473000D01*
X153970201Y-85383489D01*
X153627000Y-85040288D01*
X153627000Y-84410365D01*
X153750000Y-84410365D01*
X153908237Y-84380591D01*
X154053567Y-84287073D01*
X154151064Y-84144381D01*
X154185365Y-83975000D01*
X154185365Y-82725000D01*
X154155591Y-82566763D01*
X154062073Y-82421433D01*
X153919381Y-82323936D01*
X153750000Y-82289635D01*
X153627000Y-82289635D01*
X153627000Y-80980910D01*
X153765943Y-80953272D01*
X153969356Y-80817356D01*
X160670578Y-74116134D01*
X160911275Y-74016680D01*
X161115961Y-73812350D01*
X161226874Y-73545244D01*
X161227126Y-73256025D01*
X161116680Y-72988725D01*
X160912350Y-72784039D01*
X160645244Y-72673126D01*
X160356025Y-72672874D01*
X160088725Y-72783320D01*
X159884039Y-72987650D01*
X159783489Y-73229799D01*
X153266288Y-79747000D01*
X152427000Y-79747000D01*
X152427000Y-77227111D01*
X152443975Y-77227126D01*
X152711275Y-77116680D01*
X152915961Y-76912350D01*
X153026874Y-76645244D01*
X153027126Y-76356025D01*
X152916680Y-76088725D01*
X152877000Y-76048976D01*
X152877000Y-73939002D01*
X153061308Y-73754693D01*
X153234885Y-73826769D01*
X153762798Y-73827229D01*
X154250703Y-73625631D01*
X154624319Y-73252666D01*
X154826769Y-72765115D01*
X154827229Y-72237202D01*
X154625631Y-71749297D01*
X154252666Y-71375681D01*
X154236304Y-71368887D01*
X154314148Y-71336643D01*
X154400554Y-71080159D01*
X153500000Y-70179605D01*
X153485858Y-70193748D01*
X153306253Y-70014143D01*
X153320395Y-70000000D01*
X153679605Y-70000000D01*
X154580159Y-70900554D01*
X154836643Y-70814148D01*
X155046458Y-70240664D01*
X155020839Y-69630540D01*
X154836643Y-69185852D01*
X154580159Y-69099446D01*
X153679605Y-70000000D01*
X153320395Y-70000000D01*
X153306253Y-69985858D01*
X153485858Y-69806253D01*
X153500000Y-69820395D01*
X154400554Y-68919841D01*
X154314148Y-68663357D01*
X153873113Y-68502000D01*
X165498000Y-68502000D01*
X165498000Y-97498000D01*
X136502000Y-97498000D01*
X136502000Y-94300000D01*
X136605563Y-94300000D01*
X136714148Y-94845894D01*
X137023372Y-95308681D01*
X137486159Y-95617905D01*
X138032053Y-95726490D01*
X138087947Y-95726490D01*
X138633841Y-95617905D01*
X138965510Y-95396291D01*
X138965510Y-95425800D01*
X139062183Y-95659189D01*
X139240812Y-95837817D01*
X139474201Y-95934490D01*
X140314250Y-95934490D01*
X140473000Y-95775740D01*
X140473000Y-94427000D01*
X140727000Y-94427000D01*
X140727000Y-95775740D01*
X140885750Y-95934490D01*
X141725799Y-95934490D01*
X141959188Y-95837817D01*
X142137817Y-95659189D01*
X142209657Y-95485750D01*
X145615000Y-95485750D01*
X145615000Y-96076310D01*
X145711673Y-96309699D01*
X145890302Y-96488327D01*
X146123691Y-96585000D01*
X146714250Y-96585000D01*
X146873000Y-96426250D01*
X146873000Y-95327000D01*
X145773750Y-95327000D01*
X145615000Y-95485750D01*
X142209657Y-95485750D01*
X142234490Y-95425800D01*
X142234490Y-94585750D01*
X142075740Y-94427000D01*
X140727000Y-94427000D01*
X140473000Y-94427000D01*
X140453000Y-94427000D01*
X140453000Y-94323690D01*
X145615000Y-94323690D01*
X145615000Y-94914250D01*
X145773750Y-95073000D01*
X146873000Y-95073000D01*
X146873000Y-93973750D01*
X146714250Y-93815000D01*
X146123691Y-93815000D01*
X145890302Y-93911673D01*
X145711673Y-94090301D01*
X145615000Y-94323690D01*
X140453000Y-94323690D01*
X140453000Y-94173000D01*
X140473000Y-94173000D01*
X140473000Y-92824260D01*
X140727000Y-92824260D01*
X140727000Y-94173000D01*
X142075740Y-94173000D01*
X142234490Y-94014250D01*
X142234490Y-93174200D01*
X142137817Y-92940811D01*
X141959188Y-92762183D01*
X141725799Y-92665510D01*
X140885750Y-92665510D01*
X140727000Y-92824260D01*
X140473000Y-92824260D01*
X140314250Y-92665510D01*
X139474201Y-92665510D01*
X139240812Y-92762183D01*
X139062183Y-92940811D01*
X138965510Y-93174200D01*
X138965510Y-93203709D01*
X138633841Y-92982095D01*
X138087947Y-92873510D01*
X138032053Y-92873510D01*
X137486159Y-92982095D01*
X137023372Y-93291319D01*
X136714148Y-93754106D01*
X136605563Y-94300000D01*
X136502000Y-94300000D01*
X136502000Y-72259336D01*
X146953542Y-72259336D01*
X146979161Y-72869460D01*
X147163357Y-73314148D01*
X147419841Y-73400554D01*
X148320395Y-72500000D01*
X147419841Y-71599446D01*
X147163357Y-71685852D01*
X146953542Y-72259336D01*
X136502000Y-72259336D01*
X136502000Y-68502000D01*
X149573000Y-68502000D01*
X149573000Y-69196574D01*
X149573000Y-69196574D01*
G37*
X149573000Y-69196574D02*
X149252666Y-68875681D01*
X148765115Y-68673231D01*
X148237202Y-68672771D01*
X147749297Y-68874369D01*
X147375681Y-69247334D01*
X147173231Y-69734885D01*
X147172771Y-70262798D01*
X147374369Y-70750703D01*
X147747334Y-71124319D01*
X147763696Y-71131113D01*
X147685852Y-71163357D01*
X147599446Y-71419841D01*
X148500000Y-72320395D01*
X148514143Y-72306253D01*
X148693748Y-72485858D01*
X148679605Y-72500000D01*
X148693748Y-72514143D01*
X148514143Y-72693748D01*
X148500000Y-72679605D01*
X147599446Y-73580159D01*
X147685852Y-73836643D01*
X148259336Y-74046458D01*
X148869460Y-74020839D01*
X149314148Y-73836643D01*
X149400553Y-73580161D01*
X149515110Y-73694718D01*
X149573000Y-73636828D01*
X149573000Y-79747000D01*
X143933712Y-79747000D01*
X139016134Y-74829422D01*
X138916680Y-74588725D01*
X138712350Y-74384039D01*
X138445244Y-74273126D01*
X138156025Y-74272874D01*
X137888725Y-74383320D01*
X137684039Y-74587650D01*
X137573126Y-74854756D01*
X137572874Y-75143975D01*
X137683320Y-75411275D01*
X137887650Y-75615961D01*
X138129799Y-75716511D01*
X143230644Y-80817356D01*
X143434058Y-80953273D01*
X143674000Y-81001000D01*
X149573000Y-81001000D01*
X149573000Y-82331483D01*
X149446433Y-82412927D01*
X149348936Y-82555619D01*
X149336921Y-82614948D01*
X149281508Y-82577922D01*
X149060700Y-82533999D01*
X149060695Y-82534000D01*
X148915043Y-82534000D01*
X148876150Y-82495039D01*
X148609044Y-82384126D01*
X148319825Y-82383874D01*
X148052525Y-82494320D01*
X147847839Y-82698650D01*
X147736926Y-82965756D01*
X147736674Y-83254975D01*
X147847120Y-83522275D01*
X148051450Y-83726961D01*
X148318556Y-83837874D01*
X148607775Y-83838126D01*
X148865383Y-83731685D01*
X148891699Y-83758001D01*
X149078892Y-83883078D01*
X149299700Y-83927001D01*
X149299705Y-83927000D01*
X149314635Y-83927000D01*
X149314635Y-83975000D01*
X149344409Y-84133237D01*
X149437927Y-84278567D01*
X149573000Y-84370858D01*
X149573000Y-84900000D01*
X149583006Y-84949410D01*
X149611447Y-84991035D01*
X149653841Y-85018315D01*
X149700000Y-85027000D01*
X152300000Y-85027000D01*
X152349410Y-85016994D01*
X152373000Y-85000876D01*
X152373000Y-85300000D01*
X152420728Y-85539943D01*
X152498705Y-85656644D01*
X152556644Y-85743356D01*
X153083866Y-86270578D01*
X153183320Y-86511275D01*
X153387650Y-86715961D01*
X153654756Y-86826874D01*
X153943975Y-86827126D01*
X154029387Y-86791835D01*
X154475588Y-87238036D01*
X154400001Y-87223000D01*
X154399996Y-87223001D01*
X147300004Y-87223001D01*
X147299999Y-87223000D01*
X147079191Y-87266923D01*
X146891998Y-87392000D01*
X146891996Y-87392003D01*
X146711076Y-87572922D01*
X146656025Y-87572874D01*
X146388725Y-87683320D01*
X146184039Y-87887650D01*
X146073126Y-88154756D01*
X146072874Y-88443975D01*
X146183320Y-88711275D01*
X146387650Y-88915961D01*
X146654756Y-89026874D01*
X146943975Y-89027126D01*
X147211275Y-88916680D01*
X147415961Y-88712350D01*
X147526874Y-88445244D01*
X147526923Y-88389079D01*
X147539001Y-88377001D01*
X154027839Y-88377001D01*
X154083320Y-88511275D01*
X154287650Y-88715961D01*
X154554756Y-88826874D01*
X154843975Y-88827126D01*
X154882000Y-88811414D01*
X154882000Y-92531288D01*
X153344624Y-94068664D01*
X153235147Y-94023205D01*
X152766907Y-94022796D01*
X152334154Y-94201606D01*
X152002770Y-94532412D01*
X152000216Y-94538563D01*
X151998394Y-94534154D01*
X151667588Y-94202770D01*
X151235147Y-94023205D01*
X150766907Y-94022796D01*
X150334154Y-94201606D01*
X150002770Y-94532412D01*
X150000216Y-94538563D01*
X149998394Y-94534154D01*
X149667588Y-94202770D01*
X149627000Y-94185916D01*
X149627000Y-91835935D01*
X150351220Y-91835935D01*
X150509457Y-91806161D01*
X150654787Y-91712643D01*
X150751293Y-91571401D01*
X150836707Y-91704137D01*
X150979399Y-91801634D01*
X151148780Y-91835935D01*
X151373055Y-91835935D01*
X151372874Y-92043953D01*
X151483320Y-92311253D01*
X151687650Y-92515939D01*
X151954756Y-92626852D01*
X152243975Y-92627104D01*
X152511275Y-92516658D01*
X152715961Y-92312328D01*
X152826874Y-92045222D01*
X152827056Y-91835935D01*
X153099500Y-91835935D01*
X153257737Y-91806161D01*
X153403067Y-91712643D01*
X153500564Y-91569951D01*
X153534865Y-91400570D01*
X153534865Y-89899430D01*
X153505091Y-89741193D01*
X153411573Y-89595863D01*
X153268881Y-89498366D01*
X153099500Y-89464065D01*
X151148780Y-89464065D01*
X150990543Y-89493839D01*
X150845213Y-89587357D01*
X150748707Y-89728599D01*
X150663293Y-89595863D01*
X150520601Y-89498366D01*
X150351220Y-89464065D01*
X148400500Y-89464065D01*
X148242263Y-89493839D01*
X148096933Y-89587357D01*
X147999436Y-89730049D01*
X147965135Y-89899430D01*
X147965135Y-91400570D01*
X147994909Y-91558807D01*
X148088427Y-91704137D01*
X148231119Y-91801634D01*
X148373000Y-91830366D01*
X148373000Y-94185555D01*
X148334391Y-94201508D01*
X148288327Y-94090301D01*
X148109698Y-93911673D01*
X147876309Y-93815000D01*
X147285750Y-93815000D01*
X147127000Y-93973750D01*
X147127000Y-95073000D01*
X147147000Y-95073000D01*
X147147000Y-95327000D01*
X147127000Y-95327000D01*
X147127000Y-96426250D01*
X147285750Y-96585000D01*
X147876309Y-96585000D01*
X148109698Y-96488327D01*
X148288327Y-96309699D01*
X148334546Y-96198116D01*
X148764853Y-96376795D01*
X149233093Y-96377204D01*
X149665846Y-96198394D01*
X149997230Y-95867588D01*
X149999784Y-95861437D01*
X150001606Y-95865846D01*
X150332412Y-96197230D01*
X150764853Y-96376795D01*
X151233093Y-96377204D01*
X151665846Y-96198394D01*
X151997230Y-95867588D01*
X151999784Y-95861437D01*
X152001606Y-95865846D01*
X152332412Y-96197230D01*
X152764853Y-96376795D01*
X153233093Y-96377204D01*
X153665846Y-96198394D01*
X153997230Y-95867588D01*
X153999784Y-95861437D01*
X154001606Y-95865846D01*
X154332412Y-96197230D01*
X154764853Y-96376795D01*
X155233093Y-96377204D01*
X155665846Y-96198394D01*
X155997230Y-95867588D01*
X156176795Y-95435147D01*
X156177204Y-94966907D01*
X155998394Y-94534154D01*
X155764649Y-94300000D01*
X159805563Y-94300000D01*
X159914148Y-94845894D01*
X160223372Y-95308681D01*
X160686159Y-95617905D01*
X161232053Y-95726490D01*
X161287947Y-95726490D01*
X161833841Y-95617905D01*
X162165510Y-95396291D01*
X162165510Y-95425800D01*
X162262183Y-95659189D01*
X162440812Y-95837817D01*
X162674201Y-95934490D01*
X163514250Y-95934490D01*
X163673000Y-95775740D01*
X163673000Y-94427000D01*
X163927000Y-94427000D01*
X163927000Y-95775740D01*
X164085750Y-95934490D01*
X164925799Y-95934490D01*
X165159188Y-95837817D01*
X165337817Y-95659189D01*
X165434490Y-95425800D01*
X165434490Y-94585750D01*
X165275740Y-94427000D01*
X163927000Y-94427000D01*
X163673000Y-94427000D01*
X163653000Y-94427000D01*
X163653000Y-94173000D01*
X163673000Y-94173000D01*
X163673000Y-92824260D01*
X163927000Y-92824260D01*
X163927000Y-94173000D01*
X165275740Y-94173000D01*
X165434490Y-94014250D01*
X165434490Y-93174200D01*
X165337817Y-92940811D01*
X165159188Y-92762183D01*
X164925799Y-92665510D01*
X164085750Y-92665510D01*
X163927000Y-92824260D01*
X163673000Y-92824260D01*
X163514250Y-92665510D01*
X162674201Y-92665510D01*
X162440812Y-92762183D01*
X162262183Y-92940811D01*
X162165510Y-93174200D01*
X162165510Y-93203709D01*
X161833841Y-92982095D01*
X161287947Y-92873510D01*
X161232053Y-92873510D01*
X160686159Y-92982095D01*
X160223372Y-93291319D01*
X159914148Y-93754106D01*
X159805563Y-94300000D01*
X155764649Y-94300000D01*
X155667588Y-94202770D01*
X155235147Y-94023205D01*
X155163570Y-94023142D01*
X155952356Y-93234356D01*
X156088273Y-93030942D01*
X156136000Y-92791000D01*
X156136000Y-87384736D01*
X156088272Y-87144793D01*
X155952356Y-86941380D01*
X154667620Y-85656644D01*
X154464207Y-85520728D01*
X154224264Y-85473000D01*
X154185765Y-85473000D01*
X153970201Y-85383489D01*
X153627000Y-85040288D01*
X153627000Y-84410365D01*
X153750000Y-84410365D01*
X153908237Y-84380591D01*
X154053567Y-84287073D01*
X154151064Y-84144381D01*
X154185365Y-83975000D01*
X154185365Y-82725000D01*
X154155591Y-82566763D01*
X154062073Y-82421433D01*
X153919381Y-82323936D01*
X153750000Y-82289635D01*
X153627000Y-82289635D01*
X153627000Y-80980910D01*
X153765943Y-80953272D01*
X153969356Y-80817356D01*
X160670578Y-74116134D01*
X160911275Y-74016680D01*
X161115961Y-73812350D01*
X161226874Y-73545244D01*
X161227126Y-73256025D01*
X161116680Y-72988725D01*
X160912350Y-72784039D01*
X160645244Y-72673126D01*
X160356025Y-72672874D01*
X160088725Y-72783320D01*
X159884039Y-72987650D01*
X159783489Y-73229799D01*
X153266288Y-79747000D01*
X152427000Y-79747000D01*
X152427000Y-77227111D01*
X152443975Y-77227126D01*
X152711275Y-77116680D01*
X152915961Y-76912350D01*
X153026874Y-76645244D01*
X153027126Y-76356025D01*
X152916680Y-76088725D01*
X152877000Y-76048976D01*
X152877000Y-73939002D01*
X153061308Y-73754693D01*
X153234885Y-73826769D01*
X153762798Y-73827229D01*
X154250703Y-73625631D01*
X154624319Y-73252666D01*
X154826769Y-72765115D01*
X154827229Y-72237202D01*
X154625631Y-71749297D01*
X154252666Y-71375681D01*
X154236304Y-71368887D01*
X154314148Y-71336643D01*
X154400554Y-71080159D01*
X153500000Y-70179605D01*
X153485858Y-70193748D01*
X153306253Y-70014143D01*
X153320395Y-70000000D01*
X153679605Y-70000000D01*
X154580159Y-70900554D01*
X154836643Y-70814148D01*
X155046458Y-70240664D01*
X155020839Y-69630540D01*
X154836643Y-69185852D01*
X154580159Y-69099446D01*
X153679605Y-70000000D01*
X153320395Y-70000000D01*
X153306253Y-69985858D01*
X153485858Y-69806253D01*
X153500000Y-69820395D01*
X154400554Y-68919841D01*
X154314148Y-68663357D01*
X153873113Y-68502000D01*
X165498000Y-68502000D01*
X165498000Y-97498000D01*
X136502000Y-97498000D01*
X136502000Y-94300000D01*
X136605563Y-94300000D01*
X136714148Y-94845894D01*
X137023372Y-95308681D01*
X137486159Y-95617905D01*
X138032053Y-95726490D01*
X138087947Y-95726490D01*
X138633841Y-95617905D01*
X138965510Y-95396291D01*
X138965510Y-95425800D01*
X139062183Y-95659189D01*
X139240812Y-95837817D01*
X139474201Y-95934490D01*
X140314250Y-95934490D01*
X140473000Y-95775740D01*
X140473000Y-94427000D01*
X140727000Y-94427000D01*
X140727000Y-95775740D01*
X140885750Y-95934490D01*
X141725799Y-95934490D01*
X141959188Y-95837817D01*
X142137817Y-95659189D01*
X142209657Y-95485750D01*
X145615000Y-95485750D01*
X145615000Y-96076310D01*
X145711673Y-96309699D01*
X145890302Y-96488327D01*
X146123691Y-96585000D01*
X146714250Y-96585000D01*
X146873000Y-96426250D01*
X146873000Y-95327000D01*
X145773750Y-95327000D01*
X145615000Y-95485750D01*
X142209657Y-95485750D01*
X142234490Y-95425800D01*
X142234490Y-94585750D01*
X142075740Y-94427000D01*
X140727000Y-94427000D01*
X140473000Y-94427000D01*
X140453000Y-94427000D01*
X140453000Y-94323690D01*
X145615000Y-94323690D01*
X145615000Y-94914250D01*
X145773750Y-95073000D01*
X146873000Y-95073000D01*
X146873000Y-93973750D01*
X146714250Y-93815000D01*
X146123691Y-93815000D01*
X145890302Y-93911673D01*
X145711673Y-94090301D01*
X145615000Y-94323690D01*
X140453000Y-94323690D01*
X140453000Y-94173000D01*
X140473000Y-94173000D01*
X140473000Y-92824260D01*
X140727000Y-92824260D01*
X140727000Y-94173000D01*
X142075740Y-94173000D01*
X142234490Y-94014250D01*
X142234490Y-93174200D01*
X142137817Y-92940811D01*
X141959188Y-92762183D01*
X141725799Y-92665510D01*
X140885750Y-92665510D01*
X140727000Y-92824260D01*
X140473000Y-92824260D01*
X140314250Y-92665510D01*
X139474201Y-92665510D01*
X139240812Y-92762183D01*
X139062183Y-92940811D01*
X138965510Y-93174200D01*
X138965510Y-93203709D01*
X138633841Y-92982095D01*
X138087947Y-92873510D01*
X138032053Y-92873510D01*
X137486159Y-92982095D01*
X137023372Y-93291319D01*
X136714148Y-93754106D01*
X136605563Y-94300000D01*
X136502000Y-94300000D01*
X136502000Y-72259336D01*
X146953542Y-72259336D01*
X146979161Y-72869460D01*
X147163357Y-73314148D01*
X147419841Y-73400554D01*
X148320395Y-72500000D01*
X147419841Y-71599446D01*
X147163357Y-71685852D01*
X146953542Y-72259336D01*
X136502000Y-72259336D01*
X136502000Y-68502000D01*
X149573000Y-68502000D01*
X149573000Y-69196574D01*
M02*
