%TF.GenerationSoftware,KiCad,Pcbnew,4.0.7*%
%TF.CreationDate,2018-01-14T16:27:14+11:00*%
%TF.ProjectId,A_BND_BUF,415F424E445F4255462E6B696361645F,rev?*%
%TF.FileFunction,Legend,Top*%
%FSLAX46Y46*%
G04 Gerber Fmt 4.6, Leading zero omitted, Abs format (unit mm)*
G04 Created by KiCad (PCBNEW 4.0.7) date 01/14/18 16:27:14*
%MOMM*%
%LPD*%
G01*
G04 APERTURE LIST*
%ADD10C,0.100000*%
%ADD11C,0.150000*%
%ADD12C,0.120000*%
G04 APERTURE END LIST*
D10*
D11*
X151500000Y-91275000D02*
X150500000Y-91275000D01*
X150500000Y-89925000D02*
X151500000Y-89925000D01*
X157000000Y-89925000D02*
X158000000Y-89925000D01*
X158000000Y-91275000D02*
X157000000Y-91275000D01*
X162000000Y-88325000D02*
X163000000Y-88325000D01*
X163000000Y-89675000D02*
X162000000Y-89675000D01*
X142169080Y-96900960D02*
X136570920Y-96900960D01*
X136769040Y-97398800D02*
X136769040Y-96900960D01*
X141970960Y-96900960D02*
X141970960Y-97398800D01*
X139370000Y-97398800D02*
X139370000Y-96900960D01*
X136570920Y-91599980D02*
X142169080Y-91599980D01*
X136570920Y-97398800D02*
X142169080Y-97398800D01*
X142169080Y-97398800D02*
X142169080Y-91201200D01*
X142169080Y-91201200D02*
X136570920Y-91201200D01*
X136570920Y-91201200D02*
X136570920Y-97398800D01*
X165369080Y-96900960D02*
X159770920Y-96900960D01*
X159969040Y-97398800D02*
X159969040Y-96900960D01*
X165170960Y-96900960D02*
X165170960Y-97398800D01*
X162570000Y-97398800D02*
X162570000Y-96900960D01*
X159770920Y-91599980D02*
X165369080Y-91599980D01*
X159770920Y-97398800D02*
X165369080Y-97398800D01*
X165369080Y-97398800D02*
X165369080Y-91201200D01*
X165369080Y-91201200D02*
X159770920Y-91201200D01*
X159770920Y-91201200D02*
X159770920Y-97398800D01*
D12*
X150100000Y-88610000D02*
X151900000Y-88610000D01*
X151900000Y-85390000D02*
X149450000Y-85390000D01*
X141250000Y-73550000D02*
X141250000Y-75950000D01*
X141250000Y-75950000D02*
X140200000Y-75950000D01*
X137950000Y-74150000D02*
X137950000Y-75950000D01*
X137950000Y-75950000D02*
X139000000Y-75950000D01*
X164050000Y-73550000D02*
X164050000Y-75950000D01*
X164050000Y-75950000D02*
X163000000Y-75950000D01*
X160750000Y-74150000D02*
X160750000Y-75950000D01*
X160750000Y-75950000D02*
X161800000Y-75950000D01*
D11*
X140250000Y-89425000D02*
X139250000Y-89425000D01*
X139250000Y-88075000D02*
X140250000Y-88075000D01*
X141225000Y-81400000D02*
X141225000Y-80400000D01*
X142575000Y-80400000D02*
X142575000Y-81400000D01*
X159825000Y-81500000D02*
X159825000Y-80500000D01*
X161175000Y-80500000D02*
X161175000Y-81500000D01*
X143775000Y-73800000D02*
X143775000Y-74800000D01*
X142425000Y-74800000D02*
X142425000Y-73800000D01*
X159675000Y-73800000D02*
X159675000Y-74800000D01*
X158325000Y-74800000D02*
X158325000Y-73800000D01*
X143700000Y-70025000D02*
X144700000Y-70025000D01*
X144700000Y-71375000D02*
X143700000Y-71375000D01*
X157200000Y-70025000D02*
X158200000Y-70025000D01*
X158200000Y-71375000D02*
X157200000Y-71375000D01*
X146175000Y-86700000D02*
X146175000Y-87700000D01*
X144825000Y-87700000D02*
X144825000Y-86700000D01*
X157175000Y-86700000D02*
X157175000Y-87700000D01*
X155825000Y-87700000D02*
X155825000Y-86700000D01*
D12*
X144850000Y-93650000D02*
X144850000Y-97600000D01*
X144850000Y-97600000D02*
X157150000Y-97600000D01*
X157150000Y-97600000D02*
X157150000Y-93650000D01*
X157150000Y-93650000D02*
X144850000Y-93650000D01*
X147350000Y-93400000D02*
X144600000Y-93400000D01*
X144600000Y-93400000D02*
X144600000Y-96150000D01*
X144850000Y-96100000D02*
X145250000Y-96100000D01*
X157150000Y-96100000D02*
X156750000Y-96100000D01*
X151000000Y-94050000D02*
X145250000Y-94050000D01*
X145250000Y-94050000D02*
X145250000Y-95300000D01*
X145250000Y-95300000D02*
X145650000Y-95300000D01*
X145650000Y-95300000D02*
X145650000Y-95700000D01*
X145650000Y-95700000D02*
X145250000Y-95700000D01*
X145250000Y-95700000D02*
X145250000Y-97600000D01*
X151000000Y-94050000D02*
X156750000Y-94050000D01*
X156750000Y-94050000D02*
X156750000Y-95300000D01*
X156750000Y-95300000D02*
X156350000Y-95300000D01*
X156350000Y-95300000D02*
X156350000Y-95700000D01*
X156350000Y-95700000D02*
X156750000Y-95700000D01*
X156750000Y-95700000D02*
X156750000Y-97600000D01*
D11*
X138165000Y-81189000D02*
X139435000Y-81189000D01*
X138165000Y-82840000D02*
X139435000Y-82840000D01*
X139435000Y-82840000D02*
X139435000Y-80808000D01*
X139435000Y-80808000D02*
X138165000Y-80808000D01*
X138165000Y-80808000D02*
X138165000Y-82840000D01*
X162965000Y-81289000D02*
X164235000Y-81289000D01*
X162965000Y-82940000D02*
X164235000Y-82940000D01*
X164235000Y-82940000D02*
X164235000Y-80908000D01*
X164235000Y-80908000D02*
X162965000Y-80908000D01*
X162965000Y-80908000D02*
X162965000Y-82940000D01*
X148787200Y-80643000D02*
X150412800Y-80643000D01*
X150412800Y-77899800D02*
X148787200Y-77899800D01*
X148787200Y-77899800D02*
X148787200Y-81100200D01*
X148787200Y-81100200D02*
X150412800Y-81100200D01*
X150412800Y-81100200D02*
X150412800Y-77899800D01*
X151487200Y-80643000D02*
X153112800Y-80643000D01*
X153112800Y-77899800D02*
X151487200Y-77899800D01*
X151487200Y-77899800D02*
X151487200Y-81100200D01*
X151487200Y-81100200D02*
X153112800Y-81100200D01*
X153112800Y-81100200D02*
X153112800Y-77899800D01*
D12*
X143950000Y-80950000D02*
X143950000Y-78550000D01*
X143950000Y-78550000D02*
X145000000Y-78550000D01*
X147250000Y-80350000D02*
X147250000Y-78550000D01*
X147250000Y-78550000D02*
X146200000Y-78550000D01*
X154350000Y-80950000D02*
X154350000Y-78550000D01*
X154350000Y-78550000D02*
X155400000Y-78550000D01*
X157650000Y-80350000D02*
X157650000Y-78550000D01*
X157650000Y-78550000D02*
X156600000Y-78550000D01*
X146100000Y-84080000D02*
X145100000Y-84080000D01*
X145100000Y-82720000D02*
X146100000Y-82720000D01*
X156500000Y-84080000D02*
X155500000Y-84080000D01*
X155500000Y-82720000D02*
X156500000Y-82720000D01*
D11*
X147614285Y-90871429D02*
X147414285Y-90585714D01*
X147271428Y-90871429D02*
X147271428Y-90271429D01*
X147500000Y-90271429D01*
X147557142Y-90300000D01*
X147585714Y-90328571D01*
X147614285Y-90385714D01*
X147614285Y-90471429D01*
X147585714Y-90528571D01*
X147557142Y-90557143D01*
X147500000Y-90585714D01*
X147271428Y-90585714D01*
X148185714Y-90871429D02*
X147842857Y-90871429D01*
X148014285Y-90871429D02*
X148014285Y-90271429D01*
X147957142Y-90357143D01*
X147900000Y-90414286D01*
X147842857Y-90442857D01*
X148414286Y-90328571D02*
X148442857Y-90300000D01*
X148500000Y-90271429D01*
X148642857Y-90271429D01*
X148700000Y-90300000D01*
X148728571Y-90328571D01*
X148757143Y-90385714D01*
X148757143Y-90442857D01*
X148728571Y-90528571D01*
X148385714Y-90871429D01*
X148757143Y-90871429D01*
X155914285Y-92171429D02*
X155714285Y-91885714D01*
X155571428Y-92171429D02*
X155571428Y-91571429D01*
X155800000Y-91571429D01*
X155857142Y-91600000D01*
X155885714Y-91628571D01*
X155914285Y-91685714D01*
X155914285Y-91771429D01*
X155885714Y-91828571D01*
X155857142Y-91857143D01*
X155800000Y-91885714D01*
X155571428Y-91885714D01*
X156485714Y-92171429D02*
X156142857Y-92171429D01*
X156314285Y-92171429D02*
X156314285Y-91571429D01*
X156257142Y-91657143D01*
X156200000Y-91714286D01*
X156142857Y-91742857D01*
X157057143Y-92171429D02*
X156714286Y-92171429D01*
X156885714Y-92171429D02*
X156885714Y-91571429D01*
X156828571Y-91657143D01*
X156771429Y-91714286D01*
X156714286Y-91742857D01*
X160900000Y-88021429D02*
X160700000Y-87735714D01*
X160557143Y-88021429D02*
X160557143Y-87421429D01*
X160785715Y-87421429D01*
X160842857Y-87450000D01*
X160871429Y-87478571D01*
X160900000Y-87535714D01*
X160900000Y-87621429D01*
X160871429Y-87678571D01*
X160842857Y-87707143D01*
X160785715Y-87735714D01*
X160557143Y-87735714D01*
X161128572Y-87478571D02*
X161157143Y-87450000D01*
X161214286Y-87421429D01*
X161357143Y-87421429D01*
X161414286Y-87450000D01*
X161442857Y-87478571D01*
X161471429Y-87535714D01*
X161471429Y-87592857D01*
X161442857Y-87678571D01*
X161100000Y-88021429D01*
X161471429Y-88021429D01*
X141357143Y-90771429D02*
X141357143Y-90171429D01*
X141585715Y-90171429D01*
X141642857Y-90200000D01*
X141671429Y-90228571D01*
X141700000Y-90285714D01*
X141700000Y-90371429D01*
X141671429Y-90428571D01*
X141642857Y-90457143D01*
X141585715Y-90485714D01*
X141357143Y-90485714D01*
X142271429Y-90771429D02*
X141928572Y-90771429D01*
X142100000Y-90771429D02*
X142100000Y-90171429D01*
X142042857Y-90257143D01*
X141985715Y-90314286D01*
X141928572Y-90342857D01*
X159857143Y-90671429D02*
X159857143Y-90071429D01*
X160085715Y-90071429D01*
X160142857Y-90100000D01*
X160171429Y-90128571D01*
X160200000Y-90185714D01*
X160200000Y-90271429D01*
X160171429Y-90328571D01*
X160142857Y-90357143D01*
X160085715Y-90385714D01*
X159857143Y-90385714D01*
X160428572Y-90128571D02*
X160457143Y-90100000D01*
X160514286Y-90071429D01*
X160657143Y-90071429D01*
X160714286Y-90100000D01*
X160742857Y-90128571D01*
X160771429Y-90185714D01*
X160771429Y-90242857D01*
X160742857Y-90328571D01*
X160400000Y-90671429D01*
X160771429Y-90671429D01*
X150442857Y-84521429D02*
X150442857Y-85007143D01*
X150471429Y-85064286D01*
X150500000Y-85092857D01*
X150557143Y-85121429D01*
X150671429Y-85121429D01*
X150728571Y-85092857D01*
X150757143Y-85064286D01*
X150785714Y-85007143D01*
X150785714Y-84521429D01*
X151385714Y-85121429D02*
X151042857Y-85121429D01*
X151214285Y-85121429D02*
X151214285Y-84521429D01*
X151157142Y-84607143D01*
X151100000Y-84664286D01*
X151042857Y-84692857D01*
X142178571Y-75307143D02*
X142150000Y-75364286D01*
X142092857Y-75421429D01*
X142007143Y-75507143D01*
X141978571Y-75564286D01*
X141978571Y-75621429D01*
X142121429Y-75592857D02*
X142092857Y-75650000D01*
X142035714Y-75707143D01*
X141921429Y-75735714D01*
X141721429Y-75735714D01*
X141607143Y-75707143D01*
X141550000Y-75650000D01*
X141521429Y-75592857D01*
X141521429Y-75478571D01*
X141550000Y-75421429D01*
X141607143Y-75364286D01*
X141721429Y-75335714D01*
X141921429Y-75335714D01*
X142035714Y-75364286D01*
X142092857Y-75421429D01*
X142121429Y-75478571D01*
X142121429Y-75592857D01*
X142121429Y-74764286D02*
X142121429Y-75107143D01*
X142121429Y-74935715D02*
X141521429Y-74935715D01*
X141607143Y-74992858D01*
X141664286Y-75050000D01*
X141692857Y-75107143D01*
X160478571Y-75057143D02*
X160450000Y-75114286D01*
X160392857Y-75171429D01*
X160307143Y-75257143D01*
X160278571Y-75314286D01*
X160278571Y-75371429D01*
X160421429Y-75342857D02*
X160392857Y-75400000D01*
X160335714Y-75457143D01*
X160221429Y-75485714D01*
X160021429Y-75485714D01*
X159907143Y-75457143D01*
X159850000Y-75400000D01*
X159821429Y-75342857D01*
X159821429Y-75228571D01*
X159850000Y-75171429D01*
X159907143Y-75114286D01*
X160021429Y-75085714D01*
X160221429Y-75085714D01*
X160335714Y-75114286D01*
X160392857Y-75171429D01*
X160421429Y-75228571D01*
X160421429Y-75342857D01*
X159878571Y-74857143D02*
X159850000Y-74828572D01*
X159821429Y-74771429D01*
X159821429Y-74628572D01*
X159850000Y-74571429D01*
X159878571Y-74542858D01*
X159935714Y-74514286D01*
X159992857Y-74514286D01*
X160078571Y-74542858D01*
X160421429Y-74885715D01*
X160421429Y-74514286D01*
X138100000Y-87771429D02*
X137900000Y-87485714D01*
X137757143Y-87771429D02*
X137757143Y-87171429D01*
X137985715Y-87171429D01*
X138042857Y-87200000D01*
X138071429Y-87228571D01*
X138100000Y-87285714D01*
X138100000Y-87371429D01*
X138071429Y-87428571D01*
X138042857Y-87457143D01*
X137985715Y-87485714D01*
X137757143Y-87485714D01*
X138671429Y-87771429D02*
X138328572Y-87771429D01*
X138500000Y-87771429D02*
X138500000Y-87171429D01*
X138442857Y-87257143D01*
X138385715Y-87314286D01*
X138328572Y-87342857D01*
X142271429Y-83800000D02*
X141985714Y-84000000D01*
X142271429Y-84142857D02*
X141671429Y-84142857D01*
X141671429Y-83914285D01*
X141700000Y-83857143D01*
X141728571Y-83828571D01*
X141785714Y-83800000D01*
X141871429Y-83800000D01*
X141928571Y-83828571D01*
X141957143Y-83857143D01*
X141985714Y-83914285D01*
X141985714Y-84142857D01*
X141671429Y-83600000D02*
X141671429Y-83228571D01*
X141900000Y-83428571D01*
X141900000Y-83342857D01*
X141928571Y-83285714D01*
X141957143Y-83257143D01*
X142014286Y-83228571D01*
X142157143Y-83228571D01*
X142214286Y-83257143D01*
X142242857Y-83285714D01*
X142271429Y-83342857D01*
X142271429Y-83514285D01*
X142242857Y-83571428D01*
X142214286Y-83600000D01*
X160771429Y-83800000D02*
X160485714Y-84000000D01*
X160771429Y-84142857D02*
X160171429Y-84142857D01*
X160171429Y-83914285D01*
X160200000Y-83857143D01*
X160228571Y-83828571D01*
X160285714Y-83800000D01*
X160371429Y-83800000D01*
X160428571Y-83828571D01*
X160457143Y-83857143D01*
X160485714Y-83914285D01*
X160485714Y-84142857D01*
X160371429Y-83285714D02*
X160771429Y-83285714D01*
X160142857Y-83428571D02*
X160571429Y-83571428D01*
X160571429Y-83200000D01*
X144621429Y-72900000D02*
X144335714Y-73100000D01*
X144621429Y-73242857D02*
X144021429Y-73242857D01*
X144021429Y-73014285D01*
X144050000Y-72957143D01*
X144078571Y-72928571D01*
X144135714Y-72900000D01*
X144221429Y-72900000D01*
X144278571Y-72928571D01*
X144307143Y-72957143D01*
X144335714Y-73014285D01*
X144335714Y-73242857D01*
X144021429Y-72357143D02*
X144021429Y-72642857D01*
X144307143Y-72671428D01*
X144278571Y-72642857D01*
X144250000Y-72585714D01*
X144250000Y-72442857D01*
X144278571Y-72385714D01*
X144307143Y-72357143D01*
X144364286Y-72328571D01*
X144507143Y-72328571D01*
X144564286Y-72357143D01*
X144592857Y-72385714D01*
X144621429Y-72442857D01*
X144621429Y-72585714D01*
X144592857Y-72642857D01*
X144564286Y-72671428D01*
X160571429Y-72900000D02*
X160285714Y-73100000D01*
X160571429Y-73242857D02*
X159971429Y-73242857D01*
X159971429Y-73014285D01*
X160000000Y-72957143D01*
X160028571Y-72928571D01*
X160085714Y-72900000D01*
X160171429Y-72900000D01*
X160228571Y-72928571D01*
X160257143Y-72957143D01*
X160285714Y-73014285D01*
X160285714Y-73242857D01*
X159971429Y-72385714D02*
X159971429Y-72500000D01*
X160000000Y-72557143D01*
X160028571Y-72585714D01*
X160114286Y-72642857D01*
X160228571Y-72671428D01*
X160457143Y-72671428D01*
X160514286Y-72642857D01*
X160542857Y-72614285D01*
X160571429Y-72557143D01*
X160571429Y-72442857D01*
X160542857Y-72385714D01*
X160514286Y-72357143D01*
X160457143Y-72328571D01*
X160314286Y-72328571D01*
X160257143Y-72357143D01*
X160228571Y-72385714D01*
X160200000Y-72442857D01*
X160200000Y-72557143D01*
X160228571Y-72614285D01*
X160257143Y-72642857D01*
X160314286Y-72671428D01*
X142550000Y-69671429D02*
X142350000Y-69385714D01*
X142207143Y-69671429D02*
X142207143Y-69071429D01*
X142435715Y-69071429D01*
X142492857Y-69100000D01*
X142521429Y-69128571D01*
X142550000Y-69185714D01*
X142550000Y-69271429D01*
X142521429Y-69328571D01*
X142492857Y-69357143D01*
X142435715Y-69385714D01*
X142207143Y-69385714D01*
X142750000Y-69071429D02*
X143150000Y-69071429D01*
X142892857Y-69671429D01*
X156050000Y-69771429D02*
X155850000Y-69485714D01*
X155707143Y-69771429D02*
X155707143Y-69171429D01*
X155935715Y-69171429D01*
X155992857Y-69200000D01*
X156021429Y-69228571D01*
X156050000Y-69285714D01*
X156050000Y-69371429D01*
X156021429Y-69428571D01*
X155992857Y-69457143D01*
X155935715Y-69485714D01*
X155707143Y-69485714D01*
X156392857Y-69428571D02*
X156335715Y-69400000D01*
X156307143Y-69371429D01*
X156278572Y-69314286D01*
X156278572Y-69285714D01*
X156307143Y-69228571D01*
X156335715Y-69200000D01*
X156392857Y-69171429D01*
X156507143Y-69171429D01*
X156564286Y-69200000D01*
X156592857Y-69228571D01*
X156621429Y-69285714D01*
X156621429Y-69314286D01*
X156592857Y-69371429D01*
X156564286Y-69400000D01*
X156507143Y-69428571D01*
X156392857Y-69428571D01*
X156335715Y-69457143D01*
X156307143Y-69485714D01*
X156278572Y-69542857D01*
X156278572Y-69657143D01*
X156307143Y-69714286D01*
X156335715Y-69742857D01*
X156392857Y-69771429D01*
X156507143Y-69771429D01*
X156564286Y-69742857D01*
X156592857Y-69714286D01*
X156621429Y-69657143D01*
X156621429Y-69542857D01*
X156592857Y-69485714D01*
X156564286Y-69457143D01*
X156507143Y-69428571D01*
X144571429Y-88800000D02*
X144285714Y-89000000D01*
X144571429Y-89142857D02*
X143971429Y-89142857D01*
X143971429Y-88914285D01*
X144000000Y-88857143D01*
X144028571Y-88828571D01*
X144085714Y-88800000D01*
X144171429Y-88800000D01*
X144228571Y-88828571D01*
X144257143Y-88857143D01*
X144285714Y-88914285D01*
X144285714Y-89142857D01*
X144571429Y-88514285D02*
X144571429Y-88400000D01*
X144542857Y-88342857D01*
X144514286Y-88314285D01*
X144428571Y-88257143D01*
X144314286Y-88228571D01*
X144085714Y-88228571D01*
X144028571Y-88257143D01*
X144000000Y-88285714D01*
X143971429Y-88342857D01*
X143971429Y-88457143D01*
X144000000Y-88514285D01*
X144028571Y-88542857D01*
X144085714Y-88571428D01*
X144228571Y-88571428D01*
X144285714Y-88542857D01*
X144314286Y-88514285D01*
X144342857Y-88457143D01*
X144342857Y-88342857D01*
X144314286Y-88285714D01*
X144285714Y-88257143D01*
X144228571Y-88228571D01*
X155471429Y-88685715D02*
X155185714Y-88885715D01*
X155471429Y-89028572D02*
X154871429Y-89028572D01*
X154871429Y-88800000D01*
X154900000Y-88742858D01*
X154928571Y-88714286D01*
X154985714Y-88685715D01*
X155071429Y-88685715D01*
X155128571Y-88714286D01*
X155157143Y-88742858D01*
X155185714Y-88800000D01*
X155185714Y-89028572D01*
X155471429Y-88114286D02*
X155471429Y-88457143D01*
X155471429Y-88285715D02*
X154871429Y-88285715D01*
X154957143Y-88342858D01*
X155014286Y-88400000D01*
X155042857Y-88457143D01*
X154871429Y-87742857D02*
X154871429Y-87685714D01*
X154900000Y-87628571D01*
X154928571Y-87600000D01*
X154985714Y-87571429D01*
X155100000Y-87542857D01*
X155242857Y-87542857D01*
X155357143Y-87571429D01*
X155414286Y-87600000D01*
X155442857Y-87628571D01*
X155471429Y-87685714D01*
X155471429Y-87742857D01*
X155442857Y-87800000D01*
X155414286Y-87828571D01*
X155357143Y-87857143D01*
X155242857Y-87885714D01*
X155100000Y-87885714D01*
X154985714Y-87857143D01*
X154928571Y-87828571D01*
X154900000Y-87800000D01*
X154871429Y-87742857D01*
X144657143Y-93171429D02*
X144657143Y-92571429D01*
X144885715Y-92571429D01*
X144942857Y-92600000D01*
X144971429Y-92628571D01*
X145000000Y-92685714D01*
X145000000Y-92771429D01*
X144971429Y-92828571D01*
X144942857Y-92857143D01*
X144885715Y-92885714D01*
X144657143Y-92885714D01*
X145200000Y-92571429D02*
X145571429Y-92571429D01*
X145371429Y-92800000D01*
X145457143Y-92800000D01*
X145514286Y-92828571D01*
X145542857Y-92857143D01*
X145571429Y-92914286D01*
X145571429Y-93057143D01*
X145542857Y-93114286D01*
X145514286Y-93142857D01*
X145457143Y-93171429D01*
X145285715Y-93171429D01*
X145228572Y-93142857D01*
X145200000Y-93114286D01*
X137514286Y-83424000D02*
X137542857Y-83452571D01*
X137571429Y-83538285D01*
X137571429Y-83595428D01*
X137542857Y-83681143D01*
X137485714Y-83738285D01*
X137428571Y-83766857D01*
X137314286Y-83795428D01*
X137228571Y-83795428D01*
X137114286Y-83766857D01*
X137057143Y-83738285D01*
X137000000Y-83681143D01*
X136971429Y-83595428D01*
X136971429Y-83538285D01*
X137000000Y-83452571D01*
X137028571Y-83424000D01*
X137571429Y-82852571D02*
X137571429Y-83195428D01*
X137571429Y-83024000D02*
X136971429Y-83024000D01*
X137057143Y-83081143D01*
X137114286Y-83138285D01*
X137142857Y-83195428D01*
X162314286Y-83500020D02*
X162342857Y-83528591D01*
X162371429Y-83614305D01*
X162371429Y-83671448D01*
X162342857Y-83757163D01*
X162285714Y-83814305D01*
X162228571Y-83842877D01*
X162114286Y-83871448D01*
X162028571Y-83871448D01*
X161914286Y-83842877D01*
X161857143Y-83814305D01*
X161800000Y-83757163D01*
X161771429Y-83671448D01*
X161771429Y-83614305D01*
X161800000Y-83528591D01*
X161828571Y-83500020D01*
X161828571Y-83271448D02*
X161800000Y-83242877D01*
X161771429Y-83185734D01*
X161771429Y-83042877D01*
X161800000Y-82985734D01*
X161828571Y-82957163D01*
X161885714Y-82928591D01*
X161942857Y-82928591D01*
X162028571Y-82957163D01*
X162371429Y-83300020D01*
X162371429Y-82928591D01*
X148514286Y-81650000D02*
X148542857Y-81678571D01*
X148571429Y-81764285D01*
X148571429Y-81821428D01*
X148542857Y-81907143D01*
X148485714Y-81964285D01*
X148428571Y-81992857D01*
X148314286Y-82021428D01*
X148228571Y-82021428D01*
X148114286Y-81992857D01*
X148057143Y-81964285D01*
X148000000Y-81907143D01*
X147971429Y-81821428D01*
X147971429Y-81764285D01*
X148000000Y-81678571D01*
X148028571Y-81650000D01*
X147971429Y-81450000D02*
X147971429Y-81078571D01*
X148200000Y-81278571D01*
X148200000Y-81192857D01*
X148228571Y-81135714D01*
X148257143Y-81107143D01*
X148314286Y-81078571D01*
X148457143Y-81078571D01*
X148514286Y-81107143D01*
X148542857Y-81135714D01*
X148571429Y-81192857D01*
X148571429Y-81364285D01*
X148542857Y-81421428D01*
X148514286Y-81450000D01*
X151214286Y-81650000D02*
X151242857Y-81678571D01*
X151271429Y-81764285D01*
X151271429Y-81821428D01*
X151242857Y-81907143D01*
X151185714Y-81964285D01*
X151128571Y-81992857D01*
X151014286Y-82021428D01*
X150928571Y-82021428D01*
X150814286Y-81992857D01*
X150757143Y-81964285D01*
X150700000Y-81907143D01*
X150671429Y-81821428D01*
X150671429Y-81764285D01*
X150700000Y-81678571D01*
X150728571Y-81650000D01*
X150871429Y-81135714D02*
X151271429Y-81135714D01*
X150642857Y-81278571D02*
X151071429Y-81421428D01*
X151071429Y-81050000D01*
X143428571Y-79557143D02*
X143400000Y-79614286D01*
X143342857Y-79671429D01*
X143257143Y-79757143D01*
X143228571Y-79814286D01*
X143228571Y-79871429D01*
X143371429Y-79842857D02*
X143342857Y-79900000D01*
X143285714Y-79957143D01*
X143171429Y-79985714D01*
X142971429Y-79985714D01*
X142857143Y-79957143D01*
X142800000Y-79900000D01*
X142771429Y-79842857D01*
X142771429Y-79728571D01*
X142800000Y-79671429D01*
X142857143Y-79614286D01*
X142971429Y-79585714D01*
X143171429Y-79585714D01*
X143285714Y-79614286D01*
X143342857Y-79671429D01*
X143371429Y-79728571D01*
X143371429Y-79842857D01*
X142771429Y-79385715D02*
X142771429Y-79014286D01*
X143000000Y-79214286D01*
X143000000Y-79128572D01*
X143028571Y-79071429D01*
X143057143Y-79042858D01*
X143114286Y-79014286D01*
X143257143Y-79014286D01*
X143314286Y-79042858D01*
X143342857Y-79071429D01*
X143371429Y-79128572D01*
X143371429Y-79300000D01*
X143342857Y-79357143D01*
X143314286Y-79385715D01*
X153828571Y-79557143D02*
X153800000Y-79614286D01*
X153742857Y-79671429D01*
X153657143Y-79757143D01*
X153628571Y-79814286D01*
X153628571Y-79871429D01*
X153771429Y-79842857D02*
X153742857Y-79900000D01*
X153685714Y-79957143D01*
X153571429Y-79985714D01*
X153371429Y-79985714D01*
X153257143Y-79957143D01*
X153200000Y-79900000D01*
X153171429Y-79842857D01*
X153171429Y-79728571D01*
X153200000Y-79671429D01*
X153257143Y-79614286D01*
X153371429Y-79585714D01*
X153571429Y-79585714D01*
X153685714Y-79614286D01*
X153742857Y-79671429D01*
X153771429Y-79728571D01*
X153771429Y-79842857D01*
X153371429Y-79071429D02*
X153771429Y-79071429D01*
X153142857Y-79214286D02*
X153571429Y-79357143D01*
X153571429Y-78985715D01*
X148114285Y-83671429D02*
X147914285Y-83385714D01*
X147771428Y-83671429D02*
X147771428Y-83071429D01*
X148000000Y-83071429D01*
X148057142Y-83100000D01*
X148085714Y-83128571D01*
X148114285Y-83185714D01*
X148114285Y-83271429D01*
X148085714Y-83328571D01*
X148057142Y-83357143D01*
X148000000Y-83385714D01*
X147771428Y-83385714D01*
X148685714Y-83671429D02*
X148342857Y-83671429D01*
X148514285Y-83671429D02*
X148514285Y-83071429D01*
X148457142Y-83157143D01*
X148400000Y-83214286D01*
X148342857Y-83242857D01*
X148885714Y-83071429D02*
X149257143Y-83071429D01*
X149057143Y-83300000D01*
X149142857Y-83300000D01*
X149200000Y-83328571D01*
X149228571Y-83357143D01*
X149257143Y-83414286D01*
X149257143Y-83557143D01*
X149228571Y-83614286D01*
X149200000Y-83642857D01*
X149142857Y-83671429D01*
X148971429Y-83671429D01*
X148914286Y-83642857D01*
X148885714Y-83614286D01*
X152814285Y-83671429D02*
X152614285Y-83385714D01*
X152471428Y-83671429D02*
X152471428Y-83071429D01*
X152700000Y-83071429D01*
X152757142Y-83100000D01*
X152785714Y-83128571D01*
X152814285Y-83185714D01*
X152814285Y-83271429D01*
X152785714Y-83328571D01*
X152757142Y-83357143D01*
X152700000Y-83385714D01*
X152471428Y-83385714D01*
X153385714Y-83671429D02*
X153042857Y-83671429D01*
X153214285Y-83671429D02*
X153214285Y-83071429D01*
X153157142Y-83157143D01*
X153100000Y-83214286D01*
X153042857Y-83242857D01*
X153900000Y-83271429D02*
X153900000Y-83671429D01*
X153757143Y-83042857D02*
X153614286Y-83471429D01*
X153985714Y-83471429D01*
M02*
