M48
;DRILL file {KiCad 4.0.4-1.fc24-product} date Thu Jan 11 10:54:01 2018
;FORMAT={-:-/ absolute / metric / decimal}
FMAT,2
METRIC,TZ
T1C0.400
T2C0.800
T3C1.000
T4C1.097
%
G90
G05
M71
T1
X138.3Y-75.
X142.25Y-88.75
X145.5Y-82.9
X146.8Y-88.3
X147.9Y-87.
X153.837Y-75.593
X154.386Y-85.994
X154.7Y-88.1
X154.7Y-89.2
X159.3Y-83.
X160.Y-89.
X160.1Y-73.4
T2
X147.Y-95.3
X149.Y-95.3
X151.Y-95.3
X153.Y-95.3
X155.Y-95.3
T3
X148.5Y-70.
X148.5Y-72.5
X151.Y-70.
X151.Y-72.5
X153.5Y-70.
X153.5Y-72.5
T4
X138.21Y-94.25
X140.75Y-94.25
X161.25Y-94.25
X163.79Y-94.25
T0
M30
