M48
;DRILL file {KiCad 4.0.7} date 01/11/18 21:07:43
;FORMAT={-:-/ absolute / inch / decimal}
FMAT,2
INCH,TZ
T1C0.016
T2C0.031
T3C0.039
T4C0.043
%
G90
G05
M72
T1
X5.4449Y-2.9528
X5.6004Y-3.4941
X5.7283Y-3.2638
X5.7795Y-3.4764
X5.8228Y-3.4252
X6.0566Y-2.9761
X6.0782Y-3.3856
X6.0906Y-3.4685
X6.0906Y-3.5118
X6.2717Y-3.2677
X6.2992Y-3.5039
X6.3031Y-2.8898
T2
X5.7874Y-3.752
X5.8661Y-3.752
X5.9449Y-3.752
X6.0236Y-3.752
X6.1024Y-3.752
T3
X5.8465Y-2.7559
X5.8465Y-2.8543
X5.9449Y-2.7559
X5.9449Y-2.8543
X6.0433Y-2.7559
X6.0433Y-2.8543
T4
X5.437Y-3.7126
X5.537Y-3.7126
X6.3504Y-3.7126
X6.4504Y-3.7126
T0
M30
