G04 #@! TF.FileFunction,Soldermask,Top*
%FSLAX46Y46*%
G04 Gerber Fmt 4.6, Leading zero omitted, Abs format (unit mm)*
G04 Created by KiCad (PCBNEW 4.0.4-1.fc24-product) date Mon Jan 15 08:53:21 2018*
%MOMM*%
%LPD*%
G01*
G04 APERTURE LIST*
%ADD10C,0.100000*%
%ADD11R,1.949400X2.200860*%
%ADD12R,1.650000X1.900000*%
%ADD13R,1.900000X1.650000*%
%ADD14R,1.150000X1.600000*%
%ADD15R,1.600000X1.150000*%
%ADD16R,1.950000X1.000000*%
%ADD17R,1.600000X1.300000*%
%ADD18R,1.310000X1.620000*%
%ADD19O,2.398980X2.398980*%
%ADD20R,2.398980X2.398980*%
%ADD21R,1.900000X1.900000*%
%ADD22C,1.900000*%
%ADD23C,2.200000*%
G04 APERTURE END LIST*
D10*
D11*
X181476020Y-59600000D03*
X179123980Y-59600000D03*
D12*
X154000000Y-54950000D03*
X154000000Y-52450000D03*
D13*
X157050000Y-62300000D03*
X159550000Y-62300000D03*
D14*
X154000000Y-62350000D03*
X154000000Y-64250000D03*
D13*
X168350000Y-52400000D03*
X165850000Y-52400000D03*
D15*
X171150000Y-52400000D03*
X173050000Y-52400000D03*
D16*
X157200000Y-55295000D03*
X157200000Y-56565000D03*
X157200000Y-57835000D03*
X157200000Y-59105000D03*
X162600000Y-59105000D03*
X162600000Y-57835000D03*
X162600000Y-56565000D03*
X162600000Y-55295000D03*
D13*
X171550000Y-56000000D03*
X174050000Y-56000000D03*
X165150000Y-62300000D03*
X162650000Y-62300000D03*
X171650000Y-62400000D03*
X174150000Y-62400000D03*
D17*
X177800000Y-56600000D03*
X180000000Y-56600000D03*
X182400000Y-56600000D03*
X184600000Y-56600000D03*
D18*
X171165000Y-59200000D03*
X174435000Y-59200000D03*
D13*
X158550000Y-52400000D03*
X161050000Y-52400000D03*
D19*
X182300000Y-77680000D03*
D20*
X182300000Y-72600000D03*
D19*
X182300000Y-75140000D03*
X182300000Y-69040000D03*
D20*
X182300000Y-66500000D03*
D21*
X157000000Y-76500000D03*
D22*
X157000000Y-74500000D03*
X157000000Y-72500000D03*
X157000000Y-70500000D03*
X157000000Y-68500000D03*
D21*
X165000000Y-76500000D03*
D22*
X165000000Y-74500000D03*
X165000000Y-72500000D03*
X165000000Y-70500000D03*
X165000000Y-68500000D03*
D21*
X173000000Y-76500000D03*
D22*
X173000000Y-74500000D03*
X173000000Y-72500000D03*
X173000000Y-70500000D03*
X173000000Y-68500000D03*
D23*
X178600000Y-52000000D03*
X181100000Y-52000000D03*
X183600000Y-52000000D03*
D12*
X154050000Y-57650000D03*
X154050000Y-60150000D03*
X168550000Y-58650000D03*
X168550000Y-56150000D03*
X165750000Y-56150000D03*
X165750000Y-58650000D03*
M02*
