G04 #@! TF.FileFunction,Legend,Bot*
%FSLAX46Y46*%
G04 Gerber Fmt 4.6, Leading zero omitted, Abs format (unit mm)*
G04 Created by KiCad (PCBNEW 4.0.7) date 06/05/18 11:02:08*
%MOMM*%
%LPD*%
G01*
G04 APERTURE LIST*
%ADD10C,0.100000*%
%ADD11C,0.120000*%
%ADD12C,0.150000*%
G04 APERTURE END LIST*
D10*
D11*
X149600000Y-109550000D02*
X144900000Y-109550000D01*
X144900000Y-109550000D02*
X144900000Y-103450000D01*
X144900000Y-103450000D02*
X149600000Y-103450000D01*
X149600000Y-103450000D02*
X149600000Y-109550000D01*
X149600000Y-107000000D02*
X149000000Y-107000000D01*
X149000000Y-107000000D02*
X149000000Y-108950000D01*
X149000000Y-108950000D02*
X145500000Y-108950000D01*
X145500000Y-108950000D02*
X145500000Y-104050000D01*
X145500000Y-104050000D02*
X149000000Y-104050000D01*
X149000000Y-104050000D02*
X149000000Y-106000000D01*
X149000000Y-106000000D02*
X149600000Y-106000000D01*
X148300000Y-109550000D02*
X148300000Y-108950000D01*
X147000000Y-109550000D02*
X147000000Y-108950000D01*
X148300000Y-103450000D02*
X148300000Y-104050000D01*
X147000000Y-103450000D02*
X147000000Y-104050000D01*
X149600000Y-107800000D02*
X149800000Y-107800000D01*
X149800000Y-107800000D02*
X149800000Y-108100000D01*
X149800000Y-108100000D02*
X149600000Y-108100000D01*
X149700000Y-107800000D02*
X149700000Y-108100000D01*
X145500000Y-106600000D02*
X146000000Y-106600000D01*
X146000000Y-106600000D02*
X146000000Y-106400000D01*
X146000000Y-106400000D02*
X145500000Y-106400000D01*
X145500000Y-106500000D02*
X146000000Y-106500000D01*
X149900000Y-108600000D02*
X149900000Y-109850000D01*
X149900000Y-109850000D02*
X148650000Y-109850000D01*
D12*
X146651281Y-105765505D02*
X145651281Y-105765505D01*
X145651281Y-106146458D01*
X145698900Y-106241696D01*
X145746519Y-106289315D01*
X145841757Y-106336934D01*
X145984614Y-106336934D01*
X146079852Y-106289315D01*
X146127471Y-106241696D01*
X146175090Y-106146458D01*
X146175090Y-105765505D01*
X145746519Y-106717886D02*
X145698900Y-106765505D01*
X145651281Y-106860743D01*
X145651281Y-107098839D01*
X145698900Y-107194077D01*
X145746519Y-107241696D01*
X145841757Y-107289315D01*
X145936995Y-107289315D01*
X146079852Y-107241696D01*
X146651281Y-106670267D01*
X146651281Y-107289315D01*
M02*
