G04 #@! TF.FileFunction,Legend,Bot*
%FSLAX46Y46*%
G04 Gerber Fmt 4.6, Leading zero omitted, Abs format (unit mm)*
G04 Created by KiCad (PCBNEW 4.0.4-1.fc24-product) date Tue Jun 12 10:11:03 2018*
%MOMM*%
%LPD*%
G01*
G04 APERTURE LIST*
%ADD10C,0.100000*%
%ADD11C,0.150000*%
G04 APERTURE END LIST*
D10*
D11*
X138000000Y-113250000D02*
X138000000Y-100550000D01*
X138000000Y-100550000D02*
X149400000Y-100550000D01*
X149400000Y-100550000D02*
X149400000Y-113250000D01*
X149400000Y-113250000D02*
X138000000Y-113250000D01*
X144183333Y-105966666D02*
X144216667Y-106066666D01*
X144216667Y-106233333D01*
X144183333Y-106300000D01*
X144150000Y-106333333D01*
X144083333Y-106366666D01*
X144016667Y-106366666D01*
X143950000Y-106333333D01*
X143916667Y-106300000D01*
X143883333Y-106233333D01*
X143850000Y-106100000D01*
X143816667Y-106033333D01*
X143783333Y-106000000D01*
X143716667Y-105966666D01*
X143650000Y-105966666D01*
X143583333Y-106000000D01*
X143550000Y-106033333D01*
X143516667Y-106100000D01*
X143516667Y-106266666D01*
X143550000Y-106366666D01*
X143516667Y-106600000D02*
X144216667Y-106766667D01*
X143716667Y-106900000D01*
X144216667Y-107033333D01*
X143516667Y-107200000D01*
X144216667Y-107833333D02*
X144216667Y-107433333D01*
X144216667Y-107633333D02*
X143516667Y-107633333D01*
X143616667Y-107566667D01*
X143683333Y-107500000D01*
X143716667Y-107433333D01*
M02*
