G04 #@! TF.FileFunction,Legend,Top*
%FSLAX46Y46*%
G04 Gerber Fmt 4.6, Leading zero omitted, Abs format (unit mm)*
G04 Created by KiCad (PCBNEW 4.0.4-1.fc24-product) date Tue Jun 12 10:11:03 2018*
%MOMM*%
%LPD*%
G01*
G04 APERTURE LIST*
%ADD10C,0.100000*%
%ADD11C,0.120000*%
%ADD12C,0.150000*%
G04 APERTURE END LIST*
D10*
D11*
X155570000Y-113090000D02*
X158230000Y-113090000D01*
X155570000Y-102870000D02*
X155570000Y-113090000D01*
X158230000Y-102870000D02*
X158230000Y-113090000D01*
X155570000Y-102870000D02*
X158230000Y-102870000D01*
X155570000Y-101600000D02*
X155570000Y-100270000D01*
X155570000Y-100270000D02*
X156900000Y-100270000D01*
X152620000Y-113090000D02*
X155280000Y-113090000D01*
X152620000Y-102870000D02*
X152620000Y-113090000D01*
X155280000Y-102870000D02*
X155280000Y-113090000D01*
X152620000Y-102870000D02*
X155280000Y-102870000D01*
X152620000Y-101600000D02*
X152620000Y-100270000D01*
X152620000Y-100270000D02*
X153950000Y-100270000D01*
X149670000Y-113090000D02*
X152330000Y-113090000D01*
X149670000Y-102870000D02*
X149670000Y-113090000D01*
X152330000Y-102870000D02*
X152330000Y-113090000D01*
X149670000Y-102870000D02*
X152330000Y-102870000D01*
X149670000Y-101600000D02*
X149670000Y-100270000D01*
X149670000Y-100270000D02*
X151000000Y-100270000D01*
D12*
X152469080Y-119300960D02*
X146870920Y-119300960D01*
X147069040Y-119798800D02*
X147069040Y-119300960D01*
X152270960Y-119300960D02*
X152270960Y-119798800D01*
X149670000Y-119798800D02*
X149670000Y-119300960D01*
X146870920Y-113999980D02*
X152469080Y-113999980D01*
X146870920Y-119798800D02*
X152469080Y-119798800D01*
X152469080Y-119798800D02*
X152469080Y-113601200D01*
X152469080Y-113601200D02*
X146870920Y-113601200D01*
X146870920Y-113601200D02*
X146870920Y-119798800D01*
X146359560Y-113601200D02*
X138160440Y-113601200D01*
X146359560Y-113999980D02*
X138160440Y-113999980D01*
X146359560Y-119300960D02*
X138160440Y-119300960D01*
X138160440Y-119798800D02*
X146359560Y-119798800D01*
X143560480Y-119300960D02*
X143560480Y-119798800D01*
X138361100Y-119798800D02*
X138361100Y-119300960D01*
X146161440Y-119300960D02*
X146161440Y-119798800D01*
X140962060Y-119798800D02*
X140962060Y-119300960D01*
X146359560Y-119798800D02*
X146359560Y-113601200D01*
X138162980Y-113601200D02*
X138162980Y-119798800D01*
X156666667Y-113316667D02*
X156666667Y-113816667D01*
X156633333Y-113916667D01*
X156566667Y-113983333D01*
X156466667Y-114016667D01*
X156400000Y-114016667D01*
X156933333Y-113316667D02*
X157366666Y-113316667D01*
X157133333Y-113583333D01*
X157233333Y-113583333D01*
X157300000Y-113616667D01*
X157333333Y-113650000D01*
X157366666Y-113716667D01*
X157366666Y-113883333D01*
X157333333Y-113950000D01*
X157300000Y-113983333D01*
X157233333Y-114016667D01*
X157033333Y-114016667D01*
X156966666Y-113983333D01*
X156933333Y-113950000D01*
X153716667Y-113316667D02*
X153716667Y-113816667D01*
X153683333Y-113916667D01*
X153616667Y-113983333D01*
X153516667Y-114016667D01*
X153450000Y-114016667D01*
X154416666Y-114016667D02*
X154016666Y-114016667D01*
X154216666Y-114016667D02*
X154216666Y-113316667D01*
X154150000Y-113416667D01*
X154083333Y-113483333D01*
X154016666Y-113516667D01*
X148666667Y-101216667D02*
X148666667Y-101716667D01*
X148633333Y-101816667D01*
X148566667Y-101883333D01*
X148466667Y-101916667D01*
X148400000Y-101916667D01*
X148966666Y-101283333D02*
X149000000Y-101250000D01*
X149066666Y-101216667D01*
X149233333Y-101216667D01*
X149300000Y-101250000D01*
X149333333Y-101283333D01*
X149366666Y-101350000D01*
X149366666Y-101416667D01*
X149333333Y-101516667D01*
X148933333Y-101916667D01*
X149366666Y-101916667D01*
X148166667Y-112616667D02*
X148166667Y-113116667D01*
X148133333Y-113216667D01*
X148066667Y-113283333D01*
X147966667Y-113316667D01*
X147900000Y-113316667D01*
X148800000Y-112850000D02*
X148800000Y-113316667D01*
X148633333Y-112583333D02*
X148466666Y-113083333D01*
X148900000Y-113083333D01*
X139466667Y-112616667D02*
X139466667Y-113116667D01*
X139433333Y-113216667D01*
X139366667Y-113283333D01*
X139266667Y-113316667D01*
X139200000Y-113316667D01*
X140133333Y-112616667D02*
X139800000Y-112616667D01*
X139766666Y-112950000D01*
X139800000Y-112916667D01*
X139866666Y-112883333D01*
X140033333Y-112883333D01*
X140100000Y-112916667D01*
X140133333Y-112950000D01*
X140166666Y-113016667D01*
X140166666Y-113183333D01*
X140133333Y-113250000D01*
X140100000Y-113283333D01*
X140033333Y-113316667D01*
X139866666Y-113316667D01*
X139800000Y-113283333D01*
X139766666Y-113250000D01*
M02*
