G04 #@! TF.FileFunction,Copper,L2,Bot,Signal*
%FSLAX46Y46*%
G04 Gerber Fmt 4.6, Leading zero omitted, Abs format (unit mm)*
G04 Created by KiCad (PCBNEW 4.0.4-1.fc24-product) date Tue Jun 12 10:10:46 2018*
%MOMM*%
%LPD*%
G01*
G04 APERTURE LIST*
%ADD10C,0.100000*%
%ADD11R,1.250000X1.000000*%
%ADD12R,1.200000X0.900000*%
%ADD13R,0.900000X1.200000*%
%ADD14R,1.700000X1.700000*%
%ADD15O,1.700000X1.700000*%
%ADD16C,1.800000*%
%ADD17C,0.600000*%
%ADD18C,0.400000*%
%ADD19C,0.300000*%
G04 APERTURE END LIST*
D10*
D11*
X148000000Y-86800000D03*
X148000000Y-84800000D03*
D12*
X148100000Y-89800000D03*
X145900000Y-89800000D03*
D13*
X146000000Y-86900000D03*
X146000000Y-84700000D03*
D14*
X152600000Y-96000000D03*
D15*
X150060000Y-96000000D03*
X152600000Y-98540000D03*
X150060000Y-98540000D03*
D16*
X139250000Y-84000000D03*
X135500000Y-84000000D03*
X131750000Y-84000000D03*
X139250000Y-89000000D03*
X135500000Y-89000000D03*
X131750000Y-89000000D03*
X131750000Y-94000000D03*
X135500000Y-94000000D03*
X139250000Y-94000000D03*
D17*
X147299990Y-91400000D03*
X141300000Y-100200000D03*
X136215693Y-96815693D03*
X141300000Y-98000000D03*
X143000000Y-92100002D03*
X153500000Y-83100000D03*
X148100000Y-88800000D03*
D18*
X145900000Y-89800000D02*
X145900000Y-90600000D01*
X145900000Y-90600000D02*
X146700000Y-91400000D01*
X146700000Y-91400000D02*
X147299990Y-91400000D01*
X145900000Y-89800000D02*
X145900000Y-87000000D01*
X145900000Y-87000000D02*
X146000000Y-86900000D01*
X146000000Y-86900000D02*
X147900000Y-86900000D01*
X147900000Y-86900000D02*
X148000000Y-86800000D01*
X131750000Y-94000000D02*
X137950000Y-100200000D01*
X137950000Y-100200000D02*
X140875736Y-100200000D01*
X140875736Y-100200000D02*
X141300000Y-100200000D01*
X136954887Y-90454887D02*
X136954887Y-96076499D01*
X135500000Y-89000000D02*
X136954887Y-90454887D01*
X136515692Y-96515694D02*
X136215693Y-96815693D01*
X136954887Y-96076499D02*
X136515692Y-96515694D01*
X141300000Y-91050000D02*
X141300000Y-97575736D01*
X139250000Y-89000000D02*
X141300000Y-91050000D01*
X141300000Y-97575736D02*
X141300000Y-98000000D01*
X139250000Y-84000000D02*
X139250000Y-85272792D01*
X139250000Y-85272792D02*
X139250000Y-89000000D01*
X154200000Y-96940000D02*
X154200000Y-94900000D01*
X154200000Y-94900000D02*
X149100000Y-89800000D01*
X149100000Y-89800000D02*
X148100000Y-89800000D01*
X152600000Y-98540000D02*
X154200000Y-96940000D01*
X148100000Y-89800000D02*
X148100000Y-88800000D01*
D19*
G36*
X154475000Y-94255761D02*
X149559619Y-89340381D01*
X149348745Y-89199478D01*
X149307476Y-89191269D01*
X149106937Y-89151380D01*
X149028883Y-89030081D01*
X148878505Y-88927332D01*
X148849894Y-88921538D01*
X148850130Y-88651470D01*
X148736189Y-88375714D01*
X148525395Y-88164552D01*
X148249839Y-88050131D01*
X147951470Y-88049870D01*
X147675714Y-88163811D01*
X147464552Y-88374605D01*
X147350131Y-88650161D01*
X147349895Y-88919428D01*
X147333240Y-88922562D01*
X147180081Y-89021117D01*
X147077332Y-89171495D01*
X147041184Y-89350000D01*
X147041184Y-90250000D01*
X147072562Y-90416760D01*
X147171117Y-90569919D01*
X147288304Y-90649990D01*
X147151460Y-90649870D01*
X146951664Y-90732425D01*
X146806656Y-90587417D01*
X146819919Y-90578883D01*
X146922668Y-90428505D01*
X146958816Y-90250000D01*
X146958816Y-89350000D01*
X146927438Y-89183240D01*
X146828883Y-89030081D01*
X146678505Y-88927332D01*
X146550000Y-88901309D01*
X146550000Y-87940000D01*
X146616760Y-87927438D01*
X146769919Y-87828883D01*
X146872668Y-87678505D01*
X146898691Y-87550000D01*
X147001125Y-87550000D01*
X147046117Y-87619919D01*
X147196495Y-87722668D01*
X147375000Y-87758816D01*
X148625000Y-87758816D01*
X148791760Y-87727438D01*
X148944919Y-87628883D01*
X149047668Y-87478505D01*
X149083816Y-87300000D01*
X149083816Y-86300000D01*
X149052438Y-86133240D01*
X148953883Y-85980081D01*
X148803505Y-85877332D01*
X148625000Y-85841184D01*
X147375000Y-85841184D01*
X147208240Y-85872562D01*
X147055081Y-85971117D01*
X146952332Y-86121495D01*
X146926309Y-86250000D01*
X146899408Y-86250000D01*
X146877438Y-86133240D01*
X146778883Y-85980081D01*
X146628505Y-85877332D01*
X146450000Y-85841184D01*
X145550000Y-85841184D01*
X145383240Y-85872562D01*
X145230081Y-85971117D01*
X145127332Y-86121495D01*
X145091184Y-86300000D01*
X145091184Y-87500000D01*
X145122562Y-87666760D01*
X145221117Y-87819919D01*
X145250000Y-87839654D01*
X145250000Y-88900592D01*
X145133240Y-88922562D01*
X144980081Y-89021117D01*
X144877332Y-89171495D01*
X144841184Y-89350000D01*
X144841184Y-90250000D01*
X144872562Y-90416760D01*
X144971117Y-90569919D01*
X145121495Y-90672668D01*
X145270455Y-90702833D01*
X145270614Y-90703632D01*
X145299478Y-90848745D01*
X145440381Y-91059619D01*
X146240381Y-91859620D01*
X146451255Y-92000522D01*
X146700000Y-92050000D01*
X146909640Y-92050000D01*
X147150151Y-92149869D01*
X147448520Y-92150130D01*
X147724276Y-92036189D01*
X147935438Y-91825395D01*
X148049859Y-91549839D01*
X148050120Y-91251470D01*
X147936179Y-90975714D01*
X147725385Y-90764552D01*
X147591158Y-90708816D01*
X148700000Y-90708816D01*
X148866760Y-90677438D01*
X148983244Y-90602482D01*
X153071945Y-94691184D01*
X151750000Y-94691184D01*
X151583240Y-94722562D01*
X151430081Y-94821117D01*
X151327332Y-94971495D01*
X151291184Y-95150000D01*
X151291184Y-95526000D01*
X151286512Y-95502512D01*
X151004708Y-95080761D01*
X150582957Y-94798957D01*
X150085469Y-94700000D01*
X150034531Y-94700000D01*
X149537043Y-94798957D01*
X149115292Y-95080761D01*
X148833488Y-95502512D01*
X148734531Y-96000000D01*
X148833488Y-96497488D01*
X149115292Y-96919239D01*
X149537043Y-97201043D01*
X149909998Y-97275229D01*
X149909998Y-97361169D01*
X149709838Y-97288034D01*
X149257386Y-97517335D01*
X148927124Y-97902328D01*
X148808046Y-98189840D01*
X148882012Y-98390000D01*
X149910000Y-98390000D01*
X149910000Y-98370000D01*
X150210000Y-98370000D01*
X150210000Y-98390000D01*
X150230000Y-98390000D01*
X150230000Y-98690000D01*
X150210000Y-98690000D01*
X150210000Y-99718830D01*
X150410162Y-99791966D01*
X150862614Y-99562665D01*
X151192876Y-99177672D01*
X151311954Y-98890160D01*
X151237989Y-98690002D01*
X151304368Y-98690002D01*
X151373488Y-99037488D01*
X151655292Y-99459239D01*
X152077043Y-99741043D01*
X152574531Y-99840000D01*
X152625469Y-99840000D01*
X153122957Y-99741043D01*
X153544708Y-99459239D01*
X153826512Y-99037488D01*
X153925469Y-98540000D01*
X153858071Y-98201168D01*
X154475000Y-97584239D01*
X154475000Y-100475000D01*
X141997898Y-100475000D01*
X142049869Y-100349839D01*
X142050130Y-100051470D01*
X141936189Y-99775714D01*
X141725395Y-99564552D01*
X141449839Y-99450131D01*
X141151470Y-99449870D01*
X140909139Y-99550000D01*
X138219238Y-99550000D01*
X137559398Y-98890160D01*
X148808046Y-98890160D01*
X148927124Y-99177672D01*
X149257386Y-99562665D01*
X149709838Y-99791966D01*
X149910000Y-99718830D01*
X149910000Y-98690000D01*
X148882012Y-98690000D01*
X148808046Y-98890160D01*
X137559398Y-98890160D01*
X136234948Y-97565710D01*
X136364223Y-97565823D01*
X136639979Y-97451882D01*
X136851141Y-97241088D01*
X136951693Y-96998932D01*
X136975312Y-96975313D01*
X136975314Y-96975310D01*
X137414507Y-96536118D01*
X137555409Y-96325243D01*
X137604887Y-96076499D01*
X137604887Y-94267353D01*
X137899766Y-94267353D01*
X138104858Y-94763715D01*
X138484288Y-95143807D01*
X138980290Y-95349765D01*
X139517353Y-95350234D01*
X140013715Y-95145142D01*
X140393807Y-94765712D01*
X140599765Y-94269710D01*
X140600234Y-93732647D01*
X140395142Y-93236285D01*
X140015712Y-92856193D01*
X139519710Y-92650235D01*
X138982647Y-92649766D01*
X138486285Y-92854858D01*
X138106193Y-93234288D01*
X137900235Y-93730290D01*
X137899766Y-94267353D01*
X137604887Y-94267353D01*
X137604887Y-90454887D01*
X137555409Y-90206143D01*
X137555409Y-90206142D01*
X137414506Y-89995268D01*
X136802581Y-89383343D01*
X136849765Y-89269710D01*
X136850234Y-88732647D01*
X136645142Y-88236285D01*
X136265712Y-87856193D01*
X135769710Y-87650235D01*
X135232647Y-87649766D01*
X134736285Y-87854858D01*
X134356193Y-88234288D01*
X134150235Y-88730290D01*
X134149766Y-89267353D01*
X134354858Y-89763715D01*
X134734288Y-90143807D01*
X135230290Y-90349765D01*
X135767353Y-90350234D01*
X135883150Y-90302388D01*
X136304887Y-90724125D01*
X136304887Y-92895436D01*
X136265712Y-92856193D01*
X135769710Y-92650235D01*
X135232647Y-92649766D01*
X134736285Y-92854858D01*
X134356193Y-93234288D01*
X134150235Y-93730290D01*
X134149766Y-94267353D01*
X134354858Y-94763715D01*
X134734288Y-95143807D01*
X135230290Y-95349765D01*
X135767353Y-95350234D01*
X136263715Y-95145142D01*
X136304887Y-95104042D01*
X136304887Y-95807260D01*
X136056076Y-96056072D01*
X136056073Y-96056074D01*
X136032094Y-96080054D01*
X135791407Y-96179504D01*
X135580245Y-96390298D01*
X135465824Y-96665854D01*
X135465710Y-96796472D01*
X133052581Y-94383343D01*
X133099765Y-94269710D01*
X133100234Y-93732647D01*
X132895142Y-93236285D01*
X132515712Y-92856193D01*
X132019710Y-92650235D01*
X131482647Y-92649766D01*
X130986285Y-92854858D01*
X130606193Y-93234288D01*
X130400235Y-93730290D01*
X130399766Y-94267353D01*
X130604858Y-94763715D01*
X130984288Y-95143807D01*
X131480290Y-95349765D01*
X132017353Y-95350234D01*
X132133150Y-95302388D01*
X137305762Y-100475000D01*
X129525000Y-100475000D01*
X129525000Y-89267353D01*
X130399766Y-89267353D01*
X130604858Y-89763715D01*
X130984288Y-90143807D01*
X131480290Y-90349765D01*
X132017353Y-90350234D01*
X132513715Y-90145142D01*
X132893807Y-89765712D01*
X133099765Y-89269710D01*
X133100234Y-88732647D01*
X132895142Y-88236285D01*
X132515712Y-87856193D01*
X132019710Y-87650235D01*
X131482647Y-87649766D01*
X130986285Y-87854858D01*
X130606193Y-88234288D01*
X130400235Y-88730290D01*
X130399766Y-89267353D01*
X129525000Y-89267353D01*
X129525000Y-84267353D01*
X130399766Y-84267353D01*
X130604858Y-84763715D01*
X130984288Y-85143807D01*
X131480290Y-85349765D01*
X132017353Y-85350234D01*
X132513715Y-85145142D01*
X132893807Y-84765712D01*
X133099765Y-84269710D01*
X133099767Y-84267353D01*
X134149766Y-84267353D01*
X134354858Y-84763715D01*
X134734288Y-85143807D01*
X135230290Y-85349765D01*
X135767353Y-85350234D01*
X136263715Y-85145142D01*
X136643807Y-84765712D01*
X136849765Y-84269710D01*
X136849767Y-84267353D01*
X137899766Y-84267353D01*
X138104858Y-84763715D01*
X138484288Y-85143807D01*
X138600000Y-85191855D01*
X138600000Y-87807872D01*
X138486285Y-87854858D01*
X138106193Y-88234288D01*
X137900235Y-88730290D01*
X137899766Y-89267353D01*
X138104858Y-89763715D01*
X138484288Y-90143807D01*
X138980290Y-90349765D01*
X139517353Y-90350234D01*
X139633150Y-90302388D01*
X140650000Y-91319239D01*
X140650000Y-97609650D01*
X140550131Y-97850161D01*
X140549870Y-98148530D01*
X140663811Y-98424286D01*
X140874605Y-98635448D01*
X141150161Y-98749869D01*
X141448530Y-98750130D01*
X141724286Y-98636189D01*
X141935448Y-98425395D01*
X142049869Y-98149839D01*
X142050130Y-97851470D01*
X141950000Y-97609139D01*
X141950000Y-91050000D01*
X141900522Y-90801256D01*
X141866274Y-90750000D01*
X141759620Y-90590381D01*
X140552581Y-89383342D01*
X140599765Y-89269710D01*
X140600234Y-88732647D01*
X140395142Y-88236285D01*
X140015712Y-87856193D01*
X139900000Y-87808145D01*
X139900000Y-85192128D01*
X140013715Y-85145142D01*
X140196675Y-84962500D01*
X145100000Y-84962500D01*
X145100000Y-85389511D01*
X145168509Y-85554905D01*
X145295096Y-85681492D01*
X145460490Y-85750000D01*
X145737500Y-85750000D01*
X145850000Y-85637500D01*
X145850000Y-84850000D01*
X146150000Y-84850000D01*
X146150000Y-85637500D01*
X146262500Y-85750000D01*
X146539510Y-85750000D01*
X146704904Y-85681492D01*
X146831491Y-85554905D01*
X146900000Y-85389511D01*
X146900000Y-85062500D01*
X146925000Y-85062500D01*
X146925000Y-85389511D01*
X146993509Y-85554905D01*
X147120096Y-85681492D01*
X147285490Y-85750000D01*
X147737500Y-85750000D01*
X147850000Y-85637500D01*
X147850000Y-84950000D01*
X148150000Y-84950000D01*
X148150000Y-85637500D01*
X148262500Y-85750000D01*
X148714510Y-85750000D01*
X148879904Y-85681492D01*
X149006491Y-85554905D01*
X149075000Y-85389511D01*
X149075000Y-85062500D01*
X148962500Y-84950000D01*
X148150000Y-84950000D01*
X147850000Y-84950000D01*
X147037500Y-84950000D01*
X146925000Y-85062500D01*
X146900000Y-85062500D01*
X146900000Y-84962500D01*
X146787500Y-84850000D01*
X146150000Y-84850000D01*
X145850000Y-84850000D01*
X145212500Y-84850000D01*
X145100000Y-84962500D01*
X140196675Y-84962500D01*
X140393807Y-84765712D01*
X140599765Y-84269710D01*
X140599991Y-84010489D01*
X145100000Y-84010489D01*
X145100000Y-84437500D01*
X145212500Y-84550000D01*
X145850000Y-84550000D01*
X145850000Y-83762500D01*
X146150000Y-83762500D01*
X146150000Y-84550000D01*
X146787500Y-84550000D01*
X146900000Y-84437500D01*
X146900000Y-84210489D01*
X146925000Y-84210489D01*
X146925000Y-84537500D01*
X147037500Y-84650000D01*
X147850000Y-84650000D01*
X147850000Y-83962500D01*
X148150000Y-83962500D01*
X148150000Y-84650000D01*
X148962500Y-84650000D01*
X149075000Y-84537500D01*
X149075000Y-84210489D01*
X149006491Y-84045095D01*
X148879904Y-83918508D01*
X148714510Y-83850000D01*
X148262500Y-83850000D01*
X148150000Y-83962500D01*
X147850000Y-83962500D01*
X147737500Y-83850000D01*
X147285490Y-83850000D01*
X147120096Y-83918508D01*
X146993509Y-84045095D01*
X146925000Y-84210489D01*
X146900000Y-84210489D01*
X146900000Y-84010489D01*
X146831491Y-83845095D01*
X146704904Y-83718508D01*
X146539510Y-83650000D01*
X146262500Y-83650000D01*
X146150000Y-83762500D01*
X145850000Y-83762500D01*
X145737500Y-83650000D01*
X145460490Y-83650000D01*
X145295096Y-83718508D01*
X145168509Y-83845095D01*
X145100000Y-84010489D01*
X140599991Y-84010489D01*
X140600234Y-83732647D01*
X140395142Y-83236285D01*
X140015712Y-82856193D01*
X139519710Y-82650235D01*
X138982647Y-82649766D01*
X138486285Y-82854858D01*
X138106193Y-83234288D01*
X137900235Y-83730290D01*
X137899766Y-84267353D01*
X136849767Y-84267353D01*
X136850234Y-83732647D01*
X136645142Y-83236285D01*
X136265712Y-82856193D01*
X135769710Y-82650235D01*
X135232647Y-82649766D01*
X134736285Y-82854858D01*
X134356193Y-83234288D01*
X134150235Y-83730290D01*
X134149766Y-84267353D01*
X133099767Y-84267353D01*
X133100234Y-83732647D01*
X132895142Y-83236285D01*
X132515712Y-82856193D01*
X132019710Y-82650235D01*
X131482647Y-82649766D01*
X130986285Y-82854858D01*
X130606193Y-83234288D01*
X130400235Y-83730290D01*
X130399766Y-84267353D01*
X129525000Y-84267353D01*
X129525000Y-81525000D01*
X154475000Y-81525000D01*
X154475000Y-94255761D01*
X154475000Y-94255761D01*
G37*
X154475000Y-94255761D02*
X149559619Y-89340381D01*
X149348745Y-89199478D01*
X149307476Y-89191269D01*
X149106937Y-89151380D01*
X149028883Y-89030081D01*
X148878505Y-88927332D01*
X148849894Y-88921538D01*
X148850130Y-88651470D01*
X148736189Y-88375714D01*
X148525395Y-88164552D01*
X148249839Y-88050131D01*
X147951470Y-88049870D01*
X147675714Y-88163811D01*
X147464552Y-88374605D01*
X147350131Y-88650161D01*
X147349895Y-88919428D01*
X147333240Y-88922562D01*
X147180081Y-89021117D01*
X147077332Y-89171495D01*
X147041184Y-89350000D01*
X147041184Y-90250000D01*
X147072562Y-90416760D01*
X147171117Y-90569919D01*
X147288304Y-90649990D01*
X147151460Y-90649870D01*
X146951664Y-90732425D01*
X146806656Y-90587417D01*
X146819919Y-90578883D01*
X146922668Y-90428505D01*
X146958816Y-90250000D01*
X146958816Y-89350000D01*
X146927438Y-89183240D01*
X146828883Y-89030081D01*
X146678505Y-88927332D01*
X146550000Y-88901309D01*
X146550000Y-87940000D01*
X146616760Y-87927438D01*
X146769919Y-87828883D01*
X146872668Y-87678505D01*
X146898691Y-87550000D01*
X147001125Y-87550000D01*
X147046117Y-87619919D01*
X147196495Y-87722668D01*
X147375000Y-87758816D01*
X148625000Y-87758816D01*
X148791760Y-87727438D01*
X148944919Y-87628883D01*
X149047668Y-87478505D01*
X149083816Y-87300000D01*
X149083816Y-86300000D01*
X149052438Y-86133240D01*
X148953883Y-85980081D01*
X148803505Y-85877332D01*
X148625000Y-85841184D01*
X147375000Y-85841184D01*
X147208240Y-85872562D01*
X147055081Y-85971117D01*
X146952332Y-86121495D01*
X146926309Y-86250000D01*
X146899408Y-86250000D01*
X146877438Y-86133240D01*
X146778883Y-85980081D01*
X146628505Y-85877332D01*
X146450000Y-85841184D01*
X145550000Y-85841184D01*
X145383240Y-85872562D01*
X145230081Y-85971117D01*
X145127332Y-86121495D01*
X145091184Y-86300000D01*
X145091184Y-87500000D01*
X145122562Y-87666760D01*
X145221117Y-87819919D01*
X145250000Y-87839654D01*
X145250000Y-88900592D01*
X145133240Y-88922562D01*
X144980081Y-89021117D01*
X144877332Y-89171495D01*
X144841184Y-89350000D01*
X144841184Y-90250000D01*
X144872562Y-90416760D01*
X144971117Y-90569919D01*
X145121495Y-90672668D01*
X145270455Y-90702833D01*
X145270614Y-90703632D01*
X145299478Y-90848745D01*
X145440381Y-91059619D01*
X146240381Y-91859620D01*
X146451255Y-92000522D01*
X146700000Y-92050000D01*
X146909640Y-92050000D01*
X147150151Y-92149869D01*
X147448520Y-92150130D01*
X147724276Y-92036189D01*
X147935438Y-91825395D01*
X148049859Y-91549839D01*
X148050120Y-91251470D01*
X147936179Y-90975714D01*
X147725385Y-90764552D01*
X147591158Y-90708816D01*
X148700000Y-90708816D01*
X148866760Y-90677438D01*
X148983244Y-90602482D01*
X153071945Y-94691184D01*
X151750000Y-94691184D01*
X151583240Y-94722562D01*
X151430081Y-94821117D01*
X151327332Y-94971495D01*
X151291184Y-95150000D01*
X151291184Y-95526000D01*
X151286512Y-95502512D01*
X151004708Y-95080761D01*
X150582957Y-94798957D01*
X150085469Y-94700000D01*
X150034531Y-94700000D01*
X149537043Y-94798957D01*
X149115292Y-95080761D01*
X148833488Y-95502512D01*
X148734531Y-96000000D01*
X148833488Y-96497488D01*
X149115292Y-96919239D01*
X149537043Y-97201043D01*
X149909998Y-97275229D01*
X149909998Y-97361169D01*
X149709838Y-97288034D01*
X149257386Y-97517335D01*
X148927124Y-97902328D01*
X148808046Y-98189840D01*
X148882012Y-98390000D01*
X149910000Y-98390000D01*
X149910000Y-98370000D01*
X150210000Y-98370000D01*
X150210000Y-98390000D01*
X150230000Y-98390000D01*
X150230000Y-98690000D01*
X150210000Y-98690000D01*
X150210000Y-99718830D01*
X150410162Y-99791966D01*
X150862614Y-99562665D01*
X151192876Y-99177672D01*
X151311954Y-98890160D01*
X151237989Y-98690002D01*
X151304368Y-98690002D01*
X151373488Y-99037488D01*
X151655292Y-99459239D01*
X152077043Y-99741043D01*
X152574531Y-99840000D01*
X152625469Y-99840000D01*
X153122957Y-99741043D01*
X153544708Y-99459239D01*
X153826512Y-99037488D01*
X153925469Y-98540000D01*
X153858071Y-98201168D01*
X154475000Y-97584239D01*
X154475000Y-100475000D01*
X141997898Y-100475000D01*
X142049869Y-100349839D01*
X142050130Y-100051470D01*
X141936189Y-99775714D01*
X141725395Y-99564552D01*
X141449839Y-99450131D01*
X141151470Y-99449870D01*
X140909139Y-99550000D01*
X138219238Y-99550000D01*
X137559398Y-98890160D01*
X148808046Y-98890160D01*
X148927124Y-99177672D01*
X149257386Y-99562665D01*
X149709838Y-99791966D01*
X149910000Y-99718830D01*
X149910000Y-98690000D01*
X148882012Y-98690000D01*
X148808046Y-98890160D01*
X137559398Y-98890160D01*
X136234948Y-97565710D01*
X136364223Y-97565823D01*
X136639979Y-97451882D01*
X136851141Y-97241088D01*
X136951693Y-96998932D01*
X136975312Y-96975313D01*
X136975314Y-96975310D01*
X137414507Y-96536118D01*
X137555409Y-96325243D01*
X137604887Y-96076499D01*
X137604887Y-94267353D01*
X137899766Y-94267353D01*
X138104858Y-94763715D01*
X138484288Y-95143807D01*
X138980290Y-95349765D01*
X139517353Y-95350234D01*
X140013715Y-95145142D01*
X140393807Y-94765712D01*
X140599765Y-94269710D01*
X140600234Y-93732647D01*
X140395142Y-93236285D01*
X140015712Y-92856193D01*
X139519710Y-92650235D01*
X138982647Y-92649766D01*
X138486285Y-92854858D01*
X138106193Y-93234288D01*
X137900235Y-93730290D01*
X137899766Y-94267353D01*
X137604887Y-94267353D01*
X137604887Y-90454887D01*
X137555409Y-90206143D01*
X137555409Y-90206142D01*
X137414506Y-89995268D01*
X136802581Y-89383343D01*
X136849765Y-89269710D01*
X136850234Y-88732647D01*
X136645142Y-88236285D01*
X136265712Y-87856193D01*
X135769710Y-87650235D01*
X135232647Y-87649766D01*
X134736285Y-87854858D01*
X134356193Y-88234288D01*
X134150235Y-88730290D01*
X134149766Y-89267353D01*
X134354858Y-89763715D01*
X134734288Y-90143807D01*
X135230290Y-90349765D01*
X135767353Y-90350234D01*
X135883150Y-90302388D01*
X136304887Y-90724125D01*
X136304887Y-92895436D01*
X136265712Y-92856193D01*
X135769710Y-92650235D01*
X135232647Y-92649766D01*
X134736285Y-92854858D01*
X134356193Y-93234288D01*
X134150235Y-93730290D01*
X134149766Y-94267353D01*
X134354858Y-94763715D01*
X134734288Y-95143807D01*
X135230290Y-95349765D01*
X135767353Y-95350234D01*
X136263715Y-95145142D01*
X136304887Y-95104042D01*
X136304887Y-95807260D01*
X136056076Y-96056072D01*
X136056073Y-96056074D01*
X136032094Y-96080054D01*
X135791407Y-96179504D01*
X135580245Y-96390298D01*
X135465824Y-96665854D01*
X135465710Y-96796472D01*
X133052581Y-94383343D01*
X133099765Y-94269710D01*
X133100234Y-93732647D01*
X132895142Y-93236285D01*
X132515712Y-92856193D01*
X132019710Y-92650235D01*
X131482647Y-92649766D01*
X130986285Y-92854858D01*
X130606193Y-93234288D01*
X130400235Y-93730290D01*
X130399766Y-94267353D01*
X130604858Y-94763715D01*
X130984288Y-95143807D01*
X131480290Y-95349765D01*
X132017353Y-95350234D01*
X132133150Y-95302388D01*
X137305762Y-100475000D01*
X129525000Y-100475000D01*
X129525000Y-89267353D01*
X130399766Y-89267353D01*
X130604858Y-89763715D01*
X130984288Y-90143807D01*
X131480290Y-90349765D01*
X132017353Y-90350234D01*
X132513715Y-90145142D01*
X132893807Y-89765712D01*
X133099765Y-89269710D01*
X133100234Y-88732647D01*
X132895142Y-88236285D01*
X132515712Y-87856193D01*
X132019710Y-87650235D01*
X131482647Y-87649766D01*
X130986285Y-87854858D01*
X130606193Y-88234288D01*
X130400235Y-88730290D01*
X130399766Y-89267353D01*
X129525000Y-89267353D01*
X129525000Y-84267353D01*
X130399766Y-84267353D01*
X130604858Y-84763715D01*
X130984288Y-85143807D01*
X131480290Y-85349765D01*
X132017353Y-85350234D01*
X132513715Y-85145142D01*
X132893807Y-84765712D01*
X133099765Y-84269710D01*
X133099767Y-84267353D01*
X134149766Y-84267353D01*
X134354858Y-84763715D01*
X134734288Y-85143807D01*
X135230290Y-85349765D01*
X135767353Y-85350234D01*
X136263715Y-85145142D01*
X136643807Y-84765712D01*
X136849765Y-84269710D01*
X136849767Y-84267353D01*
X137899766Y-84267353D01*
X138104858Y-84763715D01*
X138484288Y-85143807D01*
X138600000Y-85191855D01*
X138600000Y-87807872D01*
X138486285Y-87854858D01*
X138106193Y-88234288D01*
X137900235Y-88730290D01*
X137899766Y-89267353D01*
X138104858Y-89763715D01*
X138484288Y-90143807D01*
X138980290Y-90349765D01*
X139517353Y-90350234D01*
X139633150Y-90302388D01*
X140650000Y-91319239D01*
X140650000Y-97609650D01*
X140550131Y-97850161D01*
X140549870Y-98148530D01*
X140663811Y-98424286D01*
X140874605Y-98635448D01*
X141150161Y-98749869D01*
X141448530Y-98750130D01*
X141724286Y-98636189D01*
X141935448Y-98425395D01*
X142049869Y-98149839D01*
X142050130Y-97851470D01*
X141950000Y-97609139D01*
X141950000Y-91050000D01*
X141900522Y-90801256D01*
X141866274Y-90750000D01*
X141759620Y-90590381D01*
X140552581Y-89383342D01*
X140599765Y-89269710D01*
X140600234Y-88732647D01*
X140395142Y-88236285D01*
X140015712Y-87856193D01*
X139900000Y-87808145D01*
X139900000Y-85192128D01*
X140013715Y-85145142D01*
X140196675Y-84962500D01*
X145100000Y-84962500D01*
X145100000Y-85389511D01*
X145168509Y-85554905D01*
X145295096Y-85681492D01*
X145460490Y-85750000D01*
X145737500Y-85750000D01*
X145850000Y-85637500D01*
X145850000Y-84850000D01*
X146150000Y-84850000D01*
X146150000Y-85637500D01*
X146262500Y-85750000D01*
X146539510Y-85750000D01*
X146704904Y-85681492D01*
X146831491Y-85554905D01*
X146900000Y-85389511D01*
X146900000Y-85062500D01*
X146925000Y-85062500D01*
X146925000Y-85389511D01*
X146993509Y-85554905D01*
X147120096Y-85681492D01*
X147285490Y-85750000D01*
X147737500Y-85750000D01*
X147850000Y-85637500D01*
X147850000Y-84950000D01*
X148150000Y-84950000D01*
X148150000Y-85637500D01*
X148262500Y-85750000D01*
X148714510Y-85750000D01*
X148879904Y-85681492D01*
X149006491Y-85554905D01*
X149075000Y-85389511D01*
X149075000Y-85062500D01*
X148962500Y-84950000D01*
X148150000Y-84950000D01*
X147850000Y-84950000D01*
X147037500Y-84950000D01*
X146925000Y-85062500D01*
X146900000Y-85062500D01*
X146900000Y-84962500D01*
X146787500Y-84850000D01*
X146150000Y-84850000D01*
X145850000Y-84850000D01*
X145212500Y-84850000D01*
X145100000Y-84962500D01*
X140196675Y-84962500D01*
X140393807Y-84765712D01*
X140599765Y-84269710D01*
X140599991Y-84010489D01*
X145100000Y-84010489D01*
X145100000Y-84437500D01*
X145212500Y-84550000D01*
X145850000Y-84550000D01*
X145850000Y-83762500D01*
X146150000Y-83762500D01*
X146150000Y-84550000D01*
X146787500Y-84550000D01*
X146900000Y-84437500D01*
X146900000Y-84210489D01*
X146925000Y-84210489D01*
X146925000Y-84537500D01*
X147037500Y-84650000D01*
X147850000Y-84650000D01*
X147850000Y-83962500D01*
X148150000Y-83962500D01*
X148150000Y-84650000D01*
X148962500Y-84650000D01*
X149075000Y-84537500D01*
X149075000Y-84210489D01*
X149006491Y-84045095D01*
X148879904Y-83918508D01*
X148714510Y-83850000D01*
X148262500Y-83850000D01*
X148150000Y-83962500D01*
X147850000Y-83962500D01*
X147737500Y-83850000D01*
X147285490Y-83850000D01*
X147120096Y-83918508D01*
X146993509Y-84045095D01*
X146925000Y-84210489D01*
X146900000Y-84210489D01*
X146900000Y-84010489D01*
X146831491Y-83845095D01*
X146704904Y-83718508D01*
X146539510Y-83650000D01*
X146262500Y-83650000D01*
X146150000Y-83762500D01*
X145850000Y-83762500D01*
X145737500Y-83650000D01*
X145460490Y-83650000D01*
X145295096Y-83718508D01*
X145168509Y-83845095D01*
X145100000Y-84010489D01*
X140599991Y-84010489D01*
X140600234Y-83732647D01*
X140395142Y-83236285D01*
X140015712Y-82856193D01*
X139519710Y-82650235D01*
X138982647Y-82649766D01*
X138486285Y-82854858D01*
X138106193Y-83234288D01*
X137900235Y-83730290D01*
X137899766Y-84267353D01*
X136849767Y-84267353D01*
X136850234Y-83732647D01*
X136645142Y-83236285D01*
X136265712Y-82856193D01*
X135769710Y-82650235D01*
X135232647Y-82649766D01*
X134736285Y-82854858D01*
X134356193Y-83234288D01*
X134150235Y-83730290D01*
X134149766Y-84267353D01*
X133099767Y-84267353D01*
X133100234Y-83732647D01*
X132895142Y-83236285D01*
X132515712Y-82856193D01*
X132019710Y-82650235D01*
X131482647Y-82649766D01*
X130986285Y-82854858D01*
X130606193Y-83234288D01*
X130400235Y-83730290D01*
X130399766Y-84267353D01*
X129525000Y-84267353D01*
X129525000Y-81525000D01*
X154475000Y-81525000D01*
X154475000Y-94255761D01*
M02*
