G04 #@! TF.FileFunction,Copper,L2,Bot,Signal*
%FSLAX46Y46*%
G04 Gerber Fmt 4.6, Leading zero omitted, Abs format (unit mm)*
G04 Created by KiCad (PCBNEW 4.0.4-1.fc24-product) date Tue Jun 12 13:21:53 2018*
%MOMM*%
%LPD*%
G01*
G04 APERTURE LIST*
%ADD10C,0.100000*%
%ADD11R,1.250000X1.000000*%
%ADD12R,1.200000X0.900000*%
%ADD13R,0.900000X1.200000*%
%ADD14R,1.700000X1.700000*%
%ADD15O,1.700000X1.700000*%
%ADD16C,1.800000*%
%ADD17C,0.600000*%
%ADD18C,0.400000*%
%ADD19C,0.250000*%
G04 APERTURE END LIST*
D10*
D11*
X148000000Y-86800000D03*
X148000000Y-84800000D03*
D12*
X148100000Y-89800000D03*
X145900000Y-89800000D03*
D13*
X146000000Y-86900000D03*
X146000000Y-84700000D03*
D14*
X152600000Y-96000000D03*
D15*
X150060000Y-96000000D03*
X152600000Y-98540000D03*
X150060000Y-98540000D03*
D16*
X139250000Y-84000000D03*
X135500000Y-84000000D03*
X131750000Y-84000000D03*
X139250000Y-89000000D03*
X135500000Y-89000000D03*
X131750000Y-89000000D03*
X131750000Y-94000000D03*
X135500000Y-94000000D03*
X139250000Y-94000000D03*
D17*
X147299990Y-91400000D03*
X141300000Y-100200000D03*
X136215693Y-96815693D03*
X141300000Y-98000000D03*
X143000000Y-92100002D03*
X153500000Y-83100000D03*
X148100000Y-88800000D03*
D18*
X145900000Y-89800000D02*
X145900000Y-90600000D01*
X145900000Y-90600000D02*
X146700000Y-91400000D01*
X146700000Y-91400000D02*
X147299990Y-91400000D01*
X145900000Y-89800000D02*
X145900000Y-87000000D01*
X145900000Y-87000000D02*
X146000000Y-86900000D01*
X146000000Y-86900000D02*
X147900000Y-86900000D01*
X147900000Y-86900000D02*
X148000000Y-86800000D01*
X131750000Y-94000000D02*
X137950000Y-100200000D01*
X137950000Y-100200000D02*
X140875736Y-100200000D01*
X140875736Y-100200000D02*
X141300000Y-100200000D01*
X136954887Y-90454887D02*
X136954887Y-96076499D01*
X135500000Y-89000000D02*
X136954887Y-90454887D01*
X136515692Y-96515694D02*
X136215693Y-96815693D01*
X136954887Y-96076499D02*
X136515692Y-96515694D01*
X141300000Y-91050000D02*
X141300000Y-97575736D01*
X139250000Y-89000000D02*
X141300000Y-91050000D01*
X141300000Y-97575736D02*
X141300000Y-98000000D01*
X139250000Y-84000000D02*
X139250000Y-85272792D01*
X139250000Y-85272792D02*
X139250000Y-89000000D01*
X154200000Y-96940000D02*
X154200000Y-94900000D01*
X154200000Y-94900000D02*
X149100000Y-89800000D01*
X149100000Y-89800000D02*
X148100000Y-89800000D01*
X152600000Y-98540000D02*
X154200000Y-96940000D01*
X148100000Y-89800000D02*
X148100000Y-88800000D01*
D19*
G36*
X154550000Y-94366116D02*
X149541942Y-89358058D01*
X149497312Y-89321399D01*
X149453104Y-89284304D01*
X149450225Y-89282721D01*
X149447685Y-89280635D01*
X149396853Y-89253379D01*
X149346214Y-89225540D01*
X149343076Y-89224544D01*
X149340184Y-89222994D01*
X149284990Y-89206119D01*
X149229945Y-89188658D01*
X149226683Y-89188292D01*
X149223536Y-89187330D01*
X149166063Y-89181492D01*
X149108726Y-89175061D01*
X149102301Y-89175016D01*
X149102182Y-89175004D01*
X149102071Y-89175014D01*
X149100000Y-89175000D01*
X149088424Y-89175000D01*
X149086110Y-89167528D01*
X149019988Y-89067185D01*
X148928529Y-88989235D01*
X148818975Y-88939852D01*
X148811960Y-88938855D01*
X148822763Y-88891306D01*
X148825031Y-88728910D01*
X148797415Y-88589438D01*
X148743234Y-88457986D01*
X148664553Y-88339562D01*
X148564368Y-88238675D01*
X148446496Y-88159169D01*
X148315426Y-88104072D01*
X148176150Y-88075483D01*
X148033973Y-88074490D01*
X147894312Y-88101132D01*
X147762485Y-88154394D01*
X147643514Y-88232246D01*
X147541930Y-88331724D01*
X147461604Y-88449039D01*
X147405593Y-88579721D01*
X147376032Y-88718794D01*
X147374047Y-88860960D01*
X147388882Y-88941793D01*
X147317528Y-88963890D01*
X147217185Y-89030012D01*
X147139235Y-89121471D01*
X147089852Y-89231025D01*
X147072944Y-89350000D01*
X147072944Y-90250000D01*
X147078341Y-90317680D01*
X147113890Y-90432472D01*
X147180012Y-90532815D01*
X147271471Y-90610765D01*
X147381025Y-90660148D01*
X147500000Y-90677056D01*
X148700000Y-90677056D01*
X148767680Y-90671659D01*
X148882472Y-90636110D01*
X148982815Y-90569988D01*
X148984328Y-90568212D01*
X153139060Y-94722944D01*
X151750000Y-94722944D01*
X151682320Y-94728341D01*
X151567528Y-94763890D01*
X151467185Y-94830012D01*
X151389235Y-94921471D01*
X151339852Y-95031025D01*
X151322944Y-95150000D01*
X151322944Y-95808986D01*
X151318585Y-95761089D01*
X151248328Y-95522377D01*
X151133043Y-95301857D01*
X150977122Y-95107929D01*
X150786502Y-94947980D01*
X150568445Y-94828102D01*
X150331256Y-94752862D01*
X150083971Y-94725124D01*
X150066169Y-94725000D01*
X150053831Y-94725000D01*
X149806182Y-94749282D01*
X149567966Y-94821204D01*
X149348257Y-94938025D01*
X149155422Y-95095297D01*
X148996808Y-95287029D01*
X148878455Y-95505918D01*
X148804873Y-95743626D01*
X148778862Y-95991099D01*
X148801415Y-96238911D01*
X148871672Y-96477623D01*
X148986957Y-96698143D01*
X149142878Y-96892071D01*
X149333498Y-97052020D01*
X149551555Y-97171898D01*
X149788744Y-97247138D01*
X150036029Y-97274876D01*
X150053831Y-97275000D01*
X150066169Y-97275000D01*
X150313818Y-97250718D01*
X150552034Y-97178796D01*
X150771743Y-97061975D01*
X150964578Y-96904703D01*
X151123192Y-96712971D01*
X151241545Y-96494082D01*
X151315127Y-96256374D01*
X151322944Y-96182002D01*
X151322944Y-96850000D01*
X151328341Y-96917680D01*
X151363890Y-97032472D01*
X151430012Y-97132815D01*
X151521471Y-97210765D01*
X151631025Y-97260148D01*
X151750000Y-97277056D01*
X152470873Y-97277056D01*
X152346182Y-97289282D01*
X152107966Y-97361204D01*
X151888257Y-97478025D01*
X151695422Y-97635297D01*
X151536808Y-97827029D01*
X151418455Y-98045918D01*
X151344873Y-98283626D01*
X151318862Y-98531099D01*
X151341415Y-98778911D01*
X151411672Y-99017623D01*
X151526957Y-99238143D01*
X151682878Y-99432071D01*
X151873498Y-99592020D01*
X152091555Y-99711898D01*
X152328744Y-99787138D01*
X152576029Y-99814876D01*
X152593831Y-99815000D01*
X152606169Y-99815000D01*
X152853818Y-99790718D01*
X153092034Y-99718796D01*
X153311743Y-99601975D01*
X153504578Y-99444703D01*
X153663192Y-99252971D01*
X153781545Y-99034082D01*
X153855127Y-98796374D01*
X153881138Y-98548901D01*
X153858585Y-98301089D01*
X153827707Y-98196177D01*
X154550000Y-97473884D01*
X154550000Y-100550000D01*
X141937816Y-100550000D01*
X141991264Y-100429953D01*
X142022763Y-100291306D01*
X142025031Y-100128910D01*
X141997415Y-99989438D01*
X141943234Y-99857986D01*
X141864553Y-99739562D01*
X141764368Y-99638675D01*
X141646496Y-99559169D01*
X141515426Y-99504072D01*
X141376150Y-99475483D01*
X141233973Y-99474490D01*
X141094312Y-99501132D01*
X140962485Y-99554394D01*
X140930996Y-99575000D01*
X138208884Y-99575000D01*
X137536396Y-98902512D01*
X148889867Y-98902512D01*
X148976250Y-99111079D01*
X149108486Y-99311535D01*
X149277288Y-99482341D01*
X149476169Y-99616934D01*
X149697487Y-99710141D01*
X149885000Y-99658694D01*
X149885000Y-98715000D01*
X150235000Y-98715000D01*
X150235000Y-99658694D01*
X150422513Y-99710141D01*
X150643831Y-99616934D01*
X150842712Y-99482341D01*
X151011514Y-99311535D01*
X151143750Y-99111079D01*
X151230133Y-98902512D01*
X151177632Y-98715000D01*
X150235000Y-98715000D01*
X149885000Y-98715000D01*
X148942368Y-98715000D01*
X148889867Y-98902512D01*
X137536396Y-98902512D01*
X136173891Y-97540007D01*
X136271583Y-97542054D01*
X136411603Y-97517365D01*
X136544161Y-97465949D01*
X136664207Y-97389765D01*
X136767170Y-97291715D01*
X136849127Y-97175534D01*
X136906957Y-97045646D01*
X136917932Y-96997337D01*
X136957563Y-96957706D01*
X136957634Y-96957636D01*
X137396829Y-96518440D01*
X137433467Y-96473836D01*
X137470583Y-96429603D01*
X137472166Y-96426723D01*
X137474252Y-96424184D01*
X137501527Y-96373317D01*
X137529347Y-96322713D01*
X137530341Y-96319579D01*
X137531894Y-96316683D01*
X137548779Y-96261455D01*
X137566229Y-96206444D01*
X137566595Y-96203180D01*
X137567557Y-96200034D01*
X137573394Y-96142568D01*
X137579826Y-96085225D01*
X137579871Y-96078800D01*
X137579883Y-96078681D01*
X137579873Y-96078570D01*
X137579887Y-96076499D01*
X137579887Y-94111410D01*
X137923258Y-94111410D01*
X137970166Y-94366987D01*
X138065821Y-94608585D01*
X138206582Y-94827003D01*
X138387086Y-95013920D01*
X138600458Y-95162218D01*
X138838571Y-95266247D01*
X139092356Y-95322045D01*
X139352145Y-95327487D01*
X139608043Y-95282365D01*
X139850303Y-95188399D01*
X140069698Y-95049166D01*
X140257872Y-94869971D01*
X140407655Y-94657640D01*
X140513344Y-94420259D01*
X140570912Y-94166870D01*
X140575057Y-93870077D01*
X140524586Y-93615180D01*
X140425566Y-93374940D01*
X140281770Y-93158509D01*
X140098673Y-92974130D01*
X139883251Y-92828826D01*
X139643709Y-92728132D01*
X139389170Y-92675883D01*
X139129331Y-92674069D01*
X138874087Y-92722759D01*
X138633163Y-92820099D01*
X138415733Y-92962381D01*
X138230080Y-93144186D01*
X138083276Y-93358588D01*
X137980911Y-93597421D01*
X137926886Y-93851589D01*
X137923258Y-94111410D01*
X137579887Y-94111410D01*
X137579887Y-90454887D01*
X137574252Y-90397419D01*
X137569221Y-90339917D01*
X137568305Y-90336764D01*
X137567984Y-90333491D01*
X137551302Y-90278237D01*
X137535191Y-90222782D01*
X137533677Y-90219861D01*
X137532728Y-90216718D01*
X137505624Y-90165743D01*
X137479056Y-90114488D01*
X137477008Y-90111922D01*
X137475463Y-90109017D01*
X137438947Y-90064245D01*
X137402956Y-90019159D01*
X137398444Y-90014583D01*
X137398369Y-90014491D01*
X137398284Y-90014421D01*
X137396829Y-90012945D01*
X136770897Y-89387013D01*
X136820912Y-89166870D01*
X136825057Y-88870077D01*
X136774586Y-88615180D01*
X136675566Y-88374940D01*
X136531770Y-88158509D01*
X136348673Y-87974130D01*
X136133251Y-87828826D01*
X135893709Y-87728132D01*
X135639170Y-87675883D01*
X135379331Y-87674069D01*
X135124087Y-87722759D01*
X134883163Y-87820099D01*
X134665733Y-87962381D01*
X134480080Y-88144186D01*
X134333276Y-88358588D01*
X134230911Y-88597421D01*
X134176886Y-88851589D01*
X134173258Y-89111410D01*
X134220166Y-89366987D01*
X134315821Y-89608585D01*
X134456582Y-89827003D01*
X134637086Y-90013920D01*
X134850458Y-90162218D01*
X135088571Y-90266247D01*
X135342356Y-90322045D01*
X135602145Y-90327487D01*
X135858043Y-90282365D01*
X135887180Y-90271064D01*
X136329887Y-90713771D01*
X136329887Y-92961459D01*
X136133251Y-92828826D01*
X135893709Y-92728132D01*
X135639170Y-92675883D01*
X135379331Y-92674069D01*
X135124087Y-92722759D01*
X134883163Y-92820099D01*
X134665733Y-92962381D01*
X134480080Y-93144186D01*
X134333276Y-93358588D01*
X134230911Y-93597421D01*
X134176886Y-93851589D01*
X134173258Y-94111410D01*
X134220166Y-94366987D01*
X134315821Y-94608585D01*
X134456582Y-94827003D01*
X134637086Y-95013920D01*
X134850458Y-95162218D01*
X135088571Y-95266247D01*
X135342356Y-95322045D01*
X135602145Y-95327487D01*
X135858043Y-95282365D01*
X136100303Y-95188399D01*
X136319698Y-95049166D01*
X136329887Y-95039463D01*
X136329887Y-95817616D01*
X136073750Y-96073752D01*
X136073745Y-96073758D01*
X136035551Y-96111952D01*
X136010005Y-96116825D01*
X135878178Y-96170087D01*
X135759207Y-96247939D01*
X135657623Y-96347417D01*
X135577297Y-96464732D01*
X135521286Y-96595414D01*
X135491725Y-96734487D01*
X135490026Y-96856142D01*
X133020897Y-94387013D01*
X133070912Y-94166870D01*
X133075057Y-93870077D01*
X133024586Y-93615180D01*
X132925566Y-93374940D01*
X132781770Y-93158509D01*
X132598673Y-92974130D01*
X132383251Y-92828826D01*
X132143709Y-92728132D01*
X131889170Y-92675883D01*
X131629331Y-92674069D01*
X131374087Y-92722759D01*
X131133163Y-92820099D01*
X130915733Y-92962381D01*
X130730080Y-93144186D01*
X130583276Y-93358588D01*
X130480911Y-93597421D01*
X130426886Y-93851589D01*
X130423258Y-94111410D01*
X130470166Y-94366987D01*
X130565821Y-94608585D01*
X130706582Y-94827003D01*
X130887086Y-95013920D01*
X131100458Y-95162218D01*
X131338571Y-95266247D01*
X131592356Y-95322045D01*
X131852145Y-95327487D01*
X132108043Y-95282365D01*
X132137180Y-95271064D01*
X137416116Y-100550000D01*
X129450000Y-100550000D01*
X129450000Y-89111410D01*
X130423258Y-89111410D01*
X130470166Y-89366987D01*
X130565821Y-89608585D01*
X130706582Y-89827003D01*
X130887086Y-90013920D01*
X131100458Y-90162218D01*
X131338571Y-90266247D01*
X131592356Y-90322045D01*
X131852145Y-90327487D01*
X132108043Y-90282365D01*
X132350303Y-90188399D01*
X132569698Y-90049166D01*
X132757872Y-89869971D01*
X132907655Y-89657640D01*
X133013344Y-89420259D01*
X133070912Y-89166870D01*
X133075057Y-88870077D01*
X133024586Y-88615180D01*
X132925566Y-88374940D01*
X132781770Y-88158509D01*
X132598673Y-87974130D01*
X132383251Y-87828826D01*
X132143709Y-87728132D01*
X131889170Y-87675883D01*
X131629331Y-87674069D01*
X131374087Y-87722759D01*
X131133163Y-87820099D01*
X130915733Y-87962381D01*
X130730080Y-88144186D01*
X130583276Y-88358588D01*
X130480911Y-88597421D01*
X130426886Y-88851589D01*
X130423258Y-89111410D01*
X129450000Y-89111410D01*
X129450000Y-84111410D01*
X130423258Y-84111410D01*
X130470166Y-84366987D01*
X130565821Y-84608585D01*
X130706582Y-84827003D01*
X130887086Y-85013920D01*
X131100458Y-85162218D01*
X131338571Y-85266247D01*
X131592356Y-85322045D01*
X131852145Y-85327487D01*
X132108043Y-85282365D01*
X132350303Y-85188399D01*
X132569698Y-85049166D01*
X132757872Y-84869971D01*
X132907655Y-84657640D01*
X133013344Y-84420259D01*
X133070912Y-84166870D01*
X133071686Y-84111410D01*
X134173258Y-84111410D01*
X134220166Y-84366987D01*
X134315821Y-84608585D01*
X134456582Y-84827003D01*
X134637086Y-85013920D01*
X134850458Y-85162218D01*
X135088571Y-85266247D01*
X135342356Y-85322045D01*
X135602145Y-85327487D01*
X135858043Y-85282365D01*
X136100303Y-85188399D01*
X136319698Y-85049166D01*
X136507872Y-84869971D01*
X136657655Y-84657640D01*
X136763344Y-84420259D01*
X136820912Y-84166870D01*
X136821686Y-84111410D01*
X137923258Y-84111410D01*
X137970166Y-84366987D01*
X138065821Y-84608585D01*
X138206582Y-84827003D01*
X138387086Y-85013920D01*
X138600458Y-85162218D01*
X138625000Y-85172940D01*
X138625000Y-87825441D01*
X138415733Y-87962381D01*
X138230080Y-88144186D01*
X138083276Y-88358588D01*
X137980911Y-88597421D01*
X137926886Y-88851589D01*
X137923258Y-89111410D01*
X137970166Y-89366987D01*
X138065821Y-89608585D01*
X138206582Y-89827003D01*
X138387086Y-90013920D01*
X138600458Y-90162218D01*
X138838571Y-90266247D01*
X139092356Y-90322045D01*
X139352145Y-90327487D01*
X139608043Y-90282365D01*
X139637180Y-90271064D01*
X140675000Y-91308884D01*
X140675000Y-97629474D01*
X140661604Y-97649039D01*
X140605593Y-97779721D01*
X140576032Y-97918794D01*
X140574047Y-98060960D01*
X140599713Y-98200804D01*
X140652053Y-98332999D01*
X140729073Y-98452511D01*
X140827839Y-98554787D01*
X140944590Y-98635931D01*
X141074879Y-98692852D01*
X141213742Y-98723383D01*
X141355890Y-98726361D01*
X141495910Y-98701672D01*
X141628468Y-98650256D01*
X141748514Y-98574072D01*
X141851477Y-98476022D01*
X141933434Y-98359841D01*
X141991264Y-98229953D01*
X142003183Y-98177488D01*
X148889867Y-98177488D01*
X148942368Y-98365000D01*
X149885000Y-98365000D01*
X149885000Y-97421306D01*
X150235000Y-97421306D01*
X150235000Y-98365000D01*
X151177632Y-98365000D01*
X151230133Y-98177488D01*
X151143750Y-97968921D01*
X151011514Y-97768465D01*
X150842712Y-97597659D01*
X150643831Y-97463066D01*
X150422513Y-97369859D01*
X150235000Y-97421306D01*
X149885000Y-97421306D01*
X149697487Y-97369859D01*
X149476169Y-97463066D01*
X149277288Y-97597659D01*
X149108486Y-97768465D01*
X148976250Y-97968921D01*
X148889867Y-98177488D01*
X142003183Y-98177488D01*
X142022763Y-98091306D01*
X142025031Y-97928910D01*
X141997415Y-97789438D01*
X141943234Y-97657986D01*
X141925000Y-97630542D01*
X141925000Y-91050000D01*
X141919370Y-90992581D01*
X141914335Y-90935030D01*
X141913417Y-90931872D01*
X141913097Y-90928604D01*
X141896427Y-90873391D01*
X141880304Y-90817895D01*
X141878790Y-90814974D01*
X141877841Y-90811831D01*
X141850737Y-90760856D01*
X141824169Y-90709601D01*
X141822121Y-90707035D01*
X141820576Y-90704130D01*
X141784060Y-90659358D01*
X141748069Y-90614272D01*
X141743557Y-90609696D01*
X141743482Y-90609604D01*
X141743397Y-90609534D01*
X141741942Y-90608058D01*
X140520897Y-89387013D01*
X140529306Y-89350000D01*
X144872944Y-89350000D01*
X144872944Y-90250000D01*
X144878341Y-90317680D01*
X144913890Y-90432472D01*
X144980012Y-90532815D01*
X145071471Y-90610765D01*
X145181025Y-90660148D01*
X145282126Y-90674516D01*
X145285666Y-90714970D01*
X145286582Y-90718123D01*
X145286903Y-90721396D01*
X145303585Y-90776650D01*
X145319696Y-90832105D01*
X145321210Y-90835026D01*
X145322159Y-90838169D01*
X145349263Y-90889144D01*
X145375831Y-90940399D01*
X145377879Y-90942965D01*
X145379424Y-90945870D01*
X145415940Y-90990642D01*
X145451931Y-91035728D01*
X145456443Y-91040304D01*
X145456518Y-91040396D01*
X145456603Y-91040466D01*
X145458058Y-91041942D01*
X146258058Y-91841942D01*
X146302688Y-91878601D01*
X146346896Y-91915696D01*
X146349775Y-91917279D01*
X146352315Y-91919365D01*
X146403147Y-91946621D01*
X146453786Y-91974460D01*
X146456924Y-91975456D01*
X146459816Y-91977006D01*
X146515010Y-91993881D01*
X146570055Y-92011342D01*
X146573317Y-92011708D01*
X146576464Y-92012670D01*
X146633937Y-92018508D01*
X146691274Y-92024939D01*
X146697699Y-92024984D01*
X146697818Y-92024996D01*
X146697929Y-92024986D01*
X146700000Y-92025000D01*
X146928852Y-92025000D01*
X146944580Y-92035931D01*
X147074869Y-92092852D01*
X147213732Y-92123383D01*
X147355880Y-92126361D01*
X147495900Y-92101672D01*
X147628458Y-92050256D01*
X147748504Y-91974072D01*
X147851467Y-91876022D01*
X147933424Y-91759841D01*
X147991254Y-91629953D01*
X148022753Y-91491306D01*
X148025021Y-91328910D01*
X147997405Y-91189438D01*
X147943224Y-91057986D01*
X147864543Y-90939562D01*
X147764358Y-90838675D01*
X147646486Y-90759169D01*
X147515416Y-90704072D01*
X147376140Y-90675483D01*
X147233963Y-90674490D01*
X147094302Y-90701132D01*
X146962475Y-90754394D01*
X146947849Y-90763965D01*
X146765369Y-90581485D01*
X146782815Y-90569988D01*
X146860765Y-90478529D01*
X146910148Y-90368975D01*
X146927056Y-90250000D01*
X146927056Y-89350000D01*
X146921659Y-89282320D01*
X146886110Y-89167528D01*
X146819988Y-89067185D01*
X146728529Y-88989235D01*
X146618975Y-88939852D01*
X146525000Y-88926497D01*
X146525000Y-87919392D01*
X146632472Y-87886110D01*
X146732815Y-87819988D01*
X146810765Y-87728529D01*
X146860148Y-87618975D01*
X146873503Y-87525000D01*
X147016914Y-87525000D01*
X147055012Y-87582815D01*
X147146471Y-87660765D01*
X147256025Y-87710148D01*
X147375000Y-87727056D01*
X148625000Y-87727056D01*
X148692680Y-87721659D01*
X148807472Y-87686110D01*
X148907815Y-87619988D01*
X148985765Y-87528529D01*
X149035148Y-87418975D01*
X149052056Y-87300000D01*
X149052056Y-86300000D01*
X149046659Y-86232320D01*
X149011110Y-86117528D01*
X148944988Y-86017185D01*
X148853529Y-85939235D01*
X148743975Y-85889852D01*
X148625000Y-85872944D01*
X147375000Y-85872944D01*
X147307320Y-85878341D01*
X147192528Y-85913890D01*
X147092185Y-85980012D01*
X147014235Y-86071471D01*
X146964852Y-86181025D01*
X146951497Y-86275000D01*
X146875062Y-86275000D01*
X146871659Y-86232320D01*
X146836110Y-86117528D01*
X146769988Y-86017185D01*
X146678529Y-85939235D01*
X146568975Y-85889852D01*
X146450000Y-85872944D01*
X145550000Y-85872944D01*
X145482320Y-85878341D01*
X145367528Y-85913890D01*
X145267185Y-85980012D01*
X145189235Y-86071471D01*
X145139852Y-86181025D01*
X145122944Y-86300000D01*
X145122944Y-87500000D01*
X145128341Y-87567680D01*
X145163890Y-87682472D01*
X145230012Y-87782815D01*
X145275000Y-87821158D01*
X145275000Y-88924938D01*
X145232320Y-88928341D01*
X145117528Y-88963890D01*
X145017185Y-89030012D01*
X144939235Y-89121471D01*
X144889852Y-89231025D01*
X144872944Y-89350000D01*
X140529306Y-89350000D01*
X140570912Y-89166870D01*
X140575057Y-88870077D01*
X140524586Y-88615180D01*
X140425566Y-88374940D01*
X140281770Y-88158509D01*
X140098673Y-87974130D01*
X139883251Y-87828826D01*
X139875000Y-87825358D01*
X139875000Y-85172726D01*
X140069698Y-85049166D01*
X140154143Y-84968750D01*
X145175000Y-84968750D01*
X145175000Y-85336934D01*
X145189411Y-85409383D01*
X145217679Y-85477629D01*
X145258718Y-85539048D01*
X145310951Y-85591281D01*
X145372371Y-85632321D01*
X145440616Y-85660589D01*
X145513065Y-85675000D01*
X145731250Y-85675000D01*
X145825000Y-85581250D01*
X145825000Y-84875000D01*
X146175000Y-84875000D01*
X146175000Y-85581250D01*
X146268750Y-85675000D01*
X146486935Y-85675000D01*
X146559384Y-85660589D01*
X146627629Y-85632321D01*
X146689049Y-85591281D01*
X146741282Y-85539048D01*
X146782321Y-85477629D01*
X146810589Y-85409383D01*
X146825000Y-85336934D01*
X146825000Y-85068750D01*
X147000000Y-85068750D01*
X147000000Y-85336934D01*
X147014411Y-85409383D01*
X147042679Y-85477629D01*
X147083718Y-85539048D01*
X147135951Y-85591281D01*
X147197371Y-85632321D01*
X147265616Y-85660589D01*
X147338065Y-85675000D01*
X147731250Y-85675000D01*
X147825000Y-85581250D01*
X147825000Y-84975000D01*
X148175000Y-84975000D01*
X148175000Y-85581250D01*
X148268750Y-85675000D01*
X148661935Y-85675000D01*
X148734384Y-85660589D01*
X148802629Y-85632321D01*
X148864049Y-85591281D01*
X148916282Y-85539048D01*
X148957321Y-85477629D01*
X148985589Y-85409383D01*
X149000000Y-85336934D01*
X149000000Y-85068750D01*
X148906250Y-84975000D01*
X148175000Y-84975000D01*
X147825000Y-84975000D01*
X147093750Y-84975000D01*
X147000000Y-85068750D01*
X146825000Y-85068750D01*
X146825000Y-84968750D01*
X146731250Y-84875000D01*
X146175000Y-84875000D01*
X145825000Y-84875000D01*
X145268750Y-84875000D01*
X145175000Y-84968750D01*
X140154143Y-84968750D01*
X140257872Y-84869971D01*
X140407655Y-84657640D01*
X140513344Y-84420259D01*
X140570912Y-84166870D01*
X140572361Y-84063066D01*
X145175000Y-84063066D01*
X145175000Y-84431250D01*
X145268750Y-84525000D01*
X145825000Y-84525000D01*
X145825000Y-83818750D01*
X146175000Y-83818750D01*
X146175000Y-84525000D01*
X146731250Y-84525000D01*
X146825000Y-84431250D01*
X146825000Y-84263066D01*
X147000000Y-84263066D01*
X147000000Y-84531250D01*
X147093750Y-84625000D01*
X147825000Y-84625000D01*
X147825000Y-84018750D01*
X148175000Y-84018750D01*
X148175000Y-84625000D01*
X148906250Y-84625000D01*
X149000000Y-84531250D01*
X149000000Y-84263066D01*
X148985589Y-84190617D01*
X148957321Y-84122371D01*
X148916282Y-84060952D01*
X148864049Y-84008719D01*
X148802629Y-83967679D01*
X148734384Y-83939411D01*
X148661935Y-83925000D01*
X148268750Y-83925000D01*
X148175000Y-84018750D01*
X147825000Y-84018750D01*
X147731250Y-83925000D01*
X147338065Y-83925000D01*
X147265616Y-83939411D01*
X147197371Y-83967679D01*
X147135951Y-84008719D01*
X147083718Y-84060952D01*
X147042679Y-84122371D01*
X147014411Y-84190617D01*
X147000000Y-84263066D01*
X146825000Y-84263066D01*
X146825000Y-84063066D01*
X146810589Y-83990617D01*
X146782321Y-83922371D01*
X146741282Y-83860952D01*
X146689049Y-83808719D01*
X146627629Y-83767679D01*
X146559384Y-83739411D01*
X146486935Y-83725000D01*
X146268750Y-83725000D01*
X146175000Y-83818750D01*
X145825000Y-83818750D01*
X145731250Y-83725000D01*
X145513065Y-83725000D01*
X145440616Y-83739411D01*
X145372371Y-83767679D01*
X145310951Y-83808719D01*
X145258718Y-83860952D01*
X145217679Y-83922371D01*
X145189411Y-83990617D01*
X145175000Y-84063066D01*
X140572361Y-84063066D01*
X140575057Y-83870077D01*
X140524586Y-83615180D01*
X140425566Y-83374940D01*
X140281770Y-83158509D01*
X140098673Y-82974130D01*
X139883251Y-82828826D01*
X139643709Y-82728132D01*
X139389170Y-82675883D01*
X139129331Y-82674069D01*
X138874087Y-82722759D01*
X138633163Y-82820099D01*
X138415733Y-82962381D01*
X138230080Y-83144186D01*
X138083276Y-83358588D01*
X137980911Y-83597421D01*
X137926886Y-83851589D01*
X137923258Y-84111410D01*
X136821686Y-84111410D01*
X136825057Y-83870077D01*
X136774586Y-83615180D01*
X136675566Y-83374940D01*
X136531770Y-83158509D01*
X136348673Y-82974130D01*
X136133251Y-82828826D01*
X135893709Y-82728132D01*
X135639170Y-82675883D01*
X135379331Y-82674069D01*
X135124087Y-82722759D01*
X134883163Y-82820099D01*
X134665733Y-82962381D01*
X134480080Y-83144186D01*
X134333276Y-83358588D01*
X134230911Y-83597421D01*
X134176886Y-83851589D01*
X134173258Y-84111410D01*
X133071686Y-84111410D01*
X133075057Y-83870077D01*
X133024586Y-83615180D01*
X132925566Y-83374940D01*
X132781770Y-83158509D01*
X132598673Y-82974130D01*
X132383251Y-82828826D01*
X132143709Y-82728132D01*
X131889170Y-82675883D01*
X131629331Y-82674069D01*
X131374087Y-82722759D01*
X131133163Y-82820099D01*
X130915733Y-82962381D01*
X130730080Y-83144186D01*
X130583276Y-83358588D01*
X130480911Y-83597421D01*
X130426886Y-83851589D01*
X130423258Y-84111410D01*
X129450000Y-84111410D01*
X129450000Y-81450000D01*
X154550000Y-81450000D01*
X154550000Y-94366116D01*
X154550000Y-94366116D01*
G37*
X154550000Y-94366116D02*
X149541942Y-89358058D01*
X149497312Y-89321399D01*
X149453104Y-89284304D01*
X149450225Y-89282721D01*
X149447685Y-89280635D01*
X149396853Y-89253379D01*
X149346214Y-89225540D01*
X149343076Y-89224544D01*
X149340184Y-89222994D01*
X149284990Y-89206119D01*
X149229945Y-89188658D01*
X149226683Y-89188292D01*
X149223536Y-89187330D01*
X149166063Y-89181492D01*
X149108726Y-89175061D01*
X149102301Y-89175016D01*
X149102182Y-89175004D01*
X149102071Y-89175014D01*
X149100000Y-89175000D01*
X149088424Y-89175000D01*
X149086110Y-89167528D01*
X149019988Y-89067185D01*
X148928529Y-88989235D01*
X148818975Y-88939852D01*
X148811960Y-88938855D01*
X148822763Y-88891306D01*
X148825031Y-88728910D01*
X148797415Y-88589438D01*
X148743234Y-88457986D01*
X148664553Y-88339562D01*
X148564368Y-88238675D01*
X148446496Y-88159169D01*
X148315426Y-88104072D01*
X148176150Y-88075483D01*
X148033973Y-88074490D01*
X147894312Y-88101132D01*
X147762485Y-88154394D01*
X147643514Y-88232246D01*
X147541930Y-88331724D01*
X147461604Y-88449039D01*
X147405593Y-88579721D01*
X147376032Y-88718794D01*
X147374047Y-88860960D01*
X147388882Y-88941793D01*
X147317528Y-88963890D01*
X147217185Y-89030012D01*
X147139235Y-89121471D01*
X147089852Y-89231025D01*
X147072944Y-89350000D01*
X147072944Y-90250000D01*
X147078341Y-90317680D01*
X147113890Y-90432472D01*
X147180012Y-90532815D01*
X147271471Y-90610765D01*
X147381025Y-90660148D01*
X147500000Y-90677056D01*
X148700000Y-90677056D01*
X148767680Y-90671659D01*
X148882472Y-90636110D01*
X148982815Y-90569988D01*
X148984328Y-90568212D01*
X153139060Y-94722944D01*
X151750000Y-94722944D01*
X151682320Y-94728341D01*
X151567528Y-94763890D01*
X151467185Y-94830012D01*
X151389235Y-94921471D01*
X151339852Y-95031025D01*
X151322944Y-95150000D01*
X151322944Y-95808986D01*
X151318585Y-95761089D01*
X151248328Y-95522377D01*
X151133043Y-95301857D01*
X150977122Y-95107929D01*
X150786502Y-94947980D01*
X150568445Y-94828102D01*
X150331256Y-94752862D01*
X150083971Y-94725124D01*
X150066169Y-94725000D01*
X150053831Y-94725000D01*
X149806182Y-94749282D01*
X149567966Y-94821204D01*
X149348257Y-94938025D01*
X149155422Y-95095297D01*
X148996808Y-95287029D01*
X148878455Y-95505918D01*
X148804873Y-95743626D01*
X148778862Y-95991099D01*
X148801415Y-96238911D01*
X148871672Y-96477623D01*
X148986957Y-96698143D01*
X149142878Y-96892071D01*
X149333498Y-97052020D01*
X149551555Y-97171898D01*
X149788744Y-97247138D01*
X150036029Y-97274876D01*
X150053831Y-97275000D01*
X150066169Y-97275000D01*
X150313818Y-97250718D01*
X150552034Y-97178796D01*
X150771743Y-97061975D01*
X150964578Y-96904703D01*
X151123192Y-96712971D01*
X151241545Y-96494082D01*
X151315127Y-96256374D01*
X151322944Y-96182002D01*
X151322944Y-96850000D01*
X151328341Y-96917680D01*
X151363890Y-97032472D01*
X151430012Y-97132815D01*
X151521471Y-97210765D01*
X151631025Y-97260148D01*
X151750000Y-97277056D01*
X152470873Y-97277056D01*
X152346182Y-97289282D01*
X152107966Y-97361204D01*
X151888257Y-97478025D01*
X151695422Y-97635297D01*
X151536808Y-97827029D01*
X151418455Y-98045918D01*
X151344873Y-98283626D01*
X151318862Y-98531099D01*
X151341415Y-98778911D01*
X151411672Y-99017623D01*
X151526957Y-99238143D01*
X151682878Y-99432071D01*
X151873498Y-99592020D01*
X152091555Y-99711898D01*
X152328744Y-99787138D01*
X152576029Y-99814876D01*
X152593831Y-99815000D01*
X152606169Y-99815000D01*
X152853818Y-99790718D01*
X153092034Y-99718796D01*
X153311743Y-99601975D01*
X153504578Y-99444703D01*
X153663192Y-99252971D01*
X153781545Y-99034082D01*
X153855127Y-98796374D01*
X153881138Y-98548901D01*
X153858585Y-98301089D01*
X153827707Y-98196177D01*
X154550000Y-97473884D01*
X154550000Y-100550000D01*
X141937816Y-100550000D01*
X141991264Y-100429953D01*
X142022763Y-100291306D01*
X142025031Y-100128910D01*
X141997415Y-99989438D01*
X141943234Y-99857986D01*
X141864553Y-99739562D01*
X141764368Y-99638675D01*
X141646496Y-99559169D01*
X141515426Y-99504072D01*
X141376150Y-99475483D01*
X141233973Y-99474490D01*
X141094312Y-99501132D01*
X140962485Y-99554394D01*
X140930996Y-99575000D01*
X138208884Y-99575000D01*
X137536396Y-98902512D01*
X148889867Y-98902512D01*
X148976250Y-99111079D01*
X149108486Y-99311535D01*
X149277288Y-99482341D01*
X149476169Y-99616934D01*
X149697487Y-99710141D01*
X149885000Y-99658694D01*
X149885000Y-98715000D01*
X150235000Y-98715000D01*
X150235000Y-99658694D01*
X150422513Y-99710141D01*
X150643831Y-99616934D01*
X150842712Y-99482341D01*
X151011514Y-99311535D01*
X151143750Y-99111079D01*
X151230133Y-98902512D01*
X151177632Y-98715000D01*
X150235000Y-98715000D01*
X149885000Y-98715000D01*
X148942368Y-98715000D01*
X148889867Y-98902512D01*
X137536396Y-98902512D01*
X136173891Y-97540007D01*
X136271583Y-97542054D01*
X136411603Y-97517365D01*
X136544161Y-97465949D01*
X136664207Y-97389765D01*
X136767170Y-97291715D01*
X136849127Y-97175534D01*
X136906957Y-97045646D01*
X136917932Y-96997337D01*
X136957563Y-96957706D01*
X136957634Y-96957636D01*
X137396829Y-96518440D01*
X137433467Y-96473836D01*
X137470583Y-96429603D01*
X137472166Y-96426723D01*
X137474252Y-96424184D01*
X137501527Y-96373317D01*
X137529347Y-96322713D01*
X137530341Y-96319579D01*
X137531894Y-96316683D01*
X137548779Y-96261455D01*
X137566229Y-96206444D01*
X137566595Y-96203180D01*
X137567557Y-96200034D01*
X137573394Y-96142568D01*
X137579826Y-96085225D01*
X137579871Y-96078800D01*
X137579883Y-96078681D01*
X137579873Y-96078570D01*
X137579887Y-96076499D01*
X137579887Y-94111410D01*
X137923258Y-94111410D01*
X137970166Y-94366987D01*
X138065821Y-94608585D01*
X138206582Y-94827003D01*
X138387086Y-95013920D01*
X138600458Y-95162218D01*
X138838571Y-95266247D01*
X139092356Y-95322045D01*
X139352145Y-95327487D01*
X139608043Y-95282365D01*
X139850303Y-95188399D01*
X140069698Y-95049166D01*
X140257872Y-94869971D01*
X140407655Y-94657640D01*
X140513344Y-94420259D01*
X140570912Y-94166870D01*
X140575057Y-93870077D01*
X140524586Y-93615180D01*
X140425566Y-93374940D01*
X140281770Y-93158509D01*
X140098673Y-92974130D01*
X139883251Y-92828826D01*
X139643709Y-92728132D01*
X139389170Y-92675883D01*
X139129331Y-92674069D01*
X138874087Y-92722759D01*
X138633163Y-92820099D01*
X138415733Y-92962381D01*
X138230080Y-93144186D01*
X138083276Y-93358588D01*
X137980911Y-93597421D01*
X137926886Y-93851589D01*
X137923258Y-94111410D01*
X137579887Y-94111410D01*
X137579887Y-90454887D01*
X137574252Y-90397419D01*
X137569221Y-90339917D01*
X137568305Y-90336764D01*
X137567984Y-90333491D01*
X137551302Y-90278237D01*
X137535191Y-90222782D01*
X137533677Y-90219861D01*
X137532728Y-90216718D01*
X137505624Y-90165743D01*
X137479056Y-90114488D01*
X137477008Y-90111922D01*
X137475463Y-90109017D01*
X137438947Y-90064245D01*
X137402956Y-90019159D01*
X137398444Y-90014583D01*
X137398369Y-90014491D01*
X137398284Y-90014421D01*
X137396829Y-90012945D01*
X136770897Y-89387013D01*
X136820912Y-89166870D01*
X136825057Y-88870077D01*
X136774586Y-88615180D01*
X136675566Y-88374940D01*
X136531770Y-88158509D01*
X136348673Y-87974130D01*
X136133251Y-87828826D01*
X135893709Y-87728132D01*
X135639170Y-87675883D01*
X135379331Y-87674069D01*
X135124087Y-87722759D01*
X134883163Y-87820099D01*
X134665733Y-87962381D01*
X134480080Y-88144186D01*
X134333276Y-88358588D01*
X134230911Y-88597421D01*
X134176886Y-88851589D01*
X134173258Y-89111410D01*
X134220166Y-89366987D01*
X134315821Y-89608585D01*
X134456582Y-89827003D01*
X134637086Y-90013920D01*
X134850458Y-90162218D01*
X135088571Y-90266247D01*
X135342356Y-90322045D01*
X135602145Y-90327487D01*
X135858043Y-90282365D01*
X135887180Y-90271064D01*
X136329887Y-90713771D01*
X136329887Y-92961459D01*
X136133251Y-92828826D01*
X135893709Y-92728132D01*
X135639170Y-92675883D01*
X135379331Y-92674069D01*
X135124087Y-92722759D01*
X134883163Y-92820099D01*
X134665733Y-92962381D01*
X134480080Y-93144186D01*
X134333276Y-93358588D01*
X134230911Y-93597421D01*
X134176886Y-93851589D01*
X134173258Y-94111410D01*
X134220166Y-94366987D01*
X134315821Y-94608585D01*
X134456582Y-94827003D01*
X134637086Y-95013920D01*
X134850458Y-95162218D01*
X135088571Y-95266247D01*
X135342356Y-95322045D01*
X135602145Y-95327487D01*
X135858043Y-95282365D01*
X136100303Y-95188399D01*
X136319698Y-95049166D01*
X136329887Y-95039463D01*
X136329887Y-95817616D01*
X136073750Y-96073752D01*
X136073745Y-96073758D01*
X136035551Y-96111952D01*
X136010005Y-96116825D01*
X135878178Y-96170087D01*
X135759207Y-96247939D01*
X135657623Y-96347417D01*
X135577297Y-96464732D01*
X135521286Y-96595414D01*
X135491725Y-96734487D01*
X135490026Y-96856142D01*
X133020897Y-94387013D01*
X133070912Y-94166870D01*
X133075057Y-93870077D01*
X133024586Y-93615180D01*
X132925566Y-93374940D01*
X132781770Y-93158509D01*
X132598673Y-92974130D01*
X132383251Y-92828826D01*
X132143709Y-92728132D01*
X131889170Y-92675883D01*
X131629331Y-92674069D01*
X131374087Y-92722759D01*
X131133163Y-92820099D01*
X130915733Y-92962381D01*
X130730080Y-93144186D01*
X130583276Y-93358588D01*
X130480911Y-93597421D01*
X130426886Y-93851589D01*
X130423258Y-94111410D01*
X130470166Y-94366987D01*
X130565821Y-94608585D01*
X130706582Y-94827003D01*
X130887086Y-95013920D01*
X131100458Y-95162218D01*
X131338571Y-95266247D01*
X131592356Y-95322045D01*
X131852145Y-95327487D01*
X132108043Y-95282365D01*
X132137180Y-95271064D01*
X137416116Y-100550000D01*
X129450000Y-100550000D01*
X129450000Y-89111410D01*
X130423258Y-89111410D01*
X130470166Y-89366987D01*
X130565821Y-89608585D01*
X130706582Y-89827003D01*
X130887086Y-90013920D01*
X131100458Y-90162218D01*
X131338571Y-90266247D01*
X131592356Y-90322045D01*
X131852145Y-90327487D01*
X132108043Y-90282365D01*
X132350303Y-90188399D01*
X132569698Y-90049166D01*
X132757872Y-89869971D01*
X132907655Y-89657640D01*
X133013344Y-89420259D01*
X133070912Y-89166870D01*
X133075057Y-88870077D01*
X133024586Y-88615180D01*
X132925566Y-88374940D01*
X132781770Y-88158509D01*
X132598673Y-87974130D01*
X132383251Y-87828826D01*
X132143709Y-87728132D01*
X131889170Y-87675883D01*
X131629331Y-87674069D01*
X131374087Y-87722759D01*
X131133163Y-87820099D01*
X130915733Y-87962381D01*
X130730080Y-88144186D01*
X130583276Y-88358588D01*
X130480911Y-88597421D01*
X130426886Y-88851589D01*
X130423258Y-89111410D01*
X129450000Y-89111410D01*
X129450000Y-84111410D01*
X130423258Y-84111410D01*
X130470166Y-84366987D01*
X130565821Y-84608585D01*
X130706582Y-84827003D01*
X130887086Y-85013920D01*
X131100458Y-85162218D01*
X131338571Y-85266247D01*
X131592356Y-85322045D01*
X131852145Y-85327487D01*
X132108043Y-85282365D01*
X132350303Y-85188399D01*
X132569698Y-85049166D01*
X132757872Y-84869971D01*
X132907655Y-84657640D01*
X133013344Y-84420259D01*
X133070912Y-84166870D01*
X133071686Y-84111410D01*
X134173258Y-84111410D01*
X134220166Y-84366987D01*
X134315821Y-84608585D01*
X134456582Y-84827003D01*
X134637086Y-85013920D01*
X134850458Y-85162218D01*
X135088571Y-85266247D01*
X135342356Y-85322045D01*
X135602145Y-85327487D01*
X135858043Y-85282365D01*
X136100303Y-85188399D01*
X136319698Y-85049166D01*
X136507872Y-84869971D01*
X136657655Y-84657640D01*
X136763344Y-84420259D01*
X136820912Y-84166870D01*
X136821686Y-84111410D01*
X137923258Y-84111410D01*
X137970166Y-84366987D01*
X138065821Y-84608585D01*
X138206582Y-84827003D01*
X138387086Y-85013920D01*
X138600458Y-85162218D01*
X138625000Y-85172940D01*
X138625000Y-87825441D01*
X138415733Y-87962381D01*
X138230080Y-88144186D01*
X138083276Y-88358588D01*
X137980911Y-88597421D01*
X137926886Y-88851589D01*
X137923258Y-89111410D01*
X137970166Y-89366987D01*
X138065821Y-89608585D01*
X138206582Y-89827003D01*
X138387086Y-90013920D01*
X138600458Y-90162218D01*
X138838571Y-90266247D01*
X139092356Y-90322045D01*
X139352145Y-90327487D01*
X139608043Y-90282365D01*
X139637180Y-90271064D01*
X140675000Y-91308884D01*
X140675000Y-97629474D01*
X140661604Y-97649039D01*
X140605593Y-97779721D01*
X140576032Y-97918794D01*
X140574047Y-98060960D01*
X140599713Y-98200804D01*
X140652053Y-98332999D01*
X140729073Y-98452511D01*
X140827839Y-98554787D01*
X140944590Y-98635931D01*
X141074879Y-98692852D01*
X141213742Y-98723383D01*
X141355890Y-98726361D01*
X141495910Y-98701672D01*
X141628468Y-98650256D01*
X141748514Y-98574072D01*
X141851477Y-98476022D01*
X141933434Y-98359841D01*
X141991264Y-98229953D01*
X142003183Y-98177488D01*
X148889867Y-98177488D01*
X148942368Y-98365000D01*
X149885000Y-98365000D01*
X149885000Y-97421306D01*
X150235000Y-97421306D01*
X150235000Y-98365000D01*
X151177632Y-98365000D01*
X151230133Y-98177488D01*
X151143750Y-97968921D01*
X151011514Y-97768465D01*
X150842712Y-97597659D01*
X150643831Y-97463066D01*
X150422513Y-97369859D01*
X150235000Y-97421306D01*
X149885000Y-97421306D01*
X149697487Y-97369859D01*
X149476169Y-97463066D01*
X149277288Y-97597659D01*
X149108486Y-97768465D01*
X148976250Y-97968921D01*
X148889867Y-98177488D01*
X142003183Y-98177488D01*
X142022763Y-98091306D01*
X142025031Y-97928910D01*
X141997415Y-97789438D01*
X141943234Y-97657986D01*
X141925000Y-97630542D01*
X141925000Y-91050000D01*
X141919370Y-90992581D01*
X141914335Y-90935030D01*
X141913417Y-90931872D01*
X141913097Y-90928604D01*
X141896427Y-90873391D01*
X141880304Y-90817895D01*
X141878790Y-90814974D01*
X141877841Y-90811831D01*
X141850737Y-90760856D01*
X141824169Y-90709601D01*
X141822121Y-90707035D01*
X141820576Y-90704130D01*
X141784060Y-90659358D01*
X141748069Y-90614272D01*
X141743557Y-90609696D01*
X141743482Y-90609604D01*
X141743397Y-90609534D01*
X141741942Y-90608058D01*
X140520897Y-89387013D01*
X140529306Y-89350000D01*
X144872944Y-89350000D01*
X144872944Y-90250000D01*
X144878341Y-90317680D01*
X144913890Y-90432472D01*
X144980012Y-90532815D01*
X145071471Y-90610765D01*
X145181025Y-90660148D01*
X145282126Y-90674516D01*
X145285666Y-90714970D01*
X145286582Y-90718123D01*
X145286903Y-90721396D01*
X145303585Y-90776650D01*
X145319696Y-90832105D01*
X145321210Y-90835026D01*
X145322159Y-90838169D01*
X145349263Y-90889144D01*
X145375831Y-90940399D01*
X145377879Y-90942965D01*
X145379424Y-90945870D01*
X145415940Y-90990642D01*
X145451931Y-91035728D01*
X145456443Y-91040304D01*
X145456518Y-91040396D01*
X145456603Y-91040466D01*
X145458058Y-91041942D01*
X146258058Y-91841942D01*
X146302688Y-91878601D01*
X146346896Y-91915696D01*
X146349775Y-91917279D01*
X146352315Y-91919365D01*
X146403147Y-91946621D01*
X146453786Y-91974460D01*
X146456924Y-91975456D01*
X146459816Y-91977006D01*
X146515010Y-91993881D01*
X146570055Y-92011342D01*
X146573317Y-92011708D01*
X146576464Y-92012670D01*
X146633937Y-92018508D01*
X146691274Y-92024939D01*
X146697699Y-92024984D01*
X146697818Y-92024996D01*
X146697929Y-92024986D01*
X146700000Y-92025000D01*
X146928852Y-92025000D01*
X146944580Y-92035931D01*
X147074869Y-92092852D01*
X147213732Y-92123383D01*
X147355880Y-92126361D01*
X147495900Y-92101672D01*
X147628458Y-92050256D01*
X147748504Y-91974072D01*
X147851467Y-91876022D01*
X147933424Y-91759841D01*
X147991254Y-91629953D01*
X148022753Y-91491306D01*
X148025021Y-91328910D01*
X147997405Y-91189438D01*
X147943224Y-91057986D01*
X147864543Y-90939562D01*
X147764358Y-90838675D01*
X147646486Y-90759169D01*
X147515416Y-90704072D01*
X147376140Y-90675483D01*
X147233963Y-90674490D01*
X147094302Y-90701132D01*
X146962475Y-90754394D01*
X146947849Y-90763965D01*
X146765369Y-90581485D01*
X146782815Y-90569988D01*
X146860765Y-90478529D01*
X146910148Y-90368975D01*
X146927056Y-90250000D01*
X146927056Y-89350000D01*
X146921659Y-89282320D01*
X146886110Y-89167528D01*
X146819988Y-89067185D01*
X146728529Y-88989235D01*
X146618975Y-88939852D01*
X146525000Y-88926497D01*
X146525000Y-87919392D01*
X146632472Y-87886110D01*
X146732815Y-87819988D01*
X146810765Y-87728529D01*
X146860148Y-87618975D01*
X146873503Y-87525000D01*
X147016914Y-87525000D01*
X147055012Y-87582815D01*
X147146471Y-87660765D01*
X147256025Y-87710148D01*
X147375000Y-87727056D01*
X148625000Y-87727056D01*
X148692680Y-87721659D01*
X148807472Y-87686110D01*
X148907815Y-87619988D01*
X148985765Y-87528529D01*
X149035148Y-87418975D01*
X149052056Y-87300000D01*
X149052056Y-86300000D01*
X149046659Y-86232320D01*
X149011110Y-86117528D01*
X148944988Y-86017185D01*
X148853529Y-85939235D01*
X148743975Y-85889852D01*
X148625000Y-85872944D01*
X147375000Y-85872944D01*
X147307320Y-85878341D01*
X147192528Y-85913890D01*
X147092185Y-85980012D01*
X147014235Y-86071471D01*
X146964852Y-86181025D01*
X146951497Y-86275000D01*
X146875062Y-86275000D01*
X146871659Y-86232320D01*
X146836110Y-86117528D01*
X146769988Y-86017185D01*
X146678529Y-85939235D01*
X146568975Y-85889852D01*
X146450000Y-85872944D01*
X145550000Y-85872944D01*
X145482320Y-85878341D01*
X145367528Y-85913890D01*
X145267185Y-85980012D01*
X145189235Y-86071471D01*
X145139852Y-86181025D01*
X145122944Y-86300000D01*
X145122944Y-87500000D01*
X145128341Y-87567680D01*
X145163890Y-87682472D01*
X145230012Y-87782815D01*
X145275000Y-87821158D01*
X145275000Y-88924938D01*
X145232320Y-88928341D01*
X145117528Y-88963890D01*
X145017185Y-89030012D01*
X144939235Y-89121471D01*
X144889852Y-89231025D01*
X144872944Y-89350000D01*
X140529306Y-89350000D01*
X140570912Y-89166870D01*
X140575057Y-88870077D01*
X140524586Y-88615180D01*
X140425566Y-88374940D01*
X140281770Y-88158509D01*
X140098673Y-87974130D01*
X139883251Y-87828826D01*
X139875000Y-87825358D01*
X139875000Y-85172726D01*
X140069698Y-85049166D01*
X140154143Y-84968750D01*
X145175000Y-84968750D01*
X145175000Y-85336934D01*
X145189411Y-85409383D01*
X145217679Y-85477629D01*
X145258718Y-85539048D01*
X145310951Y-85591281D01*
X145372371Y-85632321D01*
X145440616Y-85660589D01*
X145513065Y-85675000D01*
X145731250Y-85675000D01*
X145825000Y-85581250D01*
X145825000Y-84875000D01*
X146175000Y-84875000D01*
X146175000Y-85581250D01*
X146268750Y-85675000D01*
X146486935Y-85675000D01*
X146559384Y-85660589D01*
X146627629Y-85632321D01*
X146689049Y-85591281D01*
X146741282Y-85539048D01*
X146782321Y-85477629D01*
X146810589Y-85409383D01*
X146825000Y-85336934D01*
X146825000Y-85068750D01*
X147000000Y-85068750D01*
X147000000Y-85336934D01*
X147014411Y-85409383D01*
X147042679Y-85477629D01*
X147083718Y-85539048D01*
X147135951Y-85591281D01*
X147197371Y-85632321D01*
X147265616Y-85660589D01*
X147338065Y-85675000D01*
X147731250Y-85675000D01*
X147825000Y-85581250D01*
X147825000Y-84975000D01*
X148175000Y-84975000D01*
X148175000Y-85581250D01*
X148268750Y-85675000D01*
X148661935Y-85675000D01*
X148734384Y-85660589D01*
X148802629Y-85632321D01*
X148864049Y-85591281D01*
X148916282Y-85539048D01*
X148957321Y-85477629D01*
X148985589Y-85409383D01*
X149000000Y-85336934D01*
X149000000Y-85068750D01*
X148906250Y-84975000D01*
X148175000Y-84975000D01*
X147825000Y-84975000D01*
X147093750Y-84975000D01*
X147000000Y-85068750D01*
X146825000Y-85068750D01*
X146825000Y-84968750D01*
X146731250Y-84875000D01*
X146175000Y-84875000D01*
X145825000Y-84875000D01*
X145268750Y-84875000D01*
X145175000Y-84968750D01*
X140154143Y-84968750D01*
X140257872Y-84869971D01*
X140407655Y-84657640D01*
X140513344Y-84420259D01*
X140570912Y-84166870D01*
X140572361Y-84063066D01*
X145175000Y-84063066D01*
X145175000Y-84431250D01*
X145268750Y-84525000D01*
X145825000Y-84525000D01*
X145825000Y-83818750D01*
X146175000Y-83818750D01*
X146175000Y-84525000D01*
X146731250Y-84525000D01*
X146825000Y-84431250D01*
X146825000Y-84263066D01*
X147000000Y-84263066D01*
X147000000Y-84531250D01*
X147093750Y-84625000D01*
X147825000Y-84625000D01*
X147825000Y-84018750D01*
X148175000Y-84018750D01*
X148175000Y-84625000D01*
X148906250Y-84625000D01*
X149000000Y-84531250D01*
X149000000Y-84263066D01*
X148985589Y-84190617D01*
X148957321Y-84122371D01*
X148916282Y-84060952D01*
X148864049Y-84008719D01*
X148802629Y-83967679D01*
X148734384Y-83939411D01*
X148661935Y-83925000D01*
X148268750Y-83925000D01*
X148175000Y-84018750D01*
X147825000Y-84018750D01*
X147731250Y-83925000D01*
X147338065Y-83925000D01*
X147265616Y-83939411D01*
X147197371Y-83967679D01*
X147135951Y-84008719D01*
X147083718Y-84060952D01*
X147042679Y-84122371D01*
X147014411Y-84190617D01*
X147000000Y-84263066D01*
X146825000Y-84263066D01*
X146825000Y-84063066D01*
X146810589Y-83990617D01*
X146782321Y-83922371D01*
X146741282Y-83860952D01*
X146689049Y-83808719D01*
X146627629Y-83767679D01*
X146559384Y-83739411D01*
X146486935Y-83725000D01*
X146268750Y-83725000D01*
X146175000Y-83818750D01*
X145825000Y-83818750D01*
X145731250Y-83725000D01*
X145513065Y-83725000D01*
X145440616Y-83739411D01*
X145372371Y-83767679D01*
X145310951Y-83808719D01*
X145258718Y-83860952D01*
X145217679Y-83922371D01*
X145189411Y-83990617D01*
X145175000Y-84063066D01*
X140572361Y-84063066D01*
X140575057Y-83870077D01*
X140524586Y-83615180D01*
X140425566Y-83374940D01*
X140281770Y-83158509D01*
X140098673Y-82974130D01*
X139883251Y-82828826D01*
X139643709Y-82728132D01*
X139389170Y-82675883D01*
X139129331Y-82674069D01*
X138874087Y-82722759D01*
X138633163Y-82820099D01*
X138415733Y-82962381D01*
X138230080Y-83144186D01*
X138083276Y-83358588D01*
X137980911Y-83597421D01*
X137926886Y-83851589D01*
X137923258Y-84111410D01*
X136821686Y-84111410D01*
X136825057Y-83870077D01*
X136774586Y-83615180D01*
X136675566Y-83374940D01*
X136531770Y-83158509D01*
X136348673Y-82974130D01*
X136133251Y-82828826D01*
X135893709Y-82728132D01*
X135639170Y-82675883D01*
X135379331Y-82674069D01*
X135124087Y-82722759D01*
X134883163Y-82820099D01*
X134665733Y-82962381D01*
X134480080Y-83144186D01*
X134333276Y-83358588D01*
X134230911Y-83597421D01*
X134176886Y-83851589D01*
X134173258Y-84111410D01*
X133071686Y-84111410D01*
X133075057Y-83870077D01*
X133024586Y-83615180D01*
X132925566Y-83374940D01*
X132781770Y-83158509D01*
X132598673Y-82974130D01*
X132383251Y-82828826D01*
X132143709Y-82728132D01*
X131889170Y-82675883D01*
X131629331Y-82674069D01*
X131374087Y-82722759D01*
X131133163Y-82820099D01*
X130915733Y-82962381D01*
X130730080Y-83144186D01*
X130583276Y-83358588D01*
X130480911Y-83597421D01*
X130426886Y-83851589D01*
X130423258Y-84111410D01*
X129450000Y-84111410D01*
X129450000Y-81450000D01*
X154550000Y-81450000D01*
X154550000Y-94366116D01*
M02*
