G04 #@! TF.FileFunction,Legend,Top*
%FSLAX46Y46*%
G04 Gerber Fmt 4.6, Leading zero omitted, Abs format (unit mm)*
G04 Created by KiCad (PCBNEW 4.0.4-1.fc24-product) date Tue Jun 12 13:21:53 2018*
%MOMM*%
%LPD*%
G01*
G04 APERTURE LIST*
%ADD10C,0.100000*%
%ADD11C,0.150000*%
G04 APERTURE END LIST*
D10*
D11*
X144925000Y-87625000D02*
X144925000Y-87770000D01*
X149075000Y-87625000D02*
X149075000Y-87770000D01*
X149075000Y-92775000D02*
X149075000Y-92630000D01*
X144925000Y-92775000D02*
X144925000Y-92630000D01*
X144925000Y-87625000D02*
X149075000Y-87625000D01*
X144925000Y-92775000D02*
X149075000Y-92775000D01*
X144925000Y-87770000D02*
X143525000Y-87770000D01*
X133350000Y-98500000D02*
X133350000Y-97500000D01*
X131650000Y-97500000D02*
X131650000Y-98500000D01*
X139150000Y-97500000D02*
X139150000Y-98500000D01*
X140850000Y-98500000D02*
X140850000Y-97500000D01*
X144150000Y-97500000D02*
X144150000Y-98500000D01*
X145850000Y-98500000D02*
X145850000Y-97500000D01*
X142600000Y-83850000D02*
X142600000Y-84550000D01*
X141400000Y-84550000D02*
X141400000Y-83850000D01*
X151650000Y-88700000D02*
X151650000Y-89700000D01*
X153350000Y-89700000D02*
X153350000Y-88700000D01*
X135675000Y-97500000D02*
X135675000Y-98500000D01*
X134325000Y-98500000D02*
X134325000Y-97500000D01*
X138175000Y-97500000D02*
X138175000Y-98500000D01*
X136825000Y-98500000D02*
X136825000Y-97500000D01*
X143675000Y-97500000D02*
X143675000Y-98500000D01*
X142325000Y-98500000D02*
X142325000Y-97500000D01*
X145175000Y-83700000D02*
X145175000Y-84700000D01*
X143825000Y-84700000D02*
X143825000Y-83700000D01*
X150175000Y-83700000D02*
X150175000Y-84700000D01*
X148825000Y-84700000D02*
X148825000Y-83700000D01*
X153175000Y-83700000D02*
X153175000Y-84700000D01*
X151825000Y-84700000D02*
X151825000Y-83700000D01*
X146325000Y-98500000D02*
X146325000Y-97500000D01*
X147675000Y-97500000D02*
X147675000Y-98500000D01*
X146466667Y-86316667D02*
X146466667Y-86883333D01*
X146500000Y-86950000D01*
X146533333Y-86983333D01*
X146600000Y-87016667D01*
X146733333Y-87016667D01*
X146800000Y-86983333D01*
X146833333Y-86950000D01*
X146866667Y-86883333D01*
X146866667Y-86316667D01*
X147566666Y-87016667D02*
X147166666Y-87016667D01*
X147366666Y-87016667D02*
X147366666Y-86316667D01*
X147300000Y-86416667D01*
X147233333Y-86483333D01*
X147166666Y-86516667D01*
X132383334Y-95850000D02*
X132350000Y-95883333D01*
X132250000Y-95916667D01*
X132183334Y-95916667D01*
X132083334Y-95883333D01*
X132016667Y-95816667D01*
X131983334Y-95750000D01*
X131950000Y-95616667D01*
X131950000Y-95516667D01*
X131983334Y-95383333D01*
X132016667Y-95316667D01*
X132083334Y-95250000D01*
X132183334Y-95216667D01*
X132250000Y-95216667D01*
X132350000Y-95250000D01*
X132383334Y-95283333D01*
X133050000Y-95916667D02*
X132650000Y-95916667D01*
X132850000Y-95916667D02*
X132850000Y-95216667D01*
X132783334Y-95316667D01*
X132716667Y-95383333D01*
X132650000Y-95416667D01*
X139883334Y-95850000D02*
X139850000Y-95883333D01*
X139750000Y-95916667D01*
X139683334Y-95916667D01*
X139583334Y-95883333D01*
X139516667Y-95816667D01*
X139483334Y-95750000D01*
X139450000Y-95616667D01*
X139450000Y-95516667D01*
X139483334Y-95383333D01*
X139516667Y-95316667D01*
X139583334Y-95250000D01*
X139683334Y-95216667D01*
X139750000Y-95216667D01*
X139850000Y-95250000D01*
X139883334Y-95283333D01*
X140150000Y-95283333D02*
X140183334Y-95250000D01*
X140250000Y-95216667D01*
X140416667Y-95216667D01*
X140483334Y-95250000D01*
X140516667Y-95283333D01*
X140550000Y-95350000D01*
X140550000Y-95416667D01*
X140516667Y-95516667D01*
X140116667Y-95916667D01*
X140550000Y-95916667D01*
X144883334Y-95850000D02*
X144850000Y-95883333D01*
X144750000Y-95916667D01*
X144683334Y-95916667D01*
X144583334Y-95883333D01*
X144516667Y-95816667D01*
X144483334Y-95750000D01*
X144450000Y-95616667D01*
X144450000Y-95516667D01*
X144483334Y-95383333D01*
X144516667Y-95316667D01*
X144583334Y-95250000D01*
X144683334Y-95216667D01*
X144750000Y-95216667D01*
X144850000Y-95250000D01*
X144883334Y-95283333D01*
X145116667Y-95216667D02*
X145550000Y-95216667D01*
X145316667Y-95483333D01*
X145416667Y-95483333D01*
X145483334Y-95516667D01*
X145516667Y-95550000D01*
X145550000Y-95616667D01*
X145550000Y-95783333D01*
X145516667Y-95850000D01*
X145483334Y-95883333D01*
X145416667Y-95916667D01*
X145216667Y-95916667D01*
X145150000Y-95883333D01*
X145116667Y-95850000D01*
X141883334Y-82150000D02*
X141850000Y-82183333D01*
X141750000Y-82216667D01*
X141683334Y-82216667D01*
X141583334Y-82183333D01*
X141516667Y-82116667D01*
X141483334Y-82050000D01*
X141450000Y-81916667D01*
X141450000Y-81816667D01*
X141483334Y-81683333D01*
X141516667Y-81616667D01*
X141583334Y-81550000D01*
X141683334Y-81516667D01*
X141750000Y-81516667D01*
X141850000Y-81550000D01*
X141883334Y-81583333D01*
X142483334Y-81750000D02*
X142483334Y-82216667D01*
X142316667Y-81483333D02*
X142150000Y-81983333D01*
X142583334Y-81983333D01*
X152283334Y-87350000D02*
X152250000Y-87383333D01*
X152150000Y-87416667D01*
X152083334Y-87416667D01*
X151983334Y-87383333D01*
X151916667Y-87316667D01*
X151883334Y-87250000D01*
X151850000Y-87116667D01*
X151850000Y-87016667D01*
X151883334Y-86883333D01*
X151916667Y-86816667D01*
X151983334Y-86750000D01*
X152083334Y-86716667D01*
X152150000Y-86716667D01*
X152250000Y-86750000D01*
X152283334Y-86783333D01*
X152883334Y-86716667D02*
X152750000Y-86716667D01*
X152683334Y-86750000D01*
X152650000Y-86783333D01*
X152583334Y-86883333D01*
X152550000Y-87016667D01*
X152550000Y-87283333D01*
X152583334Y-87350000D01*
X152616667Y-87383333D01*
X152683334Y-87416667D01*
X152816667Y-87416667D01*
X152883334Y-87383333D01*
X152916667Y-87350000D01*
X152950000Y-87283333D01*
X152950000Y-87116667D01*
X152916667Y-87050000D01*
X152883334Y-87016667D01*
X152816667Y-86983333D01*
X152683334Y-86983333D01*
X152616667Y-87016667D01*
X152583334Y-87050000D01*
X152550000Y-87116667D01*
X134883334Y-95916667D02*
X134650000Y-95583333D01*
X134483334Y-95916667D02*
X134483334Y-95216667D01*
X134750000Y-95216667D01*
X134816667Y-95250000D01*
X134850000Y-95283333D01*
X134883334Y-95350000D01*
X134883334Y-95450000D01*
X134850000Y-95516667D01*
X134816667Y-95550000D01*
X134750000Y-95583333D01*
X134483334Y-95583333D01*
X135550000Y-95916667D02*
X135150000Y-95916667D01*
X135350000Y-95916667D02*
X135350000Y-95216667D01*
X135283334Y-95316667D01*
X135216667Y-95383333D01*
X135150000Y-95416667D01*
X137383334Y-95916667D02*
X137150000Y-95583333D01*
X136983334Y-95916667D02*
X136983334Y-95216667D01*
X137250000Y-95216667D01*
X137316667Y-95250000D01*
X137350000Y-95283333D01*
X137383334Y-95350000D01*
X137383334Y-95450000D01*
X137350000Y-95516667D01*
X137316667Y-95550000D01*
X137250000Y-95583333D01*
X136983334Y-95583333D01*
X137650000Y-95283333D02*
X137683334Y-95250000D01*
X137750000Y-95216667D01*
X137916667Y-95216667D01*
X137983334Y-95250000D01*
X138016667Y-95283333D01*
X138050000Y-95350000D01*
X138050000Y-95416667D01*
X138016667Y-95516667D01*
X137616667Y-95916667D01*
X138050000Y-95916667D01*
X142883334Y-95916667D02*
X142650000Y-95583333D01*
X142483334Y-95916667D02*
X142483334Y-95216667D01*
X142750000Y-95216667D01*
X142816667Y-95250000D01*
X142850000Y-95283333D01*
X142883334Y-95350000D01*
X142883334Y-95450000D01*
X142850000Y-95516667D01*
X142816667Y-95550000D01*
X142750000Y-95583333D01*
X142483334Y-95583333D01*
X143116667Y-95216667D02*
X143550000Y-95216667D01*
X143316667Y-95483333D01*
X143416667Y-95483333D01*
X143483334Y-95516667D01*
X143516667Y-95550000D01*
X143550000Y-95616667D01*
X143550000Y-95783333D01*
X143516667Y-95850000D01*
X143483334Y-95883333D01*
X143416667Y-95916667D01*
X143216667Y-95916667D01*
X143150000Y-95883333D01*
X143116667Y-95850000D01*
X144383334Y-82216667D02*
X144150000Y-81883333D01*
X143983334Y-82216667D02*
X143983334Y-81516667D01*
X144250000Y-81516667D01*
X144316667Y-81550000D01*
X144350000Y-81583333D01*
X144383334Y-81650000D01*
X144383334Y-81750000D01*
X144350000Y-81816667D01*
X144316667Y-81850000D01*
X144250000Y-81883333D01*
X143983334Y-81883333D01*
X144983334Y-81516667D02*
X144850000Y-81516667D01*
X144783334Y-81550000D01*
X144750000Y-81583333D01*
X144683334Y-81683333D01*
X144650000Y-81816667D01*
X144650000Y-82083333D01*
X144683334Y-82150000D01*
X144716667Y-82183333D01*
X144783334Y-82216667D01*
X144916667Y-82216667D01*
X144983334Y-82183333D01*
X145016667Y-82150000D01*
X145050000Y-82083333D01*
X145050000Y-81916667D01*
X145016667Y-81850000D01*
X144983334Y-81816667D01*
X144916667Y-81783333D01*
X144783334Y-81783333D01*
X144716667Y-81816667D01*
X144683334Y-81850000D01*
X144650000Y-81916667D01*
X149383334Y-82216667D02*
X149150000Y-81883333D01*
X148983334Y-82216667D02*
X148983334Y-81516667D01*
X149250000Y-81516667D01*
X149316667Y-81550000D01*
X149350000Y-81583333D01*
X149383334Y-81650000D01*
X149383334Y-81750000D01*
X149350000Y-81816667D01*
X149316667Y-81850000D01*
X149250000Y-81883333D01*
X148983334Y-81883333D01*
X149783334Y-81816667D02*
X149716667Y-81783333D01*
X149683334Y-81750000D01*
X149650000Y-81683333D01*
X149650000Y-81650000D01*
X149683334Y-81583333D01*
X149716667Y-81550000D01*
X149783334Y-81516667D01*
X149916667Y-81516667D01*
X149983334Y-81550000D01*
X150016667Y-81583333D01*
X150050000Y-81650000D01*
X150050000Y-81683333D01*
X150016667Y-81750000D01*
X149983334Y-81783333D01*
X149916667Y-81816667D01*
X149783334Y-81816667D01*
X149716667Y-81850000D01*
X149683334Y-81883333D01*
X149650000Y-81950000D01*
X149650000Y-82083333D01*
X149683334Y-82150000D01*
X149716667Y-82183333D01*
X149783334Y-82216667D01*
X149916667Y-82216667D01*
X149983334Y-82183333D01*
X150016667Y-82150000D01*
X150050000Y-82083333D01*
X150050000Y-81950000D01*
X150016667Y-81883333D01*
X149983334Y-81850000D01*
X149916667Y-81816667D01*
X152383334Y-82216667D02*
X152150000Y-81883333D01*
X151983334Y-82216667D02*
X151983334Y-81516667D01*
X152250000Y-81516667D01*
X152316667Y-81550000D01*
X152350000Y-81583333D01*
X152383334Y-81650000D01*
X152383334Y-81750000D01*
X152350000Y-81816667D01*
X152316667Y-81850000D01*
X152250000Y-81883333D01*
X151983334Y-81883333D01*
X152716667Y-82216667D02*
X152850000Y-82216667D01*
X152916667Y-82183333D01*
X152950000Y-82150000D01*
X153016667Y-82050000D01*
X153050000Y-81916667D01*
X153050000Y-81650000D01*
X153016667Y-81583333D01*
X152983334Y-81550000D01*
X152916667Y-81516667D01*
X152783334Y-81516667D01*
X152716667Y-81550000D01*
X152683334Y-81583333D01*
X152650000Y-81650000D01*
X152650000Y-81816667D01*
X152683334Y-81883333D01*
X152716667Y-81916667D01*
X152783334Y-81950000D01*
X152916667Y-81950000D01*
X152983334Y-81916667D01*
X153016667Y-81883333D01*
X153050000Y-81816667D01*
X146550000Y-95916667D02*
X146316666Y-95583333D01*
X146150000Y-95916667D02*
X146150000Y-95216667D01*
X146416666Y-95216667D01*
X146483333Y-95250000D01*
X146516666Y-95283333D01*
X146550000Y-95350000D01*
X146550000Y-95450000D01*
X146516666Y-95516667D01*
X146483333Y-95550000D01*
X146416666Y-95583333D01*
X146150000Y-95583333D01*
X147216666Y-95916667D02*
X146816666Y-95916667D01*
X147016666Y-95916667D02*
X147016666Y-95216667D01*
X146950000Y-95316667D01*
X146883333Y-95383333D01*
X146816666Y-95416667D01*
X147650000Y-95216667D02*
X147716667Y-95216667D01*
X147783333Y-95250000D01*
X147816667Y-95283333D01*
X147850000Y-95350000D01*
X147883333Y-95483333D01*
X147883333Y-95650000D01*
X147850000Y-95783333D01*
X147816667Y-95850000D01*
X147783333Y-95883333D01*
X147716667Y-95916667D01*
X147650000Y-95916667D01*
X147583333Y-95883333D01*
X147550000Y-95850000D01*
X147516667Y-95783333D01*
X147483333Y-95650000D01*
X147483333Y-95483333D01*
X147516667Y-95350000D01*
X147550000Y-95283333D01*
X147583333Y-95250000D01*
X147650000Y-95216667D01*
M02*
