G04 #@! TF.FileFunction,Soldermask,Top*
%FSLAX46Y46*%
G04 Gerber Fmt 4.6, Leading zero omitted, Abs format (unit mm)*
G04 Created by KiCad (PCBNEW 4.0.4-1.fc24-product) date Tue Jun 12 13:21:53 2018*
%MOMM*%
%LPD*%
G01*
G04 APERTURE LIST*
%ADD10C,0.100000*%
%ADD11R,1.950000X1.000000*%
%ADD12R,1.650000X1.400000*%
%ADD13R,1.150000X1.600000*%
%ADD14R,1.300000X1.600000*%
%ADD15R,2.100000X2.100000*%
%ADD16O,2.100000X2.100000*%
%ADD17C,2.200000*%
G04 APERTURE END LIST*
D10*
D11*
X144300000Y-88295000D03*
X144300000Y-89565000D03*
X144300000Y-90835000D03*
X144300000Y-92105000D03*
X149700000Y-92105000D03*
X149700000Y-90835000D03*
X149700000Y-89565000D03*
X149700000Y-88295000D03*
D12*
X132500000Y-97000000D03*
X132500000Y-99000000D03*
X140000000Y-99000000D03*
X140000000Y-97000000D03*
X145000000Y-99000000D03*
X145000000Y-97000000D03*
D13*
X142000000Y-83250000D03*
X142000000Y-85150000D03*
D12*
X152500000Y-90200000D03*
X152500000Y-88200000D03*
D14*
X135000000Y-99100000D03*
X135000000Y-96900000D03*
X137500000Y-99100000D03*
X137500000Y-96900000D03*
X143000000Y-99100000D03*
X143000000Y-96900000D03*
X144500000Y-85300000D03*
X144500000Y-83100000D03*
X149500000Y-85300000D03*
X149500000Y-83100000D03*
X152500000Y-85300000D03*
X152500000Y-83100000D03*
X147000000Y-96900000D03*
X147000000Y-99100000D03*
D15*
X152600000Y-96000000D03*
D16*
X150060000Y-96000000D03*
X152600000Y-98540000D03*
X150060000Y-98540000D03*
D17*
X139250000Y-84000000D03*
X135500000Y-84000000D03*
X131750000Y-84000000D03*
X139250000Y-89000000D03*
X135500000Y-89000000D03*
X131750000Y-89000000D03*
X131750000Y-94000000D03*
X135500000Y-94000000D03*
X139250000Y-94000000D03*
M02*
