%TF.GenerationSoftware,KiCad,Pcbnew,4.0.4-1.fc24-product*%
%TF.CreationDate,2018-03-01T10:39:20+11:00*%
%TF.ProjectId,MID_STACK,4D49445F535441434B2E6B696361645F,rev?*%
%TF.FileFunction,Copper,L1,Top,Signal*%
%FSLAX46Y46*%
G04 Gerber Fmt 4.6, Leading zero omitted, Abs format (unit mm)*
G04 Created by KiCad (PCBNEW 4.0.4-1.fc24-product) date Thu Mar  1 10:39:20 2018*
%MOMM*%
%LPD*%
G01*
G04 APERTURE LIST*
%ADD10C,0.100000*%
%ADD11C,1.800000*%
%ADD12R,1.200000X1.700000*%
%ADD13O,1.200000X1.700000*%
%ADD14R,0.900000X1.200000*%
%ADD15C,1.600000*%
%ADD16R,1.200000X0.900000*%
%ADD17C,0.400000*%
%ADD18C,0.300000*%
G04 APERTURE END LIST*
D10*
D11*
X178750000Y-96000000D03*
X175000000Y-96000000D03*
X171250000Y-96000000D03*
X178750000Y-101000000D03*
X175000000Y-101000000D03*
X171250000Y-101000000D03*
X171250000Y-106000000D03*
X175000000Y-106000000D03*
X178750000Y-106000000D03*
D12*
X172000000Y-115000000D03*
D13*
X174000000Y-115000000D03*
X176000000Y-115000000D03*
X178000000Y-115000000D03*
D14*
X167000000Y-107100000D03*
X167000000Y-104900000D03*
X183000000Y-104900000D03*
X183000000Y-107100000D03*
D15*
X166700000Y-97100000D03*
X166700000Y-102100000D03*
X183400000Y-115700000D03*
X183400000Y-110700000D03*
D16*
X171800000Y-109400000D03*
X174000000Y-109400000D03*
D17*
X172800000Y-98200000D02*
X167800000Y-98200000D01*
X167800000Y-98200000D02*
X166700000Y-97100000D01*
X175000000Y-96000000D02*
X172800000Y-98200000D01*
X166700000Y-102100000D02*
X166700000Y-103231370D01*
X166700000Y-103231370D02*
X165700000Y-104231370D01*
X165700000Y-104231370D02*
X165700000Y-106500000D01*
X165700000Y-106500000D02*
X166300000Y-107100000D01*
X166300000Y-107100000D02*
X167000000Y-107100000D01*
X167000000Y-107100000D02*
X167000000Y-108200000D01*
X167000000Y-108200000D02*
X168200000Y-109400000D01*
X168200000Y-109400000D02*
X170800000Y-109400000D01*
X170800000Y-109400000D02*
X171800000Y-109400000D01*
X183300000Y-115700000D02*
X182400000Y-116600000D01*
X182400000Y-116600000D02*
X175350000Y-116600000D01*
X175350000Y-116600000D02*
X174000000Y-115250000D01*
X174000000Y-115250000D02*
X174000000Y-115000000D01*
X171250000Y-106000000D02*
X174000000Y-108750000D01*
X174000000Y-108750000D02*
X174000000Y-109400000D01*
X171300000Y-106000000D02*
X171250000Y-106000000D01*
X174000000Y-115000000D02*
X174000000Y-109400000D01*
X175000000Y-101000000D02*
X178750000Y-101000000D01*
X170000000Y-103100000D02*
X172900000Y-103100000D01*
X172900000Y-103100000D02*
X175000000Y-101000000D01*
X168200000Y-104900000D02*
X170000000Y-103100000D01*
X167000000Y-104900000D02*
X168200000Y-104900000D01*
X167000000Y-104900000D02*
X167000000Y-104750000D01*
X183000000Y-104900000D02*
X179850000Y-104900000D01*
X179850000Y-104900000D02*
X178750000Y-106000000D01*
X175000000Y-106000000D02*
X178750000Y-106000000D01*
D18*
G36*
X184475000Y-110060729D02*
X184320842Y-109991290D01*
X183612132Y-110700000D01*
X184320842Y-111408710D01*
X184475000Y-111339271D01*
X184475000Y-115028395D01*
X184460316Y-114992857D01*
X184108993Y-114640919D01*
X183649731Y-114450217D01*
X183152450Y-114449783D01*
X182692857Y-114639684D01*
X182340919Y-114991007D01*
X182150217Y-115450269D01*
X182149797Y-115930964D01*
X182130762Y-115950000D01*
X178775845Y-115950000D01*
X178953583Y-115717073D01*
X179059737Y-115316599D01*
X178944608Y-115150000D01*
X178150000Y-115150000D01*
X178150000Y-115170000D01*
X177850000Y-115170000D01*
X177850000Y-115150000D01*
X177830000Y-115150000D01*
X177830000Y-114850000D01*
X177850000Y-114850000D01*
X177850000Y-113824578D01*
X178150000Y-113824578D01*
X178150000Y-114850000D01*
X178944608Y-114850000D01*
X179059737Y-114683401D01*
X178953583Y-114282927D01*
X178702255Y-113953560D01*
X178310725Y-113747030D01*
X178150000Y-113824578D01*
X177850000Y-113824578D01*
X177689275Y-113747030D01*
X177297745Y-113953560D01*
X177046417Y-114282927D01*
X176998281Y-114464522D01*
X176970074Y-114322713D01*
X176742462Y-113982069D01*
X176401818Y-113754457D01*
X176000000Y-113674531D01*
X175598182Y-113754457D01*
X175257538Y-113982069D01*
X175029926Y-114322713D01*
X175000000Y-114473162D01*
X174970074Y-114322713D01*
X174742462Y-113982069D01*
X174650000Y-113920288D01*
X174650000Y-111620842D01*
X182691290Y-111620842D01*
X182777433Y-111812085D01*
X183250400Y-111965679D01*
X183746142Y-111926583D01*
X184022567Y-111812085D01*
X184108710Y-111620842D01*
X183400000Y-110912132D01*
X182691290Y-111620842D01*
X174650000Y-111620842D01*
X174650000Y-110550400D01*
X182134321Y-110550400D01*
X182173417Y-111046142D01*
X182287915Y-111322567D01*
X182479158Y-111408710D01*
X183187868Y-110700000D01*
X182479158Y-109991290D01*
X182287915Y-110077433D01*
X182134321Y-110550400D01*
X174650000Y-110550400D01*
X174650000Y-110299408D01*
X174766760Y-110277438D01*
X174919919Y-110178883D01*
X175022668Y-110028505D01*
X175058816Y-109850000D01*
X175058816Y-109779158D01*
X182691290Y-109779158D01*
X183400000Y-110487868D01*
X184108710Y-109779158D01*
X184022567Y-109587915D01*
X183549600Y-109434321D01*
X183053858Y-109473417D01*
X182777433Y-109587915D01*
X182691290Y-109779158D01*
X175058816Y-109779158D01*
X175058816Y-108950000D01*
X175027438Y-108783240D01*
X174928883Y-108630081D01*
X174778505Y-108527332D01*
X174600000Y-108491184D01*
X174593793Y-108491184D01*
X174459619Y-108290380D01*
X173531739Y-107362500D01*
X182100000Y-107362500D01*
X182100000Y-107789511D01*
X182168509Y-107954905D01*
X182295096Y-108081492D01*
X182460490Y-108150000D01*
X182737500Y-108150000D01*
X182850000Y-108037500D01*
X182850000Y-107250000D01*
X183150000Y-107250000D01*
X183150000Y-108037500D01*
X183262500Y-108150000D01*
X183539510Y-108150000D01*
X183704904Y-108081492D01*
X183831491Y-107954905D01*
X183900000Y-107789511D01*
X183900000Y-107362500D01*
X183787500Y-107250000D01*
X183150000Y-107250000D01*
X182850000Y-107250000D01*
X182212500Y-107250000D01*
X182100000Y-107362500D01*
X173531739Y-107362500D01*
X172552581Y-106383342D01*
X172599765Y-106269710D01*
X172599767Y-106267353D01*
X173649766Y-106267353D01*
X173854858Y-106763715D01*
X174234288Y-107143807D01*
X174730290Y-107349765D01*
X175267353Y-107350234D01*
X175763715Y-107145142D01*
X176143807Y-106765712D01*
X176191855Y-106650000D01*
X177557872Y-106650000D01*
X177604858Y-106763715D01*
X177984288Y-107143807D01*
X178480290Y-107349765D01*
X179017353Y-107350234D01*
X179513715Y-107145142D01*
X179893807Y-106765712D01*
X180041308Y-106410489D01*
X182100000Y-106410489D01*
X182100000Y-106837500D01*
X182212500Y-106950000D01*
X182850000Y-106950000D01*
X182850000Y-106162500D01*
X183150000Y-106162500D01*
X183150000Y-106950000D01*
X183787500Y-106950000D01*
X183900000Y-106837500D01*
X183900000Y-106410489D01*
X183831491Y-106245095D01*
X183704904Y-106118508D01*
X183539510Y-106050000D01*
X183262500Y-106050000D01*
X183150000Y-106162500D01*
X182850000Y-106162500D01*
X182737500Y-106050000D01*
X182460490Y-106050000D01*
X182295096Y-106118508D01*
X182168509Y-106245095D01*
X182100000Y-106410489D01*
X180041308Y-106410489D01*
X180099765Y-106269710D01*
X180100234Y-105732647D01*
X180052388Y-105616850D01*
X180119238Y-105550000D01*
X182100592Y-105550000D01*
X182122562Y-105666760D01*
X182221117Y-105819919D01*
X182371495Y-105922668D01*
X182550000Y-105958816D01*
X183450000Y-105958816D01*
X183616760Y-105927438D01*
X183769919Y-105828883D01*
X183872668Y-105678505D01*
X183908816Y-105500000D01*
X183908816Y-104300000D01*
X183877438Y-104133240D01*
X183778883Y-103980081D01*
X183628505Y-103877332D01*
X183450000Y-103841184D01*
X182550000Y-103841184D01*
X182383240Y-103872562D01*
X182230081Y-103971117D01*
X182127332Y-104121495D01*
X182101309Y-104250000D01*
X179850000Y-104250000D01*
X179646990Y-104290381D01*
X179601255Y-104299478D01*
X179390381Y-104440381D01*
X179133343Y-104697419D01*
X179019710Y-104650235D01*
X178482647Y-104649766D01*
X177986285Y-104854858D01*
X177606193Y-105234288D01*
X177558145Y-105350000D01*
X176192128Y-105350000D01*
X176145142Y-105236285D01*
X175765712Y-104856193D01*
X175269710Y-104650235D01*
X174732647Y-104649766D01*
X174236285Y-104854858D01*
X173856193Y-105234288D01*
X173650235Y-105730290D01*
X173649766Y-106267353D01*
X172599767Y-106267353D01*
X172600234Y-105732647D01*
X172395142Y-105236285D01*
X172015712Y-104856193D01*
X171519710Y-104650235D01*
X170982647Y-104649766D01*
X170486285Y-104854858D01*
X170106193Y-105234288D01*
X169900235Y-105730290D01*
X169899766Y-106267353D01*
X170104858Y-106763715D01*
X170484288Y-107143807D01*
X170980290Y-107349765D01*
X171517353Y-107350234D01*
X171633150Y-107302388D01*
X173028041Y-108697280D01*
X172977332Y-108771495D01*
X172941184Y-108950000D01*
X172941184Y-109850000D01*
X172972562Y-110016760D01*
X173071117Y-110169919D01*
X173221495Y-110272668D01*
X173350000Y-110298691D01*
X173350000Y-113920288D01*
X173257538Y-113982069D01*
X173058816Y-114279476D01*
X173058816Y-114150000D01*
X173027438Y-113983240D01*
X172928883Y-113830081D01*
X172778505Y-113727332D01*
X172600000Y-113691184D01*
X171400000Y-113691184D01*
X171233240Y-113722562D01*
X171080081Y-113821117D01*
X170977332Y-113971495D01*
X170941184Y-114150000D01*
X170941184Y-115850000D01*
X170972562Y-116016760D01*
X171071117Y-116169919D01*
X171221495Y-116272668D01*
X171400000Y-116308816D01*
X172600000Y-116308816D01*
X172766760Y-116277438D01*
X172919919Y-116178883D01*
X173022668Y-116028505D01*
X173058816Y-115850000D01*
X173058816Y-115720524D01*
X173257538Y-116017931D01*
X173598182Y-116245543D01*
X174000000Y-116325469D01*
X174130310Y-116299549D01*
X174890380Y-117059619D01*
X175101255Y-117200522D01*
X175142524Y-117208731D01*
X175350000Y-117250000D01*
X182400000Y-117250000D01*
X182607476Y-117208731D01*
X182648745Y-117200522D01*
X182859619Y-117059619D01*
X183022507Y-116896732D01*
X183150269Y-116949783D01*
X183647550Y-116950217D01*
X184107143Y-116760316D01*
X184459081Y-116408993D01*
X184475000Y-116370656D01*
X184475000Y-117475000D01*
X165525000Y-117475000D01*
X165525000Y-107244238D01*
X165840380Y-107559619D01*
X166051255Y-107700522D01*
X166092524Y-107708731D01*
X166092839Y-107708793D01*
X166122562Y-107866760D01*
X166221117Y-108019919D01*
X166350000Y-108107981D01*
X166350000Y-108200000D01*
X166367978Y-108290380D01*
X166399478Y-108448745D01*
X166540381Y-108659619D01*
X167740380Y-109859619D01*
X167951255Y-110000522D01*
X167992524Y-110008731D01*
X168200000Y-110050000D01*
X170793951Y-110050000D01*
X170871117Y-110169919D01*
X171021495Y-110272668D01*
X171200000Y-110308816D01*
X172400000Y-110308816D01*
X172566760Y-110277438D01*
X172719919Y-110178883D01*
X172822668Y-110028505D01*
X172858816Y-109850000D01*
X172858816Y-108950000D01*
X172827438Y-108783240D01*
X172728883Y-108630081D01*
X172578505Y-108527332D01*
X172400000Y-108491184D01*
X171200000Y-108491184D01*
X171033240Y-108522562D01*
X170880081Y-108621117D01*
X170792019Y-108750000D01*
X168469239Y-108750000D01*
X167756656Y-108037418D01*
X167769919Y-108028883D01*
X167872668Y-107878505D01*
X167908816Y-107700000D01*
X167908816Y-106500000D01*
X167877438Y-106333240D01*
X167778883Y-106180081D01*
X167628505Y-106077332D01*
X167450000Y-106041184D01*
X166550000Y-106041184D01*
X166383240Y-106072562D01*
X166350000Y-106093951D01*
X166350000Y-105907981D01*
X166371495Y-105922668D01*
X166550000Y-105958816D01*
X167450000Y-105958816D01*
X167616760Y-105927438D01*
X167769919Y-105828883D01*
X167872668Y-105678505D01*
X167898691Y-105550000D01*
X168200000Y-105550000D01*
X168407476Y-105508731D01*
X168448745Y-105500522D01*
X168659619Y-105359619D01*
X170269239Y-103750000D01*
X172900000Y-103750000D01*
X173107476Y-103708731D01*
X173148745Y-103700522D01*
X173359619Y-103559619D01*
X174616658Y-102302581D01*
X174730290Y-102349765D01*
X175267353Y-102350234D01*
X175763715Y-102145142D01*
X176143807Y-101765712D01*
X176191855Y-101650000D01*
X177557872Y-101650000D01*
X177604858Y-101763715D01*
X177984288Y-102143807D01*
X178480290Y-102349765D01*
X179017353Y-102350234D01*
X179513715Y-102145142D01*
X179893807Y-101765712D01*
X180099765Y-101269710D01*
X180100234Y-100732647D01*
X179895142Y-100236285D01*
X179515712Y-99856193D01*
X179019710Y-99650235D01*
X178482647Y-99649766D01*
X177986285Y-99854858D01*
X177606193Y-100234288D01*
X177558145Y-100350000D01*
X176192128Y-100350000D01*
X176145142Y-100236285D01*
X175765712Y-99856193D01*
X175269710Y-99650235D01*
X174732647Y-99649766D01*
X174236285Y-99854858D01*
X173856193Y-100234288D01*
X173650235Y-100730290D01*
X173649766Y-101267353D01*
X173697612Y-101383149D01*
X172630762Y-102450000D01*
X170000000Y-102450000D01*
X169751256Y-102499478D01*
X169751254Y-102499479D01*
X169751255Y-102499479D01*
X169540380Y-102640381D01*
X167930762Y-104250000D01*
X167899408Y-104250000D01*
X167877438Y-104133240D01*
X167778883Y-103980081D01*
X167628505Y-103877332D01*
X167450000Y-103841184D01*
X167009425Y-103841184D01*
X167159620Y-103690989D01*
X167300522Y-103480114D01*
X167350000Y-103231370D01*
X167350000Y-103183927D01*
X167407143Y-103160316D01*
X167759081Y-102808993D01*
X167949783Y-102349731D01*
X167950217Y-101852450D01*
X167760316Y-101392857D01*
X167635032Y-101267353D01*
X169899766Y-101267353D01*
X170104858Y-101763715D01*
X170484288Y-102143807D01*
X170980290Y-102349765D01*
X171517353Y-102350234D01*
X172013715Y-102145142D01*
X172393807Y-101765712D01*
X172599765Y-101269710D01*
X172600234Y-100732647D01*
X172395142Y-100236285D01*
X172015712Y-99856193D01*
X171519710Y-99650235D01*
X170982647Y-99649766D01*
X170486285Y-99854858D01*
X170106193Y-100234288D01*
X169900235Y-100730290D01*
X169899766Y-101267353D01*
X167635032Y-101267353D01*
X167408993Y-101040919D01*
X166949731Y-100850217D01*
X166452450Y-100849783D01*
X165992857Y-101039684D01*
X165640919Y-101391007D01*
X165525000Y-101670171D01*
X165525000Y-97529588D01*
X165639684Y-97807143D01*
X165991007Y-98159081D01*
X166450269Y-98349783D01*
X166947550Y-98350217D01*
X167006586Y-98325824D01*
X167340381Y-98659619D01*
X167551255Y-98800522D01*
X167592524Y-98808731D01*
X167800000Y-98850000D01*
X172800000Y-98850000D01*
X173007476Y-98808731D01*
X173048745Y-98800522D01*
X173259619Y-98659619D01*
X174616658Y-97302581D01*
X174730290Y-97349765D01*
X175267353Y-97350234D01*
X175763715Y-97145142D01*
X176143807Y-96765712D01*
X176349765Y-96269710D01*
X176349767Y-96267353D01*
X177399766Y-96267353D01*
X177604858Y-96763715D01*
X177984288Y-97143807D01*
X178480290Y-97349765D01*
X179017353Y-97350234D01*
X179513715Y-97145142D01*
X179893807Y-96765712D01*
X180099765Y-96269710D01*
X180100234Y-95732647D01*
X179895142Y-95236285D01*
X179515712Y-94856193D01*
X179019710Y-94650235D01*
X178482647Y-94649766D01*
X177986285Y-94854858D01*
X177606193Y-95234288D01*
X177400235Y-95730290D01*
X177399766Y-96267353D01*
X176349767Y-96267353D01*
X176350234Y-95732647D01*
X176145142Y-95236285D01*
X175765712Y-94856193D01*
X175269710Y-94650235D01*
X174732647Y-94649766D01*
X174236285Y-94854858D01*
X173856193Y-95234288D01*
X173650235Y-95730290D01*
X173649766Y-96267353D01*
X173697612Y-96383149D01*
X172530762Y-97550000D01*
X168069238Y-97550000D01*
X167926072Y-97406834D01*
X167949783Y-97349731D01*
X167950217Y-96852450D01*
X167760316Y-96392857D01*
X167635032Y-96267353D01*
X169899766Y-96267353D01*
X170104858Y-96763715D01*
X170484288Y-97143807D01*
X170980290Y-97349765D01*
X171517353Y-97350234D01*
X172013715Y-97145142D01*
X172393807Y-96765712D01*
X172599765Y-96269710D01*
X172600234Y-95732647D01*
X172395142Y-95236285D01*
X172015712Y-94856193D01*
X171519710Y-94650235D01*
X170982647Y-94649766D01*
X170486285Y-94854858D01*
X170106193Y-95234288D01*
X169900235Y-95730290D01*
X169899766Y-96267353D01*
X167635032Y-96267353D01*
X167408993Y-96040919D01*
X166949731Y-95850217D01*
X166452450Y-95849783D01*
X165992857Y-96039684D01*
X165640919Y-96391007D01*
X165525000Y-96670171D01*
X165525000Y-92525000D01*
X184475000Y-92525000D01*
X184475000Y-110060729D01*
X184475000Y-110060729D01*
G37*
X184475000Y-110060729D02*
X184320842Y-109991290D01*
X183612132Y-110700000D01*
X184320842Y-111408710D01*
X184475000Y-111339271D01*
X184475000Y-115028395D01*
X184460316Y-114992857D01*
X184108993Y-114640919D01*
X183649731Y-114450217D01*
X183152450Y-114449783D01*
X182692857Y-114639684D01*
X182340919Y-114991007D01*
X182150217Y-115450269D01*
X182149797Y-115930964D01*
X182130762Y-115950000D01*
X178775845Y-115950000D01*
X178953583Y-115717073D01*
X179059737Y-115316599D01*
X178944608Y-115150000D01*
X178150000Y-115150000D01*
X178150000Y-115170000D01*
X177850000Y-115170000D01*
X177850000Y-115150000D01*
X177830000Y-115150000D01*
X177830000Y-114850000D01*
X177850000Y-114850000D01*
X177850000Y-113824578D01*
X178150000Y-113824578D01*
X178150000Y-114850000D01*
X178944608Y-114850000D01*
X179059737Y-114683401D01*
X178953583Y-114282927D01*
X178702255Y-113953560D01*
X178310725Y-113747030D01*
X178150000Y-113824578D01*
X177850000Y-113824578D01*
X177689275Y-113747030D01*
X177297745Y-113953560D01*
X177046417Y-114282927D01*
X176998281Y-114464522D01*
X176970074Y-114322713D01*
X176742462Y-113982069D01*
X176401818Y-113754457D01*
X176000000Y-113674531D01*
X175598182Y-113754457D01*
X175257538Y-113982069D01*
X175029926Y-114322713D01*
X175000000Y-114473162D01*
X174970074Y-114322713D01*
X174742462Y-113982069D01*
X174650000Y-113920288D01*
X174650000Y-111620842D01*
X182691290Y-111620842D01*
X182777433Y-111812085D01*
X183250400Y-111965679D01*
X183746142Y-111926583D01*
X184022567Y-111812085D01*
X184108710Y-111620842D01*
X183400000Y-110912132D01*
X182691290Y-111620842D01*
X174650000Y-111620842D01*
X174650000Y-110550400D01*
X182134321Y-110550400D01*
X182173417Y-111046142D01*
X182287915Y-111322567D01*
X182479158Y-111408710D01*
X183187868Y-110700000D01*
X182479158Y-109991290D01*
X182287915Y-110077433D01*
X182134321Y-110550400D01*
X174650000Y-110550400D01*
X174650000Y-110299408D01*
X174766760Y-110277438D01*
X174919919Y-110178883D01*
X175022668Y-110028505D01*
X175058816Y-109850000D01*
X175058816Y-109779158D01*
X182691290Y-109779158D01*
X183400000Y-110487868D01*
X184108710Y-109779158D01*
X184022567Y-109587915D01*
X183549600Y-109434321D01*
X183053858Y-109473417D01*
X182777433Y-109587915D01*
X182691290Y-109779158D01*
X175058816Y-109779158D01*
X175058816Y-108950000D01*
X175027438Y-108783240D01*
X174928883Y-108630081D01*
X174778505Y-108527332D01*
X174600000Y-108491184D01*
X174593793Y-108491184D01*
X174459619Y-108290380D01*
X173531739Y-107362500D01*
X182100000Y-107362500D01*
X182100000Y-107789511D01*
X182168509Y-107954905D01*
X182295096Y-108081492D01*
X182460490Y-108150000D01*
X182737500Y-108150000D01*
X182850000Y-108037500D01*
X182850000Y-107250000D01*
X183150000Y-107250000D01*
X183150000Y-108037500D01*
X183262500Y-108150000D01*
X183539510Y-108150000D01*
X183704904Y-108081492D01*
X183831491Y-107954905D01*
X183900000Y-107789511D01*
X183900000Y-107362500D01*
X183787500Y-107250000D01*
X183150000Y-107250000D01*
X182850000Y-107250000D01*
X182212500Y-107250000D01*
X182100000Y-107362500D01*
X173531739Y-107362500D01*
X172552581Y-106383342D01*
X172599765Y-106269710D01*
X172599767Y-106267353D01*
X173649766Y-106267353D01*
X173854858Y-106763715D01*
X174234288Y-107143807D01*
X174730290Y-107349765D01*
X175267353Y-107350234D01*
X175763715Y-107145142D01*
X176143807Y-106765712D01*
X176191855Y-106650000D01*
X177557872Y-106650000D01*
X177604858Y-106763715D01*
X177984288Y-107143807D01*
X178480290Y-107349765D01*
X179017353Y-107350234D01*
X179513715Y-107145142D01*
X179893807Y-106765712D01*
X180041308Y-106410489D01*
X182100000Y-106410489D01*
X182100000Y-106837500D01*
X182212500Y-106950000D01*
X182850000Y-106950000D01*
X182850000Y-106162500D01*
X183150000Y-106162500D01*
X183150000Y-106950000D01*
X183787500Y-106950000D01*
X183900000Y-106837500D01*
X183900000Y-106410489D01*
X183831491Y-106245095D01*
X183704904Y-106118508D01*
X183539510Y-106050000D01*
X183262500Y-106050000D01*
X183150000Y-106162500D01*
X182850000Y-106162500D01*
X182737500Y-106050000D01*
X182460490Y-106050000D01*
X182295096Y-106118508D01*
X182168509Y-106245095D01*
X182100000Y-106410489D01*
X180041308Y-106410489D01*
X180099765Y-106269710D01*
X180100234Y-105732647D01*
X180052388Y-105616850D01*
X180119238Y-105550000D01*
X182100592Y-105550000D01*
X182122562Y-105666760D01*
X182221117Y-105819919D01*
X182371495Y-105922668D01*
X182550000Y-105958816D01*
X183450000Y-105958816D01*
X183616760Y-105927438D01*
X183769919Y-105828883D01*
X183872668Y-105678505D01*
X183908816Y-105500000D01*
X183908816Y-104300000D01*
X183877438Y-104133240D01*
X183778883Y-103980081D01*
X183628505Y-103877332D01*
X183450000Y-103841184D01*
X182550000Y-103841184D01*
X182383240Y-103872562D01*
X182230081Y-103971117D01*
X182127332Y-104121495D01*
X182101309Y-104250000D01*
X179850000Y-104250000D01*
X179646990Y-104290381D01*
X179601255Y-104299478D01*
X179390381Y-104440381D01*
X179133343Y-104697419D01*
X179019710Y-104650235D01*
X178482647Y-104649766D01*
X177986285Y-104854858D01*
X177606193Y-105234288D01*
X177558145Y-105350000D01*
X176192128Y-105350000D01*
X176145142Y-105236285D01*
X175765712Y-104856193D01*
X175269710Y-104650235D01*
X174732647Y-104649766D01*
X174236285Y-104854858D01*
X173856193Y-105234288D01*
X173650235Y-105730290D01*
X173649766Y-106267353D01*
X172599767Y-106267353D01*
X172600234Y-105732647D01*
X172395142Y-105236285D01*
X172015712Y-104856193D01*
X171519710Y-104650235D01*
X170982647Y-104649766D01*
X170486285Y-104854858D01*
X170106193Y-105234288D01*
X169900235Y-105730290D01*
X169899766Y-106267353D01*
X170104858Y-106763715D01*
X170484288Y-107143807D01*
X170980290Y-107349765D01*
X171517353Y-107350234D01*
X171633150Y-107302388D01*
X173028041Y-108697280D01*
X172977332Y-108771495D01*
X172941184Y-108950000D01*
X172941184Y-109850000D01*
X172972562Y-110016760D01*
X173071117Y-110169919D01*
X173221495Y-110272668D01*
X173350000Y-110298691D01*
X173350000Y-113920288D01*
X173257538Y-113982069D01*
X173058816Y-114279476D01*
X173058816Y-114150000D01*
X173027438Y-113983240D01*
X172928883Y-113830081D01*
X172778505Y-113727332D01*
X172600000Y-113691184D01*
X171400000Y-113691184D01*
X171233240Y-113722562D01*
X171080081Y-113821117D01*
X170977332Y-113971495D01*
X170941184Y-114150000D01*
X170941184Y-115850000D01*
X170972562Y-116016760D01*
X171071117Y-116169919D01*
X171221495Y-116272668D01*
X171400000Y-116308816D01*
X172600000Y-116308816D01*
X172766760Y-116277438D01*
X172919919Y-116178883D01*
X173022668Y-116028505D01*
X173058816Y-115850000D01*
X173058816Y-115720524D01*
X173257538Y-116017931D01*
X173598182Y-116245543D01*
X174000000Y-116325469D01*
X174130310Y-116299549D01*
X174890380Y-117059619D01*
X175101255Y-117200522D01*
X175142524Y-117208731D01*
X175350000Y-117250000D01*
X182400000Y-117250000D01*
X182607476Y-117208731D01*
X182648745Y-117200522D01*
X182859619Y-117059619D01*
X183022507Y-116896732D01*
X183150269Y-116949783D01*
X183647550Y-116950217D01*
X184107143Y-116760316D01*
X184459081Y-116408993D01*
X184475000Y-116370656D01*
X184475000Y-117475000D01*
X165525000Y-117475000D01*
X165525000Y-107244238D01*
X165840380Y-107559619D01*
X166051255Y-107700522D01*
X166092524Y-107708731D01*
X166092839Y-107708793D01*
X166122562Y-107866760D01*
X166221117Y-108019919D01*
X166350000Y-108107981D01*
X166350000Y-108200000D01*
X166367978Y-108290380D01*
X166399478Y-108448745D01*
X166540381Y-108659619D01*
X167740380Y-109859619D01*
X167951255Y-110000522D01*
X167992524Y-110008731D01*
X168200000Y-110050000D01*
X170793951Y-110050000D01*
X170871117Y-110169919D01*
X171021495Y-110272668D01*
X171200000Y-110308816D01*
X172400000Y-110308816D01*
X172566760Y-110277438D01*
X172719919Y-110178883D01*
X172822668Y-110028505D01*
X172858816Y-109850000D01*
X172858816Y-108950000D01*
X172827438Y-108783240D01*
X172728883Y-108630081D01*
X172578505Y-108527332D01*
X172400000Y-108491184D01*
X171200000Y-108491184D01*
X171033240Y-108522562D01*
X170880081Y-108621117D01*
X170792019Y-108750000D01*
X168469239Y-108750000D01*
X167756656Y-108037418D01*
X167769919Y-108028883D01*
X167872668Y-107878505D01*
X167908816Y-107700000D01*
X167908816Y-106500000D01*
X167877438Y-106333240D01*
X167778883Y-106180081D01*
X167628505Y-106077332D01*
X167450000Y-106041184D01*
X166550000Y-106041184D01*
X166383240Y-106072562D01*
X166350000Y-106093951D01*
X166350000Y-105907981D01*
X166371495Y-105922668D01*
X166550000Y-105958816D01*
X167450000Y-105958816D01*
X167616760Y-105927438D01*
X167769919Y-105828883D01*
X167872668Y-105678505D01*
X167898691Y-105550000D01*
X168200000Y-105550000D01*
X168407476Y-105508731D01*
X168448745Y-105500522D01*
X168659619Y-105359619D01*
X170269239Y-103750000D01*
X172900000Y-103750000D01*
X173107476Y-103708731D01*
X173148745Y-103700522D01*
X173359619Y-103559619D01*
X174616658Y-102302581D01*
X174730290Y-102349765D01*
X175267353Y-102350234D01*
X175763715Y-102145142D01*
X176143807Y-101765712D01*
X176191855Y-101650000D01*
X177557872Y-101650000D01*
X177604858Y-101763715D01*
X177984288Y-102143807D01*
X178480290Y-102349765D01*
X179017353Y-102350234D01*
X179513715Y-102145142D01*
X179893807Y-101765712D01*
X180099765Y-101269710D01*
X180100234Y-100732647D01*
X179895142Y-100236285D01*
X179515712Y-99856193D01*
X179019710Y-99650235D01*
X178482647Y-99649766D01*
X177986285Y-99854858D01*
X177606193Y-100234288D01*
X177558145Y-100350000D01*
X176192128Y-100350000D01*
X176145142Y-100236285D01*
X175765712Y-99856193D01*
X175269710Y-99650235D01*
X174732647Y-99649766D01*
X174236285Y-99854858D01*
X173856193Y-100234288D01*
X173650235Y-100730290D01*
X173649766Y-101267353D01*
X173697612Y-101383149D01*
X172630762Y-102450000D01*
X170000000Y-102450000D01*
X169751256Y-102499478D01*
X169751254Y-102499479D01*
X169751255Y-102499479D01*
X169540380Y-102640381D01*
X167930762Y-104250000D01*
X167899408Y-104250000D01*
X167877438Y-104133240D01*
X167778883Y-103980081D01*
X167628505Y-103877332D01*
X167450000Y-103841184D01*
X167009425Y-103841184D01*
X167159620Y-103690989D01*
X167300522Y-103480114D01*
X167350000Y-103231370D01*
X167350000Y-103183927D01*
X167407143Y-103160316D01*
X167759081Y-102808993D01*
X167949783Y-102349731D01*
X167950217Y-101852450D01*
X167760316Y-101392857D01*
X167635032Y-101267353D01*
X169899766Y-101267353D01*
X170104858Y-101763715D01*
X170484288Y-102143807D01*
X170980290Y-102349765D01*
X171517353Y-102350234D01*
X172013715Y-102145142D01*
X172393807Y-101765712D01*
X172599765Y-101269710D01*
X172600234Y-100732647D01*
X172395142Y-100236285D01*
X172015712Y-99856193D01*
X171519710Y-99650235D01*
X170982647Y-99649766D01*
X170486285Y-99854858D01*
X170106193Y-100234288D01*
X169900235Y-100730290D01*
X169899766Y-101267353D01*
X167635032Y-101267353D01*
X167408993Y-101040919D01*
X166949731Y-100850217D01*
X166452450Y-100849783D01*
X165992857Y-101039684D01*
X165640919Y-101391007D01*
X165525000Y-101670171D01*
X165525000Y-97529588D01*
X165639684Y-97807143D01*
X165991007Y-98159081D01*
X166450269Y-98349783D01*
X166947550Y-98350217D01*
X167006586Y-98325824D01*
X167340381Y-98659619D01*
X167551255Y-98800522D01*
X167592524Y-98808731D01*
X167800000Y-98850000D01*
X172800000Y-98850000D01*
X173007476Y-98808731D01*
X173048745Y-98800522D01*
X173259619Y-98659619D01*
X174616658Y-97302581D01*
X174730290Y-97349765D01*
X175267353Y-97350234D01*
X175763715Y-97145142D01*
X176143807Y-96765712D01*
X176349765Y-96269710D01*
X176349767Y-96267353D01*
X177399766Y-96267353D01*
X177604858Y-96763715D01*
X177984288Y-97143807D01*
X178480290Y-97349765D01*
X179017353Y-97350234D01*
X179513715Y-97145142D01*
X179893807Y-96765712D01*
X180099765Y-96269710D01*
X180100234Y-95732647D01*
X179895142Y-95236285D01*
X179515712Y-94856193D01*
X179019710Y-94650235D01*
X178482647Y-94649766D01*
X177986285Y-94854858D01*
X177606193Y-95234288D01*
X177400235Y-95730290D01*
X177399766Y-96267353D01*
X176349767Y-96267353D01*
X176350234Y-95732647D01*
X176145142Y-95236285D01*
X175765712Y-94856193D01*
X175269710Y-94650235D01*
X174732647Y-94649766D01*
X174236285Y-94854858D01*
X173856193Y-95234288D01*
X173650235Y-95730290D01*
X173649766Y-96267353D01*
X173697612Y-96383149D01*
X172530762Y-97550000D01*
X168069238Y-97550000D01*
X167926072Y-97406834D01*
X167949783Y-97349731D01*
X167950217Y-96852450D01*
X167760316Y-96392857D01*
X167635032Y-96267353D01*
X169899766Y-96267353D01*
X170104858Y-96763715D01*
X170484288Y-97143807D01*
X170980290Y-97349765D01*
X171517353Y-97350234D01*
X172013715Y-97145142D01*
X172393807Y-96765712D01*
X172599765Y-96269710D01*
X172600234Y-95732647D01*
X172395142Y-95236285D01*
X172015712Y-94856193D01*
X171519710Y-94650235D01*
X170982647Y-94649766D01*
X170486285Y-94854858D01*
X170106193Y-95234288D01*
X169900235Y-95730290D01*
X169899766Y-96267353D01*
X167635032Y-96267353D01*
X167408993Y-96040919D01*
X166949731Y-95850217D01*
X166452450Y-95849783D01*
X165992857Y-96039684D01*
X165640919Y-96391007D01*
X165525000Y-96670171D01*
X165525000Y-92525000D01*
X184475000Y-92525000D01*
X184475000Y-110060729D01*
M02*
