M48
;DRILL file {KiCad 4.0.4-1.fc24-product} date Thu Mar  1 09:37:04 2018
;FORMAT={-:-/ absolute / metric / decimal}
FMAT,2
METRIC,TZ
T1C0.400
T2C0.750
T3C1.000
T4C1.097
%
G90
G05
M71
T1
X161.6Y-85.6
X163.8Y-80.3
X167.Y-83.5
X167.35Y-75.4
X168.22Y-84.7
X172.5Y-77.
X175.1Y-77.
X177.Y-89.14
X178.36Y-81.6
T2
X155.2Y-73.3
X157.2Y-73.3
X159.2Y-73.3
X163.8Y-73.3
X165.8Y-73.3
X170.4Y-73.3
X172.4Y-73.3
X174.4Y-73.3
X176.4Y-73.3
T3
X153.Y-79.85
X153.Y-83.6
X153.Y-87.35
X155.46Y-92.95
X158.Y-79.85
X158.Y-83.6
X158.Y-87.35
X158.Y-92.95
X160.54Y-92.95
T4
X165.92Y-92.7
X168.46Y-92.7
X171.Y-92.7
X174.4Y-92.7
X176.94Y-92.7
T0
M30
