G04 #@! TF.FileFunction,Copper,L2,Bot,Signal*
%FSLAX46Y46*%
G04 Gerber Fmt 4.6, Leading zero omitted, Abs format (unit mm)*
G04 Created by KiCad (PCBNEW 4.0.7) date 01/11/18 21:38:16*
%MOMM*%
%LPD*%
G01*
G04 APERTURE LIST*
%ADD10C,0.100000*%
%ADD11C,1.800000*%
%ADD12O,1.998980X1.998980*%
%ADD13R,1.998980X1.998980*%
%ADD14R,1.200000X0.900000*%
%ADD15R,1.500000X1.250000*%
%ADD16R,1.500000X1.500000*%
%ADD17C,1.500000*%
%ADD18C,0.600000*%
%ADD19C,0.300000*%
%ADD20C,0.500000*%
G04 APERTURE END LIST*
D10*
D11*
X154450000Y-105000000D03*
X151950000Y-105000000D03*
X149450000Y-105000000D03*
X149450000Y-95000000D03*
X151950000Y-95000000D03*
X154450000Y-95000000D03*
X149450000Y-97500000D03*
X151950000Y-97500000D03*
X154450000Y-97500000D03*
X149450000Y-102500000D03*
X151950000Y-102500000D03*
X154450000Y-102500000D03*
D12*
X140400000Y-120200000D03*
D13*
X140400000Y-117660000D03*
D14*
X143900000Y-98500000D03*
X141700000Y-98500000D03*
D15*
X149050000Y-114100000D03*
X151550000Y-114100000D03*
D16*
X148000000Y-118500000D03*
D17*
X150000000Y-118500000D03*
X152000000Y-118500000D03*
X154000000Y-118500000D03*
X156000000Y-118500000D03*
D18*
X163000004Y-97000000D03*
X157499996Y-111400000D03*
X164400000Y-101400000D03*
X138400000Y-101399990D03*
X138400008Y-104300000D03*
X138400000Y-110700000D03*
X138400000Y-113500000D03*
X154600000Y-113200000D03*
X142500000Y-99900000D03*
X143019662Y-104380338D03*
X159900000Y-107200002D03*
X162800000Y-103100000D03*
D19*
X162700005Y-97299999D02*
X163000004Y-97000000D01*
X159450008Y-100549996D02*
X162700005Y-97299999D01*
X157499996Y-100549996D02*
X159450008Y-100549996D01*
X157499996Y-110975736D02*
X157499996Y-111400000D01*
X155386100Y-98436100D02*
X157499996Y-100549996D01*
X157499996Y-100549996D02*
X157499996Y-110975736D01*
X155386100Y-98436100D02*
X155386100Y-98413900D01*
X155386100Y-98436100D02*
X154450000Y-97500000D01*
X154850004Y-97099996D02*
X154450000Y-97500000D01*
D20*
X148000000Y-118500000D02*
X148000000Y-115150000D01*
X148000000Y-115150000D02*
X149050000Y-114100000D01*
X152000000Y-118500000D02*
X152000000Y-114550000D01*
X152000000Y-114550000D02*
X151550000Y-114100000D01*
D19*
X145450000Y-98500000D02*
X149450000Y-102500000D01*
X143900000Y-98500000D02*
X145450000Y-98500000D01*
X154300001Y-112900001D02*
X154600000Y-113200000D01*
X142500000Y-101100000D02*
X154300001Y-112900001D01*
X142500000Y-99900000D02*
X142500000Y-101100000D01*
X143443926Y-104380338D02*
X143019662Y-104380338D01*
X144631796Y-104380338D02*
X143443926Y-104380338D01*
X156000000Y-115748542D02*
X144631796Y-104380338D01*
X156000000Y-118500000D02*
X156000000Y-115748542D01*
X141700000Y-98500000D02*
X141700000Y-103060676D01*
X141700000Y-103060676D02*
X142719663Y-104080339D01*
X142719663Y-104080339D02*
X143019662Y-104380338D01*
X159900000Y-106775738D02*
X159900000Y-107200002D01*
X159900000Y-106000000D02*
X159900000Y-106775738D01*
X162800000Y-103100000D02*
X159900000Y-106000000D01*
G36*
X166475000Y-121475000D02*
X141076677Y-121475000D01*
X141126069Y-121454543D01*
X141550893Y-121081192D01*
X141800504Y-120573688D01*
X141729219Y-120350000D01*
X140550000Y-120350000D01*
X140550000Y-120370000D01*
X140250000Y-120370000D01*
X140250000Y-120350000D01*
X139070781Y-120350000D01*
X138999496Y-120573688D01*
X139249107Y-121081192D01*
X139673931Y-121454543D01*
X139723323Y-121475000D01*
X137525000Y-121475000D01*
X137525000Y-116660510D01*
X138941694Y-116660510D01*
X138941694Y-118659490D01*
X138973072Y-118826250D01*
X139071627Y-118979409D01*
X139222005Y-119082158D01*
X139400510Y-119118306D01*
X139477252Y-119118306D01*
X139249107Y-119318808D01*
X138999496Y-119826312D01*
X139070781Y-120050000D01*
X140250000Y-120050000D01*
X140250000Y-120030000D01*
X140550000Y-120030000D01*
X140550000Y-120050000D01*
X141729219Y-120050000D01*
X141800504Y-119826312D01*
X141550893Y-119318808D01*
X141322748Y-119118306D01*
X141399490Y-119118306D01*
X141566250Y-119086928D01*
X141719409Y-118988373D01*
X141822158Y-118837995D01*
X141858306Y-118659490D01*
X141858306Y-117750000D01*
X146791184Y-117750000D01*
X146791184Y-119250000D01*
X146822562Y-119416760D01*
X146921117Y-119569919D01*
X147071495Y-119672668D01*
X147250000Y-119708816D01*
X148750000Y-119708816D01*
X148916760Y-119677438D01*
X149069919Y-119578883D01*
X149172668Y-119428505D01*
X149177668Y-119403816D01*
X149242993Y-119469141D01*
X149327658Y-119384476D01*
X149407617Y-119570540D01*
X149862388Y-119715745D01*
X150338108Y-119675864D01*
X150592383Y-119570540D01*
X150672343Y-119384475D01*
X150000000Y-118712132D01*
X149985858Y-118726275D01*
X149773726Y-118514143D01*
X149787868Y-118500000D01*
X149773726Y-118485858D01*
X149985858Y-118273726D01*
X150000000Y-118287868D01*
X150672343Y-117615525D01*
X150592383Y-117429460D01*
X150137612Y-117284255D01*
X149661892Y-117324136D01*
X149407617Y-117429460D01*
X149327658Y-117615524D01*
X149242993Y-117530859D01*
X149179524Y-117594328D01*
X149177438Y-117583240D01*
X149078883Y-117430081D01*
X148928505Y-117327332D01*
X148750000Y-117291184D01*
X148700000Y-117291184D01*
X148700000Y-115439950D01*
X148956134Y-115183816D01*
X149800000Y-115183816D01*
X149966760Y-115152438D01*
X150119919Y-115053883D01*
X150222668Y-114903505D01*
X150258816Y-114725000D01*
X150258816Y-113475000D01*
X150227438Y-113308240D01*
X150128883Y-113155081D01*
X149978505Y-113052332D01*
X149800000Y-113016184D01*
X148300000Y-113016184D01*
X148133240Y-113047562D01*
X147980081Y-113146117D01*
X147877332Y-113296495D01*
X147841184Y-113475000D01*
X147841184Y-114318866D01*
X147505025Y-114655025D01*
X147353284Y-114882121D01*
X147320902Y-115044919D01*
X147300000Y-115150000D01*
X147300000Y-117291184D01*
X147250000Y-117291184D01*
X147083240Y-117322562D01*
X146930081Y-117421117D01*
X146827332Y-117571495D01*
X146791184Y-117750000D01*
X141858306Y-117750000D01*
X141858306Y-116660510D01*
X141826928Y-116493750D01*
X141728373Y-116340591D01*
X141577995Y-116237842D01*
X141399490Y-116201694D01*
X139400510Y-116201694D01*
X139233750Y-116233072D01*
X139080591Y-116331627D01*
X138977842Y-116482005D01*
X138941694Y-116660510D01*
X137525000Y-116660510D01*
X137525000Y-98050000D01*
X140641184Y-98050000D01*
X140641184Y-98950000D01*
X140672562Y-99116760D01*
X140771117Y-99269919D01*
X140921495Y-99372668D01*
X141100000Y-99408816D01*
X141100000Y-103060676D01*
X141145672Y-103290286D01*
X141275736Y-103484940D01*
X142269576Y-104478780D01*
X142269532Y-104528868D01*
X142383473Y-104804624D01*
X142594267Y-105015786D01*
X142869823Y-105130207D01*
X143168192Y-105130468D01*
X143443948Y-105016527D01*
X143480200Y-104980338D01*
X144383268Y-104980338D01*
X152449360Y-113046430D01*
X152300000Y-113016184D01*
X150800000Y-113016184D01*
X150633240Y-113047562D01*
X150480081Y-113146117D01*
X150377332Y-113296495D01*
X150341184Y-113475000D01*
X150341184Y-114725000D01*
X150372562Y-114891760D01*
X150471117Y-115044919D01*
X150621495Y-115147668D01*
X150800000Y-115183816D01*
X151300000Y-115183816D01*
X151300000Y-117503203D01*
X150983283Y-117819367D01*
X150965400Y-117862434D01*
X150884475Y-117827657D01*
X150212132Y-118500000D01*
X150884475Y-119172343D01*
X150965091Y-119137699D01*
X150982097Y-119178857D01*
X151319367Y-119516717D01*
X151760258Y-119699791D01*
X152237647Y-119700207D01*
X152678857Y-119517903D01*
X153000265Y-119197057D01*
X153319367Y-119516717D01*
X153760258Y-119699791D01*
X154237647Y-119700207D01*
X154678857Y-119517903D01*
X155000265Y-119197057D01*
X155319367Y-119516717D01*
X155760258Y-119699791D01*
X156237647Y-119700207D01*
X156678857Y-119517903D01*
X157016717Y-119180633D01*
X157199791Y-118739742D01*
X157200207Y-118262353D01*
X157017903Y-117821143D01*
X156680633Y-117483283D01*
X156600000Y-117449801D01*
X156600000Y-115748542D01*
X156554328Y-115518932D01*
X156424264Y-115324278D01*
X154961937Y-113861951D01*
X155024286Y-113836189D01*
X155235448Y-113625395D01*
X155349869Y-113349839D01*
X155350130Y-113051470D01*
X155236189Y-112775714D01*
X155025395Y-112564552D01*
X154749839Y-112450131D01*
X154698614Y-112450086D01*
X143100000Y-100851472D01*
X143100000Y-100360781D01*
X143135448Y-100325395D01*
X143249869Y-100049839D01*
X143250130Y-99751470D01*
X143136189Y-99475714D01*
X142925395Y-99264552D01*
X142695061Y-99168909D01*
X142722668Y-99128505D01*
X142758816Y-98950000D01*
X142758816Y-98050000D01*
X142841184Y-98050000D01*
X142841184Y-98950000D01*
X142872562Y-99116760D01*
X142971117Y-99269919D01*
X143121495Y-99372668D01*
X143300000Y-99408816D01*
X144500000Y-99408816D01*
X144666760Y-99377438D01*
X144819919Y-99278883D01*
X144922668Y-99128505D01*
X144928440Y-99100000D01*
X145201472Y-99100000D01*
X148168166Y-102066694D01*
X148100235Y-102230290D01*
X148099766Y-102767353D01*
X148304858Y-103263715D01*
X148684288Y-103643807D01*
X148940045Y-103750007D01*
X148686285Y-103854858D01*
X148306193Y-104234288D01*
X148100235Y-104730290D01*
X148099766Y-105267353D01*
X148304858Y-105763715D01*
X148684288Y-106143807D01*
X149180290Y-106349765D01*
X149717353Y-106350234D01*
X150213715Y-106145142D01*
X150593807Y-105765712D01*
X150700007Y-105509955D01*
X150804858Y-105763715D01*
X151184288Y-106143807D01*
X151680290Y-106349765D01*
X152217353Y-106350234D01*
X152713715Y-106145142D01*
X153093807Y-105765712D01*
X153200007Y-105509955D01*
X153304858Y-105763715D01*
X153684288Y-106143807D01*
X154180290Y-106349765D01*
X154717353Y-106350234D01*
X155213715Y-106145142D01*
X155593807Y-105765712D01*
X155799765Y-105269710D01*
X155800234Y-104732647D01*
X155595142Y-104236285D01*
X155215712Y-103856193D01*
X154959955Y-103749993D01*
X155213715Y-103645142D01*
X155593807Y-103265712D01*
X155799765Y-102769710D01*
X155800234Y-102232647D01*
X155595142Y-101736285D01*
X155215712Y-101356193D01*
X154719710Y-101150235D01*
X154182647Y-101149766D01*
X153686285Y-101354858D01*
X153306193Y-101734288D01*
X153199993Y-101990045D01*
X153095142Y-101736285D01*
X152715712Y-101356193D01*
X152219710Y-101150235D01*
X151682647Y-101149766D01*
X151186285Y-101354858D01*
X150806193Y-101734288D01*
X150699993Y-101990045D01*
X150595142Y-101736285D01*
X150215712Y-101356193D01*
X149719710Y-101150235D01*
X149182647Y-101149766D01*
X149016814Y-101218286D01*
X145874264Y-98075736D01*
X145679610Y-97945672D01*
X145450000Y-97900000D01*
X144930592Y-97900000D01*
X144927438Y-97883240D01*
X144828883Y-97730081D01*
X144678505Y-97627332D01*
X144500000Y-97591184D01*
X143300000Y-97591184D01*
X143133240Y-97622562D01*
X142980081Y-97721117D01*
X142877332Y-97871495D01*
X142841184Y-98050000D01*
X142758816Y-98050000D01*
X142727438Y-97883240D01*
X142628883Y-97730081D01*
X142478505Y-97627332D01*
X142300000Y-97591184D01*
X141100000Y-97591184D01*
X140933240Y-97622562D01*
X140780081Y-97721117D01*
X140677332Y-97871495D01*
X140641184Y-98050000D01*
X137525000Y-98050000D01*
X137525000Y-95267353D01*
X148099766Y-95267353D01*
X148304858Y-95763715D01*
X148684288Y-96143807D01*
X148940045Y-96250007D01*
X148686285Y-96354858D01*
X148306193Y-96734288D01*
X148100235Y-97230290D01*
X148099766Y-97767353D01*
X148304858Y-98263715D01*
X148684288Y-98643807D01*
X149180290Y-98849765D01*
X149717353Y-98850234D01*
X150213715Y-98645142D01*
X150593807Y-98265712D01*
X150700007Y-98009955D01*
X150804858Y-98263715D01*
X151184288Y-98643807D01*
X151680290Y-98849765D01*
X152217353Y-98850234D01*
X152713715Y-98645142D01*
X153093807Y-98265712D01*
X153200007Y-98009955D01*
X153304858Y-98263715D01*
X153684288Y-98643807D01*
X154180290Y-98849765D01*
X154717353Y-98850234D01*
X154883186Y-98781714D01*
X156899996Y-100798524D01*
X156899996Y-110939219D01*
X156864548Y-110974605D01*
X156750127Y-111250161D01*
X156749866Y-111548530D01*
X156863807Y-111824286D01*
X157074601Y-112035448D01*
X157350157Y-112149869D01*
X157648526Y-112150130D01*
X157924282Y-112036189D01*
X158135444Y-111825395D01*
X158249865Y-111549839D01*
X158250126Y-111251470D01*
X158136185Y-110975714D01*
X158099996Y-110939462D01*
X158099996Y-107348532D01*
X159149870Y-107348532D01*
X159263811Y-107624288D01*
X159474605Y-107835450D01*
X159750161Y-107949871D01*
X160048530Y-107950132D01*
X160324286Y-107836191D01*
X160535448Y-107625397D01*
X160649869Y-107349841D01*
X160650130Y-107051472D01*
X160536189Y-106775716D01*
X160500000Y-106739464D01*
X160500000Y-106248528D01*
X162898442Y-103850086D01*
X162948530Y-103850130D01*
X163224286Y-103736189D01*
X163435448Y-103525395D01*
X163549869Y-103249839D01*
X163550130Y-102951470D01*
X163436189Y-102675714D01*
X163225395Y-102464552D01*
X162949839Y-102350131D01*
X162651470Y-102349870D01*
X162375714Y-102463811D01*
X162164552Y-102674605D01*
X162050131Y-102950161D01*
X162050086Y-103001386D01*
X159475736Y-105575736D01*
X159345672Y-105770390D01*
X159300000Y-106000000D01*
X159300000Y-106739221D01*
X159264552Y-106774607D01*
X159150131Y-107050163D01*
X159149870Y-107348532D01*
X158099996Y-107348532D01*
X158099996Y-101149996D01*
X159450008Y-101149996D01*
X159679618Y-101104324D01*
X159874272Y-100974260D01*
X163098446Y-97750086D01*
X163148534Y-97750130D01*
X163424290Y-97636189D01*
X163635452Y-97425395D01*
X163749873Y-97149839D01*
X163750134Y-96851470D01*
X163636193Y-96575714D01*
X163425399Y-96364552D01*
X163149843Y-96250131D01*
X162851474Y-96249870D01*
X162575718Y-96363811D01*
X162364556Y-96574605D01*
X162250135Y-96850161D01*
X162250090Y-96901386D01*
X159201480Y-99949996D01*
X157748524Y-99949996D01*
X155855068Y-98056540D01*
X155810364Y-97989636D01*
X155743460Y-97944932D01*
X155731834Y-97933306D01*
X155799765Y-97769710D01*
X155800234Y-97232647D01*
X155595142Y-96736285D01*
X155215712Y-96356193D01*
X154959955Y-96249993D01*
X155213715Y-96145142D01*
X155593807Y-95765712D01*
X155799765Y-95269710D01*
X155800234Y-94732647D01*
X155595142Y-94236285D01*
X155215712Y-93856193D01*
X154719710Y-93650235D01*
X154182647Y-93649766D01*
X153686285Y-93854858D01*
X153306193Y-94234288D01*
X153199993Y-94490045D01*
X153095142Y-94236285D01*
X152715712Y-93856193D01*
X152219710Y-93650235D01*
X151682647Y-93649766D01*
X151186285Y-93854858D01*
X150806193Y-94234288D01*
X150699993Y-94490045D01*
X150595142Y-94236285D01*
X150215712Y-93856193D01*
X149719710Y-93650235D01*
X149182647Y-93649766D01*
X148686285Y-93854858D01*
X148306193Y-94234288D01*
X148100235Y-94730290D01*
X148099766Y-95267353D01*
X137525000Y-95267353D01*
X137525000Y-92525000D01*
X166475000Y-92525000D01*
X166475000Y-121475000D01*
X166475000Y-121475000D01*
G37*
X166475000Y-121475000D02*
X141076677Y-121475000D01*
X141126069Y-121454543D01*
X141550893Y-121081192D01*
X141800504Y-120573688D01*
X141729219Y-120350000D01*
X140550000Y-120350000D01*
X140550000Y-120370000D01*
X140250000Y-120370000D01*
X140250000Y-120350000D01*
X139070781Y-120350000D01*
X138999496Y-120573688D01*
X139249107Y-121081192D01*
X139673931Y-121454543D01*
X139723323Y-121475000D01*
X137525000Y-121475000D01*
X137525000Y-116660510D01*
X138941694Y-116660510D01*
X138941694Y-118659490D01*
X138973072Y-118826250D01*
X139071627Y-118979409D01*
X139222005Y-119082158D01*
X139400510Y-119118306D01*
X139477252Y-119118306D01*
X139249107Y-119318808D01*
X138999496Y-119826312D01*
X139070781Y-120050000D01*
X140250000Y-120050000D01*
X140250000Y-120030000D01*
X140550000Y-120030000D01*
X140550000Y-120050000D01*
X141729219Y-120050000D01*
X141800504Y-119826312D01*
X141550893Y-119318808D01*
X141322748Y-119118306D01*
X141399490Y-119118306D01*
X141566250Y-119086928D01*
X141719409Y-118988373D01*
X141822158Y-118837995D01*
X141858306Y-118659490D01*
X141858306Y-117750000D01*
X146791184Y-117750000D01*
X146791184Y-119250000D01*
X146822562Y-119416760D01*
X146921117Y-119569919D01*
X147071495Y-119672668D01*
X147250000Y-119708816D01*
X148750000Y-119708816D01*
X148916760Y-119677438D01*
X149069919Y-119578883D01*
X149172668Y-119428505D01*
X149177668Y-119403816D01*
X149242993Y-119469141D01*
X149327658Y-119384476D01*
X149407617Y-119570540D01*
X149862388Y-119715745D01*
X150338108Y-119675864D01*
X150592383Y-119570540D01*
X150672343Y-119384475D01*
X150000000Y-118712132D01*
X149985858Y-118726275D01*
X149773726Y-118514143D01*
X149787868Y-118500000D01*
X149773726Y-118485858D01*
X149985858Y-118273726D01*
X150000000Y-118287868D01*
X150672343Y-117615525D01*
X150592383Y-117429460D01*
X150137612Y-117284255D01*
X149661892Y-117324136D01*
X149407617Y-117429460D01*
X149327658Y-117615524D01*
X149242993Y-117530859D01*
X149179524Y-117594328D01*
X149177438Y-117583240D01*
X149078883Y-117430081D01*
X148928505Y-117327332D01*
X148750000Y-117291184D01*
X148700000Y-117291184D01*
X148700000Y-115439950D01*
X148956134Y-115183816D01*
X149800000Y-115183816D01*
X149966760Y-115152438D01*
X150119919Y-115053883D01*
X150222668Y-114903505D01*
X150258816Y-114725000D01*
X150258816Y-113475000D01*
X150227438Y-113308240D01*
X150128883Y-113155081D01*
X149978505Y-113052332D01*
X149800000Y-113016184D01*
X148300000Y-113016184D01*
X148133240Y-113047562D01*
X147980081Y-113146117D01*
X147877332Y-113296495D01*
X147841184Y-113475000D01*
X147841184Y-114318866D01*
X147505025Y-114655025D01*
X147353284Y-114882121D01*
X147320902Y-115044919D01*
X147300000Y-115150000D01*
X147300000Y-117291184D01*
X147250000Y-117291184D01*
X147083240Y-117322562D01*
X146930081Y-117421117D01*
X146827332Y-117571495D01*
X146791184Y-117750000D01*
X141858306Y-117750000D01*
X141858306Y-116660510D01*
X141826928Y-116493750D01*
X141728373Y-116340591D01*
X141577995Y-116237842D01*
X141399490Y-116201694D01*
X139400510Y-116201694D01*
X139233750Y-116233072D01*
X139080591Y-116331627D01*
X138977842Y-116482005D01*
X138941694Y-116660510D01*
X137525000Y-116660510D01*
X137525000Y-98050000D01*
X140641184Y-98050000D01*
X140641184Y-98950000D01*
X140672562Y-99116760D01*
X140771117Y-99269919D01*
X140921495Y-99372668D01*
X141100000Y-99408816D01*
X141100000Y-103060676D01*
X141145672Y-103290286D01*
X141275736Y-103484940D01*
X142269576Y-104478780D01*
X142269532Y-104528868D01*
X142383473Y-104804624D01*
X142594267Y-105015786D01*
X142869823Y-105130207D01*
X143168192Y-105130468D01*
X143443948Y-105016527D01*
X143480200Y-104980338D01*
X144383268Y-104980338D01*
X152449360Y-113046430D01*
X152300000Y-113016184D01*
X150800000Y-113016184D01*
X150633240Y-113047562D01*
X150480081Y-113146117D01*
X150377332Y-113296495D01*
X150341184Y-113475000D01*
X150341184Y-114725000D01*
X150372562Y-114891760D01*
X150471117Y-115044919D01*
X150621495Y-115147668D01*
X150800000Y-115183816D01*
X151300000Y-115183816D01*
X151300000Y-117503203D01*
X150983283Y-117819367D01*
X150965400Y-117862434D01*
X150884475Y-117827657D01*
X150212132Y-118500000D01*
X150884475Y-119172343D01*
X150965091Y-119137699D01*
X150982097Y-119178857D01*
X151319367Y-119516717D01*
X151760258Y-119699791D01*
X152237647Y-119700207D01*
X152678857Y-119517903D01*
X153000265Y-119197057D01*
X153319367Y-119516717D01*
X153760258Y-119699791D01*
X154237647Y-119700207D01*
X154678857Y-119517903D01*
X155000265Y-119197057D01*
X155319367Y-119516717D01*
X155760258Y-119699791D01*
X156237647Y-119700207D01*
X156678857Y-119517903D01*
X157016717Y-119180633D01*
X157199791Y-118739742D01*
X157200207Y-118262353D01*
X157017903Y-117821143D01*
X156680633Y-117483283D01*
X156600000Y-117449801D01*
X156600000Y-115748542D01*
X156554328Y-115518932D01*
X156424264Y-115324278D01*
X154961937Y-113861951D01*
X155024286Y-113836189D01*
X155235448Y-113625395D01*
X155349869Y-113349839D01*
X155350130Y-113051470D01*
X155236189Y-112775714D01*
X155025395Y-112564552D01*
X154749839Y-112450131D01*
X154698614Y-112450086D01*
X143100000Y-100851472D01*
X143100000Y-100360781D01*
X143135448Y-100325395D01*
X143249869Y-100049839D01*
X143250130Y-99751470D01*
X143136189Y-99475714D01*
X142925395Y-99264552D01*
X142695061Y-99168909D01*
X142722668Y-99128505D01*
X142758816Y-98950000D01*
X142758816Y-98050000D01*
X142841184Y-98050000D01*
X142841184Y-98950000D01*
X142872562Y-99116760D01*
X142971117Y-99269919D01*
X143121495Y-99372668D01*
X143300000Y-99408816D01*
X144500000Y-99408816D01*
X144666760Y-99377438D01*
X144819919Y-99278883D01*
X144922668Y-99128505D01*
X144928440Y-99100000D01*
X145201472Y-99100000D01*
X148168166Y-102066694D01*
X148100235Y-102230290D01*
X148099766Y-102767353D01*
X148304858Y-103263715D01*
X148684288Y-103643807D01*
X148940045Y-103750007D01*
X148686285Y-103854858D01*
X148306193Y-104234288D01*
X148100235Y-104730290D01*
X148099766Y-105267353D01*
X148304858Y-105763715D01*
X148684288Y-106143807D01*
X149180290Y-106349765D01*
X149717353Y-106350234D01*
X150213715Y-106145142D01*
X150593807Y-105765712D01*
X150700007Y-105509955D01*
X150804858Y-105763715D01*
X151184288Y-106143807D01*
X151680290Y-106349765D01*
X152217353Y-106350234D01*
X152713715Y-106145142D01*
X153093807Y-105765712D01*
X153200007Y-105509955D01*
X153304858Y-105763715D01*
X153684288Y-106143807D01*
X154180290Y-106349765D01*
X154717353Y-106350234D01*
X155213715Y-106145142D01*
X155593807Y-105765712D01*
X155799765Y-105269710D01*
X155800234Y-104732647D01*
X155595142Y-104236285D01*
X155215712Y-103856193D01*
X154959955Y-103749993D01*
X155213715Y-103645142D01*
X155593807Y-103265712D01*
X155799765Y-102769710D01*
X155800234Y-102232647D01*
X155595142Y-101736285D01*
X155215712Y-101356193D01*
X154719710Y-101150235D01*
X154182647Y-101149766D01*
X153686285Y-101354858D01*
X153306193Y-101734288D01*
X153199993Y-101990045D01*
X153095142Y-101736285D01*
X152715712Y-101356193D01*
X152219710Y-101150235D01*
X151682647Y-101149766D01*
X151186285Y-101354858D01*
X150806193Y-101734288D01*
X150699993Y-101990045D01*
X150595142Y-101736285D01*
X150215712Y-101356193D01*
X149719710Y-101150235D01*
X149182647Y-101149766D01*
X149016814Y-101218286D01*
X145874264Y-98075736D01*
X145679610Y-97945672D01*
X145450000Y-97900000D01*
X144930592Y-97900000D01*
X144927438Y-97883240D01*
X144828883Y-97730081D01*
X144678505Y-97627332D01*
X144500000Y-97591184D01*
X143300000Y-97591184D01*
X143133240Y-97622562D01*
X142980081Y-97721117D01*
X142877332Y-97871495D01*
X142841184Y-98050000D01*
X142758816Y-98050000D01*
X142727438Y-97883240D01*
X142628883Y-97730081D01*
X142478505Y-97627332D01*
X142300000Y-97591184D01*
X141100000Y-97591184D01*
X140933240Y-97622562D01*
X140780081Y-97721117D01*
X140677332Y-97871495D01*
X140641184Y-98050000D01*
X137525000Y-98050000D01*
X137525000Y-95267353D01*
X148099766Y-95267353D01*
X148304858Y-95763715D01*
X148684288Y-96143807D01*
X148940045Y-96250007D01*
X148686285Y-96354858D01*
X148306193Y-96734288D01*
X148100235Y-97230290D01*
X148099766Y-97767353D01*
X148304858Y-98263715D01*
X148684288Y-98643807D01*
X149180290Y-98849765D01*
X149717353Y-98850234D01*
X150213715Y-98645142D01*
X150593807Y-98265712D01*
X150700007Y-98009955D01*
X150804858Y-98263715D01*
X151184288Y-98643807D01*
X151680290Y-98849765D01*
X152217353Y-98850234D01*
X152713715Y-98645142D01*
X153093807Y-98265712D01*
X153200007Y-98009955D01*
X153304858Y-98263715D01*
X153684288Y-98643807D01*
X154180290Y-98849765D01*
X154717353Y-98850234D01*
X154883186Y-98781714D01*
X156899996Y-100798524D01*
X156899996Y-110939219D01*
X156864548Y-110974605D01*
X156750127Y-111250161D01*
X156749866Y-111548530D01*
X156863807Y-111824286D01*
X157074601Y-112035448D01*
X157350157Y-112149869D01*
X157648526Y-112150130D01*
X157924282Y-112036189D01*
X158135444Y-111825395D01*
X158249865Y-111549839D01*
X158250126Y-111251470D01*
X158136185Y-110975714D01*
X158099996Y-110939462D01*
X158099996Y-107348532D01*
X159149870Y-107348532D01*
X159263811Y-107624288D01*
X159474605Y-107835450D01*
X159750161Y-107949871D01*
X160048530Y-107950132D01*
X160324286Y-107836191D01*
X160535448Y-107625397D01*
X160649869Y-107349841D01*
X160650130Y-107051472D01*
X160536189Y-106775716D01*
X160500000Y-106739464D01*
X160500000Y-106248528D01*
X162898442Y-103850086D01*
X162948530Y-103850130D01*
X163224286Y-103736189D01*
X163435448Y-103525395D01*
X163549869Y-103249839D01*
X163550130Y-102951470D01*
X163436189Y-102675714D01*
X163225395Y-102464552D01*
X162949839Y-102350131D01*
X162651470Y-102349870D01*
X162375714Y-102463811D01*
X162164552Y-102674605D01*
X162050131Y-102950161D01*
X162050086Y-103001386D01*
X159475736Y-105575736D01*
X159345672Y-105770390D01*
X159300000Y-106000000D01*
X159300000Y-106739221D01*
X159264552Y-106774607D01*
X159150131Y-107050163D01*
X159149870Y-107348532D01*
X158099996Y-107348532D01*
X158099996Y-101149996D01*
X159450008Y-101149996D01*
X159679618Y-101104324D01*
X159874272Y-100974260D01*
X163098446Y-97750086D01*
X163148534Y-97750130D01*
X163424290Y-97636189D01*
X163635452Y-97425395D01*
X163749873Y-97149839D01*
X163750134Y-96851470D01*
X163636193Y-96575714D01*
X163425399Y-96364552D01*
X163149843Y-96250131D01*
X162851474Y-96249870D01*
X162575718Y-96363811D01*
X162364556Y-96574605D01*
X162250135Y-96850161D01*
X162250090Y-96901386D01*
X159201480Y-99949996D01*
X157748524Y-99949996D01*
X155855068Y-98056540D01*
X155810364Y-97989636D01*
X155743460Y-97944932D01*
X155731834Y-97933306D01*
X155799765Y-97769710D01*
X155800234Y-97232647D01*
X155595142Y-96736285D01*
X155215712Y-96356193D01*
X154959955Y-96249993D01*
X155213715Y-96145142D01*
X155593807Y-95765712D01*
X155799765Y-95269710D01*
X155800234Y-94732647D01*
X155595142Y-94236285D01*
X155215712Y-93856193D01*
X154719710Y-93650235D01*
X154182647Y-93649766D01*
X153686285Y-93854858D01*
X153306193Y-94234288D01*
X153199993Y-94490045D01*
X153095142Y-94236285D01*
X152715712Y-93856193D01*
X152219710Y-93650235D01*
X151682647Y-93649766D01*
X151186285Y-93854858D01*
X150806193Y-94234288D01*
X150699993Y-94490045D01*
X150595142Y-94236285D01*
X150215712Y-93856193D01*
X149719710Y-93650235D01*
X149182647Y-93649766D01*
X148686285Y-93854858D01*
X148306193Y-94234288D01*
X148100235Y-94730290D01*
X148099766Y-95267353D01*
X137525000Y-95267353D01*
X137525000Y-92525000D01*
X166475000Y-92525000D01*
X166475000Y-121475000D01*
M02*
