G04 #@! TF.FileFunction,Soldermask,Top*
%FSLAX46Y46*%
G04 Gerber Fmt 4.6, Leading zero omitted, Abs format (unit mm)*
G04 Created by KiCad (PCBNEW 4.0.4-1.fc24-product) date Fri Jan 12 13:42:10 2018*
%MOMM*%
%LPD*%
G01*
G04 APERTURE LIST*
%ADD10C,0.100000*%
%ADD11R,1.600000X1.300000*%
%ADD12O,2.398980X2.398980*%
%ADD13R,2.398980X2.398980*%
%ADD14R,1.650000X1.900000*%
%ADD15R,2.400000X2.000000*%
%ADD16R,1.900000X1.650000*%
%ADD17R,1.050000X1.960000*%
%ADD18R,1.950000X1.000000*%
%ADD19R,1.900000X1.900000*%
%ADD20C,1.900000*%
%ADD21C,2.200000*%
G04 APERTURE END LIST*
D10*
D11*
X164800000Y-115300000D03*
X162600000Y-115300000D03*
D12*
X140400000Y-120200000D03*
D13*
X140400000Y-117660000D03*
D14*
X145300000Y-110850000D03*
X145300000Y-113350000D03*
D15*
X144000000Y-107500000D03*
X140000000Y-107500000D03*
D14*
X145300000Y-101650000D03*
X145300000Y-104150000D03*
D16*
X142250000Y-101400000D03*
X139750000Y-101400000D03*
D15*
X160500000Y-118400000D03*
X164500000Y-118400000D03*
D11*
X139575000Y-113575000D03*
X141775000Y-113575000D03*
X139575000Y-110675000D03*
X141775000Y-110675000D03*
X139600000Y-104300000D03*
X141800000Y-104300000D03*
X150900000Y-107900000D03*
X153100000Y-107900000D03*
X141800000Y-95800000D03*
X139600000Y-95800000D03*
X139600000Y-98500000D03*
X141800000Y-98500000D03*
X146600000Y-95900000D03*
X144400000Y-95900000D03*
X160800000Y-96000000D03*
X163000000Y-96000000D03*
X160800000Y-98700000D03*
X163000000Y-98700000D03*
X160800000Y-101400000D03*
X163000000Y-101400000D03*
D17*
X162850000Y-104550000D03*
X161900000Y-104550000D03*
X160950000Y-104550000D03*
X160950000Y-107250000D03*
X162850000Y-107250000D03*
D18*
X150500000Y-110595000D03*
X150500000Y-111865000D03*
X150500000Y-113135000D03*
X150500000Y-114405000D03*
X155900000Y-114405000D03*
X155900000Y-113135000D03*
X155900000Y-111865000D03*
X155900000Y-110595000D03*
D19*
X148000000Y-118500000D03*
D20*
X150000000Y-118500000D03*
X152000000Y-118500000D03*
X154000000Y-118500000D03*
X156000000Y-118500000D03*
D21*
X154500000Y-105000000D03*
X152000000Y-105000000D03*
X149500000Y-105000000D03*
X149500000Y-95000000D03*
X152000000Y-95000000D03*
X154500000Y-95000000D03*
X149500000Y-97500000D03*
X152000000Y-97500000D03*
X154500000Y-97500000D03*
X149500000Y-102500000D03*
X152000000Y-102500000D03*
X154500000Y-102500000D03*
M02*
