G04 #@! TF.FileFunction,Copper,L1,Top,Signal*
%FSLAX46Y46*%
G04 Gerber Fmt 4.6, Leading zero omitted, Abs format (unit mm)*
G04 Created by KiCad (PCBNEW 4.0.4-1.fc24-product) date Fri Jan 12 11:53:18 2018*
%MOMM*%
%LPD*%
G01*
G04 APERTURE LIST*
%ADD10C,0.100000*%
%ADD11R,1.200000X0.900000*%
%ADD12O,1.998980X1.998980*%
%ADD13R,1.998980X1.998980*%
%ADD14R,1.250000X1.500000*%
%ADD15R,2.000000X1.600000*%
%ADD16R,1.500000X1.250000*%
%ADD17R,0.650000X1.560000*%
%ADD18R,1.550000X0.600000*%
%ADD19R,1.500000X1.500000*%
%ADD20C,1.500000*%
%ADD21C,1.800000*%
%ADD22C,0.600000*%
%ADD23C,0.300000*%
%ADD24C,0.500000*%
G04 APERTURE END LIST*
D10*
D11*
X164800000Y-115300000D03*
X162600000Y-115300000D03*
D12*
X140400000Y-120200000D03*
D13*
X140400000Y-117660000D03*
D14*
X145300000Y-110850000D03*
X145300000Y-113350000D03*
D15*
X144000000Y-107500000D03*
X140000000Y-107500000D03*
D14*
X145300000Y-101650000D03*
X145300000Y-104150000D03*
D16*
X142250000Y-101400000D03*
X139750000Y-101400000D03*
D15*
X160500000Y-118400000D03*
X164500000Y-118400000D03*
D11*
X139575000Y-113575000D03*
X141775000Y-113575000D03*
X139575000Y-110675000D03*
X141775000Y-110675000D03*
X139600000Y-104300000D03*
X141800000Y-104300000D03*
X150900000Y-107900000D03*
X153100000Y-107900000D03*
X141800000Y-95800000D03*
X139600000Y-95800000D03*
X139600000Y-98500000D03*
X141800000Y-98500000D03*
X146600000Y-95900000D03*
X144400000Y-95900000D03*
X160800000Y-96000000D03*
X163000000Y-96000000D03*
X160800000Y-98700000D03*
X163000000Y-98700000D03*
X160800000Y-101400000D03*
X163000000Y-101400000D03*
D17*
X162850000Y-104550000D03*
X161900000Y-104550000D03*
X160950000Y-104550000D03*
X160950000Y-107250000D03*
X162850000Y-107250000D03*
D18*
X150500000Y-110595000D03*
X150500000Y-111865000D03*
X150500000Y-113135000D03*
X150500000Y-114405000D03*
X155900000Y-114405000D03*
X155900000Y-113135000D03*
X155900000Y-111865000D03*
X155900000Y-110595000D03*
D19*
X148000000Y-118500000D03*
D20*
X150000000Y-118500000D03*
X152000000Y-118500000D03*
X154000000Y-118500000D03*
X156000000Y-118500000D03*
D21*
X154500000Y-105000000D03*
X152000000Y-105000000D03*
X149500000Y-105000000D03*
X149500000Y-95000000D03*
X152000000Y-95000000D03*
X154500000Y-95000000D03*
X149500000Y-97500000D03*
X152000000Y-97500000D03*
X154500000Y-97500000D03*
X149500000Y-102500000D03*
X152000000Y-102500000D03*
X154500000Y-102500000D03*
D22*
X163000000Y-97000000D03*
X157500000Y-111400000D03*
X164400000Y-101400000D03*
X138400000Y-101400000D03*
X138400000Y-104300000D03*
X138400000Y-110700000D03*
X138400000Y-113500000D03*
X154600000Y-113200000D03*
X142500000Y-99900000D03*
X143020000Y-104380000D03*
X159900000Y-107200000D03*
X162800000Y-103100000D03*
D23*
X145200000Y-110750000D02*
X145300000Y-110850000D01*
X145200000Y-110600000D02*
X145200000Y-110750000D01*
X145125000Y-110675000D02*
X145200000Y-110600000D01*
X141775000Y-110675000D02*
X145125000Y-110675000D01*
X148660000Y-113135000D02*
X150400000Y-113135000D01*
X146375000Y-110850000D02*
X148660000Y-113135000D01*
X145300000Y-110850000D02*
X146375000Y-110850000D01*
X150400000Y-113135000D02*
X150500000Y-113135000D01*
D24*
X145350000Y-113350000D02*
X145300000Y-113350000D01*
X145400000Y-113400000D02*
X145350000Y-113350000D01*
X145225000Y-113575000D02*
X145400000Y-113400000D01*
X141775000Y-113575000D02*
X145225000Y-113575000D01*
X140400000Y-116110000D02*
X140400000Y-117660000D01*
X141775000Y-114735000D02*
X140400000Y-116110000D01*
X141775000Y-113575000D02*
X141775000Y-114735000D01*
D23*
X144000000Y-108750000D02*
X144000000Y-107500000D01*
X147330000Y-108750000D02*
X144000000Y-108750000D01*
X149175000Y-110595000D02*
X147330000Y-108750000D01*
X150400000Y-110595000D02*
X149175000Y-110595000D01*
X150400000Y-110912500D02*
X150400000Y-110595000D01*
X150500000Y-110812500D02*
X150500000Y-110595000D01*
X150400000Y-110912500D02*
X150500000Y-110812500D01*
X150400000Y-111865000D02*
X150400000Y-111388700D01*
X150400000Y-111388700D02*
X150400000Y-110912500D01*
X150500000Y-111488700D02*
X150500000Y-111865000D01*
X150400000Y-111388700D02*
X150500000Y-111488700D01*
X160800000Y-96900300D02*
X160800000Y-96000000D01*
X162600000Y-98700000D02*
X160800000Y-96900300D01*
X163000000Y-98700000D02*
X162600000Y-98700000D01*
X150867100Y-93632900D02*
X149500000Y-95000000D01*
X159333200Y-93632900D02*
X150867100Y-93632900D01*
X160800000Y-95099700D02*
X159333200Y-93632900D01*
X160800000Y-96000000D02*
X160800000Y-95099700D01*
X163000000Y-96000000D02*
X163000000Y-97000000D01*
X155800000Y-111865000D02*
X155900000Y-111865000D01*
X157035000Y-111865000D02*
X157500000Y-111400000D01*
X155900000Y-111865000D02*
X157035000Y-111865000D01*
X145300000Y-101650000D02*
X146375300Y-101650000D01*
X154500000Y-97500000D02*
X152000000Y-97500000D01*
X146600000Y-95900000D02*
X146600000Y-96800300D01*
X148912500Y-99112800D02*
X146600000Y-96800300D01*
X150387200Y-99112800D02*
X148912500Y-99112800D01*
X152000000Y-97500000D02*
X150387200Y-99112800D01*
X148912500Y-99112800D02*
X146375300Y-101650000D01*
X154500000Y-102500000D02*
X152000000Y-102500000D01*
X147225300Y-105000000D02*
X146375300Y-104150000D01*
X149500000Y-105000000D02*
X147225300Y-105000000D01*
X145300000Y-104150000D02*
X146375300Y-104150000D01*
X142250000Y-102325000D02*
X142250000Y-101400000D01*
X143850000Y-103925000D02*
X142250000Y-102325000D01*
X143850000Y-104728000D02*
X143850000Y-103925000D01*
X145159000Y-106037000D02*
X143850000Y-104728000D01*
X147413000Y-106037000D02*
X145159000Y-106037000D01*
X149569000Y-108193000D02*
X147413000Y-106037000D01*
X150900000Y-108193000D02*
X149569000Y-108193000D01*
X150900000Y-107900000D02*
X150900000Y-108193000D01*
X150900000Y-108800000D02*
X150900000Y-108193000D01*
X151900000Y-109800000D02*
X150900000Y-108800000D01*
X151900000Y-112110000D02*
X151900000Y-109800000D01*
X154195000Y-114405000D02*
X151900000Y-112110000D01*
X155800000Y-114405000D02*
X154195000Y-114405000D01*
X155800000Y-114405000D02*
X155900000Y-114405000D01*
D24*
X163000000Y-101400000D02*
X164400000Y-101400000D01*
X139600000Y-101400000D02*
X139600000Y-98500000D01*
X139750000Y-101550000D02*
X139600000Y-101400000D01*
X139750000Y-101400000D02*
X139750000Y-101550000D01*
X139750000Y-101400000D02*
X138400000Y-101400000D01*
X138500000Y-104300000D02*
X138400000Y-104300000D01*
X138425000Y-110675000D02*
X138400000Y-110700000D01*
X139575000Y-110675000D02*
X138425000Y-110675000D01*
X138475000Y-113575000D02*
X138400000Y-113500000D01*
X139575000Y-113575000D02*
X138475000Y-113575000D01*
X138924000Y-104300000D02*
X138500000Y-104300000D01*
X138500000Y-104300000D02*
X138400000Y-104300000D01*
X139600000Y-104300000D02*
X138924000Y-104300000D01*
X138924000Y-104300000D02*
X138500000Y-104300000D01*
X155331000Y-119831000D02*
X154000000Y-118500000D01*
X159869000Y-119831000D02*
X155331000Y-119831000D01*
X160500000Y-119200000D02*
X159869000Y-119831000D01*
X160500000Y-118400000D02*
X160500000Y-119200000D01*
D23*
X164800000Y-118000000D02*
X164800000Y-115300000D01*
X164400000Y-118400000D02*
X164800000Y-118000000D01*
X164500000Y-118400000D02*
X164400000Y-118400000D01*
D24*
X161900000Y-112258000D02*
X161900000Y-104550000D01*
X158008000Y-116150000D02*
X161900000Y-112258000D01*
X153250000Y-116150000D02*
X158008000Y-116150000D01*
X152100000Y-115000000D02*
X153250000Y-116150000D01*
X152000000Y-115000000D02*
X152100000Y-115000000D01*
X150400000Y-114405000D02*
X150500000Y-114405000D01*
X152000000Y-114900000D02*
X152000000Y-115000000D01*
X151505000Y-114405000D02*
X152000000Y-114900000D01*
X150500000Y-114405000D02*
X151505000Y-114405000D01*
X152000000Y-115000000D02*
X152000000Y-118500000D01*
D23*
X153100000Y-105000000D02*
X153100000Y-107900000D01*
X152000000Y-105000000D02*
X153100000Y-105000000D01*
X153100000Y-105000000D02*
X154500000Y-105000000D01*
X160950000Y-102450000D02*
X160950000Y-104550000D01*
X160800000Y-102300000D02*
X160950000Y-102450000D01*
X160800000Y-101400000D02*
X160800000Y-102300000D01*
X160800000Y-101400000D02*
X160800000Y-99798700D01*
X160800000Y-99798700D02*
X160800000Y-98700000D01*
X159298700Y-99798700D02*
X154500000Y-95000000D01*
X160800000Y-99798700D02*
X159298700Y-99798700D01*
X154500000Y-95000000D02*
X152000000Y-95000000D01*
X144400000Y-95900000D02*
X144037600Y-95900000D01*
X141900000Y-95800000D02*
X141800000Y-95800000D01*
X142000000Y-95900000D02*
X141900000Y-95800000D01*
X144037600Y-95900000D02*
X142000000Y-95900000D01*
X149500000Y-97106400D02*
X149500000Y-97500000D01*
X147393200Y-94999600D02*
X149500000Y-97106400D01*
X144938000Y-94999600D02*
X147393200Y-94999600D01*
X144037600Y-95900000D02*
X144938000Y-94999600D01*
X141800000Y-99200000D02*
X141800000Y-98500000D01*
X142500000Y-99900000D02*
X141800000Y-99200000D01*
X141800000Y-98650000D02*
X141800000Y-98500000D01*
X139700000Y-96550000D02*
X141800000Y-98650000D01*
X139700000Y-96400000D02*
X139700000Y-96550000D01*
X139600000Y-96300000D02*
X139700000Y-96400000D01*
X139600000Y-95800000D02*
X139600000Y-96300000D01*
X155800000Y-113135000D02*
X155767500Y-113167500D01*
X155735000Y-113200000D02*
X154600000Y-113200000D01*
X155767500Y-113167500D02*
X155735000Y-113200000D01*
X155867500Y-113167500D02*
X155900000Y-113135000D01*
X155767500Y-113167500D02*
X155867500Y-113167500D01*
X142406000Y-104380000D02*
X143020000Y-104380000D01*
X142325000Y-104300000D02*
X142406000Y-104380000D01*
X140225000Y-106400000D02*
X142325000Y-104300000D01*
X140200000Y-106400000D02*
X140225000Y-106400000D01*
X140000000Y-106600000D02*
X140200000Y-106400000D01*
X140000000Y-107500000D02*
X140000000Y-106600000D01*
X141800000Y-104300000D02*
X142325000Y-104300000D01*
X162850000Y-104550000D02*
X162850000Y-104750000D01*
X162850000Y-104750000D02*
X162900000Y-104800000D01*
X162900000Y-104800000D02*
X162900000Y-105500000D01*
X162900000Y-105500000D02*
X163800000Y-106400000D01*
X163800000Y-106400000D02*
X163800000Y-113200000D01*
X163800000Y-113200000D02*
X162600000Y-114400000D01*
X162600000Y-114400000D02*
X162600000Y-115300000D01*
X159950000Y-107250000D02*
X159900000Y-107200000D01*
X160950000Y-107250000D02*
X159950000Y-107250000D01*
X162850000Y-103150000D02*
X162800000Y-103100000D01*
X162850000Y-104550000D02*
X162850000Y-103150000D01*
G36*
X166475000Y-121475000D02*
X141093208Y-121475000D01*
X141424944Y-121253341D01*
X141739154Y-120783093D01*
X141849490Y-120228397D01*
X141849490Y-120171603D01*
X141739154Y-119616907D01*
X141424944Y-119146659D01*
X141382511Y-119118306D01*
X141399490Y-119118306D01*
X141566250Y-119086928D01*
X141719409Y-118988373D01*
X141822158Y-118837995D01*
X141837446Y-118762500D01*
X146800000Y-118762500D01*
X146800000Y-119339510D01*
X146868508Y-119504904D01*
X146995095Y-119631491D01*
X147160489Y-119700000D01*
X147737500Y-119700000D01*
X147850000Y-119587500D01*
X147850000Y-118650000D01*
X146912500Y-118650000D01*
X146800000Y-118762500D01*
X141837446Y-118762500D01*
X141858306Y-118659490D01*
X141858306Y-117660490D01*
X146800000Y-117660490D01*
X146800000Y-118237500D01*
X146912500Y-118350000D01*
X147850000Y-118350000D01*
X147850000Y-117412500D01*
X147737500Y-117300000D01*
X147160489Y-117300000D01*
X146995095Y-117368509D01*
X146868508Y-117495096D01*
X146800000Y-117660490D01*
X141858306Y-117660490D01*
X141858306Y-116660510D01*
X141826928Y-116493750D01*
X141728373Y-116340591D01*
X141577995Y-116237842D01*
X141399490Y-116201694D01*
X141298256Y-116201694D01*
X142269972Y-115229977D01*
X142269975Y-115229975D01*
X142389084Y-115051716D01*
X142421716Y-115002879D01*
X142475001Y-114735000D01*
X142475000Y-114734995D01*
X142475000Y-114465000D01*
X142541760Y-114452438D01*
X142694919Y-114353883D01*
X142748818Y-114275000D01*
X144252864Y-114275000D01*
X144346117Y-114419919D01*
X144496495Y-114522668D01*
X144675000Y-114558816D01*
X145925000Y-114558816D01*
X146091760Y-114527438D01*
X146244919Y-114428883D01*
X146347668Y-114278505D01*
X146383816Y-114100000D01*
X146383816Y-112600000D01*
X146352438Y-112433240D01*
X146253883Y-112280081D01*
X146103505Y-112177332D01*
X145925000Y-112141184D01*
X144675000Y-112141184D01*
X144508240Y-112172562D01*
X144355081Y-112271117D01*
X144252332Y-112421495D01*
X144216184Y-112600000D01*
X144216184Y-112875000D01*
X142748875Y-112875000D01*
X142703883Y-112805081D01*
X142553505Y-112702332D01*
X142375000Y-112666184D01*
X141175000Y-112666184D01*
X141008240Y-112697562D01*
X140855081Y-112796117D01*
X140752332Y-112946495D01*
X140716184Y-113125000D01*
X140716184Y-114025000D01*
X140747562Y-114191760D01*
X140846117Y-114344919D01*
X140996495Y-114447668D01*
X141059603Y-114460448D01*
X139905025Y-115615025D01*
X139753284Y-115842121D01*
X139741771Y-115900000D01*
X139700000Y-116110000D01*
X139700000Y-116201694D01*
X139400510Y-116201694D01*
X139233750Y-116233072D01*
X139080591Y-116331627D01*
X138977842Y-116482005D01*
X138941694Y-116660510D01*
X138941694Y-118659490D01*
X138973072Y-118826250D01*
X139071627Y-118979409D01*
X139222005Y-119082158D01*
X139400510Y-119118306D01*
X139417489Y-119118306D01*
X139375056Y-119146659D01*
X139060846Y-119616907D01*
X138950510Y-120171603D01*
X138950510Y-120228397D01*
X139060846Y-120783093D01*
X139375056Y-121253341D01*
X139706792Y-121475000D01*
X137525000Y-121475000D01*
X137525000Y-113648530D01*
X137649870Y-113648530D01*
X137763811Y-113924286D01*
X137974605Y-114135448D01*
X138250161Y-114249869D01*
X138349092Y-114249956D01*
X138475000Y-114275000D01*
X138601125Y-114275000D01*
X138646117Y-114344919D01*
X138796495Y-114447668D01*
X138975000Y-114483816D01*
X140175000Y-114483816D01*
X140341760Y-114452438D01*
X140494919Y-114353883D01*
X140597668Y-114203505D01*
X140633816Y-114025000D01*
X140633816Y-113125000D01*
X140602438Y-112958240D01*
X140503883Y-112805081D01*
X140353505Y-112702332D01*
X140175000Y-112666184D01*
X138975000Y-112666184D01*
X138808240Y-112697562D01*
X138657240Y-112794728D01*
X138549839Y-112750131D01*
X138251470Y-112749870D01*
X137975714Y-112863811D01*
X137764552Y-113074605D01*
X137650131Y-113350161D01*
X137649870Y-113648530D01*
X137525000Y-113648530D01*
X137525000Y-110848530D01*
X137649870Y-110848530D01*
X137763811Y-111124286D01*
X137974605Y-111335448D01*
X138250161Y-111449869D01*
X138548530Y-111450130D01*
X138628269Y-111417182D01*
X138646117Y-111444919D01*
X138796495Y-111547668D01*
X138975000Y-111583816D01*
X140175000Y-111583816D01*
X140341760Y-111552438D01*
X140494919Y-111453883D01*
X140597668Y-111303505D01*
X140633816Y-111125000D01*
X140633816Y-110225000D01*
X140602438Y-110058240D01*
X140503883Y-109905081D01*
X140353505Y-109802332D01*
X140175000Y-109766184D01*
X138975000Y-109766184D01*
X138808240Y-109797562D01*
X138655081Y-109896117D01*
X138603072Y-109972235D01*
X138549839Y-109950131D01*
X138251470Y-109949870D01*
X137975714Y-110063811D01*
X137764552Y-110274605D01*
X137650131Y-110550161D01*
X137649870Y-110848530D01*
X137525000Y-110848530D01*
X137525000Y-104448530D01*
X137649870Y-104448530D01*
X137763811Y-104724286D01*
X137974605Y-104935448D01*
X138250161Y-105049869D01*
X138548530Y-105050130D01*
X138635310Y-105014273D01*
X138671117Y-105069919D01*
X138821495Y-105172668D01*
X139000000Y-105208816D01*
X140200000Y-105208816D01*
X140366760Y-105177438D01*
X140519919Y-105078883D01*
X140622668Y-104928505D01*
X140658816Y-104750000D01*
X140658816Y-103850000D01*
X140627438Y-103683240D01*
X140528883Y-103530081D01*
X140378505Y-103427332D01*
X140200000Y-103391184D01*
X139000000Y-103391184D01*
X138833240Y-103422562D01*
X138680081Y-103521117D01*
X138635853Y-103585847D01*
X138549839Y-103550131D01*
X138251470Y-103549870D01*
X137975714Y-103663811D01*
X137764552Y-103874605D01*
X137650131Y-104150161D01*
X137649870Y-104448530D01*
X137525000Y-104448530D01*
X137525000Y-101548530D01*
X137649870Y-101548530D01*
X137763811Y-101824286D01*
X137974605Y-102035448D01*
X138250161Y-102149869D01*
X138548530Y-102150130D01*
X138563560Y-102143920D01*
X138572562Y-102191760D01*
X138671117Y-102344919D01*
X138821495Y-102447668D01*
X139000000Y-102483816D01*
X140500000Y-102483816D01*
X140666760Y-102452438D01*
X140819919Y-102353883D01*
X140922668Y-102203505D01*
X140958816Y-102025000D01*
X140958816Y-100775000D01*
X140927438Y-100608240D01*
X140828883Y-100455081D01*
X140678505Y-100352332D01*
X140500000Y-100316184D01*
X140300000Y-100316184D01*
X140300000Y-99390000D01*
X140366760Y-99377438D01*
X140519919Y-99278883D01*
X140622668Y-99128505D01*
X140658816Y-98950000D01*
X140658816Y-98357344D01*
X140741184Y-98439712D01*
X140741184Y-98950000D01*
X140772562Y-99116760D01*
X140871117Y-99269919D01*
X141021495Y-99372668D01*
X141200000Y-99408816D01*
X141241536Y-99408816D01*
X141245672Y-99429610D01*
X141375736Y-99624264D01*
X141749914Y-99998442D01*
X141749870Y-100048530D01*
X141860463Y-100316184D01*
X141500000Y-100316184D01*
X141333240Y-100347562D01*
X141180081Y-100446117D01*
X141077332Y-100596495D01*
X141041184Y-100775000D01*
X141041184Y-102025000D01*
X141072562Y-102191760D01*
X141171117Y-102344919D01*
X141321495Y-102447668D01*
X141500000Y-102483816D01*
X141681590Y-102483816D01*
X141695672Y-102554610D01*
X141825736Y-102749264D01*
X142484836Y-103408364D01*
X142400000Y-103391184D01*
X141200000Y-103391184D01*
X141033240Y-103422562D01*
X140880081Y-103521117D01*
X140777332Y-103671495D01*
X140741184Y-103850000D01*
X140741184Y-104750000D01*
X140772562Y-104916760D01*
X140806684Y-104969788D01*
X139851078Y-105925394D01*
X139775736Y-105975736D01*
X139575736Y-106175736D01*
X139532005Y-106241184D01*
X139000000Y-106241184D01*
X138833240Y-106272562D01*
X138680081Y-106371117D01*
X138577332Y-106521495D01*
X138541184Y-106700000D01*
X138541184Y-108300000D01*
X138572562Y-108466760D01*
X138671117Y-108619919D01*
X138821495Y-108722668D01*
X139000000Y-108758816D01*
X141000000Y-108758816D01*
X141166760Y-108727438D01*
X141319919Y-108628883D01*
X141422668Y-108478505D01*
X141458816Y-108300000D01*
X141458816Y-106700000D01*
X141427438Y-106533240D01*
X141328883Y-106380081D01*
X141189015Y-106284513D01*
X142264712Y-105208816D01*
X142400000Y-105208816D01*
X142566760Y-105177438D01*
X142719919Y-105078883D01*
X142725987Y-105070003D01*
X142870161Y-105129869D01*
X143168530Y-105130130D01*
X143358498Y-105051636D01*
X143425736Y-105152264D01*
X144514656Y-106241184D01*
X143000000Y-106241184D01*
X142833240Y-106272562D01*
X142680081Y-106371117D01*
X142577332Y-106521495D01*
X142541184Y-106700000D01*
X142541184Y-108300000D01*
X142572562Y-108466760D01*
X142671117Y-108619919D01*
X142821495Y-108722668D01*
X143000000Y-108758816D01*
X143401754Y-108758816D01*
X143445672Y-108979610D01*
X143575736Y-109174264D01*
X143770390Y-109304328D01*
X144000000Y-109350000D01*
X147081472Y-109350000D01*
X148750736Y-111019264D01*
X148945390Y-111149328D01*
X149175000Y-111195000D01*
X149383299Y-111195000D01*
X149396117Y-111214919D01*
X149416442Y-111228806D01*
X149405081Y-111236117D01*
X149302332Y-111386495D01*
X149266184Y-111565000D01*
X149266184Y-112165000D01*
X149297562Y-112331760D01*
X149396117Y-112484919D01*
X149416442Y-112498806D01*
X149405081Y-112506117D01*
X149385346Y-112535000D01*
X148908528Y-112535000D01*
X146799264Y-110425736D01*
X146604610Y-110295672D01*
X146383816Y-110251754D01*
X146383816Y-110100000D01*
X146352438Y-109933240D01*
X146253883Y-109780081D01*
X146103505Y-109677332D01*
X145925000Y-109641184D01*
X144675000Y-109641184D01*
X144508240Y-109672562D01*
X144355081Y-109771117D01*
X144252332Y-109921495D01*
X144221247Y-110075000D01*
X142805592Y-110075000D01*
X142802438Y-110058240D01*
X142703883Y-109905081D01*
X142553505Y-109802332D01*
X142375000Y-109766184D01*
X141175000Y-109766184D01*
X141008240Y-109797562D01*
X140855081Y-109896117D01*
X140752332Y-110046495D01*
X140716184Y-110225000D01*
X140716184Y-111125000D01*
X140747562Y-111291760D01*
X140846117Y-111444919D01*
X140996495Y-111547668D01*
X141175000Y-111583816D01*
X142375000Y-111583816D01*
X142541760Y-111552438D01*
X142694919Y-111453883D01*
X142797668Y-111303505D01*
X142803440Y-111275000D01*
X144216184Y-111275000D01*
X144216184Y-111600000D01*
X144247562Y-111766760D01*
X144346117Y-111919919D01*
X144496495Y-112022668D01*
X144675000Y-112058816D01*
X145925000Y-112058816D01*
X146091760Y-112027438D01*
X146244919Y-111928883D01*
X146347668Y-111778505D01*
X146365739Y-111689267D01*
X148235736Y-113559264D01*
X148430390Y-113689328D01*
X148660000Y-113735000D01*
X149383299Y-113735000D01*
X149396117Y-113754919D01*
X149416442Y-113768806D01*
X149405081Y-113776117D01*
X149302332Y-113926495D01*
X149266184Y-114105000D01*
X149266184Y-114705000D01*
X149297562Y-114871760D01*
X149396117Y-115024919D01*
X149546495Y-115127668D01*
X149725000Y-115163816D01*
X151273866Y-115163816D01*
X151300000Y-115189950D01*
X151300000Y-117503203D01*
X150999735Y-117802943D01*
X150680633Y-117483283D01*
X150239742Y-117300209D01*
X149762353Y-117299793D01*
X149321143Y-117482097D01*
X149183161Y-117619838D01*
X149131492Y-117495096D01*
X149004905Y-117368509D01*
X148839511Y-117300000D01*
X148262500Y-117300000D01*
X148150000Y-117412500D01*
X148150000Y-118350000D01*
X148170000Y-118350000D01*
X148170000Y-118650000D01*
X148150000Y-118650000D01*
X148150000Y-119587500D01*
X148262500Y-119700000D01*
X148839511Y-119700000D01*
X149004905Y-119631491D01*
X149131492Y-119504904D01*
X149183129Y-119380241D01*
X149319367Y-119516717D01*
X149760258Y-119699791D01*
X150237647Y-119700207D01*
X150678857Y-119517903D01*
X151000265Y-119197057D01*
X151319367Y-119516717D01*
X151760258Y-119699791D01*
X152237647Y-119700207D01*
X152678857Y-119517903D01*
X153000265Y-119197057D01*
X153319367Y-119516717D01*
X153760258Y-119699791D01*
X154210233Y-119700183D01*
X154836025Y-120325975D01*
X155063122Y-120477716D01*
X155331000Y-120531000D01*
X159869000Y-120531000D01*
X160136879Y-120477716D01*
X160363975Y-120325975D01*
X160994975Y-119694975D01*
X161019136Y-119658816D01*
X161500000Y-119658816D01*
X161666760Y-119627438D01*
X161819919Y-119528883D01*
X161922668Y-119378505D01*
X161958816Y-119200000D01*
X161958816Y-117600000D01*
X163041184Y-117600000D01*
X163041184Y-119200000D01*
X163072562Y-119366760D01*
X163171117Y-119519919D01*
X163321495Y-119622668D01*
X163500000Y-119658816D01*
X165500000Y-119658816D01*
X165666760Y-119627438D01*
X165819919Y-119528883D01*
X165922668Y-119378505D01*
X165958816Y-119200000D01*
X165958816Y-117600000D01*
X165927438Y-117433240D01*
X165828883Y-117280081D01*
X165678505Y-117177332D01*
X165500000Y-117141184D01*
X165400000Y-117141184D01*
X165400000Y-116208816D01*
X165566760Y-116177438D01*
X165719919Y-116078883D01*
X165822668Y-115928505D01*
X165858816Y-115750000D01*
X165858816Y-114850000D01*
X165827438Y-114683240D01*
X165728883Y-114530081D01*
X165578505Y-114427332D01*
X165400000Y-114391184D01*
X164200000Y-114391184D01*
X164033240Y-114422562D01*
X163880081Y-114521117D01*
X163777332Y-114671495D01*
X163741184Y-114850000D01*
X163741184Y-115750000D01*
X163772562Y-115916760D01*
X163871117Y-116069919D01*
X164021495Y-116172668D01*
X164200000Y-116208816D01*
X164200000Y-117141184D01*
X163500000Y-117141184D01*
X163333240Y-117172562D01*
X163180081Y-117271117D01*
X163077332Y-117421495D01*
X163041184Y-117600000D01*
X161958816Y-117600000D01*
X161927438Y-117433240D01*
X161828883Y-117280081D01*
X161678505Y-117177332D01*
X161500000Y-117141184D01*
X159500000Y-117141184D01*
X159333240Y-117172562D01*
X159180081Y-117271117D01*
X159077332Y-117421495D01*
X159041184Y-117600000D01*
X159041184Y-119131000D01*
X157037326Y-119131000D01*
X157199791Y-118739742D01*
X157200207Y-118262353D01*
X157017903Y-117821143D01*
X156680633Y-117483283D01*
X156239742Y-117300209D01*
X155762353Y-117299793D01*
X155321143Y-117482097D01*
X154999735Y-117802943D01*
X154680633Y-117483283D01*
X154239742Y-117300209D01*
X153762353Y-117299793D01*
X153321143Y-117482097D01*
X152999735Y-117802943D01*
X152700000Y-117502684D01*
X152700000Y-116589949D01*
X152755023Y-116644972D01*
X152755025Y-116644975D01*
X152868573Y-116720845D01*
X152982121Y-116796716D01*
X153250000Y-116850001D01*
X153250005Y-116850000D01*
X158008000Y-116850000D01*
X158275879Y-116796716D01*
X158502975Y-116644975D01*
X162394975Y-112752975D01*
X162459441Y-112656495D01*
X162546716Y-112525878D01*
X162600000Y-112258000D01*
X162600000Y-108467500D01*
X162700000Y-108367500D01*
X162700000Y-107400000D01*
X162680000Y-107400000D01*
X162680000Y-107100000D01*
X162700000Y-107100000D01*
X162700000Y-107080000D01*
X163000000Y-107080000D01*
X163000000Y-107100000D01*
X163020000Y-107100000D01*
X163020000Y-107400000D01*
X163000000Y-107400000D01*
X163000000Y-108367500D01*
X163112500Y-108480000D01*
X163200000Y-108480000D01*
X163200000Y-112951472D01*
X162175736Y-113975736D01*
X162045672Y-114170390D01*
X162001754Y-114391184D01*
X162000000Y-114391184D01*
X161833240Y-114422562D01*
X161680081Y-114521117D01*
X161577332Y-114671495D01*
X161541184Y-114850000D01*
X161541184Y-115750000D01*
X161572562Y-115916760D01*
X161671117Y-116069919D01*
X161821495Y-116172668D01*
X162000000Y-116208816D01*
X163200000Y-116208816D01*
X163366760Y-116177438D01*
X163519919Y-116078883D01*
X163622668Y-115928505D01*
X163658816Y-115750000D01*
X163658816Y-114850000D01*
X163627438Y-114683240D01*
X163528883Y-114530081D01*
X163403867Y-114444661D01*
X164224264Y-113624264D01*
X164354328Y-113429610D01*
X164400000Y-113200000D01*
X164400000Y-106400000D01*
X164354328Y-106170390D01*
X164224264Y-105975736D01*
X163624505Y-105375977D01*
X163633816Y-105330000D01*
X163633816Y-103770000D01*
X163602438Y-103603240D01*
X163503883Y-103450081D01*
X163474934Y-103430301D01*
X163549869Y-103249839D01*
X163550130Y-102951470D01*
X163436189Y-102675714D01*
X163225395Y-102464552D01*
X162949839Y-102350131D01*
X162651470Y-102349870D01*
X162375714Y-102463811D01*
X162164552Y-102674605D01*
X162050131Y-102950161D01*
X162049870Y-103248530D01*
X162075758Y-103311184D01*
X161575000Y-103311184D01*
X161550000Y-103315888D01*
X161550000Y-102450000D01*
X161517518Y-102286703D01*
X161566760Y-102277438D01*
X161719919Y-102178883D01*
X161822668Y-102028505D01*
X161858816Y-101850000D01*
X161858816Y-100950000D01*
X161941184Y-100950000D01*
X161941184Y-101850000D01*
X161972562Y-102016760D01*
X162071117Y-102169919D01*
X162221495Y-102272668D01*
X162400000Y-102308816D01*
X163600000Y-102308816D01*
X163766760Y-102277438D01*
X163919919Y-102178883D01*
X163973818Y-102100000D01*
X164130063Y-102100000D01*
X164250161Y-102149869D01*
X164548530Y-102150130D01*
X164824286Y-102036189D01*
X165035448Y-101825395D01*
X165149869Y-101549839D01*
X165150130Y-101251470D01*
X165036189Y-100975714D01*
X164825395Y-100764552D01*
X164549839Y-100650131D01*
X164251470Y-100649870D01*
X164130147Y-100700000D01*
X163973875Y-100700000D01*
X163928883Y-100630081D01*
X163778505Y-100527332D01*
X163600000Y-100491184D01*
X162400000Y-100491184D01*
X162233240Y-100522562D01*
X162080081Y-100621117D01*
X161977332Y-100771495D01*
X161941184Y-100950000D01*
X161858816Y-100950000D01*
X161827438Y-100783240D01*
X161728883Y-100630081D01*
X161578505Y-100527332D01*
X161400000Y-100491184D01*
X161400000Y-99608816D01*
X161566760Y-99577438D01*
X161719919Y-99478883D01*
X161822668Y-99328505D01*
X161858816Y-99150000D01*
X161858816Y-98807397D01*
X161941184Y-98889751D01*
X161941184Y-99150000D01*
X161972562Y-99316760D01*
X162071117Y-99469919D01*
X162221495Y-99572668D01*
X162400000Y-99608816D01*
X163600000Y-99608816D01*
X163766760Y-99577438D01*
X163919919Y-99478883D01*
X164022668Y-99328505D01*
X164058816Y-99150000D01*
X164058816Y-98250000D01*
X164027438Y-98083240D01*
X163928883Y-97930081D01*
X163778505Y-97827332D01*
X163600000Y-97791184D01*
X162539632Y-97791184D01*
X161602641Y-96854349D01*
X161719919Y-96778883D01*
X161822668Y-96628505D01*
X161858816Y-96450000D01*
X161858816Y-95550000D01*
X161941184Y-95550000D01*
X161941184Y-96450000D01*
X161972562Y-96616760D01*
X162071117Y-96769919D01*
X162221495Y-96872668D01*
X162250106Y-96878462D01*
X162249870Y-97148530D01*
X162363811Y-97424286D01*
X162574605Y-97635448D01*
X162850161Y-97749869D01*
X163148530Y-97750130D01*
X163424286Y-97636189D01*
X163635448Y-97425395D01*
X163749869Y-97149839D01*
X163750105Y-96880572D01*
X163766760Y-96877438D01*
X163919919Y-96778883D01*
X164022668Y-96628505D01*
X164058816Y-96450000D01*
X164058816Y-95550000D01*
X164027438Y-95383240D01*
X163928883Y-95230081D01*
X163778505Y-95127332D01*
X163600000Y-95091184D01*
X162400000Y-95091184D01*
X162233240Y-95122562D01*
X162080081Y-95221117D01*
X161977332Y-95371495D01*
X161941184Y-95550000D01*
X161858816Y-95550000D01*
X161827438Y-95383240D01*
X161728883Y-95230081D01*
X161578505Y-95127332D01*
X161400000Y-95091184D01*
X161398306Y-95091184D01*
X161354328Y-94870090D01*
X161354328Y-94870089D01*
X161224264Y-94675436D01*
X159757464Y-93208636D01*
X159562810Y-93078572D01*
X159333200Y-93032900D01*
X150867100Y-93032900D01*
X150637489Y-93078572D01*
X150442836Y-93208636D01*
X149933306Y-93718166D01*
X149769710Y-93650235D01*
X149232647Y-93649766D01*
X148736285Y-93854858D01*
X148356193Y-94234288D01*
X148150235Y-94730290D01*
X148150080Y-94907952D01*
X147817464Y-94575336D01*
X147622810Y-94445272D01*
X147393200Y-94399600D01*
X144938000Y-94399600D01*
X144708390Y-94445272D01*
X144513736Y-94575336D01*
X144097888Y-94991184D01*
X143800000Y-94991184D01*
X143633240Y-95022562D01*
X143480081Y-95121117D01*
X143377332Y-95271495D01*
X143371560Y-95300000D01*
X142849408Y-95300000D01*
X142827438Y-95183240D01*
X142728883Y-95030081D01*
X142578505Y-94927332D01*
X142400000Y-94891184D01*
X141200000Y-94891184D01*
X141033240Y-94922562D01*
X140880081Y-95021117D01*
X140777332Y-95171495D01*
X140741184Y-95350000D01*
X140741184Y-96250000D01*
X140772562Y-96416760D01*
X140871117Y-96569919D01*
X141021495Y-96672668D01*
X141200000Y-96708816D01*
X142400000Y-96708816D01*
X142566760Y-96677438D01*
X142719919Y-96578883D01*
X142773818Y-96500000D01*
X143369408Y-96500000D01*
X143372562Y-96516760D01*
X143471117Y-96669919D01*
X143621495Y-96772668D01*
X143800000Y-96808816D01*
X145000000Y-96808816D01*
X145166760Y-96777438D01*
X145319919Y-96678883D01*
X145422668Y-96528505D01*
X145458816Y-96350000D01*
X145458816Y-95599600D01*
X145541184Y-95599600D01*
X145541184Y-96350000D01*
X145572562Y-96516760D01*
X145671117Y-96669919D01*
X145821495Y-96772668D01*
X146000000Y-96808816D01*
X146001694Y-96808816D01*
X146045672Y-97029910D01*
X146175736Y-97224564D01*
X148063972Y-99112800D01*
X146366864Y-100809908D01*
X146352438Y-100733240D01*
X146253883Y-100580081D01*
X146103505Y-100477332D01*
X145925000Y-100441184D01*
X144675000Y-100441184D01*
X144508240Y-100472562D01*
X144355081Y-100571117D01*
X144252332Y-100721495D01*
X144216184Y-100900000D01*
X144216184Y-102400000D01*
X144247562Y-102566760D01*
X144346117Y-102719919D01*
X144496495Y-102822668D01*
X144675000Y-102858816D01*
X145925000Y-102858816D01*
X146091760Y-102827438D01*
X146244919Y-102728883D01*
X146347668Y-102578505D01*
X146383816Y-102400000D01*
X146383816Y-102248306D01*
X146604910Y-102204328D01*
X146799564Y-102074264D01*
X149161028Y-99712800D01*
X150387200Y-99712800D01*
X150616810Y-99667128D01*
X150811464Y-99537064D01*
X151566694Y-98781834D01*
X151730290Y-98849765D01*
X152267353Y-98850234D01*
X152763715Y-98645142D01*
X153143807Y-98265712D01*
X153212617Y-98100000D01*
X153287213Y-98100000D01*
X153354858Y-98263715D01*
X153734288Y-98643807D01*
X154230290Y-98849765D01*
X154767353Y-98850234D01*
X155263715Y-98645142D01*
X155643807Y-98265712D01*
X155849765Y-97769710D01*
X155850234Y-97232647D01*
X155826375Y-97174903D01*
X158874436Y-100222964D01*
X159069090Y-100353028D01*
X159298700Y-100398700D01*
X160200000Y-100398700D01*
X160200000Y-100491184D01*
X160033240Y-100522562D01*
X159880081Y-100621117D01*
X159777332Y-100771495D01*
X159741184Y-100950000D01*
X159741184Y-101850000D01*
X159772562Y-102016760D01*
X159871117Y-102169919D01*
X160021495Y-102272668D01*
X160200000Y-102308816D01*
X160201754Y-102308816D01*
X160245672Y-102529610D01*
X160350000Y-102685747D01*
X160350000Y-103412212D01*
X160305081Y-103441117D01*
X160202332Y-103591495D01*
X160166184Y-103770000D01*
X160166184Y-105330000D01*
X160197562Y-105496760D01*
X160296117Y-105649919D01*
X160446495Y-105752668D01*
X160625000Y-105788816D01*
X161200000Y-105788816D01*
X161200000Y-106011184D01*
X160625000Y-106011184D01*
X160458240Y-106042562D01*
X160305081Y-106141117D01*
X160202332Y-106291495D01*
X160166184Y-106470000D01*
X160166184Y-106498442D01*
X160049839Y-106450131D01*
X159751470Y-106449870D01*
X159475714Y-106563811D01*
X159264552Y-106774605D01*
X159150131Y-107050161D01*
X159149870Y-107348530D01*
X159263811Y-107624286D01*
X159474605Y-107835448D01*
X159750161Y-107949869D01*
X160048530Y-107950130D01*
X160166184Y-107901516D01*
X160166184Y-108030000D01*
X160197562Y-108196760D01*
X160296117Y-108349919D01*
X160446495Y-108452668D01*
X160625000Y-108488816D01*
X161200000Y-108488816D01*
X161200000Y-111968050D01*
X157718050Y-115450000D01*
X153539949Y-115450000D01*
X152594975Y-114505025D01*
X152535029Y-114464971D01*
X152494975Y-114405025D01*
X151999975Y-113910025D01*
X151772879Y-113758284D01*
X151619580Y-113727791D01*
X151697668Y-113613505D01*
X151733816Y-113435000D01*
X151733816Y-112835000D01*
X151723929Y-112782457D01*
X153770736Y-114829264D01*
X153965390Y-114959328D01*
X154195000Y-115005000D01*
X154783299Y-115005000D01*
X154796117Y-115024919D01*
X154946495Y-115127668D01*
X155125000Y-115163816D01*
X156675000Y-115163816D01*
X156841760Y-115132438D01*
X156994919Y-115033883D01*
X157097668Y-114883505D01*
X157133816Y-114705000D01*
X157133816Y-114105000D01*
X157102438Y-113938240D01*
X157003883Y-113785081D01*
X156983558Y-113771194D01*
X156994919Y-113763883D01*
X157097668Y-113613505D01*
X157133816Y-113435000D01*
X157133816Y-112835000D01*
X157102438Y-112668240D01*
X157003883Y-112515081D01*
X156983558Y-112501194D01*
X156994919Y-112493883D01*
X157014654Y-112465000D01*
X157035000Y-112465000D01*
X157264610Y-112419328D01*
X157459264Y-112289264D01*
X157598442Y-112150086D01*
X157648530Y-112150130D01*
X157924286Y-112036189D01*
X158135448Y-111825395D01*
X158249869Y-111549839D01*
X158250130Y-111251470D01*
X158136189Y-110975714D01*
X157925395Y-110764552D01*
X157649839Y-110650131D01*
X157351470Y-110649870D01*
X157075714Y-110763811D01*
X157053493Y-110785993D01*
X157012500Y-110745000D01*
X156050000Y-110745000D01*
X156050000Y-110765000D01*
X155750000Y-110765000D01*
X155750000Y-110745000D01*
X154787500Y-110745000D01*
X154675000Y-110857500D01*
X154675000Y-110984510D01*
X154743508Y-111149904D01*
X154820074Y-111226470D01*
X154805081Y-111236117D01*
X154702332Y-111386495D01*
X154666184Y-111565000D01*
X154666184Y-112165000D01*
X154697562Y-112331760D01*
X154782443Y-112463670D01*
X154749839Y-112450131D01*
X154451470Y-112449870D01*
X154175714Y-112563811D01*
X153964552Y-112774605D01*
X153850131Y-113050161D01*
X153849990Y-113211462D01*
X152500000Y-111861472D01*
X152500000Y-110205490D01*
X154675000Y-110205490D01*
X154675000Y-110332500D01*
X154787500Y-110445000D01*
X155750000Y-110445000D01*
X155750000Y-109957500D01*
X156050000Y-109957500D01*
X156050000Y-110445000D01*
X157012500Y-110445000D01*
X157125000Y-110332500D01*
X157125000Y-110205490D01*
X157056492Y-110040096D01*
X156929905Y-109913509D01*
X156764511Y-109845000D01*
X156162500Y-109845000D01*
X156050000Y-109957500D01*
X155750000Y-109957500D01*
X155637500Y-109845000D01*
X155035489Y-109845000D01*
X154870095Y-109913509D01*
X154743508Y-110040096D01*
X154675000Y-110205490D01*
X152500000Y-110205490D01*
X152500000Y-109800000D01*
X152454328Y-109570390D01*
X152324264Y-109375736D01*
X151702785Y-108754257D01*
X151819919Y-108678883D01*
X151922668Y-108528505D01*
X151958816Y-108350000D01*
X151958816Y-107450000D01*
X151927438Y-107283240D01*
X151828883Y-107130081D01*
X151678505Y-107027332D01*
X151500000Y-106991184D01*
X150300000Y-106991184D01*
X150133240Y-107022562D01*
X149980081Y-107121117D01*
X149877332Y-107271495D01*
X149841184Y-107450000D01*
X149841184Y-107593000D01*
X149817528Y-107593000D01*
X147837264Y-105612736D01*
X147818203Y-105600000D01*
X148287213Y-105600000D01*
X148354858Y-105763715D01*
X148734288Y-106143807D01*
X149230290Y-106349765D01*
X149767353Y-106350234D01*
X150263715Y-106145142D01*
X150643807Y-105765712D01*
X150750007Y-105509955D01*
X150854858Y-105763715D01*
X151234288Y-106143807D01*
X151730290Y-106349765D01*
X152267353Y-106350234D01*
X152500000Y-106254106D01*
X152500000Y-106991184D01*
X152333240Y-107022562D01*
X152180081Y-107121117D01*
X152077332Y-107271495D01*
X152041184Y-107450000D01*
X152041184Y-108350000D01*
X152072562Y-108516760D01*
X152171117Y-108669919D01*
X152321495Y-108772668D01*
X152500000Y-108808816D01*
X153700000Y-108808816D01*
X153866760Y-108777438D01*
X154019919Y-108678883D01*
X154122668Y-108528505D01*
X154158816Y-108350000D01*
X154158816Y-107450000D01*
X154127438Y-107283240D01*
X154028883Y-107130081D01*
X153878505Y-107027332D01*
X153700000Y-106991184D01*
X153700000Y-106109459D01*
X153734288Y-106143807D01*
X154230290Y-106349765D01*
X154767353Y-106350234D01*
X155263715Y-106145142D01*
X155643807Y-105765712D01*
X155849765Y-105269710D01*
X155850234Y-104732647D01*
X155645142Y-104236285D01*
X155265712Y-103856193D01*
X155009955Y-103749993D01*
X155263715Y-103645142D01*
X155643807Y-103265712D01*
X155849765Y-102769710D01*
X155850234Y-102232647D01*
X155645142Y-101736285D01*
X155265712Y-101356193D01*
X154769710Y-101150235D01*
X154232647Y-101149766D01*
X153736285Y-101354858D01*
X153356193Y-101734288D01*
X153287383Y-101900000D01*
X153212787Y-101900000D01*
X153145142Y-101736285D01*
X152765712Y-101356193D01*
X152269710Y-101150235D01*
X151732647Y-101149766D01*
X151236285Y-101354858D01*
X150856193Y-101734288D01*
X150749993Y-101990045D01*
X150645142Y-101736285D01*
X150265712Y-101356193D01*
X149769710Y-101150235D01*
X149232647Y-101149766D01*
X148736285Y-101354858D01*
X148356193Y-101734288D01*
X148150235Y-102230290D01*
X148149766Y-102767353D01*
X148354858Y-103263715D01*
X148734288Y-103643807D01*
X148990045Y-103750007D01*
X148736285Y-103854858D01*
X148356193Y-104234288D01*
X148287383Y-104400000D01*
X147473828Y-104400000D01*
X146799564Y-103725736D01*
X146604910Y-103595672D01*
X146383816Y-103551694D01*
X146383816Y-103400000D01*
X146352438Y-103233240D01*
X146253883Y-103080081D01*
X146103505Y-102977332D01*
X145925000Y-102941184D01*
X144675000Y-102941184D01*
X144508240Y-102972562D01*
X144355081Y-103071117D01*
X144252332Y-103221495D01*
X144216184Y-103400000D01*
X144216184Y-103442656D01*
X143202785Y-102429257D01*
X143319919Y-102353883D01*
X143422668Y-102203505D01*
X143458816Y-102025000D01*
X143458816Y-100775000D01*
X143427438Y-100608240D01*
X143328883Y-100455081D01*
X143178505Y-100352332D01*
X143120276Y-100340540D01*
X143135448Y-100325395D01*
X143249869Y-100049839D01*
X143250130Y-99751470D01*
X143136189Y-99475714D01*
X142925395Y-99264552D01*
X142772960Y-99201255D01*
X142822668Y-99128505D01*
X142858816Y-98950000D01*
X142858816Y-98050000D01*
X142827438Y-97883240D01*
X142728883Y-97730081D01*
X142578505Y-97627332D01*
X142400000Y-97591184D01*
X141589712Y-97591184D01*
X140543256Y-96544728D01*
X140622668Y-96428505D01*
X140658816Y-96250000D01*
X140658816Y-95350000D01*
X140627438Y-95183240D01*
X140528883Y-95030081D01*
X140378505Y-94927332D01*
X140200000Y-94891184D01*
X139000000Y-94891184D01*
X138833240Y-94922562D01*
X138680081Y-95021117D01*
X138577332Y-95171495D01*
X138541184Y-95350000D01*
X138541184Y-96250000D01*
X138572562Y-96416760D01*
X138671117Y-96569919D01*
X138821495Y-96672668D01*
X139000000Y-96708816D01*
X139131590Y-96708816D01*
X139145672Y-96779610D01*
X139275736Y-96974264D01*
X139892656Y-97591184D01*
X139000000Y-97591184D01*
X138833240Y-97622562D01*
X138680081Y-97721117D01*
X138577332Y-97871495D01*
X138541184Y-98050000D01*
X138541184Y-98950000D01*
X138572562Y-99116760D01*
X138671117Y-99269919D01*
X138821495Y-99372668D01*
X138900000Y-99388566D01*
X138900000Y-100335000D01*
X138833240Y-100347562D01*
X138680081Y-100446117D01*
X138577332Y-100596495D01*
X138565180Y-100656501D01*
X138549839Y-100650131D01*
X138251470Y-100649870D01*
X137975714Y-100763811D01*
X137764552Y-100974605D01*
X137650131Y-101250161D01*
X137649870Y-101548530D01*
X137525000Y-101548530D01*
X137525000Y-92525000D01*
X166475000Y-92525000D01*
X166475000Y-121475000D01*
X166475000Y-121475000D01*
G37*
X166475000Y-121475000D02*
X141093208Y-121475000D01*
X141424944Y-121253341D01*
X141739154Y-120783093D01*
X141849490Y-120228397D01*
X141849490Y-120171603D01*
X141739154Y-119616907D01*
X141424944Y-119146659D01*
X141382511Y-119118306D01*
X141399490Y-119118306D01*
X141566250Y-119086928D01*
X141719409Y-118988373D01*
X141822158Y-118837995D01*
X141837446Y-118762500D01*
X146800000Y-118762500D01*
X146800000Y-119339510D01*
X146868508Y-119504904D01*
X146995095Y-119631491D01*
X147160489Y-119700000D01*
X147737500Y-119700000D01*
X147850000Y-119587500D01*
X147850000Y-118650000D01*
X146912500Y-118650000D01*
X146800000Y-118762500D01*
X141837446Y-118762500D01*
X141858306Y-118659490D01*
X141858306Y-117660490D01*
X146800000Y-117660490D01*
X146800000Y-118237500D01*
X146912500Y-118350000D01*
X147850000Y-118350000D01*
X147850000Y-117412500D01*
X147737500Y-117300000D01*
X147160489Y-117300000D01*
X146995095Y-117368509D01*
X146868508Y-117495096D01*
X146800000Y-117660490D01*
X141858306Y-117660490D01*
X141858306Y-116660510D01*
X141826928Y-116493750D01*
X141728373Y-116340591D01*
X141577995Y-116237842D01*
X141399490Y-116201694D01*
X141298256Y-116201694D01*
X142269972Y-115229977D01*
X142269975Y-115229975D01*
X142389084Y-115051716D01*
X142421716Y-115002879D01*
X142475001Y-114735000D01*
X142475000Y-114734995D01*
X142475000Y-114465000D01*
X142541760Y-114452438D01*
X142694919Y-114353883D01*
X142748818Y-114275000D01*
X144252864Y-114275000D01*
X144346117Y-114419919D01*
X144496495Y-114522668D01*
X144675000Y-114558816D01*
X145925000Y-114558816D01*
X146091760Y-114527438D01*
X146244919Y-114428883D01*
X146347668Y-114278505D01*
X146383816Y-114100000D01*
X146383816Y-112600000D01*
X146352438Y-112433240D01*
X146253883Y-112280081D01*
X146103505Y-112177332D01*
X145925000Y-112141184D01*
X144675000Y-112141184D01*
X144508240Y-112172562D01*
X144355081Y-112271117D01*
X144252332Y-112421495D01*
X144216184Y-112600000D01*
X144216184Y-112875000D01*
X142748875Y-112875000D01*
X142703883Y-112805081D01*
X142553505Y-112702332D01*
X142375000Y-112666184D01*
X141175000Y-112666184D01*
X141008240Y-112697562D01*
X140855081Y-112796117D01*
X140752332Y-112946495D01*
X140716184Y-113125000D01*
X140716184Y-114025000D01*
X140747562Y-114191760D01*
X140846117Y-114344919D01*
X140996495Y-114447668D01*
X141059603Y-114460448D01*
X139905025Y-115615025D01*
X139753284Y-115842121D01*
X139741771Y-115900000D01*
X139700000Y-116110000D01*
X139700000Y-116201694D01*
X139400510Y-116201694D01*
X139233750Y-116233072D01*
X139080591Y-116331627D01*
X138977842Y-116482005D01*
X138941694Y-116660510D01*
X138941694Y-118659490D01*
X138973072Y-118826250D01*
X139071627Y-118979409D01*
X139222005Y-119082158D01*
X139400510Y-119118306D01*
X139417489Y-119118306D01*
X139375056Y-119146659D01*
X139060846Y-119616907D01*
X138950510Y-120171603D01*
X138950510Y-120228397D01*
X139060846Y-120783093D01*
X139375056Y-121253341D01*
X139706792Y-121475000D01*
X137525000Y-121475000D01*
X137525000Y-113648530D01*
X137649870Y-113648530D01*
X137763811Y-113924286D01*
X137974605Y-114135448D01*
X138250161Y-114249869D01*
X138349092Y-114249956D01*
X138475000Y-114275000D01*
X138601125Y-114275000D01*
X138646117Y-114344919D01*
X138796495Y-114447668D01*
X138975000Y-114483816D01*
X140175000Y-114483816D01*
X140341760Y-114452438D01*
X140494919Y-114353883D01*
X140597668Y-114203505D01*
X140633816Y-114025000D01*
X140633816Y-113125000D01*
X140602438Y-112958240D01*
X140503883Y-112805081D01*
X140353505Y-112702332D01*
X140175000Y-112666184D01*
X138975000Y-112666184D01*
X138808240Y-112697562D01*
X138657240Y-112794728D01*
X138549839Y-112750131D01*
X138251470Y-112749870D01*
X137975714Y-112863811D01*
X137764552Y-113074605D01*
X137650131Y-113350161D01*
X137649870Y-113648530D01*
X137525000Y-113648530D01*
X137525000Y-110848530D01*
X137649870Y-110848530D01*
X137763811Y-111124286D01*
X137974605Y-111335448D01*
X138250161Y-111449869D01*
X138548530Y-111450130D01*
X138628269Y-111417182D01*
X138646117Y-111444919D01*
X138796495Y-111547668D01*
X138975000Y-111583816D01*
X140175000Y-111583816D01*
X140341760Y-111552438D01*
X140494919Y-111453883D01*
X140597668Y-111303505D01*
X140633816Y-111125000D01*
X140633816Y-110225000D01*
X140602438Y-110058240D01*
X140503883Y-109905081D01*
X140353505Y-109802332D01*
X140175000Y-109766184D01*
X138975000Y-109766184D01*
X138808240Y-109797562D01*
X138655081Y-109896117D01*
X138603072Y-109972235D01*
X138549839Y-109950131D01*
X138251470Y-109949870D01*
X137975714Y-110063811D01*
X137764552Y-110274605D01*
X137650131Y-110550161D01*
X137649870Y-110848530D01*
X137525000Y-110848530D01*
X137525000Y-104448530D01*
X137649870Y-104448530D01*
X137763811Y-104724286D01*
X137974605Y-104935448D01*
X138250161Y-105049869D01*
X138548530Y-105050130D01*
X138635310Y-105014273D01*
X138671117Y-105069919D01*
X138821495Y-105172668D01*
X139000000Y-105208816D01*
X140200000Y-105208816D01*
X140366760Y-105177438D01*
X140519919Y-105078883D01*
X140622668Y-104928505D01*
X140658816Y-104750000D01*
X140658816Y-103850000D01*
X140627438Y-103683240D01*
X140528883Y-103530081D01*
X140378505Y-103427332D01*
X140200000Y-103391184D01*
X139000000Y-103391184D01*
X138833240Y-103422562D01*
X138680081Y-103521117D01*
X138635853Y-103585847D01*
X138549839Y-103550131D01*
X138251470Y-103549870D01*
X137975714Y-103663811D01*
X137764552Y-103874605D01*
X137650131Y-104150161D01*
X137649870Y-104448530D01*
X137525000Y-104448530D01*
X137525000Y-101548530D01*
X137649870Y-101548530D01*
X137763811Y-101824286D01*
X137974605Y-102035448D01*
X138250161Y-102149869D01*
X138548530Y-102150130D01*
X138563560Y-102143920D01*
X138572562Y-102191760D01*
X138671117Y-102344919D01*
X138821495Y-102447668D01*
X139000000Y-102483816D01*
X140500000Y-102483816D01*
X140666760Y-102452438D01*
X140819919Y-102353883D01*
X140922668Y-102203505D01*
X140958816Y-102025000D01*
X140958816Y-100775000D01*
X140927438Y-100608240D01*
X140828883Y-100455081D01*
X140678505Y-100352332D01*
X140500000Y-100316184D01*
X140300000Y-100316184D01*
X140300000Y-99390000D01*
X140366760Y-99377438D01*
X140519919Y-99278883D01*
X140622668Y-99128505D01*
X140658816Y-98950000D01*
X140658816Y-98357344D01*
X140741184Y-98439712D01*
X140741184Y-98950000D01*
X140772562Y-99116760D01*
X140871117Y-99269919D01*
X141021495Y-99372668D01*
X141200000Y-99408816D01*
X141241536Y-99408816D01*
X141245672Y-99429610D01*
X141375736Y-99624264D01*
X141749914Y-99998442D01*
X141749870Y-100048530D01*
X141860463Y-100316184D01*
X141500000Y-100316184D01*
X141333240Y-100347562D01*
X141180081Y-100446117D01*
X141077332Y-100596495D01*
X141041184Y-100775000D01*
X141041184Y-102025000D01*
X141072562Y-102191760D01*
X141171117Y-102344919D01*
X141321495Y-102447668D01*
X141500000Y-102483816D01*
X141681590Y-102483816D01*
X141695672Y-102554610D01*
X141825736Y-102749264D01*
X142484836Y-103408364D01*
X142400000Y-103391184D01*
X141200000Y-103391184D01*
X141033240Y-103422562D01*
X140880081Y-103521117D01*
X140777332Y-103671495D01*
X140741184Y-103850000D01*
X140741184Y-104750000D01*
X140772562Y-104916760D01*
X140806684Y-104969788D01*
X139851078Y-105925394D01*
X139775736Y-105975736D01*
X139575736Y-106175736D01*
X139532005Y-106241184D01*
X139000000Y-106241184D01*
X138833240Y-106272562D01*
X138680081Y-106371117D01*
X138577332Y-106521495D01*
X138541184Y-106700000D01*
X138541184Y-108300000D01*
X138572562Y-108466760D01*
X138671117Y-108619919D01*
X138821495Y-108722668D01*
X139000000Y-108758816D01*
X141000000Y-108758816D01*
X141166760Y-108727438D01*
X141319919Y-108628883D01*
X141422668Y-108478505D01*
X141458816Y-108300000D01*
X141458816Y-106700000D01*
X141427438Y-106533240D01*
X141328883Y-106380081D01*
X141189015Y-106284513D01*
X142264712Y-105208816D01*
X142400000Y-105208816D01*
X142566760Y-105177438D01*
X142719919Y-105078883D01*
X142725987Y-105070003D01*
X142870161Y-105129869D01*
X143168530Y-105130130D01*
X143358498Y-105051636D01*
X143425736Y-105152264D01*
X144514656Y-106241184D01*
X143000000Y-106241184D01*
X142833240Y-106272562D01*
X142680081Y-106371117D01*
X142577332Y-106521495D01*
X142541184Y-106700000D01*
X142541184Y-108300000D01*
X142572562Y-108466760D01*
X142671117Y-108619919D01*
X142821495Y-108722668D01*
X143000000Y-108758816D01*
X143401754Y-108758816D01*
X143445672Y-108979610D01*
X143575736Y-109174264D01*
X143770390Y-109304328D01*
X144000000Y-109350000D01*
X147081472Y-109350000D01*
X148750736Y-111019264D01*
X148945390Y-111149328D01*
X149175000Y-111195000D01*
X149383299Y-111195000D01*
X149396117Y-111214919D01*
X149416442Y-111228806D01*
X149405081Y-111236117D01*
X149302332Y-111386495D01*
X149266184Y-111565000D01*
X149266184Y-112165000D01*
X149297562Y-112331760D01*
X149396117Y-112484919D01*
X149416442Y-112498806D01*
X149405081Y-112506117D01*
X149385346Y-112535000D01*
X148908528Y-112535000D01*
X146799264Y-110425736D01*
X146604610Y-110295672D01*
X146383816Y-110251754D01*
X146383816Y-110100000D01*
X146352438Y-109933240D01*
X146253883Y-109780081D01*
X146103505Y-109677332D01*
X145925000Y-109641184D01*
X144675000Y-109641184D01*
X144508240Y-109672562D01*
X144355081Y-109771117D01*
X144252332Y-109921495D01*
X144221247Y-110075000D01*
X142805592Y-110075000D01*
X142802438Y-110058240D01*
X142703883Y-109905081D01*
X142553505Y-109802332D01*
X142375000Y-109766184D01*
X141175000Y-109766184D01*
X141008240Y-109797562D01*
X140855081Y-109896117D01*
X140752332Y-110046495D01*
X140716184Y-110225000D01*
X140716184Y-111125000D01*
X140747562Y-111291760D01*
X140846117Y-111444919D01*
X140996495Y-111547668D01*
X141175000Y-111583816D01*
X142375000Y-111583816D01*
X142541760Y-111552438D01*
X142694919Y-111453883D01*
X142797668Y-111303505D01*
X142803440Y-111275000D01*
X144216184Y-111275000D01*
X144216184Y-111600000D01*
X144247562Y-111766760D01*
X144346117Y-111919919D01*
X144496495Y-112022668D01*
X144675000Y-112058816D01*
X145925000Y-112058816D01*
X146091760Y-112027438D01*
X146244919Y-111928883D01*
X146347668Y-111778505D01*
X146365739Y-111689267D01*
X148235736Y-113559264D01*
X148430390Y-113689328D01*
X148660000Y-113735000D01*
X149383299Y-113735000D01*
X149396117Y-113754919D01*
X149416442Y-113768806D01*
X149405081Y-113776117D01*
X149302332Y-113926495D01*
X149266184Y-114105000D01*
X149266184Y-114705000D01*
X149297562Y-114871760D01*
X149396117Y-115024919D01*
X149546495Y-115127668D01*
X149725000Y-115163816D01*
X151273866Y-115163816D01*
X151300000Y-115189950D01*
X151300000Y-117503203D01*
X150999735Y-117802943D01*
X150680633Y-117483283D01*
X150239742Y-117300209D01*
X149762353Y-117299793D01*
X149321143Y-117482097D01*
X149183161Y-117619838D01*
X149131492Y-117495096D01*
X149004905Y-117368509D01*
X148839511Y-117300000D01*
X148262500Y-117300000D01*
X148150000Y-117412500D01*
X148150000Y-118350000D01*
X148170000Y-118350000D01*
X148170000Y-118650000D01*
X148150000Y-118650000D01*
X148150000Y-119587500D01*
X148262500Y-119700000D01*
X148839511Y-119700000D01*
X149004905Y-119631491D01*
X149131492Y-119504904D01*
X149183129Y-119380241D01*
X149319367Y-119516717D01*
X149760258Y-119699791D01*
X150237647Y-119700207D01*
X150678857Y-119517903D01*
X151000265Y-119197057D01*
X151319367Y-119516717D01*
X151760258Y-119699791D01*
X152237647Y-119700207D01*
X152678857Y-119517903D01*
X153000265Y-119197057D01*
X153319367Y-119516717D01*
X153760258Y-119699791D01*
X154210233Y-119700183D01*
X154836025Y-120325975D01*
X155063122Y-120477716D01*
X155331000Y-120531000D01*
X159869000Y-120531000D01*
X160136879Y-120477716D01*
X160363975Y-120325975D01*
X160994975Y-119694975D01*
X161019136Y-119658816D01*
X161500000Y-119658816D01*
X161666760Y-119627438D01*
X161819919Y-119528883D01*
X161922668Y-119378505D01*
X161958816Y-119200000D01*
X161958816Y-117600000D01*
X163041184Y-117600000D01*
X163041184Y-119200000D01*
X163072562Y-119366760D01*
X163171117Y-119519919D01*
X163321495Y-119622668D01*
X163500000Y-119658816D01*
X165500000Y-119658816D01*
X165666760Y-119627438D01*
X165819919Y-119528883D01*
X165922668Y-119378505D01*
X165958816Y-119200000D01*
X165958816Y-117600000D01*
X165927438Y-117433240D01*
X165828883Y-117280081D01*
X165678505Y-117177332D01*
X165500000Y-117141184D01*
X165400000Y-117141184D01*
X165400000Y-116208816D01*
X165566760Y-116177438D01*
X165719919Y-116078883D01*
X165822668Y-115928505D01*
X165858816Y-115750000D01*
X165858816Y-114850000D01*
X165827438Y-114683240D01*
X165728883Y-114530081D01*
X165578505Y-114427332D01*
X165400000Y-114391184D01*
X164200000Y-114391184D01*
X164033240Y-114422562D01*
X163880081Y-114521117D01*
X163777332Y-114671495D01*
X163741184Y-114850000D01*
X163741184Y-115750000D01*
X163772562Y-115916760D01*
X163871117Y-116069919D01*
X164021495Y-116172668D01*
X164200000Y-116208816D01*
X164200000Y-117141184D01*
X163500000Y-117141184D01*
X163333240Y-117172562D01*
X163180081Y-117271117D01*
X163077332Y-117421495D01*
X163041184Y-117600000D01*
X161958816Y-117600000D01*
X161927438Y-117433240D01*
X161828883Y-117280081D01*
X161678505Y-117177332D01*
X161500000Y-117141184D01*
X159500000Y-117141184D01*
X159333240Y-117172562D01*
X159180081Y-117271117D01*
X159077332Y-117421495D01*
X159041184Y-117600000D01*
X159041184Y-119131000D01*
X157037326Y-119131000D01*
X157199791Y-118739742D01*
X157200207Y-118262353D01*
X157017903Y-117821143D01*
X156680633Y-117483283D01*
X156239742Y-117300209D01*
X155762353Y-117299793D01*
X155321143Y-117482097D01*
X154999735Y-117802943D01*
X154680633Y-117483283D01*
X154239742Y-117300209D01*
X153762353Y-117299793D01*
X153321143Y-117482097D01*
X152999735Y-117802943D01*
X152700000Y-117502684D01*
X152700000Y-116589949D01*
X152755023Y-116644972D01*
X152755025Y-116644975D01*
X152868573Y-116720845D01*
X152982121Y-116796716D01*
X153250000Y-116850001D01*
X153250005Y-116850000D01*
X158008000Y-116850000D01*
X158275879Y-116796716D01*
X158502975Y-116644975D01*
X162394975Y-112752975D01*
X162459441Y-112656495D01*
X162546716Y-112525878D01*
X162600000Y-112258000D01*
X162600000Y-108467500D01*
X162700000Y-108367500D01*
X162700000Y-107400000D01*
X162680000Y-107400000D01*
X162680000Y-107100000D01*
X162700000Y-107100000D01*
X162700000Y-107080000D01*
X163000000Y-107080000D01*
X163000000Y-107100000D01*
X163020000Y-107100000D01*
X163020000Y-107400000D01*
X163000000Y-107400000D01*
X163000000Y-108367500D01*
X163112500Y-108480000D01*
X163200000Y-108480000D01*
X163200000Y-112951472D01*
X162175736Y-113975736D01*
X162045672Y-114170390D01*
X162001754Y-114391184D01*
X162000000Y-114391184D01*
X161833240Y-114422562D01*
X161680081Y-114521117D01*
X161577332Y-114671495D01*
X161541184Y-114850000D01*
X161541184Y-115750000D01*
X161572562Y-115916760D01*
X161671117Y-116069919D01*
X161821495Y-116172668D01*
X162000000Y-116208816D01*
X163200000Y-116208816D01*
X163366760Y-116177438D01*
X163519919Y-116078883D01*
X163622668Y-115928505D01*
X163658816Y-115750000D01*
X163658816Y-114850000D01*
X163627438Y-114683240D01*
X163528883Y-114530081D01*
X163403867Y-114444661D01*
X164224264Y-113624264D01*
X164354328Y-113429610D01*
X164400000Y-113200000D01*
X164400000Y-106400000D01*
X164354328Y-106170390D01*
X164224264Y-105975736D01*
X163624505Y-105375977D01*
X163633816Y-105330000D01*
X163633816Y-103770000D01*
X163602438Y-103603240D01*
X163503883Y-103450081D01*
X163474934Y-103430301D01*
X163549869Y-103249839D01*
X163550130Y-102951470D01*
X163436189Y-102675714D01*
X163225395Y-102464552D01*
X162949839Y-102350131D01*
X162651470Y-102349870D01*
X162375714Y-102463811D01*
X162164552Y-102674605D01*
X162050131Y-102950161D01*
X162049870Y-103248530D01*
X162075758Y-103311184D01*
X161575000Y-103311184D01*
X161550000Y-103315888D01*
X161550000Y-102450000D01*
X161517518Y-102286703D01*
X161566760Y-102277438D01*
X161719919Y-102178883D01*
X161822668Y-102028505D01*
X161858816Y-101850000D01*
X161858816Y-100950000D01*
X161941184Y-100950000D01*
X161941184Y-101850000D01*
X161972562Y-102016760D01*
X162071117Y-102169919D01*
X162221495Y-102272668D01*
X162400000Y-102308816D01*
X163600000Y-102308816D01*
X163766760Y-102277438D01*
X163919919Y-102178883D01*
X163973818Y-102100000D01*
X164130063Y-102100000D01*
X164250161Y-102149869D01*
X164548530Y-102150130D01*
X164824286Y-102036189D01*
X165035448Y-101825395D01*
X165149869Y-101549839D01*
X165150130Y-101251470D01*
X165036189Y-100975714D01*
X164825395Y-100764552D01*
X164549839Y-100650131D01*
X164251470Y-100649870D01*
X164130147Y-100700000D01*
X163973875Y-100700000D01*
X163928883Y-100630081D01*
X163778505Y-100527332D01*
X163600000Y-100491184D01*
X162400000Y-100491184D01*
X162233240Y-100522562D01*
X162080081Y-100621117D01*
X161977332Y-100771495D01*
X161941184Y-100950000D01*
X161858816Y-100950000D01*
X161827438Y-100783240D01*
X161728883Y-100630081D01*
X161578505Y-100527332D01*
X161400000Y-100491184D01*
X161400000Y-99608816D01*
X161566760Y-99577438D01*
X161719919Y-99478883D01*
X161822668Y-99328505D01*
X161858816Y-99150000D01*
X161858816Y-98807397D01*
X161941184Y-98889751D01*
X161941184Y-99150000D01*
X161972562Y-99316760D01*
X162071117Y-99469919D01*
X162221495Y-99572668D01*
X162400000Y-99608816D01*
X163600000Y-99608816D01*
X163766760Y-99577438D01*
X163919919Y-99478883D01*
X164022668Y-99328505D01*
X164058816Y-99150000D01*
X164058816Y-98250000D01*
X164027438Y-98083240D01*
X163928883Y-97930081D01*
X163778505Y-97827332D01*
X163600000Y-97791184D01*
X162539632Y-97791184D01*
X161602641Y-96854349D01*
X161719919Y-96778883D01*
X161822668Y-96628505D01*
X161858816Y-96450000D01*
X161858816Y-95550000D01*
X161941184Y-95550000D01*
X161941184Y-96450000D01*
X161972562Y-96616760D01*
X162071117Y-96769919D01*
X162221495Y-96872668D01*
X162250106Y-96878462D01*
X162249870Y-97148530D01*
X162363811Y-97424286D01*
X162574605Y-97635448D01*
X162850161Y-97749869D01*
X163148530Y-97750130D01*
X163424286Y-97636189D01*
X163635448Y-97425395D01*
X163749869Y-97149839D01*
X163750105Y-96880572D01*
X163766760Y-96877438D01*
X163919919Y-96778883D01*
X164022668Y-96628505D01*
X164058816Y-96450000D01*
X164058816Y-95550000D01*
X164027438Y-95383240D01*
X163928883Y-95230081D01*
X163778505Y-95127332D01*
X163600000Y-95091184D01*
X162400000Y-95091184D01*
X162233240Y-95122562D01*
X162080081Y-95221117D01*
X161977332Y-95371495D01*
X161941184Y-95550000D01*
X161858816Y-95550000D01*
X161827438Y-95383240D01*
X161728883Y-95230081D01*
X161578505Y-95127332D01*
X161400000Y-95091184D01*
X161398306Y-95091184D01*
X161354328Y-94870090D01*
X161354328Y-94870089D01*
X161224264Y-94675436D01*
X159757464Y-93208636D01*
X159562810Y-93078572D01*
X159333200Y-93032900D01*
X150867100Y-93032900D01*
X150637489Y-93078572D01*
X150442836Y-93208636D01*
X149933306Y-93718166D01*
X149769710Y-93650235D01*
X149232647Y-93649766D01*
X148736285Y-93854858D01*
X148356193Y-94234288D01*
X148150235Y-94730290D01*
X148150080Y-94907952D01*
X147817464Y-94575336D01*
X147622810Y-94445272D01*
X147393200Y-94399600D01*
X144938000Y-94399600D01*
X144708390Y-94445272D01*
X144513736Y-94575336D01*
X144097888Y-94991184D01*
X143800000Y-94991184D01*
X143633240Y-95022562D01*
X143480081Y-95121117D01*
X143377332Y-95271495D01*
X143371560Y-95300000D01*
X142849408Y-95300000D01*
X142827438Y-95183240D01*
X142728883Y-95030081D01*
X142578505Y-94927332D01*
X142400000Y-94891184D01*
X141200000Y-94891184D01*
X141033240Y-94922562D01*
X140880081Y-95021117D01*
X140777332Y-95171495D01*
X140741184Y-95350000D01*
X140741184Y-96250000D01*
X140772562Y-96416760D01*
X140871117Y-96569919D01*
X141021495Y-96672668D01*
X141200000Y-96708816D01*
X142400000Y-96708816D01*
X142566760Y-96677438D01*
X142719919Y-96578883D01*
X142773818Y-96500000D01*
X143369408Y-96500000D01*
X143372562Y-96516760D01*
X143471117Y-96669919D01*
X143621495Y-96772668D01*
X143800000Y-96808816D01*
X145000000Y-96808816D01*
X145166760Y-96777438D01*
X145319919Y-96678883D01*
X145422668Y-96528505D01*
X145458816Y-96350000D01*
X145458816Y-95599600D01*
X145541184Y-95599600D01*
X145541184Y-96350000D01*
X145572562Y-96516760D01*
X145671117Y-96669919D01*
X145821495Y-96772668D01*
X146000000Y-96808816D01*
X146001694Y-96808816D01*
X146045672Y-97029910D01*
X146175736Y-97224564D01*
X148063972Y-99112800D01*
X146366864Y-100809908D01*
X146352438Y-100733240D01*
X146253883Y-100580081D01*
X146103505Y-100477332D01*
X145925000Y-100441184D01*
X144675000Y-100441184D01*
X144508240Y-100472562D01*
X144355081Y-100571117D01*
X144252332Y-100721495D01*
X144216184Y-100900000D01*
X144216184Y-102400000D01*
X144247562Y-102566760D01*
X144346117Y-102719919D01*
X144496495Y-102822668D01*
X144675000Y-102858816D01*
X145925000Y-102858816D01*
X146091760Y-102827438D01*
X146244919Y-102728883D01*
X146347668Y-102578505D01*
X146383816Y-102400000D01*
X146383816Y-102248306D01*
X146604910Y-102204328D01*
X146799564Y-102074264D01*
X149161028Y-99712800D01*
X150387200Y-99712800D01*
X150616810Y-99667128D01*
X150811464Y-99537064D01*
X151566694Y-98781834D01*
X151730290Y-98849765D01*
X152267353Y-98850234D01*
X152763715Y-98645142D01*
X153143807Y-98265712D01*
X153212617Y-98100000D01*
X153287213Y-98100000D01*
X153354858Y-98263715D01*
X153734288Y-98643807D01*
X154230290Y-98849765D01*
X154767353Y-98850234D01*
X155263715Y-98645142D01*
X155643807Y-98265712D01*
X155849765Y-97769710D01*
X155850234Y-97232647D01*
X155826375Y-97174903D01*
X158874436Y-100222964D01*
X159069090Y-100353028D01*
X159298700Y-100398700D01*
X160200000Y-100398700D01*
X160200000Y-100491184D01*
X160033240Y-100522562D01*
X159880081Y-100621117D01*
X159777332Y-100771495D01*
X159741184Y-100950000D01*
X159741184Y-101850000D01*
X159772562Y-102016760D01*
X159871117Y-102169919D01*
X160021495Y-102272668D01*
X160200000Y-102308816D01*
X160201754Y-102308816D01*
X160245672Y-102529610D01*
X160350000Y-102685747D01*
X160350000Y-103412212D01*
X160305081Y-103441117D01*
X160202332Y-103591495D01*
X160166184Y-103770000D01*
X160166184Y-105330000D01*
X160197562Y-105496760D01*
X160296117Y-105649919D01*
X160446495Y-105752668D01*
X160625000Y-105788816D01*
X161200000Y-105788816D01*
X161200000Y-106011184D01*
X160625000Y-106011184D01*
X160458240Y-106042562D01*
X160305081Y-106141117D01*
X160202332Y-106291495D01*
X160166184Y-106470000D01*
X160166184Y-106498442D01*
X160049839Y-106450131D01*
X159751470Y-106449870D01*
X159475714Y-106563811D01*
X159264552Y-106774605D01*
X159150131Y-107050161D01*
X159149870Y-107348530D01*
X159263811Y-107624286D01*
X159474605Y-107835448D01*
X159750161Y-107949869D01*
X160048530Y-107950130D01*
X160166184Y-107901516D01*
X160166184Y-108030000D01*
X160197562Y-108196760D01*
X160296117Y-108349919D01*
X160446495Y-108452668D01*
X160625000Y-108488816D01*
X161200000Y-108488816D01*
X161200000Y-111968050D01*
X157718050Y-115450000D01*
X153539949Y-115450000D01*
X152594975Y-114505025D01*
X152535029Y-114464971D01*
X152494975Y-114405025D01*
X151999975Y-113910025D01*
X151772879Y-113758284D01*
X151619580Y-113727791D01*
X151697668Y-113613505D01*
X151733816Y-113435000D01*
X151733816Y-112835000D01*
X151723929Y-112782457D01*
X153770736Y-114829264D01*
X153965390Y-114959328D01*
X154195000Y-115005000D01*
X154783299Y-115005000D01*
X154796117Y-115024919D01*
X154946495Y-115127668D01*
X155125000Y-115163816D01*
X156675000Y-115163816D01*
X156841760Y-115132438D01*
X156994919Y-115033883D01*
X157097668Y-114883505D01*
X157133816Y-114705000D01*
X157133816Y-114105000D01*
X157102438Y-113938240D01*
X157003883Y-113785081D01*
X156983558Y-113771194D01*
X156994919Y-113763883D01*
X157097668Y-113613505D01*
X157133816Y-113435000D01*
X157133816Y-112835000D01*
X157102438Y-112668240D01*
X157003883Y-112515081D01*
X156983558Y-112501194D01*
X156994919Y-112493883D01*
X157014654Y-112465000D01*
X157035000Y-112465000D01*
X157264610Y-112419328D01*
X157459264Y-112289264D01*
X157598442Y-112150086D01*
X157648530Y-112150130D01*
X157924286Y-112036189D01*
X158135448Y-111825395D01*
X158249869Y-111549839D01*
X158250130Y-111251470D01*
X158136189Y-110975714D01*
X157925395Y-110764552D01*
X157649839Y-110650131D01*
X157351470Y-110649870D01*
X157075714Y-110763811D01*
X157053493Y-110785993D01*
X157012500Y-110745000D01*
X156050000Y-110745000D01*
X156050000Y-110765000D01*
X155750000Y-110765000D01*
X155750000Y-110745000D01*
X154787500Y-110745000D01*
X154675000Y-110857500D01*
X154675000Y-110984510D01*
X154743508Y-111149904D01*
X154820074Y-111226470D01*
X154805081Y-111236117D01*
X154702332Y-111386495D01*
X154666184Y-111565000D01*
X154666184Y-112165000D01*
X154697562Y-112331760D01*
X154782443Y-112463670D01*
X154749839Y-112450131D01*
X154451470Y-112449870D01*
X154175714Y-112563811D01*
X153964552Y-112774605D01*
X153850131Y-113050161D01*
X153849990Y-113211462D01*
X152500000Y-111861472D01*
X152500000Y-110205490D01*
X154675000Y-110205490D01*
X154675000Y-110332500D01*
X154787500Y-110445000D01*
X155750000Y-110445000D01*
X155750000Y-109957500D01*
X156050000Y-109957500D01*
X156050000Y-110445000D01*
X157012500Y-110445000D01*
X157125000Y-110332500D01*
X157125000Y-110205490D01*
X157056492Y-110040096D01*
X156929905Y-109913509D01*
X156764511Y-109845000D01*
X156162500Y-109845000D01*
X156050000Y-109957500D01*
X155750000Y-109957500D01*
X155637500Y-109845000D01*
X155035489Y-109845000D01*
X154870095Y-109913509D01*
X154743508Y-110040096D01*
X154675000Y-110205490D01*
X152500000Y-110205490D01*
X152500000Y-109800000D01*
X152454328Y-109570390D01*
X152324264Y-109375736D01*
X151702785Y-108754257D01*
X151819919Y-108678883D01*
X151922668Y-108528505D01*
X151958816Y-108350000D01*
X151958816Y-107450000D01*
X151927438Y-107283240D01*
X151828883Y-107130081D01*
X151678505Y-107027332D01*
X151500000Y-106991184D01*
X150300000Y-106991184D01*
X150133240Y-107022562D01*
X149980081Y-107121117D01*
X149877332Y-107271495D01*
X149841184Y-107450000D01*
X149841184Y-107593000D01*
X149817528Y-107593000D01*
X147837264Y-105612736D01*
X147818203Y-105600000D01*
X148287213Y-105600000D01*
X148354858Y-105763715D01*
X148734288Y-106143807D01*
X149230290Y-106349765D01*
X149767353Y-106350234D01*
X150263715Y-106145142D01*
X150643807Y-105765712D01*
X150750007Y-105509955D01*
X150854858Y-105763715D01*
X151234288Y-106143807D01*
X151730290Y-106349765D01*
X152267353Y-106350234D01*
X152500000Y-106254106D01*
X152500000Y-106991184D01*
X152333240Y-107022562D01*
X152180081Y-107121117D01*
X152077332Y-107271495D01*
X152041184Y-107450000D01*
X152041184Y-108350000D01*
X152072562Y-108516760D01*
X152171117Y-108669919D01*
X152321495Y-108772668D01*
X152500000Y-108808816D01*
X153700000Y-108808816D01*
X153866760Y-108777438D01*
X154019919Y-108678883D01*
X154122668Y-108528505D01*
X154158816Y-108350000D01*
X154158816Y-107450000D01*
X154127438Y-107283240D01*
X154028883Y-107130081D01*
X153878505Y-107027332D01*
X153700000Y-106991184D01*
X153700000Y-106109459D01*
X153734288Y-106143807D01*
X154230290Y-106349765D01*
X154767353Y-106350234D01*
X155263715Y-106145142D01*
X155643807Y-105765712D01*
X155849765Y-105269710D01*
X155850234Y-104732647D01*
X155645142Y-104236285D01*
X155265712Y-103856193D01*
X155009955Y-103749993D01*
X155263715Y-103645142D01*
X155643807Y-103265712D01*
X155849765Y-102769710D01*
X155850234Y-102232647D01*
X155645142Y-101736285D01*
X155265712Y-101356193D01*
X154769710Y-101150235D01*
X154232647Y-101149766D01*
X153736285Y-101354858D01*
X153356193Y-101734288D01*
X153287383Y-101900000D01*
X153212787Y-101900000D01*
X153145142Y-101736285D01*
X152765712Y-101356193D01*
X152269710Y-101150235D01*
X151732647Y-101149766D01*
X151236285Y-101354858D01*
X150856193Y-101734288D01*
X150749993Y-101990045D01*
X150645142Y-101736285D01*
X150265712Y-101356193D01*
X149769710Y-101150235D01*
X149232647Y-101149766D01*
X148736285Y-101354858D01*
X148356193Y-101734288D01*
X148150235Y-102230290D01*
X148149766Y-102767353D01*
X148354858Y-103263715D01*
X148734288Y-103643807D01*
X148990045Y-103750007D01*
X148736285Y-103854858D01*
X148356193Y-104234288D01*
X148287383Y-104400000D01*
X147473828Y-104400000D01*
X146799564Y-103725736D01*
X146604910Y-103595672D01*
X146383816Y-103551694D01*
X146383816Y-103400000D01*
X146352438Y-103233240D01*
X146253883Y-103080081D01*
X146103505Y-102977332D01*
X145925000Y-102941184D01*
X144675000Y-102941184D01*
X144508240Y-102972562D01*
X144355081Y-103071117D01*
X144252332Y-103221495D01*
X144216184Y-103400000D01*
X144216184Y-103442656D01*
X143202785Y-102429257D01*
X143319919Y-102353883D01*
X143422668Y-102203505D01*
X143458816Y-102025000D01*
X143458816Y-100775000D01*
X143427438Y-100608240D01*
X143328883Y-100455081D01*
X143178505Y-100352332D01*
X143120276Y-100340540D01*
X143135448Y-100325395D01*
X143249869Y-100049839D01*
X143250130Y-99751470D01*
X143136189Y-99475714D01*
X142925395Y-99264552D01*
X142772960Y-99201255D01*
X142822668Y-99128505D01*
X142858816Y-98950000D01*
X142858816Y-98050000D01*
X142827438Y-97883240D01*
X142728883Y-97730081D01*
X142578505Y-97627332D01*
X142400000Y-97591184D01*
X141589712Y-97591184D01*
X140543256Y-96544728D01*
X140622668Y-96428505D01*
X140658816Y-96250000D01*
X140658816Y-95350000D01*
X140627438Y-95183240D01*
X140528883Y-95030081D01*
X140378505Y-94927332D01*
X140200000Y-94891184D01*
X139000000Y-94891184D01*
X138833240Y-94922562D01*
X138680081Y-95021117D01*
X138577332Y-95171495D01*
X138541184Y-95350000D01*
X138541184Y-96250000D01*
X138572562Y-96416760D01*
X138671117Y-96569919D01*
X138821495Y-96672668D01*
X139000000Y-96708816D01*
X139131590Y-96708816D01*
X139145672Y-96779610D01*
X139275736Y-96974264D01*
X139892656Y-97591184D01*
X139000000Y-97591184D01*
X138833240Y-97622562D01*
X138680081Y-97721117D01*
X138577332Y-97871495D01*
X138541184Y-98050000D01*
X138541184Y-98950000D01*
X138572562Y-99116760D01*
X138671117Y-99269919D01*
X138821495Y-99372668D01*
X138900000Y-99388566D01*
X138900000Y-100335000D01*
X138833240Y-100347562D01*
X138680081Y-100446117D01*
X138577332Y-100596495D01*
X138565180Y-100656501D01*
X138549839Y-100650131D01*
X138251470Y-100649870D01*
X137975714Y-100763811D01*
X137764552Y-100974605D01*
X137650131Y-101250161D01*
X137649870Y-101548530D01*
X137525000Y-101548530D01*
X137525000Y-92525000D01*
X166475000Y-92525000D01*
X166475000Y-121475000D01*
M02*
