M48
;DRILL file {KiCad 4.0.4-1.fc24-product} date Mon Jan 15 12:13:48 2018
;FORMAT={-:-/ absolute / metric / decimal}
FMAT,2
METRIC,TZ
T1C0.400
T2C0.800
T3C1.000
T4C1.097
%
G90
G05
M71
T1
X138.4Y-110.7
X138.4Y-101.4
X138.4Y-104.3
X138.4Y-113.6
X142.5Y-99.9
X142.8Y-104.3
X145.497Y-98.216
X147.1Y-100.1
X153.1Y-108.9
X154.6Y-113.2
X161.Y-108.6
X161.9Y-105.9
X162.8Y-103.1
X164.4Y-101.4
T2
X148.Y-119.2
X150.Y-119.2
X152.Y-119.2
X154.Y-119.2
X156.Y-119.2
T3
X149.5Y-95.
X149.5Y-97.5
X149.5Y-102.5
X149.5Y-105.
X152.Y-95.
X152.Y-97.5
X152.Y-102.5
X152.Y-105.
X154.5Y-95.
X154.5Y-97.5
X154.5Y-102.5
X154.5Y-105.
T4
X140.8Y-117.26
X140.8Y-119.8
T0
M30
