M48
;DRILL file {KiCad 4.0.4-1.fc24-product} date Fri Jan 12 13:42:13 2018
;FORMAT={-:-/ absolute / metric / decimal}
FMAT,2
METRIC,TZ
T1C0.400
T2C0.800
T3C1.000
T4C1.097
%
G90
G05
M71
T1
X138.4Y-101.4
X138.4Y-104.3
X138.4Y-110.7
X138.4Y-113.5
X142.5Y-99.9
X143.02Y-104.38
X145.497Y-98.216
X147.1Y-100.1
X154.3Y-107.9
X154.6Y-113.2
X159.9Y-107.2
X161.9Y-106.1
X162.8Y-103.1
X164.4Y-101.4
T2
X148.Y-118.5
X150.Y-118.5
X152.Y-118.5
X154.Y-118.5
X156.Y-118.5
T3
X149.5Y-95.
X149.5Y-97.5
X149.5Y-102.5
X149.5Y-105.
X152.Y-95.
X152.Y-97.5
X152.Y-102.5
X152.Y-105.
X154.5Y-95.
X154.5Y-97.5
X154.5Y-102.5
X154.5Y-105.
T4
X140.4Y-117.66
X140.4Y-120.2
T0
M30
