%TF.GenerationSoftware,KiCad,Pcbnew,4.0.4-1.fc24-product*%
%TF.CreationDate,2018-03-01T09:40:41+11:00*%
%TF.ProjectId,BT_STACK,42545F535441434B2E6B696361645F70,rev?*%
%TF.FileFunction,Legend,Top*%
%FSLAX46Y46*%
G04 Gerber Fmt 4.6, Leading zero omitted, Abs format (unit mm)*
G04 Created by KiCad (PCBNEW 4.0.4-1.fc24-product) date Thu Mar  1 09:40:41 2018*
%MOMM*%
%LPD*%
G01*
G04 APERTURE LIST*
%ADD10C,0.100000*%
%ADD11C,0.150000*%
%ADD12C,0.120000*%
G04 APERTURE END LIST*
D10*
D11*
X154075000Y-88575000D02*
X154075000Y-88430000D01*
X149925000Y-88575000D02*
X149925000Y-88430000D01*
X149925000Y-83425000D02*
X149925000Y-83570000D01*
X154075000Y-83425000D02*
X154075000Y-83570000D01*
X154075000Y-88575000D02*
X149925000Y-88575000D01*
X154075000Y-83425000D02*
X149925000Y-83425000D01*
X154075000Y-88430000D02*
X155475000Y-88430000D01*
D12*
X140650000Y-89500000D02*
X140650000Y-94200000D01*
X140650000Y-94200000D02*
X152750000Y-94200000D01*
X152750000Y-94200000D02*
X152750000Y-89500000D01*
X152750000Y-89500000D02*
X140650000Y-89500000D01*
X143200000Y-89500000D02*
X143200000Y-90100000D01*
X143200000Y-90100000D02*
X141250000Y-90100000D01*
X141250000Y-90100000D02*
X141250000Y-93600000D01*
X141250000Y-93600000D02*
X152150000Y-93600000D01*
X152150000Y-93600000D02*
X152150000Y-90100000D01*
X152150000Y-90100000D02*
X150200000Y-90100000D01*
X150200000Y-90100000D02*
X150200000Y-89500000D01*
X140650000Y-90800000D02*
X141250000Y-90800000D01*
X140650000Y-92100000D02*
X141250000Y-92100000D01*
X152750000Y-90800000D02*
X152150000Y-90800000D01*
X152750000Y-92100000D02*
X152150000Y-92100000D01*
X142400000Y-89500000D02*
X142400000Y-89300000D01*
X142400000Y-89300000D02*
X142100000Y-89300000D01*
X142100000Y-89300000D02*
X142100000Y-89500000D01*
X142400000Y-89400000D02*
X142100000Y-89400000D01*
X143600000Y-93600000D02*
X143600000Y-93100000D01*
X143600000Y-93100000D02*
X143800000Y-93100000D01*
X143800000Y-93100000D02*
X143800000Y-93600000D01*
X143700000Y-93600000D02*
X143700000Y-93100000D01*
X145600000Y-93600000D02*
X145600000Y-93100000D01*
X145600000Y-93100000D02*
X145800000Y-93100000D01*
X145800000Y-93100000D02*
X145800000Y-93600000D01*
X145700000Y-93600000D02*
X145700000Y-93100000D01*
X147600000Y-93600000D02*
X147600000Y-93100000D01*
X147600000Y-93100000D02*
X147800000Y-93100000D01*
X147800000Y-93100000D02*
X147800000Y-93600000D01*
X147700000Y-93600000D02*
X147700000Y-93100000D01*
X149600000Y-93600000D02*
X149600000Y-93100000D01*
X149600000Y-93100000D02*
X149800000Y-93100000D01*
X149800000Y-93100000D02*
X149800000Y-93600000D01*
X149700000Y-93600000D02*
X149700000Y-93100000D01*
X141600000Y-89200000D02*
X140350000Y-89200000D01*
X140350000Y-89200000D02*
X140350000Y-90450000D01*
D11*
X144500000Y-84675000D02*
X143500000Y-84675000D01*
X143500000Y-83325000D02*
X144500000Y-83325000D01*
X159600000Y-80125000D02*
X160600000Y-80125000D01*
X160600000Y-81475000D02*
X159600000Y-81475000D01*
X160600000Y-73675000D02*
X159600000Y-73675000D01*
X159600000Y-72325000D02*
X160600000Y-72325000D01*
X160900000Y-82950000D02*
X159900000Y-82950000D01*
X159900000Y-84650000D02*
X160900000Y-84650000D01*
X160600000Y-78475000D02*
X159600000Y-78475000D01*
X159600000Y-77125000D02*
X160600000Y-77125000D01*
X144400000Y-82175000D02*
X143400000Y-82175000D01*
X143400000Y-80825000D02*
X144400000Y-80825000D01*
X144400000Y-76675000D02*
X143400000Y-76675000D01*
X143400000Y-75325000D02*
X144400000Y-75325000D01*
X144400000Y-73675000D02*
X143400000Y-73675000D01*
X143400000Y-72325000D02*
X144400000Y-72325000D01*
X144400000Y-79675000D02*
X143400000Y-79675000D01*
X143400000Y-78325000D02*
X144400000Y-78325000D01*
D12*
X153250000Y-89500000D02*
X153250000Y-94200000D01*
X153250000Y-94200000D02*
X163350000Y-94200000D01*
X163350000Y-94200000D02*
X163350000Y-89500000D01*
X163350000Y-89500000D02*
X153250000Y-89500000D01*
X155800000Y-89500000D02*
X155800000Y-90100000D01*
X155800000Y-90100000D02*
X153850000Y-90100000D01*
X153850000Y-90100000D02*
X153850000Y-93600000D01*
X153850000Y-93600000D02*
X162750000Y-93600000D01*
X162750000Y-93600000D02*
X162750000Y-90100000D01*
X162750000Y-90100000D02*
X160800000Y-90100000D01*
X160800000Y-90100000D02*
X160800000Y-89500000D01*
X153250000Y-90800000D02*
X153850000Y-90800000D01*
X153250000Y-92100000D02*
X153850000Y-92100000D01*
X163350000Y-90800000D02*
X162750000Y-90800000D01*
X163350000Y-92100000D02*
X162750000Y-92100000D01*
X155000000Y-89500000D02*
X155000000Y-89300000D01*
X155000000Y-89300000D02*
X154700000Y-89300000D01*
X154700000Y-89300000D02*
X154700000Y-89500000D01*
X155000000Y-89400000D02*
X154700000Y-89400000D01*
X156200000Y-93600000D02*
X156200000Y-93100000D01*
X156200000Y-93100000D02*
X156400000Y-93100000D01*
X156400000Y-93100000D02*
X156400000Y-93600000D01*
X156300000Y-93600000D02*
X156300000Y-93100000D01*
X158200000Y-93600000D02*
X158200000Y-93100000D01*
X158200000Y-93100000D02*
X158400000Y-93100000D01*
X158400000Y-93100000D02*
X158400000Y-93600000D01*
X158300000Y-93600000D02*
X158300000Y-93100000D01*
X160200000Y-93600000D02*
X160200000Y-93100000D01*
X160200000Y-93100000D02*
X160400000Y-93100000D01*
X160400000Y-93100000D02*
X160400000Y-93600000D01*
X160300000Y-93600000D02*
X160300000Y-93100000D01*
X154200000Y-89200000D02*
X152950000Y-89200000D01*
X152950000Y-89200000D02*
X152950000Y-90450000D01*
D11*
X152500000Y-74550000D02*
X151500000Y-74550000D01*
X151500000Y-76250000D02*
X152500000Y-76250000D01*
X151650000Y-81000000D02*
X152350000Y-81000000D01*
X152350000Y-82200000D02*
X151650000Y-82200000D01*
D12*
X143050000Y-85900000D02*
X143750000Y-85900000D01*
X143750000Y-87100000D02*
X143050000Y-87100000D01*
X160500000Y-87680000D02*
X159500000Y-87680000D01*
X159500000Y-86320000D02*
X160500000Y-86320000D01*
D11*
X151542857Y-85671429D02*
X151542857Y-86157143D01*
X151571429Y-86214286D01*
X151600000Y-86242857D01*
X151657143Y-86271429D01*
X151771429Y-86271429D01*
X151828571Y-86242857D01*
X151857143Y-86214286D01*
X151885714Y-86157143D01*
X151885714Y-85671429D01*
X152485714Y-86271429D02*
X152142857Y-86271429D01*
X152314285Y-86271429D02*
X152314285Y-85671429D01*
X152257142Y-85757143D01*
X152200000Y-85814286D01*
X152142857Y-85842857D01*
X140557143Y-88971429D02*
X140557143Y-88371429D01*
X140785715Y-88371429D01*
X140842857Y-88400000D01*
X140871429Y-88428571D01*
X140900000Y-88485714D01*
X140900000Y-88571429D01*
X140871429Y-88628571D01*
X140842857Y-88657143D01*
X140785715Y-88685714D01*
X140557143Y-88685714D01*
X141471429Y-88971429D02*
X141128572Y-88971429D01*
X141300000Y-88971429D02*
X141300000Y-88371429D01*
X141242857Y-88457143D01*
X141185715Y-88514286D01*
X141128572Y-88542857D01*
X142400000Y-83071429D02*
X142200000Y-82785714D01*
X142057143Y-83071429D02*
X142057143Y-82471429D01*
X142285715Y-82471429D01*
X142342857Y-82500000D01*
X142371429Y-82528571D01*
X142400000Y-82585714D01*
X142400000Y-82671429D01*
X142371429Y-82728571D01*
X142342857Y-82757143D01*
X142285715Y-82785714D01*
X142057143Y-82785714D01*
X142742857Y-82728571D02*
X142685715Y-82700000D01*
X142657143Y-82671429D01*
X142628572Y-82614286D01*
X142628572Y-82585714D01*
X142657143Y-82528571D01*
X142685715Y-82500000D01*
X142742857Y-82471429D01*
X142857143Y-82471429D01*
X142914286Y-82500000D01*
X142942857Y-82528571D01*
X142971429Y-82585714D01*
X142971429Y-82614286D01*
X142942857Y-82671429D01*
X142914286Y-82700000D01*
X142857143Y-82728571D01*
X142742857Y-82728571D01*
X142685715Y-82757143D01*
X142657143Y-82785714D01*
X142628572Y-82842857D01*
X142628572Y-82957143D01*
X142657143Y-83014286D01*
X142685715Y-83042857D01*
X142742857Y-83071429D01*
X142857143Y-83071429D01*
X142914286Y-83042857D01*
X142942857Y-83014286D01*
X142971429Y-82957143D01*
X142971429Y-82842857D01*
X142942857Y-82785714D01*
X142914286Y-82757143D01*
X142857143Y-82728571D01*
X161500000Y-82271429D02*
X161300000Y-81985714D01*
X161157143Y-82271429D02*
X161157143Y-81671429D01*
X161385715Y-81671429D01*
X161442857Y-81700000D01*
X161471429Y-81728571D01*
X161500000Y-81785714D01*
X161500000Y-81871429D01*
X161471429Y-81928571D01*
X161442857Y-81957143D01*
X161385715Y-81985714D01*
X161157143Y-81985714D01*
X162071429Y-82271429D02*
X161728572Y-82271429D01*
X161900000Y-82271429D02*
X161900000Y-81671429D01*
X161842857Y-81757143D01*
X161785715Y-81814286D01*
X161728572Y-81842857D01*
X158600000Y-72071429D02*
X158400000Y-71785714D01*
X158257143Y-72071429D02*
X158257143Y-71471429D01*
X158485715Y-71471429D01*
X158542857Y-71500000D01*
X158571429Y-71528571D01*
X158600000Y-71585714D01*
X158600000Y-71671429D01*
X158571429Y-71728571D01*
X158542857Y-71757143D01*
X158485715Y-71785714D01*
X158257143Y-71785714D01*
X158828572Y-71528571D02*
X158857143Y-71500000D01*
X158914286Y-71471429D01*
X159057143Y-71471429D01*
X159114286Y-71500000D01*
X159142857Y-71528571D01*
X159171429Y-71585714D01*
X159171429Y-71642857D01*
X159142857Y-71728571D01*
X158800000Y-72071429D01*
X159171429Y-72071429D01*
X158500000Y-82614286D02*
X158471429Y-82642857D01*
X158385715Y-82671429D01*
X158328572Y-82671429D01*
X158242857Y-82642857D01*
X158185715Y-82585714D01*
X158157143Y-82528571D01*
X158128572Y-82414286D01*
X158128572Y-82328571D01*
X158157143Y-82214286D01*
X158185715Y-82157143D01*
X158242857Y-82100000D01*
X158328572Y-82071429D01*
X158385715Y-82071429D01*
X158471429Y-82100000D01*
X158500000Y-82128571D01*
X158700000Y-82071429D02*
X159071429Y-82071429D01*
X158871429Y-82300000D01*
X158957143Y-82300000D01*
X159014286Y-82328571D01*
X159042857Y-82357143D01*
X159071429Y-82414286D01*
X159071429Y-82557143D01*
X159042857Y-82614286D01*
X159014286Y-82642857D01*
X158957143Y-82671429D01*
X158785715Y-82671429D01*
X158728572Y-82642857D01*
X158700000Y-82614286D01*
X158500000Y-76871429D02*
X158300000Y-76585714D01*
X158157143Y-76871429D02*
X158157143Y-76271429D01*
X158385715Y-76271429D01*
X158442857Y-76300000D01*
X158471429Y-76328571D01*
X158500000Y-76385714D01*
X158500000Y-76471429D01*
X158471429Y-76528571D01*
X158442857Y-76557143D01*
X158385715Y-76585714D01*
X158157143Y-76585714D01*
X158700000Y-76271429D02*
X159071429Y-76271429D01*
X158871429Y-76500000D01*
X158957143Y-76500000D01*
X159014286Y-76528571D01*
X159042857Y-76557143D01*
X159071429Y-76614286D01*
X159071429Y-76757143D01*
X159042857Y-76814286D01*
X159014286Y-76842857D01*
X158957143Y-76871429D01*
X158785715Y-76871429D01*
X158728572Y-76842857D01*
X158700000Y-76814286D01*
X142300000Y-80571429D02*
X142100000Y-80285714D01*
X141957143Y-80571429D02*
X141957143Y-79971429D01*
X142185715Y-79971429D01*
X142242857Y-80000000D01*
X142271429Y-80028571D01*
X142300000Y-80085714D01*
X142300000Y-80171429D01*
X142271429Y-80228571D01*
X142242857Y-80257143D01*
X142185715Y-80285714D01*
X141957143Y-80285714D01*
X142500000Y-79971429D02*
X142900000Y-79971429D01*
X142642857Y-80571429D01*
X145200000Y-77471429D02*
X145000000Y-77185714D01*
X144857143Y-77471429D02*
X144857143Y-76871429D01*
X145085715Y-76871429D01*
X145142857Y-76900000D01*
X145171429Y-76928571D01*
X145200000Y-76985714D01*
X145200000Y-77071429D01*
X145171429Y-77128571D01*
X145142857Y-77157143D01*
X145085715Y-77185714D01*
X144857143Y-77185714D01*
X145742857Y-76871429D02*
X145457143Y-76871429D01*
X145428572Y-77157143D01*
X145457143Y-77128571D01*
X145514286Y-77100000D01*
X145657143Y-77100000D01*
X145714286Y-77128571D01*
X145742857Y-77157143D01*
X145771429Y-77214286D01*
X145771429Y-77357143D01*
X145742857Y-77414286D01*
X145714286Y-77442857D01*
X145657143Y-77471429D01*
X145514286Y-77471429D01*
X145457143Y-77442857D01*
X145428572Y-77414286D01*
X145200000Y-74471429D02*
X145000000Y-74185714D01*
X144857143Y-74471429D02*
X144857143Y-73871429D01*
X145085715Y-73871429D01*
X145142857Y-73900000D01*
X145171429Y-73928571D01*
X145200000Y-73985714D01*
X145200000Y-74071429D01*
X145171429Y-74128571D01*
X145142857Y-74157143D01*
X145085715Y-74185714D01*
X144857143Y-74185714D01*
X145714286Y-74071429D02*
X145714286Y-74471429D01*
X145571429Y-73842857D02*
X145428572Y-74271429D01*
X145800000Y-74271429D01*
X142300000Y-78071429D02*
X142100000Y-77785714D01*
X141957143Y-78071429D02*
X141957143Y-77471429D01*
X142185715Y-77471429D01*
X142242857Y-77500000D01*
X142271429Y-77528571D01*
X142300000Y-77585714D01*
X142300000Y-77671429D01*
X142271429Y-77728571D01*
X142242857Y-77757143D01*
X142185715Y-77785714D01*
X141957143Y-77785714D01*
X142814286Y-77471429D02*
X142700000Y-77471429D01*
X142642857Y-77500000D01*
X142614286Y-77528571D01*
X142557143Y-77614286D01*
X142528572Y-77728571D01*
X142528572Y-77957143D01*
X142557143Y-78014286D01*
X142585715Y-78042857D01*
X142642857Y-78071429D01*
X142757143Y-78071429D01*
X142814286Y-78042857D01*
X142842857Y-78014286D01*
X142871429Y-77957143D01*
X142871429Y-77814286D01*
X142842857Y-77757143D01*
X142814286Y-77728571D01*
X142757143Y-77700000D01*
X142642857Y-77700000D01*
X142585715Y-77728571D01*
X142557143Y-77757143D01*
X142528572Y-77814286D01*
X153257143Y-95071429D02*
X153257143Y-94471429D01*
X153485715Y-94471429D01*
X153542857Y-94500000D01*
X153571429Y-94528571D01*
X153600000Y-94585714D01*
X153600000Y-94671429D01*
X153571429Y-94728571D01*
X153542857Y-94757143D01*
X153485715Y-94785714D01*
X153257143Y-94785714D01*
X153800000Y-94471429D02*
X154171429Y-94471429D01*
X153971429Y-94700000D01*
X154057143Y-94700000D01*
X154114286Y-94728571D01*
X154142857Y-94757143D01*
X154171429Y-94814286D01*
X154171429Y-94957143D01*
X154142857Y-95014286D01*
X154114286Y-95042857D01*
X154057143Y-95071429D01*
X153885715Y-95071429D01*
X153828572Y-95042857D01*
X153800000Y-95014286D01*
X154800000Y-75514286D02*
X154771429Y-75542857D01*
X154685715Y-75571429D01*
X154628572Y-75571429D01*
X154542857Y-75542857D01*
X154485715Y-75485714D01*
X154457143Y-75428571D01*
X154428572Y-75314286D01*
X154428572Y-75228571D01*
X154457143Y-75114286D01*
X154485715Y-75057143D01*
X154542857Y-75000000D01*
X154628572Y-74971429D01*
X154685715Y-74971429D01*
X154771429Y-75000000D01*
X154800000Y-75028571D01*
X155342857Y-74971429D02*
X155057143Y-74971429D01*
X155028572Y-75257143D01*
X155057143Y-75228571D01*
X155114286Y-75200000D01*
X155257143Y-75200000D01*
X155314286Y-75228571D01*
X155342857Y-75257143D01*
X155371429Y-75314286D01*
X155371429Y-75457143D01*
X155342857Y-75514286D01*
X155314286Y-75542857D01*
X155257143Y-75571429D01*
X155114286Y-75571429D01*
X155057143Y-75542857D01*
X155028572Y-75514286D01*
X151000000Y-80739285D02*
X150971429Y-80767856D01*
X150885715Y-80796428D01*
X150828572Y-80796428D01*
X150742857Y-80767856D01*
X150685715Y-80710713D01*
X150657143Y-80653570D01*
X150628572Y-80539285D01*
X150628572Y-80453570D01*
X150657143Y-80339285D01*
X150685715Y-80282142D01*
X150742857Y-80224999D01*
X150828572Y-80196428D01*
X150885715Y-80196428D01*
X150971429Y-80224999D01*
X151000000Y-80253570D01*
X151514286Y-80396428D02*
X151514286Y-80796428D01*
X151371429Y-80167856D02*
X151228572Y-80596428D01*
X151600000Y-80596428D01*
X144200000Y-87714286D02*
X144171429Y-87742857D01*
X144085715Y-87771429D01*
X144028572Y-87771429D01*
X143942857Y-87742857D01*
X143885715Y-87685714D01*
X143857143Y-87628571D01*
X143828572Y-87514286D01*
X143828572Y-87428571D01*
X143857143Y-87314286D01*
X143885715Y-87257143D01*
X143942857Y-87200000D01*
X144028572Y-87171429D01*
X144085715Y-87171429D01*
X144171429Y-87200000D01*
X144200000Y-87228571D01*
X144714286Y-87171429D02*
X144600000Y-87171429D01*
X144542857Y-87200000D01*
X144514286Y-87228571D01*
X144457143Y-87314286D01*
X144428572Y-87428571D01*
X144428572Y-87657143D01*
X144457143Y-87714286D01*
X144485715Y-87742857D01*
X144542857Y-87771429D01*
X144657143Y-87771429D01*
X144714286Y-87742857D01*
X144742857Y-87714286D01*
X144771429Y-87657143D01*
X144771429Y-87514286D01*
X144742857Y-87457143D01*
X144714286Y-87428571D01*
X144657143Y-87400000D01*
X144542857Y-87400000D01*
X144485715Y-87428571D01*
X144457143Y-87457143D01*
X144428572Y-87514286D01*
X158400000Y-86271429D02*
X158200000Y-85985714D01*
X158057143Y-86271429D02*
X158057143Y-85671429D01*
X158285715Y-85671429D01*
X158342857Y-85700000D01*
X158371429Y-85728571D01*
X158400000Y-85785714D01*
X158400000Y-85871429D01*
X158371429Y-85928571D01*
X158342857Y-85957143D01*
X158285715Y-85985714D01*
X158057143Y-85985714D01*
X158685715Y-86271429D02*
X158800000Y-86271429D01*
X158857143Y-86242857D01*
X158885715Y-86214286D01*
X158942857Y-86128571D01*
X158971429Y-86014286D01*
X158971429Y-85785714D01*
X158942857Y-85728571D01*
X158914286Y-85700000D01*
X158857143Y-85671429D01*
X158742857Y-85671429D01*
X158685715Y-85700000D01*
X158657143Y-85728571D01*
X158628572Y-85785714D01*
X158628572Y-85928571D01*
X158657143Y-85985714D01*
X158685715Y-86014286D01*
X158742857Y-86042857D01*
X158857143Y-86042857D01*
X158914286Y-86014286D01*
X158942857Y-85985714D01*
X158971429Y-85928571D01*
M02*
