%TF.GenerationSoftware,KiCad,Pcbnew,4.0.4-1.fc24-product*%
%TF.CreationDate,2018-03-01T09:40:41+11:00*%
%TF.ProjectId,BT_STACK,42545F535441434B2E6B696361645F70,rev?*%
%TF.FileFunction,Soldermask,Top*%
%FSLAX46Y46*%
G04 Gerber Fmt 4.6, Leading zero omitted, Abs format (unit mm)*
G04 Created by KiCad (PCBNEW 4.0.4-1.fc24-product) date Thu Mar  1 09:40:41 2018*
%MOMM*%
%LPD*%
G01*
G04 APERTURE LIST*
%ADD10C,0.100000*%
%ADD11R,1.950000X1.000000*%
%ADD12R,1.600000X2.100000*%
%ADD13O,1.600000X2.100000*%
%ADD14R,1.600000X1.300000*%
%ADD15R,1.900000X1.650000*%
%ADD16C,2.200000*%
%ADD17R,1.200000X1.150000*%
G04 APERTURE END LIST*
D10*
D11*
X154700000Y-87905000D03*
X154700000Y-86635000D03*
X154700000Y-85365000D03*
X154700000Y-84095000D03*
X149300000Y-84095000D03*
X149300000Y-85365000D03*
X149300000Y-86635000D03*
X149300000Y-87905000D03*
D12*
X142700000Y-91300000D03*
D13*
X144700000Y-91300000D03*
X146700000Y-91300000D03*
X148700000Y-91300000D03*
X150700000Y-91300000D03*
D14*
X142900000Y-84000000D03*
X145100000Y-84000000D03*
X161200000Y-80800000D03*
X159000000Y-80800000D03*
X159000000Y-73000000D03*
X161200000Y-73000000D03*
D15*
X159150000Y-83800000D03*
X161650000Y-83800000D03*
D14*
X159000000Y-77800000D03*
X161200000Y-77800000D03*
X142800000Y-81500000D03*
X145000000Y-81500000D03*
X142800000Y-76000000D03*
X145000000Y-76000000D03*
X142800000Y-73000000D03*
X145000000Y-73000000D03*
X142800000Y-79000000D03*
X145000000Y-79000000D03*
D12*
X155300000Y-91300000D03*
D13*
X157300000Y-91300000D03*
X159300000Y-91300000D03*
X161300000Y-91300000D03*
D15*
X150750000Y-75400000D03*
X153250000Y-75400000D03*
D16*
X155750000Y-72800000D03*
X152000000Y-72800000D03*
X148250000Y-72800000D03*
X155750000Y-77800000D03*
X152000000Y-77800000D03*
X148250000Y-77800000D03*
D17*
X151250000Y-81600000D03*
X152750000Y-81600000D03*
X142650000Y-86500000D03*
X144150000Y-86500000D03*
D14*
X158900000Y-87000000D03*
X161100000Y-87000000D03*
M02*
