%TF.GenerationSoftware,KiCad,Pcbnew,4.0.4-1.fc24-product*%
%TF.CreationDate,2018-03-01T09:40:41+11:00*%
%TF.ProjectId,BT_STACK,42545F535441434B2E6B696361645F70,rev?*%
%TF.FileFunction,Legend,Bot*%
%FSLAX46Y46*%
G04 Gerber Fmt 4.6, Leading zero omitted, Abs format (unit mm)*
G04 Created by KiCad (PCBNEW 4.0.4-1.fc24-product) date Thu Mar  1 09:40:41 2018*
%MOMM*%
%LPD*%
G01*
G04 APERTURE LIST*
%ADD10C,0.100000*%
%ADD11C,0.150000*%
%ADD12C,0.120000*%
G04 APERTURE END LIST*
D10*
D11*
X145250000Y-86150000D02*
X146250000Y-86150000D01*
X146250000Y-87850000D02*
X145250000Y-87850000D01*
X154635000Y-87635000D02*
X154635000Y-86365000D01*
X152984000Y-87635000D02*
X152984000Y-86365000D01*
X152984000Y-86365000D02*
X155016000Y-86365000D01*
X155016000Y-86365000D02*
X155016000Y-87635000D01*
X155016000Y-87635000D02*
X152984000Y-87635000D01*
D12*
X158750000Y-84560000D02*
X158750000Y-70940000D01*
X145440000Y-84560000D02*
X145440000Y-70940000D01*
X158750000Y-84560000D02*
X145440000Y-84560000D01*
X158750000Y-70940000D02*
X145440000Y-70940000D01*
D11*
X144050000Y-88614286D02*
X144078571Y-88642857D01*
X144164285Y-88671429D01*
X144221428Y-88671429D01*
X144307143Y-88642857D01*
X144364285Y-88585714D01*
X144392857Y-88528571D01*
X144421428Y-88414286D01*
X144421428Y-88328571D01*
X144392857Y-88214286D01*
X144364285Y-88157143D01*
X144307143Y-88100000D01*
X144221428Y-88071429D01*
X144164285Y-88071429D01*
X144078571Y-88100000D01*
X144050000Y-88128571D01*
X143478571Y-88671429D02*
X143821428Y-88671429D01*
X143650000Y-88671429D02*
X143650000Y-88071429D01*
X143707143Y-88157143D01*
X143764285Y-88214286D01*
X143821428Y-88242857D01*
X155700000Y-85614286D02*
X155728571Y-85642857D01*
X155814285Y-85671429D01*
X155871428Y-85671429D01*
X155957143Y-85642857D01*
X156014285Y-85585714D01*
X156042857Y-85528571D01*
X156071428Y-85414286D01*
X156071428Y-85328571D01*
X156042857Y-85214286D01*
X156014285Y-85157143D01*
X155957143Y-85100000D01*
X155871428Y-85071429D01*
X155814285Y-85071429D01*
X155728571Y-85100000D01*
X155700000Y-85128571D01*
X155471428Y-85128571D02*
X155442857Y-85100000D01*
X155385714Y-85071429D01*
X155242857Y-85071429D01*
X155185714Y-85100000D01*
X155157143Y-85128571D01*
X155128571Y-85185714D01*
X155128571Y-85242857D01*
X155157143Y-85328571D01*
X155500000Y-85671429D01*
X155128571Y-85671429D01*
X158357143Y-70371429D02*
X158557143Y-70085714D01*
X158700000Y-70371429D02*
X158700000Y-69771429D01*
X158471428Y-69771429D01*
X158414286Y-69800000D01*
X158385714Y-69828571D01*
X158357143Y-69885714D01*
X158357143Y-69971429D01*
X158385714Y-70028571D01*
X158414286Y-70057143D01*
X158471428Y-70085714D01*
X158700000Y-70085714D01*
X158185714Y-69771429D02*
X157985714Y-70371429D01*
X157785714Y-69771429D01*
X157271428Y-70371429D02*
X157614285Y-70371429D01*
X157442857Y-70371429D02*
X157442857Y-69771429D01*
X157500000Y-69857143D01*
X157557142Y-69914286D01*
X157614285Y-69942857D01*
M02*
