%MOIN*%
%OFA0B0*%
%FSLAX46Y46*%
%IPPOS*%
%LPD*%
%ADD10C,0.0039370078740157488*%
%ADD11C,0.005905511811023622*%
%ADD12C,0.0047244094488188976*%
%ADD23C,0.0039370078740157488*%
%ADD24C,0.005905511811023622*%
%ADD25C,0.0047244094488188976*%
%ADD26C,0.0039370078740157488*%
%ADD27C,0.005905511811023622*%
%ADD28C,0.0047244094488188976*%
%ADD29C,0.0039370078740157488*%
%ADD30C,0.005905511811023622*%
%ADD31C,0.0047244094488188976*%
G01G01*
D10*
D11*
X0000417322Y0000160433D02*
X0000456692Y0000160433D01*
X0000456692Y0000107283D02*
X0000417322Y0000107283D01*
X0000420275Y0000610236D02*
X0000420275Y0000570866D01*
X0000367125Y0000570866D02*
X0000367125Y0000610236D01*
X0000367125Y0000259842D02*
X0000367125Y0000299212D01*
X0000420275Y0000299212D02*
X0000420275Y0000259842D01*
X0000724409Y0000265748D02*
X0000724409Y0000293307D01*
X0000771653Y0000293307D02*
X0000771653Y0000265748D01*
D12*
X0000844488Y0000344488D02*
X0000844488Y0000303149D01*
X0000915354Y0000344488D02*
X0000844488Y0000344488D01*
X0000844488Y0000214566D02*
X0000844488Y0000255905D01*
X0000938976Y0000214566D02*
X0000844488Y0000214566D01*
D11*
X0000656496Y0000299212D02*
X0000656496Y0000259842D01*
X0000603346Y0000259842D02*
X0000603346Y0000299212D01*
X0001050196Y0000299212D02*
X0001050196Y0000259842D01*
X0000997047Y0000259842D02*
X0000997047Y0000299212D01*
X0000603346Y0000570866D02*
X0000603346Y0000610236D01*
X0000656496Y0000610236D02*
X0000656496Y0000570866D01*
X0000661417Y0000747047D02*
X0000700787Y0000747047D01*
X0000700787Y0000693897D02*
X0000661417Y0000693897D01*
X0000479965Y0000564477D02*
X0000543965Y0000564477D01*
X0000543965Y0000672477D02*
X0000479965Y0000672477D01*
X0000479965Y0000672477D02*
X0000479965Y0000546477D01*
X0000479965Y0000546477D02*
X0000543965Y0000546477D01*
X0000543965Y0000546477D02*
X0000543965Y0000672477D01*
X0000486965Y0000311839D02*
X0000486965Y0000231839D01*
X0000536965Y0000311839D02*
X0000486965Y0000311839D01*
X0000536965Y0000231839D02*
X0000536965Y0000311839D01*
X0000486965Y0000231839D02*
X0000536965Y0000231839D01*
X0000486965Y0000296839D02*
X0000536965Y0000296839D01*
D12*
X0000675984Y0000770472D02*
X0000675984Y0000822834D01*
X0000728346Y0000770472D02*
X0000675984Y0000770472D01*
X0000778346Y0000770472D02*
X0000778346Y0000875196D01*
X0000778346Y0000875196D02*
X0001080708Y0000875196D01*
X0000778346Y0000770472D02*
X0001080708Y0000770472D01*
X0001080708Y0000770472D02*
X0001080708Y0000875196D01*
D11*
X0000385826Y0000166479D02*
X0000377952Y0000177727D01*
X0000372328Y0000166479D02*
X0000372328Y0000190101D01*
X0000381327Y0000190101D01*
X0000383577Y0000188976D01*
X0000384701Y0000187851D01*
X0000385826Y0000185601D01*
X0000385826Y0000182227D01*
X0000384701Y0000179977D01*
X0000383577Y0000178852D01*
X0000381327Y0000177727D01*
X0000372328Y0000177727D01*
X0000393700Y0000190101D02*
X0000409448Y0000190101D01*
X0000399325Y0000166479D01*
X0000365016Y0000536643D02*
X0000353768Y0000528769D01*
X0000365016Y0000523144D02*
X0000341394Y0000523144D01*
X0000341394Y0000532143D01*
X0000342519Y0000534393D01*
X0000343644Y0000535518D01*
X0000345894Y0000536643D01*
X0000349268Y0000536643D01*
X0000351518Y0000535518D01*
X0000352643Y0000534393D01*
X0000353768Y0000532143D01*
X0000353768Y0000523144D01*
X0000349268Y0000556890D02*
X0000365016Y0000556890D01*
X0000340269Y0000551266D02*
X0000357142Y0000545642D01*
X0000357142Y0000560265D01*
X0000365016Y0000226377D02*
X0000353768Y0000218503D01*
X0000365016Y0000212879D02*
X0000341394Y0000212879D01*
X0000341394Y0000221878D01*
X0000342519Y0000224128D01*
X0000343644Y0000225253D01*
X0000345894Y0000226377D01*
X0000349268Y0000226377D01*
X0000351518Y0000225253D01*
X0000352643Y0000224128D01*
X0000353768Y0000221878D01*
X0000353768Y0000212879D01*
X0000365016Y0000248875D02*
X0000365016Y0000235376D01*
X0000365016Y0000242125D02*
X0000341394Y0000242125D01*
X0000344769Y0000239876D01*
X0000347019Y0000237626D01*
X0000348143Y0000235376D01*
X0000717097Y0000226377D02*
X0000718222Y0000225253D01*
X0000719347Y0000221878D01*
X0000719347Y0000219628D01*
X0000718222Y0000216254D01*
X0000715972Y0000214004D01*
X0000713723Y0000212879D01*
X0000709223Y0000211754D01*
X0000705849Y0000211754D01*
X0000701349Y0000212879D01*
X0000699100Y0000214004D01*
X0000696850Y0000216254D01*
X0000695725Y0000219628D01*
X0000695725Y0000221878D01*
X0000696850Y0000225253D01*
X0000697975Y0000226377D01*
X0000697975Y0000235376D02*
X0000696850Y0000236501D01*
X0000695725Y0000238751D01*
X0000695725Y0000244375D01*
X0000696850Y0000246625D01*
X0000697975Y0000247750D01*
X0000700224Y0000248875D01*
X0000702474Y0000248875D01*
X0000705849Y0000247750D01*
X0000719347Y0000234251D01*
X0000719347Y0000248875D01*
X0000894825Y0000276293D02*
X0000893700Y0000274043D01*
X0000891451Y0000271794D01*
X0000888076Y0000268419D01*
X0000886951Y0000266169D01*
X0000886951Y0000263920D01*
X0000892575Y0000265044D02*
X0000891451Y0000262795D01*
X0000889201Y0000260545D01*
X0000884701Y0000259420D01*
X0000876827Y0000259420D01*
X0000872328Y0000260545D01*
X0000870078Y0000262795D01*
X0000868953Y0000265044D01*
X0000868953Y0000269544D01*
X0000870078Y0000271794D01*
X0000872328Y0000274043D01*
X0000876827Y0000275168D01*
X0000884701Y0000275168D01*
X0000889201Y0000274043D01*
X0000891451Y0000271794D01*
X0000892575Y0000269544D01*
X0000892575Y0000265044D01*
X0000892575Y0000297665D02*
X0000892575Y0000284167D01*
X0000892575Y0000290916D02*
X0000868953Y0000290916D01*
X0000872328Y0000288667D01*
X0000874578Y0000286417D01*
X0000875702Y0000284167D01*
X0000601237Y0000226377D02*
X0000589988Y0000218503D01*
X0000601237Y0000212879D02*
X0000577615Y0000212879D01*
X0000577615Y0000221878D01*
X0000578740Y0000224128D01*
X0000579864Y0000225253D01*
X0000582114Y0000226377D01*
X0000585489Y0000226377D01*
X0000587739Y0000225253D01*
X0000588863Y0000224128D01*
X0000589988Y0000221878D01*
X0000589988Y0000212879D01*
X0000579864Y0000235376D02*
X0000578740Y0000236501D01*
X0000577615Y0000238751D01*
X0000577615Y0000244375D01*
X0000578740Y0000246625D01*
X0000579864Y0000247750D01*
X0000582114Y0000248875D01*
X0000584364Y0000248875D01*
X0000587739Y0000247750D01*
X0000601237Y0000234251D01*
X0000601237Y0000248875D01*
X0000987064Y0000220472D02*
X0000975815Y0000212598D01*
X0000987064Y0000206974D02*
X0000963442Y0000206974D01*
X0000963442Y0000215972D01*
X0000964566Y0000218222D01*
X0000965691Y0000219347D01*
X0000967941Y0000220472D01*
X0000971316Y0000220472D01*
X0000973565Y0000219347D01*
X0000974690Y0000218222D01*
X0000975815Y0000215972D01*
X0000975815Y0000206974D01*
X0000963442Y0000228346D02*
X0000963442Y0000242969D01*
X0000972440Y0000235095D01*
X0000972440Y0000238470D01*
X0000973565Y0000240719D01*
X0000974690Y0000241844D01*
X0000976940Y0000242969D01*
X0000982564Y0000242969D01*
X0000984814Y0000241844D01*
X0000985939Y0000240719D01*
X0000987064Y0000238470D01*
X0000987064Y0000231721D01*
X0000985939Y0000229471D01*
X0000984814Y0000228346D01*
X0000601237Y0000536643D02*
X0000589988Y0000528769D01*
X0000601237Y0000523144D02*
X0000577615Y0000523144D01*
X0000577615Y0000532143D01*
X0000578740Y0000534393D01*
X0000579864Y0000535518D01*
X0000582114Y0000536643D01*
X0000585489Y0000536643D01*
X0000587739Y0000535518D01*
X0000588863Y0000534393D01*
X0000589988Y0000532143D01*
X0000589988Y0000523144D01*
X0000577615Y0000558015D02*
X0000577615Y0000546766D01*
X0000588863Y0000545642D01*
X0000587739Y0000546766D01*
X0000586614Y0000549016D01*
X0000586614Y0000554640D01*
X0000587739Y0000556890D01*
X0000588863Y0000558015D01*
X0000591113Y0000559140D01*
X0000596737Y0000559140D01*
X0000598987Y0000558015D01*
X0000600112Y0000556890D01*
X0000601237Y0000554640D01*
X0000601237Y0000549016D01*
X0000600112Y0000546766D01*
X0000598987Y0000545642D01*
X0000618110Y0000753093D02*
X0000610236Y0000764341D01*
X0000604611Y0000753093D02*
X0000604611Y0000776715D01*
X0000613610Y0000776715D01*
X0000615860Y0000775590D01*
X0000616985Y0000774465D01*
X0000618110Y0000772215D01*
X0000618110Y0000768841D01*
X0000616985Y0000766591D01*
X0000615860Y0000765466D01*
X0000613610Y0000764341D01*
X0000604611Y0000764341D01*
X0000638357Y0000776715D02*
X0000633858Y0000776715D01*
X0000631608Y0000775590D01*
X0000630483Y0000774465D01*
X0000628233Y0000771091D01*
X0000627109Y0000766591D01*
X0000627109Y0000757592D01*
X0000628233Y0000755343D01*
X0000629358Y0000754218D01*
X0000631608Y0000753093D01*
X0000636107Y0000753093D01*
X0000638357Y0000754218D01*
X0000639482Y0000755343D01*
X0000640607Y0000757592D01*
X0000640607Y0000763217D01*
X0000639482Y0000765466D01*
X0000638357Y0000766591D01*
X0000636107Y0000767716D01*
X0000631608Y0000767716D01*
X0000629358Y0000766591D01*
X0000628233Y0000765466D01*
X0000627109Y0000763217D01*
X0000471189Y0000536643D02*
X0000472314Y0000535518D01*
X0000473438Y0000532143D01*
X0000473438Y0000529894D01*
X0000472314Y0000526519D01*
X0000470064Y0000524269D01*
X0000467814Y0000523144D01*
X0000463315Y0000522020D01*
X0000459940Y0000522020D01*
X0000455441Y0000523144D01*
X0000453191Y0000524269D01*
X0000450941Y0000526519D01*
X0000449816Y0000529894D01*
X0000449816Y0000532143D01*
X0000450941Y0000535518D01*
X0000452066Y0000536643D01*
X0000449816Y0000544517D02*
X0000449816Y0000559140D01*
X0000458815Y0000551266D01*
X0000458815Y0000554640D01*
X0000459940Y0000556890D01*
X0000461065Y0000558015D01*
X0000463315Y0000559140D01*
X0000468939Y0000559140D01*
X0000471189Y0000558015D01*
X0000472314Y0000556890D01*
X0000473438Y0000554640D01*
X0000473438Y0000547891D01*
X0000472314Y0000545642D01*
X0000471189Y0000544517D01*
X0000461346Y0000225619D02*
X0000462471Y0000224494D01*
X0000463596Y0000221120D01*
X0000463596Y0000218870D01*
X0000462471Y0000215495D01*
X0000460221Y0000213246D01*
X0000457972Y0000212121D01*
X0000453472Y0000210996D01*
X0000450098Y0000210996D01*
X0000445598Y0000212121D01*
X0000443348Y0000213246D01*
X0000441099Y0000215495D01*
X0000439974Y0000218870D01*
X0000439974Y0000221120D01*
X0000441099Y0000224494D01*
X0000442224Y0000225619D01*
X0000463596Y0000248116D02*
X0000463596Y0000234618D01*
X0000463596Y0000241367D02*
X0000439974Y0000241367D01*
X0000443348Y0000239117D01*
X0000445598Y0000236868D01*
X0000446723Y0000234618D01*
X0001050056Y0000732283D02*
X0001066929Y0000732283D01*
X0001070303Y0000731158D01*
X0001072553Y0000728908D01*
X0001073678Y0000725534D01*
X0001073678Y0000723284D01*
X0001052305Y0000742407D02*
X0001051181Y0000743532D01*
X0001050056Y0000745781D01*
X0001050056Y0000751406D01*
X0001051181Y0000753655D01*
X0001052305Y0000754780D01*
X0001054555Y0000755905D01*
X0001056805Y0000755905D01*
X0001060179Y0000754780D01*
X0001073678Y0000741282D01*
X0001073678Y0000755905D01*
G04 next file*
G04 #@! TF.FileFunction,Legend,Top*
G04 Gerber Fmt 4.6, Leading zero omitted, Abs format (unit mm)*
G04 Created by KiCad (PCBNEW 4.0.4-1.fc24-product) date Tue Aug 28 14:06:47 2018*
G01G01*
G04 APERTURE LIST*
G04 APERTURE END LIST*
D23*
D24*
X0001618110Y0000160433D02*
X0001657480Y0000160433D01*
X0001657480Y0000107283D02*
X0001618110Y0000107283D01*
X0001621062Y0000610236D02*
X0001621062Y0000570866D01*
X0001567913Y0000570866D02*
X0001567913Y0000610236D01*
X0001567913Y0000259842D02*
X0001567913Y0000299212D01*
X0001621062Y0000299212D02*
X0001621062Y0000259842D01*
X0001925196Y0000265748D02*
X0001925196Y0000293307D01*
X0001972440Y0000293307D02*
X0001972440Y0000265748D01*
D25*
X0002045275Y0000344488D02*
X0002045275Y0000303149D01*
X0002116141Y0000344488D02*
X0002045275Y0000344488D01*
X0002045275Y0000214566D02*
X0002045275Y0000255905D01*
X0002139763Y0000214566D02*
X0002045275Y0000214566D01*
D24*
X0001857283Y0000299212D02*
X0001857283Y0000259842D01*
X0001804133Y0000259842D02*
X0001804133Y0000299212D01*
X0002250984Y0000299212D02*
X0002250984Y0000259842D01*
X0002197834Y0000259842D02*
X0002197834Y0000299212D01*
X0001804133Y0000570866D02*
X0001804133Y0000610236D01*
X0001857283Y0000610236D02*
X0001857283Y0000570866D01*
X0001862204Y0000747047D02*
X0001901574Y0000747047D01*
X0001901574Y0000693897D02*
X0001862204Y0000693897D01*
X0001680752Y0000564477D02*
X0001744752Y0000564477D01*
X0001744752Y0000672477D02*
X0001680752Y0000672477D01*
X0001680752Y0000672477D02*
X0001680752Y0000546477D01*
X0001680752Y0000546477D02*
X0001744752Y0000546477D01*
X0001744752Y0000546477D02*
X0001744752Y0000672477D01*
X0001687752Y0000311839D02*
X0001687752Y0000231839D01*
X0001737752Y0000311839D02*
X0001687752Y0000311839D01*
X0001737752Y0000231839D02*
X0001737752Y0000311839D01*
X0001687752Y0000231839D02*
X0001737752Y0000231839D01*
X0001687752Y0000296839D02*
X0001737752Y0000296839D01*
D25*
X0001876771Y0000770472D02*
X0001876771Y0000822834D01*
X0001929133Y0000770472D02*
X0001876771Y0000770472D01*
X0001979133Y0000770472D02*
X0001979133Y0000875196D01*
X0001979133Y0000875196D02*
X0002281496Y0000875196D01*
X0001979133Y0000770472D02*
X0002281496Y0000770472D01*
X0002281496Y0000770472D02*
X0002281496Y0000875196D01*
D24*
X0001586614Y0000166479D02*
X0001578740Y0000177727D01*
X0001573115Y0000166479D02*
X0001573115Y0000190101D01*
X0001582114Y0000190101D01*
X0001584364Y0000188976D01*
X0001585489Y0000187851D01*
X0001586614Y0000185601D01*
X0001586614Y0000182227D01*
X0001585489Y0000179977D01*
X0001584364Y0000178852D01*
X0001582114Y0000177727D01*
X0001573115Y0000177727D01*
X0001594488Y0000190101D02*
X0001610236Y0000190101D01*
X0001600112Y0000166479D01*
X0001565804Y0000536643D02*
X0001554555Y0000528769D01*
X0001565804Y0000523144D02*
X0001542182Y0000523144D01*
X0001542182Y0000532143D01*
X0001543307Y0000534393D01*
X0001544431Y0000535518D01*
X0001546681Y0000536643D01*
X0001550056Y0000536643D01*
X0001552305Y0000535518D01*
X0001553430Y0000534393D01*
X0001554555Y0000532143D01*
X0001554555Y0000523144D01*
X0001550056Y0000556890D02*
X0001565804Y0000556890D01*
X0001541057Y0000551266D02*
X0001557930Y0000545642D01*
X0001557930Y0000560265D01*
X0001565804Y0000226377D02*
X0001554555Y0000218503D01*
X0001565804Y0000212879D02*
X0001542182Y0000212879D01*
X0001542182Y0000221878D01*
X0001543307Y0000224128D01*
X0001544431Y0000225253D01*
X0001546681Y0000226377D01*
X0001550056Y0000226377D01*
X0001552305Y0000225253D01*
X0001553430Y0000224128D01*
X0001554555Y0000221878D01*
X0001554555Y0000212879D01*
X0001565804Y0000248875D02*
X0001565804Y0000235376D01*
X0001565804Y0000242125D02*
X0001542182Y0000242125D01*
X0001545556Y0000239876D01*
X0001547806Y0000237626D01*
X0001548931Y0000235376D01*
X0001917885Y0000226377D02*
X0001919010Y0000225253D01*
X0001920135Y0000221878D01*
X0001920135Y0000219628D01*
X0001919010Y0000216254D01*
X0001916760Y0000214004D01*
X0001914510Y0000212879D01*
X0001910011Y0000211754D01*
X0001906636Y0000211754D01*
X0001902137Y0000212879D01*
X0001899887Y0000214004D01*
X0001897637Y0000216254D01*
X0001896512Y0000219628D01*
X0001896512Y0000221878D01*
X0001897637Y0000225253D01*
X0001898762Y0000226377D01*
X0001898762Y0000235376D02*
X0001897637Y0000236501D01*
X0001896512Y0000238751D01*
X0001896512Y0000244375D01*
X0001897637Y0000246625D01*
X0001898762Y0000247750D01*
X0001901012Y0000248875D01*
X0001903262Y0000248875D01*
X0001906636Y0000247750D01*
X0001920135Y0000234251D01*
X0001920135Y0000248875D01*
X0002095612Y0000276293D02*
X0002094488Y0000274043D01*
X0002092238Y0000271794D01*
X0002088863Y0000268419D01*
X0002087739Y0000266169D01*
X0002087739Y0000263920D01*
X0002093363Y0000265044D02*
X0002092238Y0000262795D01*
X0002089988Y0000260545D01*
X0002085489Y0000259420D01*
X0002077615Y0000259420D01*
X0002073115Y0000260545D01*
X0002070866Y0000262795D01*
X0002069741Y0000265044D01*
X0002069741Y0000269544D01*
X0002070866Y0000271794D01*
X0002073115Y0000274043D01*
X0002077615Y0000275168D01*
X0002085489Y0000275168D01*
X0002089988Y0000274043D01*
X0002092238Y0000271794D01*
X0002093363Y0000269544D01*
X0002093363Y0000265044D01*
X0002093363Y0000297665D02*
X0002093363Y0000284167D01*
X0002093363Y0000290916D02*
X0002069741Y0000290916D01*
X0002073115Y0000288667D01*
X0002075365Y0000286417D01*
X0002076490Y0000284167D01*
X0001802024Y0000226377D02*
X0001790776Y0000218503D01*
X0001802024Y0000212879D02*
X0001778402Y0000212879D01*
X0001778402Y0000221878D01*
X0001779527Y0000224128D01*
X0001780652Y0000225253D01*
X0001782902Y0000226377D01*
X0001786276Y0000226377D01*
X0001788526Y0000225253D01*
X0001789651Y0000224128D01*
X0001790776Y0000221878D01*
X0001790776Y0000212879D01*
X0001780652Y0000235376D02*
X0001779527Y0000236501D01*
X0001778402Y0000238751D01*
X0001778402Y0000244375D01*
X0001779527Y0000246625D01*
X0001780652Y0000247750D01*
X0001782902Y0000248875D01*
X0001785151Y0000248875D01*
X0001788526Y0000247750D01*
X0001802024Y0000234251D01*
X0001802024Y0000248875D01*
X0002187851Y0000220472D02*
X0002176602Y0000212598D01*
X0002187851Y0000206974D02*
X0002164229Y0000206974D01*
X0002164229Y0000215972D01*
X0002165354Y0000218222D01*
X0002166479Y0000219347D01*
X0002168728Y0000220472D01*
X0002172103Y0000220472D01*
X0002174353Y0000219347D01*
X0002175478Y0000218222D01*
X0002176602Y0000215972D01*
X0002176602Y0000206974D01*
X0002164229Y0000228346D02*
X0002164229Y0000242969D01*
X0002173228Y0000235095D01*
X0002173228Y0000238470D01*
X0002174353Y0000240719D01*
X0002175478Y0000241844D01*
X0002177727Y0000242969D01*
X0002183352Y0000242969D01*
X0002185601Y0000241844D01*
X0002186726Y0000240719D01*
X0002187851Y0000238470D01*
X0002187851Y0000231721D01*
X0002186726Y0000229471D01*
X0002185601Y0000228346D01*
X0001802024Y0000536643D02*
X0001790776Y0000528769D01*
X0001802024Y0000523144D02*
X0001778402Y0000523144D01*
X0001778402Y0000532143D01*
X0001779527Y0000534393D01*
X0001780652Y0000535518D01*
X0001782902Y0000536643D01*
X0001786276Y0000536643D01*
X0001788526Y0000535518D01*
X0001789651Y0000534393D01*
X0001790776Y0000532143D01*
X0001790776Y0000523144D01*
X0001778402Y0000558015D02*
X0001778402Y0000546766D01*
X0001789651Y0000545642D01*
X0001788526Y0000546766D01*
X0001787401Y0000549016D01*
X0001787401Y0000554640D01*
X0001788526Y0000556890D01*
X0001789651Y0000558015D01*
X0001791901Y0000559140D01*
X0001797525Y0000559140D01*
X0001799775Y0000558015D01*
X0001800899Y0000556890D01*
X0001802024Y0000554640D01*
X0001802024Y0000549016D01*
X0001800899Y0000546766D01*
X0001799775Y0000545642D01*
X0001818897Y0000753093D02*
X0001811023Y0000764341D01*
X0001805399Y0000753093D02*
X0001805399Y0000776715D01*
X0001814398Y0000776715D01*
X0001816647Y0000775590D01*
X0001817772Y0000774465D01*
X0001818897Y0000772215D01*
X0001818897Y0000768841D01*
X0001817772Y0000766591D01*
X0001816647Y0000765466D01*
X0001814398Y0000764341D01*
X0001805399Y0000764341D01*
X0001839145Y0000776715D02*
X0001834645Y0000776715D01*
X0001832395Y0000775590D01*
X0001831271Y0000774465D01*
X0001829021Y0000771091D01*
X0001827896Y0000766591D01*
X0001827896Y0000757592D01*
X0001829021Y0000755343D01*
X0001830146Y0000754218D01*
X0001832395Y0000753093D01*
X0001836895Y0000753093D01*
X0001839145Y0000754218D01*
X0001840269Y0000755343D01*
X0001841394Y0000757592D01*
X0001841394Y0000763217D01*
X0001840269Y0000765466D01*
X0001839145Y0000766591D01*
X0001836895Y0000767716D01*
X0001832395Y0000767716D01*
X0001830146Y0000766591D01*
X0001829021Y0000765466D01*
X0001827896Y0000763217D01*
X0001671976Y0000536643D02*
X0001673101Y0000535518D01*
X0001674226Y0000532143D01*
X0001674226Y0000529894D01*
X0001673101Y0000526519D01*
X0001670851Y0000524269D01*
X0001668601Y0000523144D01*
X0001664102Y0000522020D01*
X0001660727Y0000522020D01*
X0001656228Y0000523144D01*
X0001653978Y0000524269D01*
X0001651729Y0000526519D01*
X0001650604Y0000529894D01*
X0001650604Y0000532143D01*
X0001651729Y0000535518D01*
X0001652853Y0000536643D01*
X0001650604Y0000544517D02*
X0001650604Y0000559140D01*
X0001659603Y0000551266D01*
X0001659603Y0000554640D01*
X0001660727Y0000556890D01*
X0001661852Y0000558015D01*
X0001664102Y0000559140D01*
X0001669726Y0000559140D01*
X0001671976Y0000558015D01*
X0001673101Y0000556890D01*
X0001674226Y0000554640D01*
X0001674226Y0000547891D01*
X0001673101Y0000545642D01*
X0001671976Y0000544517D01*
X0001662134Y0000225619D02*
X0001663258Y0000224494D01*
X0001664383Y0000221120D01*
X0001664383Y0000218870D01*
X0001663258Y0000215495D01*
X0001661009Y0000213246D01*
X0001658759Y0000212121D01*
X0001654260Y0000210996D01*
X0001650885Y0000210996D01*
X0001646386Y0000212121D01*
X0001644136Y0000213246D01*
X0001641886Y0000215495D01*
X0001640761Y0000218870D01*
X0001640761Y0000221120D01*
X0001641886Y0000224494D01*
X0001643011Y0000225619D01*
X0001664383Y0000248116D02*
X0001664383Y0000234618D01*
X0001664383Y0000241367D02*
X0001640761Y0000241367D01*
X0001644136Y0000239117D01*
X0001646386Y0000236868D01*
X0001647510Y0000234618D01*
X0002250843Y0000732283D02*
X0002267716Y0000732283D01*
X0002271091Y0000731158D01*
X0002273340Y0000728908D01*
X0002274465Y0000725534D01*
X0002274465Y0000723284D01*
X0002253093Y0000742407D02*
X0002251968Y0000743532D01*
X0002250843Y0000745781D01*
X0002250843Y0000751406D01*
X0002251968Y0000753655D01*
X0002253093Y0000754780D01*
X0002255343Y0000755905D01*
X0002257592Y0000755905D01*
X0002260967Y0000754780D01*
X0002274465Y0000741282D01*
X0002274465Y0000755905D01*
G04 next file*
G04 #@! TF.FileFunction,Legend,Top*
G04 Gerber Fmt 4.6, Leading zero omitted, Abs format (unit mm)*
G04 Created by KiCad (PCBNEW 4.0.4-1.fc24-product) date Tue Aug 28 14:06:47 2018*
G01G01*
G04 APERTURE LIST*
G04 APERTURE END LIST*
D26*
D27*
X0000417322Y0001164370D02*
X0000456692Y0001164370D01*
X0000456692Y0001111220D02*
X0000417322Y0001111220D01*
X0000420275Y0001614173D02*
X0000420275Y0001574803D01*
X0000367125Y0001574803D02*
X0000367125Y0001614173D01*
X0000367125Y0001263779D02*
X0000367125Y0001303149D01*
X0000420275Y0001303149D02*
X0000420275Y0001263779D01*
X0000724409Y0001269685D02*
X0000724409Y0001297244D01*
X0000771653Y0001297244D02*
X0000771653Y0001269685D01*
D28*
X0000844488Y0001348425D02*
X0000844488Y0001307086D01*
X0000915354Y0001348425D02*
X0000844488Y0001348425D01*
X0000844488Y0001218503D02*
X0000844488Y0001259842D01*
X0000938976Y0001218503D02*
X0000844488Y0001218503D01*
D27*
X0000656496Y0001303149D02*
X0000656496Y0001263779D01*
X0000603346Y0001263779D02*
X0000603346Y0001303149D01*
X0001050196Y0001303149D02*
X0001050196Y0001263779D01*
X0000997047Y0001263779D02*
X0000997047Y0001303149D01*
X0000603346Y0001574803D02*
X0000603346Y0001614173D01*
X0000656496Y0001614173D02*
X0000656496Y0001574803D01*
X0000661417Y0001750984D02*
X0000700787Y0001750984D01*
X0000700787Y0001697834D02*
X0000661417Y0001697834D01*
X0000479965Y0001568414D02*
X0000543965Y0001568414D01*
X0000543965Y0001676414D02*
X0000479965Y0001676414D01*
X0000479965Y0001676414D02*
X0000479965Y0001550414D01*
X0000479965Y0001550414D02*
X0000543965Y0001550414D01*
X0000543965Y0001550414D02*
X0000543965Y0001676414D01*
X0000486965Y0001315776D02*
X0000486965Y0001235776D01*
X0000536965Y0001315776D02*
X0000486965Y0001315776D01*
X0000536965Y0001235776D02*
X0000536965Y0001315776D01*
X0000486965Y0001235776D02*
X0000536965Y0001235776D01*
X0000486965Y0001300776D02*
X0000536965Y0001300776D01*
D28*
X0000675984Y0001774409D02*
X0000675984Y0001826771D01*
X0000728346Y0001774409D02*
X0000675984Y0001774409D01*
X0000778346Y0001774409D02*
X0000778346Y0001879133D01*
X0000778346Y0001879133D02*
X0001080708Y0001879133D01*
X0000778346Y0001774409D02*
X0001080708Y0001774409D01*
X0001080708Y0001774409D02*
X0001080708Y0001879133D01*
D27*
X0000385826Y0001170416D02*
X0000377952Y0001181664D01*
X0000372328Y0001170416D02*
X0000372328Y0001194038D01*
X0000381327Y0001194038D01*
X0000383577Y0001192913D01*
X0000384701Y0001191788D01*
X0000385826Y0001189538D01*
X0000385826Y0001186164D01*
X0000384701Y0001183914D01*
X0000383577Y0001182789D01*
X0000381327Y0001181664D01*
X0000372328Y0001181664D01*
X0000393700Y0001194038D02*
X0000409448Y0001194038D01*
X0000399325Y0001170416D01*
X0000365016Y0001540580D02*
X0000353768Y0001532706D01*
X0000365016Y0001527081D02*
X0000341394Y0001527081D01*
X0000341394Y0001536080D01*
X0000342519Y0001538330D01*
X0000343644Y0001539455D01*
X0000345894Y0001540580D01*
X0000349268Y0001540580D01*
X0000351518Y0001539455D01*
X0000352643Y0001538330D01*
X0000353768Y0001536080D01*
X0000353768Y0001527081D01*
X0000349268Y0001560827D02*
X0000365016Y0001560827D01*
X0000340269Y0001555203D02*
X0000357142Y0001549579D01*
X0000357142Y0001564202D01*
X0000365016Y0001230314D02*
X0000353768Y0001222440D01*
X0000365016Y0001216816D02*
X0000341394Y0001216816D01*
X0000341394Y0001225815D01*
X0000342519Y0001228065D01*
X0000343644Y0001229190D01*
X0000345894Y0001230314D01*
X0000349268Y0001230314D01*
X0000351518Y0001229190D01*
X0000352643Y0001228065D01*
X0000353768Y0001225815D01*
X0000353768Y0001216816D01*
X0000365016Y0001252812D02*
X0000365016Y0001239313D01*
X0000365016Y0001246062D02*
X0000341394Y0001246062D01*
X0000344769Y0001243813D01*
X0000347019Y0001241563D01*
X0000348143Y0001239313D01*
X0000717097Y0001230314D02*
X0000718222Y0001229190D01*
X0000719347Y0001225815D01*
X0000719347Y0001223565D01*
X0000718222Y0001220191D01*
X0000715972Y0001217941D01*
X0000713723Y0001216816D01*
X0000709223Y0001215691D01*
X0000705849Y0001215691D01*
X0000701349Y0001216816D01*
X0000699100Y0001217941D01*
X0000696850Y0001220191D01*
X0000695725Y0001223565D01*
X0000695725Y0001225815D01*
X0000696850Y0001229190D01*
X0000697975Y0001230314D01*
X0000697975Y0001239313D02*
X0000696850Y0001240438D01*
X0000695725Y0001242688D01*
X0000695725Y0001248312D01*
X0000696850Y0001250562D01*
X0000697975Y0001251687D01*
X0000700224Y0001252812D01*
X0000702474Y0001252812D01*
X0000705849Y0001251687D01*
X0000719347Y0001238188D01*
X0000719347Y0001252812D01*
X0000894825Y0001280230D02*
X0000893700Y0001277980D01*
X0000891451Y0001275731D01*
X0000888076Y0001272356D01*
X0000886951Y0001270106D01*
X0000886951Y0001267857D01*
X0000892575Y0001268981D02*
X0000891451Y0001266732D01*
X0000889201Y0001264482D01*
X0000884701Y0001263357D01*
X0000876827Y0001263357D01*
X0000872328Y0001264482D01*
X0000870078Y0001266732D01*
X0000868953Y0001268981D01*
X0000868953Y0001273481D01*
X0000870078Y0001275731D01*
X0000872328Y0001277980D01*
X0000876827Y0001279105D01*
X0000884701Y0001279105D01*
X0000889201Y0001277980D01*
X0000891451Y0001275731D01*
X0000892575Y0001273481D01*
X0000892575Y0001268981D01*
X0000892575Y0001301602D02*
X0000892575Y0001288104D01*
X0000892575Y0001294853D02*
X0000868953Y0001294853D01*
X0000872328Y0001292604D01*
X0000874578Y0001290354D01*
X0000875702Y0001288104D01*
X0000601237Y0001230314D02*
X0000589988Y0001222440D01*
X0000601237Y0001216816D02*
X0000577615Y0001216816D01*
X0000577615Y0001225815D01*
X0000578740Y0001228065D01*
X0000579864Y0001229190D01*
X0000582114Y0001230314D01*
X0000585489Y0001230314D01*
X0000587739Y0001229190D01*
X0000588863Y0001228065D01*
X0000589988Y0001225815D01*
X0000589988Y0001216816D01*
X0000579864Y0001239313D02*
X0000578740Y0001240438D01*
X0000577615Y0001242688D01*
X0000577615Y0001248312D01*
X0000578740Y0001250562D01*
X0000579864Y0001251687D01*
X0000582114Y0001252812D01*
X0000584364Y0001252812D01*
X0000587739Y0001251687D01*
X0000601237Y0001238188D01*
X0000601237Y0001252812D01*
X0000987064Y0001224409D02*
X0000975815Y0001216535D01*
X0000987064Y0001210911D02*
X0000963442Y0001210911D01*
X0000963442Y0001219910D01*
X0000964566Y0001222159D01*
X0000965691Y0001223284D01*
X0000967941Y0001224409D01*
X0000971316Y0001224409D01*
X0000973565Y0001223284D01*
X0000974690Y0001222159D01*
X0000975815Y0001219910D01*
X0000975815Y0001210911D01*
X0000963442Y0001232283D02*
X0000963442Y0001246906D01*
X0000972440Y0001239032D01*
X0000972440Y0001242407D01*
X0000973565Y0001244656D01*
X0000974690Y0001245781D01*
X0000976940Y0001246906D01*
X0000982564Y0001246906D01*
X0000984814Y0001245781D01*
X0000985939Y0001244656D01*
X0000987064Y0001242407D01*
X0000987064Y0001235658D01*
X0000985939Y0001233408D01*
X0000984814Y0001232283D01*
X0000601237Y0001540580D02*
X0000589988Y0001532706D01*
X0000601237Y0001527081D02*
X0000577615Y0001527081D01*
X0000577615Y0001536080D01*
X0000578740Y0001538330D01*
X0000579864Y0001539455D01*
X0000582114Y0001540580D01*
X0000585489Y0001540580D01*
X0000587739Y0001539455D01*
X0000588863Y0001538330D01*
X0000589988Y0001536080D01*
X0000589988Y0001527081D01*
X0000577615Y0001561952D02*
X0000577615Y0001550703D01*
X0000588863Y0001549579D01*
X0000587739Y0001550703D01*
X0000586614Y0001552953D01*
X0000586614Y0001558577D01*
X0000587739Y0001560827D01*
X0000588863Y0001561952D01*
X0000591113Y0001563077D01*
X0000596737Y0001563077D01*
X0000598987Y0001561952D01*
X0000600112Y0001560827D01*
X0000601237Y0001558577D01*
X0000601237Y0001552953D01*
X0000600112Y0001550703D01*
X0000598987Y0001549579D01*
X0000618110Y0001757030D02*
X0000610236Y0001768278D01*
X0000604611Y0001757030D02*
X0000604611Y0001780652D01*
X0000613610Y0001780652D01*
X0000615860Y0001779527D01*
X0000616985Y0001778402D01*
X0000618110Y0001776152D01*
X0000618110Y0001772778D01*
X0000616985Y0001770528D01*
X0000615860Y0001769403D01*
X0000613610Y0001768278D01*
X0000604611Y0001768278D01*
X0000638357Y0001780652D02*
X0000633858Y0001780652D01*
X0000631608Y0001779527D01*
X0000630483Y0001778402D01*
X0000628233Y0001775028D01*
X0000627109Y0001770528D01*
X0000627109Y0001761529D01*
X0000628233Y0001759280D01*
X0000629358Y0001758155D01*
X0000631608Y0001757030D01*
X0000636107Y0001757030D01*
X0000638357Y0001758155D01*
X0000639482Y0001759280D01*
X0000640607Y0001761529D01*
X0000640607Y0001767154D01*
X0000639482Y0001769403D01*
X0000638357Y0001770528D01*
X0000636107Y0001771653D01*
X0000631608Y0001771653D01*
X0000629358Y0001770528D01*
X0000628233Y0001769403D01*
X0000627109Y0001767154D01*
X0000471189Y0001540580D02*
X0000472314Y0001539455D01*
X0000473438Y0001536080D01*
X0000473438Y0001533831D01*
X0000472314Y0001530456D01*
X0000470064Y0001528206D01*
X0000467814Y0001527081D01*
X0000463315Y0001525957D01*
X0000459940Y0001525957D01*
X0000455441Y0001527081D01*
X0000453191Y0001528206D01*
X0000450941Y0001530456D01*
X0000449816Y0001533831D01*
X0000449816Y0001536080D01*
X0000450941Y0001539455D01*
X0000452066Y0001540580D01*
X0000449816Y0001548454D02*
X0000449816Y0001563077D01*
X0000458815Y0001555203D01*
X0000458815Y0001558577D01*
X0000459940Y0001560827D01*
X0000461065Y0001561952D01*
X0000463315Y0001563077D01*
X0000468939Y0001563077D01*
X0000471189Y0001561952D01*
X0000472314Y0001560827D01*
X0000473438Y0001558577D01*
X0000473438Y0001551828D01*
X0000472314Y0001549579D01*
X0000471189Y0001548454D01*
X0000461346Y0001229556D02*
X0000462471Y0001228431D01*
X0000463596Y0001225057D01*
X0000463596Y0001222807D01*
X0000462471Y0001219432D01*
X0000460221Y0001217183D01*
X0000457972Y0001216058D01*
X0000453472Y0001214933D01*
X0000450098Y0001214933D01*
X0000445598Y0001216058D01*
X0000443348Y0001217183D01*
X0000441099Y0001219432D01*
X0000439974Y0001222807D01*
X0000439974Y0001225057D01*
X0000441099Y0001228431D01*
X0000442224Y0001229556D01*
X0000463596Y0001252053D02*
X0000463596Y0001238555D01*
X0000463596Y0001245304D02*
X0000439974Y0001245304D01*
X0000443348Y0001243054D01*
X0000445598Y0001240805D01*
X0000446723Y0001238555D01*
X0001050056Y0001736220D02*
X0001066929Y0001736220D01*
X0001070303Y0001735095D01*
X0001072553Y0001732845D01*
X0001073678Y0001729471D01*
X0001073678Y0001727221D01*
X0001052305Y0001746344D02*
X0001051181Y0001747469D01*
X0001050056Y0001749718D01*
X0001050056Y0001755343D01*
X0001051181Y0001757592D01*
X0001052305Y0001758717D01*
X0001054555Y0001759842D01*
X0001056805Y0001759842D01*
X0001060179Y0001758717D01*
X0001073678Y0001745219D01*
X0001073678Y0001759842D01*
G04 next file*
G04 #@! TF.FileFunction,Legend,Top*
G04 Gerber Fmt 4.6, Leading zero omitted, Abs format (unit mm)*
G04 Created by KiCad (PCBNEW 4.0.4-1.fc24-product) date Tue Aug 28 14:06:47 2018*
G01G01*
G04 APERTURE LIST*
G04 APERTURE END LIST*
D29*
D30*
X0001618110Y0001164370D02*
X0001657480Y0001164370D01*
X0001657480Y0001111220D02*
X0001618110Y0001111220D01*
X0001621062Y0001614173D02*
X0001621062Y0001574803D01*
X0001567913Y0001574803D02*
X0001567913Y0001614173D01*
X0001567913Y0001263779D02*
X0001567913Y0001303149D01*
X0001621062Y0001303149D02*
X0001621062Y0001263779D01*
X0001925196Y0001269685D02*
X0001925196Y0001297244D01*
X0001972440Y0001297244D02*
X0001972440Y0001269685D01*
D31*
X0002045275Y0001348425D02*
X0002045275Y0001307086D01*
X0002116141Y0001348425D02*
X0002045275Y0001348425D01*
X0002045275Y0001218503D02*
X0002045275Y0001259842D01*
X0002139763Y0001218503D02*
X0002045275Y0001218503D01*
D30*
X0001857283Y0001303149D02*
X0001857283Y0001263779D01*
X0001804133Y0001263779D02*
X0001804133Y0001303149D01*
X0002250984Y0001303149D02*
X0002250984Y0001263779D01*
X0002197834Y0001263779D02*
X0002197834Y0001303149D01*
X0001804133Y0001574803D02*
X0001804133Y0001614173D01*
X0001857283Y0001614173D02*
X0001857283Y0001574803D01*
X0001862204Y0001750984D02*
X0001901574Y0001750984D01*
X0001901574Y0001697834D02*
X0001862204Y0001697834D01*
X0001680752Y0001568414D02*
X0001744752Y0001568414D01*
X0001744752Y0001676414D02*
X0001680752Y0001676414D01*
X0001680752Y0001676414D02*
X0001680752Y0001550414D01*
X0001680752Y0001550414D02*
X0001744752Y0001550414D01*
X0001744752Y0001550414D02*
X0001744752Y0001676414D01*
X0001687752Y0001315776D02*
X0001687752Y0001235776D01*
X0001737752Y0001315776D02*
X0001687752Y0001315776D01*
X0001737752Y0001235776D02*
X0001737752Y0001315776D01*
X0001687752Y0001235776D02*
X0001737752Y0001235776D01*
X0001687752Y0001300776D02*
X0001737752Y0001300776D01*
D31*
X0001876771Y0001774409D02*
X0001876771Y0001826771D01*
X0001929133Y0001774409D02*
X0001876771Y0001774409D01*
X0001979133Y0001774409D02*
X0001979133Y0001879133D01*
X0001979133Y0001879133D02*
X0002281496Y0001879133D01*
X0001979133Y0001774409D02*
X0002281496Y0001774409D01*
X0002281496Y0001774409D02*
X0002281496Y0001879133D01*
D30*
X0001586614Y0001170416D02*
X0001578740Y0001181664D01*
X0001573115Y0001170416D02*
X0001573115Y0001194038D01*
X0001582114Y0001194038D01*
X0001584364Y0001192913D01*
X0001585489Y0001191788D01*
X0001586614Y0001189538D01*
X0001586614Y0001186164D01*
X0001585489Y0001183914D01*
X0001584364Y0001182789D01*
X0001582114Y0001181664D01*
X0001573115Y0001181664D01*
X0001594488Y0001194038D02*
X0001610236Y0001194038D01*
X0001600112Y0001170416D01*
X0001565804Y0001540580D02*
X0001554555Y0001532706D01*
X0001565804Y0001527081D02*
X0001542182Y0001527081D01*
X0001542182Y0001536080D01*
X0001543307Y0001538330D01*
X0001544431Y0001539455D01*
X0001546681Y0001540580D01*
X0001550056Y0001540580D01*
X0001552305Y0001539455D01*
X0001553430Y0001538330D01*
X0001554555Y0001536080D01*
X0001554555Y0001527081D01*
X0001550056Y0001560827D02*
X0001565804Y0001560827D01*
X0001541057Y0001555203D02*
X0001557930Y0001549579D01*
X0001557930Y0001564202D01*
X0001565804Y0001230314D02*
X0001554555Y0001222440D01*
X0001565804Y0001216816D02*
X0001542182Y0001216816D01*
X0001542182Y0001225815D01*
X0001543307Y0001228065D01*
X0001544431Y0001229190D01*
X0001546681Y0001230314D01*
X0001550056Y0001230314D01*
X0001552305Y0001229190D01*
X0001553430Y0001228065D01*
X0001554555Y0001225815D01*
X0001554555Y0001216816D01*
X0001565804Y0001252812D02*
X0001565804Y0001239313D01*
X0001565804Y0001246062D02*
X0001542182Y0001246062D01*
X0001545556Y0001243813D01*
X0001547806Y0001241563D01*
X0001548931Y0001239313D01*
X0001917885Y0001230314D02*
X0001919010Y0001229190D01*
X0001920135Y0001225815D01*
X0001920135Y0001223565D01*
X0001919010Y0001220191D01*
X0001916760Y0001217941D01*
X0001914510Y0001216816D01*
X0001910011Y0001215691D01*
X0001906636Y0001215691D01*
X0001902137Y0001216816D01*
X0001899887Y0001217941D01*
X0001897637Y0001220191D01*
X0001896512Y0001223565D01*
X0001896512Y0001225815D01*
X0001897637Y0001229190D01*
X0001898762Y0001230314D01*
X0001898762Y0001239313D02*
X0001897637Y0001240438D01*
X0001896512Y0001242688D01*
X0001896512Y0001248312D01*
X0001897637Y0001250562D01*
X0001898762Y0001251687D01*
X0001901012Y0001252812D01*
X0001903262Y0001252812D01*
X0001906636Y0001251687D01*
X0001920135Y0001238188D01*
X0001920135Y0001252812D01*
X0002095612Y0001280230D02*
X0002094488Y0001277980D01*
X0002092238Y0001275731D01*
X0002088863Y0001272356D01*
X0002087739Y0001270106D01*
X0002087739Y0001267857D01*
X0002093363Y0001268981D02*
X0002092238Y0001266732D01*
X0002089988Y0001264482D01*
X0002085489Y0001263357D01*
X0002077615Y0001263357D01*
X0002073115Y0001264482D01*
X0002070866Y0001266732D01*
X0002069741Y0001268981D01*
X0002069741Y0001273481D01*
X0002070866Y0001275731D01*
X0002073115Y0001277980D01*
X0002077615Y0001279105D01*
X0002085489Y0001279105D01*
X0002089988Y0001277980D01*
X0002092238Y0001275731D01*
X0002093363Y0001273481D01*
X0002093363Y0001268981D01*
X0002093363Y0001301602D02*
X0002093363Y0001288104D01*
X0002093363Y0001294853D02*
X0002069741Y0001294853D01*
X0002073115Y0001292604D01*
X0002075365Y0001290354D01*
X0002076490Y0001288104D01*
X0001802024Y0001230314D02*
X0001790776Y0001222440D01*
X0001802024Y0001216816D02*
X0001778402Y0001216816D01*
X0001778402Y0001225815D01*
X0001779527Y0001228065D01*
X0001780652Y0001229190D01*
X0001782902Y0001230314D01*
X0001786276Y0001230314D01*
X0001788526Y0001229190D01*
X0001789651Y0001228065D01*
X0001790776Y0001225815D01*
X0001790776Y0001216816D01*
X0001780652Y0001239313D02*
X0001779527Y0001240438D01*
X0001778402Y0001242688D01*
X0001778402Y0001248312D01*
X0001779527Y0001250562D01*
X0001780652Y0001251687D01*
X0001782902Y0001252812D01*
X0001785151Y0001252812D01*
X0001788526Y0001251687D01*
X0001802024Y0001238188D01*
X0001802024Y0001252812D01*
X0002187851Y0001224409D02*
X0002176602Y0001216535D01*
X0002187851Y0001210911D02*
X0002164229Y0001210911D01*
X0002164229Y0001219910D01*
X0002165354Y0001222159D01*
X0002166479Y0001223284D01*
X0002168728Y0001224409D01*
X0002172103Y0001224409D01*
X0002174353Y0001223284D01*
X0002175478Y0001222159D01*
X0002176602Y0001219910D01*
X0002176602Y0001210911D01*
X0002164229Y0001232283D02*
X0002164229Y0001246906D01*
X0002173228Y0001239032D01*
X0002173228Y0001242407D01*
X0002174353Y0001244656D01*
X0002175478Y0001245781D01*
X0002177727Y0001246906D01*
X0002183352Y0001246906D01*
X0002185601Y0001245781D01*
X0002186726Y0001244656D01*
X0002187851Y0001242407D01*
X0002187851Y0001235658D01*
X0002186726Y0001233408D01*
X0002185601Y0001232283D01*
X0001802024Y0001540580D02*
X0001790776Y0001532706D01*
X0001802024Y0001527081D02*
X0001778402Y0001527081D01*
X0001778402Y0001536080D01*
X0001779527Y0001538330D01*
X0001780652Y0001539455D01*
X0001782902Y0001540580D01*
X0001786276Y0001540580D01*
X0001788526Y0001539455D01*
X0001789651Y0001538330D01*
X0001790776Y0001536080D01*
X0001790776Y0001527081D01*
X0001778402Y0001561952D02*
X0001778402Y0001550703D01*
X0001789651Y0001549579D01*
X0001788526Y0001550703D01*
X0001787401Y0001552953D01*
X0001787401Y0001558577D01*
X0001788526Y0001560827D01*
X0001789651Y0001561952D01*
X0001791901Y0001563077D01*
X0001797525Y0001563077D01*
X0001799775Y0001561952D01*
X0001800899Y0001560827D01*
X0001802024Y0001558577D01*
X0001802024Y0001552953D01*
X0001800899Y0001550703D01*
X0001799775Y0001549579D01*
X0001818897Y0001757030D02*
X0001811023Y0001768278D01*
X0001805399Y0001757030D02*
X0001805399Y0001780652D01*
X0001814398Y0001780652D01*
X0001816647Y0001779527D01*
X0001817772Y0001778402D01*
X0001818897Y0001776152D01*
X0001818897Y0001772778D01*
X0001817772Y0001770528D01*
X0001816647Y0001769403D01*
X0001814398Y0001768278D01*
X0001805399Y0001768278D01*
X0001839145Y0001780652D02*
X0001834645Y0001780652D01*
X0001832395Y0001779527D01*
X0001831271Y0001778402D01*
X0001829021Y0001775028D01*
X0001827896Y0001770528D01*
X0001827896Y0001761529D01*
X0001829021Y0001759280D01*
X0001830146Y0001758155D01*
X0001832395Y0001757030D01*
X0001836895Y0001757030D01*
X0001839145Y0001758155D01*
X0001840269Y0001759280D01*
X0001841394Y0001761529D01*
X0001841394Y0001767154D01*
X0001840269Y0001769403D01*
X0001839145Y0001770528D01*
X0001836895Y0001771653D01*
X0001832395Y0001771653D01*
X0001830146Y0001770528D01*
X0001829021Y0001769403D01*
X0001827896Y0001767154D01*
X0001671976Y0001540580D02*
X0001673101Y0001539455D01*
X0001674226Y0001536080D01*
X0001674226Y0001533831D01*
X0001673101Y0001530456D01*
X0001670851Y0001528206D01*
X0001668601Y0001527081D01*
X0001664102Y0001525957D01*
X0001660727Y0001525957D01*
X0001656228Y0001527081D01*
X0001653978Y0001528206D01*
X0001651729Y0001530456D01*
X0001650604Y0001533831D01*
X0001650604Y0001536080D01*
X0001651729Y0001539455D01*
X0001652853Y0001540580D01*
X0001650604Y0001548454D02*
X0001650604Y0001563077D01*
X0001659603Y0001555203D01*
X0001659603Y0001558577D01*
X0001660727Y0001560827D01*
X0001661852Y0001561952D01*
X0001664102Y0001563077D01*
X0001669726Y0001563077D01*
X0001671976Y0001561952D01*
X0001673101Y0001560827D01*
X0001674226Y0001558577D01*
X0001674226Y0001551828D01*
X0001673101Y0001549579D01*
X0001671976Y0001548454D01*
X0001662134Y0001229556D02*
X0001663258Y0001228431D01*
X0001664383Y0001225057D01*
X0001664383Y0001222807D01*
X0001663258Y0001219432D01*
X0001661009Y0001217183D01*
X0001658759Y0001216058D01*
X0001654260Y0001214933D01*
X0001650885Y0001214933D01*
X0001646386Y0001216058D01*
X0001644136Y0001217183D01*
X0001641886Y0001219432D01*
X0001640761Y0001222807D01*
X0001640761Y0001225057D01*
X0001641886Y0001228431D01*
X0001643011Y0001229556D01*
X0001664383Y0001252053D02*
X0001664383Y0001238555D01*
X0001664383Y0001245304D02*
X0001640761Y0001245304D01*
X0001644136Y0001243054D01*
X0001646386Y0001240805D01*
X0001647510Y0001238555D01*
X0002250843Y0001736220D02*
X0002267716Y0001736220D01*
X0002271091Y0001735095D01*
X0002273340Y0001732845D01*
X0002274465Y0001729471D01*
X0002274465Y0001727221D01*
X0002253093Y0001746344D02*
X0002251968Y0001747469D01*
X0002250843Y0001749718D01*
X0002250843Y0001755343D01*
X0002251968Y0001757592D01*
X0002253093Y0001758717D01*
X0002255343Y0001759842D01*
X0002257592Y0001759842D01*
X0002260967Y0001758717D01*
X0002274465Y0001745219D01*
X0002274465Y0001759842D01*
M02*