%MOIN*%
%OFA0B0*%
%FSLAX46Y46*%
%IPPOS*%
%LPD*%
%ADD10C,0.062992125984251982*%
%ADD11C,0.070866141732283464*%
%ADD12C,0.056692913385826771*%
%ADD13O,0.066929133858267723X0.066929133858267723*%
%ADD14R,0.066929133858267723X0.066929133858267723*%
%ADD15C,0.023622047244094488*%
%ADD16C,0.01968503937007874*%
%ADD17C,0.011811023622047244*%
%ADD28C,0.062992125984251982*%
%ADD29C,0.070866141732283464*%
%ADD30C,0.056692913385826771*%
%ADD31O,0.066929133858267723X0.066929133858267723*%
%ADD32R,0.066929133858267723X0.066929133858267723*%
%ADD33C,0.023622047244094488*%
%ADD34C,0.01968503937007874*%
%ADD35C,0.011811023622047244*%
%ADD36C,0.062992125984251982*%
%ADD37C,0.070866141732283464*%
%ADD38C,0.056692913385826771*%
%ADD39O,0.066929133858267723X0.066929133858267723*%
%ADD40R,0.066929133858267723X0.066929133858267723*%
%ADD41C,0.023622047244094488*%
%ADD42C,0.01968503937007874*%
%ADD43C,0.011811023622047244*%
%ADD44C,0.062992125984251982*%
%ADD45C,0.070866141732283464*%
%ADD46C,0.056692913385826771*%
%ADD47O,0.066929133858267723X0.066929133858267723*%
%ADD48R,0.066929133858267723X0.066929133858267723*%
%ADD49C,0.023622047244094488*%
%ADD50C,0.01968503937007874*%
%ADD51C,0.011811023622047244*%
G01*
D10*
X-0005393700Y0004251968D02*
X0000074803Y0000811023D03*
X0000271653Y0000811023D03*
D11*
X0000078740Y0000600393D03*
X0000078740Y0000452755D03*
X0000078740Y0000305118D03*
X0000275590Y0000600393D03*
X0000275590Y0000452755D03*
X0000275590Y0000305118D03*
D12*
X0000767716Y0000586614D03*
X0000867716Y0000586614D03*
X0000967716Y0000586614D03*
D13*
X0000927559Y0000086614D03*
D14*
X0001027559Y0000086614D03*
D13*
X0001028346Y0000822834D03*
X0000928346Y0000822834D03*
X0000828346Y0000822834D03*
D14*
X0000728346Y0000822834D03*
D10*
X0000263779Y0000094488D03*
X0000066929Y0000094488D03*
D15*
X0000527559Y0000133858D03*
X0000393700Y0000370078D03*
X0000393700Y0000681102D03*
X0000393700Y0000484251D03*
D16*
X0000240157Y0000779527D02*
X0000271653Y0000811023D01*
X0000181102Y0000720472D02*
X0000240157Y0000779527D01*
X0000181102Y0000177165D02*
X0000181102Y0000720472D01*
X0000263779Y0000094488D02*
X0000181102Y0000177165D01*
X0000867716Y0000586614D02*
X0000765354Y0000484251D01*
X0000765354Y0000484251D02*
X0000393700Y0000484251D01*
X0000275590Y0000452755D02*
X0000279527Y0000452755D01*
X0000311023Y0000488188D02*
X0000321181Y0000488188D01*
X0000275590Y0000452755D02*
X0000311023Y0000488188D01*
X0000890551Y0000685039D02*
X0000994881Y0000789370D01*
X0000518031Y0000685039D02*
X0000890551Y0000685039D01*
X0000994881Y0000789370D02*
X0001028346Y0000822834D01*
X0000321181Y0000488188D02*
X0000518031Y0000685039D01*
D17*
G36*
X0001081692Y0000020669D02*
X0000020669Y0000020669D01*
X0000020669Y0000077570D01*
X0000025208Y0000066611D01*
X0000039052Y0000052767D01*
X0000057140Y0000045275D01*
X0000076718Y0000045275D01*
X0000094805Y0000052767D01*
X0000108649Y0000066611D01*
X0000116141Y0000084699D01*
X0000116141Y0000104277D01*
X0000108649Y0000122364D01*
X0000094805Y0000136208D01*
X0000076718Y0000143700D01*
X0000057140Y0000143700D01*
X0000039052Y0000136208D01*
X0000025208Y0000122364D01*
X0000020669Y0000111405D01*
X0000020669Y0000315690D01*
X0000025590Y0000315690D01*
X0000025590Y0000294545D01*
X0000033682Y0000275011D01*
X0000048633Y0000260060D01*
X0000068168Y0000251968D01*
X0000089312Y0000251968D01*
X0000108846Y0000260060D01*
X0000123798Y0000275011D01*
X0000131889Y0000294545D01*
X0000131889Y0000315690D01*
X0000123798Y0000335224D01*
X0000108846Y0000350176D01*
X0000089312Y0000358267D01*
X0000068168Y0000358267D01*
X0000048633Y0000350176D01*
X0000033682Y0000335224D01*
X0000025590Y0000315690D01*
X0000020669Y0000315690D01*
X0000020669Y0000463327D01*
X0000025590Y0000463327D01*
X0000025590Y0000442183D01*
X0000033682Y0000422649D01*
X0000048633Y0000407697D01*
X0000068168Y0000399606D01*
X0000089312Y0000399606D01*
X0000108846Y0000407697D01*
X0000123798Y0000422649D01*
X0000131889Y0000442183D01*
X0000131889Y0000463327D01*
X0000123798Y0000482862D01*
X0000108846Y0000497813D01*
X0000089312Y0000505905D01*
X0000068168Y0000505905D01*
X0000048633Y0000497813D01*
X0000033682Y0000482862D01*
X0000025590Y0000463327D01*
X0000020669Y0000463327D01*
X0000020669Y0000610965D01*
X0000025590Y0000610965D01*
X0000025590Y0000589821D01*
X0000033682Y0000570286D01*
X0000048633Y0000555335D01*
X0000068168Y0000547244D01*
X0000089312Y0000547244D01*
X0000108846Y0000555335D01*
X0000123798Y0000570286D01*
X0000131889Y0000589821D01*
X0000131889Y0000610965D01*
X0000123798Y0000630500D01*
X0000108846Y0000645451D01*
X0000089312Y0000653543D01*
X0000068168Y0000653543D01*
X0000048633Y0000645451D01*
X0000033682Y0000630500D01*
X0000025590Y0000610965D01*
X0000020669Y0000610965D01*
X0000020669Y0000720472D01*
X0000153003Y0000720472D01*
X0000153543Y0000717758D01*
X0000153543Y0000179879D01*
X0000153003Y0000177165D01*
X0000153543Y0000174451D01*
X0000153543Y0000174451D01*
X0000155142Y0000166412D01*
X0000161233Y0000157296D01*
X0000163534Y0000155758D01*
X0000214698Y0000104594D01*
X0000214566Y0000104277D01*
X0000214566Y0000084699D01*
X0000222059Y0000066611D01*
X0000235902Y0000052767D01*
X0000253990Y0000045275D01*
X0000273568Y0000045275D01*
X0000291656Y0000052767D01*
X0000305499Y0000066611D01*
X0000312992Y0000084699D01*
X0000312992Y0000086614D01*
X0000875375Y0000086614D01*
X0000879347Y0000066644D01*
X0000890659Y0000049714D01*
X0000907589Y0000038402D01*
X0000922518Y0000035433D01*
X0000932599Y0000035433D01*
X0000947528Y0000038402D01*
X0000964458Y0000049714D01*
X0000975770Y0000066644D01*
X0000976377Y0000069697D01*
X0000976377Y0000049625D01*
X0000979075Y0000043113D01*
X0000984058Y0000038130D01*
X0000990570Y0000035433D01*
X0001017224Y0000035433D01*
X0001021653Y0000039862D01*
X0001021653Y0000080708D01*
X0001033464Y0000080708D01*
X0001033464Y0000039862D01*
X0001037893Y0000035433D01*
X0001064547Y0000035433D01*
X0001071059Y0000038130D01*
X0001076042Y0000043113D01*
X0001078740Y0000049625D01*
X0001078740Y0000076279D01*
X0001074310Y0000080708D01*
X0001033464Y0000080708D01*
X0001021653Y0000080708D01*
X0001020866Y0000080708D01*
X0001020866Y0000092519D01*
X0001021653Y0000092519D01*
X0001021653Y0000133366D01*
X0001033464Y0000133366D01*
X0001033464Y0000092519D01*
X0001074310Y0000092519D01*
X0001078740Y0000096948D01*
X0001078740Y0000123602D01*
X0001076042Y0000130114D01*
X0001071059Y0000135098D01*
X0001064547Y0000137795D01*
X0001037893Y0000137795D01*
X0001033464Y0000133366D01*
X0001021653Y0000133366D01*
X0001017224Y0000137795D01*
X0000990570Y0000137795D01*
X0000984058Y0000135098D01*
X0000979075Y0000130114D01*
X0000976377Y0000123602D01*
X0000976377Y0000103530D01*
X0000975770Y0000106584D01*
X0000964458Y0000123513D01*
X0000947528Y0000134825D01*
X0000932599Y0000137795D01*
X0000922518Y0000137795D01*
X0000907589Y0000134825D01*
X0000890659Y0000123513D01*
X0000879347Y0000106584D01*
X0000875375Y0000086614D01*
X0000312992Y0000086614D01*
X0000312992Y0000104277D01*
X0000305499Y0000122364D01*
X0000291656Y0000136208D01*
X0000273568Y0000143700D01*
X0000253990Y0000143700D01*
X0000253672Y0000143569D01*
X0000208661Y0000188580D01*
X0000208661Y0000315690D01*
X0000222440Y0000315690D01*
X0000222440Y0000294545D01*
X0000230532Y0000275011D01*
X0000245483Y0000260060D01*
X0000265018Y0000251968D01*
X0000286162Y0000251968D01*
X0000305697Y0000260060D01*
X0000320648Y0000275011D01*
X0000328740Y0000294545D01*
X0000328740Y0000315690D01*
X0000320648Y0000335224D01*
X0000305697Y0000350176D01*
X0000286162Y0000358267D01*
X0000265018Y0000358267D01*
X0000245483Y0000350176D01*
X0000230532Y0000335224D01*
X0000222440Y0000315690D01*
X0000208661Y0000315690D01*
X0000208661Y0000463327D01*
X0000222440Y0000463327D01*
X0000222440Y0000442183D01*
X0000230532Y0000422649D01*
X0000245483Y0000407697D01*
X0000265018Y0000399606D01*
X0000286162Y0000399606D01*
X0000305697Y0000407697D01*
X0000320648Y0000422649D01*
X0000328740Y0000442183D01*
X0000328740Y0000461593D01*
X0000331934Y0000462228D01*
X0000341050Y0000468320D01*
X0000342587Y0000470621D01*
X0000365644Y0000493678D01*
X0000364173Y0000490125D01*
X0000364173Y0000478378D01*
X0000368668Y0000467525D01*
X0000376974Y0000459219D01*
X0000387827Y0000454724D01*
X0000399574Y0000454724D01*
X0000404326Y0000456692D01*
X0000762640Y0000456692D01*
X0000765354Y0000456153D01*
X0000768068Y0000456692D01*
X0000768068Y0000456692D01*
X0000776107Y0000458291D01*
X0000785223Y0000464382D01*
X0000786760Y0000466684D01*
X0000860627Y0000540551D01*
X0000876879Y0000540551D01*
X0000893809Y0000547563D01*
X0000906766Y0000560521D01*
X0000913779Y0000577451D01*
X0000913779Y0000595776D01*
X0000921653Y0000595776D01*
X0000921653Y0000577451D01*
X0000928666Y0000560521D01*
X0000941623Y0000547563D01*
X0000958554Y0000540551D01*
X0000976879Y0000540551D01*
X0000993809Y0000547563D01*
X0001006766Y0000560521D01*
X0001013779Y0000577451D01*
X0001013779Y0000595776D01*
X0001006766Y0000612706D01*
X0000993809Y0000625664D01*
X0000976879Y0000632677D01*
X0000958554Y0000632677D01*
X0000941623Y0000625664D01*
X0000928666Y0000612706D01*
X0000921653Y0000595776D01*
X0000913779Y0000595776D01*
X0000906766Y0000612706D01*
X0000893809Y0000625664D01*
X0000876879Y0000632677D01*
X0000858554Y0000632677D01*
X0000841623Y0000625664D01*
X0000828666Y0000612706D01*
X0000821653Y0000595776D01*
X0000821653Y0000579525D01*
X0000809678Y0000567550D01*
X0000813779Y0000577451D01*
X0000813779Y0000595776D01*
X0000806766Y0000612706D01*
X0000793809Y0000625664D01*
X0000776879Y0000632677D01*
X0000758553Y0000632677D01*
X0000741623Y0000625664D01*
X0000728666Y0000612706D01*
X0000721653Y0000595776D01*
X0000721653Y0000577451D01*
X0000728666Y0000560521D01*
X0000741623Y0000547563D01*
X0000758553Y0000540551D01*
X0000776879Y0000540551D01*
X0000786780Y0000544652D01*
X0000753939Y0000511811D01*
X0000404326Y0000511811D01*
X0000399574Y0000513779D01*
X0000387827Y0000513779D01*
X0000384274Y0000512307D01*
X0000529446Y0000657480D01*
X0000887837Y0000657480D01*
X0000890551Y0000656940D01*
X0000893265Y0000657480D01*
X0000893265Y0000657480D01*
X0000901304Y0000659079D01*
X0000910420Y0000665170D01*
X0000911957Y0000667471D01*
X0001016288Y0000771802D01*
X0001016288Y0000771802D01*
X0001017328Y0000772842D01*
X0001023305Y0000771653D01*
X0001033387Y0000771653D01*
X0001048316Y0000774623D01*
X0001065245Y0000785935D01*
X0001076557Y0000802864D01*
X0001080530Y0000822834D01*
X0001076557Y0000842804D01*
X0001065245Y0000859734D01*
X0001048316Y0000871046D01*
X0001033387Y0000874015D01*
X0001023305Y0000874015D01*
X0001008376Y0000871046D01*
X0000991446Y0000859734D01*
X0000980134Y0000842804D01*
X0000978346Y0000833813D01*
X0000976557Y0000842804D01*
X0000965245Y0000859734D01*
X0000948316Y0000871046D01*
X0000933387Y0000874015D01*
X0000923305Y0000874015D01*
X0000908376Y0000871046D01*
X0000891446Y0000859734D01*
X0000880134Y0000842804D01*
X0000878346Y0000833813D01*
X0000876557Y0000842804D01*
X0000865245Y0000859734D01*
X0000848316Y0000871046D01*
X0000833387Y0000874015D01*
X0000823305Y0000874015D01*
X0000808376Y0000871046D01*
X0000791446Y0000859734D01*
X0000780134Y0000842804D01*
X0000779527Y0000839751D01*
X0000779527Y0000859823D01*
X0000776830Y0000866334D01*
X0000771846Y0000871318D01*
X0000765335Y0000874015D01*
X0000738681Y0000874015D01*
X0000734251Y0000869586D01*
X0000734251Y0000828740D01*
X0000735039Y0000828740D01*
X0000735039Y0000816929D01*
X0000734251Y0000816929D01*
X0000734251Y0000776082D01*
X0000738681Y0000771653D01*
X0000765335Y0000771653D01*
X0000771846Y0000774350D01*
X0000776830Y0000779334D01*
X0000779527Y0000785845D01*
X0000779527Y0000805918D01*
X0000780134Y0000802864D01*
X0000791446Y0000785935D01*
X0000808376Y0000774623D01*
X0000823305Y0000771653D01*
X0000833387Y0000771653D01*
X0000848316Y0000774623D01*
X0000865245Y0000785935D01*
X0000876557Y0000802864D01*
X0000878346Y0000811856D01*
X0000880134Y0000802864D01*
X0000891446Y0000785935D01*
X0000908376Y0000774623D01*
X0000923305Y0000771653D01*
X0000933387Y0000771653D01*
X0000939383Y0000772846D01*
X0000879135Y0000712598D01*
X0000520745Y0000712598D01*
X0000518031Y0000713138D01*
X0000515317Y0000712598D01*
X0000515317Y0000712598D01*
X0000507278Y0000710999D01*
X0000498162Y0000704908D01*
X0000496625Y0000702607D01*
X0000310127Y0000516109D01*
X0000308309Y0000515747D01*
X0000308309Y0000515747D01*
X0000300270Y0000514148D01*
X0000291154Y0000508057D01*
X0000289617Y0000505756D01*
X0000288710Y0000504850D01*
X0000286162Y0000505905D01*
X0000265018Y0000505905D01*
X0000245483Y0000497813D01*
X0000230532Y0000482862D01*
X0000222440Y0000463327D01*
X0000208661Y0000463327D01*
X0000208661Y0000610965D01*
X0000222440Y0000610965D01*
X0000222440Y0000589821D01*
X0000230532Y0000570286D01*
X0000245483Y0000555335D01*
X0000265018Y0000547244D01*
X0000286162Y0000547244D01*
X0000305697Y0000555335D01*
X0000320648Y0000570286D01*
X0000328740Y0000589821D01*
X0000328740Y0000610965D01*
X0000320648Y0000630500D01*
X0000305697Y0000645451D01*
X0000286162Y0000653543D01*
X0000265018Y0000653543D01*
X0000245483Y0000645451D01*
X0000230532Y0000630500D01*
X0000222440Y0000610965D01*
X0000208661Y0000610965D01*
X0000208661Y0000709057D01*
X0000261546Y0000761942D01*
X0000261864Y0000761810D01*
X0000281442Y0000761810D01*
X0000299530Y0000769303D01*
X0000313373Y0000783146D01*
X0000320866Y0000801234D01*
X0000320866Y0000812500D01*
X0000677165Y0000812500D01*
X0000677165Y0000785845D01*
X0000679862Y0000779334D01*
X0000684846Y0000774350D01*
X0000691357Y0000771653D01*
X0000718011Y0000771653D01*
X0000722440Y0000776082D01*
X0000722440Y0000816929D01*
X0000681594Y0000816929D01*
X0000677165Y0000812500D01*
X0000320866Y0000812500D01*
X0000320866Y0000820812D01*
X0000313373Y0000838900D01*
X0000299530Y0000852744D01*
X0000282439Y0000859823D01*
X0000677165Y0000859823D01*
X0000677165Y0000833169D01*
X0000681594Y0000828740D01*
X0000722440Y0000828740D01*
X0000722440Y0000869586D01*
X0000718011Y0000874015D01*
X0000691357Y0000874015D01*
X0000684846Y0000871318D01*
X0000679862Y0000866334D01*
X0000677165Y0000859823D01*
X0000282439Y0000859823D01*
X0000281442Y0000860236D01*
X0000261864Y0000860236D01*
X0000243776Y0000852744D01*
X0000229933Y0000838900D01*
X0000222440Y0000820812D01*
X0000222440Y0000801234D01*
X0000222572Y0000800916D01*
X0000163534Y0000741878D01*
X0000161233Y0000740341D01*
X0000159695Y0000738040D01*
X0000155142Y0000731225D01*
X0000153003Y0000720472D01*
X0000020669Y0000720472D01*
X0000020669Y0000820812D01*
X0000025590Y0000820812D01*
X0000025590Y0000801234D01*
X0000033082Y0000783146D01*
X0000046926Y0000769303D01*
X0000065014Y0000761810D01*
X0000084592Y0000761810D01*
X0000102679Y0000769303D01*
X0000116523Y0000783146D01*
X0000124015Y0000801234D01*
X0000124015Y0000820812D01*
X0000116523Y0000838900D01*
X0000102679Y0000852744D01*
X0000084592Y0000860236D01*
X0000065014Y0000860236D01*
X0000046926Y0000852744D01*
X0000033082Y0000838900D01*
X0000025590Y0000820812D01*
X0000020669Y0000820812D01*
X0000020669Y0000884842D01*
X0001081692Y0000884842D01*
X0001081692Y0000020669D01*
X0001081692Y0000020669D01*
G37*
X0001081692Y0000020669D02*
X0000020669Y0000020669D01*
X0000020669Y0000077570D01*
X0000025208Y0000066611D01*
X0000039052Y0000052767D01*
X0000057140Y0000045275D01*
X0000076718Y0000045275D01*
X0000094805Y0000052767D01*
X0000108649Y0000066611D01*
X0000116141Y0000084699D01*
X0000116141Y0000104277D01*
X0000108649Y0000122364D01*
X0000094805Y0000136208D01*
X0000076718Y0000143700D01*
X0000057140Y0000143700D01*
X0000039052Y0000136208D01*
X0000025208Y0000122364D01*
X0000020669Y0000111405D01*
X0000020669Y0000315690D01*
X0000025590Y0000315690D01*
X0000025590Y0000294545D01*
X0000033682Y0000275011D01*
X0000048633Y0000260060D01*
X0000068168Y0000251968D01*
X0000089312Y0000251968D01*
X0000108846Y0000260060D01*
X0000123798Y0000275011D01*
X0000131889Y0000294545D01*
X0000131889Y0000315690D01*
X0000123798Y0000335224D01*
X0000108846Y0000350176D01*
X0000089312Y0000358267D01*
X0000068168Y0000358267D01*
X0000048633Y0000350176D01*
X0000033682Y0000335224D01*
X0000025590Y0000315690D01*
X0000020669Y0000315690D01*
X0000020669Y0000463327D01*
X0000025590Y0000463327D01*
X0000025590Y0000442183D01*
X0000033682Y0000422649D01*
X0000048633Y0000407697D01*
X0000068168Y0000399606D01*
X0000089312Y0000399606D01*
X0000108846Y0000407697D01*
X0000123798Y0000422649D01*
X0000131889Y0000442183D01*
X0000131889Y0000463327D01*
X0000123798Y0000482862D01*
X0000108846Y0000497813D01*
X0000089312Y0000505905D01*
X0000068168Y0000505905D01*
X0000048633Y0000497813D01*
X0000033682Y0000482862D01*
X0000025590Y0000463327D01*
X0000020669Y0000463327D01*
X0000020669Y0000610965D01*
X0000025590Y0000610965D01*
X0000025590Y0000589821D01*
X0000033682Y0000570286D01*
X0000048633Y0000555335D01*
X0000068168Y0000547244D01*
X0000089312Y0000547244D01*
X0000108846Y0000555335D01*
X0000123798Y0000570286D01*
X0000131889Y0000589821D01*
X0000131889Y0000610965D01*
X0000123798Y0000630500D01*
X0000108846Y0000645451D01*
X0000089312Y0000653543D01*
X0000068168Y0000653543D01*
X0000048633Y0000645451D01*
X0000033682Y0000630500D01*
X0000025590Y0000610965D01*
X0000020669Y0000610965D01*
X0000020669Y0000720472D01*
X0000153003Y0000720472D01*
X0000153543Y0000717758D01*
X0000153543Y0000179879D01*
X0000153003Y0000177165D01*
X0000153543Y0000174451D01*
X0000153543Y0000174451D01*
X0000155142Y0000166412D01*
X0000161233Y0000157296D01*
X0000163534Y0000155758D01*
X0000214698Y0000104594D01*
X0000214566Y0000104277D01*
X0000214566Y0000084699D01*
X0000222059Y0000066611D01*
X0000235902Y0000052767D01*
X0000253990Y0000045275D01*
X0000273568Y0000045275D01*
X0000291656Y0000052767D01*
X0000305499Y0000066611D01*
X0000312992Y0000084699D01*
X0000312992Y0000086614D01*
X0000875375Y0000086614D01*
X0000879347Y0000066644D01*
X0000890659Y0000049714D01*
X0000907589Y0000038402D01*
X0000922518Y0000035433D01*
X0000932599Y0000035433D01*
X0000947528Y0000038402D01*
X0000964458Y0000049714D01*
X0000975770Y0000066644D01*
X0000976377Y0000069697D01*
X0000976377Y0000049625D01*
X0000979075Y0000043113D01*
X0000984058Y0000038130D01*
X0000990570Y0000035433D01*
X0001017224Y0000035433D01*
X0001021653Y0000039862D01*
X0001021653Y0000080708D01*
X0001033464Y0000080708D01*
X0001033464Y0000039862D01*
X0001037893Y0000035433D01*
X0001064547Y0000035433D01*
X0001071059Y0000038130D01*
X0001076042Y0000043113D01*
X0001078740Y0000049625D01*
X0001078740Y0000076279D01*
X0001074310Y0000080708D01*
X0001033464Y0000080708D01*
X0001021653Y0000080708D01*
X0001020866Y0000080708D01*
X0001020866Y0000092519D01*
X0001021653Y0000092519D01*
X0001021653Y0000133366D01*
X0001033464Y0000133366D01*
X0001033464Y0000092519D01*
X0001074310Y0000092519D01*
X0001078740Y0000096948D01*
X0001078740Y0000123602D01*
X0001076042Y0000130114D01*
X0001071059Y0000135098D01*
X0001064547Y0000137795D01*
X0001037893Y0000137795D01*
X0001033464Y0000133366D01*
X0001021653Y0000133366D01*
X0001017224Y0000137795D01*
X0000990570Y0000137795D01*
X0000984058Y0000135098D01*
X0000979075Y0000130114D01*
X0000976377Y0000123602D01*
X0000976377Y0000103530D01*
X0000975770Y0000106584D01*
X0000964458Y0000123513D01*
X0000947528Y0000134825D01*
X0000932599Y0000137795D01*
X0000922518Y0000137795D01*
X0000907589Y0000134825D01*
X0000890659Y0000123513D01*
X0000879347Y0000106584D01*
X0000875375Y0000086614D01*
X0000312992Y0000086614D01*
X0000312992Y0000104277D01*
X0000305499Y0000122364D01*
X0000291656Y0000136208D01*
X0000273568Y0000143700D01*
X0000253990Y0000143700D01*
X0000253672Y0000143569D01*
X0000208661Y0000188580D01*
X0000208661Y0000315690D01*
X0000222440Y0000315690D01*
X0000222440Y0000294545D01*
X0000230532Y0000275011D01*
X0000245483Y0000260060D01*
X0000265018Y0000251968D01*
X0000286162Y0000251968D01*
X0000305697Y0000260060D01*
X0000320648Y0000275011D01*
X0000328740Y0000294545D01*
X0000328740Y0000315690D01*
X0000320648Y0000335224D01*
X0000305697Y0000350176D01*
X0000286162Y0000358267D01*
X0000265018Y0000358267D01*
X0000245483Y0000350176D01*
X0000230532Y0000335224D01*
X0000222440Y0000315690D01*
X0000208661Y0000315690D01*
X0000208661Y0000463327D01*
X0000222440Y0000463327D01*
X0000222440Y0000442183D01*
X0000230532Y0000422649D01*
X0000245483Y0000407697D01*
X0000265018Y0000399606D01*
X0000286162Y0000399606D01*
X0000305697Y0000407697D01*
X0000320648Y0000422649D01*
X0000328740Y0000442183D01*
X0000328740Y0000461593D01*
X0000331934Y0000462228D01*
X0000341050Y0000468320D01*
X0000342587Y0000470621D01*
X0000365644Y0000493678D01*
X0000364173Y0000490125D01*
X0000364173Y0000478378D01*
X0000368668Y0000467525D01*
X0000376974Y0000459219D01*
X0000387827Y0000454724D01*
X0000399574Y0000454724D01*
X0000404326Y0000456692D01*
X0000762640Y0000456692D01*
X0000765354Y0000456153D01*
X0000768068Y0000456692D01*
X0000768068Y0000456692D01*
X0000776107Y0000458291D01*
X0000785223Y0000464382D01*
X0000786760Y0000466684D01*
X0000860627Y0000540551D01*
X0000876879Y0000540551D01*
X0000893809Y0000547563D01*
X0000906766Y0000560521D01*
X0000913779Y0000577451D01*
X0000913779Y0000595776D01*
X0000921653Y0000595776D01*
X0000921653Y0000577451D01*
X0000928666Y0000560521D01*
X0000941623Y0000547563D01*
X0000958554Y0000540551D01*
X0000976879Y0000540551D01*
X0000993809Y0000547563D01*
X0001006766Y0000560521D01*
X0001013779Y0000577451D01*
X0001013779Y0000595776D01*
X0001006766Y0000612706D01*
X0000993809Y0000625664D01*
X0000976879Y0000632677D01*
X0000958554Y0000632677D01*
X0000941623Y0000625664D01*
X0000928666Y0000612706D01*
X0000921653Y0000595776D01*
X0000913779Y0000595776D01*
X0000906766Y0000612706D01*
X0000893809Y0000625664D01*
X0000876879Y0000632677D01*
X0000858554Y0000632677D01*
X0000841623Y0000625664D01*
X0000828666Y0000612706D01*
X0000821653Y0000595776D01*
X0000821653Y0000579525D01*
X0000809678Y0000567550D01*
X0000813779Y0000577451D01*
X0000813779Y0000595776D01*
X0000806766Y0000612706D01*
X0000793809Y0000625664D01*
X0000776879Y0000632677D01*
X0000758553Y0000632677D01*
X0000741623Y0000625664D01*
X0000728666Y0000612706D01*
X0000721653Y0000595776D01*
X0000721653Y0000577451D01*
X0000728666Y0000560521D01*
X0000741623Y0000547563D01*
X0000758553Y0000540551D01*
X0000776879Y0000540551D01*
X0000786780Y0000544652D01*
X0000753939Y0000511811D01*
X0000404326Y0000511811D01*
X0000399574Y0000513779D01*
X0000387827Y0000513779D01*
X0000384274Y0000512307D01*
X0000529446Y0000657480D01*
X0000887837Y0000657480D01*
X0000890551Y0000656940D01*
X0000893265Y0000657480D01*
X0000893265Y0000657480D01*
X0000901304Y0000659079D01*
X0000910420Y0000665170D01*
X0000911957Y0000667471D01*
X0001016288Y0000771802D01*
X0001016288Y0000771802D01*
X0001017328Y0000772842D01*
X0001023305Y0000771653D01*
X0001033387Y0000771653D01*
X0001048316Y0000774623D01*
X0001065245Y0000785935D01*
X0001076557Y0000802864D01*
X0001080530Y0000822834D01*
X0001076557Y0000842804D01*
X0001065245Y0000859734D01*
X0001048316Y0000871046D01*
X0001033387Y0000874015D01*
X0001023305Y0000874015D01*
X0001008376Y0000871046D01*
X0000991446Y0000859734D01*
X0000980134Y0000842804D01*
X0000978346Y0000833813D01*
X0000976557Y0000842804D01*
X0000965245Y0000859734D01*
X0000948316Y0000871046D01*
X0000933387Y0000874015D01*
X0000923305Y0000874015D01*
X0000908376Y0000871046D01*
X0000891446Y0000859734D01*
X0000880134Y0000842804D01*
X0000878346Y0000833813D01*
X0000876557Y0000842804D01*
X0000865245Y0000859734D01*
X0000848316Y0000871046D01*
X0000833387Y0000874015D01*
X0000823305Y0000874015D01*
X0000808376Y0000871046D01*
X0000791446Y0000859734D01*
X0000780134Y0000842804D01*
X0000779527Y0000839751D01*
X0000779527Y0000859823D01*
X0000776830Y0000866334D01*
X0000771846Y0000871318D01*
X0000765335Y0000874015D01*
X0000738681Y0000874015D01*
X0000734251Y0000869586D01*
X0000734251Y0000828740D01*
X0000735039Y0000828740D01*
X0000735039Y0000816929D01*
X0000734251Y0000816929D01*
X0000734251Y0000776082D01*
X0000738681Y0000771653D01*
X0000765335Y0000771653D01*
X0000771846Y0000774350D01*
X0000776830Y0000779334D01*
X0000779527Y0000785845D01*
X0000779527Y0000805918D01*
X0000780134Y0000802864D01*
X0000791446Y0000785935D01*
X0000808376Y0000774623D01*
X0000823305Y0000771653D01*
X0000833387Y0000771653D01*
X0000848316Y0000774623D01*
X0000865245Y0000785935D01*
X0000876557Y0000802864D01*
X0000878346Y0000811856D01*
X0000880134Y0000802864D01*
X0000891446Y0000785935D01*
X0000908376Y0000774623D01*
X0000923305Y0000771653D01*
X0000933387Y0000771653D01*
X0000939383Y0000772846D01*
X0000879135Y0000712598D01*
X0000520745Y0000712598D01*
X0000518031Y0000713138D01*
X0000515317Y0000712598D01*
X0000515317Y0000712598D01*
X0000507278Y0000710999D01*
X0000498162Y0000704908D01*
X0000496625Y0000702607D01*
X0000310127Y0000516109D01*
X0000308309Y0000515747D01*
X0000308309Y0000515747D01*
X0000300270Y0000514148D01*
X0000291154Y0000508057D01*
X0000289617Y0000505756D01*
X0000288710Y0000504850D01*
X0000286162Y0000505905D01*
X0000265018Y0000505905D01*
X0000245483Y0000497813D01*
X0000230532Y0000482862D01*
X0000222440Y0000463327D01*
X0000208661Y0000463327D01*
X0000208661Y0000610965D01*
X0000222440Y0000610965D01*
X0000222440Y0000589821D01*
X0000230532Y0000570286D01*
X0000245483Y0000555335D01*
X0000265018Y0000547244D01*
X0000286162Y0000547244D01*
X0000305697Y0000555335D01*
X0000320648Y0000570286D01*
X0000328740Y0000589821D01*
X0000328740Y0000610965D01*
X0000320648Y0000630500D01*
X0000305697Y0000645451D01*
X0000286162Y0000653543D01*
X0000265018Y0000653543D01*
X0000245483Y0000645451D01*
X0000230532Y0000630500D01*
X0000222440Y0000610965D01*
X0000208661Y0000610965D01*
X0000208661Y0000709057D01*
X0000261546Y0000761942D01*
X0000261864Y0000761810D01*
X0000281442Y0000761810D01*
X0000299530Y0000769303D01*
X0000313373Y0000783146D01*
X0000320866Y0000801234D01*
X0000320866Y0000812500D01*
X0000677165Y0000812500D01*
X0000677165Y0000785845D01*
X0000679862Y0000779334D01*
X0000684846Y0000774350D01*
X0000691357Y0000771653D01*
X0000718011Y0000771653D01*
X0000722440Y0000776082D01*
X0000722440Y0000816929D01*
X0000681594Y0000816929D01*
X0000677165Y0000812500D01*
X0000320866Y0000812500D01*
X0000320866Y0000820812D01*
X0000313373Y0000838900D01*
X0000299530Y0000852744D01*
X0000282439Y0000859823D01*
X0000677165Y0000859823D01*
X0000677165Y0000833169D01*
X0000681594Y0000828740D01*
X0000722440Y0000828740D01*
X0000722440Y0000869586D01*
X0000718011Y0000874015D01*
X0000691357Y0000874015D01*
X0000684846Y0000871318D01*
X0000679862Y0000866334D01*
X0000677165Y0000859823D01*
X0000282439Y0000859823D01*
X0000281442Y0000860236D01*
X0000261864Y0000860236D01*
X0000243776Y0000852744D01*
X0000229933Y0000838900D01*
X0000222440Y0000820812D01*
X0000222440Y0000801234D01*
X0000222572Y0000800916D01*
X0000163534Y0000741878D01*
X0000161233Y0000740341D01*
X0000159695Y0000738040D01*
X0000155142Y0000731225D01*
X0000153003Y0000720472D01*
X0000020669Y0000720472D01*
X0000020669Y0000820812D01*
X0000025590Y0000820812D01*
X0000025590Y0000801234D01*
X0000033082Y0000783146D01*
X0000046926Y0000769303D01*
X0000065014Y0000761810D01*
X0000084592Y0000761810D01*
X0000102679Y0000769303D01*
X0000116523Y0000783146D01*
X0000124015Y0000801234D01*
X0000124015Y0000820812D01*
X0000116523Y0000838900D01*
X0000102679Y0000852744D01*
X0000084592Y0000860236D01*
X0000065014Y0000860236D01*
X0000046926Y0000852744D01*
X0000033082Y0000838900D01*
X0000025590Y0000820812D01*
X0000020669Y0000820812D01*
X0000020669Y0000884842D01*
X0001081692Y0000884842D01*
X0001081692Y0000020669D01*
G04 next file*
G04 #@! TF.GenerationSoftware,KiCad,Pcbnew,(5.0.0)*
G04 #@! TF.CreationDate,2018-08-27T21:34:21+10:00*
G04 #@! TF.ProjectId,BT,42542E6B696361645F70636200000000,rev?*
G04 #@! TF.SameCoordinates,Original*
G04 #@! TF.FileFunction,Copper,L2,Bot,Signal*
G04 #@! TF.FilePolarity,Positive*
G04 Gerber Fmt 4.6, Leading zero omitted, Abs format (unit mm)*
G04 Created by KiCad (PCBNEW (5.0.0)) date 08/27/18 21:34:21*
G01*
G04 APERTURE LIST*
G04 #@! TA.AperFunction,ComponentPad*
G04 #@! TD*
G04 #@! TA.AperFunction,ComponentPad*
G04 #@! TD*
G04 #@! TA.AperFunction,ComponentPad*
G04 #@! TD*
G04 #@! TA.AperFunction,ComponentPad*
G04 #@! TD*
G04 #@! TA.AperFunction,ComponentPad*
G04 #@! TD*
G04 #@! TA.AperFunction,ViaPad*
G04 #@! TD*
G04 #@! TA.AperFunction,Conductor*
G04 #@! TD*
G04 #@! TA.AperFunction,Conductor*
G04 #@! TD*
G04 APERTURE END LIST*
D28*
G04 #@! TO.P,C5,2*
G04 #@! TO.N,/RV_2*
X-0004192913Y0004251968D02*
X0001275590Y0000811023D03*
G04 #@! TO.P,C5,1*
G04 #@! TO.N,Net-(C5-Pad1)*
X0001472440Y0000811023D03*
G04 #@! TD*
D29*
G04 #@! TO.P,RV3,3*
G04 #@! TO.N,/RV_2*
X0001279527Y0000600393D03*
G04 #@! TO.P,RV3,2*
X0001279527Y0000452755D03*
G04 #@! TO.P,RV3,1*
G04 #@! TO.N,/RV_1*
X0001279527Y0000305118D03*
G04 #@! TO.P,RV3,6*
G04 #@! TO.N,/RV_6*
X0001476377Y0000600393D03*
G04 #@! TO.P,RV3,5*
G04 #@! TO.N,/RV_5*
X0001476377Y0000452755D03*
G04 #@! TO.P,RV3,4*
G04 #@! TO.N,/RV_2*
X0001476377Y0000305118D03*
G04 #@! TD*
D30*
G04 #@! TO.P,RV1,3*
G04 #@! TO.N,Net-(C3-Pad1)*
X0001968503Y0000586614D03*
G04 #@! TO.P,RV1,2*
G04 #@! TO.N,Net-(Q1-Pad2)*
X0002068503Y0000586614D03*
G04 #@! TO.P,RV1,1*
X0002168503Y0000586614D03*
G04 #@! TD*
D31*
G04 #@! TO.P,J1,2*
G04 #@! TO.N,/IN*
X0002128346Y0000086614D03*
D32*
G04 #@! TO.P,J1,1*
G04 #@! TO.N,Earth*
X0002228346Y0000086614D03*
G04 #@! TD*
D31*
G04 #@! TO.P,J2,4*
G04 #@! TO.N,/RV_5*
X0002229133Y0000822834D03*
G04 #@! TO.P,J2,3*
G04 #@! TO.N,VCC*
X0002129133Y0000822834D03*
G04 #@! TO.P,J2,2*
G04 #@! TO.N,/Vref*
X0002029133Y0000822834D03*
D32*
G04 #@! TO.P,J2,1*
G04 #@! TO.N,Earth*
X0001929133Y0000822834D03*
G04 #@! TD*
D28*
G04 #@! TO.P,C6,1*
G04 #@! TO.N,Net-(C5-Pad1)*
X0001464566Y0000094488D03*
G04 #@! TO.P,C6,2*
G04 #@! TO.N,/RV_1*
X0001267716Y0000094488D03*
G04 #@! TD*
D33*
G04 #@! TO.N,Earth*
X0001728346Y0000133858D03*
X0001594488Y0000370078D03*
X0001594488Y0000681102D03*
G04 #@! TO.N,Net-(Q1-Pad2)*
X0001594488Y0000484251D03*
G04 #@! TD*
D34*
G04 #@! TO.N,Net-(C5-Pad1)*
X0001440944Y0000779527D02*
X0001472440Y0000811023D01*
X0001381889Y0000720472D02*
X0001440944Y0000779527D01*
X0001381889Y0000177165D02*
X0001381889Y0000720472D01*
X0001464566Y0000094488D02*
X0001381889Y0000177165D01*
G04 #@! TO.N,Net-(Q1-Pad2)*
X0002068503Y0000586614D02*
X0001966141Y0000484251D01*
X0001966141Y0000484251D02*
X0001594488Y0000484251D01*
G04 #@! TO.N,/RV_5*
X0001476377Y0000452755D02*
X0001480314Y0000452755D01*
X0001511810Y0000488188D02*
X0001521968Y0000488188D01*
X0001476377Y0000452755D02*
X0001511810Y0000488188D01*
X0002091338Y0000685039D02*
X0002195669Y0000789370D01*
X0001718818Y0000685039D02*
X0002091338Y0000685039D01*
X0002195669Y0000789370D02*
X0002229133Y0000822834D01*
X0001521968Y0000488188D02*
X0001718818Y0000685039D01*
G04 #@! TD*
D35*
G04 #@! TO.N,Earth*
G36*
X0002282480Y0000020669D02*
X0001221456Y0000020669D01*
X0001221456Y0000077570D01*
X0001225996Y0000066611D01*
X0001239839Y0000052767D01*
X0001257927Y0000045275D01*
X0001277505Y0000045275D01*
X0001295593Y0000052767D01*
X0001309436Y0000066611D01*
X0001316929Y0000084699D01*
X0001316929Y0000104277D01*
X0001309436Y0000122364D01*
X0001295593Y0000136208D01*
X0001277505Y0000143700D01*
X0001257927Y0000143700D01*
X0001239839Y0000136208D01*
X0001225996Y0000122364D01*
X0001221456Y0000111405D01*
X0001221456Y0000315690D01*
X0001226377Y0000315690D01*
X0001226377Y0000294545D01*
X0001234469Y0000275011D01*
X0001249420Y0000260060D01*
X0001268955Y0000251968D01*
X0001290099Y0000251968D01*
X0001309634Y0000260060D01*
X0001324585Y0000275011D01*
X0001332677Y0000294545D01*
X0001332677Y0000315690D01*
X0001324585Y0000335224D01*
X0001309634Y0000350176D01*
X0001290099Y0000358267D01*
X0001268955Y0000358267D01*
X0001249420Y0000350176D01*
X0001234469Y0000335224D01*
X0001226377Y0000315690D01*
X0001221456Y0000315690D01*
X0001221456Y0000463327D01*
X0001226377Y0000463327D01*
X0001226377Y0000442183D01*
X0001234469Y0000422649D01*
X0001249420Y0000407697D01*
X0001268955Y0000399606D01*
X0001290099Y0000399606D01*
X0001309634Y0000407697D01*
X0001324585Y0000422649D01*
X0001332677Y0000442183D01*
X0001332677Y0000463327D01*
X0001324585Y0000482862D01*
X0001309634Y0000497813D01*
X0001290099Y0000505905D01*
X0001268955Y0000505905D01*
X0001249420Y0000497813D01*
X0001234469Y0000482862D01*
X0001226377Y0000463327D01*
X0001221456Y0000463327D01*
X0001221456Y0000610965D01*
X0001226377Y0000610965D01*
X0001226377Y0000589821D01*
X0001234469Y0000570286D01*
X0001249420Y0000555335D01*
X0001268955Y0000547244D01*
X0001290099Y0000547244D01*
X0001309634Y0000555335D01*
X0001324585Y0000570286D01*
X0001332677Y0000589821D01*
X0001332677Y0000610965D01*
X0001324585Y0000630500D01*
X0001309634Y0000645451D01*
X0001290099Y0000653543D01*
X0001268955Y0000653543D01*
X0001249420Y0000645451D01*
X0001234469Y0000630500D01*
X0001226377Y0000610965D01*
X0001221456Y0000610965D01*
X0001221456Y0000720472D01*
X0001353790Y0000720472D01*
X0001354330Y0000717758D01*
X0001354330Y0000179879D01*
X0001353790Y0000177165D01*
X0001354330Y0000174451D01*
X0001354330Y0000174451D01*
X0001355929Y0000166412D01*
X0001362020Y0000157296D01*
X0001364321Y0000155758D01*
X0001415485Y0000104594D01*
X0001415354Y0000104277D01*
X0001415354Y0000084699D01*
X0001422846Y0000066611D01*
X0001436690Y0000052767D01*
X0001454777Y0000045275D01*
X0001474355Y0000045275D01*
X0001492443Y0000052767D01*
X0001506287Y0000066611D01*
X0001513779Y0000084699D01*
X0001513779Y0000086614D01*
X0002076162Y0000086614D01*
X0002080134Y0000066644D01*
X0002091446Y0000049714D01*
X0002108376Y0000038402D01*
X0002123305Y0000035433D01*
X0002133387Y0000035433D01*
X0002148316Y0000038402D01*
X0002165245Y0000049714D01*
X0002176557Y0000066644D01*
X0002177165Y0000069697D01*
X0002177165Y0000049625D01*
X0002179862Y0000043113D01*
X0002184846Y0000038130D01*
X0002191357Y0000035433D01*
X0002218011Y0000035433D01*
X0002222440Y0000039862D01*
X0002222440Y0000080708D01*
X0002234251Y0000080708D01*
X0002234251Y0000039862D01*
X0002238681Y0000035433D01*
X0002265335Y0000035433D01*
X0002271846Y0000038130D01*
X0002276830Y0000043113D01*
X0002279527Y0000049625D01*
X0002279527Y0000076279D01*
X0002275098Y0000080708D01*
X0002234251Y0000080708D01*
X0002222440Y0000080708D01*
X0002221653Y0000080708D01*
X0002221653Y0000092519D01*
X0002222440Y0000092519D01*
X0002222440Y0000133366D01*
X0002234251Y0000133366D01*
X0002234251Y0000092519D01*
X0002275098Y0000092519D01*
X0002279527Y0000096948D01*
X0002279527Y0000123602D01*
X0002276830Y0000130114D01*
X0002271846Y0000135098D01*
X0002265335Y0000137795D01*
X0002238681Y0000137795D01*
X0002234251Y0000133366D01*
X0002222440Y0000133366D01*
X0002218011Y0000137795D01*
X0002191357Y0000137795D01*
X0002184846Y0000135098D01*
X0002179862Y0000130114D01*
X0002177165Y0000123602D01*
X0002177165Y0000103530D01*
X0002176557Y0000106584D01*
X0002165245Y0000123513D01*
X0002148316Y0000134825D01*
X0002133387Y0000137795D01*
X0002123305Y0000137795D01*
X0002108376Y0000134825D01*
X0002091446Y0000123513D01*
X0002080134Y0000106584D01*
X0002076162Y0000086614D01*
X0001513779Y0000086614D01*
X0001513779Y0000104277D01*
X0001506287Y0000122364D01*
X0001492443Y0000136208D01*
X0001474355Y0000143700D01*
X0001454777Y0000143700D01*
X0001454460Y0000143569D01*
X0001409448Y0000188580D01*
X0001409448Y0000315690D01*
X0001423228Y0000315690D01*
X0001423228Y0000294545D01*
X0001431319Y0000275011D01*
X0001446271Y0000260060D01*
X0001465805Y0000251968D01*
X0001486950Y0000251968D01*
X0001506484Y0000260060D01*
X0001521436Y0000275011D01*
X0001529527Y0000294545D01*
X0001529527Y0000315690D01*
X0001521436Y0000335224D01*
X0001506484Y0000350176D01*
X0001486950Y0000358267D01*
X0001465805Y0000358267D01*
X0001446271Y0000350176D01*
X0001431319Y0000335224D01*
X0001423228Y0000315690D01*
X0001409448Y0000315690D01*
X0001409448Y0000463327D01*
X0001423228Y0000463327D01*
X0001423228Y0000442183D01*
X0001431319Y0000422649D01*
X0001446271Y0000407697D01*
X0001465805Y0000399606D01*
X0001486950Y0000399606D01*
X0001506484Y0000407697D01*
X0001521436Y0000422649D01*
X0001529527Y0000442183D01*
X0001529527Y0000461593D01*
X0001532721Y0000462228D01*
X0001541837Y0000468320D01*
X0001543375Y0000470621D01*
X0001566432Y0000493678D01*
X0001564960Y0000490125D01*
X0001564960Y0000478378D01*
X0001569455Y0000467525D01*
X0001577762Y0000459219D01*
X0001588614Y0000454724D01*
X0001600361Y0000454724D01*
X0001605113Y0000456692D01*
X0001963427Y0000456692D01*
X0001966141Y0000456153D01*
X0001968855Y0000456692D01*
X0001968855Y0000456692D01*
X0001976894Y0000458291D01*
X0001986010Y0000464382D01*
X0001987548Y0000466684D01*
X0002061415Y0000540551D01*
X0002077666Y0000540551D01*
X0002094596Y0000547563D01*
X0002107554Y0000560521D01*
X0002114566Y0000577451D01*
X0002114566Y0000595776D01*
X0002122440Y0000595776D01*
X0002122440Y0000577451D01*
X0002129453Y0000560521D01*
X0002142411Y0000547563D01*
X0002159341Y0000540551D01*
X0002177666Y0000540551D01*
X0002194596Y0000547563D01*
X0002207554Y0000560521D01*
X0002214566Y0000577451D01*
X0002214566Y0000595776D01*
X0002207554Y0000612706D01*
X0002194596Y0000625664D01*
X0002177666Y0000632677D01*
X0002159341Y0000632677D01*
X0002142411Y0000625664D01*
X0002129453Y0000612706D01*
X0002122440Y0000595776D01*
X0002114566Y0000595776D01*
X0002107554Y0000612706D01*
X0002094596Y0000625664D01*
X0002077666Y0000632677D01*
X0002059341Y0000632677D01*
X0002042411Y0000625664D01*
X0002029453Y0000612706D01*
X0002022440Y0000595776D01*
X0002022440Y0000579525D01*
X0002010465Y0000567550D01*
X0002014566Y0000577451D01*
X0002014566Y0000595776D01*
X0002007554Y0000612706D01*
X0001994596Y0000625664D01*
X0001977666Y0000632677D01*
X0001959341Y0000632677D01*
X0001942411Y0000625664D01*
X0001929453Y0000612706D01*
X0001922440Y0000595776D01*
X0001922440Y0000577451D01*
X0001929453Y0000560521D01*
X0001942411Y0000547563D01*
X0001959341Y0000540551D01*
X0001977666Y0000540551D01*
X0001987567Y0000544652D01*
X0001954726Y0000511811D01*
X0001605113Y0000511811D01*
X0001600361Y0000513779D01*
X0001588614Y0000513779D01*
X0001585061Y0000512307D01*
X0001730234Y0000657480D01*
X0002088624Y0000657480D01*
X0002091338Y0000656940D01*
X0002094052Y0000657480D01*
X0002094052Y0000657480D01*
X0002102091Y0000659079D01*
X0002111207Y0000665170D01*
X0002112745Y0000667471D01*
X0002217075Y0000771802D01*
X0002217075Y0000771802D01*
X0002218115Y0000772842D01*
X0002224093Y0000771653D01*
X0002234174Y0000771653D01*
X0002249103Y0000774623D01*
X0002266033Y0000785935D01*
X0002277345Y0000802864D01*
X0002281317Y0000822834D01*
X0002277345Y0000842804D01*
X0002266033Y0000859734D01*
X0002249103Y0000871046D01*
X0002234174Y0000874015D01*
X0002224093Y0000874015D01*
X0002209163Y0000871046D01*
X0002192234Y0000859734D01*
X0002180922Y0000842804D01*
X0002179133Y0000833813D01*
X0002177345Y0000842804D01*
X0002166033Y0000859734D01*
X0002149103Y0000871046D01*
X0002134174Y0000874015D01*
X0002124093Y0000874015D01*
X0002109163Y0000871046D01*
X0002092234Y0000859734D01*
X0002080922Y0000842804D01*
X0002079133Y0000833813D01*
X0002077345Y0000842804D01*
X0002066033Y0000859734D01*
X0002049103Y0000871046D01*
X0002034174Y0000874015D01*
X0002024092Y0000874015D01*
X0002009163Y0000871046D01*
X0001992234Y0000859734D01*
X0001980922Y0000842804D01*
X0001980314Y0000839751D01*
X0001980314Y0000859823D01*
X0001977617Y0000866334D01*
X0001972634Y0000871318D01*
X0001966122Y0000874015D01*
X0001939468Y0000874015D01*
X0001935039Y0000869586D01*
X0001935039Y0000828740D01*
X0001935826Y0000828740D01*
X0001935826Y0000816929D01*
X0001935039Y0000816929D01*
X0001935039Y0000776082D01*
X0001939468Y0000771653D01*
X0001966122Y0000771653D01*
X0001972634Y0000774350D01*
X0001977617Y0000779334D01*
X0001980314Y0000785845D01*
X0001980314Y0000805918D01*
X0001980922Y0000802864D01*
X0001992234Y0000785935D01*
X0002009163Y0000774623D01*
X0002024092Y0000771653D01*
X0002034174Y0000771653D01*
X0002049103Y0000774623D01*
X0002066033Y0000785935D01*
X0002077345Y0000802864D01*
X0002079133Y0000811856D01*
X0002080922Y0000802864D01*
X0002092234Y0000785935D01*
X0002109163Y0000774623D01*
X0002124093Y0000771653D01*
X0002134174Y0000771653D01*
X0002140171Y0000772846D01*
X0002079923Y0000712598D01*
X0001721532Y0000712598D01*
X0001718818Y0000713138D01*
X0001716104Y0000712598D01*
X0001716104Y0000712598D01*
X0001708065Y0000710999D01*
X0001698950Y0000704908D01*
X0001697412Y0000702607D01*
X0001510914Y0000516109D01*
X0001509097Y0000515747D01*
X0001509096Y0000515747D01*
X0001501057Y0000514148D01*
X0001491942Y0000508057D01*
X0001490404Y0000505756D01*
X0001489497Y0000504850D01*
X0001486950Y0000505905D01*
X0001465805Y0000505905D01*
X0001446271Y0000497813D01*
X0001431319Y0000482862D01*
X0001423228Y0000463327D01*
X0001409448Y0000463327D01*
X0001409448Y0000610965D01*
X0001423228Y0000610965D01*
X0001423228Y0000589821D01*
X0001431319Y0000570286D01*
X0001446271Y0000555335D01*
X0001465805Y0000547244D01*
X0001486950Y0000547244D01*
X0001506484Y0000555335D01*
X0001521436Y0000570286D01*
X0001529527Y0000589821D01*
X0001529527Y0000610965D01*
X0001521436Y0000630500D01*
X0001506484Y0000645451D01*
X0001486950Y0000653543D01*
X0001465805Y0000653543D01*
X0001446271Y0000645451D01*
X0001431319Y0000630500D01*
X0001423228Y0000610965D01*
X0001409448Y0000610965D01*
X0001409448Y0000709057D01*
X0001462334Y0000761942D01*
X0001462651Y0000761810D01*
X0001482229Y0000761810D01*
X0001500317Y0000769303D01*
X0001514161Y0000783146D01*
X0001521653Y0000801234D01*
X0001521653Y0000812500D01*
X0001877952Y0000812500D01*
X0001877952Y0000785845D01*
X0001880649Y0000779334D01*
X0001885633Y0000774350D01*
X0001892145Y0000771653D01*
X0001918799Y0000771653D01*
X0001923228Y0000776082D01*
X0001923228Y0000816929D01*
X0001882381Y0000816929D01*
X0001877952Y0000812500D01*
X0001521653Y0000812500D01*
X0001521653Y0000820812D01*
X0001514161Y0000838900D01*
X0001500317Y0000852744D01*
X0001483226Y0000859823D01*
X0001877952Y0000859823D01*
X0001877952Y0000833169D01*
X0001882381Y0000828740D01*
X0001923228Y0000828740D01*
X0001923228Y0000869586D01*
X0001918799Y0000874015D01*
X0001892145Y0000874015D01*
X0001885633Y0000871318D01*
X0001880649Y0000866334D01*
X0001877952Y0000859823D01*
X0001483226Y0000859823D01*
X0001482229Y0000860236D01*
X0001462651Y0000860236D01*
X0001444564Y0000852744D01*
X0001430720Y0000838900D01*
X0001423228Y0000820812D01*
X0001423228Y0000801234D01*
X0001423359Y0000800916D01*
X0001364321Y0000741878D01*
X0001362020Y0000740341D01*
X0001360483Y0000738040D01*
X0001355929Y0000731225D01*
X0001353790Y0000720472D01*
X0001221456Y0000720472D01*
X0001221456Y0000820812D01*
X0001226377Y0000820812D01*
X0001226377Y0000801234D01*
X0001233870Y0000783146D01*
X0001247713Y0000769303D01*
X0001265801Y0000761810D01*
X0001285379Y0000761810D01*
X0001303467Y0000769303D01*
X0001317310Y0000783146D01*
X0001324803Y0000801234D01*
X0001324803Y0000820812D01*
X0001317310Y0000838900D01*
X0001303467Y0000852744D01*
X0001285379Y0000860236D01*
X0001265801Y0000860236D01*
X0001247713Y0000852744D01*
X0001233870Y0000838900D01*
X0001226377Y0000820812D01*
X0001221456Y0000820812D01*
X0001221456Y0000884842D01*
X0002282480Y0000884842D01*
X0002282480Y0000020669D01*
X0002282480Y0000020669D01*
G37*
X0002282480Y0000020669D02*
X0001221456Y0000020669D01*
X0001221456Y0000077570D01*
X0001225996Y0000066611D01*
X0001239839Y0000052767D01*
X0001257927Y0000045275D01*
X0001277505Y0000045275D01*
X0001295593Y0000052767D01*
X0001309436Y0000066611D01*
X0001316929Y0000084699D01*
X0001316929Y0000104277D01*
X0001309436Y0000122364D01*
X0001295593Y0000136208D01*
X0001277505Y0000143700D01*
X0001257927Y0000143700D01*
X0001239839Y0000136208D01*
X0001225996Y0000122364D01*
X0001221456Y0000111405D01*
X0001221456Y0000315690D01*
X0001226377Y0000315690D01*
X0001226377Y0000294545D01*
X0001234469Y0000275011D01*
X0001249420Y0000260060D01*
X0001268955Y0000251968D01*
X0001290099Y0000251968D01*
X0001309634Y0000260060D01*
X0001324585Y0000275011D01*
X0001332677Y0000294545D01*
X0001332677Y0000315690D01*
X0001324585Y0000335224D01*
X0001309634Y0000350176D01*
X0001290099Y0000358267D01*
X0001268955Y0000358267D01*
X0001249420Y0000350176D01*
X0001234469Y0000335224D01*
X0001226377Y0000315690D01*
X0001221456Y0000315690D01*
X0001221456Y0000463327D01*
X0001226377Y0000463327D01*
X0001226377Y0000442183D01*
X0001234469Y0000422649D01*
X0001249420Y0000407697D01*
X0001268955Y0000399606D01*
X0001290099Y0000399606D01*
X0001309634Y0000407697D01*
X0001324585Y0000422649D01*
X0001332677Y0000442183D01*
X0001332677Y0000463327D01*
X0001324585Y0000482862D01*
X0001309634Y0000497813D01*
X0001290099Y0000505905D01*
X0001268955Y0000505905D01*
X0001249420Y0000497813D01*
X0001234469Y0000482862D01*
X0001226377Y0000463327D01*
X0001221456Y0000463327D01*
X0001221456Y0000610965D01*
X0001226377Y0000610965D01*
X0001226377Y0000589821D01*
X0001234469Y0000570286D01*
X0001249420Y0000555335D01*
X0001268955Y0000547244D01*
X0001290099Y0000547244D01*
X0001309634Y0000555335D01*
X0001324585Y0000570286D01*
X0001332677Y0000589821D01*
X0001332677Y0000610965D01*
X0001324585Y0000630500D01*
X0001309634Y0000645451D01*
X0001290099Y0000653543D01*
X0001268955Y0000653543D01*
X0001249420Y0000645451D01*
X0001234469Y0000630500D01*
X0001226377Y0000610965D01*
X0001221456Y0000610965D01*
X0001221456Y0000720472D01*
X0001353790Y0000720472D01*
X0001354330Y0000717758D01*
X0001354330Y0000179879D01*
X0001353790Y0000177165D01*
X0001354330Y0000174451D01*
X0001354330Y0000174451D01*
X0001355929Y0000166412D01*
X0001362020Y0000157296D01*
X0001364321Y0000155758D01*
X0001415485Y0000104594D01*
X0001415354Y0000104277D01*
X0001415354Y0000084699D01*
X0001422846Y0000066611D01*
X0001436690Y0000052767D01*
X0001454777Y0000045275D01*
X0001474355Y0000045275D01*
X0001492443Y0000052767D01*
X0001506287Y0000066611D01*
X0001513779Y0000084699D01*
X0001513779Y0000086614D01*
X0002076162Y0000086614D01*
X0002080134Y0000066644D01*
X0002091446Y0000049714D01*
X0002108376Y0000038402D01*
X0002123305Y0000035433D01*
X0002133387Y0000035433D01*
X0002148316Y0000038402D01*
X0002165245Y0000049714D01*
X0002176557Y0000066644D01*
X0002177165Y0000069697D01*
X0002177165Y0000049625D01*
X0002179862Y0000043113D01*
X0002184846Y0000038130D01*
X0002191357Y0000035433D01*
X0002218011Y0000035433D01*
X0002222440Y0000039862D01*
X0002222440Y0000080708D01*
X0002234251Y0000080708D01*
X0002234251Y0000039862D01*
X0002238681Y0000035433D01*
X0002265335Y0000035433D01*
X0002271846Y0000038130D01*
X0002276830Y0000043113D01*
X0002279527Y0000049625D01*
X0002279527Y0000076279D01*
X0002275098Y0000080708D01*
X0002234251Y0000080708D01*
X0002222440Y0000080708D01*
X0002221653Y0000080708D01*
X0002221653Y0000092519D01*
X0002222440Y0000092519D01*
X0002222440Y0000133366D01*
X0002234251Y0000133366D01*
X0002234251Y0000092519D01*
X0002275098Y0000092519D01*
X0002279527Y0000096948D01*
X0002279527Y0000123602D01*
X0002276830Y0000130114D01*
X0002271846Y0000135098D01*
X0002265335Y0000137795D01*
X0002238681Y0000137795D01*
X0002234251Y0000133366D01*
X0002222440Y0000133366D01*
X0002218011Y0000137795D01*
X0002191357Y0000137795D01*
X0002184846Y0000135098D01*
X0002179862Y0000130114D01*
X0002177165Y0000123602D01*
X0002177165Y0000103530D01*
X0002176557Y0000106584D01*
X0002165245Y0000123513D01*
X0002148316Y0000134825D01*
X0002133387Y0000137795D01*
X0002123305Y0000137795D01*
X0002108376Y0000134825D01*
X0002091446Y0000123513D01*
X0002080134Y0000106584D01*
X0002076162Y0000086614D01*
X0001513779Y0000086614D01*
X0001513779Y0000104277D01*
X0001506287Y0000122364D01*
X0001492443Y0000136208D01*
X0001474355Y0000143700D01*
X0001454777Y0000143700D01*
X0001454460Y0000143569D01*
X0001409448Y0000188580D01*
X0001409448Y0000315690D01*
X0001423228Y0000315690D01*
X0001423228Y0000294545D01*
X0001431319Y0000275011D01*
X0001446271Y0000260060D01*
X0001465805Y0000251968D01*
X0001486950Y0000251968D01*
X0001506484Y0000260060D01*
X0001521436Y0000275011D01*
X0001529527Y0000294545D01*
X0001529527Y0000315690D01*
X0001521436Y0000335224D01*
X0001506484Y0000350176D01*
X0001486950Y0000358267D01*
X0001465805Y0000358267D01*
X0001446271Y0000350176D01*
X0001431319Y0000335224D01*
X0001423228Y0000315690D01*
X0001409448Y0000315690D01*
X0001409448Y0000463327D01*
X0001423228Y0000463327D01*
X0001423228Y0000442183D01*
X0001431319Y0000422649D01*
X0001446271Y0000407697D01*
X0001465805Y0000399606D01*
X0001486950Y0000399606D01*
X0001506484Y0000407697D01*
X0001521436Y0000422649D01*
X0001529527Y0000442183D01*
X0001529527Y0000461593D01*
X0001532721Y0000462228D01*
X0001541837Y0000468320D01*
X0001543375Y0000470621D01*
X0001566432Y0000493678D01*
X0001564960Y0000490125D01*
X0001564960Y0000478378D01*
X0001569455Y0000467525D01*
X0001577762Y0000459219D01*
X0001588614Y0000454724D01*
X0001600361Y0000454724D01*
X0001605113Y0000456692D01*
X0001963427Y0000456692D01*
X0001966141Y0000456153D01*
X0001968855Y0000456692D01*
X0001968855Y0000456692D01*
X0001976894Y0000458291D01*
X0001986010Y0000464382D01*
X0001987548Y0000466684D01*
X0002061415Y0000540551D01*
X0002077666Y0000540551D01*
X0002094596Y0000547563D01*
X0002107554Y0000560521D01*
X0002114566Y0000577451D01*
X0002114566Y0000595776D01*
X0002122440Y0000595776D01*
X0002122440Y0000577451D01*
X0002129453Y0000560521D01*
X0002142411Y0000547563D01*
X0002159341Y0000540551D01*
X0002177666Y0000540551D01*
X0002194596Y0000547563D01*
X0002207554Y0000560521D01*
X0002214566Y0000577451D01*
X0002214566Y0000595776D01*
X0002207554Y0000612706D01*
X0002194596Y0000625664D01*
X0002177666Y0000632677D01*
X0002159341Y0000632677D01*
X0002142411Y0000625664D01*
X0002129453Y0000612706D01*
X0002122440Y0000595776D01*
X0002114566Y0000595776D01*
X0002107554Y0000612706D01*
X0002094596Y0000625664D01*
X0002077666Y0000632677D01*
X0002059341Y0000632677D01*
X0002042411Y0000625664D01*
X0002029453Y0000612706D01*
X0002022440Y0000595776D01*
X0002022440Y0000579525D01*
X0002010465Y0000567550D01*
X0002014566Y0000577451D01*
X0002014566Y0000595776D01*
X0002007554Y0000612706D01*
X0001994596Y0000625664D01*
X0001977666Y0000632677D01*
X0001959341Y0000632677D01*
X0001942411Y0000625664D01*
X0001929453Y0000612706D01*
X0001922440Y0000595776D01*
X0001922440Y0000577451D01*
X0001929453Y0000560521D01*
X0001942411Y0000547563D01*
X0001959341Y0000540551D01*
X0001977666Y0000540551D01*
X0001987567Y0000544652D01*
X0001954726Y0000511811D01*
X0001605113Y0000511811D01*
X0001600361Y0000513779D01*
X0001588614Y0000513779D01*
X0001585061Y0000512307D01*
X0001730234Y0000657480D01*
X0002088624Y0000657480D01*
X0002091338Y0000656940D01*
X0002094052Y0000657480D01*
X0002094052Y0000657480D01*
X0002102091Y0000659079D01*
X0002111207Y0000665170D01*
X0002112745Y0000667471D01*
X0002217075Y0000771802D01*
X0002217075Y0000771802D01*
X0002218115Y0000772842D01*
X0002224093Y0000771653D01*
X0002234174Y0000771653D01*
X0002249103Y0000774623D01*
X0002266033Y0000785935D01*
X0002277345Y0000802864D01*
X0002281317Y0000822834D01*
X0002277345Y0000842804D01*
X0002266033Y0000859734D01*
X0002249103Y0000871046D01*
X0002234174Y0000874015D01*
X0002224093Y0000874015D01*
X0002209163Y0000871046D01*
X0002192234Y0000859734D01*
X0002180922Y0000842804D01*
X0002179133Y0000833813D01*
X0002177345Y0000842804D01*
X0002166033Y0000859734D01*
X0002149103Y0000871046D01*
X0002134174Y0000874015D01*
X0002124093Y0000874015D01*
X0002109163Y0000871046D01*
X0002092234Y0000859734D01*
X0002080922Y0000842804D01*
X0002079133Y0000833813D01*
X0002077345Y0000842804D01*
X0002066033Y0000859734D01*
X0002049103Y0000871046D01*
X0002034174Y0000874015D01*
X0002024092Y0000874015D01*
X0002009163Y0000871046D01*
X0001992234Y0000859734D01*
X0001980922Y0000842804D01*
X0001980314Y0000839751D01*
X0001980314Y0000859823D01*
X0001977617Y0000866334D01*
X0001972634Y0000871318D01*
X0001966122Y0000874015D01*
X0001939468Y0000874015D01*
X0001935039Y0000869586D01*
X0001935039Y0000828740D01*
X0001935826Y0000828740D01*
X0001935826Y0000816929D01*
X0001935039Y0000816929D01*
X0001935039Y0000776082D01*
X0001939468Y0000771653D01*
X0001966122Y0000771653D01*
X0001972634Y0000774350D01*
X0001977617Y0000779334D01*
X0001980314Y0000785845D01*
X0001980314Y0000805918D01*
X0001980922Y0000802864D01*
X0001992234Y0000785935D01*
X0002009163Y0000774623D01*
X0002024092Y0000771653D01*
X0002034174Y0000771653D01*
X0002049103Y0000774623D01*
X0002066033Y0000785935D01*
X0002077345Y0000802864D01*
X0002079133Y0000811856D01*
X0002080922Y0000802864D01*
X0002092234Y0000785935D01*
X0002109163Y0000774623D01*
X0002124093Y0000771653D01*
X0002134174Y0000771653D01*
X0002140171Y0000772846D01*
X0002079923Y0000712598D01*
X0001721532Y0000712598D01*
X0001718818Y0000713138D01*
X0001716104Y0000712598D01*
X0001716104Y0000712598D01*
X0001708065Y0000710999D01*
X0001698950Y0000704908D01*
X0001697412Y0000702607D01*
X0001510914Y0000516109D01*
X0001509097Y0000515747D01*
X0001509096Y0000515747D01*
X0001501057Y0000514148D01*
X0001491942Y0000508057D01*
X0001490404Y0000505756D01*
X0001489497Y0000504850D01*
X0001486950Y0000505905D01*
X0001465805Y0000505905D01*
X0001446271Y0000497813D01*
X0001431319Y0000482862D01*
X0001423228Y0000463327D01*
X0001409448Y0000463327D01*
X0001409448Y0000610965D01*
X0001423228Y0000610965D01*
X0001423228Y0000589821D01*
X0001431319Y0000570286D01*
X0001446271Y0000555335D01*
X0001465805Y0000547244D01*
X0001486950Y0000547244D01*
X0001506484Y0000555335D01*
X0001521436Y0000570286D01*
X0001529527Y0000589821D01*
X0001529527Y0000610965D01*
X0001521436Y0000630500D01*
X0001506484Y0000645451D01*
X0001486950Y0000653543D01*
X0001465805Y0000653543D01*
X0001446271Y0000645451D01*
X0001431319Y0000630500D01*
X0001423228Y0000610965D01*
X0001409448Y0000610965D01*
X0001409448Y0000709057D01*
X0001462334Y0000761942D01*
X0001462651Y0000761810D01*
X0001482229Y0000761810D01*
X0001500317Y0000769303D01*
X0001514161Y0000783146D01*
X0001521653Y0000801234D01*
X0001521653Y0000812500D01*
X0001877952Y0000812500D01*
X0001877952Y0000785845D01*
X0001880649Y0000779334D01*
X0001885633Y0000774350D01*
X0001892145Y0000771653D01*
X0001918799Y0000771653D01*
X0001923228Y0000776082D01*
X0001923228Y0000816929D01*
X0001882381Y0000816929D01*
X0001877952Y0000812500D01*
X0001521653Y0000812500D01*
X0001521653Y0000820812D01*
X0001514161Y0000838900D01*
X0001500317Y0000852744D01*
X0001483226Y0000859823D01*
X0001877952Y0000859823D01*
X0001877952Y0000833169D01*
X0001882381Y0000828740D01*
X0001923228Y0000828740D01*
X0001923228Y0000869586D01*
X0001918799Y0000874015D01*
X0001892145Y0000874015D01*
X0001885633Y0000871318D01*
X0001880649Y0000866334D01*
X0001877952Y0000859823D01*
X0001483226Y0000859823D01*
X0001482229Y0000860236D01*
X0001462651Y0000860236D01*
X0001444564Y0000852744D01*
X0001430720Y0000838900D01*
X0001423228Y0000820812D01*
X0001423228Y0000801234D01*
X0001423359Y0000800916D01*
X0001364321Y0000741878D01*
X0001362020Y0000740341D01*
X0001360483Y0000738040D01*
X0001355929Y0000731225D01*
X0001353790Y0000720472D01*
X0001221456Y0000720472D01*
X0001221456Y0000820812D01*
X0001226377Y0000820812D01*
X0001226377Y0000801234D01*
X0001233870Y0000783146D01*
X0001247713Y0000769303D01*
X0001265801Y0000761810D01*
X0001285379Y0000761810D01*
X0001303467Y0000769303D01*
X0001317310Y0000783146D01*
X0001324803Y0000801234D01*
X0001324803Y0000820812D01*
X0001317310Y0000838900D01*
X0001303467Y0000852744D01*
X0001285379Y0000860236D01*
X0001265801Y0000860236D01*
X0001247713Y0000852744D01*
X0001233870Y0000838900D01*
X0001226377Y0000820812D01*
X0001221456Y0000820812D01*
X0001221456Y0000884842D01*
X0002282480Y0000884842D01*
X0002282480Y0000020669D01*
G04 #@! TD*
G04 next file*
G04 #@! TF.GenerationSoftware,KiCad,Pcbnew,(5.0.0)*
G04 #@! TF.CreationDate,2018-08-27T21:34:21+10:00*
G04 #@! TF.ProjectId,BT,42542E6B696361645F70636200000000,rev?*
G04 #@! TF.SameCoordinates,Original*
G04 #@! TF.FileFunction,Copper,L2,Bot,Signal*
G04 #@! TF.FilePolarity,Positive*
G04 Gerber Fmt 4.6, Leading zero omitted, Abs format (unit mm)*
G04 Created by KiCad (PCBNEW (5.0.0)) date 08/27/18 21:34:21*
G01*
G04 APERTURE LIST*
G04 #@! TA.AperFunction,ComponentPad*
G04 #@! TD*
G04 #@! TA.AperFunction,ComponentPad*
G04 #@! TD*
G04 #@! TA.AperFunction,ComponentPad*
G04 #@! TD*
G04 #@! TA.AperFunction,ComponentPad*
G04 #@! TD*
G04 #@! TA.AperFunction,ComponentPad*
G04 #@! TD*
G04 #@! TA.AperFunction,ViaPad*
G04 #@! TD*
G04 #@! TA.AperFunction,Conductor*
G04 #@! TD*
G04 #@! TA.AperFunction,Conductor*
G04 #@! TD*
G04 APERTURE END LIST*
D36*
G04 #@! TO.P,C5,2*
G04 #@! TO.N,/RV_2*
X-0004192913Y0005255905D02*
X0001275590Y0001814960D03*
G04 #@! TO.P,C5,1*
G04 #@! TO.N,Net-(C5-Pad1)*
X0001472440Y0001814960D03*
G04 #@! TD*
D37*
G04 #@! TO.P,RV3,3*
G04 #@! TO.N,/RV_2*
X0001279527Y0001604330D03*
G04 #@! TO.P,RV3,2*
X0001279527Y0001456692D03*
G04 #@! TO.P,RV3,1*
G04 #@! TO.N,/RV_1*
X0001279527Y0001309055D03*
G04 #@! TO.P,RV3,6*
G04 #@! TO.N,/RV_6*
X0001476377Y0001604330D03*
G04 #@! TO.P,RV3,5*
G04 #@! TO.N,/RV_5*
X0001476377Y0001456692D03*
G04 #@! TO.P,RV3,4*
G04 #@! TO.N,/RV_2*
X0001476377Y0001309055D03*
G04 #@! TD*
D38*
G04 #@! TO.P,RV1,3*
G04 #@! TO.N,Net-(C3-Pad1)*
X0001968503Y0001590551D03*
G04 #@! TO.P,RV1,2*
G04 #@! TO.N,Net-(Q1-Pad2)*
X0002068503Y0001590551D03*
G04 #@! TO.P,RV1,1*
X0002168503Y0001590551D03*
G04 #@! TD*
D39*
G04 #@! TO.P,J1,2*
G04 #@! TO.N,/IN*
X0002128346Y0001090551D03*
D40*
G04 #@! TO.P,J1,1*
G04 #@! TO.N,Earth*
X0002228346Y0001090551D03*
G04 #@! TD*
D39*
G04 #@! TO.P,J2,4*
G04 #@! TO.N,/RV_5*
X0002229133Y0001826771D03*
G04 #@! TO.P,J2,3*
G04 #@! TO.N,VCC*
X0002129133Y0001826771D03*
G04 #@! TO.P,J2,2*
G04 #@! TO.N,/Vref*
X0002029133Y0001826771D03*
D40*
G04 #@! TO.P,J2,1*
G04 #@! TO.N,Earth*
X0001929133Y0001826771D03*
G04 #@! TD*
D36*
G04 #@! TO.P,C6,1*
G04 #@! TO.N,Net-(C5-Pad1)*
X0001464566Y0001098425D03*
G04 #@! TO.P,C6,2*
G04 #@! TO.N,/RV_1*
X0001267716Y0001098425D03*
G04 #@! TD*
D41*
G04 #@! TO.N,Earth*
X0001728346Y0001137795D03*
X0001594488Y0001374015D03*
X0001594488Y0001685039D03*
G04 #@! TO.N,Net-(Q1-Pad2)*
X0001594488Y0001488188D03*
G04 #@! TD*
D42*
G04 #@! TO.N,Net-(C5-Pad1)*
X0001440944Y0001783464D02*
X0001472440Y0001814960D01*
X0001381889Y0001724409D02*
X0001440944Y0001783464D01*
X0001381889Y0001181102D02*
X0001381889Y0001724409D01*
X0001464566Y0001098425D02*
X0001381889Y0001181102D01*
G04 #@! TO.N,Net-(Q1-Pad2)*
X0002068503Y0001590551D02*
X0001966141Y0001488188D01*
X0001966141Y0001488188D02*
X0001594488Y0001488188D01*
G04 #@! TO.N,/RV_5*
X0001476377Y0001456692D02*
X0001480314Y0001456692D01*
X0001511810Y0001492125D02*
X0001521968Y0001492125D01*
X0001476377Y0001456692D02*
X0001511810Y0001492125D01*
X0002091338Y0001688976D02*
X0002195669Y0001793307D01*
X0001718818Y0001688976D02*
X0002091338Y0001688976D01*
X0002195669Y0001793307D02*
X0002229133Y0001826771D01*
X0001521968Y0001492125D02*
X0001718818Y0001688976D01*
G04 #@! TD*
D43*
G04 #@! TO.N,Earth*
G36*
X0002282480Y0001024606D02*
X0001221456Y0001024606D01*
X0001221456Y0001081507D01*
X0001225996Y0001070548D01*
X0001239839Y0001056704D01*
X0001257927Y0001049212D01*
X0001277505Y0001049212D01*
X0001295593Y0001056704D01*
X0001309436Y0001070548D01*
X0001316929Y0001088636D01*
X0001316929Y0001108214D01*
X0001309436Y0001126301D01*
X0001295593Y0001140145D01*
X0001277505Y0001147637D01*
X0001257927Y0001147637D01*
X0001239839Y0001140145D01*
X0001225996Y0001126301D01*
X0001221456Y0001115342D01*
X0001221456Y0001319627D01*
X0001226377Y0001319627D01*
X0001226377Y0001298482D01*
X0001234469Y0001278948D01*
X0001249420Y0001263997D01*
X0001268955Y0001255905D01*
X0001290099Y0001255905D01*
X0001309634Y0001263997D01*
X0001324585Y0001278948D01*
X0001332677Y0001298482D01*
X0001332677Y0001319627D01*
X0001324585Y0001339161D01*
X0001309634Y0001354113D01*
X0001290099Y0001362204D01*
X0001268955Y0001362204D01*
X0001249420Y0001354113D01*
X0001234469Y0001339161D01*
X0001226377Y0001319627D01*
X0001221456Y0001319627D01*
X0001221456Y0001467265D01*
X0001226377Y0001467265D01*
X0001226377Y0001446120D01*
X0001234469Y0001426586D01*
X0001249420Y0001411634D01*
X0001268955Y0001403543D01*
X0001290099Y0001403543D01*
X0001309634Y0001411634D01*
X0001324585Y0001426586D01*
X0001332677Y0001446120D01*
X0001332677Y0001467265D01*
X0001324585Y0001486799D01*
X0001309634Y0001501750D01*
X0001290099Y0001509842D01*
X0001268955Y0001509842D01*
X0001249420Y0001501750D01*
X0001234469Y0001486799D01*
X0001226377Y0001467265D01*
X0001221456Y0001467265D01*
X0001221456Y0001614902D01*
X0001226377Y0001614902D01*
X0001226377Y0001593758D01*
X0001234469Y0001574223D01*
X0001249420Y0001559272D01*
X0001268955Y0001551181D01*
X0001290099Y0001551181D01*
X0001309634Y0001559272D01*
X0001324585Y0001574223D01*
X0001332677Y0001593758D01*
X0001332677Y0001614902D01*
X0001324585Y0001634437D01*
X0001309634Y0001649388D01*
X0001290099Y0001657480D01*
X0001268955Y0001657480D01*
X0001249420Y0001649388D01*
X0001234469Y0001634437D01*
X0001226377Y0001614902D01*
X0001221456Y0001614902D01*
X0001221456Y0001724409D01*
X0001353790Y0001724409D01*
X0001354330Y0001721695D01*
X0001354330Y0001183816D01*
X0001353790Y0001181102D01*
X0001354330Y0001178388D01*
X0001354330Y0001178388D01*
X0001355929Y0001170349D01*
X0001362020Y0001161233D01*
X0001364321Y0001159695D01*
X0001415485Y0001108531D01*
X0001415354Y0001108214D01*
X0001415354Y0001088636D01*
X0001422846Y0001070548D01*
X0001436690Y0001056704D01*
X0001454777Y0001049212D01*
X0001474355Y0001049212D01*
X0001492443Y0001056704D01*
X0001506287Y0001070548D01*
X0001513779Y0001088636D01*
X0001513779Y0001090551D01*
X0002076162Y0001090551D01*
X0002080134Y0001070581D01*
X0002091446Y0001053651D01*
X0002108376Y0001042339D01*
X0002123305Y0001039370D01*
X0002133387Y0001039370D01*
X0002148316Y0001042339D01*
X0002165245Y0001053651D01*
X0002176557Y0001070581D01*
X0002177165Y0001073634D01*
X0002177165Y0001053562D01*
X0002179862Y0001047050D01*
X0002184846Y0001042067D01*
X0002191357Y0001039370D01*
X0002218011Y0001039370D01*
X0002222440Y0001043799D01*
X0002222440Y0001084645D01*
X0002234251Y0001084645D01*
X0002234251Y0001043799D01*
X0002238681Y0001039370D01*
X0002265335Y0001039370D01*
X0002271846Y0001042067D01*
X0002276830Y0001047050D01*
X0002279527Y0001053562D01*
X0002279527Y0001080216D01*
X0002275098Y0001084645D01*
X0002234251Y0001084645D01*
X0002222440Y0001084645D01*
X0002221653Y0001084645D01*
X0002221653Y0001096456D01*
X0002222440Y0001096456D01*
X0002222440Y0001137303D01*
X0002234251Y0001137303D01*
X0002234251Y0001096456D01*
X0002275098Y0001096456D01*
X0002279527Y0001100885D01*
X0002279527Y0001127539D01*
X0002276830Y0001134051D01*
X0002271846Y0001139035D01*
X0002265335Y0001141732D01*
X0002238681Y0001141732D01*
X0002234251Y0001137303D01*
X0002222440Y0001137303D01*
X0002218011Y0001141732D01*
X0002191357Y0001141732D01*
X0002184846Y0001139035D01*
X0002179862Y0001134051D01*
X0002177165Y0001127539D01*
X0002177165Y0001107467D01*
X0002176557Y0001110521D01*
X0002165245Y0001127450D01*
X0002148316Y0001138762D01*
X0002133387Y0001141732D01*
X0002123305Y0001141732D01*
X0002108376Y0001138762D01*
X0002091446Y0001127450D01*
X0002080134Y0001110521D01*
X0002076162Y0001090551D01*
X0001513779Y0001090551D01*
X0001513779Y0001108214D01*
X0001506287Y0001126301D01*
X0001492443Y0001140145D01*
X0001474355Y0001147637D01*
X0001454777Y0001147637D01*
X0001454460Y0001147506D01*
X0001409448Y0001192517D01*
X0001409448Y0001319627D01*
X0001423228Y0001319627D01*
X0001423228Y0001298482D01*
X0001431319Y0001278948D01*
X0001446271Y0001263997D01*
X0001465805Y0001255905D01*
X0001486950Y0001255905D01*
X0001506484Y0001263997D01*
X0001521436Y0001278948D01*
X0001529527Y0001298482D01*
X0001529527Y0001319627D01*
X0001521436Y0001339161D01*
X0001506484Y0001354113D01*
X0001486950Y0001362204D01*
X0001465805Y0001362204D01*
X0001446271Y0001354113D01*
X0001431319Y0001339161D01*
X0001423228Y0001319627D01*
X0001409448Y0001319627D01*
X0001409448Y0001467265D01*
X0001423228Y0001467265D01*
X0001423228Y0001446120D01*
X0001431319Y0001426586D01*
X0001446271Y0001411634D01*
X0001465805Y0001403543D01*
X0001486950Y0001403543D01*
X0001506484Y0001411634D01*
X0001521436Y0001426586D01*
X0001529527Y0001446120D01*
X0001529527Y0001465530D01*
X0001532721Y0001466165D01*
X0001541837Y0001472257D01*
X0001543375Y0001474558D01*
X0001566432Y0001497615D01*
X0001564960Y0001494062D01*
X0001564960Y0001482315D01*
X0001569455Y0001471462D01*
X0001577762Y0001463156D01*
X0001588614Y0001458661D01*
X0001600361Y0001458661D01*
X0001605113Y0001460629D01*
X0001963427Y0001460629D01*
X0001966141Y0001460090D01*
X0001968855Y0001460629D01*
X0001968855Y0001460629D01*
X0001976894Y0001462228D01*
X0001986010Y0001468320D01*
X0001987548Y0001470621D01*
X0002061415Y0001544488D01*
X0002077666Y0001544488D01*
X0002094596Y0001551500D01*
X0002107554Y0001564458D01*
X0002114566Y0001581388D01*
X0002114566Y0001599713D01*
X0002122440Y0001599713D01*
X0002122440Y0001581388D01*
X0002129453Y0001564458D01*
X0002142411Y0001551500D01*
X0002159341Y0001544488D01*
X0002177666Y0001544488D01*
X0002194596Y0001551500D01*
X0002207554Y0001564458D01*
X0002214566Y0001581388D01*
X0002214566Y0001599713D01*
X0002207554Y0001616643D01*
X0002194596Y0001629601D01*
X0002177666Y0001636614D01*
X0002159341Y0001636614D01*
X0002142411Y0001629601D01*
X0002129453Y0001616643D01*
X0002122440Y0001599713D01*
X0002114566Y0001599713D01*
X0002107554Y0001616643D01*
X0002094596Y0001629601D01*
X0002077666Y0001636614D01*
X0002059341Y0001636614D01*
X0002042411Y0001629601D01*
X0002029453Y0001616643D01*
X0002022440Y0001599713D01*
X0002022440Y0001583462D01*
X0002010465Y0001571487D01*
X0002014566Y0001581388D01*
X0002014566Y0001599713D01*
X0002007554Y0001616643D01*
X0001994596Y0001629601D01*
X0001977666Y0001636614D01*
X0001959341Y0001636614D01*
X0001942411Y0001629601D01*
X0001929453Y0001616643D01*
X0001922440Y0001599713D01*
X0001922440Y0001581388D01*
X0001929453Y0001564458D01*
X0001942411Y0001551500D01*
X0001959341Y0001544488D01*
X0001977666Y0001544488D01*
X0001987567Y0001548589D01*
X0001954726Y0001515748D01*
X0001605113Y0001515748D01*
X0001600361Y0001517716D01*
X0001588614Y0001517716D01*
X0001585061Y0001516244D01*
X0001730234Y0001661417D01*
X0002088624Y0001661417D01*
X0002091338Y0001660877D01*
X0002094052Y0001661417D01*
X0002094052Y0001661417D01*
X0002102091Y0001663016D01*
X0002111207Y0001669107D01*
X0002112745Y0001671408D01*
X0002217075Y0001775739D01*
X0002217075Y0001775739D01*
X0002218115Y0001776779D01*
X0002224093Y0001775590D01*
X0002234174Y0001775590D01*
X0002249103Y0001778560D01*
X0002266033Y0001789872D01*
X0002277345Y0001806801D01*
X0002281317Y0001826771D01*
X0002277345Y0001846741D01*
X0002266033Y0001863671D01*
X0002249103Y0001874983D01*
X0002234174Y0001877952D01*
X0002224093Y0001877952D01*
X0002209163Y0001874983D01*
X0002192234Y0001863671D01*
X0002180922Y0001846741D01*
X0002179133Y0001837750D01*
X0002177345Y0001846741D01*
X0002166033Y0001863671D01*
X0002149103Y0001874983D01*
X0002134174Y0001877952D01*
X0002124093Y0001877952D01*
X0002109163Y0001874983D01*
X0002092234Y0001863671D01*
X0002080922Y0001846741D01*
X0002079133Y0001837750D01*
X0002077345Y0001846741D01*
X0002066033Y0001863671D01*
X0002049103Y0001874983D01*
X0002034174Y0001877952D01*
X0002024092Y0001877952D01*
X0002009163Y0001874983D01*
X0001992234Y0001863671D01*
X0001980922Y0001846741D01*
X0001980314Y0001843688D01*
X0001980314Y0001863760D01*
X0001977617Y0001870271D01*
X0001972634Y0001875255D01*
X0001966122Y0001877952D01*
X0001939468Y0001877952D01*
X0001935039Y0001873523D01*
X0001935039Y0001832677D01*
X0001935826Y0001832677D01*
X0001935826Y0001820866D01*
X0001935039Y0001820866D01*
X0001935039Y0001780019D01*
X0001939468Y0001775590D01*
X0001966122Y0001775590D01*
X0001972634Y0001778287D01*
X0001977617Y0001783271D01*
X0001980314Y0001789782D01*
X0001980314Y0001809855D01*
X0001980922Y0001806801D01*
X0001992234Y0001789872D01*
X0002009163Y0001778560D01*
X0002024092Y0001775590D01*
X0002034174Y0001775590D01*
X0002049103Y0001778560D01*
X0002066033Y0001789872D01*
X0002077345Y0001806801D01*
X0002079133Y0001815793D01*
X0002080922Y0001806801D01*
X0002092234Y0001789872D01*
X0002109163Y0001778560D01*
X0002124093Y0001775590D01*
X0002134174Y0001775590D01*
X0002140171Y0001776783D01*
X0002079923Y0001716535D01*
X0001721532Y0001716535D01*
X0001718818Y0001717075D01*
X0001716104Y0001716535D01*
X0001716104Y0001716535D01*
X0001708065Y0001714936D01*
X0001698950Y0001708845D01*
X0001697412Y0001706544D01*
X0001510914Y0001520046D01*
X0001509097Y0001519685D01*
X0001509096Y0001519685D01*
X0001501057Y0001518085D01*
X0001491942Y0001511994D01*
X0001490404Y0001509693D01*
X0001489497Y0001508787D01*
X0001486950Y0001509842D01*
X0001465805Y0001509842D01*
X0001446271Y0001501750D01*
X0001431319Y0001486799D01*
X0001423228Y0001467265D01*
X0001409448Y0001467265D01*
X0001409448Y0001614902D01*
X0001423228Y0001614902D01*
X0001423228Y0001593758D01*
X0001431319Y0001574223D01*
X0001446271Y0001559272D01*
X0001465805Y0001551181D01*
X0001486950Y0001551181D01*
X0001506484Y0001559272D01*
X0001521436Y0001574223D01*
X0001529527Y0001593758D01*
X0001529527Y0001614902D01*
X0001521436Y0001634437D01*
X0001506484Y0001649388D01*
X0001486950Y0001657480D01*
X0001465805Y0001657480D01*
X0001446271Y0001649388D01*
X0001431319Y0001634437D01*
X0001423228Y0001614902D01*
X0001409448Y0001614902D01*
X0001409448Y0001712994D01*
X0001462334Y0001765879D01*
X0001462651Y0001765747D01*
X0001482229Y0001765747D01*
X0001500317Y0001773240D01*
X0001514161Y0001787083D01*
X0001521653Y0001805171D01*
X0001521653Y0001816437D01*
X0001877952Y0001816437D01*
X0001877952Y0001789782D01*
X0001880649Y0001783271D01*
X0001885633Y0001778287D01*
X0001892145Y0001775590D01*
X0001918799Y0001775590D01*
X0001923228Y0001780019D01*
X0001923228Y0001820866D01*
X0001882381Y0001820866D01*
X0001877952Y0001816437D01*
X0001521653Y0001816437D01*
X0001521653Y0001824749D01*
X0001514161Y0001842837D01*
X0001500317Y0001856681D01*
X0001483226Y0001863760D01*
X0001877952Y0001863760D01*
X0001877952Y0001837106D01*
X0001882381Y0001832677D01*
X0001923228Y0001832677D01*
X0001923228Y0001873523D01*
X0001918799Y0001877952D01*
X0001892145Y0001877952D01*
X0001885633Y0001875255D01*
X0001880649Y0001870271D01*
X0001877952Y0001863760D01*
X0001483226Y0001863760D01*
X0001482229Y0001864173D01*
X0001462651Y0001864173D01*
X0001444564Y0001856681D01*
X0001430720Y0001842837D01*
X0001423228Y0001824749D01*
X0001423228Y0001805171D01*
X0001423359Y0001804853D01*
X0001364321Y0001745815D01*
X0001362020Y0001744278D01*
X0001360483Y0001741977D01*
X0001355929Y0001735162D01*
X0001353790Y0001724409D01*
X0001221456Y0001724409D01*
X0001221456Y0001824749D01*
X0001226377Y0001824749D01*
X0001226377Y0001805171D01*
X0001233870Y0001787083D01*
X0001247713Y0001773240D01*
X0001265801Y0001765747D01*
X0001285379Y0001765747D01*
X0001303467Y0001773240D01*
X0001317310Y0001787083D01*
X0001324803Y0001805171D01*
X0001324803Y0001824749D01*
X0001317310Y0001842837D01*
X0001303467Y0001856681D01*
X0001285379Y0001864173D01*
X0001265801Y0001864173D01*
X0001247713Y0001856681D01*
X0001233870Y0001842837D01*
X0001226377Y0001824749D01*
X0001221456Y0001824749D01*
X0001221456Y0001888779D01*
X0002282480Y0001888779D01*
X0002282480Y0001024606D01*
X0002282480Y0001024606D01*
G37*
X0002282480Y0001024606D02*
X0001221456Y0001024606D01*
X0001221456Y0001081507D01*
X0001225996Y0001070548D01*
X0001239839Y0001056704D01*
X0001257927Y0001049212D01*
X0001277505Y0001049212D01*
X0001295593Y0001056704D01*
X0001309436Y0001070548D01*
X0001316929Y0001088636D01*
X0001316929Y0001108214D01*
X0001309436Y0001126301D01*
X0001295593Y0001140145D01*
X0001277505Y0001147637D01*
X0001257927Y0001147637D01*
X0001239839Y0001140145D01*
X0001225996Y0001126301D01*
X0001221456Y0001115342D01*
X0001221456Y0001319627D01*
X0001226377Y0001319627D01*
X0001226377Y0001298482D01*
X0001234469Y0001278948D01*
X0001249420Y0001263997D01*
X0001268955Y0001255905D01*
X0001290099Y0001255905D01*
X0001309634Y0001263997D01*
X0001324585Y0001278948D01*
X0001332677Y0001298482D01*
X0001332677Y0001319627D01*
X0001324585Y0001339161D01*
X0001309634Y0001354113D01*
X0001290099Y0001362204D01*
X0001268955Y0001362204D01*
X0001249420Y0001354113D01*
X0001234469Y0001339161D01*
X0001226377Y0001319627D01*
X0001221456Y0001319627D01*
X0001221456Y0001467265D01*
X0001226377Y0001467265D01*
X0001226377Y0001446120D01*
X0001234469Y0001426586D01*
X0001249420Y0001411634D01*
X0001268955Y0001403543D01*
X0001290099Y0001403543D01*
X0001309634Y0001411634D01*
X0001324585Y0001426586D01*
X0001332677Y0001446120D01*
X0001332677Y0001467265D01*
X0001324585Y0001486799D01*
X0001309634Y0001501750D01*
X0001290099Y0001509842D01*
X0001268955Y0001509842D01*
X0001249420Y0001501750D01*
X0001234469Y0001486799D01*
X0001226377Y0001467265D01*
X0001221456Y0001467265D01*
X0001221456Y0001614902D01*
X0001226377Y0001614902D01*
X0001226377Y0001593758D01*
X0001234469Y0001574223D01*
X0001249420Y0001559272D01*
X0001268955Y0001551181D01*
X0001290099Y0001551181D01*
X0001309634Y0001559272D01*
X0001324585Y0001574223D01*
X0001332677Y0001593758D01*
X0001332677Y0001614902D01*
X0001324585Y0001634437D01*
X0001309634Y0001649388D01*
X0001290099Y0001657480D01*
X0001268955Y0001657480D01*
X0001249420Y0001649388D01*
X0001234469Y0001634437D01*
X0001226377Y0001614902D01*
X0001221456Y0001614902D01*
X0001221456Y0001724409D01*
X0001353790Y0001724409D01*
X0001354330Y0001721695D01*
X0001354330Y0001183816D01*
X0001353790Y0001181102D01*
X0001354330Y0001178388D01*
X0001354330Y0001178388D01*
X0001355929Y0001170349D01*
X0001362020Y0001161233D01*
X0001364321Y0001159695D01*
X0001415485Y0001108531D01*
X0001415354Y0001108214D01*
X0001415354Y0001088636D01*
X0001422846Y0001070548D01*
X0001436690Y0001056704D01*
X0001454777Y0001049212D01*
X0001474355Y0001049212D01*
X0001492443Y0001056704D01*
X0001506287Y0001070548D01*
X0001513779Y0001088636D01*
X0001513779Y0001090551D01*
X0002076162Y0001090551D01*
X0002080134Y0001070581D01*
X0002091446Y0001053651D01*
X0002108376Y0001042339D01*
X0002123305Y0001039370D01*
X0002133387Y0001039370D01*
X0002148316Y0001042339D01*
X0002165245Y0001053651D01*
X0002176557Y0001070581D01*
X0002177165Y0001073634D01*
X0002177165Y0001053562D01*
X0002179862Y0001047050D01*
X0002184846Y0001042067D01*
X0002191357Y0001039370D01*
X0002218011Y0001039370D01*
X0002222440Y0001043799D01*
X0002222440Y0001084645D01*
X0002234251Y0001084645D01*
X0002234251Y0001043799D01*
X0002238681Y0001039370D01*
X0002265335Y0001039370D01*
X0002271846Y0001042067D01*
X0002276830Y0001047050D01*
X0002279527Y0001053562D01*
X0002279527Y0001080216D01*
X0002275098Y0001084645D01*
X0002234251Y0001084645D01*
X0002222440Y0001084645D01*
X0002221653Y0001084645D01*
X0002221653Y0001096456D01*
X0002222440Y0001096456D01*
X0002222440Y0001137303D01*
X0002234251Y0001137303D01*
X0002234251Y0001096456D01*
X0002275098Y0001096456D01*
X0002279527Y0001100885D01*
X0002279527Y0001127539D01*
X0002276830Y0001134051D01*
X0002271846Y0001139035D01*
X0002265335Y0001141732D01*
X0002238681Y0001141732D01*
X0002234251Y0001137303D01*
X0002222440Y0001137303D01*
X0002218011Y0001141732D01*
X0002191357Y0001141732D01*
X0002184846Y0001139035D01*
X0002179862Y0001134051D01*
X0002177165Y0001127539D01*
X0002177165Y0001107467D01*
X0002176557Y0001110521D01*
X0002165245Y0001127450D01*
X0002148316Y0001138762D01*
X0002133387Y0001141732D01*
X0002123305Y0001141732D01*
X0002108376Y0001138762D01*
X0002091446Y0001127450D01*
X0002080134Y0001110521D01*
X0002076162Y0001090551D01*
X0001513779Y0001090551D01*
X0001513779Y0001108214D01*
X0001506287Y0001126301D01*
X0001492443Y0001140145D01*
X0001474355Y0001147637D01*
X0001454777Y0001147637D01*
X0001454460Y0001147506D01*
X0001409448Y0001192517D01*
X0001409448Y0001319627D01*
X0001423228Y0001319627D01*
X0001423228Y0001298482D01*
X0001431319Y0001278948D01*
X0001446271Y0001263997D01*
X0001465805Y0001255905D01*
X0001486950Y0001255905D01*
X0001506484Y0001263997D01*
X0001521436Y0001278948D01*
X0001529527Y0001298482D01*
X0001529527Y0001319627D01*
X0001521436Y0001339161D01*
X0001506484Y0001354113D01*
X0001486950Y0001362204D01*
X0001465805Y0001362204D01*
X0001446271Y0001354113D01*
X0001431319Y0001339161D01*
X0001423228Y0001319627D01*
X0001409448Y0001319627D01*
X0001409448Y0001467265D01*
X0001423228Y0001467265D01*
X0001423228Y0001446120D01*
X0001431319Y0001426586D01*
X0001446271Y0001411634D01*
X0001465805Y0001403543D01*
X0001486950Y0001403543D01*
X0001506484Y0001411634D01*
X0001521436Y0001426586D01*
X0001529527Y0001446120D01*
X0001529527Y0001465530D01*
X0001532721Y0001466165D01*
X0001541837Y0001472257D01*
X0001543375Y0001474558D01*
X0001566432Y0001497615D01*
X0001564960Y0001494062D01*
X0001564960Y0001482315D01*
X0001569455Y0001471462D01*
X0001577762Y0001463156D01*
X0001588614Y0001458661D01*
X0001600361Y0001458661D01*
X0001605113Y0001460629D01*
X0001963427Y0001460629D01*
X0001966141Y0001460090D01*
X0001968855Y0001460629D01*
X0001968855Y0001460629D01*
X0001976894Y0001462228D01*
X0001986010Y0001468320D01*
X0001987548Y0001470621D01*
X0002061415Y0001544488D01*
X0002077666Y0001544488D01*
X0002094596Y0001551500D01*
X0002107554Y0001564458D01*
X0002114566Y0001581388D01*
X0002114566Y0001599713D01*
X0002122440Y0001599713D01*
X0002122440Y0001581388D01*
X0002129453Y0001564458D01*
X0002142411Y0001551500D01*
X0002159341Y0001544488D01*
X0002177666Y0001544488D01*
X0002194596Y0001551500D01*
X0002207554Y0001564458D01*
X0002214566Y0001581388D01*
X0002214566Y0001599713D01*
X0002207554Y0001616643D01*
X0002194596Y0001629601D01*
X0002177666Y0001636614D01*
X0002159341Y0001636614D01*
X0002142411Y0001629601D01*
X0002129453Y0001616643D01*
X0002122440Y0001599713D01*
X0002114566Y0001599713D01*
X0002107554Y0001616643D01*
X0002094596Y0001629601D01*
X0002077666Y0001636614D01*
X0002059341Y0001636614D01*
X0002042411Y0001629601D01*
X0002029453Y0001616643D01*
X0002022440Y0001599713D01*
X0002022440Y0001583462D01*
X0002010465Y0001571487D01*
X0002014566Y0001581388D01*
X0002014566Y0001599713D01*
X0002007554Y0001616643D01*
X0001994596Y0001629601D01*
X0001977666Y0001636614D01*
X0001959341Y0001636614D01*
X0001942411Y0001629601D01*
X0001929453Y0001616643D01*
X0001922440Y0001599713D01*
X0001922440Y0001581388D01*
X0001929453Y0001564458D01*
X0001942411Y0001551500D01*
X0001959341Y0001544488D01*
X0001977666Y0001544488D01*
X0001987567Y0001548589D01*
X0001954726Y0001515748D01*
X0001605113Y0001515748D01*
X0001600361Y0001517716D01*
X0001588614Y0001517716D01*
X0001585061Y0001516244D01*
X0001730234Y0001661417D01*
X0002088624Y0001661417D01*
X0002091338Y0001660877D01*
X0002094052Y0001661417D01*
X0002094052Y0001661417D01*
X0002102091Y0001663016D01*
X0002111207Y0001669107D01*
X0002112745Y0001671408D01*
X0002217075Y0001775739D01*
X0002217075Y0001775739D01*
X0002218115Y0001776779D01*
X0002224093Y0001775590D01*
X0002234174Y0001775590D01*
X0002249103Y0001778560D01*
X0002266033Y0001789872D01*
X0002277345Y0001806801D01*
X0002281317Y0001826771D01*
X0002277345Y0001846741D01*
X0002266033Y0001863671D01*
X0002249103Y0001874983D01*
X0002234174Y0001877952D01*
X0002224093Y0001877952D01*
X0002209163Y0001874983D01*
X0002192234Y0001863671D01*
X0002180922Y0001846741D01*
X0002179133Y0001837750D01*
X0002177345Y0001846741D01*
X0002166033Y0001863671D01*
X0002149103Y0001874983D01*
X0002134174Y0001877952D01*
X0002124093Y0001877952D01*
X0002109163Y0001874983D01*
X0002092234Y0001863671D01*
X0002080922Y0001846741D01*
X0002079133Y0001837750D01*
X0002077345Y0001846741D01*
X0002066033Y0001863671D01*
X0002049103Y0001874983D01*
X0002034174Y0001877952D01*
X0002024092Y0001877952D01*
X0002009163Y0001874983D01*
X0001992234Y0001863671D01*
X0001980922Y0001846741D01*
X0001980314Y0001843688D01*
X0001980314Y0001863760D01*
X0001977617Y0001870271D01*
X0001972634Y0001875255D01*
X0001966122Y0001877952D01*
X0001939468Y0001877952D01*
X0001935039Y0001873523D01*
X0001935039Y0001832677D01*
X0001935826Y0001832677D01*
X0001935826Y0001820866D01*
X0001935039Y0001820866D01*
X0001935039Y0001780019D01*
X0001939468Y0001775590D01*
X0001966122Y0001775590D01*
X0001972634Y0001778287D01*
X0001977617Y0001783271D01*
X0001980314Y0001789782D01*
X0001980314Y0001809855D01*
X0001980922Y0001806801D01*
X0001992234Y0001789872D01*
X0002009163Y0001778560D01*
X0002024092Y0001775590D01*
X0002034174Y0001775590D01*
X0002049103Y0001778560D01*
X0002066033Y0001789872D01*
X0002077345Y0001806801D01*
X0002079133Y0001815793D01*
X0002080922Y0001806801D01*
X0002092234Y0001789872D01*
X0002109163Y0001778560D01*
X0002124093Y0001775590D01*
X0002134174Y0001775590D01*
X0002140171Y0001776783D01*
X0002079923Y0001716535D01*
X0001721532Y0001716535D01*
X0001718818Y0001717075D01*
X0001716104Y0001716535D01*
X0001716104Y0001716535D01*
X0001708065Y0001714936D01*
X0001698950Y0001708845D01*
X0001697412Y0001706544D01*
X0001510914Y0001520046D01*
X0001509097Y0001519685D01*
X0001509096Y0001519685D01*
X0001501057Y0001518085D01*
X0001491942Y0001511994D01*
X0001490404Y0001509693D01*
X0001489497Y0001508787D01*
X0001486950Y0001509842D01*
X0001465805Y0001509842D01*
X0001446271Y0001501750D01*
X0001431319Y0001486799D01*
X0001423228Y0001467265D01*
X0001409448Y0001467265D01*
X0001409448Y0001614902D01*
X0001423228Y0001614902D01*
X0001423228Y0001593758D01*
X0001431319Y0001574223D01*
X0001446271Y0001559272D01*
X0001465805Y0001551181D01*
X0001486950Y0001551181D01*
X0001506484Y0001559272D01*
X0001521436Y0001574223D01*
X0001529527Y0001593758D01*
X0001529527Y0001614902D01*
X0001521436Y0001634437D01*
X0001506484Y0001649388D01*
X0001486950Y0001657480D01*
X0001465805Y0001657480D01*
X0001446271Y0001649388D01*
X0001431319Y0001634437D01*
X0001423228Y0001614902D01*
X0001409448Y0001614902D01*
X0001409448Y0001712994D01*
X0001462334Y0001765879D01*
X0001462651Y0001765747D01*
X0001482229Y0001765747D01*
X0001500317Y0001773240D01*
X0001514161Y0001787083D01*
X0001521653Y0001805171D01*
X0001521653Y0001816437D01*
X0001877952Y0001816437D01*
X0001877952Y0001789782D01*
X0001880649Y0001783271D01*
X0001885633Y0001778287D01*
X0001892145Y0001775590D01*
X0001918799Y0001775590D01*
X0001923228Y0001780019D01*
X0001923228Y0001820866D01*
X0001882381Y0001820866D01*
X0001877952Y0001816437D01*
X0001521653Y0001816437D01*
X0001521653Y0001824749D01*
X0001514161Y0001842837D01*
X0001500317Y0001856681D01*
X0001483226Y0001863760D01*
X0001877952Y0001863760D01*
X0001877952Y0001837106D01*
X0001882381Y0001832677D01*
X0001923228Y0001832677D01*
X0001923228Y0001873523D01*
X0001918799Y0001877952D01*
X0001892145Y0001877952D01*
X0001885633Y0001875255D01*
X0001880649Y0001870271D01*
X0001877952Y0001863760D01*
X0001483226Y0001863760D01*
X0001482229Y0001864173D01*
X0001462651Y0001864173D01*
X0001444564Y0001856681D01*
X0001430720Y0001842837D01*
X0001423228Y0001824749D01*
X0001423228Y0001805171D01*
X0001423359Y0001804853D01*
X0001364321Y0001745815D01*
X0001362020Y0001744278D01*
X0001360483Y0001741977D01*
X0001355929Y0001735162D01*
X0001353790Y0001724409D01*
X0001221456Y0001724409D01*
X0001221456Y0001824749D01*
X0001226377Y0001824749D01*
X0001226377Y0001805171D01*
X0001233870Y0001787083D01*
X0001247713Y0001773240D01*
X0001265801Y0001765747D01*
X0001285379Y0001765747D01*
X0001303467Y0001773240D01*
X0001317310Y0001787083D01*
X0001324803Y0001805171D01*
X0001324803Y0001824749D01*
X0001317310Y0001842837D01*
X0001303467Y0001856681D01*
X0001285379Y0001864173D01*
X0001265801Y0001864173D01*
X0001247713Y0001856681D01*
X0001233870Y0001842837D01*
X0001226377Y0001824749D01*
X0001221456Y0001824749D01*
X0001221456Y0001888779D01*
X0002282480Y0001888779D01*
X0002282480Y0001024606D01*
G04 #@! TD*
G04 next file*
G04 #@! TF.GenerationSoftware,KiCad,Pcbnew,(5.0.0)*
G04 #@! TF.CreationDate,2018-08-27T21:34:21+10:00*
G04 #@! TF.ProjectId,BT,42542E6B696361645F70636200000000,rev?*
G04 #@! TF.SameCoordinates,Original*
G04 #@! TF.FileFunction,Copper,L2,Bot,Signal*
G04 #@! TF.FilePolarity,Positive*
G04 Gerber Fmt 4.6, Leading zero omitted, Abs format (unit mm)*
G04 Created by KiCad (PCBNEW (5.0.0)) date 08/27/18 21:34:21*
G01*
G04 APERTURE LIST*
G04 #@! TA.AperFunction,ComponentPad*
G04 #@! TD*
G04 #@! TA.AperFunction,ComponentPad*
G04 #@! TD*
G04 #@! TA.AperFunction,ComponentPad*
G04 #@! TD*
G04 #@! TA.AperFunction,ComponentPad*
G04 #@! TD*
G04 #@! TA.AperFunction,ComponentPad*
G04 #@! TD*
G04 #@! TA.AperFunction,ViaPad*
G04 #@! TD*
G04 #@! TA.AperFunction,Conductor*
G04 #@! TD*
G04 #@! TA.AperFunction,Conductor*
G04 #@! TD*
G04 APERTURE END LIST*
D44*
G04 #@! TO.P,C5,2*
G04 #@! TO.N,/RV_2*
X-0005393700Y0005255905D02*
X0000074803Y0001814960D03*
G04 #@! TO.P,C5,1*
G04 #@! TO.N,Net-(C5-Pad1)*
X0000271653Y0001814960D03*
G04 #@! TD*
D45*
G04 #@! TO.P,RV3,3*
G04 #@! TO.N,/RV_2*
X0000078740Y0001604330D03*
G04 #@! TO.P,RV3,2*
X0000078740Y0001456692D03*
G04 #@! TO.P,RV3,1*
G04 #@! TO.N,/RV_1*
X0000078740Y0001309055D03*
G04 #@! TO.P,RV3,6*
G04 #@! TO.N,/RV_6*
X0000275590Y0001604330D03*
G04 #@! TO.P,RV3,5*
G04 #@! TO.N,/RV_5*
X0000275590Y0001456692D03*
G04 #@! TO.P,RV3,4*
G04 #@! TO.N,/RV_2*
X0000275590Y0001309055D03*
G04 #@! TD*
D46*
G04 #@! TO.P,RV1,3*
G04 #@! TO.N,Net-(C3-Pad1)*
X0000767716Y0001590551D03*
G04 #@! TO.P,RV1,2*
G04 #@! TO.N,Net-(Q1-Pad2)*
X0000867716Y0001590551D03*
G04 #@! TO.P,RV1,1*
X0000967716Y0001590551D03*
G04 #@! TD*
D47*
G04 #@! TO.P,J1,2*
G04 #@! TO.N,/IN*
X0000927559Y0001090551D03*
D48*
G04 #@! TO.P,J1,1*
G04 #@! TO.N,Earth*
X0001027559Y0001090551D03*
G04 #@! TD*
D47*
G04 #@! TO.P,J2,4*
G04 #@! TO.N,/RV_5*
X0001028346Y0001826771D03*
G04 #@! TO.P,J2,3*
G04 #@! TO.N,VCC*
X0000928346Y0001826771D03*
G04 #@! TO.P,J2,2*
G04 #@! TO.N,/Vref*
X0000828346Y0001826771D03*
D48*
G04 #@! TO.P,J2,1*
G04 #@! TO.N,Earth*
X0000728346Y0001826771D03*
G04 #@! TD*
D44*
G04 #@! TO.P,C6,1*
G04 #@! TO.N,Net-(C5-Pad1)*
X0000263779Y0001098425D03*
G04 #@! TO.P,C6,2*
G04 #@! TO.N,/RV_1*
X0000066929Y0001098425D03*
G04 #@! TD*
D49*
G04 #@! TO.N,Earth*
X0000527559Y0001137795D03*
X0000393700Y0001374015D03*
X0000393700Y0001685039D03*
G04 #@! TO.N,Net-(Q1-Pad2)*
X0000393700Y0001488188D03*
G04 #@! TD*
D50*
G04 #@! TO.N,Net-(C5-Pad1)*
X0000240157Y0001783464D02*
X0000271653Y0001814960D01*
X0000181102Y0001724409D02*
X0000240157Y0001783464D01*
X0000181102Y0001181102D02*
X0000181102Y0001724409D01*
X0000263779Y0001098425D02*
X0000181102Y0001181102D01*
G04 #@! TO.N,Net-(Q1-Pad2)*
X0000867716Y0001590551D02*
X0000765354Y0001488188D01*
X0000765354Y0001488188D02*
X0000393700Y0001488188D01*
G04 #@! TO.N,/RV_5*
X0000275590Y0001456692D02*
X0000279527Y0001456692D01*
X0000311023Y0001492125D02*
X0000321181Y0001492125D01*
X0000275590Y0001456692D02*
X0000311023Y0001492125D01*
X0000890551Y0001688976D02*
X0000994881Y0001793307D01*
X0000518031Y0001688976D02*
X0000890551Y0001688976D01*
X0000994881Y0001793307D02*
X0001028346Y0001826771D01*
X0000321181Y0001492125D02*
X0000518031Y0001688976D01*
G04 #@! TD*
D51*
G04 #@! TO.N,Earth*
G36*
X0001081692Y0001024606D02*
X0000020669Y0001024606D01*
X0000020669Y0001081507D01*
X0000025208Y0001070548D01*
X0000039052Y0001056704D01*
X0000057140Y0001049212D01*
X0000076718Y0001049212D01*
X0000094805Y0001056704D01*
X0000108649Y0001070548D01*
X0000116141Y0001088636D01*
X0000116141Y0001108214D01*
X0000108649Y0001126301D01*
X0000094805Y0001140145D01*
X0000076718Y0001147637D01*
X0000057140Y0001147637D01*
X0000039052Y0001140145D01*
X0000025208Y0001126301D01*
X0000020669Y0001115342D01*
X0000020669Y0001319627D01*
X0000025590Y0001319627D01*
X0000025590Y0001298482D01*
X0000033682Y0001278948D01*
X0000048633Y0001263997D01*
X0000068168Y0001255905D01*
X0000089312Y0001255905D01*
X0000108846Y0001263997D01*
X0000123798Y0001278948D01*
X0000131889Y0001298482D01*
X0000131889Y0001319627D01*
X0000123798Y0001339161D01*
X0000108846Y0001354113D01*
X0000089312Y0001362204D01*
X0000068168Y0001362204D01*
X0000048633Y0001354113D01*
X0000033682Y0001339161D01*
X0000025590Y0001319627D01*
X0000020669Y0001319627D01*
X0000020669Y0001467265D01*
X0000025590Y0001467265D01*
X0000025590Y0001446120D01*
X0000033682Y0001426586D01*
X0000048633Y0001411634D01*
X0000068168Y0001403543D01*
X0000089312Y0001403543D01*
X0000108846Y0001411634D01*
X0000123798Y0001426586D01*
X0000131889Y0001446120D01*
X0000131889Y0001467265D01*
X0000123798Y0001486799D01*
X0000108846Y0001501750D01*
X0000089312Y0001509842D01*
X0000068168Y0001509842D01*
X0000048633Y0001501750D01*
X0000033682Y0001486799D01*
X0000025590Y0001467265D01*
X0000020669Y0001467265D01*
X0000020669Y0001614902D01*
X0000025590Y0001614902D01*
X0000025590Y0001593758D01*
X0000033682Y0001574223D01*
X0000048633Y0001559272D01*
X0000068168Y0001551181D01*
X0000089312Y0001551181D01*
X0000108846Y0001559272D01*
X0000123798Y0001574223D01*
X0000131889Y0001593758D01*
X0000131889Y0001614902D01*
X0000123798Y0001634437D01*
X0000108846Y0001649388D01*
X0000089312Y0001657480D01*
X0000068168Y0001657480D01*
X0000048633Y0001649388D01*
X0000033682Y0001634437D01*
X0000025590Y0001614902D01*
X0000020669Y0001614902D01*
X0000020669Y0001724409D01*
X0000153003Y0001724409D01*
X0000153543Y0001721695D01*
X0000153543Y0001183816D01*
X0000153003Y0001181102D01*
X0000153543Y0001178388D01*
X0000153543Y0001178388D01*
X0000155142Y0001170349D01*
X0000161233Y0001161233D01*
X0000163534Y0001159695D01*
X0000214698Y0001108531D01*
X0000214566Y0001108214D01*
X0000214566Y0001088636D01*
X0000222059Y0001070548D01*
X0000235902Y0001056704D01*
X0000253990Y0001049212D01*
X0000273568Y0001049212D01*
X0000291656Y0001056704D01*
X0000305499Y0001070548D01*
X0000312992Y0001088636D01*
X0000312992Y0001090551D01*
X0000875375Y0001090551D01*
X0000879347Y0001070581D01*
X0000890659Y0001053651D01*
X0000907589Y0001042339D01*
X0000922518Y0001039370D01*
X0000932599Y0001039370D01*
X0000947528Y0001042339D01*
X0000964458Y0001053651D01*
X0000975770Y0001070581D01*
X0000976377Y0001073634D01*
X0000976377Y0001053562D01*
X0000979075Y0001047050D01*
X0000984058Y0001042067D01*
X0000990570Y0001039370D01*
X0001017224Y0001039370D01*
X0001021653Y0001043799D01*
X0001021653Y0001084645D01*
X0001033464Y0001084645D01*
X0001033464Y0001043799D01*
X0001037893Y0001039370D01*
X0001064547Y0001039370D01*
X0001071059Y0001042067D01*
X0001076042Y0001047050D01*
X0001078740Y0001053562D01*
X0001078740Y0001080216D01*
X0001074310Y0001084645D01*
X0001033464Y0001084645D01*
X0001021653Y0001084645D01*
X0001020866Y0001084645D01*
X0001020866Y0001096456D01*
X0001021653Y0001096456D01*
X0001021653Y0001137303D01*
X0001033464Y0001137303D01*
X0001033464Y0001096456D01*
X0001074310Y0001096456D01*
X0001078740Y0001100885D01*
X0001078740Y0001127539D01*
X0001076042Y0001134051D01*
X0001071059Y0001139035D01*
X0001064547Y0001141732D01*
X0001037893Y0001141732D01*
X0001033464Y0001137303D01*
X0001021653Y0001137303D01*
X0001017224Y0001141732D01*
X0000990570Y0001141732D01*
X0000984058Y0001139035D01*
X0000979075Y0001134051D01*
X0000976377Y0001127539D01*
X0000976377Y0001107467D01*
X0000975770Y0001110521D01*
X0000964458Y0001127450D01*
X0000947528Y0001138762D01*
X0000932599Y0001141732D01*
X0000922518Y0001141732D01*
X0000907589Y0001138762D01*
X0000890659Y0001127450D01*
X0000879347Y0001110521D01*
X0000875375Y0001090551D01*
X0000312992Y0001090551D01*
X0000312992Y0001108214D01*
X0000305499Y0001126301D01*
X0000291656Y0001140145D01*
X0000273568Y0001147637D01*
X0000253990Y0001147637D01*
X0000253672Y0001147506D01*
X0000208661Y0001192517D01*
X0000208661Y0001319627D01*
X0000222440Y0001319627D01*
X0000222440Y0001298482D01*
X0000230532Y0001278948D01*
X0000245483Y0001263997D01*
X0000265018Y0001255905D01*
X0000286162Y0001255905D01*
X0000305697Y0001263997D01*
X0000320648Y0001278948D01*
X0000328740Y0001298482D01*
X0000328740Y0001319627D01*
X0000320648Y0001339161D01*
X0000305697Y0001354113D01*
X0000286162Y0001362204D01*
X0000265018Y0001362204D01*
X0000245483Y0001354113D01*
X0000230532Y0001339161D01*
X0000222440Y0001319627D01*
X0000208661Y0001319627D01*
X0000208661Y0001467265D01*
X0000222440Y0001467265D01*
X0000222440Y0001446120D01*
X0000230532Y0001426586D01*
X0000245483Y0001411634D01*
X0000265018Y0001403543D01*
X0000286162Y0001403543D01*
X0000305697Y0001411634D01*
X0000320648Y0001426586D01*
X0000328740Y0001446120D01*
X0000328740Y0001465530D01*
X0000331934Y0001466165D01*
X0000341050Y0001472257D01*
X0000342587Y0001474558D01*
X0000365644Y0001497615D01*
X0000364173Y0001494062D01*
X0000364173Y0001482315D01*
X0000368668Y0001471462D01*
X0000376974Y0001463156D01*
X0000387827Y0001458661D01*
X0000399574Y0001458661D01*
X0000404326Y0001460629D01*
X0000762640Y0001460629D01*
X0000765354Y0001460090D01*
X0000768068Y0001460629D01*
X0000768068Y0001460629D01*
X0000776107Y0001462228D01*
X0000785223Y0001468320D01*
X0000786760Y0001470621D01*
X0000860627Y0001544488D01*
X0000876879Y0001544488D01*
X0000893809Y0001551500D01*
X0000906766Y0001564458D01*
X0000913779Y0001581388D01*
X0000913779Y0001599713D01*
X0000921653Y0001599713D01*
X0000921653Y0001581388D01*
X0000928666Y0001564458D01*
X0000941623Y0001551500D01*
X0000958554Y0001544488D01*
X0000976879Y0001544488D01*
X0000993809Y0001551500D01*
X0001006766Y0001564458D01*
X0001013779Y0001581388D01*
X0001013779Y0001599713D01*
X0001006766Y0001616643D01*
X0000993809Y0001629601D01*
X0000976879Y0001636614D01*
X0000958554Y0001636614D01*
X0000941623Y0001629601D01*
X0000928666Y0001616643D01*
X0000921653Y0001599713D01*
X0000913779Y0001599713D01*
X0000906766Y0001616643D01*
X0000893809Y0001629601D01*
X0000876879Y0001636614D01*
X0000858554Y0001636614D01*
X0000841623Y0001629601D01*
X0000828666Y0001616643D01*
X0000821653Y0001599713D01*
X0000821653Y0001583462D01*
X0000809678Y0001571487D01*
X0000813779Y0001581388D01*
X0000813779Y0001599713D01*
X0000806766Y0001616643D01*
X0000793809Y0001629601D01*
X0000776879Y0001636614D01*
X0000758553Y0001636614D01*
X0000741623Y0001629601D01*
X0000728666Y0001616643D01*
X0000721653Y0001599713D01*
X0000721653Y0001581388D01*
X0000728666Y0001564458D01*
X0000741623Y0001551500D01*
X0000758553Y0001544488D01*
X0000776879Y0001544488D01*
X0000786780Y0001548589D01*
X0000753939Y0001515748D01*
X0000404326Y0001515748D01*
X0000399574Y0001517716D01*
X0000387827Y0001517716D01*
X0000384274Y0001516244D01*
X0000529446Y0001661417D01*
X0000887837Y0001661417D01*
X0000890551Y0001660877D01*
X0000893265Y0001661417D01*
X0000893265Y0001661417D01*
X0000901304Y0001663016D01*
X0000910420Y0001669107D01*
X0000911957Y0001671408D01*
X0001016288Y0001775739D01*
X0001016288Y0001775739D01*
X0001017328Y0001776779D01*
X0001023305Y0001775590D01*
X0001033387Y0001775590D01*
X0001048316Y0001778560D01*
X0001065245Y0001789872D01*
X0001076557Y0001806801D01*
X0001080530Y0001826771D01*
X0001076557Y0001846741D01*
X0001065245Y0001863671D01*
X0001048316Y0001874983D01*
X0001033387Y0001877952D01*
X0001023305Y0001877952D01*
X0001008376Y0001874983D01*
X0000991446Y0001863671D01*
X0000980134Y0001846741D01*
X0000978346Y0001837750D01*
X0000976557Y0001846741D01*
X0000965245Y0001863671D01*
X0000948316Y0001874983D01*
X0000933387Y0001877952D01*
X0000923305Y0001877952D01*
X0000908376Y0001874983D01*
X0000891446Y0001863671D01*
X0000880134Y0001846741D01*
X0000878346Y0001837750D01*
X0000876557Y0001846741D01*
X0000865245Y0001863671D01*
X0000848316Y0001874983D01*
X0000833387Y0001877952D01*
X0000823305Y0001877952D01*
X0000808376Y0001874983D01*
X0000791446Y0001863671D01*
X0000780134Y0001846741D01*
X0000779527Y0001843688D01*
X0000779527Y0001863760D01*
X0000776830Y0001870271D01*
X0000771846Y0001875255D01*
X0000765335Y0001877952D01*
X0000738681Y0001877952D01*
X0000734251Y0001873523D01*
X0000734251Y0001832677D01*
X0000735039Y0001832677D01*
X0000735039Y0001820866D01*
X0000734251Y0001820866D01*
X0000734251Y0001780019D01*
X0000738681Y0001775590D01*
X0000765335Y0001775590D01*
X0000771846Y0001778287D01*
X0000776830Y0001783271D01*
X0000779527Y0001789782D01*
X0000779527Y0001809855D01*
X0000780134Y0001806801D01*
X0000791446Y0001789872D01*
X0000808376Y0001778560D01*
X0000823305Y0001775590D01*
X0000833387Y0001775590D01*
X0000848316Y0001778560D01*
X0000865245Y0001789872D01*
X0000876557Y0001806801D01*
X0000878346Y0001815793D01*
X0000880134Y0001806801D01*
X0000891446Y0001789872D01*
X0000908376Y0001778560D01*
X0000923305Y0001775590D01*
X0000933387Y0001775590D01*
X0000939383Y0001776783D01*
X0000879135Y0001716535D01*
X0000520745Y0001716535D01*
X0000518031Y0001717075D01*
X0000515317Y0001716535D01*
X0000515317Y0001716535D01*
X0000507278Y0001714936D01*
X0000498162Y0001708845D01*
X0000496625Y0001706544D01*
X0000310127Y0001520046D01*
X0000308309Y0001519685D01*
X0000308309Y0001519685D01*
X0000300270Y0001518085D01*
X0000291154Y0001511994D01*
X0000289617Y0001509693D01*
X0000288710Y0001508787D01*
X0000286162Y0001509842D01*
X0000265018Y0001509842D01*
X0000245483Y0001501750D01*
X0000230532Y0001486799D01*
X0000222440Y0001467265D01*
X0000208661Y0001467265D01*
X0000208661Y0001614902D01*
X0000222440Y0001614902D01*
X0000222440Y0001593758D01*
X0000230532Y0001574223D01*
X0000245483Y0001559272D01*
X0000265018Y0001551181D01*
X0000286162Y0001551181D01*
X0000305697Y0001559272D01*
X0000320648Y0001574223D01*
X0000328740Y0001593758D01*
X0000328740Y0001614902D01*
X0000320648Y0001634437D01*
X0000305697Y0001649388D01*
X0000286162Y0001657480D01*
X0000265018Y0001657480D01*
X0000245483Y0001649388D01*
X0000230532Y0001634437D01*
X0000222440Y0001614902D01*
X0000208661Y0001614902D01*
X0000208661Y0001712994D01*
X0000261546Y0001765879D01*
X0000261864Y0001765747D01*
X0000281442Y0001765747D01*
X0000299530Y0001773240D01*
X0000313373Y0001787083D01*
X0000320866Y0001805171D01*
X0000320866Y0001816437D01*
X0000677165Y0001816437D01*
X0000677165Y0001789782D01*
X0000679862Y0001783271D01*
X0000684846Y0001778287D01*
X0000691357Y0001775590D01*
X0000718011Y0001775590D01*
X0000722440Y0001780019D01*
X0000722440Y0001820866D01*
X0000681594Y0001820866D01*
X0000677165Y0001816437D01*
X0000320866Y0001816437D01*
X0000320866Y0001824749D01*
X0000313373Y0001842837D01*
X0000299530Y0001856681D01*
X0000282439Y0001863760D01*
X0000677165Y0001863760D01*
X0000677165Y0001837106D01*
X0000681594Y0001832677D01*
X0000722440Y0001832677D01*
X0000722440Y0001873523D01*
X0000718011Y0001877952D01*
X0000691357Y0001877952D01*
X0000684846Y0001875255D01*
X0000679862Y0001870271D01*
X0000677165Y0001863760D01*
X0000282439Y0001863760D01*
X0000281442Y0001864173D01*
X0000261864Y0001864173D01*
X0000243776Y0001856681D01*
X0000229933Y0001842837D01*
X0000222440Y0001824749D01*
X0000222440Y0001805171D01*
X0000222572Y0001804853D01*
X0000163534Y0001745815D01*
X0000161233Y0001744278D01*
X0000159695Y0001741977D01*
X0000155142Y0001735162D01*
X0000153003Y0001724409D01*
X0000020669Y0001724409D01*
X0000020669Y0001824749D01*
X0000025590Y0001824749D01*
X0000025590Y0001805171D01*
X0000033082Y0001787083D01*
X0000046926Y0001773240D01*
X0000065014Y0001765747D01*
X0000084592Y0001765747D01*
X0000102679Y0001773240D01*
X0000116523Y0001787083D01*
X0000124015Y0001805171D01*
X0000124015Y0001824749D01*
X0000116523Y0001842837D01*
X0000102679Y0001856681D01*
X0000084592Y0001864173D01*
X0000065014Y0001864173D01*
X0000046926Y0001856681D01*
X0000033082Y0001842837D01*
X0000025590Y0001824749D01*
X0000020669Y0001824749D01*
X0000020669Y0001888779D01*
X0001081692Y0001888779D01*
X0001081692Y0001024606D01*
X0001081692Y0001024606D01*
G37*
X0001081692Y0001024606D02*
X0000020669Y0001024606D01*
X0000020669Y0001081507D01*
X0000025208Y0001070548D01*
X0000039052Y0001056704D01*
X0000057140Y0001049212D01*
X0000076718Y0001049212D01*
X0000094805Y0001056704D01*
X0000108649Y0001070548D01*
X0000116141Y0001088636D01*
X0000116141Y0001108214D01*
X0000108649Y0001126301D01*
X0000094805Y0001140145D01*
X0000076718Y0001147637D01*
X0000057140Y0001147637D01*
X0000039052Y0001140145D01*
X0000025208Y0001126301D01*
X0000020669Y0001115342D01*
X0000020669Y0001319627D01*
X0000025590Y0001319627D01*
X0000025590Y0001298482D01*
X0000033682Y0001278948D01*
X0000048633Y0001263997D01*
X0000068168Y0001255905D01*
X0000089312Y0001255905D01*
X0000108846Y0001263997D01*
X0000123798Y0001278948D01*
X0000131889Y0001298482D01*
X0000131889Y0001319627D01*
X0000123798Y0001339161D01*
X0000108846Y0001354113D01*
X0000089312Y0001362204D01*
X0000068168Y0001362204D01*
X0000048633Y0001354113D01*
X0000033682Y0001339161D01*
X0000025590Y0001319627D01*
X0000020669Y0001319627D01*
X0000020669Y0001467265D01*
X0000025590Y0001467265D01*
X0000025590Y0001446120D01*
X0000033682Y0001426586D01*
X0000048633Y0001411634D01*
X0000068168Y0001403543D01*
X0000089312Y0001403543D01*
X0000108846Y0001411634D01*
X0000123798Y0001426586D01*
X0000131889Y0001446120D01*
X0000131889Y0001467265D01*
X0000123798Y0001486799D01*
X0000108846Y0001501750D01*
X0000089312Y0001509842D01*
X0000068168Y0001509842D01*
X0000048633Y0001501750D01*
X0000033682Y0001486799D01*
X0000025590Y0001467265D01*
X0000020669Y0001467265D01*
X0000020669Y0001614902D01*
X0000025590Y0001614902D01*
X0000025590Y0001593758D01*
X0000033682Y0001574223D01*
X0000048633Y0001559272D01*
X0000068168Y0001551181D01*
X0000089312Y0001551181D01*
X0000108846Y0001559272D01*
X0000123798Y0001574223D01*
X0000131889Y0001593758D01*
X0000131889Y0001614902D01*
X0000123798Y0001634437D01*
X0000108846Y0001649388D01*
X0000089312Y0001657480D01*
X0000068168Y0001657480D01*
X0000048633Y0001649388D01*
X0000033682Y0001634437D01*
X0000025590Y0001614902D01*
X0000020669Y0001614902D01*
X0000020669Y0001724409D01*
X0000153003Y0001724409D01*
X0000153543Y0001721695D01*
X0000153543Y0001183816D01*
X0000153003Y0001181102D01*
X0000153543Y0001178388D01*
X0000153543Y0001178388D01*
X0000155142Y0001170349D01*
X0000161233Y0001161233D01*
X0000163534Y0001159695D01*
X0000214698Y0001108531D01*
X0000214566Y0001108214D01*
X0000214566Y0001088636D01*
X0000222059Y0001070548D01*
X0000235902Y0001056704D01*
X0000253990Y0001049212D01*
X0000273568Y0001049212D01*
X0000291656Y0001056704D01*
X0000305499Y0001070548D01*
X0000312992Y0001088636D01*
X0000312992Y0001090551D01*
X0000875375Y0001090551D01*
X0000879347Y0001070581D01*
X0000890659Y0001053651D01*
X0000907589Y0001042339D01*
X0000922518Y0001039370D01*
X0000932599Y0001039370D01*
X0000947528Y0001042339D01*
X0000964458Y0001053651D01*
X0000975770Y0001070581D01*
X0000976377Y0001073634D01*
X0000976377Y0001053562D01*
X0000979075Y0001047050D01*
X0000984058Y0001042067D01*
X0000990570Y0001039370D01*
X0001017224Y0001039370D01*
X0001021653Y0001043799D01*
X0001021653Y0001084645D01*
X0001033464Y0001084645D01*
X0001033464Y0001043799D01*
X0001037893Y0001039370D01*
X0001064547Y0001039370D01*
X0001071059Y0001042067D01*
X0001076042Y0001047050D01*
X0001078740Y0001053562D01*
X0001078740Y0001080216D01*
X0001074310Y0001084645D01*
X0001033464Y0001084645D01*
X0001021653Y0001084645D01*
X0001020866Y0001084645D01*
X0001020866Y0001096456D01*
X0001021653Y0001096456D01*
X0001021653Y0001137303D01*
X0001033464Y0001137303D01*
X0001033464Y0001096456D01*
X0001074310Y0001096456D01*
X0001078740Y0001100885D01*
X0001078740Y0001127539D01*
X0001076042Y0001134051D01*
X0001071059Y0001139035D01*
X0001064547Y0001141732D01*
X0001037893Y0001141732D01*
X0001033464Y0001137303D01*
X0001021653Y0001137303D01*
X0001017224Y0001141732D01*
X0000990570Y0001141732D01*
X0000984058Y0001139035D01*
X0000979075Y0001134051D01*
X0000976377Y0001127539D01*
X0000976377Y0001107467D01*
X0000975770Y0001110521D01*
X0000964458Y0001127450D01*
X0000947528Y0001138762D01*
X0000932599Y0001141732D01*
X0000922518Y0001141732D01*
X0000907589Y0001138762D01*
X0000890659Y0001127450D01*
X0000879347Y0001110521D01*
X0000875375Y0001090551D01*
X0000312992Y0001090551D01*
X0000312992Y0001108214D01*
X0000305499Y0001126301D01*
X0000291656Y0001140145D01*
X0000273568Y0001147637D01*
X0000253990Y0001147637D01*
X0000253672Y0001147506D01*
X0000208661Y0001192517D01*
X0000208661Y0001319627D01*
X0000222440Y0001319627D01*
X0000222440Y0001298482D01*
X0000230532Y0001278948D01*
X0000245483Y0001263997D01*
X0000265018Y0001255905D01*
X0000286162Y0001255905D01*
X0000305697Y0001263997D01*
X0000320648Y0001278948D01*
X0000328740Y0001298482D01*
X0000328740Y0001319627D01*
X0000320648Y0001339161D01*
X0000305697Y0001354113D01*
X0000286162Y0001362204D01*
X0000265018Y0001362204D01*
X0000245483Y0001354113D01*
X0000230532Y0001339161D01*
X0000222440Y0001319627D01*
X0000208661Y0001319627D01*
X0000208661Y0001467265D01*
X0000222440Y0001467265D01*
X0000222440Y0001446120D01*
X0000230532Y0001426586D01*
X0000245483Y0001411634D01*
X0000265018Y0001403543D01*
X0000286162Y0001403543D01*
X0000305697Y0001411634D01*
X0000320648Y0001426586D01*
X0000328740Y0001446120D01*
X0000328740Y0001465530D01*
X0000331934Y0001466165D01*
X0000341050Y0001472257D01*
X0000342587Y0001474558D01*
X0000365644Y0001497615D01*
X0000364173Y0001494062D01*
X0000364173Y0001482315D01*
X0000368668Y0001471462D01*
X0000376974Y0001463156D01*
X0000387827Y0001458661D01*
X0000399574Y0001458661D01*
X0000404326Y0001460629D01*
X0000762640Y0001460629D01*
X0000765354Y0001460090D01*
X0000768068Y0001460629D01*
X0000768068Y0001460629D01*
X0000776107Y0001462228D01*
X0000785223Y0001468320D01*
X0000786760Y0001470621D01*
X0000860627Y0001544488D01*
X0000876879Y0001544488D01*
X0000893809Y0001551500D01*
X0000906766Y0001564458D01*
X0000913779Y0001581388D01*
X0000913779Y0001599713D01*
X0000921653Y0001599713D01*
X0000921653Y0001581388D01*
X0000928666Y0001564458D01*
X0000941623Y0001551500D01*
X0000958554Y0001544488D01*
X0000976879Y0001544488D01*
X0000993809Y0001551500D01*
X0001006766Y0001564458D01*
X0001013779Y0001581388D01*
X0001013779Y0001599713D01*
X0001006766Y0001616643D01*
X0000993809Y0001629601D01*
X0000976879Y0001636614D01*
X0000958554Y0001636614D01*
X0000941623Y0001629601D01*
X0000928666Y0001616643D01*
X0000921653Y0001599713D01*
X0000913779Y0001599713D01*
X0000906766Y0001616643D01*
X0000893809Y0001629601D01*
X0000876879Y0001636614D01*
X0000858554Y0001636614D01*
X0000841623Y0001629601D01*
X0000828666Y0001616643D01*
X0000821653Y0001599713D01*
X0000821653Y0001583462D01*
X0000809678Y0001571487D01*
X0000813779Y0001581388D01*
X0000813779Y0001599713D01*
X0000806766Y0001616643D01*
X0000793809Y0001629601D01*
X0000776879Y0001636614D01*
X0000758553Y0001636614D01*
X0000741623Y0001629601D01*
X0000728666Y0001616643D01*
X0000721653Y0001599713D01*
X0000721653Y0001581388D01*
X0000728666Y0001564458D01*
X0000741623Y0001551500D01*
X0000758553Y0001544488D01*
X0000776879Y0001544488D01*
X0000786780Y0001548589D01*
X0000753939Y0001515748D01*
X0000404326Y0001515748D01*
X0000399574Y0001517716D01*
X0000387827Y0001517716D01*
X0000384274Y0001516244D01*
X0000529446Y0001661417D01*
X0000887837Y0001661417D01*
X0000890551Y0001660877D01*
X0000893265Y0001661417D01*
X0000893265Y0001661417D01*
X0000901304Y0001663016D01*
X0000910420Y0001669107D01*
X0000911957Y0001671408D01*
X0001016288Y0001775739D01*
X0001016288Y0001775739D01*
X0001017328Y0001776779D01*
X0001023305Y0001775590D01*
X0001033387Y0001775590D01*
X0001048316Y0001778560D01*
X0001065245Y0001789872D01*
X0001076557Y0001806801D01*
X0001080530Y0001826771D01*
X0001076557Y0001846741D01*
X0001065245Y0001863671D01*
X0001048316Y0001874983D01*
X0001033387Y0001877952D01*
X0001023305Y0001877952D01*
X0001008376Y0001874983D01*
X0000991446Y0001863671D01*
X0000980134Y0001846741D01*
X0000978346Y0001837750D01*
X0000976557Y0001846741D01*
X0000965245Y0001863671D01*
X0000948316Y0001874983D01*
X0000933387Y0001877952D01*
X0000923305Y0001877952D01*
X0000908376Y0001874983D01*
X0000891446Y0001863671D01*
X0000880134Y0001846741D01*
X0000878346Y0001837750D01*
X0000876557Y0001846741D01*
X0000865245Y0001863671D01*
X0000848316Y0001874983D01*
X0000833387Y0001877952D01*
X0000823305Y0001877952D01*
X0000808376Y0001874983D01*
X0000791446Y0001863671D01*
X0000780134Y0001846741D01*
X0000779527Y0001843688D01*
X0000779527Y0001863760D01*
X0000776830Y0001870271D01*
X0000771846Y0001875255D01*
X0000765335Y0001877952D01*
X0000738681Y0001877952D01*
X0000734251Y0001873523D01*
X0000734251Y0001832677D01*
X0000735039Y0001832677D01*
X0000735039Y0001820866D01*
X0000734251Y0001820866D01*
X0000734251Y0001780019D01*
X0000738681Y0001775590D01*
X0000765335Y0001775590D01*
X0000771846Y0001778287D01*
X0000776830Y0001783271D01*
X0000779527Y0001789782D01*
X0000779527Y0001809855D01*
X0000780134Y0001806801D01*
X0000791446Y0001789872D01*
X0000808376Y0001778560D01*
X0000823305Y0001775590D01*
X0000833387Y0001775590D01*
X0000848316Y0001778560D01*
X0000865245Y0001789872D01*
X0000876557Y0001806801D01*
X0000878346Y0001815793D01*
X0000880134Y0001806801D01*
X0000891446Y0001789872D01*
X0000908376Y0001778560D01*
X0000923305Y0001775590D01*
X0000933387Y0001775590D01*
X0000939383Y0001776783D01*
X0000879135Y0001716535D01*
X0000520745Y0001716535D01*
X0000518031Y0001717075D01*
X0000515317Y0001716535D01*
X0000515317Y0001716535D01*
X0000507278Y0001714936D01*
X0000498162Y0001708845D01*
X0000496625Y0001706544D01*
X0000310127Y0001520046D01*
X0000308309Y0001519685D01*
X0000308309Y0001519685D01*
X0000300270Y0001518085D01*
X0000291154Y0001511994D01*
X0000289617Y0001509693D01*
X0000288710Y0001508787D01*
X0000286162Y0001509842D01*
X0000265018Y0001509842D01*
X0000245483Y0001501750D01*
X0000230532Y0001486799D01*
X0000222440Y0001467265D01*
X0000208661Y0001467265D01*
X0000208661Y0001614902D01*
X0000222440Y0001614902D01*
X0000222440Y0001593758D01*
X0000230532Y0001574223D01*
X0000245483Y0001559272D01*
X0000265018Y0001551181D01*
X0000286162Y0001551181D01*
X0000305697Y0001559272D01*
X0000320648Y0001574223D01*
X0000328740Y0001593758D01*
X0000328740Y0001614902D01*
X0000320648Y0001634437D01*
X0000305697Y0001649388D01*
X0000286162Y0001657480D01*
X0000265018Y0001657480D01*
X0000245483Y0001649388D01*
X0000230532Y0001634437D01*
X0000222440Y0001614902D01*
X0000208661Y0001614902D01*
X0000208661Y0001712994D01*
X0000261546Y0001765879D01*
X0000261864Y0001765747D01*
X0000281442Y0001765747D01*
X0000299530Y0001773240D01*
X0000313373Y0001787083D01*
X0000320866Y0001805171D01*
X0000320866Y0001816437D01*
X0000677165Y0001816437D01*
X0000677165Y0001789782D01*
X0000679862Y0001783271D01*
X0000684846Y0001778287D01*
X0000691357Y0001775590D01*
X0000718011Y0001775590D01*
X0000722440Y0001780019D01*
X0000722440Y0001820866D01*
X0000681594Y0001820866D01*
X0000677165Y0001816437D01*
X0000320866Y0001816437D01*
X0000320866Y0001824749D01*
X0000313373Y0001842837D01*
X0000299530Y0001856681D01*
X0000282439Y0001863760D01*
X0000677165Y0001863760D01*
X0000677165Y0001837106D01*
X0000681594Y0001832677D01*
X0000722440Y0001832677D01*
X0000722440Y0001873523D01*
X0000718011Y0001877952D01*
X0000691357Y0001877952D01*
X0000684846Y0001875255D01*
X0000679862Y0001870271D01*
X0000677165Y0001863760D01*
X0000282439Y0001863760D01*
X0000281442Y0001864173D01*
X0000261864Y0001864173D01*
X0000243776Y0001856681D01*
X0000229933Y0001842837D01*
X0000222440Y0001824749D01*
X0000222440Y0001805171D01*
X0000222572Y0001804853D01*
X0000163534Y0001745815D01*
X0000161233Y0001744278D01*
X0000159695Y0001741977D01*
X0000155142Y0001735162D01*
X0000153003Y0001724409D01*
X0000020669Y0001724409D01*
X0000020669Y0001824749D01*
X0000025590Y0001824749D01*
X0000025590Y0001805171D01*
X0000033082Y0001787083D01*
X0000046926Y0001773240D01*
X0000065014Y0001765747D01*
X0000084592Y0001765747D01*
X0000102679Y0001773240D01*
X0000116523Y0001787083D01*
X0000124015Y0001805171D01*
X0000124015Y0001824749D01*
X0000116523Y0001842837D01*
X0000102679Y0001856681D01*
X0000084592Y0001864173D01*
X0000065014Y0001864173D01*
X0000046926Y0001856681D01*
X0000033082Y0001842837D01*
X0000025590Y0001824749D01*
X0000020669Y0001824749D01*
X0000020669Y0001888779D01*
X0001081692Y0001888779D01*
X0001081692Y0001024606D01*
G04 #@! TD*
M02*