%MOIN*%
%OFA0B0*%
%FSLAX46Y46*%
%IPPOS*%
%LPD*%
%ADD10C,0.0039370078740157488*%
%ADD11C,0.062992125984251982*%
%ADD12C,0.070866141732283464*%
%ADD13C,0.056692913385826771*%
%ADD14O,0.066929133858267723X0.066929133858267723*%
%ADD15R,0.066929133858267723X0.066929133858267723*%
%ADD16C,0.023622047244094488*%
%ADD17C,0.011811023622047244*%
%ADD18C,0.01968503937007874*%
%ADD29C,0.0039370078740157488*%
%ADD30C,0.062992125984251982*%
%ADD31C,0.070866141732283464*%
%ADD32C,0.056692913385826771*%
%ADD33O,0.066929133858267723X0.066929133858267723*%
%ADD34R,0.066929133858267723X0.066929133858267723*%
%ADD35C,0.023622047244094488*%
%ADD36C,0.011811023622047244*%
%ADD37C,0.01968503937007874*%
%ADD38C,0.0039370078740157488*%
%ADD39C,0.062992125984251982*%
%ADD40C,0.070866141732283464*%
%ADD41C,0.056692913385826771*%
%ADD42O,0.066929133858267723X0.066929133858267723*%
%ADD43R,0.066929133858267723X0.066929133858267723*%
%ADD44C,0.023622047244094488*%
%ADD45C,0.011811023622047244*%
%ADD46C,0.01968503937007874*%
%ADD47C,0.0039370078740157488*%
%ADD48C,0.062992125984251982*%
%ADD49C,0.070866141732283464*%
%ADD50C,0.056692913385826771*%
%ADD51O,0.066929133858267723X0.066929133858267723*%
%ADD52R,0.066929133858267723X0.066929133858267723*%
%ADD53C,0.023622047244094488*%
%ADD54C,0.011811023622047244*%
%ADD55C,0.01968503937007874*%
G01G01*
D10*
D11*
X-0005393700Y0004251968D02*
X0000074803Y0000811023D03*
X0000271653Y0000811023D03*
D12*
X0000078740Y0000600393D03*
X0000078740Y0000452755D03*
X0000078740Y0000305118D03*
X0000275590Y0000600393D03*
X0000275590Y0000452755D03*
X0000275590Y0000305118D03*
D13*
X0000767716Y0000586614D03*
X0000867716Y0000586614D03*
X0000967716Y0000586614D03*
D14*
X0000927559Y0000086614D03*
D15*
X0001027559Y0000086614D03*
D14*
X0001028346Y0000822834D03*
X0000928346Y0000822834D03*
X0000828346Y0000822834D03*
D15*
X0000728346Y0000822834D03*
D11*
X0000271653Y0000094488D03*
X0000074803Y0000094488D03*
X0000566929Y0000830708D03*
X0000370078Y0000830708D03*
D16*
X0000527559Y0000133858D03*
X0000393700Y0000370078D03*
X0000393700Y0000681102D03*
X0000448818Y0000484251D03*
D17*
X0000275590Y0000600393D02*
X0000275590Y0000716535D01*
X0000275590Y0000716535D02*
X0000370078Y0000811023D01*
D18*
X0000271653Y0000094488D02*
X0000263779Y0000094488D01*
X0000263779Y0000094488D02*
X0000181102Y0000177165D01*
X0000240157Y0000779527D02*
X0000271653Y0000811023D01*
X0000181102Y0000720472D02*
X0000240157Y0000779527D01*
X0000181102Y0000177165D02*
X0000181102Y0000720472D01*
X0000465522Y0000484251D02*
X0000448818Y0000484251D01*
X0000765354Y0000484251D02*
X0000465522Y0000484251D01*
X0000867716Y0000586614D02*
X0000765354Y0000484251D01*
X0000275590Y0000452755D02*
X0000507874Y0000685039D01*
X0000507874Y0000685039D02*
X0000890551Y0000685039D01*
X0000890551Y0000685039D02*
X0000994881Y0000789370D01*
X0000994881Y0000789370D02*
X0001028346Y0000822834D01*
X0000275590Y0000452755D02*
X0000279527Y0000452755D01*
D17*
G36*
X0001081692Y0000020669D02*
X0000020669Y0000020669D01*
X0000020669Y0000084742D01*
X0000025582Y0000084742D01*
X0000033058Y0000066647D01*
X0000046890Y0000052792D01*
X0000064971Y0000045284D01*
X0000084549Y0000045267D01*
X0000102643Y0000052743D01*
X0000116499Y0000066575D01*
X0000124007Y0000084656D01*
X0000124024Y0000104234D01*
X0000116547Y0000122328D01*
X0000102716Y0000136184D01*
X0000084635Y0000143692D01*
X0000065057Y0000143709D01*
X0000046962Y0000136232D01*
X0000033107Y0000122401D01*
X0000025599Y0000104320D01*
X0000025582Y0000084742D01*
X0000020669Y0000084742D01*
X0000020669Y0000294592D01*
X0000025581Y0000294592D01*
X0000033655Y0000275050D01*
X0000048593Y0000260086D01*
X0000068121Y0000251977D01*
X0000089265Y0000251959D01*
X0000108807Y0000260033D01*
X0000123771Y0000274971D01*
X0000131880Y0000294499D01*
X0000131898Y0000315643D01*
X0000123824Y0000335185D01*
X0000108886Y0000350149D01*
X0000089358Y0000358258D01*
X0000068214Y0000358276D01*
X0000048672Y0000350202D01*
X0000033708Y0000335264D01*
X0000025599Y0000315736D01*
X0000025581Y0000294592D01*
X0000020669Y0000294592D01*
X0000020669Y0000442230D01*
X0000025581Y0000442230D01*
X0000033655Y0000422688D01*
X0000048593Y0000407724D01*
X0000068121Y0000399615D01*
X0000089265Y0000399597D01*
X0000108807Y0000407671D01*
X0000123771Y0000422609D01*
X0000131880Y0000442137D01*
X0000131898Y0000463281D01*
X0000123824Y0000482823D01*
X0000108886Y0000497787D01*
X0000089358Y0000505896D01*
X0000068214Y0000505914D01*
X0000048672Y0000497840D01*
X0000033708Y0000482902D01*
X0000025599Y0000463374D01*
X0000025581Y0000442230D01*
X0000020669Y0000442230D01*
X0000020669Y0000589867D01*
X0000025581Y0000589867D01*
X0000033655Y0000570326D01*
X0000048593Y0000555361D01*
X0000068121Y0000547253D01*
X0000089265Y0000547234D01*
X0000108807Y0000555309D01*
X0000123771Y0000570247D01*
X0000131880Y0000589775D01*
X0000131898Y0000610919D01*
X0000123824Y0000630461D01*
X0000108886Y0000645425D01*
X0000089358Y0000653534D01*
X0000068214Y0000653552D01*
X0000048672Y0000645478D01*
X0000033708Y0000630539D01*
X0000025599Y0000611012D01*
X0000025581Y0000589867D01*
X0000020669Y0000589867D01*
X0000020669Y0000720472D01*
X0000153543Y0000720472D01*
X0000153543Y0000177165D01*
X0000155641Y0000166618D01*
X0000161615Y0000157678D01*
X0000222442Y0000096850D01*
X0000222432Y0000084742D01*
X0000229908Y0000066647D01*
X0000243740Y0000052792D01*
X0000261821Y0000045284D01*
X0000281399Y0000045267D01*
X0000299493Y0000052743D01*
X0000313349Y0000066575D01*
X0000320857Y0000084656D01*
X0000320860Y0000087616D01*
X0000876377Y0000087616D01*
X0000876377Y0000085611D01*
X0000880273Y0000066025D01*
X0000891368Y0000049420D01*
X0000907972Y0000038326D01*
X0000927559Y0000034430D01*
X0000947145Y0000038326D01*
X0000963749Y0000049420D01*
X0000974844Y0000066025D01*
X0000976377Y0000073735D01*
X0000976377Y0000049625D01*
X0000979075Y0000043113D01*
X0000984058Y0000038130D01*
X0000990570Y0000035433D01*
X0001017224Y0000035433D01*
X0001021653Y0000039862D01*
X0001021653Y0000080708D01*
X0001033464Y0000080708D01*
X0001033464Y0000039862D01*
X0001037893Y0000035433D01*
X0001064547Y0000035433D01*
X0001071059Y0000038130D01*
X0001076042Y0000043113D01*
X0001078740Y0000049625D01*
X0001078740Y0000076279D01*
X0001074310Y0000080708D01*
X0001033464Y0000080708D01*
X0001021653Y0000080708D01*
X0001020866Y0000080708D01*
X0001020866Y0000092519D01*
X0001021653Y0000092519D01*
X0001021653Y0000133366D01*
X0001033464Y0000133366D01*
X0001033464Y0000092519D01*
X0001074310Y0000092519D01*
X0001078740Y0000096948D01*
X0001078740Y0000123602D01*
X0001076042Y0000130114D01*
X0001071059Y0000135098D01*
X0001064547Y0000137795D01*
X0001037893Y0000137795D01*
X0001033464Y0000133366D01*
X0001021653Y0000133366D01*
X0001017224Y0000137795D01*
X0000990570Y0000137795D01*
X0000984058Y0000135098D01*
X0000979075Y0000130114D01*
X0000976377Y0000123602D01*
X0000976377Y0000099492D01*
X0000974844Y0000107202D01*
X0000963749Y0000123807D01*
X0000947145Y0000134902D01*
X0000927559Y0000138797D01*
X0000907972Y0000134902D01*
X0000891368Y0000123807D01*
X0000880273Y0000107202D01*
X0000876377Y0000087616D01*
X0000320860Y0000087616D01*
X0000320874Y0000104234D01*
X0000313398Y0000122328D01*
X0000299566Y0000136184D01*
X0000281485Y0000143692D01*
X0000261907Y0000143709D01*
X0000255981Y0000141260D01*
X0000208661Y0000188580D01*
X0000208661Y0000294592D01*
X0000222431Y0000294592D01*
X0000230506Y0000275050D01*
X0000245444Y0000260086D01*
X0000264972Y0000251977D01*
X0000286116Y0000251959D01*
X0000305658Y0000260033D01*
X0000320622Y0000274971D01*
X0000328730Y0000294499D01*
X0000328749Y0000315643D01*
X0000320674Y0000335185D01*
X0000305736Y0000350149D01*
X0000286209Y0000358258D01*
X0000265064Y0000358276D01*
X0000245523Y0000350202D01*
X0000230558Y0000335264D01*
X0000222450Y0000315736D01*
X0000222431Y0000294592D01*
X0000208661Y0000294592D01*
X0000208661Y0000442230D01*
X0000222431Y0000442230D01*
X0000230506Y0000422688D01*
X0000245444Y0000407724D01*
X0000264972Y0000399615D01*
X0000286116Y0000399597D01*
X0000305658Y0000407671D01*
X0000320622Y0000422609D01*
X0000328730Y0000442137D01*
X0000328749Y0000463281D01*
X0000327679Y0000465870D01*
X0000340213Y0000478404D01*
X0000419286Y0000478404D01*
X0000423772Y0000467547D01*
X0000432071Y0000459234D01*
X0000442919Y0000454729D01*
X0000454666Y0000454719D01*
X0000459442Y0000456692D01*
X0000765354Y0000456692D01*
X0000775900Y0000458790D01*
X0000784841Y0000464764D01*
X0000860634Y0000540557D01*
X0000876838Y0000540543D01*
X0000893775Y0000547541D01*
X0000906744Y0000560487D01*
X0000913771Y0000577411D01*
X0000913771Y0000577491D01*
X0000921645Y0000577491D01*
X0000928643Y0000560555D01*
X0000941589Y0000547586D01*
X0000958513Y0000540559D01*
X0000976838Y0000540543D01*
X0000993775Y0000547541D01*
X0001006744Y0000560487D01*
X0001013771Y0000577411D01*
X0001013787Y0000595736D01*
X0001006789Y0000612672D01*
X0000993843Y0000625641D01*
X0000976919Y0000632669D01*
X0000958594Y0000632685D01*
X0000941658Y0000625687D01*
X0000928688Y0000612740D01*
X0000921661Y0000595816D01*
X0000921645Y0000577491D01*
X0000913771Y0000577491D01*
X0000913787Y0000595736D01*
X0000906789Y0000612672D01*
X0000893843Y0000625641D01*
X0000876919Y0000632669D01*
X0000858594Y0000632685D01*
X0000841658Y0000625687D01*
X0000828688Y0000612740D01*
X0000821661Y0000595816D01*
X0000821647Y0000579519D01*
X0000809675Y0000567547D01*
X0000813771Y0000577411D01*
X0000813787Y0000595736D01*
X0000806789Y0000612672D01*
X0000793843Y0000625641D01*
X0000776919Y0000632669D01*
X0000758594Y0000632685D01*
X0000741657Y0000625687D01*
X0000728688Y0000612740D01*
X0000721661Y0000595816D01*
X0000721645Y0000577491D01*
X0000728643Y0000560555D01*
X0000741589Y0000547586D01*
X0000758513Y0000540559D01*
X0000776838Y0000540543D01*
X0000786777Y0000544649D01*
X0000753938Y0000511811D01*
X0000459446Y0000511811D01*
X0000454718Y0000513774D01*
X0000442971Y0000513784D01*
X0000432114Y0000509298D01*
X0000423801Y0000500999D01*
X0000419296Y0000490151D01*
X0000419286Y0000478404D01*
X0000340213Y0000478404D01*
X0000519289Y0000657480D01*
X0000890551Y0000657480D01*
X0000901097Y0000659578D01*
X0000910038Y0000665552D01*
X0001014368Y0000769882D01*
X0001014369Y0000769882D01*
X0001017328Y0000772842D01*
X0001028346Y0000770650D01*
X0001047932Y0000774546D01*
X0001064536Y0000785641D01*
X0001075631Y0000802245D01*
X0001079527Y0000821831D01*
X0001079527Y0000823837D01*
X0001075631Y0000843423D01*
X0001064536Y0000860027D01*
X0001047932Y0000871122D01*
X0001028346Y0000875018D01*
X0001008760Y0000871122D01*
X0000992155Y0000860027D01*
X0000981061Y0000843423D01*
X0000978346Y0000829775D01*
X0000975631Y0000843423D01*
X0000964536Y0000860027D01*
X0000947932Y0000871122D01*
X0000928346Y0000875018D01*
X0000908760Y0000871122D01*
X0000892155Y0000860027D01*
X0000881061Y0000843423D01*
X0000878346Y0000829775D01*
X0000875631Y0000843423D01*
X0000864536Y0000860027D01*
X0000847932Y0000871122D01*
X0000828346Y0000875018D01*
X0000808760Y0000871122D01*
X0000792155Y0000860027D01*
X0000781061Y0000843423D01*
X0000779527Y0000835712D01*
X0000779527Y0000859823D01*
X0000776830Y0000866334D01*
X0000771846Y0000871318D01*
X0000765335Y0000874015D01*
X0000738681Y0000874015D01*
X0000734251Y0000869586D01*
X0000734251Y0000828740D01*
X0000735039Y0000828740D01*
X0000735039Y0000816929D01*
X0000734251Y0000816929D01*
X0000734251Y0000776082D01*
X0000738681Y0000771653D01*
X0000765335Y0000771653D01*
X0000771846Y0000774350D01*
X0000776830Y0000779334D01*
X0000779527Y0000785845D01*
X0000779527Y0000809956D01*
X0000781061Y0000802245D01*
X0000792155Y0000785641D01*
X0000808760Y0000774546D01*
X0000828346Y0000770650D01*
X0000847932Y0000774546D01*
X0000864536Y0000785641D01*
X0000875631Y0000802245D01*
X0000878346Y0000815894D01*
X0000881061Y0000802245D01*
X0000892155Y0000785641D01*
X0000908760Y0000774546D01*
X0000928346Y0000770650D01*
X0000939383Y0000772846D01*
X0000879135Y0000712598D01*
X0000507874Y0000712598D01*
X0000497327Y0000710500D01*
X0000488386Y0000704526D01*
X0000288715Y0000504855D01*
X0000286209Y0000505896D01*
X0000265064Y0000505914D01*
X0000245523Y0000497840D01*
X0000230558Y0000482902D01*
X0000222450Y0000463374D01*
X0000222431Y0000442230D01*
X0000208661Y0000442230D01*
X0000208661Y0000709057D01*
X0000261540Y0000761936D01*
X0000261821Y0000761819D01*
X0000281399Y0000761802D01*
X0000291711Y0000766063D01*
X0000258887Y0000733238D01*
X0000253766Y0000725575D01*
X0000251968Y0000716535D01*
X0000251968Y0000648141D01*
X0000245523Y0000645478D01*
X0000230558Y0000630539D01*
X0000222450Y0000611012D01*
X0000222431Y0000589867D01*
X0000230506Y0000570326D01*
X0000245444Y0000555361D01*
X0000264972Y0000547253D01*
X0000286116Y0000547234D01*
X0000305658Y0000555309D01*
X0000320622Y0000570247D01*
X0000328730Y0000589775D01*
X0000328749Y0000610919D01*
X0000320674Y0000630461D01*
X0000305736Y0000645425D01*
X0000299212Y0000648134D01*
X0000299212Y0000706750D01*
X0000373954Y0000781492D01*
X0000379824Y0000781487D01*
X0000397919Y0000788963D01*
X0000411774Y0000802795D01*
X0000419282Y0000820876D01*
X0000419282Y0000820962D01*
X0000517707Y0000820962D01*
X0000525184Y0000802868D01*
X0000539016Y0000789012D01*
X0000557097Y0000781504D01*
X0000576675Y0000781487D01*
X0000594769Y0000788963D01*
X0000608625Y0000802795D01*
X0000612654Y0000812500D01*
X0000677165Y0000812500D01*
X0000677165Y0000785845D01*
X0000679862Y0000779334D01*
X0000684846Y0000774350D01*
X0000691357Y0000771653D01*
X0000718011Y0000771653D01*
X0000722440Y0000776082D01*
X0000722440Y0000816929D01*
X0000681594Y0000816929D01*
X0000677165Y0000812500D01*
X0000612654Y0000812500D01*
X0000616133Y0000820876D01*
X0000616150Y0000840454D01*
X0000608673Y0000858548D01*
X0000607401Y0000859823D01*
X0000677165Y0000859823D01*
X0000677165Y0000833169D01*
X0000681594Y0000828740D01*
X0000722440Y0000828740D01*
X0000722440Y0000869586D01*
X0000718011Y0000874015D01*
X0000691357Y0000874015D01*
X0000684846Y0000871318D01*
X0000679862Y0000866334D01*
X0000677165Y0000859823D01*
X0000607401Y0000859823D01*
X0000594842Y0000872404D01*
X0000576761Y0000879912D01*
X0000557183Y0000879929D01*
X0000539088Y0000872453D01*
X0000525233Y0000858621D01*
X0000517725Y0000840540D01*
X0000517707Y0000820962D01*
X0000419282Y0000820962D01*
X0000419299Y0000840454D01*
X0000411823Y0000858548D01*
X0000397991Y0000872404D01*
X0000379910Y0000879912D01*
X0000360332Y0000879929D01*
X0000342238Y0000872453D01*
X0000328382Y0000858621D01*
X0000320874Y0000840540D01*
X0000320857Y0000820962D01*
X0000328334Y0000802868D01*
X0000328425Y0000802776D01*
X0000316609Y0000790960D01*
X0000320857Y0000801191D01*
X0000320874Y0000820769D01*
X0000313398Y0000838863D01*
X0000299566Y0000852719D01*
X0000281485Y0000860227D01*
X0000261907Y0000860244D01*
X0000243813Y0000852768D01*
X0000229957Y0000838936D01*
X0000222449Y0000820855D01*
X0000222432Y0000801277D01*
X0000222578Y0000800923D01*
X0000161615Y0000739959D01*
X0000155641Y0000731018D01*
X0000155641Y0000731018D01*
X0000153543Y0000720472D01*
X0000020669Y0000720472D01*
X0000020669Y0000801277D01*
X0000025582Y0000801277D01*
X0000033058Y0000783183D01*
X0000046890Y0000769327D01*
X0000064971Y0000761819D01*
X0000084549Y0000761802D01*
X0000102643Y0000769278D01*
X0000116499Y0000783110D01*
X0000124007Y0000801191D01*
X0000124024Y0000820769D01*
X0000116547Y0000838863D01*
X0000102716Y0000852719D01*
X0000084635Y0000860227D01*
X0000065057Y0000860244D01*
X0000046962Y0000852768D01*
X0000033107Y0000838936D01*
X0000025599Y0000820855D01*
X0000025582Y0000801277D01*
X0000020669Y0000801277D01*
X0000020669Y0000884842D01*
X0001081692Y0000884842D01*
X0001081692Y0000020669D01*
X0001081692Y0000020669D01*
G37*
X0001081692Y0000020669D02*
X0000020669Y0000020669D01*
X0000020669Y0000084742D01*
X0000025582Y0000084742D01*
X0000033058Y0000066647D01*
X0000046890Y0000052792D01*
X0000064971Y0000045284D01*
X0000084549Y0000045267D01*
X0000102643Y0000052743D01*
X0000116499Y0000066575D01*
X0000124007Y0000084656D01*
X0000124024Y0000104234D01*
X0000116547Y0000122328D01*
X0000102716Y0000136184D01*
X0000084635Y0000143692D01*
X0000065057Y0000143709D01*
X0000046962Y0000136232D01*
X0000033107Y0000122401D01*
X0000025599Y0000104320D01*
X0000025582Y0000084742D01*
X0000020669Y0000084742D01*
X0000020669Y0000294592D01*
X0000025581Y0000294592D01*
X0000033655Y0000275050D01*
X0000048593Y0000260086D01*
X0000068121Y0000251977D01*
X0000089265Y0000251959D01*
X0000108807Y0000260033D01*
X0000123771Y0000274971D01*
X0000131880Y0000294499D01*
X0000131898Y0000315643D01*
X0000123824Y0000335185D01*
X0000108886Y0000350149D01*
X0000089358Y0000358258D01*
X0000068214Y0000358276D01*
X0000048672Y0000350202D01*
X0000033708Y0000335264D01*
X0000025599Y0000315736D01*
X0000025581Y0000294592D01*
X0000020669Y0000294592D01*
X0000020669Y0000442230D01*
X0000025581Y0000442230D01*
X0000033655Y0000422688D01*
X0000048593Y0000407724D01*
X0000068121Y0000399615D01*
X0000089265Y0000399597D01*
X0000108807Y0000407671D01*
X0000123771Y0000422609D01*
X0000131880Y0000442137D01*
X0000131898Y0000463281D01*
X0000123824Y0000482823D01*
X0000108886Y0000497787D01*
X0000089358Y0000505896D01*
X0000068214Y0000505914D01*
X0000048672Y0000497840D01*
X0000033708Y0000482902D01*
X0000025599Y0000463374D01*
X0000025581Y0000442230D01*
X0000020669Y0000442230D01*
X0000020669Y0000589867D01*
X0000025581Y0000589867D01*
X0000033655Y0000570326D01*
X0000048593Y0000555361D01*
X0000068121Y0000547253D01*
X0000089265Y0000547234D01*
X0000108807Y0000555309D01*
X0000123771Y0000570247D01*
X0000131880Y0000589775D01*
X0000131898Y0000610919D01*
X0000123824Y0000630461D01*
X0000108886Y0000645425D01*
X0000089358Y0000653534D01*
X0000068214Y0000653552D01*
X0000048672Y0000645478D01*
X0000033708Y0000630539D01*
X0000025599Y0000611012D01*
X0000025581Y0000589867D01*
X0000020669Y0000589867D01*
X0000020669Y0000720472D01*
X0000153543Y0000720472D01*
X0000153543Y0000177165D01*
X0000155641Y0000166618D01*
X0000161615Y0000157678D01*
X0000222442Y0000096850D01*
X0000222432Y0000084742D01*
X0000229908Y0000066647D01*
X0000243740Y0000052792D01*
X0000261821Y0000045284D01*
X0000281399Y0000045267D01*
X0000299493Y0000052743D01*
X0000313349Y0000066575D01*
X0000320857Y0000084656D01*
X0000320860Y0000087616D01*
X0000876377Y0000087616D01*
X0000876377Y0000085611D01*
X0000880273Y0000066025D01*
X0000891368Y0000049420D01*
X0000907972Y0000038326D01*
X0000927559Y0000034430D01*
X0000947145Y0000038326D01*
X0000963749Y0000049420D01*
X0000974844Y0000066025D01*
X0000976377Y0000073735D01*
X0000976377Y0000049625D01*
X0000979075Y0000043113D01*
X0000984058Y0000038130D01*
X0000990570Y0000035433D01*
X0001017224Y0000035433D01*
X0001021653Y0000039862D01*
X0001021653Y0000080708D01*
X0001033464Y0000080708D01*
X0001033464Y0000039862D01*
X0001037893Y0000035433D01*
X0001064547Y0000035433D01*
X0001071059Y0000038130D01*
X0001076042Y0000043113D01*
X0001078740Y0000049625D01*
X0001078740Y0000076279D01*
X0001074310Y0000080708D01*
X0001033464Y0000080708D01*
X0001021653Y0000080708D01*
X0001020866Y0000080708D01*
X0001020866Y0000092519D01*
X0001021653Y0000092519D01*
X0001021653Y0000133366D01*
X0001033464Y0000133366D01*
X0001033464Y0000092519D01*
X0001074310Y0000092519D01*
X0001078740Y0000096948D01*
X0001078740Y0000123602D01*
X0001076042Y0000130114D01*
X0001071059Y0000135098D01*
X0001064547Y0000137795D01*
X0001037893Y0000137795D01*
X0001033464Y0000133366D01*
X0001021653Y0000133366D01*
X0001017224Y0000137795D01*
X0000990570Y0000137795D01*
X0000984058Y0000135098D01*
X0000979075Y0000130114D01*
X0000976377Y0000123602D01*
X0000976377Y0000099492D01*
X0000974844Y0000107202D01*
X0000963749Y0000123807D01*
X0000947145Y0000134902D01*
X0000927559Y0000138797D01*
X0000907972Y0000134902D01*
X0000891368Y0000123807D01*
X0000880273Y0000107202D01*
X0000876377Y0000087616D01*
X0000320860Y0000087616D01*
X0000320874Y0000104234D01*
X0000313398Y0000122328D01*
X0000299566Y0000136184D01*
X0000281485Y0000143692D01*
X0000261907Y0000143709D01*
X0000255981Y0000141260D01*
X0000208661Y0000188580D01*
X0000208661Y0000294592D01*
X0000222431Y0000294592D01*
X0000230506Y0000275050D01*
X0000245444Y0000260086D01*
X0000264972Y0000251977D01*
X0000286116Y0000251959D01*
X0000305658Y0000260033D01*
X0000320622Y0000274971D01*
X0000328730Y0000294499D01*
X0000328749Y0000315643D01*
X0000320674Y0000335185D01*
X0000305736Y0000350149D01*
X0000286209Y0000358258D01*
X0000265064Y0000358276D01*
X0000245523Y0000350202D01*
X0000230558Y0000335264D01*
X0000222450Y0000315736D01*
X0000222431Y0000294592D01*
X0000208661Y0000294592D01*
X0000208661Y0000442230D01*
X0000222431Y0000442230D01*
X0000230506Y0000422688D01*
X0000245444Y0000407724D01*
X0000264972Y0000399615D01*
X0000286116Y0000399597D01*
X0000305658Y0000407671D01*
X0000320622Y0000422609D01*
X0000328730Y0000442137D01*
X0000328749Y0000463281D01*
X0000327679Y0000465870D01*
X0000340213Y0000478404D01*
X0000419286Y0000478404D01*
X0000423772Y0000467547D01*
X0000432071Y0000459234D01*
X0000442919Y0000454729D01*
X0000454666Y0000454719D01*
X0000459442Y0000456692D01*
X0000765354Y0000456692D01*
X0000775900Y0000458790D01*
X0000784841Y0000464764D01*
X0000860634Y0000540557D01*
X0000876838Y0000540543D01*
X0000893775Y0000547541D01*
X0000906744Y0000560487D01*
X0000913771Y0000577411D01*
X0000913771Y0000577491D01*
X0000921645Y0000577491D01*
X0000928643Y0000560555D01*
X0000941589Y0000547586D01*
X0000958513Y0000540559D01*
X0000976838Y0000540543D01*
X0000993775Y0000547541D01*
X0001006744Y0000560487D01*
X0001013771Y0000577411D01*
X0001013787Y0000595736D01*
X0001006789Y0000612672D01*
X0000993843Y0000625641D01*
X0000976919Y0000632669D01*
X0000958594Y0000632685D01*
X0000941658Y0000625687D01*
X0000928688Y0000612740D01*
X0000921661Y0000595816D01*
X0000921645Y0000577491D01*
X0000913771Y0000577491D01*
X0000913787Y0000595736D01*
X0000906789Y0000612672D01*
X0000893843Y0000625641D01*
X0000876919Y0000632669D01*
X0000858594Y0000632685D01*
X0000841658Y0000625687D01*
X0000828688Y0000612740D01*
X0000821661Y0000595816D01*
X0000821647Y0000579519D01*
X0000809675Y0000567547D01*
X0000813771Y0000577411D01*
X0000813787Y0000595736D01*
X0000806789Y0000612672D01*
X0000793843Y0000625641D01*
X0000776919Y0000632669D01*
X0000758594Y0000632685D01*
X0000741657Y0000625687D01*
X0000728688Y0000612740D01*
X0000721661Y0000595816D01*
X0000721645Y0000577491D01*
X0000728643Y0000560555D01*
X0000741589Y0000547586D01*
X0000758513Y0000540559D01*
X0000776838Y0000540543D01*
X0000786777Y0000544649D01*
X0000753938Y0000511811D01*
X0000459446Y0000511811D01*
X0000454718Y0000513774D01*
X0000442971Y0000513784D01*
X0000432114Y0000509298D01*
X0000423801Y0000500999D01*
X0000419296Y0000490151D01*
X0000419286Y0000478404D01*
X0000340213Y0000478404D01*
X0000519289Y0000657480D01*
X0000890551Y0000657480D01*
X0000901097Y0000659578D01*
X0000910038Y0000665552D01*
X0001014368Y0000769882D01*
X0001014369Y0000769882D01*
X0001017328Y0000772842D01*
X0001028346Y0000770650D01*
X0001047932Y0000774546D01*
X0001064536Y0000785641D01*
X0001075631Y0000802245D01*
X0001079527Y0000821831D01*
X0001079527Y0000823837D01*
X0001075631Y0000843423D01*
X0001064536Y0000860027D01*
X0001047932Y0000871122D01*
X0001028346Y0000875018D01*
X0001008760Y0000871122D01*
X0000992155Y0000860027D01*
X0000981061Y0000843423D01*
X0000978346Y0000829775D01*
X0000975631Y0000843423D01*
X0000964536Y0000860027D01*
X0000947932Y0000871122D01*
X0000928346Y0000875018D01*
X0000908760Y0000871122D01*
X0000892155Y0000860027D01*
X0000881061Y0000843423D01*
X0000878346Y0000829775D01*
X0000875631Y0000843423D01*
X0000864536Y0000860027D01*
X0000847932Y0000871122D01*
X0000828346Y0000875018D01*
X0000808760Y0000871122D01*
X0000792155Y0000860027D01*
X0000781061Y0000843423D01*
X0000779527Y0000835712D01*
X0000779527Y0000859823D01*
X0000776830Y0000866334D01*
X0000771846Y0000871318D01*
X0000765335Y0000874015D01*
X0000738681Y0000874015D01*
X0000734251Y0000869586D01*
X0000734251Y0000828740D01*
X0000735039Y0000828740D01*
X0000735039Y0000816929D01*
X0000734251Y0000816929D01*
X0000734251Y0000776082D01*
X0000738681Y0000771653D01*
X0000765335Y0000771653D01*
X0000771846Y0000774350D01*
X0000776830Y0000779334D01*
X0000779527Y0000785845D01*
X0000779527Y0000809956D01*
X0000781061Y0000802245D01*
X0000792155Y0000785641D01*
X0000808760Y0000774546D01*
X0000828346Y0000770650D01*
X0000847932Y0000774546D01*
X0000864536Y0000785641D01*
X0000875631Y0000802245D01*
X0000878346Y0000815894D01*
X0000881061Y0000802245D01*
X0000892155Y0000785641D01*
X0000908760Y0000774546D01*
X0000928346Y0000770650D01*
X0000939383Y0000772846D01*
X0000879135Y0000712598D01*
X0000507874Y0000712598D01*
X0000497327Y0000710500D01*
X0000488386Y0000704526D01*
X0000288715Y0000504855D01*
X0000286209Y0000505896D01*
X0000265064Y0000505914D01*
X0000245523Y0000497840D01*
X0000230558Y0000482902D01*
X0000222450Y0000463374D01*
X0000222431Y0000442230D01*
X0000208661Y0000442230D01*
X0000208661Y0000709057D01*
X0000261540Y0000761936D01*
X0000261821Y0000761819D01*
X0000281399Y0000761802D01*
X0000291711Y0000766063D01*
X0000258887Y0000733238D01*
X0000253766Y0000725575D01*
X0000251968Y0000716535D01*
X0000251968Y0000648141D01*
X0000245523Y0000645478D01*
X0000230558Y0000630539D01*
X0000222450Y0000611012D01*
X0000222431Y0000589867D01*
X0000230506Y0000570326D01*
X0000245444Y0000555361D01*
X0000264972Y0000547253D01*
X0000286116Y0000547234D01*
X0000305658Y0000555309D01*
X0000320622Y0000570247D01*
X0000328730Y0000589775D01*
X0000328749Y0000610919D01*
X0000320674Y0000630461D01*
X0000305736Y0000645425D01*
X0000299212Y0000648134D01*
X0000299212Y0000706750D01*
X0000373954Y0000781492D01*
X0000379824Y0000781487D01*
X0000397919Y0000788963D01*
X0000411774Y0000802795D01*
X0000419282Y0000820876D01*
X0000419282Y0000820962D01*
X0000517707Y0000820962D01*
X0000525184Y0000802868D01*
X0000539016Y0000789012D01*
X0000557097Y0000781504D01*
X0000576675Y0000781487D01*
X0000594769Y0000788963D01*
X0000608625Y0000802795D01*
X0000612654Y0000812500D01*
X0000677165Y0000812500D01*
X0000677165Y0000785845D01*
X0000679862Y0000779334D01*
X0000684846Y0000774350D01*
X0000691357Y0000771653D01*
X0000718011Y0000771653D01*
X0000722440Y0000776082D01*
X0000722440Y0000816929D01*
X0000681594Y0000816929D01*
X0000677165Y0000812500D01*
X0000612654Y0000812500D01*
X0000616133Y0000820876D01*
X0000616150Y0000840454D01*
X0000608673Y0000858548D01*
X0000607401Y0000859823D01*
X0000677165Y0000859823D01*
X0000677165Y0000833169D01*
X0000681594Y0000828740D01*
X0000722440Y0000828740D01*
X0000722440Y0000869586D01*
X0000718011Y0000874015D01*
X0000691357Y0000874015D01*
X0000684846Y0000871318D01*
X0000679862Y0000866334D01*
X0000677165Y0000859823D01*
X0000607401Y0000859823D01*
X0000594842Y0000872404D01*
X0000576761Y0000879912D01*
X0000557183Y0000879929D01*
X0000539088Y0000872453D01*
X0000525233Y0000858621D01*
X0000517725Y0000840540D01*
X0000517707Y0000820962D01*
X0000419282Y0000820962D01*
X0000419299Y0000840454D01*
X0000411823Y0000858548D01*
X0000397991Y0000872404D01*
X0000379910Y0000879912D01*
X0000360332Y0000879929D01*
X0000342238Y0000872453D01*
X0000328382Y0000858621D01*
X0000320874Y0000840540D01*
X0000320857Y0000820962D01*
X0000328334Y0000802868D01*
X0000328425Y0000802776D01*
X0000316609Y0000790960D01*
X0000320857Y0000801191D01*
X0000320874Y0000820769D01*
X0000313398Y0000838863D01*
X0000299566Y0000852719D01*
X0000281485Y0000860227D01*
X0000261907Y0000860244D01*
X0000243813Y0000852768D01*
X0000229957Y0000838936D01*
X0000222449Y0000820855D01*
X0000222432Y0000801277D01*
X0000222578Y0000800923D01*
X0000161615Y0000739959D01*
X0000155641Y0000731018D01*
X0000155641Y0000731018D01*
X0000153543Y0000720472D01*
X0000020669Y0000720472D01*
X0000020669Y0000801277D01*
X0000025582Y0000801277D01*
X0000033058Y0000783183D01*
X0000046890Y0000769327D01*
X0000064971Y0000761819D01*
X0000084549Y0000761802D01*
X0000102643Y0000769278D01*
X0000116499Y0000783110D01*
X0000124007Y0000801191D01*
X0000124024Y0000820769D01*
X0000116547Y0000838863D01*
X0000102716Y0000852719D01*
X0000084635Y0000860227D01*
X0000065057Y0000860244D01*
X0000046962Y0000852768D01*
X0000033107Y0000838936D01*
X0000025599Y0000820855D01*
X0000025582Y0000801277D01*
X0000020669Y0000801277D01*
X0000020669Y0000884842D01*
X0001081692Y0000884842D01*
X0001081692Y0000020669D01*
G04 next file*
G04 #@! TF.FileFunction,Copper,L2,Bot,Signal*
G04 Gerber Fmt 4.6, Leading zero omitted, Abs format (unit mm)*
G04 Created by KiCad (PCBNEW 4.0.4-1.fc24-product) date Tue Aug 28 14:06:47 2018*
G01G01*
G04 APERTURE LIST*
G04 APERTURE END LIST*
D29*
D30*
X-0004192913Y0004251968D02*
X0001275590Y0000811023D03*
X0001472440Y0000811023D03*
D31*
X0001279527Y0000600393D03*
X0001279527Y0000452755D03*
X0001279527Y0000305118D03*
X0001476377Y0000600393D03*
X0001476377Y0000452755D03*
X0001476377Y0000305118D03*
D32*
X0001968503Y0000586614D03*
X0002068503Y0000586614D03*
X0002168503Y0000586614D03*
D33*
X0002128346Y0000086614D03*
D34*
X0002228346Y0000086614D03*
D33*
X0002229133Y0000822834D03*
X0002129133Y0000822834D03*
X0002029133Y0000822834D03*
D34*
X0001929133Y0000822834D03*
D30*
X0001472440Y0000094488D03*
X0001275590Y0000094488D03*
X0001767716Y0000830708D03*
X0001570866Y0000830708D03*
D35*
X0001728346Y0000133858D03*
X0001594488Y0000370078D03*
X0001594488Y0000681102D03*
X0001649606Y0000484251D03*
D36*
X0001476377Y0000600393D02*
X0001476377Y0000716535D01*
X0001476377Y0000716535D02*
X0001570866Y0000811023D01*
D37*
X0001472440Y0000094488D02*
X0001464566Y0000094488D01*
X0001464566Y0000094488D02*
X0001381889Y0000177165D01*
X0001440944Y0000779527D02*
X0001472440Y0000811023D01*
X0001381889Y0000720472D02*
X0001440944Y0000779527D01*
X0001381889Y0000177165D02*
X0001381889Y0000720472D01*
X0001666309Y0000484251D02*
X0001649606Y0000484251D01*
X0001966141Y0000484251D02*
X0001666309Y0000484251D01*
X0002068503Y0000586614D02*
X0001966141Y0000484251D01*
X0001476377Y0000452755D02*
X0001708661Y0000685039D01*
X0001708661Y0000685039D02*
X0002091338Y0000685039D01*
X0002091338Y0000685039D02*
X0002195669Y0000789370D01*
X0002195669Y0000789370D02*
X0002229133Y0000822834D01*
X0001476377Y0000452755D02*
X0001480314Y0000452755D01*
D36*
G36*
X0002282480Y0000020669D02*
X0001221456Y0000020669D01*
X0001221456Y0000084742D01*
X0001226369Y0000084742D01*
X0001233845Y0000066647D01*
X0001247677Y0000052792D01*
X0001265758Y0000045284D01*
X0001285336Y0000045267D01*
X0001303430Y0000052743D01*
X0001317286Y0000066575D01*
X0001324794Y0000084656D01*
X0001324811Y0000104234D01*
X0001317335Y0000122328D01*
X0001303503Y0000136184D01*
X0001285422Y0000143692D01*
X0001265844Y0000143709D01*
X0001247750Y0000136232D01*
X0001233894Y0000122401D01*
X0001226386Y0000104320D01*
X0001226369Y0000084742D01*
X0001221456Y0000084742D01*
X0001221456Y0000294592D01*
X0001226368Y0000294592D01*
X0001234443Y0000275050D01*
X0001249381Y0000260086D01*
X0001268909Y0000251977D01*
X0001290053Y0000251959D01*
X0001309595Y0000260033D01*
X0001324559Y0000274971D01*
X0001332667Y0000294499D01*
X0001332686Y0000315643D01*
X0001324611Y0000335185D01*
X0001309673Y0000350149D01*
X0001290146Y0000358258D01*
X0001269001Y0000358276D01*
X0001249460Y0000350202D01*
X0001234495Y0000335264D01*
X0001226387Y0000315736D01*
X0001226368Y0000294592D01*
X0001221456Y0000294592D01*
X0001221456Y0000442230D01*
X0001226368Y0000442230D01*
X0001234443Y0000422688D01*
X0001249381Y0000407724D01*
X0001268909Y0000399615D01*
X0001290053Y0000399597D01*
X0001309595Y0000407671D01*
X0001324559Y0000422609D01*
X0001332667Y0000442137D01*
X0001332686Y0000463281D01*
X0001324611Y0000482823D01*
X0001309673Y0000497787D01*
X0001290146Y0000505896D01*
X0001269001Y0000505914D01*
X0001249460Y0000497840D01*
X0001234495Y0000482902D01*
X0001226387Y0000463374D01*
X0001226368Y0000442230D01*
X0001221456Y0000442230D01*
X0001221456Y0000589867D01*
X0001226368Y0000589867D01*
X0001234443Y0000570326D01*
X0001249381Y0000555361D01*
X0001268909Y0000547253D01*
X0001290053Y0000547234D01*
X0001309595Y0000555309D01*
X0001324559Y0000570247D01*
X0001332667Y0000589775D01*
X0001332686Y0000610919D01*
X0001324611Y0000630461D01*
X0001309673Y0000645425D01*
X0001290146Y0000653534D01*
X0001269001Y0000653552D01*
X0001249460Y0000645478D01*
X0001234495Y0000630539D01*
X0001226387Y0000611012D01*
X0001226368Y0000589867D01*
X0001221456Y0000589867D01*
X0001221456Y0000720472D01*
X0001354330Y0000720472D01*
X0001354330Y0000177165D01*
X0001356428Y0000166618D01*
X0001362402Y0000157678D01*
X0001423230Y0000096850D01*
X0001423219Y0000084742D01*
X0001430696Y0000066647D01*
X0001444527Y0000052792D01*
X0001462609Y0000045284D01*
X0001482186Y0000045267D01*
X0001500281Y0000052743D01*
X0001514137Y0000066575D01*
X0001521645Y0000084656D01*
X0001521647Y0000087616D01*
X0002077165Y0000087616D01*
X0002077165Y0000085611D01*
X0002081061Y0000066025D01*
X0002092155Y0000049420D01*
X0002108760Y0000038326D01*
X0002128346Y0000034430D01*
X0002147932Y0000038326D01*
X0002164536Y0000049420D01*
X0002175631Y0000066025D01*
X0002177165Y0000073735D01*
X0002177165Y0000049625D01*
X0002179862Y0000043113D01*
X0002184846Y0000038130D01*
X0002191357Y0000035433D01*
X0002218011Y0000035433D01*
X0002222440Y0000039862D01*
X0002222440Y0000080708D01*
X0002234251Y0000080708D01*
X0002234251Y0000039862D01*
X0002238681Y0000035433D01*
X0002265335Y0000035433D01*
X0002271846Y0000038130D01*
X0002276830Y0000043113D01*
X0002279527Y0000049625D01*
X0002279527Y0000076279D01*
X0002275098Y0000080708D01*
X0002234251Y0000080708D01*
X0002222440Y0000080708D01*
X0002221653Y0000080708D01*
X0002221653Y0000092519D01*
X0002222440Y0000092519D01*
X0002222440Y0000133366D01*
X0002234251Y0000133366D01*
X0002234251Y0000092519D01*
X0002275098Y0000092519D01*
X0002279527Y0000096948D01*
X0002279527Y0000123602D01*
X0002276830Y0000130114D01*
X0002271846Y0000135098D01*
X0002265335Y0000137795D01*
X0002238681Y0000137795D01*
X0002234251Y0000133366D01*
X0002222440Y0000133366D01*
X0002218011Y0000137795D01*
X0002191357Y0000137795D01*
X0002184846Y0000135098D01*
X0002179862Y0000130114D01*
X0002177165Y0000123602D01*
X0002177165Y0000099492D01*
X0002175631Y0000107202D01*
X0002164536Y0000123807D01*
X0002147932Y0000134902D01*
X0002128346Y0000138797D01*
X0002108760Y0000134902D01*
X0002092155Y0000123807D01*
X0002081061Y0000107202D01*
X0002077165Y0000087616D01*
X0001521647Y0000087616D01*
X0001521662Y0000104234D01*
X0001514185Y0000122328D01*
X0001500354Y0000136184D01*
X0001482272Y0000143692D01*
X0001462694Y0000143709D01*
X0001456768Y0000141260D01*
X0001409448Y0000188580D01*
X0001409448Y0000294592D01*
X0001423219Y0000294592D01*
X0001431293Y0000275050D01*
X0001446231Y0000260086D01*
X0001465759Y0000251977D01*
X0001486903Y0000251959D01*
X0001506445Y0000260033D01*
X0001521409Y0000274971D01*
X0001529518Y0000294499D01*
X0001529536Y0000315643D01*
X0001521462Y0000335185D01*
X0001506524Y0000350149D01*
X0001486996Y0000358258D01*
X0001465852Y0000358276D01*
X0001446310Y0000350202D01*
X0001431346Y0000335264D01*
X0001423237Y0000315736D01*
X0001423219Y0000294592D01*
X0001409448Y0000294592D01*
X0001409448Y0000442230D01*
X0001423219Y0000442230D01*
X0001431293Y0000422688D01*
X0001446231Y0000407724D01*
X0001465759Y0000399615D01*
X0001486903Y0000399597D01*
X0001506445Y0000407671D01*
X0001521409Y0000422609D01*
X0001529518Y0000442137D01*
X0001529536Y0000463281D01*
X0001528467Y0000465870D01*
X0001541000Y0000478404D01*
X0001620073Y0000478404D01*
X0001624559Y0000467547D01*
X0001632858Y0000459234D01*
X0001643707Y0000454729D01*
X0001655453Y0000454719D01*
X0001660230Y0000456692D01*
X0001966141Y0000456692D01*
X0001976688Y0000458790D01*
X0001985628Y0000464764D01*
X0002061421Y0000540557D01*
X0002077626Y0000540543D01*
X0002094562Y0000547541D01*
X0002107531Y0000560487D01*
X0002114558Y0000577411D01*
X0002114558Y0000577491D01*
X0002122432Y0000577491D01*
X0002129430Y0000560555D01*
X0002142377Y0000547586D01*
X0002159301Y0000540559D01*
X0002177626Y0000540543D01*
X0002194562Y0000547541D01*
X0002207531Y0000560487D01*
X0002214558Y0000577411D01*
X0002214574Y0000595736D01*
X0002207576Y0000612672D01*
X0002194630Y0000625641D01*
X0002177706Y0000632669D01*
X0002159381Y0000632685D01*
X0002142445Y0000625687D01*
X0002129476Y0000612740D01*
X0002122448Y0000595816D01*
X0002122432Y0000577491D01*
X0002114558Y0000577491D01*
X0002114574Y0000595736D01*
X0002107576Y0000612672D01*
X0002094630Y0000625641D01*
X0002077706Y0000632669D01*
X0002059381Y0000632685D01*
X0002042445Y0000625687D01*
X0002029476Y0000612740D01*
X0002022448Y0000595816D01*
X0002022434Y0000579519D01*
X0002010463Y0000567547D01*
X0002014558Y0000577411D01*
X0002014574Y0000595736D01*
X0002007577Y0000612672D01*
X0001994630Y0000625641D01*
X0001977706Y0000632669D01*
X0001959381Y0000632685D01*
X0001942445Y0000625687D01*
X0001929476Y0000612740D01*
X0001922448Y0000595816D01*
X0001922432Y0000577491D01*
X0001929430Y0000560555D01*
X0001942377Y0000547586D01*
X0001959301Y0000540559D01*
X0001977626Y0000540543D01*
X0001987565Y0000544649D01*
X0001954726Y0000511811D01*
X0001660233Y0000511811D01*
X0001655505Y0000513774D01*
X0001643758Y0000513784D01*
X0001632902Y0000509298D01*
X0001624588Y0000500999D01*
X0001620083Y0000490151D01*
X0001620073Y0000478404D01*
X0001541000Y0000478404D01*
X0001720076Y0000657480D01*
X0002091338Y0000657480D01*
X0002101885Y0000659578D01*
X0002110825Y0000665552D01*
X0002215156Y0000769882D01*
X0002215156Y0000769882D01*
X0002218116Y0000772842D01*
X0002229133Y0000770650D01*
X0002248720Y0000774546D01*
X0002265324Y0000785641D01*
X0002276419Y0000802245D01*
X0002280314Y0000821831D01*
X0002280314Y0000823837D01*
X0002276419Y0000843423D01*
X0002265324Y0000860027D01*
X0002248720Y0000871122D01*
X0002229133Y0000875018D01*
X0002209547Y0000871122D01*
X0002192943Y0000860027D01*
X0002181848Y0000843423D01*
X0002179133Y0000829775D01*
X0002176419Y0000843423D01*
X0002165324Y0000860027D01*
X0002148719Y0000871122D01*
X0002129133Y0000875018D01*
X0002109547Y0000871122D01*
X0002092943Y0000860027D01*
X0002081848Y0000843423D01*
X0002079133Y0000829775D01*
X0002076418Y0000843423D01*
X0002065324Y0000860027D01*
X0002048719Y0000871122D01*
X0002029133Y0000875018D01*
X0002009547Y0000871122D01*
X0001992943Y0000860027D01*
X0001981848Y0000843423D01*
X0001980314Y0000835712D01*
X0001980314Y0000859823D01*
X0001977617Y0000866334D01*
X0001972634Y0000871318D01*
X0001966122Y0000874015D01*
X0001939468Y0000874015D01*
X0001935039Y0000869586D01*
X0001935039Y0000828740D01*
X0001935826Y0000828740D01*
X0001935826Y0000816929D01*
X0001935039Y0000816929D01*
X0001935039Y0000776082D01*
X0001939468Y0000771653D01*
X0001966122Y0000771653D01*
X0001972634Y0000774350D01*
X0001977617Y0000779334D01*
X0001980314Y0000785845D01*
X0001980314Y0000809956D01*
X0001981848Y0000802245D01*
X0001992943Y0000785641D01*
X0002009547Y0000774546D01*
X0002029133Y0000770650D01*
X0002048719Y0000774546D01*
X0002065324Y0000785641D01*
X0002076418Y0000802245D01*
X0002079133Y0000815894D01*
X0002081848Y0000802245D01*
X0002092943Y0000785641D01*
X0002109547Y0000774546D01*
X0002129133Y0000770650D01*
X0002140171Y0000772846D01*
X0002079923Y0000712598D01*
X0001708661Y0000712598D01*
X0001698115Y0000710500D01*
X0001689174Y0000704526D01*
X0001489503Y0000504855D01*
X0001486996Y0000505896D01*
X0001465852Y0000505914D01*
X0001446310Y0000497840D01*
X0001431346Y0000482902D01*
X0001423237Y0000463374D01*
X0001423219Y0000442230D01*
X0001409448Y0000442230D01*
X0001409448Y0000709057D01*
X0001462327Y0000761936D01*
X0001462609Y0000761819D01*
X0001482186Y0000761802D01*
X0001492499Y0000766063D01*
X0001459674Y0000733238D01*
X0001454554Y0000725575D01*
X0001452755Y0000716535D01*
X0001452755Y0000648141D01*
X0001446310Y0000645478D01*
X0001431346Y0000630539D01*
X0001423237Y0000611012D01*
X0001423219Y0000589867D01*
X0001431293Y0000570326D01*
X0001446231Y0000555361D01*
X0001465759Y0000547253D01*
X0001486903Y0000547234D01*
X0001506445Y0000555309D01*
X0001521409Y0000570247D01*
X0001529518Y0000589775D01*
X0001529536Y0000610919D01*
X0001521462Y0000630461D01*
X0001506524Y0000645425D01*
X0001499999Y0000648134D01*
X0001499999Y0000706750D01*
X0001574741Y0000781492D01*
X0001580612Y0000781487D01*
X0001598706Y0000788963D01*
X0001612562Y0000802795D01*
X0001620070Y0000820876D01*
X0001620070Y0000820962D01*
X0001718495Y0000820962D01*
X0001725971Y0000802868D01*
X0001739803Y0000789012D01*
X0001757884Y0000781504D01*
X0001777462Y0000781487D01*
X0001795556Y0000788963D01*
X0001809412Y0000802795D01*
X0001813442Y0000812500D01*
X0001877952Y0000812500D01*
X0001877952Y0000785845D01*
X0001880649Y0000779334D01*
X0001885633Y0000774350D01*
X0001892145Y0000771653D01*
X0001918799Y0000771653D01*
X0001923228Y0000776082D01*
X0001923228Y0000816929D01*
X0001882381Y0000816929D01*
X0001877952Y0000812500D01*
X0001813442Y0000812500D01*
X0001816920Y0000820876D01*
X0001816937Y0000840454D01*
X0001809461Y0000858548D01*
X0001808189Y0000859823D01*
X0001877952Y0000859823D01*
X0001877952Y0000833169D01*
X0001882381Y0000828740D01*
X0001923228Y0000828740D01*
X0001923228Y0000869586D01*
X0001918799Y0000874015D01*
X0001892145Y0000874015D01*
X0001885633Y0000871318D01*
X0001880649Y0000866334D01*
X0001877952Y0000859823D01*
X0001808189Y0000859823D01*
X0001795629Y0000872404D01*
X0001777548Y0000879912D01*
X0001757970Y0000879929D01*
X0001739876Y0000872453D01*
X0001726020Y0000858621D01*
X0001718512Y0000840540D01*
X0001718495Y0000820962D01*
X0001620070Y0000820962D01*
X0001620087Y0000840454D01*
X0001612610Y0000858548D01*
X0001598779Y0000872404D01*
X0001580698Y0000879912D01*
X0001561120Y0000879929D01*
X0001543025Y0000872453D01*
X0001529170Y0000858621D01*
X0001521662Y0000840540D01*
X0001521645Y0000820962D01*
X0001529121Y0000802868D01*
X0001529212Y0000802776D01*
X0001517396Y0000790960D01*
X0001521645Y0000801191D01*
X0001521662Y0000820769D01*
X0001514185Y0000838863D01*
X0001500354Y0000852719D01*
X0001482272Y0000860227D01*
X0001462694Y0000860244D01*
X0001444600Y0000852768D01*
X0001430744Y0000838936D01*
X0001423236Y0000820855D01*
X0001423219Y0000801277D01*
X0001423366Y0000800923D01*
X0001362402Y0000739959D01*
X0001356428Y0000731018D01*
X0001356428Y0000731018D01*
X0001354330Y0000720472D01*
X0001221456Y0000720472D01*
X0001221456Y0000801277D01*
X0001226369Y0000801277D01*
X0001233845Y0000783183D01*
X0001247677Y0000769327D01*
X0001265758Y0000761819D01*
X0001285336Y0000761802D01*
X0001303430Y0000769278D01*
X0001317286Y0000783110D01*
X0001324794Y0000801191D01*
X0001324811Y0000820769D01*
X0001317335Y0000838863D01*
X0001303503Y0000852719D01*
X0001285422Y0000860227D01*
X0001265844Y0000860244D01*
X0001247750Y0000852768D01*
X0001233894Y0000838936D01*
X0001226386Y0000820855D01*
X0001226369Y0000801277D01*
X0001221456Y0000801277D01*
X0001221456Y0000884842D01*
X0002282480Y0000884842D01*
X0002282480Y0000020669D01*
X0002282480Y0000020669D01*
G37*
X0002282480Y0000020669D02*
X0001221456Y0000020669D01*
X0001221456Y0000084742D01*
X0001226369Y0000084742D01*
X0001233845Y0000066647D01*
X0001247677Y0000052792D01*
X0001265758Y0000045284D01*
X0001285336Y0000045267D01*
X0001303430Y0000052743D01*
X0001317286Y0000066575D01*
X0001324794Y0000084656D01*
X0001324811Y0000104234D01*
X0001317335Y0000122328D01*
X0001303503Y0000136184D01*
X0001285422Y0000143692D01*
X0001265844Y0000143709D01*
X0001247750Y0000136232D01*
X0001233894Y0000122401D01*
X0001226386Y0000104320D01*
X0001226369Y0000084742D01*
X0001221456Y0000084742D01*
X0001221456Y0000294592D01*
X0001226368Y0000294592D01*
X0001234443Y0000275050D01*
X0001249381Y0000260086D01*
X0001268909Y0000251977D01*
X0001290053Y0000251959D01*
X0001309595Y0000260033D01*
X0001324559Y0000274971D01*
X0001332667Y0000294499D01*
X0001332686Y0000315643D01*
X0001324611Y0000335185D01*
X0001309673Y0000350149D01*
X0001290146Y0000358258D01*
X0001269001Y0000358276D01*
X0001249460Y0000350202D01*
X0001234495Y0000335264D01*
X0001226387Y0000315736D01*
X0001226368Y0000294592D01*
X0001221456Y0000294592D01*
X0001221456Y0000442230D01*
X0001226368Y0000442230D01*
X0001234443Y0000422688D01*
X0001249381Y0000407724D01*
X0001268909Y0000399615D01*
X0001290053Y0000399597D01*
X0001309595Y0000407671D01*
X0001324559Y0000422609D01*
X0001332667Y0000442137D01*
X0001332686Y0000463281D01*
X0001324611Y0000482823D01*
X0001309673Y0000497787D01*
X0001290146Y0000505896D01*
X0001269001Y0000505914D01*
X0001249460Y0000497840D01*
X0001234495Y0000482902D01*
X0001226387Y0000463374D01*
X0001226368Y0000442230D01*
X0001221456Y0000442230D01*
X0001221456Y0000589867D01*
X0001226368Y0000589867D01*
X0001234443Y0000570326D01*
X0001249381Y0000555361D01*
X0001268909Y0000547253D01*
X0001290053Y0000547234D01*
X0001309595Y0000555309D01*
X0001324559Y0000570247D01*
X0001332667Y0000589775D01*
X0001332686Y0000610919D01*
X0001324611Y0000630461D01*
X0001309673Y0000645425D01*
X0001290146Y0000653534D01*
X0001269001Y0000653552D01*
X0001249460Y0000645478D01*
X0001234495Y0000630539D01*
X0001226387Y0000611012D01*
X0001226368Y0000589867D01*
X0001221456Y0000589867D01*
X0001221456Y0000720472D01*
X0001354330Y0000720472D01*
X0001354330Y0000177165D01*
X0001356428Y0000166618D01*
X0001362402Y0000157678D01*
X0001423230Y0000096850D01*
X0001423219Y0000084742D01*
X0001430696Y0000066647D01*
X0001444527Y0000052792D01*
X0001462609Y0000045284D01*
X0001482186Y0000045267D01*
X0001500281Y0000052743D01*
X0001514137Y0000066575D01*
X0001521645Y0000084656D01*
X0001521647Y0000087616D01*
X0002077165Y0000087616D01*
X0002077165Y0000085611D01*
X0002081061Y0000066025D01*
X0002092155Y0000049420D01*
X0002108760Y0000038326D01*
X0002128346Y0000034430D01*
X0002147932Y0000038326D01*
X0002164536Y0000049420D01*
X0002175631Y0000066025D01*
X0002177165Y0000073735D01*
X0002177165Y0000049625D01*
X0002179862Y0000043113D01*
X0002184846Y0000038130D01*
X0002191357Y0000035433D01*
X0002218011Y0000035433D01*
X0002222440Y0000039862D01*
X0002222440Y0000080708D01*
X0002234251Y0000080708D01*
X0002234251Y0000039862D01*
X0002238681Y0000035433D01*
X0002265335Y0000035433D01*
X0002271846Y0000038130D01*
X0002276830Y0000043113D01*
X0002279527Y0000049625D01*
X0002279527Y0000076279D01*
X0002275098Y0000080708D01*
X0002234251Y0000080708D01*
X0002222440Y0000080708D01*
X0002221653Y0000080708D01*
X0002221653Y0000092519D01*
X0002222440Y0000092519D01*
X0002222440Y0000133366D01*
X0002234251Y0000133366D01*
X0002234251Y0000092519D01*
X0002275098Y0000092519D01*
X0002279527Y0000096948D01*
X0002279527Y0000123602D01*
X0002276830Y0000130114D01*
X0002271846Y0000135098D01*
X0002265335Y0000137795D01*
X0002238681Y0000137795D01*
X0002234251Y0000133366D01*
X0002222440Y0000133366D01*
X0002218011Y0000137795D01*
X0002191357Y0000137795D01*
X0002184846Y0000135098D01*
X0002179862Y0000130114D01*
X0002177165Y0000123602D01*
X0002177165Y0000099492D01*
X0002175631Y0000107202D01*
X0002164536Y0000123807D01*
X0002147932Y0000134902D01*
X0002128346Y0000138797D01*
X0002108760Y0000134902D01*
X0002092155Y0000123807D01*
X0002081061Y0000107202D01*
X0002077165Y0000087616D01*
X0001521647Y0000087616D01*
X0001521662Y0000104234D01*
X0001514185Y0000122328D01*
X0001500354Y0000136184D01*
X0001482272Y0000143692D01*
X0001462694Y0000143709D01*
X0001456768Y0000141260D01*
X0001409448Y0000188580D01*
X0001409448Y0000294592D01*
X0001423219Y0000294592D01*
X0001431293Y0000275050D01*
X0001446231Y0000260086D01*
X0001465759Y0000251977D01*
X0001486903Y0000251959D01*
X0001506445Y0000260033D01*
X0001521409Y0000274971D01*
X0001529518Y0000294499D01*
X0001529536Y0000315643D01*
X0001521462Y0000335185D01*
X0001506524Y0000350149D01*
X0001486996Y0000358258D01*
X0001465852Y0000358276D01*
X0001446310Y0000350202D01*
X0001431346Y0000335264D01*
X0001423237Y0000315736D01*
X0001423219Y0000294592D01*
X0001409448Y0000294592D01*
X0001409448Y0000442230D01*
X0001423219Y0000442230D01*
X0001431293Y0000422688D01*
X0001446231Y0000407724D01*
X0001465759Y0000399615D01*
X0001486903Y0000399597D01*
X0001506445Y0000407671D01*
X0001521409Y0000422609D01*
X0001529518Y0000442137D01*
X0001529536Y0000463281D01*
X0001528467Y0000465870D01*
X0001541000Y0000478404D01*
X0001620073Y0000478404D01*
X0001624559Y0000467547D01*
X0001632858Y0000459234D01*
X0001643707Y0000454729D01*
X0001655453Y0000454719D01*
X0001660230Y0000456692D01*
X0001966141Y0000456692D01*
X0001976688Y0000458790D01*
X0001985628Y0000464764D01*
X0002061421Y0000540557D01*
X0002077626Y0000540543D01*
X0002094562Y0000547541D01*
X0002107531Y0000560487D01*
X0002114558Y0000577411D01*
X0002114558Y0000577491D01*
X0002122432Y0000577491D01*
X0002129430Y0000560555D01*
X0002142377Y0000547586D01*
X0002159301Y0000540559D01*
X0002177626Y0000540543D01*
X0002194562Y0000547541D01*
X0002207531Y0000560487D01*
X0002214558Y0000577411D01*
X0002214574Y0000595736D01*
X0002207576Y0000612672D01*
X0002194630Y0000625641D01*
X0002177706Y0000632669D01*
X0002159381Y0000632685D01*
X0002142445Y0000625687D01*
X0002129476Y0000612740D01*
X0002122448Y0000595816D01*
X0002122432Y0000577491D01*
X0002114558Y0000577491D01*
X0002114574Y0000595736D01*
X0002107576Y0000612672D01*
X0002094630Y0000625641D01*
X0002077706Y0000632669D01*
X0002059381Y0000632685D01*
X0002042445Y0000625687D01*
X0002029476Y0000612740D01*
X0002022448Y0000595816D01*
X0002022434Y0000579519D01*
X0002010463Y0000567547D01*
X0002014558Y0000577411D01*
X0002014574Y0000595736D01*
X0002007577Y0000612672D01*
X0001994630Y0000625641D01*
X0001977706Y0000632669D01*
X0001959381Y0000632685D01*
X0001942445Y0000625687D01*
X0001929476Y0000612740D01*
X0001922448Y0000595816D01*
X0001922432Y0000577491D01*
X0001929430Y0000560555D01*
X0001942377Y0000547586D01*
X0001959301Y0000540559D01*
X0001977626Y0000540543D01*
X0001987565Y0000544649D01*
X0001954726Y0000511811D01*
X0001660233Y0000511811D01*
X0001655505Y0000513774D01*
X0001643758Y0000513784D01*
X0001632902Y0000509298D01*
X0001624588Y0000500999D01*
X0001620083Y0000490151D01*
X0001620073Y0000478404D01*
X0001541000Y0000478404D01*
X0001720076Y0000657480D01*
X0002091338Y0000657480D01*
X0002101885Y0000659578D01*
X0002110825Y0000665552D01*
X0002215156Y0000769882D01*
X0002215156Y0000769882D01*
X0002218116Y0000772842D01*
X0002229133Y0000770650D01*
X0002248720Y0000774546D01*
X0002265324Y0000785641D01*
X0002276419Y0000802245D01*
X0002280314Y0000821831D01*
X0002280314Y0000823837D01*
X0002276419Y0000843423D01*
X0002265324Y0000860027D01*
X0002248720Y0000871122D01*
X0002229133Y0000875018D01*
X0002209547Y0000871122D01*
X0002192943Y0000860027D01*
X0002181848Y0000843423D01*
X0002179133Y0000829775D01*
X0002176419Y0000843423D01*
X0002165324Y0000860027D01*
X0002148719Y0000871122D01*
X0002129133Y0000875018D01*
X0002109547Y0000871122D01*
X0002092943Y0000860027D01*
X0002081848Y0000843423D01*
X0002079133Y0000829775D01*
X0002076418Y0000843423D01*
X0002065324Y0000860027D01*
X0002048719Y0000871122D01*
X0002029133Y0000875018D01*
X0002009547Y0000871122D01*
X0001992943Y0000860027D01*
X0001981848Y0000843423D01*
X0001980314Y0000835712D01*
X0001980314Y0000859823D01*
X0001977617Y0000866334D01*
X0001972634Y0000871318D01*
X0001966122Y0000874015D01*
X0001939468Y0000874015D01*
X0001935039Y0000869586D01*
X0001935039Y0000828740D01*
X0001935826Y0000828740D01*
X0001935826Y0000816929D01*
X0001935039Y0000816929D01*
X0001935039Y0000776082D01*
X0001939468Y0000771653D01*
X0001966122Y0000771653D01*
X0001972634Y0000774350D01*
X0001977617Y0000779334D01*
X0001980314Y0000785845D01*
X0001980314Y0000809956D01*
X0001981848Y0000802245D01*
X0001992943Y0000785641D01*
X0002009547Y0000774546D01*
X0002029133Y0000770650D01*
X0002048719Y0000774546D01*
X0002065324Y0000785641D01*
X0002076418Y0000802245D01*
X0002079133Y0000815894D01*
X0002081848Y0000802245D01*
X0002092943Y0000785641D01*
X0002109547Y0000774546D01*
X0002129133Y0000770650D01*
X0002140171Y0000772846D01*
X0002079923Y0000712598D01*
X0001708661Y0000712598D01*
X0001698115Y0000710500D01*
X0001689174Y0000704526D01*
X0001489503Y0000504855D01*
X0001486996Y0000505896D01*
X0001465852Y0000505914D01*
X0001446310Y0000497840D01*
X0001431346Y0000482902D01*
X0001423237Y0000463374D01*
X0001423219Y0000442230D01*
X0001409448Y0000442230D01*
X0001409448Y0000709057D01*
X0001462327Y0000761936D01*
X0001462609Y0000761819D01*
X0001482186Y0000761802D01*
X0001492499Y0000766063D01*
X0001459674Y0000733238D01*
X0001454554Y0000725575D01*
X0001452755Y0000716535D01*
X0001452755Y0000648141D01*
X0001446310Y0000645478D01*
X0001431346Y0000630539D01*
X0001423237Y0000611012D01*
X0001423219Y0000589867D01*
X0001431293Y0000570326D01*
X0001446231Y0000555361D01*
X0001465759Y0000547253D01*
X0001486903Y0000547234D01*
X0001506445Y0000555309D01*
X0001521409Y0000570247D01*
X0001529518Y0000589775D01*
X0001529536Y0000610919D01*
X0001521462Y0000630461D01*
X0001506524Y0000645425D01*
X0001499999Y0000648134D01*
X0001499999Y0000706750D01*
X0001574741Y0000781492D01*
X0001580612Y0000781487D01*
X0001598706Y0000788963D01*
X0001612562Y0000802795D01*
X0001620070Y0000820876D01*
X0001620070Y0000820962D01*
X0001718495Y0000820962D01*
X0001725971Y0000802868D01*
X0001739803Y0000789012D01*
X0001757884Y0000781504D01*
X0001777462Y0000781487D01*
X0001795556Y0000788963D01*
X0001809412Y0000802795D01*
X0001813442Y0000812500D01*
X0001877952Y0000812500D01*
X0001877952Y0000785845D01*
X0001880649Y0000779334D01*
X0001885633Y0000774350D01*
X0001892145Y0000771653D01*
X0001918799Y0000771653D01*
X0001923228Y0000776082D01*
X0001923228Y0000816929D01*
X0001882381Y0000816929D01*
X0001877952Y0000812500D01*
X0001813442Y0000812500D01*
X0001816920Y0000820876D01*
X0001816937Y0000840454D01*
X0001809461Y0000858548D01*
X0001808189Y0000859823D01*
X0001877952Y0000859823D01*
X0001877952Y0000833169D01*
X0001882381Y0000828740D01*
X0001923228Y0000828740D01*
X0001923228Y0000869586D01*
X0001918799Y0000874015D01*
X0001892145Y0000874015D01*
X0001885633Y0000871318D01*
X0001880649Y0000866334D01*
X0001877952Y0000859823D01*
X0001808189Y0000859823D01*
X0001795629Y0000872404D01*
X0001777548Y0000879912D01*
X0001757970Y0000879929D01*
X0001739876Y0000872453D01*
X0001726020Y0000858621D01*
X0001718512Y0000840540D01*
X0001718495Y0000820962D01*
X0001620070Y0000820962D01*
X0001620087Y0000840454D01*
X0001612610Y0000858548D01*
X0001598779Y0000872404D01*
X0001580698Y0000879912D01*
X0001561120Y0000879929D01*
X0001543025Y0000872453D01*
X0001529170Y0000858621D01*
X0001521662Y0000840540D01*
X0001521645Y0000820962D01*
X0001529121Y0000802868D01*
X0001529212Y0000802776D01*
X0001517396Y0000790960D01*
X0001521645Y0000801191D01*
X0001521662Y0000820769D01*
X0001514185Y0000838863D01*
X0001500354Y0000852719D01*
X0001482272Y0000860227D01*
X0001462694Y0000860244D01*
X0001444600Y0000852768D01*
X0001430744Y0000838936D01*
X0001423236Y0000820855D01*
X0001423219Y0000801277D01*
X0001423366Y0000800923D01*
X0001362402Y0000739959D01*
X0001356428Y0000731018D01*
X0001356428Y0000731018D01*
X0001354330Y0000720472D01*
X0001221456Y0000720472D01*
X0001221456Y0000801277D01*
X0001226369Y0000801277D01*
X0001233845Y0000783183D01*
X0001247677Y0000769327D01*
X0001265758Y0000761819D01*
X0001285336Y0000761802D01*
X0001303430Y0000769278D01*
X0001317286Y0000783110D01*
X0001324794Y0000801191D01*
X0001324811Y0000820769D01*
X0001317335Y0000838863D01*
X0001303503Y0000852719D01*
X0001285422Y0000860227D01*
X0001265844Y0000860244D01*
X0001247750Y0000852768D01*
X0001233894Y0000838936D01*
X0001226386Y0000820855D01*
X0001226369Y0000801277D01*
X0001221456Y0000801277D01*
X0001221456Y0000884842D01*
X0002282480Y0000884842D01*
X0002282480Y0000020669D01*
G04 next file*
G04 #@! TF.FileFunction,Copper,L2,Bot,Signal*
G04 Gerber Fmt 4.6, Leading zero omitted, Abs format (unit mm)*
G04 Created by KiCad (PCBNEW 4.0.4-1.fc24-product) date Tue Aug 28 14:06:47 2018*
G01G01*
G04 APERTURE LIST*
G04 APERTURE END LIST*
D38*
D39*
X-0005393700Y0005255905D02*
X0000074803Y0001814960D03*
X0000271653Y0001814960D03*
D40*
X0000078740Y0001604330D03*
X0000078740Y0001456692D03*
X0000078740Y0001309055D03*
X0000275590Y0001604330D03*
X0000275590Y0001456692D03*
X0000275590Y0001309055D03*
D41*
X0000767716Y0001590551D03*
X0000867716Y0001590551D03*
X0000967716Y0001590551D03*
D42*
X0000927559Y0001090551D03*
D43*
X0001027559Y0001090551D03*
D42*
X0001028346Y0001826771D03*
X0000928346Y0001826771D03*
X0000828346Y0001826771D03*
D43*
X0000728346Y0001826771D03*
D39*
X0000271653Y0001098425D03*
X0000074803Y0001098425D03*
X0000566929Y0001834645D03*
X0000370078Y0001834645D03*
D44*
X0000527559Y0001137795D03*
X0000393700Y0001374015D03*
X0000393700Y0001685039D03*
X0000448818Y0001488188D03*
D45*
X0000275590Y0001604330D02*
X0000275590Y0001720472D01*
X0000275590Y0001720472D02*
X0000370078Y0001814960D01*
D46*
X0000271653Y0001098425D02*
X0000263779Y0001098425D01*
X0000263779Y0001098425D02*
X0000181102Y0001181102D01*
X0000240157Y0001783464D02*
X0000271653Y0001814960D01*
X0000181102Y0001724409D02*
X0000240157Y0001783464D01*
X0000181102Y0001181102D02*
X0000181102Y0001724409D01*
X0000465522Y0001488188D02*
X0000448818Y0001488188D01*
X0000765354Y0001488188D02*
X0000465522Y0001488188D01*
X0000867716Y0001590551D02*
X0000765354Y0001488188D01*
X0000275590Y0001456692D02*
X0000507874Y0001688976D01*
X0000507874Y0001688976D02*
X0000890551Y0001688976D01*
X0000890551Y0001688976D02*
X0000994881Y0001793307D01*
X0000994881Y0001793307D02*
X0001028346Y0001826771D01*
X0000275590Y0001456692D02*
X0000279527Y0001456692D01*
D45*
G36*
X0001081692Y0001024606D02*
X0000020669Y0001024606D01*
X0000020669Y0001088679D01*
X0000025582Y0001088679D01*
X0000033058Y0001070584D01*
X0000046890Y0001056729D01*
X0000064971Y0001049221D01*
X0000084549Y0001049204D01*
X0000102643Y0001056680D01*
X0000116499Y0001070512D01*
X0000124007Y0001088593D01*
X0000124024Y0001108171D01*
X0000116547Y0001126265D01*
X0000102716Y0001140121D01*
X0000084635Y0001147629D01*
X0000065057Y0001147646D01*
X0000046962Y0001140169D01*
X0000033107Y0001126338D01*
X0000025599Y0001108257D01*
X0000025582Y0001088679D01*
X0000020669Y0001088679D01*
X0000020669Y0001298529D01*
X0000025581Y0001298529D01*
X0000033655Y0001278987D01*
X0000048593Y0001264023D01*
X0000068121Y0001255914D01*
X0000089265Y0001255896D01*
X0000108807Y0001263970D01*
X0000123771Y0001278908D01*
X0000131880Y0001298436D01*
X0000131898Y0001319580D01*
X0000123824Y0001339122D01*
X0000108886Y0001354086D01*
X0000089358Y0001362195D01*
X0000068214Y0001362213D01*
X0000048672Y0001354139D01*
X0000033708Y0001339201D01*
X0000025599Y0001319673D01*
X0000025581Y0001298529D01*
X0000020669Y0001298529D01*
X0000020669Y0001446167D01*
X0000025581Y0001446167D01*
X0000033655Y0001426625D01*
X0000048593Y0001411661D01*
X0000068121Y0001403552D01*
X0000089265Y0001403534D01*
X0000108807Y0001411608D01*
X0000123771Y0001426546D01*
X0000131880Y0001446074D01*
X0000131898Y0001467218D01*
X0000123824Y0001486760D01*
X0000108886Y0001501724D01*
X0000089358Y0001509833D01*
X0000068214Y0001509851D01*
X0000048672Y0001501777D01*
X0000033708Y0001486839D01*
X0000025599Y0001467311D01*
X0000025581Y0001446167D01*
X0000020669Y0001446167D01*
X0000020669Y0001593805D01*
X0000025581Y0001593805D01*
X0000033655Y0001574263D01*
X0000048593Y0001559298D01*
X0000068121Y0001551190D01*
X0000089265Y0001551171D01*
X0000108807Y0001559246D01*
X0000123771Y0001574184D01*
X0000131880Y0001593712D01*
X0000131898Y0001614856D01*
X0000123824Y0001634398D01*
X0000108886Y0001649362D01*
X0000089358Y0001657471D01*
X0000068214Y0001657489D01*
X0000048672Y0001649415D01*
X0000033708Y0001634476D01*
X0000025599Y0001614949D01*
X0000025581Y0001593805D01*
X0000020669Y0001593805D01*
X0000020669Y0001724409D01*
X0000153543Y0001724409D01*
X0000153543Y0001181102D01*
X0000155641Y0001170555D01*
X0000161615Y0001161615D01*
X0000222442Y0001100787D01*
X0000222432Y0001088679D01*
X0000229908Y0001070584D01*
X0000243740Y0001056729D01*
X0000261821Y0001049221D01*
X0000281399Y0001049204D01*
X0000299493Y0001056680D01*
X0000313349Y0001070512D01*
X0000320857Y0001088593D01*
X0000320860Y0001091553D01*
X0000876377Y0001091553D01*
X0000876377Y0001089548D01*
X0000880273Y0001069962D01*
X0000891368Y0001053357D01*
X0000907972Y0001042263D01*
X0000927559Y0001038367D01*
X0000947145Y0001042263D01*
X0000963749Y0001053357D01*
X0000974844Y0001069962D01*
X0000976377Y0001077672D01*
X0000976377Y0001053562D01*
X0000979075Y0001047050D01*
X0000984058Y0001042067D01*
X0000990570Y0001039370D01*
X0001017224Y0001039370D01*
X0001021653Y0001043799D01*
X0001021653Y0001084645D01*
X0001033464Y0001084645D01*
X0001033464Y0001043799D01*
X0001037893Y0001039370D01*
X0001064547Y0001039370D01*
X0001071059Y0001042067D01*
X0001076042Y0001047050D01*
X0001078740Y0001053562D01*
X0001078740Y0001080216D01*
X0001074310Y0001084645D01*
X0001033464Y0001084645D01*
X0001021653Y0001084645D01*
X0001020866Y0001084645D01*
X0001020866Y0001096456D01*
X0001021653Y0001096456D01*
X0001021653Y0001137303D01*
X0001033464Y0001137303D01*
X0001033464Y0001096456D01*
X0001074310Y0001096456D01*
X0001078740Y0001100885D01*
X0001078740Y0001127539D01*
X0001076042Y0001134051D01*
X0001071059Y0001139035D01*
X0001064547Y0001141732D01*
X0001037893Y0001141732D01*
X0001033464Y0001137303D01*
X0001021653Y0001137303D01*
X0001017224Y0001141732D01*
X0000990570Y0001141732D01*
X0000984058Y0001139035D01*
X0000979075Y0001134051D01*
X0000976377Y0001127539D01*
X0000976377Y0001103429D01*
X0000974844Y0001111140D01*
X0000963749Y0001127744D01*
X0000947145Y0001138839D01*
X0000927559Y0001142735D01*
X0000907972Y0001138839D01*
X0000891368Y0001127744D01*
X0000880273Y0001111140D01*
X0000876377Y0001091553D01*
X0000320860Y0001091553D01*
X0000320874Y0001108171D01*
X0000313398Y0001126265D01*
X0000299566Y0001140121D01*
X0000281485Y0001147629D01*
X0000261907Y0001147646D01*
X0000255981Y0001145197D01*
X0000208661Y0001192517D01*
X0000208661Y0001298529D01*
X0000222431Y0001298529D01*
X0000230506Y0001278987D01*
X0000245444Y0001264023D01*
X0000264972Y0001255914D01*
X0000286116Y0001255896D01*
X0000305658Y0001263970D01*
X0000320622Y0001278908D01*
X0000328730Y0001298436D01*
X0000328749Y0001319580D01*
X0000320674Y0001339122D01*
X0000305736Y0001354086D01*
X0000286209Y0001362195D01*
X0000265064Y0001362213D01*
X0000245523Y0001354139D01*
X0000230558Y0001339201D01*
X0000222450Y0001319673D01*
X0000222431Y0001298529D01*
X0000208661Y0001298529D01*
X0000208661Y0001446167D01*
X0000222431Y0001446167D01*
X0000230506Y0001426625D01*
X0000245444Y0001411661D01*
X0000264972Y0001403552D01*
X0000286116Y0001403534D01*
X0000305658Y0001411608D01*
X0000320622Y0001426546D01*
X0000328730Y0001446074D01*
X0000328749Y0001467218D01*
X0000327679Y0001469807D01*
X0000340213Y0001482341D01*
X0000419286Y0001482341D01*
X0000423772Y0001471484D01*
X0000432071Y0001463171D01*
X0000442919Y0001458666D01*
X0000454666Y0001458656D01*
X0000459442Y0001460629D01*
X0000765354Y0001460629D01*
X0000775900Y0001462727D01*
X0000784841Y0001468701D01*
X0000860634Y0001544494D01*
X0000876838Y0001544480D01*
X0000893775Y0001551478D01*
X0000906744Y0001564424D01*
X0000913771Y0001581348D01*
X0000913771Y0001581428D01*
X0000921645Y0001581428D01*
X0000928643Y0001564492D01*
X0000941589Y0001551523D01*
X0000958513Y0001544496D01*
X0000976838Y0001544480D01*
X0000993775Y0001551478D01*
X0001006744Y0001564424D01*
X0001013771Y0001581348D01*
X0001013787Y0001599673D01*
X0001006789Y0001616609D01*
X0000993843Y0001629578D01*
X0000976919Y0001636606D01*
X0000958594Y0001636622D01*
X0000941658Y0001629624D01*
X0000928688Y0001616677D01*
X0000921661Y0001599753D01*
X0000921645Y0001581428D01*
X0000913771Y0001581428D01*
X0000913787Y0001599673D01*
X0000906789Y0001616609D01*
X0000893843Y0001629578D01*
X0000876919Y0001636606D01*
X0000858594Y0001636622D01*
X0000841658Y0001629624D01*
X0000828688Y0001616677D01*
X0000821661Y0001599753D01*
X0000821647Y0001583456D01*
X0000809675Y0001571484D01*
X0000813771Y0001581348D01*
X0000813787Y0001599673D01*
X0000806789Y0001616609D01*
X0000793843Y0001629578D01*
X0000776919Y0001636606D01*
X0000758594Y0001636622D01*
X0000741657Y0001629624D01*
X0000728688Y0001616677D01*
X0000721661Y0001599753D01*
X0000721645Y0001581428D01*
X0000728643Y0001564492D01*
X0000741589Y0001551523D01*
X0000758513Y0001544496D01*
X0000776838Y0001544480D01*
X0000786777Y0001548586D01*
X0000753938Y0001515748D01*
X0000459446Y0001515748D01*
X0000454718Y0001517711D01*
X0000442971Y0001517721D01*
X0000432114Y0001513235D01*
X0000423801Y0001504936D01*
X0000419296Y0001494088D01*
X0000419286Y0001482341D01*
X0000340213Y0001482341D01*
X0000519289Y0001661417D01*
X0000890551Y0001661417D01*
X0000901097Y0001663515D01*
X0000910038Y0001669489D01*
X0001014368Y0001773819D01*
X0001014369Y0001773819D01*
X0001017328Y0001776779D01*
X0001028346Y0001774587D01*
X0001047932Y0001778483D01*
X0001064536Y0001789578D01*
X0001075631Y0001806182D01*
X0001079527Y0001825768D01*
X0001079527Y0001827774D01*
X0001075631Y0001847360D01*
X0001064536Y0001863964D01*
X0001047932Y0001875059D01*
X0001028346Y0001878955D01*
X0001008760Y0001875059D01*
X0000992155Y0001863964D01*
X0000981061Y0001847360D01*
X0000978346Y0001833712D01*
X0000975631Y0001847360D01*
X0000964536Y0001863964D01*
X0000947932Y0001875059D01*
X0000928346Y0001878955D01*
X0000908760Y0001875059D01*
X0000892155Y0001863964D01*
X0000881061Y0001847360D01*
X0000878346Y0001833712D01*
X0000875631Y0001847360D01*
X0000864536Y0001863964D01*
X0000847932Y0001875059D01*
X0000828346Y0001878955D01*
X0000808760Y0001875059D01*
X0000792155Y0001863964D01*
X0000781061Y0001847360D01*
X0000779527Y0001839649D01*
X0000779527Y0001863760D01*
X0000776830Y0001870271D01*
X0000771846Y0001875255D01*
X0000765335Y0001877952D01*
X0000738681Y0001877952D01*
X0000734251Y0001873523D01*
X0000734251Y0001832677D01*
X0000735039Y0001832677D01*
X0000735039Y0001820866D01*
X0000734251Y0001820866D01*
X0000734251Y0001780019D01*
X0000738681Y0001775590D01*
X0000765335Y0001775590D01*
X0000771846Y0001778287D01*
X0000776830Y0001783271D01*
X0000779527Y0001789782D01*
X0000779527Y0001813893D01*
X0000781061Y0001806182D01*
X0000792155Y0001789578D01*
X0000808760Y0001778483D01*
X0000828346Y0001774587D01*
X0000847932Y0001778483D01*
X0000864536Y0001789578D01*
X0000875631Y0001806182D01*
X0000878346Y0001819831D01*
X0000881061Y0001806182D01*
X0000892155Y0001789578D01*
X0000908760Y0001778483D01*
X0000928346Y0001774587D01*
X0000939383Y0001776783D01*
X0000879135Y0001716535D01*
X0000507874Y0001716535D01*
X0000497327Y0001714437D01*
X0000488386Y0001708463D01*
X0000288715Y0001508792D01*
X0000286209Y0001509833D01*
X0000265064Y0001509851D01*
X0000245523Y0001501777D01*
X0000230558Y0001486839D01*
X0000222450Y0001467311D01*
X0000222431Y0001446167D01*
X0000208661Y0001446167D01*
X0000208661Y0001712994D01*
X0000261540Y0001765873D01*
X0000261821Y0001765756D01*
X0000281399Y0001765739D01*
X0000291711Y0001770000D01*
X0000258887Y0001737175D01*
X0000253766Y0001729512D01*
X0000251968Y0001720472D01*
X0000251968Y0001652078D01*
X0000245523Y0001649415D01*
X0000230558Y0001634476D01*
X0000222450Y0001614949D01*
X0000222431Y0001593805D01*
X0000230506Y0001574263D01*
X0000245444Y0001559298D01*
X0000264972Y0001551190D01*
X0000286116Y0001551171D01*
X0000305658Y0001559246D01*
X0000320622Y0001574184D01*
X0000328730Y0001593712D01*
X0000328749Y0001614856D01*
X0000320674Y0001634398D01*
X0000305736Y0001649362D01*
X0000299212Y0001652071D01*
X0000299212Y0001710687D01*
X0000373954Y0001785429D01*
X0000379824Y0001785424D01*
X0000397919Y0001792900D01*
X0000411774Y0001806732D01*
X0000419282Y0001824813D01*
X0000419282Y0001824899D01*
X0000517707Y0001824899D01*
X0000525184Y0001806805D01*
X0000539016Y0001792949D01*
X0000557097Y0001785441D01*
X0000576675Y0001785424D01*
X0000594769Y0001792900D01*
X0000608625Y0001806732D01*
X0000612654Y0001816437D01*
X0000677165Y0001816437D01*
X0000677165Y0001789782D01*
X0000679862Y0001783271D01*
X0000684846Y0001778287D01*
X0000691357Y0001775590D01*
X0000718011Y0001775590D01*
X0000722440Y0001780019D01*
X0000722440Y0001820866D01*
X0000681594Y0001820866D01*
X0000677165Y0001816437D01*
X0000612654Y0001816437D01*
X0000616133Y0001824813D01*
X0000616150Y0001844391D01*
X0000608673Y0001862485D01*
X0000607401Y0001863760D01*
X0000677165Y0001863760D01*
X0000677165Y0001837106D01*
X0000681594Y0001832677D01*
X0000722440Y0001832677D01*
X0000722440Y0001873523D01*
X0000718011Y0001877952D01*
X0000691357Y0001877952D01*
X0000684846Y0001875255D01*
X0000679862Y0001870271D01*
X0000677165Y0001863760D01*
X0000607401Y0001863760D01*
X0000594842Y0001876341D01*
X0000576761Y0001883849D01*
X0000557183Y0001883866D01*
X0000539088Y0001876390D01*
X0000525233Y0001862558D01*
X0000517725Y0001844477D01*
X0000517707Y0001824899D01*
X0000419282Y0001824899D01*
X0000419299Y0001844391D01*
X0000411823Y0001862485D01*
X0000397991Y0001876341D01*
X0000379910Y0001883849D01*
X0000360332Y0001883866D01*
X0000342238Y0001876390D01*
X0000328382Y0001862558D01*
X0000320874Y0001844477D01*
X0000320857Y0001824899D01*
X0000328334Y0001806805D01*
X0000328425Y0001806713D01*
X0000316609Y0001794897D01*
X0000320857Y0001805128D01*
X0000320874Y0001824706D01*
X0000313398Y0001842800D01*
X0000299566Y0001856656D01*
X0000281485Y0001864164D01*
X0000261907Y0001864181D01*
X0000243813Y0001856705D01*
X0000229957Y0001842873D01*
X0000222449Y0001824792D01*
X0000222432Y0001805214D01*
X0000222578Y0001804860D01*
X0000161615Y0001743896D01*
X0000155641Y0001734955D01*
X0000155641Y0001734955D01*
X0000153543Y0001724409D01*
X0000020669Y0001724409D01*
X0000020669Y0001805214D01*
X0000025582Y0001805214D01*
X0000033058Y0001787120D01*
X0000046890Y0001773264D01*
X0000064971Y0001765756D01*
X0000084549Y0001765739D01*
X0000102643Y0001773215D01*
X0000116499Y0001787047D01*
X0000124007Y0001805128D01*
X0000124024Y0001824706D01*
X0000116547Y0001842800D01*
X0000102716Y0001856656D01*
X0000084635Y0001864164D01*
X0000065057Y0001864181D01*
X0000046962Y0001856705D01*
X0000033107Y0001842873D01*
X0000025599Y0001824792D01*
X0000025582Y0001805214D01*
X0000020669Y0001805214D01*
X0000020669Y0001888779D01*
X0001081692Y0001888779D01*
X0001081692Y0001024606D01*
X0001081692Y0001024606D01*
G37*
X0001081692Y0001024606D02*
X0000020669Y0001024606D01*
X0000020669Y0001088679D01*
X0000025582Y0001088679D01*
X0000033058Y0001070584D01*
X0000046890Y0001056729D01*
X0000064971Y0001049221D01*
X0000084549Y0001049204D01*
X0000102643Y0001056680D01*
X0000116499Y0001070512D01*
X0000124007Y0001088593D01*
X0000124024Y0001108171D01*
X0000116547Y0001126265D01*
X0000102716Y0001140121D01*
X0000084635Y0001147629D01*
X0000065057Y0001147646D01*
X0000046962Y0001140169D01*
X0000033107Y0001126338D01*
X0000025599Y0001108257D01*
X0000025582Y0001088679D01*
X0000020669Y0001088679D01*
X0000020669Y0001298529D01*
X0000025581Y0001298529D01*
X0000033655Y0001278987D01*
X0000048593Y0001264023D01*
X0000068121Y0001255914D01*
X0000089265Y0001255896D01*
X0000108807Y0001263970D01*
X0000123771Y0001278908D01*
X0000131880Y0001298436D01*
X0000131898Y0001319580D01*
X0000123824Y0001339122D01*
X0000108886Y0001354086D01*
X0000089358Y0001362195D01*
X0000068214Y0001362213D01*
X0000048672Y0001354139D01*
X0000033708Y0001339201D01*
X0000025599Y0001319673D01*
X0000025581Y0001298529D01*
X0000020669Y0001298529D01*
X0000020669Y0001446167D01*
X0000025581Y0001446167D01*
X0000033655Y0001426625D01*
X0000048593Y0001411661D01*
X0000068121Y0001403552D01*
X0000089265Y0001403534D01*
X0000108807Y0001411608D01*
X0000123771Y0001426546D01*
X0000131880Y0001446074D01*
X0000131898Y0001467218D01*
X0000123824Y0001486760D01*
X0000108886Y0001501724D01*
X0000089358Y0001509833D01*
X0000068214Y0001509851D01*
X0000048672Y0001501777D01*
X0000033708Y0001486839D01*
X0000025599Y0001467311D01*
X0000025581Y0001446167D01*
X0000020669Y0001446167D01*
X0000020669Y0001593805D01*
X0000025581Y0001593805D01*
X0000033655Y0001574263D01*
X0000048593Y0001559298D01*
X0000068121Y0001551190D01*
X0000089265Y0001551171D01*
X0000108807Y0001559246D01*
X0000123771Y0001574184D01*
X0000131880Y0001593712D01*
X0000131898Y0001614856D01*
X0000123824Y0001634398D01*
X0000108886Y0001649362D01*
X0000089358Y0001657471D01*
X0000068214Y0001657489D01*
X0000048672Y0001649415D01*
X0000033708Y0001634476D01*
X0000025599Y0001614949D01*
X0000025581Y0001593805D01*
X0000020669Y0001593805D01*
X0000020669Y0001724409D01*
X0000153543Y0001724409D01*
X0000153543Y0001181102D01*
X0000155641Y0001170555D01*
X0000161615Y0001161615D01*
X0000222442Y0001100787D01*
X0000222432Y0001088679D01*
X0000229908Y0001070584D01*
X0000243740Y0001056729D01*
X0000261821Y0001049221D01*
X0000281399Y0001049204D01*
X0000299493Y0001056680D01*
X0000313349Y0001070512D01*
X0000320857Y0001088593D01*
X0000320860Y0001091553D01*
X0000876377Y0001091553D01*
X0000876377Y0001089548D01*
X0000880273Y0001069962D01*
X0000891368Y0001053357D01*
X0000907972Y0001042263D01*
X0000927559Y0001038367D01*
X0000947145Y0001042263D01*
X0000963749Y0001053357D01*
X0000974844Y0001069962D01*
X0000976377Y0001077672D01*
X0000976377Y0001053562D01*
X0000979075Y0001047050D01*
X0000984058Y0001042067D01*
X0000990570Y0001039370D01*
X0001017224Y0001039370D01*
X0001021653Y0001043799D01*
X0001021653Y0001084645D01*
X0001033464Y0001084645D01*
X0001033464Y0001043799D01*
X0001037893Y0001039370D01*
X0001064547Y0001039370D01*
X0001071059Y0001042067D01*
X0001076042Y0001047050D01*
X0001078740Y0001053562D01*
X0001078740Y0001080216D01*
X0001074310Y0001084645D01*
X0001033464Y0001084645D01*
X0001021653Y0001084645D01*
X0001020866Y0001084645D01*
X0001020866Y0001096456D01*
X0001021653Y0001096456D01*
X0001021653Y0001137303D01*
X0001033464Y0001137303D01*
X0001033464Y0001096456D01*
X0001074310Y0001096456D01*
X0001078740Y0001100885D01*
X0001078740Y0001127539D01*
X0001076042Y0001134051D01*
X0001071059Y0001139035D01*
X0001064547Y0001141732D01*
X0001037893Y0001141732D01*
X0001033464Y0001137303D01*
X0001021653Y0001137303D01*
X0001017224Y0001141732D01*
X0000990570Y0001141732D01*
X0000984058Y0001139035D01*
X0000979075Y0001134051D01*
X0000976377Y0001127539D01*
X0000976377Y0001103429D01*
X0000974844Y0001111140D01*
X0000963749Y0001127744D01*
X0000947145Y0001138839D01*
X0000927559Y0001142735D01*
X0000907972Y0001138839D01*
X0000891368Y0001127744D01*
X0000880273Y0001111140D01*
X0000876377Y0001091553D01*
X0000320860Y0001091553D01*
X0000320874Y0001108171D01*
X0000313398Y0001126265D01*
X0000299566Y0001140121D01*
X0000281485Y0001147629D01*
X0000261907Y0001147646D01*
X0000255981Y0001145197D01*
X0000208661Y0001192517D01*
X0000208661Y0001298529D01*
X0000222431Y0001298529D01*
X0000230506Y0001278987D01*
X0000245444Y0001264023D01*
X0000264972Y0001255914D01*
X0000286116Y0001255896D01*
X0000305658Y0001263970D01*
X0000320622Y0001278908D01*
X0000328730Y0001298436D01*
X0000328749Y0001319580D01*
X0000320674Y0001339122D01*
X0000305736Y0001354086D01*
X0000286209Y0001362195D01*
X0000265064Y0001362213D01*
X0000245523Y0001354139D01*
X0000230558Y0001339201D01*
X0000222450Y0001319673D01*
X0000222431Y0001298529D01*
X0000208661Y0001298529D01*
X0000208661Y0001446167D01*
X0000222431Y0001446167D01*
X0000230506Y0001426625D01*
X0000245444Y0001411661D01*
X0000264972Y0001403552D01*
X0000286116Y0001403534D01*
X0000305658Y0001411608D01*
X0000320622Y0001426546D01*
X0000328730Y0001446074D01*
X0000328749Y0001467218D01*
X0000327679Y0001469807D01*
X0000340213Y0001482341D01*
X0000419286Y0001482341D01*
X0000423772Y0001471484D01*
X0000432071Y0001463171D01*
X0000442919Y0001458666D01*
X0000454666Y0001458656D01*
X0000459442Y0001460629D01*
X0000765354Y0001460629D01*
X0000775900Y0001462727D01*
X0000784841Y0001468701D01*
X0000860634Y0001544494D01*
X0000876838Y0001544480D01*
X0000893775Y0001551478D01*
X0000906744Y0001564424D01*
X0000913771Y0001581348D01*
X0000913771Y0001581428D01*
X0000921645Y0001581428D01*
X0000928643Y0001564492D01*
X0000941589Y0001551523D01*
X0000958513Y0001544496D01*
X0000976838Y0001544480D01*
X0000993775Y0001551478D01*
X0001006744Y0001564424D01*
X0001013771Y0001581348D01*
X0001013787Y0001599673D01*
X0001006789Y0001616609D01*
X0000993843Y0001629578D01*
X0000976919Y0001636606D01*
X0000958594Y0001636622D01*
X0000941658Y0001629624D01*
X0000928688Y0001616677D01*
X0000921661Y0001599753D01*
X0000921645Y0001581428D01*
X0000913771Y0001581428D01*
X0000913787Y0001599673D01*
X0000906789Y0001616609D01*
X0000893843Y0001629578D01*
X0000876919Y0001636606D01*
X0000858594Y0001636622D01*
X0000841658Y0001629624D01*
X0000828688Y0001616677D01*
X0000821661Y0001599753D01*
X0000821647Y0001583456D01*
X0000809675Y0001571484D01*
X0000813771Y0001581348D01*
X0000813787Y0001599673D01*
X0000806789Y0001616609D01*
X0000793843Y0001629578D01*
X0000776919Y0001636606D01*
X0000758594Y0001636622D01*
X0000741657Y0001629624D01*
X0000728688Y0001616677D01*
X0000721661Y0001599753D01*
X0000721645Y0001581428D01*
X0000728643Y0001564492D01*
X0000741589Y0001551523D01*
X0000758513Y0001544496D01*
X0000776838Y0001544480D01*
X0000786777Y0001548586D01*
X0000753938Y0001515748D01*
X0000459446Y0001515748D01*
X0000454718Y0001517711D01*
X0000442971Y0001517721D01*
X0000432114Y0001513235D01*
X0000423801Y0001504936D01*
X0000419296Y0001494088D01*
X0000419286Y0001482341D01*
X0000340213Y0001482341D01*
X0000519289Y0001661417D01*
X0000890551Y0001661417D01*
X0000901097Y0001663515D01*
X0000910038Y0001669489D01*
X0001014368Y0001773819D01*
X0001014369Y0001773819D01*
X0001017328Y0001776779D01*
X0001028346Y0001774587D01*
X0001047932Y0001778483D01*
X0001064536Y0001789578D01*
X0001075631Y0001806182D01*
X0001079527Y0001825768D01*
X0001079527Y0001827774D01*
X0001075631Y0001847360D01*
X0001064536Y0001863964D01*
X0001047932Y0001875059D01*
X0001028346Y0001878955D01*
X0001008760Y0001875059D01*
X0000992155Y0001863964D01*
X0000981061Y0001847360D01*
X0000978346Y0001833712D01*
X0000975631Y0001847360D01*
X0000964536Y0001863964D01*
X0000947932Y0001875059D01*
X0000928346Y0001878955D01*
X0000908760Y0001875059D01*
X0000892155Y0001863964D01*
X0000881061Y0001847360D01*
X0000878346Y0001833712D01*
X0000875631Y0001847360D01*
X0000864536Y0001863964D01*
X0000847932Y0001875059D01*
X0000828346Y0001878955D01*
X0000808760Y0001875059D01*
X0000792155Y0001863964D01*
X0000781061Y0001847360D01*
X0000779527Y0001839649D01*
X0000779527Y0001863760D01*
X0000776830Y0001870271D01*
X0000771846Y0001875255D01*
X0000765335Y0001877952D01*
X0000738681Y0001877952D01*
X0000734251Y0001873523D01*
X0000734251Y0001832677D01*
X0000735039Y0001832677D01*
X0000735039Y0001820866D01*
X0000734251Y0001820866D01*
X0000734251Y0001780019D01*
X0000738681Y0001775590D01*
X0000765335Y0001775590D01*
X0000771846Y0001778287D01*
X0000776830Y0001783271D01*
X0000779527Y0001789782D01*
X0000779527Y0001813893D01*
X0000781061Y0001806182D01*
X0000792155Y0001789578D01*
X0000808760Y0001778483D01*
X0000828346Y0001774587D01*
X0000847932Y0001778483D01*
X0000864536Y0001789578D01*
X0000875631Y0001806182D01*
X0000878346Y0001819831D01*
X0000881061Y0001806182D01*
X0000892155Y0001789578D01*
X0000908760Y0001778483D01*
X0000928346Y0001774587D01*
X0000939383Y0001776783D01*
X0000879135Y0001716535D01*
X0000507874Y0001716535D01*
X0000497327Y0001714437D01*
X0000488386Y0001708463D01*
X0000288715Y0001508792D01*
X0000286209Y0001509833D01*
X0000265064Y0001509851D01*
X0000245523Y0001501777D01*
X0000230558Y0001486839D01*
X0000222450Y0001467311D01*
X0000222431Y0001446167D01*
X0000208661Y0001446167D01*
X0000208661Y0001712994D01*
X0000261540Y0001765873D01*
X0000261821Y0001765756D01*
X0000281399Y0001765739D01*
X0000291711Y0001770000D01*
X0000258887Y0001737175D01*
X0000253766Y0001729512D01*
X0000251968Y0001720472D01*
X0000251968Y0001652078D01*
X0000245523Y0001649415D01*
X0000230558Y0001634476D01*
X0000222450Y0001614949D01*
X0000222431Y0001593805D01*
X0000230506Y0001574263D01*
X0000245444Y0001559298D01*
X0000264972Y0001551190D01*
X0000286116Y0001551171D01*
X0000305658Y0001559246D01*
X0000320622Y0001574184D01*
X0000328730Y0001593712D01*
X0000328749Y0001614856D01*
X0000320674Y0001634398D01*
X0000305736Y0001649362D01*
X0000299212Y0001652071D01*
X0000299212Y0001710687D01*
X0000373954Y0001785429D01*
X0000379824Y0001785424D01*
X0000397919Y0001792900D01*
X0000411774Y0001806732D01*
X0000419282Y0001824813D01*
X0000419282Y0001824899D01*
X0000517707Y0001824899D01*
X0000525184Y0001806805D01*
X0000539016Y0001792949D01*
X0000557097Y0001785441D01*
X0000576675Y0001785424D01*
X0000594769Y0001792900D01*
X0000608625Y0001806732D01*
X0000612654Y0001816437D01*
X0000677165Y0001816437D01*
X0000677165Y0001789782D01*
X0000679862Y0001783271D01*
X0000684846Y0001778287D01*
X0000691357Y0001775590D01*
X0000718011Y0001775590D01*
X0000722440Y0001780019D01*
X0000722440Y0001820866D01*
X0000681594Y0001820866D01*
X0000677165Y0001816437D01*
X0000612654Y0001816437D01*
X0000616133Y0001824813D01*
X0000616150Y0001844391D01*
X0000608673Y0001862485D01*
X0000607401Y0001863760D01*
X0000677165Y0001863760D01*
X0000677165Y0001837106D01*
X0000681594Y0001832677D01*
X0000722440Y0001832677D01*
X0000722440Y0001873523D01*
X0000718011Y0001877952D01*
X0000691357Y0001877952D01*
X0000684846Y0001875255D01*
X0000679862Y0001870271D01*
X0000677165Y0001863760D01*
X0000607401Y0001863760D01*
X0000594842Y0001876341D01*
X0000576761Y0001883849D01*
X0000557183Y0001883866D01*
X0000539088Y0001876390D01*
X0000525233Y0001862558D01*
X0000517725Y0001844477D01*
X0000517707Y0001824899D01*
X0000419282Y0001824899D01*
X0000419299Y0001844391D01*
X0000411823Y0001862485D01*
X0000397991Y0001876341D01*
X0000379910Y0001883849D01*
X0000360332Y0001883866D01*
X0000342238Y0001876390D01*
X0000328382Y0001862558D01*
X0000320874Y0001844477D01*
X0000320857Y0001824899D01*
X0000328334Y0001806805D01*
X0000328425Y0001806713D01*
X0000316609Y0001794897D01*
X0000320857Y0001805128D01*
X0000320874Y0001824706D01*
X0000313398Y0001842800D01*
X0000299566Y0001856656D01*
X0000281485Y0001864164D01*
X0000261907Y0001864181D01*
X0000243813Y0001856705D01*
X0000229957Y0001842873D01*
X0000222449Y0001824792D01*
X0000222432Y0001805214D01*
X0000222578Y0001804860D01*
X0000161615Y0001743896D01*
X0000155641Y0001734955D01*
X0000155641Y0001734955D01*
X0000153543Y0001724409D01*
X0000020669Y0001724409D01*
X0000020669Y0001805214D01*
X0000025582Y0001805214D01*
X0000033058Y0001787120D01*
X0000046890Y0001773264D01*
X0000064971Y0001765756D01*
X0000084549Y0001765739D01*
X0000102643Y0001773215D01*
X0000116499Y0001787047D01*
X0000124007Y0001805128D01*
X0000124024Y0001824706D01*
X0000116547Y0001842800D01*
X0000102716Y0001856656D01*
X0000084635Y0001864164D01*
X0000065057Y0001864181D01*
X0000046962Y0001856705D01*
X0000033107Y0001842873D01*
X0000025599Y0001824792D01*
X0000025582Y0001805214D01*
X0000020669Y0001805214D01*
X0000020669Y0001888779D01*
X0001081692Y0001888779D01*
X0001081692Y0001024606D01*
G04 next file*
G04 #@! TF.FileFunction,Copper,L2,Bot,Signal*
G04 Gerber Fmt 4.6, Leading zero omitted, Abs format (unit mm)*
G04 Created by KiCad (PCBNEW 4.0.4-1.fc24-product) date Tue Aug 28 14:06:47 2018*
G01G01*
G04 APERTURE LIST*
G04 APERTURE END LIST*
D47*
D48*
X-0004192913Y0005255905D02*
X0001275590Y0001814960D03*
X0001472440Y0001814960D03*
D49*
X0001279527Y0001604330D03*
X0001279527Y0001456692D03*
X0001279527Y0001309055D03*
X0001476377Y0001604330D03*
X0001476377Y0001456692D03*
X0001476377Y0001309055D03*
D50*
X0001968503Y0001590551D03*
X0002068503Y0001590551D03*
X0002168503Y0001590551D03*
D51*
X0002128346Y0001090551D03*
D52*
X0002228346Y0001090551D03*
D51*
X0002229133Y0001826771D03*
X0002129133Y0001826771D03*
X0002029133Y0001826771D03*
D52*
X0001929133Y0001826771D03*
D48*
X0001472440Y0001098425D03*
X0001275590Y0001098425D03*
X0001767716Y0001834645D03*
X0001570866Y0001834645D03*
D53*
X0001728346Y0001137795D03*
X0001594488Y0001374015D03*
X0001594488Y0001685039D03*
X0001649606Y0001488188D03*
D54*
X0001476377Y0001604330D02*
X0001476377Y0001720472D01*
X0001476377Y0001720472D02*
X0001570866Y0001814960D01*
D55*
X0001472440Y0001098425D02*
X0001464566Y0001098425D01*
X0001464566Y0001098425D02*
X0001381889Y0001181102D01*
X0001440944Y0001783464D02*
X0001472440Y0001814960D01*
X0001381889Y0001724409D02*
X0001440944Y0001783464D01*
X0001381889Y0001181102D02*
X0001381889Y0001724409D01*
X0001666309Y0001488188D02*
X0001649606Y0001488188D01*
X0001966141Y0001488188D02*
X0001666309Y0001488188D01*
X0002068503Y0001590551D02*
X0001966141Y0001488188D01*
X0001476377Y0001456692D02*
X0001708661Y0001688976D01*
X0001708661Y0001688976D02*
X0002091338Y0001688976D01*
X0002091338Y0001688976D02*
X0002195669Y0001793307D01*
X0002195669Y0001793307D02*
X0002229133Y0001826771D01*
X0001476377Y0001456692D02*
X0001480314Y0001456692D01*
D54*
G36*
X0002282480Y0001024606D02*
X0001221456Y0001024606D01*
X0001221456Y0001088679D01*
X0001226369Y0001088679D01*
X0001233845Y0001070584D01*
X0001247677Y0001056729D01*
X0001265758Y0001049221D01*
X0001285336Y0001049204D01*
X0001303430Y0001056680D01*
X0001317286Y0001070512D01*
X0001324794Y0001088593D01*
X0001324811Y0001108171D01*
X0001317335Y0001126265D01*
X0001303503Y0001140121D01*
X0001285422Y0001147629D01*
X0001265844Y0001147646D01*
X0001247750Y0001140169D01*
X0001233894Y0001126338D01*
X0001226386Y0001108257D01*
X0001226369Y0001088679D01*
X0001221456Y0001088679D01*
X0001221456Y0001298529D01*
X0001226368Y0001298529D01*
X0001234443Y0001278987D01*
X0001249381Y0001264023D01*
X0001268909Y0001255914D01*
X0001290053Y0001255896D01*
X0001309595Y0001263970D01*
X0001324559Y0001278908D01*
X0001332667Y0001298436D01*
X0001332686Y0001319580D01*
X0001324611Y0001339122D01*
X0001309673Y0001354086D01*
X0001290146Y0001362195D01*
X0001269001Y0001362213D01*
X0001249460Y0001354139D01*
X0001234495Y0001339201D01*
X0001226387Y0001319673D01*
X0001226368Y0001298529D01*
X0001221456Y0001298529D01*
X0001221456Y0001446167D01*
X0001226368Y0001446167D01*
X0001234443Y0001426625D01*
X0001249381Y0001411661D01*
X0001268909Y0001403552D01*
X0001290053Y0001403534D01*
X0001309595Y0001411608D01*
X0001324559Y0001426546D01*
X0001332667Y0001446074D01*
X0001332686Y0001467218D01*
X0001324611Y0001486760D01*
X0001309673Y0001501724D01*
X0001290146Y0001509833D01*
X0001269001Y0001509851D01*
X0001249460Y0001501777D01*
X0001234495Y0001486839D01*
X0001226387Y0001467311D01*
X0001226368Y0001446167D01*
X0001221456Y0001446167D01*
X0001221456Y0001593805D01*
X0001226368Y0001593805D01*
X0001234443Y0001574263D01*
X0001249381Y0001559298D01*
X0001268909Y0001551190D01*
X0001290053Y0001551171D01*
X0001309595Y0001559246D01*
X0001324559Y0001574184D01*
X0001332667Y0001593712D01*
X0001332686Y0001614856D01*
X0001324611Y0001634398D01*
X0001309673Y0001649362D01*
X0001290146Y0001657471D01*
X0001269001Y0001657489D01*
X0001249460Y0001649415D01*
X0001234495Y0001634476D01*
X0001226387Y0001614949D01*
X0001226368Y0001593805D01*
X0001221456Y0001593805D01*
X0001221456Y0001724409D01*
X0001354330Y0001724409D01*
X0001354330Y0001181102D01*
X0001356428Y0001170555D01*
X0001362402Y0001161615D01*
X0001423230Y0001100787D01*
X0001423219Y0001088679D01*
X0001430696Y0001070584D01*
X0001444527Y0001056729D01*
X0001462609Y0001049221D01*
X0001482186Y0001049204D01*
X0001500281Y0001056680D01*
X0001514137Y0001070512D01*
X0001521645Y0001088593D01*
X0001521647Y0001091553D01*
X0002077165Y0001091553D01*
X0002077165Y0001089548D01*
X0002081061Y0001069962D01*
X0002092155Y0001053357D01*
X0002108760Y0001042263D01*
X0002128346Y0001038367D01*
X0002147932Y0001042263D01*
X0002164536Y0001053357D01*
X0002175631Y0001069962D01*
X0002177165Y0001077672D01*
X0002177165Y0001053562D01*
X0002179862Y0001047050D01*
X0002184846Y0001042067D01*
X0002191357Y0001039370D01*
X0002218011Y0001039370D01*
X0002222440Y0001043799D01*
X0002222440Y0001084645D01*
X0002234251Y0001084645D01*
X0002234251Y0001043799D01*
X0002238681Y0001039370D01*
X0002265335Y0001039370D01*
X0002271846Y0001042067D01*
X0002276830Y0001047050D01*
X0002279527Y0001053562D01*
X0002279527Y0001080216D01*
X0002275098Y0001084645D01*
X0002234251Y0001084645D01*
X0002222440Y0001084645D01*
X0002221653Y0001084645D01*
X0002221653Y0001096456D01*
X0002222440Y0001096456D01*
X0002222440Y0001137303D01*
X0002234251Y0001137303D01*
X0002234251Y0001096456D01*
X0002275098Y0001096456D01*
X0002279527Y0001100885D01*
X0002279527Y0001127539D01*
X0002276830Y0001134051D01*
X0002271846Y0001139035D01*
X0002265335Y0001141732D01*
X0002238681Y0001141732D01*
X0002234251Y0001137303D01*
X0002222440Y0001137303D01*
X0002218011Y0001141732D01*
X0002191357Y0001141732D01*
X0002184846Y0001139035D01*
X0002179862Y0001134051D01*
X0002177165Y0001127539D01*
X0002177165Y0001103429D01*
X0002175631Y0001111140D01*
X0002164536Y0001127744D01*
X0002147932Y0001138839D01*
X0002128346Y0001142735D01*
X0002108760Y0001138839D01*
X0002092155Y0001127744D01*
X0002081061Y0001111140D01*
X0002077165Y0001091553D01*
X0001521647Y0001091553D01*
X0001521662Y0001108171D01*
X0001514185Y0001126265D01*
X0001500354Y0001140121D01*
X0001482272Y0001147629D01*
X0001462694Y0001147646D01*
X0001456768Y0001145197D01*
X0001409448Y0001192517D01*
X0001409448Y0001298529D01*
X0001423219Y0001298529D01*
X0001431293Y0001278987D01*
X0001446231Y0001264023D01*
X0001465759Y0001255914D01*
X0001486903Y0001255896D01*
X0001506445Y0001263970D01*
X0001521409Y0001278908D01*
X0001529518Y0001298436D01*
X0001529536Y0001319580D01*
X0001521462Y0001339122D01*
X0001506524Y0001354086D01*
X0001486996Y0001362195D01*
X0001465852Y0001362213D01*
X0001446310Y0001354139D01*
X0001431346Y0001339201D01*
X0001423237Y0001319673D01*
X0001423219Y0001298529D01*
X0001409448Y0001298529D01*
X0001409448Y0001446167D01*
X0001423219Y0001446167D01*
X0001431293Y0001426625D01*
X0001446231Y0001411661D01*
X0001465759Y0001403552D01*
X0001486903Y0001403534D01*
X0001506445Y0001411608D01*
X0001521409Y0001426546D01*
X0001529518Y0001446074D01*
X0001529536Y0001467218D01*
X0001528467Y0001469807D01*
X0001541000Y0001482341D01*
X0001620073Y0001482341D01*
X0001624559Y0001471484D01*
X0001632858Y0001463171D01*
X0001643707Y0001458666D01*
X0001655453Y0001458656D01*
X0001660230Y0001460629D01*
X0001966141Y0001460629D01*
X0001976688Y0001462727D01*
X0001985628Y0001468701D01*
X0002061421Y0001544494D01*
X0002077626Y0001544480D01*
X0002094562Y0001551478D01*
X0002107531Y0001564424D01*
X0002114558Y0001581348D01*
X0002114558Y0001581428D01*
X0002122432Y0001581428D01*
X0002129430Y0001564492D01*
X0002142377Y0001551523D01*
X0002159301Y0001544496D01*
X0002177626Y0001544480D01*
X0002194562Y0001551478D01*
X0002207531Y0001564424D01*
X0002214558Y0001581348D01*
X0002214574Y0001599673D01*
X0002207576Y0001616609D01*
X0002194630Y0001629578D01*
X0002177706Y0001636606D01*
X0002159381Y0001636622D01*
X0002142445Y0001629624D01*
X0002129476Y0001616677D01*
X0002122448Y0001599753D01*
X0002122432Y0001581428D01*
X0002114558Y0001581428D01*
X0002114574Y0001599673D01*
X0002107576Y0001616609D01*
X0002094630Y0001629578D01*
X0002077706Y0001636606D01*
X0002059381Y0001636622D01*
X0002042445Y0001629624D01*
X0002029476Y0001616677D01*
X0002022448Y0001599753D01*
X0002022434Y0001583456D01*
X0002010463Y0001571484D01*
X0002014558Y0001581348D01*
X0002014574Y0001599673D01*
X0002007577Y0001616609D01*
X0001994630Y0001629578D01*
X0001977706Y0001636606D01*
X0001959381Y0001636622D01*
X0001942445Y0001629624D01*
X0001929476Y0001616677D01*
X0001922448Y0001599753D01*
X0001922432Y0001581428D01*
X0001929430Y0001564492D01*
X0001942377Y0001551523D01*
X0001959301Y0001544496D01*
X0001977626Y0001544480D01*
X0001987565Y0001548586D01*
X0001954726Y0001515748D01*
X0001660233Y0001515748D01*
X0001655505Y0001517711D01*
X0001643758Y0001517721D01*
X0001632902Y0001513235D01*
X0001624588Y0001504936D01*
X0001620083Y0001494088D01*
X0001620073Y0001482341D01*
X0001541000Y0001482341D01*
X0001720076Y0001661417D01*
X0002091338Y0001661417D01*
X0002101885Y0001663515D01*
X0002110825Y0001669489D01*
X0002215156Y0001773819D01*
X0002215156Y0001773819D01*
X0002218116Y0001776779D01*
X0002229133Y0001774587D01*
X0002248720Y0001778483D01*
X0002265324Y0001789578D01*
X0002276419Y0001806182D01*
X0002280314Y0001825768D01*
X0002280314Y0001827774D01*
X0002276419Y0001847360D01*
X0002265324Y0001863964D01*
X0002248720Y0001875059D01*
X0002229133Y0001878955D01*
X0002209547Y0001875059D01*
X0002192943Y0001863964D01*
X0002181848Y0001847360D01*
X0002179133Y0001833712D01*
X0002176419Y0001847360D01*
X0002165324Y0001863964D01*
X0002148719Y0001875059D01*
X0002129133Y0001878955D01*
X0002109547Y0001875059D01*
X0002092943Y0001863964D01*
X0002081848Y0001847360D01*
X0002079133Y0001833712D01*
X0002076418Y0001847360D01*
X0002065324Y0001863964D01*
X0002048719Y0001875059D01*
X0002029133Y0001878955D01*
X0002009547Y0001875059D01*
X0001992943Y0001863964D01*
X0001981848Y0001847360D01*
X0001980314Y0001839649D01*
X0001980314Y0001863760D01*
X0001977617Y0001870271D01*
X0001972634Y0001875255D01*
X0001966122Y0001877952D01*
X0001939468Y0001877952D01*
X0001935039Y0001873523D01*
X0001935039Y0001832677D01*
X0001935826Y0001832677D01*
X0001935826Y0001820866D01*
X0001935039Y0001820866D01*
X0001935039Y0001780019D01*
X0001939468Y0001775590D01*
X0001966122Y0001775590D01*
X0001972634Y0001778287D01*
X0001977617Y0001783271D01*
X0001980314Y0001789782D01*
X0001980314Y0001813893D01*
X0001981848Y0001806182D01*
X0001992943Y0001789578D01*
X0002009547Y0001778483D01*
X0002029133Y0001774587D01*
X0002048719Y0001778483D01*
X0002065324Y0001789578D01*
X0002076418Y0001806182D01*
X0002079133Y0001819831D01*
X0002081848Y0001806182D01*
X0002092943Y0001789578D01*
X0002109547Y0001778483D01*
X0002129133Y0001774587D01*
X0002140171Y0001776783D01*
X0002079923Y0001716535D01*
X0001708661Y0001716535D01*
X0001698115Y0001714437D01*
X0001689174Y0001708463D01*
X0001489503Y0001508792D01*
X0001486996Y0001509833D01*
X0001465852Y0001509851D01*
X0001446310Y0001501777D01*
X0001431346Y0001486839D01*
X0001423237Y0001467311D01*
X0001423219Y0001446167D01*
X0001409448Y0001446167D01*
X0001409448Y0001712994D01*
X0001462327Y0001765873D01*
X0001462609Y0001765756D01*
X0001482186Y0001765739D01*
X0001492499Y0001770000D01*
X0001459674Y0001737175D01*
X0001454554Y0001729512D01*
X0001452755Y0001720472D01*
X0001452755Y0001652078D01*
X0001446310Y0001649415D01*
X0001431346Y0001634476D01*
X0001423237Y0001614949D01*
X0001423219Y0001593805D01*
X0001431293Y0001574263D01*
X0001446231Y0001559298D01*
X0001465759Y0001551190D01*
X0001486903Y0001551171D01*
X0001506445Y0001559246D01*
X0001521409Y0001574184D01*
X0001529518Y0001593712D01*
X0001529536Y0001614856D01*
X0001521462Y0001634398D01*
X0001506524Y0001649362D01*
X0001499999Y0001652071D01*
X0001499999Y0001710687D01*
X0001574741Y0001785429D01*
X0001580612Y0001785424D01*
X0001598706Y0001792900D01*
X0001612562Y0001806732D01*
X0001620070Y0001824813D01*
X0001620070Y0001824899D01*
X0001718495Y0001824899D01*
X0001725971Y0001806805D01*
X0001739803Y0001792949D01*
X0001757884Y0001785441D01*
X0001777462Y0001785424D01*
X0001795556Y0001792900D01*
X0001809412Y0001806732D01*
X0001813442Y0001816437D01*
X0001877952Y0001816437D01*
X0001877952Y0001789782D01*
X0001880649Y0001783271D01*
X0001885633Y0001778287D01*
X0001892145Y0001775590D01*
X0001918799Y0001775590D01*
X0001923228Y0001780019D01*
X0001923228Y0001820866D01*
X0001882381Y0001820866D01*
X0001877952Y0001816437D01*
X0001813442Y0001816437D01*
X0001816920Y0001824813D01*
X0001816937Y0001844391D01*
X0001809461Y0001862485D01*
X0001808189Y0001863760D01*
X0001877952Y0001863760D01*
X0001877952Y0001837106D01*
X0001882381Y0001832677D01*
X0001923228Y0001832677D01*
X0001923228Y0001873523D01*
X0001918799Y0001877952D01*
X0001892145Y0001877952D01*
X0001885633Y0001875255D01*
X0001880649Y0001870271D01*
X0001877952Y0001863760D01*
X0001808189Y0001863760D01*
X0001795629Y0001876341D01*
X0001777548Y0001883849D01*
X0001757970Y0001883866D01*
X0001739876Y0001876390D01*
X0001726020Y0001862558D01*
X0001718512Y0001844477D01*
X0001718495Y0001824899D01*
X0001620070Y0001824899D01*
X0001620087Y0001844391D01*
X0001612610Y0001862485D01*
X0001598779Y0001876341D01*
X0001580698Y0001883849D01*
X0001561120Y0001883866D01*
X0001543025Y0001876390D01*
X0001529170Y0001862558D01*
X0001521662Y0001844477D01*
X0001521645Y0001824899D01*
X0001529121Y0001806805D01*
X0001529212Y0001806713D01*
X0001517396Y0001794897D01*
X0001521645Y0001805128D01*
X0001521662Y0001824706D01*
X0001514185Y0001842800D01*
X0001500354Y0001856656D01*
X0001482272Y0001864164D01*
X0001462694Y0001864181D01*
X0001444600Y0001856705D01*
X0001430744Y0001842873D01*
X0001423236Y0001824792D01*
X0001423219Y0001805214D01*
X0001423366Y0001804860D01*
X0001362402Y0001743896D01*
X0001356428Y0001734955D01*
X0001356428Y0001734955D01*
X0001354330Y0001724409D01*
X0001221456Y0001724409D01*
X0001221456Y0001805214D01*
X0001226369Y0001805214D01*
X0001233845Y0001787120D01*
X0001247677Y0001773264D01*
X0001265758Y0001765756D01*
X0001285336Y0001765739D01*
X0001303430Y0001773215D01*
X0001317286Y0001787047D01*
X0001324794Y0001805128D01*
X0001324811Y0001824706D01*
X0001317335Y0001842800D01*
X0001303503Y0001856656D01*
X0001285422Y0001864164D01*
X0001265844Y0001864181D01*
X0001247750Y0001856705D01*
X0001233894Y0001842873D01*
X0001226386Y0001824792D01*
X0001226369Y0001805214D01*
X0001221456Y0001805214D01*
X0001221456Y0001888779D01*
X0002282480Y0001888779D01*
X0002282480Y0001024606D01*
X0002282480Y0001024606D01*
G37*
X0002282480Y0001024606D02*
X0001221456Y0001024606D01*
X0001221456Y0001088679D01*
X0001226369Y0001088679D01*
X0001233845Y0001070584D01*
X0001247677Y0001056729D01*
X0001265758Y0001049221D01*
X0001285336Y0001049204D01*
X0001303430Y0001056680D01*
X0001317286Y0001070512D01*
X0001324794Y0001088593D01*
X0001324811Y0001108171D01*
X0001317335Y0001126265D01*
X0001303503Y0001140121D01*
X0001285422Y0001147629D01*
X0001265844Y0001147646D01*
X0001247750Y0001140169D01*
X0001233894Y0001126338D01*
X0001226386Y0001108257D01*
X0001226369Y0001088679D01*
X0001221456Y0001088679D01*
X0001221456Y0001298529D01*
X0001226368Y0001298529D01*
X0001234443Y0001278987D01*
X0001249381Y0001264023D01*
X0001268909Y0001255914D01*
X0001290053Y0001255896D01*
X0001309595Y0001263970D01*
X0001324559Y0001278908D01*
X0001332667Y0001298436D01*
X0001332686Y0001319580D01*
X0001324611Y0001339122D01*
X0001309673Y0001354086D01*
X0001290146Y0001362195D01*
X0001269001Y0001362213D01*
X0001249460Y0001354139D01*
X0001234495Y0001339201D01*
X0001226387Y0001319673D01*
X0001226368Y0001298529D01*
X0001221456Y0001298529D01*
X0001221456Y0001446167D01*
X0001226368Y0001446167D01*
X0001234443Y0001426625D01*
X0001249381Y0001411661D01*
X0001268909Y0001403552D01*
X0001290053Y0001403534D01*
X0001309595Y0001411608D01*
X0001324559Y0001426546D01*
X0001332667Y0001446074D01*
X0001332686Y0001467218D01*
X0001324611Y0001486760D01*
X0001309673Y0001501724D01*
X0001290146Y0001509833D01*
X0001269001Y0001509851D01*
X0001249460Y0001501777D01*
X0001234495Y0001486839D01*
X0001226387Y0001467311D01*
X0001226368Y0001446167D01*
X0001221456Y0001446167D01*
X0001221456Y0001593805D01*
X0001226368Y0001593805D01*
X0001234443Y0001574263D01*
X0001249381Y0001559298D01*
X0001268909Y0001551190D01*
X0001290053Y0001551171D01*
X0001309595Y0001559246D01*
X0001324559Y0001574184D01*
X0001332667Y0001593712D01*
X0001332686Y0001614856D01*
X0001324611Y0001634398D01*
X0001309673Y0001649362D01*
X0001290146Y0001657471D01*
X0001269001Y0001657489D01*
X0001249460Y0001649415D01*
X0001234495Y0001634476D01*
X0001226387Y0001614949D01*
X0001226368Y0001593805D01*
X0001221456Y0001593805D01*
X0001221456Y0001724409D01*
X0001354330Y0001724409D01*
X0001354330Y0001181102D01*
X0001356428Y0001170555D01*
X0001362402Y0001161615D01*
X0001423230Y0001100787D01*
X0001423219Y0001088679D01*
X0001430696Y0001070584D01*
X0001444527Y0001056729D01*
X0001462609Y0001049221D01*
X0001482186Y0001049204D01*
X0001500281Y0001056680D01*
X0001514137Y0001070512D01*
X0001521645Y0001088593D01*
X0001521647Y0001091553D01*
X0002077165Y0001091553D01*
X0002077165Y0001089548D01*
X0002081061Y0001069962D01*
X0002092155Y0001053357D01*
X0002108760Y0001042263D01*
X0002128346Y0001038367D01*
X0002147932Y0001042263D01*
X0002164536Y0001053357D01*
X0002175631Y0001069962D01*
X0002177165Y0001077672D01*
X0002177165Y0001053562D01*
X0002179862Y0001047050D01*
X0002184846Y0001042067D01*
X0002191357Y0001039370D01*
X0002218011Y0001039370D01*
X0002222440Y0001043799D01*
X0002222440Y0001084645D01*
X0002234251Y0001084645D01*
X0002234251Y0001043799D01*
X0002238681Y0001039370D01*
X0002265335Y0001039370D01*
X0002271846Y0001042067D01*
X0002276830Y0001047050D01*
X0002279527Y0001053562D01*
X0002279527Y0001080216D01*
X0002275098Y0001084645D01*
X0002234251Y0001084645D01*
X0002222440Y0001084645D01*
X0002221653Y0001084645D01*
X0002221653Y0001096456D01*
X0002222440Y0001096456D01*
X0002222440Y0001137303D01*
X0002234251Y0001137303D01*
X0002234251Y0001096456D01*
X0002275098Y0001096456D01*
X0002279527Y0001100885D01*
X0002279527Y0001127539D01*
X0002276830Y0001134051D01*
X0002271846Y0001139035D01*
X0002265335Y0001141732D01*
X0002238681Y0001141732D01*
X0002234251Y0001137303D01*
X0002222440Y0001137303D01*
X0002218011Y0001141732D01*
X0002191357Y0001141732D01*
X0002184846Y0001139035D01*
X0002179862Y0001134051D01*
X0002177165Y0001127539D01*
X0002177165Y0001103429D01*
X0002175631Y0001111140D01*
X0002164536Y0001127744D01*
X0002147932Y0001138839D01*
X0002128346Y0001142735D01*
X0002108760Y0001138839D01*
X0002092155Y0001127744D01*
X0002081061Y0001111140D01*
X0002077165Y0001091553D01*
X0001521647Y0001091553D01*
X0001521662Y0001108171D01*
X0001514185Y0001126265D01*
X0001500354Y0001140121D01*
X0001482272Y0001147629D01*
X0001462694Y0001147646D01*
X0001456768Y0001145197D01*
X0001409448Y0001192517D01*
X0001409448Y0001298529D01*
X0001423219Y0001298529D01*
X0001431293Y0001278987D01*
X0001446231Y0001264023D01*
X0001465759Y0001255914D01*
X0001486903Y0001255896D01*
X0001506445Y0001263970D01*
X0001521409Y0001278908D01*
X0001529518Y0001298436D01*
X0001529536Y0001319580D01*
X0001521462Y0001339122D01*
X0001506524Y0001354086D01*
X0001486996Y0001362195D01*
X0001465852Y0001362213D01*
X0001446310Y0001354139D01*
X0001431346Y0001339201D01*
X0001423237Y0001319673D01*
X0001423219Y0001298529D01*
X0001409448Y0001298529D01*
X0001409448Y0001446167D01*
X0001423219Y0001446167D01*
X0001431293Y0001426625D01*
X0001446231Y0001411661D01*
X0001465759Y0001403552D01*
X0001486903Y0001403534D01*
X0001506445Y0001411608D01*
X0001521409Y0001426546D01*
X0001529518Y0001446074D01*
X0001529536Y0001467218D01*
X0001528467Y0001469807D01*
X0001541000Y0001482341D01*
X0001620073Y0001482341D01*
X0001624559Y0001471484D01*
X0001632858Y0001463171D01*
X0001643707Y0001458666D01*
X0001655453Y0001458656D01*
X0001660230Y0001460629D01*
X0001966141Y0001460629D01*
X0001976688Y0001462727D01*
X0001985628Y0001468701D01*
X0002061421Y0001544494D01*
X0002077626Y0001544480D01*
X0002094562Y0001551478D01*
X0002107531Y0001564424D01*
X0002114558Y0001581348D01*
X0002114558Y0001581428D01*
X0002122432Y0001581428D01*
X0002129430Y0001564492D01*
X0002142377Y0001551523D01*
X0002159301Y0001544496D01*
X0002177626Y0001544480D01*
X0002194562Y0001551478D01*
X0002207531Y0001564424D01*
X0002214558Y0001581348D01*
X0002214574Y0001599673D01*
X0002207576Y0001616609D01*
X0002194630Y0001629578D01*
X0002177706Y0001636606D01*
X0002159381Y0001636622D01*
X0002142445Y0001629624D01*
X0002129476Y0001616677D01*
X0002122448Y0001599753D01*
X0002122432Y0001581428D01*
X0002114558Y0001581428D01*
X0002114574Y0001599673D01*
X0002107576Y0001616609D01*
X0002094630Y0001629578D01*
X0002077706Y0001636606D01*
X0002059381Y0001636622D01*
X0002042445Y0001629624D01*
X0002029476Y0001616677D01*
X0002022448Y0001599753D01*
X0002022434Y0001583456D01*
X0002010463Y0001571484D01*
X0002014558Y0001581348D01*
X0002014574Y0001599673D01*
X0002007577Y0001616609D01*
X0001994630Y0001629578D01*
X0001977706Y0001636606D01*
X0001959381Y0001636622D01*
X0001942445Y0001629624D01*
X0001929476Y0001616677D01*
X0001922448Y0001599753D01*
X0001922432Y0001581428D01*
X0001929430Y0001564492D01*
X0001942377Y0001551523D01*
X0001959301Y0001544496D01*
X0001977626Y0001544480D01*
X0001987565Y0001548586D01*
X0001954726Y0001515748D01*
X0001660233Y0001515748D01*
X0001655505Y0001517711D01*
X0001643758Y0001517721D01*
X0001632902Y0001513235D01*
X0001624588Y0001504936D01*
X0001620083Y0001494088D01*
X0001620073Y0001482341D01*
X0001541000Y0001482341D01*
X0001720076Y0001661417D01*
X0002091338Y0001661417D01*
X0002101885Y0001663515D01*
X0002110825Y0001669489D01*
X0002215156Y0001773819D01*
X0002215156Y0001773819D01*
X0002218116Y0001776779D01*
X0002229133Y0001774587D01*
X0002248720Y0001778483D01*
X0002265324Y0001789578D01*
X0002276419Y0001806182D01*
X0002280314Y0001825768D01*
X0002280314Y0001827774D01*
X0002276419Y0001847360D01*
X0002265324Y0001863964D01*
X0002248720Y0001875059D01*
X0002229133Y0001878955D01*
X0002209547Y0001875059D01*
X0002192943Y0001863964D01*
X0002181848Y0001847360D01*
X0002179133Y0001833712D01*
X0002176419Y0001847360D01*
X0002165324Y0001863964D01*
X0002148719Y0001875059D01*
X0002129133Y0001878955D01*
X0002109547Y0001875059D01*
X0002092943Y0001863964D01*
X0002081848Y0001847360D01*
X0002079133Y0001833712D01*
X0002076418Y0001847360D01*
X0002065324Y0001863964D01*
X0002048719Y0001875059D01*
X0002029133Y0001878955D01*
X0002009547Y0001875059D01*
X0001992943Y0001863964D01*
X0001981848Y0001847360D01*
X0001980314Y0001839649D01*
X0001980314Y0001863760D01*
X0001977617Y0001870271D01*
X0001972634Y0001875255D01*
X0001966122Y0001877952D01*
X0001939468Y0001877952D01*
X0001935039Y0001873523D01*
X0001935039Y0001832677D01*
X0001935826Y0001832677D01*
X0001935826Y0001820866D01*
X0001935039Y0001820866D01*
X0001935039Y0001780019D01*
X0001939468Y0001775590D01*
X0001966122Y0001775590D01*
X0001972634Y0001778287D01*
X0001977617Y0001783271D01*
X0001980314Y0001789782D01*
X0001980314Y0001813893D01*
X0001981848Y0001806182D01*
X0001992943Y0001789578D01*
X0002009547Y0001778483D01*
X0002029133Y0001774587D01*
X0002048719Y0001778483D01*
X0002065324Y0001789578D01*
X0002076418Y0001806182D01*
X0002079133Y0001819831D01*
X0002081848Y0001806182D01*
X0002092943Y0001789578D01*
X0002109547Y0001778483D01*
X0002129133Y0001774587D01*
X0002140171Y0001776783D01*
X0002079923Y0001716535D01*
X0001708661Y0001716535D01*
X0001698115Y0001714437D01*
X0001689174Y0001708463D01*
X0001489503Y0001508792D01*
X0001486996Y0001509833D01*
X0001465852Y0001509851D01*
X0001446310Y0001501777D01*
X0001431346Y0001486839D01*
X0001423237Y0001467311D01*
X0001423219Y0001446167D01*
X0001409448Y0001446167D01*
X0001409448Y0001712994D01*
X0001462327Y0001765873D01*
X0001462609Y0001765756D01*
X0001482186Y0001765739D01*
X0001492499Y0001770000D01*
X0001459674Y0001737175D01*
X0001454554Y0001729512D01*
X0001452755Y0001720472D01*
X0001452755Y0001652078D01*
X0001446310Y0001649415D01*
X0001431346Y0001634476D01*
X0001423237Y0001614949D01*
X0001423219Y0001593805D01*
X0001431293Y0001574263D01*
X0001446231Y0001559298D01*
X0001465759Y0001551190D01*
X0001486903Y0001551171D01*
X0001506445Y0001559246D01*
X0001521409Y0001574184D01*
X0001529518Y0001593712D01*
X0001529536Y0001614856D01*
X0001521462Y0001634398D01*
X0001506524Y0001649362D01*
X0001499999Y0001652071D01*
X0001499999Y0001710687D01*
X0001574741Y0001785429D01*
X0001580612Y0001785424D01*
X0001598706Y0001792900D01*
X0001612562Y0001806732D01*
X0001620070Y0001824813D01*
X0001620070Y0001824899D01*
X0001718495Y0001824899D01*
X0001725971Y0001806805D01*
X0001739803Y0001792949D01*
X0001757884Y0001785441D01*
X0001777462Y0001785424D01*
X0001795556Y0001792900D01*
X0001809412Y0001806732D01*
X0001813442Y0001816437D01*
X0001877952Y0001816437D01*
X0001877952Y0001789782D01*
X0001880649Y0001783271D01*
X0001885633Y0001778287D01*
X0001892145Y0001775590D01*
X0001918799Y0001775590D01*
X0001923228Y0001780019D01*
X0001923228Y0001820866D01*
X0001882381Y0001820866D01*
X0001877952Y0001816437D01*
X0001813442Y0001816437D01*
X0001816920Y0001824813D01*
X0001816937Y0001844391D01*
X0001809461Y0001862485D01*
X0001808189Y0001863760D01*
X0001877952Y0001863760D01*
X0001877952Y0001837106D01*
X0001882381Y0001832677D01*
X0001923228Y0001832677D01*
X0001923228Y0001873523D01*
X0001918799Y0001877952D01*
X0001892145Y0001877952D01*
X0001885633Y0001875255D01*
X0001880649Y0001870271D01*
X0001877952Y0001863760D01*
X0001808189Y0001863760D01*
X0001795629Y0001876341D01*
X0001777548Y0001883849D01*
X0001757970Y0001883866D01*
X0001739876Y0001876390D01*
X0001726020Y0001862558D01*
X0001718512Y0001844477D01*
X0001718495Y0001824899D01*
X0001620070Y0001824899D01*
X0001620087Y0001844391D01*
X0001612610Y0001862485D01*
X0001598779Y0001876341D01*
X0001580698Y0001883849D01*
X0001561120Y0001883866D01*
X0001543025Y0001876390D01*
X0001529170Y0001862558D01*
X0001521662Y0001844477D01*
X0001521645Y0001824899D01*
X0001529121Y0001806805D01*
X0001529212Y0001806713D01*
X0001517396Y0001794897D01*
X0001521645Y0001805128D01*
X0001521662Y0001824706D01*
X0001514185Y0001842800D01*
X0001500354Y0001856656D01*
X0001482272Y0001864164D01*
X0001462694Y0001864181D01*
X0001444600Y0001856705D01*
X0001430744Y0001842873D01*
X0001423236Y0001824792D01*
X0001423219Y0001805214D01*
X0001423366Y0001804860D01*
X0001362402Y0001743896D01*
X0001356428Y0001734955D01*
X0001356428Y0001734955D01*
X0001354330Y0001724409D01*
X0001221456Y0001724409D01*
X0001221456Y0001805214D01*
X0001226369Y0001805214D01*
X0001233845Y0001787120D01*
X0001247677Y0001773264D01*
X0001265758Y0001765756D01*
X0001285336Y0001765739D01*
X0001303430Y0001773215D01*
X0001317286Y0001787047D01*
X0001324794Y0001805128D01*
X0001324811Y0001824706D01*
X0001317335Y0001842800D01*
X0001303503Y0001856656D01*
X0001285422Y0001864164D01*
X0001265844Y0001864181D01*
X0001247750Y0001856705D01*
X0001233894Y0001842873D01*
X0001226386Y0001824792D01*
X0001226369Y0001805214D01*
X0001221456Y0001805214D01*
X0001221456Y0001888779D01*
X0002282480Y0001888779D01*
X0002282480Y0001024606D01*
M02*