%MOIN*%
%OFA0B0*%
%FSLAX46Y46*%
%IPPOS*%
%LPD*%
%ADD10R,0.062992125984251982X0.051181102362204731*%
%ADD11C,0.07874015748031496*%
%ADD12C,0.086614173228346469*%
%ADD13R,0.051181102362204731X0.062992125984251982*%
%ADD14C,0.072440944881889777*%
%ADD15R,0.0452755905511811X0.062992125984251982*%
%ADD16R,0.051181102362204731X0.047244094488188976*%
%ADD17R,0.064960629921259838X0.055118110236220472*%
%ADD18R,0.074848031496062992X0.092548031496063*%
%ADD19R,0.086648031496063X0.076748031496062991*%
%ADD20O,0.082677165354330714X0.082677165354330714*%
%ADD21R,0.082677165354330714X0.082677165354330714*%
%ADD32R,0.062992125984251982X0.051181102362204731*%
%ADD33C,0.07874015748031496*%
%ADD34C,0.086614173228346469*%
%ADD35R,0.051181102362204731X0.062992125984251982*%
%ADD36C,0.072440944881889777*%
%ADD37R,0.0452755905511811X0.062992125984251982*%
%ADD38R,0.051181102362204731X0.047244094488188976*%
%ADD39R,0.064960629921259838X0.055118110236220472*%
%ADD40R,0.074848031496062992X0.092548031496063*%
%ADD41R,0.086648031496063X0.076748031496062991*%
%ADD42O,0.082677165354330714X0.082677165354330714*%
%ADD43R,0.082677165354330714X0.082677165354330714*%
%ADD44R,0.062992125984251982X0.051181102362204731*%
%ADD45C,0.07874015748031496*%
%ADD46C,0.086614173228346469*%
%ADD47R,0.051181102362204731X0.062992125984251982*%
%ADD48C,0.072440944881889777*%
%ADD49R,0.0452755905511811X0.062992125984251982*%
%ADD50R,0.051181102362204731X0.047244094488188976*%
%ADD51R,0.064960629921259838X0.055118110236220472*%
%ADD52R,0.074848031496062992X0.092548031496063*%
%ADD53R,0.086648031496063X0.076748031496062991*%
%ADD54O,0.082677165354330714X0.082677165354330714*%
%ADD55R,0.082677165354330714X0.082677165354330714*%
%ADD56R,0.062992125984251982X0.051181102362204731*%
%ADD57C,0.07874015748031496*%
%ADD58C,0.086614173228346469*%
%ADD59R,0.051181102362204731X0.062992125984251982*%
%ADD60C,0.072440944881889777*%
%ADD61R,0.0452755905511811X0.062992125984251982*%
%ADD62R,0.051181102362204731X0.047244094488188976*%
%ADD63R,0.064960629921259838X0.055118110236220472*%
%ADD64R,0.074848031496062992X0.092548031496063*%
%ADD65R,0.086648031496063X0.076748031496062991*%
%ADD66O,0.082677165354330714X0.082677165354330714*%
%ADD67R,0.082677165354330714X0.082677165354330714*%
G01*
D10*
X-0005393700Y0004251968D02*
X0000480314Y0000133858D03*
X0000393700Y0000133858D03*
D11*
X0000074803Y0000811023D03*
X0000271653Y0000811023D03*
D12*
X0000078740Y0000600393D03*
X0000078740Y0000452755D03*
X0000078740Y0000305118D03*
X0000275590Y0000600393D03*
X0000275590Y0000452755D03*
X0000275590Y0000305118D03*
D13*
X0000393700Y0000547244D03*
X0000393700Y0000633858D03*
D14*
X0000767716Y0000586614D03*
X0000867716Y0000586614D03*
X0000967716Y0000586614D03*
D13*
X0000393700Y0000322834D03*
X0000393700Y0000236220D03*
D15*
X0000748031Y0000242125D03*
X0000748031Y0000316929D03*
D16*
X0000834645Y0000279527D03*
X0000929133Y0000316929D03*
X0000929133Y0000242125D03*
D13*
X0000629921Y0000236220D03*
X0000629921Y0000322834D03*
X0001023622Y0000236220D03*
X0001023622Y0000322834D03*
X0000629921Y0000633858D03*
X0000629921Y0000547244D03*
X0000629921Y0000771653D03*
X0000629921Y0000858267D03*
D17*
X0000511811Y0000846456D03*
X0000511811Y0000767716D03*
D18*
X0000511965Y0000555377D03*
X0000511965Y0000663577D03*
D19*
X0000511965Y0000225539D03*
X0000511965Y0000318139D03*
D20*
X0000927559Y0000086614D03*
D21*
X0001027559Y0000086614D03*
D20*
X0001028346Y0000822834D03*
X0000928346Y0000822834D03*
X0000828346Y0000822834D03*
D21*
X0000728346Y0000822834D03*
D11*
X0000263779Y0000094488D03*
X0000066929Y0000094488D03*
G04 next file*
G04 #@! TF.GenerationSoftware,KiCad,Pcbnew,(5.0.0)*
G04 #@! TF.CreationDate,2018-08-27T21:34:21+10:00*
G04 #@! TF.ProjectId,BT,42542E6B696361645F70636200000000,rev?*
G04 #@! TF.SameCoordinates,Original*
G04 #@! TF.FileFunction,Soldermask,Top*
G04 #@! TF.FilePolarity,Negative*
G04 Gerber Fmt 4.6, Leading zero omitted, Abs format (unit mm)*
G04 Created by KiCad (PCBNEW (5.0.0)) date 08/27/18 21:34:21*
G01*
G04 APERTURE LIST*
G04 APERTURE END LIST*
D32*
G04 #@! TO.C,R7*
X-0004192913Y0004251968D02*
X0001681102Y0000133858D03*
X0001594488Y0000133858D03*
G04 #@! TD*
D33*
G04 #@! TO.C,C5*
X0001275590Y0000811023D03*
X0001472440Y0000811023D03*
G04 #@! TD*
D34*
G04 #@! TO.C,RV3*
X0001279527Y0000600393D03*
X0001279527Y0000452755D03*
X0001279527Y0000305118D03*
X0001476377Y0000600393D03*
X0001476377Y0000452755D03*
X0001476377Y0000305118D03*
G04 #@! TD*
D35*
G04 #@! TO.C,R4*
X0001594488Y0000547244D03*
X0001594488Y0000633858D03*
G04 #@! TD*
D36*
G04 #@! TO.C,RV1*
X0001968503Y0000586614D03*
X0002068503Y0000586614D03*
X0002168503Y0000586614D03*
G04 #@! TD*
D35*
G04 #@! TO.C,R1*
X0001594488Y0000322834D03*
X0001594488Y0000236220D03*
G04 #@! TD*
D37*
G04 #@! TO.C,C2*
X0001948818Y0000242125D03*
X0001948818Y0000316929D03*
G04 #@! TD*
D38*
G04 #@! TO.C,Q1*
X0002035433Y0000279527D03*
X0002129921Y0000316929D03*
X0002129921Y0000242125D03*
G04 #@! TD*
D35*
G04 #@! TO.C,R2*
X0001830708Y0000236220D03*
X0001830708Y0000322834D03*
G04 #@! TD*
G04 #@! TO.C,R3*
X0002224409Y0000236220D03*
X0002224409Y0000322834D03*
G04 #@! TD*
G04 #@! TO.C,R5*
X0001830708Y0000633858D03*
X0001830708Y0000547244D03*
G04 #@! TD*
G04 #@! TO.C,R6*
X0001830708Y0000771653D03*
X0001830708Y0000858267D03*
G04 #@! TD*
D39*
G04 #@! TO.C,C4*
X0001712598Y0000846456D03*
X0001712598Y0000767716D03*
G04 #@! TD*
D40*
G04 #@! TO.C,C3*
X0001712752Y0000555377D03*
X0001712752Y0000663577D03*
G04 #@! TD*
D41*
G04 #@! TO.C,C1*
X0001712752Y0000225539D03*
X0001712752Y0000318139D03*
G04 #@! TD*
D42*
G04 #@! TO.C,J1*
X0002128346Y0000086614D03*
D43*
X0002228346Y0000086614D03*
G04 #@! TD*
D42*
G04 #@! TO.C,J2*
X0002229133Y0000822834D03*
X0002129133Y0000822834D03*
X0002029133Y0000822834D03*
D43*
X0001929133Y0000822834D03*
G04 #@! TD*
D33*
G04 #@! TO.C,C6*
X0001464566Y0000094488D03*
X0001267716Y0000094488D03*
G04 #@! TD*
G04 next file*
G04 #@! TF.GenerationSoftware,KiCad,Pcbnew,(5.0.0)*
G04 #@! TF.CreationDate,2018-08-27T21:34:21+10:00*
G04 #@! TF.ProjectId,BT,42542E6B696361645F70636200000000,rev?*
G04 #@! TF.SameCoordinates,Original*
G04 #@! TF.FileFunction,Soldermask,Top*
G04 #@! TF.FilePolarity,Negative*
G04 Gerber Fmt 4.6, Leading zero omitted, Abs format (unit mm)*
G04 Created by KiCad (PCBNEW (5.0.0)) date 08/27/18 21:34:21*
G01*
G04 APERTURE LIST*
G04 APERTURE END LIST*
D44*
G04 #@! TO.C,R7*
X-0004192913Y0005255905D02*
X0001681102Y0001137795D03*
X0001594488Y0001137795D03*
G04 #@! TD*
D45*
G04 #@! TO.C,C5*
X0001275590Y0001814960D03*
X0001472440Y0001814960D03*
G04 #@! TD*
D46*
G04 #@! TO.C,RV3*
X0001279527Y0001604330D03*
X0001279527Y0001456692D03*
X0001279527Y0001309055D03*
X0001476377Y0001604330D03*
X0001476377Y0001456692D03*
X0001476377Y0001309055D03*
G04 #@! TD*
D47*
G04 #@! TO.C,R4*
X0001594488Y0001551181D03*
X0001594488Y0001637795D03*
G04 #@! TD*
D48*
G04 #@! TO.C,RV1*
X0001968503Y0001590551D03*
X0002068503Y0001590551D03*
X0002168503Y0001590551D03*
G04 #@! TD*
D47*
G04 #@! TO.C,R1*
X0001594488Y0001326771D03*
X0001594488Y0001240157D03*
G04 #@! TD*
D49*
G04 #@! TO.C,C2*
X0001948818Y0001246062D03*
X0001948818Y0001320866D03*
G04 #@! TD*
D50*
G04 #@! TO.C,Q1*
X0002035433Y0001283464D03*
X0002129921Y0001320866D03*
X0002129921Y0001246062D03*
G04 #@! TD*
D47*
G04 #@! TO.C,R2*
X0001830708Y0001240157D03*
X0001830708Y0001326771D03*
G04 #@! TD*
G04 #@! TO.C,R3*
X0002224409Y0001240157D03*
X0002224409Y0001326771D03*
G04 #@! TD*
G04 #@! TO.C,R5*
X0001830708Y0001637795D03*
X0001830708Y0001551181D03*
G04 #@! TD*
G04 #@! TO.C,R6*
X0001830708Y0001775590D03*
X0001830708Y0001862204D03*
G04 #@! TD*
D51*
G04 #@! TO.C,C4*
X0001712598Y0001850393D03*
X0001712598Y0001771653D03*
G04 #@! TD*
D52*
G04 #@! TO.C,C3*
X0001712752Y0001559314D03*
X0001712752Y0001667514D03*
G04 #@! TD*
D53*
G04 #@! TO.C,C1*
X0001712752Y0001229476D03*
X0001712752Y0001322076D03*
G04 #@! TD*
D54*
G04 #@! TO.C,J1*
X0002128346Y0001090551D03*
D55*
X0002228346Y0001090551D03*
G04 #@! TD*
D54*
G04 #@! TO.C,J2*
X0002229133Y0001826771D03*
X0002129133Y0001826771D03*
X0002029133Y0001826771D03*
D55*
X0001929133Y0001826771D03*
G04 #@! TD*
D45*
G04 #@! TO.C,C6*
X0001464566Y0001098425D03*
X0001267716Y0001098425D03*
G04 #@! TD*
G04 next file*
G04 #@! TF.GenerationSoftware,KiCad,Pcbnew,(5.0.0)*
G04 #@! TF.CreationDate,2018-08-27T21:34:21+10:00*
G04 #@! TF.ProjectId,BT,42542E6B696361645F70636200000000,rev?*
G04 #@! TF.SameCoordinates,Original*
G04 #@! TF.FileFunction,Soldermask,Top*
G04 #@! TF.FilePolarity,Negative*
G04 Gerber Fmt 4.6, Leading zero omitted, Abs format (unit mm)*
G04 Created by KiCad (PCBNEW (5.0.0)) date 08/27/18 21:34:21*
G01*
G04 APERTURE LIST*
G04 APERTURE END LIST*
D56*
G04 #@! TO.C,R7*
X-0005393700Y0005255905D02*
X0000480314Y0001137795D03*
X0000393700Y0001137795D03*
G04 #@! TD*
D57*
G04 #@! TO.C,C5*
X0000074803Y0001814960D03*
X0000271653Y0001814960D03*
G04 #@! TD*
D58*
G04 #@! TO.C,RV3*
X0000078740Y0001604330D03*
X0000078740Y0001456692D03*
X0000078740Y0001309055D03*
X0000275590Y0001604330D03*
X0000275590Y0001456692D03*
X0000275590Y0001309055D03*
G04 #@! TD*
D59*
G04 #@! TO.C,R4*
X0000393700Y0001551181D03*
X0000393700Y0001637795D03*
G04 #@! TD*
D60*
G04 #@! TO.C,RV1*
X0000767716Y0001590551D03*
X0000867716Y0001590551D03*
X0000967716Y0001590551D03*
G04 #@! TD*
D59*
G04 #@! TO.C,R1*
X0000393700Y0001326771D03*
X0000393700Y0001240157D03*
G04 #@! TD*
D61*
G04 #@! TO.C,C2*
X0000748031Y0001246062D03*
X0000748031Y0001320866D03*
G04 #@! TD*
D62*
G04 #@! TO.C,Q1*
X0000834645Y0001283464D03*
X0000929133Y0001320866D03*
X0000929133Y0001246062D03*
G04 #@! TD*
D59*
G04 #@! TO.C,R2*
X0000629921Y0001240157D03*
X0000629921Y0001326771D03*
G04 #@! TD*
G04 #@! TO.C,R3*
X0001023622Y0001240157D03*
X0001023622Y0001326771D03*
G04 #@! TD*
G04 #@! TO.C,R5*
X0000629921Y0001637795D03*
X0000629921Y0001551181D03*
G04 #@! TD*
G04 #@! TO.C,R6*
X0000629921Y0001775590D03*
X0000629921Y0001862204D03*
G04 #@! TD*
D63*
G04 #@! TO.C,C4*
X0000511811Y0001850393D03*
X0000511811Y0001771653D03*
G04 #@! TD*
D64*
G04 #@! TO.C,C3*
X0000511965Y0001559314D03*
X0000511965Y0001667514D03*
G04 #@! TD*
D65*
G04 #@! TO.C,C1*
X0000511965Y0001229476D03*
X0000511965Y0001322076D03*
G04 #@! TD*
D66*
G04 #@! TO.C,J1*
X0000927559Y0001090551D03*
D67*
X0001027559Y0001090551D03*
G04 #@! TD*
D66*
G04 #@! TO.C,J2*
X0001028346Y0001826771D03*
X0000928346Y0001826771D03*
X0000828346Y0001826771D03*
D67*
X0000728346Y0001826771D03*
G04 #@! TD*
D57*
G04 #@! TO.C,C6*
X0000263779Y0001098425D03*
X0000066929Y0001098425D03*
G04 #@! TD*
M02*