%
M48
METRIC,000.000
T01C0.40
T02C0.70
T03C0.75
T04C0.80
T05C1.00
T06C1.10
%
T01
X003000Y023200
X009963Y012263
X010370Y013730
X003000Y050200
X009963Y039263
X010370Y040730
X033000Y023200
X039964Y012263
X040370Y013730
X033000Y050200
X039964Y039263
X040370Y040730
T02
X004500Y023500
X004500Y021000
X009900Y023500
X009900Y021000
X004500Y050500
X004500Y048000
X009900Y050500
X009900Y048000
X034500Y023500
X034500Y021000
X039900Y023500
X039900Y021000
X034500Y050500
X034500Y048000
X039900Y050500
X039900Y048000
T03
X005000Y002599
X007000Y002599
X009000Y002599
X011000Y002599
X019405Y022705
X021405Y022705
X023405Y022705
X025405Y022705
X005000Y029599
X007000Y029599
X009000Y029599
X011000Y029599
X019405Y049705
X021405Y049705
X023405Y049705
X025405Y049705
X035000Y002599
X037000Y002599
X039000Y002599
X041000Y002599
X049405Y022705
X051405Y022705
X053405Y022705
X055405Y022705
X035000Y029599
X037000Y029599
X039000Y029599
X041000Y029599
X049405Y049705
X051405Y049705
X053405Y049705
X055405Y049705
T04
X020120Y015900
X022659Y015900
X025199Y015900
X020120Y042900
X022659Y042900
X025199Y042900
X050120Y015900
X052660Y015900
X055199Y015900
X050120Y042900
X052660Y042900
X055199Y042900
T05
X002000Y016250
X002000Y012500
X002000Y008750
X007000Y016250
X007000Y012500
X007000Y008750
X002000Y043250
X002000Y039500
X002000Y035750
X007000Y043250
X007000Y039500
X007000Y035750
X032000Y016250
X032000Y012500
X032000Y008750
X037000Y016250
X037000Y012500
X037000Y008750
X032000Y043250
X032000Y039500
X032000Y035750
X037000Y043250
X037000Y039500
X037000Y035750
T06
X017560Y003599
X020099Y003599
X023400Y003599
X025939Y003599
X017560Y030599
X020099Y030599
X023400Y030599
X025939Y030599
X047560Y003599
X050099Y003599
X053400Y003599
X055940Y003599
X047560Y030599
X050099Y030599
X053400Y030599
X055940Y030599
M30