%MOIN*%
%OFA0B0*%
%FSLAX46Y46*%
%IPPOS*%
%LPD*%
%ADD10C,0.0047244094488188976*%
%ADD11C,0.005905511811023622*%
%ADD22C,0.0047244094488188976*%
%ADD23C,0.005905511811023622*%
%ADD24C,0.0047244094488188976*%
%ADD25C,0.005905511811023622*%
%ADD26C,0.0047244094488188976*%
%ADD27C,0.005905511811023622*%
G01*
D10*
X0000026771Y0000884645D02*
X0000026771Y0000737401D01*
X0000319685Y0000884645D02*
X0000319685Y0000737401D01*
X0000319685Y0000737401D02*
X0000026771Y0000737401D01*
X0000319685Y0000884645D02*
X0000026771Y0000884645D01*
X0000541732Y0000718503D02*
X0000005511Y0000718503D01*
X0000541732Y0000194488D02*
X0000005511Y0000194488D01*
X0000541732Y0000718503D02*
X0000541732Y0000194488D01*
X0000005511Y0000718503D02*
X0000005511Y0000194488D01*
X0001034291Y0000597440D02*
X0000970826Y0000660826D01*
X0001039803Y0000602992D02*
X0000976377Y0000666377D01*
X0001057677Y0000489370D02*
X0001057677Y0000684291D01*
X0000677755Y0000489370D02*
X0000677755Y0000684291D01*
X0000677755Y0000684291D02*
X0001057677Y0000684291D01*
X0000677755Y0000489370D02*
X0001057677Y0000489370D01*
X0001006107Y0000677324D02*
G75*
G03X0000960866Y0000622440I-0000000792J-0000045435D01*
G01*
X0001003727Y0000586445D02*
G75*
G03X0001005314Y0000677362I0000001586J0000045444D01*
G01*
X0001079921Y0000034251D02*
X0001079921Y0000086614D01*
X0001027559Y0000034251D02*
X0001079921Y0000034251D01*
X0000977559Y0000034251D02*
X0000977559Y0000138976D01*
X0000977559Y0000138976D02*
X0000875196Y0000138976D01*
X0000977559Y0000034251D02*
X0000875196Y0000034251D01*
X0000875196Y0000034251D02*
X0000875196Y0000138976D01*
X0000311810Y0000168110D02*
X0000018897Y0000168110D01*
X0000311810Y0000020866D02*
X0000018897Y0000020866D01*
X0000311810Y0000168110D02*
X0000311810Y0000020866D01*
X0000018897Y0000168110D02*
X0000018897Y0000020866D01*
D11*
X0000362767Y0000814960D02*
X0000363891Y0000816085D01*
X0000365016Y0000819460D01*
X0000365016Y0000821709D01*
X0000363891Y0000825084D01*
X0000361642Y0000827334D01*
X0000359392Y0000828458D01*
X0000354893Y0000829583D01*
X0000351518Y0000829583D01*
X0000347019Y0000828458D01*
X0000344769Y0000827334D01*
X0000342519Y0000825084D01*
X0000341394Y0000821709D01*
X0000341394Y0000819460D01*
X0000342519Y0000816085D01*
X0000343644Y0000814960D01*
X0000341394Y0000793588D02*
X0000341394Y0000804836D01*
X0000352643Y0000805961D01*
X0000351518Y0000804836D01*
X0000350393Y0000802587D01*
X0000350393Y0000796962D01*
X0000351518Y0000794713D01*
X0000352643Y0000793588D01*
X0000354893Y0000792463D01*
X0000360517Y0000792463D01*
X0000362767Y0000793588D01*
X0000363891Y0000794713D01*
X0000365016Y0000796962D01*
X0000365016Y0000802587D01*
X0000363891Y0000804836D01*
X0000362767Y0000805961D01*
X0000082958Y0000215691D02*
X0000090832Y0000226940D01*
X0000096456Y0000215691D02*
X0000096456Y0000239313D01*
X0000087457Y0000239313D01*
X0000085208Y0000238188D01*
X0000084083Y0000237064D01*
X0000082958Y0000234814D01*
X0000082958Y0000231439D01*
X0000084083Y0000229190D01*
X0000085208Y0000228065D01*
X0000087457Y0000226940D01*
X0000096456Y0000226940D01*
X0000076209Y0000239313D02*
X0000068335Y0000215691D01*
X0000060461Y0000239313D01*
X0000054836Y0000239313D02*
X0000040213Y0000239313D01*
X0000048087Y0000230314D01*
X0000044713Y0000230314D01*
X0000042463Y0000229190D01*
X0000041338Y0000228065D01*
X0000040213Y0000225815D01*
X0000040213Y0000220191D01*
X0000041338Y0000217941D01*
X0000042463Y0000216816D01*
X0000044713Y0000215691D01*
X0000051462Y0000215691D01*
X0000053711Y0000216816D01*
X0000054836Y0000217941D01*
X0001043194Y0000457817D02*
X0001051068Y0000469066D01*
X0001056692Y0000457817D02*
X0001056692Y0000481439D01*
X0001047693Y0000481439D01*
X0001045444Y0000480314D01*
X0001044319Y0000479190D01*
X0001043194Y0000476940D01*
X0001043194Y0000473565D01*
X0001044319Y0000471316D01*
X0001045444Y0000470191D01*
X0001047693Y0000469066D01*
X0001056692Y0000469066D01*
X0001036445Y0000481439D02*
X0001028571Y0000457817D01*
X0001020697Y0000481439D01*
X0001000449Y0000457817D02*
X0001013948Y0000457817D01*
X0001007199Y0000457817D02*
X0001007199Y0000481439D01*
X0001009448Y0000478065D01*
X0001011698Y0000475815D01*
X0001013948Y0000474690D01*
X0001046119Y0000173228D02*
X0001062992Y0000173228D01*
X0001066366Y0000174353D01*
X0001068616Y0000176602D01*
X0001069741Y0000179977D01*
X0001069741Y0000182227D01*
X0001069741Y0000149606D02*
X0001069741Y0000163104D01*
X0001069741Y0000156355D02*
X0001046119Y0000156355D01*
X0001049493Y0000158605D01*
X0001051743Y0000160854D01*
X0001052868Y0000163104D01*
X0000354893Y0000098425D02*
X0000356017Y0000099550D01*
X0000357142Y0000102924D01*
X0000357142Y0000105174D01*
X0000356017Y0000108548D01*
X0000353768Y0000110798D01*
X0000351518Y0000111923D01*
X0000347019Y0000113048D01*
X0000343644Y0000113048D01*
X0000339145Y0000111923D01*
X0000336895Y0000110798D01*
X0000334645Y0000108548D01*
X0000333520Y0000105174D01*
X0000333520Y0000102924D01*
X0000334645Y0000099550D01*
X0000335770Y0000098425D01*
X0000333520Y0000078177D02*
X0000333520Y0000082677D01*
X0000334645Y0000084926D01*
X0000335770Y0000086051D01*
X0000339145Y0000088301D01*
X0000343644Y0000089426D01*
X0000352643Y0000089426D01*
X0000354893Y0000088301D01*
X0000356017Y0000087176D01*
X0000357142Y0000084926D01*
X0000357142Y0000080427D01*
X0000356017Y0000078177D01*
X0000354893Y0000077052D01*
X0000352643Y0000075928D01*
X0000347019Y0000075928D01*
X0000344769Y0000077052D01*
X0000343644Y0000078177D01*
X0000342519Y0000080427D01*
X0000342519Y0000084926D01*
X0000343644Y0000087176D01*
X0000344769Y0000088301D01*
X0000347019Y0000089426D01*
G04 next file*
G04 #@! TF.GenerationSoftware,KiCad,Pcbnew,(5.0.0)*
G04 #@! TF.CreationDate,2018-08-27T21:34:21+10:00*
G04 #@! TF.ProjectId,BT,42542E6B696361645F70636200000000,rev?*
G04 #@! TF.SameCoordinates,Original*
G04 #@! TF.FileFunction,Legend,Bot*
G04 #@! TF.FilePolarity,Positive*
G04 Gerber Fmt 4.6, Leading zero omitted, Abs format (unit mm)*
G04 Created by KiCad (PCBNEW (5.0.0)) date 08/27/18 21:34:21*
G01*
G04 APERTURE LIST*
G04 APERTURE END LIST*
D22*
G04 #@! TO.C,C5*
X0001227559Y0000884645D02*
X0001227559Y0000737401D01*
X0001520472Y0000884645D02*
X0001520472Y0000737401D01*
X0001520472Y0000737401D02*
X0001227559Y0000737401D01*
X0001520472Y0000884645D02*
X0001227559Y0000884645D01*
G04 #@! TO.C,RV3*
X0001742519Y0000718503D02*
X0001206299Y0000718503D01*
X0001742519Y0000194488D02*
X0001206299Y0000194488D01*
X0001742519Y0000718503D02*
X0001742519Y0000194488D01*
X0001206299Y0000718503D02*
X0001206299Y0000194488D01*
G04 #@! TO.C,RV1*
X0002235078Y0000597440D02*
X0002171614Y0000660826D01*
X0002240590Y0000602992D02*
X0002177165Y0000666377D01*
X0002258464Y0000489370D02*
X0002258464Y0000684291D01*
X0001878543Y0000489370D02*
X0001878543Y0000684291D01*
X0001878543Y0000684291D02*
X0002258464Y0000684291D01*
X0001878543Y0000489370D02*
X0002258464Y0000489370D01*
X0002206894Y0000677324D02*
G75*
G03X0002161653Y0000622440I-0000000792J-0000045435D01*
G01*
X0002204515Y0000586445D02*
G75*
G03X0002206102Y0000677362I0000001586J0000045444D01*
G01*
G04 #@! TO.C,J1*
X0002280708Y0000034251D02*
X0002280708Y0000086614D01*
X0002228346Y0000034251D02*
X0002280708Y0000034251D01*
X0002178346Y0000034251D02*
X0002178346Y0000138976D01*
X0002178346Y0000138976D02*
X0002075984Y0000138976D01*
X0002178346Y0000034251D02*
X0002075984Y0000034251D01*
X0002075984Y0000034251D02*
X0002075984Y0000138976D01*
G04 #@! TO.C,C6*
X0001512598Y0000168110D02*
X0001219685Y0000168110D01*
X0001512598Y0000020866D02*
X0001219685Y0000020866D01*
X0001512598Y0000168110D02*
X0001512598Y0000020866D01*
X0001219685Y0000168110D02*
X0001219685Y0000020866D01*
G04 #@! TO.C,C5*
D23*
X0001563554Y0000814960D02*
X0001564679Y0000816085D01*
X0001565804Y0000819460D01*
X0001565804Y0000821709D01*
X0001564679Y0000825084D01*
X0001562429Y0000827334D01*
X0001560179Y0000828458D01*
X0001555680Y0000829583D01*
X0001552305Y0000829583D01*
X0001547806Y0000828458D01*
X0001545556Y0000827334D01*
X0001543307Y0000825084D01*
X0001542182Y0000821709D01*
X0001542182Y0000819460D01*
X0001543307Y0000816085D01*
X0001544431Y0000814960D01*
X0001542182Y0000793588D02*
X0001542182Y0000804836D01*
X0001553430Y0000805961D01*
X0001552305Y0000804836D01*
X0001551181Y0000802587D01*
X0001551181Y0000796962D01*
X0001552305Y0000794713D01*
X0001553430Y0000793588D01*
X0001555680Y0000792463D01*
X0001561304Y0000792463D01*
X0001563554Y0000793588D01*
X0001564679Y0000794713D01*
X0001565804Y0000796962D01*
X0001565804Y0000802587D01*
X0001564679Y0000804836D01*
X0001563554Y0000805961D01*
G04 #@! TO.C,RV3*
X0001283745Y0000215691D02*
X0001291619Y0000226940D01*
X0001297244Y0000215691D02*
X0001297244Y0000239313D01*
X0001288245Y0000239313D01*
X0001285995Y0000238188D01*
X0001284870Y0000237064D01*
X0001283745Y0000234814D01*
X0001283745Y0000231439D01*
X0001284870Y0000229190D01*
X0001285995Y0000228065D01*
X0001288245Y0000226940D01*
X0001297244Y0000226940D01*
X0001276996Y0000239313D02*
X0001269122Y0000215691D01*
X0001261248Y0000239313D01*
X0001255624Y0000239313D02*
X0001241001Y0000239313D01*
X0001248875Y0000230314D01*
X0001245500Y0000230314D01*
X0001243250Y0000229190D01*
X0001242125Y0000228065D01*
X0001241001Y0000225815D01*
X0001241001Y0000220191D01*
X0001242125Y0000217941D01*
X0001243250Y0000216816D01*
X0001245500Y0000215691D01*
X0001252249Y0000215691D01*
X0001254499Y0000216816D01*
X0001255624Y0000217941D01*
G04 #@! TO.C,RV1*
X0002243981Y0000457817D02*
X0002251855Y0000469066D01*
X0002257480Y0000457817D02*
X0002257480Y0000481439D01*
X0002248481Y0000481439D01*
X0002246231Y0000480314D01*
X0002245106Y0000479190D01*
X0002243981Y0000476940D01*
X0002243981Y0000473565D01*
X0002245106Y0000471316D01*
X0002246231Y0000470191D01*
X0002248481Y0000469066D01*
X0002257480Y0000469066D01*
X0002237232Y0000481439D02*
X0002229358Y0000457817D01*
X0002221484Y0000481439D01*
X0002201237Y0000457817D02*
X0002214735Y0000457817D01*
X0002207986Y0000457817D02*
X0002207986Y0000481439D01*
X0002210236Y0000478065D01*
X0002212485Y0000475815D01*
X0002214735Y0000474690D01*
G04 #@! TO.C,J1*
X0002246906Y0000173228D02*
X0002263779Y0000173228D01*
X0002267154Y0000174353D01*
X0002269403Y0000176602D01*
X0002270528Y0000179977D01*
X0002270528Y0000182227D01*
X0002270528Y0000149606D02*
X0002270528Y0000163104D01*
X0002270528Y0000156355D02*
X0002246906Y0000156355D01*
X0002250281Y0000158605D01*
X0002252530Y0000160854D01*
X0002253655Y0000163104D01*
G04 #@! TO.C,C6*
X0001555680Y0000098425D02*
X0001556805Y0000099550D01*
X0001557930Y0000102924D01*
X0001557930Y0000105174D01*
X0001556805Y0000108548D01*
X0001554555Y0000110798D01*
X0001552305Y0000111923D01*
X0001547806Y0000113048D01*
X0001544431Y0000113048D01*
X0001539932Y0000111923D01*
X0001537682Y0000110798D01*
X0001535433Y0000108548D01*
X0001534308Y0000105174D01*
X0001534308Y0000102924D01*
X0001535433Y0000099550D01*
X0001536557Y0000098425D01*
X0001534308Y0000078177D02*
X0001534308Y0000082677D01*
X0001535433Y0000084926D01*
X0001536557Y0000086051D01*
X0001539932Y0000088301D01*
X0001544431Y0000089426D01*
X0001553430Y0000089426D01*
X0001555680Y0000088301D01*
X0001556805Y0000087176D01*
X0001557930Y0000084926D01*
X0001557930Y0000080427D01*
X0001556805Y0000078177D01*
X0001555680Y0000077052D01*
X0001553430Y0000075928D01*
X0001547806Y0000075928D01*
X0001545556Y0000077052D01*
X0001544431Y0000078177D01*
X0001543307Y0000080427D01*
X0001543307Y0000084926D01*
X0001544431Y0000087176D01*
X0001545556Y0000088301D01*
X0001547806Y0000089426D01*
G04 #@! TD*
G04 next file*
G04 #@! TF.GenerationSoftware,KiCad,Pcbnew,(5.0.0)*
G04 #@! TF.CreationDate,2018-08-27T21:34:21+10:00*
G04 #@! TF.ProjectId,BT,42542E6B696361645F70636200000000,rev?*
G04 #@! TF.SameCoordinates,Original*
G04 #@! TF.FileFunction,Legend,Bot*
G04 #@! TF.FilePolarity,Positive*
G04 Gerber Fmt 4.6, Leading zero omitted, Abs format (unit mm)*
G04 Created by KiCad (PCBNEW (5.0.0)) date 08/27/18 21:34:21*
G01*
G04 APERTURE LIST*
G04 APERTURE END LIST*
D24*
G04 #@! TO.C,C5*
X0001227559Y0001888582D02*
X0001227559Y0001741338D01*
X0001520472Y0001888582D02*
X0001520472Y0001741338D01*
X0001520472Y0001741338D02*
X0001227559Y0001741338D01*
X0001520472Y0001888582D02*
X0001227559Y0001888582D01*
G04 #@! TO.C,RV3*
X0001742519Y0001722440D02*
X0001206299Y0001722440D01*
X0001742519Y0001198425D02*
X0001206299Y0001198425D01*
X0001742519Y0001722440D02*
X0001742519Y0001198425D01*
X0001206299Y0001722440D02*
X0001206299Y0001198425D01*
G04 #@! TO.C,RV1*
X0002235078Y0001601377D02*
X0002171614Y0001664763D01*
X0002240590Y0001606929D02*
X0002177165Y0001670314D01*
X0002258464Y0001493307D02*
X0002258464Y0001688228D01*
X0001878543Y0001493307D02*
X0001878543Y0001688228D01*
X0001878543Y0001688228D02*
X0002258464Y0001688228D01*
X0001878543Y0001493307D02*
X0002258464Y0001493307D01*
X0002206894Y0001681261D02*
G75*
G03X0002161653Y0001626377I-0000000792J-0000045435D01*
G01*
X0002204515Y0001590382D02*
G75*
G03X0002206102Y0001681299I0000001586J0000045444D01*
G01*
G04 #@! TO.C,J1*
X0002280708Y0001038188D02*
X0002280708Y0001090551D01*
X0002228346Y0001038188D02*
X0002280708Y0001038188D01*
X0002178346Y0001038188D02*
X0002178346Y0001142913D01*
X0002178346Y0001142913D02*
X0002075984Y0001142913D01*
X0002178346Y0001038188D02*
X0002075984Y0001038188D01*
X0002075984Y0001038188D02*
X0002075984Y0001142913D01*
G04 #@! TO.C,C6*
X0001512598Y0001172047D02*
X0001219685Y0001172047D01*
X0001512598Y0001024803D02*
X0001219685Y0001024803D01*
X0001512598Y0001172047D02*
X0001512598Y0001024803D01*
X0001219685Y0001172047D02*
X0001219685Y0001024803D01*
G04 #@! TO.C,C5*
D25*
X0001563554Y0001818897D02*
X0001564679Y0001820022D01*
X0001565804Y0001823397D01*
X0001565804Y0001825646D01*
X0001564679Y0001829021D01*
X0001562429Y0001831271D01*
X0001560179Y0001832395D01*
X0001555680Y0001833520D01*
X0001552305Y0001833520D01*
X0001547806Y0001832395D01*
X0001545556Y0001831271D01*
X0001543307Y0001829021D01*
X0001542182Y0001825646D01*
X0001542182Y0001823397D01*
X0001543307Y0001820022D01*
X0001544431Y0001818897D01*
X0001542182Y0001797525D02*
X0001542182Y0001808773D01*
X0001553430Y0001809898D01*
X0001552305Y0001808773D01*
X0001551181Y0001806524D01*
X0001551181Y0001800899D01*
X0001552305Y0001798650D01*
X0001553430Y0001797525D01*
X0001555680Y0001796400D01*
X0001561304Y0001796400D01*
X0001563554Y0001797525D01*
X0001564679Y0001798650D01*
X0001565804Y0001800899D01*
X0001565804Y0001806524D01*
X0001564679Y0001808773D01*
X0001563554Y0001809898D01*
G04 #@! TO.C,RV3*
X0001283745Y0001219628D02*
X0001291619Y0001230877D01*
X0001297244Y0001219628D02*
X0001297244Y0001243250D01*
X0001288245Y0001243250D01*
X0001285995Y0001242125D01*
X0001284870Y0001241001D01*
X0001283745Y0001238751D01*
X0001283745Y0001235376D01*
X0001284870Y0001233127D01*
X0001285995Y0001232002D01*
X0001288245Y0001230877D01*
X0001297244Y0001230877D01*
X0001276996Y0001243250D02*
X0001269122Y0001219628D01*
X0001261248Y0001243250D01*
X0001255624Y0001243250D02*
X0001241001Y0001243250D01*
X0001248875Y0001234251D01*
X0001245500Y0001234251D01*
X0001243250Y0001233127D01*
X0001242125Y0001232002D01*
X0001241001Y0001229752D01*
X0001241001Y0001224128D01*
X0001242125Y0001221878D01*
X0001243250Y0001220753D01*
X0001245500Y0001219628D01*
X0001252249Y0001219628D01*
X0001254499Y0001220753D01*
X0001255624Y0001221878D01*
G04 #@! TO.C,RV1*
X0002243981Y0001461754D02*
X0002251855Y0001473003D01*
X0002257480Y0001461754D02*
X0002257480Y0001485376D01*
X0002248481Y0001485376D01*
X0002246231Y0001484251D01*
X0002245106Y0001483127D01*
X0002243981Y0001480877D01*
X0002243981Y0001477502D01*
X0002245106Y0001475253D01*
X0002246231Y0001474128D01*
X0002248481Y0001473003D01*
X0002257480Y0001473003D01*
X0002237232Y0001485376D02*
X0002229358Y0001461754D01*
X0002221484Y0001485376D01*
X0002201237Y0001461754D02*
X0002214735Y0001461754D01*
X0002207986Y0001461754D02*
X0002207986Y0001485376D01*
X0002210236Y0001482002D01*
X0002212485Y0001479752D01*
X0002214735Y0001478627D01*
G04 #@! TO.C,J1*
X0002246906Y0001177165D02*
X0002263779Y0001177165D01*
X0002267154Y0001178290D01*
X0002269403Y0001180539D01*
X0002270528Y0001183914D01*
X0002270528Y0001186164D01*
X0002270528Y0001153543D02*
X0002270528Y0001167041D01*
X0002270528Y0001160292D02*
X0002246906Y0001160292D01*
X0002250281Y0001162542D01*
X0002252530Y0001164791D01*
X0002253655Y0001167041D01*
G04 #@! TO.C,C6*
X0001555680Y0001102362D02*
X0001556805Y0001103487D01*
X0001557930Y0001106861D01*
X0001557930Y0001109111D01*
X0001556805Y0001112485D01*
X0001554555Y0001114735D01*
X0001552305Y0001115860D01*
X0001547806Y0001116985D01*
X0001544431Y0001116985D01*
X0001539932Y0001115860D01*
X0001537682Y0001114735D01*
X0001535433Y0001112485D01*
X0001534308Y0001109111D01*
X0001534308Y0001106861D01*
X0001535433Y0001103487D01*
X0001536557Y0001102362D01*
X0001534308Y0001082114D02*
X0001534308Y0001086614D01*
X0001535433Y0001088863D01*
X0001536557Y0001089988D01*
X0001539932Y0001092238D01*
X0001544431Y0001093363D01*
X0001553430Y0001093363D01*
X0001555680Y0001092238D01*
X0001556805Y0001091113D01*
X0001557930Y0001088863D01*
X0001557930Y0001084364D01*
X0001556805Y0001082114D01*
X0001555680Y0001080989D01*
X0001553430Y0001079865D01*
X0001547806Y0001079865D01*
X0001545556Y0001080989D01*
X0001544431Y0001082114D01*
X0001543307Y0001084364D01*
X0001543307Y0001088863D01*
X0001544431Y0001091113D01*
X0001545556Y0001092238D01*
X0001547806Y0001093363D01*
G04 #@! TD*
G04 next file*
G04 #@! TF.GenerationSoftware,KiCad,Pcbnew,(5.0.0)*
G04 #@! TF.CreationDate,2018-08-27T21:34:21+10:00*
G04 #@! TF.ProjectId,BT,42542E6B696361645F70636200000000,rev?*
G04 #@! TF.SameCoordinates,Original*
G04 #@! TF.FileFunction,Legend,Bot*
G04 #@! TF.FilePolarity,Positive*
G04 Gerber Fmt 4.6, Leading zero omitted, Abs format (unit mm)*
G04 Created by KiCad (PCBNEW (5.0.0)) date 08/27/18 21:34:21*
G01*
G04 APERTURE LIST*
G04 APERTURE END LIST*
D26*
G04 #@! TO.C,C5*
X0000026771Y0001888582D02*
X0000026771Y0001741338D01*
X0000319685Y0001888582D02*
X0000319685Y0001741338D01*
X0000319685Y0001741338D02*
X0000026771Y0001741338D01*
X0000319685Y0001888582D02*
X0000026771Y0001888582D01*
G04 #@! TO.C,RV3*
X0000541732Y0001722440D02*
X0000005511Y0001722440D01*
X0000541732Y0001198425D02*
X0000005511Y0001198425D01*
X0000541732Y0001722440D02*
X0000541732Y0001198425D01*
X0000005511Y0001722440D02*
X0000005511Y0001198425D01*
G04 #@! TO.C,RV1*
X0001034291Y0001601377D02*
X0000970826Y0001664763D01*
X0001039803Y0001606929D02*
X0000976377Y0001670314D01*
X0001057677Y0001493307D02*
X0001057677Y0001688228D01*
X0000677755Y0001493307D02*
X0000677755Y0001688228D01*
X0000677755Y0001688228D02*
X0001057677Y0001688228D01*
X0000677755Y0001493307D02*
X0001057677Y0001493307D01*
X0001006107Y0001681261D02*
G75*
G03X0000960866Y0001626377I-0000000792J-0000045435D01*
G01*
X0001003727Y0001590382D02*
G75*
G03X0001005314Y0001681299I0000001586J0000045444D01*
G01*
G04 #@! TO.C,J1*
X0001079921Y0001038188D02*
X0001079921Y0001090551D01*
X0001027559Y0001038188D02*
X0001079921Y0001038188D01*
X0000977559Y0001038188D02*
X0000977559Y0001142913D01*
X0000977559Y0001142913D02*
X0000875196Y0001142913D01*
X0000977559Y0001038188D02*
X0000875196Y0001038188D01*
X0000875196Y0001038188D02*
X0000875196Y0001142913D01*
G04 #@! TO.C,C6*
X0000311810Y0001172047D02*
X0000018897Y0001172047D01*
X0000311810Y0001024803D02*
X0000018897Y0001024803D01*
X0000311810Y0001172047D02*
X0000311810Y0001024803D01*
X0000018897Y0001172047D02*
X0000018897Y0001024803D01*
G04 #@! TO.C,C5*
D27*
X0000362767Y0001818897D02*
X0000363891Y0001820022D01*
X0000365016Y0001823397D01*
X0000365016Y0001825646D01*
X0000363891Y0001829021D01*
X0000361642Y0001831271D01*
X0000359392Y0001832395D01*
X0000354893Y0001833520D01*
X0000351518Y0001833520D01*
X0000347019Y0001832395D01*
X0000344769Y0001831271D01*
X0000342519Y0001829021D01*
X0000341394Y0001825646D01*
X0000341394Y0001823397D01*
X0000342519Y0001820022D01*
X0000343644Y0001818897D01*
X0000341394Y0001797525D02*
X0000341394Y0001808773D01*
X0000352643Y0001809898D01*
X0000351518Y0001808773D01*
X0000350393Y0001806524D01*
X0000350393Y0001800899D01*
X0000351518Y0001798650D01*
X0000352643Y0001797525D01*
X0000354893Y0001796400D01*
X0000360517Y0001796400D01*
X0000362767Y0001797525D01*
X0000363891Y0001798650D01*
X0000365016Y0001800899D01*
X0000365016Y0001806524D01*
X0000363891Y0001808773D01*
X0000362767Y0001809898D01*
G04 #@! TO.C,RV3*
X0000082958Y0001219628D02*
X0000090832Y0001230877D01*
X0000096456Y0001219628D02*
X0000096456Y0001243250D01*
X0000087457Y0001243250D01*
X0000085208Y0001242125D01*
X0000084083Y0001241001D01*
X0000082958Y0001238751D01*
X0000082958Y0001235376D01*
X0000084083Y0001233127D01*
X0000085208Y0001232002D01*
X0000087457Y0001230877D01*
X0000096456Y0001230877D01*
X0000076209Y0001243250D02*
X0000068335Y0001219628D01*
X0000060461Y0001243250D01*
X0000054836Y0001243250D02*
X0000040213Y0001243250D01*
X0000048087Y0001234251D01*
X0000044713Y0001234251D01*
X0000042463Y0001233127D01*
X0000041338Y0001232002D01*
X0000040213Y0001229752D01*
X0000040213Y0001224128D01*
X0000041338Y0001221878D01*
X0000042463Y0001220753D01*
X0000044713Y0001219628D01*
X0000051462Y0001219628D01*
X0000053711Y0001220753D01*
X0000054836Y0001221878D01*
G04 #@! TO.C,RV1*
X0001043194Y0001461754D02*
X0001051068Y0001473003D01*
X0001056692Y0001461754D02*
X0001056692Y0001485376D01*
X0001047693Y0001485376D01*
X0001045444Y0001484251D01*
X0001044319Y0001483127D01*
X0001043194Y0001480877D01*
X0001043194Y0001477502D01*
X0001044319Y0001475253D01*
X0001045444Y0001474128D01*
X0001047693Y0001473003D01*
X0001056692Y0001473003D01*
X0001036445Y0001485376D02*
X0001028571Y0001461754D01*
X0001020697Y0001485376D01*
X0001000449Y0001461754D02*
X0001013948Y0001461754D01*
X0001007199Y0001461754D02*
X0001007199Y0001485376D01*
X0001009448Y0001482002D01*
X0001011698Y0001479752D01*
X0001013948Y0001478627D01*
G04 #@! TO.C,J1*
X0001046119Y0001177165D02*
X0001062992Y0001177165D01*
X0001066366Y0001178290D01*
X0001068616Y0001180539D01*
X0001069741Y0001183914D01*
X0001069741Y0001186164D01*
X0001069741Y0001153543D02*
X0001069741Y0001167041D01*
X0001069741Y0001160292D02*
X0001046119Y0001160292D01*
X0001049493Y0001162542D01*
X0001051743Y0001164791D01*
X0001052868Y0001167041D01*
G04 #@! TO.C,C6*
X0000354893Y0001102362D02*
X0000356017Y0001103487D01*
X0000357142Y0001106861D01*
X0000357142Y0001109111D01*
X0000356017Y0001112485D01*
X0000353768Y0001114735D01*
X0000351518Y0001115860D01*
X0000347019Y0001116985D01*
X0000343644Y0001116985D01*
X0000339145Y0001115860D01*
X0000336895Y0001114735D01*
X0000334645Y0001112485D01*
X0000333520Y0001109111D01*
X0000333520Y0001106861D01*
X0000334645Y0001103487D01*
X0000335770Y0001102362D01*
X0000333520Y0001082114D02*
X0000333520Y0001086614D01*
X0000334645Y0001088863D01*
X0000335770Y0001089988D01*
X0000339145Y0001092238D01*
X0000343644Y0001093363D01*
X0000352643Y0001093363D01*
X0000354893Y0001092238D01*
X0000356017Y0001091113D01*
X0000357142Y0001088863D01*
X0000357142Y0001084364D01*
X0000356017Y0001082114D01*
X0000354893Y0001080989D01*
X0000352643Y0001079865D01*
X0000347019Y0001079865D01*
X0000344769Y0001080989D01*
X0000343644Y0001082114D01*
X0000342519Y0001084364D01*
X0000342519Y0001088863D01*
X0000343644Y0001091113D01*
X0000344769Y0001092238D01*
X0000347019Y0001093363D01*
G04 #@! TD*
M02*