%MOIN*%
%OFA0B0*%
%FSLAX44Y44*%
%IPPOS*%
%LPD*%
%ADD10C,0*%
D10*
X00011023Y00006118D02*
X00011023Y00006118D01*
X00011023Y00009842D01*
X00006708Y00009842D01*
X00006677Y00009843D01*
X00006646Y00009847D01*
X00006616Y00009853D01*
X00006586Y00009861D01*
X00006557Y00009872D01*
X00006529Y00009885D01*
X00006502Y00009900D01*
X00006477Y00009917D01*
X00006452Y00009936D01*
X00006430Y00009957D01*
X00006409Y00009980D01*
X00006390Y00010004D01*
X00006372Y00010030D01*
X00006357Y00010057D01*
X00006344Y00010085D01*
X00006334Y00010114D01*
X00006325Y00010144D01*
X00006319Y00010174D01*
X00006316Y00010205D01*
X00006708Y00010236D01*
X00006316Y00010267D01*
X00006319Y00010297D01*
X00006325Y00010328D01*
X00006334Y00010357D01*
X00006344Y00010386D01*
X00006357Y00010414D01*
X00006372Y00010441D01*
X00006390Y00010467D01*
X00006409Y00010491D01*
X00006430Y00010514D01*
X00006452Y00010535D01*
X00006477Y00010554D01*
X00006502Y00010571D01*
X00006529Y00010587D01*
X00006557Y00010599D01*
X00006586Y00010610D01*
X00006616Y00010619D01*
X00006646Y00010625D01*
X00006677Y00010628D01*
X00006708Y00010629D01*
X00011023Y00010629D01*
X00011023Y00014354D01*
X00011417Y00014354D01*
X00011028Y00014416D01*
X00011042Y00014476D01*
X00011066Y00014533D01*
X00011098Y00014585D01*
X00011138Y00014632D01*
X00011185Y00014672D01*
X00011238Y00014705D01*
X00011295Y00014728D01*
X00011355Y00014743D01*
X00011417Y00014748D01*
X00011478Y00014743D01*
X00011538Y00014728D01*
X00011596Y00014705D01*
X00011648Y00014672D01*
X00011695Y00014632D01*
X00011735Y00014585D01*
X00011768Y00014533D01*
X00011791Y00014476D01*
X00011806Y00014416D01*
X00011811Y00014354D01*
X00011811Y00010629D01*
X00016126Y00010629D01*
X00016217Y00010619D01*
X00016304Y00010587D01*
X00016381Y00010535D01*
X00016444Y00010467D01*
X00016489Y00010386D01*
X00016514Y00010297D01*
X00016518Y00010205D01*
X00016500Y00010114D01*
X00016461Y00010030D01*
X00016404Y00009957D01*
X00016331Y00009900D01*
X00016247Y00009861D01*
X00016156Y00009843D01*
X00016064Y00009847D01*
X00015975Y00009872D01*
X00015894Y00009917D01*
X00015826Y00009980D01*
X00015775Y00010057D01*
X00015743Y00010144D01*
X00016126Y00010236D01*
X00015743Y00010328D01*
X00015775Y00010414D01*
X00015826Y00010491D01*
X00015894Y00010554D01*
X00015975Y00010599D01*
X00016064Y00010625D01*
X00016156Y00010628D01*
X00016247Y00010610D01*
X00016331Y00010571D01*
X00016404Y00010514D01*
X00016461Y00010441D01*
X00016500Y00010357D01*
X00016518Y00010267D01*
X00016514Y00010174D01*
X00016489Y00010085D01*
X00016444Y00010004D01*
X00016381Y00009936D01*
X00016304Y00009885D01*
X00016217Y00009853D01*
X00016126Y00009842D01*
X00011811Y00009842D01*
X00011811Y00006118D01*
X00011806Y00006056D01*
X00011791Y00005996D01*
X00011768Y00005939D01*
X00011735Y00005886D01*
X00011695Y00005839D01*
X00011648Y00005799D01*
X00011596Y00005767D01*
X00011538Y00005743D01*
X00011478Y00005729D01*
X00011417Y00005724D01*
X00011355Y00005729D01*
X00011295Y00005743D01*
X00011238Y00005767D01*
X00011185Y00005799D01*
X00011138Y00005839D01*
X00011098Y00005886D01*
X00011066Y00005939D01*
X00011042Y00005996D01*
X00011028Y00006056D01*
X00011023Y00006118D01*
X00011023Y00006118D01*
X00000000Y00009842D02*
X00000000Y00009842D01*
X00000000Y00000000D01*
X00011023Y00000000D01*
X00011023Y00003724D01*
X00011028Y00003786D01*
X00011042Y00003846D01*
X00011066Y00003903D01*
X00011098Y00003955D01*
X00011138Y00004002D01*
X00011185Y00004043D01*
X00011238Y00004075D01*
X00011295Y00004098D01*
X00011355Y00004113D01*
X00011417Y00004118D01*
X00011478Y00004113D01*
X00011538Y00004098D01*
X00011596Y00004075D01*
X00011648Y00004043D01*
X00011695Y00004002D01*
X00011735Y00003955D01*
X00011768Y00003903D01*
X00011791Y00003846D01*
X00011806Y00003786D01*
X00011811Y00003724D01*
X00011811Y00003724D01*
X00011811Y00000000D01*
X00022834Y00000000D01*
X00022834Y00009842D01*
X00018519Y00009842D01*
X00018488Y00009843D01*
X00018457Y00009847D01*
X00018427Y00009853D01*
X00018397Y00009861D01*
X00018368Y00009872D01*
X00018340Y00009885D01*
X00018313Y00009900D01*
X00018288Y00009917D01*
X00018263Y00009936D01*
X00018241Y00009957D01*
X00018220Y00009980D01*
X00018201Y00010004D01*
X00018183Y00010030D01*
X00018168Y00010057D01*
X00018155Y00010085D01*
X00018145Y00010114D01*
X00018136Y00010144D01*
X00018130Y00010174D01*
X00018127Y00010205D01*
X00018519Y00010236D01*
X00018127Y00010267D01*
X00018130Y00010297D01*
X00018136Y00010328D01*
X00018145Y00010357D01*
X00018155Y00010386D01*
X00018168Y00010414D01*
X00018183Y00010441D01*
X00018201Y00010467D01*
X00018220Y00010491D01*
X00018241Y00010514D01*
X00018263Y00010535D01*
X00018288Y00010554D01*
X00018313Y00010571D01*
X00018340Y00010587D01*
X00018368Y00010599D01*
X00018397Y00010610D01*
X00018427Y00010619D01*
X00018457Y00010625D01*
X00018488Y00010628D01*
X00018519Y00010629D01*
X00022834Y00010629D01*
X00022834Y00020472D01*
X00011811Y00020472D01*
X00011811Y00016747D01*
X00011806Y00016686D01*
X00011791Y00016626D01*
X00011768Y00016569D01*
X00011735Y00016516D01*
X00011695Y00016469D01*
X00011648Y00016429D01*
X00011596Y00016397D01*
X00011538Y00016373D01*
X00011478Y00016359D01*
X00011417Y00016354D01*
X00011355Y00016359D01*
X00011295Y00016373D01*
X00011238Y00016397D01*
X00011185Y00016429D01*
X00011138Y00016469D01*
X00011098Y00016516D01*
X00011066Y00016569D01*
X00011042Y00016626D01*
X00011028Y00016686D01*
X00011417Y00016747D01*
X00011023Y00016747D01*
X00011023Y00020472D01*
X00000000Y00020472D01*
X00000000Y00010629D01*
X00004315Y00010629D01*
X00004406Y00010619D01*
X00004493Y00010587D01*
X00004570Y00010535D01*
X00004633Y00010467D01*
X00004678Y00010386D01*
X00004703Y00010297D01*
X00004707Y00010205D01*
X00004689Y00010114D01*
X00004650Y00010030D01*
X00004593Y00009957D01*
X00004520Y00009900D01*
X00004436Y00009861D01*
X00004345Y00009843D01*
X00004253Y00009847D01*
X00004164Y00009872D01*
X00004083Y00009917D01*
X00004015Y00009980D01*
X00003964Y00010057D01*
X00003932Y00010144D01*
X00004315Y00010236D01*
X00003932Y00010328D01*
X00003964Y00010414D01*
X00004015Y00010491D01*
X00004083Y00010554D01*
X00004164Y00010599D01*
X00004253Y00010625D01*
X00004345Y00010628D01*
X00004436Y00010610D01*
X00004520Y00010571D01*
X00004593Y00010514D01*
X00004650Y00010441D01*
X00004689Y00010357D01*
X00004707Y00010267D01*
X00004703Y00010174D01*
X00004678Y00010085D01*
X00004633Y00010004D01*
X00004570Y00009936D01*
X00004493Y00009885D01*
X00004406Y00009853D01*
X00004315Y00009842D01*
X00000000Y00009842D01*
M02*