%MOIN*%
%OFA0B0*%
%FSLAX46Y46*%
%IPPOS*%
%LPD*%
%ADD10C,0.0039370078740157488*%
%ADD11C,0.086614173228346469*%
%ADD12R,0.051181102362204731X0.062992125984251982*%
%ADD13C,0.070866141732283464*%
%ADD14C,0.072440944881889777*%
%ADD15R,0.0452755905511811X0.062992125984251982*%
%ADD16R,0.051181102362204731X0.047244094488188976*%
%ADD17R,0.062992125984251982X0.051181102362204731*%
%ADD18R,0.064960629921259838X0.055118110236220472*%
%ADD19R,0.074848031496062992X0.092548031496063*%
%ADD20R,0.086648031496063X0.076748031496062991*%
%ADD21R,0.082677165354330714X0.082677165354330714*%
%ADD22O,0.082677165354330714X0.082677165354330714*%
%ADD33C,0.0039370078740157488*%
%ADD34C,0.086614173228346469*%
%ADD35R,0.051181102362204731X0.062992125984251982*%
%ADD36C,0.070866141732283464*%
%ADD37C,0.072440944881889777*%
%ADD38R,0.0452755905511811X0.062992125984251982*%
%ADD39R,0.051181102362204731X0.047244094488188976*%
%ADD40R,0.062992125984251982X0.051181102362204731*%
%ADD41R,0.064960629921259838X0.055118110236220472*%
%ADD42R,0.074848031496062992X0.092548031496063*%
%ADD43R,0.086648031496063X0.076748031496062991*%
%ADD44R,0.082677165354330714X0.082677165354330714*%
%ADD45O,0.082677165354330714X0.082677165354330714*%
%ADD46C,0.0039370078740157488*%
%ADD47C,0.086614173228346469*%
%ADD48R,0.051181102362204731X0.062992125984251982*%
%ADD49C,0.070866141732283464*%
%ADD50C,0.072440944881889777*%
%ADD51R,0.0452755905511811X0.062992125984251982*%
%ADD52R,0.051181102362204731X0.047244094488188976*%
%ADD53R,0.062992125984251982X0.051181102362204731*%
%ADD54R,0.064960629921259838X0.055118110236220472*%
%ADD55R,0.074848031496062992X0.092548031496063*%
%ADD56R,0.086648031496063X0.076748031496062991*%
%ADD57R,0.082677165354330714X0.082677165354330714*%
%ADD58O,0.082677165354330714X0.082677165354330714*%
%ADD59C,0.0039370078740157488*%
%ADD60C,0.086614173228346469*%
%ADD61R,0.051181102362204731X0.062992125984251982*%
%ADD62C,0.070866141732283464*%
%ADD63C,0.072440944881889777*%
%ADD64R,0.0452755905511811X0.062992125984251982*%
%ADD65R,0.051181102362204731X0.047244094488188976*%
%ADD66R,0.062992125984251982X0.051181102362204731*%
%ADD67R,0.064960629921259838X0.055118110236220472*%
%ADD68R,0.074848031496062992X0.092548031496063*%
%ADD69R,0.086648031496063X0.076748031496062991*%
%ADD70R,0.082677165354330714X0.082677165354330714*%
%ADD71O,0.082677165354330714X0.082677165354330714*%
G01G01*
D10*
D11*
X-0005393700Y0004137795D02*
X0000078740Y0000486220D03*
X0000078740Y0000338582D03*
X0000078740Y0000190944D03*
X0000275590Y0000486220D03*
X0000275590Y0000338582D03*
X0000275590Y0000190944D03*
D12*
X0000393700Y0000433070D03*
X0000393700Y0000519684D03*
D13*
X0000177165Y0000771653D03*
X0000177165Y0000673228D03*
X0000389763Y0000771653D03*
X0000389763Y0000673228D03*
D14*
X0000992125Y0000472440D03*
X0000892125Y0000472440D03*
X0000792125Y0000472440D03*
D12*
X0000393700Y0000196850D03*
X0000393700Y0000283464D03*
D15*
X0000748031Y0000277558D03*
X0000748031Y0000202755D03*
D16*
X0000929133Y0000202755D03*
X0000929133Y0000277558D03*
X0000834645Y0000240157D03*
D12*
X0000629921Y0000283464D03*
X0000629921Y0000196850D03*
X0001023622Y0000283464D03*
X0001023622Y0000196850D03*
X0000629921Y0000519684D03*
X0000629921Y0000433070D03*
X0000629921Y0000657480D03*
X0000629921Y0000744094D03*
D17*
X0000157480Y0000074803D03*
X0000244094Y0000074803D03*
D18*
X0000511811Y0000732283D03*
X0000511811Y0000653543D03*
D19*
X0000511965Y0000441204D03*
X0000511965Y0000549404D03*
D20*
X0000511965Y0000278769D03*
X0000511965Y0000186169D03*
D21*
X0000828346Y0000082677D03*
D22*
X0000728346Y0000082677D03*
D21*
X0000728346Y0000728346D03*
D22*
X0000828346Y0000728346D03*
X0000928346Y0000728346D03*
X0001028346Y0000728346D03*
G04 next file*
G04 #@! TF.FileFunction,Soldermask,Top*
G04 Gerber Fmt 4.6, Leading zero omitted, Abs format (unit mm)*
G04 Created by KiCad (PCBNEW 4.0.4-1.fc24-product) date Mon Aug 27 11:18:24 2018*
G01G01*
G04 APERTURE LIST*
G04 APERTURE END LIST*
D33*
D34*
X-0004192913Y0004133858D02*
X0001279527Y0000482283D03*
X0001279527Y0000334645D03*
X0001279527Y0000187007D03*
X0001476377Y0000482283D03*
X0001476377Y0000334645D03*
X0001476377Y0000187007D03*
D35*
X0001594488Y0000429133D03*
X0001594488Y0000515747D03*
D36*
X0001377952Y0000767716D03*
X0001377952Y0000669291D03*
X0001590551Y0000767716D03*
X0001590551Y0000669291D03*
D37*
X0002192913Y0000468503D03*
X0002092913Y0000468503D03*
X0001992913Y0000468503D03*
D35*
X0001594488Y0000192913D03*
X0001594488Y0000279527D03*
D38*
X0001948818Y0000273622D03*
X0001948818Y0000198818D03*
D39*
X0002129921Y0000198818D03*
X0002129921Y0000273622D03*
X0002035433Y0000236220D03*
D35*
X0001830708Y0000279527D03*
X0001830708Y0000192913D03*
X0002224409Y0000279527D03*
X0002224409Y0000192913D03*
X0001830708Y0000515747D03*
X0001830708Y0000429133D03*
X0001830708Y0000653543D03*
X0001830708Y0000740157D03*
D40*
X0001358267Y0000070866D03*
X0001444881Y0000070866D03*
D41*
X0001712598Y0000728346D03*
X0001712598Y0000649606D03*
D42*
X0001712752Y0000437267D03*
X0001712752Y0000545467D03*
D43*
X0001712752Y0000274832D03*
X0001712752Y0000182232D03*
D44*
X0002029133Y0000078740D03*
D45*
X0001929133Y0000078740D03*
D44*
X0001929133Y0000724409D03*
D45*
X0002029133Y0000724409D03*
X0002129133Y0000724409D03*
X0002229133Y0000724409D03*
G04 next file*
G04 #@! TF.FileFunction,Soldermask,Top*
G04 Gerber Fmt 4.6, Leading zero omitted, Abs format (unit mm)*
G04 Created by KiCad (PCBNEW 4.0.4-1.fc24-product) date Mon Aug 27 11:18:24 2018*
G01G01*
G04 APERTURE LIST*
G04 APERTURE END LIST*
D46*
D47*
X-0004192913Y0005059055D02*
X0001279527Y0001407480D03*
X0001279527Y0001259842D03*
X0001279527Y0001112204D03*
X0001476377Y0001407480D03*
X0001476377Y0001259842D03*
X0001476377Y0001112204D03*
D48*
X0001594488Y0001354330D03*
X0001594488Y0001440944D03*
D49*
X0001377952Y0001692913D03*
X0001377952Y0001594488D03*
X0001590551Y0001692913D03*
X0001590551Y0001594488D03*
D50*
X0002192913Y0001393700D03*
X0002092913Y0001393700D03*
X0001992913Y0001393700D03*
D48*
X0001594488Y0001118110D03*
X0001594488Y0001204724D03*
D51*
X0001948818Y0001198818D03*
X0001948818Y0001124015D03*
D52*
X0002129921Y0001124015D03*
X0002129921Y0001198818D03*
X0002035433Y0001161417D03*
D48*
X0001830708Y0001204724D03*
X0001830708Y0001118110D03*
X0002224409Y0001204724D03*
X0002224409Y0001118110D03*
X0001830708Y0001440944D03*
X0001830708Y0001354330D03*
X0001830708Y0001578740D03*
X0001830708Y0001665354D03*
D53*
X0001358267Y0000996062D03*
X0001444881Y0000996062D03*
D54*
X0001712598Y0001653543D03*
X0001712598Y0001574803D03*
D55*
X0001712752Y0001362464D03*
X0001712752Y0001470664D03*
D56*
X0001712752Y0001200029D03*
X0001712752Y0001107429D03*
D57*
X0002029133Y0001003937D03*
D58*
X0001929133Y0001003937D03*
D57*
X0001929133Y0001649606D03*
D58*
X0002029133Y0001649606D03*
X0002129133Y0001649606D03*
X0002229133Y0001649606D03*
G04 next file*
G04 #@! TF.FileFunction,Soldermask,Top*
G04 Gerber Fmt 4.6, Leading zero omitted, Abs format (unit mm)*
G04 Created by KiCad (PCBNEW 4.0.4-1.fc24-product) date Mon Aug 27 11:18:24 2018*
G01G01*
G04 APERTURE LIST*
G04 APERTURE END LIST*
D59*
D60*
X-0005393700Y0005059055D02*
X0000078740Y0001407480D03*
X0000078740Y0001259842D03*
X0000078740Y0001112204D03*
X0000275590Y0001407480D03*
X0000275590Y0001259842D03*
X0000275590Y0001112204D03*
D61*
X0000393700Y0001354330D03*
X0000393700Y0001440944D03*
D62*
X0000177165Y0001692913D03*
X0000177165Y0001594488D03*
X0000389763Y0001692913D03*
X0000389763Y0001594488D03*
D63*
X0000992125Y0001393700D03*
X0000892125Y0001393700D03*
X0000792125Y0001393700D03*
D61*
X0000393700Y0001118110D03*
X0000393700Y0001204724D03*
D64*
X0000748031Y0001198818D03*
X0000748031Y0001124015D03*
D65*
X0000929133Y0001124015D03*
X0000929133Y0001198818D03*
X0000834645Y0001161417D03*
D61*
X0000629921Y0001204724D03*
X0000629921Y0001118110D03*
X0001023622Y0001204724D03*
X0001023622Y0001118110D03*
X0000629921Y0001440944D03*
X0000629921Y0001354330D03*
X0000629921Y0001578740D03*
X0000629921Y0001665354D03*
D66*
X0000157480Y0000996062D03*
X0000244094Y0000996062D03*
D67*
X0000511811Y0001653543D03*
X0000511811Y0001574803D03*
D68*
X0000511965Y0001362464D03*
X0000511965Y0001470664D03*
D69*
X0000511965Y0001200029D03*
X0000511965Y0001107429D03*
D70*
X0000828346Y0001003937D03*
D71*
X0000728346Y0001003937D03*
D70*
X0000728346Y0001649606D03*
D71*
X0000828346Y0001649606D03*
X0000928346Y0001649606D03*
X0001028346Y0001649606D03*
M02*