G04 #@! TF.FileFunction,Soldermask,Top*
%FSLAX46Y46*%
G04 Gerber Fmt 4.6, Leading zero omitted, Abs format (unit mm)*
G04 Created by KiCad (PCBNEW 4.0.4-1.fc24-product) date Thu Jun 14 15:19:39 2018*
%MOMM*%
%LPD*%
G01*
G04 APERTURE LIST*
%ADD10C,0.100000*%
%ADD11R,1.600000X1.300000*%
%ADD12R,1.950000X1.000000*%
%ADD13R,2.127200X2.432000*%
%ADD14O,2.127200X2.432000*%
%ADD15C,2.200000*%
%ADD16R,2.100000X2.100000*%
%ADD17O,2.100000X2.100000*%
%ADD18R,1.900000X1.650000*%
%ADD19R,1.600000X1.150000*%
G04 APERTURE END LIST*
D10*
D11*
X158900000Y-87000000D03*
X161100000Y-87000000D03*
D12*
X154700000Y-87905000D03*
X154700000Y-86635000D03*
X154700000Y-85365000D03*
X154700000Y-84095000D03*
X149300000Y-84095000D03*
X149300000Y-85365000D03*
X149300000Y-86635000D03*
X149300000Y-87905000D03*
D13*
X146920000Y-91000000D03*
D14*
X149460000Y-91000000D03*
X152000000Y-91000000D03*
X154540000Y-91000000D03*
X157080000Y-91000000D03*
D11*
X142900000Y-85500000D03*
X145100000Y-85500000D03*
D13*
X146920000Y-94200000D03*
D14*
X149460000Y-94200000D03*
X152000000Y-94200000D03*
X154540000Y-94200000D03*
X157080000Y-94200000D03*
D15*
X155750000Y-73500000D03*
X152000000Y-73500000D03*
X148250000Y-73500000D03*
X155750000Y-78500000D03*
X152000000Y-78500000D03*
X148250000Y-78500000D03*
D11*
X142900000Y-83400000D03*
X145100000Y-83400000D03*
D16*
X143200000Y-73260000D03*
D17*
X143200000Y-75800000D03*
D11*
X142900000Y-80900000D03*
X145100000Y-80900000D03*
X142900000Y-78400000D03*
X145100000Y-78400000D03*
X161100000Y-81500000D03*
X158900000Y-81500000D03*
X158900000Y-76500000D03*
X161100000Y-76500000D03*
D18*
X158750000Y-84000000D03*
X161250000Y-84000000D03*
D11*
X158900000Y-79000000D03*
X161100000Y-79000000D03*
X148200000Y-81500000D03*
X150400000Y-81500000D03*
D18*
X159050000Y-73300000D03*
X161550000Y-73300000D03*
D19*
X144900000Y-88000000D03*
X143000000Y-88000000D03*
X153750000Y-81500000D03*
X155650000Y-81500000D03*
M02*
