G04 #@! TF.FileFunction,Copper,L1,Top,Signal*
%FSLAX46Y46*%
G04 Gerber Fmt 4.6, Leading zero omitted, Abs format (unit mm)*
G04 Created by KiCad (PCBNEW 4.0.4-1.fc24-product) date Tue Jun  5 15:03:07 2018*
%MOMM*%
%LPD*%
G01*
G04 APERTURE LIST*
%ADD10C,0.100000*%
%ADD11C,1.800000*%
%ADD12R,1.200000X0.900000*%
%ADD13R,1.700000X1.700000*%
%ADD14O,1.700000X1.700000*%
%ADD15R,1.550000X0.600000*%
%ADD16R,1.500000X1.250000*%
%ADD17R,1.200000X0.750000*%
%ADD18R,1.200000X1.700000*%
%ADD19O,1.200000X1.700000*%
%ADD20C,0.600000*%
%ADD21C,0.300000*%
%ADD22C,0.500000*%
G04 APERTURE END LIST*
D10*
D11*
X155750000Y-73500000D03*
X152000000Y-73500000D03*
X148250000Y-73500000D03*
X155750000Y-78500000D03*
X152000000Y-78500000D03*
X148250000Y-78500000D03*
D12*
X142900000Y-86400000D03*
X145100000Y-86400000D03*
X142900000Y-83400000D03*
X145100000Y-83400000D03*
D13*
X143200000Y-73260000D03*
D14*
X143200000Y-75800000D03*
D12*
X142900000Y-80900000D03*
X145100000Y-80900000D03*
X142900000Y-78400000D03*
X145100000Y-78400000D03*
D15*
X154700000Y-87905000D03*
X154700000Y-86635000D03*
X154700000Y-85365000D03*
X154700000Y-84095000D03*
X149300000Y-84095000D03*
X149300000Y-85365000D03*
X149300000Y-86635000D03*
X149300000Y-87905000D03*
D12*
X161100000Y-81500000D03*
X158900000Y-81500000D03*
X158900000Y-76500000D03*
X161100000Y-76500000D03*
D16*
X158750000Y-84000000D03*
X161250000Y-84000000D03*
D12*
X158900000Y-79000000D03*
X161100000Y-79000000D03*
X148200000Y-81500000D03*
X150400000Y-81500000D03*
X158900000Y-87000000D03*
X161100000Y-87000000D03*
D16*
X159050000Y-73300000D03*
X161550000Y-73300000D03*
D17*
X144800000Y-88900000D03*
X142900000Y-88900000D03*
X153750000Y-81500000D03*
X155650000Y-81500000D03*
D18*
X143000000Y-91500000D03*
D19*
X145000000Y-91500000D03*
X147000000Y-91500000D03*
X149000000Y-91500000D03*
X151000000Y-91500000D03*
D18*
X155000000Y-91500000D03*
D19*
X157000000Y-91500000D03*
X159000000Y-91500000D03*
X161000000Y-91500000D03*
D20*
X154300000Y-82900000D03*
X156799994Y-83300000D03*
X161100000Y-85900000D03*
X156100000Y-85300000D03*
X159000000Y-88000000D03*
X151700000Y-81599990D03*
X141700000Y-83800000D03*
X144099998Y-84299998D03*
D21*
X147000000Y-91500000D02*
X147000000Y-88700000D01*
X147000000Y-88700000D02*
X147795000Y-87905000D01*
X147795000Y-87905000D02*
X149300000Y-87905000D01*
X148825000Y-87905000D02*
X149300000Y-87905000D01*
D22*
X154305000Y-82900000D02*
X154300000Y-82900000D01*
X154700000Y-83295000D02*
X154305000Y-82900000D01*
X154700000Y-84095000D02*
X154700000Y-83295000D01*
D21*
X157000000Y-91500000D02*
X157000000Y-91250000D01*
X157000000Y-91250000D02*
X155650000Y-89900000D01*
X155650000Y-89900000D02*
X153900000Y-89900000D01*
X153900000Y-89900000D02*
X150635000Y-86635000D01*
X150635000Y-86635000D02*
X149300000Y-86635000D01*
X149300000Y-86635000D02*
X146700000Y-86635000D01*
X146700000Y-86635000D02*
X145335000Y-86635000D01*
X146700000Y-84050000D02*
X146700000Y-86635000D01*
X145335000Y-86635000D02*
X145100000Y-86400000D01*
X146700000Y-84050000D02*
X146700000Y-82200000D01*
X146700000Y-82200000D02*
X147400000Y-81500000D01*
X147400000Y-81500000D02*
X148200000Y-81500000D01*
X144800000Y-88900000D02*
X144800000Y-86700000D01*
X144800000Y-86700000D02*
X145100000Y-86400000D01*
X157099993Y-83599999D02*
X156799994Y-83300000D01*
X157499994Y-84000000D02*
X157099993Y-83599999D01*
X158750000Y-84000000D02*
X157499994Y-84000000D01*
X161250000Y-84000000D02*
X161125000Y-84000000D01*
X161125000Y-84000000D02*
X158900000Y-81775000D01*
X158900000Y-81775000D02*
X158900000Y-81500000D01*
X155775000Y-86635000D02*
X154700000Y-86635000D01*
X155650000Y-81500000D02*
X155650000Y-83260004D01*
X155650000Y-83260004D02*
X156850002Y-84460006D01*
X156850002Y-84460006D02*
X156850002Y-85660002D01*
X156850002Y-85660002D02*
X155875004Y-86635000D01*
X155875004Y-86635000D02*
X155775000Y-86635000D01*
X158900000Y-81500000D02*
X155650000Y-81500000D01*
X158900000Y-81500000D02*
X159050000Y-81500000D01*
X157405000Y-87905000D02*
X161000000Y-91500000D01*
X154700000Y-87905000D02*
X157405000Y-87905000D01*
X145100000Y-82100000D02*
X145800000Y-82100000D01*
X151650000Y-80300000D02*
X152850000Y-81500000D01*
X145800000Y-82100000D02*
X147600000Y-80300000D01*
X147600000Y-80300000D02*
X151650000Y-80300000D01*
X152850000Y-81500000D02*
X153750000Y-81500000D01*
X145100000Y-83400000D02*
X145100000Y-82650000D01*
X142900000Y-80900000D02*
X142900000Y-78400000D01*
X143200000Y-82100000D02*
X142900000Y-81800000D01*
X142900000Y-81800000D02*
X142900000Y-80900000D01*
X145100000Y-82100000D02*
X143200000Y-82100000D01*
X145100000Y-83400000D02*
X145100000Y-82100000D01*
X153750000Y-81500000D02*
X153750000Y-82175000D01*
X153750000Y-82175000D02*
X153000000Y-82925000D01*
X153000000Y-82925000D02*
X153000000Y-87200000D01*
X153000000Y-87200000D02*
X153705000Y-87905000D01*
X153705000Y-87905000D02*
X154700000Y-87905000D01*
X160775000Y-75000000D02*
X158900000Y-75000000D01*
X158900000Y-75000000D02*
X157250000Y-75000000D01*
X158900000Y-76500000D02*
X158900000Y-75750000D01*
X158900000Y-75750000D02*
X158900000Y-75000000D01*
X157250000Y-75000000D02*
X155750000Y-73500000D01*
X161550000Y-73300000D02*
X161550000Y-74225000D01*
X161550000Y-74225000D02*
X160775000Y-75000000D01*
X159050000Y-73300000D02*
X158000000Y-73300000D01*
X158000000Y-73300000D02*
X156400000Y-71700000D01*
X156400000Y-71700000D02*
X150050000Y-71700000D01*
X150050000Y-71700000D02*
X148250000Y-73500000D01*
X148250000Y-73500000D02*
X148250000Y-75400000D01*
X148250000Y-75400000D02*
X145250000Y-78400000D01*
X145250000Y-78400000D02*
X145100000Y-78400000D01*
X161100000Y-87000000D02*
X161100000Y-85900000D01*
X156035000Y-85365000D02*
X156100000Y-85300000D01*
X154700000Y-85365000D02*
X156035000Y-85365000D01*
X151000000Y-91500000D02*
X151900000Y-91500000D01*
X151900000Y-91500000D02*
X153600000Y-93200000D01*
X153600000Y-93200000D02*
X161400000Y-93200000D01*
X161400000Y-93200000D02*
X162500000Y-92100000D01*
X162500000Y-92100000D02*
X162500000Y-81150000D01*
X162500000Y-81150000D02*
X161100000Y-79750000D01*
X161100000Y-79750000D02*
X161100000Y-79000000D01*
X161100000Y-79000000D02*
X161100000Y-76500000D01*
X159000000Y-91500000D02*
X159000000Y-91250000D01*
X159000000Y-91250000D02*
X156850000Y-89100000D01*
X156850000Y-89100000D02*
X153948542Y-89100000D01*
X158900000Y-87000000D02*
X159000000Y-87100000D01*
X159000000Y-87100000D02*
X159000000Y-88000000D01*
X149300000Y-84095000D02*
X150395000Y-84095000D01*
X150395000Y-84095000D02*
X151200000Y-84900000D01*
X151200000Y-84900000D02*
X151200000Y-86351458D01*
X151200000Y-86351458D02*
X153948542Y-89100000D01*
X152000000Y-73500000D02*
X153500000Y-75000000D01*
X153500000Y-75000000D02*
X153500000Y-78600000D01*
X153500000Y-78600000D02*
X155200000Y-80300000D01*
X155200000Y-80300000D02*
X159750000Y-80300000D01*
X159750000Y-80300000D02*
X160950000Y-81500000D01*
X160950000Y-81500000D02*
X161100000Y-81500000D01*
X148250000Y-78500000D02*
X145850000Y-80900000D01*
X145850000Y-80900000D02*
X145100000Y-80900000D01*
X157900000Y-79000000D02*
X157400000Y-78500000D01*
X157400000Y-78500000D02*
X155750000Y-78500000D01*
X158900000Y-79000000D02*
X157900000Y-79000000D01*
X151600010Y-81500000D02*
X151700000Y-81599990D01*
X150400000Y-81500000D02*
X151600010Y-81500000D01*
X150400000Y-81500000D02*
X150400000Y-82250000D01*
X150400000Y-82250000D02*
X149850000Y-82800000D01*
X148200000Y-82800000D02*
X147700000Y-83300000D01*
X149850000Y-82800000D02*
X148200000Y-82800000D01*
X147700000Y-83300000D02*
X147700000Y-84900000D01*
X148165000Y-85365000D02*
X149300000Y-85365000D01*
X147700000Y-84900000D02*
X148165000Y-85365000D01*
X142900000Y-88900000D02*
X142300000Y-88900000D01*
X142300000Y-88900000D02*
X141700000Y-88300000D01*
X141700000Y-88300000D02*
X141700000Y-83800000D01*
X141700000Y-83800000D02*
X142100000Y-83400000D01*
X142100000Y-83400000D02*
X142900000Y-83400000D01*
X143799999Y-84599997D02*
X144099998Y-84299998D01*
X142900000Y-86400000D02*
X142900000Y-85499996D01*
X142900000Y-85499996D02*
X143799999Y-84599997D01*
G36*
X148196117Y-87254919D02*
X148216442Y-87268806D01*
X148205081Y-87276117D01*
X148185346Y-87305000D01*
X147795000Y-87305000D01*
X147565390Y-87350672D01*
X147370736Y-87480736D01*
X146575736Y-88275736D01*
X146445672Y-88470390D01*
X146400000Y-88700000D01*
X146400000Y-90386879D01*
X146257538Y-90482069D01*
X146029926Y-90822713D01*
X146001719Y-90964522D01*
X145953583Y-90782927D01*
X145702255Y-90453560D01*
X145310725Y-90247030D01*
X145150000Y-90324578D01*
X145150000Y-91350000D01*
X145170000Y-91350000D01*
X145170000Y-91650000D01*
X145150000Y-91650000D01*
X145150000Y-92675422D01*
X145310725Y-92752970D01*
X145702255Y-92546440D01*
X145953583Y-92217073D01*
X146001719Y-92035478D01*
X146029926Y-92177287D01*
X146257538Y-92517931D01*
X146598182Y-92745543D01*
X147000000Y-92825469D01*
X147401818Y-92745543D01*
X147742462Y-92517931D01*
X147970074Y-92177287D01*
X148000000Y-92026838D01*
X148029926Y-92177287D01*
X148257538Y-92517931D01*
X148598182Y-92745543D01*
X149000000Y-92825469D01*
X149401818Y-92745543D01*
X149742462Y-92517931D01*
X149970074Y-92177287D01*
X150000000Y-92026838D01*
X150029926Y-92177287D01*
X150257538Y-92517931D01*
X150598182Y-92745543D01*
X151000000Y-92825469D01*
X151401818Y-92745543D01*
X151742462Y-92517931D01*
X151873417Y-92321945D01*
X153026472Y-93475000D01*
X141525000Y-93475000D01*
X141525000Y-90650000D01*
X141941184Y-90650000D01*
X141941184Y-92350000D01*
X141972562Y-92516760D01*
X142071117Y-92669919D01*
X142221495Y-92772668D01*
X142400000Y-92808816D01*
X143600000Y-92808816D01*
X143766760Y-92777438D01*
X143919919Y-92678883D01*
X144022668Y-92528505D01*
X144058816Y-92350000D01*
X144058816Y-92233322D01*
X144297745Y-92546440D01*
X144689275Y-92752970D01*
X144850000Y-92675422D01*
X144850000Y-91650000D01*
X144830000Y-91650000D01*
X144830000Y-91350000D01*
X144850000Y-91350000D01*
X144850000Y-90324578D01*
X144689275Y-90247030D01*
X144297745Y-90453560D01*
X144058816Y-90766678D01*
X144058816Y-90650000D01*
X144027438Y-90483240D01*
X143928883Y-90330081D01*
X143778505Y-90227332D01*
X143600000Y-90191184D01*
X142400000Y-90191184D01*
X142233240Y-90222562D01*
X142080081Y-90321117D01*
X141977332Y-90471495D01*
X141941184Y-90650000D01*
X141525000Y-90650000D01*
X141525000Y-88973528D01*
X141844594Y-89293122D01*
X141872562Y-89441760D01*
X141971117Y-89594919D01*
X142121495Y-89697668D01*
X142300000Y-89733816D01*
X143500000Y-89733816D01*
X143666760Y-89702438D01*
X143819919Y-89603883D01*
X143849256Y-89560946D01*
X143871117Y-89594919D01*
X144021495Y-89697668D01*
X144200000Y-89733816D01*
X145400000Y-89733816D01*
X145566760Y-89702438D01*
X145719919Y-89603883D01*
X145822668Y-89453505D01*
X145858816Y-89275000D01*
X145858816Y-88525000D01*
X145827438Y-88358240D01*
X145728883Y-88205081D01*
X145578505Y-88102332D01*
X145400000Y-88066184D01*
X145400000Y-87308816D01*
X145700000Y-87308816D01*
X145866760Y-87277438D01*
X145932711Y-87235000D01*
X148183299Y-87235000D01*
X148196117Y-87254919D01*
X148196117Y-87254919D01*
G37*
X148196117Y-87254919D02*
X148216442Y-87268806D01*
X148205081Y-87276117D01*
X148185346Y-87305000D01*
X147795000Y-87305000D01*
X147565390Y-87350672D01*
X147370736Y-87480736D01*
X146575736Y-88275736D01*
X146445672Y-88470390D01*
X146400000Y-88700000D01*
X146400000Y-90386879D01*
X146257538Y-90482069D01*
X146029926Y-90822713D01*
X146001719Y-90964522D01*
X145953583Y-90782927D01*
X145702255Y-90453560D01*
X145310725Y-90247030D01*
X145150000Y-90324578D01*
X145150000Y-91350000D01*
X145170000Y-91350000D01*
X145170000Y-91650000D01*
X145150000Y-91650000D01*
X145150000Y-92675422D01*
X145310725Y-92752970D01*
X145702255Y-92546440D01*
X145953583Y-92217073D01*
X146001719Y-92035478D01*
X146029926Y-92177287D01*
X146257538Y-92517931D01*
X146598182Y-92745543D01*
X147000000Y-92825469D01*
X147401818Y-92745543D01*
X147742462Y-92517931D01*
X147970074Y-92177287D01*
X148000000Y-92026838D01*
X148029926Y-92177287D01*
X148257538Y-92517931D01*
X148598182Y-92745543D01*
X149000000Y-92825469D01*
X149401818Y-92745543D01*
X149742462Y-92517931D01*
X149970074Y-92177287D01*
X150000000Y-92026838D01*
X150029926Y-92177287D01*
X150257538Y-92517931D01*
X150598182Y-92745543D01*
X151000000Y-92825469D01*
X151401818Y-92745543D01*
X151742462Y-92517931D01*
X151873417Y-92321945D01*
X153026472Y-93475000D01*
X141525000Y-93475000D01*
X141525000Y-90650000D01*
X141941184Y-90650000D01*
X141941184Y-92350000D01*
X141972562Y-92516760D01*
X142071117Y-92669919D01*
X142221495Y-92772668D01*
X142400000Y-92808816D01*
X143600000Y-92808816D01*
X143766760Y-92777438D01*
X143919919Y-92678883D01*
X144022668Y-92528505D01*
X144058816Y-92350000D01*
X144058816Y-92233322D01*
X144297745Y-92546440D01*
X144689275Y-92752970D01*
X144850000Y-92675422D01*
X144850000Y-91650000D01*
X144830000Y-91650000D01*
X144830000Y-91350000D01*
X144850000Y-91350000D01*
X144850000Y-90324578D01*
X144689275Y-90247030D01*
X144297745Y-90453560D01*
X144058816Y-90766678D01*
X144058816Y-90650000D01*
X144027438Y-90483240D01*
X143928883Y-90330081D01*
X143778505Y-90227332D01*
X143600000Y-90191184D01*
X142400000Y-90191184D01*
X142233240Y-90222562D01*
X142080081Y-90321117D01*
X141977332Y-90471495D01*
X141941184Y-90650000D01*
X141525000Y-90650000D01*
X141525000Y-88973528D01*
X141844594Y-89293122D01*
X141872562Y-89441760D01*
X141971117Y-89594919D01*
X142121495Y-89697668D01*
X142300000Y-89733816D01*
X143500000Y-89733816D01*
X143666760Y-89702438D01*
X143819919Y-89603883D01*
X143849256Y-89560946D01*
X143871117Y-89594919D01*
X144021495Y-89697668D01*
X144200000Y-89733816D01*
X145400000Y-89733816D01*
X145566760Y-89702438D01*
X145719919Y-89603883D01*
X145822668Y-89453505D01*
X145858816Y-89275000D01*
X145858816Y-88525000D01*
X145827438Y-88358240D01*
X145728883Y-88205081D01*
X145578505Y-88102332D01*
X145400000Y-88066184D01*
X145400000Y-87308816D01*
X145700000Y-87308816D01*
X145866760Y-87277438D01*
X145932711Y-87235000D01*
X148183299Y-87235000D01*
X148196117Y-87254919D01*
G36*
X153475736Y-90324264D02*
X153670390Y-90454328D01*
X153900000Y-90500000D01*
X153975056Y-90500000D01*
X153950000Y-90560490D01*
X153950000Y-91237500D01*
X154062500Y-91350000D01*
X154850000Y-91350000D01*
X154850000Y-91330000D01*
X155150000Y-91330000D01*
X155150000Y-91350000D01*
X155170000Y-91350000D01*
X155170000Y-91650000D01*
X155150000Y-91650000D01*
X155150000Y-91670000D01*
X154850000Y-91670000D01*
X154850000Y-91650000D01*
X154062500Y-91650000D01*
X153950000Y-91762500D01*
X153950000Y-92439510D01*
X154016477Y-92600000D01*
X153848528Y-92600000D01*
X152324264Y-91075736D01*
X152129610Y-90945672D01*
X151988967Y-90917697D01*
X151970074Y-90822713D01*
X151742462Y-90482069D01*
X151401818Y-90254457D01*
X151000000Y-90174531D01*
X150598182Y-90254457D01*
X150257538Y-90482069D01*
X150029926Y-90822713D01*
X150000000Y-90973162D01*
X149970074Y-90822713D01*
X149742462Y-90482069D01*
X149401818Y-90254457D01*
X149000000Y-90174531D01*
X148598182Y-90254457D01*
X148257538Y-90482069D01*
X148029926Y-90822713D01*
X148000000Y-90973162D01*
X147970074Y-90822713D01*
X147742462Y-90482069D01*
X147600000Y-90386879D01*
X147600000Y-88948528D01*
X148043528Y-88505000D01*
X148183299Y-88505000D01*
X148196117Y-88524919D01*
X148346495Y-88627668D01*
X148525000Y-88663816D01*
X150075000Y-88663816D01*
X150241760Y-88632438D01*
X150394919Y-88533883D01*
X150497668Y-88383505D01*
X150533816Y-88205000D01*
X150533816Y-87605000D01*
X150502438Y-87438240D01*
X150403883Y-87285081D01*
X150383558Y-87271194D01*
X150394919Y-87263883D01*
X150403214Y-87251742D01*
X153475736Y-90324264D01*
X153475736Y-90324264D01*
G37*
X153475736Y-90324264D02*
X153670390Y-90454328D01*
X153900000Y-90500000D01*
X153975056Y-90500000D01*
X153950000Y-90560490D01*
X153950000Y-91237500D01*
X154062500Y-91350000D01*
X154850000Y-91350000D01*
X154850000Y-91330000D01*
X155150000Y-91330000D01*
X155150000Y-91350000D01*
X155170000Y-91350000D01*
X155170000Y-91650000D01*
X155150000Y-91650000D01*
X155150000Y-91670000D01*
X154850000Y-91670000D01*
X154850000Y-91650000D01*
X154062500Y-91650000D01*
X153950000Y-91762500D01*
X153950000Y-92439510D01*
X154016477Y-92600000D01*
X153848528Y-92600000D01*
X152324264Y-91075736D01*
X152129610Y-90945672D01*
X151988967Y-90917697D01*
X151970074Y-90822713D01*
X151742462Y-90482069D01*
X151401818Y-90254457D01*
X151000000Y-90174531D01*
X150598182Y-90254457D01*
X150257538Y-90482069D01*
X150029926Y-90822713D01*
X150000000Y-90973162D01*
X149970074Y-90822713D01*
X149742462Y-90482069D01*
X149401818Y-90254457D01*
X149000000Y-90174531D01*
X148598182Y-90254457D01*
X148257538Y-90482069D01*
X148029926Y-90822713D01*
X148000000Y-90973162D01*
X147970074Y-90822713D01*
X147742462Y-90482069D01*
X147600000Y-90386879D01*
X147600000Y-88948528D01*
X148043528Y-88505000D01*
X148183299Y-88505000D01*
X148196117Y-88524919D01*
X148346495Y-88627668D01*
X148525000Y-88663816D01*
X150075000Y-88663816D01*
X150241760Y-88632438D01*
X150394919Y-88533883D01*
X150497668Y-88383505D01*
X150533816Y-88205000D01*
X150533816Y-87605000D01*
X150502438Y-87438240D01*
X150403883Y-87285081D01*
X150383558Y-87271194D01*
X150394919Y-87263883D01*
X150403214Y-87251742D01*
X153475736Y-90324264D01*
G36*
X160041184Y-83764712D02*
X160041184Y-84625000D01*
X160072562Y-84791760D01*
X160171117Y-84944919D01*
X160321495Y-85047668D01*
X160500000Y-85083816D01*
X161900000Y-85083816D01*
X161900000Y-86145766D01*
X161789511Y-86100000D01*
X161362500Y-86100000D01*
X161250000Y-86212500D01*
X161250000Y-86850000D01*
X161270000Y-86850000D01*
X161270000Y-87150000D01*
X161250000Y-87150000D01*
X161250000Y-87787500D01*
X161362500Y-87900000D01*
X161789511Y-87900000D01*
X161900000Y-87854234D01*
X161900000Y-90717840D01*
X161742462Y-90482069D01*
X161401818Y-90254457D01*
X161000000Y-90174531D01*
X160602188Y-90253660D01*
X159098614Y-88750086D01*
X159148530Y-88750130D01*
X159424286Y-88636189D01*
X159635448Y-88425395D01*
X159749869Y-88149839D01*
X159750130Y-87851470D01*
X159741095Y-87829605D01*
X159819919Y-87778883D01*
X159922668Y-87628505D01*
X159958816Y-87450000D01*
X159958816Y-87262500D01*
X160050000Y-87262500D01*
X160050000Y-87539510D01*
X160118508Y-87704904D01*
X160245095Y-87831491D01*
X160410489Y-87900000D01*
X160837500Y-87900000D01*
X160950000Y-87787500D01*
X160950000Y-87150000D01*
X160162500Y-87150000D01*
X160050000Y-87262500D01*
X159958816Y-87262500D01*
X159958816Y-86550000D01*
X159941974Y-86460490D01*
X160050000Y-86460490D01*
X160050000Y-86737500D01*
X160162500Y-86850000D01*
X160950000Y-86850000D01*
X160950000Y-86212500D01*
X160837500Y-86100000D01*
X160410489Y-86100000D01*
X160245095Y-86168509D01*
X160118508Y-86295096D01*
X160050000Y-86460490D01*
X159941974Y-86460490D01*
X159927438Y-86383240D01*
X159828883Y-86230081D01*
X159678505Y-86127332D01*
X159500000Y-86091184D01*
X158300000Y-86091184D01*
X158133240Y-86122562D01*
X157980081Y-86221117D01*
X157877332Y-86371495D01*
X157841184Y-86550000D01*
X157841184Y-87450000D01*
X157851071Y-87502543D01*
X157829264Y-87480736D01*
X157634610Y-87350672D01*
X157405000Y-87305000D01*
X155816701Y-87305000D01*
X155803883Y-87285081D01*
X155783558Y-87271194D01*
X155794919Y-87263883D01*
X155814654Y-87235000D01*
X155875004Y-87235000D01*
X156104614Y-87189328D01*
X156299268Y-87059264D01*
X157274266Y-86084266D01*
X157404330Y-85889613D01*
X157450002Y-85660002D01*
X157450002Y-84590056D01*
X157499994Y-84600000D01*
X157541184Y-84600000D01*
X157541184Y-84625000D01*
X157572562Y-84791760D01*
X157671117Y-84944919D01*
X157821495Y-85047668D01*
X158000000Y-85083816D01*
X159500000Y-85083816D01*
X159666760Y-85052438D01*
X159819919Y-84953883D01*
X159922668Y-84803505D01*
X159958816Y-84625000D01*
X159958816Y-83682344D01*
X160041184Y-83764712D01*
X160041184Y-83764712D01*
G37*
X160041184Y-83764712D02*
X160041184Y-84625000D01*
X160072562Y-84791760D01*
X160171117Y-84944919D01*
X160321495Y-85047668D01*
X160500000Y-85083816D01*
X161900000Y-85083816D01*
X161900000Y-86145766D01*
X161789511Y-86100000D01*
X161362500Y-86100000D01*
X161250000Y-86212500D01*
X161250000Y-86850000D01*
X161270000Y-86850000D01*
X161270000Y-87150000D01*
X161250000Y-87150000D01*
X161250000Y-87787500D01*
X161362500Y-87900000D01*
X161789511Y-87900000D01*
X161900000Y-87854234D01*
X161900000Y-90717840D01*
X161742462Y-90482069D01*
X161401818Y-90254457D01*
X161000000Y-90174531D01*
X160602188Y-90253660D01*
X159098614Y-88750086D01*
X159148530Y-88750130D01*
X159424286Y-88636189D01*
X159635448Y-88425395D01*
X159749869Y-88149839D01*
X159750130Y-87851470D01*
X159741095Y-87829605D01*
X159819919Y-87778883D01*
X159922668Y-87628505D01*
X159958816Y-87450000D01*
X159958816Y-87262500D01*
X160050000Y-87262500D01*
X160050000Y-87539510D01*
X160118508Y-87704904D01*
X160245095Y-87831491D01*
X160410489Y-87900000D01*
X160837500Y-87900000D01*
X160950000Y-87787500D01*
X160950000Y-87150000D01*
X160162500Y-87150000D01*
X160050000Y-87262500D01*
X159958816Y-87262500D01*
X159958816Y-86550000D01*
X159941974Y-86460490D01*
X160050000Y-86460490D01*
X160050000Y-86737500D01*
X160162500Y-86850000D01*
X160950000Y-86850000D01*
X160950000Y-86212500D01*
X160837500Y-86100000D01*
X160410489Y-86100000D01*
X160245095Y-86168509D01*
X160118508Y-86295096D01*
X160050000Y-86460490D01*
X159941974Y-86460490D01*
X159927438Y-86383240D01*
X159828883Y-86230081D01*
X159678505Y-86127332D01*
X159500000Y-86091184D01*
X158300000Y-86091184D01*
X158133240Y-86122562D01*
X157980081Y-86221117D01*
X157877332Y-86371495D01*
X157841184Y-86550000D01*
X157841184Y-87450000D01*
X157851071Y-87502543D01*
X157829264Y-87480736D01*
X157634610Y-87350672D01*
X157405000Y-87305000D01*
X155816701Y-87305000D01*
X155803883Y-87285081D01*
X155783558Y-87271194D01*
X155794919Y-87263883D01*
X155814654Y-87235000D01*
X155875004Y-87235000D01*
X156104614Y-87189328D01*
X156299268Y-87059264D01*
X157274266Y-86084266D01*
X157404330Y-85889613D01*
X157450002Y-85660002D01*
X157450002Y-84590056D01*
X157499994Y-84600000D01*
X157541184Y-84600000D01*
X157541184Y-84625000D01*
X157572562Y-84791760D01*
X157671117Y-84944919D01*
X157821495Y-85047668D01*
X158000000Y-85083816D01*
X159500000Y-85083816D01*
X159666760Y-85052438D01*
X159819919Y-84953883D01*
X159922668Y-84803505D01*
X159958816Y-84625000D01*
X159958816Y-83682344D01*
X160041184Y-83764712D01*
G36*
X156250002Y-84708534D02*
X156250002Y-85411474D01*
X155925000Y-85736476D01*
X155925000Y-85627500D01*
X155812500Y-85515000D01*
X154850000Y-85515000D01*
X154850000Y-85535000D01*
X154550000Y-85535000D01*
X154550000Y-85515000D01*
X154530000Y-85515000D01*
X154530000Y-85215000D01*
X154550000Y-85215000D01*
X154550000Y-85195000D01*
X154850000Y-85195000D01*
X154850000Y-85215000D01*
X155812500Y-85215000D01*
X155925000Y-85102500D01*
X155925000Y-84975490D01*
X155856492Y-84810096D01*
X155779926Y-84733530D01*
X155794919Y-84723883D01*
X155897668Y-84573505D01*
X155933816Y-84395000D01*
X155933816Y-84392348D01*
X156250002Y-84708534D01*
X156250002Y-84708534D01*
G37*
X156250002Y-84708534D02*
X156250002Y-85411474D01*
X155925000Y-85736476D01*
X155925000Y-85627500D01*
X155812500Y-85515000D01*
X154850000Y-85515000D01*
X154850000Y-85535000D01*
X154550000Y-85535000D01*
X154550000Y-85515000D01*
X154530000Y-85515000D01*
X154530000Y-85215000D01*
X154550000Y-85215000D01*
X154550000Y-85195000D01*
X154850000Y-85195000D01*
X154850000Y-85215000D01*
X155812500Y-85215000D01*
X155925000Y-85102500D01*
X155925000Y-84975490D01*
X155856492Y-84810096D01*
X155779926Y-84733530D01*
X155794919Y-84723883D01*
X155897668Y-84573505D01*
X155933816Y-84395000D01*
X155933816Y-84392348D01*
X156250002Y-84708534D01*
M02*
