G04 #@! TF.FileFunction,Legend,Bot*
%FSLAX46Y46*%
G04 Gerber Fmt 4.6, Leading zero omitted, Abs format (unit mm)*
G04 Created by KiCad (PCBNEW 4.0.4-1.fc24-product) date Tue Jun  5 15:03:07 2018*
%MOMM*%
%LPD*%
G01*
G04 APERTURE LIST*
%ADD10C,0.100000*%
%ADD11C,0.120000*%
%ADD12C,0.150000*%
G04 APERTURE END LIST*
D10*
D11*
X158750000Y-85260000D02*
X158750000Y-71640000D01*
X145440000Y-85260000D02*
X145440000Y-71640000D01*
X158750000Y-85260000D02*
X145440000Y-85260000D01*
X158750000Y-71640000D02*
X145440000Y-71640000D01*
D12*
X145250000Y-86150000D02*
X146250000Y-86150000D01*
X146250000Y-87850000D02*
X145250000Y-87850000D01*
D11*
X144530000Y-77130000D02*
X141870000Y-77130000D01*
X144530000Y-74530000D02*
X144530000Y-77130000D01*
X141870000Y-74530000D02*
X141870000Y-77130000D01*
X144530000Y-74530000D02*
X141870000Y-74530000D01*
X144530000Y-73260000D02*
X144530000Y-71930000D01*
X144530000Y-71930000D02*
X143200000Y-71930000D01*
D12*
X154635000Y-87635000D02*
X154635000Y-86365000D01*
X152984000Y-87635000D02*
X152984000Y-86365000D01*
X152984000Y-86365000D02*
X155016000Y-86365000D01*
X155016000Y-86365000D02*
X155016000Y-87635000D01*
X155016000Y-87635000D02*
X152984000Y-87635000D01*
D11*
X140950000Y-93300000D02*
X140950000Y-88600000D01*
X140950000Y-88600000D02*
X153050000Y-88600000D01*
X153050000Y-88600000D02*
X153050000Y-93300000D01*
X153050000Y-93300000D02*
X140950000Y-93300000D01*
X143500000Y-93300000D02*
X143500000Y-92700000D01*
X143500000Y-92700000D02*
X141550000Y-92700000D01*
X141550000Y-92700000D02*
X141550000Y-89200000D01*
X141550000Y-89200000D02*
X152450000Y-89200000D01*
X152450000Y-89200000D02*
X152450000Y-92700000D01*
X152450000Y-92700000D02*
X150500000Y-92700000D01*
X150500000Y-92700000D02*
X150500000Y-93300000D01*
X140950000Y-92000000D02*
X141550000Y-92000000D01*
X140950000Y-90700000D02*
X141550000Y-90700000D01*
X153050000Y-92000000D02*
X152450000Y-92000000D01*
X153050000Y-90700000D02*
X152450000Y-90700000D01*
X142700000Y-93300000D02*
X142700000Y-93500000D01*
X142700000Y-93500000D02*
X142400000Y-93500000D01*
X142400000Y-93500000D02*
X142400000Y-93300000D01*
X142700000Y-93400000D02*
X142400000Y-93400000D01*
X143900000Y-89200000D02*
X143900000Y-89700000D01*
X143900000Y-89700000D02*
X144100000Y-89700000D01*
X144100000Y-89700000D02*
X144100000Y-89200000D01*
X144000000Y-89200000D02*
X144000000Y-89700000D01*
X145900000Y-89200000D02*
X145900000Y-89700000D01*
X145900000Y-89700000D02*
X146100000Y-89700000D01*
X146100000Y-89700000D02*
X146100000Y-89200000D01*
X146000000Y-89200000D02*
X146000000Y-89700000D01*
X147900000Y-89200000D02*
X147900000Y-89700000D01*
X147900000Y-89700000D02*
X148100000Y-89700000D01*
X148100000Y-89700000D02*
X148100000Y-89200000D01*
X148000000Y-89200000D02*
X148000000Y-89700000D01*
X149900000Y-89200000D02*
X149900000Y-89700000D01*
X149900000Y-89700000D02*
X150100000Y-89700000D01*
X150100000Y-89700000D02*
X150100000Y-89200000D01*
X150000000Y-89200000D02*
X150000000Y-89700000D01*
X141900000Y-93600000D02*
X140650000Y-93600000D01*
X140650000Y-93600000D02*
X140650000Y-92350000D01*
X152950000Y-93300000D02*
X152950000Y-88600000D01*
X152950000Y-88600000D02*
X163050000Y-88600000D01*
X163050000Y-88600000D02*
X163050000Y-93300000D01*
X163050000Y-93300000D02*
X152950000Y-93300000D01*
X155500000Y-93300000D02*
X155500000Y-92700000D01*
X155500000Y-92700000D02*
X153550000Y-92700000D01*
X153550000Y-92700000D02*
X153550000Y-89200000D01*
X153550000Y-89200000D02*
X162450000Y-89200000D01*
X162450000Y-89200000D02*
X162450000Y-92700000D01*
X162450000Y-92700000D02*
X160500000Y-92700000D01*
X160500000Y-92700000D02*
X160500000Y-93300000D01*
X152950000Y-92000000D02*
X153550000Y-92000000D01*
X152950000Y-90700000D02*
X153550000Y-90700000D01*
X163050000Y-92000000D02*
X162450000Y-92000000D01*
X163050000Y-90700000D02*
X162450000Y-90700000D01*
X154700000Y-93300000D02*
X154700000Y-93500000D01*
X154700000Y-93500000D02*
X154400000Y-93500000D01*
X154400000Y-93500000D02*
X154400000Y-93300000D01*
X154700000Y-93400000D02*
X154400000Y-93400000D01*
X155900000Y-89200000D02*
X155900000Y-89700000D01*
X155900000Y-89700000D02*
X156100000Y-89700000D01*
X156100000Y-89700000D02*
X156100000Y-89200000D01*
X156000000Y-89200000D02*
X156000000Y-89700000D01*
X157900000Y-89200000D02*
X157900000Y-89700000D01*
X157900000Y-89700000D02*
X158100000Y-89700000D01*
X158100000Y-89700000D02*
X158100000Y-89200000D01*
X158000000Y-89200000D02*
X158000000Y-89700000D01*
X159900000Y-89200000D02*
X159900000Y-89700000D01*
X159900000Y-89700000D02*
X160100000Y-89700000D01*
X160100000Y-89700000D02*
X160100000Y-89200000D01*
X160000000Y-89200000D02*
X160000000Y-89700000D01*
X153900000Y-93600000D02*
X152650000Y-93600000D01*
X152650000Y-93600000D02*
X152650000Y-92350000D01*
D12*
X158157143Y-84971429D02*
X158357143Y-84685714D01*
X158500000Y-84971429D02*
X158500000Y-84371429D01*
X158271428Y-84371429D01*
X158214286Y-84400000D01*
X158185714Y-84428571D01*
X158157143Y-84485714D01*
X158157143Y-84571429D01*
X158185714Y-84628571D01*
X158214286Y-84657143D01*
X158271428Y-84685714D01*
X158500000Y-84685714D01*
X157985714Y-84371429D02*
X157785714Y-84971429D01*
X157585714Y-84371429D01*
X157071428Y-84971429D02*
X157414285Y-84971429D01*
X157242857Y-84971429D02*
X157242857Y-84371429D01*
X157300000Y-84457143D01*
X157357142Y-84514286D01*
X157414285Y-84542857D01*
X144050000Y-88614286D02*
X144078571Y-88642857D01*
X144164285Y-88671429D01*
X144221428Y-88671429D01*
X144307143Y-88642857D01*
X144364285Y-88585714D01*
X144392857Y-88528571D01*
X144421428Y-88414286D01*
X144421428Y-88328571D01*
X144392857Y-88214286D01*
X144364285Y-88157143D01*
X144307143Y-88100000D01*
X144221428Y-88071429D01*
X144164285Y-88071429D01*
X144078571Y-88100000D01*
X144050000Y-88128571D01*
X143478571Y-88671429D02*
X143821428Y-88671429D01*
X143650000Y-88671429D02*
X143650000Y-88071429D01*
X143707143Y-88157143D01*
X143764285Y-88214286D01*
X143821428Y-88242857D01*
X143742857Y-77931429D02*
X143742857Y-77331429D01*
X143514285Y-77331429D01*
X143457143Y-77360000D01*
X143428571Y-77388571D01*
X143400000Y-77445714D01*
X143400000Y-77531429D01*
X143428571Y-77588571D01*
X143457143Y-77617143D01*
X143514285Y-77645714D01*
X143742857Y-77645714D01*
X143171428Y-77388571D02*
X143142857Y-77360000D01*
X143085714Y-77331429D01*
X142942857Y-77331429D01*
X142885714Y-77360000D01*
X142857143Y-77388571D01*
X142828571Y-77445714D01*
X142828571Y-77502857D01*
X142857143Y-77588571D01*
X143200000Y-77931429D01*
X142828571Y-77931429D01*
X155700000Y-85614286D02*
X155728571Y-85642857D01*
X155814285Y-85671429D01*
X155871428Y-85671429D01*
X155957143Y-85642857D01*
X156014285Y-85585714D01*
X156042857Y-85528571D01*
X156071428Y-85414286D01*
X156071428Y-85328571D01*
X156042857Y-85214286D01*
X156014285Y-85157143D01*
X155957143Y-85100000D01*
X155871428Y-85071429D01*
X155814285Y-85071429D01*
X155728571Y-85100000D01*
X155700000Y-85128571D01*
X155471428Y-85128571D02*
X155442857Y-85100000D01*
X155385714Y-85071429D01*
X155242857Y-85071429D01*
X155185714Y-85100000D01*
X155157143Y-85128571D01*
X155128571Y-85185714D01*
X155128571Y-85242857D01*
X155157143Y-85328571D01*
X155500000Y-85671429D01*
X155128571Y-85671429D01*
M02*
