M48
;DRILL file {KiCad 4.0.4-1.fc24-product} date Tue Jun  5 15:03:10 2018
;FORMAT={3:3/ absolute / metric / suppress leading zeros}
FMAT,2
METRIC,TZ
T1C0.400
T2C0.750
T3C1.000
%
G90
G05
M71
T1
X141700Y-83800
X144100Y-84300
X151700Y-81600
X154300Y-82900
X156100Y-85300
X156800Y-83300
X159000Y-88000
X161100Y-85900
T2
X143000Y-91500
X145000Y-91500
X147000Y-91500
X149000Y-91500
X151000Y-91500
X155000Y-91500
X157000Y-91500
X159000Y-91500
X161000Y-91500
T3
X143200Y-73260
X143200Y-75800
X148250Y-73500
X148250Y-78500
X152000Y-73500
X152000Y-78500
X155750Y-73500
X155750Y-78500
T0
M30
