G04 #@! TF.FileFunction,Legend,Bot*
%FSLAX46Y46*%
G04 Gerber Fmt 4.6, Leading zero omitted, Abs format (unit mm)*
G04 Created by KiCad (PCBNEW 4.0.4-1.fc24-product) date Tue Jan 16 14:26:59 2018*
%MOMM*%
%LPD*%
G01*
G04 APERTURE LIST*
%ADD10C,0.100000*%
%ADD11C,0.150000*%
G04 APERTURE END LIST*
D10*
D11*
X177528571Y-103557143D02*
X177442857Y-103585714D01*
X177414285Y-103614286D01*
X177385714Y-103671429D01*
X177385714Y-103757143D01*
X177414285Y-103814286D01*
X177442857Y-103842857D01*
X177499999Y-103871429D01*
X177728571Y-103871429D01*
X177728571Y-103271429D01*
X177528571Y-103271429D01*
X177471428Y-103300000D01*
X177442857Y-103328571D01*
X177414285Y-103385714D01*
X177414285Y-103442857D01*
X177442857Y-103500000D01*
X177471428Y-103528571D01*
X177528571Y-103557143D01*
X177728571Y-103557143D01*
X177128571Y-103642857D02*
X176671428Y-103642857D01*
X174757142Y-103271429D02*
X174642856Y-103271429D01*
X174585714Y-103300000D01*
X174528571Y-103357143D01*
X174499999Y-103471429D01*
X174499999Y-103671429D01*
X174528571Y-103785714D01*
X174585714Y-103842857D01*
X174642856Y-103871429D01*
X174757142Y-103871429D01*
X174814285Y-103842857D01*
X174871428Y-103785714D01*
X174899999Y-103671429D01*
X174899999Y-103471429D01*
X174871428Y-103357143D01*
X174814285Y-103300000D01*
X174757142Y-103271429D01*
X171942857Y-103300000D02*
X172000000Y-103271429D01*
X172085714Y-103271429D01*
X172171429Y-103300000D01*
X172228571Y-103357143D01*
X172257143Y-103414286D01*
X172285714Y-103528571D01*
X172285714Y-103614286D01*
X172257143Y-103728571D01*
X172228571Y-103785714D01*
X172171429Y-103842857D01*
X172085714Y-103871429D01*
X172028571Y-103871429D01*
X171942857Y-103842857D01*
X171914286Y-103814286D01*
X171914286Y-103614286D01*
X172028571Y-103614286D01*
X166128571Y-103557143D02*
X166042857Y-103585714D01*
X166014285Y-103614286D01*
X165985714Y-103671429D01*
X165985714Y-103757143D01*
X166014285Y-103814286D01*
X166042857Y-103842857D01*
X166099999Y-103871429D01*
X166328571Y-103871429D01*
X166328571Y-103271429D01*
X166128571Y-103271429D01*
X166071428Y-103300000D01*
X166042857Y-103328571D01*
X166014285Y-103385714D01*
X166014285Y-103442857D01*
X166042857Y-103500000D01*
X166071428Y-103528571D01*
X166128571Y-103557143D01*
X166328571Y-103557143D01*
X165728571Y-103642857D02*
X165271428Y-103642857D01*
X168728571Y-103557143D02*
X168642857Y-103585714D01*
X168614285Y-103614286D01*
X168585714Y-103671429D01*
X168585714Y-103757143D01*
X168614285Y-103814286D01*
X168642857Y-103842857D01*
X168699999Y-103871429D01*
X168928571Y-103871429D01*
X168928571Y-103271429D01*
X168728571Y-103271429D01*
X168671428Y-103300000D01*
X168642857Y-103328571D01*
X168614285Y-103385714D01*
X168614285Y-103442857D01*
X168642857Y-103500000D01*
X168671428Y-103528571D01*
X168728571Y-103557143D01*
X168928571Y-103557143D01*
X168328571Y-103642857D02*
X167871428Y-103642857D01*
X168099999Y-103871429D02*
X168099999Y-103414286D01*
X155357143Y-107957143D02*
X155271429Y-107985714D01*
X155242857Y-108014286D01*
X155214286Y-108071429D01*
X155214286Y-108157143D01*
X155242857Y-108214286D01*
X155271429Y-108242857D01*
X155328571Y-108271429D01*
X155557143Y-108271429D01*
X155557143Y-107671429D01*
X155357143Y-107671429D01*
X155300000Y-107700000D01*
X155271429Y-107728571D01*
X155242857Y-107785714D01*
X155242857Y-107842857D01*
X155271429Y-107900000D01*
X155300000Y-107928571D01*
X155357143Y-107957143D01*
X155557143Y-107957143D01*
X157571428Y-108271429D02*
X157571428Y-107671429D01*
X157228571Y-108271429D01*
X157228571Y-107671429D01*
X141128571Y-103642857D02*
X140671428Y-103642857D01*
X140742857Y-101300000D02*
X140800000Y-101271429D01*
X140885714Y-101271429D01*
X140971429Y-101300000D01*
X141028571Y-101357143D01*
X141057143Y-101414286D01*
X141085714Y-101528571D01*
X141085714Y-101614286D01*
X141057143Y-101728571D01*
X141028571Y-101785714D01*
X140971429Y-101842857D01*
X140885714Y-101871429D01*
X140828571Y-101871429D01*
X140742857Y-101842857D01*
X140714286Y-101814286D01*
X140714286Y-101614286D01*
X140828571Y-101614286D01*
X140957142Y-107271429D02*
X140842856Y-107271429D01*
X140785714Y-107300000D01*
X140728571Y-107357143D01*
X140699999Y-107471429D01*
X140699999Y-107671429D01*
X140728571Y-107785714D01*
X140785714Y-107842857D01*
X140842856Y-107871429D01*
X140957142Y-107871429D01*
X141014285Y-107842857D01*
X141071428Y-107785714D01*
X141099999Y-107671429D01*
X141099999Y-107471429D01*
X141071428Y-107357143D01*
X141014285Y-107300000D01*
X140957142Y-107271429D01*
X140900000Y-105871429D02*
X140900000Y-105271429D01*
X141228571Y-99642857D02*
X140771428Y-99642857D01*
X140999999Y-99871429D02*
X140999999Y-99414286D01*
X131128571Y-103542857D02*
X130671428Y-103542857D01*
X130742857Y-101200000D02*
X130800000Y-101171429D01*
X130885714Y-101171429D01*
X130971429Y-101200000D01*
X131028571Y-101257143D01*
X131057143Y-101314286D01*
X131085714Y-101428571D01*
X131085714Y-101514286D01*
X131057143Y-101628571D01*
X131028571Y-101685714D01*
X130971429Y-101742857D01*
X130885714Y-101771429D01*
X130828571Y-101771429D01*
X130742857Y-101742857D01*
X130714286Y-101714286D01*
X130714286Y-101514286D01*
X130828571Y-101514286D01*
X130957142Y-107171429D02*
X130842856Y-107171429D01*
X130785714Y-107200000D01*
X130728571Y-107257143D01*
X130699999Y-107371429D01*
X130699999Y-107571429D01*
X130728571Y-107685714D01*
X130785714Y-107742857D01*
X130842856Y-107771429D01*
X130957142Y-107771429D01*
X131014285Y-107742857D01*
X131071428Y-107685714D01*
X131099999Y-107571429D01*
X131099999Y-107371429D01*
X131071428Y-107257143D01*
X131014285Y-107200000D01*
X130957142Y-107171429D01*
X130900000Y-105771429D02*
X130900000Y-105171429D01*
X131228571Y-99542857D02*
X130771428Y-99542857D01*
X130999999Y-99771429D02*
X130999999Y-99314286D01*
X120957142Y-107271429D02*
X120842856Y-107271429D01*
X120785714Y-107300000D01*
X120728571Y-107357143D01*
X120699999Y-107471429D01*
X120699999Y-107671429D01*
X120728571Y-107785714D01*
X120785714Y-107842857D01*
X120842856Y-107871429D01*
X120957142Y-107871429D01*
X121014285Y-107842857D01*
X121071428Y-107785714D01*
X121099999Y-107671429D01*
X121099999Y-107471429D01*
X121071428Y-107357143D01*
X121014285Y-107300000D01*
X120957142Y-107271429D01*
X120900000Y-105871429D02*
X120900000Y-105271429D01*
X121128571Y-103642857D02*
X120671428Y-103642857D01*
X120742857Y-101300000D02*
X120800000Y-101271429D01*
X120885714Y-101271429D01*
X120971429Y-101300000D01*
X121028571Y-101357143D01*
X121057143Y-101414286D01*
X121085714Y-101528571D01*
X121085714Y-101614286D01*
X121057143Y-101728571D01*
X121028571Y-101785714D01*
X120971429Y-101842857D01*
X120885714Y-101871429D01*
X120828571Y-101871429D01*
X120742857Y-101842857D01*
X120714286Y-101814286D01*
X120714286Y-101614286D01*
X120828571Y-101614286D01*
X121228571Y-99642857D02*
X120771428Y-99642857D01*
X120999999Y-99871429D02*
X120999999Y-99414286D01*
X144942857Y-97071429D02*
X144942857Y-96471429D01*
X144600000Y-97071429D01*
X144600000Y-96471429D01*
X144314286Y-96757143D02*
X144114286Y-96757143D01*
X144028572Y-97071429D02*
X144314286Y-97071429D01*
X144314286Y-96471429D01*
X144028572Y-96471429D01*
X143428572Y-97014286D02*
X143457143Y-97042857D01*
X143542857Y-97071429D01*
X143600000Y-97071429D01*
X143685715Y-97042857D01*
X143742857Y-96985714D01*
X143771429Y-96928571D01*
X143800000Y-96814286D01*
X143800000Y-96728571D01*
X143771429Y-96614286D01*
X143742857Y-96557143D01*
X143685715Y-96500000D01*
X143600000Y-96471429D01*
X143542857Y-96471429D01*
X143457143Y-96500000D01*
X143428572Y-96528571D01*
X143171429Y-97071429D02*
X143171429Y-96471429D01*
X142828572Y-97071429D02*
X143085715Y-96728571D01*
X142828572Y-96471429D02*
X143171429Y-96814286D01*
X132328572Y-96757143D02*
X132414286Y-96785714D01*
X132442858Y-96814286D01*
X132471429Y-96871429D01*
X132471429Y-96957143D01*
X132442858Y-97014286D01*
X132414286Y-97042857D01*
X132357144Y-97071429D01*
X132128572Y-97071429D01*
X132128572Y-96471429D01*
X132328572Y-96471429D01*
X132385715Y-96500000D01*
X132414286Y-96528571D01*
X132442858Y-96585714D01*
X132442858Y-96642857D01*
X132414286Y-96700000D01*
X132385715Y-96728571D01*
X132328572Y-96757143D01*
X132128572Y-96757143D01*
X133071429Y-97071429D02*
X132871429Y-96785714D01*
X132728572Y-97071429D02*
X132728572Y-96471429D01*
X132957144Y-96471429D01*
X133014286Y-96500000D01*
X133042858Y-96528571D01*
X133071429Y-96585714D01*
X133071429Y-96671429D01*
X133042858Y-96728571D01*
X133014286Y-96757143D01*
X132957144Y-96785714D01*
X132728572Y-96785714D01*
X133328572Y-97071429D02*
X133328572Y-96471429D01*
X133614286Y-97071429D02*
X133614286Y-96471429D01*
X133757143Y-96471429D01*
X133842858Y-96500000D01*
X133900000Y-96557143D01*
X133928572Y-96614286D01*
X133957143Y-96728571D01*
X133957143Y-96814286D01*
X133928572Y-96928571D01*
X133900000Y-96985714D01*
X133842858Y-97042857D01*
X133757143Y-97071429D01*
X133614286Y-97071429D01*
X134528572Y-96500000D02*
X134471429Y-96471429D01*
X134385715Y-96471429D01*
X134300000Y-96500000D01*
X134242858Y-96557143D01*
X134214286Y-96614286D01*
X134185715Y-96728571D01*
X134185715Y-96814286D01*
X134214286Y-96928571D01*
X134242858Y-96985714D01*
X134300000Y-97042857D01*
X134385715Y-97071429D01*
X134442858Y-97071429D01*
X134528572Y-97042857D01*
X134557143Y-97014286D01*
X134557143Y-96814286D01*
X134442858Y-96814286D01*
X134814286Y-96757143D02*
X135014286Y-96757143D01*
X135100000Y-97071429D02*
X134814286Y-97071429D01*
X134814286Y-96471429D01*
X135100000Y-96471429D01*
X123171429Y-97171429D02*
X123171429Y-96571429D01*
X123171429Y-96857143D02*
X123514286Y-96857143D01*
X123514286Y-97171429D02*
X123514286Y-96571429D01*
X123800000Y-97171429D02*
X123800000Y-96571429D01*
X124028572Y-96571429D01*
X124085714Y-96600000D01*
X124114286Y-96628571D01*
X124142857Y-96685714D01*
X124142857Y-96771429D01*
X124114286Y-96828571D01*
X124085714Y-96857143D01*
X124028572Y-96885714D01*
X123800000Y-96885714D01*
X124600000Y-96857143D02*
X124400000Y-96857143D01*
X124400000Y-97171429D02*
X124400000Y-96571429D01*
X124685714Y-96571429D01*
X132557143Y-81932143D02*
X132471429Y-81960714D01*
X132442857Y-81989286D01*
X132414286Y-82046429D01*
X132414286Y-82132143D01*
X132442857Y-82189286D01*
X132471429Y-82217857D01*
X132528571Y-82246429D01*
X132757143Y-82246429D01*
X132757143Y-81646429D01*
X132557143Y-81646429D01*
X132500000Y-81675000D01*
X132471429Y-81703571D01*
X132442857Y-81760714D01*
X132442857Y-81817857D01*
X132471429Y-81875000D01*
X132500000Y-81903571D01*
X132557143Y-81932143D01*
X132757143Y-81932143D01*
X131842857Y-81675000D02*
X131900000Y-81646429D01*
X131985714Y-81646429D01*
X132071429Y-81675000D01*
X132128571Y-81732143D01*
X132157143Y-81789286D01*
X132185714Y-81903571D01*
X132185714Y-81989286D01*
X132157143Y-82103571D01*
X132128571Y-82160714D01*
X132071429Y-82217857D01*
X131985714Y-82246429D01*
X131928571Y-82246429D01*
X131842857Y-82217857D01*
X131814286Y-82189286D01*
X131814286Y-81989286D01*
X131928571Y-81989286D01*
X131557143Y-82246429D02*
X131557143Y-81646429D01*
X131328571Y-81646429D01*
X131271429Y-81675000D01*
X131242857Y-81703571D01*
X131214286Y-81760714D01*
X131214286Y-81846429D01*
X131242857Y-81903571D01*
X131271429Y-81932143D01*
X131328571Y-81960714D01*
X131557143Y-81960714D01*
X130585714Y-81646429D02*
X130385714Y-82246429D01*
X130185714Y-81646429D01*
X129671428Y-82246429D02*
X130014285Y-82246429D01*
X129842857Y-82246429D02*
X129842857Y-81646429D01*
X129900000Y-81732143D01*
X129957142Y-81789286D01*
X130014285Y-81817857D01*
X129414285Y-82189286D02*
X129385713Y-82217857D01*
X129414285Y-82246429D01*
X129442856Y-82217857D01*
X129414285Y-82189286D01*
X129414285Y-82246429D01*
X129014285Y-81646429D02*
X128957142Y-81646429D01*
X128899999Y-81675000D01*
X128871428Y-81703571D01*
X128842857Y-81760714D01*
X128814285Y-81875000D01*
X128814285Y-82017857D01*
X128842857Y-82132143D01*
X128871428Y-82189286D01*
X128899999Y-82217857D01*
X128957142Y-82246429D01*
X129014285Y-82246429D01*
X129071428Y-82217857D01*
X129099999Y-82189286D01*
X129128571Y-82132143D01*
X129157142Y-82017857D01*
X129157142Y-81875000D01*
X129128571Y-81760714D01*
X129099999Y-81703571D01*
X129071428Y-81675000D01*
X129014285Y-81646429D01*
X134457143Y-82696429D02*
X134257143Y-83296429D01*
X134057143Y-82696429D01*
X133771429Y-83296429D02*
X133828571Y-83267857D01*
X133857143Y-83239286D01*
X133885714Y-83182143D01*
X133885714Y-83010714D01*
X133857143Y-82953571D01*
X133828571Y-82925000D01*
X133771429Y-82896429D01*
X133685714Y-82896429D01*
X133628571Y-82925000D01*
X133600000Y-82953571D01*
X133571429Y-83010714D01*
X133571429Y-83182143D01*
X133600000Y-83239286D01*
X133628571Y-83267857D01*
X133685714Y-83296429D01*
X133771429Y-83296429D01*
X133228572Y-83296429D02*
X133285714Y-83267857D01*
X133314286Y-83210714D01*
X133314286Y-82696429D01*
X132742857Y-82896429D02*
X132742857Y-83296429D01*
X133000000Y-82896429D02*
X133000000Y-83210714D01*
X132971428Y-83267857D01*
X132914286Y-83296429D01*
X132828571Y-83296429D01*
X132771428Y-83267857D01*
X132742857Y-83239286D01*
X132457143Y-83296429D02*
X132457143Y-82896429D01*
X132457143Y-82953571D02*
X132428571Y-82925000D01*
X132371429Y-82896429D01*
X132285714Y-82896429D01*
X132228571Y-82925000D01*
X132200000Y-82982143D01*
X132200000Y-83296429D01*
X132200000Y-82982143D02*
X132171429Y-82925000D01*
X132114286Y-82896429D01*
X132028571Y-82896429D01*
X131971429Y-82925000D01*
X131942857Y-82982143D01*
X131942857Y-83296429D01*
X131428571Y-83267857D02*
X131485714Y-83296429D01*
X131600000Y-83296429D01*
X131657143Y-83267857D01*
X131685714Y-83210714D01*
X131685714Y-82982143D01*
X131657143Y-82925000D01*
X131600000Y-82896429D01*
X131485714Y-82896429D01*
X131428571Y-82925000D01*
X131400000Y-82982143D01*
X131400000Y-83039286D01*
X131685714Y-83096429D01*
X130257142Y-82667857D02*
X130771428Y-83439286D01*
X129600000Y-83296429D02*
X129600000Y-82696429D01*
X129371428Y-82696429D01*
X129314286Y-82725000D01*
X129285714Y-82753571D01*
X129257143Y-82810714D01*
X129257143Y-82896429D01*
X129285714Y-82953571D01*
X129314286Y-82982143D01*
X129371428Y-83010714D01*
X129600000Y-83010714D01*
X128914286Y-83296429D02*
X128971428Y-83267857D01*
X129000000Y-83239286D01*
X129028571Y-83182143D01*
X129028571Y-83010714D01*
X129000000Y-82953571D01*
X128971428Y-82925000D01*
X128914286Y-82896429D01*
X128828571Y-82896429D01*
X128771428Y-82925000D01*
X128742857Y-82953571D01*
X128714286Y-83010714D01*
X128714286Y-83182143D01*
X128742857Y-83239286D01*
X128771428Y-83267857D01*
X128828571Y-83296429D01*
X128914286Y-83296429D01*
X128514286Y-82896429D02*
X128400000Y-83296429D01*
X128285714Y-83010714D01*
X128171429Y-83296429D01*
X128057143Y-82896429D01*
X127600000Y-83267857D02*
X127657143Y-83296429D01*
X127771429Y-83296429D01*
X127828572Y-83267857D01*
X127857143Y-83210714D01*
X127857143Y-82982143D01*
X127828572Y-82925000D01*
X127771429Y-82896429D01*
X127657143Y-82896429D01*
X127600000Y-82925000D01*
X127571429Y-82982143D01*
X127571429Y-83039286D01*
X127857143Y-83096429D01*
X127314286Y-83296429D02*
X127314286Y-82896429D01*
X127314286Y-83010714D02*
X127285714Y-82953571D01*
X127257143Y-82925000D01*
X127200000Y-82896429D01*
X127142857Y-82896429D01*
X170560440Y-104401200D02*
X178759560Y-104401200D01*
X170560440Y-104799980D02*
X178759560Y-104799980D01*
X170560440Y-110100960D02*
X178759560Y-110100960D01*
X178759560Y-110598800D02*
X170560440Y-110598800D01*
X173359520Y-110100960D02*
X173359520Y-110598800D01*
X178558900Y-110598800D02*
X178558900Y-110100960D01*
X170758560Y-110100960D02*
X170758560Y-110598800D01*
X175957940Y-110598800D02*
X175957940Y-110100960D01*
X170560440Y-110598800D02*
X170560440Y-104401200D01*
X178757020Y-104401200D02*
X178757020Y-110598800D01*
X164330920Y-110100960D02*
X169929080Y-110100960D01*
X169730960Y-110598800D02*
X169730960Y-110100960D01*
X164529040Y-110100960D02*
X164529040Y-110598800D01*
X167130000Y-110598800D02*
X167130000Y-110100960D01*
X169929080Y-104799980D02*
X164330920Y-104799980D01*
X169929080Y-110598800D02*
X164330920Y-110598800D01*
X164330920Y-110598800D02*
X164330920Y-104401200D01*
X164330920Y-104401200D02*
X169929080Y-104401200D01*
X169929080Y-104401200D02*
X169929080Y-110598800D01*
X156400000Y-106500000D02*
X156400000Y-104500000D01*
X156400000Y-104500000D02*
X158400000Y-104500000D01*
X158400000Y-104500000D02*
X158400000Y-102500000D01*
X158400000Y-102500000D02*
X156400000Y-102500000D01*
X156400000Y-102500000D02*
X154400000Y-102500000D01*
X154400000Y-102500000D02*
X154400000Y-106500000D01*
X154400000Y-106500000D02*
X156400000Y-106500000D01*
X157400000Y-107000000D02*
X158900000Y-107000000D01*
X158900000Y-107000000D02*
X158900000Y-105500000D01*
X145600000Y-109700000D02*
X141750000Y-109700000D01*
X141750000Y-109700000D02*
X141750000Y-97500000D01*
X141750000Y-97500000D02*
X145600000Y-97500000D01*
X145600000Y-97500000D02*
X145600000Y-109700000D01*
X146000000Y-107600000D02*
X146600000Y-107900000D01*
X146600000Y-107900000D02*
X146600000Y-107300000D01*
X146600000Y-107300000D02*
X146000000Y-107600000D01*
X143200000Y-109700000D02*
X143200000Y-109300000D01*
X143200000Y-97500000D02*
X143200000Y-97900000D01*
X145200000Y-103600000D02*
X145200000Y-109300000D01*
X145200000Y-109300000D02*
X144000000Y-109300000D01*
X144000000Y-109300000D02*
X144000000Y-108900000D01*
X144000000Y-108900000D02*
X143600000Y-108900000D01*
X143600000Y-108900000D02*
X143600000Y-109300000D01*
X143600000Y-109300000D02*
X141750000Y-109300000D01*
X145200000Y-103600000D02*
X145200000Y-97900000D01*
X145200000Y-97900000D02*
X144000000Y-97900000D01*
X144000000Y-97900000D02*
X144000000Y-98300000D01*
X144000000Y-98300000D02*
X143600000Y-98300000D01*
X143600000Y-98300000D02*
X143600000Y-97900000D01*
X143600000Y-97900000D02*
X141750000Y-97900000D01*
X135600000Y-109700000D02*
X131750000Y-109700000D01*
X131750000Y-109700000D02*
X131750000Y-97500000D01*
X131750000Y-97500000D02*
X135600000Y-97500000D01*
X135600000Y-97500000D02*
X135600000Y-109700000D01*
X136000000Y-107600000D02*
X136600000Y-107900000D01*
X136600000Y-107900000D02*
X136600000Y-107300000D01*
X136600000Y-107300000D02*
X136000000Y-107600000D01*
X133200000Y-109700000D02*
X133200000Y-109300000D01*
X133200000Y-97500000D02*
X133200000Y-97900000D01*
X135200000Y-103600000D02*
X135200000Y-109300000D01*
X135200000Y-109300000D02*
X134000000Y-109300000D01*
X134000000Y-109300000D02*
X134000000Y-108900000D01*
X134000000Y-108900000D02*
X133600000Y-108900000D01*
X133600000Y-108900000D02*
X133600000Y-109300000D01*
X133600000Y-109300000D02*
X131750000Y-109300000D01*
X135200000Y-103600000D02*
X135200000Y-97900000D01*
X135200000Y-97900000D02*
X134000000Y-97900000D01*
X134000000Y-97900000D02*
X134000000Y-98300000D01*
X134000000Y-98300000D02*
X133600000Y-98300000D01*
X133600000Y-98300000D02*
X133600000Y-97900000D01*
X133600000Y-97900000D02*
X131750000Y-97900000D01*
X125600000Y-109700000D02*
X121750000Y-109700000D01*
X121750000Y-109700000D02*
X121750000Y-97500000D01*
X121750000Y-97500000D02*
X125600000Y-97500000D01*
X125600000Y-97500000D02*
X125600000Y-109700000D01*
X126000000Y-107600000D02*
X126600000Y-107900000D01*
X126600000Y-107900000D02*
X126600000Y-107300000D01*
X126600000Y-107300000D02*
X126000000Y-107600000D01*
X123200000Y-109700000D02*
X123200000Y-109300000D01*
X123200000Y-97500000D02*
X123200000Y-97900000D01*
X125200000Y-103600000D02*
X125200000Y-109300000D01*
X125200000Y-109300000D02*
X124000000Y-109300000D01*
X124000000Y-109300000D02*
X124000000Y-108900000D01*
X124000000Y-108900000D02*
X123600000Y-108900000D01*
X123600000Y-108900000D02*
X123600000Y-109300000D01*
X123600000Y-109300000D02*
X121750000Y-109300000D01*
X125200000Y-103600000D02*
X125200000Y-97900000D01*
X125200000Y-97900000D02*
X124000000Y-97900000D01*
X124000000Y-97900000D02*
X124000000Y-98300000D01*
X124000000Y-98300000D02*
X123600000Y-98300000D01*
X123600000Y-98300000D02*
X123600000Y-97900000D01*
X123600000Y-97900000D02*
X121750000Y-97900000D01*
X173600000Y-98325000D02*
X172600000Y-98325000D01*
X172600000Y-99675000D02*
X173600000Y-99675000D01*
X165800000Y-83325000D02*
X164800000Y-83325000D01*
X164800000Y-84675000D02*
X165800000Y-84675000D01*
X165800000Y-85825000D02*
X164800000Y-85825000D01*
X164800000Y-87175000D02*
X165800000Y-87175000D01*
X177742857Y-102771429D02*
X177742857Y-102171429D01*
X177514285Y-102171429D01*
X177457143Y-102200000D01*
X177428571Y-102228571D01*
X177400000Y-102285714D01*
X177400000Y-102371429D01*
X177428571Y-102428571D01*
X177457143Y-102457143D01*
X177514285Y-102485714D01*
X177742857Y-102485714D01*
X176828571Y-102771429D02*
X177171428Y-102771429D01*
X177000000Y-102771429D02*
X177000000Y-102171429D01*
X177057143Y-102257143D01*
X177114285Y-102314286D01*
X177171428Y-102342857D01*
X168942857Y-102771429D02*
X168942857Y-102171429D01*
X168714285Y-102171429D01*
X168657143Y-102200000D01*
X168628571Y-102228571D01*
X168600000Y-102285714D01*
X168600000Y-102371429D01*
X168628571Y-102428571D01*
X168657143Y-102457143D01*
X168714285Y-102485714D01*
X168942857Y-102485714D01*
X168371428Y-102228571D02*
X168342857Y-102200000D01*
X168285714Y-102171429D01*
X168142857Y-102171429D01*
X168085714Y-102200000D01*
X168057143Y-102228571D01*
X168028571Y-102285714D01*
X168028571Y-102342857D01*
X168057143Y-102428571D01*
X168400000Y-102771429D01*
X168028571Y-102771429D01*
X153971429Y-102557143D02*
X153371429Y-102557143D01*
X153371429Y-102785715D01*
X153400000Y-102842857D01*
X153428571Y-102871429D01*
X153485714Y-102900000D01*
X153571429Y-102900000D01*
X153628571Y-102871429D01*
X153657143Y-102842857D01*
X153685714Y-102785715D01*
X153685714Y-102557143D01*
X153371429Y-103100000D02*
X153371429Y-103500000D01*
X153971429Y-103242857D01*
X140971429Y-108757143D02*
X140371429Y-108757143D01*
X140371429Y-108985715D01*
X140400000Y-109042857D01*
X140428571Y-109071429D01*
X140485714Y-109100000D01*
X140571429Y-109100000D01*
X140628571Y-109071429D01*
X140657143Y-109042857D01*
X140685714Y-108985715D01*
X140685714Y-108757143D01*
X140371429Y-109300000D02*
X140371429Y-109671429D01*
X140600000Y-109471429D01*
X140600000Y-109557143D01*
X140628571Y-109614286D01*
X140657143Y-109642857D01*
X140714286Y-109671429D01*
X140857143Y-109671429D01*
X140914286Y-109642857D01*
X140942857Y-109614286D01*
X140971429Y-109557143D01*
X140971429Y-109385715D01*
X140942857Y-109328572D01*
X140914286Y-109300000D01*
X130971429Y-108757143D02*
X130371429Y-108757143D01*
X130371429Y-108985715D01*
X130400000Y-109042857D01*
X130428571Y-109071429D01*
X130485714Y-109100000D01*
X130571429Y-109100000D01*
X130628571Y-109071429D01*
X130657143Y-109042857D01*
X130685714Y-108985715D01*
X130685714Y-108757143D01*
X130571429Y-109614286D02*
X130971429Y-109614286D01*
X130342857Y-109471429D02*
X130771429Y-109328572D01*
X130771429Y-109700000D01*
X120971429Y-108757143D02*
X120371429Y-108757143D01*
X120371429Y-108985715D01*
X120400000Y-109042857D01*
X120428571Y-109071429D01*
X120485714Y-109100000D01*
X120571429Y-109100000D01*
X120628571Y-109071429D01*
X120657143Y-109042857D01*
X120685714Y-108985715D01*
X120685714Y-108757143D01*
X120371429Y-109642857D02*
X120371429Y-109357143D01*
X120657143Y-109328572D01*
X120628571Y-109357143D01*
X120600000Y-109414286D01*
X120600000Y-109557143D01*
X120628571Y-109614286D01*
X120657143Y-109642857D01*
X120714286Y-109671429D01*
X120857143Y-109671429D01*
X120914286Y-109642857D01*
X120942857Y-109614286D01*
X120971429Y-109557143D01*
X120971429Y-109414286D01*
X120942857Y-109357143D01*
X120914286Y-109328572D01*
X176385715Y-99271429D02*
X176585715Y-98985714D01*
X176728572Y-99271429D02*
X176728572Y-98671429D01*
X176500000Y-98671429D01*
X176442858Y-98700000D01*
X176414286Y-98728571D01*
X176385715Y-98785714D01*
X176385715Y-98871429D01*
X176414286Y-98928571D01*
X176442858Y-98957143D01*
X176500000Y-98985714D01*
X176728572Y-98985714D01*
X175814286Y-99271429D02*
X176157143Y-99271429D01*
X175985715Y-99271429D02*
X175985715Y-98671429D01*
X176042858Y-98757143D01*
X176100000Y-98814286D01*
X176157143Y-98842857D01*
X175442857Y-98671429D02*
X175385714Y-98671429D01*
X175328571Y-98700000D01*
X175300000Y-98728571D01*
X175271429Y-98785714D01*
X175242857Y-98900000D01*
X175242857Y-99042857D01*
X175271429Y-99157143D01*
X175300000Y-99214286D01*
X175328571Y-99242857D01*
X175385714Y-99271429D01*
X175442857Y-99271429D01*
X175500000Y-99242857D01*
X175528571Y-99214286D01*
X175557143Y-99157143D01*
X175585714Y-99042857D01*
X175585714Y-98900000D01*
X175557143Y-98785714D01*
X175528571Y-98728571D01*
X175500000Y-98700000D01*
X175442857Y-98671429D01*
X166785715Y-83071429D02*
X166985715Y-82785714D01*
X167128572Y-83071429D02*
X167128572Y-82471429D01*
X166900000Y-82471429D01*
X166842858Y-82500000D01*
X166814286Y-82528571D01*
X166785715Y-82585714D01*
X166785715Y-82671429D01*
X166814286Y-82728571D01*
X166842858Y-82757143D01*
X166900000Y-82785714D01*
X167128572Y-82785714D01*
X166214286Y-83071429D02*
X166557143Y-83071429D01*
X166385715Y-83071429D02*
X166385715Y-82471429D01*
X166442858Y-82557143D01*
X166500000Y-82614286D01*
X166557143Y-82642857D01*
X165642857Y-83071429D02*
X165985714Y-83071429D01*
X165814286Y-83071429D02*
X165814286Y-82471429D01*
X165871429Y-82557143D01*
X165928571Y-82614286D01*
X165985714Y-82642857D01*
X166885715Y-85571429D02*
X167085715Y-85285714D01*
X167228572Y-85571429D02*
X167228572Y-84971429D01*
X167000000Y-84971429D01*
X166942858Y-85000000D01*
X166914286Y-85028571D01*
X166885715Y-85085714D01*
X166885715Y-85171429D01*
X166914286Y-85228571D01*
X166942858Y-85257143D01*
X167000000Y-85285714D01*
X167228572Y-85285714D01*
X166314286Y-85571429D02*
X166657143Y-85571429D01*
X166485715Y-85571429D02*
X166485715Y-84971429D01*
X166542858Y-85057143D01*
X166600000Y-85114286D01*
X166657143Y-85142857D01*
X166085714Y-85028571D02*
X166057143Y-85000000D01*
X166000000Y-84971429D01*
X165857143Y-84971429D01*
X165800000Y-85000000D01*
X165771429Y-85028571D01*
X165742857Y-85085714D01*
X165742857Y-85142857D01*
X165771429Y-85228571D01*
X166114286Y-85571429D01*
X165742857Y-85571429D01*
M02*
