G04 #@! TF.FileFunction,Copper,L1,Top,Signal*
%FSLAX46Y46*%
G04 Gerber Fmt 4.6, Leading zero omitted, Abs format (unit mm)*
G04 Created by KiCad (PCBNEW 4.0.4-1.fc24-product) date Tue Jan 16 14:26:59 2018*
%MOMM*%
%LPD*%
G01*
G04 APERTURE LIST*
%ADD10C,0.100000*%
%ADD11O,1.998980X1.998980*%
%ADD12R,1.998980X1.998980*%
%ADD13R,1.250000X1.500000*%
%ADD14R,2.000000X1.600000*%
%ADD15R,1.500000X1.250000*%
%ADD16R,0.910000X1.220000*%
%ADD17R,1.550000X0.600000*%
%ADD18R,1.350000X1.350000*%
%ADD19C,1.350000*%
%ADD20R,1.200000X0.900000*%
%ADD21R,1.500000X1.500000*%
%ADD22C,1.500000*%
%ADD23R,1.200000X0.750000*%
%ADD24R,0.900000X1.200000*%
%ADD25R,1.950720X1.501140*%
%ADD26C,1.800000*%
%ADD27C,0.600000*%
%ADD28C,0.300000*%
%ADD29C,0.500000*%
G04 APERTURE END LIST*
D10*
D11*
X172120000Y-107500000D03*
D12*
X177200000Y-107500000D03*
D11*
X174660000Y-107500000D03*
D13*
X128900000Y-86250000D03*
X128900000Y-83750000D03*
D14*
X153300000Y-94100000D03*
X157300000Y-94100000D03*
D15*
X139350000Y-87000000D03*
X141850000Y-87000000D03*
D13*
X126000000Y-86250000D03*
X126000000Y-83750000D03*
D15*
X139350000Y-83800000D03*
X141850000Y-83800000D03*
D13*
X123100000Y-83750000D03*
X123100000Y-86250000D03*
D15*
X123150000Y-90400000D03*
X125650000Y-90400000D03*
D16*
X142235000Y-90500000D03*
X138965000Y-90500000D03*
D17*
X134800000Y-94105000D03*
X134800000Y-92835000D03*
X134800000Y-91565000D03*
X134800000Y-90295000D03*
X129400000Y-90295000D03*
X129400000Y-91565000D03*
X129400000Y-92835000D03*
X129400000Y-94105000D03*
D15*
X132650000Y-83800000D03*
X135150000Y-83800000D03*
X132650000Y-87000000D03*
X135150000Y-87000000D03*
X125650000Y-93900000D03*
X123150000Y-93900000D03*
D11*
X165860000Y-107500000D03*
D12*
X168400000Y-107500000D03*
D18*
X157400000Y-105500000D03*
D19*
X155400000Y-105500000D03*
X157400000Y-103500000D03*
X155400000Y-103500000D03*
D20*
X148600000Y-94100000D03*
X146400000Y-94100000D03*
X148600000Y-91500000D03*
X146400000Y-91500000D03*
X146400000Y-88900000D03*
X148600000Y-88900000D03*
X161700000Y-94100000D03*
X163900000Y-94100000D03*
X161700000Y-96700000D03*
X163900000Y-96700000D03*
X156400000Y-83600000D03*
X154200000Y-83600000D03*
X161700000Y-91500000D03*
X163900000Y-91500000D03*
X164000000Y-83500000D03*
X161800000Y-83500000D03*
D17*
X152600000Y-86695000D03*
X152600000Y-87965000D03*
X152600000Y-89235000D03*
X152600000Y-90505000D03*
X158000000Y-90505000D03*
X158000000Y-89235000D03*
X158000000Y-87965000D03*
X158000000Y-86695000D03*
D21*
X144000000Y-107600000D03*
D22*
X144000000Y-105600000D03*
X144000000Y-103600000D03*
X144000000Y-101600000D03*
X144000000Y-99600000D03*
D21*
X134000000Y-107600000D03*
D22*
X134000000Y-105600000D03*
X134000000Y-103600000D03*
X134000000Y-101600000D03*
X134000000Y-99600000D03*
D21*
X124000000Y-107600000D03*
D22*
X124000000Y-105600000D03*
X124000000Y-103600000D03*
X124000000Y-101600000D03*
X124000000Y-99600000D03*
D23*
X161750000Y-88900000D03*
X163650000Y-88900000D03*
D15*
X141850000Y-94100000D03*
X139350000Y-94100000D03*
D24*
X166600000Y-88200000D03*
X166600000Y-86000000D03*
D25*
X163974140Y-86100000D03*
X161225860Y-86100000D03*
D26*
X170400000Y-94000000D03*
X172900000Y-94000000D03*
X175400000Y-94000000D03*
X175400000Y-84000000D03*
X172900000Y-84000000D03*
X170400000Y-84000000D03*
X175400000Y-86500000D03*
X172900000Y-86500000D03*
X170400000Y-86500000D03*
X175400000Y-91500000D03*
X172900000Y-91500000D03*
X170400000Y-91500000D03*
D27*
X139000000Y-89300000D03*
X157600000Y-92200000D03*
X125600000Y-88900000D03*
X141800000Y-82500000D03*
X123100000Y-82400000D03*
X142217000Y-92678200D03*
X137700000Y-87000000D03*
X136899998Y-92800000D03*
X123100000Y-87700000D03*
X135050000Y-88380500D03*
X166600000Y-89400000D03*
X136100000Y-91565000D03*
X127600000Y-91600000D03*
X167900000Y-89000000D03*
D28*
X128900000Y-87800000D02*
X128900000Y-86250000D01*
X133935000Y-92835000D02*
X128900000Y-87800000D01*
X134800000Y-92835000D02*
X133935000Y-92835000D01*
X134800000Y-90295000D02*
X133575000Y-90295000D01*
X133900000Y-86202000D02*
X133559000Y-85861000D01*
X129975000Y-83750000D02*
X128900000Y-83750000D01*
X133575000Y-90295000D02*
X133575000Y-89682500D01*
X133575000Y-89682500D02*
X133900000Y-89357500D01*
X133900000Y-89357500D02*
X133900000Y-86202000D01*
X133559000Y-85861000D02*
X132086000Y-85861000D01*
X132086000Y-85861000D02*
X129975000Y-83750000D01*
X153300000Y-94100000D02*
X153300000Y-92849700D01*
X153300000Y-92849700D02*
X154000000Y-92149700D01*
X154000000Y-92149700D02*
X154000000Y-89235000D01*
X154000000Y-89235000D02*
X152600000Y-89235000D01*
X148600000Y-93199700D02*
X148600000Y-94100000D01*
X150230000Y-91570100D02*
X148600000Y-93199700D01*
X150230000Y-90380100D02*
X150230000Y-91570100D01*
X151375000Y-89235000D02*
X150230000Y-90380100D01*
X152600000Y-89235000D02*
X151375000Y-89235000D01*
D29*
X138965000Y-89335000D02*
X139000000Y-89300000D01*
X138965000Y-90500000D02*
X138965000Y-89335000D01*
X158000000Y-91800000D02*
X157600000Y-92200000D01*
X158000000Y-90505000D02*
X158000000Y-91800000D01*
X157300000Y-92500000D02*
X157600000Y-92200000D01*
X157300000Y-94100000D02*
X157300000Y-92500000D01*
X125650000Y-88950000D02*
X125600000Y-88900000D01*
X125650000Y-90400000D02*
X125650000Y-88950000D01*
X141850000Y-82550000D02*
X141800000Y-82500000D01*
X141850000Y-83800000D02*
X141850000Y-82550000D01*
X123100000Y-83750000D02*
X123100000Y-82400000D01*
X141970000Y-92924700D02*
X142217000Y-92678200D01*
X141850000Y-92924700D02*
X141970000Y-92924700D01*
X141850000Y-94100000D02*
X141850000Y-92924700D01*
D28*
X132650000Y-83800000D02*
X132775000Y-83800000D01*
X132775000Y-83800000D02*
X134475000Y-85500000D01*
X134475000Y-85500000D02*
X136200000Y-85500000D01*
X136200000Y-85500000D02*
X137400001Y-86700001D01*
X137400001Y-86700001D02*
X137700000Y-87000000D01*
X139350000Y-87000000D02*
X137700000Y-87000000D01*
X136580000Y-92800000D02*
X136899998Y-92800000D01*
X135275000Y-94105000D02*
X136580000Y-92800000D01*
X134800000Y-94105000D02*
X135275000Y-94105000D01*
X134800000Y-94105000D02*
X129400000Y-94105000D01*
X129400000Y-94105000D02*
X128903000Y-94105000D01*
X126850000Y-83750000D02*
X126000000Y-83750000D01*
X127814000Y-84713900D02*
X126850000Y-83750000D01*
X127814000Y-85049600D02*
X127814000Y-84713900D01*
X129728000Y-85049600D02*
X127814000Y-85049600D01*
X131678000Y-87000000D02*
X129728000Y-85049600D01*
X132650000Y-87000000D02*
X131678000Y-87000000D01*
X127814000Y-89934200D02*
X127814000Y-85049600D01*
X128175000Y-90295000D02*
X127814000Y-89934200D01*
X129400000Y-90295000D02*
X128175000Y-90295000D01*
D29*
X125700000Y-95600100D02*
X125600000Y-95700000D01*
X125600000Y-95700000D02*
X125600000Y-96095600D01*
X125600000Y-96095600D02*
X122699000Y-98996300D01*
X122699000Y-98996300D02*
X122699000Y-108584000D01*
X122699000Y-108584000D02*
X123715011Y-109600011D01*
X123715011Y-109600011D02*
X163759989Y-109600011D01*
X163759989Y-109600011D02*
X164860511Y-108499489D01*
X164860511Y-108499489D02*
X165860000Y-107500000D01*
X138762000Y-83800000D02*
X135150000Y-83800000D01*
X139350000Y-84387600D02*
X138762000Y-83800000D01*
X142235000Y-90500000D02*
X143240000Y-90500000D01*
X139350000Y-83800000D02*
X139350000Y-84387600D01*
X139988000Y-84387600D02*
X139350000Y-84387600D01*
X141000000Y-85400000D02*
X139988000Y-84387600D01*
X142414000Y-85400000D02*
X141000000Y-85400000D01*
X143240000Y-86226600D02*
X142414000Y-85400000D01*
X143240000Y-90500000D02*
X143240000Y-86226600D01*
X125700000Y-95600000D02*
X125700000Y-95600100D01*
X143240000Y-94964900D02*
X143240000Y-90500000D01*
X142605000Y-95600100D02*
X143240000Y-94964900D01*
X125700000Y-95600100D02*
X142605000Y-95600100D01*
X125600000Y-95500000D02*
X125700000Y-95600100D01*
X125600000Y-93950000D02*
X125600000Y-95500000D01*
X125650000Y-93900000D02*
X125600000Y-93950000D01*
X123100000Y-86250000D02*
X123100000Y-87700000D01*
X135150000Y-88280800D02*
X135150000Y-87000000D01*
X135050000Y-88380500D02*
X135150000Y-88280800D01*
X134000000Y-103600000D02*
X144000000Y-103600000D01*
X151275000Y-96325300D02*
X144000000Y-103600000D01*
X151275000Y-90505000D02*
X151275000Y-96325300D01*
X152600000Y-90505000D02*
X151275000Y-90505000D01*
D28*
X164000000Y-83550600D02*
X164000000Y-83500000D01*
X161451000Y-86100000D02*
X164000000Y-83550600D01*
X161226000Y-86100000D02*
X161451000Y-86100000D01*
X161226000Y-86100000D02*
X161225900Y-86100000D01*
D29*
X166600000Y-88200000D02*
X166600000Y-89400000D01*
X172120000Y-107500000D02*
X168400000Y-107500000D01*
D28*
X155300000Y-105600000D02*
X155400000Y-105500000D01*
X144000000Y-105600000D02*
X155300000Y-105600000D01*
X134000000Y-105600000D02*
X137066000Y-105600000D01*
X154000000Y-108900000D02*
X157400000Y-105500000D01*
X137066000Y-105600000D02*
X140366000Y-108900000D01*
X140366000Y-108900000D02*
X154000000Y-108900000D01*
X124000000Y-107600000D02*
X125200000Y-107600000D01*
X125600000Y-107200000D02*
X125600000Y-106224000D01*
X125200000Y-107600000D02*
X125600000Y-107200000D01*
X125600000Y-106224000D02*
X133624000Y-98200000D01*
X133624000Y-98200000D02*
X144400000Y-98200000D01*
X144400000Y-98200000D02*
X146400000Y-96200000D01*
X146400000Y-96200000D02*
X146400000Y-94100000D01*
X146400000Y-91500000D02*
X146400000Y-94100000D01*
X155400000Y-103500000D02*
X157400000Y-103500000D01*
X148600000Y-87999700D02*
X148600000Y-88900000D01*
X151340000Y-87999700D02*
X148600000Y-87999700D01*
X151375000Y-87965000D02*
X151340000Y-87999700D01*
X152600000Y-87965000D02*
X151375000Y-87965000D01*
X148600000Y-91500000D02*
X148600000Y-88900000D01*
X154200000Y-84500300D02*
X154200000Y-83600000D01*
X153825000Y-84875000D02*
X154200000Y-84500300D01*
X153825000Y-86695000D02*
X153825000Y-84875000D01*
X152600000Y-86695000D02*
X153825000Y-86695000D01*
X147705000Y-86695000D02*
X152600000Y-86695000D01*
X146400000Y-87999700D02*
X147705000Y-86695000D01*
X146400000Y-88900000D02*
X146400000Y-87999700D01*
X159500000Y-84900000D02*
X159500000Y-88000000D01*
X160900000Y-83500000D02*
X159500000Y-84900000D01*
X161800000Y-83500000D02*
X160900000Y-83500000D01*
X161700000Y-89000000D02*
X161700000Y-91500000D01*
X161750000Y-88950000D02*
X161700000Y-89000000D01*
X161750000Y-88900000D02*
X161750000Y-88950000D01*
X161750000Y-88350000D02*
X161750000Y-88900000D01*
X161400000Y-88000000D02*
X161750000Y-88350000D01*
X159500000Y-88000000D02*
X161400000Y-88000000D01*
X157900000Y-88000000D02*
X158035000Y-88000000D01*
X158035000Y-88000000D02*
X159500000Y-88000000D01*
X158035000Y-88000000D02*
X158000000Y-87965000D01*
X156400000Y-83600000D02*
X156400000Y-84500300D01*
X156400000Y-84500300D02*
X156700000Y-84800300D01*
X156700000Y-89235000D02*
X158000000Y-89235000D01*
X156700000Y-84800300D02*
X156700000Y-89235000D01*
X158000000Y-89235000D02*
X159500000Y-89235000D01*
X159500000Y-89235000D02*
X159500000Y-90999700D01*
X159500000Y-90999700D02*
X161700000Y-93199700D01*
X161800000Y-93100000D02*
X161700000Y-93199700D01*
X163400000Y-93100000D02*
X161800000Y-93100000D01*
X163900000Y-92600000D02*
X163400000Y-93100000D01*
X163900000Y-91500000D02*
X163900000Y-92600000D01*
X163900000Y-88900000D02*
X163900000Y-91500000D01*
X163650000Y-88900000D02*
X163900000Y-88900000D01*
X161700000Y-96700000D02*
X161700000Y-94100000D01*
X161700000Y-94100000D02*
X161700000Y-93199700D01*
X134800000Y-91565000D02*
X136100000Y-91565000D01*
X136100000Y-91565000D02*
X137554996Y-91565000D01*
X126000000Y-86250000D02*
X126000000Y-86375000D01*
X126000000Y-86375000D02*
X126925000Y-87300000D01*
X126925000Y-87300000D02*
X126925000Y-90925000D01*
X126925000Y-90925000D02*
X127600000Y-91600000D01*
X137554996Y-91565000D02*
X139014696Y-93024700D01*
X139014696Y-93024700D02*
X139350000Y-93024700D01*
X141850000Y-87000000D02*
X141850000Y-88075300D01*
X141850000Y-88075300D02*
X140600000Y-89325300D01*
X140600000Y-89325300D02*
X140600000Y-91700000D01*
X140600000Y-91700000D02*
X139350000Y-92950000D01*
X139350000Y-92950000D02*
X139350000Y-93024700D01*
X139350000Y-94100000D02*
X139350000Y-93024700D01*
X166600000Y-86000000D02*
X167200000Y-86000000D01*
X167200000Y-86000000D02*
X167900000Y-86700000D01*
X167900000Y-88575736D02*
X167900000Y-89000000D01*
X167900000Y-86700000D02*
X167900000Y-88575736D01*
X163974000Y-86100000D02*
X163974100Y-86100100D01*
X163974100Y-86100100D02*
X163974100Y-86100000D01*
X166600000Y-86000000D02*
X165878500Y-86000000D01*
X163974100Y-86100100D02*
X164374000Y-86500000D01*
X164874000Y-86000000D02*
X164374000Y-86500000D01*
X165878500Y-86000000D02*
X164874000Y-86000000D01*
X163900000Y-94100000D02*
X164050000Y-94100000D01*
X164050000Y-94100000D02*
X168800000Y-89350000D01*
X168800000Y-89350000D02*
X168800000Y-83681700D01*
X168800000Y-83681700D02*
X169848800Y-82632900D01*
X169848800Y-82632900D02*
X171532900Y-82632900D01*
X171532900Y-82632900D02*
X172900000Y-84000000D01*
X172900000Y-86799700D02*
X163900000Y-95799700D01*
X172900000Y-86500000D02*
X172900000Y-86799700D01*
X163900000Y-96700000D02*
X163900000Y-95799700D01*
G36*
X178475000Y-106144123D02*
X178377995Y-106077842D01*
X178199490Y-106041694D01*
X176200510Y-106041694D01*
X176033750Y-106073072D01*
X175880591Y-106171627D01*
X175777842Y-106322005D01*
X175741694Y-106500510D01*
X175741694Y-106517489D01*
X175713341Y-106475056D01*
X175243093Y-106160846D01*
X174688397Y-106050510D01*
X174631603Y-106050510D01*
X174076907Y-106160846D01*
X173606659Y-106475056D01*
X173390000Y-106799309D01*
X173173341Y-106475056D01*
X172703093Y-106160846D01*
X172148397Y-106050510D01*
X172091603Y-106050510D01*
X171536907Y-106160846D01*
X171066659Y-106475056D01*
X170849538Y-106800000D01*
X169858306Y-106800000D01*
X169858306Y-106500510D01*
X169826928Y-106333750D01*
X169728373Y-106180591D01*
X169577995Y-106077842D01*
X169399490Y-106041694D01*
X167400510Y-106041694D01*
X167233750Y-106073072D01*
X167080591Y-106171627D01*
X166977842Y-106322005D01*
X166941694Y-106500510D01*
X166941694Y-106517489D01*
X166913341Y-106475056D01*
X166443093Y-106160846D01*
X165888397Y-106050510D01*
X165831603Y-106050510D01*
X165276907Y-106160846D01*
X164806659Y-106475056D01*
X164492449Y-106945304D01*
X164382113Y-107500000D01*
X164463067Y-107906983D01*
X163470039Y-108900011D01*
X154848517Y-108900011D01*
X157114712Y-106633816D01*
X158075000Y-106633816D01*
X158241760Y-106602438D01*
X158394919Y-106503883D01*
X158497668Y-106353505D01*
X158533816Y-106175000D01*
X158533816Y-104825000D01*
X158502438Y-104658240D01*
X158403883Y-104505081D01*
X158253505Y-104402332D01*
X158116305Y-104374548D01*
X158353172Y-104138093D01*
X158524804Y-103724758D01*
X158525195Y-103277205D01*
X158354285Y-102863571D01*
X158038093Y-102546828D01*
X157624758Y-102375196D01*
X157177205Y-102374805D01*
X156763571Y-102545715D01*
X156446828Y-102861907D01*
X156431010Y-102900000D01*
X156369337Y-102900000D01*
X156354285Y-102863571D01*
X156038093Y-102546828D01*
X155624758Y-102375196D01*
X155177205Y-102374805D01*
X154763571Y-102545715D01*
X154446828Y-102861907D01*
X154275196Y-103275242D01*
X154274805Y-103722795D01*
X154445715Y-104136429D01*
X154761907Y-104453172D01*
X154874446Y-104499902D01*
X154763571Y-104545715D01*
X154446828Y-104861907D01*
X154389487Y-105000000D01*
X145050486Y-105000000D01*
X145017903Y-104921143D01*
X144697057Y-104599735D01*
X145016717Y-104280633D01*
X145199791Y-103839742D01*
X145200183Y-103389796D01*
X151769965Y-96820285D01*
X151769969Y-96820279D01*
X151769975Y-96820275D01*
X151850340Y-96700000D01*
X151921710Y-96593192D01*
X151921711Y-96593185D01*
X151921716Y-96593178D01*
X151946188Y-96470150D01*
X151975001Y-96325314D01*
X151974999Y-96325304D01*
X151975000Y-96325300D01*
X151975000Y-95222572D01*
X152121495Y-95322668D01*
X152300000Y-95358816D01*
X154300000Y-95358816D01*
X154466760Y-95327438D01*
X154619919Y-95228883D01*
X154722668Y-95078505D01*
X154758816Y-94900000D01*
X154758816Y-93300000D01*
X154727438Y-93133240D01*
X154628883Y-92980081D01*
X154478505Y-92877332D01*
X154300000Y-92841184D01*
X154157044Y-92841184D01*
X154424264Y-92573964D01*
X154554328Y-92379311D01*
X154600000Y-92149700D01*
X154600000Y-89235000D01*
X154554328Y-89005390D01*
X154424264Y-88810736D01*
X154229610Y-88680672D01*
X154000000Y-88635000D01*
X153716701Y-88635000D01*
X153703883Y-88615081D01*
X153683558Y-88601194D01*
X153694919Y-88593883D01*
X153797668Y-88443505D01*
X153833816Y-88265000D01*
X153833816Y-87665000D01*
X153802438Y-87498240D01*
X153703883Y-87345081D01*
X153683558Y-87331194D01*
X153694919Y-87323883D01*
X153714654Y-87295000D01*
X153825000Y-87295000D01*
X154054610Y-87249328D01*
X154249264Y-87119264D01*
X154379328Y-86924610D01*
X154425000Y-86695000D01*
X154425000Y-85123669D01*
X154624094Y-84924734D01*
X154624162Y-84924632D01*
X154624264Y-84924564D01*
X154689207Y-84827370D01*
X154754236Y-84730132D01*
X154754260Y-84730012D01*
X154754328Y-84729910D01*
X154777143Y-84615212D01*
X154798350Y-84508816D01*
X154800000Y-84508816D01*
X154966760Y-84477438D01*
X155119919Y-84378883D01*
X155222668Y-84228505D01*
X155258816Y-84050000D01*
X155258816Y-83150000D01*
X155341184Y-83150000D01*
X155341184Y-84050000D01*
X155372562Y-84216760D01*
X155471117Y-84369919D01*
X155621495Y-84472668D01*
X155800000Y-84508816D01*
X155801694Y-84508816D01*
X155845672Y-84729910D01*
X155975736Y-84924564D01*
X156100000Y-85048828D01*
X156100000Y-89235000D01*
X156145672Y-89464610D01*
X156275736Y-89659264D01*
X156470390Y-89789328D01*
X156700000Y-89835000D01*
X156883299Y-89835000D01*
X156896117Y-89854919D01*
X156916442Y-89868806D01*
X156905081Y-89876117D01*
X156802332Y-90026495D01*
X156766184Y-90205000D01*
X156766184Y-90805000D01*
X156797562Y-90971760D01*
X156896117Y-91124919D01*
X157046495Y-91227668D01*
X157225000Y-91263816D01*
X157300000Y-91263816D01*
X157300000Y-91510050D01*
X157295900Y-91514151D01*
X157175714Y-91563811D01*
X156964552Y-91774605D01*
X156914211Y-91895839D01*
X156805025Y-92005025D01*
X156653284Y-92232121D01*
X156610599Y-92446716D01*
X156600000Y-92500000D01*
X156600000Y-92841184D01*
X156300000Y-92841184D01*
X156133240Y-92872562D01*
X155980081Y-92971117D01*
X155877332Y-93121495D01*
X155841184Y-93300000D01*
X155841184Y-94900000D01*
X155872562Y-95066760D01*
X155971117Y-95219919D01*
X156121495Y-95322668D01*
X156300000Y-95358816D01*
X158300000Y-95358816D01*
X158466760Y-95327438D01*
X158619919Y-95228883D01*
X158722668Y-95078505D01*
X158758816Y-94900000D01*
X158758816Y-93300000D01*
X158727438Y-93133240D01*
X158628883Y-92980081D01*
X158478505Y-92877332D01*
X158300000Y-92841184D01*
X158012197Y-92841184D01*
X158024286Y-92836189D01*
X158235448Y-92625395D01*
X158285789Y-92504160D01*
X158494972Y-92294977D01*
X158494975Y-92294975D01*
X158646716Y-92067878D01*
X158700000Y-91800000D01*
X158700000Y-91263816D01*
X158775000Y-91263816D01*
X158941760Y-91232438D01*
X158945957Y-91229737D01*
X159075736Y-91423964D01*
X160897398Y-93245626D01*
X160780081Y-93321117D01*
X160677332Y-93471495D01*
X160641184Y-93650000D01*
X160641184Y-94550000D01*
X160672562Y-94716760D01*
X160771117Y-94869919D01*
X160921495Y-94972668D01*
X161100000Y-95008816D01*
X161100000Y-95791184D01*
X160933240Y-95822562D01*
X160780081Y-95921117D01*
X160677332Y-96071495D01*
X160641184Y-96250000D01*
X160641184Y-97150000D01*
X160672562Y-97316760D01*
X160771117Y-97469919D01*
X160921495Y-97572668D01*
X161100000Y-97608816D01*
X162300000Y-97608816D01*
X162466760Y-97577438D01*
X162619919Y-97478883D01*
X162722668Y-97328505D01*
X162758816Y-97150000D01*
X162758816Y-96250000D01*
X162727438Y-96083240D01*
X162628883Y-95930081D01*
X162478505Y-95827332D01*
X162300000Y-95791184D01*
X162300000Y-95008816D01*
X162466760Y-94977438D01*
X162619919Y-94878883D01*
X162722668Y-94728505D01*
X162758816Y-94550000D01*
X162758816Y-93700000D01*
X162841184Y-93700000D01*
X162841184Y-94550000D01*
X162872562Y-94716760D01*
X162971117Y-94869919D01*
X163121495Y-94972668D01*
X163300000Y-95008816D01*
X163842356Y-95008816D01*
X163475736Y-95375436D01*
X163345672Y-95570090D01*
X163301694Y-95791184D01*
X163300000Y-95791184D01*
X163133240Y-95822562D01*
X162980081Y-95921117D01*
X162877332Y-96071495D01*
X162841184Y-96250000D01*
X162841184Y-97150000D01*
X162872562Y-97316760D01*
X162971117Y-97469919D01*
X163121495Y-97572668D01*
X163300000Y-97608816D01*
X164500000Y-97608816D01*
X164666760Y-97577438D01*
X164819919Y-97478883D01*
X164922668Y-97328505D01*
X164958816Y-97150000D01*
X164958816Y-96250000D01*
X164927438Y-96083240D01*
X164828883Y-95930081D01*
X164703689Y-95844539D01*
X169050001Y-91498227D01*
X169049766Y-91767353D01*
X169254858Y-92263715D01*
X169634288Y-92643807D01*
X169890045Y-92750007D01*
X169636285Y-92854858D01*
X169256193Y-93234288D01*
X169050235Y-93730290D01*
X169049766Y-94267353D01*
X169254858Y-94763715D01*
X169634288Y-95143807D01*
X170130290Y-95349765D01*
X170667353Y-95350234D01*
X171163715Y-95145142D01*
X171543807Y-94765712D01*
X171650007Y-94509955D01*
X171754858Y-94763715D01*
X172134288Y-95143807D01*
X172630290Y-95349765D01*
X173167353Y-95350234D01*
X173663715Y-95145142D01*
X174043807Y-94765712D01*
X174150007Y-94509955D01*
X174254858Y-94763715D01*
X174634288Y-95143807D01*
X175130290Y-95349765D01*
X175667353Y-95350234D01*
X176163715Y-95145142D01*
X176543807Y-94765712D01*
X176749765Y-94269710D01*
X176750234Y-93732647D01*
X176545142Y-93236285D01*
X176165712Y-92856193D01*
X175909955Y-92749993D01*
X176163715Y-92645142D01*
X176543807Y-92265712D01*
X176749765Y-91769710D01*
X176750234Y-91232647D01*
X176545142Y-90736285D01*
X176165712Y-90356193D01*
X175669710Y-90150235D01*
X175132647Y-90149766D01*
X174636285Y-90354858D01*
X174256193Y-90734288D01*
X174149993Y-90990045D01*
X174045142Y-90736285D01*
X173665712Y-90356193D01*
X173169710Y-90150235D01*
X172632647Y-90149766D01*
X172136285Y-90354858D01*
X171756193Y-90734288D01*
X171649993Y-90990045D01*
X171545142Y-90736285D01*
X171165712Y-90356193D01*
X170669710Y-90150235D01*
X170398230Y-90149998D01*
X172698404Y-87849824D01*
X173167353Y-87850234D01*
X173663715Y-87645142D01*
X174043807Y-87265712D01*
X174150007Y-87009955D01*
X174254858Y-87263715D01*
X174634288Y-87643807D01*
X175130290Y-87849765D01*
X175667353Y-87850234D01*
X176163715Y-87645142D01*
X176543807Y-87265712D01*
X176749765Y-86769710D01*
X176750234Y-86232647D01*
X176545142Y-85736285D01*
X176165712Y-85356193D01*
X175909955Y-85249993D01*
X176163715Y-85145142D01*
X176543807Y-84765712D01*
X176749765Y-84269710D01*
X176750234Y-83732647D01*
X176545142Y-83236285D01*
X176165712Y-82856193D01*
X175669710Y-82650235D01*
X175132647Y-82649766D01*
X174636285Y-82854858D01*
X174256193Y-83234288D01*
X174149993Y-83490045D01*
X174045142Y-83236285D01*
X173665712Y-82856193D01*
X173169710Y-82650235D01*
X172632647Y-82649766D01*
X172466814Y-82718286D01*
X171957164Y-82208636D01*
X171762510Y-82078572D01*
X171532900Y-82032900D01*
X169848800Y-82032900D01*
X169619190Y-82078572D01*
X169424536Y-82208636D01*
X168375736Y-83257436D01*
X168245672Y-83452090D01*
X168200000Y-83681700D01*
X168200000Y-86151472D01*
X167624264Y-85575736D01*
X167508816Y-85498596D01*
X167508816Y-85400000D01*
X167477438Y-85233240D01*
X167378883Y-85080081D01*
X167228505Y-84977332D01*
X167050000Y-84941184D01*
X166150000Y-84941184D01*
X165983240Y-84972562D01*
X165830081Y-85071117D01*
X165727332Y-85221495D01*
X165691184Y-85400000D01*
X165408316Y-85400000D01*
X165408316Y-85349430D01*
X165376938Y-85182670D01*
X165278383Y-85029511D01*
X165128005Y-84926762D01*
X164949500Y-84890614D01*
X163508658Y-84890614D01*
X163990380Y-84408816D01*
X164600000Y-84408816D01*
X164766760Y-84377438D01*
X164919919Y-84278883D01*
X165022668Y-84128505D01*
X165058816Y-83950000D01*
X165058816Y-83050000D01*
X165027438Y-82883240D01*
X164928883Y-82730081D01*
X164778505Y-82627332D01*
X164600000Y-82591184D01*
X163400000Y-82591184D01*
X163233240Y-82622562D01*
X163080081Y-82721117D01*
X162977332Y-82871495D01*
X162941184Y-83050000D01*
X162941184Y-83760987D01*
X162858816Y-83843368D01*
X162858816Y-83050000D01*
X162827438Y-82883240D01*
X162728883Y-82730081D01*
X162578505Y-82627332D01*
X162400000Y-82591184D01*
X161200000Y-82591184D01*
X161033240Y-82622562D01*
X160880081Y-82721117D01*
X160777332Y-82871495D01*
X160766169Y-82926621D01*
X160670390Y-82945672D01*
X160475736Y-83075736D01*
X159075736Y-84475736D01*
X158945672Y-84670390D01*
X158900000Y-84900000D01*
X158900000Y-85959700D01*
X158864511Y-85945000D01*
X158262500Y-85945000D01*
X158150000Y-86057500D01*
X158150000Y-86545000D01*
X158170000Y-86545000D01*
X158170000Y-86845000D01*
X158150000Y-86845000D01*
X158150000Y-86865000D01*
X157850000Y-86865000D01*
X157850000Y-86845000D01*
X157830000Y-86845000D01*
X157830000Y-86545000D01*
X157850000Y-86545000D01*
X157850000Y-86057500D01*
X157737500Y-85945000D01*
X157300000Y-85945000D01*
X157300000Y-84800300D01*
X157254328Y-84570690D01*
X157184424Y-84466072D01*
X157319919Y-84378883D01*
X157422668Y-84228505D01*
X157458816Y-84050000D01*
X157458816Y-83150000D01*
X157427438Y-82983240D01*
X157328883Y-82830081D01*
X157178505Y-82727332D01*
X157000000Y-82691184D01*
X155800000Y-82691184D01*
X155633240Y-82722562D01*
X155480081Y-82821117D01*
X155377332Y-82971495D01*
X155341184Y-83150000D01*
X155258816Y-83150000D01*
X155227438Y-82983240D01*
X155128883Y-82830081D01*
X154978505Y-82727332D01*
X154800000Y-82691184D01*
X153600000Y-82691184D01*
X153433240Y-82722562D01*
X153280081Y-82821117D01*
X153177332Y-82971495D01*
X153141184Y-83150000D01*
X153141184Y-84050000D01*
X153172562Y-84216760D01*
X153271117Y-84369919D01*
X153397182Y-84456055D01*
X153335793Y-84547930D01*
X153270764Y-84645168D01*
X153270740Y-84645288D01*
X153270672Y-84645390D01*
X153247857Y-84760088D01*
X153225000Y-84874760D01*
X153225024Y-84874880D01*
X153225000Y-84875000D01*
X153225000Y-85936184D01*
X151825000Y-85936184D01*
X151658240Y-85967562D01*
X151505081Y-86066117D01*
X151485346Y-86095000D01*
X147705000Y-86095000D01*
X147592496Y-86117378D01*
X147475454Y-86140645D01*
X147475424Y-86140665D01*
X147475390Y-86140672D01*
X147379626Y-86204660D01*
X147280785Y-86270687D01*
X145975785Y-87575387D01*
X145975765Y-87575416D01*
X145975736Y-87575436D01*
X145909735Y-87674213D01*
X145845699Y-87770026D01*
X145845692Y-87770060D01*
X145845672Y-87770090D01*
X145822405Y-87887063D01*
X145801681Y-87991184D01*
X145800000Y-87991184D01*
X145633240Y-88022562D01*
X145480081Y-88121117D01*
X145377332Y-88271495D01*
X145341184Y-88450000D01*
X145341184Y-89350000D01*
X145372562Y-89516760D01*
X145471117Y-89669919D01*
X145621495Y-89772668D01*
X145800000Y-89808816D01*
X147000000Y-89808816D01*
X147166760Y-89777438D01*
X147319919Y-89678883D01*
X147422668Y-89528505D01*
X147458816Y-89350000D01*
X147458816Y-88450000D01*
X147427438Y-88283240D01*
X147328883Y-88130081D01*
X147203741Y-88044575D01*
X147953488Y-87295000D01*
X151483299Y-87295000D01*
X151496117Y-87314919D01*
X151516442Y-87328806D01*
X151505081Y-87336117D01*
X151485346Y-87365000D01*
X151375000Y-87365000D01*
X151261363Y-87387604D01*
X151199152Y-87399700D01*
X148600000Y-87399700D01*
X148370390Y-87445372D01*
X148175736Y-87575436D01*
X148045672Y-87770090D01*
X148001694Y-87991184D01*
X148000000Y-87991184D01*
X147833240Y-88022562D01*
X147680081Y-88121117D01*
X147577332Y-88271495D01*
X147541184Y-88450000D01*
X147541184Y-89350000D01*
X147572562Y-89516760D01*
X147671117Y-89669919D01*
X147821495Y-89772668D01*
X148000000Y-89808816D01*
X148000000Y-90591184D01*
X147833240Y-90622562D01*
X147680081Y-90721117D01*
X147577332Y-90871495D01*
X147541184Y-91050000D01*
X147541184Y-91950000D01*
X147572562Y-92116760D01*
X147671117Y-92269919D01*
X147821495Y-92372668D01*
X148000000Y-92408816D01*
X148542446Y-92408816D01*
X148175788Y-92775384D01*
X148175767Y-92775415D01*
X148175736Y-92775436D01*
X148112290Y-92870390D01*
X148045700Y-92970022D01*
X148045693Y-92970059D01*
X148045672Y-92970090D01*
X148023947Y-93079310D01*
X148001680Y-93191184D01*
X148000000Y-93191184D01*
X147833240Y-93222562D01*
X147680081Y-93321117D01*
X147577332Y-93471495D01*
X147541184Y-93650000D01*
X147541184Y-94550000D01*
X147572562Y-94716760D01*
X147671117Y-94869919D01*
X147821495Y-94972668D01*
X148000000Y-95008816D01*
X149200000Y-95008816D01*
X149366760Y-94977438D01*
X149519919Y-94878883D01*
X149622668Y-94728505D01*
X149658816Y-94550000D01*
X149658816Y-93650000D01*
X149627438Y-93483240D01*
X149528883Y-93330081D01*
X149403744Y-93244577D01*
X150575000Y-92073609D01*
X150575000Y-96035343D01*
X145200166Y-101409955D01*
X145200207Y-101362353D01*
X145017903Y-100921143D01*
X144680633Y-100583283D01*
X144637566Y-100565400D01*
X144672343Y-100484475D01*
X144000000Y-99812132D01*
X143327657Y-100484475D01*
X143362301Y-100565091D01*
X143321143Y-100582097D01*
X142983283Y-100919367D01*
X142800209Y-101360258D01*
X142799793Y-101837647D01*
X142982097Y-102278857D01*
X143302943Y-102600265D01*
X143002684Y-102900000D01*
X134996797Y-102900000D01*
X134697057Y-102599735D01*
X135016717Y-102280633D01*
X135199791Y-101839742D01*
X135200207Y-101362353D01*
X135017903Y-100921143D01*
X134680633Y-100583283D01*
X134637566Y-100565400D01*
X134672343Y-100484475D01*
X134000000Y-99812132D01*
X133327657Y-100484475D01*
X133362301Y-100565091D01*
X133321143Y-100582097D01*
X132983283Y-100919367D01*
X132800209Y-101360258D01*
X132799793Y-101837647D01*
X132982097Y-102278857D01*
X133302943Y-102600265D01*
X132983283Y-102919367D01*
X132800209Y-103360258D01*
X132799793Y-103837647D01*
X132982097Y-104278857D01*
X133302943Y-104600265D01*
X132983283Y-104919367D01*
X132800209Y-105360258D01*
X132799793Y-105837647D01*
X132982097Y-106278857D01*
X133118860Y-106415860D01*
X133083240Y-106422562D01*
X132930081Y-106521117D01*
X132827332Y-106671495D01*
X132791184Y-106850000D01*
X132791184Y-108350000D01*
X132822562Y-108516760D01*
X132921117Y-108669919D01*
X133071495Y-108772668D01*
X133250000Y-108808816D01*
X134750000Y-108808816D01*
X134916760Y-108777438D01*
X135069919Y-108678883D01*
X135172668Y-108528505D01*
X135208816Y-108350000D01*
X135208816Y-106850000D01*
X135177438Y-106683240D01*
X135078883Y-106530081D01*
X134928505Y-106427332D01*
X134879668Y-106417442D01*
X135016717Y-106280633D01*
X135050199Y-106200000D01*
X136817472Y-106200000D01*
X139517483Y-108900011D01*
X124004960Y-108900011D01*
X123913765Y-108808816D01*
X124750000Y-108808816D01*
X124916760Y-108777438D01*
X125069919Y-108678883D01*
X125172668Y-108528505D01*
X125208816Y-108350000D01*
X125208816Y-108198246D01*
X125429610Y-108154328D01*
X125624264Y-108024264D01*
X126024264Y-107624264D01*
X126154328Y-107429611D01*
X126200000Y-107200000D01*
X126200000Y-106472528D01*
X132817197Y-99855331D01*
X132824136Y-99938108D01*
X132929460Y-100192383D01*
X133115525Y-100272343D01*
X133787868Y-99600000D01*
X133773726Y-99585858D01*
X133985858Y-99373726D01*
X134000000Y-99387868D01*
X134014143Y-99373726D01*
X134226275Y-99585858D01*
X134212132Y-99600000D01*
X134884475Y-100272343D01*
X135070540Y-100192383D01*
X135215745Y-99737612D01*
X135175864Y-99261892D01*
X135070540Y-99007617D01*
X134884476Y-98927658D01*
X134969141Y-98842993D01*
X134926148Y-98800000D01*
X143073852Y-98800000D01*
X143030859Y-98842993D01*
X143115524Y-98927658D01*
X142929460Y-99007617D01*
X142784255Y-99462388D01*
X142824136Y-99938108D01*
X142929460Y-100192383D01*
X143115525Y-100272343D01*
X143787868Y-99600000D01*
X144212132Y-99600000D01*
X144884475Y-100272343D01*
X145070540Y-100192383D01*
X145215745Y-99737612D01*
X145175864Y-99261892D01*
X145070540Y-99007617D01*
X144884475Y-98927657D01*
X144212132Y-99600000D01*
X143787868Y-99600000D01*
X143773726Y-99585858D01*
X143985858Y-99373726D01*
X144000000Y-99387868D01*
X144641454Y-98746414D01*
X144824264Y-98624264D01*
X146824264Y-96624264D01*
X146954328Y-96429610D01*
X147000000Y-96200000D01*
X147000000Y-95008816D01*
X147166760Y-94977438D01*
X147319919Y-94878883D01*
X147422668Y-94728505D01*
X147458816Y-94550000D01*
X147458816Y-93650000D01*
X147427438Y-93483240D01*
X147328883Y-93330081D01*
X147178505Y-93227332D01*
X147000000Y-93191184D01*
X147000000Y-92408816D01*
X147166760Y-92377438D01*
X147319919Y-92278883D01*
X147422668Y-92128505D01*
X147458816Y-91950000D01*
X147458816Y-91050000D01*
X147427438Y-90883240D01*
X147328883Y-90730081D01*
X147178505Y-90627332D01*
X147000000Y-90591184D01*
X145800000Y-90591184D01*
X145633240Y-90622562D01*
X145480081Y-90721117D01*
X145377332Y-90871495D01*
X145341184Y-91050000D01*
X145341184Y-91950000D01*
X145372562Y-92116760D01*
X145471117Y-92269919D01*
X145621495Y-92372668D01*
X145800000Y-92408816D01*
X145800000Y-93191184D01*
X145633240Y-93222562D01*
X145480081Y-93321117D01*
X145377332Y-93471495D01*
X145341184Y-93650000D01*
X145341184Y-94550000D01*
X145372562Y-94716760D01*
X145471117Y-94869919D01*
X145621495Y-94972668D01*
X145800000Y-95008816D01*
X145800000Y-95951472D01*
X144151472Y-97600000D01*
X133624000Y-97600000D01*
X133394390Y-97645672D01*
X133199736Y-97775736D01*
X125199847Y-105775625D01*
X125200207Y-105362353D01*
X125017903Y-104921143D01*
X124697057Y-104599735D01*
X125016717Y-104280633D01*
X125199791Y-103839742D01*
X125200207Y-103362353D01*
X125017903Y-102921143D01*
X124697057Y-102599735D01*
X125016717Y-102280633D01*
X125199791Y-101839742D01*
X125200207Y-101362353D01*
X125017903Y-100921143D01*
X124680633Y-100583283D01*
X124637566Y-100565400D01*
X124672343Y-100484475D01*
X124000000Y-99812132D01*
X123985858Y-99826275D01*
X123773726Y-99614143D01*
X123787868Y-99600000D01*
X124212132Y-99600000D01*
X124884475Y-100272343D01*
X125070540Y-100192383D01*
X125215745Y-99737612D01*
X125175864Y-99261892D01*
X125070540Y-99007617D01*
X124884475Y-98927657D01*
X124212132Y-99600000D01*
X123787868Y-99600000D01*
X123773726Y-99585858D01*
X123985858Y-99373726D01*
X124000000Y-99387868D01*
X124672343Y-98715525D01*
X124592383Y-98529460D01*
X124261537Y-98423823D01*
X126094949Y-96590601D01*
X126094959Y-96590585D01*
X126094975Y-96590575D01*
X126171901Y-96475447D01*
X126246701Y-96363513D01*
X126246705Y-96363495D01*
X126246716Y-96363478D01*
X126259323Y-96300100D01*
X142605000Y-96300100D01*
X142605055Y-96300089D01*
X142605110Y-96300100D01*
X142737139Y-96273816D01*
X142872878Y-96246816D01*
X142872926Y-96246784D01*
X142872981Y-96246773D01*
X142986385Y-96170973D01*
X143099975Y-96095075D01*
X143100006Y-96095028D01*
X143100053Y-96094997D01*
X143735053Y-95459797D01*
X143811491Y-95345361D01*
X143886716Y-95232778D01*
X143886727Y-95232724D01*
X143886758Y-95232677D01*
X143913397Y-95098643D01*
X143940000Y-94964900D01*
X143940000Y-86226600D01*
X143913388Y-86092814D01*
X143886813Y-85958956D01*
X143886741Y-85958848D01*
X143886716Y-85958722D01*
X143811223Y-85845738D01*
X143735155Y-85731805D01*
X142909154Y-84905205D01*
X142909048Y-84905134D01*
X142908975Y-84905025D01*
X142799114Y-84831619D01*
X142919919Y-84753883D01*
X143022668Y-84603505D01*
X143058816Y-84425000D01*
X143058816Y-83175000D01*
X143027438Y-83008240D01*
X142928883Y-82855081D01*
X142778505Y-82752332D01*
X142600000Y-82716184D01*
X142550000Y-82716184D01*
X142550000Y-82550005D01*
X142550001Y-82550000D01*
X142549957Y-82549776D01*
X142550130Y-82351470D01*
X142436189Y-82075714D01*
X142225395Y-81864552D01*
X141949839Y-81750131D01*
X141651470Y-81749870D01*
X141375714Y-81863811D01*
X141164552Y-82074605D01*
X141050131Y-82350161D01*
X141049870Y-82648530D01*
X141079424Y-82720056D01*
X140933240Y-82747562D01*
X140780081Y-82846117D01*
X140677332Y-82996495D01*
X140641184Y-83175000D01*
X140641184Y-84050896D01*
X140558816Y-83968496D01*
X140558816Y-83175000D01*
X140527438Y-83008240D01*
X140428883Y-82855081D01*
X140278505Y-82752332D01*
X140100000Y-82716184D01*
X138600000Y-82716184D01*
X138433240Y-82747562D01*
X138280081Y-82846117D01*
X138177332Y-82996495D01*
X138156372Y-83100000D01*
X136344704Y-83100000D01*
X136327438Y-83008240D01*
X136228883Y-82855081D01*
X136078505Y-82752332D01*
X135900000Y-82716184D01*
X134400000Y-82716184D01*
X134233240Y-82747562D01*
X134080081Y-82846117D01*
X133977332Y-82996495D01*
X133941184Y-83175000D01*
X133941184Y-84117656D01*
X133858816Y-84035288D01*
X133858816Y-83175000D01*
X133827438Y-83008240D01*
X133728883Y-82855081D01*
X133578505Y-82752332D01*
X133400000Y-82716184D01*
X131900000Y-82716184D01*
X131733240Y-82747562D01*
X131580081Y-82846117D01*
X131477332Y-82996495D01*
X131441184Y-83175000D01*
X131441184Y-84367656D01*
X130399264Y-83325736D01*
X130204610Y-83195672D01*
X129983816Y-83151754D01*
X129983816Y-83000000D01*
X129952438Y-82833240D01*
X129853883Y-82680081D01*
X129703505Y-82577332D01*
X129525000Y-82541184D01*
X128275000Y-82541184D01*
X128108240Y-82572562D01*
X127955081Y-82671117D01*
X127852332Y-82821495D01*
X127816184Y-83000000D01*
X127816184Y-83867600D01*
X127274242Y-83325714D01*
X127172046Y-83257436D01*
X127083816Y-83198482D01*
X127083816Y-83000000D01*
X127052438Y-82833240D01*
X126953883Y-82680081D01*
X126803505Y-82577332D01*
X126625000Y-82541184D01*
X125375000Y-82541184D01*
X125208240Y-82572562D01*
X125055081Y-82671117D01*
X124952332Y-82821495D01*
X124916184Y-83000000D01*
X124916184Y-84500000D01*
X124947562Y-84666760D01*
X125046117Y-84819919D01*
X125196495Y-84922668D01*
X125375000Y-84958816D01*
X126625000Y-84958816D01*
X126791760Y-84927438D01*
X126944919Y-84828883D01*
X126999919Y-84748388D01*
X127214000Y-84962446D01*
X127214000Y-86740472D01*
X127083816Y-86610288D01*
X127083816Y-85500000D01*
X127052438Y-85333240D01*
X126953883Y-85180081D01*
X126803505Y-85077332D01*
X126625000Y-85041184D01*
X125375000Y-85041184D01*
X125208240Y-85072562D01*
X125055081Y-85171117D01*
X124952332Y-85321495D01*
X124916184Y-85500000D01*
X124916184Y-87000000D01*
X124947562Y-87166760D01*
X125046117Y-87319919D01*
X125196495Y-87422668D01*
X125375000Y-87458816D01*
X126235288Y-87458816D01*
X126325000Y-87548528D01*
X126325000Y-88690651D01*
X126236189Y-88475714D01*
X126025395Y-88264552D01*
X125749839Y-88150131D01*
X125451470Y-88149870D01*
X125175714Y-88263811D01*
X124964552Y-88474605D01*
X124850131Y-88750161D01*
X124849870Y-89048530D01*
X124950000Y-89290861D01*
X124950000Y-89316184D01*
X124900000Y-89316184D01*
X124733240Y-89347562D01*
X124580081Y-89446117D01*
X124477332Y-89596495D01*
X124441184Y-89775000D01*
X124441184Y-91025000D01*
X124472562Y-91191760D01*
X124571117Y-91344919D01*
X124721495Y-91447668D01*
X124900000Y-91483816D01*
X126400000Y-91483816D01*
X126566760Y-91452438D01*
X126589364Y-91437892D01*
X126849914Y-91698442D01*
X126849870Y-91748530D01*
X126963811Y-92024286D01*
X127174605Y-92235448D01*
X127450161Y-92349869D01*
X127748530Y-92350130D01*
X128024286Y-92236189D01*
X128209886Y-92050912D01*
X128296117Y-92184919D01*
X128316442Y-92198806D01*
X128305081Y-92206117D01*
X128202332Y-92356495D01*
X128166184Y-92535000D01*
X128166184Y-93135000D01*
X128197562Y-93301760D01*
X128296117Y-93454919D01*
X128316442Y-93468806D01*
X128305081Y-93476117D01*
X128202332Y-93626495D01*
X128166184Y-93805000D01*
X128166184Y-94405000D01*
X128197562Y-94571760D01*
X128296117Y-94724919D01*
X128446495Y-94827668D01*
X128625000Y-94863816D01*
X130175000Y-94863816D01*
X130341760Y-94832438D01*
X130494919Y-94733883D01*
X130514654Y-94705000D01*
X133683299Y-94705000D01*
X133696117Y-94724919D01*
X133846495Y-94827668D01*
X134025000Y-94863816D01*
X135575000Y-94863816D01*
X135741760Y-94832438D01*
X135894919Y-94733883D01*
X135997668Y-94583505D01*
X136033816Y-94405000D01*
X136033816Y-94194712D01*
X136699637Y-93528891D01*
X136750159Y-93549869D01*
X137048528Y-93550130D01*
X137324284Y-93436189D01*
X137535446Y-93225395D01*
X137649867Y-92949839D01*
X137650128Y-92651470D01*
X137549569Y-92408101D01*
X138284647Y-93143179D01*
X138280081Y-93146117D01*
X138177332Y-93296495D01*
X138141184Y-93475000D01*
X138141184Y-94725000D01*
X138172562Y-94891760D01*
X138177929Y-94900100D01*
X126648096Y-94900100D01*
X126719919Y-94853883D01*
X126822668Y-94703505D01*
X126858816Y-94525000D01*
X126858816Y-93275000D01*
X126827438Y-93108240D01*
X126728883Y-92955081D01*
X126578505Y-92852332D01*
X126400000Y-92816184D01*
X124900000Y-92816184D01*
X124733240Y-92847562D01*
X124580081Y-92946117D01*
X124477332Y-93096495D01*
X124441184Y-93275000D01*
X124441184Y-94525000D01*
X124472562Y-94691760D01*
X124571117Y-94844919D01*
X124721495Y-94947668D01*
X124900000Y-94983816D01*
X124900000Y-95500000D01*
X124919882Y-95599955D01*
X124900000Y-95699650D01*
X124900035Y-95699825D01*
X124900000Y-95700000D01*
X124900000Y-95805630D01*
X122204051Y-98501300D01*
X122204042Y-98501314D01*
X122204025Y-98501325D01*
X122125742Y-98618484D01*
X122052298Y-98728388D01*
X122052294Y-98728407D01*
X122052284Y-98728422D01*
X122025508Y-98863035D01*
X121999000Y-98996264D01*
X121999004Y-98996282D01*
X121999000Y-98996300D01*
X121999000Y-108584000D01*
X122052284Y-108851879D01*
X122204025Y-109078975D01*
X123220034Y-110094983D01*
X123220036Y-110094986D01*
X123333584Y-110170856D01*
X123447132Y-110246727D01*
X123715011Y-110300012D01*
X123715016Y-110300011D01*
X163759989Y-110300011D01*
X164027868Y-110246727D01*
X164254964Y-110094986D01*
X165471991Y-108877959D01*
X165831603Y-108949490D01*
X165888397Y-108949490D01*
X166443093Y-108839154D01*
X166913341Y-108524944D01*
X166941694Y-108482511D01*
X166941694Y-108499490D01*
X166973072Y-108666250D01*
X167071627Y-108819409D01*
X167222005Y-108922158D01*
X167400510Y-108958306D01*
X169399490Y-108958306D01*
X169566250Y-108926928D01*
X169719409Y-108828373D01*
X169822158Y-108677995D01*
X169858306Y-108499490D01*
X169858306Y-108200000D01*
X170849538Y-108200000D01*
X171066659Y-108524944D01*
X171536907Y-108839154D01*
X172091603Y-108949490D01*
X172148397Y-108949490D01*
X172703093Y-108839154D01*
X173173341Y-108524944D01*
X173390000Y-108200691D01*
X173606659Y-108524944D01*
X174076907Y-108839154D01*
X174631603Y-108949490D01*
X174688397Y-108949490D01*
X175243093Y-108839154D01*
X175713341Y-108524944D01*
X175741694Y-108482511D01*
X175741694Y-108499490D01*
X175773072Y-108666250D01*
X175871627Y-108819409D01*
X176022005Y-108922158D01*
X176200510Y-108958306D01*
X178199490Y-108958306D01*
X178366250Y-108926928D01*
X178475000Y-108856949D01*
X178475000Y-110475000D01*
X119525000Y-110475000D01*
X119525000Y-94162500D01*
X121950000Y-94162500D01*
X121950000Y-94614510D01*
X122018508Y-94779904D01*
X122145095Y-94906491D01*
X122310489Y-94975000D01*
X122887500Y-94975000D01*
X123000000Y-94862500D01*
X123000000Y-94050000D01*
X123300000Y-94050000D01*
X123300000Y-94862500D01*
X123412500Y-94975000D01*
X123989511Y-94975000D01*
X124154905Y-94906491D01*
X124281492Y-94779904D01*
X124350000Y-94614510D01*
X124350000Y-94162500D01*
X124237500Y-94050000D01*
X123300000Y-94050000D01*
X123000000Y-94050000D01*
X122062500Y-94050000D01*
X121950000Y-94162500D01*
X119525000Y-94162500D01*
X119525000Y-93185490D01*
X121950000Y-93185490D01*
X121950000Y-93637500D01*
X122062500Y-93750000D01*
X123000000Y-93750000D01*
X123000000Y-92937500D01*
X123300000Y-92937500D01*
X123300000Y-93750000D01*
X124237500Y-93750000D01*
X124350000Y-93637500D01*
X124350000Y-93185490D01*
X124281492Y-93020096D01*
X124154905Y-92893509D01*
X123989511Y-92825000D01*
X123412500Y-92825000D01*
X123300000Y-92937500D01*
X123000000Y-92937500D01*
X122887500Y-92825000D01*
X122310489Y-92825000D01*
X122145095Y-92893509D01*
X122018508Y-93020096D01*
X121950000Y-93185490D01*
X119525000Y-93185490D01*
X119525000Y-90662500D01*
X121950000Y-90662500D01*
X121950000Y-91114510D01*
X122018508Y-91279904D01*
X122145095Y-91406491D01*
X122310489Y-91475000D01*
X122887500Y-91475000D01*
X123000000Y-91362500D01*
X123000000Y-90550000D01*
X123300000Y-90550000D01*
X123300000Y-91362500D01*
X123412500Y-91475000D01*
X123989511Y-91475000D01*
X124154905Y-91406491D01*
X124281492Y-91279904D01*
X124350000Y-91114510D01*
X124350000Y-90662500D01*
X124237500Y-90550000D01*
X123300000Y-90550000D01*
X123000000Y-90550000D01*
X122062500Y-90550000D01*
X121950000Y-90662500D01*
X119525000Y-90662500D01*
X119525000Y-89685490D01*
X121950000Y-89685490D01*
X121950000Y-90137500D01*
X122062500Y-90250000D01*
X123000000Y-90250000D01*
X123000000Y-89437500D01*
X123300000Y-89437500D01*
X123300000Y-90250000D01*
X124237500Y-90250000D01*
X124350000Y-90137500D01*
X124350000Y-89685490D01*
X124281492Y-89520096D01*
X124154905Y-89393509D01*
X123989511Y-89325000D01*
X123412500Y-89325000D01*
X123300000Y-89437500D01*
X123000000Y-89437500D01*
X122887500Y-89325000D01*
X122310489Y-89325000D01*
X122145095Y-89393509D01*
X122018508Y-89520096D01*
X121950000Y-89685490D01*
X119525000Y-89685490D01*
X119525000Y-85500000D01*
X122016184Y-85500000D01*
X122016184Y-87000000D01*
X122047562Y-87166760D01*
X122146117Y-87319919D01*
X122296495Y-87422668D01*
X122394804Y-87442576D01*
X122350131Y-87550161D01*
X122349870Y-87848530D01*
X122463811Y-88124286D01*
X122674605Y-88335448D01*
X122950161Y-88449869D01*
X123248530Y-88450130D01*
X123524286Y-88336189D01*
X123735448Y-88125395D01*
X123849869Y-87849839D01*
X123850130Y-87551470D01*
X123805581Y-87443654D01*
X123891760Y-87427438D01*
X124044919Y-87328883D01*
X124147668Y-87178505D01*
X124183816Y-87000000D01*
X124183816Y-85500000D01*
X124152438Y-85333240D01*
X124053883Y-85180081D01*
X123903505Y-85077332D01*
X123725000Y-85041184D01*
X122475000Y-85041184D01*
X122308240Y-85072562D01*
X122155081Y-85171117D01*
X122052332Y-85321495D01*
X122016184Y-85500000D01*
X119525000Y-85500000D01*
X119525000Y-83000000D01*
X122016184Y-83000000D01*
X122016184Y-84500000D01*
X122047562Y-84666760D01*
X122146117Y-84819919D01*
X122296495Y-84922668D01*
X122475000Y-84958816D01*
X123725000Y-84958816D01*
X123891760Y-84927438D01*
X124044919Y-84828883D01*
X124147668Y-84678505D01*
X124183816Y-84500000D01*
X124183816Y-83000000D01*
X124152438Y-82833240D01*
X124053883Y-82680081D01*
X123903505Y-82577332D01*
X123843499Y-82565180D01*
X123849869Y-82549839D01*
X123850130Y-82251470D01*
X123736189Y-81975714D01*
X123525395Y-81764552D01*
X123249839Y-81650131D01*
X122951470Y-81649870D01*
X122675714Y-81763811D01*
X122464552Y-81974605D01*
X122350131Y-82250161D01*
X122349870Y-82548530D01*
X122356080Y-82563560D01*
X122308240Y-82572562D01*
X122155081Y-82671117D01*
X122052332Y-82821495D01*
X122016184Y-83000000D01*
X119525000Y-83000000D01*
X119525000Y-81525000D01*
X178475000Y-81525000D01*
X178475000Y-106144123D01*
X178475000Y-106144123D01*
G37*
X178475000Y-106144123D02*
X178377995Y-106077842D01*
X178199490Y-106041694D01*
X176200510Y-106041694D01*
X176033750Y-106073072D01*
X175880591Y-106171627D01*
X175777842Y-106322005D01*
X175741694Y-106500510D01*
X175741694Y-106517489D01*
X175713341Y-106475056D01*
X175243093Y-106160846D01*
X174688397Y-106050510D01*
X174631603Y-106050510D01*
X174076907Y-106160846D01*
X173606659Y-106475056D01*
X173390000Y-106799309D01*
X173173341Y-106475056D01*
X172703093Y-106160846D01*
X172148397Y-106050510D01*
X172091603Y-106050510D01*
X171536907Y-106160846D01*
X171066659Y-106475056D01*
X170849538Y-106800000D01*
X169858306Y-106800000D01*
X169858306Y-106500510D01*
X169826928Y-106333750D01*
X169728373Y-106180591D01*
X169577995Y-106077842D01*
X169399490Y-106041694D01*
X167400510Y-106041694D01*
X167233750Y-106073072D01*
X167080591Y-106171627D01*
X166977842Y-106322005D01*
X166941694Y-106500510D01*
X166941694Y-106517489D01*
X166913341Y-106475056D01*
X166443093Y-106160846D01*
X165888397Y-106050510D01*
X165831603Y-106050510D01*
X165276907Y-106160846D01*
X164806659Y-106475056D01*
X164492449Y-106945304D01*
X164382113Y-107500000D01*
X164463067Y-107906983D01*
X163470039Y-108900011D01*
X154848517Y-108900011D01*
X157114712Y-106633816D01*
X158075000Y-106633816D01*
X158241760Y-106602438D01*
X158394919Y-106503883D01*
X158497668Y-106353505D01*
X158533816Y-106175000D01*
X158533816Y-104825000D01*
X158502438Y-104658240D01*
X158403883Y-104505081D01*
X158253505Y-104402332D01*
X158116305Y-104374548D01*
X158353172Y-104138093D01*
X158524804Y-103724758D01*
X158525195Y-103277205D01*
X158354285Y-102863571D01*
X158038093Y-102546828D01*
X157624758Y-102375196D01*
X157177205Y-102374805D01*
X156763571Y-102545715D01*
X156446828Y-102861907D01*
X156431010Y-102900000D01*
X156369337Y-102900000D01*
X156354285Y-102863571D01*
X156038093Y-102546828D01*
X155624758Y-102375196D01*
X155177205Y-102374805D01*
X154763571Y-102545715D01*
X154446828Y-102861907D01*
X154275196Y-103275242D01*
X154274805Y-103722795D01*
X154445715Y-104136429D01*
X154761907Y-104453172D01*
X154874446Y-104499902D01*
X154763571Y-104545715D01*
X154446828Y-104861907D01*
X154389487Y-105000000D01*
X145050486Y-105000000D01*
X145017903Y-104921143D01*
X144697057Y-104599735D01*
X145016717Y-104280633D01*
X145199791Y-103839742D01*
X145200183Y-103389796D01*
X151769965Y-96820285D01*
X151769969Y-96820279D01*
X151769975Y-96820275D01*
X151850340Y-96700000D01*
X151921710Y-96593192D01*
X151921711Y-96593185D01*
X151921716Y-96593178D01*
X151946188Y-96470150D01*
X151975001Y-96325314D01*
X151974999Y-96325304D01*
X151975000Y-96325300D01*
X151975000Y-95222572D01*
X152121495Y-95322668D01*
X152300000Y-95358816D01*
X154300000Y-95358816D01*
X154466760Y-95327438D01*
X154619919Y-95228883D01*
X154722668Y-95078505D01*
X154758816Y-94900000D01*
X154758816Y-93300000D01*
X154727438Y-93133240D01*
X154628883Y-92980081D01*
X154478505Y-92877332D01*
X154300000Y-92841184D01*
X154157044Y-92841184D01*
X154424264Y-92573964D01*
X154554328Y-92379311D01*
X154600000Y-92149700D01*
X154600000Y-89235000D01*
X154554328Y-89005390D01*
X154424264Y-88810736D01*
X154229610Y-88680672D01*
X154000000Y-88635000D01*
X153716701Y-88635000D01*
X153703883Y-88615081D01*
X153683558Y-88601194D01*
X153694919Y-88593883D01*
X153797668Y-88443505D01*
X153833816Y-88265000D01*
X153833816Y-87665000D01*
X153802438Y-87498240D01*
X153703883Y-87345081D01*
X153683558Y-87331194D01*
X153694919Y-87323883D01*
X153714654Y-87295000D01*
X153825000Y-87295000D01*
X154054610Y-87249328D01*
X154249264Y-87119264D01*
X154379328Y-86924610D01*
X154425000Y-86695000D01*
X154425000Y-85123669D01*
X154624094Y-84924734D01*
X154624162Y-84924632D01*
X154624264Y-84924564D01*
X154689207Y-84827370D01*
X154754236Y-84730132D01*
X154754260Y-84730012D01*
X154754328Y-84729910D01*
X154777143Y-84615212D01*
X154798350Y-84508816D01*
X154800000Y-84508816D01*
X154966760Y-84477438D01*
X155119919Y-84378883D01*
X155222668Y-84228505D01*
X155258816Y-84050000D01*
X155258816Y-83150000D01*
X155341184Y-83150000D01*
X155341184Y-84050000D01*
X155372562Y-84216760D01*
X155471117Y-84369919D01*
X155621495Y-84472668D01*
X155800000Y-84508816D01*
X155801694Y-84508816D01*
X155845672Y-84729910D01*
X155975736Y-84924564D01*
X156100000Y-85048828D01*
X156100000Y-89235000D01*
X156145672Y-89464610D01*
X156275736Y-89659264D01*
X156470390Y-89789328D01*
X156700000Y-89835000D01*
X156883299Y-89835000D01*
X156896117Y-89854919D01*
X156916442Y-89868806D01*
X156905081Y-89876117D01*
X156802332Y-90026495D01*
X156766184Y-90205000D01*
X156766184Y-90805000D01*
X156797562Y-90971760D01*
X156896117Y-91124919D01*
X157046495Y-91227668D01*
X157225000Y-91263816D01*
X157300000Y-91263816D01*
X157300000Y-91510050D01*
X157295900Y-91514151D01*
X157175714Y-91563811D01*
X156964552Y-91774605D01*
X156914211Y-91895839D01*
X156805025Y-92005025D01*
X156653284Y-92232121D01*
X156610599Y-92446716D01*
X156600000Y-92500000D01*
X156600000Y-92841184D01*
X156300000Y-92841184D01*
X156133240Y-92872562D01*
X155980081Y-92971117D01*
X155877332Y-93121495D01*
X155841184Y-93300000D01*
X155841184Y-94900000D01*
X155872562Y-95066760D01*
X155971117Y-95219919D01*
X156121495Y-95322668D01*
X156300000Y-95358816D01*
X158300000Y-95358816D01*
X158466760Y-95327438D01*
X158619919Y-95228883D01*
X158722668Y-95078505D01*
X158758816Y-94900000D01*
X158758816Y-93300000D01*
X158727438Y-93133240D01*
X158628883Y-92980081D01*
X158478505Y-92877332D01*
X158300000Y-92841184D01*
X158012197Y-92841184D01*
X158024286Y-92836189D01*
X158235448Y-92625395D01*
X158285789Y-92504160D01*
X158494972Y-92294977D01*
X158494975Y-92294975D01*
X158646716Y-92067878D01*
X158700000Y-91800000D01*
X158700000Y-91263816D01*
X158775000Y-91263816D01*
X158941760Y-91232438D01*
X158945957Y-91229737D01*
X159075736Y-91423964D01*
X160897398Y-93245626D01*
X160780081Y-93321117D01*
X160677332Y-93471495D01*
X160641184Y-93650000D01*
X160641184Y-94550000D01*
X160672562Y-94716760D01*
X160771117Y-94869919D01*
X160921495Y-94972668D01*
X161100000Y-95008816D01*
X161100000Y-95791184D01*
X160933240Y-95822562D01*
X160780081Y-95921117D01*
X160677332Y-96071495D01*
X160641184Y-96250000D01*
X160641184Y-97150000D01*
X160672562Y-97316760D01*
X160771117Y-97469919D01*
X160921495Y-97572668D01*
X161100000Y-97608816D01*
X162300000Y-97608816D01*
X162466760Y-97577438D01*
X162619919Y-97478883D01*
X162722668Y-97328505D01*
X162758816Y-97150000D01*
X162758816Y-96250000D01*
X162727438Y-96083240D01*
X162628883Y-95930081D01*
X162478505Y-95827332D01*
X162300000Y-95791184D01*
X162300000Y-95008816D01*
X162466760Y-94977438D01*
X162619919Y-94878883D01*
X162722668Y-94728505D01*
X162758816Y-94550000D01*
X162758816Y-93700000D01*
X162841184Y-93700000D01*
X162841184Y-94550000D01*
X162872562Y-94716760D01*
X162971117Y-94869919D01*
X163121495Y-94972668D01*
X163300000Y-95008816D01*
X163842356Y-95008816D01*
X163475736Y-95375436D01*
X163345672Y-95570090D01*
X163301694Y-95791184D01*
X163300000Y-95791184D01*
X163133240Y-95822562D01*
X162980081Y-95921117D01*
X162877332Y-96071495D01*
X162841184Y-96250000D01*
X162841184Y-97150000D01*
X162872562Y-97316760D01*
X162971117Y-97469919D01*
X163121495Y-97572668D01*
X163300000Y-97608816D01*
X164500000Y-97608816D01*
X164666760Y-97577438D01*
X164819919Y-97478883D01*
X164922668Y-97328505D01*
X164958816Y-97150000D01*
X164958816Y-96250000D01*
X164927438Y-96083240D01*
X164828883Y-95930081D01*
X164703689Y-95844539D01*
X169050001Y-91498227D01*
X169049766Y-91767353D01*
X169254858Y-92263715D01*
X169634288Y-92643807D01*
X169890045Y-92750007D01*
X169636285Y-92854858D01*
X169256193Y-93234288D01*
X169050235Y-93730290D01*
X169049766Y-94267353D01*
X169254858Y-94763715D01*
X169634288Y-95143807D01*
X170130290Y-95349765D01*
X170667353Y-95350234D01*
X171163715Y-95145142D01*
X171543807Y-94765712D01*
X171650007Y-94509955D01*
X171754858Y-94763715D01*
X172134288Y-95143807D01*
X172630290Y-95349765D01*
X173167353Y-95350234D01*
X173663715Y-95145142D01*
X174043807Y-94765712D01*
X174150007Y-94509955D01*
X174254858Y-94763715D01*
X174634288Y-95143807D01*
X175130290Y-95349765D01*
X175667353Y-95350234D01*
X176163715Y-95145142D01*
X176543807Y-94765712D01*
X176749765Y-94269710D01*
X176750234Y-93732647D01*
X176545142Y-93236285D01*
X176165712Y-92856193D01*
X175909955Y-92749993D01*
X176163715Y-92645142D01*
X176543807Y-92265712D01*
X176749765Y-91769710D01*
X176750234Y-91232647D01*
X176545142Y-90736285D01*
X176165712Y-90356193D01*
X175669710Y-90150235D01*
X175132647Y-90149766D01*
X174636285Y-90354858D01*
X174256193Y-90734288D01*
X174149993Y-90990045D01*
X174045142Y-90736285D01*
X173665712Y-90356193D01*
X173169710Y-90150235D01*
X172632647Y-90149766D01*
X172136285Y-90354858D01*
X171756193Y-90734288D01*
X171649993Y-90990045D01*
X171545142Y-90736285D01*
X171165712Y-90356193D01*
X170669710Y-90150235D01*
X170398230Y-90149998D01*
X172698404Y-87849824D01*
X173167353Y-87850234D01*
X173663715Y-87645142D01*
X174043807Y-87265712D01*
X174150007Y-87009955D01*
X174254858Y-87263715D01*
X174634288Y-87643807D01*
X175130290Y-87849765D01*
X175667353Y-87850234D01*
X176163715Y-87645142D01*
X176543807Y-87265712D01*
X176749765Y-86769710D01*
X176750234Y-86232647D01*
X176545142Y-85736285D01*
X176165712Y-85356193D01*
X175909955Y-85249993D01*
X176163715Y-85145142D01*
X176543807Y-84765712D01*
X176749765Y-84269710D01*
X176750234Y-83732647D01*
X176545142Y-83236285D01*
X176165712Y-82856193D01*
X175669710Y-82650235D01*
X175132647Y-82649766D01*
X174636285Y-82854858D01*
X174256193Y-83234288D01*
X174149993Y-83490045D01*
X174045142Y-83236285D01*
X173665712Y-82856193D01*
X173169710Y-82650235D01*
X172632647Y-82649766D01*
X172466814Y-82718286D01*
X171957164Y-82208636D01*
X171762510Y-82078572D01*
X171532900Y-82032900D01*
X169848800Y-82032900D01*
X169619190Y-82078572D01*
X169424536Y-82208636D01*
X168375736Y-83257436D01*
X168245672Y-83452090D01*
X168200000Y-83681700D01*
X168200000Y-86151472D01*
X167624264Y-85575736D01*
X167508816Y-85498596D01*
X167508816Y-85400000D01*
X167477438Y-85233240D01*
X167378883Y-85080081D01*
X167228505Y-84977332D01*
X167050000Y-84941184D01*
X166150000Y-84941184D01*
X165983240Y-84972562D01*
X165830081Y-85071117D01*
X165727332Y-85221495D01*
X165691184Y-85400000D01*
X165408316Y-85400000D01*
X165408316Y-85349430D01*
X165376938Y-85182670D01*
X165278383Y-85029511D01*
X165128005Y-84926762D01*
X164949500Y-84890614D01*
X163508658Y-84890614D01*
X163990380Y-84408816D01*
X164600000Y-84408816D01*
X164766760Y-84377438D01*
X164919919Y-84278883D01*
X165022668Y-84128505D01*
X165058816Y-83950000D01*
X165058816Y-83050000D01*
X165027438Y-82883240D01*
X164928883Y-82730081D01*
X164778505Y-82627332D01*
X164600000Y-82591184D01*
X163400000Y-82591184D01*
X163233240Y-82622562D01*
X163080081Y-82721117D01*
X162977332Y-82871495D01*
X162941184Y-83050000D01*
X162941184Y-83760987D01*
X162858816Y-83843368D01*
X162858816Y-83050000D01*
X162827438Y-82883240D01*
X162728883Y-82730081D01*
X162578505Y-82627332D01*
X162400000Y-82591184D01*
X161200000Y-82591184D01*
X161033240Y-82622562D01*
X160880081Y-82721117D01*
X160777332Y-82871495D01*
X160766169Y-82926621D01*
X160670390Y-82945672D01*
X160475736Y-83075736D01*
X159075736Y-84475736D01*
X158945672Y-84670390D01*
X158900000Y-84900000D01*
X158900000Y-85959700D01*
X158864511Y-85945000D01*
X158262500Y-85945000D01*
X158150000Y-86057500D01*
X158150000Y-86545000D01*
X158170000Y-86545000D01*
X158170000Y-86845000D01*
X158150000Y-86845000D01*
X158150000Y-86865000D01*
X157850000Y-86865000D01*
X157850000Y-86845000D01*
X157830000Y-86845000D01*
X157830000Y-86545000D01*
X157850000Y-86545000D01*
X157850000Y-86057500D01*
X157737500Y-85945000D01*
X157300000Y-85945000D01*
X157300000Y-84800300D01*
X157254328Y-84570690D01*
X157184424Y-84466072D01*
X157319919Y-84378883D01*
X157422668Y-84228505D01*
X157458816Y-84050000D01*
X157458816Y-83150000D01*
X157427438Y-82983240D01*
X157328883Y-82830081D01*
X157178505Y-82727332D01*
X157000000Y-82691184D01*
X155800000Y-82691184D01*
X155633240Y-82722562D01*
X155480081Y-82821117D01*
X155377332Y-82971495D01*
X155341184Y-83150000D01*
X155258816Y-83150000D01*
X155227438Y-82983240D01*
X155128883Y-82830081D01*
X154978505Y-82727332D01*
X154800000Y-82691184D01*
X153600000Y-82691184D01*
X153433240Y-82722562D01*
X153280081Y-82821117D01*
X153177332Y-82971495D01*
X153141184Y-83150000D01*
X153141184Y-84050000D01*
X153172562Y-84216760D01*
X153271117Y-84369919D01*
X153397182Y-84456055D01*
X153335793Y-84547930D01*
X153270764Y-84645168D01*
X153270740Y-84645288D01*
X153270672Y-84645390D01*
X153247857Y-84760088D01*
X153225000Y-84874760D01*
X153225024Y-84874880D01*
X153225000Y-84875000D01*
X153225000Y-85936184D01*
X151825000Y-85936184D01*
X151658240Y-85967562D01*
X151505081Y-86066117D01*
X151485346Y-86095000D01*
X147705000Y-86095000D01*
X147592496Y-86117378D01*
X147475454Y-86140645D01*
X147475424Y-86140665D01*
X147475390Y-86140672D01*
X147379626Y-86204660D01*
X147280785Y-86270687D01*
X145975785Y-87575387D01*
X145975765Y-87575416D01*
X145975736Y-87575436D01*
X145909735Y-87674213D01*
X145845699Y-87770026D01*
X145845692Y-87770060D01*
X145845672Y-87770090D01*
X145822405Y-87887063D01*
X145801681Y-87991184D01*
X145800000Y-87991184D01*
X145633240Y-88022562D01*
X145480081Y-88121117D01*
X145377332Y-88271495D01*
X145341184Y-88450000D01*
X145341184Y-89350000D01*
X145372562Y-89516760D01*
X145471117Y-89669919D01*
X145621495Y-89772668D01*
X145800000Y-89808816D01*
X147000000Y-89808816D01*
X147166760Y-89777438D01*
X147319919Y-89678883D01*
X147422668Y-89528505D01*
X147458816Y-89350000D01*
X147458816Y-88450000D01*
X147427438Y-88283240D01*
X147328883Y-88130081D01*
X147203741Y-88044575D01*
X147953488Y-87295000D01*
X151483299Y-87295000D01*
X151496117Y-87314919D01*
X151516442Y-87328806D01*
X151505081Y-87336117D01*
X151485346Y-87365000D01*
X151375000Y-87365000D01*
X151261363Y-87387604D01*
X151199152Y-87399700D01*
X148600000Y-87399700D01*
X148370390Y-87445372D01*
X148175736Y-87575436D01*
X148045672Y-87770090D01*
X148001694Y-87991184D01*
X148000000Y-87991184D01*
X147833240Y-88022562D01*
X147680081Y-88121117D01*
X147577332Y-88271495D01*
X147541184Y-88450000D01*
X147541184Y-89350000D01*
X147572562Y-89516760D01*
X147671117Y-89669919D01*
X147821495Y-89772668D01*
X148000000Y-89808816D01*
X148000000Y-90591184D01*
X147833240Y-90622562D01*
X147680081Y-90721117D01*
X147577332Y-90871495D01*
X147541184Y-91050000D01*
X147541184Y-91950000D01*
X147572562Y-92116760D01*
X147671117Y-92269919D01*
X147821495Y-92372668D01*
X148000000Y-92408816D01*
X148542446Y-92408816D01*
X148175788Y-92775384D01*
X148175767Y-92775415D01*
X148175736Y-92775436D01*
X148112290Y-92870390D01*
X148045700Y-92970022D01*
X148045693Y-92970059D01*
X148045672Y-92970090D01*
X148023947Y-93079310D01*
X148001680Y-93191184D01*
X148000000Y-93191184D01*
X147833240Y-93222562D01*
X147680081Y-93321117D01*
X147577332Y-93471495D01*
X147541184Y-93650000D01*
X147541184Y-94550000D01*
X147572562Y-94716760D01*
X147671117Y-94869919D01*
X147821495Y-94972668D01*
X148000000Y-95008816D01*
X149200000Y-95008816D01*
X149366760Y-94977438D01*
X149519919Y-94878883D01*
X149622668Y-94728505D01*
X149658816Y-94550000D01*
X149658816Y-93650000D01*
X149627438Y-93483240D01*
X149528883Y-93330081D01*
X149403744Y-93244577D01*
X150575000Y-92073609D01*
X150575000Y-96035343D01*
X145200166Y-101409955D01*
X145200207Y-101362353D01*
X145017903Y-100921143D01*
X144680633Y-100583283D01*
X144637566Y-100565400D01*
X144672343Y-100484475D01*
X144000000Y-99812132D01*
X143327657Y-100484475D01*
X143362301Y-100565091D01*
X143321143Y-100582097D01*
X142983283Y-100919367D01*
X142800209Y-101360258D01*
X142799793Y-101837647D01*
X142982097Y-102278857D01*
X143302943Y-102600265D01*
X143002684Y-102900000D01*
X134996797Y-102900000D01*
X134697057Y-102599735D01*
X135016717Y-102280633D01*
X135199791Y-101839742D01*
X135200207Y-101362353D01*
X135017903Y-100921143D01*
X134680633Y-100583283D01*
X134637566Y-100565400D01*
X134672343Y-100484475D01*
X134000000Y-99812132D01*
X133327657Y-100484475D01*
X133362301Y-100565091D01*
X133321143Y-100582097D01*
X132983283Y-100919367D01*
X132800209Y-101360258D01*
X132799793Y-101837647D01*
X132982097Y-102278857D01*
X133302943Y-102600265D01*
X132983283Y-102919367D01*
X132800209Y-103360258D01*
X132799793Y-103837647D01*
X132982097Y-104278857D01*
X133302943Y-104600265D01*
X132983283Y-104919367D01*
X132800209Y-105360258D01*
X132799793Y-105837647D01*
X132982097Y-106278857D01*
X133118860Y-106415860D01*
X133083240Y-106422562D01*
X132930081Y-106521117D01*
X132827332Y-106671495D01*
X132791184Y-106850000D01*
X132791184Y-108350000D01*
X132822562Y-108516760D01*
X132921117Y-108669919D01*
X133071495Y-108772668D01*
X133250000Y-108808816D01*
X134750000Y-108808816D01*
X134916760Y-108777438D01*
X135069919Y-108678883D01*
X135172668Y-108528505D01*
X135208816Y-108350000D01*
X135208816Y-106850000D01*
X135177438Y-106683240D01*
X135078883Y-106530081D01*
X134928505Y-106427332D01*
X134879668Y-106417442D01*
X135016717Y-106280633D01*
X135050199Y-106200000D01*
X136817472Y-106200000D01*
X139517483Y-108900011D01*
X124004960Y-108900011D01*
X123913765Y-108808816D01*
X124750000Y-108808816D01*
X124916760Y-108777438D01*
X125069919Y-108678883D01*
X125172668Y-108528505D01*
X125208816Y-108350000D01*
X125208816Y-108198246D01*
X125429610Y-108154328D01*
X125624264Y-108024264D01*
X126024264Y-107624264D01*
X126154328Y-107429611D01*
X126200000Y-107200000D01*
X126200000Y-106472528D01*
X132817197Y-99855331D01*
X132824136Y-99938108D01*
X132929460Y-100192383D01*
X133115525Y-100272343D01*
X133787868Y-99600000D01*
X133773726Y-99585858D01*
X133985858Y-99373726D01*
X134000000Y-99387868D01*
X134014143Y-99373726D01*
X134226275Y-99585858D01*
X134212132Y-99600000D01*
X134884475Y-100272343D01*
X135070540Y-100192383D01*
X135215745Y-99737612D01*
X135175864Y-99261892D01*
X135070540Y-99007617D01*
X134884476Y-98927658D01*
X134969141Y-98842993D01*
X134926148Y-98800000D01*
X143073852Y-98800000D01*
X143030859Y-98842993D01*
X143115524Y-98927658D01*
X142929460Y-99007617D01*
X142784255Y-99462388D01*
X142824136Y-99938108D01*
X142929460Y-100192383D01*
X143115525Y-100272343D01*
X143787868Y-99600000D01*
X144212132Y-99600000D01*
X144884475Y-100272343D01*
X145070540Y-100192383D01*
X145215745Y-99737612D01*
X145175864Y-99261892D01*
X145070540Y-99007617D01*
X144884475Y-98927657D01*
X144212132Y-99600000D01*
X143787868Y-99600000D01*
X143773726Y-99585858D01*
X143985858Y-99373726D01*
X144000000Y-99387868D01*
X144641454Y-98746414D01*
X144824264Y-98624264D01*
X146824264Y-96624264D01*
X146954328Y-96429610D01*
X147000000Y-96200000D01*
X147000000Y-95008816D01*
X147166760Y-94977438D01*
X147319919Y-94878883D01*
X147422668Y-94728505D01*
X147458816Y-94550000D01*
X147458816Y-93650000D01*
X147427438Y-93483240D01*
X147328883Y-93330081D01*
X147178505Y-93227332D01*
X147000000Y-93191184D01*
X147000000Y-92408816D01*
X147166760Y-92377438D01*
X147319919Y-92278883D01*
X147422668Y-92128505D01*
X147458816Y-91950000D01*
X147458816Y-91050000D01*
X147427438Y-90883240D01*
X147328883Y-90730081D01*
X147178505Y-90627332D01*
X147000000Y-90591184D01*
X145800000Y-90591184D01*
X145633240Y-90622562D01*
X145480081Y-90721117D01*
X145377332Y-90871495D01*
X145341184Y-91050000D01*
X145341184Y-91950000D01*
X145372562Y-92116760D01*
X145471117Y-92269919D01*
X145621495Y-92372668D01*
X145800000Y-92408816D01*
X145800000Y-93191184D01*
X145633240Y-93222562D01*
X145480081Y-93321117D01*
X145377332Y-93471495D01*
X145341184Y-93650000D01*
X145341184Y-94550000D01*
X145372562Y-94716760D01*
X145471117Y-94869919D01*
X145621495Y-94972668D01*
X145800000Y-95008816D01*
X145800000Y-95951472D01*
X144151472Y-97600000D01*
X133624000Y-97600000D01*
X133394390Y-97645672D01*
X133199736Y-97775736D01*
X125199847Y-105775625D01*
X125200207Y-105362353D01*
X125017903Y-104921143D01*
X124697057Y-104599735D01*
X125016717Y-104280633D01*
X125199791Y-103839742D01*
X125200207Y-103362353D01*
X125017903Y-102921143D01*
X124697057Y-102599735D01*
X125016717Y-102280633D01*
X125199791Y-101839742D01*
X125200207Y-101362353D01*
X125017903Y-100921143D01*
X124680633Y-100583283D01*
X124637566Y-100565400D01*
X124672343Y-100484475D01*
X124000000Y-99812132D01*
X123985858Y-99826275D01*
X123773726Y-99614143D01*
X123787868Y-99600000D01*
X124212132Y-99600000D01*
X124884475Y-100272343D01*
X125070540Y-100192383D01*
X125215745Y-99737612D01*
X125175864Y-99261892D01*
X125070540Y-99007617D01*
X124884475Y-98927657D01*
X124212132Y-99600000D01*
X123787868Y-99600000D01*
X123773726Y-99585858D01*
X123985858Y-99373726D01*
X124000000Y-99387868D01*
X124672343Y-98715525D01*
X124592383Y-98529460D01*
X124261537Y-98423823D01*
X126094949Y-96590601D01*
X126094959Y-96590585D01*
X126094975Y-96590575D01*
X126171901Y-96475447D01*
X126246701Y-96363513D01*
X126246705Y-96363495D01*
X126246716Y-96363478D01*
X126259323Y-96300100D01*
X142605000Y-96300100D01*
X142605055Y-96300089D01*
X142605110Y-96300100D01*
X142737139Y-96273816D01*
X142872878Y-96246816D01*
X142872926Y-96246784D01*
X142872981Y-96246773D01*
X142986385Y-96170973D01*
X143099975Y-96095075D01*
X143100006Y-96095028D01*
X143100053Y-96094997D01*
X143735053Y-95459797D01*
X143811491Y-95345361D01*
X143886716Y-95232778D01*
X143886727Y-95232724D01*
X143886758Y-95232677D01*
X143913397Y-95098643D01*
X143940000Y-94964900D01*
X143940000Y-86226600D01*
X143913388Y-86092814D01*
X143886813Y-85958956D01*
X143886741Y-85958848D01*
X143886716Y-85958722D01*
X143811223Y-85845738D01*
X143735155Y-85731805D01*
X142909154Y-84905205D01*
X142909048Y-84905134D01*
X142908975Y-84905025D01*
X142799114Y-84831619D01*
X142919919Y-84753883D01*
X143022668Y-84603505D01*
X143058816Y-84425000D01*
X143058816Y-83175000D01*
X143027438Y-83008240D01*
X142928883Y-82855081D01*
X142778505Y-82752332D01*
X142600000Y-82716184D01*
X142550000Y-82716184D01*
X142550000Y-82550005D01*
X142550001Y-82550000D01*
X142549957Y-82549776D01*
X142550130Y-82351470D01*
X142436189Y-82075714D01*
X142225395Y-81864552D01*
X141949839Y-81750131D01*
X141651470Y-81749870D01*
X141375714Y-81863811D01*
X141164552Y-82074605D01*
X141050131Y-82350161D01*
X141049870Y-82648530D01*
X141079424Y-82720056D01*
X140933240Y-82747562D01*
X140780081Y-82846117D01*
X140677332Y-82996495D01*
X140641184Y-83175000D01*
X140641184Y-84050896D01*
X140558816Y-83968496D01*
X140558816Y-83175000D01*
X140527438Y-83008240D01*
X140428883Y-82855081D01*
X140278505Y-82752332D01*
X140100000Y-82716184D01*
X138600000Y-82716184D01*
X138433240Y-82747562D01*
X138280081Y-82846117D01*
X138177332Y-82996495D01*
X138156372Y-83100000D01*
X136344704Y-83100000D01*
X136327438Y-83008240D01*
X136228883Y-82855081D01*
X136078505Y-82752332D01*
X135900000Y-82716184D01*
X134400000Y-82716184D01*
X134233240Y-82747562D01*
X134080081Y-82846117D01*
X133977332Y-82996495D01*
X133941184Y-83175000D01*
X133941184Y-84117656D01*
X133858816Y-84035288D01*
X133858816Y-83175000D01*
X133827438Y-83008240D01*
X133728883Y-82855081D01*
X133578505Y-82752332D01*
X133400000Y-82716184D01*
X131900000Y-82716184D01*
X131733240Y-82747562D01*
X131580081Y-82846117D01*
X131477332Y-82996495D01*
X131441184Y-83175000D01*
X131441184Y-84367656D01*
X130399264Y-83325736D01*
X130204610Y-83195672D01*
X129983816Y-83151754D01*
X129983816Y-83000000D01*
X129952438Y-82833240D01*
X129853883Y-82680081D01*
X129703505Y-82577332D01*
X129525000Y-82541184D01*
X128275000Y-82541184D01*
X128108240Y-82572562D01*
X127955081Y-82671117D01*
X127852332Y-82821495D01*
X127816184Y-83000000D01*
X127816184Y-83867600D01*
X127274242Y-83325714D01*
X127172046Y-83257436D01*
X127083816Y-83198482D01*
X127083816Y-83000000D01*
X127052438Y-82833240D01*
X126953883Y-82680081D01*
X126803505Y-82577332D01*
X126625000Y-82541184D01*
X125375000Y-82541184D01*
X125208240Y-82572562D01*
X125055081Y-82671117D01*
X124952332Y-82821495D01*
X124916184Y-83000000D01*
X124916184Y-84500000D01*
X124947562Y-84666760D01*
X125046117Y-84819919D01*
X125196495Y-84922668D01*
X125375000Y-84958816D01*
X126625000Y-84958816D01*
X126791760Y-84927438D01*
X126944919Y-84828883D01*
X126999919Y-84748388D01*
X127214000Y-84962446D01*
X127214000Y-86740472D01*
X127083816Y-86610288D01*
X127083816Y-85500000D01*
X127052438Y-85333240D01*
X126953883Y-85180081D01*
X126803505Y-85077332D01*
X126625000Y-85041184D01*
X125375000Y-85041184D01*
X125208240Y-85072562D01*
X125055081Y-85171117D01*
X124952332Y-85321495D01*
X124916184Y-85500000D01*
X124916184Y-87000000D01*
X124947562Y-87166760D01*
X125046117Y-87319919D01*
X125196495Y-87422668D01*
X125375000Y-87458816D01*
X126235288Y-87458816D01*
X126325000Y-87548528D01*
X126325000Y-88690651D01*
X126236189Y-88475714D01*
X126025395Y-88264552D01*
X125749839Y-88150131D01*
X125451470Y-88149870D01*
X125175714Y-88263811D01*
X124964552Y-88474605D01*
X124850131Y-88750161D01*
X124849870Y-89048530D01*
X124950000Y-89290861D01*
X124950000Y-89316184D01*
X124900000Y-89316184D01*
X124733240Y-89347562D01*
X124580081Y-89446117D01*
X124477332Y-89596495D01*
X124441184Y-89775000D01*
X124441184Y-91025000D01*
X124472562Y-91191760D01*
X124571117Y-91344919D01*
X124721495Y-91447668D01*
X124900000Y-91483816D01*
X126400000Y-91483816D01*
X126566760Y-91452438D01*
X126589364Y-91437892D01*
X126849914Y-91698442D01*
X126849870Y-91748530D01*
X126963811Y-92024286D01*
X127174605Y-92235448D01*
X127450161Y-92349869D01*
X127748530Y-92350130D01*
X128024286Y-92236189D01*
X128209886Y-92050912D01*
X128296117Y-92184919D01*
X128316442Y-92198806D01*
X128305081Y-92206117D01*
X128202332Y-92356495D01*
X128166184Y-92535000D01*
X128166184Y-93135000D01*
X128197562Y-93301760D01*
X128296117Y-93454919D01*
X128316442Y-93468806D01*
X128305081Y-93476117D01*
X128202332Y-93626495D01*
X128166184Y-93805000D01*
X128166184Y-94405000D01*
X128197562Y-94571760D01*
X128296117Y-94724919D01*
X128446495Y-94827668D01*
X128625000Y-94863816D01*
X130175000Y-94863816D01*
X130341760Y-94832438D01*
X130494919Y-94733883D01*
X130514654Y-94705000D01*
X133683299Y-94705000D01*
X133696117Y-94724919D01*
X133846495Y-94827668D01*
X134025000Y-94863816D01*
X135575000Y-94863816D01*
X135741760Y-94832438D01*
X135894919Y-94733883D01*
X135997668Y-94583505D01*
X136033816Y-94405000D01*
X136033816Y-94194712D01*
X136699637Y-93528891D01*
X136750159Y-93549869D01*
X137048528Y-93550130D01*
X137324284Y-93436189D01*
X137535446Y-93225395D01*
X137649867Y-92949839D01*
X137650128Y-92651470D01*
X137549569Y-92408101D01*
X138284647Y-93143179D01*
X138280081Y-93146117D01*
X138177332Y-93296495D01*
X138141184Y-93475000D01*
X138141184Y-94725000D01*
X138172562Y-94891760D01*
X138177929Y-94900100D01*
X126648096Y-94900100D01*
X126719919Y-94853883D01*
X126822668Y-94703505D01*
X126858816Y-94525000D01*
X126858816Y-93275000D01*
X126827438Y-93108240D01*
X126728883Y-92955081D01*
X126578505Y-92852332D01*
X126400000Y-92816184D01*
X124900000Y-92816184D01*
X124733240Y-92847562D01*
X124580081Y-92946117D01*
X124477332Y-93096495D01*
X124441184Y-93275000D01*
X124441184Y-94525000D01*
X124472562Y-94691760D01*
X124571117Y-94844919D01*
X124721495Y-94947668D01*
X124900000Y-94983816D01*
X124900000Y-95500000D01*
X124919882Y-95599955D01*
X124900000Y-95699650D01*
X124900035Y-95699825D01*
X124900000Y-95700000D01*
X124900000Y-95805630D01*
X122204051Y-98501300D01*
X122204042Y-98501314D01*
X122204025Y-98501325D01*
X122125742Y-98618484D01*
X122052298Y-98728388D01*
X122052294Y-98728407D01*
X122052284Y-98728422D01*
X122025508Y-98863035D01*
X121999000Y-98996264D01*
X121999004Y-98996282D01*
X121999000Y-98996300D01*
X121999000Y-108584000D01*
X122052284Y-108851879D01*
X122204025Y-109078975D01*
X123220034Y-110094983D01*
X123220036Y-110094986D01*
X123333584Y-110170856D01*
X123447132Y-110246727D01*
X123715011Y-110300012D01*
X123715016Y-110300011D01*
X163759989Y-110300011D01*
X164027868Y-110246727D01*
X164254964Y-110094986D01*
X165471991Y-108877959D01*
X165831603Y-108949490D01*
X165888397Y-108949490D01*
X166443093Y-108839154D01*
X166913341Y-108524944D01*
X166941694Y-108482511D01*
X166941694Y-108499490D01*
X166973072Y-108666250D01*
X167071627Y-108819409D01*
X167222005Y-108922158D01*
X167400510Y-108958306D01*
X169399490Y-108958306D01*
X169566250Y-108926928D01*
X169719409Y-108828373D01*
X169822158Y-108677995D01*
X169858306Y-108499490D01*
X169858306Y-108200000D01*
X170849538Y-108200000D01*
X171066659Y-108524944D01*
X171536907Y-108839154D01*
X172091603Y-108949490D01*
X172148397Y-108949490D01*
X172703093Y-108839154D01*
X173173341Y-108524944D01*
X173390000Y-108200691D01*
X173606659Y-108524944D01*
X174076907Y-108839154D01*
X174631603Y-108949490D01*
X174688397Y-108949490D01*
X175243093Y-108839154D01*
X175713341Y-108524944D01*
X175741694Y-108482511D01*
X175741694Y-108499490D01*
X175773072Y-108666250D01*
X175871627Y-108819409D01*
X176022005Y-108922158D01*
X176200510Y-108958306D01*
X178199490Y-108958306D01*
X178366250Y-108926928D01*
X178475000Y-108856949D01*
X178475000Y-110475000D01*
X119525000Y-110475000D01*
X119525000Y-94162500D01*
X121950000Y-94162500D01*
X121950000Y-94614510D01*
X122018508Y-94779904D01*
X122145095Y-94906491D01*
X122310489Y-94975000D01*
X122887500Y-94975000D01*
X123000000Y-94862500D01*
X123000000Y-94050000D01*
X123300000Y-94050000D01*
X123300000Y-94862500D01*
X123412500Y-94975000D01*
X123989511Y-94975000D01*
X124154905Y-94906491D01*
X124281492Y-94779904D01*
X124350000Y-94614510D01*
X124350000Y-94162500D01*
X124237500Y-94050000D01*
X123300000Y-94050000D01*
X123000000Y-94050000D01*
X122062500Y-94050000D01*
X121950000Y-94162500D01*
X119525000Y-94162500D01*
X119525000Y-93185490D01*
X121950000Y-93185490D01*
X121950000Y-93637500D01*
X122062500Y-93750000D01*
X123000000Y-93750000D01*
X123000000Y-92937500D01*
X123300000Y-92937500D01*
X123300000Y-93750000D01*
X124237500Y-93750000D01*
X124350000Y-93637500D01*
X124350000Y-93185490D01*
X124281492Y-93020096D01*
X124154905Y-92893509D01*
X123989511Y-92825000D01*
X123412500Y-92825000D01*
X123300000Y-92937500D01*
X123000000Y-92937500D01*
X122887500Y-92825000D01*
X122310489Y-92825000D01*
X122145095Y-92893509D01*
X122018508Y-93020096D01*
X121950000Y-93185490D01*
X119525000Y-93185490D01*
X119525000Y-90662500D01*
X121950000Y-90662500D01*
X121950000Y-91114510D01*
X122018508Y-91279904D01*
X122145095Y-91406491D01*
X122310489Y-91475000D01*
X122887500Y-91475000D01*
X123000000Y-91362500D01*
X123000000Y-90550000D01*
X123300000Y-90550000D01*
X123300000Y-91362500D01*
X123412500Y-91475000D01*
X123989511Y-91475000D01*
X124154905Y-91406491D01*
X124281492Y-91279904D01*
X124350000Y-91114510D01*
X124350000Y-90662500D01*
X124237500Y-90550000D01*
X123300000Y-90550000D01*
X123000000Y-90550000D01*
X122062500Y-90550000D01*
X121950000Y-90662500D01*
X119525000Y-90662500D01*
X119525000Y-89685490D01*
X121950000Y-89685490D01*
X121950000Y-90137500D01*
X122062500Y-90250000D01*
X123000000Y-90250000D01*
X123000000Y-89437500D01*
X123300000Y-89437500D01*
X123300000Y-90250000D01*
X124237500Y-90250000D01*
X124350000Y-90137500D01*
X124350000Y-89685490D01*
X124281492Y-89520096D01*
X124154905Y-89393509D01*
X123989511Y-89325000D01*
X123412500Y-89325000D01*
X123300000Y-89437500D01*
X123000000Y-89437500D01*
X122887500Y-89325000D01*
X122310489Y-89325000D01*
X122145095Y-89393509D01*
X122018508Y-89520096D01*
X121950000Y-89685490D01*
X119525000Y-89685490D01*
X119525000Y-85500000D01*
X122016184Y-85500000D01*
X122016184Y-87000000D01*
X122047562Y-87166760D01*
X122146117Y-87319919D01*
X122296495Y-87422668D01*
X122394804Y-87442576D01*
X122350131Y-87550161D01*
X122349870Y-87848530D01*
X122463811Y-88124286D01*
X122674605Y-88335448D01*
X122950161Y-88449869D01*
X123248530Y-88450130D01*
X123524286Y-88336189D01*
X123735448Y-88125395D01*
X123849869Y-87849839D01*
X123850130Y-87551470D01*
X123805581Y-87443654D01*
X123891760Y-87427438D01*
X124044919Y-87328883D01*
X124147668Y-87178505D01*
X124183816Y-87000000D01*
X124183816Y-85500000D01*
X124152438Y-85333240D01*
X124053883Y-85180081D01*
X123903505Y-85077332D01*
X123725000Y-85041184D01*
X122475000Y-85041184D01*
X122308240Y-85072562D01*
X122155081Y-85171117D01*
X122052332Y-85321495D01*
X122016184Y-85500000D01*
X119525000Y-85500000D01*
X119525000Y-83000000D01*
X122016184Y-83000000D01*
X122016184Y-84500000D01*
X122047562Y-84666760D01*
X122146117Y-84819919D01*
X122296495Y-84922668D01*
X122475000Y-84958816D01*
X123725000Y-84958816D01*
X123891760Y-84927438D01*
X124044919Y-84828883D01*
X124147668Y-84678505D01*
X124183816Y-84500000D01*
X124183816Y-83000000D01*
X124152438Y-82833240D01*
X124053883Y-82680081D01*
X123903505Y-82577332D01*
X123843499Y-82565180D01*
X123849869Y-82549839D01*
X123850130Y-82251470D01*
X123736189Y-81975714D01*
X123525395Y-81764552D01*
X123249839Y-81650131D01*
X122951470Y-81649870D01*
X122675714Y-81763811D01*
X122464552Y-81974605D01*
X122350131Y-82250161D01*
X122349870Y-82548530D01*
X122356080Y-82563560D01*
X122308240Y-82572562D01*
X122155081Y-82671117D01*
X122052332Y-82821495D01*
X122016184Y-83000000D01*
X119525000Y-83000000D01*
X119525000Y-81525000D01*
X178475000Y-81525000D01*
X178475000Y-106144123D01*
M02*
