G04 #@! TF.FileFunction,Copper,L1,Top,Signal*
%FSLAX46Y46*%
G04 Gerber Fmt 4.6, Leading zero omitted, Abs format (unit mm)*
G04 Created by KiCad (PCBNEW 4.0.4-1.fc24-product) date Fri Jan 12 12:09:15 2018*
%MOMM*%
%LPD*%
G01*
G04 APERTURE LIST*
%ADD10C,0.100000*%
%ADD11O,1.998980X1.998980*%
%ADD12R,1.998980X1.998980*%
%ADD13R,1.250000X1.500000*%
%ADD14R,2.000000X1.600000*%
%ADD15R,1.500000X1.250000*%
%ADD16R,0.910000X1.220000*%
%ADD17R,1.550000X0.600000*%
%ADD18R,1.350000X1.350000*%
%ADD19C,1.350000*%
%ADD20R,1.200000X0.900000*%
%ADD21R,1.500000X1.500000*%
%ADD22C,1.500000*%
%ADD23R,1.200000X0.750000*%
%ADD24R,0.900000X1.200000*%
%ADD25C,1.400000*%
%ADD26C,0.600000*%
%ADD27C,0.300000*%
%ADD28C,0.500000*%
G04 APERTURE END LIST*
D10*
D11*
X172120000Y-107500000D03*
D12*
X177200000Y-107500000D03*
D11*
X174660000Y-107500000D03*
D13*
X128900000Y-86250000D03*
X128900000Y-83750000D03*
D14*
X153300000Y-94100000D03*
X157300000Y-94100000D03*
D15*
X139350000Y-87000000D03*
X141850000Y-87000000D03*
D13*
X126000000Y-86250000D03*
X126000000Y-83750000D03*
D15*
X139350000Y-83800000D03*
X141850000Y-83800000D03*
D13*
X123100000Y-83750000D03*
X123100000Y-86250000D03*
D15*
X123150000Y-90400000D03*
X125650000Y-90400000D03*
X164250000Y-86200000D03*
X161750000Y-86200000D03*
D16*
X142235000Y-90500000D03*
X138965000Y-90500000D03*
D17*
X134800000Y-94105000D03*
X134800000Y-92835000D03*
X134800000Y-91565000D03*
X134800000Y-90295000D03*
X129400000Y-90295000D03*
X129400000Y-91565000D03*
X129400000Y-92835000D03*
X129400000Y-94105000D03*
D15*
X132650000Y-83800000D03*
X135150000Y-83800000D03*
X132650000Y-87000000D03*
X135150000Y-87000000D03*
X125650000Y-93900000D03*
X123150000Y-93900000D03*
D11*
X165860000Y-107500000D03*
D12*
X168400000Y-107500000D03*
D18*
X157400000Y-105500000D03*
D19*
X155400000Y-105500000D03*
X157400000Y-103500000D03*
X155400000Y-103500000D03*
D20*
X148600000Y-94100000D03*
X146400000Y-94100000D03*
X148600000Y-91500000D03*
X146400000Y-91500000D03*
X146400000Y-88900000D03*
X148600000Y-88900000D03*
X161700000Y-94100000D03*
X163900000Y-94100000D03*
X161700000Y-96700000D03*
X163900000Y-96700000D03*
X156400000Y-83600000D03*
X154200000Y-83600000D03*
X161700000Y-91500000D03*
X163900000Y-91500000D03*
X164000000Y-83500000D03*
X161800000Y-83500000D03*
D17*
X152600000Y-86695000D03*
X152600000Y-87965000D03*
X152600000Y-89235000D03*
X152600000Y-90505000D03*
X158000000Y-90505000D03*
X158000000Y-89235000D03*
X158000000Y-87965000D03*
X158000000Y-86695000D03*
D21*
X144000000Y-107600000D03*
D22*
X144000000Y-105600000D03*
X144000000Y-103600000D03*
X144000000Y-101600000D03*
X144000000Y-99600000D03*
D21*
X134000000Y-107600000D03*
D22*
X134000000Y-105600000D03*
X134000000Y-103600000D03*
X134000000Y-101600000D03*
X134000000Y-99600000D03*
D21*
X124000000Y-107600000D03*
D22*
X124000000Y-105600000D03*
X124000000Y-103600000D03*
X124000000Y-101600000D03*
X124000000Y-99600000D03*
D23*
X161750000Y-88900000D03*
X163650000Y-88900000D03*
D15*
X141850000Y-94100000D03*
X139350000Y-94100000D03*
D24*
X166900000Y-88700000D03*
X166900000Y-86500000D03*
D25*
X170350000Y-82800000D03*
X172350000Y-82800000D03*
X174350000Y-96300000D03*
X174350000Y-82800000D03*
X172350000Y-91300000D03*
X170350000Y-96300000D03*
X174350000Y-84800000D03*
X172350000Y-84800000D03*
X170350000Y-84800000D03*
X174350000Y-89300000D03*
X172350000Y-89300000D03*
X170350000Y-89300000D03*
X174350000Y-91300000D03*
X170350000Y-91300000D03*
D26*
X157600000Y-92199994D03*
X125600000Y-88900000D03*
X141800000Y-82500000D03*
X123100000Y-82400002D03*
X142216800Y-92678200D03*
X137872800Y-90389000D03*
X135800000Y-85200000D03*
X136400000Y-94100000D03*
X123100004Y-87700000D03*
X135050300Y-88380500D03*
X127800000Y-91100000D03*
X133339561Y-91066005D03*
D27*
X134800000Y-92835000D02*
X133935000Y-92835000D01*
X133935000Y-92835000D02*
X128900000Y-87800000D01*
X128900000Y-87800000D02*
X128900000Y-86250000D01*
X133574700Y-89682500D02*
X133574700Y-90295000D01*
X133850300Y-89406900D02*
X133574700Y-89682500D01*
X133850300Y-86151900D02*
X133850300Y-89406900D01*
X133559400Y-85861000D02*
X133850300Y-86151900D01*
X132086300Y-85861000D02*
X133559400Y-85861000D01*
X129975300Y-83750000D02*
X132086300Y-85861000D01*
X128900000Y-83750000D02*
X129975300Y-83750000D01*
X134800000Y-90295000D02*
X133574700Y-90295000D01*
X153825300Y-92324400D02*
X153300000Y-92849700D01*
X153825300Y-89235000D02*
X153825300Y-92324400D01*
X152600000Y-89235000D02*
X153825300Y-89235000D01*
X153300000Y-94100000D02*
X153300000Y-92849700D01*
X150229600Y-90380100D02*
X151374700Y-89235000D01*
X150229600Y-91570100D02*
X150229600Y-90380100D01*
X148600000Y-93199700D02*
X150229600Y-91570100D01*
X148600000Y-94100000D02*
X148600000Y-93199700D01*
X152600000Y-89235000D02*
X151374700Y-89235000D01*
D28*
X157899999Y-91899995D02*
X157600000Y-92199994D01*
X158000000Y-91799994D02*
X157899999Y-91899995D01*
X158000000Y-90505000D02*
X158000000Y-91799994D01*
X157300001Y-92499993D02*
X157600000Y-92199994D01*
X157300000Y-94100000D02*
X157300001Y-92499993D01*
X125650000Y-88950000D02*
X125600000Y-88900000D01*
X125650000Y-90400000D02*
X125650000Y-88950000D01*
X141850000Y-82550000D02*
X141800000Y-82500000D01*
X141850000Y-83800000D02*
X141850000Y-82550000D01*
X123100000Y-83750000D02*
X123100000Y-82400002D01*
X141970300Y-92924700D02*
X141850000Y-92924700D01*
X142216800Y-92678200D02*
X141970300Y-92924700D01*
X141850000Y-94100000D02*
X141850000Y-92924700D01*
X137959700Y-90475900D02*
X137959700Y-90500000D01*
X137872800Y-90389000D02*
X137959700Y-90475900D01*
X138965000Y-90500000D02*
X137959700Y-90500000D01*
D27*
X137600000Y-87000000D02*
X136099999Y-85499999D01*
X132775000Y-83800000D02*
X134175000Y-85200000D01*
X139350000Y-87000000D02*
X137600000Y-87000000D01*
X132650000Y-83800000D02*
X132775000Y-83800000D01*
X136099999Y-85499999D02*
X135800000Y-85200000D01*
X134175000Y-85200000D02*
X135375736Y-85200000D01*
X135375736Y-85200000D02*
X135800000Y-85200000D01*
X134800000Y-94105000D02*
X136395000Y-94105000D01*
X136395000Y-94105000D02*
X136400000Y-94100000D01*
X134800000Y-94105000D02*
X129400000Y-94105000D01*
X129400000Y-94105000D02*
X128903000Y-94105000D01*
X127813900Y-85049600D02*
X127813900Y-84713900D01*
X127813900Y-84713900D02*
X126850000Y-83750000D01*
X126850000Y-83750000D02*
X126000000Y-83750000D01*
X132650000Y-87000000D02*
X131678100Y-87000000D01*
X131678100Y-87000000D02*
X129727700Y-85049600D01*
X129727700Y-85049600D02*
X127813900Y-85049600D01*
X129400000Y-90295000D02*
X128174700Y-90295000D01*
X127813900Y-89934200D02*
X127813900Y-85049600D01*
X128174700Y-90295000D02*
X127813900Y-89934200D01*
D28*
X125650000Y-93900000D02*
X125600000Y-93950000D01*
X125600000Y-93950000D02*
X125600000Y-95500000D01*
X125600000Y-95500000D02*
X125700100Y-95600100D01*
X125700100Y-95600100D02*
X125699900Y-95600100D01*
X125600000Y-96095600D02*
X122699300Y-98996300D01*
X125699900Y-95600100D02*
X125600000Y-95700000D01*
X125600000Y-95700000D02*
X125600000Y-96095600D01*
X122699300Y-98996300D02*
X122699300Y-108583800D01*
X122699300Y-108583800D02*
X123616300Y-109500800D01*
X123616300Y-109500800D02*
X162309400Y-109500800D01*
X162309400Y-109500800D02*
X164310200Y-107500000D01*
X164310200Y-107500000D02*
X165860000Y-107500000D01*
X125700000Y-95600000D02*
X125700100Y-95600100D01*
X125700100Y-95600100D02*
X142605100Y-95600100D01*
X142605100Y-95600100D02*
X143240300Y-94964900D01*
X143240300Y-94964900D02*
X143240300Y-90500000D01*
X143240300Y-90500000D02*
X143240300Y-86226600D01*
X143240300Y-86226600D02*
X142413700Y-85400000D01*
X142413700Y-85400000D02*
X141000000Y-85400000D01*
X141000000Y-85400000D02*
X139987600Y-84387600D01*
X139987600Y-84387600D02*
X139350000Y-84387600D01*
X136400000Y-83800000D02*
X135150000Y-83800000D01*
X138762400Y-83800000D02*
X136400000Y-83800000D01*
X139350000Y-84387600D02*
X138762400Y-83800000D01*
X142235000Y-90500000D02*
X143240300Y-90500000D01*
X139350000Y-83800000D02*
X139350000Y-84387600D01*
X123100000Y-86250000D02*
X123100000Y-87699996D01*
X123100000Y-87699996D02*
X123100004Y-87700000D01*
X135150000Y-88280800D02*
X135150000Y-87000000D01*
X135050300Y-88380500D02*
X135150000Y-88280800D01*
X134000000Y-103600000D02*
X144000000Y-103600000D01*
X151274700Y-96325300D02*
X151274700Y-90505000D01*
X144000000Y-103600000D02*
X151274700Y-96325300D01*
X152600000Y-90505000D02*
X151274700Y-90505000D01*
D27*
X163275600Y-85124700D02*
X161750000Y-85124700D01*
X164000000Y-84400300D02*
X163275600Y-85124700D01*
X164000000Y-83500000D02*
X164000000Y-84400300D01*
X161750000Y-86200000D02*
X161750000Y-85124700D01*
D28*
X174660000Y-107500000D02*
X174660000Y-106086508D01*
X174660000Y-106086508D02*
X175700000Y-105046508D01*
X175700000Y-105046508D02*
X175700000Y-88600000D01*
X175700000Y-88600000D02*
X174549989Y-87449989D01*
X167850000Y-88700000D02*
X166900000Y-88700000D01*
X174549989Y-87449989D02*
X169100011Y-87449989D01*
X169100011Y-87449989D02*
X167850000Y-88700000D01*
D27*
X155300000Y-105600000D02*
X155400000Y-105500000D01*
X144000000Y-105600000D02*
X155300000Y-105600000D01*
X154099600Y-108800400D02*
X157400000Y-105500000D01*
X140266500Y-108800400D02*
X154099600Y-108800400D01*
X137066100Y-105600000D02*
X140266500Y-108800400D01*
X134000000Y-105600000D02*
X137066100Y-105600000D01*
X124000000Y-107600000D02*
X125200300Y-107600000D01*
X125600000Y-107200000D02*
X125600000Y-106223998D01*
X125600000Y-106223998D02*
X134908798Y-96915200D01*
X125200300Y-107600000D02*
X125200300Y-107599700D01*
X125200300Y-107599700D02*
X125600000Y-107200000D01*
X134908798Y-96915200D02*
X144485100Y-96915200D01*
X144485100Y-96915200D02*
X146400000Y-95000300D01*
X146400000Y-95000300D02*
X146400000Y-94100000D01*
X146400000Y-91500000D02*
X146400000Y-94100000D01*
X155400000Y-103500000D02*
X157400000Y-103500000D01*
X174350000Y-91300000D02*
X173199999Y-92450001D01*
X173199999Y-92450001D02*
X169049999Y-92450001D01*
X169049999Y-92450001D02*
X164800000Y-96700000D01*
X164800000Y-96700000D02*
X163900000Y-96700000D01*
X174350000Y-89300000D02*
X173199999Y-88149999D01*
X173199999Y-88149999D02*
X169850001Y-88149999D01*
X169850001Y-88149999D02*
X164800000Y-93200000D01*
X164800000Y-93200000D02*
X164800000Y-93350000D01*
X164800000Y-93350000D02*
X164050000Y-94100000D01*
X164050000Y-94100000D02*
X163900000Y-94100000D01*
X151340000Y-87999700D02*
X151374700Y-87965000D01*
X148600000Y-87999700D02*
X151340000Y-87999700D01*
X148600000Y-88900000D02*
X148600000Y-87999700D01*
X152600000Y-87965000D02*
X151374700Y-87965000D01*
X148600000Y-91500000D02*
X148600000Y-88900000D01*
X153825300Y-84875000D02*
X153825300Y-86695000D01*
X154200000Y-84500300D02*
X153825300Y-84875000D01*
X154200000Y-83600000D02*
X154200000Y-84500300D01*
X152600000Y-86695000D02*
X153825300Y-86695000D01*
X147704700Y-86695000D02*
X152600000Y-86695000D01*
X146400000Y-87999700D02*
X147704700Y-86695000D01*
X146400000Y-88900000D02*
X146400000Y-87999700D01*
X157900000Y-88000000D02*
X161400000Y-88000000D01*
X161400000Y-88000000D02*
X161750000Y-88350000D01*
X161750000Y-88350000D02*
X161750000Y-88900000D01*
X161750000Y-88900000D02*
X161750000Y-88950000D01*
X161750000Y-88950000D02*
X161700000Y-89000000D01*
X161700000Y-89000000D02*
X161700000Y-91500000D01*
X158000000Y-87965000D02*
X159225300Y-87965000D01*
X159335000Y-87965000D02*
X159225300Y-87965000D01*
X159335000Y-86527700D02*
X159335000Y-87965000D01*
X161462400Y-84400300D02*
X159335000Y-86527700D01*
X161800000Y-84400300D02*
X161462400Y-84400300D01*
X161800000Y-83500000D02*
X161800000Y-84400300D01*
X163900000Y-91500000D02*
X163900000Y-92600000D01*
X163900000Y-92600000D02*
X163400000Y-93100000D01*
X161799700Y-93100000D02*
X161700000Y-93199700D01*
X163400000Y-93100000D02*
X161799700Y-93100000D01*
X163650000Y-88900000D02*
X163900000Y-88900000D01*
X163900000Y-88900000D02*
X163900000Y-91500000D01*
X161700000Y-96700000D02*
X161700000Y-94100000D01*
X156774700Y-84875000D02*
X156400000Y-84500300D01*
X156774700Y-89235000D02*
X156774700Y-84875000D01*
X156400000Y-83600000D02*
X156400000Y-84500300D01*
X161700000Y-94100000D02*
X161700000Y-93199700D01*
X157387400Y-89235000D02*
X156774700Y-89235000D01*
X157387400Y-89235000D02*
X158000000Y-89235000D01*
X159225300Y-90725000D02*
X161700000Y-93199700D01*
X159225300Y-89235000D02*
X159225300Y-90725000D01*
X158000000Y-89235000D02*
X159225300Y-89235000D01*
X127800000Y-91100000D02*
X127213890Y-90513890D01*
X127213890Y-90513890D02*
X127213890Y-88713890D01*
X127213890Y-88713890D02*
X126000000Y-87500000D01*
X126000000Y-87500000D02*
X126000000Y-86250000D01*
X134800000Y-91565000D02*
X133838556Y-91565000D01*
X133838556Y-91565000D02*
X133339561Y-91066005D01*
X134800000Y-91565000D02*
X136065000Y-91565000D01*
X136065000Y-91565000D02*
X137524700Y-93024700D01*
X137524700Y-93024700D02*
X139350000Y-93024700D01*
X139350000Y-94100000D02*
X139350000Y-93024700D01*
X140774700Y-89150600D02*
X141850000Y-88075300D01*
X140774700Y-91600000D02*
X140774700Y-89150600D01*
X139350000Y-93024700D02*
X140774700Y-91600000D01*
X141850000Y-87000000D02*
X141850000Y-88075300D01*
X166900000Y-86500000D02*
X164550000Y-86500000D01*
X164550000Y-86500000D02*
X164250000Y-86200000D01*
X170350000Y-84800000D02*
X168450000Y-84800000D01*
X168450000Y-84800000D02*
X166900000Y-86350000D01*
X166900000Y-86350000D02*
X166900000Y-86500000D01*
G36*
X178475000Y-106144123D02*
X178377995Y-106077842D01*
X178199490Y-106041694D01*
X176200510Y-106041694D01*
X176033750Y-106073072D01*
X175880591Y-106171627D01*
X175777842Y-106322005D01*
X175741694Y-106500510D01*
X175741694Y-106517489D01*
X175713341Y-106475056D01*
X175442423Y-106294035D01*
X176194975Y-105541483D01*
X176346716Y-105314387D01*
X176400000Y-105046508D01*
X176400000Y-88600000D01*
X176389792Y-88548679D01*
X176346716Y-88332121D01*
X176194975Y-88105025D01*
X175044964Y-86955014D01*
X174817868Y-86803273D01*
X174549989Y-86749989D01*
X169100016Y-86749989D01*
X169100011Y-86749988D01*
X168832132Y-86803273D01*
X168769684Y-86845000D01*
X168605036Y-86955014D01*
X168605034Y-86955017D01*
X167718462Y-87841588D01*
X167678883Y-87780081D01*
X167528505Y-87677332D01*
X167350000Y-87641184D01*
X166450000Y-87641184D01*
X166283240Y-87672562D01*
X166130081Y-87771117D01*
X166027332Y-87921495D01*
X165991184Y-88100000D01*
X165991184Y-89300000D01*
X166022562Y-89466760D01*
X166121117Y-89619919D01*
X166271495Y-89722668D01*
X166450000Y-89758816D01*
X167350000Y-89758816D01*
X167402543Y-89748929D01*
X164487219Y-92664253D01*
X164500000Y-92600000D01*
X164500000Y-92408816D01*
X164666760Y-92377438D01*
X164819919Y-92278883D01*
X164922668Y-92128505D01*
X164958816Y-91950000D01*
X164958816Y-91050000D01*
X164927438Y-90883240D01*
X164828883Y-90730081D01*
X164678505Y-90627332D01*
X164500000Y-90591184D01*
X164500000Y-89648875D01*
X164569919Y-89603883D01*
X164672668Y-89453505D01*
X164708816Y-89275000D01*
X164708816Y-88525000D01*
X164677438Y-88358240D01*
X164578883Y-88205081D01*
X164428505Y-88102332D01*
X164250000Y-88066184D01*
X163050000Y-88066184D01*
X162883240Y-88097562D01*
X162730081Y-88196117D01*
X162700744Y-88239054D01*
X162678883Y-88205081D01*
X162528505Y-88102332D01*
X162350000Y-88066184D01*
X162268109Y-88066184D01*
X162174264Y-87925736D01*
X161824264Y-87575736D01*
X161629610Y-87445672D01*
X161400000Y-87400000D01*
X159935000Y-87400000D01*
X159935000Y-86776228D01*
X160541184Y-86170044D01*
X160541184Y-86825000D01*
X160572562Y-86991760D01*
X160671117Y-87144919D01*
X160821495Y-87247668D01*
X161000000Y-87283816D01*
X162500000Y-87283816D01*
X162666760Y-87252438D01*
X162819919Y-87153883D01*
X162922668Y-87003505D01*
X162958816Y-86825000D01*
X162958816Y-85724700D01*
X163041184Y-85724700D01*
X163041184Y-86825000D01*
X163072562Y-86991760D01*
X163171117Y-87144919D01*
X163321495Y-87247668D01*
X163500000Y-87283816D01*
X165000000Y-87283816D01*
X165166760Y-87252438D01*
X165319919Y-87153883D01*
X165356736Y-87100000D01*
X165991184Y-87100000D01*
X166022562Y-87266760D01*
X166121117Y-87419919D01*
X166271495Y-87522668D01*
X166450000Y-87558816D01*
X167350000Y-87558816D01*
X167516760Y-87527438D01*
X167669919Y-87428883D01*
X167772668Y-87278505D01*
X167808816Y-87100000D01*
X167808816Y-86289712D01*
X168698528Y-85400000D01*
X169353613Y-85400000D01*
X169374509Y-85450572D01*
X169697727Y-85774354D01*
X170120247Y-85949800D01*
X170577746Y-85950199D01*
X171000572Y-85775491D01*
X171324354Y-85452273D01*
X171349846Y-85390882D01*
X171374509Y-85450572D01*
X171697727Y-85774354D01*
X172120247Y-85949800D01*
X172577746Y-85950199D01*
X173000572Y-85775491D01*
X173324354Y-85452273D01*
X173349846Y-85390882D01*
X173374509Y-85450572D01*
X173697727Y-85774354D01*
X174120247Y-85949800D01*
X174577746Y-85950199D01*
X175000572Y-85775491D01*
X175324354Y-85452273D01*
X175499800Y-85029753D01*
X175500199Y-84572254D01*
X175325491Y-84149428D01*
X175002273Y-83825646D01*
X174940882Y-83800154D01*
X175000572Y-83775491D01*
X175324354Y-83452273D01*
X175499800Y-83029753D01*
X175500199Y-82572254D01*
X175325491Y-82149428D01*
X175002273Y-81825646D01*
X174579753Y-81650200D01*
X174122254Y-81649801D01*
X173699428Y-81824509D01*
X173375646Y-82147727D01*
X173350154Y-82209118D01*
X173325491Y-82149428D01*
X173002273Y-81825646D01*
X172579753Y-81650200D01*
X172122254Y-81649801D01*
X171699428Y-81824509D01*
X171375646Y-82147727D01*
X171350154Y-82209118D01*
X171325491Y-82149428D01*
X171002273Y-81825646D01*
X170579753Y-81650200D01*
X170122254Y-81649801D01*
X169699428Y-81824509D01*
X169375646Y-82147727D01*
X169200200Y-82570247D01*
X169199801Y-83027746D01*
X169374509Y-83450572D01*
X169697727Y-83774354D01*
X169759118Y-83799846D01*
X169699428Y-83824509D01*
X169375646Y-84147727D01*
X169353940Y-84200000D01*
X168450000Y-84200000D01*
X168220390Y-84245672D01*
X168025736Y-84375736D01*
X166960288Y-85441184D01*
X166450000Y-85441184D01*
X166283240Y-85472562D01*
X166130081Y-85571117D01*
X166027332Y-85721495D01*
X165991184Y-85900000D01*
X165458816Y-85900000D01*
X165458816Y-85575000D01*
X165427438Y-85408240D01*
X165328883Y-85255081D01*
X165178505Y-85152332D01*
X165000000Y-85116184D01*
X164132644Y-85116184D01*
X164424264Y-84824564D01*
X164554328Y-84629911D01*
X164598306Y-84408816D01*
X164600000Y-84408816D01*
X164766760Y-84377438D01*
X164919919Y-84278883D01*
X165022668Y-84128505D01*
X165058816Y-83950000D01*
X165058816Y-83050000D01*
X165027438Y-82883240D01*
X164928883Y-82730081D01*
X164778505Y-82627332D01*
X164600000Y-82591184D01*
X163400000Y-82591184D01*
X163233240Y-82622562D01*
X163080081Y-82721117D01*
X162977332Y-82871495D01*
X162941184Y-83050000D01*
X162941184Y-83950000D01*
X162972562Y-84116760D01*
X163071117Y-84269919D01*
X163196311Y-84355461D01*
X163027072Y-84524700D01*
X162375255Y-84524700D01*
X162398306Y-84408816D01*
X162400000Y-84408816D01*
X162566760Y-84377438D01*
X162719919Y-84278883D01*
X162822668Y-84128505D01*
X162858816Y-83950000D01*
X162858816Y-83050000D01*
X162827438Y-82883240D01*
X162728883Y-82730081D01*
X162578505Y-82627332D01*
X162400000Y-82591184D01*
X161200000Y-82591184D01*
X161033240Y-82622562D01*
X160880081Y-82721117D01*
X160777332Y-82871495D01*
X160741184Y-83050000D01*
X160741184Y-83950000D01*
X160772562Y-84116760D01*
X160821445Y-84192727D01*
X159009228Y-86004944D01*
X158864511Y-85945000D01*
X158262500Y-85945000D01*
X158150000Y-86057500D01*
X158150000Y-86545000D01*
X158170000Y-86545000D01*
X158170000Y-86845000D01*
X158150000Y-86845000D01*
X158150000Y-86865000D01*
X157850000Y-86865000D01*
X157850000Y-86845000D01*
X157830000Y-86845000D01*
X157830000Y-86545000D01*
X157850000Y-86545000D01*
X157850000Y-86057500D01*
X157737500Y-85945000D01*
X157374700Y-85945000D01*
X157374700Y-84875000D01*
X157329028Y-84645390D01*
X157201758Y-84454917D01*
X157319919Y-84378883D01*
X157422668Y-84228505D01*
X157458816Y-84050000D01*
X157458816Y-83150000D01*
X157427438Y-82983240D01*
X157328883Y-82830081D01*
X157178505Y-82727332D01*
X157000000Y-82691184D01*
X155800000Y-82691184D01*
X155633240Y-82722562D01*
X155480081Y-82821117D01*
X155377332Y-82971495D01*
X155341184Y-83150000D01*
X155341184Y-84050000D01*
X155372562Y-84216760D01*
X155471117Y-84369919D01*
X155621495Y-84472668D01*
X155800000Y-84508816D01*
X155801694Y-84508816D01*
X155845672Y-84729910D01*
X155975736Y-84924564D01*
X156174700Y-85123528D01*
X156174700Y-89235000D01*
X156220372Y-89464610D01*
X156350436Y-89659264D01*
X156545090Y-89789328D01*
X156774700Y-89835000D01*
X156883299Y-89835000D01*
X156896117Y-89854919D01*
X156916442Y-89868806D01*
X156905081Y-89876117D01*
X156802332Y-90026495D01*
X156766184Y-90205000D01*
X156766184Y-90805000D01*
X156797562Y-90971760D01*
X156896117Y-91124919D01*
X157046495Y-91227668D01*
X157225000Y-91263816D01*
X157300000Y-91263816D01*
X157300000Y-91510044D01*
X157295899Y-91514145D01*
X157175714Y-91563805D01*
X156964552Y-91774599D01*
X156914211Y-91895833D01*
X156805026Y-92005018D01*
X156653285Y-92232114D01*
X156625327Y-92372668D01*
X156600001Y-92499993D01*
X156600001Y-92841184D01*
X156300000Y-92841184D01*
X156133240Y-92872562D01*
X155980081Y-92971117D01*
X155877332Y-93121495D01*
X155841184Y-93300000D01*
X155841184Y-94900000D01*
X155872562Y-95066760D01*
X155971117Y-95219919D01*
X156121495Y-95322668D01*
X156300000Y-95358816D01*
X158300000Y-95358816D01*
X158466760Y-95327438D01*
X158619919Y-95228883D01*
X158722668Y-95078505D01*
X158758816Y-94900000D01*
X158758816Y-93300000D01*
X158727438Y-93133240D01*
X158628883Y-92980081D01*
X158478505Y-92877332D01*
X158300000Y-92841184D01*
X158012183Y-92841184D01*
X158024286Y-92836183D01*
X158235448Y-92625389D01*
X158285789Y-92504155D01*
X158494975Y-92294969D01*
X158646716Y-92067873D01*
X158700001Y-91799994D01*
X158700000Y-91799989D01*
X158700000Y-91263816D01*
X158775000Y-91263816D01*
X158893324Y-91241552D01*
X160897398Y-93245626D01*
X160780081Y-93321117D01*
X160677332Y-93471495D01*
X160641184Y-93650000D01*
X160641184Y-94550000D01*
X160672562Y-94716760D01*
X160771117Y-94869919D01*
X160921495Y-94972668D01*
X161100000Y-95008816D01*
X161100000Y-95791184D01*
X160933240Y-95822562D01*
X160780081Y-95921117D01*
X160677332Y-96071495D01*
X160641184Y-96250000D01*
X160641184Y-97150000D01*
X160672562Y-97316760D01*
X160771117Y-97469919D01*
X160921495Y-97572668D01*
X161100000Y-97608816D01*
X162300000Y-97608816D01*
X162466760Y-97577438D01*
X162619919Y-97478883D01*
X162722668Y-97328505D01*
X162758816Y-97150000D01*
X162758816Y-96250000D01*
X162727438Y-96083240D01*
X162628883Y-95930081D01*
X162478505Y-95827332D01*
X162300000Y-95791184D01*
X162300000Y-95008816D01*
X162466760Y-94977438D01*
X162619919Y-94878883D01*
X162722668Y-94728505D01*
X162758816Y-94550000D01*
X162758816Y-93700000D01*
X162841184Y-93700000D01*
X162841184Y-94550000D01*
X162872562Y-94716760D01*
X162971117Y-94869919D01*
X163121495Y-94972668D01*
X163300000Y-95008816D01*
X164500000Y-95008816D01*
X164666760Y-94977438D01*
X164819919Y-94878883D01*
X164922668Y-94728505D01*
X164958816Y-94550000D01*
X164958816Y-94039712D01*
X165224264Y-93774264D01*
X165354328Y-93579610D01*
X165375535Y-93472993D01*
X169235174Y-89613354D01*
X169374509Y-89950572D01*
X169697727Y-90274354D01*
X169759118Y-90299846D01*
X169699428Y-90324509D01*
X169375646Y-90647727D01*
X169200200Y-91070247D01*
X169199801Y-91527746D01*
X169332954Y-91850001D01*
X169049999Y-91850001D01*
X168820389Y-91895673D01*
X168625735Y-92025737D01*
X164765024Y-95886448D01*
X164678505Y-95827332D01*
X164500000Y-95791184D01*
X163300000Y-95791184D01*
X163133240Y-95822562D01*
X162980081Y-95921117D01*
X162877332Y-96071495D01*
X162841184Y-96250000D01*
X162841184Y-97150000D01*
X162872562Y-97316760D01*
X162971117Y-97469919D01*
X163121495Y-97572668D01*
X163300000Y-97608816D01*
X164500000Y-97608816D01*
X164666760Y-97577438D01*
X164819919Y-97478883D01*
X164922668Y-97328505D01*
X164933831Y-97273379D01*
X165029610Y-97254328D01*
X165224264Y-97124264D01*
X165820782Y-96527746D01*
X169199801Y-96527746D01*
X169374509Y-96950572D01*
X169697727Y-97274354D01*
X170120247Y-97449800D01*
X170577746Y-97450199D01*
X171000572Y-97275491D01*
X171324354Y-96952273D01*
X171499800Y-96529753D01*
X171500199Y-96072254D01*
X171325491Y-95649428D01*
X171002273Y-95325646D01*
X170579753Y-95150200D01*
X170122254Y-95149801D01*
X169699428Y-95324509D01*
X169375646Y-95647727D01*
X169200200Y-96070247D01*
X169199801Y-96527746D01*
X165820782Y-96527746D01*
X169298527Y-93050001D01*
X173199999Y-93050001D01*
X173429609Y-93004329D01*
X173624263Y-92874265D01*
X174069712Y-92428816D01*
X174120247Y-92449800D01*
X174577746Y-92450199D01*
X175000000Y-92275727D01*
X175000000Y-95324702D01*
X174579753Y-95150200D01*
X174122254Y-95149801D01*
X173699428Y-95324509D01*
X173375646Y-95647727D01*
X173200200Y-96070247D01*
X173199801Y-96527746D01*
X173374509Y-96950572D01*
X173697727Y-97274354D01*
X174120247Y-97449800D01*
X174577746Y-97450199D01*
X175000000Y-97275727D01*
X175000000Y-104756558D01*
X174165025Y-105591533D01*
X174013284Y-105818629D01*
X173992272Y-105924264D01*
X173960000Y-106086508D01*
X173960000Y-106238961D01*
X173606659Y-106475056D01*
X173390000Y-106799309D01*
X173173341Y-106475056D01*
X172703093Y-106160846D01*
X172148397Y-106050510D01*
X172091603Y-106050510D01*
X171536907Y-106160846D01*
X171066659Y-106475056D01*
X170752449Y-106945304D01*
X170642113Y-107500000D01*
X170752449Y-108054696D01*
X171066659Y-108524944D01*
X171536907Y-108839154D01*
X172091603Y-108949490D01*
X172148397Y-108949490D01*
X172703093Y-108839154D01*
X173173341Y-108524944D01*
X173390000Y-108200691D01*
X173606659Y-108524944D01*
X174076907Y-108839154D01*
X174631603Y-108949490D01*
X174688397Y-108949490D01*
X175243093Y-108839154D01*
X175713341Y-108524944D01*
X175741694Y-108482511D01*
X175741694Y-108499490D01*
X175773072Y-108666250D01*
X175871627Y-108819409D01*
X176022005Y-108922158D01*
X176200510Y-108958306D01*
X178199490Y-108958306D01*
X178366250Y-108926928D01*
X178475000Y-108856949D01*
X178475000Y-110475000D01*
X119525000Y-110475000D01*
X119525000Y-98996300D01*
X121999300Y-98996300D01*
X121999300Y-108583800D01*
X122052584Y-108851679D01*
X122204325Y-109078775D01*
X123121325Y-109995775D01*
X123348421Y-110147516D01*
X123616300Y-110200800D01*
X162309400Y-110200800D01*
X162577279Y-110147516D01*
X162804375Y-109995775D01*
X164593788Y-108206361D01*
X164806659Y-108524944D01*
X165276907Y-108839154D01*
X165831603Y-108949490D01*
X165888397Y-108949490D01*
X166443093Y-108839154D01*
X166913341Y-108524944D01*
X166941694Y-108482511D01*
X166941694Y-108499490D01*
X166973072Y-108666250D01*
X167071627Y-108819409D01*
X167222005Y-108922158D01*
X167400510Y-108958306D01*
X169399490Y-108958306D01*
X169566250Y-108926928D01*
X169719409Y-108828373D01*
X169822158Y-108677995D01*
X169858306Y-108499490D01*
X169858306Y-106500510D01*
X169826928Y-106333750D01*
X169728373Y-106180591D01*
X169577995Y-106077842D01*
X169399490Y-106041694D01*
X167400510Y-106041694D01*
X167233750Y-106073072D01*
X167080591Y-106171627D01*
X166977842Y-106322005D01*
X166941694Y-106500510D01*
X166941694Y-106517489D01*
X166913341Y-106475056D01*
X166443093Y-106160846D01*
X165888397Y-106050510D01*
X165831603Y-106050510D01*
X165276907Y-106160846D01*
X164806659Y-106475056D01*
X164589538Y-106800000D01*
X164310200Y-106800000D01*
X164042322Y-106853284D01*
X163815225Y-107005025D01*
X163815223Y-107005028D01*
X162019450Y-108800800D01*
X154947728Y-108800800D01*
X157114712Y-106633816D01*
X158075000Y-106633816D01*
X158241760Y-106602438D01*
X158394919Y-106503883D01*
X158497668Y-106353505D01*
X158533816Y-106175000D01*
X158533816Y-104825000D01*
X158502438Y-104658240D01*
X158403883Y-104505081D01*
X158253505Y-104402332D01*
X158116305Y-104374548D01*
X158353172Y-104138093D01*
X158524804Y-103724758D01*
X158525195Y-103277205D01*
X158354285Y-102863571D01*
X158038093Y-102546828D01*
X157624758Y-102375196D01*
X157177205Y-102374805D01*
X156763571Y-102545715D01*
X156446828Y-102861907D01*
X156431010Y-102900000D01*
X156369337Y-102900000D01*
X156354285Y-102863571D01*
X156038093Y-102546828D01*
X155624758Y-102375196D01*
X155177205Y-102374805D01*
X154763571Y-102545715D01*
X154446828Y-102861907D01*
X154275196Y-103275242D01*
X154274805Y-103722795D01*
X154445715Y-104136429D01*
X154761907Y-104453172D01*
X154874446Y-104499902D01*
X154763571Y-104545715D01*
X154446828Y-104861907D01*
X154389487Y-105000000D01*
X145050486Y-105000000D01*
X145017903Y-104921143D01*
X144697057Y-104599735D01*
X145016717Y-104280633D01*
X145199791Y-103839742D01*
X145200183Y-103389767D01*
X151769672Y-96820277D01*
X151769675Y-96820275D01*
X151921416Y-96593178D01*
X151974700Y-96325300D01*
X151974700Y-95222367D01*
X152121495Y-95322668D01*
X152300000Y-95358816D01*
X154300000Y-95358816D01*
X154466760Y-95327438D01*
X154619919Y-95228883D01*
X154722668Y-95078505D01*
X154758816Y-94900000D01*
X154758816Y-93300000D01*
X154727438Y-93133240D01*
X154628883Y-92980081D01*
X154478505Y-92877332D01*
X154300000Y-92841184D01*
X154157044Y-92841184D01*
X154249564Y-92748664D01*
X154379628Y-92554011D01*
X154425300Y-92324400D01*
X154425300Y-89235000D01*
X154379628Y-89005390D01*
X154249564Y-88810736D01*
X154054910Y-88680672D01*
X153825300Y-88635000D01*
X153716701Y-88635000D01*
X153703883Y-88615081D01*
X153683558Y-88601194D01*
X153694919Y-88593883D01*
X153797668Y-88443505D01*
X153833816Y-88265000D01*
X153833816Y-87665000D01*
X153802438Y-87498240D01*
X153703883Y-87345081D01*
X153683558Y-87331194D01*
X153694919Y-87323883D01*
X153714654Y-87295000D01*
X153825300Y-87295000D01*
X154054910Y-87249328D01*
X154249564Y-87119264D01*
X154379628Y-86924610D01*
X154425300Y-86695000D01*
X154425300Y-85123528D01*
X154624264Y-84924564D01*
X154754328Y-84729910D01*
X154798306Y-84508816D01*
X154800000Y-84508816D01*
X154966760Y-84477438D01*
X155119919Y-84378883D01*
X155222668Y-84228505D01*
X155258816Y-84050000D01*
X155258816Y-83150000D01*
X155227438Y-82983240D01*
X155128883Y-82830081D01*
X154978505Y-82727332D01*
X154800000Y-82691184D01*
X153600000Y-82691184D01*
X153433240Y-82722562D01*
X153280081Y-82821117D01*
X153177332Y-82971495D01*
X153141184Y-83150000D01*
X153141184Y-84050000D01*
X153172562Y-84216760D01*
X153271117Y-84369919D01*
X153397388Y-84456196D01*
X153270972Y-84645390D01*
X153225300Y-84875000D01*
X153225300Y-85936184D01*
X151825000Y-85936184D01*
X151658240Y-85967562D01*
X151505081Y-86066117D01*
X151485346Y-86095000D01*
X147704700Y-86095000D01*
X147475089Y-86140672D01*
X147280436Y-86270736D01*
X145975736Y-87575436D01*
X145845672Y-87770090D01*
X145801694Y-87991184D01*
X145800000Y-87991184D01*
X145633240Y-88022562D01*
X145480081Y-88121117D01*
X145377332Y-88271495D01*
X145341184Y-88450000D01*
X145341184Y-89350000D01*
X145372562Y-89516760D01*
X145471117Y-89669919D01*
X145621495Y-89772668D01*
X145800000Y-89808816D01*
X147000000Y-89808816D01*
X147166760Y-89777438D01*
X147319919Y-89678883D01*
X147422668Y-89528505D01*
X147458816Y-89350000D01*
X147458816Y-88450000D01*
X147427438Y-88283240D01*
X147328883Y-88130081D01*
X147203689Y-88044539D01*
X147953228Y-87295000D01*
X151483299Y-87295000D01*
X151496117Y-87314919D01*
X151516442Y-87328806D01*
X151505081Y-87336117D01*
X151485346Y-87365000D01*
X151374700Y-87365000D01*
X151200250Y-87399700D01*
X148600000Y-87399700D01*
X148370390Y-87445372D01*
X148175736Y-87575436D01*
X148045672Y-87770090D01*
X148001694Y-87991184D01*
X148000000Y-87991184D01*
X147833240Y-88022562D01*
X147680081Y-88121117D01*
X147577332Y-88271495D01*
X147541184Y-88450000D01*
X147541184Y-89350000D01*
X147572562Y-89516760D01*
X147671117Y-89669919D01*
X147821495Y-89772668D01*
X148000000Y-89808816D01*
X148000000Y-90591184D01*
X147833240Y-90622562D01*
X147680081Y-90721117D01*
X147577332Y-90871495D01*
X147541184Y-91050000D01*
X147541184Y-91950000D01*
X147572562Y-92116760D01*
X147671117Y-92269919D01*
X147821495Y-92372668D01*
X148000000Y-92408816D01*
X148542356Y-92408816D01*
X148175736Y-92775436D01*
X148045672Y-92970090D01*
X148001694Y-93191184D01*
X148000000Y-93191184D01*
X147833240Y-93222562D01*
X147680081Y-93321117D01*
X147577332Y-93471495D01*
X147541184Y-93650000D01*
X147541184Y-94550000D01*
X147572562Y-94716760D01*
X147671117Y-94869919D01*
X147821495Y-94972668D01*
X148000000Y-95008816D01*
X149200000Y-95008816D01*
X149366760Y-94977438D01*
X149519919Y-94878883D01*
X149622668Y-94728505D01*
X149658816Y-94550000D01*
X149658816Y-93650000D01*
X149627438Y-93483240D01*
X149528883Y-93330081D01*
X149403689Y-93244539D01*
X150574700Y-92073528D01*
X150574700Y-96035351D01*
X145200166Y-101409885D01*
X145200207Y-101362353D01*
X145017903Y-100921143D01*
X144680633Y-100583283D01*
X144637566Y-100565400D01*
X144672343Y-100484475D01*
X144000000Y-99812132D01*
X143327657Y-100484475D01*
X143362301Y-100565091D01*
X143321143Y-100582097D01*
X142983283Y-100919367D01*
X142800209Y-101360258D01*
X142799793Y-101837647D01*
X142982097Y-102278857D01*
X143302943Y-102600265D01*
X143002684Y-102900000D01*
X134996797Y-102900000D01*
X134697057Y-102599735D01*
X135016717Y-102280633D01*
X135199791Y-101839742D01*
X135200207Y-101362353D01*
X135017903Y-100921143D01*
X134680633Y-100583283D01*
X134637566Y-100565400D01*
X134672343Y-100484475D01*
X134000000Y-99812132D01*
X133327657Y-100484475D01*
X133362301Y-100565091D01*
X133321143Y-100582097D01*
X132983283Y-100919367D01*
X132800209Y-101360258D01*
X132799793Y-101837647D01*
X132982097Y-102278857D01*
X133302943Y-102600265D01*
X132983283Y-102919367D01*
X132800209Y-103360258D01*
X132799793Y-103837647D01*
X132982097Y-104278857D01*
X133302943Y-104600265D01*
X132983283Y-104919367D01*
X132800209Y-105360258D01*
X132799793Y-105837647D01*
X132982097Y-106278857D01*
X133118860Y-106415860D01*
X133083240Y-106422562D01*
X132930081Y-106521117D01*
X132827332Y-106671495D01*
X132791184Y-106850000D01*
X132791184Y-108350000D01*
X132822562Y-108516760D01*
X132921117Y-108669919D01*
X133071495Y-108772668D01*
X133210416Y-108800800D01*
X124792601Y-108800800D01*
X124916760Y-108777438D01*
X125069919Y-108678883D01*
X125172668Y-108528505D01*
X125208816Y-108350000D01*
X125208816Y-108198306D01*
X125429910Y-108154328D01*
X125624564Y-108024264D01*
X125625168Y-108023360D01*
X126024264Y-107624264D01*
X126154328Y-107429610D01*
X126200000Y-107200000D01*
X126200000Y-106472526D01*
X132817196Y-99855330D01*
X132824136Y-99938108D01*
X132929460Y-100192383D01*
X133115525Y-100272343D01*
X133787868Y-99600000D01*
X134212132Y-99600000D01*
X134884475Y-100272343D01*
X135070540Y-100192383D01*
X135215745Y-99737612D01*
X135192673Y-99462388D01*
X142784255Y-99462388D01*
X142824136Y-99938108D01*
X142929460Y-100192383D01*
X143115525Y-100272343D01*
X143787868Y-99600000D01*
X144212132Y-99600000D01*
X144884475Y-100272343D01*
X145070540Y-100192383D01*
X145215745Y-99737612D01*
X145175864Y-99261892D01*
X145070540Y-99007617D01*
X144884475Y-98927657D01*
X144212132Y-99600000D01*
X143787868Y-99600000D01*
X143115525Y-98927657D01*
X142929460Y-99007617D01*
X142784255Y-99462388D01*
X135192673Y-99462388D01*
X135175864Y-99261892D01*
X135070540Y-99007617D01*
X134884475Y-98927657D01*
X134212132Y-99600000D01*
X133787868Y-99600000D01*
X133773726Y-99585858D01*
X133985858Y-99373726D01*
X134000000Y-99387868D01*
X134672343Y-98715525D01*
X143327657Y-98715525D01*
X144000000Y-99387868D01*
X144672343Y-98715525D01*
X144592383Y-98529460D01*
X144137612Y-98384255D01*
X143661892Y-98424136D01*
X143407617Y-98529460D01*
X143327657Y-98715525D01*
X134672343Y-98715525D01*
X134592383Y-98529460D01*
X134251809Y-98420717D01*
X135157326Y-97515200D01*
X144485100Y-97515200D01*
X144714710Y-97469528D01*
X144909364Y-97339464D01*
X146824264Y-95424564D01*
X146954328Y-95229910D01*
X146998306Y-95008816D01*
X147000000Y-95008816D01*
X147166760Y-94977438D01*
X147319919Y-94878883D01*
X147422668Y-94728505D01*
X147458816Y-94550000D01*
X147458816Y-93650000D01*
X147427438Y-93483240D01*
X147328883Y-93330081D01*
X147178505Y-93227332D01*
X147000000Y-93191184D01*
X147000000Y-92408816D01*
X147166760Y-92377438D01*
X147319919Y-92278883D01*
X147422668Y-92128505D01*
X147458816Y-91950000D01*
X147458816Y-91050000D01*
X147427438Y-90883240D01*
X147328883Y-90730081D01*
X147178505Y-90627332D01*
X147000000Y-90591184D01*
X145800000Y-90591184D01*
X145633240Y-90622562D01*
X145480081Y-90721117D01*
X145377332Y-90871495D01*
X145341184Y-91050000D01*
X145341184Y-91950000D01*
X145372562Y-92116760D01*
X145471117Y-92269919D01*
X145621495Y-92372668D01*
X145800000Y-92408816D01*
X145800000Y-93191184D01*
X145633240Y-93222562D01*
X145480081Y-93321117D01*
X145377332Y-93471495D01*
X145341184Y-93650000D01*
X145341184Y-94550000D01*
X145372562Y-94716760D01*
X145471117Y-94869919D01*
X145596311Y-94955461D01*
X144236572Y-96315200D01*
X134908798Y-96315200D01*
X134679187Y-96360872D01*
X134484534Y-96490936D01*
X125199847Y-105775623D01*
X125200207Y-105362353D01*
X125017903Y-104921143D01*
X124697057Y-104599735D01*
X125016717Y-104280633D01*
X125199791Y-103839742D01*
X125200207Y-103362353D01*
X125017903Y-102921143D01*
X124697057Y-102599735D01*
X125016717Y-102280633D01*
X125199791Y-101839742D01*
X125200207Y-101362353D01*
X125017903Y-100921143D01*
X124680633Y-100583283D01*
X124637566Y-100565400D01*
X124672343Y-100484475D01*
X124000000Y-99812132D01*
X123985858Y-99826275D01*
X123773726Y-99614143D01*
X123787868Y-99600000D01*
X124212132Y-99600000D01*
X124884475Y-100272343D01*
X125070540Y-100192383D01*
X125215745Y-99737612D01*
X125175864Y-99261892D01*
X125070540Y-99007617D01*
X124884475Y-98927657D01*
X124212132Y-99600000D01*
X123787868Y-99600000D01*
X123773726Y-99585858D01*
X123985858Y-99373726D01*
X124000000Y-99387868D01*
X124672343Y-98715525D01*
X124592383Y-98529460D01*
X124261681Y-98423869D01*
X126094975Y-96590575D01*
X126246715Y-96363479D01*
X126246716Y-96363478D01*
X126259323Y-96300100D01*
X142605100Y-96300100D01*
X142872979Y-96246816D01*
X143100075Y-96095075D01*
X143735272Y-95459877D01*
X143735275Y-95459875D01*
X143887016Y-95232778D01*
X143940300Y-94964900D01*
X143940300Y-86226600D01*
X143913250Y-86090610D01*
X143887016Y-85958721D01*
X143735275Y-85731625D01*
X142908675Y-84905025D01*
X142798962Y-84831717D01*
X142919919Y-84753883D01*
X143022668Y-84603505D01*
X143058816Y-84425000D01*
X143058816Y-83175000D01*
X143027438Y-83008240D01*
X142928883Y-82855081D01*
X142778505Y-82752332D01*
X142600000Y-82716184D01*
X142550000Y-82716184D01*
X142550000Y-82550005D01*
X142550001Y-82550000D01*
X142549957Y-82549776D01*
X142550130Y-82351470D01*
X142436189Y-82075714D01*
X142225395Y-81864552D01*
X141949839Y-81750131D01*
X141651470Y-81749870D01*
X141375714Y-81863811D01*
X141164552Y-82074605D01*
X141050131Y-82350161D01*
X141049870Y-82648530D01*
X141079424Y-82720056D01*
X140933240Y-82747562D01*
X140780081Y-82846117D01*
X140677332Y-82996495D01*
X140641184Y-83175000D01*
X140641184Y-84051234D01*
X140558816Y-83968866D01*
X140558816Y-83175000D01*
X140527438Y-83008240D01*
X140428883Y-82855081D01*
X140278505Y-82752332D01*
X140100000Y-82716184D01*
X138600000Y-82716184D01*
X138433240Y-82747562D01*
X138280081Y-82846117D01*
X138177332Y-82996495D01*
X138156372Y-83100000D01*
X136344704Y-83100000D01*
X136327438Y-83008240D01*
X136228883Y-82855081D01*
X136078505Y-82752332D01*
X135900000Y-82716184D01*
X134400000Y-82716184D01*
X134233240Y-82747562D01*
X134080081Y-82846117D01*
X133977332Y-82996495D01*
X133941184Y-83175000D01*
X133941184Y-84117656D01*
X133858816Y-84035288D01*
X133858816Y-83175000D01*
X133827438Y-83008240D01*
X133728883Y-82855081D01*
X133578505Y-82752332D01*
X133400000Y-82716184D01*
X131900000Y-82716184D01*
X131733240Y-82747562D01*
X131580081Y-82846117D01*
X131477332Y-82996495D01*
X131441184Y-83175000D01*
X131441184Y-84367356D01*
X130399564Y-83325736D01*
X130204910Y-83195672D01*
X129983816Y-83151694D01*
X129983816Y-83000000D01*
X129952438Y-82833240D01*
X129853883Y-82680081D01*
X129703505Y-82577332D01*
X129525000Y-82541184D01*
X128275000Y-82541184D01*
X128108240Y-82572562D01*
X127955081Y-82671117D01*
X127852332Y-82821495D01*
X127816184Y-83000000D01*
X127816184Y-83867656D01*
X127274264Y-83325736D01*
X127083816Y-83198482D01*
X127083816Y-83000000D01*
X127052438Y-82833240D01*
X126953883Y-82680081D01*
X126803505Y-82577332D01*
X126625000Y-82541184D01*
X125375000Y-82541184D01*
X125208240Y-82572562D01*
X125055081Y-82671117D01*
X124952332Y-82821495D01*
X124916184Y-83000000D01*
X124916184Y-84500000D01*
X124947562Y-84666760D01*
X125046117Y-84819919D01*
X125196495Y-84922668D01*
X125375000Y-84958816D01*
X126625000Y-84958816D01*
X126791760Y-84927438D01*
X126944919Y-84828883D01*
X126999895Y-84748423D01*
X127213900Y-84962428D01*
X127213900Y-87865372D01*
X126778467Y-87429939D01*
X126791760Y-87427438D01*
X126944919Y-87328883D01*
X127047668Y-87178505D01*
X127083816Y-87000000D01*
X127083816Y-85500000D01*
X127052438Y-85333240D01*
X126953883Y-85180081D01*
X126803505Y-85077332D01*
X126625000Y-85041184D01*
X125375000Y-85041184D01*
X125208240Y-85072562D01*
X125055081Y-85171117D01*
X124952332Y-85321495D01*
X124916184Y-85500000D01*
X124916184Y-87000000D01*
X124947562Y-87166760D01*
X125046117Y-87319919D01*
X125196495Y-87422668D01*
X125375000Y-87458816D01*
X125400000Y-87458816D01*
X125400000Y-87500000D01*
X125445672Y-87729610D01*
X125575736Y-87924264D01*
X125838360Y-88186888D01*
X125749839Y-88150131D01*
X125451470Y-88149870D01*
X125175714Y-88263811D01*
X124964552Y-88474605D01*
X124850131Y-88750161D01*
X124849870Y-89048530D01*
X124950000Y-89290861D01*
X124950000Y-89316184D01*
X124900000Y-89316184D01*
X124733240Y-89347562D01*
X124580081Y-89446117D01*
X124477332Y-89596495D01*
X124441184Y-89775000D01*
X124441184Y-91025000D01*
X124472562Y-91191760D01*
X124571117Y-91344919D01*
X124721495Y-91447668D01*
X124900000Y-91483816D01*
X126400000Y-91483816D01*
X126566760Y-91452438D01*
X126719919Y-91353883D01*
X126822668Y-91203505D01*
X126858816Y-91025000D01*
X126858816Y-91007344D01*
X127049914Y-91198442D01*
X127049870Y-91248530D01*
X127163811Y-91524286D01*
X127374605Y-91735448D01*
X127650161Y-91849869D01*
X127948530Y-91850130D01*
X128166184Y-91760196D01*
X128166184Y-91865000D01*
X128197562Y-92031760D01*
X128296117Y-92184919D01*
X128316442Y-92198806D01*
X128305081Y-92206117D01*
X128202332Y-92356495D01*
X128166184Y-92535000D01*
X128166184Y-93135000D01*
X128197562Y-93301760D01*
X128296117Y-93454919D01*
X128316442Y-93468806D01*
X128305081Y-93476117D01*
X128202332Y-93626495D01*
X128166184Y-93805000D01*
X128166184Y-94405000D01*
X128197562Y-94571760D01*
X128296117Y-94724919D01*
X128446495Y-94827668D01*
X128625000Y-94863816D01*
X130175000Y-94863816D01*
X130341760Y-94832438D01*
X130494919Y-94733883D01*
X130514654Y-94705000D01*
X133683299Y-94705000D01*
X133696117Y-94724919D01*
X133846495Y-94827668D01*
X134025000Y-94863816D01*
X135575000Y-94863816D01*
X135741760Y-94832438D01*
X135894919Y-94733883D01*
X135914654Y-94705000D01*
X135944210Y-94705000D01*
X135974605Y-94735448D01*
X136250161Y-94849869D01*
X136548530Y-94850130D01*
X136824286Y-94736189D01*
X137035448Y-94525395D01*
X137149869Y-94249839D01*
X137150130Y-93951470D01*
X137036189Y-93675714D01*
X136825395Y-93464552D01*
X136549839Y-93350131D01*
X136251470Y-93349870D01*
X135975714Y-93463811D01*
X135934453Y-93505000D01*
X135916701Y-93505000D01*
X135903883Y-93485081D01*
X135883558Y-93471194D01*
X135894919Y-93463883D01*
X135997668Y-93313505D01*
X136033816Y-93135000D01*
X136033816Y-92535000D01*
X136002438Y-92368240D01*
X135971260Y-92319788D01*
X137100436Y-93448964D01*
X137295090Y-93579028D01*
X137524700Y-93624700D01*
X138141184Y-93624700D01*
X138141184Y-94725000D01*
X138172562Y-94891760D01*
X138177929Y-94900100D01*
X126648096Y-94900100D01*
X126719919Y-94853883D01*
X126822668Y-94703505D01*
X126858816Y-94525000D01*
X126858816Y-93275000D01*
X126827438Y-93108240D01*
X126728883Y-92955081D01*
X126578505Y-92852332D01*
X126400000Y-92816184D01*
X124900000Y-92816184D01*
X124733240Y-92847562D01*
X124580081Y-92946117D01*
X124477332Y-93096495D01*
X124441184Y-93275000D01*
X124441184Y-94525000D01*
X124472562Y-94691760D01*
X124571117Y-94844919D01*
X124721495Y-94947668D01*
X124900000Y-94983816D01*
X124900000Y-95500000D01*
X124919891Y-95600000D01*
X124900000Y-95700000D01*
X124900000Y-95805650D01*
X122204325Y-98501325D01*
X122052584Y-98728421D01*
X122052584Y-98728422D01*
X121999300Y-98996300D01*
X119525000Y-98996300D01*
X119525000Y-94162500D01*
X121950000Y-94162500D01*
X121950000Y-94614510D01*
X122018508Y-94779904D01*
X122145095Y-94906491D01*
X122310489Y-94975000D01*
X122887500Y-94975000D01*
X123000000Y-94862500D01*
X123000000Y-94050000D01*
X123300000Y-94050000D01*
X123300000Y-94862500D01*
X123412500Y-94975000D01*
X123989511Y-94975000D01*
X124154905Y-94906491D01*
X124281492Y-94779904D01*
X124350000Y-94614510D01*
X124350000Y-94162500D01*
X124237500Y-94050000D01*
X123300000Y-94050000D01*
X123000000Y-94050000D01*
X122062500Y-94050000D01*
X121950000Y-94162500D01*
X119525000Y-94162500D01*
X119525000Y-93185490D01*
X121950000Y-93185490D01*
X121950000Y-93637500D01*
X122062500Y-93750000D01*
X123000000Y-93750000D01*
X123000000Y-92937500D01*
X123300000Y-92937500D01*
X123300000Y-93750000D01*
X124237500Y-93750000D01*
X124350000Y-93637500D01*
X124350000Y-93185490D01*
X124281492Y-93020096D01*
X124154905Y-92893509D01*
X123989511Y-92825000D01*
X123412500Y-92825000D01*
X123300000Y-92937500D01*
X123000000Y-92937500D01*
X122887500Y-92825000D01*
X122310489Y-92825000D01*
X122145095Y-92893509D01*
X122018508Y-93020096D01*
X121950000Y-93185490D01*
X119525000Y-93185490D01*
X119525000Y-90662500D01*
X121950000Y-90662500D01*
X121950000Y-91114510D01*
X122018508Y-91279904D01*
X122145095Y-91406491D01*
X122310489Y-91475000D01*
X122887500Y-91475000D01*
X123000000Y-91362500D01*
X123000000Y-90550000D01*
X123300000Y-90550000D01*
X123300000Y-91362500D01*
X123412500Y-91475000D01*
X123989511Y-91475000D01*
X124154905Y-91406491D01*
X124281492Y-91279904D01*
X124350000Y-91114510D01*
X124350000Y-90662500D01*
X124237500Y-90550000D01*
X123300000Y-90550000D01*
X123000000Y-90550000D01*
X122062500Y-90550000D01*
X121950000Y-90662500D01*
X119525000Y-90662500D01*
X119525000Y-89685490D01*
X121950000Y-89685490D01*
X121950000Y-90137500D01*
X122062500Y-90250000D01*
X123000000Y-90250000D01*
X123000000Y-89437500D01*
X123300000Y-89437500D01*
X123300000Y-90250000D01*
X124237500Y-90250000D01*
X124350000Y-90137500D01*
X124350000Y-89685490D01*
X124281492Y-89520096D01*
X124154905Y-89393509D01*
X123989511Y-89325000D01*
X123412500Y-89325000D01*
X123300000Y-89437500D01*
X123000000Y-89437500D01*
X122887500Y-89325000D01*
X122310489Y-89325000D01*
X122145095Y-89393509D01*
X122018508Y-89520096D01*
X121950000Y-89685490D01*
X119525000Y-89685490D01*
X119525000Y-85500000D01*
X122016184Y-85500000D01*
X122016184Y-87000000D01*
X122047562Y-87166760D01*
X122146117Y-87319919D01*
X122296495Y-87422668D01*
X122394808Y-87442577D01*
X122350135Y-87550161D01*
X122349874Y-87848530D01*
X122463815Y-88124286D01*
X122674609Y-88335448D01*
X122950165Y-88449869D01*
X123248534Y-88450130D01*
X123524290Y-88336189D01*
X123735452Y-88125395D01*
X123849873Y-87849839D01*
X123850134Y-87551470D01*
X123805585Y-87443653D01*
X123891760Y-87427438D01*
X124044919Y-87328883D01*
X124147668Y-87178505D01*
X124183816Y-87000000D01*
X124183816Y-85500000D01*
X124152438Y-85333240D01*
X124053883Y-85180081D01*
X123903505Y-85077332D01*
X123725000Y-85041184D01*
X122475000Y-85041184D01*
X122308240Y-85072562D01*
X122155081Y-85171117D01*
X122052332Y-85321495D01*
X122016184Y-85500000D01*
X119525000Y-85500000D01*
X119525000Y-83000000D01*
X122016184Y-83000000D01*
X122016184Y-84500000D01*
X122047562Y-84666760D01*
X122146117Y-84819919D01*
X122296495Y-84922668D01*
X122475000Y-84958816D01*
X123725000Y-84958816D01*
X123891760Y-84927438D01*
X124044919Y-84828883D01*
X124147668Y-84678505D01*
X124183816Y-84500000D01*
X124183816Y-83000000D01*
X124152438Y-82833240D01*
X124053883Y-82680081D01*
X123903505Y-82577332D01*
X123843499Y-82565181D01*
X123849869Y-82549841D01*
X123850130Y-82251472D01*
X123736189Y-81975716D01*
X123525395Y-81764554D01*
X123249839Y-81650133D01*
X122951470Y-81649872D01*
X122675714Y-81763813D01*
X122464552Y-81974607D01*
X122350131Y-82250163D01*
X122349870Y-82548532D01*
X122356080Y-82563560D01*
X122308240Y-82572562D01*
X122155081Y-82671117D01*
X122052332Y-82821495D01*
X122016184Y-83000000D01*
X119525000Y-83000000D01*
X119525000Y-81525000D01*
X178475000Y-81525000D01*
X178475000Y-106144123D01*
X178475000Y-106144123D01*
G37*
X178475000Y-106144123D02*
X178377995Y-106077842D01*
X178199490Y-106041694D01*
X176200510Y-106041694D01*
X176033750Y-106073072D01*
X175880591Y-106171627D01*
X175777842Y-106322005D01*
X175741694Y-106500510D01*
X175741694Y-106517489D01*
X175713341Y-106475056D01*
X175442423Y-106294035D01*
X176194975Y-105541483D01*
X176346716Y-105314387D01*
X176400000Y-105046508D01*
X176400000Y-88600000D01*
X176389792Y-88548679D01*
X176346716Y-88332121D01*
X176194975Y-88105025D01*
X175044964Y-86955014D01*
X174817868Y-86803273D01*
X174549989Y-86749989D01*
X169100016Y-86749989D01*
X169100011Y-86749988D01*
X168832132Y-86803273D01*
X168769684Y-86845000D01*
X168605036Y-86955014D01*
X168605034Y-86955017D01*
X167718462Y-87841588D01*
X167678883Y-87780081D01*
X167528505Y-87677332D01*
X167350000Y-87641184D01*
X166450000Y-87641184D01*
X166283240Y-87672562D01*
X166130081Y-87771117D01*
X166027332Y-87921495D01*
X165991184Y-88100000D01*
X165991184Y-89300000D01*
X166022562Y-89466760D01*
X166121117Y-89619919D01*
X166271495Y-89722668D01*
X166450000Y-89758816D01*
X167350000Y-89758816D01*
X167402543Y-89748929D01*
X164487219Y-92664253D01*
X164500000Y-92600000D01*
X164500000Y-92408816D01*
X164666760Y-92377438D01*
X164819919Y-92278883D01*
X164922668Y-92128505D01*
X164958816Y-91950000D01*
X164958816Y-91050000D01*
X164927438Y-90883240D01*
X164828883Y-90730081D01*
X164678505Y-90627332D01*
X164500000Y-90591184D01*
X164500000Y-89648875D01*
X164569919Y-89603883D01*
X164672668Y-89453505D01*
X164708816Y-89275000D01*
X164708816Y-88525000D01*
X164677438Y-88358240D01*
X164578883Y-88205081D01*
X164428505Y-88102332D01*
X164250000Y-88066184D01*
X163050000Y-88066184D01*
X162883240Y-88097562D01*
X162730081Y-88196117D01*
X162700744Y-88239054D01*
X162678883Y-88205081D01*
X162528505Y-88102332D01*
X162350000Y-88066184D01*
X162268109Y-88066184D01*
X162174264Y-87925736D01*
X161824264Y-87575736D01*
X161629610Y-87445672D01*
X161400000Y-87400000D01*
X159935000Y-87400000D01*
X159935000Y-86776228D01*
X160541184Y-86170044D01*
X160541184Y-86825000D01*
X160572562Y-86991760D01*
X160671117Y-87144919D01*
X160821495Y-87247668D01*
X161000000Y-87283816D01*
X162500000Y-87283816D01*
X162666760Y-87252438D01*
X162819919Y-87153883D01*
X162922668Y-87003505D01*
X162958816Y-86825000D01*
X162958816Y-85724700D01*
X163041184Y-85724700D01*
X163041184Y-86825000D01*
X163072562Y-86991760D01*
X163171117Y-87144919D01*
X163321495Y-87247668D01*
X163500000Y-87283816D01*
X165000000Y-87283816D01*
X165166760Y-87252438D01*
X165319919Y-87153883D01*
X165356736Y-87100000D01*
X165991184Y-87100000D01*
X166022562Y-87266760D01*
X166121117Y-87419919D01*
X166271495Y-87522668D01*
X166450000Y-87558816D01*
X167350000Y-87558816D01*
X167516760Y-87527438D01*
X167669919Y-87428883D01*
X167772668Y-87278505D01*
X167808816Y-87100000D01*
X167808816Y-86289712D01*
X168698528Y-85400000D01*
X169353613Y-85400000D01*
X169374509Y-85450572D01*
X169697727Y-85774354D01*
X170120247Y-85949800D01*
X170577746Y-85950199D01*
X171000572Y-85775491D01*
X171324354Y-85452273D01*
X171349846Y-85390882D01*
X171374509Y-85450572D01*
X171697727Y-85774354D01*
X172120247Y-85949800D01*
X172577746Y-85950199D01*
X173000572Y-85775491D01*
X173324354Y-85452273D01*
X173349846Y-85390882D01*
X173374509Y-85450572D01*
X173697727Y-85774354D01*
X174120247Y-85949800D01*
X174577746Y-85950199D01*
X175000572Y-85775491D01*
X175324354Y-85452273D01*
X175499800Y-85029753D01*
X175500199Y-84572254D01*
X175325491Y-84149428D01*
X175002273Y-83825646D01*
X174940882Y-83800154D01*
X175000572Y-83775491D01*
X175324354Y-83452273D01*
X175499800Y-83029753D01*
X175500199Y-82572254D01*
X175325491Y-82149428D01*
X175002273Y-81825646D01*
X174579753Y-81650200D01*
X174122254Y-81649801D01*
X173699428Y-81824509D01*
X173375646Y-82147727D01*
X173350154Y-82209118D01*
X173325491Y-82149428D01*
X173002273Y-81825646D01*
X172579753Y-81650200D01*
X172122254Y-81649801D01*
X171699428Y-81824509D01*
X171375646Y-82147727D01*
X171350154Y-82209118D01*
X171325491Y-82149428D01*
X171002273Y-81825646D01*
X170579753Y-81650200D01*
X170122254Y-81649801D01*
X169699428Y-81824509D01*
X169375646Y-82147727D01*
X169200200Y-82570247D01*
X169199801Y-83027746D01*
X169374509Y-83450572D01*
X169697727Y-83774354D01*
X169759118Y-83799846D01*
X169699428Y-83824509D01*
X169375646Y-84147727D01*
X169353940Y-84200000D01*
X168450000Y-84200000D01*
X168220390Y-84245672D01*
X168025736Y-84375736D01*
X166960288Y-85441184D01*
X166450000Y-85441184D01*
X166283240Y-85472562D01*
X166130081Y-85571117D01*
X166027332Y-85721495D01*
X165991184Y-85900000D01*
X165458816Y-85900000D01*
X165458816Y-85575000D01*
X165427438Y-85408240D01*
X165328883Y-85255081D01*
X165178505Y-85152332D01*
X165000000Y-85116184D01*
X164132644Y-85116184D01*
X164424264Y-84824564D01*
X164554328Y-84629911D01*
X164598306Y-84408816D01*
X164600000Y-84408816D01*
X164766760Y-84377438D01*
X164919919Y-84278883D01*
X165022668Y-84128505D01*
X165058816Y-83950000D01*
X165058816Y-83050000D01*
X165027438Y-82883240D01*
X164928883Y-82730081D01*
X164778505Y-82627332D01*
X164600000Y-82591184D01*
X163400000Y-82591184D01*
X163233240Y-82622562D01*
X163080081Y-82721117D01*
X162977332Y-82871495D01*
X162941184Y-83050000D01*
X162941184Y-83950000D01*
X162972562Y-84116760D01*
X163071117Y-84269919D01*
X163196311Y-84355461D01*
X163027072Y-84524700D01*
X162375255Y-84524700D01*
X162398306Y-84408816D01*
X162400000Y-84408816D01*
X162566760Y-84377438D01*
X162719919Y-84278883D01*
X162822668Y-84128505D01*
X162858816Y-83950000D01*
X162858816Y-83050000D01*
X162827438Y-82883240D01*
X162728883Y-82730081D01*
X162578505Y-82627332D01*
X162400000Y-82591184D01*
X161200000Y-82591184D01*
X161033240Y-82622562D01*
X160880081Y-82721117D01*
X160777332Y-82871495D01*
X160741184Y-83050000D01*
X160741184Y-83950000D01*
X160772562Y-84116760D01*
X160821445Y-84192727D01*
X159009228Y-86004944D01*
X158864511Y-85945000D01*
X158262500Y-85945000D01*
X158150000Y-86057500D01*
X158150000Y-86545000D01*
X158170000Y-86545000D01*
X158170000Y-86845000D01*
X158150000Y-86845000D01*
X158150000Y-86865000D01*
X157850000Y-86865000D01*
X157850000Y-86845000D01*
X157830000Y-86845000D01*
X157830000Y-86545000D01*
X157850000Y-86545000D01*
X157850000Y-86057500D01*
X157737500Y-85945000D01*
X157374700Y-85945000D01*
X157374700Y-84875000D01*
X157329028Y-84645390D01*
X157201758Y-84454917D01*
X157319919Y-84378883D01*
X157422668Y-84228505D01*
X157458816Y-84050000D01*
X157458816Y-83150000D01*
X157427438Y-82983240D01*
X157328883Y-82830081D01*
X157178505Y-82727332D01*
X157000000Y-82691184D01*
X155800000Y-82691184D01*
X155633240Y-82722562D01*
X155480081Y-82821117D01*
X155377332Y-82971495D01*
X155341184Y-83150000D01*
X155341184Y-84050000D01*
X155372562Y-84216760D01*
X155471117Y-84369919D01*
X155621495Y-84472668D01*
X155800000Y-84508816D01*
X155801694Y-84508816D01*
X155845672Y-84729910D01*
X155975736Y-84924564D01*
X156174700Y-85123528D01*
X156174700Y-89235000D01*
X156220372Y-89464610D01*
X156350436Y-89659264D01*
X156545090Y-89789328D01*
X156774700Y-89835000D01*
X156883299Y-89835000D01*
X156896117Y-89854919D01*
X156916442Y-89868806D01*
X156905081Y-89876117D01*
X156802332Y-90026495D01*
X156766184Y-90205000D01*
X156766184Y-90805000D01*
X156797562Y-90971760D01*
X156896117Y-91124919D01*
X157046495Y-91227668D01*
X157225000Y-91263816D01*
X157300000Y-91263816D01*
X157300000Y-91510044D01*
X157295899Y-91514145D01*
X157175714Y-91563805D01*
X156964552Y-91774599D01*
X156914211Y-91895833D01*
X156805026Y-92005018D01*
X156653285Y-92232114D01*
X156625327Y-92372668D01*
X156600001Y-92499993D01*
X156600001Y-92841184D01*
X156300000Y-92841184D01*
X156133240Y-92872562D01*
X155980081Y-92971117D01*
X155877332Y-93121495D01*
X155841184Y-93300000D01*
X155841184Y-94900000D01*
X155872562Y-95066760D01*
X155971117Y-95219919D01*
X156121495Y-95322668D01*
X156300000Y-95358816D01*
X158300000Y-95358816D01*
X158466760Y-95327438D01*
X158619919Y-95228883D01*
X158722668Y-95078505D01*
X158758816Y-94900000D01*
X158758816Y-93300000D01*
X158727438Y-93133240D01*
X158628883Y-92980081D01*
X158478505Y-92877332D01*
X158300000Y-92841184D01*
X158012183Y-92841184D01*
X158024286Y-92836183D01*
X158235448Y-92625389D01*
X158285789Y-92504155D01*
X158494975Y-92294969D01*
X158646716Y-92067873D01*
X158700001Y-91799994D01*
X158700000Y-91799989D01*
X158700000Y-91263816D01*
X158775000Y-91263816D01*
X158893324Y-91241552D01*
X160897398Y-93245626D01*
X160780081Y-93321117D01*
X160677332Y-93471495D01*
X160641184Y-93650000D01*
X160641184Y-94550000D01*
X160672562Y-94716760D01*
X160771117Y-94869919D01*
X160921495Y-94972668D01*
X161100000Y-95008816D01*
X161100000Y-95791184D01*
X160933240Y-95822562D01*
X160780081Y-95921117D01*
X160677332Y-96071495D01*
X160641184Y-96250000D01*
X160641184Y-97150000D01*
X160672562Y-97316760D01*
X160771117Y-97469919D01*
X160921495Y-97572668D01*
X161100000Y-97608816D01*
X162300000Y-97608816D01*
X162466760Y-97577438D01*
X162619919Y-97478883D01*
X162722668Y-97328505D01*
X162758816Y-97150000D01*
X162758816Y-96250000D01*
X162727438Y-96083240D01*
X162628883Y-95930081D01*
X162478505Y-95827332D01*
X162300000Y-95791184D01*
X162300000Y-95008816D01*
X162466760Y-94977438D01*
X162619919Y-94878883D01*
X162722668Y-94728505D01*
X162758816Y-94550000D01*
X162758816Y-93700000D01*
X162841184Y-93700000D01*
X162841184Y-94550000D01*
X162872562Y-94716760D01*
X162971117Y-94869919D01*
X163121495Y-94972668D01*
X163300000Y-95008816D01*
X164500000Y-95008816D01*
X164666760Y-94977438D01*
X164819919Y-94878883D01*
X164922668Y-94728505D01*
X164958816Y-94550000D01*
X164958816Y-94039712D01*
X165224264Y-93774264D01*
X165354328Y-93579610D01*
X165375535Y-93472993D01*
X169235174Y-89613354D01*
X169374509Y-89950572D01*
X169697727Y-90274354D01*
X169759118Y-90299846D01*
X169699428Y-90324509D01*
X169375646Y-90647727D01*
X169200200Y-91070247D01*
X169199801Y-91527746D01*
X169332954Y-91850001D01*
X169049999Y-91850001D01*
X168820389Y-91895673D01*
X168625735Y-92025737D01*
X164765024Y-95886448D01*
X164678505Y-95827332D01*
X164500000Y-95791184D01*
X163300000Y-95791184D01*
X163133240Y-95822562D01*
X162980081Y-95921117D01*
X162877332Y-96071495D01*
X162841184Y-96250000D01*
X162841184Y-97150000D01*
X162872562Y-97316760D01*
X162971117Y-97469919D01*
X163121495Y-97572668D01*
X163300000Y-97608816D01*
X164500000Y-97608816D01*
X164666760Y-97577438D01*
X164819919Y-97478883D01*
X164922668Y-97328505D01*
X164933831Y-97273379D01*
X165029610Y-97254328D01*
X165224264Y-97124264D01*
X165820782Y-96527746D01*
X169199801Y-96527746D01*
X169374509Y-96950572D01*
X169697727Y-97274354D01*
X170120247Y-97449800D01*
X170577746Y-97450199D01*
X171000572Y-97275491D01*
X171324354Y-96952273D01*
X171499800Y-96529753D01*
X171500199Y-96072254D01*
X171325491Y-95649428D01*
X171002273Y-95325646D01*
X170579753Y-95150200D01*
X170122254Y-95149801D01*
X169699428Y-95324509D01*
X169375646Y-95647727D01*
X169200200Y-96070247D01*
X169199801Y-96527746D01*
X165820782Y-96527746D01*
X169298527Y-93050001D01*
X173199999Y-93050001D01*
X173429609Y-93004329D01*
X173624263Y-92874265D01*
X174069712Y-92428816D01*
X174120247Y-92449800D01*
X174577746Y-92450199D01*
X175000000Y-92275727D01*
X175000000Y-95324702D01*
X174579753Y-95150200D01*
X174122254Y-95149801D01*
X173699428Y-95324509D01*
X173375646Y-95647727D01*
X173200200Y-96070247D01*
X173199801Y-96527746D01*
X173374509Y-96950572D01*
X173697727Y-97274354D01*
X174120247Y-97449800D01*
X174577746Y-97450199D01*
X175000000Y-97275727D01*
X175000000Y-104756558D01*
X174165025Y-105591533D01*
X174013284Y-105818629D01*
X173992272Y-105924264D01*
X173960000Y-106086508D01*
X173960000Y-106238961D01*
X173606659Y-106475056D01*
X173390000Y-106799309D01*
X173173341Y-106475056D01*
X172703093Y-106160846D01*
X172148397Y-106050510D01*
X172091603Y-106050510D01*
X171536907Y-106160846D01*
X171066659Y-106475056D01*
X170752449Y-106945304D01*
X170642113Y-107500000D01*
X170752449Y-108054696D01*
X171066659Y-108524944D01*
X171536907Y-108839154D01*
X172091603Y-108949490D01*
X172148397Y-108949490D01*
X172703093Y-108839154D01*
X173173341Y-108524944D01*
X173390000Y-108200691D01*
X173606659Y-108524944D01*
X174076907Y-108839154D01*
X174631603Y-108949490D01*
X174688397Y-108949490D01*
X175243093Y-108839154D01*
X175713341Y-108524944D01*
X175741694Y-108482511D01*
X175741694Y-108499490D01*
X175773072Y-108666250D01*
X175871627Y-108819409D01*
X176022005Y-108922158D01*
X176200510Y-108958306D01*
X178199490Y-108958306D01*
X178366250Y-108926928D01*
X178475000Y-108856949D01*
X178475000Y-110475000D01*
X119525000Y-110475000D01*
X119525000Y-98996300D01*
X121999300Y-98996300D01*
X121999300Y-108583800D01*
X122052584Y-108851679D01*
X122204325Y-109078775D01*
X123121325Y-109995775D01*
X123348421Y-110147516D01*
X123616300Y-110200800D01*
X162309400Y-110200800D01*
X162577279Y-110147516D01*
X162804375Y-109995775D01*
X164593788Y-108206361D01*
X164806659Y-108524944D01*
X165276907Y-108839154D01*
X165831603Y-108949490D01*
X165888397Y-108949490D01*
X166443093Y-108839154D01*
X166913341Y-108524944D01*
X166941694Y-108482511D01*
X166941694Y-108499490D01*
X166973072Y-108666250D01*
X167071627Y-108819409D01*
X167222005Y-108922158D01*
X167400510Y-108958306D01*
X169399490Y-108958306D01*
X169566250Y-108926928D01*
X169719409Y-108828373D01*
X169822158Y-108677995D01*
X169858306Y-108499490D01*
X169858306Y-106500510D01*
X169826928Y-106333750D01*
X169728373Y-106180591D01*
X169577995Y-106077842D01*
X169399490Y-106041694D01*
X167400510Y-106041694D01*
X167233750Y-106073072D01*
X167080591Y-106171627D01*
X166977842Y-106322005D01*
X166941694Y-106500510D01*
X166941694Y-106517489D01*
X166913341Y-106475056D01*
X166443093Y-106160846D01*
X165888397Y-106050510D01*
X165831603Y-106050510D01*
X165276907Y-106160846D01*
X164806659Y-106475056D01*
X164589538Y-106800000D01*
X164310200Y-106800000D01*
X164042322Y-106853284D01*
X163815225Y-107005025D01*
X163815223Y-107005028D01*
X162019450Y-108800800D01*
X154947728Y-108800800D01*
X157114712Y-106633816D01*
X158075000Y-106633816D01*
X158241760Y-106602438D01*
X158394919Y-106503883D01*
X158497668Y-106353505D01*
X158533816Y-106175000D01*
X158533816Y-104825000D01*
X158502438Y-104658240D01*
X158403883Y-104505081D01*
X158253505Y-104402332D01*
X158116305Y-104374548D01*
X158353172Y-104138093D01*
X158524804Y-103724758D01*
X158525195Y-103277205D01*
X158354285Y-102863571D01*
X158038093Y-102546828D01*
X157624758Y-102375196D01*
X157177205Y-102374805D01*
X156763571Y-102545715D01*
X156446828Y-102861907D01*
X156431010Y-102900000D01*
X156369337Y-102900000D01*
X156354285Y-102863571D01*
X156038093Y-102546828D01*
X155624758Y-102375196D01*
X155177205Y-102374805D01*
X154763571Y-102545715D01*
X154446828Y-102861907D01*
X154275196Y-103275242D01*
X154274805Y-103722795D01*
X154445715Y-104136429D01*
X154761907Y-104453172D01*
X154874446Y-104499902D01*
X154763571Y-104545715D01*
X154446828Y-104861907D01*
X154389487Y-105000000D01*
X145050486Y-105000000D01*
X145017903Y-104921143D01*
X144697057Y-104599735D01*
X145016717Y-104280633D01*
X145199791Y-103839742D01*
X145200183Y-103389767D01*
X151769672Y-96820277D01*
X151769675Y-96820275D01*
X151921416Y-96593178D01*
X151974700Y-96325300D01*
X151974700Y-95222367D01*
X152121495Y-95322668D01*
X152300000Y-95358816D01*
X154300000Y-95358816D01*
X154466760Y-95327438D01*
X154619919Y-95228883D01*
X154722668Y-95078505D01*
X154758816Y-94900000D01*
X154758816Y-93300000D01*
X154727438Y-93133240D01*
X154628883Y-92980081D01*
X154478505Y-92877332D01*
X154300000Y-92841184D01*
X154157044Y-92841184D01*
X154249564Y-92748664D01*
X154379628Y-92554011D01*
X154425300Y-92324400D01*
X154425300Y-89235000D01*
X154379628Y-89005390D01*
X154249564Y-88810736D01*
X154054910Y-88680672D01*
X153825300Y-88635000D01*
X153716701Y-88635000D01*
X153703883Y-88615081D01*
X153683558Y-88601194D01*
X153694919Y-88593883D01*
X153797668Y-88443505D01*
X153833816Y-88265000D01*
X153833816Y-87665000D01*
X153802438Y-87498240D01*
X153703883Y-87345081D01*
X153683558Y-87331194D01*
X153694919Y-87323883D01*
X153714654Y-87295000D01*
X153825300Y-87295000D01*
X154054910Y-87249328D01*
X154249564Y-87119264D01*
X154379628Y-86924610D01*
X154425300Y-86695000D01*
X154425300Y-85123528D01*
X154624264Y-84924564D01*
X154754328Y-84729910D01*
X154798306Y-84508816D01*
X154800000Y-84508816D01*
X154966760Y-84477438D01*
X155119919Y-84378883D01*
X155222668Y-84228505D01*
X155258816Y-84050000D01*
X155258816Y-83150000D01*
X155227438Y-82983240D01*
X155128883Y-82830081D01*
X154978505Y-82727332D01*
X154800000Y-82691184D01*
X153600000Y-82691184D01*
X153433240Y-82722562D01*
X153280081Y-82821117D01*
X153177332Y-82971495D01*
X153141184Y-83150000D01*
X153141184Y-84050000D01*
X153172562Y-84216760D01*
X153271117Y-84369919D01*
X153397388Y-84456196D01*
X153270972Y-84645390D01*
X153225300Y-84875000D01*
X153225300Y-85936184D01*
X151825000Y-85936184D01*
X151658240Y-85967562D01*
X151505081Y-86066117D01*
X151485346Y-86095000D01*
X147704700Y-86095000D01*
X147475089Y-86140672D01*
X147280436Y-86270736D01*
X145975736Y-87575436D01*
X145845672Y-87770090D01*
X145801694Y-87991184D01*
X145800000Y-87991184D01*
X145633240Y-88022562D01*
X145480081Y-88121117D01*
X145377332Y-88271495D01*
X145341184Y-88450000D01*
X145341184Y-89350000D01*
X145372562Y-89516760D01*
X145471117Y-89669919D01*
X145621495Y-89772668D01*
X145800000Y-89808816D01*
X147000000Y-89808816D01*
X147166760Y-89777438D01*
X147319919Y-89678883D01*
X147422668Y-89528505D01*
X147458816Y-89350000D01*
X147458816Y-88450000D01*
X147427438Y-88283240D01*
X147328883Y-88130081D01*
X147203689Y-88044539D01*
X147953228Y-87295000D01*
X151483299Y-87295000D01*
X151496117Y-87314919D01*
X151516442Y-87328806D01*
X151505081Y-87336117D01*
X151485346Y-87365000D01*
X151374700Y-87365000D01*
X151200250Y-87399700D01*
X148600000Y-87399700D01*
X148370390Y-87445372D01*
X148175736Y-87575436D01*
X148045672Y-87770090D01*
X148001694Y-87991184D01*
X148000000Y-87991184D01*
X147833240Y-88022562D01*
X147680081Y-88121117D01*
X147577332Y-88271495D01*
X147541184Y-88450000D01*
X147541184Y-89350000D01*
X147572562Y-89516760D01*
X147671117Y-89669919D01*
X147821495Y-89772668D01*
X148000000Y-89808816D01*
X148000000Y-90591184D01*
X147833240Y-90622562D01*
X147680081Y-90721117D01*
X147577332Y-90871495D01*
X147541184Y-91050000D01*
X147541184Y-91950000D01*
X147572562Y-92116760D01*
X147671117Y-92269919D01*
X147821495Y-92372668D01*
X148000000Y-92408816D01*
X148542356Y-92408816D01*
X148175736Y-92775436D01*
X148045672Y-92970090D01*
X148001694Y-93191184D01*
X148000000Y-93191184D01*
X147833240Y-93222562D01*
X147680081Y-93321117D01*
X147577332Y-93471495D01*
X147541184Y-93650000D01*
X147541184Y-94550000D01*
X147572562Y-94716760D01*
X147671117Y-94869919D01*
X147821495Y-94972668D01*
X148000000Y-95008816D01*
X149200000Y-95008816D01*
X149366760Y-94977438D01*
X149519919Y-94878883D01*
X149622668Y-94728505D01*
X149658816Y-94550000D01*
X149658816Y-93650000D01*
X149627438Y-93483240D01*
X149528883Y-93330081D01*
X149403689Y-93244539D01*
X150574700Y-92073528D01*
X150574700Y-96035351D01*
X145200166Y-101409885D01*
X145200207Y-101362353D01*
X145017903Y-100921143D01*
X144680633Y-100583283D01*
X144637566Y-100565400D01*
X144672343Y-100484475D01*
X144000000Y-99812132D01*
X143327657Y-100484475D01*
X143362301Y-100565091D01*
X143321143Y-100582097D01*
X142983283Y-100919367D01*
X142800209Y-101360258D01*
X142799793Y-101837647D01*
X142982097Y-102278857D01*
X143302943Y-102600265D01*
X143002684Y-102900000D01*
X134996797Y-102900000D01*
X134697057Y-102599735D01*
X135016717Y-102280633D01*
X135199791Y-101839742D01*
X135200207Y-101362353D01*
X135017903Y-100921143D01*
X134680633Y-100583283D01*
X134637566Y-100565400D01*
X134672343Y-100484475D01*
X134000000Y-99812132D01*
X133327657Y-100484475D01*
X133362301Y-100565091D01*
X133321143Y-100582097D01*
X132983283Y-100919367D01*
X132800209Y-101360258D01*
X132799793Y-101837647D01*
X132982097Y-102278857D01*
X133302943Y-102600265D01*
X132983283Y-102919367D01*
X132800209Y-103360258D01*
X132799793Y-103837647D01*
X132982097Y-104278857D01*
X133302943Y-104600265D01*
X132983283Y-104919367D01*
X132800209Y-105360258D01*
X132799793Y-105837647D01*
X132982097Y-106278857D01*
X133118860Y-106415860D01*
X133083240Y-106422562D01*
X132930081Y-106521117D01*
X132827332Y-106671495D01*
X132791184Y-106850000D01*
X132791184Y-108350000D01*
X132822562Y-108516760D01*
X132921117Y-108669919D01*
X133071495Y-108772668D01*
X133210416Y-108800800D01*
X124792601Y-108800800D01*
X124916760Y-108777438D01*
X125069919Y-108678883D01*
X125172668Y-108528505D01*
X125208816Y-108350000D01*
X125208816Y-108198306D01*
X125429910Y-108154328D01*
X125624564Y-108024264D01*
X125625168Y-108023360D01*
X126024264Y-107624264D01*
X126154328Y-107429610D01*
X126200000Y-107200000D01*
X126200000Y-106472526D01*
X132817196Y-99855330D01*
X132824136Y-99938108D01*
X132929460Y-100192383D01*
X133115525Y-100272343D01*
X133787868Y-99600000D01*
X134212132Y-99600000D01*
X134884475Y-100272343D01*
X135070540Y-100192383D01*
X135215745Y-99737612D01*
X135192673Y-99462388D01*
X142784255Y-99462388D01*
X142824136Y-99938108D01*
X142929460Y-100192383D01*
X143115525Y-100272343D01*
X143787868Y-99600000D01*
X144212132Y-99600000D01*
X144884475Y-100272343D01*
X145070540Y-100192383D01*
X145215745Y-99737612D01*
X145175864Y-99261892D01*
X145070540Y-99007617D01*
X144884475Y-98927657D01*
X144212132Y-99600000D01*
X143787868Y-99600000D01*
X143115525Y-98927657D01*
X142929460Y-99007617D01*
X142784255Y-99462388D01*
X135192673Y-99462388D01*
X135175864Y-99261892D01*
X135070540Y-99007617D01*
X134884475Y-98927657D01*
X134212132Y-99600000D01*
X133787868Y-99600000D01*
X133773726Y-99585858D01*
X133985858Y-99373726D01*
X134000000Y-99387868D01*
X134672343Y-98715525D01*
X143327657Y-98715525D01*
X144000000Y-99387868D01*
X144672343Y-98715525D01*
X144592383Y-98529460D01*
X144137612Y-98384255D01*
X143661892Y-98424136D01*
X143407617Y-98529460D01*
X143327657Y-98715525D01*
X134672343Y-98715525D01*
X134592383Y-98529460D01*
X134251809Y-98420717D01*
X135157326Y-97515200D01*
X144485100Y-97515200D01*
X144714710Y-97469528D01*
X144909364Y-97339464D01*
X146824264Y-95424564D01*
X146954328Y-95229910D01*
X146998306Y-95008816D01*
X147000000Y-95008816D01*
X147166760Y-94977438D01*
X147319919Y-94878883D01*
X147422668Y-94728505D01*
X147458816Y-94550000D01*
X147458816Y-93650000D01*
X147427438Y-93483240D01*
X147328883Y-93330081D01*
X147178505Y-93227332D01*
X147000000Y-93191184D01*
X147000000Y-92408816D01*
X147166760Y-92377438D01*
X147319919Y-92278883D01*
X147422668Y-92128505D01*
X147458816Y-91950000D01*
X147458816Y-91050000D01*
X147427438Y-90883240D01*
X147328883Y-90730081D01*
X147178505Y-90627332D01*
X147000000Y-90591184D01*
X145800000Y-90591184D01*
X145633240Y-90622562D01*
X145480081Y-90721117D01*
X145377332Y-90871495D01*
X145341184Y-91050000D01*
X145341184Y-91950000D01*
X145372562Y-92116760D01*
X145471117Y-92269919D01*
X145621495Y-92372668D01*
X145800000Y-92408816D01*
X145800000Y-93191184D01*
X145633240Y-93222562D01*
X145480081Y-93321117D01*
X145377332Y-93471495D01*
X145341184Y-93650000D01*
X145341184Y-94550000D01*
X145372562Y-94716760D01*
X145471117Y-94869919D01*
X145596311Y-94955461D01*
X144236572Y-96315200D01*
X134908798Y-96315200D01*
X134679187Y-96360872D01*
X134484534Y-96490936D01*
X125199847Y-105775623D01*
X125200207Y-105362353D01*
X125017903Y-104921143D01*
X124697057Y-104599735D01*
X125016717Y-104280633D01*
X125199791Y-103839742D01*
X125200207Y-103362353D01*
X125017903Y-102921143D01*
X124697057Y-102599735D01*
X125016717Y-102280633D01*
X125199791Y-101839742D01*
X125200207Y-101362353D01*
X125017903Y-100921143D01*
X124680633Y-100583283D01*
X124637566Y-100565400D01*
X124672343Y-100484475D01*
X124000000Y-99812132D01*
X123985858Y-99826275D01*
X123773726Y-99614143D01*
X123787868Y-99600000D01*
X124212132Y-99600000D01*
X124884475Y-100272343D01*
X125070540Y-100192383D01*
X125215745Y-99737612D01*
X125175864Y-99261892D01*
X125070540Y-99007617D01*
X124884475Y-98927657D01*
X124212132Y-99600000D01*
X123787868Y-99600000D01*
X123773726Y-99585858D01*
X123985858Y-99373726D01*
X124000000Y-99387868D01*
X124672343Y-98715525D01*
X124592383Y-98529460D01*
X124261681Y-98423869D01*
X126094975Y-96590575D01*
X126246715Y-96363479D01*
X126246716Y-96363478D01*
X126259323Y-96300100D01*
X142605100Y-96300100D01*
X142872979Y-96246816D01*
X143100075Y-96095075D01*
X143735272Y-95459877D01*
X143735275Y-95459875D01*
X143887016Y-95232778D01*
X143940300Y-94964900D01*
X143940300Y-86226600D01*
X143913250Y-86090610D01*
X143887016Y-85958721D01*
X143735275Y-85731625D01*
X142908675Y-84905025D01*
X142798962Y-84831717D01*
X142919919Y-84753883D01*
X143022668Y-84603505D01*
X143058816Y-84425000D01*
X143058816Y-83175000D01*
X143027438Y-83008240D01*
X142928883Y-82855081D01*
X142778505Y-82752332D01*
X142600000Y-82716184D01*
X142550000Y-82716184D01*
X142550000Y-82550005D01*
X142550001Y-82550000D01*
X142549957Y-82549776D01*
X142550130Y-82351470D01*
X142436189Y-82075714D01*
X142225395Y-81864552D01*
X141949839Y-81750131D01*
X141651470Y-81749870D01*
X141375714Y-81863811D01*
X141164552Y-82074605D01*
X141050131Y-82350161D01*
X141049870Y-82648530D01*
X141079424Y-82720056D01*
X140933240Y-82747562D01*
X140780081Y-82846117D01*
X140677332Y-82996495D01*
X140641184Y-83175000D01*
X140641184Y-84051234D01*
X140558816Y-83968866D01*
X140558816Y-83175000D01*
X140527438Y-83008240D01*
X140428883Y-82855081D01*
X140278505Y-82752332D01*
X140100000Y-82716184D01*
X138600000Y-82716184D01*
X138433240Y-82747562D01*
X138280081Y-82846117D01*
X138177332Y-82996495D01*
X138156372Y-83100000D01*
X136344704Y-83100000D01*
X136327438Y-83008240D01*
X136228883Y-82855081D01*
X136078505Y-82752332D01*
X135900000Y-82716184D01*
X134400000Y-82716184D01*
X134233240Y-82747562D01*
X134080081Y-82846117D01*
X133977332Y-82996495D01*
X133941184Y-83175000D01*
X133941184Y-84117656D01*
X133858816Y-84035288D01*
X133858816Y-83175000D01*
X133827438Y-83008240D01*
X133728883Y-82855081D01*
X133578505Y-82752332D01*
X133400000Y-82716184D01*
X131900000Y-82716184D01*
X131733240Y-82747562D01*
X131580081Y-82846117D01*
X131477332Y-82996495D01*
X131441184Y-83175000D01*
X131441184Y-84367356D01*
X130399564Y-83325736D01*
X130204910Y-83195672D01*
X129983816Y-83151694D01*
X129983816Y-83000000D01*
X129952438Y-82833240D01*
X129853883Y-82680081D01*
X129703505Y-82577332D01*
X129525000Y-82541184D01*
X128275000Y-82541184D01*
X128108240Y-82572562D01*
X127955081Y-82671117D01*
X127852332Y-82821495D01*
X127816184Y-83000000D01*
X127816184Y-83867656D01*
X127274264Y-83325736D01*
X127083816Y-83198482D01*
X127083816Y-83000000D01*
X127052438Y-82833240D01*
X126953883Y-82680081D01*
X126803505Y-82577332D01*
X126625000Y-82541184D01*
X125375000Y-82541184D01*
X125208240Y-82572562D01*
X125055081Y-82671117D01*
X124952332Y-82821495D01*
X124916184Y-83000000D01*
X124916184Y-84500000D01*
X124947562Y-84666760D01*
X125046117Y-84819919D01*
X125196495Y-84922668D01*
X125375000Y-84958816D01*
X126625000Y-84958816D01*
X126791760Y-84927438D01*
X126944919Y-84828883D01*
X126999895Y-84748423D01*
X127213900Y-84962428D01*
X127213900Y-87865372D01*
X126778467Y-87429939D01*
X126791760Y-87427438D01*
X126944919Y-87328883D01*
X127047668Y-87178505D01*
X127083816Y-87000000D01*
X127083816Y-85500000D01*
X127052438Y-85333240D01*
X126953883Y-85180081D01*
X126803505Y-85077332D01*
X126625000Y-85041184D01*
X125375000Y-85041184D01*
X125208240Y-85072562D01*
X125055081Y-85171117D01*
X124952332Y-85321495D01*
X124916184Y-85500000D01*
X124916184Y-87000000D01*
X124947562Y-87166760D01*
X125046117Y-87319919D01*
X125196495Y-87422668D01*
X125375000Y-87458816D01*
X125400000Y-87458816D01*
X125400000Y-87500000D01*
X125445672Y-87729610D01*
X125575736Y-87924264D01*
X125838360Y-88186888D01*
X125749839Y-88150131D01*
X125451470Y-88149870D01*
X125175714Y-88263811D01*
X124964552Y-88474605D01*
X124850131Y-88750161D01*
X124849870Y-89048530D01*
X124950000Y-89290861D01*
X124950000Y-89316184D01*
X124900000Y-89316184D01*
X124733240Y-89347562D01*
X124580081Y-89446117D01*
X124477332Y-89596495D01*
X124441184Y-89775000D01*
X124441184Y-91025000D01*
X124472562Y-91191760D01*
X124571117Y-91344919D01*
X124721495Y-91447668D01*
X124900000Y-91483816D01*
X126400000Y-91483816D01*
X126566760Y-91452438D01*
X126719919Y-91353883D01*
X126822668Y-91203505D01*
X126858816Y-91025000D01*
X126858816Y-91007344D01*
X127049914Y-91198442D01*
X127049870Y-91248530D01*
X127163811Y-91524286D01*
X127374605Y-91735448D01*
X127650161Y-91849869D01*
X127948530Y-91850130D01*
X128166184Y-91760196D01*
X128166184Y-91865000D01*
X128197562Y-92031760D01*
X128296117Y-92184919D01*
X128316442Y-92198806D01*
X128305081Y-92206117D01*
X128202332Y-92356495D01*
X128166184Y-92535000D01*
X128166184Y-93135000D01*
X128197562Y-93301760D01*
X128296117Y-93454919D01*
X128316442Y-93468806D01*
X128305081Y-93476117D01*
X128202332Y-93626495D01*
X128166184Y-93805000D01*
X128166184Y-94405000D01*
X128197562Y-94571760D01*
X128296117Y-94724919D01*
X128446495Y-94827668D01*
X128625000Y-94863816D01*
X130175000Y-94863816D01*
X130341760Y-94832438D01*
X130494919Y-94733883D01*
X130514654Y-94705000D01*
X133683299Y-94705000D01*
X133696117Y-94724919D01*
X133846495Y-94827668D01*
X134025000Y-94863816D01*
X135575000Y-94863816D01*
X135741760Y-94832438D01*
X135894919Y-94733883D01*
X135914654Y-94705000D01*
X135944210Y-94705000D01*
X135974605Y-94735448D01*
X136250161Y-94849869D01*
X136548530Y-94850130D01*
X136824286Y-94736189D01*
X137035448Y-94525395D01*
X137149869Y-94249839D01*
X137150130Y-93951470D01*
X137036189Y-93675714D01*
X136825395Y-93464552D01*
X136549839Y-93350131D01*
X136251470Y-93349870D01*
X135975714Y-93463811D01*
X135934453Y-93505000D01*
X135916701Y-93505000D01*
X135903883Y-93485081D01*
X135883558Y-93471194D01*
X135894919Y-93463883D01*
X135997668Y-93313505D01*
X136033816Y-93135000D01*
X136033816Y-92535000D01*
X136002438Y-92368240D01*
X135971260Y-92319788D01*
X137100436Y-93448964D01*
X137295090Y-93579028D01*
X137524700Y-93624700D01*
X138141184Y-93624700D01*
X138141184Y-94725000D01*
X138172562Y-94891760D01*
X138177929Y-94900100D01*
X126648096Y-94900100D01*
X126719919Y-94853883D01*
X126822668Y-94703505D01*
X126858816Y-94525000D01*
X126858816Y-93275000D01*
X126827438Y-93108240D01*
X126728883Y-92955081D01*
X126578505Y-92852332D01*
X126400000Y-92816184D01*
X124900000Y-92816184D01*
X124733240Y-92847562D01*
X124580081Y-92946117D01*
X124477332Y-93096495D01*
X124441184Y-93275000D01*
X124441184Y-94525000D01*
X124472562Y-94691760D01*
X124571117Y-94844919D01*
X124721495Y-94947668D01*
X124900000Y-94983816D01*
X124900000Y-95500000D01*
X124919891Y-95600000D01*
X124900000Y-95700000D01*
X124900000Y-95805650D01*
X122204325Y-98501325D01*
X122052584Y-98728421D01*
X122052584Y-98728422D01*
X121999300Y-98996300D01*
X119525000Y-98996300D01*
X119525000Y-94162500D01*
X121950000Y-94162500D01*
X121950000Y-94614510D01*
X122018508Y-94779904D01*
X122145095Y-94906491D01*
X122310489Y-94975000D01*
X122887500Y-94975000D01*
X123000000Y-94862500D01*
X123000000Y-94050000D01*
X123300000Y-94050000D01*
X123300000Y-94862500D01*
X123412500Y-94975000D01*
X123989511Y-94975000D01*
X124154905Y-94906491D01*
X124281492Y-94779904D01*
X124350000Y-94614510D01*
X124350000Y-94162500D01*
X124237500Y-94050000D01*
X123300000Y-94050000D01*
X123000000Y-94050000D01*
X122062500Y-94050000D01*
X121950000Y-94162500D01*
X119525000Y-94162500D01*
X119525000Y-93185490D01*
X121950000Y-93185490D01*
X121950000Y-93637500D01*
X122062500Y-93750000D01*
X123000000Y-93750000D01*
X123000000Y-92937500D01*
X123300000Y-92937500D01*
X123300000Y-93750000D01*
X124237500Y-93750000D01*
X124350000Y-93637500D01*
X124350000Y-93185490D01*
X124281492Y-93020096D01*
X124154905Y-92893509D01*
X123989511Y-92825000D01*
X123412500Y-92825000D01*
X123300000Y-92937500D01*
X123000000Y-92937500D01*
X122887500Y-92825000D01*
X122310489Y-92825000D01*
X122145095Y-92893509D01*
X122018508Y-93020096D01*
X121950000Y-93185490D01*
X119525000Y-93185490D01*
X119525000Y-90662500D01*
X121950000Y-90662500D01*
X121950000Y-91114510D01*
X122018508Y-91279904D01*
X122145095Y-91406491D01*
X122310489Y-91475000D01*
X122887500Y-91475000D01*
X123000000Y-91362500D01*
X123000000Y-90550000D01*
X123300000Y-90550000D01*
X123300000Y-91362500D01*
X123412500Y-91475000D01*
X123989511Y-91475000D01*
X124154905Y-91406491D01*
X124281492Y-91279904D01*
X124350000Y-91114510D01*
X124350000Y-90662500D01*
X124237500Y-90550000D01*
X123300000Y-90550000D01*
X123000000Y-90550000D01*
X122062500Y-90550000D01*
X121950000Y-90662500D01*
X119525000Y-90662500D01*
X119525000Y-89685490D01*
X121950000Y-89685490D01*
X121950000Y-90137500D01*
X122062500Y-90250000D01*
X123000000Y-90250000D01*
X123000000Y-89437500D01*
X123300000Y-89437500D01*
X123300000Y-90250000D01*
X124237500Y-90250000D01*
X124350000Y-90137500D01*
X124350000Y-89685490D01*
X124281492Y-89520096D01*
X124154905Y-89393509D01*
X123989511Y-89325000D01*
X123412500Y-89325000D01*
X123300000Y-89437500D01*
X123000000Y-89437500D01*
X122887500Y-89325000D01*
X122310489Y-89325000D01*
X122145095Y-89393509D01*
X122018508Y-89520096D01*
X121950000Y-89685490D01*
X119525000Y-89685490D01*
X119525000Y-85500000D01*
X122016184Y-85500000D01*
X122016184Y-87000000D01*
X122047562Y-87166760D01*
X122146117Y-87319919D01*
X122296495Y-87422668D01*
X122394808Y-87442577D01*
X122350135Y-87550161D01*
X122349874Y-87848530D01*
X122463815Y-88124286D01*
X122674609Y-88335448D01*
X122950165Y-88449869D01*
X123248534Y-88450130D01*
X123524290Y-88336189D01*
X123735452Y-88125395D01*
X123849873Y-87849839D01*
X123850134Y-87551470D01*
X123805585Y-87443653D01*
X123891760Y-87427438D01*
X124044919Y-87328883D01*
X124147668Y-87178505D01*
X124183816Y-87000000D01*
X124183816Y-85500000D01*
X124152438Y-85333240D01*
X124053883Y-85180081D01*
X123903505Y-85077332D01*
X123725000Y-85041184D01*
X122475000Y-85041184D01*
X122308240Y-85072562D01*
X122155081Y-85171117D01*
X122052332Y-85321495D01*
X122016184Y-85500000D01*
X119525000Y-85500000D01*
X119525000Y-83000000D01*
X122016184Y-83000000D01*
X122016184Y-84500000D01*
X122047562Y-84666760D01*
X122146117Y-84819919D01*
X122296495Y-84922668D01*
X122475000Y-84958816D01*
X123725000Y-84958816D01*
X123891760Y-84927438D01*
X124044919Y-84828883D01*
X124147668Y-84678505D01*
X124183816Y-84500000D01*
X124183816Y-83000000D01*
X124152438Y-82833240D01*
X124053883Y-82680081D01*
X123903505Y-82577332D01*
X123843499Y-82565181D01*
X123849869Y-82549841D01*
X123850130Y-82251472D01*
X123736189Y-81975716D01*
X123525395Y-81764554D01*
X123249839Y-81650133D01*
X122951470Y-81649872D01*
X122675714Y-81763813D01*
X122464552Y-81974607D01*
X122350131Y-82250163D01*
X122349870Y-82548532D01*
X122356080Y-82563560D01*
X122308240Y-82572562D01*
X122155081Y-82671117D01*
X122052332Y-82821495D01*
X122016184Y-83000000D01*
X119525000Y-83000000D01*
X119525000Y-81525000D01*
X178475000Y-81525000D01*
X178475000Y-106144123D01*
M02*
