M48
;DRILL file {KiCad 4.0.4-1.fc24-product} date Thu Jan 11 10:47:43 2018
;FORMAT={-:-/ absolute / metric / decimal}
FMAT,2
METRIC,TZ
T1C0.400
T2C0.800
T3C1.097
%
G90
G05
M71
T1
X123.1Y-82.4
X123.1Y-87.7
X125.6Y-88.9
X127.8Y-91.1
X133.34Y-91.066
X135.05Y-88.38
X135.8Y-85.2
X136.4Y-94.1
X137.873Y-90.389
X141.8Y-82.5
X142.217Y-92.678
X157.6Y-92.2
T2
X124.Y-99.6
X124.Y-101.6
X124.Y-103.6
X124.Y-105.6
X124.Y-107.6
X134.Y-99.6
X134.Y-101.6
X134.Y-103.6
X134.Y-105.6
X134.Y-107.6
X144.Y-99.6
X144.Y-101.6
X144.Y-103.6
X144.Y-105.6
X144.Y-107.6
X155.4Y-103.5
X155.4Y-105.5
X157.4Y-103.5
X157.4Y-105.5
X170.35Y-82.8
X170.35Y-84.8
X170.35Y-89.3
X170.35Y-91.3
X170.35Y-96.3
X172.35Y-82.8
X172.35Y-84.8
X172.35Y-89.3
X172.35Y-91.3
X174.35Y-82.8
X174.35Y-84.8
X174.35Y-89.3
X174.35Y-91.3
X174.35Y-96.3
T3
X165.86Y-107.5
X168.4Y-107.5
X172.12Y-107.5
X174.66Y-107.5
X177.2Y-107.5
T0
M30
