%
M48
METRIC,000.000
T01C0.75
T02C1.00
%
T01
X002299Y016200
X002299Y014200
X002299Y012200
X002299Y010200
X022700Y016200
X022700Y014200
X029299Y016200
X029299Y014200
X029299Y012200
X029299Y010200
X049700Y016200
X049700Y014200
X002299Y046200
X002299Y044200
X002299Y042200
X002299Y040200
X022700Y046200
X022700Y044200
X029299Y046200
X029299Y044200
X029299Y042200
X029299Y040200
X049700Y046200
X049700Y044200
T02
X020000Y008000
X020000Y005459
X020000Y002920
X023199Y008000
X023199Y005459
X023199Y002920
X047000Y008000
X047000Y005459
X047000Y002920
X050199Y008000
X050199Y005459
X050199Y002920
X020000Y038000
X020000Y035459
X020000Y032920
X023199Y038000
X023199Y035459
X023199Y032920
X047000Y038000
X047000Y035459
X047000Y032920
X050199Y038000
X050199Y035459
X050199Y032920
X006049Y026500G85X008950Y026500
X006049Y020500G85X008950Y020500
X010000Y015049G85X010000Y015950
X010000Y011049G85X010000Y011950
X010000Y007049G85X010000Y007950
X011049Y026500G85X013950Y026500
X011049Y020500G85X013950Y020500
X011549Y003299G85X013450Y003299
X015000Y015049G85X015000Y015950
X015000Y011049G85X015000Y011950
X015000Y007049G85X015000Y007950
X016049Y026500G85X018950Y026500
X016049Y020500G85X018950Y020500
X033050Y026500G85X035950Y026500
X033050Y020500G85X035950Y020500
X037000Y015049G85X037000Y015950
X037000Y011049G85X037000Y011950
X037000Y007049G85X037000Y007950
X038050Y026500G85X040950Y026500
X038050Y020500G85X040950Y020500
X038550Y003299G85X040450Y003299
X042000Y015049G85X042000Y015950
X042000Y011049G85X042000Y011950
X042000Y007049G85X042000Y007950
X043050Y026500G85X045950Y026500
X043050Y020500G85X045950Y020500
X006049Y056500G85X008950Y056500
X006049Y050500G85X008950Y050500
X010000Y045050G85X010000Y045950
X010000Y041050G85X010000Y041950
X010000Y037050G85X010000Y037950
X011049Y056500G85X013950Y056500
X011049Y050500G85X013950Y050500
X011549Y033300G85X013450Y033300
X015000Y045050G85X015000Y045950
X015000Y041050G85X015000Y041950
X015000Y037050G85X015000Y037950
X016049Y056500G85X018950Y056500
X016049Y050500G85X018950Y050500
X033050Y056500G85X035950Y056500
X033050Y050500G85X035950Y050500
X037000Y045050G85X037000Y045950
X037000Y041050G85X037000Y041950
X037000Y037050G85X037000Y037950
X038050Y056500G85X040950Y056500
X038050Y050500G85X040950Y050500
X038550Y033300G85X040450Y033300
X042000Y045050G85X042000Y045950
X042000Y041050G85X042000Y041950
X042000Y037050G85X042000Y037950
X043050Y056500G85X045950Y056500
X043050Y050500G85X045950Y050500
M30