%MOIN*%
%OFA0B0*%
%FSLAX44Y44*%
%IPPOS*%
%LPD*%
G36*
X00008290Y00000857D02*
G01G01*
X00008298Y00000859D01*
X00008304Y00000863D01*
X00008310Y00000868D01*
X00008313Y00000874D01*
X00008314Y00000882D01*
X00008314Y00011023D01*
X00008267Y00011023D01*
X00008267Y00000882D01*
X00008268Y00000874D01*
X00008271Y00000868D01*
X00008277Y00000863D01*
X00008283Y00000859D01*
X00008290Y00000857D01*
G37*
G36*
X00001550Y00000857D02*
G01G01*
X00001558Y00000859D01*
X00001564Y00000863D01*
X00001569Y00000868D01*
X00001573Y00000874D01*
X00001574Y00000882D01*
X00001574Y00011023D01*
X00001527Y00011023D01*
X00001527Y00000882D01*
X00001528Y00000874D01*
X00001531Y00000868D01*
X00001535Y00000863D01*
X00001543Y00000859D01*
X00001550Y00000857D01*
G37*
G36*
X00008290Y00000857D02*
G01G01*
X00008298Y00000859D01*
X00008304Y00000863D01*
X00008310Y00000868D01*
X00008313Y00000874D01*
X00008314Y00000882D01*
X00008313Y00000889D01*
X00008310Y00000895D01*
X00008304Y00000901D01*
X00008298Y00000903D01*
X00008290Y00000905D01*
X00001550Y00000905D01*
X00001543Y00000903D01*
X00001535Y00000901D01*
X00001531Y00000895D01*
X00001528Y00000889D01*
X00001527Y00000882D01*
X00001528Y00000874D01*
X00001531Y00000868D01*
X00001535Y00000863D01*
X00001543Y00000859D01*
X00001550Y00000857D01*
X00008290Y00000857D01*
G37*
G04 next file*
G36*
X00008290Y00012866D02*
G01G01*
X00008298Y00012867D01*
X00008304Y00012871D01*
X00008310Y00012875D01*
X00008313Y00012881D01*
X00008314Y00012890D01*
X00008314Y00023031D01*
X00008267Y00023031D01*
X00008267Y00012890D01*
X00008268Y00012881D01*
X00008271Y00012875D01*
X00008277Y00012871D01*
X00008283Y00012867D01*
X00008290Y00012866D01*
G37*
G36*
X00001550Y00012866D02*
G01G01*
X00001558Y00012867D01*
X00001564Y00012871D01*
X00001569Y00012875D01*
X00001573Y00012881D01*
X00001574Y00012890D01*
X00001574Y00023031D01*
X00001527Y00023031D01*
X00001527Y00012890D01*
X00001528Y00012881D01*
X00001531Y00012875D01*
X00001535Y00012871D01*
X00001543Y00012867D01*
X00001550Y00012866D01*
G37*
G36*
X00008290Y00012866D02*
G01G01*
X00008298Y00012867D01*
X00008304Y00012871D01*
X00008310Y00012875D01*
X00008313Y00012881D01*
X00008314Y00012890D01*
X00008313Y00012897D01*
X00008310Y00012904D01*
X00008304Y00012909D01*
X00008298Y00012911D01*
X00008290Y00012913D01*
X00001550Y00012913D01*
X00001543Y00012911D01*
X00001535Y00012909D01*
X00001531Y00012904D01*
X00001528Y00012897D01*
X00001527Y00012890D01*
X00001528Y00012881D01*
X00001531Y00012875D01*
X00001535Y00012871D01*
X00001543Y00012867D01*
X00001550Y00012866D01*
X00008290Y00012866D01*
G37*
G04 next file*
G36*
X00019117Y00012866D02*
G01G01*
X00019125Y00012867D01*
X00019131Y00012871D01*
X00019137Y00012875D01*
X00019140Y00012881D01*
X00019141Y00012890D01*
X00019141Y00023031D01*
X00019094Y00023031D01*
X00019094Y00012890D01*
X00019094Y00012881D01*
X00019098Y00012875D01*
X00019104Y00012871D01*
X00019110Y00012867D01*
X00019117Y00012866D01*
G37*
G36*
X00012377Y00012866D02*
G01G01*
X00012385Y00012867D01*
X00012391Y00012871D01*
X00012396Y00012875D01*
X00012400Y00012881D01*
X00012401Y00012890D01*
X00012401Y00023031D01*
X00012354Y00023031D01*
X00012354Y00012890D01*
X00012355Y00012881D01*
X00012358Y00012875D01*
X00012363Y00012871D01*
X00012370Y00012867D01*
X00012377Y00012866D01*
G37*
G36*
X00019117Y00012866D02*
G01G01*
X00019125Y00012867D01*
X00019131Y00012871D01*
X00019137Y00012875D01*
X00019140Y00012881D01*
X00019141Y00012890D01*
X00019140Y00012897D01*
X00019137Y00012904D01*
X00019131Y00012909D01*
X00019125Y00012911D01*
X00019117Y00012913D01*
X00012377Y00012913D01*
X00012370Y00012911D01*
X00012363Y00012909D01*
X00012358Y00012904D01*
X00012355Y00012897D01*
X00012354Y00012890D01*
X00012355Y00012881D01*
X00012358Y00012875D01*
X00012363Y00012871D01*
X00012370Y00012867D01*
X00012377Y00012866D01*
X00019117Y00012866D01*
G37*
G04 next file*
G36*
X00019117Y00000857D02*
G01G01*
X00019125Y00000859D01*
X00019131Y00000863D01*
X00019137Y00000868D01*
X00019140Y00000874D01*
X00019141Y00000882D01*
X00019141Y00011023D01*
X00019094Y00011023D01*
X00019094Y00000882D01*
X00019094Y00000874D01*
X00019098Y00000868D01*
X00019104Y00000863D01*
X00019110Y00000859D01*
X00019117Y00000857D01*
G37*
G36*
X00012377Y00000857D02*
G01G01*
X00012385Y00000859D01*
X00012391Y00000863D01*
X00012396Y00000868D01*
X00012400Y00000874D01*
X00012401Y00000882D01*
X00012401Y00011023D01*
X00012354Y00011023D01*
X00012354Y00000882D01*
X00012355Y00000874D01*
X00012358Y00000868D01*
X00012363Y00000863D01*
X00012370Y00000859D01*
X00012377Y00000857D01*
G37*
G36*
X00019117Y00000857D02*
G01G01*
X00019125Y00000859D01*
X00019131Y00000863D01*
X00019137Y00000868D01*
X00019140Y00000874D01*
X00019141Y00000882D01*
X00019140Y00000889D01*
X00019137Y00000895D01*
X00019131Y00000901D01*
X00019125Y00000903D01*
X00019117Y00000905D01*
X00012377Y00000905D01*
X00012370Y00000903D01*
X00012363Y00000901D01*
X00012358Y00000895D01*
X00012355Y00000889D01*
X00012354Y00000882D01*
X00012355Y00000874D01*
X00012358Y00000868D01*
X00012363Y00000863D01*
X00012370Y00000859D01*
X00012377Y00000857D01*
X00019117Y00000857D01*
G37*
M02*