%MOIN*%
%OFA0B0*%
%FSLAX44Y44*%
%IPPOS*%
%LPD*%
%ADD10C,0*%
D10*
X00009842Y00006708D02*
X00009842Y00006708D01*
X00009842Y00011023D01*
X00006118Y00011023D01*
X00006056Y00011028D01*
X00005996Y00011042D01*
X00005939Y00011066D01*
X00005886Y00011098D01*
X00005839Y00011138D01*
X00005799Y00011185D01*
X00005767Y00011238D01*
X00005743Y00011295D01*
X00005729Y00011355D01*
X00005724Y00011417D01*
X00005729Y00011478D01*
X00005743Y00011538D01*
X00005767Y00011596D01*
X00005799Y00011648D01*
X00005839Y00011695D01*
X00005886Y00011735D01*
X00005939Y00011768D01*
X00005996Y00011791D01*
X00006056Y00011806D01*
X00006118Y00011811D01*
X00006118Y00011811D01*
X00009842Y00011811D01*
X00009842Y00016126D01*
X00010236Y00016126D01*
X00009847Y00016187D01*
X00009861Y00016247D01*
X00009885Y00016304D01*
X00009917Y00016357D01*
X00009957Y00016404D01*
X00010004Y00016444D01*
X00010057Y00016476D01*
X00010114Y00016500D01*
X00010174Y00016514D01*
X00010236Y00016519D01*
X00010297Y00016514D01*
X00010357Y00016500D01*
X00010414Y00016476D01*
X00010467Y00016444D01*
X00010514Y00016404D01*
X00010554Y00016357D01*
X00010587Y00016304D01*
X00010610Y00016247D01*
X00010625Y00016187D01*
X00010629Y00016126D01*
X00010629Y00011811D01*
X00014354Y00011811D01*
X00014446Y00011800D01*
X00014533Y00011768D01*
X00014610Y00011716D01*
X00014672Y00011648D01*
X00014718Y00011567D01*
X00014743Y00011478D01*
X00014746Y00011386D01*
X00014728Y00011295D01*
X00014690Y00011211D01*
X00014632Y00011138D01*
X00014560Y00011081D01*
X00014476Y00011042D01*
X00014385Y00011024D01*
X00014292Y00011028D01*
X00014203Y00011053D01*
X00014123Y00011098D01*
X00014055Y00011161D01*
X00014003Y00011238D01*
X00013971Y00011325D01*
X00014354Y00011417D01*
X00013971Y00011509D01*
X00014003Y00011596D01*
X00014055Y00011673D01*
X00014123Y00011735D01*
X00014203Y00011781D01*
X00014292Y00011806D01*
X00014385Y00011809D01*
X00014476Y00011791D01*
X00014560Y00011753D01*
X00014632Y00011695D01*
X00014690Y00011623D01*
X00014728Y00011538D01*
X00014746Y00011448D01*
X00014743Y00011355D01*
X00014718Y00011266D01*
X00014672Y00011185D01*
X00014610Y00011117D01*
X00014533Y00011066D01*
X00014446Y00011034D01*
X00014354Y00011023D01*
X00010629Y00011023D01*
X00010629Y00006708D01*
X00010625Y00006646D01*
X00010610Y00006586D01*
X00010587Y00006529D01*
X00010554Y00006477D01*
X00010514Y00006430D01*
X00010467Y00006390D01*
X00010414Y00006357D01*
X00010357Y00006334D01*
X00010297Y00006319D01*
X00010236Y00006314D01*
X00010174Y00006319D01*
X00010114Y00006334D01*
X00010057Y00006357D01*
X00010004Y00006390D01*
X00009957Y00006430D01*
X00009917Y00006477D01*
X00009885Y00006529D01*
X00009861Y00006586D01*
X00009847Y00006646D01*
X00010236Y00006708D01*
X00009842Y00006708D01*
X00000000Y00000000D02*
X00000000Y00000000D01*
X00009842Y00000000D01*
X00009842Y00004315D01*
X00010236Y00004315D01*
X00009847Y00004376D01*
X00009861Y00004436D01*
X00009885Y00004493D01*
X00009917Y00004546D01*
X00009957Y00004593D01*
X00010004Y00004633D01*
X00010057Y00004665D01*
X00010114Y00004689D01*
X00010174Y00004703D01*
X00010236Y00004708D01*
X00010297Y00004703D01*
X00010357Y00004689D01*
X00010414Y00004665D01*
X00010467Y00004633D01*
X00010514Y00004593D01*
X00010554Y00004546D01*
X00010587Y00004493D01*
X00010610Y00004436D01*
X00010625Y00004376D01*
X00010629Y00004315D01*
X00010629Y00000000D01*
X00020472Y00000000D01*
X00020472Y00011023D01*
X00016747Y00011023D01*
X00016717Y00011024D01*
X00016686Y00011028D01*
X00016656Y00011034D01*
X00016626Y00011042D01*
X00016597Y00011053D01*
X00016569Y00011066D01*
X00016542Y00011081D01*
X00016516Y00011098D01*
X00016492Y00011117D01*
X00016469Y00011138D01*
X00016448Y00011161D01*
X00016429Y00011185D01*
X00016412Y00011211D01*
X00016397Y00011238D01*
X00016384Y00011266D01*
X00016373Y00011295D01*
X00016365Y00011325D01*
X00016359Y00011355D01*
X00016355Y00011386D01*
X00016747Y00011417D01*
X00016355Y00011448D01*
X00016359Y00011478D01*
X00016365Y00011509D01*
X00016373Y00011538D01*
X00016384Y00011567D01*
X00016397Y00011596D01*
X00016412Y00011623D01*
X00016429Y00011648D01*
X00016448Y00011673D01*
X00016469Y00011695D01*
X00016492Y00011716D01*
X00016516Y00011735D01*
X00016542Y00011753D01*
X00016569Y00011768D01*
X00016597Y00011781D01*
X00016626Y00011791D01*
X00016656Y00011800D01*
X00016686Y00011806D01*
X00016717Y00011809D01*
X00016747Y00011811D01*
X00020472Y00011811D01*
X00020472Y00022834D01*
X00010629Y00022834D01*
X00010629Y00018519D01*
X00010625Y00018457D01*
X00010610Y00018397D01*
X00010587Y00018340D01*
X00010554Y00018288D01*
X00010514Y00018241D01*
X00010467Y00018201D01*
X00010414Y00018168D01*
X00010357Y00018145D01*
X00010297Y00018130D01*
X00010236Y00018125D01*
X00010174Y00018130D01*
X00010114Y00018145D01*
X00010057Y00018168D01*
X00010004Y00018201D01*
X00009957Y00018241D01*
X00009917Y00018288D01*
X00009885Y00018340D01*
X00009861Y00018397D01*
X00009847Y00018457D01*
X00010236Y00018519D01*
X00009842Y00018519D01*
X00009842Y00022834D01*
X00000000Y00022834D01*
X00000000Y00011811D01*
X00003724Y00011811D01*
X00003786Y00011806D01*
X00003846Y00011791D01*
X00003903Y00011768D01*
X00003955Y00011735D01*
X00004002Y00011695D01*
X00004043Y00011648D01*
X00004075Y00011596D01*
X00004098Y00011538D01*
X00004113Y00011478D01*
X00004118Y00011417D01*
X00004113Y00011355D01*
X00004098Y00011295D01*
X00004075Y00011238D01*
X00004043Y00011185D01*
X00004002Y00011138D01*
X00003955Y00011098D01*
X00003903Y00011066D01*
X00003846Y00011042D01*
X00003786Y00011028D01*
X00003724Y00011023D01*
X00003724Y00011023D01*
X00000000Y00011023D01*
X00000000Y00000000D01*
M02*