%MOIN*%
%OFA0B0*%
%FSLAX46Y46*%
%IPPOS*%
%LPD*%
%ADD10C,0.0039370078740157488*%
%ADD11R,0.082677165354330714X0.082677165354330714*%
%ADD12O,0.082677165354330714X0.082677165354330714*%
%ADD13R,0.082677165354330714X0.062992125984251982*%
%ADD14O,0.082677165354330714X0.062992125984251982*%
%ADD15O,0.20078740157480315X0.086614173228346469*%
%ADD16O,0.086614173228346469X0.12204724409448819*%
%ADD17O,0.16141732283464566X0.086614173228346469*%
%ADD28C,0.0039370078740157488*%
%ADD29R,0.082677165354330714X0.082677165354330714*%
%ADD30O,0.082677165354330714X0.082677165354330714*%
%ADD31R,0.082677165354330714X0.062992125984251982*%
%ADD32O,0.082677165354330714X0.062992125984251982*%
%ADD33O,0.20078740157480315X0.086614173228346469*%
%ADD34O,0.086614173228346469X0.12204724409448819*%
%ADD35O,0.16141732283464566X0.086614173228346469*%
%ADD36C,0.0039370078740157488*%
%ADD37R,0.082677165354330714X0.082677165354330714*%
%ADD38O,0.082677165354330714X0.082677165354330714*%
%ADD39R,0.082677165354330714X0.062992125984251982*%
%ADD40O,0.082677165354330714X0.062992125984251982*%
%ADD41O,0.20078740157480315X0.086614173228346469*%
%ADD42O,0.086614173228346469X0.12204724409448819*%
%ADD43O,0.16141732283464566X0.086614173228346469*%
%ADD44C,0.0039370078740157488*%
%ADD45R,0.082677165354330714X0.082677165354330714*%
%ADD46O,0.082677165354330714X0.082677165354330714*%
%ADD47R,0.082677165354330714X0.062992125984251982*%
%ADD48O,0.082677165354330714X0.062992125984251982*%
%ADD49O,0.20078740157480315X0.086614173228346469*%
%ADD50O,0.086614173228346469X0.12204724409448819*%
%ADD51O,0.16141732283464566X0.086614173228346469*%
G01G01*
D10*
D11*
X-0004133858Y0003858267D02*
X0000913385Y0000314960D03*
D12*
X0000913385Y0000214960D03*
X0000913385Y0000114960D03*
D13*
X0000893700Y0000637795D03*
D14*
X0000893700Y0000559055D03*
D11*
X0000787401Y0000314960D03*
D12*
X0000787401Y0000214960D03*
X0000787401Y0000114960D03*
D15*
X0000688976Y0001043307D03*
X0000492125Y0001043307D03*
X0000295275Y0001043307D03*
X0000688976Y0000807086D03*
X0000492125Y0000807086D03*
X0000295275Y0000807086D03*
D16*
X0000393700Y0000610236D03*
X0000393700Y0000452755D03*
X0000393700Y0000295275D03*
X0000590551Y0000610236D03*
X0000590551Y0000452755D03*
X0000590551Y0000295275D03*
D17*
X0000492125Y0000129921D03*
D13*
X0000090551Y0000401574D03*
D14*
X0000090551Y0000480314D03*
X0000090551Y0000559055D03*
X0000090551Y0000637795D03*
G04 next file*
G04 #@! TF.FileFunction,Soldermask,Top*
G04 Gerber Fmt 4.6, Leading zero omitted, Abs format (unit mm)*
G04 Created by KiCad (PCBNEW 4.0.4-1.fc24-product) date Mon Apr 30 17:05:06 2018*
G01G01*
G04 APERTURE LIST*
G04 APERTURE END LIST*
D28*
D29*
X-0003070866Y0003858267D02*
X0001976377Y0000314960D03*
D30*
X0001976377Y0000214960D03*
X0001976377Y0000114960D03*
D31*
X0001956692Y0000637795D03*
D32*
X0001956692Y0000559055D03*
D29*
X0001850393Y0000314960D03*
D30*
X0001850393Y0000214960D03*
X0001850393Y0000114960D03*
D33*
X0001751968Y0001043307D03*
X0001555118Y0001043307D03*
X0001358267Y0001043307D03*
X0001751968Y0000807086D03*
X0001555118Y0000807086D03*
X0001358267Y0000807086D03*
D34*
X0001456692Y0000610236D03*
X0001456692Y0000452755D03*
X0001456692Y0000295275D03*
X0001653543Y0000610236D03*
X0001653543Y0000452755D03*
X0001653543Y0000295275D03*
D35*
X0001555118Y0000129921D03*
D31*
X0001153543Y0000401574D03*
D32*
X0001153543Y0000480314D03*
X0001153543Y0000559055D03*
X0001153543Y0000637795D03*
G04 next file*
G04 #@! TF.FileFunction,Soldermask,Top*
G04 Gerber Fmt 4.6, Leading zero omitted, Abs format (unit mm)*
G04 Created by KiCad (PCBNEW 4.0.4-1.fc24-product) date Mon Apr 30 17:05:06 2018*
G01G01*
G04 APERTURE LIST*
G04 APERTURE END LIST*
D36*
D37*
X-0004133858Y0005039370D02*
X0000913385Y0001496062D03*
D38*
X0000913385Y0001396062D03*
X0000913385Y0001296062D03*
D39*
X0000893700Y0001818897D03*
D40*
X0000893700Y0001740157D03*
D37*
X0000787401Y0001496062D03*
D38*
X0000787401Y0001396062D03*
X0000787401Y0001296062D03*
D41*
X0000688976Y0002224409D03*
X0000492125Y0002224409D03*
X0000295275Y0002224409D03*
X0000688976Y0001988188D03*
X0000492125Y0001988188D03*
X0000295275Y0001988188D03*
D42*
X0000393700Y0001791338D03*
X0000393700Y0001633858D03*
X0000393700Y0001476377D03*
X0000590551Y0001791338D03*
X0000590551Y0001633858D03*
X0000590551Y0001476377D03*
D43*
X0000492125Y0001311023D03*
D39*
X0000090551Y0001582677D03*
D40*
X0000090551Y0001661417D03*
X0000090551Y0001740157D03*
X0000090551Y0001818897D03*
G04 next file*
G04 #@! TF.FileFunction,Soldermask,Top*
G04 Gerber Fmt 4.6, Leading zero omitted, Abs format (unit mm)*
G04 Created by KiCad (PCBNEW 4.0.4-1.fc24-product) date Mon Apr 30 17:05:06 2018*
G01G01*
G04 APERTURE LIST*
G04 APERTURE END LIST*
D44*
D45*
X-0003070866Y0005039370D02*
X0001976377Y0001496062D03*
D46*
X0001976377Y0001396062D03*
X0001976377Y0001296062D03*
D47*
X0001956692Y0001818897D03*
D48*
X0001956692Y0001740157D03*
D45*
X0001850393Y0001496062D03*
D46*
X0001850393Y0001396062D03*
X0001850393Y0001296062D03*
D49*
X0001751968Y0002224409D03*
X0001555118Y0002224409D03*
X0001358267Y0002224409D03*
X0001751968Y0001988188D03*
X0001555118Y0001988188D03*
X0001358267Y0001988188D03*
D50*
X0001456692Y0001791338D03*
X0001456692Y0001633858D03*
X0001456692Y0001476377D03*
X0001653543Y0001791338D03*
X0001653543Y0001633858D03*
X0001653543Y0001476377D03*
D51*
X0001555118Y0001311023D03*
D47*
X0001153543Y0001582677D03*
D48*
X0001153543Y0001661417D03*
X0001153543Y0001740157D03*
X0001153543Y0001818897D03*
M02*