%MOIN*%
%OFA0B0*%
%FSLAX44Y44*%
%IPPOS*%
%LPD*%
%ADD10C,0*%
D10*
X00009842Y00006314D02*
X00009842Y00006314D01*
X00009842Y00011023D01*
X00006231Y00011023D01*
X00006231Y00011023D01*
X00006170Y00011028D01*
X00006110Y00011042D01*
X00006052Y00011066D01*
X00006000Y00011098D01*
X00005953Y00011138D01*
X00005913Y00011185D01*
X00005880Y00011238D01*
X00005857Y00011295D01*
X00005842Y00011355D01*
X00005837Y00011417D01*
X00005842Y00011478D01*
X00005857Y00011538D01*
X00005880Y00011596D01*
X00005913Y00011648D01*
X00005953Y00011695D01*
X00006000Y00011735D01*
X00006052Y00011768D01*
X00006110Y00011791D01*
X00006170Y00011806D01*
X00006231Y00011811D01*
X00009842Y00011811D01*
X00009842Y00016519D01*
X00009842Y00016519D01*
X00009847Y00016581D01*
X00009861Y00016641D01*
X00009885Y00016698D01*
X00009917Y00016751D01*
X00009957Y00016798D01*
X00010004Y00016838D01*
X00010057Y00016870D01*
X00010114Y00016894D01*
X00010174Y00016908D01*
X00010236Y00016913D01*
X00010297Y00016908D01*
X00010357Y00016894D01*
X00010414Y00016870D01*
X00010467Y00016838D01*
X00010514Y00016798D01*
X00010554Y00016751D01*
X00010587Y00016698D01*
X00010610Y00016641D01*
X00010625Y00016581D01*
X00010629Y00016519D01*
X00010629Y00011811D01*
X00014240Y00011811D01*
X00014240Y00011811D01*
X00014302Y00011806D01*
X00014362Y00011791D01*
X00014419Y00011768D01*
X00014472Y00011735D01*
X00014519Y00011695D01*
X00014559Y00011648D01*
X00014591Y00011596D01*
X00014615Y00011538D01*
X00014629Y00011478D01*
X00014634Y00011417D01*
X00014629Y00011355D01*
X00014615Y00011295D01*
X00014591Y00011238D01*
X00014559Y00011185D01*
X00014519Y00011138D01*
X00014472Y00011098D01*
X00014419Y00011066D01*
X00014362Y00011042D01*
X00014302Y00011028D01*
X00014240Y00011023D01*
X00010629Y00011023D01*
X00010629Y00006314D01*
X00010629Y00006314D01*
X00010625Y00006253D01*
X00010610Y00006193D01*
X00010587Y00006136D01*
X00010554Y00006083D01*
X00010514Y00006036D01*
X00010467Y00005996D01*
X00010414Y00005964D01*
X00010357Y00005940D01*
X00010297Y00005926D01*
X00010236Y00005921D01*
X00010174Y00005926D01*
X00010114Y00005940D01*
X00010057Y00005964D01*
X00010004Y00005996D01*
X00009957Y00006036D01*
X00009917Y00006083D01*
X00009885Y00006136D01*
X00009861Y00006193D01*
X00009847Y00006253D01*
X00009842Y00006314D01*
X00000000Y00000000D02*
X00000000Y00000000D01*
X00009842Y00000000D01*
X00009842Y00003921D01*
X00009847Y00003982D01*
X00009861Y00004043D01*
X00009885Y00004100D01*
X00009917Y00004152D01*
X00009957Y00004199D01*
X00010004Y00004239D01*
X00010057Y00004272D01*
X00010114Y00004295D01*
X00010174Y00004310D01*
X00010236Y00004315D01*
X00010297Y00004310D01*
X00010357Y00004295D01*
X00010414Y00004272D01*
X00010467Y00004239D01*
X00010514Y00004199D01*
X00010554Y00004152D01*
X00010587Y00004100D01*
X00010610Y00004043D01*
X00010625Y00003982D01*
X00010629Y00003921D01*
X00010629Y00003921D01*
X00010629Y00000000D01*
X00020472Y00000000D01*
X00020472Y00011023D01*
X00016467Y00011023D01*
X00016436Y00011024D01*
X00016406Y00011028D01*
X00016375Y00011034D01*
X00016346Y00011042D01*
X00016317Y00011053D01*
X00016289Y00011066D01*
X00016262Y00011081D01*
X00016236Y00011098D01*
X00016212Y00011117D01*
X00016189Y00011138D01*
X00016168Y00011161D01*
X00016149Y00011185D01*
X00016132Y00011211D01*
X00016117Y00011238D01*
X00016104Y00011266D01*
X00016093Y00011295D01*
X00016085Y00011325D01*
X00016079Y00011355D01*
X00016075Y00011386D01*
X00016467Y00011417D01*
X00016075Y00011448D01*
X00016079Y00011478D01*
X00016085Y00011509D01*
X00016093Y00011538D01*
X00016104Y00011567D01*
X00016117Y00011596D01*
X00016132Y00011623D01*
X00016149Y00011648D01*
X00016168Y00011673D01*
X00016189Y00011695D01*
X00016212Y00011716D01*
X00016236Y00011735D01*
X00016262Y00011753D01*
X00016289Y00011768D01*
X00016317Y00011781D01*
X00016346Y00011791D01*
X00016375Y00011800D01*
X00016406Y00011806D01*
X00016436Y00011809D01*
X00016467Y00011811D01*
X00020472Y00011811D01*
X00020472Y00022834D01*
X00010629Y00022834D01*
X00010629Y00018913D01*
X00010625Y00018851D01*
X00010610Y00018791D01*
X00010587Y00018734D01*
X00010554Y00018681D01*
X00010514Y00018634D01*
X00010467Y00018594D01*
X00010414Y00018562D01*
X00010357Y00018538D01*
X00010297Y00018524D01*
X00010236Y00018519D01*
X00010174Y00018524D01*
X00010114Y00018538D01*
X00010057Y00018562D01*
X00010004Y00018594D01*
X00009957Y00018634D01*
X00009917Y00018681D01*
X00009885Y00018734D01*
X00009861Y00018791D01*
X00009847Y00018851D01*
X00009842Y00018913D01*
X00009842Y00018913D01*
X00009842Y00022834D01*
X00000000Y00022834D01*
X00000000Y00011811D01*
X00004004Y00011811D01*
X00004096Y00011800D01*
X00004183Y00011768D01*
X00004260Y00011716D01*
X00004323Y00011648D01*
X00004368Y00011567D01*
X00004393Y00011478D01*
X00004397Y00011386D01*
X00004378Y00011295D01*
X00004340Y00011211D01*
X00004282Y00011138D01*
X00004210Y00011081D01*
X00004126Y00011042D01*
X00004035Y00011024D01*
X00003942Y00011028D01*
X00003853Y00011053D01*
X00003773Y00011098D01*
X00003705Y00011161D01*
X00003653Y00011238D01*
X00003621Y00011325D01*
X00004004Y00011417D01*
X00003621Y00011509D01*
X00003653Y00011596D01*
X00003705Y00011673D01*
X00003773Y00011735D01*
X00003853Y00011781D01*
X00003942Y00011806D01*
X00004035Y00011809D01*
X00004126Y00011791D01*
X00004210Y00011753D01*
X00004282Y00011695D01*
X00004340Y00011623D01*
X00004378Y00011538D01*
X00004397Y00011448D01*
X00004393Y00011355D01*
X00004368Y00011266D01*
X00004323Y00011185D01*
X00004260Y00011117D01*
X00004183Y00011066D01*
X00004096Y00011034D01*
X00004004Y00011023D01*
X00000000Y00011023D01*
X00000000Y00000000D01*
M02*