%MOIN*%
%OFA0B0*%
%FSLAX46Y46*%
%IPPOS*%
%LPD*%
%ADD10C,0.0039370078740157488*%
%ADD11O,0.18503937007874016X0.070866141732283464*%
%ADD12O,0.070866141732283464X0.10629921259842522*%
%ADD13O,0.1456692913385827X0.070866141732283464*%
%ADD14R,0.066929133858267723X0.047244094488188976*%
%ADD15O,0.066929133858267723X0.047244094488188976*%
%ADD16R,0.066929133858267723X0.066929133858267723*%
%ADD17O,0.066929133858267723X0.066929133858267723*%
%ADD18O,0.0787X0.0787*%
%ADD19R,0.0787X0.0787*%
%ADD20C,0.01968503937007874*%
%ADD21C,0.011811023622047244*%
%ADD32C,0.0039370078740157488*%
%ADD33O,0.18503937007874016X0.070866141732283464*%
%ADD34O,0.070866141732283464X0.10629921259842522*%
%ADD35O,0.1456692913385827X0.070866141732283464*%
%ADD36R,0.066929133858267723X0.047244094488188976*%
%ADD37O,0.066929133858267723X0.047244094488188976*%
%ADD38R,0.066929133858267723X0.066929133858267723*%
%ADD39O,0.066929133858267723X0.066929133858267723*%
%ADD40O,0.0787X0.0787*%
%ADD41R,0.0787X0.0787*%
%ADD42C,0.01968503937007874*%
%ADD43C,0.011811023622047244*%
%ADD54C,0.0039370078740157488*%
%ADD55O,0.18503937007874016X0.070866141732283464*%
%ADD56O,0.070866141732283464X0.10629921259842522*%
%ADD57O,0.1456692913385827X0.070866141732283464*%
%ADD58R,0.066929133858267723X0.047244094488188976*%
%ADD59O,0.066929133858267723X0.047244094488188976*%
%ADD60R,0.066929133858267723X0.066929133858267723*%
%ADD61O,0.066929133858267723X0.066929133858267723*%
%ADD62O,0.0787X0.0787*%
%ADD63R,0.0787X0.0787*%
%ADD64C,0.01968503937007874*%
%ADD65C,0.011811023622047244*%
%ADD76C,0.0039370078740157488*%
%ADD77O,0.18503937007874016X0.070866141732283464*%
%ADD78O,0.070866141732283464X0.10629921259842522*%
%ADD79O,0.1456692913385827X0.070866141732283464*%
%ADD80R,0.066929133858267723X0.047244094488188976*%
%ADD81O,0.066929133858267723X0.047244094488188976*%
%ADD82R,0.066929133858267723X0.066929133858267723*%
%ADD83O,0.066929133858267723X0.066929133858267723*%
%ADD84O,0.0787X0.0787*%
%ADD85R,0.0787X0.0787*%
%ADD86C,0.01968503937007874*%
%ADD87C,0.011811023622047244*%
%LPD*%
G01*
D10*
D11*
X-0004133858Y0003858267D02*
X0000688976Y0001039369D03*
X0000492125Y0001039369D03*
X0000295275Y0001039369D03*
X0000688976Y0000803149D03*
X0000492125Y0000803149D03*
X0000295275Y0000803149D03*
D12*
X0000393700Y0000606299D03*
X0000393700Y0000448818D03*
X0000393700Y0000291338D03*
X0000590551Y0000606299D03*
X0000590551Y0000448818D03*
X0000590551Y0000291338D03*
D13*
X0000492125Y0000125984D03*
D14*
X0000102362Y0000559055D03*
D15*
X0000102362Y0000637795D03*
D16*
X0000913385Y0000314960D03*
D17*
X0000913385Y0000214960D03*
X0000913385Y0000114960D03*
D14*
X0000889763Y0000637795D03*
D15*
X0000889763Y0000559055D03*
D16*
X0000787401Y0000314960D03*
D17*
X0000787401Y0000214960D03*
X0000787401Y0000114960D03*
D18*
X0000141732Y0000289763D03*
D19*
X0000141732Y0000389763D03*
D18*
X0000141732Y0000065353D03*
D19*
X0000141732Y0000165354D03*
D20*
X0000492125Y0001043307D02*
X0000492125Y0000990157D01*
X0000492125Y0000990157D02*
X0000466535Y0000964565D01*
X0000466535Y0000964565D02*
X0000283464Y0000964565D01*
X0000283464Y0000964565D02*
X0000173228Y0000854330D01*
X0000173228Y0000854330D02*
X0000173228Y0000480293D01*
X0000173228Y0000480293D02*
X0000141732Y0000448798D01*
X0000141732Y0000448798D02*
X0000141732Y0000389763D01*
X0000141732Y0000165354D02*
X0000200767Y0000165354D01*
X0000358267Y0000708660D02*
X0000444881Y0000708660D01*
X0000200767Y0000165354D02*
X0000248031Y0000212617D01*
X0000248031Y0000212617D02*
X0000248031Y0000598425D01*
X0000248031Y0000598425D02*
X0000358267Y0000708660D01*
X0000444881Y0000708660D02*
X0000492125Y0000755905D01*
X0000492125Y0000755905D02*
X0000492125Y0000807086D01*
X0000295275Y0000807086D02*
X0000295275Y0000860236D01*
X0000295275Y0000860236D02*
X0000320866Y0000885826D01*
X0000320866Y0000885826D02*
X0000685039Y0000885826D01*
X0000913385Y0000214960D02*
X0000850392Y0000277952D01*
X0000850392Y0000277952D02*
X0000850392Y0000370077D01*
X0000850392Y0000370077D02*
X0000811023Y0000409448D01*
X0000811023Y0000409448D02*
X0000811023Y0000858267D01*
X0000811023Y0000858267D02*
X0000783464Y0000885826D01*
X0000783464Y0000885826D02*
X0000685039Y0000885826D01*
X0000688976Y0000889763D02*
X0000685039Y0000885826D01*
X0000688976Y0000889763D02*
X0000688976Y0001043307D01*
X0000688976Y0000807086D02*
X0000688976Y0000313385D01*
X0000688976Y0000313385D02*
X0000787401Y0000214960D01*
D21*
G36*
X0000198446Y0001076952D02*
X0000186925Y0001059709D01*
X0000182879Y0001039369D01*
X0000186925Y0001019030D01*
X0000198446Y0001001787D01*
X0000215689Y0000990266D01*
X0000236029Y0000986220D01*
X0000267219Y0000986220D01*
X0000263977Y0000984054D01*
X0000153741Y0000873817D01*
X0000147767Y0000864877D01*
X0000147767Y0000864877D01*
X0000145669Y0000854330D01*
X0000145669Y0000678239D01*
X0000136732Y0000685355D01*
X0000116663Y0000691121D01*
X0000108267Y0000683780D01*
X0000108267Y0000643699D01*
X0000109055Y0000643699D01*
X0000109055Y0000631889D01*
X0000108267Y0000631889D01*
X0000108267Y0000631102D01*
X0000096455Y0000631102D01*
X0000096455Y0000631889D01*
X0000047134Y0000631889D01*
X0000041272Y0000623699D01*
X0000041545Y0000621508D01*
X0000051658Y0000603241D01*
X0000059023Y0000597376D01*
X0000056302Y0000595625D01*
X0000052257Y0000589704D01*
X0000050834Y0000582677D01*
X0000050834Y0000535433D01*
X0000052069Y0000528867D01*
X0000055949Y0000522837D01*
X0000061869Y0000518792D01*
X0000068897Y0000517368D01*
X0000135826Y0000517368D01*
X0000142392Y0000518603D01*
X0000145669Y0000520713D01*
X0000145669Y0000491710D01*
X0000122245Y0000468285D01*
X0000116270Y0000459345D01*
X0000116270Y0000459345D01*
X0000114173Y0000448798D01*
X0000114173Y0000447177D01*
X0000102381Y0000447177D01*
X0000095816Y0000445942D01*
X0000089787Y0000442061D01*
X0000085741Y0000436141D01*
X0000084318Y0000429113D01*
X0000084318Y0000350413D01*
X0000085554Y0000343848D01*
X0000089434Y0000337818D01*
X0000092140Y0000335969D01*
X0000086306Y0000330655D01*
X0000074876Y0000306331D01*
X0000080489Y0000295669D01*
X0000135826Y0000295669D01*
X0000135826Y0000296456D01*
X0000147637Y0000296456D01*
X0000147637Y0000295669D01*
X0000202974Y0000295669D01*
X0000208587Y0000306331D01*
X0000197157Y0000330655D01*
X0000191336Y0000335958D01*
X0000193677Y0000337465D01*
X0000197721Y0000343385D01*
X0000199145Y0000350413D01*
X0000199145Y0000429113D01*
X0000197910Y0000435679D01*
X0000194030Y0000441708D01*
X0000188110Y0000445754D01*
X0000181082Y0000447177D01*
X0000179085Y0000447177D01*
X0000192715Y0000460807D01*
X0000198688Y0000469748D01*
X0000200787Y0000480293D01*
X0000200787Y0000764003D01*
X0000215689Y0000754045D01*
X0000236029Y0000749999D01*
X0000354521Y0000749999D01*
X0000374861Y0000754045D01*
X0000392104Y0000765567D01*
X0000393700Y0000767956D01*
X0000395297Y0000765567D01*
X0000412539Y0000754045D01*
X0000432878Y0000749999D01*
X0000447246Y0000749999D01*
X0000433466Y0000736220D01*
X0000358267Y0000736220D01*
X0000347721Y0000734122D01*
X0000338780Y0000728148D01*
X0000228544Y0000617912D01*
X0000222570Y0000608971D01*
X0000222570Y0000608971D01*
X0000220471Y0000598425D01*
X0000220471Y0000224033D01*
X0000199145Y0000202707D01*
X0000199145Y0000204704D01*
X0000197910Y0000211269D01*
X0000194030Y0000217299D01*
X0000188110Y0000221344D01*
X0000181082Y0000222767D01*
X0000147637Y0000222767D01*
X0000147637Y0000228552D01*
X0000158300Y0000222908D01*
X0000177290Y0000230773D01*
X0000197157Y0000248872D01*
X0000208587Y0000273195D01*
X0000202974Y0000283858D01*
X0000147637Y0000283858D01*
X0000147637Y0000283070D01*
X0000135826Y0000283070D01*
X0000135826Y0000283858D01*
X0000080489Y0000283858D01*
X0000074876Y0000273195D01*
X0000086306Y0000248872D01*
X0000106173Y0000230773D01*
X0000125164Y0000222908D01*
X0000135826Y0000228552D01*
X0000135826Y0000222767D01*
X0000102381Y0000222767D01*
X0000095816Y0000221531D01*
X0000089787Y0000217652D01*
X0000085741Y0000211732D01*
X0000084318Y0000204704D01*
X0000084318Y0000126004D01*
X0000085554Y0000119437D01*
X0000089434Y0000113409D01*
X0000092140Y0000111560D01*
X0000086306Y0000106245D01*
X0000074876Y0000081922D01*
X0000080489Y0000071259D01*
X0000135826Y0000071259D01*
X0000135826Y0000072047D01*
X0000147637Y0000072047D01*
X0000147637Y0000071259D01*
X0000202974Y0000071259D01*
X0000208587Y0000081922D01*
X0000197157Y0000106245D01*
X0000193002Y0000110031D01*
X0000391752Y0000110031D01*
X0000392448Y0000106580D01*
X0000404614Y0000084225D01*
X0000424409Y0000068228D01*
X0000448818Y0000061023D01*
X0000486220Y0000061023D01*
X0000486220Y0000120078D01*
X0000498031Y0000120078D01*
X0000498031Y0000061023D01*
X0000535433Y0000061023D01*
X0000559842Y0000068228D01*
X0000579637Y0000084225D01*
X0000591803Y0000106580D01*
X0000592498Y0000110031D01*
X0000586802Y0000120078D01*
X0000498031Y0000120078D01*
X0000486220Y0000120078D01*
X0000397449Y0000120078D01*
X0000391752Y0000110031D01*
X0000193002Y0000110031D01*
X0000191336Y0000111549D01*
X0000193677Y0000113056D01*
X0000197721Y0000118976D01*
X0000199145Y0000126004D01*
X0000199145Y0000137795D01*
X0000200767Y0000137795D01*
X0000211313Y0000139893D01*
X0000214371Y0000141937D01*
X0000391752Y0000141937D01*
X0000397449Y0000131889D01*
X0000486220Y0000131889D01*
X0000486220Y0000190944D01*
X0000498031Y0000190944D01*
X0000498031Y0000131889D01*
X0000586802Y0000131889D01*
X0000592498Y0000141937D01*
X0000591803Y0000145387D01*
X0000579637Y0000167742D01*
X0000559842Y0000183740D01*
X0000535433Y0000190944D01*
X0000498031Y0000190944D01*
X0000486220Y0000190944D01*
X0000448818Y0000190944D01*
X0000424409Y0000183740D01*
X0000404614Y0000167742D01*
X0000392448Y0000145387D01*
X0000391752Y0000141937D01*
X0000214371Y0000141937D01*
X0000220254Y0000145867D01*
X0000267518Y0000193131D01*
X0000267518Y0000193131D01*
X0000270505Y0000197601D01*
X0000273492Y0000202072D01*
X0000275590Y0000212617D01*
X0000275590Y0000212617D01*
X0000275590Y0000310443D01*
X0000340551Y0000310443D01*
X0000340551Y0000272233D01*
X0000344596Y0000251894D01*
X0000356118Y0000234651D01*
X0000373361Y0000223129D01*
X0000393700Y0000219084D01*
X0000414039Y0000223129D01*
X0000431283Y0000234651D01*
X0000442804Y0000251894D01*
X0000446850Y0000272233D01*
X0000446850Y0000310443D01*
X0000537401Y0000310443D01*
X0000537401Y0000272233D01*
X0000541447Y0000251894D01*
X0000552968Y0000234651D01*
X0000570211Y0000223129D01*
X0000590551Y0000219084D01*
X0000610890Y0000223129D01*
X0000628133Y0000234651D01*
X0000639654Y0000251894D01*
X0000643699Y0000272233D01*
X0000643699Y0000310443D01*
X0000639654Y0000330782D01*
X0000628133Y0000348025D01*
X0000610890Y0000359546D01*
X0000590551Y0000363593D01*
X0000570211Y0000359546D01*
X0000552968Y0000348025D01*
X0000541447Y0000330782D01*
X0000537401Y0000310443D01*
X0000446850Y0000310443D01*
X0000442804Y0000330782D01*
X0000431283Y0000348025D01*
X0000414039Y0000359546D01*
X0000393700Y0000363593D01*
X0000373361Y0000359546D01*
X0000356118Y0000348025D01*
X0000344596Y0000330782D01*
X0000340551Y0000310443D01*
X0000275590Y0000310443D01*
X0000275590Y0000467923D01*
X0000340551Y0000467923D01*
X0000340551Y0000429714D01*
X0000344596Y0000409374D01*
X0000356118Y0000392131D01*
X0000373361Y0000380610D01*
X0000393700Y0000376564D01*
X0000414039Y0000380610D01*
X0000431283Y0000392131D01*
X0000442804Y0000409374D01*
X0000446850Y0000429714D01*
X0000446850Y0000467923D01*
X0000537401Y0000467923D01*
X0000537401Y0000429714D01*
X0000541447Y0000409374D01*
X0000552968Y0000392131D01*
X0000570211Y0000380610D01*
X0000590551Y0000376564D01*
X0000610890Y0000380610D01*
X0000628133Y0000392131D01*
X0000639654Y0000409374D01*
X0000643699Y0000429714D01*
X0000643699Y0000467923D01*
X0000639654Y0000488263D01*
X0000628133Y0000505506D01*
X0000610890Y0000517027D01*
X0000590551Y0000521073D01*
X0000570211Y0000517027D01*
X0000552968Y0000505506D01*
X0000541447Y0000488263D01*
X0000537401Y0000467923D01*
X0000446850Y0000467923D01*
X0000442804Y0000488263D01*
X0000431283Y0000505506D01*
X0000414039Y0000517027D01*
X0000393700Y0000521073D01*
X0000373361Y0000517027D01*
X0000356118Y0000505506D01*
X0000344596Y0000488263D01*
X0000340551Y0000467923D01*
X0000275590Y0000467923D01*
X0000275590Y0000587009D01*
X0000313984Y0000625404D01*
X0000340551Y0000625404D01*
X0000340551Y0000587194D01*
X0000344596Y0000566854D01*
X0000356118Y0000549611D01*
X0000373361Y0000538090D01*
X0000393700Y0000534044D01*
X0000414039Y0000538090D01*
X0000431283Y0000549611D01*
X0000442804Y0000566854D01*
X0000446850Y0000587194D01*
X0000446850Y0000625404D01*
X0000537401Y0000625404D01*
X0000537401Y0000587194D01*
X0000541447Y0000566854D01*
X0000552968Y0000549611D01*
X0000570211Y0000538090D01*
X0000590551Y0000534044D01*
X0000610890Y0000538090D01*
X0000628133Y0000549611D01*
X0000639654Y0000566854D01*
X0000643699Y0000587194D01*
X0000643699Y0000625404D01*
X0000639654Y0000645743D01*
X0000628133Y0000662986D01*
X0000610890Y0000674506D01*
X0000590551Y0000678553D01*
X0000570211Y0000674506D01*
X0000552968Y0000662986D01*
X0000541447Y0000645743D01*
X0000537401Y0000625404D01*
X0000446850Y0000625404D01*
X0000442804Y0000645743D01*
X0000431283Y0000662986D01*
X0000414039Y0000674506D01*
X0000393700Y0000678553D01*
X0000373361Y0000674506D01*
X0000356118Y0000662986D01*
X0000344596Y0000645743D01*
X0000340551Y0000625404D01*
X0000313984Y0000625404D01*
X0000369683Y0000681102D01*
X0000444881Y0000681102D01*
X0000455428Y0000683199D01*
X0000464369Y0000689174D01*
X0000511613Y0000736418D01*
X0000517587Y0000745359D01*
X0000517587Y0000745359D01*
X0000518510Y0000749999D01*
X0000551372Y0000749999D01*
X0000571711Y0000754045D01*
X0000588954Y0000765567D01*
X0000590551Y0000767956D01*
X0000592147Y0000765567D01*
X0000609390Y0000754045D01*
X0000629730Y0000749999D01*
X0000661417Y0000749999D01*
X0000661417Y0000313385D01*
X0000663515Y0000302839D01*
X0000669489Y0000293898D01*
X0000737409Y0000225978D01*
X0000735216Y0000214960D01*
X0000739113Y0000195374D01*
X0000750208Y0000178770D01*
X0000766812Y0000167675D01*
X0000780461Y0000164960D01*
X0000766812Y0000162245D01*
X0000750208Y0000151151D01*
X0000739113Y0000134546D01*
X0000735216Y0000114960D01*
X0000739113Y0000095374D01*
X0000750208Y0000078770D01*
X0000766812Y0000067675D01*
X0000786398Y0000063779D01*
X0000788404Y0000063779D01*
X0000807990Y0000067675D01*
X0000824594Y0000078770D01*
X0000835689Y0000095374D01*
X0000836473Y0000099317D01*
X0000852367Y0000099317D01*
X0000859177Y0000082875D01*
X0000875581Y0000064572D01*
X0000897741Y0000053941D01*
X0000907479Y0000059627D01*
X0000907479Y0000109055D01*
X0000858090Y0000109055D01*
X0000852367Y0000099317D01*
X0000836473Y0000099317D01*
X0000839585Y0000114960D01*
X0000835689Y0000134546D01*
X0000824594Y0000151151D01*
X0000807990Y0000162245D01*
X0000794342Y0000164960D01*
X0000807990Y0000167675D01*
X0000824594Y0000178770D01*
X0000835689Y0000195374D01*
X0000839585Y0000214960D01*
X0000835689Y0000234546D01*
X0000824594Y0000251151D01*
X0000823371Y0000251968D01*
X0000826739Y0000251968D01*
X0000834279Y0000255091D01*
X0000863393Y0000225978D01*
X0000861202Y0000214960D01*
X0000865097Y0000195374D01*
X0000876192Y0000178770D01*
X0000887629Y0000171128D01*
X0000875581Y0000165348D01*
X0000859177Y0000147045D01*
X0000852367Y0000130604D01*
X0000858090Y0000120866D01*
X0000907479Y0000120866D01*
X0000907479Y0000121653D01*
X0000919291Y0000121653D01*
X0000919291Y0000120866D01*
X0000920078Y0000120866D01*
X0000920078Y0000109055D01*
X0000919291Y0000109055D01*
X0000919291Y0000059627D01*
X0000929029Y0000053941D01*
X0000951189Y0000064572D01*
X0000963582Y0000078399D01*
X0000963582Y0000020668D01*
X0000192993Y0000020668D01*
X0000197157Y0000024462D01*
X0000208587Y0000048786D01*
X0000202974Y0000059448D01*
X0000147637Y0000059448D01*
X0000147637Y0000058661D01*
X0000135826Y0000058661D01*
X0000135826Y0000059448D01*
X0000080489Y0000059448D01*
X0000074876Y0000048786D01*
X0000086306Y0000024462D01*
X0000090470Y0000020668D01*
X0000020668Y0000020668D01*
X0000020668Y0000651890D01*
X0000041272Y0000651890D01*
X0000047134Y0000643699D01*
X0000096455Y0000643699D01*
X0000096455Y0000683780D01*
X0000088059Y0000691121D01*
X0000067992Y0000685355D01*
X0000051658Y0000672349D01*
X0000041545Y0000654081D01*
X0000041272Y0000651890D01*
X0000020668Y0000651890D01*
X0000020668Y0001081692D01*
X0000205541Y0001081692D01*
X0000198446Y0001076952D01*
X0000198446Y0001076952D01*
G37*
X0000198446Y0001076952D02*
X0000186925Y0001059709D01*
X0000182879Y0001039369D01*
X0000186925Y0001019030D01*
X0000198446Y0001001787D01*
X0000215689Y0000990266D01*
X0000236029Y0000986220D01*
X0000267219Y0000986220D01*
X0000263977Y0000984054D01*
X0000153741Y0000873817D01*
X0000147767Y0000864877D01*
X0000147767Y0000864877D01*
X0000145669Y0000854330D01*
X0000145669Y0000678239D01*
X0000136732Y0000685355D01*
X0000116663Y0000691121D01*
X0000108267Y0000683780D01*
X0000108267Y0000643699D01*
X0000109055Y0000643699D01*
X0000109055Y0000631889D01*
X0000108267Y0000631889D01*
X0000108267Y0000631102D01*
X0000096455Y0000631102D01*
X0000096455Y0000631889D01*
X0000047134Y0000631889D01*
X0000041272Y0000623699D01*
X0000041545Y0000621508D01*
X0000051658Y0000603241D01*
X0000059023Y0000597376D01*
X0000056302Y0000595625D01*
X0000052257Y0000589704D01*
X0000050834Y0000582677D01*
X0000050834Y0000535433D01*
X0000052069Y0000528867D01*
X0000055949Y0000522837D01*
X0000061869Y0000518792D01*
X0000068897Y0000517368D01*
X0000135826Y0000517368D01*
X0000142392Y0000518603D01*
X0000145669Y0000520713D01*
X0000145669Y0000491710D01*
X0000122245Y0000468285D01*
X0000116270Y0000459345D01*
X0000116270Y0000459345D01*
X0000114173Y0000448798D01*
X0000114173Y0000447177D01*
X0000102381Y0000447177D01*
X0000095816Y0000445942D01*
X0000089787Y0000442061D01*
X0000085741Y0000436141D01*
X0000084318Y0000429113D01*
X0000084318Y0000350413D01*
X0000085554Y0000343848D01*
X0000089434Y0000337818D01*
X0000092140Y0000335969D01*
X0000086306Y0000330655D01*
X0000074876Y0000306331D01*
X0000080489Y0000295669D01*
X0000135826Y0000295669D01*
X0000135826Y0000296456D01*
X0000147637Y0000296456D01*
X0000147637Y0000295669D01*
X0000202974Y0000295669D01*
X0000208587Y0000306331D01*
X0000197157Y0000330655D01*
X0000191336Y0000335958D01*
X0000193677Y0000337465D01*
X0000197721Y0000343385D01*
X0000199145Y0000350413D01*
X0000199145Y0000429113D01*
X0000197910Y0000435679D01*
X0000194030Y0000441708D01*
X0000188110Y0000445754D01*
X0000181082Y0000447177D01*
X0000179085Y0000447177D01*
X0000192715Y0000460807D01*
X0000198688Y0000469748D01*
X0000200787Y0000480293D01*
X0000200787Y0000764003D01*
X0000215689Y0000754045D01*
X0000236029Y0000749999D01*
X0000354521Y0000749999D01*
X0000374861Y0000754045D01*
X0000392104Y0000765567D01*
X0000393700Y0000767956D01*
X0000395297Y0000765567D01*
X0000412539Y0000754045D01*
X0000432878Y0000749999D01*
X0000447246Y0000749999D01*
X0000433466Y0000736220D01*
X0000358267Y0000736220D01*
X0000347721Y0000734122D01*
X0000338780Y0000728148D01*
X0000228544Y0000617912D01*
X0000222570Y0000608971D01*
X0000222570Y0000608971D01*
X0000220471Y0000598425D01*
X0000220471Y0000224033D01*
X0000199145Y0000202707D01*
X0000199145Y0000204704D01*
X0000197910Y0000211269D01*
X0000194030Y0000217299D01*
X0000188110Y0000221344D01*
X0000181082Y0000222767D01*
X0000147637Y0000222767D01*
X0000147637Y0000228552D01*
X0000158300Y0000222908D01*
X0000177290Y0000230773D01*
X0000197157Y0000248872D01*
X0000208587Y0000273195D01*
X0000202974Y0000283858D01*
X0000147637Y0000283858D01*
X0000147637Y0000283070D01*
X0000135826Y0000283070D01*
X0000135826Y0000283858D01*
X0000080489Y0000283858D01*
X0000074876Y0000273195D01*
X0000086306Y0000248872D01*
X0000106173Y0000230773D01*
X0000125164Y0000222908D01*
X0000135826Y0000228552D01*
X0000135826Y0000222767D01*
X0000102381Y0000222767D01*
X0000095816Y0000221531D01*
X0000089787Y0000217652D01*
X0000085741Y0000211732D01*
X0000084318Y0000204704D01*
X0000084318Y0000126004D01*
X0000085554Y0000119437D01*
X0000089434Y0000113409D01*
X0000092140Y0000111560D01*
X0000086306Y0000106245D01*
X0000074876Y0000081922D01*
X0000080489Y0000071259D01*
X0000135826Y0000071259D01*
X0000135826Y0000072047D01*
X0000147637Y0000072047D01*
X0000147637Y0000071259D01*
X0000202974Y0000071259D01*
X0000208587Y0000081922D01*
X0000197157Y0000106245D01*
X0000193002Y0000110031D01*
X0000391752Y0000110031D01*
X0000392448Y0000106580D01*
X0000404614Y0000084225D01*
X0000424409Y0000068228D01*
X0000448818Y0000061023D01*
X0000486220Y0000061023D01*
X0000486220Y0000120078D01*
X0000498031Y0000120078D01*
X0000498031Y0000061023D01*
X0000535433Y0000061023D01*
X0000559842Y0000068228D01*
X0000579637Y0000084225D01*
X0000591803Y0000106580D01*
X0000592498Y0000110031D01*
X0000586802Y0000120078D01*
X0000498031Y0000120078D01*
X0000486220Y0000120078D01*
X0000397449Y0000120078D01*
X0000391752Y0000110031D01*
X0000193002Y0000110031D01*
X0000191336Y0000111549D01*
X0000193677Y0000113056D01*
X0000197721Y0000118976D01*
X0000199145Y0000126004D01*
X0000199145Y0000137795D01*
X0000200767Y0000137795D01*
X0000211313Y0000139893D01*
X0000214371Y0000141937D01*
X0000391752Y0000141937D01*
X0000397449Y0000131889D01*
X0000486220Y0000131889D01*
X0000486220Y0000190944D01*
X0000498031Y0000190944D01*
X0000498031Y0000131889D01*
X0000586802Y0000131889D01*
X0000592498Y0000141937D01*
X0000591803Y0000145387D01*
X0000579637Y0000167742D01*
X0000559842Y0000183740D01*
X0000535433Y0000190944D01*
X0000498031Y0000190944D01*
X0000486220Y0000190944D01*
X0000448818Y0000190944D01*
X0000424409Y0000183740D01*
X0000404614Y0000167742D01*
X0000392448Y0000145387D01*
X0000391752Y0000141937D01*
X0000214371Y0000141937D01*
X0000220254Y0000145867D01*
X0000267518Y0000193131D01*
X0000267518Y0000193131D01*
X0000270505Y0000197601D01*
X0000273492Y0000202072D01*
X0000275590Y0000212617D01*
X0000275590Y0000212617D01*
X0000275590Y0000310443D01*
X0000340551Y0000310443D01*
X0000340551Y0000272233D01*
X0000344596Y0000251894D01*
X0000356118Y0000234651D01*
X0000373361Y0000223129D01*
X0000393700Y0000219084D01*
X0000414039Y0000223129D01*
X0000431283Y0000234651D01*
X0000442804Y0000251894D01*
X0000446850Y0000272233D01*
X0000446850Y0000310443D01*
X0000537401Y0000310443D01*
X0000537401Y0000272233D01*
X0000541447Y0000251894D01*
X0000552968Y0000234651D01*
X0000570211Y0000223129D01*
X0000590551Y0000219084D01*
X0000610890Y0000223129D01*
X0000628133Y0000234651D01*
X0000639654Y0000251894D01*
X0000643699Y0000272233D01*
X0000643699Y0000310443D01*
X0000639654Y0000330782D01*
X0000628133Y0000348025D01*
X0000610890Y0000359546D01*
X0000590551Y0000363593D01*
X0000570211Y0000359546D01*
X0000552968Y0000348025D01*
X0000541447Y0000330782D01*
X0000537401Y0000310443D01*
X0000446850Y0000310443D01*
X0000442804Y0000330782D01*
X0000431283Y0000348025D01*
X0000414039Y0000359546D01*
X0000393700Y0000363593D01*
X0000373361Y0000359546D01*
X0000356118Y0000348025D01*
X0000344596Y0000330782D01*
X0000340551Y0000310443D01*
X0000275590Y0000310443D01*
X0000275590Y0000467923D01*
X0000340551Y0000467923D01*
X0000340551Y0000429714D01*
X0000344596Y0000409374D01*
X0000356118Y0000392131D01*
X0000373361Y0000380610D01*
X0000393700Y0000376564D01*
X0000414039Y0000380610D01*
X0000431283Y0000392131D01*
X0000442804Y0000409374D01*
X0000446850Y0000429714D01*
X0000446850Y0000467923D01*
X0000537401Y0000467923D01*
X0000537401Y0000429714D01*
X0000541447Y0000409374D01*
X0000552968Y0000392131D01*
X0000570211Y0000380610D01*
X0000590551Y0000376564D01*
X0000610890Y0000380610D01*
X0000628133Y0000392131D01*
X0000639654Y0000409374D01*
X0000643699Y0000429714D01*
X0000643699Y0000467923D01*
X0000639654Y0000488263D01*
X0000628133Y0000505506D01*
X0000610890Y0000517027D01*
X0000590551Y0000521073D01*
X0000570211Y0000517027D01*
X0000552968Y0000505506D01*
X0000541447Y0000488263D01*
X0000537401Y0000467923D01*
X0000446850Y0000467923D01*
X0000442804Y0000488263D01*
X0000431283Y0000505506D01*
X0000414039Y0000517027D01*
X0000393700Y0000521073D01*
X0000373361Y0000517027D01*
X0000356118Y0000505506D01*
X0000344596Y0000488263D01*
X0000340551Y0000467923D01*
X0000275590Y0000467923D01*
X0000275590Y0000587009D01*
X0000313984Y0000625404D01*
X0000340551Y0000625404D01*
X0000340551Y0000587194D01*
X0000344596Y0000566854D01*
X0000356118Y0000549611D01*
X0000373361Y0000538090D01*
X0000393700Y0000534044D01*
X0000414039Y0000538090D01*
X0000431283Y0000549611D01*
X0000442804Y0000566854D01*
X0000446850Y0000587194D01*
X0000446850Y0000625404D01*
X0000537401Y0000625404D01*
X0000537401Y0000587194D01*
X0000541447Y0000566854D01*
X0000552968Y0000549611D01*
X0000570211Y0000538090D01*
X0000590551Y0000534044D01*
X0000610890Y0000538090D01*
X0000628133Y0000549611D01*
X0000639654Y0000566854D01*
X0000643699Y0000587194D01*
X0000643699Y0000625404D01*
X0000639654Y0000645743D01*
X0000628133Y0000662986D01*
X0000610890Y0000674506D01*
X0000590551Y0000678553D01*
X0000570211Y0000674506D01*
X0000552968Y0000662986D01*
X0000541447Y0000645743D01*
X0000537401Y0000625404D01*
X0000446850Y0000625404D01*
X0000442804Y0000645743D01*
X0000431283Y0000662986D01*
X0000414039Y0000674506D01*
X0000393700Y0000678553D01*
X0000373361Y0000674506D01*
X0000356118Y0000662986D01*
X0000344596Y0000645743D01*
X0000340551Y0000625404D01*
X0000313984Y0000625404D01*
X0000369683Y0000681102D01*
X0000444881Y0000681102D01*
X0000455428Y0000683199D01*
X0000464369Y0000689174D01*
X0000511613Y0000736418D01*
X0000517587Y0000745359D01*
X0000517587Y0000745359D01*
X0000518510Y0000749999D01*
X0000551372Y0000749999D01*
X0000571711Y0000754045D01*
X0000588954Y0000765567D01*
X0000590551Y0000767956D01*
X0000592147Y0000765567D01*
X0000609390Y0000754045D01*
X0000629730Y0000749999D01*
X0000661417Y0000749999D01*
X0000661417Y0000313385D01*
X0000663515Y0000302839D01*
X0000669489Y0000293898D01*
X0000737409Y0000225978D01*
X0000735216Y0000214960D01*
X0000739113Y0000195374D01*
X0000750208Y0000178770D01*
X0000766812Y0000167675D01*
X0000780461Y0000164960D01*
X0000766812Y0000162245D01*
X0000750208Y0000151151D01*
X0000739113Y0000134546D01*
X0000735216Y0000114960D01*
X0000739113Y0000095374D01*
X0000750208Y0000078770D01*
X0000766812Y0000067675D01*
X0000786398Y0000063779D01*
X0000788404Y0000063779D01*
X0000807990Y0000067675D01*
X0000824594Y0000078770D01*
X0000835689Y0000095374D01*
X0000836473Y0000099317D01*
X0000852367Y0000099317D01*
X0000859177Y0000082875D01*
X0000875581Y0000064572D01*
X0000897741Y0000053941D01*
X0000907479Y0000059627D01*
X0000907479Y0000109055D01*
X0000858090Y0000109055D01*
X0000852367Y0000099317D01*
X0000836473Y0000099317D01*
X0000839585Y0000114960D01*
X0000835689Y0000134546D01*
X0000824594Y0000151151D01*
X0000807990Y0000162245D01*
X0000794342Y0000164960D01*
X0000807990Y0000167675D01*
X0000824594Y0000178770D01*
X0000835689Y0000195374D01*
X0000839585Y0000214960D01*
X0000835689Y0000234546D01*
X0000824594Y0000251151D01*
X0000823371Y0000251968D01*
X0000826739Y0000251968D01*
X0000834279Y0000255091D01*
X0000863393Y0000225978D01*
X0000861202Y0000214960D01*
X0000865097Y0000195374D01*
X0000876192Y0000178770D01*
X0000887629Y0000171128D01*
X0000875581Y0000165348D01*
X0000859177Y0000147045D01*
X0000852367Y0000130604D01*
X0000858090Y0000120866D01*
X0000907479Y0000120866D01*
X0000907479Y0000121653D01*
X0000919291Y0000121653D01*
X0000919291Y0000120866D01*
X0000920078Y0000120866D01*
X0000920078Y0000109055D01*
X0000919291Y0000109055D01*
X0000919291Y0000059627D01*
X0000929029Y0000053941D01*
X0000951189Y0000064572D01*
X0000963582Y0000078399D01*
X0000963582Y0000020668D01*
X0000192993Y0000020668D01*
X0000197157Y0000024462D01*
X0000208587Y0000048786D01*
X0000202974Y0000059448D01*
X0000147637Y0000059448D01*
X0000147637Y0000058661D01*
X0000135826Y0000058661D01*
X0000135826Y0000059448D01*
X0000080489Y0000059448D01*
X0000074876Y0000048786D01*
X0000086306Y0000024462D01*
X0000090470Y0000020668D01*
X0000020668Y0000020668D01*
X0000020668Y0000651890D01*
X0000041272Y0000651890D01*
X0000047134Y0000643699D01*
X0000096455Y0000643699D01*
X0000096455Y0000683780D01*
X0000088059Y0000691121D01*
X0000067992Y0000685355D01*
X0000051658Y0000672349D01*
X0000041545Y0000654081D01*
X0000041272Y0000651890D01*
X0000020668Y0000651890D01*
X0000020668Y0001081692D01*
X0000205541Y0001081692D01*
X0000198446Y0001076952D01*
G36*
X0000783464Y0000409448D02*
X0000785562Y0000398902D01*
X0000791536Y0000389961D01*
X0000803545Y0000377952D01*
X0000800688Y0000377952D01*
X0000793307Y0000370570D01*
X0000793307Y0000320866D01*
X0000794094Y0000320866D01*
X0000794094Y0000309055D01*
X0000793307Y0000309055D01*
X0000793307Y0000308267D01*
X0000781496Y0000308267D01*
X0000781496Y0000309055D01*
X0000780708Y0000309055D01*
X0000780708Y0000320866D01*
X0000781496Y0000320866D01*
X0000781496Y0000370570D01*
X0000774114Y0000377952D01*
X0000748063Y0000377952D01*
X0000737210Y0000373457D01*
X0000728904Y0000365150D01*
X0000724409Y0000354298D01*
X0000724409Y0000328248D01*
X0000731791Y0000320866D01*
X0000724409Y0000320866D01*
X0000724409Y0000316927D01*
X0000716535Y0000324801D01*
X0000716535Y0000749999D01*
X0000748222Y0000749999D01*
X0000768561Y0000754045D01*
X0000783464Y0000764003D01*
X0000783464Y0000409448D01*
X0000783464Y0000409448D01*
G37*
X0000783464Y0000409448D02*
X0000785562Y0000398902D01*
X0000791536Y0000389961D01*
X0000803545Y0000377952D01*
X0000800688Y0000377952D01*
X0000793307Y0000370570D01*
X0000793307Y0000320866D01*
X0000794094Y0000320866D01*
X0000794094Y0000309055D01*
X0000793307Y0000309055D01*
X0000793307Y0000308267D01*
X0000781496Y0000308267D01*
X0000781496Y0000309055D01*
X0000780708Y0000309055D01*
X0000780708Y0000320866D01*
X0000781496Y0000320866D01*
X0000781496Y0000370570D01*
X0000774114Y0000377952D01*
X0000748063Y0000377952D01*
X0000737210Y0000373457D01*
X0000728904Y0000365150D01*
X0000724409Y0000354298D01*
X0000724409Y0000328248D01*
X0000731791Y0000320866D01*
X0000724409Y0000320866D01*
X0000724409Y0000316927D01*
X0000716535Y0000324801D01*
X0000716535Y0000749999D01*
X0000748222Y0000749999D01*
X0000768561Y0000754045D01*
X0000783464Y0000764003D01*
X0000783464Y0000409448D01*
G01*
D32*
D33*
X-0003070866Y0003858267D02*
X0001751968Y0001039369D03*
X0001555118Y0001039369D03*
X0001358267Y0001039369D03*
X0001751968Y0000803149D03*
X0001555118Y0000803149D03*
X0001358267Y0000803149D03*
D34*
X0001456692Y0000606299D03*
X0001456692Y0000448818D03*
X0001456692Y0000291338D03*
X0001653542Y0000606299D03*
X0001653542Y0000448818D03*
X0001653542Y0000291338D03*
D35*
X0001555118Y0000125984D03*
D36*
X0001165354Y0000559055D03*
D37*
X0001165354Y0000637795D03*
D38*
X0001976377Y0000314960D03*
D39*
X0001976377Y0000214960D03*
X0001976377Y0000114960D03*
D36*
X0001952755Y0000637795D03*
D37*
X0001952755Y0000559055D03*
D38*
X0001850393Y0000314960D03*
D39*
X0001850393Y0000214960D03*
X0001850393Y0000114960D03*
D40*
X0001204724Y0000289763D03*
D41*
X0001204724Y0000389763D03*
D40*
X0001204724Y0000065353D03*
D41*
X0001204724Y0000165354D03*
D42*
X0001555118Y0001043307D02*
X0001555118Y0000990157D01*
X0001555118Y0000990157D02*
X0001529527Y0000964565D01*
X0001529527Y0000964565D02*
X0001346456Y0000964565D01*
X0001346456Y0000964565D02*
X0001236220Y0000854330D01*
X0001236220Y0000854330D02*
X0001236220Y0000480293D01*
X0001236220Y0000480293D02*
X0001204724Y0000448798D01*
X0001204724Y0000448798D02*
X0001204724Y0000389763D01*
X0001204724Y0000165354D02*
X0001263759Y0000165354D01*
X0001421259Y0000708660D02*
X0001507874Y0000708660D01*
X0001263759Y0000165354D02*
X0001311023Y0000212617D01*
X0001311023Y0000212617D02*
X0001311023Y0000598425D01*
X0001311023Y0000598425D02*
X0001421259Y0000708660D01*
X0001507874Y0000708660D02*
X0001555118Y0000755905D01*
X0001555118Y0000755905D02*
X0001555118Y0000807086D01*
X0001358267Y0000807086D02*
X0001358267Y0000860236D01*
X0001358267Y0000860236D02*
X0001383858Y0000885826D01*
X0001383858Y0000885826D02*
X0001748031Y0000885826D01*
X0001976377Y0000214960D02*
X0001913385Y0000277952D01*
X0001913385Y0000277952D02*
X0001913385Y0000370077D01*
X0001913385Y0000370077D02*
X0001874015Y0000409448D01*
X0001874015Y0000409448D02*
X0001874015Y0000858267D01*
X0001874015Y0000858267D02*
X0001846456Y0000885826D01*
X0001846456Y0000885826D02*
X0001748031Y0000885826D01*
X0001751968Y0000889763D02*
X0001748031Y0000885826D01*
X0001751968Y0000889763D02*
X0001751968Y0001043307D01*
X0001751968Y0000807086D02*
X0001751968Y0000313385D01*
X0001751968Y0000313385D02*
X0001850393Y0000214960D01*
D43*
G36*
X0001261438Y0001076952D02*
X0001249917Y0001059709D01*
X0001245871Y0001039369D01*
X0001249917Y0001019030D01*
X0001261438Y0001001787D01*
X0001278681Y0000990266D01*
X0001299021Y0000986220D01*
X0001330211Y0000986220D01*
X0001326968Y0000984054D01*
X0001216733Y0000873817D01*
X0001210759Y0000864877D01*
X0001210759Y0000864877D01*
X0001208661Y0000854330D01*
X0001208661Y0000678239D01*
X0001199724Y0000685355D01*
X0001179656Y0000691121D01*
X0001171259Y0000683780D01*
X0001171259Y0000643699D01*
X0001172047Y0000643699D01*
X0001172047Y0000631889D01*
X0001171259Y0000631889D01*
X0001171259Y0000631102D01*
X0001159448Y0000631102D01*
X0001159448Y0000631889D01*
X0001110126Y0000631889D01*
X0001104265Y0000623699D01*
X0001104537Y0000621508D01*
X0001114650Y0000603241D01*
X0001122015Y0000597376D01*
X0001119294Y0000595625D01*
X0001115249Y0000589704D01*
X0001113826Y0000582677D01*
X0001113826Y0000535433D01*
X0001115061Y0000528867D01*
X0001118941Y0000522837D01*
X0001124862Y0000518792D01*
X0001131889Y0000517368D01*
X0001198818Y0000517368D01*
X0001205384Y0000518603D01*
X0001208661Y0000520713D01*
X0001208661Y0000491710D01*
X0001185237Y0000468285D01*
X0001179263Y0000459345D01*
X0001179263Y0000459345D01*
X0001177165Y0000448798D01*
X0001177165Y0000447177D01*
X0001165374Y0000447177D01*
X0001158809Y0000445942D01*
X0001152779Y0000442061D01*
X0001148733Y0000436141D01*
X0001147310Y0000429113D01*
X0001147310Y0000350413D01*
X0001148546Y0000343848D01*
X0001152426Y0000337818D01*
X0001155132Y0000335969D01*
X0001149298Y0000330655D01*
X0001137868Y0000306331D01*
X0001143482Y0000295669D01*
X0001198818Y0000295669D01*
X0001198818Y0000296456D01*
X0001210629Y0000296456D01*
X0001210629Y0000295669D01*
X0001265966Y0000295669D01*
X0001271579Y0000306331D01*
X0001260150Y0000330655D01*
X0001254328Y0000335958D01*
X0001256669Y0000337465D01*
X0001260714Y0000343385D01*
X0001262138Y0000350413D01*
X0001262138Y0000429113D01*
X0001260902Y0000435679D01*
X0001257022Y0000441708D01*
X0001251102Y0000445754D01*
X0001244074Y0000447177D01*
X0001242077Y0000447177D01*
X0001255707Y0000460807D01*
X0001261681Y0000469748D01*
X0001263779Y0000480293D01*
X0001263779Y0000764003D01*
X0001278681Y0000754045D01*
X0001299021Y0000749999D01*
X0001417513Y0000749999D01*
X0001437853Y0000754045D01*
X0001455096Y0000765567D01*
X0001456692Y0000767956D01*
X0001458289Y0000765567D01*
X0001475532Y0000754045D01*
X0001495871Y0000749999D01*
X0001510238Y0000749999D01*
X0001496458Y0000736220D01*
X0001421259Y0000736220D01*
X0001410713Y0000734122D01*
X0001401772Y0000728148D01*
X0001291536Y0000617912D01*
X0001285562Y0000608971D01*
X0001285562Y0000608971D01*
X0001283464Y0000598425D01*
X0001283464Y0000224033D01*
X0001262138Y0000202707D01*
X0001262138Y0000204704D01*
X0001260902Y0000211269D01*
X0001257022Y0000217299D01*
X0001251102Y0000221344D01*
X0001244074Y0000222767D01*
X0001210629Y0000222767D01*
X0001210629Y0000228552D01*
X0001221292Y0000222908D01*
X0001240283Y0000230773D01*
X0001260150Y0000248872D01*
X0001271579Y0000273195D01*
X0001265966Y0000283858D01*
X0001210629Y0000283858D01*
X0001210629Y0000283070D01*
X0001198818Y0000283070D01*
X0001198818Y0000283858D01*
X0001143482Y0000283858D01*
X0001137868Y0000273195D01*
X0001149298Y0000248872D01*
X0001169165Y0000230773D01*
X0001188156Y0000222908D01*
X0001198818Y0000228552D01*
X0001198818Y0000222767D01*
X0001165374Y0000222767D01*
X0001158809Y0000221531D01*
X0001152779Y0000217652D01*
X0001148733Y0000211732D01*
X0001147310Y0000204704D01*
X0001147310Y0000126004D01*
X0001148546Y0000119437D01*
X0001152426Y0000113409D01*
X0001155132Y0000111560D01*
X0001149298Y0000106245D01*
X0001137868Y0000081922D01*
X0001143482Y0000071259D01*
X0001198818Y0000071259D01*
X0001198818Y0000072047D01*
X0001210629Y0000072047D01*
X0001210629Y0000071259D01*
X0001265966Y0000071259D01*
X0001271579Y0000081922D01*
X0001260150Y0000106245D01*
X0001255994Y0000110031D01*
X0001454745Y0000110031D01*
X0001455440Y0000106580D01*
X0001467606Y0000084225D01*
X0001487400Y0000068228D01*
X0001511811Y0000061023D01*
X0001549212Y0000061023D01*
X0001549212Y0000120078D01*
X0001561023Y0000120078D01*
X0001561023Y0000061023D01*
X0001598425Y0000061023D01*
X0001622835Y0000068228D01*
X0001642629Y0000084225D01*
X0001654795Y0000106580D01*
X0001655491Y0000110031D01*
X0001649794Y0000120078D01*
X0001561023Y0000120078D01*
X0001549212Y0000120078D01*
X0001460441Y0000120078D01*
X0001454745Y0000110031D01*
X0001255994Y0000110031D01*
X0001254328Y0000111549D01*
X0001256669Y0000113056D01*
X0001260714Y0000118976D01*
X0001262138Y0000126004D01*
X0001262138Y0000137795D01*
X0001263759Y0000137795D01*
X0001274304Y0000139893D01*
X0001277364Y0000141937D01*
X0001454745Y0000141937D01*
X0001460441Y0000131889D01*
X0001549212Y0000131889D01*
X0001549212Y0000190944D01*
X0001561023Y0000190944D01*
X0001561023Y0000131889D01*
X0001649794Y0000131889D01*
X0001655491Y0000141937D01*
X0001654795Y0000145387D01*
X0001642629Y0000167742D01*
X0001622835Y0000183740D01*
X0001598425Y0000190944D01*
X0001561023Y0000190944D01*
X0001549212Y0000190944D01*
X0001511811Y0000190944D01*
X0001487400Y0000183740D01*
X0001467606Y0000167742D01*
X0001455440Y0000145387D01*
X0001454745Y0000141937D01*
X0001277364Y0000141937D01*
X0001283246Y0000145867D01*
X0001330509Y0000193131D01*
X0001330509Y0000193131D01*
X0001333497Y0000197601D01*
X0001336484Y0000202072D01*
X0001338582Y0000212617D01*
X0001338582Y0000212617D01*
X0001338582Y0000310443D01*
X0001403543Y0000310443D01*
X0001403543Y0000272233D01*
X0001407589Y0000251894D01*
X0001419110Y0000234651D01*
X0001436353Y0000223129D01*
X0001456692Y0000219084D01*
X0001477032Y0000223129D01*
X0001494275Y0000234651D01*
X0001505796Y0000251894D01*
X0001509842Y0000272233D01*
X0001509842Y0000310443D01*
X0001600393Y0000310443D01*
X0001600393Y0000272233D01*
X0001604439Y0000251894D01*
X0001615960Y0000234651D01*
X0001633203Y0000223129D01*
X0001653542Y0000219084D01*
X0001673882Y0000223129D01*
X0001691125Y0000234651D01*
X0001702647Y0000251894D01*
X0001706692Y0000272233D01*
X0001706692Y0000310443D01*
X0001702647Y0000330782D01*
X0001691125Y0000348025D01*
X0001673882Y0000359546D01*
X0001653542Y0000363593D01*
X0001633203Y0000359546D01*
X0001615960Y0000348025D01*
X0001604439Y0000330782D01*
X0001600393Y0000310443D01*
X0001509842Y0000310443D01*
X0001505796Y0000330782D01*
X0001494275Y0000348025D01*
X0001477032Y0000359546D01*
X0001456692Y0000363593D01*
X0001436353Y0000359546D01*
X0001419110Y0000348025D01*
X0001407589Y0000330782D01*
X0001403543Y0000310443D01*
X0001338582Y0000310443D01*
X0001338582Y0000467923D01*
X0001403543Y0000467923D01*
X0001403543Y0000429714D01*
X0001407589Y0000409374D01*
X0001419110Y0000392131D01*
X0001436353Y0000380610D01*
X0001456692Y0000376564D01*
X0001477032Y0000380610D01*
X0001494275Y0000392131D01*
X0001505796Y0000409374D01*
X0001509842Y0000429714D01*
X0001509842Y0000467923D01*
X0001600393Y0000467923D01*
X0001600393Y0000429714D01*
X0001604439Y0000409374D01*
X0001615960Y0000392131D01*
X0001633203Y0000380610D01*
X0001653542Y0000376564D01*
X0001673882Y0000380610D01*
X0001691125Y0000392131D01*
X0001702647Y0000409374D01*
X0001706692Y0000429714D01*
X0001706692Y0000467923D01*
X0001702647Y0000488263D01*
X0001691125Y0000505506D01*
X0001673882Y0000517027D01*
X0001653542Y0000521073D01*
X0001633203Y0000517027D01*
X0001615960Y0000505506D01*
X0001604439Y0000488263D01*
X0001600393Y0000467923D01*
X0001509842Y0000467923D01*
X0001505796Y0000488263D01*
X0001494275Y0000505506D01*
X0001477032Y0000517027D01*
X0001456692Y0000521073D01*
X0001436353Y0000517027D01*
X0001419110Y0000505506D01*
X0001407589Y0000488263D01*
X0001403543Y0000467923D01*
X0001338582Y0000467923D01*
X0001338582Y0000587009D01*
X0001376976Y0000625404D01*
X0001403543Y0000625404D01*
X0001403543Y0000587194D01*
X0001407589Y0000566854D01*
X0001419110Y0000549611D01*
X0001436353Y0000538090D01*
X0001456692Y0000534044D01*
X0001477032Y0000538090D01*
X0001494275Y0000549611D01*
X0001505796Y0000566854D01*
X0001509842Y0000587194D01*
X0001509842Y0000625404D01*
X0001600393Y0000625404D01*
X0001600393Y0000587194D01*
X0001604439Y0000566854D01*
X0001615960Y0000549611D01*
X0001633203Y0000538090D01*
X0001653542Y0000534044D01*
X0001673882Y0000538090D01*
X0001691125Y0000549611D01*
X0001702647Y0000566854D01*
X0001706692Y0000587194D01*
X0001706692Y0000625404D01*
X0001702647Y0000645743D01*
X0001691125Y0000662986D01*
X0001673882Y0000674506D01*
X0001653542Y0000678553D01*
X0001633203Y0000674506D01*
X0001615960Y0000662986D01*
X0001604439Y0000645743D01*
X0001600393Y0000625404D01*
X0001509842Y0000625404D01*
X0001505796Y0000645743D01*
X0001494275Y0000662986D01*
X0001477032Y0000674506D01*
X0001456692Y0000678553D01*
X0001436353Y0000674506D01*
X0001419110Y0000662986D01*
X0001407589Y0000645743D01*
X0001403543Y0000625404D01*
X0001376976Y0000625404D01*
X0001432675Y0000681102D01*
X0001507874Y0000681102D01*
X0001518419Y0000683199D01*
X0001527361Y0000689174D01*
X0001574604Y0000736418D01*
X0001580579Y0000745359D01*
X0001580579Y0000745359D01*
X0001581502Y0000749999D01*
X0001614364Y0000749999D01*
X0001634703Y0000754045D01*
X0001651946Y0000765567D01*
X0001653542Y0000767956D01*
X0001655139Y0000765567D01*
X0001672382Y0000754045D01*
X0001692722Y0000749999D01*
X0001724409Y0000749999D01*
X0001724409Y0000313385D01*
X0001726507Y0000302839D01*
X0001732480Y0000293898D01*
X0001800401Y0000225978D01*
X0001798209Y0000214960D01*
X0001802105Y0000195374D01*
X0001813200Y0000178770D01*
X0001829804Y0000167675D01*
X0001843453Y0000164960D01*
X0001829804Y0000162245D01*
X0001813200Y0000151151D01*
X0001802105Y0000134546D01*
X0001798209Y0000114960D01*
X0001802105Y0000095374D01*
X0001813200Y0000078770D01*
X0001829804Y0000067675D01*
X0001849390Y0000063779D01*
X0001851396Y0000063779D01*
X0001870982Y0000067675D01*
X0001887586Y0000078770D01*
X0001898681Y0000095374D01*
X0001899465Y0000099317D01*
X0001915359Y0000099317D01*
X0001922169Y0000082875D01*
X0001938574Y0000064572D01*
X0001960734Y0000053941D01*
X0001970471Y0000059627D01*
X0001970471Y0000109055D01*
X0001921082Y0000109055D01*
X0001915359Y0000099317D01*
X0001899465Y0000099317D01*
X0001902576Y0000114960D01*
X0001898681Y0000134546D01*
X0001887586Y0000151151D01*
X0001870982Y0000162245D01*
X0001857334Y0000164960D01*
X0001870982Y0000167675D01*
X0001887586Y0000178770D01*
X0001898681Y0000195374D01*
X0001902576Y0000214960D01*
X0001898681Y0000234546D01*
X0001887586Y0000251151D01*
X0001886363Y0000251968D01*
X0001889731Y0000251968D01*
X0001897271Y0000255091D01*
X0001926385Y0000225978D01*
X0001924193Y0000214960D01*
X0001928090Y0000195374D01*
X0001939184Y0000178770D01*
X0001950621Y0000171128D01*
X0001938574Y0000165348D01*
X0001922169Y0000147045D01*
X0001915359Y0000130604D01*
X0001921082Y0000120866D01*
X0001970471Y0000120866D01*
X0001970471Y0000121653D01*
X0001982283Y0000121653D01*
X0001982283Y0000120866D01*
X0001983070Y0000120866D01*
X0001983070Y0000109055D01*
X0001982283Y0000109055D01*
X0001982283Y0000059627D01*
X0001992021Y0000053941D01*
X0002014181Y0000064572D01*
X0002026574Y0000078399D01*
X0002026574Y0000020668D01*
X0001255986Y0000020668D01*
X0001260150Y0000024462D01*
X0001271579Y0000048786D01*
X0001265966Y0000059448D01*
X0001210629Y0000059448D01*
X0001210629Y0000058661D01*
X0001198818Y0000058661D01*
X0001198818Y0000059448D01*
X0001143482Y0000059448D01*
X0001137868Y0000048786D01*
X0001149298Y0000024462D01*
X0001153462Y0000020668D01*
X0001083661Y0000020668D01*
X0001083661Y0000651890D01*
X0001104265Y0000651890D01*
X0001110126Y0000643699D01*
X0001159448Y0000643699D01*
X0001159448Y0000683780D01*
X0001151051Y0000691121D01*
X0001130984Y0000685355D01*
X0001114650Y0000672349D01*
X0001104537Y0000654081D01*
X0001104265Y0000651890D01*
X0001083661Y0000651890D01*
X0001083661Y0001081692D01*
X0001268532Y0001081692D01*
X0001261438Y0001076952D01*
X0001261438Y0001076952D01*
G37*
X0001261438Y0001076952D02*
X0001249917Y0001059709D01*
X0001245871Y0001039369D01*
X0001249917Y0001019030D01*
X0001261438Y0001001787D01*
X0001278681Y0000990266D01*
X0001299021Y0000986220D01*
X0001330211Y0000986220D01*
X0001326968Y0000984054D01*
X0001216733Y0000873817D01*
X0001210759Y0000864877D01*
X0001210759Y0000864877D01*
X0001208661Y0000854330D01*
X0001208661Y0000678239D01*
X0001199724Y0000685355D01*
X0001179656Y0000691121D01*
X0001171259Y0000683780D01*
X0001171259Y0000643699D01*
X0001172047Y0000643699D01*
X0001172047Y0000631889D01*
X0001171259Y0000631889D01*
X0001171259Y0000631102D01*
X0001159448Y0000631102D01*
X0001159448Y0000631889D01*
X0001110126Y0000631889D01*
X0001104265Y0000623699D01*
X0001104537Y0000621508D01*
X0001114650Y0000603241D01*
X0001122015Y0000597376D01*
X0001119294Y0000595625D01*
X0001115249Y0000589704D01*
X0001113826Y0000582677D01*
X0001113826Y0000535433D01*
X0001115061Y0000528867D01*
X0001118941Y0000522837D01*
X0001124862Y0000518792D01*
X0001131889Y0000517368D01*
X0001198818Y0000517368D01*
X0001205384Y0000518603D01*
X0001208661Y0000520713D01*
X0001208661Y0000491710D01*
X0001185237Y0000468285D01*
X0001179263Y0000459345D01*
X0001179263Y0000459345D01*
X0001177165Y0000448798D01*
X0001177165Y0000447177D01*
X0001165374Y0000447177D01*
X0001158809Y0000445942D01*
X0001152779Y0000442061D01*
X0001148733Y0000436141D01*
X0001147310Y0000429113D01*
X0001147310Y0000350413D01*
X0001148546Y0000343848D01*
X0001152426Y0000337818D01*
X0001155132Y0000335969D01*
X0001149298Y0000330655D01*
X0001137868Y0000306331D01*
X0001143482Y0000295669D01*
X0001198818Y0000295669D01*
X0001198818Y0000296456D01*
X0001210629Y0000296456D01*
X0001210629Y0000295669D01*
X0001265966Y0000295669D01*
X0001271579Y0000306331D01*
X0001260150Y0000330655D01*
X0001254328Y0000335958D01*
X0001256669Y0000337465D01*
X0001260714Y0000343385D01*
X0001262138Y0000350413D01*
X0001262138Y0000429113D01*
X0001260902Y0000435679D01*
X0001257022Y0000441708D01*
X0001251102Y0000445754D01*
X0001244074Y0000447177D01*
X0001242077Y0000447177D01*
X0001255707Y0000460807D01*
X0001261681Y0000469748D01*
X0001263779Y0000480293D01*
X0001263779Y0000764003D01*
X0001278681Y0000754045D01*
X0001299021Y0000749999D01*
X0001417513Y0000749999D01*
X0001437853Y0000754045D01*
X0001455096Y0000765567D01*
X0001456692Y0000767956D01*
X0001458289Y0000765567D01*
X0001475532Y0000754045D01*
X0001495871Y0000749999D01*
X0001510238Y0000749999D01*
X0001496458Y0000736220D01*
X0001421259Y0000736220D01*
X0001410713Y0000734122D01*
X0001401772Y0000728148D01*
X0001291536Y0000617912D01*
X0001285562Y0000608971D01*
X0001285562Y0000608971D01*
X0001283464Y0000598425D01*
X0001283464Y0000224033D01*
X0001262138Y0000202707D01*
X0001262138Y0000204704D01*
X0001260902Y0000211269D01*
X0001257022Y0000217299D01*
X0001251102Y0000221344D01*
X0001244074Y0000222767D01*
X0001210629Y0000222767D01*
X0001210629Y0000228552D01*
X0001221292Y0000222908D01*
X0001240283Y0000230773D01*
X0001260150Y0000248872D01*
X0001271579Y0000273195D01*
X0001265966Y0000283858D01*
X0001210629Y0000283858D01*
X0001210629Y0000283070D01*
X0001198818Y0000283070D01*
X0001198818Y0000283858D01*
X0001143482Y0000283858D01*
X0001137868Y0000273195D01*
X0001149298Y0000248872D01*
X0001169165Y0000230773D01*
X0001188156Y0000222908D01*
X0001198818Y0000228552D01*
X0001198818Y0000222767D01*
X0001165374Y0000222767D01*
X0001158809Y0000221531D01*
X0001152779Y0000217652D01*
X0001148733Y0000211732D01*
X0001147310Y0000204704D01*
X0001147310Y0000126004D01*
X0001148546Y0000119437D01*
X0001152426Y0000113409D01*
X0001155132Y0000111560D01*
X0001149298Y0000106245D01*
X0001137868Y0000081922D01*
X0001143482Y0000071259D01*
X0001198818Y0000071259D01*
X0001198818Y0000072047D01*
X0001210629Y0000072047D01*
X0001210629Y0000071259D01*
X0001265966Y0000071259D01*
X0001271579Y0000081922D01*
X0001260150Y0000106245D01*
X0001255994Y0000110031D01*
X0001454745Y0000110031D01*
X0001455440Y0000106580D01*
X0001467606Y0000084225D01*
X0001487400Y0000068228D01*
X0001511811Y0000061023D01*
X0001549212Y0000061023D01*
X0001549212Y0000120078D01*
X0001561023Y0000120078D01*
X0001561023Y0000061023D01*
X0001598425Y0000061023D01*
X0001622835Y0000068228D01*
X0001642629Y0000084225D01*
X0001654795Y0000106580D01*
X0001655491Y0000110031D01*
X0001649794Y0000120078D01*
X0001561023Y0000120078D01*
X0001549212Y0000120078D01*
X0001460441Y0000120078D01*
X0001454745Y0000110031D01*
X0001255994Y0000110031D01*
X0001254328Y0000111549D01*
X0001256669Y0000113056D01*
X0001260714Y0000118976D01*
X0001262138Y0000126004D01*
X0001262138Y0000137795D01*
X0001263759Y0000137795D01*
X0001274304Y0000139893D01*
X0001277364Y0000141937D01*
X0001454745Y0000141937D01*
X0001460441Y0000131889D01*
X0001549212Y0000131889D01*
X0001549212Y0000190944D01*
X0001561023Y0000190944D01*
X0001561023Y0000131889D01*
X0001649794Y0000131889D01*
X0001655491Y0000141937D01*
X0001654795Y0000145387D01*
X0001642629Y0000167742D01*
X0001622835Y0000183740D01*
X0001598425Y0000190944D01*
X0001561023Y0000190944D01*
X0001549212Y0000190944D01*
X0001511811Y0000190944D01*
X0001487400Y0000183740D01*
X0001467606Y0000167742D01*
X0001455440Y0000145387D01*
X0001454745Y0000141937D01*
X0001277364Y0000141937D01*
X0001283246Y0000145867D01*
X0001330509Y0000193131D01*
X0001330509Y0000193131D01*
X0001333497Y0000197601D01*
X0001336484Y0000202072D01*
X0001338582Y0000212617D01*
X0001338582Y0000212617D01*
X0001338582Y0000310443D01*
X0001403543Y0000310443D01*
X0001403543Y0000272233D01*
X0001407589Y0000251894D01*
X0001419110Y0000234651D01*
X0001436353Y0000223129D01*
X0001456692Y0000219084D01*
X0001477032Y0000223129D01*
X0001494275Y0000234651D01*
X0001505796Y0000251894D01*
X0001509842Y0000272233D01*
X0001509842Y0000310443D01*
X0001600393Y0000310443D01*
X0001600393Y0000272233D01*
X0001604439Y0000251894D01*
X0001615960Y0000234651D01*
X0001633203Y0000223129D01*
X0001653542Y0000219084D01*
X0001673882Y0000223129D01*
X0001691125Y0000234651D01*
X0001702647Y0000251894D01*
X0001706692Y0000272233D01*
X0001706692Y0000310443D01*
X0001702647Y0000330782D01*
X0001691125Y0000348025D01*
X0001673882Y0000359546D01*
X0001653542Y0000363593D01*
X0001633203Y0000359546D01*
X0001615960Y0000348025D01*
X0001604439Y0000330782D01*
X0001600393Y0000310443D01*
X0001509842Y0000310443D01*
X0001505796Y0000330782D01*
X0001494275Y0000348025D01*
X0001477032Y0000359546D01*
X0001456692Y0000363593D01*
X0001436353Y0000359546D01*
X0001419110Y0000348025D01*
X0001407589Y0000330782D01*
X0001403543Y0000310443D01*
X0001338582Y0000310443D01*
X0001338582Y0000467923D01*
X0001403543Y0000467923D01*
X0001403543Y0000429714D01*
X0001407589Y0000409374D01*
X0001419110Y0000392131D01*
X0001436353Y0000380610D01*
X0001456692Y0000376564D01*
X0001477032Y0000380610D01*
X0001494275Y0000392131D01*
X0001505796Y0000409374D01*
X0001509842Y0000429714D01*
X0001509842Y0000467923D01*
X0001600393Y0000467923D01*
X0001600393Y0000429714D01*
X0001604439Y0000409374D01*
X0001615960Y0000392131D01*
X0001633203Y0000380610D01*
X0001653542Y0000376564D01*
X0001673882Y0000380610D01*
X0001691125Y0000392131D01*
X0001702647Y0000409374D01*
X0001706692Y0000429714D01*
X0001706692Y0000467923D01*
X0001702647Y0000488263D01*
X0001691125Y0000505506D01*
X0001673882Y0000517027D01*
X0001653542Y0000521073D01*
X0001633203Y0000517027D01*
X0001615960Y0000505506D01*
X0001604439Y0000488263D01*
X0001600393Y0000467923D01*
X0001509842Y0000467923D01*
X0001505796Y0000488263D01*
X0001494275Y0000505506D01*
X0001477032Y0000517027D01*
X0001456692Y0000521073D01*
X0001436353Y0000517027D01*
X0001419110Y0000505506D01*
X0001407589Y0000488263D01*
X0001403543Y0000467923D01*
X0001338582Y0000467923D01*
X0001338582Y0000587009D01*
X0001376976Y0000625404D01*
X0001403543Y0000625404D01*
X0001403543Y0000587194D01*
X0001407589Y0000566854D01*
X0001419110Y0000549611D01*
X0001436353Y0000538090D01*
X0001456692Y0000534044D01*
X0001477032Y0000538090D01*
X0001494275Y0000549611D01*
X0001505796Y0000566854D01*
X0001509842Y0000587194D01*
X0001509842Y0000625404D01*
X0001600393Y0000625404D01*
X0001600393Y0000587194D01*
X0001604439Y0000566854D01*
X0001615960Y0000549611D01*
X0001633203Y0000538090D01*
X0001653542Y0000534044D01*
X0001673882Y0000538090D01*
X0001691125Y0000549611D01*
X0001702647Y0000566854D01*
X0001706692Y0000587194D01*
X0001706692Y0000625404D01*
X0001702647Y0000645743D01*
X0001691125Y0000662986D01*
X0001673882Y0000674506D01*
X0001653542Y0000678553D01*
X0001633203Y0000674506D01*
X0001615960Y0000662986D01*
X0001604439Y0000645743D01*
X0001600393Y0000625404D01*
X0001509842Y0000625404D01*
X0001505796Y0000645743D01*
X0001494275Y0000662986D01*
X0001477032Y0000674506D01*
X0001456692Y0000678553D01*
X0001436353Y0000674506D01*
X0001419110Y0000662986D01*
X0001407589Y0000645743D01*
X0001403543Y0000625404D01*
X0001376976Y0000625404D01*
X0001432675Y0000681102D01*
X0001507874Y0000681102D01*
X0001518419Y0000683199D01*
X0001527361Y0000689174D01*
X0001574604Y0000736418D01*
X0001580579Y0000745359D01*
X0001580579Y0000745359D01*
X0001581502Y0000749999D01*
X0001614364Y0000749999D01*
X0001634703Y0000754045D01*
X0001651946Y0000765567D01*
X0001653542Y0000767956D01*
X0001655139Y0000765567D01*
X0001672382Y0000754045D01*
X0001692722Y0000749999D01*
X0001724409Y0000749999D01*
X0001724409Y0000313385D01*
X0001726507Y0000302839D01*
X0001732480Y0000293898D01*
X0001800401Y0000225978D01*
X0001798209Y0000214960D01*
X0001802105Y0000195374D01*
X0001813200Y0000178770D01*
X0001829804Y0000167675D01*
X0001843453Y0000164960D01*
X0001829804Y0000162245D01*
X0001813200Y0000151151D01*
X0001802105Y0000134546D01*
X0001798209Y0000114960D01*
X0001802105Y0000095374D01*
X0001813200Y0000078770D01*
X0001829804Y0000067675D01*
X0001849390Y0000063779D01*
X0001851396Y0000063779D01*
X0001870982Y0000067675D01*
X0001887586Y0000078770D01*
X0001898681Y0000095374D01*
X0001899465Y0000099317D01*
X0001915359Y0000099317D01*
X0001922169Y0000082875D01*
X0001938574Y0000064572D01*
X0001960734Y0000053941D01*
X0001970471Y0000059627D01*
X0001970471Y0000109055D01*
X0001921082Y0000109055D01*
X0001915359Y0000099317D01*
X0001899465Y0000099317D01*
X0001902576Y0000114960D01*
X0001898681Y0000134546D01*
X0001887586Y0000151151D01*
X0001870982Y0000162245D01*
X0001857334Y0000164960D01*
X0001870982Y0000167675D01*
X0001887586Y0000178770D01*
X0001898681Y0000195374D01*
X0001902576Y0000214960D01*
X0001898681Y0000234546D01*
X0001887586Y0000251151D01*
X0001886363Y0000251968D01*
X0001889731Y0000251968D01*
X0001897271Y0000255091D01*
X0001926385Y0000225978D01*
X0001924193Y0000214960D01*
X0001928090Y0000195374D01*
X0001939184Y0000178770D01*
X0001950621Y0000171128D01*
X0001938574Y0000165348D01*
X0001922169Y0000147045D01*
X0001915359Y0000130604D01*
X0001921082Y0000120866D01*
X0001970471Y0000120866D01*
X0001970471Y0000121653D01*
X0001982283Y0000121653D01*
X0001982283Y0000120866D01*
X0001983070Y0000120866D01*
X0001983070Y0000109055D01*
X0001982283Y0000109055D01*
X0001982283Y0000059627D01*
X0001992021Y0000053941D01*
X0002014181Y0000064572D01*
X0002026574Y0000078399D01*
X0002026574Y0000020668D01*
X0001255986Y0000020668D01*
X0001260150Y0000024462D01*
X0001271579Y0000048786D01*
X0001265966Y0000059448D01*
X0001210629Y0000059448D01*
X0001210629Y0000058661D01*
X0001198818Y0000058661D01*
X0001198818Y0000059448D01*
X0001143482Y0000059448D01*
X0001137868Y0000048786D01*
X0001149298Y0000024462D01*
X0001153462Y0000020668D01*
X0001083661Y0000020668D01*
X0001083661Y0000651890D01*
X0001104265Y0000651890D01*
X0001110126Y0000643699D01*
X0001159448Y0000643699D01*
X0001159448Y0000683780D01*
X0001151051Y0000691121D01*
X0001130984Y0000685355D01*
X0001114650Y0000672349D01*
X0001104537Y0000654081D01*
X0001104265Y0000651890D01*
X0001083661Y0000651890D01*
X0001083661Y0001081692D01*
X0001268532Y0001081692D01*
X0001261438Y0001076952D01*
G36*
X0001846456Y0000409448D02*
X0001848554Y0000398902D01*
X0001854527Y0000389961D01*
X0001866537Y0000377952D01*
X0001863681Y0000377952D01*
X0001856298Y0000370570D01*
X0001856298Y0000320866D01*
X0001857086Y0000320866D01*
X0001857086Y0000309055D01*
X0001856298Y0000309055D01*
X0001856298Y0000308267D01*
X0001844488Y0000308267D01*
X0001844488Y0000309055D01*
X0001843700Y0000309055D01*
X0001843700Y0000320866D01*
X0001844488Y0000320866D01*
X0001844488Y0000370570D01*
X0001837106Y0000377952D01*
X0001811055Y0000377952D01*
X0001800203Y0000373457D01*
X0001791895Y0000365150D01*
X0001787401Y0000354298D01*
X0001787401Y0000328248D01*
X0001794783Y0000320866D01*
X0001787401Y0000320866D01*
X0001787401Y0000316927D01*
X0001779527Y0000324801D01*
X0001779527Y0000749999D01*
X0001811214Y0000749999D01*
X0001831554Y0000754045D01*
X0001846456Y0000764003D01*
X0001846456Y0000409448D01*
X0001846456Y0000409448D01*
G37*
X0001846456Y0000409448D02*
X0001848554Y0000398902D01*
X0001854527Y0000389961D01*
X0001866537Y0000377952D01*
X0001863681Y0000377952D01*
X0001856298Y0000370570D01*
X0001856298Y0000320866D01*
X0001857086Y0000320866D01*
X0001857086Y0000309055D01*
X0001856298Y0000309055D01*
X0001856298Y0000308267D01*
X0001844488Y0000308267D01*
X0001844488Y0000309055D01*
X0001843700Y0000309055D01*
X0001843700Y0000320866D01*
X0001844488Y0000320866D01*
X0001844488Y0000370570D01*
X0001837106Y0000377952D01*
X0001811055Y0000377952D01*
X0001800203Y0000373457D01*
X0001791895Y0000365150D01*
X0001787401Y0000354298D01*
X0001787401Y0000328248D01*
X0001794783Y0000320866D01*
X0001787401Y0000320866D01*
X0001787401Y0000316927D01*
X0001779527Y0000324801D01*
X0001779527Y0000749999D01*
X0001811214Y0000749999D01*
X0001831554Y0000754045D01*
X0001846456Y0000764003D01*
X0001846456Y0000409448D01*
G04 next file*
%LPD*%
G01*
D54*
D55*
X-0004133858Y0005039370D02*
X0000688976Y0002220472D03*
X0000492125Y0002220472D03*
X0000295275Y0002220472D03*
X0000688976Y0001984251D03*
X0000492125Y0001984251D03*
X0000295275Y0001984251D03*
D56*
X0000393700Y0001787401D03*
X0000393700Y0001629921D03*
X0000393700Y0001472440D03*
X0000590551Y0001787401D03*
X0000590551Y0001629921D03*
X0000590551Y0001472440D03*
D57*
X0000492125Y0001307086D03*
D58*
X0000102362Y0001740157D03*
D59*
X0000102362Y0001818897D03*
D60*
X0000913385Y0001496062D03*
D61*
X0000913385Y0001396062D03*
X0000913385Y0001296062D03*
D58*
X0000889763Y0001818897D03*
D59*
X0000889763Y0001740157D03*
D60*
X0000787401Y0001496062D03*
D61*
X0000787401Y0001396062D03*
X0000787401Y0001296062D03*
D62*
X0000141732Y0001470866D03*
D63*
X0000141732Y0001570866D03*
D62*
X0000141732Y0001246456D03*
D63*
X0000141732Y0001346456D03*
D64*
X0000492125Y0002224409D02*
X0000492125Y0002171259D01*
X0000492125Y0002171259D02*
X0000466535Y0002145669D01*
X0000466535Y0002145669D02*
X0000283464Y0002145669D01*
X0000283464Y0002145669D02*
X0000173228Y0002035432D01*
X0000173228Y0002035432D02*
X0000173228Y0001661397D01*
X0000173228Y0001661397D02*
X0000141732Y0001629901D01*
X0000141732Y0001629901D02*
X0000141732Y0001570866D01*
X0000141732Y0001346456D02*
X0000200767Y0001346456D01*
X0000358267Y0001889762D02*
X0000444881Y0001889762D01*
X0000200767Y0001346456D02*
X0000248031Y0001393720D01*
X0000248031Y0001393720D02*
X0000248031Y0001779527D01*
X0000248031Y0001779527D02*
X0000358267Y0001889762D01*
X0000444881Y0001889762D02*
X0000492125Y0001937006D01*
X0000492125Y0001937006D02*
X0000492125Y0001988188D01*
X0000295275Y0001988188D02*
X0000295275Y0002041338D01*
X0000295275Y0002041338D02*
X0000320866Y0002066929D01*
X0000320866Y0002066929D02*
X0000685039Y0002066929D01*
X0000913385Y0001396062D02*
X0000850392Y0001459055D01*
X0000850392Y0001459055D02*
X0000850392Y0001551181D01*
X0000850392Y0001551181D02*
X0000811023Y0001590551D01*
X0000811023Y0001590551D02*
X0000811023Y0002039370D01*
X0000811023Y0002039370D02*
X0000783464Y0002066929D01*
X0000783464Y0002066929D02*
X0000685039Y0002066929D01*
X0000688976Y0002070866D02*
X0000685039Y0002066929D01*
X0000688976Y0002070866D02*
X0000688976Y0002224409D01*
X0000688976Y0001988188D02*
X0000688976Y0001494488D01*
X0000688976Y0001494488D02*
X0000787401Y0001396062D01*
D65*
G36*
X0000198446Y0002258054D02*
X0000186925Y0002240811D01*
X0000182879Y0002220472D01*
X0000186925Y0002200132D01*
X0000198446Y0002182890D01*
X0000215689Y0002171368D01*
X0000236029Y0002167322D01*
X0000267219Y0002167322D01*
X0000263977Y0002165156D01*
X0000153741Y0002054920D01*
X0000147767Y0002045979D01*
X0000147767Y0002045979D01*
X0000145669Y0002035432D01*
X0000145669Y0001859341D01*
X0000136732Y0001866458D01*
X0000116663Y0001872224D01*
X0000108267Y0001864883D01*
X0000108267Y0001824803D01*
X0000109055Y0001824803D01*
X0000109055Y0001812992D01*
X0000108267Y0001812992D01*
X0000108267Y0001812203D01*
X0000096455Y0001812203D01*
X0000096455Y0001812992D01*
X0000047134Y0001812992D01*
X0000041272Y0001804801D01*
X0000041545Y0001802611D01*
X0000051658Y0001784343D01*
X0000059023Y0001778478D01*
X0000056302Y0001776726D01*
X0000052257Y0001770807D01*
X0000050834Y0001763779D01*
X0000050834Y0001716535D01*
X0000052069Y0001709970D01*
X0000055949Y0001703940D01*
X0000061869Y0001699894D01*
X0000068897Y0001698470D01*
X0000135826Y0001698470D01*
X0000142392Y0001699707D01*
X0000145669Y0001701815D01*
X0000145669Y0001672812D01*
X0000122245Y0001649388D01*
X0000116270Y0001640447D01*
X0000116270Y0001640447D01*
X0000114173Y0001629901D01*
X0000114173Y0001628279D01*
X0000102381Y0001628279D01*
X0000095816Y0001627044D01*
X0000089787Y0001623164D01*
X0000085741Y0001617243D01*
X0000084318Y0001610216D01*
X0000084318Y0001531516D01*
X0000085554Y0001524950D01*
X0000089434Y0001518920D01*
X0000092140Y0001517071D01*
X0000086306Y0001511757D01*
X0000074876Y0001487434D01*
X0000080489Y0001476770D01*
X0000135826Y0001476770D01*
X0000135826Y0001477559D01*
X0000147637Y0001477559D01*
X0000147637Y0001476770D01*
X0000202974Y0001476770D01*
X0000208587Y0001487434D01*
X0000197157Y0001511757D01*
X0000191336Y0001517061D01*
X0000193677Y0001518567D01*
X0000197721Y0001524488D01*
X0000199145Y0001531516D01*
X0000199145Y0001610216D01*
X0000197910Y0001616781D01*
X0000194030Y0001622811D01*
X0000188110Y0001626856D01*
X0000181082Y0001628279D01*
X0000179085Y0001628279D01*
X0000192715Y0001641910D01*
X0000198688Y0001650849D01*
X0000200787Y0001661397D01*
X0000200787Y0001945105D01*
X0000215689Y0001935148D01*
X0000236029Y0001931101D01*
X0000354521Y0001931101D01*
X0000374861Y0001935148D01*
X0000392104Y0001946669D01*
X0000393700Y0001949058D01*
X0000395297Y0001946669D01*
X0000412539Y0001935148D01*
X0000432878Y0001931101D01*
X0000447246Y0001931101D01*
X0000433466Y0001917322D01*
X0000358267Y0001917322D01*
X0000347721Y0001915224D01*
X0000338780Y0001909250D01*
X0000228544Y0001799014D01*
X0000222570Y0001790073D01*
X0000222570Y0001790073D01*
X0000220471Y0001779527D01*
X0000220471Y0001405135D01*
X0000199145Y0001383809D01*
X0000199145Y0001385806D01*
X0000197910Y0001392372D01*
X0000194030Y0001398401D01*
X0000188110Y0001402447D01*
X0000181082Y0001403870D01*
X0000147637Y0001403870D01*
X0000147637Y0001409654D01*
X0000158300Y0001404010D01*
X0000177290Y0001411876D01*
X0000197157Y0001429974D01*
X0000208587Y0001454298D01*
X0000202974Y0001464960D01*
X0000147637Y0001464960D01*
X0000147637Y0001464173D01*
X0000135826Y0001464173D01*
X0000135826Y0001464960D01*
X0000080489Y0001464960D01*
X0000074876Y0001454298D01*
X0000086306Y0001429974D01*
X0000106173Y0001411876D01*
X0000125164Y0001404010D01*
X0000135826Y0001409654D01*
X0000135826Y0001403870D01*
X0000102381Y0001403870D01*
X0000095816Y0001402634D01*
X0000089787Y0001398754D01*
X0000085741Y0001392834D01*
X0000084318Y0001385806D01*
X0000084318Y0001307106D01*
X0000085554Y0001300541D01*
X0000089434Y0001294511D01*
X0000092140Y0001292662D01*
X0000086306Y0001287347D01*
X0000074876Y0001263024D01*
X0000080489Y0001252362D01*
X0000135826Y0001252362D01*
X0000135826Y0001253149D01*
X0000147637Y0001253149D01*
X0000147637Y0001252362D01*
X0000202974Y0001252362D01*
X0000208587Y0001263024D01*
X0000197157Y0001287347D01*
X0000193002Y0001291133D01*
X0000391752Y0001291133D01*
X0000392448Y0001287683D01*
X0000404614Y0001265328D01*
X0000424409Y0001249330D01*
X0000448818Y0001242125D01*
X0000486220Y0001242125D01*
X0000486220Y0001301181D01*
X0000498031Y0001301181D01*
X0000498031Y0001242125D01*
X0000535433Y0001242125D01*
X0000559842Y0001249330D01*
X0000579637Y0001265328D01*
X0000591803Y0001287683D01*
X0000592498Y0001291133D01*
X0000586802Y0001301181D01*
X0000498031Y0001301181D01*
X0000486220Y0001301181D01*
X0000397449Y0001301181D01*
X0000391752Y0001291133D01*
X0000193002Y0001291133D01*
X0000191336Y0001292651D01*
X0000193677Y0001294158D01*
X0000197721Y0001300078D01*
X0000199145Y0001307106D01*
X0000199145Y0001318897D01*
X0000200767Y0001318897D01*
X0000211313Y0001320995D01*
X0000214371Y0001323039D01*
X0000391752Y0001323039D01*
X0000397449Y0001312992D01*
X0000486220Y0001312992D01*
X0000486220Y0001372047D01*
X0000498031Y0001372047D01*
X0000498031Y0001312992D01*
X0000586802Y0001312992D01*
X0000592498Y0001323039D01*
X0000591803Y0001326489D01*
X0000579637Y0001348844D01*
X0000559842Y0001364842D01*
X0000535433Y0001372047D01*
X0000498031Y0001372047D01*
X0000486220Y0001372047D01*
X0000448818Y0001372047D01*
X0000424409Y0001364842D01*
X0000404614Y0001348844D01*
X0000392448Y0001326489D01*
X0000391752Y0001323039D01*
X0000214371Y0001323039D01*
X0000220254Y0001326968D01*
X0000267518Y0001374232D01*
X0000267518Y0001374232D01*
X0000270505Y0001378703D01*
X0000273492Y0001383174D01*
X0000275590Y0001393720D01*
X0000275590Y0001393721D01*
X0000275590Y0001491545D01*
X0000340551Y0001491545D01*
X0000340551Y0001453336D01*
X0000344596Y0001432996D01*
X0000356118Y0001415753D01*
X0000373361Y0001404232D01*
X0000393700Y0001400186D01*
X0000414039Y0001404232D01*
X0000431283Y0001415753D01*
X0000442804Y0001432996D01*
X0000446850Y0001453336D01*
X0000446850Y0001491545D01*
X0000537401Y0001491545D01*
X0000537401Y0001453336D01*
X0000541447Y0001432996D01*
X0000552968Y0001415753D01*
X0000570211Y0001404232D01*
X0000590551Y0001400186D01*
X0000610890Y0001404232D01*
X0000628133Y0001415753D01*
X0000639654Y0001432996D01*
X0000643699Y0001453336D01*
X0000643699Y0001491545D01*
X0000639654Y0001511885D01*
X0000628133Y0001529128D01*
X0000610890Y0001540649D01*
X0000590551Y0001544694D01*
X0000570211Y0001540649D01*
X0000552968Y0001529128D01*
X0000541447Y0001511885D01*
X0000537401Y0001491545D01*
X0000446850Y0001491545D01*
X0000442804Y0001511885D01*
X0000431283Y0001529128D01*
X0000414039Y0001540649D01*
X0000393700Y0001544694D01*
X0000373361Y0001540649D01*
X0000356118Y0001529128D01*
X0000344596Y0001511885D01*
X0000340551Y0001491545D01*
X0000275590Y0001491545D01*
X0000275590Y0001649026D01*
X0000340551Y0001649026D01*
X0000340551Y0001610816D01*
X0000344596Y0001590476D01*
X0000356118Y0001573233D01*
X0000373361Y0001561712D01*
X0000393700Y0001557665D01*
X0000414039Y0001561712D01*
X0000431283Y0001573233D01*
X0000442804Y0001590476D01*
X0000446850Y0001610816D01*
X0000446850Y0001649026D01*
X0000537401Y0001649026D01*
X0000537401Y0001610816D01*
X0000541447Y0001590476D01*
X0000552968Y0001573233D01*
X0000570211Y0001561712D01*
X0000590551Y0001557665D01*
X0000610890Y0001561712D01*
X0000628133Y0001573233D01*
X0000639654Y0001590476D01*
X0000643699Y0001610816D01*
X0000643699Y0001649026D01*
X0000639654Y0001669365D01*
X0000628133Y0001686608D01*
X0000610890Y0001698129D01*
X0000590551Y0001702175D01*
X0000570211Y0001698129D01*
X0000552968Y0001686608D01*
X0000541447Y0001669365D01*
X0000537401Y0001649026D01*
X0000446850Y0001649026D01*
X0000442804Y0001669365D01*
X0000431283Y0001686608D01*
X0000414039Y0001698129D01*
X0000393700Y0001702175D01*
X0000373361Y0001698129D01*
X0000356118Y0001686608D01*
X0000344596Y0001669365D01*
X0000340551Y0001649026D01*
X0000275590Y0001649026D01*
X0000275590Y0001768112D01*
X0000313984Y0001806506D01*
X0000340551Y0001806506D01*
X0000340551Y0001768296D01*
X0000344596Y0001747957D01*
X0000356118Y0001730714D01*
X0000373361Y0001719191D01*
X0000393700Y0001715147D01*
X0000414039Y0001719191D01*
X0000431283Y0001730714D01*
X0000442804Y0001747957D01*
X0000446850Y0001768296D01*
X0000446850Y0001806506D01*
X0000537401Y0001806506D01*
X0000537401Y0001768296D01*
X0000541447Y0001747957D01*
X0000552968Y0001730714D01*
X0000570211Y0001719191D01*
X0000590551Y0001715147D01*
X0000610890Y0001719191D01*
X0000628133Y0001730714D01*
X0000639654Y0001747957D01*
X0000643699Y0001768296D01*
X0000643699Y0001806506D01*
X0000639654Y0001826845D01*
X0000628133Y0001844088D01*
X0000610890Y0001855610D01*
X0000590551Y0001859656D01*
X0000570211Y0001855610D01*
X0000552968Y0001844088D01*
X0000541447Y0001826845D01*
X0000537401Y0001806506D01*
X0000446850Y0001806506D01*
X0000442804Y0001826845D01*
X0000431283Y0001844088D01*
X0000414039Y0001855610D01*
X0000393700Y0001859656D01*
X0000373361Y0001855610D01*
X0000356118Y0001844088D01*
X0000344596Y0001826845D01*
X0000340551Y0001806506D01*
X0000313984Y0001806506D01*
X0000369683Y0001862204D01*
X0000444881Y0001862204D01*
X0000455428Y0001864302D01*
X0000464369Y0001870276D01*
X0000511613Y0001917520D01*
X0000517587Y0001926461D01*
X0000517587Y0001926461D01*
X0000518510Y0001931101D01*
X0000551372Y0001931101D01*
X0000571711Y0001935148D01*
X0000588954Y0001946669D01*
X0000590551Y0001949058D01*
X0000592147Y0001946669D01*
X0000609390Y0001935148D01*
X0000629730Y0001931101D01*
X0000661417Y0001931101D01*
X0000661417Y0001494488D01*
X0000663515Y0001483941D01*
X0000669489Y0001475000D01*
X0000737409Y0001407080D01*
X0000735216Y0001396062D01*
X0000739113Y0001376476D01*
X0000750208Y0001359872D01*
X0000766812Y0001348777D01*
X0000780461Y0001346062D01*
X0000766812Y0001343348D01*
X0000750208Y0001332253D01*
X0000739113Y0001315649D01*
X0000735216Y0001296062D01*
X0000739113Y0001276475D01*
X0000750208Y0001259872D01*
X0000766812Y0001248777D01*
X0000786398Y0001244881D01*
X0000788404Y0001244881D01*
X0000807990Y0001248777D01*
X0000824594Y0001259872D01*
X0000835689Y0001276475D01*
X0000836473Y0001280419D01*
X0000852367Y0001280419D01*
X0000859177Y0001263977D01*
X0000875581Y0001245675D01*
X0000897741Y0001235043D01*
X0000907479Y0001240729D01*
X0000907479Y0001290157D01*
X0000858090Y0001290157D01*
X0000852367Y0001280419D01*
X0000836473Y0001280419D01*
X0000839585Y0001296062D01*
X0000835689Y0001315649D01*
X0000824594Y0001332253D01*
X0000807990Y0001343348D01*
X0000794342Y0001346062D01*
X0000807990Y0001348777D01*
X0000824594Y0001359872D01*
X0000835689Y0001376476D01*
X0000839585Y0001396062D01*
X0000835689Y0001415649D01*
X0000824594Y0001432253D01*
X0000823371Y0001433070D01*
X0000826739Y0001433070D01*
X0000834279Y0001436194D01*
X0000863393Y0001407080D01*
X0000861202Y0001396062D01*
X0000865097Y0001376476D01*
X0000876192Y0001359872D01*
X0000887629Y0001352229D01*
X0000875581Y0001346450D01*
X0000859177Y0001328148D01*
X0000852367Y0001311706D01*
X0000858090Y0001301968D01*
X0000907479Y0001301968D01*
X0000907479Y0001302755D01*
X0000919291Y0001302755D01*
X0000919291Y0001301968D01*
X0000920078Y0001301968D01*
X0000920078Y0001290157D01*
X0000919291Y0001290157D01*
X0000919291Y0001240729D01*
X0000929029Y0001235043D01*
X0000951189Y0001245675D01*
X0000963582Y0001259501D01*
X0000963582Y0001201771D01*
X0000192993Y0001201771D01*
X0000197157Y0001205565D01*
X0000208587Y0001229888D01*
X0000202974Y0001240551D01*
X0000147637Y0001240551D01*
X0000147637Y0001239763D01*
X0000135826Y0001239763D01*
X0000135826Y0001240551D01*
X0000080489Y0001240551D01*
X0000074876Y0001229888D01*
X0000086306Y0001205565D01*
X0000090470Y0001201771D01*
X0000020668Y0001201771D01*
X0000020668Y0001832992D01*
X0000041272Y0001832992D01*
X0000047134Y0001824803D01*
X0000096455Y0001824803D01*
X0000096455Y0001864883D01*
X0000088059Y0001872224D01*
X0000067992Y0001866458D01*
X0000051658Y0001853451D01*
X0000041545Y0001835184D01*
X0000041272Y0001832992D01*
X0000020668Y0001832992D01*
X0000020668Y0002262795D01*
X0000205541Y0002262795D01*
X0000198446Y0002258054D01*
X0000198446Y0002258054D01*
G37*
X0000198446Y0002258054D02*
X0000186925Y0002240811D01*
X0000182879Y0002220472D01*
X0000186925Y0002200132D01*
X0000198446Y0002182890D01*
X0000215689Y0002171368D01*
X0000236029Y0002167322D01*
X0000267219Y0002167322D01*
X0000263977Y0002165156D01*
X0000153741Y0002054920D01*
X0000147767Y0002045979D01*
X0000147767Y0002045979D01*
X0000145669Y0002035432D01*
X0000145669Y0001859341D01*
X0000136732Y0001866458D01*
X0000116663Y0001872224D01*
X0000108267Y0001864883D01*
X0000108267Y0001824803D01*
X0000109055Y0001824803D01*
X0000109055Y0001812992D01*
X0000108267Y0001812992D01*
X0000108267Y0001812203D01*
X0000096455Y0001812203D01*
X0000096455Y0001812992D01*
X0000047134Y0001812992D01*
X0000041272Y0001804801D01*
X0000041545Y0001802611D01*
X0000051658Y0001784343D01*
X0000059023Y0001778478D01*
X0000056302Y0001776726D01*
X0000052257Y0001770807D01*
X0000050834Y0001763779D01*
X0000050834Y0001716535D01*
X0000052069Y0001709970D01*
X0000055949Y0001703940D01*
X0000061869Y0001699894D01*
X0000068897Y0001698470D01*
X0000135826Y0001698470D01*
X0000142392Y0001699707D01*
X0000145669Y0001701815D01*
X0000145669Y0001672812D01*
X0000122245Y0001649388D01*
X0000116270Y0001640447D01*
X0000116270Y0001640447D01*
X0000114173Y0001629901D01*
X0000114173Y0001628279D01*
X0000102381Y0001628279D01*
X0000095816Y0001627044D01*
X0000089787Y0001623164D01*
X0000085741Y0001617243D01*
X0000084318Y0001610216D01*
X0000084318Y0001531516D01*
X0000085554Y0001524950D01*
X0000089434Y0001518920D01*
X0000092140Y0001517071D01*
X0000086306Y0001511757D01*
X0000074876Y0001487434D01*
X0000080489Y0001476770D01*
X0000135826Y0001476770D01*
X0000135826Y0001477559D01*
X0000147637Y0001477559D01*
X0000147637Y0001476770D01*
X0000202974Y0001476770D01*
X0000208587Y0001487434D01*
X0000197157Y0001511757D01*
X0000191336Y0001517061D01*
X0000193677Y0001518567D01*
X0000197721Y0001524488D01*
X0000199145Y0001531516D01*
X0000199145Y0001610216D01*
X0000197910Y0001616781D01*
X0000194030Y0001622811D01*
X0000188110Y0001626856D01*
X0000181082Y0001628279D01*
X0000179085Y0001628279D01*
X0000192715Y0001641910D01*
X0000198688Y0001650849D01*
X0000200787Y0001661397D01*
X0000200787Y0001945105D01*
X0000215689Y0001935148D01*
X0000236029Y0001931101D01*
X0000354521Y0001931101D01*
X0000374861Y0001935148D01*
X0000392104Y0001946669D01*
X0000393700Y0001949058D01*
X0000395297Y0001946669D01*
X0000412539Y0001935148D01*
X0000432878Y0001931101D01*
X0000447246Y0001931101D01*
X0000433466Y0001917322D01*
X0000358267Y0001917322D01*
X0000347721Y0001915224D01*
X0000338780Y0001909250D01*
X0000228544Y0001799014D01*
X0000222570Y0001790073D01*
X0000222570Y0001790073D01*
X0000220471Y0001779527D01*
X0000220471Y0001405135D01*
X0000199145Y0001383809D01*
X0000199145Y0001385806D01*
X0000197910Y0001392372D01*
X0000194030Y0001398401D01*
X0000188110Y0001402447D01*
X0000181082Y0001403870D01*
X0000147637Y0001403870D01*
X0000147637Y0001409654D01*
X0000158300Y0001404010D01*
X0000177290Y0001411876D01*
X0000197157Y0001429974D01*
X0000208587Y0001454298D01*
X0000202974Y0001464960D01*
X0000147637Y0001464960D01*
X0000147637Y0001464173D01*
X0000135826Y0001464173D01*
X0000135826Y0001464960D01*
X0000080489Y0001464960D01*
X0000074876Y0001454298D01*
X0000086306Y0001429974D01*
X0000106173Y0001411876D01*
X0000125164Y0001404010D01*
X0000135826Y0001409654D01*
X0000135826Y0001403870D01*
X0000102381Y0001403870D01*
X0000095816Y0001402634D01*
X0000089787Y0001398754D01*
X0000085741Y0001392834D01*
X0000084318Y0001385806D01*
X0000084318Y0001307106D01*
X0000085554Y0001300541D01*
X0000089434Y0001294511D01*
X0000092140Y0001292662D01*
X0000086306Y0001287347D01*
X0000074876Y0001263024D01*
X0000080489Y0001252362D01*
X0000135826Y0001252362D01*
X0000135826Y0001253149D01*
X0000147637Y0001253149D01*
X0000147637Y0001252362D01*
X0000202974Y0001252362D01*
X0000208587Y0001263024D01*
X0000197157Y0001287347D01*
X0000193002Y0001291133D01*
X0000391752Y0001291133D01*
X0000392448Y0001287683D01*
X0000404614Y0001265328D01*
X0000424409Y0001249330D01*
X0000448818Y0001242125D01*
X0000486220Y0001242125D01*
X0000486220Y0001301181D01*
X0000498031Y0001301181D01*
X0000498031Y0001242125D01*
X0000535433Y0001242125D01*
X0000559842Y0001249330D01*
X0000579637Y0001265328D01*
X0000591803Y0001287683D01*
X0000592498Y0001291133D01*
X0000586802Y0001301181D01*
X0000498031Y0001301181D01*
X0000486220Y0001301181D01*
X0000397449Y0001301181D01*
X0000391752Y0001291133D01*
X0000193002Y0001291133D01*
X0000191336Y0001292651D01*
X0000193677Y0001294158D01*
X0000197721Y0001300078D01*
X0000199145Y0001307106D01*
X0000199145Y0001318897D01*
X0000200767Y0001318897D01*
X0000211313Y0001320995D01*
X0000214371Y0001323039D01*
X0000391752Y0001323039D01*
X0000397449Y0001312992D01*
X0000486220Y0001312992D01*
X0000486220Y0001372047D01*
X0000498031Y0001372047D01*
X0000498031Y0001312992D01*
X0000586802Y0001312992D01*
X0000592498Y0001323039D01*
X0000591803Y0001326489D01*
X0000579637Y0001348844D01*
X0000559842Y0001364842D01*
X0000535433Y0001372047D01*
X0000498031Y0001372047D01*
X0000486220Y0001372047D01*
X0000448818Y0001372047D01*
X0000424409Y0001364842D01*
X0000404614Y0001348844D01*
X0000392448Y0001326489D01*
X0000391752Y0001323039D01*
X0000214371Y0001323039D01*
X0000220254Y0001326968D01*
X0000267518Y0001374232D01*
X0000267518Y0001374232D01*
X0000270505Y0001378703D01*
X0000273492Y0001383174D01*
X0000275590Y0001393720D01*
X0000275590Y0001393721D01*
X0000275590Y0001491545D01*
X0000340551Y0001491545D01*
X0000340551Y0001453336D01*
X0000344596Y0001432996D01*
X0000356118Y0001415753D01*
X0000373361Y0001404232D01*
X0000393700Y0001400186D01*
X0000414039Y0001404232D01*
X0000431283Y0001415753D01*
X0000442804Y0001432996D01*
X0000446850Y0001453336D01*
X0000446850Y0001491545D01*
X0000537401Y0001491545D01*
X0000537401Y0001453336D01*
X0000541447Y0001432996D01*
X0000552968Y0001415753D01*
X0000570211Y0001404232D01*
X0000590551Y0001400186D01*
X0000610890Y0001404232D01*
X0000628133Y0001415753D01*
X0000639654Y0001432996D01*
X0000643699Y0001453336D01*
X0000643699Y0001491545D01*
X0000639654Y0001511885D01*
X0000628133Y0001529128D01*
X0000610890Y0001540649D01*
X0000590551Y0001544694D01*
X0000570211Y0001540649D01*
X0000552968Y0001529128D01*
X0000541447Y0001511885D01*
X0000537401Y0001491545D01*
X0000446850Y0001491545D01*
X0000442804Y0001511885D01*
X0000431283Y0001529128D01*
X0000414039Y0001540649D01*
X0000393700Y0001544694D01*
X0000373361Y0001540649D01*
X0000356118Y0001529128D01*
X0000344596Y0001511885D01*
X0000340551Y0001491545D01*
X0000275590Y0001491545D01*
X0000275590Y0001649026D01*
X0000340551Y0001649026D01*
X0000340551Y0001610816D01*
X0000344596Y0001590476D01*
X0000356118Y0001573233D01*
X0000373361Y0001561712D01*
X0000393700Y0001557665D01*
X0000414039Y0001561712D01*
X0000431283Y0001573233D01*
X0000442804Y0001590476D01*
X0000446850Y0001610816D01*
X0000446850Y0001649026D01*
X0000537401Y0001649026D01*
X0000537401Y0001610816D01*
X0000541447Y0001590476D01*
X0000552968Y0001573233D01*
X0000570211Y0001561712D01*
X0000590551Y0001557665D01*
X0000610890Y0001561712D01*
X0000628133Y0001573233D01*
X0000639654Y0001590476D01*
X0000643699Y0001610816D01*
X0000643699Y0001649026D01*
X0000639654Y0001669365D01*
X0000628133Y0001686608D01*
X0000610890Y0001698129D01*
X0000590551Y0001702175D01*
X0000570211Y0001698129D01*
X0000552968Y0001686608D01*
X0000541447Y0001669365D01*
X0000537401Y0001649026D01*
X0000446850Y0001649026D01*
X0000442804Y0001669365D01*
X0000431283Y0001686608D01*
X0000414039Y0001698129D01*
X0000393700Y0001702175D01*
X0000373361Y0001698129D01*
X0000356118Y0001686608D01*
X0000344596Y0001669365D01*
X0000340551Y0001649026D01*
X0000275590Y0001649026D01*
X0000275590Y0001768112D01*
X0000313984Y0001806506D01*
X0000340551Y0001806506D01*
X0000340551Y0001768296D01*
X0000344596Y0001747957D01*
X0000356118Y0001730714D01*
X0000373361Y0001719191D01*
X0000393700Y0001715147D01*
X0000414039Y0001719191D01*
X0000431283Y0001730714D01*
X0000442804Y0001747957D01*
X0000446850Y0001768296D01*
X0000446850Y0001806506D01*
X0000537401Y0001806506D01*
X0000537401Y0001768296D01*
X0000541447Y0001747957D01*
X0000552968Y0001730714D01*
X0000570211Y0001719191D01*
X0000590551Y0001715147D01*
X0000610890Y0001719191D01*
X0000628133Y0001730714D01*
X0000639654Y0001747957D01*
X0000643699Y0001768296D01*
X0000643699Y0001806506D01*
X0000639654Y0001826845D01*
X0000628133Y0001844088D01*
X0000610890Y0001855610D01*
X0000590551Y0001859656D01*
X0000570211Y0001855610D01*
X0000552968Y0001844088D01*
X0000541447Y0001826845D01*
X0000537401Y0001806506D01*
X0000446850Y0001806506D01*
X0000442804Y0001826845D01*
X0000431283Y0001844088D01*
X0000414039Y0001855610D01*
X0000393700Y0001859656D01*
X0000373361Y0001855610D01*
X0000356118Y0001844088D01*
X0000344596Y0001826845D01*
X0000340551Y0001806506D01*
X0000313984Y0001806506D01*
X0000369683Y0001862204D01*
X0000444881Y0001862204D01*
X0000455428Y0001864302D01*
X0000464369Y0001870276D01*
X0000511613Y0001917520D01*
X0000517587Y0001926461D01*
X0000517587Y0001926461D01*
X0000518510Y0001931101D01*
X0000551372Y0001931101D01*
X0000571711Y0001935148D01*
X0000588954Y0001946669D01*
X0000590551Y0001949058D01*
X0000592147Y0001946669D01*
X0000609390Y0001935148D01*
X0000629730Y0001931101D01*
X0000661417Y0001931101D01*
X0000661417Y0001494488D01*
X0000663515Y0001483941D01*
X0000669489Y0001475000D01*
X0000737409Y0001407080D01*
X0000735216Y0001396062D01*
X0000739113Y0001376476D01*
X0000750208Y0001359872D01*
X0000766812Y0001348777D01*
X0000780461Y0001346062D01*
X0000766812Y0001343348D01*
X0000750208Y0001332253D01*
X0000739113Y0001315649D01*
X0000735216Y0001296062D01*
X0000739113Y0001276475D01*
X0000750208Y0001259872D01*
X0000766812Y0001248777D01*
X0000786398Y0001244881D01*
X0000788404Y0001244881D01*
X0000807990Y0001248777D01*
X0000824594Y0001259872D01*
X0000835689Y0001276475D01*
X0000836473Y0001280419D01*
X0000852367Y0001280419D01*
X0000859177Y0001263977D01*
X0000875581Y0001245675D01*
X0000897741Y0001235043D01*
X0000907479Y0001240729D01*
X0000907479Y0001290157D01*
X0000858090Y0001290157D01*
X0000852367Y0001280419D01*
X0000836473Y0001280419D01*
X0000839585Y0001296062D01*
X0000835689Y0001315649D01*
X0000824594Y0001332253D01*
X0000807990Y0001343348D01*
X0000794342Y0001346062D01*
X0000807990Y0001348777D01*
X0000824594Y0001359872D01*
X0000835689Y0001376476D01*
X0000839585Y0001396062D01*
X0000835689Y0001415649D01*
X0000824594Y0001432253D01*
X0000823371Y0001433070D01*
X0000826739Y0001433070D01*
X0000834279Y0001436194D01*
X0000863393Y0001407080D01*
X0000861202Y0001396062D01*
X0000865097Y0001376476D01*
X0000876192Y0001359872D01*
X0000887629Y0001352229D01*
X0000875581Y0001346450D01*
X0000859177Y0001328148D01*
X0000852367Y0001311706D01*
X0000858090Y0001301968D01*
X0000907479Y0001301968D01*
X0000907479Y0001302755D01*
X0000919291Y0001302755D01*
X0000919291Y0001301968D01*
X0000920078Y0001301968D01*
X0000920078Y0001290157D01*
X0000919291Y0001290157D01*
X0000919291Y0001240729D01*
X0000929029Y0001235043D01*
X0000951189Y0001245675D01*
X0000963582Y0001259501D01*
X0000963582Y0001201771D01*
X0000192993Y0001201771D01*
X0000197157Y0001205565D01*
X0000208587Y0001229888D01*
X0000202974Y0001240551D01*
X0000147637Y0001240551D01*
X0000147637Y0001239763D01*
X0000135826Y0001239763D01*
X0000135826Y0001240551D01*
X0000080489Y0001240551D01*
X0000074876Y0001229888D01*
X0000086306Y0001205565D01*
X0000090470Y0001201771D01*
X0000020668Y0001201771D01*
X0000020668Y0001832992D01*
X0000041272Y0001832992D01*
X0000047134Y0001824803D01*
X0000096455Y0001824803D01*
X0000096455Y0001864883D01*
X0000088059Y0001872224D01*
X0000067992Y0001866458D01*
X0000051658Y0001853451D01*
X0000041545Y0001835184D01*
X0000041272Y0001832992D01*
X0000020668Y0001832992D01*
X0000020668Y0002262795D01*
X0000205541Y0002262795D01*
X0000198446Y0002258054D01*
G36*
X0000783464Y0001590551D02*
X0000785562Y0001580004D01*
X0000791536Y0001571063D01*
X0000803545Y0001559055D01*
X0000800688Y0001559055D01*
X0000793307Y0001551673D01*
X0000793307Y0001501968D01*
X0000794094Y0001501968D01*
X0000794094Y0001490156D01*
X0000793307Y0001490156D01*
X0000793307Y0001489370D01*
X0000781496Y0001489370D01*
X0000781496Y0001490156D01*
X0000780708Y0001490156D01*
X0000780708Y0001501968D01*
X0000781496Y0001501968D01*
X0000781496Y0001551673D01*
X0000774114Y0001559055D01*
X0000748063Y0001559055D01*
X0000737210Y0001554558D01*
X0000728904Y0001546253D01*
X0000724409Y0001535400D01*
X0000724409Y0001509350D01*
X0000731791Y0001501968D01*
X0000724409Y0001501968D01*
X0000724409Y0001498029D01*
X0000716535Y0001505903D01*
X0000716535Y0001931101D01*
X0000748222Y0001931101D01*
X0000768561Y0001935148D01*
X0000783464Y0001945105D01*
X0000783464Y0001590551D01*
X0000783464Y0001590551D01*
G37*
X0000783464Y0001590551D02*
X0000785562Y0001580004D01*
X0000791536Y0001571063D01*
X0000803545Y0001559055D01*
X0000800688Y0001559055D01*
X0000793307Y0001551673D01*
X0000793307Y0001501968D01*
X0000794094Y0001501968D01*
X0000794094Y0001490156D01*
X0000793307Y0001490156D01*
X0000793307Y0001489370D01*
X0000781496Y0001489370D01*
X0000781496Y0001490156D01*
X0000780708Y0001490156D01*
X0000780708Y0001501968D01*
X0000781496Y0001501968D01*
X0000781496Y0001551673D01*
X0000774114Y0001559055D01*
X0000748063Y0001559055D01*
X0000737210Y0001554558D01*
X0000728904Y0001546253D01*
X0000724409Y0001535400D01*
X0000724409Y0001509350D01*
X0000731791Y0001501968D01*
X0000724409Y0001501968D01*
X0000724409Y0001498029D01*
X0000716535Y0001505903D01*
X0000716535Y0001931101D01*
X0000748222Y0001931101D01*
X0000768561Y0001935148D01*
X0000783464Y0001945105D01*
X0000783464Y0001590551D01*
G04 next file*
G04 #@! TF.FileFunction,Copper,L2,Bot,Signal*
G04 Gerber Fmt 4.6, Leading zero omitted, Abs format (unit mm)*
G04 Created by KiCad (PCBNEW 4.0.7) date 04/30/18 06:53:42*
G01*
G04 APERTURE LIST*
G04 APERTURE END LIST*
D76*
D77*
X-0003070866Y0005039370D02*
X0001751968Y0002220472D03*
X0001555118Y0002220472D03*
X0001358267Y0002220472D03*
X0001751968Y0001984251D03*
X0001555118Y0001984251D03*
X0001358267Y0001984251D03*
D78*
X0001456692Y0001787401D03*
X0001456692Y0001629921D03*
X0001456692Y0001472440D03*
X0001653542Y0001787401D03*
X0001653542Y0001629921D03*
X0001653542Y0001472440D03*
D79*
X0001555118Y0001307086D03*
D80*
X0001165354Y0001740157D03*
D81*
X0001165354Y0001818897D03*
D82*
X0001976377Y0001496062D03*
D83*
X0001976377Y0001396062D03*
X0001976377Y0001296062D03*
D80*
X0001952755Y0001818897D03*
D81*
X0001952755Y0001740157D03*
D82*
X0001850393Y0001496062D03*
D83*
X0001850393Y0001396062D03*
X0001850393Y0001296062D03*
D84*
X0001204724Y0001470866D03*
D85*
X0001204724Y0001570866D03*
D84*
X0001204724Y0001246456D03*
D85*
X0001204724Y0001346456D03*
D86*
X0001555118Y0002224409D02*
X0001555118Y0002171259D01*
X0001555118Y0002171259D02*
X0001529527Y0002145669D01*
X0001529527Y0002145669D02*
X0001346456Y0002145669D01*
X0001346456Y0002145669D02*
X0001236220Y0002035432D01*
X0001236220Y0002035432D02*
X0001236220Y0001661397D01*
X0001236220Y0001661397D02*
X0001204724Y0001629901D01*
X0001204724Y0001629901D02*
X0001204724Y0001570866D01*
X0001204724Y0001346456D02*
X0001263759Y0001346456D01*
X0001421259Y0001889762D02*
X0001507874Y0001889762D01*
X0001263759Y0001346456D02*
X0001311023Y0001393720D01*
X0001311023Y0001393720D02*
X0001311023Y0001779527D01*
X0001311023Y0001779527D02*
X0001421259Y0001889762D01*
X0001507874Y0001889762D02*
X0001555118Y0001937006D01*
X0001555118Y0001937006D02*
X0001555118Y0001988188D01*
X0001358267Y0001988188D02*
X0001358267Y0002041338D01*
X0001358267Y0002041338D02*
X0001383858Y0002066929D01*
X0001383858Y0002066929D02*
X0001748031Y0002066929D01*
X0001976377Y0001396062D02*
X0001913385Y0001459055D01*
X0001913385Y0001459055D02*
X0001913385Y0001551181D01*
X0001913385Y0001551181D02*
X0001874015Y0001590551D01*
X0001874015Y0001590551D02*
X0001874015Y0002039370D01*
X0001874015Y0002039370D02*
X0001846456Y0002066929D01*
X0001846456Y0002066929D02*
X0001748031Y0002066929D01*
X0001751968Y0002070866D02*
X0001748031Y0002066929D01*
X0001751968Y0002070866D02*
X0001751968Y0002224409D01*
X0001751968Y0001988188D02*
X0001751968Y0001494488D01*
X0001751968Y0001494488D02*
X0001850393Y0001396062D01*
D87*
G36*
X0001261438Y0002258054D02*
X0001249917Y0002240811D01*
X0001245871Y0002220472D01*
X0001249917Y0002200132D01*
X0001261438Y0002182890D01*
X0001278681Y0002171368D01*
X0001299021Y0002167322D01*
X0001330211Y0002167322D01*
X0001326968Y0002165156D01*
X0001216733Y0002054920D01*
X0001210759Y0002045979D01*
X0001210759Y0002045979D01*
X0001208661Y0002035432D01*
X0001208661Y0001859341D01*
X0001199724Y0001866458D01*
X0001179656Y0001872224D01*
X0001171259Y0001864883D01*
X0001171259Y0001824803D01*
X0001172047Y0001824803D01*
X0001172047Y0001812992D01*
X0001171259Y0001812992D01*
X0001171259Y0001812203D01*
X0001159448Y0001812203D01*
X0001159448Y0001812992D01*
X0001110126Y0001812992D01*
X0001104265Y0001804801D01*
X0001104537Y0001802611D01*
X0001114650Y0001784343D01*
X0001122015Y0001778478D01*
X0001119294Y0001776726D01*
X0001115249Y0001770807D01*
X0001113826Y0001763779D01*
X0001113826Y0001716535D01*
X0001115061Y0001709970D01*
X0001118941Y0001703940D01*
X0001124862Y0001699894D01*
X0001131889Y0001698470D01*
X0001198818Y0001698470D01*
X0001205384Y0001699707D01*
X0001208661Y0001701815D01*
X0001208661Y0001672812D01*
X0001185237Y0001649388D01*
X0001179263Y0001640447D01*
X0001179263Y0001640447D01*
X0001177165Y0001629901D01*
X0001177165Y0001628279D01*
X0001165374Y0001628279D01*
X0001158809Y0001627044D01*
X0001152779Y0001623164D01*
X0001148733Y0001617243D01*
X0001147310Y0001610216D01*
X0001147310Y0001531516D01*
X0001148546Y0001524950D01*
X0001152426Y0001518920D01*
X0001155132Y0001517071D01*
X0001149298Y0001511757D01*
X0001137868Y0001487434D01*
X0001143482Y0001476770D01*
X0001198818Y0001476770D01*
X0001198818Y0001477559D01*
X0001210629Y0001477559D01*
X0001210629Y0001476770D01*
X0001265966Y0001476770D01*
X0001271579Y0001487434D01*
X0001260150Y0001511757D01*
X0001254328Y0001517061D01*
X0001256669Y0001518567D01*
X0001260714Y0001524488D01*
X0001262138Y0001531516D01*
X0001262138Y0001610216D01*
X0001260902Y0001616781D01*
X0001257022Y0001622811D01*
X0001251102Y0001626856D01*
X0001244074Y0001628279D01*
X0001242077Y0001628279D01*
X0001255707Y0001641910D01*
X0001261681Y0001650849D01*
X0001263779Y0001661397D01*
X0001263779Y0001945105D01*
X0001278681Y0001935148D01*
X0001299021Y0001931101D01*
X0001417513Y0001931101D01*
X0001437853Y0001935148D01*
X0001455096Y0001946669D01*
X0001456692Y0001949058D01*
X0001458289Y0001946669D01*
X0001475532Y0001935148D01*
X0001495871Y0001931101D01*
X0001510238Y0001931101D01*
X0001496458Y0001917322D01*
X0001421259Y0001917322D01*
X0001410713Y0001915224D01*
X0001401772Y0001909250D01*
X0001291536Y0001799014D01*
X0001285562Y0001790073D01*
X0001285562Y0001790073D01*
X0001283464Y0001779527D01*
X0001283464Y0001405135D01*
X0001262138Y0001383809D01*
X0001262138Y0001385806D01*
X0001260902Y0001392372D01*
X0001257022Y0001398401D01*
X0001251102Y0001402447D01*
X0001244074Y0001403870D01*
X0001210629Y0001403870D01*
X0001210629Y0001409654D01*
X0001221292Y0001404010D01*
X0001240283Y0001411876D01*
X0001260150Y0001429974D01*
X0001271579Y0001454298D01*
X0001265966Y0001464960D01*
X0001210629Y0001464960D01*
X0001210629Y0001464173D01*
X0001198818Y0001464173D01*
X0001198818Y0001464960D01*
X0001143482Y0001464960D01*
X0001137868Y0001454298D01*
X0001149298Y0001429974D01*
X0001169165Y0001411876D01*
X0001188156Y0001404010D01*
X0001198818Y0001409654D01*
X0001198818Y0001403870D01*
X0001165374Y0001403870D01*
X0001158809Y0001402634D01*
X0001152779Y0001398754D01*
X0001148733Y0001392834D01*
X0001147310Y0001385806D01*
X0001147310Y0001307106D01*
X0001148546Y0001300541D01*
X0001152426Y0001294511D01*
X0001155132Y0001292662D01*
X0001149298Y0001287347D01*
X0001137868Y0001263024D01*
X0001143482Y0001252362D01*
X0001198818Y0001252362D01*
X0001198818Y0001253149D01*
X0001210629Y0001253149D01*
X0001210629Y0001252362D01*
X0001265966Y0001252362D01*
X0001271579Y0001263024D01*
X0001260150Y0001287347D01*
X0001255994Y0001291133D01*
X0001454745Y0001291133D01*
X0001455440Y0001287683D01*
X0001467606Y0001265328D01*
X0001487400Y0001249330D01*
X0001511811Y0001242125D01*
X0001549212Y0001242125D01*
X0001549212Y0001301181D01*
X0001561023Y0001301181D01*
X0001561023Y0001242125D01*
X0001598425Y0001242125D01*
X0001622835Y0001249330D01*
X0001642629Y0001265328D01*
X0001654795Y0001287683D01*
X0001655491Y0001291133D01*
X0001649794Y0001301181D01*
X0001561023Y0001301181D01*
X0001549212Y0001301181D01*
X0001460441Y0001301181D01*
X0001454745Y0001291133D01*
X0001255994Y0001291133D01*
X0001254328Y0001292651D01*
X0001256669Y0001294158D01*
X0001260714Y0001300078D01*
X0001262138Y0001307106D01*
X0001262138Y0001318897D01*
X0001263759Y0001318897D01*
X0001274304Y0001320995D01*
X0001277364Y0001323039D01*
X0001454745Y0001323039D01*
X0001460441Y0001312992D01*
X0001549212Y0001312992D01*
X0001549212Y0001372047D01*
X0001561023Y0001372047D01*
X0001561023Y0001312992D01*
X0001649794Y0001312992D01*
X0001655491Y0001323039D01*
X0001654795Y0001326489D01*
X0001642629Y0001348844D01*
X0001622835Y0001364842D01*
X0001598425Y0001372047D01*
X0001561023Y0001372047D01*
X0001549212Y0001372047D01*
X0001511811Y0001372047D01*
X0001487400Y0001364842D01*
X0001467606Y0001348844D01*
X0001455440Y0001326489D01*
X0001454745Y0001323039D01*
X0001277364Y0001323039D01*
X0001283246Y0001326968D01*
X0001330509Y0001374232D01*
X0001330509Y0001374232D01*
X0001333497Y0001378703D01*
X0001336484Y0001383174D01*
X0001338582Y0001393720D01*
X0001338582Y0001393721D01*
X0001338582Y0001491545D01*
X0001403543Y0001491545D01*
X0001403543Y0001453336D01*
X0001407589Y0001432996D01*
X0001419110Y0001415753D01*
X0001436353Y0001404232D01*
X0001456692Y0001400186D01*
X0001477032Y0001404232D01*
X0001494275Y0001415753D01*
X0001505796Y0001432996D01*
X0001509842Y0001453336D01*
X0001509842Y0001491545D01*
X0001600393Y0001491545D01*
X0001600393Y0001453336D01*
X0001604439Y0001432996D01*
X0001615960Y0001415753D01*
X0001633203Y0001404232D01*
X0001653542Y0001400186D01*
X0001673882Y0001404232D01*
X0001691125Y0001415753D01*
X0001702647Y0001432996D01*
X0001706692Y0001453336D01*
X0001706692Y0001491545D01*
X0001702647Y0001511885D01*
X0001691125Y0001529128D01*
X0001673882Y0001540649D01*
X0001653542Y0001544694D01*
X0001633203Y0001540649D01*
X0001615960Y0001529128D01*
X0001604439Y0001511885D01*
X0001600393Y0001491545D01*
X0001509842Y0001491545D01*
X0001505796Y0001511885D01*
X0001494275Y0001529128D01*
X0001477032Y0001540649D01*
X0001456692Y0001544694D01*
X0001436353Y0001540649D01*
X0001419110Y0001529128D01*
X0001407589Y0001511885D01*
X0001403543Y0001491545D01*
X0001338582Y0001491545D01*
X0001338582Y0001649026D01*
X0001403543Y0001649026D01*
X0001403543Y0001610816D01*
X0001407589Y0001590476D01*
X0001419110Y0001573233D01*
X0001436353Y0001561712D01*
X0001456692Y0001557665D01*
X0001477032Y0001561712D01*
X0001494275Y0001573233D01*
X0001505796Y0001590476D01*
X0001509842Y0001610816D01*
X0001509842Y0001649026D01*
X0001600393Y0001649026D01*
X0001600393Y0001610816D01*
X0001604439Y0001590476D01*
X0001615960Y0001573233D01*
X0001633203Y0001561712D01*
X0001653542Y0001557665D01*
X0001673882Y0001561712D01*
X0001691125Y0001573233D01*
X0001702647Y0001590476D01*
X0001706692Y0001610816D01*
X0001706692Y0001649026D01*
X0001702647Y0001669365D01*
X0001691125Y0001686608D01*
X0001673882Y0001698129D01*
X0001653542Y0001702175D01*
X0001633203Y0001698129D01*
X0001615960Y0001686608D01*
X0001604439Y0001669365D01*
X0001600393Y0001649026D01*
X0001509842Y0001649026D01*
X0001505796Y0001669365D01*
X0001494275Y0001686608D01*
X0001477032Y0001698129D01*
X0001456692Y0001702175D01*
X0001436353Y0001698129D01*
X0001419110Y0001686608D01*
X0001407589Y0001669365D01*
X0001403543Y0001649026D01*
X0001338582Y0001649026D01*
X0001338582Y0001768112D01*
X0001376976Y0001806506D01*
X0001403543Y0001806506D01*
X0001403543Y0001768296D01*
X0001407589Y0001747957D01*
X0001419110Y0001730714D01*
X0001436353Y0001719191D01*
X0001456692Y0001715147D01*
X0001477032Y0001719191D01*
X0001494275Y0001730714D01*
X0001505796Y0001747957D01*
X0001509842Y0001768296D01*
X0001509842Y0001806506D01*
X0001600393Y0001806506D01*
X0001600393Y0001768296D01*
X0001604439Y0001747957D01*
X0001615960Y0001730714D01*
X0001633203Y0001719191D01*
X0001653542Y0001715147D01*
X0001673882Y0001719191D01*
X0001691125Y0001730714D01*
X0001702647Y0001747957D01*
X0001706692Y0001768296D01*
X0001706692Y0001806506D01*
X0001702647Y0001826845D01*
X0001691125Y0001844088D01*
X0001673882Y0001855610D01*
X0001653542Y0001859656D01*
X0001633203Y0001855610D01*
X0001615960Y0001844088D01*
X0001604439Y0001826845D01*
X0001600393Y0001806506D01*
X0001509842Y0001806506D01*
X0001505796Y0001826845D01*
X0001494275Y0001844088D01*
X0001477032Y0001855610D01*
X0001456692Y0001859656D01*
X0001436353Y0001855610D01*
X0001419110Y0001844088D01*
X0001407589Y0001826845D01*
X0001403543Y0001806506D01*
X0001376976Y0001806506D01*
X0001432675Y0001862204D01*
X0001507874Y0001862204D01*
X0001518419Y0001864302D01*
X0001527361Y0001870276D01*
X0001574604Y0001917520D01*
X0001580579Y0001926461D01*
X0001580579Y0001926461D01*
X0001581502Y0001931101D01*
X0001614364Y0001931101D01*
X0001634703Y0001935148D01*
X0001651946Y0001946669D01*
X0001653542Y0001949058D01*
X0001655139Y0001946669D01*
X0001672382Y0001935148D01*
X0001692722Y0001931101D01*
X0001724409Y0001931101D01*
X0001724409Y0001494488D01*
X0001726507Y0001483941D01*
X0001732480Y0001475000D01*
X0001800401Y0001407080D01*
X0001798209Y0001396062D01*
X0001802105Y0001376476D01*
X0001813200Y0001359872D01*
X0001829804Y0001348777D01*
X0001843453Y0001346062D01*
X0001829804Y0001343348D01*
X0001813200Y0001332253D01*
X0001802105Y0001315649D01*
X0001798209Y0001296062D01*
X0001802105Y0001276475D01*
X0001813200Y0001259872D01*
X0001829804Y0001248777D01*
X0001849390Y0001244881D01*
X0001851396Y0001244881D01*
X0001870982Y0001248777D01*
X0001887586Y0001259872D01*
X0001898681Y0001276475D01*
X0001899465Y0001280419D01*
X0001915359Y0001280419D01*
X0001922169Y0001263977D01*
X0001938574Y0001245675D01*
X0001960734Y0001235043D01*
X0001970471Y0001240729D01*
X0001970471Y0001290157D01*
X0001921082Y0001290157D01*
X0001915359Y0001280419D01*
X0001899465Y0001280419D01*
X0001902576Y0001296062D01*
X0001898681Y0001315649D01*
X0001887586Y0001332253D01*
X0001870982Y0001343348D01*
X0001857334Y0001346062D01*
X0001870982Y0001348777D01*
X0001887586Y0001359872D01*
X0001898681Y0001376476D01*
X0001902576Y0001396062D01*
X0001898681Y0001415649D01*
X0001887586Y0001432253D01*
X0001886363Y0001433070D01*
X0001889731Y0001433070D01*
X0001897271Y0001436194D01*
X0001926385Y0001407080D01*
X0001924193Y0001396062D01*
X0001928090Y0001376476D01*
X0001939184Y0001359872D01*
X0001950621Y0001352229D01*
X0001938574Y0001346450D01*
X0001922169Y0001328148D01*
X0001915359Y0001311706D01*
X0001921082Y0001301968D01*
X0001970471Y0001301968D01*
X0001970471Y0001302755D01*
X0001982283Y0001302755D01*
X0001982283Y0001301968D01*
X0001983070Y0001301968D01*
X0001983070Y0001290157D01*
X0001982283Y0001290157D01*
X0001982283Y0001240729D01*
X0001992021Y0001235043D01*
X0002014181Y0001245675D01*
X0002026574Y0001259501D01*
X0002026574Y0001201771D01*
X0001255986Y0001201771D01*
X0001260150Y0001205565D01*
X0001271579Y0001229888D01*
X0001265966Y0001240551D01*
X0001210629Y0001240551D01*
X0001210629Y0001239763D01*
X0001198818Y0001239763D01*
X0001198818Y0001240551D01*
X0001143482Y0001240551D01*
X0001137868Y0001229888D01*
X0001149298Y0001205565D01*
X0001153462Y0001201771D01*
X0001083661Y0001201771D01*
X0001083661Y0001832992D01*
X0001104265Y0001832992D01*
X0001110126Y0001824803D01*
X0001159448Y0001824803D01*
X0001159448Y0001864883D01*
X0001151051Y0001872224D01*
X0001130984Y0001866458D01*
X0001114650Y0001853451D01*
X0001104537Y0001835184D01*
X0001104265Y0001832992D01*
X0001083661Y0001832992D01*
X0001083661Y0002262795D01*
X0001268532Y0002262795D01*
X0001261438Y0002258054D01*
X0001261438Y0002258054D01*
G37*
X0001261438Y0002258054D02*
X0001249917Y0002240811D01*
X0001245871Y0002220472D01*
X0001249917Y0002200132D01*
X0001261438Y0002182890D01*
X0001278681Y0002171368D01*
X0001299021Y0002167322D01*
X0001330211Y0002167322D01*
X0001326968Y0002165156D01*
X0001216733Y0002054920D01*
X0001210759Y0002045979D01*
X0001210759Y0002045979D01*
X0001208661Y0002035432D01*
X0001208661Y0001859341D01*
X0001199724Y0001866458D01*
X0001179656Y0001872224D01*
X0001171259Y0001864883D01*
X0001171259Y0001824803D01*
X0001172047Y0001824803D01*
X0001172047Y0001812992D01*
X0001171259Y0001812992D01*
X0001171259Y0001812203D01*
X0001159448Y0001812203D01*
X0001159448Y0001812992D01*
X0001110126Y0001812992D01*
X0001104265Y0001804801D01*
X0001104537Y0001802611D01*
X0001114650Y0001784343D01*
X0001122015Y0001778478D01*
X0001119294Y0001776726D01*
X0001115249Y0001770807D01*
X0001113826Y0001763779D01*
X0001113826Y0001716535D01*
X0001115061Y0001709970D01*
X0001118941Y0001703940D01*
X0001124862Y0001699894D01*
X0001131889Y0001698470D01*
X0001198818Y0001698470D01*
X0001205384Y0001699707D01*
X0001208661Y0001701815D01*
X0001208661Y0001672812D01*
X0001185237Y0001649388D01*
X0001179263Y0001640447D01*
X0001179263Y0001640447D01*
X0001177165Y0001629901D01*
X0001177165Y0001628279D01*
X0001165374Y0001628279D01*
X0001158809Y0001627044D01*
X0001152779Y0001623164D01*
X0001148733Y0001617243D01*
X0001147310Y0001610216D01*
X0001147310Y0001531516D01*
X0001148546Y0001524950D01*
X0001152426Y0001518920D01*
X0001155132Y0001517071D01*
X0001149298Y0001511757D01*
X0001137868Y0001487434D01*
X0001143482Y0001476770D01*
X0001198818Y0001476770D01*
X0001198818Y0001477559D01*
X0001210629Y0001477559D01*
X0001210629Y0001476770D01*
X0001265966Y0001476770D01*
X0001271579Y0001487434D01*
X0001260150Y0001511757D01*
X0001254328Y0001517061D01*
X0001256669Y0001518567D01*
X0001260714Y0001524488D01*
X0001262138Y0001531516D01*
X0001262138Y0001610216D01*
X0001260902Y0001616781D01*
X0001257022Y0001622811D01*
X0001251102Y0001626856D01*
X0001244074Y0001628279D01*
X0001242077Y0001628279D01*
X0001255707Y0001641910D01*
X0001261681Y0001650849D01*
X0001263779Y0001661397D01*
X0001263779Y0001945105D01*
X0001278681Y0001935148D01*
X0001299021Y0001931101D01*
X0001417513Y0001931101D01*
X0001437853Y0001935148D01*
X0001455096Y0001946669D01*
X0001456692Y0001949058D01*
X0001458289Y0001946669D01*
X0001475532Y0001935148D01*
X0001495871Y0001931101D01*
X0001510238Y0001931101D01*
X0001496458Y0001917322D01*
X0001421259Y0001917322D01*
X0001410713Y0001915224D01*
X0001401772Y0001909250D01*
X0001291536Y0001799014D01*
X0001285562Y0001790073D01*
X0001285562Y0001790073D01*
X0001283464Y0001779527D01*
X0001283464Y0001405135D01*
X0001262138Y0001383809D01*
X0001262138Y0001385806D01*
X0001260902Y0001392372D01*
X0001257022Y0001398401D01*
X0001251102Y0001402447D01*
X0001244074Y0001403870D01*
X0001210629Y0001403870D01*
X0001210629Y0001409654D01*
X0001221292Y0001404010D01*
X0001240283Y0001411876D01*
X0001260150Y0001429974D01*
X0001271579Y0001454298D01*
X0001265966Y0001464960D01*
X0001210629Y0001464960D01*
X0001210629Y0001464173D01*
X0001198818Y0001464173D01*
X0001198818Y0001464960D01*
X0001143482Y0001464960D01*
X0001137868Y0001454298D01*
X0001149298Y0001429974D01*
X0001169165Y0001411876D01*
X0001188156Y0001404010D01*
X0001198818Y0001409654D01*
X0001198818Y0001403870D01*
X0001165374Y0001403870D01*
X0001158809Y0001402634D01*
X0001152779Y0001398754D01*
X0001148733Y0001392834D01*
X0001147310Y0001385806D01*
X0001147310Y0001307106D01*
X0001148546Y0001300541D01*
X0001152426Y0001294511D01*
X0001155132Y0001292662D01*
X0001149298Y0001287347D01*
X0001137868Y0001263024D01*
X0001143482Y0001252362D01*
X0001198818Y0001252362D01*
X0001198818Y0001253149D01*
X0001210629Y0001253149D01*
X0001210629Y0001252362D01*
X0001265966Y0001252362D01*
X0001271579Y0001263024D01*
X0001260150Y0001287347D01*
X0001255994Y0001291133D01*
X0001454745Y0001291133D01*
X0001455440Y0001287683D01*
X0001467606Y0001265328D01*
X0001487400Y0001249330D01*
X0001511811Y0001242125D01*
X0001549212Y0001242125D01*
X0001549212Y0001301181D01*
X0001561023Y0001301181D01*
X0001561023Y0001242125D01*
X0001598425Y0001242125D01*
X0001622835Y0001249330D01*
X0001642629Y0001265328D01*
X0001654795Y0001287683D01*
X0001655491Y0001291133D01*
X0001649794Y0001301181D01*
X0001561023Y0001301181D01*
X0001549212Y0001301181D01*
X0001460441Y0001301181D01*
X0001454745Y0001291133D01*
X0001255994Y0001291133D01*
X0001254328Y0001292651D01*
X0001256669Y0001294158D01*
X0001260714Y0001300078D01*
X0001262138Y0001307106D01*
X0001262138Y0001318897D01*
X0001263759Y0001318897D01*
X0001274304Y0001320995D01*
X0001277364Y0001323039D01*
X0001454745Y0001323039D01*
X0001460441Y0001312992D01*
X0001549212Y0001312992D01*
X0001549212Y0001372047D01*
X0001561023Y0001372047D01*
X0001561023Y0001312992D01*
X0001649794Y0001312992D01*
X0001655491Y0001323039D01*
X0001654795Y0001326489D01*
X0001642629Y0001348844D01*
X0001622835Y0001364842D01*
X0001598425Y0001372047D01*
X0001561023Y0001372047D01*
X0001549212Y0001372047D01*
X0001511811Y0001372047D01*
X0001487400Y0001364842D01*
X0001467606Y0001348844D01*
X0001455440Y0001326489D01*
X0001454745Y0001323039D01*
X0001277364Y0001323039D01*
X0001283246Y0001326968D01*
X0001330509Y0001374232D01*
X0001330509Y0001374232D01*
X0001333497Y0001378703D01*
X0001336484Y0001383174D01*
X0001338582Y0001393720D01*
X0001338582Y0001393721D01*
X0001338582Y0001491545D01*
X0001403543Y0001491545D01*
X0001403543Y0001453336D01*
X0001407589Y0001432996D01*
X0001419110Y0001415753D01*
X0001436353Y0001404232D01*
X0001456692Y0001400186D01*
X0001477032Y0001404232D01*
X0001494275Y0001415753D01*
X0001505796Y0001432996D01*
X0001509842Y0001453336D01*
X0001509842Y0001491545D01*
X0001600393Y0001491545D01*
X0001600393Y0001453336D01*
X0001604439Y0001432996D01*
X0001615960Y0001415753D01*
X0001633203Y0001404232D01*
X0001653542Y0001400186D01*
X0001673882Y0001404232D01*
X0001691125Y0001415753D01*
X0001702647Y0001432996D01*
X0001706692Y0001453336D01*
X0001706692Y0001491545D01*
X0001702647Y0001511885D01*
X0001691125Y0001529128D01*
X0001673882Y0001540649D01*
X0001653542Y0001544694D01*
X0001633203Y0001540649D01*
X0001615960Y0001529128D01*
X0001604439Y0001511885D01*
X0001600393Y0001491545D01*
X0001509842Y0001491545D01*
X0001505796Y0001511885D01*
X0001494275Y0001529128D01*
X0001477032Y0001540649D01*
X0001456692Y0001544694D01*
X0001436353Y0001540649D01*
X0001419110Y0001529128D01*
X0001407589Y0001511885D01*
X0001403543Y0001491545D01*
X0001338582Y0001491545D01*
X0001338582Y0001649026D01*
X0001403543Y0001649026D01*
X0001403543Y0001610816D01*
X0001407589Y0001590476D01*
X0001419110Y0001573233D01*
X0001436353Y0001561712D01*
X0001456692Y0001557665D01*
X0001477032Y0001561712D01*
X0001494275Y0001573233D01*
X0001505796Y0001590476D01*
X0001509842Y0001610816D01*
X0001509842Y0001649026D01*
X0001600393Y0001649026D01*
X0001600393Y0001610816D01*
X0001604439Y0001590476D01*
X0001615960Y0001573233D01*
X0001633203Y0001561712D01*
X0001653542Y0001557665D01*
X0001673882Y0001561712D01*
X0001691125Y0001573233D01*
X0001702647Y0001590476D01*
X0001706692Y0001610816D01*
X0001706692Y0001649026D01*
X0001702647Y0001669365D01*
X0001691125Y0001686608D01*
X0001673882Y0001698129D01*
X0001653542Y0001702175D01*
X0001633203Y0001698129D01*
X0001615960Y0001686608D01*
X0001604439Y0001669365D01*
X0001600393Y0001649026D01*
X0001509842Y0001649026D01*
X0001505796Y0001669365D01*
X0001494275Y0001686608D01*
X0001477032Y0001698129D01*
X0001456692Y0001702175D01*
X0001436353Y0001698129D01*
X0001419110Y0001686608D01*
X0001407589Y0001669365D01*
X0001403543Y0001649026D01*
X0001338582Y0001649026D01*
X0001338582Y0001768112D01*
X0001376976Y0001806506D01*
X0001403543Y0001806506D01*
X0001403543Y0001768296D01*
X0001407589Y0001747957D01*
X0001419110Y0001730714D01*
X0001436353Y0001719191D01*
X0001456692Y0001715147D01*
X0001477032Y0001719191D01*
X0001494275Y0001730714D01*
X0001505796Y0001747957D01*
X0001509842Y0001768296D01*
X0001509842Y0001806506D01*
X0001600393Y0001806506D01*
X0001600393Y0001768296D01*
X0001604439Y0001747957D01*
X0001615960Y0001730714D01*
X0001633203Y0001719191D01*
X0001653542Y0001715147D01*
X0001673882Y0001719191D01*
X0001691125Y0001730714D01*
X0001702647Y0001747957D01*
X0001706692Y0001768296D01*
X0001706692Y0001806506D01*
X0001702647Y0001826845D01*
X0001691125Y0001844088D01*
X0001673882Y0001855610D01*
X0001653542Y0001859656D01*
X0001633203Y0001855610D01*
X0001615960Y0001844088D01*
X0001604439Y0001826845D01*
X0001600393Y0001806506D01*
X0001509842Y0001806506D01*
X0001505796Y0001826845D01*
X0001494275Y0001844088D01*
X0001477032Y0001855610D01*
X0001456692Y0001859656D01*
X0001436353Y0001855610D01*
X0001419110Y0001844088D01*
X0001407589Y0001826845D01*
X0001403543Y0001806506D01*
X0001376976Y0001806506D01*
X0001432675Y0001862204D01*
X0001507874Y0001862204D01*
X0001518419Y0001864302D01*
X0001527361Y0001870276D01*
X0001574604Y0001917520D01*
X0001580579Y0001926461D01*
X0001580579Y0001926461D01*
X0001581502Y0001931101D01*
X0001614364Y0001931101D01*
X0001634703Y0001935148D01*
X0001651946Y0001946669D01*
X0001653542Y0001949058D01*
X0001655139Y0001946669D01*
X0001672382Y0001935148D01*
X0001692722Y0001931101D01*
X0001724409Y0001931101D01*
X0001724409Y0001494488D01*
X0001726507Y0001483941D01*
X0001732480Y0001475000D01*
X0001800401Y0001407080D01*
X0001798209Y0001396062D01*
X0001802105Y0001376476D01*
X0001813200Y0001359872D01*
X0001829804Y0001348777D01*
X0001843453Y0001346062D01*
X0001829804Y0001343348D01*
X0001813200Y0001332253D01*
X0001802105Y0001315649D01*
X0001798209Y0001296062D01*
X0001802105Y0001276475D01*
X0001813200Y0001259872D01*
X0001829804Y0001248777D01*
X0001849390Y0001244881D01*
X0001851396Y0001244881D01*
X0001870982Y0001248777D01*
X0001887586Y0001259872D01*
X0001898681Y0001276475D01*
X0001899465Y0001280419D01*
X0001915359Y0001280419D01*
X0001922169Y0001263977D01*
X0001938574Y0001245675D01*
X0001960734Y0001235043D01*
X0001970471Y0001240729D01*
X0001970471Y0001290157D01*
X0001921082Y0001290157D01*
X0001915359Y0001280419D01*
X0001899465Y0001280419D01*
X0001902576Y0001296062D01*
X0001898681Y0001315649D01*
X0001887586Y0001332253D01*
X0001870982Y0001343348D01*
X0001857334Y0001346062D01*
X0001870982Y0001348777D01*
X0001887586Y0001359872D01*
X0001898681Y0001376476D01*
X0001902576Y0001396062D01*
X0001898681Y0001415649D01*
X0001887586Y0001432253D01*
X0001886363Y0001433070D01*
X0001889731Y0001433070D01*
X0001897271Y0001436194D01*
X0001926385Y0001407080D01*
X0001924193Y0001396062D01*
X0001928090Y0001376476D01*
X0001939184Y0001359872D01*
X0001950621Y0001352229D01*
X0001938574Y0001346450D01*
X0001922169Y0001328148D01*
X0001915359Y0001311706D01*
X0001921082Y0001301968D01*
X0001970471Y0001301968D01*
X0001970471Y0001302755D01*
X0001982283Y0001302755D01*
X0001982283Y0001301968D01*
X0001983070Y0001301968D01*
X0001983070Y0001290157D01*
X0001982283Y0001290157D01*
X0001982283Y0001240729D01*
X0001992021Y0001235043D01*
X0002014181Y0001245675D01*
X0002026574Y0001259501D01*
X0002026574Y0001201771D01*
X0001255986Y0001201771D01*
X0001260150Y0001205565D01*
X0001271579Y0001229888D01*
X0001265966Y0001240551D01*
X0001210629Y0001240551D01*
X0001210629Y0001239763D01*
X0001198818Y0001239763D01*
X0001198818Y0001240551D01*
X0001143482Y0001240551D01*
X0001137868Y0001229888D01*
X0001149298Y0001205565D01*
X0001153462Y0001201771D01*
X0001083661Y0001201771D01*
X0001083661Y0001832992D01*
X0001104265Y0001832992D01*
X0001110126Y0001824803D01*
X0001159448Y0001824803D01*
X0001159448Y0001864883D01*
X0001151051Y0001872224D01*
X0001130984Y0001866458D01*
X0001114650Y0001853451D01*
X0001104537Y0001835184D01*
X0001104265Y0001832992D01*
X0001083661Y0001832992D01*
X0001083661Y0002262795D01*
X0001268532Y0002262795D01*
X0001261438Y0002258054D01*
G36*
X0001846456Y0001590551D02*
X0001848554Y0001580004D01*
X0001854527Y0001571063D01*
X0001866537Y0001559055D01*
X0001863681Y0001559055D01*
X0001856298Y0001551673D01*
X0001856298Y0001501968D01*
X0001857086Y0001501968D01*
X0001857086Y0001490156D01*
X0001856298Y0001490156D01*
X0001856298Y0001489370D01*
X0001844488Y0001489370D01*
X0001844488Y0001490156D01*
X0001843700Y0001490156D01*
X0001843700Y0001501968D01*
X0001844488Y0001501968D01*
X0001844488Y0001551673D01*
X0001837106Y0001559055D01*
X0001811055Y0001559055D01*
X0001800203Y0001554558D01*
X0001791895Y0001546253D01*
X0001787401Y0001535400D01*
X0001787401Y0001509350D01*
X0001794783Y0001501968D01*
X0001787401Y0001501968D01*
X0001787401Y0001498029D01*
X0001779527Y0001505903D01*
X0001779527Y0001931101D01*
X0001811214Y0001931101D01*
X0001831554Y0001935148D01*
X0001846456Y0001945105D01*
X0001846456Y0001590551D01*
X0001846456Y0001590551D01*
G37*
X0001846456Y0001590551D02*
X0001848554Y0001580004D01*
X0001854527Y0001571063D01*
X0001866537Y0001559055D01*
X0001863681Y0001559055D01*
X0001856298Y0001551673D01*
X0001856298Y0001501968D01*
X0001857086Y0001501968D01*
X0001857086Y0001490156D01*
X0001856298Y0001490156D01*
X0001856298Y0001489370D01*
X0001844488Y0001489370D01*
X0001844488Y0001490156D01*
X0001843700Y0001490156D01*
X0001843700Y0001501968D01*
X0001844488Y0001501968D01*
X0001844488Y0001551673D01*
X0001837106Y0001559055D01*
X0001811055Y0001559055D01*
X0001800203Y0001554558D01*
X0001791895Y0001546253D01*
X0001787401Y0001535400D01*
X0001787401Y0001509350D01*
X0001794783Y0001501968D01*
X0001787401Y0001501968D01*
X0001787401Y0001498029D01*
X0001779527Y0001505903D01*
X0001779527Y0001931101D01*
X0001811214Y0001931101D01*
X0001831554Y0001935148D01*
X0001846456Y0001945105D01*
X0001846456Y0001590551D01*
M02*