%
M48
METRIC,000.000
T01C0.90
T02C1.02
T03C1.10
T10C0.50
%
T01
X006000Y026500G85X009000Y026500
X006000Y020500G85X009000Y020500
X010000Y015000G85X010000Y016000
X010000Y011000G85X010000Y012000
X010000Y007000G85X010000Y008000
X011000Y026500G85X014000Y026500
X011000Y020500G85X014000Y020500
X011500Y003299G85X013500Y003299
X015000Y015000G85X015000Y016000
X015000Y011000G85X015000Y012000
X015000Y007000G85X015000Y008000
X016000Y026500G85X019000Y026500
X016000Y020500G85X019000Y020500
X006000Y057000G85X009000Y057000
X006000Y051000G85X009000Y051000
X010000Y045500G85X010000Y046500
X010000Y041500G85X010000Y042500
X010000Y037500G85X010000Y038500
X011000Y057000G85X014000Y057000
X011000Y051000G85X014000Y051000
X011500Y033800G85X013500Y033800
X015000Y045500G85X015000Y046500
X015000Y041500G85X015000Y042500
X015000Y037500G85X015000Y038500
X016000Y057000G85X019000Y057000
X016000Y051000G85X019000Y051000
X033500Y057000G85X036500Y057000
X033500Y051000G85X036500Y051000
X037500Y045500G85X037500Y046500
X037500Y041500G85X037500Y042500
X037500Y037500G85X037500Y038500
X038500Y057000G85X041500Y057000
X038500Y051000G85X041500Y051000
X039000Y033800G85X041000Y033800
X042500Y045500G85X042500Y046500
X042500Y041500G85X042500Y042500
X042500Y037500G85X042500Y038500
X043500Y057000G85X046500Y057000
X043500Y051000G85X046500Y051000
X033500Y026500G85X036500Y026500
X033500Y020500G85X036500Y020500
X037500Y015000G85X037500Y016000
X037500Y011000G85X037500Y012000
X037500Y007000G85X037500Y008000
X038500Y026500G85X041500Y026500
X038500Y020500G85X041500Y020500
X039000Y003299G85X041000Y003299
X042500Y015000G85X042500Y016000
X042500Y011000G85X042500Y012000
X042500Y007000G85X042500Y008000
X043500Y026500G85X046500Y026500
X043500Y020500G85X046500Y020500
T02
X002700Y017000
X002700Y014459
X020099Y007500
X020099Y004959
X020099Y002420
X022299Y017000
X022299Y014459
X022640Y007500
X022640Y004959
X022640Y002420
X002700Y047500
X002700Y044959
X020099Y038000
X020099Y035459
X020099Y032920
X022299Y047500
X022299Y044959
X022640Y038000
X022640Y035459
X022640Y032920
X030200Y047500
X030200Y044959
X047599Y038000
X047599Y035459
X047599Y032920
X049800Y047500
X049800Y044959
X050140Y038000
X050140Y035459
X050140Y032920
X030200Y017000
X030200Y014459
X047599Y007500
X047599Y004959
X047599Y002420
X049800Y017000
X049800Y014459
X050140Y007500
X050140Y004959
X050140Y002420
T03
X003200Y009900
X003200Y007359
X003200Y004200
X003200Y001659
X003200Y040400
X003200Y037860
X003200Y034700
X003200Y032159
X030700Y040400
X030700Y037860
X030700Y034700
X030700Y032159
X030700Y009900
X030700Y007359
X030700Y004200
X030700Y001659
T10
X014785Y028250
X013785Y028250
X012785Y028250
X011785Y028250
X010785Y028250
X009785Y028250
X010429Y030250
X011429Y030250
X012429Y030250
X013429Y030250
X014429Y030250
X015429Y030250
X025250Y011607
X025250Y012607
X025250Y013607
X025250Y014607
X025250Y015607
X025250Y016607
X027250Y016178
X027250Y015178
X027250Y014178
X027250Y013178
X027250Y012178
X027250Y011178
X037929Y030250
X038929Y030250
X039929Y030250
X040929Y030250
X041929Y030250
X042929Y030250
X042285Y028250
X041285Y028250
X040285Y028250
X039285Y028250
X038285Y028250
X037285Y028250
X025250Y042107
X025250Y043107
X025250Y044107
X025250Y045107
X025250Y046107
X025250Y047107
X027250Y046678
X027250Y045678
X027250Y044678
X027250Y043678
X027250Y042678
X027250Y041678
M30