%TF.GenerationSoftware,KiCad,Pcbnew,4.0.4-1.fc24-product*%
%TF.CreationDate,2018-01-15T09:05:08+11:00*%
%TF.ProjectId,MID_STACK,4D49445F535441434B2E6B696361645F,rev?*%
%TF.FileFunction,Legend,Top*%
%FSLAX46Y46*%
G04 Gerber Fmt 4.6, Leading zero omitted, Abs format (unit mm)*
G04 Created by KiCad (PCBNEW 4.0.4-1.fc24-product) date Mon Jan 15 09:05:08 2018*
%MOMM*%
%LPD*%
G01*
G04 APERTURE LIST*
%ADD10C,0.100000*%
%ADD11C,0.150000*%
%ADD12C,0.120000*%
G04 APERTURE END LIST*
D10*
D11*
X155300000Y-67525000D02*
X157300000Y-67525000D01*
X157300000Y-65475000D02*
X155300000Y-65475000D01*
X163500000Y-85850000D02*
X164500000Y-85850000D01*
X164500000Y-84150000D02*
X163500000Y-84150000D01*
X156900000Y-71675000D02*
X155900000Y-71675000D01*
X155900000Y-70325000D02*
X156900000Y-70325000D01*
X155900000Y-74325000D02*
X156900000Y-74325000D01*
X156900000Y-75675000D02*
X155900000Y-75675000D01*
X170500000Y-84325000D02*
X171500000Y-84325000D01*
X171500000Y-85675000D02*
X170500000Y-85675000D01*
X155900000Y-78325000D02*
X156900000Y-78325000D01*
X156900000Y-79675000D02*
X155900000Y-79675000D01*
X156900000Y-85675000D02*
X155900000Y-85675000D01*
X155900000Y-84325000D02*
X156900000Y-84325000D01*
D12*
X150110000Y-72700000D02*
X150110000Y-70900000D01*
X146890000Y-70900000D02*
X146890000Y-73350000D01*
D11*
X153500000Y-65114286D02*
X153471429Y-65142857D01*
X153385715Y-65171429D01*
X153328572Y-65171429D01*
X153242857Y-65142857D01*
X153185715Y-65085714D01*
X153157143Y-65028571D01*
X153128572Y-64914286D01*
X153128572Y-64828571D01*
X153157143Y-64714286D01*
X153185715Y-64657143D01*
X153242857Y-64600000D01*
X153328572Y-64571429D01*
X153385715Y-64571429D01*
X153471429Y-64600000D01*
X153500000Y-64628571D01*
X153728572Y-64628571D02*
X153757143Y-64600000D01*
X153814286Y-64571429D01*
X153957143Y-64571429D01*
X154014286Y-64600000D01*
X154042857Y-64628571D01*
X154071429Y-64685714D01*
X154071429Y-64742857D01*
X154042857Y-64828571D01*
X153700000Y-65171429D01*
X154071429Y-65171429D01*
X162100000Y-83714286D02*
X162071429Y-83742857D01*
X161985715Y-83771429D01*
X161928572Y-83771429D01*
X161842857Y-83742857D01*
X161785715Y-83685714D01*
X161757143Y-83628571D01*
X161728572Y-83514286D01*
X161728572Y-83428571D01*
X161757143Y-83314286D01*
X161785715Y-83257143D01*
X161842857Y-83200000D01*
X161928572Y-83171429D01*
X161985715Y-83171429D01*
X162071429Y-83200000D01*
X162100000Y-83228571D01*
X162300000Y-83171429D02*
X162671429Y-83171429D01*
X162471429Y-83400000D01*
X162557143Y-83400000D01*
X162614286Y-83428571D01*
X162642857Y-83457143D01*
X162671429Y-83514286D01*
X162671429Y-83657143D01*
X162642857Y-83714286D01*
X162614286Y-83742857D01*
X162557143Y-83771429D01*
X162385715Y-83771429D01*
X162328572Y-83742857D01*
X162300000Y-83714286D01*
X154800000Y-69971429D02*
X154600000Y-69685714D01*
X154457143Y-69971429D02*
X154457143Y-69371429D01*
X154685715Y-69371429D01*
X154742857Y-69400000D01*
X154771429Y-69428571D01*
X154800000Y-69485714D01*
X154800000Y-69571429D01*
X154771429Y-69628571D01*
X154742857Y-69657143D01*
X154685715Y-69685714D01*
X154457143Y-69685714D01*
X155371429Y-69971429D02*
X155028572Y-69971429D01*
X155200000Y-69971429D02*
X155200000Y-69371429D01*
X155142857Y-69457143D01*
X155085715Y-69514286D01*
X155028572Y-69542857D01*
X154800000Y-73971429D02*
X154600000Y-73685714D01*
X154457143Y-73971429D02*
X154457143Y-73371429D01*
X154685715Y-73371429D01*
X154742857Y-73400000D01*
X154771429Y-73428571D01*
X154800000Y-73485714D01*
X154800000Y-73571429D01*
X154771429Y-73628571D01*
X154742857Y-73657143D01*
X154685715Y-73685714D01*
X154457143Y-73685714D01*
X155028572Y-73428571D02*
X155057143Y-73400000D01*
X155114286Y-73371429D01*
X155257143Y-73371429D01*
X155314286Y-73400000D01*
X155342857Y-73428571D01*
X155371429Y-73485714D01*
X155371429Y-73542857D01*
X155342857Y-73628571D01*
X155000000Y-73971429D01*
X155371429Y-73971429D01*
X169550000Y-84021429D02*
X169350000Y-83735714D01*
X169207143Y-84021429D02*
X169207143Y-83421429D01*
X169435715Y-83421429D01*
X169492857Y-83450000D01*
X169521429Y-83478571D01*
X169550000Y-83535714D01*
X169550000Y-83621429D01*
X169521429Y-83678571D01*
X169492857Y-83707143D01*
X169435715Y-83735714D01*
X169207143Y-83735714D01*
X169750000Y-83421429D02*
X170121429Y-83421429D01*
X169921429Y-83650000D01*
X170007143Y-83650000D01*
X170064286Y-83678571D01*
X170092857Y-83707143D01*
X170121429Y-83764286D01*
X170121429Y-83907143D01*
X170092857Y-83964286D01*
X170064286Y-83992857D01*
X170007143Y-84021429D01*
X169835715Y-84021429D01*
X169778572Y-83992857D01*
X169750000Y-83964286D01*
X154900000Y-77971429D02*
X154700000Y-77685714D01*
X154557143Y-77971429D02*
X154557143Y-77371429D01*
X154785715Y-77371429D01*
X154842857Y-77400000D01*
X154871429Y-77428571D01*
X154900000Y-77485714D01*
X154900000Y-77571429D01*
X154871429Y-77628571D01*
X154842857Y-77657143D01*
X154785715Y-77685714D01*
X154557143Y-77685714D01*
X155414286Y-77571429D02*
X155414286Y-77971429D01*
X155271429Y-77342857D02*
X155128572Y-77771429D01*
X155500000Y-77771429D01*
X154800000Y-84021429D02*
X154600000Y-83735714D01*
X154457143Y-84021429D02*
X154457143Y-83421429D01*
X154685715Y-83421429D01*
X154742857Y-83450000D01*
X154771429Y-83478571D01*
X154800000Y-83535714D01*
X154800000Y-83621429D01*
X154771429Y-83678571D01*
X154742857Y-83707143D01*
X154685715Y-83735714D01*
X154457143Y-83735714D01*
X155342857Y-83421429D02*
X155057143Y-83421429D01*
X155028572Y-83707143D01*
X155057143Y-83678571D01*
X155114286Y-83650000D01*
X155257143Y-83650000D01*
X155314286Y-83678571D01*
X155342857Y-83707143D01*
X155371429Y-83764286D01*
X155371429Y-83907143D01*
X155342857Y-83964286D01*
X155314286Y-83992857D01*
X155257143Y-84021429D01*
X155114286Y-84021429D01*
X155057143Y-83992857D01*
X155028572Y-83964286D01*
X145771429Y-72257143D02*
X146257143Y-72257143D01*
X146314286Y-72228571D01*
X146342857Y-72200000D01*
X146371429Y-72142857D01*
X146371429Y-72028571D01*
X146342857Y-71971429D01*
X146314286Y-71942857D01*
X146257143Y-71914286D01*
X145771429Y-71914286D01*
X146371429Y-71314286D02*
X146371429Y-71657143D01*
X146371429Y-71485715D02*
X145771429Y-71485715D01*
X145857143Y-71542858D01*
X145914286Y-71600000D01*
X145942857Y-71657143D01*
M02*
