%TF.GenerationSoftware,KiCad,Pcbnew,4.0.4-1.fc24-product*%
%TF.CreationDate,2018-01-12T16:24:50+11:00*%
%TF.ProjectId,MID_STACK,4D49445F535441434B2E6B696361645F,rev?*%
%TF.FileFunction,Copper,L2,Bot,Signal*%
%FSLAX46Y46*%
G04 Gerber Fmt 4.6, Leading zero omitted, Abs format (unit mm)*
G04 Created by KiCad (PCBNEW 4.0.4-1.fc24-product) date Fri Jan 12 16:24:50 2018*
%MOMM*%
%LPD*%
G01*
G04 APERTURE LIST*
%ADD10C,0.100000*%
%ADD11R,1.500000X1.500000*%
%ADD12C,1.500000*%
%ADD13C,1.800000*%
%ADD14R,2.000000X1.600000*%
%ADD15C,0.600000*%
%ADD16C,0.400000*%
%ADD17C,0.300000*%
G04 APERTURE END LIST*
D10*
D11*
X155000000Y-91100000D03*
D12*
X157000000Y-91100000D03*
X159000000Y-91100000D03*
X161000000Y-91100000D03*
X163000000Y-91100000D03*
D13*
X171400000Y-77000000D03*
X168900000Y-77000000D03*
X166400000Y-77000000D03*
X166400000Y-67000000D03*
X168900000Y-67000000D03*
X171400000Y-67000000D03*
X166400000Y-69500000D03*
X168900000Y-69500000D03*
X171400000Y-69500000D03*
X166400000Y-74500000D03*
X168900000Y-74500000D03*
X171400000Y-74500000D03*
D14*
X161450000Y-85200000D03*
X157450000Y-85200000D03*
D15*
X157700000Y-73750000D03*
X148475026Y-70650000D03*
X160200000Y-66500000D03*
X153097800Y-73914600D03*
X159000000Y-71000000D03*
D16*
X161000000Y-85650000D02*
X161450000Y-85200000D01*
X161000000Y-91100000D02*
X161000000Y-85650000D01*
X155000000Y-76450000D02*
X155000000Y-91100000D01*
X157700000Y-73750000D02*
X155000000Y-76450000D01*
X160500000Y-66800000D02*
X160200000Y-66500000D01*
X164618000Y-70917600D02*
X160500000Y-66800000D01*
X167482000Y-70917600D02*
X164618000Y-70917600D01*
X168900000Y-69500000D02*
X167482000Y-70917600D01*
X166400000Y-74500000D02*
X166400000Y-75750000D01*
X166400000Y-75750000D02*
X166400000Y-77000000D01*
X154078600Y-72933800D02*
X153097800Y-73914600D01*
X163583800Y-72933800D02*
X154078600Y-72933800D01*
X166400000Y-75750000D02*
X163583800Y-72933800D01*
X160130000Y-72130500D02*
X159000000Y-71000000D01*
X169030000Y-72130500D02*
X160130000Y-72130500D01*
X171400000Y-74500000D02*
X169030000Y-72130500D01*
D17*
G36*
X173475000Y-93475000D02*
X144525000Y-93475000D01*
X144525000Y-74063130D01*
X152347670Y-74063130D01*
X152461611Y-74338886D01*
X152672405Y-74550048D01*
X152947961Y-74664469D01*
X153246330Y-74664730D01*
X153522086Y-74550789D01*
X153733248Y-74339995D01*
X153833801Y-74097838D01*
X154347839Y-73583800D01*
X156946961Y-73583800D01*
X154540381Y-75990381D01*
X154399478Y-76201255D01*
X154392908Y-76234288D01*
X154350000Y-76450000D01*
X154350000Y-89891184D01*
X154250000Y-89891184D01*
X154083240Y-89922562D01*
X153930081Y-90021117D01*
X153827332Y-90171495D01*
X153791184Y-90350000D01*
X153791184Y-91850000D01*
X153822562Y-92016760D01*
X153921117Y-92169919D01*
X154071495Y-92272668D01*
X154250000Y-92308816D01*
X155750000Y-92308816D01*
X155916760Y-92277438D01*
X156069919Y-92178883D01*
X156172668Y-92028505D01*
X156177668Y-92003816D01*
X156242993Y-92069141D01*
X156327658Y-91984476D01*
X156407617Y-92170540D01*
X156862388Y-92315745D01*
X157338108Y-92275864D01*
X157592383Y-92170540D01*
X157672343Y-91984475D01*
X157000000Y-91312132D01*
X156985858Y-91326275D01*
X156773726Y-91114143D01*
X156787868Y-91100000D01*
X157212132Y-91100000D01*
X157884475Y-91772343D01*
X157965091Y-91737699D01*
X157982097Y-91778857D01*
X158319367Y-92116717D01*
X158760258Y-92299791D01*
X159237647Y-92300207D01*
X159678857Y-92117903D01*
X160000265Y-91797057D01*
X160319367Y-92116717D01*
X160760258Y-92299791D01*
X161237647Y-92300207D01*
X161678857Y-92117903D01*
X162000265Y-91797057D01*
X162319367Y-92116717D01*
X162760258Y-92299791D01*
X163237647Y-92300207D01*
X163678857Y-92117903D01*
X164016717Y-91780633D01*
X164199791Y-91339742D01*
X164200207Y-90862353D01*
X164017903Y-90421143D01*
X163680633Y-90083283D01*
X163239742Y-89900209D01*
X162762353Y-89899793D01*
X162321143Y-90082097D01*
X161999735Y-90402943D01*
X161680633Y-90083283D01*
X161650000Y-90070563D01*
X161650000Y-86458816D01*
X162450000Y-86458816D01*
X162616760Y-86427438D01*
X162769919Y-86328883D01*
X162872668Y-86178505D01*
X162908816Y-86000000D01*
X162908816Y-84400000D01*
X162877438Y-84233240D01*
X162778883Y-84080081D01*
X162628505Y-83977332D01*
X162450000Y-83941184D01*
X160450000Y-83941184D01*
X160283240Y-83972562D01*
X160130081Y-84071117D01*
X160027332Y-84221495D01*
X159991184Y-84400000D01*
X159991184Y-86000000D01*
X160022562Y-86166760D01*
X160121117Y-86319919D01*
X160271495Y-86422668D01*
X160350000Y-86438566D01*
X160350000Y-90070174D01*
X160321143Y-90082097D01*
X159999735Y-90402943D01*
X159680633Y-90083283D01*
X159239742Y-89900209D01*
X158762353Y-89899793D01*
X158321143Y-90082097D01*
X157983283Y-90419367D01*
X157965400Y-90462434D01*
X157884475Y-90427657D01*
X157212132Y-91100000D01*
X156787868Y-91100000D01*
X156773726Y-91085858D01*
X156985858Y-90873726D01*
X157000000Y-90887868D01*
X157672343Y-90215525D01*
X157592383Y-90029460D01*
X157137612Y-89884255D01*
X156661892Y-89924136D01*
X156407617Y-90029460D01*
X156327658Y-90215524D01*
X156242993Y-90130859D01*
X156179524Y-90194328D01*
X156177438Y-90183240D01*
X156078883Y-90030081D01*
X155928505Y-89927332D01*
X155750000Y-89891184D01*
X155650000Y-89891184D01*
X155650000Y-76719238D01*
X157883599Y-74485640D01*
X158124286Y-74386189D01*
X158335448Y-74175395D01*
X158449869Y-73899839D01*
X158450130Y-73601470D01*
X158442829Y-73583800D01*
X163314562Y-73583800D01*
X165610930Y-75880169D01*
X165256193Y-76234288D01*
X165050235Y-76730290D01*
X165049766Y-77267353D01*
X165254858Y-77763715D01*
X165634288Y-78143807D01*
X166130290Y-78349765D01*
X166667353Y-78350234D01*
X167163715Y-78145142D01*
X167543807Y-77765712D01*
X167650007Y-77509955D01*
X167754858Y-77763715D01*
X168134288Y-78143807D01*
X168630290Y-78349765D01*
X169167353Y-78350234D01*
X169663715Y-78145142D01*
X170043807Y-77765712D01*
X170150007Y-77509955D01*
X170254858Y-77763715D01*
X170634288Y-78143807D01*
X171130290Y-78349765D01*
X171667353Y-78350234D01*
X172163715Y-78145142D01*
X172543807Y-77765712D01*
X172749765Y-77269710D01*
X172750234Y-76732647D01*
X172545142Y-76236285D01*
X172165712Y-75856193D01*
X171909955Y-75749993D01*
X172163715Y-75645142D01*
X172543807Y-75265712D01*
X172749765Y-74769710D01*
X172750234Y-74232647D01*
X172545142Y-73736285D01*
X172165712Y-73356193D01*
X171669710Y-73150235D01*
X171132647Y-73149766D01*
X171016725Y-73197664D01*
X169489571Y-71670832D01*
X169381470Y-71598618D01*
X169278744Y-71529978D01*
X169278710Y-71529971D01*
X169278681Y-71529952D01*
X169159848Y-71506328D01*
X169030000Y-71480500D01*
X167787049Y-71480500D01*
X167833411Y-71449522D01*
X167941555Y-71377284D01*
X168516490Y-70802511D01*
X168630290Y-70849765D01*
X169167353Y-70850234D01*
X169663715Y-70645142D01*
X170043807Y-70265712D01*
X170150007Y-70009955D01*
X170254858Y-70263715D01*
X170634288Y-70643807D01*
X171130290Y-70849765D01*
X171667353Y-70850234D01*
X172163715Y-70645142D01*
X172543807Y-70265712D01*
X172749765Y-69769710D01*
X172750234Y-69232647D01*
X172545142Y-68736285D01*
X172165712Y-68356193D01*
X171909955Y-68249993D01*
X172163715Y-68145142D01*
X172543807Y-67765712D01*
X172749765Y-67269710D01*
X172750234Y-66732647D01*
X172545142Y-66236285D01*
X172165712Y-65856193D01*
X171669710Y-65650235D01*
X171132647Y-65649766D01*
X170636285Y-65854858D01*
X170256193Y-66234288D01*
X170149993Y-66490045D01*
X170045142Y-66236285D01*
X169665712Y-65856193D01*
X169169710Y-65650235D01*
X168632647Y-65649766D01*
X168136285Y-65854858D01*
X167756193Y-66234288D01*
X167649993Y-66490045D01*
X167545142Y-66236285D01*
X167165712Y-65856193D01*
X166669710Y-65650235D01*
X166132647Y-65649766D01*
X165636285Y-65854858D01*
X165256193Y-66234288D01*
X165050235Y-66730290D01*
X165049766Y-67267353D01*
X165254858Y-67763715D01*
X165634288Y-68143807D01*
X165890045Y-68250007D01*
X165636285Y-68354858D01*
X165256193Y-68734288D01*
X165050235Y-69230290D01*
X165049766Y-69767353D01*
X165254858Y-70263715D01*
X165258736Y-70267600D01*
X164887220Y-70267600D01*
X160959597Y-66340358D01*
X160959594Y-66340356D01*
X160935640Y-66316402D01*
X160836189Y-66075714D01*
X160625395Y-65864552D01*
X160349839Y-65750131D01*
X160051470Y-65749870D01*
X159775714Y-65863811D01*
X159564552Y-66074605D01*
X159450131Y-66350161D01*
X159449870Y-66648530D01*
X159563811Y-66924286D01*
X159774605Y-67135448D01*
X160016763Y-67236001D01*
X160040381Y-67259619D01*
X160040393Y-67259627D01*
X160040403Y-67259642D01*
X164158403Y-71377242D01*
X164270050Y-71451834D01*
X164312951Y-71480500D01*
X160399323Y-71480500D01*
X159735725Y-70816609D01*
X159636189Y-70575714D01*
X159425395Y-70364552D01*
X159149839Y-70250131D01*
X158851470Y-70249870D01*
X158575714Y-70363811D01*
X158364552Y-70574605D01*
X158250131Y-70850161D01*
X158249870Y-71148530D01*
X158363811Y-71424286D01*
X158574605Y-71635448D01*
X158816552Y-71735913D01*
X159364196Y-72283800D01*
X154078600Y-72283800D01*
X153829856Y-72333278D01*
X153618981Y-72474180D01*
X152914202Y-73178960D01*
X152673514Y-73278411D01*
X152462352Y-73489205D01*
X152347931Y-73764761D01*
X152347670Y-74063130D01*
X144525000Y-74063130D01*
X144525000Y-64525000D01*
X173475000Y-64525000D01*
X173475000Y-93475000D01*
X173475000Y-93475000D01*
G37*
X173475000Y-93475000D02*
X144525000Y-93475000D01*
X144525000Y-74063130D01*
X152347670Y-74063130D01*
X152461611Y-74338886D01*
X152672405Y-74550048D01*
X152947961Y-74664469D01*
X153246330Y-74664730D01*
X153522086Y-74550789D01*
X153733248Y-74339995D01*
X153833801Y-74097838D01*
X154347839Y-73583800D01*
X156946961Y-73583800D01*
X154540381Y-75990381D01*
X154399478Y-76201255D01*
X154392908Y-76234288D01*
X154350000Y-76450000D01*
X154350000Y-89891184D01*
X154250000Y-89891184D01*
X154083240Y-89922562D01*
X153930081Y-90021117D01*
X153827332Y-90171495D01*
X153791184Y-90350000D01*
X153791184Y-91850000D01*
X153822562Y-92016760D01*
X153921117Y-92169919D01*
X154071495Y-92272668D01*
X154250000Y-92308816D01*
X155750000Y-92308816D01*
X155916760Y-92277438D01*
X156069919Y-92178883D01*
X156172668Y-92028505D01*
X156177668Y-92003816D01*
X156242993Y-92069141D01*
X156327658Y-91984476D01*
X156407617Y-92170540D01*
X156862388Y-92315745D01*
X157338108Y-92275864D01*
X157592383Y-92170540D01*
X157672343Y-91984475D01*
X157000000Y-91312132D01*
X156985858Y-91326275D01*
X156773726Y-91114143D01*
X156787868Y-91100000D01*
X157212132Y-91100000D01*
X157884475Y-91772343D01*
X157965091Y-91737699D01*
X157982097Y-91778857D01*
X158319367Y-92116717D01*
X158760258Y-92299791D01*
X159237647Y-92300207D01*
X159678857Y-92117903D01*
X160000265Y-91797057D01*
X160319367Y-92116717D01*
X160760258Y-92299791D01*
X161237647Y-92300207D01*
X161678857Y-92117903D01*
X162000265Y-91797057D01*
X162319367Y-92116717D01*
X162760258Y-92299791D01*
X163237647Y-92300207D01*
X163678857Y-92117903D01*
X164016717Y-91780633D01*
X164199791Y-91339742D01*
X164200207Y-90862353D01*
X164017903Y-90421143D01*
X163680633Y-90083283D01*
X163239742Y-89900209D01*
X162762353Y-89899793D01*
X162321143Y-90082097D01*
X161999735Y-90402943D01*
X161680633Y-90083283D01*
X161650000Y-90070563D01*
X161650000Y-86458816D01*
X162450000Y-86458816D01*
X162616760Y-86427438D01*
X162769919Y-86328883D01*
X162872668Y-86178505D01*
X162908816Y-86000000D01*
X162908816Y-84400000D01*
X162877438Y-84233240D01*
X162778883Y-84080081D01*
X162628505Y-83977332D01*
X162450000Y-83941184D01*
X160450000Y-83941184D01*
X160283240Y-83972562D01*
X160130081Y-84071117D01*
X160027332Y-84221495D01*
X159991184Y-84400000D01*
X159991184Y-86000000D01*
X160022562Y-86166760D01*
X160121117Y-86319919D01*
X160271495Y-86422668D01*
X160350000Y-86438566D01*
X160350000Y-90070174D01*
X160321143Y-90082097D01*
X159999735Y-90402943D01*
X159680633Y-90083283D01*
X159239742Y-89900209D01*
X158762353Y-89899793D01*
X158321143Y-90082097D01*
X157983283Y-90419367D01*
X157965400Y-90462434D01*
X157884475Y-90427657D01*
X157212132Y-91100000D01*
X156787868Y-91100000D01*
X156773726Y-91085858D01*
X156985858Y-90873726D01*
X157000000Y-90887868D01*
X157672343Y-90215525D01*
X157592383Y-90029460D01*
X157137612Y-89884255D01*
X156661892Y-89924136D01*
X156407617Y-90029460D01*
X156327658Y-90215524D01*
X156242993Y-90130859D01*
X156179524Y-90194328D01*
X156177438Y-90183240D01*
X156078883Y-90030081D01*
X155928505Y-89927332D01*
X155750000Y-89891184D01*
X155650000Y-89891184D01*
X155650000Y-76719238D01*
X157883599Y-74485640D01*
X158124286Y-74386189D01*
X158335448Y-74175395D01*
X158449869Y-73899839D01*
X158450130Y-73601470D01*
X158442829Y-73583800D01*
X163314562Y-73583800D01*
X165610930Y-75880169D01*
X165256193Y-76234288D01*
X165050235Y-76730290D01*
X165049766Y-77267353D01*
X165254858Y-77763715D01*
X165634288Y-78143807D01*
X166130290Y-78349765D01*
X166667353Y-78350234D01*
X167163715Y-78145142D01*
X167543807Y-77765712D01*
X167650007Y-77509955D01*
X167754858Y-77763715D01*
X168134288Y-78143807D01*
X168630290Y-78349765D01*
X169167353Y-78350234D01*
X169663715Y-78145142D01*
X170043807Y-77765712D01*
X170150007Y-77509955D01*
X170254858Y-77763715D01*
X170634288Y-78143807D01*
X171130290Y-78349765D01*
X171667353Y-78350234D01*
X172163715Y-78145142D01*
X172543807Y-77765712D01*
X172749765Y-77269710D01*
X172750234Y-76732647D01*
X172545142Y-76236285D01*
X172165712Y-75856193D01*
X171909955Y-75749993D01*
X172163715Y-75645142D01*
X172543807Y-75265712D01*
X172749765Y-74769710D01*
X172750234Y-74232647D01*
X172545142Y-73736285D01*
X172165712Y-73356193D01*
X171669710Y-73150235D01*
X171132647Y-73149766D01*
X171016725Y-73197664D01*
X169489571Y-71670832D01*
X169381470Y-71598618D01*
X169278744Y-71529978D01*
X169278710Y-71529971D01*
X169278681Y-71529952D01*
X169159848Y-71506328D01*
X169030000Y-71480500D01*
X167787049Y-71480500D01*
X167833411Y-71449522D01*
X167941555Y-71377284D01*
X168516490Y-70802511D01*
X168630290Y-70849765D01*
X169167353Y-70850234D01*
X169663715Y-70645142D01*
X170043807Y-70265712D01*
X170150007Y-70009955D01*
X170254858Y-70263715D01*
X170634288Y-70643807D01*
X171130290Y-70849765D01*
X171667353Y-70850234D01*
X172163715Y-70645142D01*
X172543807Y-70265712D01*
X172749765Y-69769710D01*
X172750234Y-69232647D01*
X172545142Y-68736285D01*
X172165712Y-68356193D01*
X171909955Y-68249993D01*
X172163715Y-68145142D01*
X172543807Y-67765712D01*
X172749765Y-67269710D01*
X172750234Y-66732647D01*
X172545142Y-66236285D01*
X172165712Y-65856193D01*
X171669710Y-65650235D01*
X171132647Y-65649766D01*
X170636285Y-65854858D01*
X170256193Y-66234288D01*
X170149993Y-66490045D01*
X170045142Y-66236285D01*
X169665712Y-65856193D01*
X169169710Y-65650235D01*
X168632647Y-65649766D01*
X168136285Y-65854858D01*
X167756193Y-66234288D01*
X167649993Y-66490045D01*
X167545142Y-66236285D01*
X167165712Y-65856193D01*
X166669710Y-65650235D01*
X166132647Y-65649766D01*
X165636285Y-65854858D01*
X165256193Y-66234288D01*
X165050235Y-66730290D01*
X165049766Y-67267353D01*
X165254858Y-67763715D01*
X165634288Y-68143807D01*
X165890045Y-68250007D01*
X165636285Y-68354858D01*
X165256193Y-68734288D01*
X165050235Y-69230290D01*
X165049766Y-69767353D01*
X165254858Y-70263715D01*
X165258736Y-70267600D01*
X164887220Y-70267600D01*
X160959597Y-66340358D01*
X160959594Y-66340356D01*
X160935640Y-66316402D01*
X160836189Y-66075714D01*
X160625395Y-65864552D01*
X160349839Y-65750131D01*
X160051470Y-65749870D01*
X159775714Y-65863811D01*
X159564552Y-66074605D01*
X159450131Y-66350161D01*
X159449870Y-66648530D01*
X159563811Y-66924286D01*
X159774605Y-67135448D01*
X160016763Y-67236001D01*
X160040381Y-67259619D01*
X160040393Y-67259627D01*
X160040403Y-67259642D01*
X164158403Y-71377242D01*
X164270050Y-71451834D01*
X164312951Y-71480500D01*
X160399323Y-71480500D01*
X159735725Y-70816609D01*
X159636189Y-70575714D01*
X159425395Y-70364552D01*
X159149839Y-70250131D01*
X158851470Y-70249870D01*
X158575714Y-70363811D01*
X158364552Y-70574605D01*
X158250131Y-70850161D01*
X158249870Y-71148530D01*
X158363811Y-71424286D01*
X158574605Y-71635448D01*
X158816552Y-71735913D01*
X159364196Y-72283800D01*
X154078600Y-72283800D01*
X153829856Y-72333278D01*
X153618981Y-72474180D01*
X152914202Y-73178960D01*
X152673514Y-73278411D01*
X152462352Y-73489205D01*
X152347931Y-73764761D01*
X152347670Y-74063130D01*
X144525000Y-74063130D01*
X144525000Y-64525000D01*
X173475000Y-64525000D01*
X173475000Y-93475000D01*
M02*
