%TF.GenerationSoftware,KiCad,Pcbnew,4.0.4-1.fc24-product*%
%TF.CreationDate,2018-01-11T10:52:46+11:00*%
%TF.ProjectId,MID_STACK,4D49445F535441434B2E6B696361645F,rev?*%
%TF.FileFunction,Legend,Bot*%
%FSLAX46Y46*%
G04 Gerber Fmt 4.6, Leading zero omitted, Abs format (unit mm)*
G04 Created by KiCad (PCBNEW 4.0.4-1.fc24-product) date Thu Jan 11 10:52:46 2018*
%MOMM*%
%LPD*%
G01*
G04 APERTURE LIST*
%ADD10C,0.100000*%
%ADD11C,0.150000*%
%ADD12C,0.120000*%
G04 APERTURE END LIST*
D10*
D11*
X148857143Y-65207143D02*
X148771429Y-65235714D01*
X148742857Y-65264286D01*
X148714286Y-65321429D01*
X148714286Y-65407143D01*
X148742857Y-65464286D01*
X148771429Y-65492857D01*
X148828571Y-65521429D01*
X149057143Y-65521429D01*
X149057143Y-64921429D01*
X148857143Y-64921429D01*
X148800000Y-64950000D01*
X148771429Y-64978571D01*
X148742857Y-65035714D01*
X148742857Y-65092857D01*
X148771429Y-65150000D01*
X148800000Y-65178571D01*
X148857143Y-65207143D01*
X149057143Y-65207143D01*
X148142857Y-64950000D02*
X148200000Y-64921429D01*
X148285714Y-64921429D01*
X148371429Y-64950000D01*
X148428571Y-65007143D01*
X148457143Y-65064286D01*
X148485714Y-65178571D01*
X148485714Y-65264286D01*
X148457143Y-65378571D01*
X148428571Y-65435714D01*
X148371429Y-65492857D01*
X148285714Y-65521429D01*
X148228571Y-65521429D01*
X148142857Y-65492857D01*
X148114286Y-65464286D01*
X148114286Y-65264286D01*
X148228571Y-65264286D01*
X147857143Y-65521429D02*
X147857143Y-64921429D01*
X147628571Y-64921429D01*
X147571429Y-64950000D01*
X147542857Y-64978571D01*
X147514286Y-65035714D01*
X147514286Y-65121429D01*
X147542857Y-65178571D01*
X147571429Y-65207143D01*
X147628571Y-65235714D01*
X147857143Y-65235714D01*
X146885714Y-64921429D02*
X146685714Y-65521429D01*
X146485714Y-64921429D01*
X145971428Y-65521429D02*
X146314285Y-65521429D01*
X146142857Y-65521429D02*
X146142857Y-64921429D01*
X146200000Y-65007143D01*
X146257142Y-65064286D01*
X146314285Y-65092857D01*
X145714285Y-65464286D02*
X145685713Y-65492857D01*
X145714285Y-65521429D01*
X145742856Y-65492857D01*
X145714285Y-65464286D01*
X145714285Y-65521429D01*
X145314285Y-64921429D02*
X145257142Y-64921429D01*
X145199999Y-64950000D01*
X145171428Y-64978571D01*
X145142857Y-65035714D01*
X145114285Y-65150000D01*
X145114285Y-65292857D01*
X145142857Y-65407143D01*
X145171428Y-65464286D01*
X145199999Y-65492857D01*
X145257142Y-65521429D01*
X145314285Y-65521429D01*
X145371428Y-65492857D01*
X145399999Y-65464286D01*
X145428571Y-65407143D01*
X145457142Y-65292857D01*
X145457142Y-65150000D01*
X145428571Y-65035714D01*
X145399999Y-64978571D01*
X145371428Y-64950000D01*
X145314285Y-64921429D01*
X149171428Y-66571429D02*
X149171428Y-65971429D01*
X148971428Y-66400000D01*
X148771428Y-65971429D01*
X148771428Y-66571429D01*
X148485714Y-66571429D02*
X148485714Y-66171429D01*
X148485714Y-65971429D02*
X148514285Y-66000000D01*
X148485714Y-66028571D01*
X148457142Y-66000000D01*
X148485714Y-65971429D01*
X148485714Y-66028571D01*
X147942857Y-66571429D02*
X147942857Y-65971429D01*
X147942857Y-66542857D02*
X148000000Y-66571429D01*
X148114286Y-66571429D01*
X148171428Y-66542857D01*
X148200000Y-66514286D01*
X148228571Y-66457143D01*
X148228571Y-66285714D01*
X148200000Y-66228571D01*
X148171428Y-66200000D01*
X148114286Y-66171429D01*
X148000000Y-66171429D01*
X147942857Y-66200000D01*
X147228571Y-66542857D02*
X147142857Y-66571429D01*
X147000000Y-66571429D01*
X146942857Y-66542857D01*
X146914286Y-66514286D01*
X146885714Y-66457143D01*
X146885714Y-66400000D01*
X146914286Y-66342857D01*
X146942857Y-66314286D01*
X147000000Y-66285714D01*
X147114286Y-66257143D01*
X147171428Y-66228571D01*
X147200000Y-66200000D01*
X147228571Y-66142857D01*
X147228571Y-66085714D01*
X147200000Y-66028571D01*
X147171428Y-66000000D01*
X147114286Y-65971429D01*
X146971428Y-65971429D01*
X146885714Y-66000000D01*
X146714285Y-66171429D02*
X146485714Y-66171429D01*
X146628571Y-65971429D02*
X146628571Y-66485714D01*
X146599999Y-66542857D01*
X146542857Y-66571429D01*
X146485714Y-66571429D01*
X146028571Y-66571429D02*
X146028571Y-66257143D01*
X146057142Y-66200000D01*
X146114285Y-66171429D01*
X146228571Y-66171429D01*
X146285714Y-66200000D01*
X146028571Y-66542857D02*
X146085714Y-66571429D01*
X146228571Y-66571429D01*
X146285714Y-66542857D01*
X146314285Y-66485714D01*
X146314285Y-66428571D01*
X146285714Y-66371429D01*
X146228571Y-66342857D01*
X146085714Y-66342857D01*
X146028571Y-66314286D01*
X145485714Y-66542857D02*
X145542857Y-66571429D01*
X145657143Y-66571429D01*
X145714285Y-66542857D01*
X145742857Y-66514286D01*
X145771428Y-66457143D01*
X145771428Y-66285714D01*
X145742857Y-66228571D01*
X145714285Y-66200000D01*
X145657143Y-66171429D01*
X145542857Y-66171429D01*
X145485714Y-66200000D01*
X145228571Y-66571429D02*
X145228571Y-65971429D01*
X145171428Y-66342857D02*
X144999999Y-66571429D01*
X144999999Y-66171429D02*
X145228571Y-66400000D01*
D12*
X173650000Y-80560000D02*
X173650000Y-61940000D01*
X160340000Y-80560000D02*
X160340000Y-61940000D01*
X173650000Y-80560000D02*
X160340000Y-80560000D01*
X173650000Y-61940000D02*
X160340000Y-61940000D01*
X170460000Y-61940000D02*
X170460000Y-56940000D01*
X163340000Y-61940000D02*
X163340000Y-56940000D01*
X170460000Y-61940000D02*
X163340000Y-61940000D01*
X170460000Y-56940000D02*
X163340000Y-56940000D01*
X169960000Y-56940000D02*
X169960000Y-46940000D01*
X163840000Y-56940000D02*
X163840000Y-46940000D01*
X169960000Y-56940000D02*
X163840000Y-56940000D01*
X169960000Y-46940000D02*
X163840000Y-46940000D01*
D11*
X152900000Y-92700000D02*
X152900000Y-88850000D01*
X152900000Y-88850000D02*
X165100000Y-88850000D01*
X165100000Y-88850000D02*
X165100000Y-92700000D01*
X165100000Y-92700000D02*
X152900000Y-92700000D01*
X155000000Y-93100000D02*
X154700000Y-93700000D01*
X154700000Y-93700000D02*
X155300000Y-93700000D01*
X155300000Y-93700000D02*
X155000000Y-93100000D01*
X152900000Y-90300000D02*
X153300000Y-90300000D01*
X165100000Y-90300000D02*
X164700000Y-90300000D01*
X159000000Y-92300000D02*
X153300000Y-92300000D01*
X153300000Y-92300000D02*
X153300000Y-91100000D01*
X153300000Y-91100000D02*
X153700000Y-91100000D01*
X153700000Y-91100000D02*
X153700000Y-90700000D01*
X153700000Y-90700000D02*
X153300000Y-90700000D01*
X153300000Y-90700000D02*
X153300000Y-88850000D01*
X159000000Y-92300000D02*
X164700000Y-92300000D01*
X164700000Y-92300000D02*
X164700000Y-91100000D01*
X164700000Y-91100000D02*
X164300000Y-91100000D01*
X164300000Y-91100000D02*
X164300000Y-90700000D01*
X164300000Y-90700000D02*
X164700000Y-90700000D01*
X164700000Y-90700000D02*
X164700000Y-88850000D01*
X158000000Y-85975000D02*
X160000000Y-85975000D01*
X160000000Y-88025000D02*
X158000000Y-88025000D01*
X173142857Y-81771429D02*
X173142857Y-81171429D01*
X172914285Y-81171429D01*
X172857143Y-81200000D01*
X172828571Y-81228571D01*
X172800000Y-81285714D01*
X172800000Y-81371429D01*
X172828571Y-81428571D01*
X172857143Y-81457143D01*
X172914285Y-81485714D01*
X173142857Y-81485714D01*
X172571428Y-81228571D02*
X172542857Y-81200000D01*
X172485714Y-81171429D01*
X172342857Y-81171429D01*
X172285714Y-81200000D01*
X172257143Y-81228571D01*
X172228571Y-81285714D01*
X172228571Y-81342857D01*
X172257143Y-81428571D01*
X172600000Y-81771429D01*
X172228571Y-81771429D01*
X153642857Y-93571429D02*
X153642857Y-92971429D01*
X153414285Y-92971429D01*
X153357143Y-93000000D01*
X153328571Y-93028571D01*
X153300000Y-93085714D01*
X153300000Y-93171429D01*
X153328571Y-93228571D01*
X153357143Y-93257143D01*
X153414285Y-93285714D01*
X153642857Y-93285714D01*
X152728571Y-93571429D02*
X153071428Y-93571429D01*
X152900000Y-93571429D02*
X152900000Y-92971429D01*
X152957143Y-93057143D01*
X153014285Y-93114286D01*
X153071428Y-93142857D01*
X161850000Y-85464286D02*
X161878571Y-85492857D01*
X161964285Y-85521429D01*
X162021428Y-85521429D01*
X162107143Y-85492857D01*
X162164285Y-85435714D01*
X162192857Y-85378571D01*
X162221428Y-85264286D01*
X162221428Y-85178571D01*
X162192857Y-85064286D01*
X162164285Y-85007143D01*
X162107143Y-84950000D01*
X162021428Y-84921429D01*
X161964285Y-84921429D01*
X161878571Y-84950000D01*
X161850000Y-84978571D01*
X161278571Y-85521429D02*
X161621428Y-85521429D01*
X161450000Y-85521429D02*
X161450000Y-84921429D01*
X161507143Y-85007143D01*
X161564285Y-85064286D01*
X161621428Y-85092857D01*
M02*
