M48
;DRILL file {KiCad 4.0.4-1.fc24-product} date Fri Jan 12 11:41:41 2018
;FORMAT={-:-/ absolute / metric / decimal}
FMAT,2
METRIC,TZ
T1C0.400
T2C0.800
T3C1.000
%
G90
G05
M71
T1
X148.156Y-68.838
X157.7Y-73.75
X157.887Y-72.831
X159.Y-71.
X160.2Y-66.5
X162.893Y-87.472
T2
X155.Y-91.1
X157.Y-91.1
X159.Y-91.1
X161.Y-91.1
X163.Y-91.1
T3
X166.4Y-67.
X166.4Y-69.5
X166.4Y-74.5
X166.4Y-77.
X168.9Y-67.
X168.9Y-69.5
X168.9Y-74.5
X168.9Y-77.
X171.4Y-67.
X171.4Y-69.5
X171.4Y-74.5
X171.4Y-77.
T0
M30
