%TF.GenerationSoftware,KiCad,Pcbnew,4.0.7*%
%TF.CreationDate,2018-01-15T21:42:26+11:00*%
%TF.ProjectId,MID_STACK,4D49445F535441434B2E6B696361645F,rev?*%
%TF.FileFunction,Copper,L1,Top,Signal*%
%FSLAX46Y46*%
G04 Gerber Fmt 4.6, Leading zero omitted, Abs format (unit mm)*
G04 Created by KiCad (PCBNEW 4.0.7) date 01/15/18 21:42:26*
%MOMM*%
%LPD*%
G01*
G04 APERTURE LIST*
%ADD10C,0.100000*%
%ADD11R,1.500000X1.250000*%
%ADD12R,1.200000X0.900000*%
%ADD13R,0.650000X1.560000*%
%ADD14R,1.500000X1.500000*%
%ADD15C,1.500000*%
%ADD16C,1.800000*%
%ADD17C,0.600000*%
%ADD18C,0.400000*%
%ADD19C,0.300000*%
G04 APERTURE END LIST*
D10*
D11*
X165250000Y-85000000D03*
X162750000Y-85000000D03*
D12*
X155300000Y-71000000D03*
X157500000Y-71000000D03*
X157500000Y-75000000D03*
X155300000Y-75000000D03*
X172100000Y-85000000D03*
X169900000Y-85000000D03*
X157500000Y-79000000D03*
X155300000Y-79000000D03*
X155300000Y-85000000D03*
X157500000Y-85000000D03*
D13*
X147550000Y-73150000D03*
X148500000Y-73150000D03*
X149450000Y-73150000D03*
X149450000Y-70450000D03*
X147550000Y-70450000D03*
D14*
X155000000Y-91200000D03*
D15*
X157000000Y-91200000D03*
X159000000Y-91200000D03*
X161000000Y-91200000D03*
X163000000Y-91200000D03*
D16*
X171400000Y-77000000D03*
X168900000Y-77000000D03*
X166400000Y-77000000D03*
X166400000Y-67000000D03*
X168900000Y-67000000D03*
X171400000Y-67000000D03*
X166400000Y-69500000D03*
X168900000Y-69500000D03*
X171400000Y-69500000D03*
X166400000Y-74500000D03*
X168900000Y-74500000D03*
X171400000Y-74500000D03*
D11*
X157650000Y-68100000D03*
X155150000Y-68100000D03*
D17*
X157700000Y-73750000D03*
X148475026Y-70650000D03*
X159000000Y-68100000D03*
X150400000Y-73200000D03*
X159000000Y-71000000D03*
D18*
X159000000Y-91200000D02*
X160250001Y-92450001D01*
X160250001Y-92450001D02*
X163600001Y-92450001D01*
X163600001Y-92450001D02*
X164250001Y-91800001D01*
X164250001Y-91800001D02*
X164250001Y-87050301D01*
X164250001Y-87050301D02*
X163335000Y-86135300D01*
X169365000Y-86135300D02*
X164292000Y-86135300D01*
X169900000Y-85600000D02*
X169365000Y-86135300D01*
X169900000Y-85000000D02*
X169900000Y-85600000D01*
X162750000Y-85550000D02*
X162750000Y-85000000D01*
X163335000Y-86135300D02*
X162750000Y-85550000D01*
X164292000Y-86135300D02*
X163335000Y-86135300D01*
X155150000Y-68100000D02*
X155150000Y-70850000D01*
X155150000Y-70850000D02*
X155300000Y-71000000D01*
X155150000Y-71000000D02*
X155300000Y-71000000D01*
X157700000Y-74800000D02*
X157500000Y-75000000D01*
X157700000Y-73750000D02*
X157700000Y-74800000D01*
X162150000Y-73750000D02*
X166400000Y-69500000D01*
X157700000Y-73750000D02*
X162150000Y-73750000D01*
X163000000Y-91200000D02*
X157500000Y-85700000D01*
X157500000Y-85700000D02*
X157500000Y-85000000D01*
X148500000Y-70674974D02*
X148475026Y-70650000D01*
X148500000Y-73150000D02*
X148500000Y-70674974D01*
X157650000Y-68100000D02*
X159000000Y-68100000D01*
X150400000Y-73200000D02*
X149500000Y-73200000D01*
X149500000Y-73200000D02*
X149450000Y-73150000D01*
X166400000Y-82714700D02*
X166400000Y-77000000D01*
X165250000Y-83864700D02*
X166400000Y-82714700D01*
X165250000Y-85000000D02*
X165250000Y-83864700D01*
X169990000Y-70910400D02*
X171400000Y-69500000D01*
X167424000Y-70910400D02*
X169990000Y-70910400D01*
X156334000Y-82000000D02*
X167424000Y-70910400D01*
X155300000Y-82000000D02*
X156334000Y-82000000D01*
X155300000Y-85000000D02*
X155300000Y-82000000D01*
X155300000Y-82000000D02*
X155300000Y-80500000D01*
X155300000Y-80500000D02*
X155300000Y-79000000D01*
X153609700Y-80500000D02*
X147550000Y-74440300D01*
X155300000Y-80500000D02*
X153609700Y-80500000D01*
X147550000Y-73150000D02*
X147550000Y-74440300D01*
X159000000Y-71000000D02*
X157500000Y-71000000D01*
X171400000Y-74500000D02*
X168900000Y-74500000D01*
X168900000Y-77000000D02*
X171400000Y-77000000D01*
X171400000Y-83339700D02*
X171400000Y-77000000D01*
X172100000Y-84039700D02*
X171400000Y-83339700D01*
X172100000Y-85000000D02*
X172100000Y-84039700D01*
X155300000Y-75960300D02*
X155300000Y-75480100D01*
X157500000Y-78160300D02*
X155300000Y-75960300D01*
X157500000Y-79000000D02*
X157500000Y-78160300D01*
X155300000Y-75480100D02*
X155300000Y-75000000D01*
X149450000Y-70450000D02*
X149450000Y-71740300D01*
X153000600Y-71740300D02*
X149450000Y-71740300D01*
X155300000Y-74039700D02*
X153000600Y-71740300D01*
X155300000Y-75000000D02*
X155300000Y-74039700D01*
D19*
G36*
X173475000Y-93475000D02*
X144549236Y-93475000D01*
X144525000Y-86349676D01*
X144525000Y-72370000D01*
X146766184Y-72370000D01*
X146766184Y-73930000D01*
X146797562Y-74096760D01*
X146896117Y-74249919D01*
X146900000Y-74252572D01*
X146900000Y-74440300D01*
X146939767Y-74640222D01*
X146949478Y-74689045D01*
X147090381Y-74899919D01*
X153150081Y-80959619D01*
X153360955Y-81100522D01*
X153402224Y-81108731D01*
X153609700Y-81150000D01*
X154650000Y-81150000D01*
X154650000Y-84100592D01*
X154533240Y-84122562D01*
X154380081Y-84221117D01*
X154277332Y-84371495D01*
X154241184Y-84550000D01*
X154241184Y-85450000D01*
X154272562Y-85616760D01*
X154371117Y-85769919D01*
X154521495Y-85872668D01*
X154700000Y-85908816D01*
X155900000Y-85908816D01*
X156066760Y-85877438D01*
X156219919Y-85778883D01*
X156322668Y-85628505D01*
X156358816Y-85450000D01*
X156358816Y-84550000D01*
X156327438Y-84383240D01*
X156228883Y-84230081D01*
X156078505Y-84127332D01*
X155950000Y-84101309D01*
X155950000Y-82650000D01*
X156334000Y-82650000D01*
X156490067Y-82618957D01*
X156582734Y-82600526D01*
X156582738Y-82600523D01*
X156582744Y-82600522D01*
X156671986Y-82540892D01*
X156793611Y-82459628D01*
X165069399Y-74184138D01*
X165050235Y-74230290D01*
X165049766Y-74767353D01*
X165254858Y-75263715D01*
X165634288Y-75643807D01*
X165890045Y-75750007D01*
X165636285Y-75854858D01*
X165256193Y-76234288D01*
X165050235Y-76730290D01*
X165049766Y-77267353D01*
X165254858Y-77763715D01*
X165634288Y-78143807D01*
X165750000Y-78191855D01*
X165750000Y-82445461D01*
X164790381Y-83405081D01*
X164649478Y-83615955D01*
X164649478Y-83615956D01*
X164600000Y-83864700D01*
X164600000Y-83916184D01*
X164500000Y-83916184D01*
X164333240Y-83947562D01*
X164180081Y-84046117D01*
X164077332Y-84196495D01*
X164041184Y-84375000D01*
X164041184Y-85485300D01*
X163958816Y-85485300D01*
X163958816Y-84375000D01*
X163927438Y-84208240D01*
X163828883Y-84055081D01*
X163678505Y-83952332D01*
X163500000Y-83916184D01*
X162000000Y-83916184D01*
X161833240Y-83947562D01*
X161680081Y-84046117D01*
X161577332Y-84196495D01*
X161541184Y-84375000D01*
X161541184Y-85625000D01*
X161572562Y-85791760D01*
X161671117Y-85944919D01*
X161821495Y-86047668D01*
X162000000Y-86083816D01*
X162364539Y-86083816D01*
X162875263Y-86594802D01*
X162875335Y-86594850D01*
X162875381Y-86594919D01*
X163600001Y-87319540D01*
X163600001Y-90149802D01*
X163239742Y-90000209D01*
X162762353Y-89999793D01*
X162731698Y-90012459D01*
X158451663Y-85732425D01*
X158522668Y-85628505D01*
X158558816Y-85450000D01*
X158558816Y-84550000D01*
X158527438Y-84383240D01*
X158428883Y-84230081D01*
X158278505Y-84127332D01*
X158100000Y-84091184D01*
X156900000Y-84091184D01*
X156733240Y-84122562D01*
X156580081Y-84221117D01*
X156477332Y-84371495D01*
X156441184Y-84550000D01*
X156441184Y-85450000D01*
X156472562Y-85616760D01*
X156571117Y-85769919D01*
X156721495Y-85872668D01*
X156891181Y-85907030D01*
X156899478Y-85948745D01*
X157040381Y-86159619D01*
X160886101Y-90005340D01*
X160661892Y-90024136D01*
X160407617Y-90129460D01*
X160327657Y-90315525D01*
X161000000Y-90987868D01*
X161014143Y-90973726D01*
X161226275Y-91185858D01*
X161212132Y-91200000D01*
X161226275Y-91214143D01*
X161014143Y-91426275D01*
X161000000Y-91412132D01*
X160985858Y-91426275D01*
X160773726Y-91214143D01*
X160787868Y-91200000D01*
X160115525Y-90527657D01*
X160034909Y-90562301D01*
X160017903Y-90521143D01*
X159680633Y-90183283D01*
X159239742Y-90000209D01*
X158762353Y-89999793D01*
X158321143Y-90182097D01*
X157999735Y-90502943D01*
X157680633Y-90183283D01*
X157239742Y-90000209D01*
X156762353Y-89999793D01*
X156321143Y-90182097D01*
X156184140Y-90318860D01*
X156177438Y-90283240D01*
X156078883Y-90130081D01*
X155928505Y-90027332D01*
X155750000Y-89991184D01*
X154250000Y-89991184D01*
X154083240Y-90022562D01*
X153930081Y-90121117D01*
X153827332Y-90271495D01*
X153791184Y-90450000D01*
X153791184Y-91950000D01*
X153822562Y-92116760D01*
X153921117Y-92269919D01*
X154071495Y-92372668D01*
X154250000Y-92408816D01*
X155750000Y-92408816D01*
X155916760Y-92377438D01*
X156069919Y-92278883D01*
X156172668Y-92128505D01*
X156182558Y-92079668D01*
X156319367Y-92216717D01*
X156760258Y-92399791D01*
X157237647Y-92400207D01*
X157678857Y-92217903D01*
X158000265Y-91897057D01*
X158319367Y-92216717D01*
X158760258Y-92399791D01*
X159237647Y-92400207D01*
X159268302Y-92387541D01*
X159790381Y-92909620D01*
X159931284Y-93003768D01*
X160001257Y-93050523D01*
X160250001Y-93100001D01*
X163600001Y-93100001D01*
X163807477Y-93058732D01*
X163848746Y-93050523D01*
X164059620Y-92909620D01*
X164709621Y-92259620D01*
X164850523Y-92048745D01*
X164900001Y-91800001D01*
X164900001Y-87050301D01*
X164850523Y-86801557D01*
X164839660Y-86785300D01*
X169365000Y-86785300D01*
X169365093Y-86785281D01*
X169365182Y-86785299D01*
X169487494Y-86760935D01*
X169613744Y-86735822D01*
X169613821Y-86735770D01*
X169613913Y-86735752D01*
X169720722Y-86664341D01*
X169824619Y-86594919D01*
X169824669Y-86594844D01*
X169824748Y-86594791D01*
X170359748Y-86059491D01*
X170430895Y-85952948D01*
X170460383Y-85908816D01*
X170500000Y-85908816D01*
X170666760Y-85877438D01*
X170819919Y-85778883D01*
X170922668Y-85628505D01*
X170958816Y-85450000D01*
X170958816Y-84550000D01*
X170927438Y-84383240D01*
X170828883Y-84230081D01*
X170678505Y-84127332D01*
X170500000Y-84091184D01*
X169300000Y-84091184D01*
X169133240Y-84122562D01*
X168980081Y-84221117D01*
X168877332Y-84371495D01*
X168841184Y-84550000D01*
X168841184Y-85450000D01*
X168847826Y-85485300D01*
X166458816Y-85485300D01*
X166458816Y-84375000D01*
X166427438Y-84208240D01*
X166328883Y-84055081D01*
X166178505Y-83952332D01*
X166097924Y-83936014D01*
X166859620Y-83174319D01*
X167000522Y-82963444D01*
X167050000Y-82714700D01*
X167050000Y-78192128D01*
X167163715Y-78145142D01*
X167543807Y-77765712D01*
X167650007Y-77509955D01*
X167754858Y-77763715D01*
X168134288Y-78143807D01*
X168630290Y-78349765D01*
X169167353Y-78350234D01*
X169663715Y-78145142D01*
X170043807Y-77765712D01*
X170091855Y-77650000D01*
X170207872Y-77650000D01*
X170254858Y-77763715D01*
X170634288Y-78143807D01*
X170750000Y-78191855D01*
X170750000Y-83339700D01*
X170791269Y-83547176D01*
X170799478Y-83588445D01*
X170940381Y-83799319D01*
X171290881Y-84149819D01*
X171180081Y-84221117D01*
X171077332Y-84371495D01*
X171041184Y-84550000D01*
X171041184Y-85450000D01*
X171072562Y-85616760D01*
X171171117Y-85769919D01*
X171321495Y-85872668D01*
X171500000Y-85908816D01*
X172700000Y-85908816D01*
X172866760Y-85877438D01*
X173019919Y-85778883D01*
X173122668Y-85628505D01*
X173158816Y-85450000D01*
X173158816Y-84550000D01*
X173127438Y-84383240D01*
X173028883Y-84230081D01*
X172878505Y-84127332D01*
X172750000Y-84101309D01*
X172750000Y-84039700D01*
X172700522Y-83790956D01*
X172653767Y-83720983D01*
X172559619Y-83580080D01*
X172050000Y-83070462D01*
X172050000Y-78192128D01*
X172163715Y-78145142D01*
X172543807Y-77765712D01*
X172749765Y-77269710D01*
X172750234Y-76732647D01*
X172545142Y-76236285D01*
X172165712Y-75856193D01*
X171909955Y-75749993D01*
X172163715Y-75645142D01*
X172543807Y-75265712D01*
X172749765Y-74769710D01*
X172750234Y-74232647D01*
X172545142Y-73736285D01*
X172165712Y-73356193D01*
X171669710Y-73150235D01*
X171132647Y-73149766D01*
X170636285Y-73354858D01*
X170256193Y-73734288D01*
X170208145Y-73850000D01*
X170092128Y-73850000D01*
X170045142Y-73736285D01*
X169665712Y-73356193D01*
X169169710Y-73150235D01*
X168632647Y-73149766D01*
X168136285Y-73354858D01*
X167756193Y-73734288D01*
X167649993Y-73990045D01*
X167545142Y-73736285D01*
X167165712Y-73356193D01*
X166669710Y-73150235D01*
X166132647Y-73149766D01*
X166083500Y-73170073D01*
X167693231Y-71560400D01*
X169990000Y-71560400D01*
X169990048Y-71560390D01*
X169990092Y-71560399D01*
X170108984Y-71536733D01*
X170238744Y-71510922D01*
X170238784Y-71510895D01*
X170238830Y-71510886D01*
X170345660Y-71439482D01*
X170449619Y-71370019D01*
X170449644Y-71369981D01*
X170449685Y-71369954D01*
X171016827Y-70802651D01*
X171130290Y-70849765D01*
X171667353Y-70850234D01*
X172163715Y-70645142D01*
X172543807Y-70265712D01*
X172749765Y-69769710D01*
X172750234Y-69232647D01*
X172545142Y-68736285D01*
X172165712Y-68356193D01*
X171909955Y-68249993D01*
X172163715Y-68145142D01*
X172543807Y-67765712D01*
X172749765Y-67269710D01*
X172750234Y-66732647D01*
X172545142Y-66236285D01*
X172165712Y-65856193D01*
X171669710Y-65650235D01*
X171132647Y-65649766D01*
X170636285Y-65854858D01*
X170256193Y-66234288D01*
X170149993Y-66490045D01*
X170045142Y-66236285D01*
X169665712Y-65856193D01*
X169169710Y-65650235D01*
X168632647Y-65649766D01*
X168136285Y-65854858D01*
X167756193Y-66234288D01*
X167649993Y-66490045D01*
X167545142Y-66236285D01*
X167165712Y-65856193D01*
X166669710Y-65650235D01*
X166132647Y-65649766D01*
X165636285Y-65854858D01*
X165256193Y-66234288D01*
X165050235Y-66730290D01*
X165049766Y-67267353D01*
X165254858Y-67763715D01*
X165634288Y-68143807D01*
X165890045Y-68250007D01*
X165636285Y-68354858D01*
X165256193Y-68734288D01*
X165050235Y-69230290D01*
X165049766Y-69767353D01*
X165097612Y-69883149D01*
X161880762Y-73100000D01*
X158090350Y-73100000D01*
X157849839Y-73000131D01*
X157551470Y-72999870D01*
X157275714Y-73113811D01*
X157064552Y-73324605D01*
X156950131Y-73600161D01*
X156949870Y-73898530D01*
X157029474Y-74091184D01*
X156900000Y-74091184D01*
X156733240Y-74122562D01*
X156580081Y-74221117D01*
X156477332Y-74371495D01*
X156441184Y-74550000D01*
X156441184Y-75450000D01*
X156472562Y-75616760D01*
X156571117Y-75769919D01*
X156721495Y-75872668D01*
X156900000Y-75908816D01*
X158100000Y-75908816D01*
X158266760Y-75877438D01*
X158419919Y-75778883D01*
X158522668Y-75628505D01*
X158558816Y-75450000D01*
X158558816Y-74550000D01*
X158530592Y-74400000D01*
X162150000Y-74400000D01*
X162363975Y-74357438D01*
X162398745Y-74350522D01*
X162609619Y-74209619D01*
X166016658Y-70802581D01*
X166130290Y-70849765D01*
X166565002Y-70850145D01*
X158558816Y-78856042D01*
X158558816Y-78550000D01*
X158527438Y-78383240D01*
X158428883Y-78230081D01*
X158278505Y-78127332D01*
X158137774Y-78098833D01*
X158100522Y-77911556D01*
X158003072Y-77765712D01*
X157959620Y-77700681D01*
X156109119Y-75850181D01*
X156219919Y-75778883D01*
X156322668Y-75628505D01*
X156358816Y-75450000D01*
X156358816Y-74550000D01*
X156327438Y-74383240D01*
X156228883Y-74230081D01*
X156078505Y-74127332D01*
X155950000Y-74101309D01*
X155950000Y-74039700D01*
X155900522Y-73790956D01*
X155863992Y-73736285D01*
X155759620Y-73580081D01*
X153460219Y-71280681D01*
X153249345Y-71139778D01*
X153208076Y-71131569D01*
X153000600Y-71090300D01*
X150233816Y-71090300D01*
X150233816Y-69670000D01*
X150202438Y-69503240D01*
X150103883Y-69350081D01*
X149953505Y-69247332D01*
X149775000Y-69211184D01*
X149125000Y-69211184D01*
X148958240Y-69242562D01*
X148805081Y-69341117D01*
X148702332Y-69491495D01*
X148666184Y-69670000D01*
X148666184Y-69917288D01*
X148624865Y-69900131D01*
X148326496Y-69899870D01*
X148050740Y-70013811D01*
X147839578Y-70224605D01*
X147725157Y-70500161D01*
X147724896Y-70798530D01*
X147838837Y-71074286D01*
X147850000Y-71085468D01*
X147850000Y-71911184D01*
X147225000Y-71911184D01*
X147058240Y-71942562D01*
X146905081Y-72041117D01*
X146802332Y-72191495D01*
X146766184Y-72370000D01*
X144525000Y-72370000D01*
X144525000Y-67475000D01*
X153941184Y-67475000D01*
X153941184Y-68725000D01*
X153972562Y-68891760D01*
X154071117Y-69044919D01*
X154221495Y-69147668D01*
X154400000Y-69183816D01*
X154500000Y-69183816D01*
X154500000Y-70143951D01*
X154380081Y-70221117D01*
X154277332Y-70371495D01*
X154241184Y-70550000D01*
X154241184Y-71450000D01*
X154272562Y-71616760D01*
X154371117Y-71769919D01*
X154521495Y-71872668D01*
X154700000Y-71908816D01*
X155900000Y-71908816D01*
X156066760Y-71877438D01*
X156219919Y-71778883D01*
X156322668Y-71628505D01*
X156358816Y-71450000D01*
X156358816Y-70550000D01*
X156441184Y-70550000D01*
X156441184Y-71450000D01*
X156472562Y-71616760D01*
X156571117Y-71769919D01*
X156721495Y-71872668D01*
X156900000Y-71908816D01*
X158100000Y-71908816D01*
X158266760Y-71877438D01*
X158419919Y-71778883D01*
X158507981Y-71650000D01*
X158609650Y-71650000D01*
X158850161Y-71749869D01*
X159148530Y-71750130D01*
X159424286Y-71636189D01*
X159635448Y-71425395D01*
X159749869Y-71149839D01*
X159750130Y-70851470D01*
X159636189Y-70575714D01*
X159425395Y-70364552D01*
X159149839Y-70250131D01*
X158851470Y-70249870D01*
X158609139Y-70350000D01*
X158506049Y-70350000D01*
X158428883Y-70230081D01*
X158278505Y-70127332D01*
X158100000Y-70091184D01*
X156900000Y-70091184D01*
X156733240Y-70122562D01*
X156580081Y-70221117D01*
X156477332Y-70371495D01*
X156441184Y-70550000D01*
X156358816Y-70550000D01*
X156327438Y-70383240D01*
X156228883Y-70230081D01*
X156078505Y-70127332D01*
X155900000Y-70091184D01*
X155800000Y-70091184D01*
X155800000Y-69183816D01*
X155900000Y-69183816D01*
X156066760Y-69152438D01*
X156219919Y-69053883D01*
X156322668Y-68903505D01*
X156358816Y-68725000D01*
X156358816Y-67475000D01*
X156441184Y-67475000D01*
X156441184Y-68725000D01*
X156472562Y-68891760D01*
X156571117Y-69044919D01*
X156721495Y-69147668D01*
X156900000Y-69183816D01*
X158400000Y-69183816D01*
X158566760Y-69152438D01*
X158719919Y-69053883D01*
X158822668Y-68903505D01*
X158834820Y-68843499D01*
X158850161Y-68849869D01*
X159148530Y-68850130D01*
X159424286Y-68736189D01*
X159635448Y-68525395D01*
X159749869Y-68249839D01*
X159750130Y-67951470D01*
X159636189Y-67675714D01*
X159425395Y-67464552D01*
X159149839Y-67350131D01*
X158851470Y-67349870D01*
X158836440Y-67356080D01*
X158827438Y-67308240D01*
X158728883Y-67155081D01*
X158578505Y-67052332D01*
X158400000Y-67016184D01*
X156900000Y-67016184D01*
X156733240Y-67047562D01*
X156580081Y-67146117D01*
X156477332Y-67296495D01*
X156441184Y-67475000D01*
X156358816Y-67475000D01*
X156327438Y-67308240D01*
X156228883Y-67155081D01*
X156078505Y-67052332D01*
X155900000Y-67016184D01*
X154400000Y-67016184D01*
X154233240Y-67047562D01*
X154080081Y-67146117D01*
X153977332Y-67296495D01*
X153941184Y-67475000D01*
X144525000Y-67475000D01*
X144525000Y-64525000D01*
X173475000Y-64525000D01*
X173475000Y-93475000D01*
X173475000Y-93475000D01*
G37*
X173475000Y-93475000D02*
X144549236Y-93475000D01*
X144525000Y-86349676D01*
X144525000Y-72370000D01*
X146766184Y-72370000D01*
X146766184Y-73930000D01*
X146797562Y-74096760D01*
X146896117Y-74249919D01*
X146900000Y-74252572D01*
X146900000Y-74440300D01*
X146939767Y-74640222D01*
X146949478Y-74689045D01*
X147090381Y-74899919D01*
X153150081Y-80959619D01*
X153360955Y-81100522D01*
X153402224Y-81108731D01*
X153609700Y-81150000D01*
X154650000Y-81150000D01*
X154650000Y-84100592D01*
X154533240Y-84122562D01*
X154380081Y-84221117D01*
X154277332Y-84371495D01*
X154241184Y-84550000D01*
X154241184Y-85450000D01*
X154272562Y-85616760D01*
X154371117Y-85769919D01*
X154521495Y-85872668D01*
X154700000Y-85908816D01*
X155900000Y-85908816D01*
X156066760Y-85877438D01*
X156219919Y-85778883D01*
X156322668Y-85628505D01*
X156358816Y-85450000D01*
X156358816Y-84550000D01*
X156327438Y-84383240D01*
X156228883Y-84230081D01*
X156078505Y-84127332D01*
X155950000Y-84101309D01*
X155950000Y-82650000D01*
X156334000Y-82650000D01*
X156490067Y-82618957D01*
X156582734Y-82600526D01*
X156582738Y-82600523D01*
X156582744Y-82600522D01*
X156671986Y-82540892D01*
X156793611Y-82459628D01*
X165069399Y-74184138D01*
X165050235Y-74230290D01*
X165049766Y-74767353D01*
X165254858Y-75263715D01*
X165634288Y-75643807D01*
X165890045Y-75750007D01*
X165636285Y-75854858D01*
X165256193Y-76234288D01*
X165050235Y-76730290D01*
X165049766Y-77267353D01*
X165254858Y-77763715D01*
X165634288Y-78143807D01*
X165750000Y-78191855D01*
X165750000Y-82445461D01*
X164790381Y-83405081D01*
X164649478Y-83615955D01*
X164649478Y-83615956D01*
X164600000Y-83864700D01*
X164600000Y-83916184D01*
X164500000Y-83916184D01*
X164333240Y-83947562D01*
X164180081Y-84046117D01*
X164077332Y-84196495D01*
X164041184Y-84375000D01*
X164041184Y-85485300D01*
X163958816Y-85485300D01*
X163958816Y-84375000D01*
X163927438Y-84208240D01*
X163828883Y-84055081D01*
X163678505Y-83952332D01*
X163500000Y-83916184D01*
X162000000Y-83916184D01*
X161833240Y-83947562D01*
X161680081Y-84046117D01*
X161577332Y-84196495D01*
X161541184Y-84375000D01*
X161541184Y-85625000D01*
X161572562Y-85791760D01*
X161671117Y-85944919D01*
X161821495Y-86047668D01*
X162000000Y-86083816D01*
X162364539Y-86083816D01*
X162875263Y-86594802D01*
X162875335Y-86594850D01*
X162875381Y-86594919D01*
X163600001Y-87319540D01*
X163600001Y-90149802D01*
X163239742Y-90000209D01*
X162762353Y-89999793D01*
X162731698Y-90012459D01*
X158451663Y-85732425D01*
X158522668Y-85628505D01*
X158558816Y-85450000D01*
X158558816Y-84550000D01*
X158527438Y-84383240D01*
X158428883Y-84230081D01*
X158278505Y-84127332D01*
X158100000Y-84091184D01*
X156900000Y-84091184D01*
X156733240Y-84122562D01*
X156580081Y-84221117D01*
X156477332Y-84371495D01*
X156441184Y-84550000D01*
X156441184Y-85450000D01*
X156472562Y-85616760D01*
X156571117Y-85769919D01*
X156721495Y-85872668D01*
X156891181Y-85907030D01*
X156899478Y-85948745D01*
X157040381Y-86159619D01*
X160886101Y-90005340D01*
X160661892Y-90024136D01*
X160407617Y-90129460D01*
X160327657Y-90315525D01*
X161000000Y-90987868D01*
X161014143Y-90973726D01*
X161226275Y-91185858D01*
X161212132Y-91200000D01*
X161226275Y-91214143D01*
X161014143Y-91426275D01*
X161000000Y-91412132D01*
X160985858Y-91426275D01*
X160773726Y-91214143D01*
X160787868Y-91200000D01*
X160115525Y-90527657D01*
X160034909Y-90562301D01*
X160017903Y-90521143D01*
X159680633Y-90183283D01*
X159239742Y-90000209D01*
X158762353Y-89999793D01*
X158321143Y-90182097D01*
X157999735Y-90502943D01*
X157680633Y-90183283D01*
X157239742Y-90000209D01*
X156762353Y-89999793D01*
X156321143Y-90182097D01*
X156184140Y-90318860D01*
X156177438Y-90283240D01*
X156078883Y-90130081D01*
X155928505Y-90027332D01*
X155750000Y-89991184D01*
X154250000Y-89991184D01*
X154083240Y-90022562D01*
X153930081Y-90121117D01*
X153827332Y-90271495D01*
X153791184Y-90450000D01*
X153791184Y-91950000D01*
X153822562Y-92116760D01*
X153921117Y-92269919D01*
X154071495Y-92372668D01*
X154250000Y-92408816D01*
X155750000Y-92408816D01*
X155916760Y-92377438D01*
X156069919Y-92278883D01*
X156172668Y-92128505D01*
X156182558Y-92079668D01*
X156319367Y-92216717D01*
X156760258Y-92399791D01*
X157237647Y-92400207D01*
X157678857Y-92217903D01*
X158000265Y-91897057D01*
X158319367Y-92216717D01*
X158760258Y-92399791D01*
X159237647Y-92400207D01*
X159268302Y-92387541D01*
X159790381Y-92909620D01*
X159931284Y-93003768D01*
X160001257Y-93050523D01*
X160250001Y-93100001D01*
X163600001Y-93100001D01*
X163807477Y-93058732D01*
X163848746Y-93050523D01*
X164059620Y-92909620D01*
X164709621Y-92259620D01*
X164850523Y-92048745D01*
X164900001Y-91800001D01*
X164900001Y-87050301D01*
X164850523Y-86801557D01*
X164839660Y-86785300D01*
X169365000Y-86785300D01*
X169365093Y-86785281D01*
X169365182Y-86785299D01*
X169487494Y-86760935D01*
X169613744Y-86735822D01*
X169613821Y-86735770D01*
X169613913Y-86735752D01*
X169720722Y-86664341D01*
X169824619Y-86594919D01*
X169824669Y-86594844D01*
X169824748Y-86594791D01*
X170359748Y-86059491D01*
X170430895Y-85952948D01*
X170460383Y-85908816D01*
X170500000Y-85908816D01*
X170666760Y-85877438D01*
X170819919Y-85778883D01*
X170922668Y-85628505D01*
X170958816Y-85450000D01*
X170958816Y-84550000D01*
X170927438Y-84383240D01*
X170828883Y-84230081D01*
X170678505Y-84127332D01*
X170500000Y-84091184D01*
X169300000Y-84091184D01*
X169133240Y-84122562D01*
X168980081Y-84221117D01*
X168877332Y-84371495D01*
X168841184Y-84550000D01*
X168841184Y-85450000D01*
X168847826Y-85485300D01*
X166458816Y-85485300D01*
X166458816Y-84375000D01*
X166427438Y-84208240D01*
X166328883Y-84055081D01*
X166178505Y-83952332D01*
X166097924Y-83936014D01*
X166859620Y-83174319D01*
X167000522Y-82963444D01*
X167050000Y-82714700D01*
X167050000Y-78192128D01*
X167163715Y-78145142D01*
X167543807Y-77765712D01*
X167650007Y-77509955D01*
X167754858Y-77763715D01*
X168134288Y-78143807D01*
X168630290Y-78349765D01*
X169167353Y-78350234D01*
X169663715Y-78145142D01*
X170043807Y-77765712D01*
X170091855Y-77650000D01*
X170207872Y-77650000D01*
X170254858Y-77763715D01*
X170634288Y-78143807D01*
X170750000Y-78191855D01*
X170750000Y-83339700D01*
X170791269Y-83547176D01*
X170799478Y-83588445D01*
X170940381Y-83799319D01*
X171290881Y-84149819D01*
X171180081Y-84221117D01*
X171077332Y-84371495D01*
X171041184Y-84550000D01*
X171041184Y-85450000D01*
X171072562Y-85616760D01*
X171171117Y-85769919D01*
X171321495Y-85872668D01*
X171500000Y-85908816D01*
X172700000Y-85908816D01*
X172866760Y-85877438D01*
X173019919Y-85778883D01*
X173122668Y-85628505D01*
X173158816Y-85450000D01*
X173158816Y-84550000D01*
X173127438Y-84383240D01*
X173028883Y-84230081D01*
X172878505Y-84127332D01*
X172750000Y-84101309D01*
X172750000Y-84039700D01*
X172700522Y-83790956D01*
X172653767Y-83720983D01*
X172559619Y-83580080D01*
X172050000Y-83070462D01*
X172050000Y-78192128D01*
X172163715Y-78145142D01*
X172543807Y-77765712D01*
X172749765Y-77269710D01*
X172750234Y-76732647D01*
X172545142Y-76236285D01*
X172165712Y-75856193D01*
X171909955Y-75749993D01*
X172163715Y-75645142D01*
X172543807Y-75265712D01*
X172749765Y-74769710D01*
X172750234Y-74232647D01*
X172545142Y-73736285D01*
X172165712Y-73356193D01*
X171669710Y-73150235D01*
X171132647Y-73149766D01*
X170636285Y-73354858D01*
X170256193Y-73734288D01*
X170208145Y-73850000D01*
X170092128Y-73850000D01*
X170045142Y-73736285D01*
X169665712Y-73356193D01*
X169169710Y-73150235D01*
X168632647Y-73149766D01*
X168136285Y-73354858D01*
X167756193Y-73734288D01*
X167649993Y-73990045D01*
X167545142Y-73736285D01*
X167165712Y-73356193D01*
X166669710Y-73150235D01*
X166132647Y-73149766D01*
X166083500Y-73170073D01*
X167693231Y-71560400D01*
X169990000Y-71560400D01*
X169990048Y-71560390D01*
X169990092Y-71560399D01*
X170108984Y-71536733D01*
X170238744Y-71510922D01*
X170238784Y-71510895D01*
X170238830Y-71510886D01*
X170345660Y-71439482D01*
X170449619Y-71370019D01*
X170449644Y-71369981D01*
X170449685Y-71369954D01*
X171016827Y-70802651D01*
X171130290Y-70849765D01*
X171667353Y-70850234D01*
X172163715Y-70645142D01*
X172543807Y-70265712D01*
X172749765Y-69769710D01*
X172750234Y-69232647D01*
X172545142Y-68736285D01*
X172165712Y-68356193D01*
X171909955Y-68249993D01*
X172163715Y-68145142D01*
X172543807Y-67765712D01*
X172749765Y-67269710D01*
X172750234Y-66732647D01*
X172545142Y-66236285D01*
X172165712Y-65856193D01*
X171669710Y-65650235D01*
X171132647Y-65649766D01*
X170636285Y-65854858D01*
X170256193Y-66234288D01*
X170149993Y-66490045D01*
X170045142Y-66236285D01*
X169665712Y-65856193D01*
X169169710Y-65650235D01*
X168632647Y-65649766D01*
X168136285Y-65854858D01*
X167756193Y-66234288D01*
X167649993Y-66490045D01*
X167545142Y-66236285D01*
X167165712Y-65856193D01*
X166669710Y-65650235D01*
X166132647Y-65649766D01*
X165636285Y-65854858D01*
X165256193Y-66234288D01*
X165050235Y-66730290D01*
X165049766Y-67267353D01*
X165254858Y-67763715D01*
X165634288Y-68143807D01*
X165890045Y-68250007D01*
X165636285Y-68354858D01*
X165256193Y-68734288D01*
X165050235Y-69230290D01*
X165049766Y-69767353D01*
X165097612Y-69883149D01*
X161880762Y-73100000D01*
X158090350Y-73100000D01*
X157849839Y-73000131D01*
X157551470Y-72999870D01*
X157275714Y-73113811D01*
X157064552Y-73324605D01*
X156950131Y-73600161D01*
X156949870Y-73898530D01*
X157029474Y-74091184D01*
X156900000Y-74091184D01*
X156733240Y-74122562D01*
X156580081Y-74221117D01*
X156477332Y-74371495D01*
X156441184Y-74550000D01*
X156441184Y-75450000D01*
X156472562Y-75616760D01*
X156571117Y-75769919D01*
X156721495Y-75872668D01*
X156900000Y-75908816D01*
X158100000Y-75908816D01*
X158266760Y-75877438D01*
X158419919Y-75778883D01*
X158522668Y-75628505D01*
X158558816Y-75450000D01*
X158558816Y-74550000D01*
X158530592Y-74400000D01*
X162150000Y-74400000D01*
X162363975Y-74357438D01*
X162398745Y-74350522D01*
X162609619Y-74209619D01*
X166016658Y-70802581D01*
X166130290Y-70849765D01*
X166565002Y-70850145D01*
X158558816Y-78856042D01*
X158558816Y-78550000D01*
X158527438Y-78383240D01*
X158428883Y-78230081D01*
X158278505Y-78127332D01*
X158137774Y-78098833D01*
X158100522Y-77911556D01*
X158003072Y-77765712D01*
X157959620Y-77700681D01*
X156109119Y-75850181D01*
X156219919Y-75778883D01*
X156322668Y-75628505D01*
X156358816Y-75450000D01*
X156358816Y-74550000D01*
X156327438Y-74383240D01*
X156228883Y-74230081D01*
X156078505Y-74127332D01*
X155950000Y-74101309D01*
X155950000Y-74039700D01*
X155900522Y-73790956D01*
X155863992Y-73736285D01*
X155759620Y-73580081D01*
X153460219Y-71280681D01*
X153249345Y-71139778D01*
X153208076Y-71131569D01*
X153000600Y-71090300D01*
X150233816Y-71090300D01*
X150233816Y-69670000D01*
X150202438Y-69503240D01*
X150103883Y-69350081D01*
X149953505Y-69247332D01*
X149775000Y-69211184D01*
X149125000Y-69211184D01*
X148958240Y-69242562D01*
X148805081Y-69341117D01*
X148702332Y-69491495D01*
X148666184Y-69670000D01*
X148666184Y-69917288D01*
X148624865Y-69900131D01*
X148326496Y-69899870D01*
X148050740Y-70013811D01*
X147839578Y-70224605D01*
X147725157Y-70500161D01*
X147724896Y-70798530D01*
X147838837Y-71074286D01*
X147850000Y-71085468D01*
X147850000Y-71911184D01*
X147225000Y-71911184D01*
X147058240Y-71942562D01*
X146905081Y-72041117D01*
X146802332Y-72191495D01*
X146766184Y-72370000D01*
X144525000Y-72370000D01*
X144525000Y-67475000D01*
X153941184Y-67475000D01*
X153941184Y-68725000D01*
X153972562Y-68891760D01*
X154071117Y-69044919D01*
X154221495Y-69147668D01*
X154400000Y-69183816D01*
X154500000Y-69183816D01*
X154500000Y-70143951D01*
X154380081Y-70221117D01*
X154277332Y-70371495D01*
X154241184Y-70550000D01*
X154241184Y-71450000D01*
X154272562Y-71616760D01*
X154371117Y-71769919D01*
X154521495Y-71872668D01*
X154700000Y-71908816D01*
X155900000Y-71908816D01*
X156066760Y-71877438D01*
X156219919Y-71778883D01*
X156322668Y-71628505D01*
X156358816Y-71450000D01*
X156358816Y-70550000D01*
X156441184Y-70550000D01*
X156441184Y-71450000D01*
X156472562Y-71616760D01*
X156571117Y-71769919D01*
X156721495Y-71872668D01*
X156900000Y-71908816D01*
X158100000Y-71908816D01*
X158266760Y-71877438D01*
X158419919Y-71778883D01*
X158507981Y-71650000D01*
X158609650Y-71650000D01*
X158850161Y-71749869D01*
X159148530Y-71750130D01*
X159424286Y-71636189D01*
X159635448Y-71425395D01*
X159749869Y-71149839D01*
X159750130Y-70851470D01*
X159636189Y-70575714D01*
X159425395Y-70364552D01*
X159149839Y-70250131D01*
X158851470Y-70249870D01*
X158609139Y-70350000D01*
X158506049Y-70350000D01*
X158428883Y-70230081D01*
X158278505Y-70127332D01*
X158100000Y-70091184D01*
X156900000Y-70091184D01*
X156733240Y-70122562D01*
X156580081Y-70221117D01*
X156477332Y-70371495D01*
X156441184Y-70550000D01*
X156358816Y-70550000D01*
X156327438Y-70383240D01*
X156228883Y-70230081D01*
X156078505Y-70127332D01*
X155900000Y-70091184D01*
X155800000Y-70091184D01*
X155800000Y-69183816D01*
X155900000Y-69183816D01*
X156066760Y-69152438D01*
X156219919Y-69053883D01*
X156322668Y-68903505D01*
X156358816Y-68725000D01*
X156358816Y-67475000D01*
X156441184Y-67475000D01*
X156441184Y-68725000D01*
X156472562Y-68891760D01*
X156571117Y-69044919D01*
X156721495Y-69147668D01*
X156900000Y-69183816D01*
X158400000Y-69183816D01*
X158566760Y-69152438D01*
X158719919Y-69053883D01*
X158822668Y-68903505D01*
X158834820Y-68843499D01*
X158850161Y-68849869D01*
X159148530Y-68850130D01*
X159424286Y-68736189D01*
X159635448Y-68525395D01*
X159749869Y-68249839D01*
X159750130Y-67951470D01*
X159636189Y-67675714D01*
X159425395Y-67464552D01*
X159149839Y-67350131D01*
X158851470Y-67349870D01*
X158836440Y-67356080D01*
X158827438Y-67308240D01*
X158728883Y-67155081D01*
X158578505Y-67052332D01*
X158400000Y-67016184D01*
X156900000Y-67016184D01*
X156733240Y-67047562D01*
X156580081Y-67146117D01*
X156477332Y-67296495D01*
X156441184Y-67475000D01*
X156358816Y-67475000D01*
X156327438Y-67308240D01*
X156228883Y-67155081D01*
X156078505Y-67052332D01*
X155900000Y-67016184D01*
X154400000Y-67016184D01*
X154233240Y-67047562D01*
X154080081Y-67146117D01*
X153977332Y-67296495D01*
X153941184Y-67475000D01*
X144525000Y-67475000D01*
X144525000Y-64525000D01*
X173475000Y-64525000D01*
X173475000Y-93475000D01*
M02*
