%TF.GenerationSoftware,KiCad,Pcbnew,4.0.4-1.fc24-product*%
%TF.CreationDate,2018-01-16T16:14:16+11:00*%
%TF.ProjectId,MID_STACK,4D49445F535441434B2E6B696361645F,rev?*%
%TF.FileFunction,Legend,Bot*%
%FSLAX46Y46*%
G04 Gerber Fmt 4.6, Leading zero omitted, Abs format (unit mm)*
G04 Created by KiCad (PCBNEW 4.0.4-1.fc24-product) date Tue Jan 16 16:14:16 2018*
%MOMM*%
%LPD*%
G01*
G04 APERTURE LIST*
%ADD10C,0.100000*%
%ADD11C,0.150000*%
%ADD12C,0.120000*%
G04 APERTURE END LIST*
D10*
D11*
X168057142Y-87671429D02*
X167942856Y-87671429D01*
X167885714Y-87700000D01*
X167828571Y-87757143D01*
X167799999Y-87871429D01*
X167799999Y-88071429D01*
X167828571Y-88185714D01*
X167885714Y-88242857D01*
X167942856Y-88271429D01*
X168057142Y-88271429D01*
X168114285Y-88242857D01*
X168171428Y-88185714D01*
X168199999Y-88071429D01*
X168199999Y-87871429D01*
X168171428Y-87757143D01*
X168114285Y-87700000D01*
X168057142Y-87671429D01*
X166228571Y-88042857D02*
X165771428Y-88042857D01*
X165999999Y-88271429D02*
X165999999Y-87814286D01*
X163842857Y-87700000D02*
X163900000Y-87671429D01*
X163985714Y-87671429D01*
X164071429Y-87700000D01*
X164128571Y-87757143D01*
X164157143Y-87814286D01*
X164185714Y-87928571D01*
X164185714Y-88014286D01*
X164157143Y-88128571D01*
X164128571Y-88185714D01*
X164071429Y-88242857D01*
X163985714Y-88271429D01*
X163928571Y-88271429D01*
X163842857Y-88242857D01*
X163814286Y-88214286D01*
X163814286Y-88014286D01*
X163928571Y-88014286D01*
X162228571Y-88042857D02*
X161771428Y-88042857D01*
X160000000Y-88271429D02*
X160000000Y-87671429D01*
X158857143Y-65132143D02*
X158771429Y-65160714D01*
X158742857Y-65189286D01*
X158714286Y-65246429D01*
X158714286Y-65332143D01*
X158742857Y-65389286D01*
X158771429Y-65417857D01*
X158828571Y-65446429D01*
X159057143Y-65446429D01*
X159057143Y-64846429D01*
X158857143Y-64846429D01*
X158800000Y-64875000D01*
X158771429Y-64903571D01*
X158742857Y-64960714D01*
X158742857Y-65017857D01*
X158771429Y-65075000D01*
X158800000Y-65103571D01*
X158857143Y-65132143D01*
X159057143Y-65132143D01*
X158142857Y-64875000D02*
X158200000Y-64846429D01*
X158285714Y-64846429D01*
X158371429Y-64875000D01*
X158428571Y-64932143D01*
X158457143Y-64989286D01*
X158485714Y-65103571D01*
X158485714Y-65189286D01*
X158457143Y-65303571D01*
X158428571Y-65360714D01*
X158371429Y-65417857D01*
X158285714Y-65446429D01*
X158228571Y-65446429D01*
X158142857Y-65417857D01*
X158114286Y-65389286D01*
X158114286Y-65189286D01*
X158228571Y-65189286D01*
X157857143Y-65446429D02*
X157857143Y-64846429D01*
X157628571Y-64846429D01*
X157571429Y-64875000D01*
X157542857Y-64903571D01*
X157514286Y-64960714D01*
X157514286Y-65046429D01*
X157542857Y-65103571D01*
X157571429Y-65132143D01*
X157628571Y-65160714D01*
X157857143Y-65160714D01*
X156885714Y-64846429D02*
X156685714Y-65446429D01*
X156485714Y-64846429D01*
X156171428Y-64846429D02*
X156114285Y-64846429D01*
X156057142Y-64875000D01*
X156028571Y-64903571D01*
X156000000Y-64960714D01*
X155971428Y-65075000D01*
X155971428Y-65217857D01*
X156000000Y-65332143D01*
X156028571Y-65389286D01*
X156057142Y-65417857D01*
X156114285Y-65446429D01*
X156171428Y-65446429D01*
X156228571Y-65417857D01*
X156257142Y-65389286D01*
X156285714Y-65332143D01*
X156314285Y-65217857D01*
X156314285Y-65075000D01*
X156285714Y-64960714D01*
X156257142Y-64903571D01*
X156228571Y-64875000D01*
X156171428Y-64846429D01*
X155714285Y-65389286D02*
X155685713Y-65417857D01*
X155714285Y-65446429D01*
X155742856Y-65417857D01*
X155714285Y-65389286D01*
X155714285Y-65446429D01*
X155314285Y-64846429D02*
X155257142Y-64846429D01*
X155199999Y-64875000D01*
X155171428Y-64903571D01*
X155142857Y-64960714D01*
X155114285Y-65075000D01*
X155114285Y-65217857D01*
X155142857Y-65332143D01*
X155171428Y-65389286D01*
X155199999Y-65417857D01*
X155257142Y-65446429D01*
X155314285Y-65446429D01*
X155371428Y-65417857D01*
X155399999Y-65389286D01*
X155428571Y-65332143D01*
X155457142Y-65217857D01*
X155457142Y-65075000D01*
X155428571Y-64960714D01*
X155399999Y-64903571D01*
X155371428Y-64875000D01*
X155314285Y-64846429D01*
X159171428Y-66496429D02*
X159171428Y-65896429D01*
X158971428Y-66325000D01*
X158771428Y-65896429D01*
X158771428Y-66496429D01*
X158485714Y-66496429D02*
X158485714Y-66096429D01*
X158485714Y-65896429D02*
X158514285Y-65925000D01*
X158485714Y-65953571D01*
X158457142Y-65925000D01*
X158485714Y-65896429D01*
X158485714Y-65953571D01*
X157942857Y-66496429D02*
X157942857Y-65896429D01*
X157942857Y-66467857D02*
X158000000Y-66496429D01*
X158114286Y-66496429D01*
X158171428Y-66467857D01*
X158200000Y-66439286D01*
X158228571Y-66382143D01*
X158228571Y-66210714D01*
X158200000Y-66153571D01*
X158171428Y-66125000D01*
X158114286Y-66096429D01*
X158000000Y-66096429D01*
X157942857Y-66125000D01*
X157228571Y-66467857D02*
X157142857Y-66496429D01*
X157000000Y-66496429D01*
X156942857Y-66467857D01*
X156914286Y-66439286D01*
X156885714Y-66382143D01*
X156885714Y-66325000D01*
X156914286Y-66267857D01*
X156942857Y-66239286D01*
X157000000Y-66210714D01*
X157114286Y-66182143D01*
X157171428Y-66153571D01*
X157200000Y-66125000D01*
X157228571Y-66067857D01*
X157228571Y-66010714D01*
X157200000Y-65953571D01*
X157171428Y-65925000D01*
X157114286Y-65896429D01*
X156971428Y-65896429D01*
X156885714Y-65925000D01*
X156714285Y-66096429D02*
X156485714Y-66096429D01*
X156628571Y-65896429D02*
X156628571Y-66410714D01*
X156599999Y-66467857D01*
X156542857Y-66496429D01*
X156485714Y-66496429D01*
X156028571Y-66496429D02*
X156028571Y-66182143D01*
X156057142Y-66125000D01*
X156114285Y-66096429D01*
X156228571Y-66096429D01*
X156285714Y-66125000D01*
X156028571Y-66467857D02*
X156085714Y-66496429D01*
X156228571Y-66496429D01*
X156285714Y-66467857D01*
X156314285Y-66410714D01*
X156314285Y-66353571D01*
X156285714Y-66296429D01*
X156228571Y-66267857D01*
X156085714Y-66267857D01*
X156028571Y-66239286D01*
X155485714Y-66467857D02*
X155542857Y-66496429D01*
X155657143Y-66496429D01*
X155714285Y-66467857D01*
X155742857Y-66439286D01*
X155771428Y-66382143D01*
X155771428Y-66210714D01*
X155742857Y-66153571D01*
X155714285Y-66125000D01*
X155657143Y-66096429D01*
X155542857Y-66096429D01*
X155485714Y-66125000D01*
X155228571Y-66496429D02*
X155228571Y-65896429D01*
X155171428Y-66267857D02*
X154999999Y-66496429D01*
X154999999Y-66096429D02*
X155228571Y-66325000D01*
D12*
X157850000Y-92850000D02*
X157850000Y-88900000D01*
X157850000Y-88900000D02*
X170150000Y-88900000D01*
X170150000Y-88900000D02*
X170150000Y-92850000D01*
X170150000Y-92850000D02*
X157850000Y-92850000D01*
X160350000Y-93100000D02*
X157600000Y-93100000D01*
X157600000Y-93100000D02*
X157600000Y-90350000D01*
X157850000Y-90400000D02*
X158250000Y-90400000D01*
X170150000Y-90400000D02*
X169750000Y-90400000D01*
X164000000Y-92450000D02*
X158250000Y-92450000D01*
X158250000Y-92450000D02*
X158250000Y-91200000D01*
X158250000Y-91200000D02*
X158650000Y-91200000D01*
X158650000Y-91200000D02*
X158650000Y-90800000D01*
X158650000Y-90800000D02*
X158250000Y-90800000D01*
X158250000Y-90800000D02*
X158250000Y-88900000D01*
X164000000Y-92450000D02*
X169750000Y-92450000D01*
X169750000Y-92450000D02*
X169750000Y-91200000D01*
X169750000Y-91200000D02*
X169350000Y-91200000D01*
X169350000Y-91200000D02*
X169350000Y-90800000D01*
X169350000Y-90800000D02*
X169750000Y-90800000D01*
X169750000Y-90800000D02*
X169750000Y-88900000D01*
X173710000Y-79560000D02*
X173710000Y-63940000D01*
X164090000Y-79560000D02*
X164090000Y-63940000D01*
X173710000Y-79560000D02*
X164090000Y-79560000D01*
X173710000Y-63940000D02*
X164090000Y-63940000D01*
D11*
X158450000Y-84175000D02*
X160450000Y-84175000D01*
X160450000Y-86225000D02*
X158450000Y-86225000D01*
X171242857Y-89471429D02*
X171242857Y-88871429D01*
X171014285Y-88871429D01*
X170957143Y-88900000D01*
X170928571Y-88928571D01*
X170900000Y-88985714D01*
X170900000Y-89071429D01*
X170928571Y-89128571D01*
X170957143Y-89157143D01*
X171014285Y-89185714D01*
X171242857Y-89185714D01*
X170328571Y-89471429D02*
X170671428Y-89471429D01*
X170500000Y-89471429D02*
X170500000Y-88871429D01*
X170557143Y-88957143D01*
X170614285Y-89014286D01*
X170671428Y-89042857D01*
X163771429Y-64657143D02*
X163171429Y-64657143D01*
X163171429Y-64885715D01*
X163200000Y-64942857D01*
X163228571Y-64971429D01*
X163285714Y-65000000D01*
X163371429Y-65000000D01*
X163428571Y-64971429D01*
X163457143Y-64942857D01*
X163485714Y-64885715D01*
X163485714Y-64657143D01*
X163228571Y-65228572D02*
X163200000Y-65257143D01*
X163171429Y-65314286D01*
X163171429Y-65457143D01*
X163200000Y-65514286D01*
X163228571Y-65542857D01*
X163285714Y-65571429D01*
X163342857Y-65571429D01*
X163428571Y-65542857D01*
X163771429Y-65200000D01*
X163771429Y-65571429D01*
X156850000Y-87039287D02*
X156878571Y-87067858D01*
X156964285Y-87096430D01*
X157021428Y-87096430D01*
X157107143Y-87067858D01*
X157164285Y-87010715D01*
X157192857Y-86953572D01*
X157221428Y-86839287D01*
X157221428Y-86753572D01*
X157192857Y-86639287D01*
X157164285Y-86582144D01*
X157107143Y-86525001D01*
X157021428Y-86496430D01*
X156964285Y-86496430D01*
X156878571Y-86525001D01*
X156850000Y-86553572D01*
X156278571Y-87096430D02*
X156621428Y-87096430D01*
X156450000Y-87096430D02*
X156450000Y-86496430D01*
X156507143Y-86582144D01*
X156564285Y-86639287D01*
X156621428Y-86667858D01*
M02*
