G04 #@! TF.FileFunction,Legend,Bot*
%FSLAX46Y46*%
G04 Gerber Fmt 4.6, Leading zero omitted, Abs format (unit mm)*
G04 Created by KiCad (PCBNEW 4.0.4-1.fc24-product) date Mon Apr 30 10:47:21 2018*
%MOMM*%
%LPD*%
G01*
G04 APERTURE LIST*
%ADD10C,0.100000*%
%ADD11C,0.120000*%
%ADD12C,0.150000*%
G04 APERTURE END LIST*
D10*
D11*
X140756080Y-123730738D02*
X127136080Y-123730738D01*
X140756080Y-137040738D02*
X127136080Y-137040738D01*
X140756080Y-123730738D02*
X140756080Y-137040738D01*
X127136080Y-123730738D02*
X127136080Y-137040738D01*
X129946080Y-142180738D02*
X129946080Y-137480738D01*
X129946080Y-137480738D02*
X140046080Y-137480738D01*
X140046080Y-137480738D02*
X140046080Y-142180738D01*
X140046080Y-142180738D02*
X129946080Y-142180738D01*
X132496080Y-142180738D02*
X132496080Y-141580738D01*
X132496080Y-141580738D02*
X130546080Y-141580738D01*
X130546080Y-141580738D02*
X130546080Y-138080738D01*
X130546080Y-138080738D02*
X139446080Y-138080738D01*
X139446080Y-138080738D02*
X139446080Y-141580738D01*
X139446080Y-141580738D02*
X137496080Y-141580738D01*
X137496080Y-141580738D02*
X137496080Y-142180738D01*
X129946080Y-140880738D02*
X130546080Y-140880738D01*
X129946080Y-139580738D02*
X130546080Y-139580738D01*
X140046080Y-140880738D02*
X139446080Y-140880738D01*
X140046080Y-139580738D02*
X139446080Y-139580738D01*
X131696080Y-142180738D02*
X131696080Y-142380738D01*
X131696080Y-142380738D02*
X131396080Y-142380738D01*
X131396080Y-142380738D02*
X131396080Y-142180738D01*
X131696080Y-142280738D02*
X131396080Y-142280738D01*
X132896080Y-138080738D02*
X132896080Y-138580738D01*
X132896080Y-138580738D02*
X133096080Y-138580738D01*
X133096080Y-138580738D02*
X133096080Y-138080738D01*
X132996080Y-138080738D02*
X132996080Y-138580738D01*
X134896080Y-138080738D02*
X134896080Y-138580738D01*
X134896080Y-138580738D02*
X135096080Y-138580738D01*
X135096080Y-138580738D02*
X135096080Y-138080738D01*
X134996080Y-138080738D02*
X134996080Y-138580738D01*
X136896080Y-138080738D02*
X136896080Y-138580738D01*
X136896080Y-138580738D02*
X137096080Y-138580738D01*
X137096080Y-138580738D02*
X137096080Y-138080738D01*
X136996080Y-138080738D02*
X136996080Y-138580738D01*
X130896080Y-142480738D02*
X129646080Y-142480738D01*
X129646080Y-142480738D02*
X129646080Y-141230738D01*
D12*
X148867000Y-141981698D02*
X154465160Y-141981698D01*
X154267040Y-142479538D02*
X154267040Y-141981698D01*
X149065120Y-141981698D02*
X149065120Y-142479538D01*
X151666080Y-142479538D02*
X151666080Y-141981698D01*
X154465160Y-136680718D02*
X148867000Y-136680718D01*
X154465160Y-142479538D02*
X148867000Y-142479538D01*
X148867000Y-142479538D02*
X148867000Y-136281938D01*
X148867000Y-136281938D02*
X154465160Y-136281938D01*
X154465160Y-136281938D02*
X154465160Y-142479538D01*
X143027000Y-141981698D02*
X148625160Y-141981698D01*
X148427040Y-142479538D02*
X148427040Y-141981698D01*
X143225120Y-141981698D02*
X143225120Y-142479538D01*
X145826080Y-142479538D02*
X145826080Y-141981698D01*
X148625160Y-136680718D02*
X143027000Y-136680718D01*
X148625160Y-142479538D02*
X143027000Y-142479538D01*
X143027000Y-142479538D02*
X143027000Y-136281938D01*
X143027000Y-136281938D02*
X148625160Y-136281938D01*
X148625160Y-136281938D02*
X148625160Y-142479538D01*
D11*
X129136080Y-118370738D02*
X129136080Y-123090738D01*
X133856080Y-118370738D02*
X133856080Y-123090738D01*
X129136080Y-118370738D02*
X133856080Y-118370738D01*
X129136080Y-123090738D02*
X133856080Y-123090738D01*
X134086080Y-118370738D02*
X134086080Y-123090738D01*
X139706080Y-118370738D02*
X139706080Y-123090738D01*
X134086080Y-118370738D02*
X139706080Y-118370738D01*
X134086080Y-123090738D02*
X139706080Y-123090738D01*
X153110771Y-127085034D02*
G75*
G03X153151080Y-124775738I40309J1154296D01*
G01*
X153171201Y-124776686D02*
G75*
G03X152022080Y-126170738I-20121J-1154052D01*
G01*
X144831080Y-129550738D02*
X154481080Y-129550738D01*
X144831080Y-124599738D02*
X154481080Y-124599738D01*
X144831080Y-129550738D02*
X144831080Y-124599738D01*
X154481080Y-129550738D02*
X154481080Y-124599738D01*
X154027080Y-126664738D02*
X152416080Y-125054738D01*
X153887080Y-126805738D02*
X152275080Y-125195738D01*
D12*
X129103223Y-136502167D02*
X129303223Y-136216452D01*
X129446080Y-136502167D02*
X129446080Y-135902167D01*
X129217508Y-135902167D01*
X129160366Y-135930738D01*
X129131794Y-135959309D01*
X129103223Y-136016452D01*
X129103223Y-136102167D01*
X129131794Y-136159309D01*
X129160366Y-136187881D01*
X129217508Y-136216452D01*
X129446080Y-136216452D01*
X128931794Y-135902167D02*
X128731794Y-136502167D01*
X128531794Y-135902167D01*
X128388937Y-135902167D02*
X128017508Y-135902167D01*
X128217508Y-136130738D01*
X128131794Y-136130738D01*
X128074651Y-136159309D01*
X128046080Y-136187881D01*
X128017508Y-136245024D01*
X128017508Y-136387881D01*
X128046080Y-136445024D01*
X128074651Y-136473595D01*
X128131794Y-136502167D01*
X128303222Y-136502167D01*
X128360365Y-136473595D01*
X128388937Y-136445024D01*
X135438937Y-139252167D02*
X135438937Y-138652167D01*
X135210365Y-138652167D01*
X135153223Y-138680738D01*
X135124651Y-138709309D01*
X135096080Y-138766452D01*
X135096080Y-138852167D01*
X135124651Y-138909309D01*
X135153223Y-138937881D01*
X135210365Y-138966452D01*
X135438937Y-138966452D01*
X134896080Y-138652167D02*
X134524651Y-138652167D01*
X134724651Y-138880738D01*
X134638937Y-138880738D01*
X134581794Y-138909309D01*
X134553223Y-138937881D01*
X134524651Y-138995024D01*
X134524651Y-139137881D01*
X134553223Y-139195024D01*
X134581794Y-139223595D01*
X134638937Y-139252167D01*
X134810365Y-139252167D01*
X134867508Y-139223595D01*
X134896080Y-139195024D01*
X152188937Y-137752167D02*
X152188937Y-137152167D01*
X151960365Y-137152167D01*
X151903223Y-137180738D01*
X151874651Y-137209309D01*
X151846080Y-137266452D01*
X151846080Y-137352167D01*
X151874651Y-137409309D01*
X151903223Y-137437881D01*
X151960365Y-137466452D01*
X152188937Y-137466452D01*
X151274651Y-137752167D02*
X151617508Y-137752167D01*
X151446080Y-137752167D02*
X151446080Y-137152167D01*
X151503223Y-137237881D01*
X151560365Y-137295024D01*
X151617508Y-137323595D01*
X146438937Y-137752167D02*
X146438937Y-137152167D01*
X146210365Y-137152167D01*
X146153223Y-137180738D01*
X146124651Y-137209309D01*
X146096080Y-137266452D01*
X146096080Y-137352167D01*
X146124651Y-137409309D01*
X146153223Y-137437881D01*
X146210365Y-137466452D01*
X146438937Y-137466452D01*
X145867508Y-137209309D02*
X145838937Y-137180738D01*
X145781794Y-137152167D01*
X145638937Y-137152167D01*
X145581794Y-137180738D01*
X145553223Y-137209309D01*
X145524651Y-137266452D01*
X145524651Y-137323595D01*
X145553223Y-137409309D01*
X145896080Y-137752167D01*
X145524651Y-137752167D01*
X133460366Y-118880738D02*
X133488937Y-118852167D01*
X133517509Y-118766453D01*
X133517509Y-118709310D01*
X133488937Y-118623595D01*
X133431794Y-118566453D01*
X133374651Y-118537881D01*
X133260366Y-118509310D01*
X133174651Y-118509310D01*
X133060366Y-118537881D01*
X133003223Y-118566453D01*
X132946080Y-118623595D01*
X132917509Y-118709310D01*
X132917509Y-118766453D01*
X132946080Y-118852167D01*
X132974651Y-118880738D01*
X132917509Y-119395024D02*
X132917509Y-119280738D01*
X132946080Y-119223595D01*
X132974651Y-119195024D01*
X133060366Y-119137881D01*
X133174651Y-119109310D01*
X133403223Y-119109310D01*
X133460366Y-119137881D01*
X133488937Y-119166453D01*
X133517509Y-119223595D01*
X133517509Y-119337881D01*
X133488937Y-119395024D01*
X133460366Y-119423595D01*
X133403223Y-119452167D01*
X133260366Y-119452167D01*
X133203223Y-119423595D01*
X133174651Y-119395024D01*
X133146080Y-119337881D01*
X133146080Y-119223595D01*
X133174651Y-119166453D01*
X133203223Y-119137881D01*
X133260366Y-119109310D01*
X134960366Y-118880738D02*
X134988937Y-118852167D01*
X135017509Y-118766453D01*
X135017509Y-118709310D01*
X134988937Y-118623595D01*
X134931794Y-118566453D01*
X134874651Y-118537881D01*
X134760366Y-118509310D01*
X134674651Y-118509310D01*
X134560366Y-118537881D01*
X134503223Y-118566453D01*
X134446080Y-118623595D01*
X134417509Y-118709310D01*
X134417509Y-118766453D01*
X134446080Y-118852167D01*
X134474651Y-118880738D01*
X134417509Y-119423595D02*
X134417509Y-119137881D01*
X134703223Y-119109310D01*
X134674651Y-119137881D01*
X134646080Y-119195024D01*
X134646080Y-119337881D01*
X134674651Y-119395024D01*
X134703223Y-119423595D01*
X134760366Y-119452167D01*
X134903223Y-119452167D01*
X134960366Y-119423595D01*
X134988937Y-119395024D01*
X135017509Y-119337881D01*
X135017509Y-119195024D01*
X134988937Y-119137881D01*
X134960366Y-119109310D01*
X154113223Y-130352167D02*
X154313223Y-130066452D01*
X154456080Y-130352167D02*
X154456080Y-129752167D01*
X154227508Y-129752167D01*
X154170366Y-129780738D01*
X154141794Y-129809309D01*
X154113223Y-129866452D01*
X154113223Y-129952167D01*
X154141794Y-130009309D01*
X154170366Y-130037881D01*
X154227508Y-130066452D01*
X154456080Y-130066452D01*
X153941794Y-129752167D02*
X153741794Y-130352167D01*
X153541794Y-129752167D01*
X153027508Y-130352167D02*
X153370365Y-130352167D01*
X153198937Y-130352167D02*
X153198937Y-129752167D01*
X153256080Y-129837881D01*
X153313222Y-129895024D01*
X153370365Y-129923595D01*
M02*
