G04 #@! TF.GenerationSoftware,KiCad,Pcbnew,(5.0.0)*
G04 #@! TF.CreationDate,2018-08-27T21:34:21+10:00*
G04 #@! TF.ProjectId,BT,42542E6B696361645F70636200000000,rev?*
G04 #@! TF.SameCoordinates,Original*
G04 #@! TF.FileFunction,Copper,L2,Bot,Signal*
G04 #@! TF.FilePolarity,Positive*
%FSLAX46Y46*%
G04 Gerber Fmt 4.6, Leading zero omitted, Abs format (unit mm)*
G04 Created by KiCad (PCBNEW (5.0.0)) date 08/27/18 21:34:21*
%MOMM*%
%LPD*%
G01*
G04 APERTURE LIST*
G04 #@! TA.AperFunction,ComponentPad*
%ADD10C,1.600000*%
G04 #@! TD*
G04 #@! TA.AperFunction,ComponentPad*
%ADD11C,1.800000*%
G04 #@! TD*
G04 #@! TA.AperFunction,ComponentPad*
%ADD12C,1.440000*%
G04 #@! TD*
G04 #@! TA.AperFunction,ComponentPad*
%ADD13O,1.700000X1.700000*%
G04 #@! TD*
G04 #@! TA.AperFunction,ComponentPad*
%ADD14R,1.700000X1.700000*%
G04 #@! TD*
G04 #@! TA.AperFunction,ViaPad*
%ADD15C,0.600000*%
G04 #@! TD*
G04 #@! TA.AperFunction,Conductor*
%ADD16C,0.500000*%
G04 #@! TD*
G04 #@! TA.AperFunction,Conductor*
%ADD17C,0.300000*%
G04 #@! TD*
G04 APERTURE END LIST*
D10*
G04 #@! TO.P,C5,2*
G04 #@! TO.N,/RV_2*
X138900000Y-87400000D03*
G04 #@! TO.P,C5,1*
G04 #@! TO.N,Net-(C5-Pad1)*
X143900000Y-87400000D03*
G04 #@! TD*
D11*
G04 #@! TO.P,RV3,3*
G04 #@! TO.N,/RV_2*
X139000000Y-92750000D03*
G04 #@! TO.P,RV3,2*
X139000000Y-96500000D03*
G04 #@! TO.P,RV3,1*
G04 #@! TO.N,/RV_1*
X139000000Y-100250000D03*
G04 #@! TO.P,RV3,6*
G04 #@! TO.N,/RV_6*
X144000000Y-92750000D03*
G04 #@! TO.P,RV3,5*
G04 #@! TO.N,/RV_5*
X144000000Y-96500000D03*
G04 #@! TO.P,RV3,4*
G04 #@! TO.N,/RV_2*
X144000000Y-100250000D03*
G04 #@! TD*
D12*
G04 #@! TO.P,RV1,3*
G04 #@! TO.N,Net-(C3-Pad1)*
X156500000Y-93100000D03*
G04 #@! TO.P,RV1,2*
G04 #@! TO.N,Net-(Q1-Pad2)*
X159040000Y-93100000D03*
G04 #@! TO.P,RV1,1*
X161580000Y-93100000D03*
G04 #@! TD*
D13*
G04 #@! TO.P,J1,2*
G04 #@! TO.N,/IN*
X160560000Y-105800000D03*
D14*
G04 #@! TO.P,J1,1*
G04 #@! TO.N,Earth*
X163100000Y-105800000D03*
G04 #@! TD*
D13*
G04 #@! TO.P,J2,4*
G04 #@! TO.N,/RV_5*
X163120000Y-87100000D03*
G04 #@! TO.P,J2,3*
G04 #@! TO.N,VCC*
X160580000Y-87100000D03*
G04 #@! TO.P,J2,2*
G04 #@! TO.N,/Vref*
X158040000Y-87100000D03*
D14*
G04 #@! TO.P,J2,1*
G04 #@! TO.N,Earth*
X155500000Y-87100000D03*
G04 #@! TD*
D10*
G04 #@! TO.P,C6,1*
G04 #@! TO.N,Net-(C5-Pad1)*
X143700000Y-105600000D03*
G04 #@! TO.P,C6,2*
G04 #@! TO.N,/RV_1*
X138700000Y-105600000D03*
G04 #@! TD*
D15*
G04 #@! TO.N,Earth*
X150400000Y-104600000D03*
X147000000Y-98600000D03*
X147000000Y-90700000D03*
G04 #@! TO.N,Net-(Q1-Pad2)*
X147000000Y-95700000D03*
G04 #@! TD*
D16*
G04 #@! TO.N,Net-(C5-Pad1)*
X143100001Y-88199999D02*
X143900000Y-87400000D01*
X141600000Y-89700000D02*
X143100001Y-88199999D01*
X141600000Y-103500000D02*
X141600000Y-89700000D01*
X143700000Y-105600000D02*
X141600000Y-103500000D01*
G04 #@! TO.N,Net-(Q1-Pad2)*
X159040000Y-93100000D02*
X156440000Y-95700000D01*
X156440000Y-95700000D02*
X147000000Y-95700000D01*
G04 #@! TO.N,/RV_5*
X144000000Y-96500000D02*
X144100000Y-96500000D01*
X144899999Y-95600001D02*
X145158001Y-95600001D01*
X144000000Y-96500000D02*
X144899999Y-95600001D01*
X159620000Y-90600000D02*
X162270001Y-87949999D01*
X150158002Y-90600000D02*
X159620000Y-90600000D01*
X162270001Y-87949999D02*
X163120000Y-87100000D01*
X145158001Y-95600001D02*
X150158002Y-90600000D01*
G04 #@! TD*
D17*
G04 #@! TO.N,Earth*
G36*
X164475000Y-107475000D02*
X137525000Y-107475000D01*
X137525000Y-106029706D01*
X137640301Y-106308068D01*
X137991932Y-106659699D01*
X138451360Y-106850000D01*
X138948640Y-106850000D01*
X139408068Y-106659699D01*
X139759699Y-106308068D01*
X139950000Y-105848640D01*
X139950000Y-105351360D01*
X139759699Y-104891932D01*
X139408068Y-104540301D01*
X138948640Y-104350000D01*
X138451360Y-104350000D01*
X137991932Y-104540301D01*
X137640301Y-104891932D01*
X137525000Y-105170294D01*
X137525000Y-99981468D01*
X137650000Y-99981468D01*
X137650000Y-100518532D01*
X137855525Y-101014714D01*
X138235286Y-101394475D01*
X138731468Y-101600000D01*
X139268532Y-101600000D01*
X139764714Y-101394475D01*
X140144475Y-101014714D01*
X140350000Y-100518532D01*
X140350000Y-99981468D01*
X140144475Y-99485286D01*
X139764714Y-99105525D01*
X139268532Y-98900000D01*
X138731468Y-98900000D01*
X138235286Y-99105525D01*
X137855525Y-99485286D01*
X137650000Y-99981468D01*
X137525000Y-99981468D01*
X137525000Y-96231468D01*
X137650000Y-96231468D01*
X137650000Y-96768532D01*
X137855525Y-97264714D01*
X138235286Y-97644475D01*
X138731468Y-97850000D01*
X139268532Y-97850000D01*
X139764714Y-97644475D01*
X140144475Y-97264714D01*
X140350000Y-96768532D01*
X140350000Y-96231468D01*
X140144475Y-95735286D01*
X139764714Y-95355525D01*
X139268532Y-95150000D01*
X138731468Y-95150000D01*
X138235286Y-95355525D01*
X137855525Y-95735286D01*
X137650000Y-96231468D01*
X137525000Y-96231468D01*
X137525000Y-92481468D01*
X137650000Y-92481468D01*
X137650000Y-93018532D01*
X137855525Y-93514714D01*
X138235286Y-93894475D01*
X138731468Y-94100000D01*
X139268532Y-94100000D01*
X139764714Y-93894475D01*
X140144475Y-93514714D01*
X140350000Y-93018532D01*
X140350000Y-92481468D01*
X140144475Y-91985286D01*
X139764714Y-91605525D01*
X139268532Y-91400000D01*
X138731468Y-91400000D01*
X138235286Y-91605525D01*
X137855525Y-91985286D01*
X137650000Y-92481468D01*
X137525000Y-92481468D01*
X137525000Y-89700000D01*
X140886288Y-89700000D01*
X140900001Y-89768940D01*
X140900000Y-103431065D01*
X140886288Y-103500000D01*
X140900000Y-103568935D01*
X140900000Y-103568939D01*
X140940615Y-103773125D01*
X141095329Y-104004670D01*
X141153774Y-104043722D01*
X142453342Y-105343291D01*
X142450000Y-105351360D01*
X142450000Y-105848640D01*
X142640301Y-106308068D01*
X142991932Y-106659699D01*
X143451360Y-106850000D01*
X143948640Y-106850000D01*
X144408068Y-106659699D01*
X144759699Y-106308068D01*
X144950000Y-105848640D01*
X144950000Y-105800000D01*
X159234532Y-105800000D01*
X159335427Y-106307235D01*
X159622753Y-106737247D01*
X160052765Y-107024573D01*
X160431963Y-107100000D01*
X160688037Y-107100000D01*
X161067235Y-107024573D01*
X161497247Y-106737247D01*
X161784573Y-106307235D01*
X161800000Y-106229678D01*
X161800000Y-106739511D01*
X161868509Y-106904905D01*
X161995096Y-107031492D01*
X162160490Y-107100000D01*
X162837500Y-107100000D01*
X162950000Y-106987500D01*
X162950000Y-105950000D01*
X163250000Y-105950000D01*
X163250000Y-106987500D01*
X163362500Y-107100000D01*
X164039510Y-107100000D01*
X164204904Y-107031492D01*
X164331491Y-106904905D01*
X164400000Y-106739511D01*
X164400000Y-106062500D01*
X164287500Y-105950000D01*
X163250000Y-105950000D01*
X162950000Y-105950000D01*
X162930000Y-105950000D01*
X162930000Y-105650000D01*
X162950000Y-105650000D01*
X162950000Y-104612500D01*
X163250000Y-104612500D01*
X163250000Y-105650000D01*
X164287500Y-105650000D01*
X164400000Y-105537500D01*
X164400000Y-104860489D01*
X164331491Y-104695095D01*
X164204904Y-104568508D01*
X164039510Y-104500000D01*
X163362500Y-104500000D01*
X163250000Y-104612500D01*
X162950000Y-104612500D01*
X162837500Y-104500000D01*
X162160490Y-104500000D01*
X161995096Y-104568508D01*
X161868509Y-104695095D01*
X161800000Y-104860489D01*
X161800000Y-105370322D01*
X161784573Y-105292765D01*
X161497247Y-104862753D01*
X161067235Y-104575427D01*
X160688037Y-104500000D01*
X160431963Y-104500000D01*
X160052765Y-104575427D01*
X159622753Y-104862753D01*
X159335427Y-105292765D01*
X159234532Y-105800000D01*
X144950000Y-105800000D01*
X144950000Y-105351360D01*
X144759699Y-104891932D01*
X144408068Y-104540301D01*
X143948640Y-104350000D01*
X143451360Y-104350000D01*
X143443291Y-104353342D01*
X142300000Y-103210052D01*
X142300000Y-99981468D01*
X142650000Y-99981468D01*
X142650000Y-100518532D01*
X142855525Y-101014714D01*
X143235286Y-101394475D01*
X143731468Y-101600000D01*
X144268532Y-101600000D01*
X144764714Y-101394475D01*
X145144475Y-101014714D01*
X145350000Y-100518532D01*
X145350000Y-99981468D01*
X145144475Y-99485286D01*
X144764714Y-99105525D01*
X144268532Y-98900000D01*
X143731468Y-98900000D01*
X143235286Y-99105525D01*
X142855525Y-99485286D01*
X142650000Y-99981468D01*
X142300000Y-99981468D01*
X142300000Y-96231468D01*
X142650000Y-96231468D01*
X142650000Y-96768532D01*
X142855525Y-97264714D01*
X143235286Y-97644475D01*
X143731468Y-97850000D01*
X144268532Y-97850000D01*
X144764714Y-97644475D01*
X145144475Y-97264714D01*
X145350000Y-96768532D01*
X145350000Y-96275523D01*
X145431127Y-96259386D01*
X145662672Y-96104672D01*
X145701726Y-96046225D01*
X146287382Y-95460568D01*
X146250000Y-95550816D01*
X146250000Y-95849184D01*
X146364181Y-96124841D01*
X146575159Y-96335819D01*
X146850816Y-96450000D01*
X147149184Y-96450000D01*
X147269895Y-96400000D01*
X156371065Y-96400000D01*
X156440000Y-96413712D01*
X156508935Y-96400000D01*
X156508940Y-96400000D01*
X156713126Y-96359385D01*
X156944671Y-96204671D01*
X156983724Y-96146224D01*
X158859949Y-94270000D01*
X159272728Y-94270000D01*
X159702752Y-94091878D01*
X160031878Y-93762752D01*
X160210000Y-93332728D01*
X160210000Y-92867272D01*
X160410000Y-92867272D01*
X160410000Y-93332728D01*
X160588122Y-93762752D01*
X160917248Y-94091878D01*
X161347272Y-94270000D01*
X161812728Y-94270000D01*
X162242752Y-94091878D01*
X162571878Y-93762752D01*
X162750000Y-93332728D01*
X162750000Y-92867272D01*
X162571878Y-92437248D01*
X162242752Y-92108122D01*
X161812728Y-91930000D01*
X161347272Y-91930000D01*
X160917248Y-92108122D01*
X160588122Y-92437248D01*
X160410000Y-92867272D01*
X160210000Y-92867272D01*
X160031878Y-92437248D01*
X159702752Y-92108122D01*
X159272728Y-91930000D01*
X158807272Y-91930000D01*
X158377248Y-92108122D01*
X158048122Y-92437248D01*
X157870000Y-92867272D01*
X157870000Y-93280051D01*
X157565826Y-93584225D01*
X157670000Y-93332728D01*
X157670000Y-92867272D01*
X157491878Y-92437248D01*
X157162752Y-92108122D01*
X156732728Y-91930000D01*
X156267272Y-91930000D01*
X155837248Y-92108122D01*
X155508122Y-92437248D01*
X155330000Y-92867272D01*
X155330000Y-93332728D01*
X155508122Y-93762752D01*
X155837248Y-94091878D01*
X156267272Y-94270000D01*
X156732728Y-94270000D01*
X156984225Y-94165826D01*
X156150052Y-95000000D01*
X147269895Y-95000000D01*
X147149184Y-94950000D01*
X146850816Y-94950000D01*
X146760568Y-94987382D01*
X150447951Y-91300000D01*
X159551065Y-91300000D01*
X159620000Y-91313712D01*
X159688935Y-91300000D01*
X159688940Y-91300000D01*
X159893126Y-91259385D01*
X160124671Y-91104671D01*
X160163724Y-91046224D01*
X162813723Y-88396227D01*
X162813727Y-88396221D01*
X162840146Y-88369802D01*
X162991963Y-88400000D01*
X163248037Y-88400000D01*
X163627235Y-88324573D01*
X164057247Y-88037247D01*
X164344573Y-87607235D01*
X164445468Y-87100000D01*
X164344573Y-86592765D01*
X164057247Y-86162753D01*
X163627235Y-85875427D01*
X163248037Y-85800000D01*
X162991963Y-85800000D01*
X162612765Y-85875427D01*
X162182753Y-86162753D01*
X161895427Y-86592765D01*
X161850000Y-86821143D01*
X161804573Y-86592765D01*
X161517247Y-86162753D01*
X161087235Y-85875427D01*
X160708037Y-85800000D01*
X160451963Y-85800000D01*
X160072765Y-85875427D01*
X159642753Y-86162753D01*
X159355427Y-86592765D01*
X159310000Y-86821143D01*
X159264573Y-86592765D01*
X158977247Y-86162753D01*
X158547235Y-85875427D01*
X158168037Y-85800000D01*
X157911963Y-85800000D01*
X157532765Y-85875427D01*
X157102753Y-86162753D01*
X156815427Y-86592765D01*
X156800000Y-86670322D01*
X156800000Y-86160489D01*
X156731491Y-85995095D01*
X156604904Y-85868508D01*
X156439510Y-85800000D01*
X155762500Y-85800000D01*
X155650000Y-85912500D01*
X155650000Y-86950000D01*
X155670000Y-86950000D01*
X155670000Y-87250000D01*
X155650000Y-87250000D01*
X155650000Y-88287500D01*
X155762500Y-88400000D01*
X156439510Y-88400000D01*
X156604904Y-88331492D01*
X156731491Y-88204905D01*
X156800000Y-88039511D01*
X156800000Y-87529678D01*
X156815427Y-87607235D01*
X157102753Y-88037247D01*
X157532765Y-88324573D01*
X157911963Y-88400000D01*
X158168037Y-88400000D01*
X158547235Y-88324573D01*
X158977247Y-88037247D01*
X159264573Y-87607235D01*
X159310000Y-87378857D01*
X159355427Y-87607235D01*
X159642753Y-88037247D01*
X160072765Y-88324573D01*
X160451963Y-88400000D01*
X160708037Y-88400000D01*
X160860347Y-88369704D01*
X159330052Y-89900000D01*
X150226936Y-89900000D01*
X150158001Y-89886288D01*
X150089066Y-89900000D01*
X150089062Y-89900000D01*
X149884876Y-89940615D01*
X149653331Y-90095329D01*
X149614279Y-90153774D01*
X144877237Y-94890817D01*
X144831064Y-94900001D01*
X144831059Y-94900001D01*
X144626873Y-94940616D01*
X144395328Y-95095330D01*
X144356276Y-95153775D01*
X144333246Y-95176805D01*
X144268532Y-95150000D01*
X143731468Y-95150000D01*
X143235286Y-95355525D01*
X142855525Y-95735286D01*
X142650000Y-96231468D01*
X142300000Y-96231468D01*
X142300000Y-92481468D01*
X142650000Y-92481468D01*
X142650000Y-93018532D01*
X142855525Y-93514714D01*
X143235286Y-93894475D01*
X143731468Y-94100000D01*
X144268532Y-94100000D01*
X144764714Y-93894475D01*
X145144475Y-93514714D01*
X145350000Y-93018532D01*
X145350000Y-92481468D01*
X145144475Y-91985286D01*
X144764714Y-91605525D01*
X144268532Y-91400000D01*
X143731468Y-91400000D01*
X143235286Y-91605525D01*
X142855525Y-91985286D01*
X142650000Y-92481468D01*
X142300000Y-92481468D01*
X142300000Y-89989948D01*
X143643291Y-88646658D01*
X143651360Y-88650000D01*
X144148640Y-88650000D01*
X144608068Y-88459699D01*
X144959699Y-88108068D01*
X145150000Y-87648640D01*
X145150000Y-87362500D01*
X154200000Y-87362500D01*
X154200000Y-88039511D01*
X154268509Y-88204905D01*
X154395096Y-88331492D01*
X154560490Y-88400000D01*
X155237500Y-88400000D01*
X155350000Y-88287500D01*
X155350000Y-87250000D01*
X154312500Y-87250000D01*
X154200000Y-87362500D01*
X145150000Y-87362500D01*
X145150000Y-87151360D01*
X144959699Y-86691932D01*
X144608068Y-86340301D01*
X144173963Y-86160489D01*
X154200000Y-86160489D01*
X154200000Y-86837500D01*
X154312500Y-86950000D01*
X155350000Y-86950000D01*
X155350000Y-85912500D01*
X155237500Y-85800000D01*
X154560490Y-85800000D01*
X154395096Y-85868508D01*
X154268509Y-85995095D01*
X154200000Y-86160489D01*
X144173963Y-86160489D01*
X144148640Y-86150000D01*
X143651360Y-86150000D01*
X143191932Y-86340301D01*
X142840301Y-86691932D01*
X142650000Y-87151360D01*
X142650000Y-87648640D01*
X142653342Y-87656709D01*
X141153774Y-89156278D01*
X141095330Y-89195329D01*
X141056278Y-89253774D01*
X140940616Y-89426874D01*
X140886288Y-89700000D01*
X137525000Y-89700000D01*
X137525000Y-87151360D01*
X137650000Y-87151360D01*
X137650000Y-87648640D01*
X137840301Y-88108068D01*
X138191932Y-88459699D01*
X138651360Y-88650000D01*
X139148640Y-88650000D01*
X139608068Y-88459699D01*
X139959699Y-88108068D01*
X140150000Y-87648640D01*
X140150000Y-87151360D01*
X139959699Y-86691932D01*
X139608068Y-86340301D01*
X139148640Y-86150000D01*
X138651360Y-86150000D01*
X138191932Y-86340301D01*
X137840301Y-86691932D01*
X137650000Y-87151360D01*
X137525000Y-87151360D01*
X137525000Y-85525000D01*
X164475001Y-85525000D01*
X164475000Y-107475000D01*
X164475000Y-107475000D01*
G37*
X164475000Y-107475000D02*
X137525000Y-107475000D01*
X137525000Y-106029706D01*
X137640301Y-106308068D01*
X137991932Y-106659699D01*
X138451360Y-106850000D01*
X138948640Y-106850000D01*
X139408068Y-106659699D01*
X139759699Y-106308068D01*
X139950000Y-105848640D01*
X139950000Y-105351360D01*
X139759699Y-104891932D01*
X139408068Y-104540301D01*
X138948640Y-104350000D01*
X138451360Y-104350000D01*
X137991932Y-104540301D01*
X137640301Y-104891932D01*
X137525000Y-105170294D01*
X137525000Y-99981468D01*
X137650000Y-99981468D01*
X137650000Y-100518532D01*
X137855525Y-101014714D01*
X138235286Y-101394475D01*
X138731468Y-101600000D01*
X139268532Y-101600000D01*
X139764714Y-101394475D01*
X140144475Y-101014714D01*
X140350000Y-100518532D01*
X140350000Y-99981468D01*
X140144475Y-99485286D01*
X139764714Y-99105525D01*
X139268532Y-98900000D01*
X138731468Y-98900000D01*
X138235286Y-99105525D01*
X137855525Y-99485286D01*
X137650000Y-99981468D01*
X137525000Y-99981468D01*
X137525000Y-96231468D01*
X137650000Y-96231468D01*
X137650000Y-96768532D01*
X137855525Y-97264714D01*
X138235286Y-97644475D01*
X138731468Y-97850000D01*
X139268532Y-97850000D01*
X139764714Y-97644475D01*
X140144475Y-97264714D01*
X140350000Y-96768532D01*
X140350000Y-96231468D01*
X140144475Y-95735286D01*
X139764714Y-95355525D01*
X139268532Y-95150000D01*
X138731468Y-95150000D01*
X138235286Y-95355525D01*
X137855525Y-95735286D01*
X137650000Y-96231468D01*
X137525000Y-96231468D01*
X137525000Y-92481468D01*
X137650000Y-92481468D01*
X137650000Y-93018532D01*
X137855525Y-93514714D01*
X138235286Y-93894475D01*
X138731468Y-94100000D01*
X139268532Y-94100000D01*
X139764714Y-93894475D01*
X140144475Y-93514714D01*
X140350000Y-93018532D01*
X140350000Y-92481468D01*
X140144475Y-91985286D01*
X139764714Y-91605525D01*
X139268532Y-91400000D01*
X138731468Y-91400000D01*
X138235286Y-91605525D01*
X137855525Y-91985286D01*
X137650000Y-92481468D01*
X137525000Y-92481468D01*
X137525000Y-89700000D01*
X140886288Y-89700000D01*
X140900001Y-89768940D01*
X140900000Y-103431065D01*
X140886288Y-103500000D01*
X140900000Y-103568935D01*
X140900000Y-103568939D01*
X140940615Y-103773125D01*
X141095329Y-104004670D01*
X141153774Y-104043722D01*
X142453342Y-105343291D01*
X142450000Y-105351360D01*
X142450000Y-105848640D01*
X142640301Y-106308068D01*
X142991932Y-106659699D01*
X143451360Y-106850000D01*
X143948640Y-106850000D01*
X144408068Y-106659699D01*
X144759699Y-106308068D01*
X144950000Y-105848640D01*
X144950000Y-105800000D01*
X159234532Y-105800000D01*
X159335427Y-106307235D01*
X159622753Y-106737247D01*
X160052765Y-107024573D01*
X160431963Y-107100000D01*
X160688037Y-107100000D01*
X161067235Y-107024573D01*
X161497247Y-106737247D01*
X161784573Y-106307235D01*
X161800000Y-106229678D01*
X161800000Y-106739511D01*
X161868509Y-106904905D01*
X161995096Y-107031492D01*
X162160490Y-107100000D01*
X162837500Y-107100000D01*
X162950000Y-106987500D01*
X162950000Y-105950000D01*
X163250000Y-105950000D01*
X163250000Y-106987500D01*
X163362500Y-107100000D01*
X164039510Y-107100000D01*
X164204904Y-107031492D01*
X164331491Y-106904905D01*
X164400000Y-106739511D01*
X164400000Y-106062500D01*
X164287500Y-105950000D01*
X163250000Y-105950000D01*
X162950000Y-105950000D01*
X162930000Y-105950000D01*
X162930000Y-105650000D01*
X162950000Y-105650000D01*
X162950000Y-104612500D01*
X163250000Y-104612500D01*
X163250000Y-105650000D01*
X164287500Y-105650000D01*
X164400000Y-105537500D01*
X164400000Y-104860489D01*
X164331491Y-104695095D01*
X164204904Y-104568508D01*
X164039510Y-104500000D01*
X163362500Y-104500000D01*
X163250000Y-104612500D01*
X162950000Y-104612500D01*
X162837500Y-104500000D01*
X162160490Y-104500000D01*
X161995096Y-104568508D01*
X161868509Y-104695095D01*
X161800000Y-104860489D01*
X161800000Y-105370322D01*
X161784573Y-105292765D01*
X161497247Y-104862753D01*
X161067235Y-104575427D01*
X160688037Y-104500000D01*
X160431963Y-104500000D01*
X160052765Y-104575427D01*
X159622753Y-104862753D01*
X159335427Y-105292765D01*
X159234532Y-105800000D01*
X144950000Y-105800000D01*
X144950000Y-105351360D01*
X144759699Y-104891932D01*
X144408068Y-104540301D01*
X143948640Y-104350000D01*
X143451360Y-104350000D01*
X143443291Y-104353342D01*
X142300000Y-103210052D01*
X142300000Y-99981468D01*
X142650000Y-99981468D01*
X142650000Y-100518532D01*
X142855525Y-101014714D01*
X143235286Y-101394475D01*
X143731468Y-101600000D01*
X144268532Y-101600000D01*
X144764714Y-101394475D01*
X145144475Y-101014714D01*
X145350000Y-100518532D01*
X145350000Y-99981468D01*
X145144475Y-99485286D01*
X144764714Y-99105525D01*
X144268532Y-98900000D01*
X143731468Y-98900000D01*
X143235286Y-99105525D01*
X142855525Y-99485286D01*
X142650000Y-99981468D01*
X142300000Y-99981468D01*
X142300000Y-96231468D01*
X142650000Y-96231468D01*
X142650000Y-96768532D01*
X142855525Y-97264714D01*
X143235286Y-97644475D01*
X143731468Y-97850000D01*
X144268532Y-97850000D01*
X144764714Y-97644475D01*
X145144475Y-97264714D01*
X145350000Y-96768532D01*
X145350000Y-96275523D01*
X145431127Y-96259386D01*
X145662672Y-96104672D01*
X145701726Y-96046225D01*
X146287382Y-95460568D01*
X146250000Y-95550816D01*
X146250000Y-95849184D01*
X146364181Y-96124841D01*
X146575159Y-96335819D01*
X146850816Y-96450000D01*
X147149184Y-96450000D01*
X147269895Y-96400000D01*
X156371065Y-96400000D01*
X156440000Y-96413712D01*
X156508935Y-96400000D01*
X156508940Y-96400000D01*
X156713126Y-96359385D01*
X156944671Y-96204671D01*
X156983724Y-96146224D01*
X158859949Y-94270000D01*
X159272728Y-94270000D01*
X159702752Y-94091878D01*
X160031878Y-93762752D01*
X160210000Y-93332728D01*
X160210000Y-92867272D01*
X160410000Y-92867272D01*
X160410000Y-93332728D01*
X160588122Y-93762752D01*
X160917248Y-94091878D01*
X161347272Y-94270000D01*
X161812728Y-94270000D01*
X162242752Y-94091878D01*
X162571878Y-93762752D01*
X162750000Y-93332728D01*
X162750000Y-92867272D01*
X162571878Y-92437248D01*
X162242752Y-92108122D01*
X161812728Y-91930000D01*
X161347272Y-91930000D01*
X160917248Y-92108122D01*
X160588122Y-92437248D01*
X160410000Y-92867272D01*
X160210000Y-92867272D01*
X160031878Y-92437248D01*
X159702752Y-92108122D01*
X159272728Y-91930000D01*
X158807272Y-91930000D01*
X158377248Y-92108122D01*
X158048122Y-92437248D01*
X157870000Y-92867272D01*
X157870000Y-93280051D01*
X157565826Y-93584225D01*
X157670000Y-93332728D01*
X157670000Y-92867272D01*
X157491878Y-92437248D01*
X157162752Y-92108122D01*
X156732728Y-91930000D01*
X156267272Y-91930000D01*
X155837248Y-92108122D01*
X155508122Y-92437248D01*
X155330000Y-92867272D01*
X155330000Y-93332728D01*
X155508122Y-93762752D01*
X155837248Y-94091878D01*
X156267272Y-94270000D01*
X156732728Y-94270000D01*
X156984225Y-94165826D01*
X156150052Y-95000000D01*
X147269895Y-95000000D01*
X147149184Y-94950000D01*
X146850816Y-94950000D01*
X146760568Y-94987382D01*
X150447951Y-91300000D01*
X159551065Y-91300000D01*
X159620000Y-91313712D01*
X159688935Y-91300000D01*
X159688940Y-91300000D01*
X159893126Y-91259385D01*
X160124671Y-91104671D01*
X160163724Y-91046224D01*
X162813723Y-88396227D01*
X162813727Y-88396221D01*
X162840146Y-88369802D01*
X162991963Y-88400000D01*
X163248037Y-88400000D01*
X163627235Y-88324573D01*
X164057247Y-88037247D01*
X164344573Y-87607235D01*
X164445468Y-87100000D01*
X164344573Y-86592765D01*
X164057247Y-86162753D01*
X163627235Y-85875427D01*
X163248037Y-85800000D01*
X162991963Y-85800000D01*
X162612765Y-85875427D01*
X162182753Y-86162753D01*
X161895427Y-86592765D01*
X161850000Y-86821143D01*
X161804573Y-86592765D01*
X161517247Y-86162753D01*
X161087235Y-85875427D01*
X160708037Y-85800000D01*
X160451963Y-85800000D01*
X160072765Y-85875427D01*
X159642753Y-86162753D01*
X159355427Y-86592765D01*
X159310000Y-86821143D01*
X159264573Y-86592765D01*
X158977247Y-86162753D01*
X158547235Y-85875427D01*
X158168037Y-85800000D01*
X157911963Y-85800000D01*
X157532765Y-85875427D01*
X157102753Y-86162753D01*
X156815427Y-86592765D01*
X156800000Y-86670322D01*
X156800000Y-86160489D01*
X156731491Y-85995095D01*
X156604904Y-85868508D01*
X156439510Y-85800000D01*
X155762500Y-85800000D01*
X155650000Y-85912500D01*
X155650000Y-86950000D01*
X155670000Y-86950000D01*
X155670000Y-87250000D01*
X155650000Y-87250000D01*
X155650000Y-88287500D01*
X155762500Y-88400000D01*
X156439510Y-88400000D01*
X156604904Y-88331492D01*
X156731491Y-88204905D01*
X156800000Y-88039511D01*
X156800000Y-87529678D01*
X156815427Y-87607235D01*
X157102753Y-88037247D01*
X157532765Y-88324573D01*
X157911963Y-88400000D01*
X158168037Y-88400000D01*
X158547235Y-88324573D01*
X158977247Y-88037247D01*
X159264573Y-87607235D01*
X159310000Y-87378857D01*
X159355427Y-87607235D01*
X159642753Y-88037247D01*
X160072765Y-88324573D01*
X160451963Y-88400000D01*
X160708037Y-88400000D01*
X160860347Y-88369704D01*
X159330052Y-89900000D01*
X150226936Y-89900000D01*
X150158001Y-89886288D01*
X150089066Y-89900000D01*
X150089062Y-89900000D01*
X149884876Y-89940615D01*
X149653331Y-90095329D01*
X149614279Y-90153774D01*
X144877237Y-94890817D01*
X144831064Y-94900001D01*
X144831059Y-94900001D01*
X144626873Y-94940616D01*
X144395328Y-95095330D01*
X144356276Y-95153775D01*
X144333246Y-95176805D01*
X144268532Y-95150000D01*
X143731468Y-95150000D01*
X143235286Y-95355525D01*
X142855525Y-95735286D01*
X142650000Y-96231468D01*
X142300000Y-96231468D01*
X142300000Y-92481468D01*
X142650000Y-92481468D01*
X142650000Y-93018532D01*
X142855525Y-93514714D01*
X143235286Y-93894475D01*
X143731468Y-94100000D01*
X144268532Y-94100000D01*
X144764714Y-93894475D01*
X145144475Y-93514714D01*
X145350000Y-93018532D01*
X145350000Y-92481468D01*
X145144475Y-91985286D01*
X144764714Y-91605525D01*
X144268532Y-91400000D01*
X143731468Y-91400000D01*
X143235286Y-91605525D01*
X142855525Y-91985286D01*
X142650000Y-92481468D01*
X142300000Y-92481468D01*
X142300000Y-89989948D01*
X143643291Y-88646658D01*
X143651360Y-88650000D01*
X144148640Y-88650000D01*
X144608068Y-88459699D01*
X144959699Y-88108068D01*
X145150000Y-87648640D01*
X145150000Y-87362500D01*
X154200000Y-87362500D01*
X154200000Y-88039511D01*
X154268509Y-88204905D01*
X154395096Y-88331492D01*
X154560490Y-88400000D01*
X155237500Y-88400000D01*
X155350000Y-88287500D01*
X155350000Y-87250000D01*
X154312500Y-87250000D01*
X154200000Y-87362500D01*
X145150000Y-87362500D01*
X145150000Y-87151360D01*
X144959699Y-86691932D01*
X144608068Y-86340301D01*
X144173963Y-86160489D01*
X154200000Y-86160489D01*
X154200000Y-86837500D01*
X154312500Y-86950000D01*
X155350000Y-86950000D01*
X155350000Y-85912500D01*
X155237500Y-85800000D01*
X154560490Y-85800000D01*
X154395096Y-85868508D01*
X154268509Y-85995095D01*
X154200000Y-86160489D01*
X144173963Y-86160489D01*
X144148640Y-86150000D01*
X143651360Y-86150000D01*
X143191932Y-86340301D01*
X142840301Y-86691932D01*
X142650000Y-87151360D01*
X142650000Y-87648640D01*
X142653342Y-87656709D01*
X141153774Y-89156278D01*
X141095330Y-89195329D01*
X141056278Y-89253774D01*
X140940616Y-89426874D01*
X140886288Y-89700000D01*
X137525000Y-89700000D01*
X137525000Y-87151360D01*
X137650000Y-87151360D01*
X137650000Y-87648640D01*
X137840301Y-88108068D01*
X138191932Y-88459699D01*
X138651360Y-88650000D01*
X139148640Y-88650000D01*
X139608068Y-88459699D01*
X139959699Y-88108068D01*
X140150000Y-87648640D01*
X140150000Y-87151360D01*
X139959699Y-86691932D01*
X139608068Y-86340301D01*
X139148640Y-86150000D01*
X138651360Y-86150000D01*
X138191932Y-86340301D01*
X137840301Y-86691932D01*
X137650000Y-87151360D01*
X137525000Y-87151360D01*
X137525000Y-85525000D01*
X164475001Y-85525000D01*
X164475000Y-107475000D01*
G04 #@! TD*
M02*
