G04 #@! TF.FileFunction,Copper,L1,Top,Signal*
%FSLAX46Y46*%
G04 Gerber Fmt 4.6, Leading zero omitted, Abs format (unit mm)*
G04 Created by KiCad (PCBNEW 4.0.4-1.fc24-product) date Tue Aug 28 14:06:47 2018*
%MOMM*%
%LPD*%
G01*
G04 APERTURE LIST*
%ADD10C,0.100000*%
%ADD11R,1.200000X0.900000*%
%ADD12C,1.600000*%
%ADD13C,1.800000*%
%ADD14R,0.900000X1.200000*%
%ADD15C,1.440000*%
%ADD16R,0.750000X1.200000*%
%ADD17R,0.900000X0.800000*%
%ADD18R,1.501140X1.950720*%
%ADD19R,1.800860X1.549400*%
%ADD20O,1.700000X1.700000*%
%ADD21R,1.700000X1.700000*%
%ADD22C,0.600000*%
%ADD23C,0.300000*%
%ADD24C,0.500000*%
G04 APERTURE END LIST*
D10*
D11*
X149200000Y-104600000D03*
X147000000Y-104600000D03*
D12*
X138900000Y-87400000D03*
X143900000Y-87400000D03*
D13*
X139000000Y-92750000D03*
X139000000Y-96500000D03*
X139000000Y-100250000D03*
X144000000Y-92750000D03*
X144000000Y-96500000D03*
X144000000Y-100250000D03*
D14*
X147000000Y-94100000D03*
X147000000Y-91900000D03*
D15*
X156500000Y-93100000D03*
X159040000Y-93100000D03*
X161580000Y-93100000D03*
D14*
X147000000Y-99800000D03*
X147000000Y-102000000D03*
D16*
X156000000Y-101850000D03*
X156000000Y-99950000D03*
D17*
X158200000Y-100900000D03*
X160600000Y-99950000D03*
X160600000Y-101850000D03*
D14*
X153000000Y-102000000D03*
X153000000Y-99800000D03*
X163000000Y-102000000D03*
X163000000Y-99800000D03*
X153000000Y-91900000D03*
X153000000Y-94100000D03*
D11*
X155400000Y-89700000D03*
X153200000Y-89700000D03*
D18*
X150003920Y-93893402D03*
X150003920Y-91145122D03*
D19*
X150003920Y-102271302D03*
X150003920Y-99919262D03*
D20*
X160560000Y-105800000D03*
D21*
X163100000Y-105800000D03*
D20*
X163120000Y-87100000D03*
X160580000Y-87100000D03*
X158040000Y-87100000D03*
D21*
X155500000Y-87100000D03*
D12*
X143900000Y-105600000D03*
X138900000Y-105600000D03*
X151400000Y-86900000D03*
X146400000Y-86900000D03*
D22*
X150400000Y-104600000D03*
X147000000Y-98600000D03*
X147000000Y-90700000D03*
X148400000Y-95700000D03*
D23*
X150076020Y-99800000D02*
X150000000Y-99723980D01*
X153000000Y-99800000D02*
X150076020Y-99800000D01*
X158200000Y-100200000D02*
X157800000Y-99800000D01*
X156150000Y-99800000D02*
X156000000Y-99950000D01*
X157800000Y-99800000D02*
X156150000Y-99800000D01*
X158200000Y-100900000D02*
X158200000Y-100200000D01*
X155850000Y-99800000D02*
X156000000Y-99950000D01*
X153000000Y-99800000D02*
X155850000Y-99800000D01*
D24*
X149923980Y-102000000D02*
X150000000Y-102076020D01*
X147000000Y-102000000D02*
X149923980Y-102000000D01*
X159357919Y-105800000D02*
X160560000Y-105800000D01*
X153658348Y-105800000D02*
X159357919Y-105800000D01*
X150129650Y-102271302D02*
X153658348Y-105800000D01*
X150003920Y-102271302D02*
X150129650Y-102271302D01*
D23*
X149200000Y-104600000D02*
X150400000Y-104600000D01*
X147000000Y-99800000D02*
X147000000Y-98600000D01*
D24*
X147000000Y-91900000D02*
X147000000Y-90700000D01*
X149449042Y-91700000D02*
X150003920Y-91145122D01*
X147000000Y-91900000D02*
X147200000Y-91700000D01*
X147200000Y-91700000D02*
X149449042Y-91700000D01*
D23*
X156500000Y-93100000D02*
X156400000Y-93100000D01*
X156400000Y-93100000D02*
X156300000Y-93000000D01*
X156300000Y-93000000D02*
X151947892Y-93000000D01*
X151947892Y-93000000D02*
X151054490Y-93893402D01*
X151054490Y-93893402D02*
X150003920Y-93893402D01*
X155400000Y-89700000D02*
X155400000Y-89100000D01*
X155400000Y-89100000D02*
X154900000Y-88600000D01*
X154900000Y-88600000D02*
X152600000Y-88600000D01*
X152600000Y-88600000D02*
X151400000Y-87400000D01*
X155400000Y-89700000D02*
X155400000Y-90450000D01*
X153950000Y-91900000D02*
X153750000Y-91900000D01*
X155400000Y-90450000D02*
X153950000Y-91900000D01*
X153750000Y-91900000D02*
X153000000Y-91900000D01*
D24*
X153200000Y-89700000D02*
X153000000Y-89500000D01*
X153000000Y-89500000D02*
X146000000Y-89500000D01*
X146000000Y-89500000D02*
X143900000Y-87400000D01*
X163000000Y-98900000D02*
X163000000Y-99800000D01*
X160580000Y-87100000D02*
X163000000Y-89520000D01*
X163000000Y-89520000D02*
X163000000Y-98900000D01*
D23*
X153000000Y-94100000D02*
X153200000Y-94300000D01*
X162600000Y-102000000D02*
X163000000Y-102000000D01*
X162850000Y-101850000D02*
X163000000Y-102000000D01*
X160600000Y-101850000D02*
X162850000Y-101850000D01*
X154100000Y-94100000D02*
X153000000Y-94100000D01*
X159300000Y-99300000D02*
X154100000Y-94100000D01*
X159300000Y-101300000D02*
X159300000Y-99300000D01*
X160600000Y-101850000D02*
X159850000Y-101850000D01*
X159850000Y-101850000D02*
X159300000Y-101300000D01*
D24*
X148400000Y-95650000D02*
X148400000Y-95700000D01*
X147000000Y-94100000D02*
X147000000Y-94250000D01*
X147000000Y-94250000D02*
X148400000Y-95650000D01*
D23*
X160600000Y-99900000D02*
X160550000Y-99950000D01*
X160550000Y-99950000D02*
X160600000Y-99950000D01*
X159040000Y-93100000D02*
X161580000Y-93100000D01*
X161600000Y-93120000D02*
X161580000Y-93100000D01*
X161600000Y-98000000D02*
X161600000Y-93120000D01*
X160600000Y-99950000D02*
X160600000Y-99000000D01*
X160600000Y-99000000D02*
X161600000Y-98000000D01*
D24*
X139000000Y-96500000D02*
X142750000Y-100250000D01*
X142750000Y-100250000D02*
X144000000Y-100250000D01*
X139000000Y-92750000D02*
X139000000Y-94022792D01*
X139000000Y-94022792D02*
X139000000Y-96500000D01*
X139000000Y-87500000D02*
X138900000Y-87400000D01*
X139000000Y-92750000D02*
X139000000Y-87500000D01*
X138900000Y-105600000D02*
X139000000Y-105500000D01*
X139000000Y-105500000D02*
X139000000Y-103400000D01*
X146100000Y-104600000D02*
X147000000Y-104600000D01*
X144900000Y-103400000D02*
X146100000Y-104600000D01*
X139000000Y-103400000D02*
X144900000Y-103400000D01*
X139000000Y-100250000D02*
X139000000Y-103400000D01*
D23*
G36*
X164475000Y-107475000D02*
X137525000Y-107475000D01*
X137525000Y-100517353D01*
X137649766Y-100517353D01*
X137854858Y-101013715D01*
X138234288Y-101393807D01*
X138300000Y-101421093D01*
X138300000Y-104495413D01*
X138192857Y-104539684D01*
X137840919Y-104891007D01*
X137650217Y-105350269D01*
X137649783Y-105847550D01*
X137839684Y-106307143D01*
X138191007Y-106659081D01*
X138650269Y-106849783D01*
X139147550Y-106850217D01*
X139607143Y-106660316D01*
X139959081Y-106308993D01*
X140149783Y-105849731D01*
X140149784Y-105847550D01*
X142649783Y-105847550D01*
X142839684Y-106307143D01*
X143191007Y-106659081D01*
X143650269Y-106849783D01*
X144147550Y-106850217D01*
X144607143Y-106660316D01*
X144959081Y-106308993D01*
X145149783Y-105849731D01*
X145150217Y-105352450D01*
X144960316Y-104892857D01*
X144608993Y-104540919D01*
X144149731Y-104350217D01*
X143652450Y-104349783D01*
X143192857Y-104539684D01*
X142840919Y-104891007D01*
X142650217Y-105350269D01*
X142649783Y-105847550D01*
X140149784Y-105847550D01*
X140150217Y-105352450D01*
X139960316Y-104892857D01*
X139700000Y-104632085D01*
X139700000Y-104100000D01*
X144610050Y-104100000D01*
X145605025Y-105094975D01*
X145832122Y-105246716D01*
X146015282Y-105283149D01*
X146071117Y-105369919D01*
X146221495Y-105472668D01*
X146400000Y-105508816D01*
X147600000Y-105508816D01*
X147766760Y-105477438D01*
X147919919Y-105378883D01*
X148022668Y-105228505D01*
X148058816Y-105050000D01*
X148058816Y-104150000D01*
X148141184Y-104150000D01*
X148141184Y-105050000D01*
X148172562Y-105216760D01*
X148271117Y-105369919D01*
X148421495Y-105472668D01*
X148600000Y-105508816D01*
X149800000Y-105508816D01*
X149966760Y-105477438D01*
X150119919Y-105378883D01*
X150164147Y-105314153D01*
X150250161Y-105349869D01*
X150548530Y-105350130D01*
X150824286Y-105236189D01*
X151035448Y-105025395D01*
X151149869Y-104749839D01*
X151150130Y-104451470D01*
X151036189Y-104175714D01*
X150825395Y-103964552D01*
X150549839Y-103850131D01*
X150251470Y-103849870D01*
X150164690Y-103885727D01*
X150128883Y-103830081D01*
X149978505Y-103727332D01*
X149800000Y-103691184D01*
X148600000Y-103691184D01*
X148433240Y-103722562D01*
X148280081Y-103821117D01*
X148177332Y-103971495D01*
X148141184Y-104150000D01*
X148058816Y-104150000D01*
X148027438Y-103983240D01*
X147928883Y-103830081D01*
X147778505Y-103727332D01*
X147600000Y-103691184D01*
X146400000Y-103691184D01*
X146233240Y-103722562D01*
X146220628Y-103730678D01*
X145394975Y-102905025D01*
X145167879Y-102753284D01*
X144900000Y-102700000D01*
X139700000Y-102700000D01*
X139700000Y-101421468D01*
X139763715Y-101395142D01*
X140143807Y-101015712D01*
X140349765Y-100519710D01*
X140350234Y-99982647D01*
X140145142Y-99486285D01*
X139765712Y-99106193D01*
X139269710Y-98900235D01*
X138732647Y-98899766D01*
X138236285Y-99104858D01*
X137856193Y-99484288D01*
X137650235Y-99980290D01*
X137649766Y-100517353D01*
X137525000Y-100517353D01*
X137525000Y-93017353D01*
X137649766Y-93017353D01*
X137854858Y-93513715D01*
X138234288Y-93893807D01*
X138300000Y-93921093D01*
X138300000Y-95328532D01*
X138236285Y-95354858D01*
X137856193Y-95734288D01*
X137650235Y-96230290D01*
X137649766Y-96767353D01*
X137854858Y-97263715D01*
X138234288Y-97643807D01*
X138730290Y-97849765D01*
X139267353Y-97850234D01*
X139333113Y-97823063D01*
X142255025Y-100744975D01*
X142482121Y-100896716D01*
X142750000Y-100950000D01*
X142828532Y-100950000D01*
X142854858Y-101013715D01*
X143234288Y-101393807D01*
X143730290Y-101599765D01*
X144267353Y-101600234D01*
X144763715Y-101395142D01*
X145143807Y-101015712D01*
X145349765Y-100519710D01*
X145350234Y-99982647D01*
X145145142Y-99486285D01*
X144859356Y-99200000D01*
X146091184Y-99200000D01*
X146091184Y-100400000D01*
X146122562Y-100566760D01*
X146221117Y-100719919D01*
X146371495Y-100822668D01*
X146550000Y-100858816D01*
X147450000Y-100858816D01*
X147616760Y-100827438D01*
X147769919Y-100728883D01*
X147872668Y-100578505D01*
X147908816Y-100400000D01*
X147908816Y-99200000D01*
X147877438Y-99033240D01*
X147778883Y-98880081D01*
X147714153Y-98835853D01*
X147749869Y-98749839D01*
X147750130Y-98451470D01*
X147636189Y-98175714D01*
X147425395Y-97964552D01*
X147149839Y-97850131D01*
X146851470Y-97849870D01*
X146575714Y-97963811D01*
X146364552Y-98174605D01*
X146250131Y-98450161D01*
X146249870Y-98748530D01*
X146285727Y-98835310D01*
X146230081Y-98871117D01*
X146127332Y-99021495D01*
X146091184Y-99200000D01*
X144859356Y-99200000D01*
X144765712Y-99106193D01*
X144269710Y-98900235D01*
X143732647Y-98899766D01*
X143236285Y-99104858D01*
X142915267Y-99425317D01*
X140323328Y-96833378D01*
X140349765Y-96769710D01*
X140349767Y-96767353D01*
X142649766Y-96767353D01*
X142854858Y-97263715D01*
X143234288Y-97643807D01*
X143730290Y-97849765D01*
X144267353Y-97850234D01*
X144763715Y-97645142D01*
X145143807Y-97265712D01*
X145349765Y-96769710D01*
X145350234Y-96232647D01*
X145145142Y-95736285D01*
X144765712Y-95356193D01*
X144269710Y-95150235D01*
X143732647Y-95149766D01*
X143236285Y-95354858D01*
X142856193Y-95734288D01*
X142650235Y-96230290D01*
X142649766Y-96767353D01*
X140349767Y-96767353D01*
X140350234Y-96232647D01*
X140145142Y-95736285D01*
X139765712Y-95356193D01*
X139700000Y-95328907D01*
X139700000Y-93921468D01*
X139763715Y-93895142D01*
X140143807Y-93515712D01*
X140349765Y-93019710D01*
X140349767Y-93017353D01*
X142649766Y-93017353D01*
X142854858Y-93513715D01*
X143234288Y-93893807D01*
X143730290Y-94099765D01*
X144267353Y-94100234D01*
X144763715Y-93895142D01*
X145143807Y-93515712D01*
X145349765Y-93019710D01*
X145350234Y-92482647D01*
X145145142Y-91986285D01*
X144765712Y-91606193D01*
X144269710Y-91400235D01*
X143732647Y-91399766D01*
X143236285Y-91604858D01*
X142856193Y-91984288D01*
X142650235Y-92480290D01*
X142649766Y-93017353D01*
X140349767Y-93017353D01*
X140350234Y-92482647D01*
X140145142Y-91986285D01*
X139765712Y-91606193D01*
X139700000Y-91578907D01*
X139700000Y-88367621D01*
X139959081Y-88108993D01*
X140149783Y-87649731D01*
X140149784Y-87647550D01*
X142649783Y-87647550D01*
X142839684Y-88107143D01*
X143191007Y-88459081D01*
X143650269Y-88649783D01*
X144147550Y-88650217D01*
X144156549Y-88646499D01*
X145505023Y-89994972D01*
X145505025Y-89994975D01*
X145732122Y-90146716D01*
X146000000Y-90200000D01*
X146439287Y-90200000D01*
X146364552Y-90274605D01*
X146250131Y-90550161D01*
X146249870Y-90848530D01*
X146285727Y-90935310D01*
X146230081Y-90971117D01*
X146127332Y-91121495D01*
X146091184Y-91300000D01*
X146091184Y-92500000D01*
X146122562Y-92666760D01*
X146221117Y-92819919D01*
X146371495Y-92922668D01*
X146550000Y-92958816D01*
X147450000Y-92958816D01*
X147616760Y-92927438D01*
X147769919Y-92828883D01*
X147872668Y-92678505D01*
X147908816Y-92500000D01*
X147908816Y-92400000D01*
X148898470Y-92400000D01*
X148924467Y-92440401D01*
X149040936Y-92519981D01*
X148933431Y-92589159D01*
X148830682Y-92739537D01*
X148794534Y-92918042D01*
X148794534Y-94868762D01*
X148825912Y-95035522D01*
X148879412Y-95118663D01*
X148825395Y-95064552D01*
X148789666Y-95049716D01*
X147908816Y-94168866D01*
X147908816Y-93500000D01*
X147877438Y-93333240D01*
X147778883Y-93180081D01*
X147628505Y-93077332D01*
X147450000Y-93041184D01*
X146550000Y-93041184D01*
X146383240Y-93072562D01*
X146230081Y-93171117D01*
X146127332Y-93321495D01*
X146091184Y-93500000D01*
X146091184Y-94700000D01*
X146122562Y-94866760D01*
X146221117Y-95019919D01*
X146371495Y-95122668D01*
X146550000Y-95158816D01*
X146918866Y-95158816D01*
X147678944Y-95918894D01*
X147763811Y-96124286D01*
X147974605Y-96335448D01*
X148250161Y-96449869D01*
X148548530Y-96450130D01*
X148824286Y-96336189D01*
X149035448Y-96125395D01*
X149149869Y-95849839D01*
X149150130Y-95551470D01*
X149036189Y-95275714D01*
X149002602Y-95242069D01*
X149074845Y-95291430D01*
X149253350Y-95327578D01*
X150754490Y-95327578D01*
X150921250Y-95296200D01*
X151074409Y-95197645D01*
X151177158Y-95047267D01*
X151213306Y-94868762D01*
X151213306Y-94461812D01*
X151284100Y-94447730D01*
X151478754Y-94317666D01*
X152091184Y-93705236D01*
X152091184Y-94700000D01*
X152122562Y-94866760D01*
X152221117Y-95019919D01*
X152371495Y-95122668D01*
X152550000Y-95158816D01*
X153450000Y-95158816D01*
X153616760Y-95127438D01*
X153769919Y-95028883D01*
X153872668Y-94878505D01*
X153899159Y-94747687D01*
X158700000Y-99548528D01*
X158700000Y-99889082D01*
X158624264Y-99775736D01*
X158224264Y-99375736D01*
X158029610Y-99245672D01*
X157800000Y-99200000D01*
X156805592Y-99200000D01*
X156802438Y-99183240D01*
X156703883Y-99030081D01*
X156553505Y-98927332D01*
X156375000Y-98891184D01*
X155625000Y-98891184D01*
X155458240Y-98922562D01*
X155305081Y-99021117D01*
X155202332Y-99171495D01*
X155196560Y-99200000D01*
X153908816Y-99200000D01*
X153877438Y-99033240D01*
X153778883Y-98880081D01*
X153628505Y-98777332D01*
X153450000Y-98741184D01*
X152550000Y-98741184D01*
X152383240Y-98772562D01*
X152230081Y-98871117D01*
X152127332Y-99021495D01*
X152091184Y-99200000D01*
X151363166Y-99200000D01*
X151363166Y-99144562D01*
X151331788Y-98977802D01*
X151233233Y-98824643D01*
X151082855Y-98721894D01*
X150904350Y-98685746D01*
X149103490Y-98685746D01*
X148936730Y-98717124D01*
X148783571Y-98815679D01*
X148680822Y-98966057D01*
X148644674Y-99144562D01*
X148644674Y-100693962D01*
X148676052Y-100860722D01*
X148774607Y-101013881D01*
X148894905Y-101096077D01*
X148783571Y-101167719D01*
X148693187Y-101300000D01*
X147890000Y-101300000D01*
X147877438Y-101233240D01*
X147778883Y-101080081D01*
X147628505Y-100977332D01*
X147450000Y-100941184D01*
X146550000Y-100941184D01*
X146383240Y-100972562D01*
X146230081Y-101071117D01*
X146127332Y-101221495D01*
X146091184Y-101400000D01*
X146091184Y-102600000D01*
X146122562Y-102766760D01*
X146221117Y-102919919D01*
X146371495Y-103022668D01*
X146550000Y-103058816D01*
X147450000Y-103058816D01*
X147616760Y-103027438D01*
X147769919Y-102928883D01*
X147872668Y-102778505D01*
X147888566Y-102700000D01*
X148644674Y-102700000D01*
X148644674Y-103046002D01*
X148676052Y-103212762D01*
X148774607Y-103365921D01*
X148924985Y-103468670D01*
X149103490Y-103504818D01*
X150373216Y-103504818D01*
X153163371Y-106294972D01*
X153163373Y-106294975D01*
X153276922Y-106370846D01*
X153390469Y-106446716D01*
X153658348Y-106500001D01*
X153658353Y-106500000D01*
X159477253Y-106500000D01*
X159640761Y-106744708D01*
X160062512Y-107026512D01*
X160560000Y-107125469D01*
X161057488Y-107026512D01*
X161479239Y-106744708D01*
X161761043Y-106322957D01*
X161791184Y-106171429D01*
X161791184Y-106650000D01*
X161822562Y-106816760D01*
X161921117Y-106969919D01*
X162071495Y-107072668D01*
X162250000Y-107108816D01*
X163950000Y-107108816D01*
X164116760Y-107077438D01*
X164269919Y-106978883D01*
X164372668Y-106828505D01*
X164408816Y-106650000D01*
X164408816Y-104950000D01*
X164377438Y-104783240D01*
X164278883Y-104630081D01*
X164128505Y-104527332D01*
X163950000Y-104491184D01*
X162250000Y-104491184D01*
X162083240Y-104522562D01*
X161930081Y-104621117D01*
X161827332Y-104771495D01*
X161791184Y-104950000D01*
X161791184Y-105428571D01*
X161761043Y-105277043D01*
X161479239Y-104855292D01*
X161057488Y-104573488D01*
X160560000Y-104474531D01*
X160062512Y-104573488D01*
X159640761Y-104855292D01*
X159477253Y-105100000D01*
X153948297Y-105100000D01*
X151363166Y-102514868D01*
X151363166Y-102262500D01*
X152100000Y-102262500D01*
X152100000Y-102689511D01*
X152168509Y-102854905D01*
X152295096Y-102981492D01*
X152460490Y-103050000D01*
X152737500Y-103050000D01*
X152850000Y-102937500D01*
X152850000Y-102150000D01*
X153150000Y-102150000D01*
X153150000Y-102937500D01*
X153262500Y-103050000D01*
X153539510Y-103050000D01*
X153704904Y-102981492D01*
X153831491Y-102854905D01*
X153900000Y-102689511D01*
X153900000Y-102262500D01*
X153787500Y-102150000D01*
X153150000Y-102150000D01*
X152850000Y-102150000D01*
X152212500Y-102150000D01*
X152100000Y-102262500D01*
X151363166Y-102262500D01*
X151363166Y-102112500D01*
X155175000Y-102112500D01*
X155175000Y-102539511D01*
X155243509Y-102704905D01*
X155370096Y-102831492D01*
X155535490Y-102900000D01*
X155737500Y-102900000D01*
X155850000Y-102787500D01*
X155850000Y-102000000D01*
X156150000Y-102000000D01*
X156150000Y-102787500D01*
X156262500Y-102900000D01*
X156464510Y-102900000D01*
X156629904Y-102831492D01*
X156756491Y-102704905D01*
X156825000Y-102539511D01*
X156825000Y-102112500D01*
X156712500Y-102000000D01*
X156150000Y-102000000D01*
X155850000Y-102000000D01*
X155287500Y-102000000D01*
X155175000Y-102112500D01*
X151363166Y-102112500D01*
X151363166Y-101496602D01*
X151331788Y-101329842D01*
X151319335Y-101310489D01*
X152100000Y-101310489D01*
X152100000Y-101737500D01*
X152212500Y-101850000D01*
X152850000Y-101850000D01*
X152850000Y-101062500D01*
X153150000Y-101062500D01*
X153150000Y-101850000D01*
X153787500Y-101850000D01*
X153900000Y-101737500D01*
X153900000Y-101310489D01*
X153831491Y-101145095D01*
X153704904Y-101018508D01*
X153539510Y-100950000D01*
X153262500Y-100950000D01*
X153150000Y-101062500D01*
X152850000Y-101062500D01*
X152737500Y-100950000D01*
X152460490Y-100950000D01*
X152295096Y-101018508D01*
X152168509Y-101145095D01*
X152100000Y-101310489D01*
X151319335Y-101310489D01*
X151233233Y-101176683D01*
X151112935Y-101094487D01*
X151224269Y-101022845D01*
X151327018Y-100872467D01*
X151363166Y-100693962D01*
X151363166Y-100400000D01*
X152091184Y-100400000D01*
X152122562Y-100566760D01*
X152221117Y-100719919D01*
X152371495Y-100822668D01*
X152550000Y-100858816D01*
X153450000Y-100858816D01*
X153616760Y-100827438D01*
X153769919Y-100728883D01*
X153872668Y-100578505D01*
X153908816Y-100400000D01*
X155166184Y-100400000D01*
X155166184Y-100550000D01*
X155197562Y-100716760D01*
X155296117Y-100869919D01*
X155339228Y-100899376D01*
X155243509Y-100995095D01*
X155175000Y-101160489D01*
X155175000Y-101587500D01*
X155287500Y-101700000D01*
X155850000Y-101700000D01*
X155850000Y-101680000D01*
X156150000Y-101680000D01*
X156150000Y-101700000D01*
X156712500Y-101700000D01*
X156825000Y-101587500D01*
X156825000Y-101160489D01*
X156756491Y-100995095D01*
X156661673Y-100900277D01*
X156694919Y-100878883D01*
X156797668Y-100728505D01*
X156833816Y-100550000D01*
X156833816Y-100400000D01*
X157311434Y-100400000D01*
X157291184Y-100500000D01*
X157291184Y-101300000D01*
X157322562Y-101466760D01*
X157421117Y-101619919D01*
X157571495Y-101722668D01*
X157750000Y-101758816D01*
X158650000Y-101758816D01*
X158816760Y-101727438D01*
X158859486Y-101699944D01*
X158875736Y-101724264D01*
X159425736Y-102274264D01*
X159620389Y-102404328D01*
X159728385Y-102425810D01*
X159821117Y-102569919D01*
X159971495Y-102672668D01*
X160150000Y-102708816D01*
X161050000Y-102708816D01*
X161216760Y-102677438D01*
X161369919Y-102578883D01*
X161457981Y-102450000D01*
X162091184Y-102450000D01*
X162091184Y-102600000D01*
X162122562Y-102766760D01*
X162221117Y-102919919D01*
X162371495Y-103022668D01*
X162550000Y-103058816D01*
X163450000Y-103058816D01*
X163616760Y-103027438D01*
X163769919Y-102928883D01*
X163872668Y-102778505D01*
X163908816Y-102600000D01*
X163908816Y-101400000D01*
X163877438Y-101233240D01*
X163778883Y-101080081D01*
X163628505Y-100977332D01*
X163450000Y-100941184D01*
X162550000Y-100941184D01*
X162383240Y-100972562D01*
X162230081Y-101071117D01*
X162127332Y-101221495D01*
X162121560Y-101250000D01*
X161456049Y-101250000D01*
X161378883Y-101130081D01*
X161228505Y-101027332D01*
X161050000Y-100991184D01*
X160150000Y-100991184D01*
X159983240Y-101022562D01*
X159915001Y-101066473D01*
X159900000Y-101051472D01*
X159900000Y-100723818D01*
X159971495Y-100772668D01*
X160150000Y-100808816D01*
X161050000Y-100808816D01*
X161216760Y-100777438D01*
X161369919Y-100678883D01*
X161472668Y-100528505D01*
X161508816Y-100350000D01*
X161508816Y-99550000D01*
X161477438Y-99383240D01*
X161378883Y-99230081D01*
X161283571Y-99164957D01*
X162024264Y-98424264D01*
X162154328Y-98229610D01*
X162200000Y-98000000D01*
X162200000Y-94109763D01*
X162241886Y-94092456D01*
X162300000Y-94034443D01*
X162300000Y-98826125D01*
X162230081Y-98871117D01*
X162127332Y-99021495D01*
X162091184Y-99200000D01*
X162091184Y-100400000D01*
X162122562Y-100566760D01*
X162221117Y-100719919D01*
X162371495Y-100822668D01*
X162550000Y-100858816D01*
X163450000Y-100858816D01*
X163616760Y-100827438D01*
X163769919Y-100728883D01*
X163872668Y-100578505D01*
X163908816Y-100400000D01*
X163908816Y-99200000D01*
X163877438Y-99033240D01*
X163778883Y-98880081D01*
X163700000Y-98826182D01*
X163700000Y-89520000D01*
X163646716Y-89252122D01*
X163646716Y-89252121D01*
X163494975Y-89025025D01*
X162839655Y-88369705D01*
X163120000Y-88425469D01*
X163617488Y-88326512D01*
X164039239Y-88044708D01*
X164321043Y-87622957D01*
X164420000Y-87125469D01*
X164420000Y-87074531D01*
X164321043Y-86577043D01*
X164039239Y-86155292D01*
X163617488Y-85873488D01*
X163120000Y-85774531D01*
X162622512Y-85873488D01*
X162200761Y-86155292D01*
X161918957Y-86577043D01*
X161850000Y-86923712D01*
X161781043Y-86577043D01*
X161499239Y-86155292D01*
X161077488Y-85873488D01*
X160580000Y-85774531D01*
X160082512Y-85873488D01*
X159660761Y-86155292D01*
X159378957Y-86577043D01*
X159304771Y-86949998D01*
X159218831Y-86949998D01*
X159291966Y-86749838D01*
X159062665Y-86297386D01*
X158677672Y-85967124D01*
X158390160Y-85848046D01*
X158190000Y-85922012D01*
X158190000Y-86950000D01*
X158210000Y-86950000D01*
X158210000Y-87250000D01*
X158190000Y-87250000D01*
X158190000Y-88277988D01*
X158390160Y-88351954D01*
X158677672Y-88232876D01*
X159062665Y-87902614D01*
X159291966Y-87450162D01*
X159218831Y-87250002D01*
X159304771Y-87250002D01*
X159378957Y-87622957D01*
X159660761Y-88044708D01*
X160082512Y-88326512D01*
X160580000Y-88425469D01*
X160859853Y-88369803D01*
X162300000Y-89809950D01*
X162300000Y-92165182D01*
X162243617Y-92108700D01*
X161813748Y-91930203D01*
X161348294Y-91929797D01*
X160918114Y-92107544D01*
X160588700Y-92436383D01*
X160562284Y-92500000D01*
X160058027Y-92500000D01*
X160032456Y-92438114D01*
X159703617Y-92108700D01*
X159273748Y-91930203D01*
X158808294Y-91929797D01*
X158378114Y-92107544D01*
X158048700Y-92436383D01*
X157870203Y-92866252D01*
X157869797Y-93331706D01*
X158047544Y-93761886D01*
X158376383Y-94091300D01*
X158806252Y-94269797D01*
X159271706Y-94270203D01*
X159701886Y-94092456D01*
X160031300Y-93763617D01*
X160057716Y-93700000D01*
X160561973Y-93700000D01*
X160587544Y-93761886D01*
X160916383Y-94091300D01*
X161000000Y-94126021D01*
X161000000Y-97751472D01*
X160175736Y-98575736D01*
X160045672Y-98770390D01*
X160000000Y-99000000D01*
X160000000Y-99119408D01*
X159983240Y-99122562D01*
X159878156Y-99190182D01*
X159854328Y-99070390D01*
X159724264Y-98875736D01*
X154524264Y-93675736D01*
X154410917Y-93600000D01*
X155440654Y-93600000D01*
X155507544Y-93761886D01*
X155836383Y-94091300D01*
X156266252Y-94269797D01*
X156731706Y-94270203D01*
X157161886Y-94092456D01*
X157491300Y-93763617D01*
X157669797Y-93333748D01*
X157670203Y-92868294D01*
X157492456Y-92438114D01*
X157163617Y-92108700D01*
X156733748Y-91930203D01*
X156268294Y-91929797D01*
X155838114Y-92107544D01*
X155545147Y-92400000D01*
X154260917Y-92400000D01*
X154374264Y-92324264D01*
X155824264Y-90874264D01*
X155954328Y-90679610D01*
X155968410Y-90608816D01*
X156000000Y-90608816D01*
X156166760Y-90577438D01*
X156319919Y-90478883D01*
X156422668Y-90328505D01*
X156458816Y-90150000D01*
X156458816Y-89250000D01*
X156427438Y-89083240D01*
X156328883Y-88930081D01*
X156178505Y-88827332D01*
X156000000Y-88791184D01*
X155901404Y-88791184D01*
X155824264Y-88675736D01*
X155557344Y-88408816D01*
X156350000Y-88408816D01*
X156516760Y-88377438D01*
X156669919Y-88278883D01*
X156772668Y-88128505D01*
X156808816Y-87950000D01*
X156808816Y-87491169D01*
X157017335Y-87902614D01*
X157402328Y-88232876D01*
X157689840Y-88351954D01*
X157890000Y-88277988D01*
X157890000Y-87250000D01*
X157870000Y-87250000D01*
X157870000Y-86950000D01*
X157890000Y-86950000D01*
X157890000Y-85922012D01*
X157689840Y-85848046D01*
X157402328Y-85967124D01*
X157017335Y-86297386D01*
X156808816Y-86708831D01*
X156808816Y-86250000D01*
X156777438Y-86083240D01*
X156678883Y-85930081D01*
X156528505Y-85827332D01*
X156350000Y-85791184D01*
X154650000Y-85791184D01*
X154483240Y-85822562D01*
X154330081Y-85921117D01*
X154227332Y-86071495D01*
X154191184Y-86250000D01*
X154191184Y-87950000D01*
X154200592Y-88000000D01*
X152848528Y-88000000D01*
X152458300Y-87609772D01*
X152459081Y-87608993D01*
X152649783Y-87149731D01*
X152650217Y-86652450D01*
X152460316Y-86192857D01*
X152108993Y-85840919D01*
X151649731Y-85650217D01*
X151152450Y-85649783D01*
X150692857Y-85839684D01*
X150340919Y-86191007D01*
X150150217Y-86650269D01*
X150149783Y-87147550D01*
X150339684Y-87607143D01*
X150691007Y-87959081D01*
X151150269Y-88149783D01*
X151301387Y-88149915D01*
X151951472Y-88800000D01*
X146289949Y-88800000D01*
X145146819Y-87656869D01*
X145149783Y-87649731D01*
X145150217Y-87152450D01*
X145148193Y-87147550D01*
X145149783Y-87147550D01*
X145339684Y-87607143D01*
X145691007Y-87959081D01*
X146150269Y-88149783D01*
X146647550Y-88150217D01*
X147107143Y-87960316D01*
X147459081Y-87608993D01*
X147649783Y-87149731D01*
X147650217Y-86652450D01*
X147460316Y-86192857D01*
X147108993Y-85840919D01*
X146649731Y-85650217D01*
X146152450Y-85649783D01*
X145692857Y-85839684D01*
X145340919Y-86191007D01*
X145150217Y-86650269D01*
X145149783Y-87147550D01*
X145148193Y-87147550D01*
X144960316Y-86692857D01*
X144608993Y-86340919D01*
X144149731Y-86150217D01*
X143652450Y-86149783D01*
X143192857Y-86339684D01*
X142840919Y-86691007D01*
X142650217Y-87150269D01*
X142649783Y-87647550D01*
X140149784Y-87647550D01*
X140150217Y-87152450D01*
X139960316Y-86692857D01*
X139608993Y-86340919D01*
X139149731Y-86150217D01*
X138652450Y-86149783D01*
X138192857Y-86339684D01*
X137840919Y-86691007D01*
X137650217Y-87150269D01*
X137649783Y-87647550D01*
X137839684Y-88107143D01*
X138191007Y-88459081D01*
X138300000Y-88504339D01*
X138300000Y-91578532D01*
X138236285Y-91604858D01*
X137856193Y-91984288D01*
X137650235Y-92480290D01*
X137649766Y-93017353D01*
X137525000Y-93017353D01*
X137525000Y-85525000D01*
X164475000Y-85525000D01*
X164475000Y-107475000D01*
X164475000Y-107475000D01*
G37*
X164475000Y-107475000D02*
X137525000Y-107475000D01*
X137525000Y-100517353D01*
X137649766Y-100517353D01*
X137854858Y-101013715D01*
X138234288Y-101393807D01*
X138300000Y-101421093D01*
X138300000Y-104495413D01*
X138192857Y-104539684D01*
X137840919Y-104891007D01*
X137650217Y-105350269D01*
X137649783Y-105847550D01*
X137839684Y-106307143D01*
X138191007Y-106659081D01*
X138650269Y-106849783D01*
X139147550Y-106850217D01*
X139607143Y-106660316D01*
X139959081Y-106308993D01*
X140149783Y-105849731D01*
X140149784Y-105847550D01*
X142649783Y-105847550D01*
X142839684Y-106307143D01*
X143191007Y-106659081D01*
X143650269Y-106849783D01*
X144147550Y-106850217D01*
X144607143Y-106660316D01*
X144959081Y-106308993D01*
X145149783Y-105849731D01*
X145150217Y-105352450D01*
X144960316Y-104892857D01*
X144608993Y-104540919D01*
X144149731Y-104350217D01*
X143652450Y-104349783D01*
X143192857Y-104539684D01*
X142840919Y-104891007D01*
X142650217Y-105350269D01*
X142649783Y-105847550D01*
X140149784Y-105847550D01*
X140150217Y-105352450D01*
X139960316Y-104892857D01*
X139700000Y-104632085D01*
X139700000Y-104100000D01*
X144610050Y-104100000D01*
X145605025Y-105094975D01*
X145832122Y-105246716D01*
X146015282Y-105283149D01*
X146071117Y-105369919D01*
X146221495Y-105472668D01*
X146400000Y-105508816D01*
X147600000Y-105508816D01*
X147766760Y-105477438D01*
X147919919Y-105378883D01*
X148022668Y-105228505D01*
X148058816Y-105050000D01*
X148058816Y-104150000D01*
X148141184Y-104150000D01*
X148141184Y-105050000D01*
X148172562Y-105216760D01*
X148271117Y-105369919D01*
X148421495Y-105472668D01*
X148600000Y-105508816D01*
X149800000Y-105508816D01*
X149966760Y-105477438D01*
X150119919Y-105378883D01*
X150164147Y-105314153D01*
X150250161Y-105349869D01*
X150548530Y-105350130D01*
X150824286Y-105236189D01*
X151035448Y-105025395D01*
X151149869Y-104749839D01*
X151150130Y-104451470D01*
X151036189Y-104175714D01*
X150825395Y-103964552D01*
X150549839Y-103850131D01*
X150251470Y-103849870D01*
X150164690Y-103885727D01*
X150128883Y-103830081D01*
X149978505Y-103727332D01*
X149800000Y-103691184D01*
X148600000Y-103691184D01*
X148433240Y-103722562D01*
X148280081Y-103821117D01*
X148177332Y-103971495D01*
X148141184Y-104150000D01*
X148058816Y-104150000D01*
X148027438Y-103983240D01*
X147928883Y-103830081D01*
X147778505Y-103727332D01*
X147600000Y-103691184D01*
X146400000Y-103691184D01*
X146233240Y-103722562D01*
X146220628Y-103730678D01*
X145394975Y-102905025D01*
X145167879Y-102753284D01*
X144900000Y-102700000D01*
X139700000Y-102700000D01*
X139700000Y-101421468D01*
X139763715Y-101395142D01*
X140143807Y-101015712D01*
X140349765Y-100519710D01*
X140350234Y-99982647D01*
X140145142Y-99486285D01*
X139765712Y-99106193D01*
X139269710Y-98900235D01*
X138732647Y-98899766D01*
X138236285Y-99104858D01*
X137856193Y-99484288D01*
X137650235Y-99980290D01*
X137649766Y-100517353D01*
X137525000Y-100517353D01*
X137525000Y-93017353D01*
X137649766Y-93017353D01*
X137854858Y-93513715D01*
X138234288Y-93893807D01*
X138300000Y-93921093D01*
X138300000Y-95328532D01*
X138236285Y-95354858D01*
X137856193Y-95734288D01*
X137650235Y-96230290D01*
X137649766Y-96767353D01*
X137854858Y-97263715D01*
X138234288Y-97643807D01*
X138730290Y-97849765D01*
X139267353Y-97850234D01*
X139333113Y-97823063D01*
X142255025Y-100744975D01*
X142482121Y-100896716D01*
X142750000Y-100950000D01*
X142828532Y-100950000D01*
X142854858Y-101013715D01*
X143234288Y-101393807D01*
X143730290Y-101599765D01*
X144267353Y-101600234D01*
X144763715Y-101395142D01*
X145143807Y-101015712D01*
X145349765Y-100519710D01*
X145350234Y-99982647D01*
X145145142Y-99486285D01*
X144859356Y-99200000D01*
X146091184Y-99200000D01*
X146091184Y-100400000D01*
X146122562Y-100566760D01*
X146221117Y-100719919D01*
X146371495Y-100822668D01*
X146550000Y-100858816D01*
X147450000Y-100858816D01*
X147616760Y-100827438D01*
X147769919Y-100728883D01*
X147872668Y-100578505D01*
X147908816Y-100400000D01*
X147908816Y-99200000D01*
X147877438Y-99033240D01*
X147778883Y-98880081D01*
X147714153Y-98835853D01*
X147749869Y-98749839D01*
X147750130Y-98451470D01*
X147636189Y-98175714D01*
X147425395Y-97964552D01*
X147149839Y-97850131D01*
X146851470Y-97849870D01*
X146575714Y-97963811D01*
X146364552Y-98174605D01*
X146250131Y-98450161D01*
X146249870Y-98748530D01*
X146285727Y-98835310D01*
X146230081Y-98871117D01*
X146127332Y-99021495D01*
X146091184Y-99200000D01*
X144859356Y-99200000D01*
X144765712Y-99106193D01*
X144269710Y-98900235D01*
X143732647Y-98899766D01*
X143236285Y-99104858D01*
X142915267Y-99425317D01*
X140323328Y-96833378D01*
X140349765Y-96769710D01*
X140349767Y-96767353D01*
X142649766Y-96767353D01*
X142854858Y-97263715D01*
X143234288Y-97643807D01*
X143730290Y-97849765D01*
X144267353Y-97850234D01*
X144763715Y-97645142D01*
X145143807Y-97265712D01*
X145349765Y-96769710D01*
X145350234Y-96232647D01*
X145145142Y-95736285D01*
X144765712Y-95356193D01*
X144269710Y-95150235D01*
X143732647Y-95149766D01*
X143236285Y-95354858D01*
X142856193Y-95734288D01*
X142650235Y-96230290D01*
X142649766Y-96767353D01*
X140349767Y-96767353D01*
X140350234Y-96232647D01*
X140145142Y-95736285D01*
X139765712Y-95356193D01*
X139700000Y-95328907D01*
X139700000Y-93921468D01*
X139763715Y-93895142D01*
X140143807Y-93515712D01*
X140349765Y-93019710D01*
X140349767Y-93017353D01*
X142649766Y-93017353D01*
X142854858Y-93513715D01*
X143234288Y-93893807D01*
X143730290Y-94099765D01*
X144267353Y-94100234D01*
X144763715Y-93895142D01*
X145143807Y-93515712D01*
X145349765Y-93019710D01*
X145350234Y-92482647D01*
X145145142Y-91986285D01*
X144765712Y-91606193D01*
X144269710Y-91400235D01*
X143732647Y-91399766D01*
X143236285Y-91604858D01*
X142856193Y-91984288D01*
X142650235Y-92480290D01*
X142649766Y-93017353D01*
X140349767Y-93017353D01*
X140350234Y-92482647D01*
X140145142Y-91986285D01*
X139765712Y-91606193D01*
X139700000Y-91578907D01*
X139700000Y-88367621D01*
X139959081Y-88108993D01*
X140149783Y-87649731D01*
X140149784Y-87647550D01*
X142649783Y-87647550D01*
X142839684Y-88107143D01*
X143191007Y-88459081D01*
X143650269Y-88649783D01*
X144147550Y-88650217D01*
X144156549Y-88646499D01*
X145505023Y-89994972D01*
X145505025Y-89994975D01*
X145732122Y-90146716D01*
X146000000Y-90200000D01*
X146439287Y-90200000D01*
X146364552Y-90274605D01*
X146250131Y-90550161D01*
X146249870Y-90848530D01*
X146285727Y-90935310D01*
X146230081Y-90971117D01*
X146127332Y-91121495D01*
X146091184Y-91300000D01*
X146091184Y-92500000D01*
X146122562Y-92666760D01*
X146221117Y-92819919D01*
X146371495Y-92922668D01*
X146550000Y-92958816D01*
X147450000Y-92958816D01*
X147616760Y-92927438D01*
X147769919Y-92828883D01*
X147872668Y-92678505D01*
X147908816Y-92500000D01*
X147908816Y-92400000D01*
X148898470Y-92400000D01*
X148924467Y-92440401D01*
X149040936Y-92519981D01*
X148933431Y-92589159D01*
X148830682Y-92739537D01*
X148794534Y-92918042D01*
X148794534Y-94868762D01*
X148825912Y-95035522D01*
X148879412Y-95118663D01*
X148825395Y-95064552D01*
X148789666Y-95049716D01*
X147908816Y-94168866D01*
X147908816Y-93500000D01*
X147877438Y-93333240D01*
X147778883Y-93180081D01*
X147628505Y-93077332D01*
X147450000Y-93041184D01*
X146550000Y-93041184D01*
X146383240Y-93072562D01*
X146230081Y-93171117D01*
X146127332Y-93321495D01*
X146091184Y-93500000D01*
X146091184Y-94700000D01*
X146122562Y-94866760D01*
X146221117Y-95019919D01*
X146371495Y-95122668D01*
X146550000Y-95158816D01*
X146918866Y-95158816D01*
X147678944Y-95918894D01*
X147763811Y-96124286D01*
X147974605Y-96335448D01*
X148250161Y-96449869D01*
X148548530Y-96450130D01*
X148824286Y-96336189D01*
X149035448Y-96125395D01*
X149149869Y-95849839D01*
X149150130Y-95551470D01*
X149036189Y-95275714D01*
X149002602Y-95242069D01*
X149074845Y-95291430D01*
X149253350Y-95327578D01*
X150754490Y-95327578D01*
X150921250Y-95296200D01*
X151074409Y-95197645D01*
X151177158Y-95047267D01*
X151213306Y-94868762D01*
X151213306Y-94461812D01*
X151284100Y-94447730D01*
X151478754Y-94317666D01*
X152091184Y-93705236D01*
X152091184Y-94700000D01*
X152122562Y-94866760D01*
X152221117Y-95019919D01*
X152371495Y-95122668D01*
X152550000Y-95158816D01*
X153450000Y-95158816D01*
X153616760Y-95127438D01*
X153769919Y-95028883D01*
X153872668Y-94878505D01*
X153899159Y-94747687D01*
X158700000Y-99548528D01*
X158700000Y-99889082D01*
X158624264Y-99775736D01*
X158224264Y-99375736D01*
X158029610Y-99245672D01*
X157800000Y-99200000D01*
X156805592Y-99200000D01*
X156802438Y-99183240D01*
X156703883Y-99030081D01*
X156553505Y-98927332D01*
X156375000Y-98891184D01*
X155625000Y-98891184D01*
X155458240Y-98922562D01*
X155305081Y-99021117D01*
X155202332Y-99171495D01*
X155196560Y-99200000D01*
X153908816Y-99200000D01*
X153877438Y-99033240D01*
X153778883Y-98880081D01*
X153628505Y-98777332D01*
X153450000Y-98741184D01*
X152550000Y-98741184D01*
X152383240Y-98772562D01*
X152230081Y-98871117D01*
X152127332Y-99021495D01*
X152091184Y-99200000D01*
X151363166Y-99200000D01*
X151363166Y-99144562D01*
X151331788Y-98977802D01*
X151233233Y-98824643D01*
X151082855Y-98721894D01*
X150904350Y-98685746D01*
X149103490Y-98685746D01*
X148936730Y-98717124D01*
X148783571Y-98815679D01*
X148680822Y-98966057D01*
X148644674Y-99144562D01*
X148644674Y-100693962D01*
X148676052Y-100860722D01*
X148774607Y-101013881D01*
X148894905Y-101096077D01*
X148783571Y-101167719D01*
X148693187Y-101300000D01*
X147890000Y-101300000D01*
X147877438Y-101233240D01*
X147778883Y-101080081D01*
X147628505Y-100977332D01*
X147450000Y-100941184D01*
X146550000Y-100941184D01*
X146383240Y-100972562D01*
X146230081Y-101071117D01*
X146127332Y-101221495D01*
X146091184Y-101400000D01*
X146091184Y-102600000D01*
X146122562Y-102766760D01*
X146221117Y-102919919D01*
X146371495Y-103022668D01*
X146550000Y-103058816D01*
X147450000Y-103058816D01*
X147616760Y-103027438D01*
X147769919Y-102928883D01*
X147872668Y-102778505D01*
X147888566Y-102700000D01*
X148644674Y-102700000D01*
X148644674Y-103046002D01*
X148676052Y-103212762D01*
X148774607Y-103365921D01*
X148924985Y-103468670D01*
X149103490Y-103504818D01*
X150373216Y-103504818D01*
X153163371Y-106294972D01*
X153163373Y-106294975D01*
X153276922Y-106370846D01*
X153390469Y-106446716D01*
X153658348Y-106500001D01*
X153658353Y-106500000D01*
X159477253Y-106500000D01*
X159640761Y-106744708D01*
X160062512Y-107026512D01*
X160560000Y-107125469D01*
X161057488Y-107026512D01*
X161479239Y-106744708D01*
X161761043Y-106322957D01*
X161791184Y-106171429D01*
X161791184Y-106650000D01*
X161822562Y-106816760D01*
X161921117Y-106969919D01*
X162071495Y-107072668D01*
X162250000Y-107108816D01*
X163950000Y-107108816D01*
X164116760Y-107077438D01*
X164269919Y-106978883D01*
X164372668Y-106828505D01*
X164408816Y-106650000D01*
X164408816Y-104950000D01*
X164377438Y-104783240D01*
X164278883Y-104630081D01*
X164128505Y-104527332D01*
X163950000Y-104491184D01*
X162250000Y-104491184D01*
X162083240Y-104522562D01*
X161930081Y-104621117D01*
X161827332Y-104771495D01*
X161791184Y-104950000D01*
X161791184Y-105428571D01*
X161761043Y-105277043D01*
X161479239Y-104855292D01*
X161057488Y-104573488D01*
X160560000Y-104474531D01*
X160062512Y-104573488D01*
X159640761Y-104855292D01*
X159477253Y-105100000D01*
X153948297Y-105100000D01*
X151363166Y-102514868D01*
X151363166Y-102262500D01*
X152100000Y-102262500D01*
X152100000Y-102689511D01*
X152168509Y-102854905D01*
X152295096Y-102981492D01*
X152460490Y-103050000D01*
X152737500Y-103050000D01*
X152850000Y-102937500D01*
X152850000Y-102150000D01*
X153150000Y-102150000D01*
X153150000Y-102937500D01*
X153262500Y-103050000D01*
X153539510Y-103050000D01*
X153704904Y-102981492D01*
X153831491Y-102854905D01*
X153900000Y-102689511D01*
X153900000Y-102262500D01*
X153787500Y-102150000D01*
X153150000Y-102150000D01*
X152850000Y-102150000D01*
X152212500Y-102150000D01*
X152100000Y-102262500D01*
X151363166Y-102262500D01*
X151363166Y-102112500D01*
X155175000Y-102112500D01*
X155175000Y-102539511D01*
X155243509Y-102704905D01*
X155370096Y-102831492D01*
X155535490Y-102900000D01*
X155737500Y-102900000D01*
X155850000Y-102787500D01*
X155850000Y-102000000D01*
X156150000Y-102000000D01*
X156150000Y-102787500D01*
X156262500Y-102900000D01*
X156464510Y-102900000D01*
X156629904Y-102831492D01*
X156756491Y-102704905D01*
X156825000Y-102539511D01*
X156825000Y-102112500D01*
X156712500Y-102000000D01*
X156150000Y-102000000D01*
X155850000Y-102000000D01*
X155287500Y-102000000D01*
X155175000Y-102112500D01*
X151363166Y-102112500D01*
X151363166Y-101496602D01*
X151331788Y-101329842D01*
X151319335Y-101310489D01*
X152100000Y-101310489D01*
X152100000Y-101737500D01*
X152212500Y-101850000D01*
X152850000Y-101850000D01*
X152850000Y-101062500D01*
X153150000Y-101062500D01*
X153150000Y-101850000D01*
X153787500Y-101850000D01*
X153900000Y-101737500D01*
X153900000Y-101310489D01*
X153831491Y-101145095D01*
X153704904Y-101018508D01*
X153539510Y-100950000D01*
X153262500Y-100950000D01*
X153150000Y-101062500D01*
X152850000Y-101062500D01*
X152737500Y-100950000D01*
X152460490Y-100950000D01*
X152295096Y-101018508D01*
X152168509Y-101145095D01*
X152100000Y-101310489D01*
X151319335Y-101310489D01*
X151233233Y-101176683D01*
X151112935Y-101094487D01*
X151224269Y-101022845D01*
X151327018Y-100872467D01*
X151363166Y-100693962D01*
X151363166Y-100400000D01*
X152091184Y-100400000D01*
X152122562Y-100566760D01*
X152221117Y-100719919D01*
X152371495Y-100822668D01*
X152550000Y-100858816D01*
X153450000Y-100858816D01*
X153616760Y-100827438D01*
X153769919Y-100728883D01*
X153872668Y-100578505D01*
X153908816Y-100400000D01*
X155166184Y-100400000D01*
X155166184Y-100550000D01*
X155197562Y-100716760D01*
X155296117Y-100869919D01*
X155339228Y-100899376D01*
X155243509Y-100995095D01*
X155175000Y-101160489D01*
X155175000Y-101587500D01*
X155287500Y-101700000D01*
X155850000Y-101700000D01*
X155850000Y-101680000D01*
X156150000Y-101680000D01*
X156150000Y-101700000D01*
X156712500Y-101700000D01*
X156825000Y-101587500D01*
X156825000Y-101160489D01*
X156756491Y-100995095D01*
X156661673Y-100900277D01*
X156694919Y-100878883D01*
X156797668Y-100728505D01*
X156833816Y-100550000D01*
X156833816Y-100400000D01*
X157311434Y-100400000D01*
X157291184Y-100500000D01*
X157291184Y-101300000D01*
X157322562Y-101466760D01*
X157421117Y-101619919D01*
X157571495Y-101722668D01*
X157750000Y-101758816D01*
X158650000Y-101758816D01*
X158816760Y-101727438D01*
X158859486Y-101699944D01*
X158875736Y-101724264D01*
X159425736Y-102274264D01*
X159620389Y-102404328D01*
X159728385Y-102425810D01*
X159821117Y-102569919D01*
X159971495Y-102672668D01*
X160150000Y-102708816D01*
X161050000Y-102708816D01*
X161216760Y-102677438D01*
X161369919Y-102578883D01*
X161457981Y-102450000D01*
X162091184Y-102450000D01*
X162091184Y-102600000D01*
X162122562Y-102766760D01*
X162221117Y-102919919D01*
X162371495Y-103022668D01*
X162550000Y-103058816D01*
X163450000Y-103058816D01*
X163616760Y-103027438D01*
X163769919Y-102928883D01*
X163872668Y-102778505D01*
X163908816Y-102600000D01*
X163908816Y-101400000D01*
X163877438Y-101233240D01*
X163778883Y-101080081D01*
X163628505Y-100977332D01*
X163450000Y-100941184D01*
X162550000Y-100941184D01*
X162383240Y-100972562D01*
X162230081Y-101071117D01*
X162127332Y-101221495D01*
X162121560Y-101250000D01*
X161456049Y-101250000D01*
X161378883Y-101130081D01*
X161228505Y-101027332D01*
X161050000Y-100991184D01*
X160150000Y-100991184D01*
X159983240Y-101022562D01*
X159915001Y-101066473D01*
X159900000Y-101051472D01*
X159900000Y-100723818D01*
X159971495Y-100772668D01*
X160150000Y-100808816D01*
X161050000Y-100808816D01*
X161216760Y-100777438D01*
X161369919Y-100678883D01*
X161472668Y-100528505D01*
X161508816Y-100350000D01*
X161508816Y-99550000D01*
X161477438Y-99383240D01*
X161378883Y-99230081D01*
X161283571Y-99164957D01*
X162024264Y-98424264D01*
X162154328Y-98229610D01*
X162200000Y-98000000D01*
X162200000Y-94109763D01*
X162241886Y-94092456D01*
X162300000Y-94034443D01*
X162300000Y-98826125D01*
X162230081Y-98871117D01*
X162127332Y-99021495D01*
X162091184Y-99200000D01*
X162091184Y-100400000D01*
X162122562Y-100566760D01*
X162221117Y-100719919D01*
X162371495Y-100822668D01*
X162550000Y-100858816D01*
X163450000Y-100858816D01*
X163616760Y-100827438D01*
X163769919Y-100728883D01*
X163872668Y-100578505D01*
X163908816Y-100400000D01*
X163908816Y-99200000D01*
X163877438Y-99033240D01*
X163778883Y-98880081D01*
X163700000Y-98826182D01*
X163700000Y-89520000D01*
X163646716Y-89252122D01*
X163646716Y-89252121D01*
X163494975Y-89025025D01*
X162839655Y-88369705D01*
X163120000Y-88425469D01*
X163617488Y-88326512D01*
X164039239Y-88044708D01*
X164321043Y-87622957D01*
X164420000Y-87125469D01*
X164420000Y-87074531D01*
X164321043Y-86577043D01*
X164039239Y-86155292D01*
X163617488Y-85873488D01*
X163120000Y-85774531D01*
X162622512Y-85873488D01*
X162200761Y-86155292D01*
X161918957Y-86577043D01*
X161850000Y-86923712D01*
X161781043Y-86577043D01*
X161499239Y-86155292D01*
X161077488Y-85873488D01*
X160580000Y-85774531D01*
X160082512Y-85873488D01*
X159660761Y-86155292D01*
X159378957Y-86577043D01*
X159304771Y-86949998D01*
X159218831Y-86949998D01*
X159291966Y-86749838D01*
X159062665Y-86297386D01*
X158677672Y-85967124D01*
X158390160Y-85848046D01*
X158190000Y-85922012D01*
X158190000Y-86950000D01*
X158210000Y-86950000D01*
X158210000Y-87250000D01*
X158190000Y-87250000D01*
X158190000Y-88277988D01*
X158390160Y-88351954D01*
X158677672Y-88232876D01*
X159062665Y-87902614D01*
X159291966Y-87450162D01*
X159218831Y-87250002D01*
X159304771Y-87250002D01*
X159378957Y-87622957D01*
X159660761Y-88044708D01*
X160082512Y-88326512D01*
X160580000Y-88425469D01*
X160859853Y-88369803D01*
X162300000Y-89809950D01*
X162300000Y-92165182D01*
X162243617Y-92108700D01*
X161813748Y-91930203D01*
X161348294Y-91929797D01*
X160918114Y-92107544D01*
X160588700Y-92436383D01*
X160562284Y-92500000D01*
X160058027Y-92500000D01*
X160032456Y-92438114D01*
X159703617Y-92108700D01*
X159273748Y-91930203D01*
X158808294Y-91929797D01*
X158378114Y-92107544D01*
X158048700Y-92436383D01*
X157870203Y-92866252D01*
X157869797Y-93331706D01*
X158047544Y-93761886D01*
X158376383Y-94091300D01*
X158806252Y-94269797D01*
X159271706Y-94270203D01*
X159701886Y-94092456D01*
X160031300Y-93763617D01*
X160057716Y-93700000D01*
X160561973Y-93700000D01*
X160587544Y-93761886D01*
X160916383Y-94091300D01*
X161000000Y-94126021D01*
X161000000Y-97751472D01*
X160175736Y-98575736D01*
X160045672Y-98770390D01*
X160000000Y-99000000D01*
X160000000Y-99119408D01*
X159983240Y-99122562D01*
X159878156Y-99190182D01*
X159854328Y-99070390D01*
X159724264Y-98875736D01*
X154524264Y-93675736D01*
X154410917Y-93600000D01*
X155440654Y-93600000D01*
X155507544Y-93761886D01*
X155836383Y-94091300D01*
X156266252Y-94269797D01*
X156731706Y-94270203D01*
X157161886Y-94092456D01*
X157491300Y-93763617D01*
X157669797Y-93333748D01*
X157670203Y-92868294D01*
X157492456Y-92438114D01*
X157163617Y-92108700D01*
X156733748Y-91930203D01*
X156268294Y-91929797D01*
X155838114Y-92107544D01*
X155545147Y-92400000D01*
X154260917Y-92400000D01*
X154374264Y-92324264D01*
X155824264Y-90874264D01*
X155954328Y-90679610D01*
X155968410Y-90608816D01*
X156000000Y-90608816D01*
X156166760Y-90577438D01*
X156319919Y-90478883D01*
X156422668Y-90328505D01*
X156458816Y-90150000D01*
X156458816Y-89250000D01*
X156427438Y-89083240D01*
X156328883Y-88930081D01*
X156178505Y-88827332D01*
X156000000Y-88791184D01*
X155901404Y-88791184D01*
X155824264Y-88675736D01*
X155557344Y-88408816D01*
X156350000Y-88408816D01*
X156516760Y-88377438D01*
X156669919Y-88278883D01*
X156772668Y-88128505D01*
X156808816Y-87950000D01*
X156808816Y-87491169D01*
X157017335Y-87902614D01*
X157402328Y-88232876D01*
X157689840Y-88351954D01*
X157890000Y-88277988D01*
X157890000Y-87250000D01*
X157870000Y-87250000D01*
X157870000Y-86950000D01*
X157890000Y-86950000D01*
X157890000Y-85922012D01*
X157689840Y-85848046D01*
X157402328Y-85967124D01*
X157017335Y-86297386D01*
X156808816Y-86708831D01*
X156808816Y-86250000D01*
X156777438Y-86083240D01*
X156678883Y-85930081D01*
X156528505Y-85827332D01*
X156350000Y-85791184D01*
X154650000Y-85791184D01*
X154483240Y-85822562D01*
X154330081Y-85921117D01*
X154227332Y-86071495D01*
X154191184Y-86250000D01*
X154191184Y-87950000D01*
X154200592Y-88000000D01*
X152848528Y-88000000D01*
X152458300Y-87609772D01*
X152459081Y-87608993D01*
X152649783Y-87149731D01*
X152650217Y-86652450D01*
X152460316Y-86192857D01*
X152108993Y-85840919D01*
X151649731Y-85650217D01*
X151152450Y-85649783D01*
X150692857Y-85839684D01*
X150340919Y-86191007D01*
X150150217Y-86650269D01*
X150149783Y-87147550D01*
X150339684Y-87607143D01*
X150691007Y-87959081D01*
X151150269Y-88149783D01*
X151301387Y-88149915D01*
X151951472Y-88800000D01*
X146289949Y-88800000D01*
X145146819Y-87656869D01*
X145149783Y-87649731D01*
X145150217Y-87152450D01*
X145148193Y-87147550D01*
X145149783Y-87147550D01*
X145339684Y-87607143D01*
X145691007Y-87959081D01*
X146150269Y-88149783D01*
X146647550Y-88150217D01*
X147107143Y-87960316D01*
X147459081Y-87608993D01*
X147649783Y-87149731D01*
X147650217Y-86652450D01*
X147460316Y-86192857D01*
X147108993Y-85840919D01*
X146649731Y-85650217D01*
X146152450Y-85649783D01*
X145692857Y-85839684D01*
X145340919Y-86191007D01*
X145150217Y-86650269D01*
X145149783Y-87147550D01*
X145148193Y-87147550D01*
X144960316Y-86692857D01*
X144608993Y-86340919D01*
X144149731Y-86150217D01*
X143652450Y-86149783D01*
X143192857Y-86339684D01*
X142840919Y-86691007D01*
X142650217Y-87150269D01*
X142649783Y-87647550D01*
X140149784Y-87647550D01*
X140150217Y-87152450D01*
X139960316Y-86692857D01*
X139608993Y-86340919D01*
X139149731Y-86150217D01*
X138652450Y-86149783D01*
X138192857Y-86339684D01*
X137840919Y-86691007D01*
X137650217Y-87150269D01*
X137649783Y-87647550D01*
X137839684Y-88107143D01*
X138191007Y-88459081D01*
X138300000Y-88504339D01*
X138300000Y-91578532D01*
X138236285Y-91604858D01*
X137856193Y-91984288D01*
X137650235Y-92480290D01*
X137649766Y-93017353D01*
X137525000Y-93017353D01*
X137525000Y-85525000D01*
X164475000Y-85525000D01*
X164475000Y-107475000D01*
M02*
