G04 #@! TF.FileFunction,Soldermask,Top*
%FSLAX46Y46*%
G04 Gerber Fmt 4.6, Leading zero omitted, Abs format (unit mm)*
G04 Created by KiCad (PCBNEW 4.0.4-1.fc24-product) date Mon Apr 30 14:12:17 2018*
%MOMM*%
%LPD*%
G01*
G04 APERTURE LIST*
%ADD10C,0.100000*%
%ADD11R,1.300000X1.600000*%
%ADD12C,2.200000*%
%ADD13R,1.600000X2.100000*%
%ADD14O,1.600000X2.100000*%
%ADD15O,2.398980X2.398980*%
%ADD16R,2.398980X2.398980*%
%ADD17C,1.800000*%
%ADD18C,1.840000*%
%ADD19R,1.150000X1.600000*%
%ADD20R,1.300000X1.200000*%
%ADD21R,1.650000X1.400000*%
%ADD22R,1.901140X2.350720*%
%ADD23R,2.200860X1.949400*%
G04 APERTURE END LIST*
D10*
D11*
X147000000Y-94100000D03*
X147000000Y-91900000D03*
D12*
X139000000Y-92750000D03*
X139000000Y-96500000D03*
X139000000Y-100250000D03*
X144000000Y-92750000D03*
X144000000Y-96500000D03*
X144000000Y-100250000D03*
D13*
X142000000Y-106400000D03*
D14*
X144000000Y-106400000D03*
X146000000Y-106400000D03*
X148000000Y-106400000D03*
D13*
X156404845Y-86295385D03*
D14*
X158404845Y-86295385D03*
X160404845Y-86295385D03*
X162404845Y-86295385D03*
D15*
X160400000Y-105400000D03*
D16*
X162940000Y-105400000D03*
D15*
X154560000Y-105400000D03*
D16*
X157100000Y-105400000D03*
D17*
X141500000Y-85500000D03*
X141500000Y-88000000D03*
X146900000Y-85500000D03*
X146900000Y-88000000D03*
D18*
X162200000Y-93100000D03*
X159660000Y-93100000D03*
X157120000Y-93100000D03*
D11*
X147000000Y-100100000D03*
X147000000Y-97900000D03*
D19*
X156000000Y-98050000D03*
X156000000Y-99950000D03*
D20*
X160600000Y-99950000D03*
X160600000Y-98050000D03*
X158200000Y-99000000D03*
D11*
X153000000Y-97900000D03*
X153000000Y-100100000D03*
X163000000Y-97900000D03*
X163000000Y-100100000D03*
X153000000Y-91900000D03*
X153000000Y-94100000D03*
X153000000Y-88400000D03*
X153000000Y-86200000D03*
X139000000Y-88000000D03*
X139000000Y-85800000D03*
D21*
X150000000Y-86500000D03*
X150000000Y-88500000D03*
D22*
X150003920Y-93893402D03*
X150003920Y-91145122D03*
D23*
X150003920Y-98019262D03*
X150003920Y-100371302D03*
M02*
