G04 #@! TF.FileFunction,Legend,Top*
%FSLAX46Y46*%
G04 Gerber Fmt 4.6, Leading zero omitted, Abs format (unit mm)*
G04 Created by KiCad (PCBNEW 4.0.4-1.fc24-product) date Tue Aug 28 17:04:24 2018*
%MOMM*%
%LPD*%
G01*
G04 APERTURE LIST*
%ADD10C,0.100000*%
%ADD11C,0.150000*%
%ADD12C,0.120000*%
G04 APERTURE END LIST*
D10*
D11*
X147700000Y-104825000D02*
X148700000Y-104825000D01*
X148700000Y-106175000D02*
X147700000Y-106175000D01*
X147675000Y-93900000D02*
X147675000Y-94900000D01*
X146325000Y-94900000D02*
X146325000Y-93900000D01*
X146325000Y-101400000D02*
X146325000Y-100400000D01*
X147675000Y-100400000D02*
X147675000Y-101400000D01*
X155400000Y-101250000D02*
X155400000Y-100550000D01*
X156600000Y-100550000D02*
X156600000Y-101250000D01*
D12*
X158450000Y-99250000D02*
X158450000Y-100300000D01*
X160250000Y-99250000D02*
X158450000Y-99250000D01*
X158450000Y-102550000D02*
X158450000Y-101500000D01*
X160850000Y-102550000D02*
X158450000Y-102550000D01*
D11*
X153675000Y-100400000D02*
X153675000Y-101400000D01*
X152325000Y-101400000D02*
X152325000Y-100400000D01*
X163675000Y-100400000D02*
X163675000Y-101400000D01*
X162325000Y-101400000D02*
X162325000Y-100400000D01*
X152325000Y-94900000D02*
X152325000Y-93900000D01*
X153675000Y-93900000D02*
X153675000Y-94900000D01*
X149325000Y-89300000D02*
X149325000Y-88300000D01*
X150675000Y-88300000D02*
X150675000Y-89300000D01*
X149191120Y-95062262D02*
X150816720Y-95062262D01*
X150816720Y-92319062D02*
X149191120Y-92319062D01*
X149191120Y-92319062D02*
X149191120Y-95519462D01*
X149191120Y-95519462D02*
X150816720Y-95519462D01*
X150816720Y-95519462D02*
X150816720Y-92319062D01*
X149368920Y-100079282D02*
X149368920Y-102111282D01*
X150638920Y-100079282D02*
X149368920Y-100079282D01*
X150638920Y-102111282D02*
X150638920Y-100079282D01*
X149368920Y-102111282D02*
X150638920Y-102111282D01*
X149368920Y-100460282D02*
X150638920Y-100460282D01*
D12*
X154170000Y-88430000D02*
X154170000Y-87100000D01*
X155500000Y-88430000D02*
X154170000Y-88430000D01*
X156770000Y-88430000D02*
X156770000Y-85770000D01*
X156770000Y-85770000D02*
X164450000Y-85770000D01*
X156770000Y-88430000D02*
X164450000Y-88430000D01*
X164450000Y-88430000D02*
X164450000Y-85770000D01*
D11*
X147850000Y-89600000D02*
X147850000Y-88600000D01*
X146150000Y-88600000D02*
X146150000Y-89600000D01*
X146900000Y-104671429D02*
X146700000Y-104385714D01*
X146557143Y-104671429D02*
X146557143Y-104071429D01*
X146785715Y-104071429D01*
X146842857Y-104100000D01*
X146871429Y-104128571D01*
X146900000Y-104185714D01*
X146900000Y-104271429D01*
X146871429Y-104328571D01*
X146842857Y-104357143D01*
X146785715Y-104385714D01*
X146557143Y-104385714D01*
X147100000Y-104071429D02*
X147500000Y-104071429D01*
X147242857Y-104671429D01*
X146271429Y-95769262D02*
X145985714Y-95969262D01*
X146271429Y-96112119D02*
X145671429Y-96112119D01*
X145671429Y-95883547D01*
X145700000Y-95826405D01*
X145728571Y-95797833D01*
X145785714Y-95769262D01*
X145871429Y-95769262D01*
X145928571Y-95797833D01*
X145957143Y-95826405D01*
X145985714Y-95883547D01*
X145985714Y-96112119D01*
X145871429Y-95254976D02*
X146271429Y-95254976D01*
X145642857Y-95397833D02*
X146071429Y-95540690D01*
X146071429Y-95169262D01*
X146271429Y-102250000D02*
X145985714Y-102450000D01*
X146271429Y-102592857D02*
X145671429Y-102592857D01*
X145671429Y-102364285D01*
X145700000Y-102307143D01*
X145728571Y-102278571D01*
X145785714Y-102250000D01*
X145871429Y-102250000D01*
X145928571Y-102278571D01*
X145957143Y-102307143D01*
X145985714Y-102364285D01*
X145985714Y-102592857D01*
X146271429Y-101678571D02*
X146271429Y-102021428D01*
X146271429Y-101850000D02*
X145671429Y-101850000D01*
X145757143Y-101907143D01*
X145814286Y-101964285D01*
X145842857Y-102021428D01*
X155214286Y-102250000D02*
X155242857Y-102278571D01*
X155271429Y-102364285D01*
X155271429Y-102421428D01*
X155242857Y-102507143D01*
X155185714Y-102564285D01*
X155128571Y-102592857D01*
X155014286Y-102621428D01*
X154928571Y-102621428D01*
X154814286Y-102592857D01*
X154757143Y-102564285D01*
X154700000Y-102507143D01*
X154671429Y-102421428D01*
X154671429Y-102364285D01*
X154700000Y-102278571D01*
X154728571Y-102250000D01*
X154728571Y-102021428D02*
X154700000Y-101992857D01*
X154671429Y-101935714D01*
X154671429Y-101792857D01*
X154700000Y-101735714D01*
X154728571Y-101707143D01*
X154785714Y-101678571D01*
X154842857Y-101678571D01*
X154928571Y-101707143D01*
X155271429Y-102050000D01*
X155271429Y-101678571D01*
X159728571Y-100982143D02*
X159700000Y-101039286D01*
X159642857Y-101096429D01*
X159557143Y-101182143D01*
X159528571Y-101239286D01*
X159528571Y-101296429D01*
X159671429Y-101267857D02*
X159642857Y-101325000D01*
X159585714Y-101382143D01*
X159471429Y-101410714D01*
X159271429Y-101410714D01*
X159157143Y-101382143D01*
X159100000Y-101325000D01*
X159071429Y-101267857D01*
X159071429Y-101153571D01*
X159100000Y-101096429D01*
X159157143Y-101039286D01*
X159271429Y-101010714D01*
X159471429Y-101010714D01*
X159585714Y-101039286D01*
X159642857Y-101096429D01*
X159671429Y-101153571D01*
X159671429Y-101267857D01*
X159671429Y-100439286D02*
X159671429Y-100782143D01*
X159671429Y-100610715D02*
X159071429Y-100610715D01*
X159157143Y-100667858D01*
X159214286Y-100725000D01*
X159242857Y-100782143D01*
X152271429Y-102250000D02*
X151985714Y-102450000D01*
X152271429Y-102592857D02*
X151671429Y-102592857D01*
X151671429Y-102364285D01*
X151700000Y-102307143D01*
X151728571Y-102278571D01*
X151785714Y-102250000D01*
X151871429Y-102250000D01*
X151928571Y-102278571D01*
X151957143Y-102307143D01*
X151985714Y-102364285D01*
X151985714Y-102592857D01*
X151728571Y-102021428D02*
X151700000Y-101992857D01*
X151671429Y-101935714D01*
X151671429Y-101792857D01*
X151700000Y-101735714D01*
X151728571Y-101707143D01*
X151785714Y-101678571D01*
X151842857Y-101678571D01*
X151928571Y-101707143D01*
X152271429Y-102050000D01*
X152271429Y-101678571D01*
X162071429Y-102400000D02*
X161785714Y-102600000D01*
X162071429Y-102742857D02*
X161471429Y-102742857D01*
X161471429Y-102514285D01*
X161500000Y-102457143D01*
X161528571Y-102428571D01*
X161585714Y-102400000D01*
X161671429Y-102400000D01*
X161728571Y-102428571D01*
X161757143Y-102457143D01*
X161785714Y-102514285D01*
X161785714Y-102742857D01*
X161471429Y-102200000D02*
X161471429Y-101828571D01*
X161700000Y-102028571D01*
X161700000Y-101942857D01*
X161728571Y-101885714D01*
X161757143Y-101857143D01*
X161814286Y-101828571D01*
X161957143Y-101828571D01*
X162014286Y-101857143D01*
X162042857Y-101885714D01*
X162071429Y-101942857D01*
X162071429Y-102114285D01*
X162042857Y-102171428D01*
X162014286Y-102200000D01*
X152271429Y-95769262D02*
X151985714Y-95969262D01*
X152271429Y-96112119D02*
X151671429Y-96112119D01*
X151671429Y-95883547D01*
X151700000Y-95826405D01*
X151728571Y-95797833D01*
X151785714Y-95769262D01*
X151871429Y-95769262D01*
X151928571Y-95797833D01*
X151957143Y-95826405D01*
X151985714Y-95883547D01*
X151985714Y-96112119D01*
X151671429Y-95226405D02*
X151671429Y-95512119D01*
X151957143Y-95540690D01*
X151928571Y-95512119D01*
X151900000Y-95454976D01*
X151900000Y-95312119D01*
X151928571Y-95254976D01*
X151957143Y-95226405D01*
X152014286Y-95197833D01*
X152157143Y-95197833D01*
X152214286Y-95226405D01*
X152242857Y-95254976D01*
X152271429Y-95312119D01*
X152271429Y-95454976D01*
X152242857Y-95512119D01*
X152214286Y-95540690D01*
X149171429Y-90400000D02*
X148885714Y-90600000D01*
X149171429Y-90742857D02*
X148571429Y-90742857D01*
X148571429Y-90514285D01*
X148600000Y-90457143D01*
X148628571Y-90428571D01*
X148685714Y-90400000D01*
X148771429Y-90400000D01*
X148828571Y-90428571D01*
X148857143Y-90457143D01*
X148885714Y-90514285D01*
X148885714Y-90742857D01*
X148571429Y-89885714D02*
X148571429Y-90000000D01*
X148600000Y-90057143D01*
X148628571Y-90085714D01*
X148714286Y-90142857D01*
X148828571Y-90171428D01*
X149057143Y-90171428D01*
X149114286Y-90142857D01*
X149142857Y-90114285D01*
X149171429Y-90057143D01*
X149171429Y-89942857D01*
X149142857Y-89885714D01*
X149114286Y-89857143D01*
X149057143Y-89828571D01*
X148914286Y-89828571D01*
X148857143Y-89857143D01*
X148828571Y-89885714D01*
X148800000Y-89942857D01*
X148800000Y-90057143D01*
X148828571Y-90114285D01*
X148857143Y-90142857D01*
X148914286Y-90171428D01*
X148968206Y-95769262D02*
X148996777Y-95797833D01*
X149025349Y-95883547D01*
X149025349Y-95940690D01*
X148996777Y-96026405D01*
X148939634Y-96083547D01*
X148882491Y-96112119D01*
X148768206Y-96140690D01*
X148682491Y-96140690D01*
X148568206Y-96112119D01*
X148511063Y-96083547D01*
X148453920Y-96026405D01*
X148425349Y-95940690D01*
X148425349Y-95883547D01*
X148453920Y-95797833D01*
X148482491Y-95769262D01*
X148425349Y-95569262D02*
X148425349Y-95197833D01*
X148653920Y-95397833D01*
X148653920Y-95312119D01*
X148682491Y-95254976D01*
X148711063Y-95226405D01*
X148768206Y-95197833D01*
X148911063Y-95197833D01*
X148968206Y-95226405D01*
X148996777Y-95254976D01*
X149025349Y-95312119D01*
X149025349Y-95483547D01*
X148996777Y-95540690D01*
X148968206Y-95569262D01*
X148718206Y-102269262D02*
X148746777Y-102297833D01*
X148775349Y-102383547D01*
X148775349Y-102440690D01*
X148746777Y-102526405D01*
X148689634Y-102583547D01*
X148632491Y-102612119D01*
X148518206Y-102640690D01*
X148432491Y-102640690D01*
X148318206Y-102612119D01*
X148261063Y-102583547D01*
X148203920Y-102526405D01*
X148175349Y-102440690D01*
X148175349Y-102383547D01*
X148203920Y-102297833D01*
X148232491Y-102269262D01*
X148775349Y-101697833D02*
X148775349Y-102040690D01*
X148775349Y-101869262D02*
X148175349Y-101869262D01*
X148261063Y-101926405D01*
X148318206Y-101983547D01*
X148346777Y-102040690D01*
X163671429Y-89400000D02*
X164100000Y-89400000D01*
X164185714Y-89428572D01*
X164242857Y-89485715D01*
X164271429Y-89571429D01*
X164271429Y-89628572D01*
X163728571Y-89142857D02*
X163700000Y-89114286D01*
X163671429Y-89057143D01*
X163671429Y-88914286D01*
X163700000Y-88857143D01*
X163728571Y-88828572D01*
X163785714Y-88800000D01*
X163842857Y-88800000D01*
X163928571Y-88828572D01*
X164271429Y-89171429D01*
X164271429Y-88800000D01*
X146014286Y-90500000D02*
X146042857Y-90528571D01*
X146071429Y-90614285D01*
X146071429Y-90671428D01*
X146042857Y-90757143D01*
X145985714Y-90814285D01*
X145928571Y-90842857D01*
X145814286Y-90871428D01*
X145728571Y-90871428D01*
X145614286Y-90842857D01*
X145557143Y-90814285D01*
X145500000Y-90757143D01*
X145471429Y-90671428D01*
X145471429Y-90614285D01*
X145500000Y-90528571D01*
X145528571Y-90500000D01*
X145671429Y-89985714D02*
X146071429Y-89985714D01*
X145442857Y-90128571D02*
X145871429Y-90271428D01*
X145871429Y-89900000D01*
M02*
