G04 #@! TF.GenerationSoftware,KiCad,Pcbnew,(5.0.0)*
G04 #@! TF.CreationDate,2018-08-27T21:34:21+10:00*
G04 #@! TF.ProjectId,BT,42542E6B696361645F70636200000000,rev?*
G04 #@! TF.SameCoordinates,Original*
G04 #@! TF.FileFunction,Copper,L1,Top,Signal*
G04 #@! TF.FilePolarity,Positive*
%FSLAX46Y46*%
G04 Gerber Fmt 4.6, Leading zero omitted, Abs format (unit mm)*
G04 Created by KiCad (PCBNEW (5.0.0)) date 08/27/18 21:34:21*
%MOMM*%
%LPD*%
G01*
G04 APERTURE LIST*
G04 #@! TA.AperFunction,SMDPad,CuDef*
%ADD10R,1.200000X0.900000*%
G04 #@! TD*
G04 #@! TA.AperFunction,ComponentPad*
%ADD11C,1.600000*%
G04 #@! TD*
G04 #@! TA.AperFunction,ComponentPad*
%ADD12C,1.800000*%
G04 #@! TD*
G04 #@! TA.AperFunction,SMDPad,CuDef*
%ADD13R,0.900000X1.200000*%
G04 #@! TD*
G04 #@! TA.AperFunction,ComponentPad*
%ADD14C,1.440000*%
G04 #@! TD*
G04 #@! TA.AperFunction,SMDPad,CuDef*
%ADD15R,0.750000X1.200000*%
G04 #@! TD*
G04 #@! TA.AperFunction,SMDPad,CuDef*
%ADD16R,0.900000X0.800000*%
G04 #@! TD*
G04 #@! TA.AperFunction,SMDPad,CuDef*
%ADD17R,1.250000X1.000000*%
G04 #@! TD*
G04 #@! TA.AperFunction,SMDPad,CuDef*
%ADD18R,1.501140X1.950720*%
G04 #@! TD*
G04 #@! TA.AperFunction,SMDPad,CuDef*
%ADD19R,1.800860X1.549400*%
G04 #@! TD*
G04 #@! TA.AperFunction,ComponentPad*
%ADD20O,1.700000X1.700000*%
G04 #@! TD*
G04 #@! TA.AperFunction,ComponentPad*
%ADD21R,1.700000X1.700000*%
G04 #@! TD*
G04 #@! TA.AperFunction,ViaPad*
%ADD22C,0.600000*%
G04 #@! TD*
G04 #@! TA.AperFunction,Conductor*
%ADD23C,0.300000*%
G04 #@! TD*
G04 #@! TA.AperFunction,Conductor*
%ADD24C,0.500000*%
G04 #@! TD*
G04 APERTURE END LIST*
D10*
G04 #@! TO.P,R7,2*
G04 #@! TO.N,Earth*
X149200000Y-104600000D03*
G04 #@! TO.P,R7,1*
G04 #@! TO.N,/RV_1*
X147000000Y-104600000D03*
G04 #@! TD*
D11*
G04 #@! TO.P,C5,2*
G04 #@! TO.N,/RV_2*
X138900000Y-87400000D03*
G04 #@! TO.P,C5,1*
G04 #@! TO.N,Net-(C5-Pad1)*
X143900000Y-87400000D03*
G04 #@! TD*
D12*
G04 #@! TO.P,RV3,3*
G04 #@! TO.N,/RV_2*
X139000000Y-92750000D03*
G04 #@! TO.P,RV3,2*
X139000000Y-96500000D03*
G04 #@! TO.P,RV3,1*
G04 #@! TO.N,/RV_1*
X139000000Y-100250000D03*
G04 #@! TO.P,RV3,6*
G04 #@! TO.N,/RV_6*
X144000000Y-92750000D03*
G04 #@! TO.P,RV3,5*
G04 #@! TO.N,/RV_5*
X144000000Y-96500000D03*
G04 #@! TO.P,RV3,4*
G04 #@! TO.N,/RV_2*
X144000000Y-100250000D03*
G04 #@! TD*
D13*
G04 #@! TO.P,R4,1*
G04 #@! TO.N,Net-(Q1-Pad2)*
X147000000Y-94100000D03*
G04 #@! TO.P,R4,2*
G04 #@! TO.N,Earth*
X147000000Y-91900000D03*
G04 #@! TD*
D14*
G04 #@! TO.P,RV1,3*
G04 #@! TO.N,Net-(C3-Pad1)*
X156500000Y-93100000D03*
G04 #@! TO.P,RV1,2*
G04 #@! TO.N,Net-(Q1-Pad2)*
X159040000Y-93100000D03*
G04 #@! TO.P,RV1,1*
X161580000Y-93100000D03*
G04 #@! TD*
D13*
G04 #@! TO.P,R1,2*
G04 #@! TO.N,Earth*
X147000000Y-99800000D03*
G04 #@! TO.P,R1,1*
G04 #@! TO.N,/IN*
X147000000Y-102000000D03*
G04 #@! TD*
D15*
G04 #@! TO.P,C2,2*
G04 #@! TO.N,/Vref*
X156000000Y-101850000D03*
G04 #@! TO.P,C2,1*
G04 #@! TO.N,Net-(C1-Pad1)*
X156000000Y-99950000D03*
G04 #@! TD*
D16*
G04 #@! TO.P,Q1,3*
G04 #@! TO.N,Net-(C1-Pad1)*
X158200000Y-100900000D03*
G04 #@! TO.P,Q1,2*
G04 #@! TO.N,Net-(Q1-Pad2)*
X160600000Y-99950000D03*
G04 #@! TO.P,Q1,1*
G04 #@! TO.N,Net-(Q1-Pad1)*
X160600000Y-101850000D03*
G04 #@! TD*
D13*
G04 #@! TO.P,R2,2*
G04 #@! TO.N,/Vref*
X153000000Y-102000000D03*
G04 #@! TO.P,R2,1*
G04 #@! TO.N,Net-(C1-Pad1)*
X153000000Y-99800000D03*
G04 #@! TD*
G04 #@! TO.P,R3,2*
G04 #@! TO.N,Net-(Q1-Pad1)*
X163000000Y-102000000D03*
G04 #@! TO.P,R3,1*
G04 #@! TO.N,VCC*
X163000000Y-99800000D03*
G04 #@! TD*
G04 #@! TO.P,R5,1*
G04 #@! TO.N,Net-(C4-Pad1)*
X153000000Y-91900000D03*
G04 #@! TO.P,R5,2*
G04 #@! TO.N,Net-(Q1-Pad1)*
X153000000Y-94100000D03*
G04 #@! TD*
G04 #@! TO.P,R6,1*
G04 #@! TO.N,Net-(C4-Pad1)*
X153000000Y-88400000D03*
G04 #@! TO.P,R6,2*
G04 #@! TO.N,Net-(C5-Pad1)*
X153000000Y-86200000D03*
G04 #@! TD*
D17*
G04 #@! TO.P,C4,1*
G04 #@! TO.N,Net-(C4-Pad1)*
X150000000Y-86500000D03*
G04 #@! TO.P,C4,2*
G04 #@! TO.N,/RV_6*
X150000000Y-88500000D03*
G04 #@! TD*
D18*
G04 #@! TO.P,C3,1*
G04 #@! TO.N,Net-(C3-Pad1)*
X150003920Y-93893402D03*
G04 #@! TO.P,C3,2*
G04 #@! TO.N,Earth*
X150003920Y-91145122D03*
G04 #@! TD*
D19*
G04 #@! TO.P,C1,2*
G04 #@! TO.N,/IN*
X150003920Y-102271302D03*
G04 #@! TO.P,C1,1*
G04 #@! TO.N,Net-(C1-Pad1)*
X150003920Y-99919262D03*
G04 #@! TD*
D20*
G04 #@! TO.P,J1,2*
G04 #@! TO.N,/IN*
X160560000Y-105800000D03*
D21*
G04 #@! TO.P,J1,1*
G04 #@! TO.N,Earth*
X163100000Y-105800000D03*
G04 #@! TD*
D20*
G04 #@! TO.P,J2,4*
G04 #@! TO.N,/RV_5*
X163120000Y-87100000D03*
G04 #@! TO.P,J2,3*
G04 #@! TO.N,VCC*
X160580000Y-87100000D03*
G04 #@! TO.P,J2,2*
G04 #@! TO.N,/Vref*
X158040000Y-87100000D03*
D21*
G04 #@! TO.P,J2,1*
G04 #@! TO.N,Earth*
X155500000Y-87100000D03*
G04 #@! TD*
D11*
G04 #@! TO.P,C6,1*
G04 #@! TO.N,Net-(C5-Pad1)*
X143700000Y-105600000D03*
G04 #@! TO.P,C6,2*
G04 #@! TO.N,/RV_1*
X138700000Y-105600000D03*
G04 #@! TD*
D22*
G04 #@! TO.N,Earth*
X150400000Y-104600000D03*
X147000000Y-98600000D03*
X147000000Y-90700000D03*
G04 #@! TO.N,Net-(Q1-Pad2)*
X147000000Y-95700000D03*
G04 #@! TD*
D23*
G04 #@! TO.N,Net-(C1-Pad1)*
X150076020Y-99800000D02*
X150000000Y-99723980D01*
X153000000Y-99800000D02*
X150076020Y-99800000D01*
X158200000Y-100200000D02*
X157800000Y-99800000D01*
X156150000Y-99800000D02*
X156000000Y-99950000D01*
X157800000Y-99800000D02*
X156150000Y-99800000D01*
X158200000Y-100900000D02*
X158200000Y-100200000D01*
X155850000Y-99800000D02*
X156000000Y-99950000D01*
X153000000Y-99800000D02*
X155850000Y-99800000D01*
D24*
G04 #@! TO.N,/IN*
X149923980Y-102000000D02*
X150000000Y-102076020D01*
X147000000Y-102000000D02*
X149923980Y-102000000D01*
X159357919Y-105800000D02*
X160560000Y-105800000D01*
X153658348Y-105800000D02*
X159357919Y-105800000D01*
X150129650Y-102271302D02*
X153658348Y-105800000D01*
X150003920Y-102271302D02*
X150129650Y-102271302D01*
D23*
G04 #@! TO.N,Earth*
X149200000Y-104600000D02*
X150400000Y-104600000D01*
X147000000Y-99800000D02*
X147000000Y-98600000D01*
D24*
X147000000Y-91900000D02*
X147000000Y-90700000D01*
X149449042Y-91700000D02*
X150003920Y-91145122D01*
X147000000Y-91900000D02*
X147200000Y-91700000D01*
X147200000Y-91700000D02*
X149449042Y-91700000D01*
D23*
G04 #@! TO.N,Net-(C3-Pad1)*
X151054490Y-93893402D02*
X150003920Y-93893402D01*
X151897893Y-93049999D02*
X151054490Y-93893402D01*
X155431766Y-93049999D02*
X151897893Y-93049999D01*
X155481767Y-93100000D02*
X155431766Y-93049999D01*
X156500000Y-93100000D02*
X155481767Y-93100000D01*
G04 #@! TO.N,Net-(C4-Pad1)*
X150100000Y-86400000D02*
X151100000Y-86400000D01*
X151100000Y-86400000D02*
X151700000Y-87000000D01*
X151700000Y-87000000D02*
X151700000Y-87800000D01*
X151700000Y-87800000D02*
X152300000Y-88400000D01*
X152300000Y-88400000D02*
X153000000Y-88400000D01*
X152800000Y-88600000D02*
X153000000Y-88400000D01*
X153000000Y-88250000D02*
X153000000Y-88400000D01*
X153000000Y-88400000D02*
X153000000Y-89300000D01*
X153000000Y-89300000D02*
X153000000Y-91900000D01*
G04 #@! TO.N,/RV_6*
X144000000Y-92750000D02*
X144000000Y-91477208D01*
X149075000Y-88500000D02*
X150000000Y-88500000D01*
X144000000Y-91477208D02*
X146977208Y-88500000D01*
X146977208Y-88500000D02*
X149075000Y-88500000D01*
G04 #@! TO.N,Net-(C5-Pad1)*
X152250000Y-86200000D02*
X153000000Y-86200000D01*
X151599999Y-85549999D02*
X152250000Y-86200000D01*
X145750001Y-85549999D02*
X151599999Y-85549999D01*
X143900000Y-87400000D02*
X145750001Y-85549999D01*
D24*
G04 #@! TO.N,VCC*
X163000000Y-98900000D02*
X163000000Y-99800000D01*
X160580000Y-87100000D02*
X163000000Y-89520000D01*
X163000000Y-89520000D02*
X163000000Y-98900000D01*
D23*
G04 #@! TO.N,Net-(Q1-Pad1)*
X153000000Y-94100000D02*
X153200000Y-94300000D01*
X162600000Y-102000000D02*
X163000000Y-102000000D01*
X162850000Y-101850000D02*
X163000000Y-102000000D01*
X160600000Y-101850000D02*
X162850000Y-101850000D01*
X154100000Y-94100000D02*
X153000000Y-94100000D01*
X159300000Y-99300000D02*
X154100000Y-94100000D01*
X159300000Y-101300000D02*
X159300000Y-99300000D01*
X160600000Y-101850000D02*
X159850000Y-101850000D01*
X159850000Y-101850000D02*
X159300000Y-101300000D01*
G04 #@! TO.N,Net-(Q1-Pad2)*
X160600000Y-99900000D02*
X160550000Y-99950000D01*
X160550000Y-99950000D02*
X160600000Y-99950000D01*
X159040000Y-93100000D02*
X161580000Y-93100000D01*
X161600000Y-93120000D02*
X161580000Y-93100000D01*
X161600000Y-98000000D02*
X161600000Y-93120000D01*
X160600000Y-99950000D02*
X160600000Y-99000000D01*
X160600000Y-99000000D02*
X161600000Y-98000000D01*
D24*
X147000000Y-95700000D02*
X147000000Y-94100000D01*
G04 #@! TO.N,/RV_2*
X139000000Y-96500000D02*
X142750000Y-100250000D01*
X142750000Y-100250000D02*
X144000000Y-100250000D01*
X139000000Y-92750000D02*
X139000000Y-94022792D01*
X139000000Y-94022792D02*
X139000000Y-96500000D01*
X139000000Y-87500000D02*
X138900000Y-87400000D01*
X139000000Y-92750000D02*
X139000000Y-87500000D01*
G04 #@! TO.N,/RV_1*
X139000000Y-105300000D02*
X138700000Y-105600000D01*
X146100000Y-104600000D02*
X147000000Y-104600000D01*
X144900000Y-103400000D02*
X146100000Y-104600000D01*
X139000000Y-103400000D02*
X144900000Y-103400000D01*
X139000000Y-103400000D02*
X139000000Y-105300000D01*
X139000000Y-100250000D02*
X139000000Y-103400000D01*
G04 #@! TD*
D23*
G04 #@! TO.N,/Vref*
G36*
X144256709Y-86194763D02*
X144148640Y-86150000D01*
X143651360Y-86150000D01*
X143191932Y-86340301D01*
X142840301Y-86691932D01*
X142650000Y-87151360D01*
X142650000Y-87648640D01*
X142840301Y-88108068D01*
X143191932Y-88459699D01*
X143651360Y-88650000D01*
X144148640Y-88650000D01*
X144608068Y-88459699D01*
X144959699Y-88108068D01*
X145150000Y-87648640D01*
X145150000Y-87151360D01*
X145105237Y-87043291D01*
X145998530Y-86149999D01*
X148916184Y-86149999D01*
X148916184Y-87000000D01*
X148951109Y-87175581D01*
X149050568Y-87324432D01*
X149199419Y-87423891D01*
X149375000Y-87458816D01*
X150625000Y-87458816D01*
X150800581Y-87423891D01*
X150949432Y-87324432D01*
X151040144Y-87188672D01*
X151100000Y-87248528D01*
X151100000Y-87740914D01*
X151088247Y-87800000D01*
X151100000Y-87859086D01*
X151100000Y-87859091D01*
X151130367Y-88011753D01*
X151134814Y-88034108D01*
X151222870Y-88165892D01*
X151267426Y-88232575D01*
X151317519Y-88266046D01*
X151833952Y-88782480D01*
X151867425Y-88832575D01*
X152065892Y-88965187D01*
X152091184Y-88970218D01*
X152091184Y-89000000D01*
X152126109Y-89175581D01*
X152225568Y-89324432D01*
X152374419Y-89423891D01*
X152400000Y-89428979D01*
X152400001Y-90871021D01*
X152374419Y-90876109D01*
X152225568Y-90975568D01*
X152126109Y-91124419D01*
X152091184Y-91300000D01*
X152091184Y-92449999D01*
X151956979Y-92449999D01*
X151897893Y-92438246D01*
X151838806Y-92449999D01*
X151838802Y-92449999D01*
X151663785Y-92484812D01*
X151465318Y-92617424D01*
X151431846Y-92667518D01*
X151208000Y-92891365D01*
X151178381Y-92742461D01*
X151078922Y-92593610D01*
X150967652Y-92519262D01*
X151078922Y-92444914D01*
X151178381Y-92296063D01*
X151213306Y-92120482D01*
X151213306Y-90169762D01*
X151178381Y-89994181D01*
X151078922Y-89845330D01*
X150930071Y-89745871D01*
X150754490Y-89710946D01*
X149253350Y-89710946D01*
X149077769Y-89745871D01*
X148928918Y-89845330D01*
X148829459Y-89994181D01*
X148794534Y-90169762D01*
X148794534Y-91000000D01*
X147790757Y-91000000D01*
X147774432Y-90975568D01*
X147714294Y-90935385D01*
X147750000Y-90849184D01*
X147750000Y-90550816D01*
X147635819Y-90275159D01*
X147424841Y-90064181D01*
X147149184Y-89950000D01*
X146850816Y-89950000D01*
X146575159Y-90064181D01*
X146364181Y-90275159D01*
X146250000Y-90550816D01*
X146250000Y-90849184D01*
X146285706Y-90935385D01*
X146225568Y-90975568D01*
X146126109Y-91124419D01*
X146091184Y-91300000D01*
X146091184Y-92500000D01*
X146126109Y-92675581D01*
X146225568Y-92824432D01*
X146374419Y-92923891D01*
X146550000Y-92958816D01*
X147450000Y-92958816D01*
X147625581Y-92923891D01*
X147774432Y-92824432D01*
X147873891Y-92675581D01*
X147908816Y-92500000D01*
X147908816Y-92400000D01*
X148898907Y-92400000D01*
X148928918Y-92444914D01*
X149040188Y-92519262D01*
X148928918Y-92593610D01*
X148829459Y-92742461D01*
X148794534Y-92918042D01*
X148794534Y-94868762D01*
X148829459Y-95044343D01*
X148928918Y-95193194D01*
X149077769Y-95292653D01*
X149253350Y-95327578D01*
X150754490Y-95327578D01*
X150930071Y-95292653D01*
X151078922Y-95193194D01*
X151178381Y-95044343D01*
X151213306Y-94868762D01*
X151213306Y-94473565D01*
X151288598Y-94458589D01*
X151487065Y-94325977D01*
X151520538Y-94275881D01*
X152091184Y-93705236D01*
X152091184Y-94700000D01*
X152126109Y-94875581D01*
X152225568Y-95024432D01*
X152374419Y-95123891D01*
X152550000Y-95158816D01*
X153450000Y-95158816D01*
X153625581Y-95123891D01*
X153774432Y-95024432D01*
X153873891Y-94875581D01*
X153899302Y-94747829D01*
X158700001Y-99548530D01*
X158700001Y-99868334D01*
X158632575Y-99767425D01*
X158582481Y-99733953D01*
X158266048Y-99417521D01*
X158232575Y-99367425D01*
X158034108Y-99234813D01*
X157859091Y-99200000D01*
X157859086Y-99200000D01*
X157800000Y-99188247D01*
X157740914Y-99200000D01*
X156803979Y-99200000D01*
X156798891Y-99174419D01*
X156699432Y-99025568D01*
X156550581Y-98926109D01*
X156375000Y-98891184D01*
X155625000Y-98891184D01*
X155449419Y-98926109D01*
X155300568Y-99025568D01*
X155201109Y-99174419D01*
X155196021Y-99200000D01*
X153908816Y-99200000D01*
X153873891Y-99024419D01*
X153774432Y-98875568D01*
X153625581Y-98776109D01*
X153450000Y-98741184D01*
X152550000Y-98741184D01*
X152374419Y-98776109D01*
X152225568Y-98875568D01*
X152126109Y-99024419D01*
X152091184Y-99200000D01*
X151363166Y-99200000D01*
X151363166Y-99144562D01*
X151328241Y-98968981D01*
X151228782Y-98820130D01*
X151079931Y-98720671D01*
X150904350Y-98685746D01*
X149103490Y-98685746D01*
X148927909Y-98720671D01*
X148779058Y-98820130D01*
X148679599Y-98968981D01*
X148644674Y-99144562D01*
X148644674Y-100693962D01*
X148679599Y-100869543D01*
X148779058Y-101018394D01*
X148894129Y-101095282D01*
X148779058Y-101172170D01*
X148693645Y-101300000D01*
X147888925Y-101300000D01*
X147873891Y-101224419D01*
X147774432Y-101075568D01*
X147625581Y-100976109D01*
X147450000Y-100941184D01*
X146550000Y-100941184D01*
X146374419Y-100976109D01*
X146225568Y-101075568D01*
X146126109Y-101224419D01*
X146091184Y-101400000D01*
X146091184Y-102600000D01*
X146126109Y-102775581D01*
X146225568Y-102924432D01*
X146374419Y-103023891D01*
X146550000Y-103058816D01*
X147450000Y-103058816D01*
X147625581Y-103023891D01*
X147774432Y-102924432D01*
X147873891Y-102775581D01*
X147888925Y-102700000D01*
X148644674Y-102700000D01*
X148644674Y-103046002D01*
X148679599Y-103221583D01*
X148779058Y-103370434D01*
X148927909Y-103469893D01*
X149103490Y-103504818D01*
X150373218Y-103504818D01*
X153114625Y-106246226D01*
X153153677Y-106304671D01*
X153212121Y-106343722D01*
X153385221Y-106459385D01*
X153431388Y-106468568D01*
X153589408Y-106500000D01*
X153589411Y-106500000D01*
X153658348Y-106513712D01*
X153727284Y-106500000D01*
X159464229Y-106500000D01*
X159622753Y-106737247D01*
X160052765Y-107024573D01*
X160431963Y-107100000D01*
X160688037Y-107100000D01*
X161067235Y-107024573D01*
X161497247Y-106737247D01*
X161784573Y-106307235D01*
X161791184Y-106273999D01*
X161791184Y-106650000D01*
X161826109Y-106825581D01*
X161925568Y-106974432D01*
X162074419Y-107073891D01*
X162250000Y-107108816D01*
X163950000Y-107108816D01*
X164125581Y-107073891D01*
X164274432Y-106974432D01*
X164373891Y-106825581D01*
X164408816Y-106650000D01*
X164408816Y-104950000D01*
X164373891Y-104774419D01*
X164274432Y-104625568D01*
X164125581Y-104526109D01*
X163950000Y-104491184D01*
X162250000Y-104491184D01*
X162074419Y-104526109D01*
X161925568Y-104625568D01*
X161826109Y-104774419D01*
X161791184Y-104950000D01*
X161791184Y-105326001D01*
X161784573Y-105292765D01*
X161497247Y-104862753D01*
X161067235Y-104575427D01*
X160688037Y-104500000D01*
X160431963Y-104500000D01*
X160052765Y-104575427D01*
X159622753Y-104862753D01*
X159464229Y-105100000D01*
X153948297Y-105100000D01*
X151363166Y-102514870D01*
X151363166Y-102262500D01*
X152100000Y-102262500D01*
X152100000Y-102689511D01*
X152168509Y-102854905D01*
X152295096Y-102981492D01*
X152460490Y-103050000D01*
X152737500Y-103050000D01*
X152850000Y-102937500D01*
X152850000Y-102150000D01*
X153150000Y-102150000D01*
X153150000Y-102937500D01*
X153262500Y-103050000D01*
X153539510Y-103050000D01*
X153704904Y-102981492D01*
X153831491Y-102854905D01*
X153900000Y-102689511D01*
X153900000Y-102262500D01*
X153787500Y-102150000D01*
X153150000Y-102150000D01*
X152850000Y-102150000D01*
X152212500Y-102150000D01*
X152100000Y-102262500D01*
X151363166Y-102262500D01*
X151363166Y-102112500D01*
X155175000Y-102112500D01*
X155175000Y-102539511D01*
X155243509Y-102704905D01*
X155370096Y-102831492D01*
X155535490Y-102900000D01*
X155737500Y-102900000D01*
X155850000Y-102787500D01*
X155850000Y-102000000D01*
X156150000Y-102000000D01*
X156150000Y-102787500D01*
X156262500Y-102900000D01*
X156464510Y-102900000D01*
X156629904Y-102831492D01*
X156756491Y-102704905D01*
X156825000Y-102539511D01*
X156825000Y-102112500D01*
X156712500Y-102000000D01*
X156150000Y-102000000D01*
X155850000Y-102000000D01*
X155287500Y-102000000D01*
X155175000Y-102112500D01*
X151363166Y-102112500D01*
X151363166Y-101496602D01*
X151328241Y-101321021D01*
X151321204Y-101310489D01*
X152100000Y-101310489D01*
X152100000Y-101737500D01*
X152212500Y-101850000D01*
X152850000Y-101850000D01*
X152850000Y-101062500D01*
X153150000Y-101062500D01*
X153150000Y-101850000D01*
X153787500Y-101850000D01*
X153900000Y-101737500D01*
X153900000Y-101310489D01*
X153831491Y-101145095D01*
X153704904Y-101018508D01*
X153539510Y-100950000D01*
X153262500Y-100950000D01*
X153150000Y-101062500D01*
X152850000Y-101062500D01*
X152737500Y-100950000D01*
X152460490Y-100950000D01*
X152295096Y-101018508D01*
X152168509Y-101145095D01*
X152100000Y-101310489D01*
X151321204Y-101310489D01*
X151228782Y-101172170D01*
X151113711Y-101095282D01*
X151228782Y-101018394D01*
X151328241Y-100869543D01*
X151363166Y-100693962D01*
X151363166Y-100400000D01*
X152091184Y-100400000D01*
X152126109Y-100575581D01*
X152225568Y-100724432D01*
X152374419Y-100823891D01*
X152550000Y-100858816D01*
X153450000Y-100858816D01*
X153625581Y-100823891D01*
X153774432Y-100724432D01*
X153873891Y-100575581D01*
X153908816Y-100400000D01*
X155166184Y-100400000D01*
X155166184Y-100550000D01*
X155201109Y-100725581D01*
X155300568Y-100874432D01*
X155338696Y-100899908D01*
X155243509Y-100995095D01*
X155175000Y-101160489D01*
X155175000Y-101587500D01*
X155287500Y-101700000D01*
X155850000Y-101700000D01*
X155850000Y-101680000D01*
X156150000Y-101680000D01*
X156150000Y-101700000D01*
X156712500Y-101700000D01*
X156825000Y-101587500D01*
X156825000Y-101160489D01*
X156756491Y-100995095D01*
X156661304Y-100899908D01*
X156699432Y-100874432D01*
X156798891Y-100725581D01*
X156833816Y-100550000D01*
X156833816Y-100400000D01*
X157311075Y-100400000D01*
X157291184Y-100500000D01*
X157291184Y-101300000D01*
X157326109Y-101475581D01*
X157425568Y-101624432D01*
X157574419Y-101723891D01*
X157750000Y-101758816D01*
X158650000Y-101758816D01*
X158825581Y-101723891D01*
X158850498Y-101707242D01*
X158867425Y-101732575D01*
X158917521Y-101766048D01*
X159383952Y-102232480D01*
X159417425Y-102282575D01*
X159615892Y-102415187D01*
X159734994Y-102438878D01*
X159825568Y-102574432D01*
X159974419Y-102673891D01*
X160150000Y-102708816D01*
X161050000Y-102708816D01*
X161225581Y-102673891D01*
X161374432Y-102574432D01*
X161457575Y-102450000D01*
X162091184Y-102450000D01*
X162091184Y-102600000D01*
X162126109Y-102775581D01*
X162225568Y-102924432D01*
X162374419Y-103023891D01*
X162550000Y-103058816D01*
X163450000Y-103058816D01*
X163625581Y-103023891D01*
X163774432Y-102924432D01*
X163873891Y-102775581D01*
X163908816Y-102600000D01*
X163908816Y-101400000D01*
X163873891Y-101224419D01*
X163774432Y-101075568D01*
X163625581Y-100976109D01*
X163450000Y-100941184D01*
X162550000Y-100941184D01*
X162374419Y-100976109D01*
X162225568Y-101075568D01*
X162126109Y-101224419D01*
X162121021Y-101250000D01*
X161457575Y-101250000D01*
X161374432Y-101125568D01*
X161225581Y-101026109D01*
X161050000Y-100991184D01*
X160150000Y-100991184D01*
X159974419Y-101026109D01*
X159914604Y-101066076D01*
X159900000Y-101051473D01*
X159900000Y-100724166D01*
X159974419Y-100773891D01*
X160150000Y-100808816D01*
X161050000Y-100808816D01*
X161225581Y-100773891D01*
X161374432Y-100674432D01*
X161473891Y-100525581D01*
X161508816Y-100350000D01*
X161508816Y-99550000D01*
X161473891Y-99374419D01*
X161374432Y-99225568D01*
X161283631Y-99164897D01*
X161982484Y-98466044D01*
X162032575Y-98432575D01*
X162066045Y-98382484D01*
X162066048Y-98382481D01*
X162165187Y-98234108D01*
X162174699Y-98186287D01*
X162200000Y-98059091D01*
X162200000Y-98059088D01*
X162211753Y-98000000D01*
X162200000Y-97940912D01*
X162200000Y-94109586D01*
X162242752Y-94091878D01*
X162300000Y-94034630D01*
X162300001Y-98825833D01*
X162225568Y-98875568D01*
X162126109Y-99024419D01*
X162091184Y-99200000D01*
X162091184Y-100400000D01*
X162126109Y-100575581D01*
X162225568Y-100724432D01*
X162374419Y-100823891D01*
X162550000Y-100858816D01*
X163450000Y-100858816D01*
X163625581Y-100823891D01*
X163774432Y-100724432D01*
X163873891Y-100575581D01*
X163908816Y-100400000D01*
X163908816Y-99200000D01*
X163873891Y-99024419D01*
X163774432Y-98875568D01*
X163700000Y-98825834D01*
X163700000Y-89588935D01*
X163713712Y-89520000D01*
X163700000Y-89451065D01*
X163700000Y-89451060D01*
X163659385Y-89246874D01*
X163561246Y-89100000D01*
X163543722Y-89073773D01*
X163543720Y-89073771D01*
X163504670Y-89015329D01*
X163446228Y-88976279D01*
X162839652Y-88369704D01*
X162991963Y-88400000D01*
X163248037Y-88400000D01*
X163627235Y-88324573D01*
X164057247Y-88037247D01*
X164344573Y-87607235D01*
X164445468Y-87100000D01*
X164344573Y-86592765D01*
X164057247Y-86162753D01*
X163627235Y-85875427D01*
X163248037Y-85800000D01*
X162991963Y-85800000D01*
X162612765Y-85875427D01*
X162182753Y-86162753D01*
X161895427Y-86592765D01*
X161850000Y-86821143D01*
X161804573Y-86592765D01*
X161517247Y-86162753D01*
X161087235Y-85875427D01*
X160708037Y-85800000D01*
X160451963Y-85800000D01*
X160072765Y-85875427D01*
X159642753Y-86162753D01*
X159355427Y-86592765D01*
X159284369Y-86949998D01*
X159218831Y-86949998D01*
X159291966Y-86749838D01*
X159062665Y-86297386D01*
X158677672Y-85967124D01*
X158390160Y-85848046D01*
X158190000Y-85922012D01*
X158190000Y-86950000D01*
X158210000Y-86950000D01*
X158210000Y-87250000D01*
X158190000Y-87250000D01*
X158190000Y-88277988D01*
X158390160Y-88351954D01*
X158677672Y-88232876D01*
X159062665Y-87902614D01*
X159291966Y-87450162D01*
X159218831Y-87250002D01*
X159284369Y-87250002D01*
X159355427Y-87607235D01*
X159642753Y-88037247D01*
X160072765Y-88324573D01*
X160451963Y-88400000D01*
X160708037Y-88400000D01*
X160859854Y-88369802D01*
X162300000Y-89809949D01*
X162300000Y-92165370D01*
X162242752Y-92108122D01*
X161812728Y-91930000D01*
X161347272Y-91930000D01*
X160917248Y-92108122D01*
X160588122Y-92437248D01*
X160562129Y-92500000D01*
X160057871Y-92500000D01*
X160031878Y-92437248D01*
X159702752Y-92108122D01*
X159272728Y-91930000D01*
X158807272Y-91930000D01*
X158377248Y-92108122D01*
X158048122Y-92437248D01*
X157870000Y-92867272D01*
X157870000Y-93332728D01*
X158048122Y-93762752D01*
X158377248Y-94091878D01*
X158807272Y-94270000D01*
X159272728Y-94270000D01*
X159702752Y-94091878D01*
X160031878Y-93762752D01*
X160057871Y-93700000D01*
X160562129Y-93700000D01*
X160588122Y-93762752D01*
X160917248Y-94091878D01*
X161000001Y-94126155D01*
X161000000Y-97751471D01*
X160217519Y-98533954D01*
X160167426Y-98567425D01*
X160133954Y-98617519D01*
X160133953Y-98617520D01*
X160034814Y-98765892D01*
X159988247Y-99000000D01*
X160000001Y-99059091D01*
X160000001Y-99121020D01*
X159974419Y-99126109D01*
X159888574Y-99183469D01*
X159865187Y-99065892D01*
X159766048Y-98917519D01*
X159766045Y-98917516D01*
X159732575Y-98867425D01*
X159682484Y-98833955D01*
X154566049Y-93717522D01*
X154532575Y-93667425D01*
X154506495Y-93649999D01*
X155224929Y-93649999D01*
X155247659Y-93665187D01*
X155422676Y-93700000D01*
X155422680Y-93700000D01*
X155481766Y-93711753D01*
X155486599Y-93710792D01*
X155508122Y-93762752D01*
X155837248Y-94091878D01*
X156267272Y-94270000D01*
X156732728Y-94270000D01*
X157162752Y-94091878D01*
X157491878Y-93762752D01*
X157670000Y-93332728D01*
X157670000Y-92867272D01*
X157491878Y-92437248D01*
X157162752Y-92108122D01*
X156732728Y-91930000D01*
X156267272Y-91930000D01*
X155837248Y-92108122D01*
X155508122Y-92437248D01*
X155501928Y-92452201D01*
X155490857Y-92449999D01*
X155490852Y-92449999D01*
X155431766Y-92438246D01*
X155372680Y-92449999D01*
X153908816Y-92449999D01*
X153908816Y-91300000D01*
X153873891Y-91124419D01*
X153774432Y-90975568D01*
X153625581Y-90876109D01*
X153600000Y-90871021D01*
X153600000Y-89428979D01*
X153625581Y-89423891D01*
X153774432Y-89324432D01*
X153873891Y-89175581D01*
X153908816Y-89000000D01*
X153908816Y-87800000D01*
X153873891Y-87624419D01*
X153774432Y-87475568D01*
X153625581Y-87376109D01*
X153450000Y-87341184D01*
X152550000Y-87341184D01*
X152374419Y-87376109D01*
X152300000Y-87425834D01*
X152300000Y-87174166D01*
X152374419Y-87223891D01*
X152550000Y-87258816D01*
X153450000Y-87258816D01*
X153625581Y-87223891D01*
X153774432Y-87124432D01*
X153873891Y-86975581D01*
X153908816Y-86800000D01*
X153908816Y-86250000D01*
X154191184Y-86250000D01*
X154191184Y-87950000D01*
X154226109Y-88125581D01*
X154325568Y-88274432D01*
X154474419Y-88373891D01*
X154650000Y-88408816D01*
X156350000Y-88408816D01*
X156525581Y-88373891D01*
X156674432Y-88274432D01*
X156773891Y-88125581D01*
X156808816Y-87950000D01*
X156808816Y-87491169D01*
X157017335Y-87902614D01*
X157402328Y-88232876D01*
X157689840Y-88351954D01*
X157890000Y-88277988D01*
X157890000Y-87250000D01*
X157870000Y-87250000D01*
X157870000Y-86950000D01*
X157890000Y-86950000D01*
X157890000Y-85922012D01*
X157689840Y-85848046D01*
X157402328Y-85967124D01*
X157017335Y-86297386D01*
X156808816Y-86708831D01*
X156808816Y-86250000D01*
X156773891Y-86074419D01*
X156674432Y-85925568D01*
X156525581Y-85826109D01*
X156350000Y-85791184D01*
X154650000Y-85791184D01*
X154474419Y-85826109D01*
X154325568Y-85925568D01*
X154226109Y-86074419D01*
X154191184Y-86250000D01*
X153908816Y-86250000D01*
X153908816Y-85600000D01*
X153893898Y-85525000D01*
X164475001Y-85525000D01*
X164475000Y-107475000D01*
X137525000Y-107475000D01*
X137525000Y-106029706D01*
X137640301Y-106308068D01*
X137991932Y-106659699D01*
X138451360Y-106850000D01*
X138948640Y-106850000D01*
X139408068Y-106659699D01*
X139759699Y-106308068D01*
X139950000Y-105848640D01*
X139950000Y-105351360D01*
X142450000Y-105351360D01*
X142450000Y-105848640D01*
X142640301Y-106308068D01*
X142991932Y-106659699D01*
X143451360Y-106850000D01*
X143948640Y-106850000D01*
X144408068Y-106659699D01*
X144759699Y-106308068D01*
X144950000Y-105848640D01*
X144950000Y-105351360D01*
X144759699Y-104891932D01*
X144408068Y-104540301D01*
X143948640Y-104350000D01*
X143451360Y-104350000D01*
X142991932Y-104540301D01*
X142640301Y-104891932D01*
X142450000Y-105351360D01*
X139950000Y-105351360D01*
X139759699Y-104891932D01*
X139700000Y-104832233D01*
X139700000Y-104100000D01*
X144610052Y-104100000D01*
X145556277Y-105046226D01*
X145595329Y-105104671D01*
X145826874Y-105259385D01*
X146025033Y-105298801D01*
X146075568Y-105374432D01*
X146224419Y-105473891D01*
X146400000Y-105508816D01*
X147600000Y-105508816D01*
X147775581Y-105473891D01*
X147924432Y-105374432D01*
X148023891Y-105225581D01*
X148058816Y-105050000D01*
X148058816Y-104150000D01*
X148141184Y-104150000D01*
X148141184Y-105050000D01*
X148176109Y-105225581D01*
X148275568Y-105374432D01*
X148424419Y-105473891D01*
X148600000Y-105508816D01*
X149800000Y-105508816D01*
X149975581Y-105473891D01*
X150124432Y-105374432D01*
X150164615Y-105314294D01*
X150250816Y-105350000D01*
X150549184Y-105350000D01*
X150824841Y-105235819D01*
X151035819Y-105024841D01*
X151150000Y-104749184D01*
X151150000Y-104450816D01*
X151035819Y-104175159D01*
X150824841Y-103964181D01*
X150549184Y-103850000D01*
X150250816Y-103850000D01*
X150164615Y-103885706D01*
X150124432Y-103825568D01*
X149975581Y-103726109D01*
X149800000Y-103691184D01*
X148600000Y-103691184D01*
X148424419Y-103726109D01*
X148275568Y-103825568D01*
X148176109Y-103974419D01*
X148141184Y-104150000D01*
X148058816Y-104150000D01*
X148023891Y-103974419D01*
X147924432Y-103825568D01*
X147775581Y-103726109D01*
X147600000Y-103691184D01*
X146400000Y-103691184D01*
X146224419Y-103726109D01*
X146219407Y-103729458D01*
X145443724Y-102953776D01*
X145404671Y-102895329D01*
X145173126Y-102740615D01*
X144968940Y-102700000D01*
X144968935Y-102700000D01*
X144900000Y-102686288D01*
X144831065Y-102700000D01*
X139700000Y-102700000D01*
X139700000Y-101421280D01*
X139764714Y-101394475D01*
X140144475Y-101014714D01*
X140350000Y-100518532D01*
X140350000Y-99981468D01*
X140144475Y-99485286D01*
X139764714Y-99105525D01*
X139268532Y-98900000D01*
X138731468Y-98900000D01*
X138235286Y-99105525D01*
X137855525Y-99485286D01*
X137650000Y-99981468D01*
X137650000Y-100518532D01*
X137855525Y-101014714D01*
X138235286Y-101394475D01*
X138300000Y-101421281D01*
X138300001Y-103331055D01*
X138286287Y-103400000D01*
X138300000Y-103468940D01*
X138300001Y-104412695D01*
X137991932Y-104540301D01*
X137640301Y-104891932D01*
X137525000Y-105170294D01*
X137525000Y-87151360D01*
X137650000Y-87151360D01*
X137650000Y-87648640D01*
X137840301Y-88108068D01*
X138191932Y-88459699D01*
X138300001Y-88504462D01*
X138300000Y-91578720D01*
X138235286Y-91605525D01*
X137855525Y-91985286D01*
X137650000Y-92481468D01*
X137650000Y-93018532D01*
X137855525Y-93514714D01*
X138235286Y-93894475D01*
X138300001Y-93921281D01*
X138300001Y-93953848D01*
X138300000Y-93953853D01*
X138300001Y-95328719D01*
X138235286Y-95355525D01*
X137855525Y-95735286D01*
X137650000Y-96231468D01*
X137650000Y-96768532D01*
X137855525Y-97264714D01*
X138235286Y-97644475D01*
X138731468Y-97850000D01*
X139268532Y-97850000D01*
X139333246Y-97823195D01*
X142206277Y-100696226D01*
X142245329Y-100754671D01*
X142476874Y-100909385D01*
X142681060Y-100950000D01*
X142681065Y-100950000D01*
X142750000Y-100963712D01*
X142818935Y-100950000D01*
X142828720Y-100950000D01*
X142855525Y-101014714D01*
X143235286Y-101394475D01*
X143731468Y-101600000D01*
X144268532Y-101600000D01*
X144764714Y-101394475D01*
X145144475Y-101014714D01*
X145350000Y-100518532D01*
X145350000Y-99981468D01*
X145144475Y-99485286D01*
X144859189Y-99200000D01*
X146091184Y-99200000D01*
X146091184Y-100400000D01*
X146126109Y-100575581D01*
X146225568Y-100724432D01*
X146374419Y-100823891D01*
X146550000Y-100858816D01*
X147450000Y-100858816D01*
X147625581Y-100823891D01*
X147774432Y-100724432D01*
X147873891Y-100575581D01*
X147908816Y-100400000D01*
X147908816Y-99200000D01*
X147873891Y-99024419D01*
X147774432Y-98875568D01*
X147714294Y-98835385D01*
X147750000Y-98749184D01*
X147750000Y-98450816D01*
X147635819Y-98175159D01*
X147424841Y-97964181D01*
X147149184Y-97850000D01*
X146850816Y-97850000D01*
X146575159Y-97964181D01*
X146364181Y-98175159D01*
X146250000Y-98450816D01*
X146250000Y-98749184D01*
X146285706Y-98835385D01*
X146225568Y-98875568D01*
X146126109Y-99024419D01*
X146091184Y-99200000D01*
X144859189Y-99200000D01*
X144764714Y-99105525D01*
X144268532Y-98900000D01*
X143731468Y-98900000D01*
X143235286Y-99105525D01*
X142915380Y-99425431D01*
X140323195Y-96833246D01*
X140350000Y-96768532D01*
X140350000Y-96231468D01*
X142650000Y-96231468D01*
X142650000Y-96768532D01*
X142855525Y-97264714D01*
X143235286Y-97644475D01*
X143731468Y-97850000D01*
X144268532Y-97850000D01*
X144764714Y-97644475D01*
X145144475Y-97264714D01*
X145350000Y-96768532D01*
X145350000Y-96231468D01*
X145144475Y-95735286D01*
X144764714Y-95355525D01*
X144268532Y-95150000D01*
X143731468Y-95150000D01*
X143235286Y-95355525D01*
X142855525Y-95735286D01*
X142650000Y-96231468D01*
X140350000Y-96231468D01*
X140144475Y-95735286D01*
X139764714Y-95355525D01*
X139700000Y-95328720D01*
X139700000Y-93921280D01*
X139764714Y-93894475D01*
X140144475Y-93514714D01*
X140350000Y-93018532D01*
X140350000Y-92481468D01*
X142650000Y-92481468D01*
X142650000Y-93018532D01*
X142855525Y-93514714D01*
X143235286Y-93894475D01*
X143731468Y-94100000D01*
X144268532Y-94100000D01*
X144764714Y-93894475D01*
X145144475Y-93514714D01*
X145150569Y-93500000D01*
X146091184Y-93500000D01*
X146091184Y-94700000D01*
X146126109Y-94875581D01*
X146225568Y-95024432D01*
X146300000Y-95074166D01*
X146300000Y-95430105D01*
X146250000Y-95550816D01*
X146250000Y-95849184D01*
X146364181Y-96124841D01*
X146575159Y-96335819D01*
X146850816Y-96450000D01*
X147149184Y-96450000D01*
X147424841Y-96335819D01*
X147635819Y-96124841D01*
X147750000Y-95849184D01*
X147750000Y-95550816D01*
X147700000Y-95430105D01*
X147700000Y-95074166D01*
X147774432Y-95024432D01*
X147873891Y-94875581D01*
X147908816Y-94700000D01*
X147908816Y-93500000D01*
X147873891Y-93324419D01*
X147774432Y-93175568D01*
X147625581Y-93076109D01*
X147450000Y-93041184D01*
X146550000Y-93041184D01*
X146374419Y-93076109D01*
X146225568Y-93175568D01*
X146126109Y-93324419D01*
X146091184Y-93500000D01*
X145150569Y-93500000D01*
X145350000Y-93018532D01*
X145350000Y-92481468D01*
X145144475Y-91985286D01*
X144764714Y-91605525D01*
X144733245Y-91592490D01*
X147225736Y-89100000D01*
X148936075Y-89100000D01*
X148951109Y-89175581D01*
X149050568Y-89324432D01*
X149199419Y-89423891D01*
X149375000Y-89458816D01*
X150625000Y-89458816D01*
X150800581Y-89423891D01*
X150949432Y-89324432D01*
X151048891Y-89175581D01*
X151083816Y-89000000D01*
X151083816Y-88000000D01*
X151048891Y-87824419D01*
X150949432Y-87675568D01*
X150800581Y-87576109D01*
X150625000Y-87541184D01*
X149375000Y-87541184D01*
X149199419Y-87576109D01*
X149050568Y-87675568D01*
X148951109Y-87824419D01*
X148936075Y-87900000D01*
X147036294Y-87900000D01*
X146977208Y-87888247D01*
X146918121Y-87900000D01*
X146918117Y-87900000D01*
X146743100Y-87934813D01*
X146544633Y-88067425D01*
X146511161Y-88117519D01*
X143617520Y-91011161D01*
X143567426Y-91044633D01*
X143533954Y-91094727D01*
X143533953Y-91094728D01*
X143434814Y-91243100D01*
X143388247Y-91477208D01*
X143400001Y-91536299D01*
X143400001Y-91537298D01*
X143235286Y-91605525D01*
X142855525Y-91985286D01*
X142650000Y-92481468D01*
X140350000Y-92481468D01*
X140144475Y-91985286D01*
X139764714Y-91605525D01*
X139700000Y-91578720D01*
X139700000Y-88367767D01*
X139959699Y-88108068D01*
X140150000Y-87648640D01*
X140150000Y-87151360D01*
X139959699Y-86691932D01*
X139608068Y-86340301D01*
X139148640Y-86150000D01*
X138651360Y-86150000D01*
X138191932Y-86340301D01*
X137840301Y-86691932D01*
X137650000Y-87151360D01*
X137525000Y-87151360D01*
X137525000Y-85525000D01*
X144926471Y-85525000D01*
X144256709Y-86194763D01*
X144256709Y-86194763D01*
G37*
X144256709Y-86194763D02*
X144148640Y-86150000D01*
X143651360Y-86150000D01*
X143191932Y-86340301D01*
X142840301Y-86691932D01*
X142650000Y-87151360D01*
X142650000Y-87648640D01*
X142840301Y-88108068D01*
X143191932Y-88459699D01*
X143651360Y-88650000D01*
X144148640Y-88650000D01*
X144608068Y-88459699D01*
X144959699Y-88108068D01*
X145150000Y-87648640D01*
X145150000Y-87151360D01*
X145105237Y-87043291D01*
X145998530Y-86149999D01*
X148916184Y-86149999D01*
X148916184Y-87000000D01*
X148951109Y-87175581D01*
X149050568Y-87324432D01*
X149199419Y-87423891D01*
X149375000Y-87458816D01*
X150625000Y-87458816D01*
X150800581Y-87423891D01*
X150949432Y-87324432D01*
X151040144Y-87188672D01*
X151100000Y-87248528D01*
X151100000Y-87740914D01*
X151088247Y-87800000D01*
X151100000Y-87859086D01*
X151100000Y-87859091D01*
X151130367Y-88011753D01*
X151134814Y-88034108D01*
X151222870Y-88165892D01*
X151267426Y-88232575D01*
X151317519Y-88266046D01*
X151833952Y-88782480D01*
X151867425Y-88832575D01*
X152065892Y-88965187D01*
X152091184Y-88970218D01*
X152091184Y-89000000D01*
X152126109Y-89175581D01*
X152225568Y-89324432D01*
X152374419Y-89423891D01*
X152400000Y-89428979D01*
X152400001Y-90871021D01*
X152374419Y-90876109D01*
X152225568Y-90975568D01*
X152126109Y-91124419D01*
X152091184Y-91300000D01*
X152091184Y-92449999D01*
X151956979Y-92449999D01*
X151897893Y-92438246D01*
X151838806Y-92449999D01*
X151838802Y-92449999D01*
X151663785Y-92484812D01*
X151465318Y-92617424D01*
X151431846Y-92667518D01*
X151208000Y-92891365D01*
X151178381Y-92742461D01*
X151078922Y-92593610D01*
X150967652Y-92519262D01*
X151078922Y-92444914D01*
X151178381Y-92296063D01*
X151213306Y-92120482D01*
X151213306Y-90169762D01*
X151178381Y-89994181D01*
X151078922Y-89845330D01*
X150930071Y-89745871D01*
X150754490Y-89710946D01*
X149253350Y-89710946D01*
X149077769Y-89745871D01*
X148928918Y-89845330D01*
X148829459Y-89994181D01*
X148794534Y-90169762D01*
X148794534Y-91000000D01*
X147790757Y-91000000D01*
X147774432Y-90975568D01*
X147714294Y-90935385D01*
X147750000Y-90849184D01*
X147750000Y-90550816D01*
X147635819Y-90275159D01*
X147424841Y-90064181D01*
X147149184Y-89950000D01*
X146850816Y-89950000D01*
X146575159Y-90064181D01*
X146364181Y-90275159D01*
X146250000Y-90550816D01*
X146250000Y-90849184D01*
X146285706Y-90935385D01*
X146225568Y-90975568D01*
X146126109Y-91124419D01*
X146091184Y-91300000D01*
X146091184Y-92500000D01*
X146126109Y-92675581D01*
X146225568Y-92824432D01*
X146374419Y-92923891D01*
X146550000Y-92958816D01*
X147450000Y-92958816D01*
X147625581Y-92923891D01*
X147774432Y-92824432D01*
X147873891Y-92675581D01*
X147908816Y-92500000D01*
X147908816Y-92400000D01*
X148898907Y-92400000D01*
X148928918Y-92444914D01*
X149040188Y-92519262D01*
X148928918Y-92593610D01*
X148829459Y-92742461D01*
X148794534Y-92918042D01*
X148794534Y-94868762D01*
X148829459Y-95044343D01*
X148928918Y-95193194D01*
X149077769Y-95292653D01*
X149253350Y-95327578D01*
X150754490Y-95327578D01*
X150930071Y-95292653D01*
X151078922Y-95193194D01*
X151178381Y-95044343D01*
X151213306Y-94868762D01*
X151213306Y-94473565D01*
X151288598Y-94458589D01*
X151487065Y-94325977D01*
X151520538Y-94275881D01*
X152091184Y-93705236D01*
X152091184Y-94700000D01*
X152126109Y-94875581D01*
X152225568Y-95024432D01*
X152374419Y-95123891D01*
X152550000Y-95158816D01*
X153450000Y-95158816D01*
X153625581Y-95123891D01*
X153774432Y-95024432D01*
X153873891Y-94875581D01*
X153899302Y-94747829D01*
X158700001Y-99548530D01*
X158700001Y-99868334D01*
X158632575Y-99767425D01*
X158582481Y-99733953D01*
X158266048Y-99417521D01*
X158232575Y-99367425D01*
X158034108Y-99234813D01*
X157859091Y-99200000D01*
X157859086Y-99200000D01*
X157800000Y-99188247D01*
X157740914Y-99200000D01*
X156803979Y-99200000D01*
X156798891Y-99174419D01*
X156699432Y-99025568D01*
X156550581Y-98926109D01*
X156375000Y-98891184D01*
X155625000Y-98891184D01*
X155449419Y-98926109D01*
X155300568Y-99025568D01*
X155201109Y-99174419D01*
X155196021Y-99200000D01*
X153908816Y-99200000D01*
X153873891Y-99024419D01*
X153774432Y-98875568D01*
X153625581Y-98776109D01*
X153450000Y-98741184D01*
X152550000Y-98741184D01*
X152374419Y-98776109D01*
X152225568Y-98875568D01*
X152126109Y-99024419D01*
X152091184Y-99200000D01*
X151363166Y-99200000D01*
X151363166Y-99144562D01*
X151328241Y-98968981D01*
X151228782Y-98820130D01*
X151079931Y-98720671D01*
X150904350Y-98685746D01*
X149103490Y-98685746D01*
X148927909Y-98720671D01*
X148779058Y-98820130D01*
X148679599Y-98968981D01*
X148644674Y-99144562D01*
X148644674Y-100693962D01*
X148679599Y-100869543D01*
X148779058Y-101018394D01*
X148894129Y-101095282D01*
X148779058Y-101172170D01*
X148693645Y-101300000D01*
X147888925Y-101300000D01*
X147873891Y-101224419D01*
X147774432Y-101075568D01*
X147625581Y-100976109D01*
X147450000Y-100941184D01*
X146550000Y-100941184D01*
X146374419Y-100976109D01*
X146225568Y-101075568D01*
X146126109Y-101224419D01*
X146091184Y-101400000D01*
X146091184Y-102600000D01*
X146126109Y-102775581D01*
X146225568Y-102924432D01*
X146374419Y-103023891D01*
X146550000Y-103058816D01*
X147450000Y-103058816D01*
X147625581Y-103023891D01*
X147774432Y-102924432D01*
X147873891Y-102775581D01*
X147888925Y-102700000D01*
X148644674Y-102700000D01*
X148644674Y-103046002D01*
X148679599Y-103221583D01*
X148779058Y-103370434D01*
X148927909Y-103469893D01*
X149103490Y-103504818D01*
X150373218Y-103504818D01*
X153114625Y-106246226D01*
X153153677Y-106304671D01*
X153212121Y-106343722D01*
X153385221Y-106459385D01*
X153431388Y-106468568D01*
X153589408Y-106500000D01*
X153589411Y-106500000D01*
X153658348Y-106513712D01*
X153727284Y-106500000D01*
X159464229Y-106500000D01*
X159622753Y-106737247D01*
X160052765Y-107024573D01*
X160431963Y-107100000D01*
X160688037Y-107100000D01*
X161067235Y-107024573D01*
X161497247Y-106737247D01*
X161784573Y-106307235D01*
X161791184Y-106273999D01*
X161791184Y-106650000D01*
X161826109Y-106825581D01*
X161925568Y-106974432D01*
X162074419Y-107073891D01*
X162250000Y-107108816D01*
X163950000Y-107108816D01*
X164125581Y-107073891D01*
X164274432Y-106974432D01*
X164373891Y-106825581D01*
X164408816Y-106650000D01*
X164408816Y-104950000D01*
X164373891Y-104774419D01*
X164274432Y-104625568D01*
X164125581Y-104526109D01*
X163950000Y-104491184D01*
X162250000Y-104491184D01*
X162074419Y-104526109D01*
X161925568Y-104625568D01*
X161826109Y-104774419D01*
X161791184Y-104950000D01*
X161791184Y-105326001D01*
X161784573Y-105292765D01*
X161497247Y-104862753D01*
X161067235Y-104575427D01*
X160688037Y-104500000D01*
X160431963Y-104500000D01*
X160052765Y-104575427D01*
X159622753Y-104862753D01*
X159464229Y-105100000D01*
X153948297Y-105100000D01*
X151363166Y-102514870D01*
X151363166Y-102262500D01*
X152100000Y-102262500D01*
X152100000Y-102689511D01*
X152168509Y-102854905D01*
X152295096Y-102981492D01*
X152460490Y-103050000D01*
X152737500Y-103050000D01*
X152850000Y-102937500D01*
X152850000Y-102150000D01*
X153150000Y-102150000D01*
X153150000Y-102937500D01*
X153262500Y-103050000D01*
X153539510Y-103050000D01*
X153704904Y-102981492D01*
X153831491Y-102854905D01*
X153900000Y-102689511D01*
X153900000Y-102262500D01*
X153787500Y-102150000D01*
X153150000Y-102150000D01*
X152850000Y-102150000D01*
X152212500Y-102150000D01*
X152100000Y-102262500D01*
X151363166Y-102262500D01*
X151363166Y-102112500D01*
X155175000Y-102112500D01*
X155175000Y-102539511D01*
X155243509Y-102704905D01*
X155370096Y-102831492D01*
X155535490Y-102900000D01*
X155737500Y-102900000D01*
X155850000Y-102787500D01*
X155850000Y-102000000D01*
X156150000Y-102000000D01*
X156150000Y-102787500D01*
X156262500Y-102900000D01*
X156464510Y-102900000D01*
X156629904Y-102831492D01*
X156756491Y-102704905D01*
X156825000Y-102539511D01*
X156825000Y-102112500D01*
X156712500Y-102000000D01*
X156150000Y-102000000D01*
X155850000Y-102000000D01*
X155287500Y-102000000D01*
X155175000Y-102112500D01*
X151363166Y-102112500D01*
X151363166Y-101496602D01*
X151328241Y-101321021D01*
X151321204Y-101310489D01*
X152100000Y-101310489D01*
X152100000Y-101737500D01*
X152212500Y-101850000D01*
X152850000Y-101850000D01*
X152850000Y-101062500D01*
X153150000Y-101062500D01*
X153150000Y-101850000D01*
X153787500Y-101850000D01*
X153900000Y-101737500D01*
X153900000Y-101310489D01*
X153831491Y-101145095D01*
X153704904Y-101018508D01*
X153539510Y-100950000D01*
X153262500Y-100950000D01*
X153150000Y-101062500D01*
X152850000Y-101062500D01*
X152737500Y-100950000D01*
X152460490Y-100950000D01*
X152295096Y-101018508D01*
X152168509Y-101145095D01*
X152100000Y-101310489D01*
X151321204Y-101310489D01*
X151228782Y-101172170D01*
X151113711Y-101095282D01*
X151228782Y-101018394D01*
X151328241Y-100869543D01*
X151363166Y-100693962D01*
X151363166Y-100400000D01*
X152091184Y-100400000D01*
X152126109Y-100575581D01*
X152225568Y-100724432D01*
X152374419Y-100823891D01*
X152550000Y-100858816D01*
X153450000Y-100858816D01*
X153625581Y-100823891D01*
X153774432Y-100724432D01*
X153873891Y-100575581D01*
X153908816Y-100400000D01*
X155166184Y-100400000D01*
X155166184Y-100550000D01*
X155201109Y-100725581D01*
X155300568Y-100874432D01*
X155338696Y-100899908D01*
X155243509Y-100995095D01*
X155175000Y-101160489D01*
X155175000Y-101587500D01*
X155287500Y-101700000D01*
X155850000Y-101700000D01*
X155850000Y-101680000D01*
X156150000Y-101680000D01*
X156150000Y-101700000D01*
X156712500Y-101700000D01*
X156825000Y-101587500D01*
X156825000Y-101160489D01*
X156756491Y-100995095D01*
X156661304Y-100899908D01*
X156699432Y-100874432D01*
X156798891Y-100725581D01*
X156833816Y-100550000D01*
X156833816Y-100400000D01*
X157311075Y-100400000D01*
X157291184Y-100500000D01*
X157291184Y-101300000D01*
X157326109Y-101475581D01*
X157425568Y-101624432D01*
X157574419Y-101723891D01*
X157750000Y-101758816D01*
X158650000Y-101758816D01*
X158825581Y-101723891D01*
X158850498Y-101707242D01*
X158867425Y-101732575D01*
X158917521Y-101766048D01*
X159383952Y-102232480D01*
X159417425Y-102282575D01*
X159615892Y-102415187D01*
X159734994Y-102438878D01*
X159825568Y-102574432D01*
X159974419Y-102673891D01*
X160150000Y-102708816D01*
X161050000Y-102708816D01*
X161225581Y-102673891D01*
X161374432Y-102574432D01*
X161457575Y-102450000D01*
X162091184Y-102450000D01*
X162091184Y-102600000D01*
X162126109Y-102775581D01*
X162225568Y-102924432D01*
X162374419Y-103023891D01*
X162550000Y-103058816D01*
X163450000Y-103058816D01*
X163625581Y-103023891D01*
X163774432Y-102924432D01*
X163873891Y-102775581D01*
X163908816Y-102600000D01*
X163908816Y-101400000D01*
X163873891Y-101224419D01*
X163774432Y-101075568D01*
X163625581Y-100976109D01*
X163450000Y-100941184D01*
X162550000Y-100941184D01*
X162374419Y-100976109D01*
X162225568Y-101075568D01*
X162126109Y-101224419D01*
X162121021Y-101250000D01*
X161457575Y-101250000D01*
X161374432Y-101125568D01*
X161225581Y-101026109D01*
X161050000Y-100991184D01*
X160150000Y-100991184D01*
X159974419Y-101026109D01*
X159914604Y-101066076D01*
X159900000Y-101051473D01*
X159900000Y-100724166D01*
X159974419Y-100773891D01*
X160150000Y-100808816D01*
X161050000Y-100808816D01*
X161225581Y-100773891D01*
X161374432Y-100674432D01*
X161473891Y-100525581D01*
X161508816Y-100350000D01*
X161508816Y-99550000D01*
X161473891Y-99374419D01*
X161374432Y-99225568D01*
X161283631Y-99164897D01*
X161982484Y-98466044D01*
X162032575Y-98432575D01*
X162066045Y-98382484D01*
X162066048Y-98382481D01*
X162165187Y-98234108D01*
X162174699Y-98186287D01*
X162200000Y-98059091D01*
X162200000Y-98059088D01*
X162211753Y-98000000D01*
X162200000Y-97940912D01*
X162200000Y-94109586D01*
X162242752Y-94091878D01*
X162300000Y-94034630D01*
X162300001Y-98825833D01*
X162225568Y-98875568D01*
X162126109Y-99024419D01*
X162091184Y-99200000D01*
X162091184Y-100400000D01*
X162126109Y-100575581D01*
X162225568Y-100724432D01*
X162374419Y-100823891D01*
X162550000Y-100858816D01*
X163450000Y-100858816D01*
X163625581Y-100823891D01*
X163774432Y-100724432D01*
X163873891Y-100575581D01*
X163908816Y-100400000D01*
X163908816Y-99200000D01*
X163873891Y-99024419D01*
X163774432Y-98875568D01*
X163700000Y-98825834D01*
X163700000Y-89588935D01*
X163713712Y-89520000D01*
X163700000Y-89451065D01*
X163700000Y-89451060D01*
X163659385Y-89246874D01*
X163561246Y-89100000D01*
X163543722Y-89073773D01*
X163543720Y-89073771D01*
X163504670Y-89015329D01*
X163446228Y-88976279D01*
X162839652Y-88369704D01*
X162991963Y-88400000D01*
X163248037Y-88400000D01*
X163627235Y-88324573D01*
X164057247Y-88037247D01*
X164344573Y-87607235D01*
X164445468Y-87100000D01*
X164344573Y-86592765D01*
X164057247Y-86162753D01*
X163627235Y-85875427D01*
X163248037Y-85800000D01*
X162991963Y-85800000D01*
X162612765Y-85875427D01*
X162182753Y-86162753D01*
X161895427Y-86592765D01*
X161850000Y-86821143D01*
X161804573Y-86592765D01*
X161517247Y-86162753D01*
X161087235Y-85875427D01*
X160708037Y-85800000D01*
X160451963Y-85800000D01*
X160072765Y-85875427D01*
X159642753Y-86162753D01*
X159355427Y-86592765D01*
X159284369Y-86949998D01*
X159218831Y-86949998D01*
X159291966Y-86749838D01*
X159062665Y-86297386D01*
X158677672Y-85967124D01*
X158390160Y-85848046D01*
X158190000Y-85922012D01*
X158190000Y-86950000D01*
X158210000Y-86950000D01*
X158210000Y-87250000D01*
X158190000Y-87250000D01*
X158190000Y-88277988D01*
X158390160Y-88351954D01*
X158677672Y-88232876D01*
X159062665Y-87902614D01*
X159291966Y-87450162D01*
X159218831Y-87250002D01*
X159284369Y-87250002D01*
X159355427Y-87607235D01*
X159642753Y-88037247D01*
X160072765Y-88324573D01*
X160451963Y-88400000D01*
X160708037Y-88400000D01*
X160859854Y-88369802D01*
X162300000Y-89809949D01*
X162300000Y-92165370D01*
X162242752Y-92108122D01*
X161812728Y-91930000D01*
X161347272Y-91930000D01*
X160917248Y-92108122D01*
X160588122Y-92437248D01*
X160562129Y-92500000D01*
X160057871Y-92500000D01*
X160031878Y-92437248D01*
X159702752Y-92108122D01*
X159272728Y-91930000D01*
X158807272Y-91930000D01*
X158377248Y-92108122D01*
X158048122Y-92437248D01*
X157870000Y-92867272D01*
X157870000Y-93332728D01*
X158048122Y-93762752D01*
X158377248Y-94091878D01*
X158807272Y-94270000D01*
X159272728Y-94270000D01*
X159702752Y-94091878D01*
X160031878Y-93762752D01*
X160057871Y-93700000D01*
X160562129Y-93700000D01*
X160588122Y-93762752D01*
X160917248Y-94091878D01*
X161000001Y-94126155D01*
X161000000Y-97751471D01*
X160217519Y-98533954D01*
X160167426Y-98567425D01*
X160133954Y-98617519D01*
X160133953Y-98617520D01*
X160034814Y-98765892D01*
X159988247Y-99000000D01*
X160000001Y-99059091D01*
X160000001Y-99121020D01*
X159974419Y-99126109D01*
X159888574Y-99183469D01*
X159865187Y-99065892D01*
X159766048Y-98917519D01*
X159766045Y-98917516D01*
X159732575Y-98867425D01*
X159682484Y-98833955D01*
X154566049Y-93717522D01*
X154532575Y-93667425D01*
X154506495Y-93649999D01*
X155224929Y-93649999D01*
X155247659Y-93665187D01*
X155422676Y-93700000D01*
X155422680Y-93700000D01*
X155481766Y-93711753D01*
X155486599Y-93710792D01*
X155508122Y-93762752D01*
X155837248Y-94091878D01*
X156267272Y-94270000D01*
X156732728Y-94270000D01*
X157162752Y-94091878D01*
X157491878Y-93762752D01*
X157670000Y-93332728D01*
X157670000Y-92867272D01*
X157491878Y-92437248D01*
X157162752Y-92108122D01*
X156732728Y-91930000D01*
X156267272Y-91930000D01*
X155837248Y-92108122D01*
X155508122Y-92437248D01*
X155501928Y-92452201D01*
X155490857Y-92449999D01*
X155490852Y-92449999D01*
X155431766Y-92438246D01*
X155372680Y-92449999D01*
X153908816Y-92449999D01*
X153908816Y-91300000D01*
X153873891Y-91124419D01*
X153774432Y-90975568D01*
X153625581Y-90876109D01*
X153600000Y-90871021D01*
X153600000Y-89428979D01*
X153625581Y-89423891D01*
X153774432Y-89324432D01*
X153873891Y-89175581D01*
X153908816Y-89000000D01*
X153908816Y-87800000D01*
X153873891Y-87624419D01*
X153774432Y-87475568D01*
X153625581Y-87376109D01*
X153450000Y-87341184D01*
X152550000Y-87341184D01*
X152374419Y-87376109D01*
X152300000Y-87425834D01*
X152300000Y-87174166D01*
X152374419Y-87223891D01*
X152550000Y-87258816D01*
X153450000Y-87258816D01*
X153625581Y-87223891D01*
X153774432Y-87124432D01*
X153873891Y-86975581D01*
X153908816Y-86800000D01*
X153908816Y-86250000D01*
X154191184Y-86250000D01*
X154191184Y-87950000D01*
X154226109Y-88125581D01*
X154325568Y-88274432D01*
X154474419Y-88373891D01*
X154650000Y-88408816D01*
X156350000Y-88408816D01*
X156525581Y-88373891D01*
X156674432Y-88274432D01*
X156773891Y-88125581D01*
X156808816Y-87950000D01*
X156808816Y-87491169D01*
X157017335Y-87902614D01*
X157402328Y-88232876D01*
X157689840Y-88351954D01*
X157890000Y-88277988D01*
X157890000Y-87250000D01*
X157870000Y-87250000D01*
X157870000Y-86950000D01*
X157890000Y-86950000D01*
X157890000Y-85922012D01*
X157689840Y-85848046D01*
X157402328Y-85967124D01*
X157017335Y-86297386D01*
X156808816Y-86708831D01*
X156808816Y-86250000D01*
X156773891Y-86074419D01*
X156674432Y-85925568D01*
X156525581Y-85826109D01*
X156350000Y-85791184D01*
X154650000Y-85791184D01*
X154474419Y-85826109D01*
X154325568Y-85925568D01*
X154226109Y-86074419D01*
X154191184Y-86250000D01*
X153908816Y-86250000D01*
X153908816Y-85600000D01*
X153893898Y-85525000D01*
X164475001Y-85525000D01*
X164475000Y-107475000D01*
X137525000Y-107475000D01*
X137525000Y-106029706D01*
X137640301Y-106308068D01*
X137991932Y-106659699D01*
X138451360Y-106850000D01*
X138948640Y-106850000D01*
X139408068Y-106659699D01*
X139759699Y-106308068D01*
X139950000Y-105848640D01*
X139950000Y-105351360D01*
X142450000Y-105351360D01*
X142450000Y-105848640D01*
X142640301Y-106308068D01*
X142991932Y-106659699D01*
X143451360Y-106850000D01*
X143948640Y-106850000D01*
X144408068Y-106659699D01*
X144759699Y-106308068D01*
X144950000Y-105848640D01*
X144950000Y-105351360D01*
X144759699Y-104891932D01*
X144408068Y-104540301D01*
X143948640Y-104350000D01*
X143451360Y-104350000D01*
X142991932Y-104540301D01*
X142640301Y-104891932D01*
X142450000Y-105351360D01*
X139950000Y-105351360D01*
X139759699Y-104891932D01*
X139700000Y-104832233D01*
X139700000Y-104100000D01*
X144610052Y-104100000D01*
X145556277Y-105046226D01*
X145595329Y-105104671D01*
X145826874Y-105259385D01*
X146025033Y-105298801D01*
X146075568Y-105374432D01*
X146224419Y-105473891D01*
X146400000Y-105508816D01*
X147600000Y-105508816D01*
X147775581Y-105473891D01*
X147924432Y-105374432D01*
X148023891Y-105225581D01*
X148058816Y-105050000D01*
X148058816Y-104150000D01*
X148141184Y-104150000D01*
X148141184Y-105050000D01*
X148176109Y-105225581D01*
X148275568Y-105374432D01*
X148424419Y-105473891D01*
X148600000Y-105508816D01*
X149800000Y-105508816D01*
X149975581Y-105473891D01*
X150124432Y-105374432D01*
X150164615Y-105314294D01*
X150250816Y-105350000D01*
X150549184Y-105350000D01*
X150824841Y-105235819D01*
X151035819Y-105024841D01*
X151150000Y-104749184D01*
X151150000Y-104450816D01*
X151035819Y-104175159D01*
X150824841Y-103964181D01*
X150549184Y-103850000D01*
X150250816Y-103850000D01*
X150164615Y-103885706D01*
X150124432Y-103825568D01*
X149975581Y-103726109D01*
X149800000Y-103691184D01*
X148600000Y-103691184D01*
X148424419Y-103726109D01*
X148275568Y-103825568D01*
X148176109Y-103974419D01*
X148141184Y-104150000D01*
X148058816Y-104150000D01*
X148023891Y-103974419D01*
X147924432Y-103825568D01*
X147775581Y-103726109D01*
X147600000Y-103691184D01*
X146400000Y-103691184D01*
X146224419Y-103726109D01*
X146219407Y-103729458D01*
X145443724Y-102953776D01*
X145404671Y-102895329D01*
X145173126Y-102740615D01*
X144968940Y-102700000D01*
X144968935Y-102700000D01*
X144900000Y-102686288D01*
X144831065Y-102700000D01*
X139700000Y-102700000D01*
X139700000Y-101421280D01*
X139764714Y-101394475D01*
X140144475Y-101014714D01*
X140350000Y-100518532D01*
X140350000Y-99981468D01*
X140144475Y-99485286D01*
X139764714Y-99105525D01*
X139268532Y-98900000D01*
X138731468Y-98900000D01*
X138235286Y-99105525D01*
X137855525Y-99485286D01*
X137650000Y-99981468D01*
X137650000Y-100518532D01*
X137855525Y-101014714D01*
X138235286Y-101394475D01*
X138300000Y-101421281D01*
X138300001Y-103331055D01*
X138286287Y-103400000D01*
X138300000Y-103468940D01*
X138300001Y-104412695D01*
X137991932Y-104540301D01*
X137640301Y-104891932D01*
X137525000Y-105170294D01*
X137525000Y-87151360D01*
X137650000Y-87151360D01*
X137650000Y-87648640D01*
X137840301Y-88108068D01*
X138191932Y-88459699D01*
X138300001Y-88504462D01*
X138300000Y-91578720D01*
X138235286Y-91605525D01*
X137855525Y-91985286D01*
X137650000Y-92481468D01*
X137650000Y-93018532D01*
X137855525Y-93514714D01*
X138235286Y-93894475D01*
X138300001Y-93921281D01*
X138300001Y-93953848D01*
X138300000Y-93953853D01*
X138300001Y-95328719D01*
X138235286Y-95355525D01*
X137855525Y-95735286D01*
X137650000Y-96231468D01*
X137650000Y-96768532D01*
X137855525Y-97264714D01*
X138235286Y-97644475D01*
X138731468Y-97850000D01*
X139268532Y-97850000D01*
X139333246Y-97823195D01*
X142206277Y-100696226D01*
X142245329Y-100754671D01*
X142476874Y-100909385D01*
X142681060Y-100950000D01*
X142681065Y-100950000D01*
X142750000Y-100963712D01*
X142818935Y-100950000D01*
X142828720Y-100950000D01*
X142855525Y-101014714D01*
X143235286Y-101394475D01*
X143731468Y-101600000D01*
X144268532Y-101600000D01*
X144764714Y-101394475D01*
X145144475Y-101014714D01*
X145350000Y-100518532D01*
X145350000Y-99981468D01*
X145144475Y-99485286D01*
X144859189Y-99200000D01*
X146091184Y-99200000D01*
X146091184Y-100400000D01*
X146126109Y-100575581D01*
X146225568Y-100724432D01*
X146374419Y-100823891D01*
X146550000Y-100858816D01*
X147450000Y-100858816D01*
X147625581Y-100823891D01*
X147774432Y-100724432D01*
X147873891Y-100575581D01*
X147908816Y-100400000D01*
X147908816Y-99200000D01*
X147873891Y-99024419D01*
X147774432Y-98875568D01*
X147714294Y-98835385D01*
X147750000Y-98749184D01*
X147750000Y-98450816D01*
X147635819Y-98175159D01*
X147424841Y-97964181D01*
X147149184Y-97850000D01*
X146850816Y-97850000D01*
X146575159Y-97964181D01*
X146364181Y-98175159D01*
X146250000Y-98450816D01*
X146250000Y-98749184D01*
X146285706Y-98835385D01*
X146225568Y-98875568D01*
X146126109Y-99024419D01*
X146091184Y-99200000D01*
X144859189Y-99200000D01*
X144764714Y-99105525D01*
X144268532Y-98900000D01*
X143731468Y-98900000D01*
X143235286Y-99105525D01*
X142915380Y-99425431D01*
X140323195Y-96833246D01*
X140350000Y-96768532D01*
X140350000Y-96231468D01*
X142650000Y-96231468D01*
X142650000Y-96768532D01*
X142855525Y-97264714D01*
X143235286Y-97644475D01*
X143731468Y-97850000D01*
X144268532Y-97850000D01*
X144764714Y-97644475D01*
X145144475Y-97264714D01*
X145350000Y-96768532D01*
X145350000Y-96231468D01*
X145144475Y-95735286D01*
X144764714Y-95355525D01*
X144268532Y-95150000D01*
X143731468Y-95150000D01*
X143235286Y-95355525D01*
X142855525Y-95735286D01*
X142650000Y-96231468D01*
X140350000Y-96231468D01*
X140144475Y-95735286D01*
X139764714Y-95355525D01*
X139700000Y-95328720D01*
X139700000Y-93921280D01*
X139764714Y-93894475D01*
X140144475Y-93514714D01*
X140350000Y-93018532D01*
X140350000Y-92481468D01*
X142650000Y-92481468D01*
X142650000Y-93018532D01*
X142855525Y-93514714D01*
X143235286Y-93894475D01*
X143731468Y-94100000D01*
X144268532Y-94100000D01*
X144764714Y-93894475D01*
X145144475Y-93514714D01*
X145150569Y-93500000D01*
X146091184Y-93500000D01*
X146091184Y-94700000D01*
X146126109Y-94875581D01*
X146225568Y-95024432D01*
X146300000Y-95074166D01*
X146300000Y-95430105D01*
X146250000Y-95550816D01*
X146250000Y-95849184D01*
X146364181Y-96124841D01*
X146575159Y-96335819D01*
X146850816Y-96450000D01*
X147149184Y-96450000D01*
X147424841Y-96335819D01*
X147635819Y-96124841D01*
X147750000Y-95849184D01*
X147750000Y-95550816D01*
X147700000Y-95430105D01*
X147700000Y-95074166D01*
X147774432Y-95024432D01*
X147873891Y-94875581D01*
X147908816Y-94700000D01*
X147908816Y-93500000D01*
X147873891Y-93324419D01*
X147774432Y-93175568D01*
X147625581Y-93076109D01*
X147450000Y-93041184D01*
X146550000Y-93041184D01*
X146374419Y-93076109D01*
X146225568Y-93175568D01*
X146126109Y-93324419D01*
X146091184Y-93500000D01*
X145150569Y-93500000D01*
X145350000Y-93018532D01*
X145350000Y-92481468D01*
X145144475Y-91985286D01*
X144764714Y-91605525D01*
X144733245Y-91592490D01*
X147225736Y-89100000D01*
X148936075Y-89100000D01*
X148951109Y-89175581D01*
X149050568Y-89324432D01*
X149199419Y-89423891D01*
X149375000Y-89458816D01*
X150625000Y-89458816D01*
X150800581Y-89423891D01*
X150949432Y-89324432D01*
X151048891Y-89175581D01*
X151083816Y-89000000D01*
X151083816Y-88000000D01*
X151048891Y-87824419D01*
X150949432Y-87675568D01*
X150800581Y-87576109D01*
X150625000Y-87541184D01*
X149375000Y-87541184D01*
X149199419Y-87576109D01*
X149050568Y-87675568D01*
X148951109Y-87824419D01*
X148936075Y-87900000D01*
X147036294Y-87900000D01*
X146977208Y-87888247D01*
X146918121Y-87900000D01*
X146918117Y-87900000D01*
X146743100Y-87934813D01*
X146544633Y-88067425D01*
X146511161Y-88117519D01*
X143617520Y-91011161D01*
X143567426Y-91044633D01*
X143533954Y-91094727D01*
X143533953Y-91094728D01*
X143434814Y-91243100D01*
X143388247Y-91477208D01*
X143400001Y-91536299D01*
X143400001Y-91537298D01*
X143235286Y-91605525D01*
X142855525Y-91985286D01*
X142650000Y-92481468D01*
X140350000Y-92481468D01*
X140144475Y-91985286D01*
X139764714Y-91605525D01*
X139700000Y-91578720D01*
X139700000Y-88367767D01*
X139959699Y-88108068D01*
X140150000Y-87648640D01*
X140150000Y-87151360D01*
X139959699Y-86691932D01*
X139608068Y-86340301D01*
X139148640Y-86150000D01*
X138651360Y-86150000D01*
X138191932Y-86340301D01*
X137840301Y-86691932D01*
X137650000Y-87151360D01*
X137525000Y-87151360D01*
X137525000Y-85525000D01*
X144926471Y-85525000D01*
X144256709Y-86194763D01*
G04 #@! TD*
M02*
