G04 #@! TF.FileFunction,Copper,L1,Top,Signal*
%FSLAX46Y46*%
G04 Gerber Fmt 4.6, Leading zero omitted, Abs format (unit mm)*
G04 Created by KiCad (PCBNEW 4.0.4-1.fc24-product) date Mon Apr 30 10:47:21 2018*
%MOMM*%
%LPD*%
G01*
G04 APERTURE LIST*
%ADD10C,0.100000*%
%ADD11R,0.900000X1.200000*%
%ADD12C,1.800000*%
%ADD13R,1.200000X1.700000*%
%ADD14O,1.200000X1.700000*%
%ADD15O,1.998980X1.998980*%
%ADD16R,1.998980X1.998980*%
%ADD17C,1.400000*%
%ADD18C,1.440000*%
%ADD19R,0.750000X1.200000*%
%ADD20R,0.900000X0.800000*%
%ADD21R,1.250000X1.000000*%
%ADD22R,1.501140X1.950720*%
%ADD23R,1.800860X1.549400*%
%ADD24C,0.600000*%
%ADD25C,0.300000*%
%ADD26C,0.500000*%
%ADD27C,0.400000*%
G04 APERTURE END LIST*
D10*
D11*
X136996080Y-128080738D03*
X136996080Y-125880738D03*
D12*
X128996080Y-126730738D03*
X128996080Y-130480738D03*
X128996080Y-134230738D03*
X133996080Y-126730738D03*
X133996080Y-130480738D03*
X133996080Y-134230738D03*
D13*
X131996080Y-140380738D03*
D14*
X133996080Y-140380738D03*
X135996080Y-140380738D03*
X137996080Y-140380738D03*
D13*
X146400925Y-120276123D03*
D14*
X148400925Y-120276123D03*
X150400925Y-120276123D03*
X152400925Y-120276123D03*
D15*
X150396080Y-139380738D03*
D16*
X152936080Y-139380738D03*
D15*
X144556080Y-139380738D03*
D16*
X147096080Y-139380738D03*
D17*
X131496080Y-119480738D03*
X131496080Y-121980738D03*
X136896080Y-119480738D03*
X136896080Y-121980738D03*
D18*
X152196080Y-127080738D03*
X149656080Y-127080738D03*
X147116080Y-127080738D03*
D11*
X136996080Y-134080738D03*
X136996080Y-131880738D03*
D19*
X145996080Y-132030738D03*
X145996080Y-133930738D03*
D20*
X150596080Y-133930738D03*
X150596080Y-132030738D03*
X148196080Y-132980738D03*
D11*
X142996080Y-131880738D03*
X142996080Y-134080738D03*
X152996080Y-131880738D03*
X152996080Y-134080738D03*
X142996080Y-125880738D03*
X142996080Y-128080738D03*
X142996080Y-122380738D03*
X142996080Y-120180738D03*
X128996080Y-121980738D03*
X128996080Y-119780738D03*
D21*
X139996080Y-120480738D03*
X139996080Y-122480738D03*
D22*
X140000000Y-127874140D03*
X140000000Y-125125860D03*
D23*
X140000000Y-132000000D03*
X140000000Y-134352040D03*
D24*
X129996080Y-119780738D03*
X136959676Y-130717142D03*
X137365742Y-129250400D03*
D25*
X148196080Y-132980738D02*
X148196080Y-132280738D01*
X148196080Y-132280738D02*
X147796080Y-131880738D01*
X146146080Y-131880738D02*
X145996080Y-132030738D01*
X147796080Y-131880738D02*
X146146080Y-131880738D01*
X142996080Y-131880738D02*
X145846080Y-131880738D01*
X145846080Y-131880738D02*
X145996080Y-132030738D01*
X142996080Y-131880738D02*
X140072100Y-131880738D01*
X140072100Y-131880738D02*
X139996080Y-131804718D01*
D26*
X136996080Y-135380738D02*
X133996080Y-138380738D01*
X133996080Y-138380738D02*
X133996080Y-140380738D01*
X136996080Y-134080738D02*
X136996080Y-135380738D01*
X136996080Y-134080738D02*
X139920060Y-134080738D01*
X139920060Y-134080738D02*
X139996080Y-134156758D01*
D25*
X136996080Y-125880738D02*
X138250000Y-125880738D01*
X138250000Y-125880738D02*
X139245122Y-125880738D01*
X137782858Y-130717142D02*
X138250000Y-130250000D01*
X138250000Y-130250000D02*
X138250000Y-125880738D01*
X136959676Y-130717142D02*
X137782858Y-130717142D01*
X139245122Y-125880738D02*
X140000000Y-125125860D01*
X128996080Y-119780738D02*
X129996080Y-119780738D01*
X136996080Y-131880738D02*
X136996080Y-130753546D01*
X136996080Y-130753546D02*
X136959676Y-130717142D01*
X140000000Y-127874140D02*
X141050570Y-127874140D01*
X141050570Y-127874140D02*
X141893973Y-127030737D01*
X141893973Y-127030737D02*
X146969263Y-127030737D01*
X140096080Y-120380738D02*
X141096080Y-120380738D01*
X141096080Y-120380738D02*
X141696080Y-120980738D01*
X141696080Y-120980738D02*
X141696080Y-121780738D01*
X141696080Y-121780738D02*
X142296080Y-122380738D01*
X142296080Y-122380738D02*
X142996080Y-122380738D01*
X142796080Y-122580738D02*
X142996080Y-122380738D01*
X142996080Y-122230738D02*
X142996080Y-122380738D01*
X142996080Y-122380738D02*
X142996080Y-123280738D01*
X142996080Y-123280738D02*
X142996080Y-125880738D01*
X133996080Y-126730738D02*
X138246080Y-122480738D01*
X138246080Y-122480738D02*
X139996080Y-122480738D01*
D27*
X131496080Y-119480738D02*
X131746080Y-119230738D01*
X131746080Y-119230738D02*
X136646080Y-119230738D01*
X136646080Y-119230738D02*
X136796080Y-119380738D01*
X136996080Y-119380738D02*
X137146080Y-119230738D01*
X137146080Y-119230738D02*
X141296080Y-119230738D01*
X141296080Y-119230738D02*
X142246080Y-120180738D01*
X142246080Y-120180738D02*
X142996080Y-120180738D01*
D26*
X152996080Y-131880738D02*
X152996080Y-130680738D01*
X152996080Y-130680738D02*
X153496080Y-130180738D01*
X153496080Y-130180738D02*
X153496080Y-123630738D01*
X153496080Y-123630738D02*
X150396080Y-120530738D01*
X150396080Y-120530738D02*
X150396080Y-120280738D01*
D25*
X150596080Y-133930738D02*
X152846080Y-133930738D01*
X152846080Y-133930738D02*
X152996080Y-134080738D01*
X150596080Y-133930738D02*
X149846080Y-133930738D01*
X149296080Y-132420736D02*
X144956082Y-128080738D01*
X149846080Y-133930738D02*
X149296080Y-133380738D01*
X149296080Y-133380738D02*
X149296080Y-132420736D01*
X144956082Y-128080738D02*
X142996080Y-128080738D01*
X142996080Y-128080738D02*
X143196080Y-128280738D01*
X152596080Y-134080738D02*
X152996080Y-134080738D01*
X137265742Y-129250400D02*
X137365742Y-129250400D01*
X136996080Y-128980738D02*
X137265742Y-129250400D01*
X136996080Y-128080738D02*
X136996080Y-128980738D01*
X150596080Y-132030738D02*
X150596080Y-131080738D01*
X149656080Y-130140738D02*
X149656080Y-127080738D01*
X150596080Y-131080738D02*
X149656080Y-130140738D01*
X152196080Y-127080738D02*
X150946080Y-127080738D01*
X150946080Y-127080738D02*
X149656080Y-127080738D01*
X150596080Y-131980738D02*
X150546080Y-132030738D01*
X150546080Y-132030738D02*
X150596080Y-132030738D01*
D26*
X136896080Y-121980738D02*
X133746080Y-121980738D01*
X133746080Y-121980738D02*
X128996080Y-126730738D01*
X128996080Y-130480738D02*
X132746080Y-134230738D01*
X132746080Y-134230738D02*
X133996080Y-134230738D01*
X128996080Y-126730738D02*
X128996080Y-128003530D01*
X128996080Y-128003530D02*
X128996080Y-130480738D01*
X128996080Y-121980738D02*
X131496080Y-121980738D01*
D25*
G36*
X130521726Y-118828465D02*
X130394773Y-119134202D01*
X130145919Y-119030869D01*
X129876652Y-119030633D01*
X129873518Y-119013978D01*
X129774963Y-118860819D01*
X129624585Y-118758070D01*
X129446080Y-118721922D01*
X128546080Y-118721922D01*
X128379320Y-118753300D01*
X128226161Y-118851855D01*
X128123412Y-119002233D01*
X128087264Y-119180738D01*
X128087264Y-120380738D01*
X128118642Y-120547498D01*
X128217197Y-120700657D01*
X128367575Y-120803406D01*
X128546080Y-120839554D01*
X129446080Y-120839554D01*
X129612840Y-120808176D01*
X129765999Y-120709621D01*
X129868748Y-120559243D01*
X129874542Y-120530632D01*
X130144610Y-120530868D01*
X130420366Y-120416927D01*
X130613373Y-120224256D01*
X130843807Y-120455092D01*
X131266327Y-120630538D01*
X131723826Y-120630937D01*
X132146652Y-120456229D01*
X132470434Y-120133011D01*
X132575187Y-119880738D01*
X135817055Y-119880738D01*
X135920589Y-120131310D01*
X136243807Y-120455092D01*
X136666327Y-120630538D01*
X137123826Y-120630937D01*
X137546652Y-120456229D01*
X137870434Y-120133011D01*
X137975187Y-119880738D01*
X138932514Y-119880738D01*
X138912264Y-119980738D01*
X138912264Y-120980738D01*
X138943642Y-121147498D01*
X139042197Y-121300657D01*
X139192575Y-121403406D01*
X139371080Y-121439554D01*
X140621080Y-121439554D01*
X140787840Y-121408176D01*
X140940999Y-121309621D01*
X141036567Y-121169753D01*
X141096080Y-121229266D01*
X141096080Y-121780738D01*
X141141752Y-122010348D01*
X141271816Y-122205002D01*
X141871816Y-122805002D01*
X142066470Y-122935066D01*
X142087264Y-122939202D01*
X142087264Y-122980738D01*
X142118642Y-123147498D01*
X142217197Y-123300657D01*
X142367575Y-123403406D01*
X142396080Y-123409178D01*
X142396080Y-124850146D01*
X142379320Y-124853300D01*
X142226161Y-124951855D01*
X142123412Y-125102233D01*
X142087264Y-125280738D01*
X142087264Y-126430737D01*
X141893973Y-126430737D01*
X141664363Y-126476409D01*
X141469709Y-126606473D01*
X141204321Y-126871861D01*
X141178008Y-126732020D01*
X141079453Y-126578861D01*
X140962984Y-126499281D01*
X141070489Y-126430103D01*
X141173238Y-126279725D01*
X141209386Y-126101220D01*
X141209386Y-124150500D01*
X141178008Y-123983740D01*
X141079453Y-123830581D01*
X140929075Y-123727832D01*
X140750570Y-123691684D01*
X139249430Y-123691684D01*
X139082670Y-123723062D01*
X138929511Y-123821617D01*
X138826762Y-123971995D01*
X138790614Y-124150500D01*
X138790614Y-125280738D01*
X137904896Y-125280738D01*
X137873518Y-125113978D01*
X137774963Y-124960819D01*
X137624585Y-124858070D01*
X137446080Y-124821922D01*
X136753424Y-124821922D01*
X138494608Y-123080738D01*
X138931080Y-123080738D01*
X138943642Y-123147498D01*
X139042197Y-123300657D01*
X139192575Y-123403406D01*
X139371080Y-123439554D01*
X140621080Y-123439554D01*
X140787840Y-123408176D01*
X140940999Y-123309621D01*
X141043748Y-123159243D01*
X141079896Y-122980738D01*
X141079896Y-121980738D01*
X141048518Y-121813978D01*
X140949963Y-121660819D01*
X140799585Y-121558070D01*
X140621080Y-121521922D01*
X139371080Y-121521922D01*
X139204320Y-121553300D01*
X139051161Y-121651855D01*
X138948412Y-121802233D01*
X138932514Y-121880738D01*
X138246080Y-121880738D01*
X138046133Y-121920510D01*
X138046279Y-121752992D01*
X137871571Y-121330166D01*
X137548353Y-121006384D01*
X137125833Y-120830938D01*
X136668334Y-120830539D01*
X136245508Y-121005247D01*
X135969536Y-121280738D01*
X133746080Y-121280738D01*
X133478202Y-121334022D01*
X133251105Y-121485763D01*
X133251103Y-121485766D01*
X132645984Y-122090885D01*
X132646279Y-121752992D01*
X132471571Y-121330166D01*
X132148353Y-121006384D01*
X131725833Y-120830938D01*
X131268334Y-120830539D01*
X130845508Y-121005247D01*
X130569536Y-121280738D01*
X129886080Y-121280738D01*
X129873518Y-121213978D01*
X129774963Y-121060819D01*
X129624585Y-120958070D01*
X129446080Y-120921922D01*
X128546080Y-120921922D01*
X128379320Y-120953300D01*
X128226161Y-121051855D01*
X128123412Y-121202233D01*
X128087264Y-121380738D01*
X128087264Y-122580738D01*
X128118642Y-122747498D01*
X128217197Y-122900657D01*
X128367575Y-123003406D01*
X128546080Y-123039554D01*
X129446080Y-123039554D01*
X129612840Y-123008176D01*
X129765999Y-122909621D01*
X129868748Y-122759243D01*
X129884646Y-122680738D01*
X130569931Y-122680738D01*
X130843807Y-122955092D01*
X131266327Y-123130538D01*
X131606034Y-123130834D01*
X129329458Y-125407410D01*
X129265790Y-125380973D01*
X128728727Y-125380504D01*
X128232365Y-125585596D01*
X127852273Y-125965026D01*
X127646315Y-126461028D01*
X127645846Y-126998091D01*
X127850938Y-127494453D01*
X128230368Y-127874545D01*
X128296080Y-127901831D01*
X128296080Y-129309270D01*
X128232365Y-129335596D01*
X127852273Y-129715026D01*
X127646315Y-130211028D01*
X127645846Y-130748091D01*
X127850938Y-131244453D01*
X128230368Y-131624545D01*
X128726370Y-131830503D01*
X129263433Y-131830972D01*
X129329193Y-131803801D01*
X132251105Y-134725713D01*
X132478201Y-134877454D01*
X132746080Y-134930738D01*
X132824612Y-134930738D01*
X132850938Y-134994453D01*
X133230368Y-135374545D01*
X133726370Y-135580503D01*
X134263433Y-135580972D01*
X134759795Y-135375880D01*
X135139887Y-134996450D01*
X135345845Y-134500448D01*
X135346314Y-133963385D01*
X135141222Y-133467023D01*
X134761792Y-133086931D01*
X134265790Y-132880973D01*
X133728727Y-132880504D01*
X133232365Y-133085596D01*
X132911347Y-133406055D01*
X130319408Y-130814116D01*
X130345845Y-130750448D01*
X130345847Y-130748091D01*
X132645846Y-130748091D01*
X132850938Y-131244453D01*
X133230368Y-131624545D01*
X133726370Y-131830503D01*
X134263433Y-131830972D01*
X134759795Y-131625880D01*
X135139887Y-131246450D01*
X135345845Y-130750448D01*
X135346314Y-130213385D01*
X135141222Y-129717023D01*
X134761792Y-129336931D01*
X134265790Y-129130973D01*
X133728727Y-129130504D01*
X133232365Y-129335596D01*
X132852273Y-129715026D01*
X132646315Y-130211028D01*
X132645846Y-130748091D01*
X130345847Y-130748091D01*
X130346314Y-130213385D01*
X130141222Y-129717023D01*
X129761792Y-129336931D01*
X129696080Y-129309645D01*
X129696080Y-127902206D01*
X129759795Y-127875880D01*
X130139887Y-127496450D01*
X130345845Y-127000448D01*
X130346314Y-126463385D01*
X130319143Y-126397625D01*
X134036029Y-122680738D01*
X135969931Y-122680738D01*
X136243807Y-122955092D01*
X136666327Y-123130538D01*
X136747681Y-123130609D01*
X134429386Y-125448904D01*
X134265790Y-125380973D01*
X133728727Y-125380504D01*
X133232365Y-125585596D01*
X132852273Y-125965026D01*
X132646315Y-126461028D01*
X132645846Y-126998091D01*
X132850938Y-127494453D01*
X133230368Y-127874545D01*
X133726370Y-128080503D01*
X134263433Y-128080972D01*
X134759795Y-127875880D01*
X135139887Y-127496450D01*
X135345845Y-127000448D01*
X135346314Y-126463385D01*
X135277794Y-126297552D01*
X136087264Y-125488082D01*
X136087264Y-126480738D01*
X136118642Y-126647498D01*
X136217197Y-126800657D01*
X136367575Y-126903406D01*
X136546080Y-126939554D01*
X137446080Y-126939554D01*
X137612840Y-126908176D01*
X137650000Y-126884264D01*
X137650000Y-127075435D01*
X137624585Y-127058070D01*
X137446080Y-127021922D01*
X136546080Y-127021922D01*
X136379320Y-127053300D01*
X136226161Y-127151855D01*
X136123412Y-127302233D01*
X136087264Y-127480738D01*
X136087264Y-128680738D01*
X136118642Y-128847498D01*
X136217197Y-129000657D01*
X136367575Y-129103406D01*
X136422701Y-129114569D01*
X136441752Y-129210348D01*
X136571816Y-129405002D01*
X136650726Y-129483912D01*
X136729553Y-129674686D01*
X136940347Y-129885848D01*
X137215903Y-130000269D01*
X137514272Y-130000530D01*
X137650000Y-129944448D01*
X137650000Y-130001472D01*
X137534330Y-130117142D01*
X137420457Y-130117142D01*
X137385071Y-130081694D01*
X137109515Y-129967273D01*
X136811146Y-129967012D01*
X136535390Y-130080953D01*
X136324228Y-130291747D01*
X136209807Y-130567303D01*
X136209546Y-130865672D01*
X136241167Y-130942199D01*
X136226161Y-130951855D01*
X136123412Y-131102233D01*
X136087264Y-131280738D01*
X136087264Y-132480738D01*
X136118642Y-132647498D01*
X136217197Y-132800657D01*
X136367575Y-132903406D01*
X136546080Y-132939554D01*
X137446080Y-132939554D01*
X137612840Y-132908176D01*
X137765999Y-132809621D01*
X137868748Y-132659243D01*
X137904896Y-132480738D01*
X137904896Y-131292867D01*
X138012468Y-131271470D01*
X138207122Y-131141406D01*
X138674264Y-130674264D01*
X138804328Y-130479610D01*
X138850000Y-130250000D01*
X138850000Y-129059786D01*
X138920547Y-129169419D01*
X139070925Y-129272168D01*
X139249430Y-129308316D01*
X140750570Y-129308316D01*
X140917330Y-129276938D01*
X141070489Y-129178383D01*
X141173238Y-129028005D01*
X141209386Y-128849500D01*
X141209386Y-128442550D01*
X141280180Y-128428468D01*
X141474834Y-128298404D01*
X142087264Y-127685974D01*
X142087264Y-128680738D01*
X142118642Y-128847498D01*
X142217197Y-129000657D01*
X142367575Y-129103406D01*
X142546080Y-129139554D01*
X143446080Y-129139554D01*
X143612840Y-129108176D01*
X143765999Y-129009621D01*
X143868748Y-128859243D01*
X143904896Y-128680738D01*
X144707554Y-128680738D01*
X147307554Y-131280738D01*
X146801672Y-131280738D01*
X146798518Y-131263978D01*
X146699963Y-131110819D01*
X146549585Y-131008070D01*
X146371080Y-130971922D01*
X145621080Y-130971922D01*
X145454320Y-131003300D01*
X145301161Y-131101855D01*
X145198412Y-131252233D01*
X145192640Y-131280738D01*
X143904896Y-131280738D01*
X143873518Y-131113978D01*
X143774963Y-130960819D01*
X143624585Y-130858070D01*
X143446080Y-130821922D01*
X142546080Y-130821922D01*
X142379320Y-130853300D01*
X142226161Y-130951855D01*
X142123412Y-131102233D01*
X142087264Y-131280738D01*
X141359246Y-131280738D01*
X141359246Y-131225300D01*
X141327868Y-131058540D01*
X141229313Y-130905381D01*
X141078935Y-130802632D01*
X140900430Y-130766484D01*
X139099570Y-130766484D01*
X138932810Y-130797862D01*
X138779651Y-130896417D01*
X138676902Y-131046795D01*
X138640754Y-131225300D01*
X138640754Y-132774700D01*
X138672132Y-132941460D01*
X138770687Y-133094619D01*
X138890985Y-133176815D01*
X138779651Y-133248457D01*
X138689267Y-133380738D01*
X137886080Y-133380738D01*
X137873518Y-133313978D01*
X137774963Y-133160819D01*
X137624585Y-133058070D01*
X137446080Y-133021922D01*
X136546080Y-133021922D01*
X136379320Y-133053300D01*
X136226161Y-133151855D01*
X136123412Y-133302233D01*
X136087264Y-133480738D01*
X136087264Y-134680738D01*
X136118642Y-134847498D01*
X136217197Y-135000657D01*
X136296080Y-135054556D01*
X136296080Y-135090788D01*
X133501105Y-137885763D01*
X133349364Y-138112859D01*
X133349364Y-138112860D01*
X133296080Y-138380738D01*
X133296080Y-139334435D01*
X133253618Y-139362807D01*
X133054896Y-139660214D01*
X133054896Y-139530738D01*
X133023518Y-139363978D01*
X132924963Y-139210819D01*
X132774585Y-139108070D01*
X132596080Y-139071922D01*
X131396080Y-139071922D01*
X131229320Y-139103300D01*
X131076161Y-139201855D01*
X130973412Y-139352233D01*
X130937264Y-139530738D01*
X130937264Y-141230738D01*
X130968642Y-141397498D01*
X131067197Y-141550657D01*
X131217575Y-141653406D01*
X131396080Y-141689554D01*
X132596080Y-141689554D01*
X132762840Y-141658176D01*
X132915999Y-141559621D01*
X133018748Y-141409243D01*
X133054896Y-141230738D01*
X133054896Y-141101262D01*
X133253618Y-141398669D01*
X133594262Y-141626281D01*
X133996080Y-141706207D01*
X134397898Y-141626281D01*
X134738542Y-141398669D01*
X134966154Y-141058025D01*
X134996080Y-140907576D01*
X135026006Y-141058025D01*
X135253618Y-141398669D01*
X135594262Y-141626281D01*
X135996080Y-141706207D01*
X136397898Y-141626281D01*
X136738542Y-141398669D01*
X136966154Y-141058025D01*
X136996080Y-140907576D01*
X137026006Y-141058025D01*
X137253618Y-141398669D01*
X137594262Y-141626281D01*
X137996080Y-141706207D01*
X138397898Y-141626281D01*
X138738542Y-141398669D01*
X138966154Y-141058025D01*
X139046080Y-140656207D01*
X139046080Y-140105269D01*
X138966154Y-139703451D01*
X138750524Y-139380738D01*
X143078193Y-139380738D01*
X143188529Y-139935434D01*
X143502739Y-140405682D01*
X143972987Y-140719892D01*
X144527683Y-140830228D01*
X144584477Y-140830228D01*
X145139173Y-140719892D01*
X145609421Y-140405682D01*
X145637774Y-140363249D01*
X145637774Y-140380228D01*
X145669152Y-140546988D01*
X145767707Y-140700147D01*
X145918085Y-140802896D01*
X146096590Y-140839044D01*
X148095570Y-140839044D01*
X148262330Y-140807666D01*
X148415489Y-140709111D01*
X148518238Y-140558733D01*
X148554386Y-140380228D01*
X148554386Y-139380738D01*
X148918193Y-139380738D01*
X149028529Y-139935434D01*
X149342739Y-140405682D01*
X149812987Y-140719892D01*
X150367683Y-140830228D01*
X150424477Y-140830228D01*
X150979173Y-140719892D01*
X151449421Y-140405682D01*
X151477774Y-140363249D01*
X151477774Y-140380228D01*
X151509152Y-140546988D01*
X151607707Y-140700147D01*
X151758085Y-140802896D01*
X151936590Y-140839044D01*
X153935570Y-140839044D01*
X154102330Y-140807666D01*
X154255489Y-140709111D01*
X154358238Y-140558733D01*
X154394386Y-140380228D01*
X154394386Y-138381248D01*
X154363008Y-138214488D01*
X154264453Y-138061329D01*
X154114075Y-137958580D01*
X153935570Y-137922432D01*
X151936590Y-137922432D01*
X151769830Y-137953810D01*
X151616671Y-138052365D01*
X151513922Y-138202743D01*
X151477774Y-138381248D01*
X151477774Y-138398227D01*
X151449421Y-138355794D01*
X150979173Y-138041584D01*
X150424477Y-137931248D01*
X150367683Y-137931248D01*
X149812987Y-138041584D01*
X149342739Y-138355794D01*
X149028529Y-138826042D01*
X148918193Y-139380738D01*
X148554386Y-139380738D01*
X148554386Y-138381248D01*
X148523008Y-138214488D01*
X148424453Y-138061329D01*
X148274075Y-137958580D01*
X148095570Y-137922432D01*
X146096590Y-137922432D01*
X145929830Y-137953810D01*
X145776671Y-138052365D01*
X145673922Y-138202743D01*
X145637774Y-138381248D01*
X145637774Y-138398227D01*
X145609421Y-138355794D01*
X145139173Y-138041584D01*
X144584477Y-137931248D01*
X144527683Y-137931248D01*
X143972987Y-138041584D01*
X143502739Y-138355794D01*
X143188529Y-138826042D01*
X143078193Y-139380738D01*
X138750524Y-139380738D01*
X138738542Y-139362807D01*
X138397898Y-139135195D01*
X137996080Y-139055269D01*
X137594262Y-139135195D01*
X137253618Y-139362807D01*
X137026006Y-139703451D01*
X136996080Y-139853900D01*
X136966154Y-139703451D01*
X136738542Y-139362807D01*
X136397898Y-139135195D01*
X135996080Y-139055269D01*
X135594262Y-139135195D01*
X135253618Y-139362807D01*
X135026006Y-139703451D01*
X134996080Y-139853900D01*
X134966154Y-139703451D01*
X134738542Y-139362807D01*
X134696080Y-139334435D01*
X134696080Y-138670688D01*
X137491055Y-135875713D01*
X137642796Y-135648617D01*
X137696081Y-135380738D01*
X137696080Y-135380733D01*
X137696080Y-135054613D01*
X137765999Y-135009621D01*
X137868748Y-134859243D01*
X137884646Y-134780738D01*
X138640754Y-134780738D01*
X138640754Y-135126740D01*
X138672132Y-135293500D01*
X138770687Y-135446659D01*
X138921065Y-135549408D01*
X139099570Y-135585556D01*
X140900430Y-135585556D01*
X141067190Y-135554178D01*
X141220349Y-135455623D01*
X141323098Y-135305245D01*
X141359246Y-135126740D01*
X141359246Y-134343238D01*
X142096080Y-134343238D01*
X142096080Y-134770249D01*
X142164589Y-134935643D01*
X142291176Y-135062230D01*
X142456570Y-135130738D01*
X142733580Y-135130738D01*
X142846080Y-135018238D01*
X142846080Y-134230738D01*
X143146080Y-134230738D01*
X143146080Y-135018238D01*
X143258580Y-135130738D01*
X143535590Y-135130738D01*
X143700984Y-135062230D01*
X143827571Y-134935643D01*
X143896080Y-134770249D01*
X143896080Y-134343238D01*
X143783580Y-134230738D01*
X143146080Y-134230738D01*
X142846080Y-134230738D01*
X142208580Y-134230738D01*
X142096080Y-134343238D01*
X141359246Y-134343238D01*
X141359246Y-134193238D01*
X145171080Y-134193238D01*
X145171080Y-134620249D01*
X145239589Y-134785643D01*
X145366176Y-134912230D01*
X145531570Y-134980738D01*
X145733580Y-134980738D01*
X145846080Y-134868238D01*
X145846080Y-134080738D01*
X146146080Y-134080738D01*
X146146080Y-134868238D01*
X146258580Y-134980738D01*
X146460590Y-134980738D01*
X146625984Y-134912230D01*
X146752571Y-134785643D01*
X146821080Y-134620249D01*
X146821080Y-134193238D01*
X146708580Y-134080738D01*
X146146080Y-134080738D01*
X145846080Y-134080738D01*
X145283580Y-134080738D01*
X145171080Y-134193238D01*
X141359246Y-134193238D01*
X141359246Y-133577340D01*
X141327868Y-133410580D01*
X141315415Y-133391227D01*
X142096080Y-133391227D01*
X142096080Y-133818238D01*
X142208580Y-133930738D01*
X142846080Y-133930738D01*
X142846080Y-133143238D01*
X143146080Y-133143238D01*
X143146080Y-133930738D01*
X143783580Y-133930738D01*
X143896080Y-133818238D01*
X143896080Y-133391227D01*
X143827571Y-133225833D01*
X143700984Y-133099246D01*
X143535590Y-133030738D01*
X143258580Y-133030738D01*
X143146080Y-133143238D01*
X142846080Y-133143238D01*
X142733580Y-133030738D01*
X142456570Y-133030738D01*
X142291176Y-133099246D01*
X142164589Y-133225833D01*
X142096080Y-133391227D01*
X141315415Y-133391227D01*
X141229313Y-133257421D01*
X141109015Y-133175225D01*
X141220349Y-133103583D01*
X141323098Y-132953205D01*
X141359246Y-132774700D01*
X141359246Y-132480738D01*
X142087264Y-132480738D01*
X142118642Y-132647498D01*
X142217197Y-132800657D01*
X142367575Y-132903406D01*
X142546080Y-132939554D01*
X143446080Y-132939554D01*
X143612840Y-132908176D01*
X143765999Y-132809621D01*
X143868748Y-132659243D01*
X143904896Y-132480738D01*
X145162264Y-132480738D01*
X145162264Y-132630738D01*
X145193642Y-132797498D01*
X145292197Y-132950657D01*
X145335308Y-132980114D01*
X145239589Y-133075833D01*
X145171080Y-133241227D01*
X145171080Y-133668238D01*
X145283580Y-133780738D01*
X145846080Y-133780738D01*
X145846080Y-133760738D01*
X146146080Y-133760738D01*
X146146080Y-133780738D01*
X146708580Y-133780738D01*
X146821080Y-133668238D01*
X146821080Y-133241227D01*
X146752571Y-133075833D01*
X146657753Y-132981015D01*
X146690999Y-132959621D01*
X146793748Y-132809243D01*
X146829896Y-132630738D01*
X146829896Y-132480738D01*
X147307514Y-132480738D01*
X147287264Y-132580738D01*
X147287264Y-133380738D01*
X147318642Y-133547498D01*
X147417197Y-133700657D01*
X147567575Y-133803406D01*
X147746080Y-133839554D01*
X148646080Y-133839554D01*
X148812840Y-133808176D01*
X148855566Y-133780682D01*
X148871816Y-133805002D01*
X149421816Y-134355002D01*
X149616469Y-134485066D01*
X149724465Y-134506548D01*
X149817197Y-134650657D01*
X149967575Y-134753406D01*
X150146080Y-134789554D01*
X151046080Y-134789554D01*
X151212840Y-134758176D01*
X151365999Y-134659621D01*
X151454061Y-134530738D01*
X152087264Y-134530738D01*
X152087264Y-134680738D01*
X152118642Y-134847498D01*
X152217197Y-135000657D01*
X152367575Y-135103406D01*
X152546080Y-135139554D01*
X153446080Y-135139554D01*
X153612840Y-135108176D01*
X153765999Y-135009621D01*
X153868748Y-134859243D01*
X153904896Y-134680738D01*
X153904896Y-133480738D01*
X153873518Y-133313978D01*
X153774963Y-133160819D01*
X153624585Y-133058070D01*
X153446080Y-133021922D01*
X152546080Y-133021922D01*
X152379320Y-133053300D01*
X152226161Y-133151855D01*
X152123412Y-133302233D01*
X152117640Y-133330738D01*
X151452129Y-133330738D01*
X151374963Y-133210819D01*
X151224585Y-133108070D01*
X151046080Y-133071922D01*
X150146080Y-133071922D01*
X149979320Y-133103300D01*
X149911081Y-133147211D01*
X149896080Y-133132210D01*
X149896080Y-132804556D01*
X149967575Y-132853406D01*
X150146080Y-132889554D01*
X151046080Y-132889554D01*
X151212840Y-132858176D01*
X151365999Y-132759621D01*
X151468748Y-132609243D01*
X151504896Y-132430738D01*
X151504896Y-131630738D01*
X151473518Y-131463978D01*
X151374963Y-131310819D01*
X151224585Y-131208070D01*
X151196080Y-131202298D01*
X151196080Y-131080738D01*
X151150408Y-130851128D01*
X151020344Y-130656474D01*
X150256080Y-129892210D01*
X150256080Y-128098765D01*
X150317966Y-128073194D01*
X150647380Y-127744355D01*
X150673796Y-127680738D01*
X151178053Y-127680738D01*
X151203624Y-127742624D01*
X151532463Y-128072038D01*
X151962332Y-128250535D01*
X152427786Y-128250941D01*
X152796080Y-128098765D01*
X152796080Y-129890788D01*
X152501105Y-130185763D01*
X152349364Y-130412859D01*
X152318383Y-130568612D01*
X152296080Y-130680738D01*
X152296080Y-130906863D01*
X152226161Y-130951855D01*
X152123412Y-131102233D01*
X152087264Y-131280738D01*
X152087264Y-132480738D01*
X152118642Y-132647498D01*
X152217197Y-132800657D01*
X152367575Y-132903406D01*
X152546080Y-132939554D01*
X153446080Y-132939554D01*
X153612840Y-132908176D01*
X153765999Y-132809621D01*
X153868748Y-132659243D01*
X153904896Y-132480738D01*
X153904896Y-131280738D01*
X153873518Y-131113978D01*
X153774963Y-130960819D01*
X153733963Y-130932805D01*
X153991055Y-130675713D01*
X154142796Y-130448617D01*
X154196081Y-130180738D01*
X154196080Y-130180733D01*
X154196080Y-123630738D01*
X154142796Y-123362860D01*
X154142796Y-123362859D01*
X153991055Y-123135763D01*
X152447600Y-121592308D01*
X152802743Y-121521666D01*
X153143387Y-121294054D01*
X153370999Y-120953410D01*
X153450925Y-120551592D01*
X153450925Y-120000654D01*
X153370999Y-119598836D01*
X153143387Y-119258192D01*
X152802743Y-119030580D01*
X152400925Y-118950654D01*
X151999107Y-119030580D01*
X151658463Y-119258192D01*
X151430851Y-119598836D01*
X151400925Y-119749285D01*
X151370999Y-119598836D01*
X151143387Y-119258192D01*
X150802743Y-119030580D01*
X150400925Y-118950654D01*
X149999107Y-119030580D01*
X149658463Y-119258192D01*
X149430851Y-119598836D01*
X149402644Y-119740645D01*
X149354508Y-119559050D01*
X149103180Y-119229683D01*
X148711650Y-119023153D01*
X148550925Y-119100701D01*
X148550925Y-120126123D01*
X148570925Y-120126123D01*
X148570925Y-120426123D01*
X148550925Y-120426123D01*
X148550925Y-121451545D01*
X148711650Y-121529093D01*
X149103180Y-121322563D01*
X149354508Y-120993196D01*
X149402644Y-120811601D01*
X149430851Y-120953410D01*
X149658463Y-121294054D01*
X149999107Y-121521666D01*
X150400925Y-121601592D01*
X150464365Y-121588973D01*
X152796080Y-123920688D01*
X152796080Y-126063022D01*
X152429828Y-125910941D01*
X151964374Y-125910535D01*
X151534194Y-126088282D01*
X151204780Y-126417121D01*
X151178364Y-126480738D01*
X150674107Y-126480738D01*
X150648536Y-126418852D01*
X150319697Y-126089438D01*
X149889828Y-125910941D01*
X149424374Y-125910535D01*
X148994194Y-126088282D01*
X148664780Y-126417121D01*
X148486283Y-126846990D01*
X148485877Y-127312444D01*
X148663624Y-127742624D01*
X148992463Y-128072038D01*
X149056080Y-128098454D01*
X149056080Y-130140738D01*
X149101752Y-130370348D01*
X149231816Y-130565002D01*
X149912872Y-131246058D01*
X149826161Y-131301855D01*
X149723412Y-131452233D01*
X149687264Y-131630738D01*
X149687264Y-131963392D01*
X145380346Y-127656474D01*
X145341828Y-127630737D01*
X146077393Y-127630737D01*
X146123624Y-127742624D01*
X146452463Y-128072038D01*
X146882332Y-128250535D01*
X147347786Y-128250941D01*
X147777966Y-128073194D01*
X148107380Y-127744355D01*
X148285877Y-127314486D01*
X148286283Y-126849032D01*
X148108536Y-126418852D01*
X147779697Y-126089438D01*
X147349828Y-125910941D01*
X146884374Y-125910535D01*
X146454194Y-126088282D01*
X146124780Y-126417121D01*
X146119126Y-126430737D01*
X143904896Y-126430737D01*
X143904896Y-125280738D01*
X143873518Y-125113978D01*
X143774963Y-124960819D01*
X143624585Y-124858070D01*
X143596080Y-124852298D01*
X143596080Y-123411330D01*
X143612840Y-123408176D01*
X143765999Y-123309621D01*
X143868748Y-123159243D01*
X143904896Y-122980738D01*
X143904896Y-121780738D01*
X143873518Y-121613978D01*
X143774963Y-121460819D01*
X143624585Y-121358070D01*
X143446080Y-121321922D01*
X142546080Y-121321922D01*
X142379320Y-121353300D01*
X142296080Y-121406863D01*
X142296080Y-121154556D01*
X142367575Y-121203406D01*
X142546080Y-121239554D01*
X143446080Y-121239554D01*
X143612840Y-121208176D01*
X143765999Y-121109621D01*
X143868748Y-120959243D01*
X143904896Y-120780738D01*
X143904896Y-119580738D01*
X143875804Y-119426123D01*
X145342109Y-119426123D01*
X145342109Y-121126123D01*
X145373487Y-121292883D01*
X145472042Y-121446042D01*
X145622420Y-121548791D01*
X145800925Y-121584939D01*
X147000925Y-121584939D01*
X147167685Y-121553561D01*
X147320844Y-121455006D01*
X147423593Y-121304628D01*
X147459741Y-121126123D01*
X147459741Y-121009445D01*
X147698670Y-121322563D01*
X148090200Y-121529093D01*
X148250925Y-121451545D01*
X148250925Y-120426123D01*
X148230925Y-120426123D01*
X148230925Y-120126123D01*
X148250925Y-120126123D01*
X148250925Y-119100701D01*
X148090200Y-119023153D01*
X147698670Y-119229683D01*
X147459741Y-119542801D01*
X147459741Y-119426123D01*
X147428363Y-119259363D01*
X147329808Y-119106204D01*
X147179430Y-119003455D01*
X147000925Y-118967307D01*
X145800925Y-118967307D01*
X145634165Y-118998685D01*
X145481006Y-119097240D01*
X145378257Y-119247618D01*
X145342109Y-119426123D01*
X143875804Y-119426123D01*
X143873518Y-119413978D01*
X143774963Y-119260819D01*
X143624585Y-119158070D01*
X143446080Y-119121922D01*
X142546080Y-119121922D01*
X142379320Y-119153300D01*
X142232412Y-119247832D01*
X141755699Y-118771119D01*
X141544825Y-118630216D01*
X141503556Y-118622007D01*
X141296080Y-118580738D01*
X137622577Y-118580738D01*
X137548353Y-118506384D01*
X137546797Y-118505738D01*
X154471080Y-118505738D01*
X154471080Y-142455738D01*
X127521080Y-142455738D01*
X127521080Y-134498091D01*
X127645846Y-134498091D01*
X127850938Y-134994453D01*
X128230368Y-135374545D01*
X128726370Y-135580503D01*
X129263433Y-135580972D01*
X129759795Y-135375880D01*
X130139887Y-134996450D01*
X130345845Y-134500448D01*
X130346314Y-133963385D01*
X130141222Y-133467023D01*
X129761792Y-133086931D01*
X129265790Y-132880973D01*
X128728727Y-132880504D01*
X128232365Y-133085596D01*
X127852273Y-133465026D01*
X127646315Y-133961028D01*
X127645846Y-134498091D01*
X127521080Y-134498091D01*
X127521080Y-118505738D01*
X130845016Y-118505738D01*
X130521726Y-118828465D01*
X130521726Y-118828465D01*
G37*
X130521726Y-118828465D02*
X130394773Y-119134202D01*
X130145919Y-119030869D01*
X129876652Y-119030633D01*
X129873518Y-119013978D01*
X129774963Y-118860819D01*
X129624585Y-118758070D01*
X129446080Y-118721922D01*
X128546080Y-118721922D01*
X128379320Y-118753300D01*
X128226161Y-118851855D01*
X128123412Y-119002233D01*
X128087264Y-119180738D01*
X128087264Y-120380738D01*
X128118642Y-120547498D01*
X128217197Y-120700657D01*
X128367575Y-120803406D01*
X128546080Y-120839554D01*
X129446080Y-120839554D01*
X129612840Y-120808176D01*
X129765999Y-120709621D01*
X129868748Y-120559243D01*
X129874542Y-120530632D01*
X130144610Y-120530868D01*
X130420366Y-120416927D01*
X130613373Y-120224256D01*
X130843807Y-120455092D01*
X131266327Y-120630538D01*
X131723826Y-120630937D01*
X132146652Y-120456229D01*
X132470434Y-120133011D01*
X132575187Y-119880738D01*
X135817055Y-119880738D01*
X135920589Y-120131310D01*
X136243807Y-120455092D01*
X136666327Y-120630538D01*
X137123826Y-120630937D01*
X137546652Y-120456229D01*
X137870434Y-120133011D01*
X137975187Y-119880738D01*
X138932514Y-119880738D01*
X138912264Y-119980738D01*
X138912264Y-120980738D01*
X138943642Y-121147498D01*
X139042197Y-121300657D01*
X139192575Y-121403406D01*
X139371080Y-121439554D01*
X140621080Y-121439554D01*
X140787840Y-121408176D01*
X140940999Y-121309621D01*
X141036567Y-121169753D01*
X141096080Y-121229266D01*
X141096080Y-121780738D01*
X141141752Y-122010348D01*
X141271816Y-122205002D01*
X141871816Y-122805002D01*
X142066470Y-122935066D01*
X142087264Y-122939202D01*
X142087264Y-122980738D01*
X142118642Y-123147498D01*
X142217197Y-123300657D01*
X142367575Y-123403406D01*
X142396080Y-123409178D01*
X142396080Y-124850146D01*
X142379320Y-124853300D01*
X142226161Y-124951855D01*
X142123412Y-125102233D01*
X142087264Y-125280738D01*
X142087264Y-126430737D01*
X141893973Y-126430737D01*
X141664363Y-126476409D01*
X141469709Y-126606473D01*
X141204321Y-126871861D01*
X141178008Y-126732020D01*
X141079453Y-126578861D01*
X140962984Y-126499281D01*
X141070489Y-126430103D01*
X141173238Y-126279725D01*
X141209386Y-126101220D01*
X141209386Y-124150500D01*
X141178008Y-123983740D01*
X141079453Y-123830581D01*
X140929075Y-123727832D01*
X140750570Y-123691684D01*
X139249430Y-123691684D01*
X139082670Y-123723062D01*
X138929511Y-123821617D01*
X138826762Y-123971995D01*
X138790614Y-124150500D01*
X138790614Y-125280738D01*
X137904896Y-125280738D01*
X137873518Y-125113978D01*
X137774963Y-124960819D01*
X137624585Y-124858070D01*
X137446080Y-124821922D01*
X136753424Y-124821922D01*
X138494608Y-123080738D01*
X138931080Y-123080738D01*
X138943642Y-123147498D01*
X139042197Y-123300657D01*
X139192575Y-123403406D01*
X139371080Y-123439554D01*
X140621080Y-123439554D01*
X140787840Y-123408176D01*
X140940999Y-123309621D01*
X141043748Y-123159243D01*
X141079896Y-122980738D01*
X141079896Y-121980738D01*
X141048518Y-121813978D01*
X140949963Y-121660819D01*
X140799585Y-121558070D01*
X140621080Y-121521922D01*
X139371080Y-121521922D01*
X139204320Y-121553300D01*
X139051161Y-121651855D01*
X138948412Y-121802233D01*
X138932514Y-121880738D01*
X138246080Y-121880738D01*
X138046133Y-121920510D01*
X138046279Y-121752992D01*
X137871571Y-121330166D01*
X137548353Y-121006384D01*
X137125833Y-120830938D01*
X136668334Y-120830539D01*
X136245508Y-121005247D01*
X135969536Y-121280738D01*
X133746080Y-121280738D01*
X133478202Y-121334022D01*
X133251105Y-121485763D01*
X133251103Y-121485766D01*
X132645984Y-122090885D01*
X132646279Y-121752992D01*
X132471571Y-121330166D01*
X132148353Y-121006384D01*
X131725833Y-120830938D01*
X131268334Y-120830539D01*
X130845508Y-121005247D01*
X130569536Y-121280738D01*
X129886080Y-121280738D01*
X129873518Y-121213978D01*
X129774963Y-121060819D01*
X129624585Y-120958070D01*
X129446080Y-120921922D01*
X128546080Y-120921922D01*
X128379320Y-120953300D01*
X128226161Y-121051855D01*
X128123412Y-121202233D01*
X128087264Y-121380738D01*
X128087264Y-122580738D01*
X128118642Y-122747498D01*
X128217197Y-122900657D01*
X128367575Y-123003406D01*
X128546080Y-123039554D01*
X129446080Y-123039554D01*
X129612840Y-123008176D01*
X129765999Y-122909621D01*
X129868748Y-122759243D01*
X129884646Y-122680738D01*
X130569931Y-122680738D01*
X130843807Y-122955092D01*
X131266327Y-123130538D01*
X131606034Y-123130834D01*
X129329458Y-125407410D01*
X129265790Y-125380973D01*
X128728727Y-125380504D01*
X128232365Y-125585596D01*
X127852273Y-125965026D01*
X127646315Y-126461028D01*
X127645846Y-126998091D01*
X127850938Y-127494453D01*
X128230368Y-127874545D01*
X128296080Y-127901831D01*
X128296080Y-129309270D01*
X128232365Y-129335596D01*
X127852273Y-129715026D01*
X127646315Y-130211028D01*
X127645846Y-130748091D01*
X127850938Y-131244453D01*
X128230368Y-131624545D01*
X128726370Y-131830503D01*
X129263433Y-131830972D01*
X129329193Y-131803801D01*
X132251105Y-134725713D01*
X132478201Y-134877454D01*
X132746080Y-134930738D01*
X132824612Y-134930738D01*
X132850938Y-134994453D01*
X133230368Y-135374545D01*
X133726370Y-135580503D01*
X134263433Y-135580972D01*
X134759795Y-135375880D01*
X135139887Y-134996450D01*
X135345845Y-134500448D01*
X135346314Y-133963385D01*
X135141222Y-133467023D01*
X134761792Y-133086931D01*
X134265790Y-132880973D01*
X133728727Y-132880504D01*
X133232365Y-133085596D01*
X132911347Y-133406055D01*
X130319408Y-130814116D01*
X130345845Y-130750448D01*
X130345847Y-130748091D01*
X132645846Y-130748091D01*
X132850938Y-131244453D01*
X133230368Y-131624545D01*
X133726370Y-131830503D01*
X134263433Y-131830972D01*
X134759795Y-131625880D01*
X135139887Y-131246450D01*
X135345845Y-130750448D01*
X135346314Y-130213385D01*
X135141222Y-129717023D01*
X134761792Y-129336931D01*
X134265790Y-129130973D01*
X133728727Y-129130504D01*
X133232365Y-129335596D01*
X132852273Y-129715026D01*
X132646315Y-130211028D01*
X132645846Y-130748091D01*
X130345847Y-130748091D01*
X130346314Y-130213385D01*
X130141222Y-129717023D01*
X129761792Y-129336931D01*
X129696080Y-129309645D01*
X129696080Y-127902206D01*
X129759795Y-127875880D01*
X130139887Y-127496450D01*
X130345845Y-127000448D01*
X130346314Y-126463385D01*
X130319143Y-126397625D01*
X134036029Y-122680738D01*
X135969931Y-122680738D01*
X136243807Y-122955092D01*
X136666327Y-123130538D01*
X136747681Y-123130609D01*
X134429386Y-125448904D01*
X134265790Y-125380973D01*
X133728727Y-125380504D01*
X133232365Y-125585596D01*
X132852273Y-125965026D01*
X132646315Y-126461028D01*
X132645846Y-126998091D01*
X132850938Y-127494453D01*
X133230368Y-127874545D01*
X133726370Y-128080503D01*
X134263433Y-128080972D01*
X134759795Y-127875880D01*
X135139887Y-127496450D01*
X135345845Y-127000448D01*
X135346314Y-126463385D01*
X135277794Y-126297552D01*
X136087264Y-125488082D01*
X136087264Y-126480738D01*
X136118642Y-126647498D01*
X136217197Y-126800657D01*
X136367575Y-126903406D01*
X136546080Y-126939554D01*
X137446080Y-126939554D01*
X137612840Y-126908176D01*
X137650000Y-126884264D01*
X137650000Y-127075435D01*
X137624585Y-127058070D01*
X137446080Y-127021922D01*
X136546080Y-127021922D01*
X136379320Y-127053300D01*
X136226161Y-127151855D01*
X136123412Y-127302233D01*
X136087264Y-127480738D01*
X136087264Y-128680738D01*
X136118642Y-128847498D01*
X136217197Y-129000657D01*
X136367575Y-129103406D01*
X136422701Y-129114569D01*
X136441752Y-129210348D01*
X136571816Y-129405002D01*
X136650726Y-129483912D01*
X136729553Y-129674686D01*
X136940347Y-129885848D01*
X137215903Y-130000269D01*
X137514272Y-130000530D01*
X137650000Y-129944448D01*
X137650000Y-130001472D01*
X137534330Y-130117142D01*
X137420457Y-130117142D01*
X137385071Y-130081694D01*
X137109515Y-129967273D01*
X136811146Y-129967012D01*
X136535390Y-130080953D01*
X136324228Y-130291747D01*
X136209807Y-130567303D01*
X136209546Y-130865672D01*
X136241167Y-130942199D01*
X136226161Y-130951855D01*
X136123412Y-131102233D01*
X136087264Y-131280738D01*
X136087264Y-132480738D01*
X136118642Y-132647498D01*
X136217197Y-132800657D01*
X136367575Y-132903406D01*
X136546080Y-132939554D01*
X137446080Y-132939554D01*
X137612840Y-132908176D01*
X137765999Y-132809621D01*
X137868748Y-132659243D01*
X137904896Y-132480738D01*
X137904896Y-131292867D01*
X138012468Y-131271470D01*
X138207122Y-131141406D01*
X138674264Y-130674264D01*
X138804328Y-130479610D01*
X138850000Y-130250000D01*
X138850000Y-129059786D01*
X138920547Y-129169419D01*
X139070925Y-129272168D01*
X139249430Y-129308316D01*
X140750570Y-129308316D01*
X140917330Y-129276938D01*
X141070489Y-129178383D01*
X141173238Y-129028005D01*
X141209386Y-128849500D01*
X141209386Y-128442550D01*
X141280180Y-128428468D01*
X141474834Y-128298404D01*
X142087264Y-127685974D01*
X142087264Y-128680738D01*
X142118642Y-128847498D01*
X142217197Y-129000657D01*
X142367575Y-129103406D01*
X142546080Y-129139554D01*
X143446080Y-129139554D01*
X143612840Y-129108176D01*
X143765999Y-129009621D01*
X143868748Y-128859243D01*
X143904896Y-128680738D01*
X144707554Y-128680738D01*
X147307554Y-131280738D01*
X146801672Y-131280738D01*
X146798518Y-131263978D01*
X146699963Y-131110819D01*
X146549585Y-131008070D01*
X146371080Y-130971922D01*
X145621080Y-130971922D01*
X145454320Y-131003300D01*
X145301161Y-131101855D01*
X145198412Y-131252233D01*
X145192640Y-131280738D01*
X143904896Y-131280738D01*
X143873518Y-131113978D01*
X143774963Y-130960819D01*
X143624585Y-130858070D01*
X143446080Y-130821922D01*
X142546080Y-130821922D01*
X142379320Y-130853300D01*
X142226161Y-130951855D01*
X142123412Y-131102233D01*
X142087264Y-131280738D01*
X141359246Y-131280738D01*
X141359246Y-131225300D01*
X141327868Y-131058540D01*
X141229313Y-130905381D01*
X141078935Y-130802632D01*
X140900430Y-130766484D01*
X139099570Y-130766484D01*
X138932810Y-130797862D01*
X138779651Y-130896417D01*
X138676902Y-131046795D01*
X138640754Y-131225300D01*
X138640754Y-132774700D01*
X138672132Y-132941460D01*
X138770687Y-133094619D01*
X138890985Y-133176815D01*
X138779651Y-133248457D01*
X138689267Y-133380738D01*
X137886080Y-133380738D01*
X137873518Y-133313978D01*
X137774963Y-133160819D01*
X137624585Y-133058070D01*
X137446080Y-133021922D01*
X136546080Y-133021922D01*
X136379320Y-133053300D01*
X136226161Y-133151855D01*
X136123412Y-133302233D01*
X136087264Y-133480738D01*
X136087264Y-134680738D01*
X136118642Y-134847498D01*
X136217197Y-135000657D01*
X136296080Y-135054556D01*
X136296080Y-135090788D01*
X133501105Y-137885763D01*
X133349364Y-138112859D01*
X133349364Y-138112860D01*
X133296080Y-138380738D01*
X133296080Y-139334435D01*
X133253618Y-139362807D01*
X133054896Y-139660214D01*
X133054896Y-139530738D01*
X133023518Y-139363978D01*
X132924963Y-139210819D01*
X132774585Y-139108070D01*
X132596080Y-139071922D01*
X131396080Y-139071922D01*
X131229320Y-139103300D01*
X131076161Y-139201855D01*
X130973412Y-139352233D01*
X130937264Y-139530738D01*
X130937264Y-141230738D01*
X130968642Y-141397498D01*
X131067197Y-141550657D01*
X131217575Y-141653406D01*
X131396080Y-141689554D01*
X132596080Y-141689554D01*
X132762840Y-141658176D01*
X132915999Y-141559621D01*
X133018748Y-141409243D01*
X133054896Y-141230738D01*
X133054896Y-141101262D01*
X133253618Y-141398669D01*
X133594262Y-141626281D01*
X133996080Y-141706207D01*
X134397898Y-141626281D01*
X134738542Y-141398669D01*
X134966154Y-141058025D01*
X134996080Y-140907576D01*
X135026006Y-141058025D01*
X135253618Y-141398669D01*
X135594262Y-141626281D01*
X135996080Y-141706207D01*
X136397898Y-141626281D01*
X136738542Y-141398669D01*
X136966154Y-141058025D01*
X136996080Y-140907576D01*
X137026006Y-141058025D01*
X137253618Y-141398669D01*
X137594262Y-141626281D01*
X137996080Y-141706207D01*
X138397898Y-141626281D01*
X138738542Y-141398669D01*
X138966154Y-141058025D01*
X139046080Y-140656207D01*
X139046080Y-140105269D01*
X138966154Y-139703451D01*
X138750524Y-139380738D01*
X143078193Y-139380738D01*
X143188529Y-139935434D01*
X143502739Y-140405682D01*
X143972987Y-140719892D01*
X144527683Y-140830228D01*
X144584477Y-140830228D01*
X145139173Y-140719892D01*
X145609421Y-140405682D01*
X145637774Y-140363249D01*
X145637774Y-140380228D01*
X145669152Y-140546988D01*
X145767707Y-140700147D01*
X145918085Y-140802896D01*
X146096590Y-140839044D01*
X148095570Y-140839044D01*
X148262330Y-140807666D01*
X148415489Y-140709111D01*
X148518238Y-140558733D01*
X148554386Y-140380228D01*
X148554386Y-139380738D01*
X148918193Y-139380738D01*
X149028529Y-139935434D01*
X149342739Y-140405682D01*
X149812987Y-140719892D01*
X150367683Y-140830228D01*
X150424477Y-140830228D01*
X150979173Y-140719892D01*
X151449421Y-140405682D01*
X151477774Y-140363249D01*
X151477774Y-140380228D01*
X151509152Y-140546988D01*
X151607707Y-140700147D01*
X151758085Y-140802896D01*
X151936590Y-140839044D01*
X153935570Y-140839044D01*
X154102330Y-140807666D01*
X154255489Y-140709111D01*
X154358238Y-140558733D01*
X154394386Y-140380228D01*
X154394386Y-138381248D01*
X154363008Y-138214488D01*
X154264453Y-138061329D01*
X154114075Y-137958580D01*
X153935570Y-137922432D01*
X151936590Y-137922432D01*
X151769830Y-137953810D01*
X151616671Y-138052365D01*
X151513922Y-138202743D01*
X151477774Y-138381248D01*
X151477774Y-138398227D01*
X151449421Y-138355794D01*
X150979173Y-138041584D01*
X150424477Y-137931248D01*
X150367683Y-137931248D01*
X149812987Y-138041584D01*
X149342739Y-138355794D01*
X149028529Y-138826042D01*
X148918193Y-139380738D01*
X148554386Y-139380738D01*
X148554386Y-138381248D01*
X148523008Y-138214488D01*
X148424453Y-138061329D01*
X148274075Y-137958580D01*
X148095570Y-137922432D01*
X146096590Y-137922432D01*
X145929830Y-137953810D01*
X145776671Y-138052365D01*
X145673922Y-138202743D01*
X145637774Y-138381248D01*
X145637774Y-138398227D01*
X145609421Y-138355794D01*
X145139173Y-138041584D01*
X144584477Y-137931248D01*
X144527683Y-137931248D01*
X143972987Y-138041584D01*
X143502739Y-138355794D01*
X143188529Y-138826042D01*
X143078193Y-139380738D01*
X138750524Y-139380738D01*
X138738542Y-139362807D01*
X138397898Y-139135195D01*
X137996080Y-139055269D01*
X137594262Y-139135195D01*
X137253618Y-139362807D01*
X137026006Y-139703451D01*
X136996080Y-139853900D01*
X136966154Y-139703451D01*
X136738542Y-139362807D01*
X136397898Y-139135195D01*
X135996080Y-139055269D01*
X135594262Y-139135195D01*
X135253618Y-139362807D01*
X135026006Y-139703451D01*
X134996080Y-139853900D01*
X134966154Y-139703451D01*
X134738542Y-139362807D01*
X134696080Y-139334435D01*
X134696080Y-138670688D01*
X137491055Y-135875713D01*
X137642796Y-135648617D01*
X137696081Y-135380738D01*
X137696080Y-135380733D01*
X137696080Y-135054613D01*
X137765999Y-135009621D01*
X137868748Y-134859243D01*
X137884646Y-134780738D01*
X138640754Y-134780738D01*
X138640754Y-135126740D01*
X138672132Y-135293500D01*
X138770687Y-135446659D01*
X138921065Y-135549408D01*
X139099570Y-135585556D01*
X140900430Y-135585556D01*
X141067190Y-135554178D01*
X141220349Y-135455623D01*
X141323098Y-135305245D01*
X141359246Y-135126740D01*
X141359246Y-134343238D01*
X142096080Y-134343238D01*
X142096080Y-134770249D01*
X142164589Y-134935643D01*
X142291176Y-135062230D01*
X142456570Y-135130738D01*
X142733580Y-135130738D01*
X142846080Y-135018238D01*
X142846080Y-134230738D01*
X143146080Y-134230738D01*
X143146080Y-135018238D01*
X143258580Y-135130738D01*
X143535590Y-135130738D01*
X143700984Y-135062230D01*
X143827571Y-134935643D01*
X143896080Y-134770249D01*
X143896080Y-134343238D01*
X143783580Y-134230738D01*
X143146080Y-134230738D01*
X142846080Y-134230738D01*
X142208580Y-134230738D01*
X142096080Y-134343238D01*
X141359246Y-134343238D01*
X141359246Y-134193238D01*
X145171080Y-134193238D01*
X145171080Y-134620249D01*
X145239589Y-134785643D01*
X145366176Y-134912230D01*
X145531570Y-134980738D01*
X145733580Y-134980738D01*
X145846080Y-134868238D01*
X145846080Y-134080738D01*
X146146080Y-134080738D01*
X146146080Y-134868238D01*
X146258580Y-134980738D01*
X146460590Y-134980738D01*
X146625984Y-134912230D01*
X146752571Y-134785643D01*
X146821080Y-134620249D01*
X146821080Y-134193238D01*
X146708580Y-134080738D01*
X146146080Y-134080738D01*
X145846080Y-134080738D01*
X145283580Y-134080738D01*
X145171080Y-134193238D01*
X141359246Y-134193238D01*
X141359246Y-133577340D01*
X141327868Y-133410580D01*
X141315415Y-133391227D01*
X142096080Y-133391227D01*
X142096080Y-133818238D01*
X142208580Y-133930738D01*
X142846080Y-133930738D01*
X142846080Y-133143238D01*
X143146080Y-133143238D01*
X143146080Y-133930738D01*
X143783580Y-133930738D01*
X143896080Y-133818238D01*
X143896080Y-133391227D01*
X143827571Y-133225833D01*
X143700984Y-133099246D01*
X143535590Y-133030738D01*
X143258580Y-133030738D01*
X143146080Y-133143238D01*
X142846080Y-133143238D01*
X142733580Y-133030738D01*
X142456570Y-133030738D01*
X142291176Y-133099246D01*
X142164589Y-133225833D01*
X142096080Y-133391227D01*
X141315415Y-133391227D01*
X141229313Y-133257421D01*
X141109015Y-133175225D01*
X141220349Y-133103583D01*
X141323098Y-132953205D01*
X141359246Y-132774700D01*
X141359246Y-132480738D01*
X142087264Y-132480738D01*
X142118642Y-132647498D01*
X142217197Y-132800657D01*
X142367575Y-132903406D01*
X142546080Y-132939554D01*
X143446080Y-132939554D01*
X143612840Y-132908176D01*
X143765999Y-132809621D01*
X143868748Y-132659243D01*
X143904896Y-132480738D01*
X145162264Y-132480738D01*
X145162264Y-132630738D01*
X145193642Y-132797498D01*
X145292197Y-132950657D01*
X145335308Y-132980114D01*
X145239589Y-133075833D01*
X145171080Y-133241227D01*
X145171080Y-133668238D01*
X145283580Y-133780738D01*
X145846080Y-133780738D01*
X145846080Y-133760738D01*
X146146080Y-133760738D01*
X146146080Y-133780738D01*
X146708580Y-133780738D01*
X146821080Y-133668238D01*
X146821080Y-133241227D01*
X146752571Y-133075833D01*
X146657753Y-132981015D01*
X146690999Y-132959621D01*
X146793748Y-132809243D01*
X146829896Y-132630738D01*
X146829896Y-132480738D01*
X147307514Y-132480738D01*
X147287264Y-132580738D01*
X147287264Y-133380738D01*
X147318642Y-133547498D01*
X147417197Y-133700657D01*
X147567575Y-133803406D01*
X147746080Y-133839554D01*
X148646080Y-133839554D01*
X148812840Y-133808176D01*
X148855566Y-133780682D01*
X148871816Y-133805002D01*
X149421816Y-134355002D01*
X149616469Y-134485066D01*
X149724465Y-134506548D01*
X149817197Y-134650657D01*
X149967575Y-134753406D01*
X150146080Y-134789554D01*
X151046080Y-134789554D01*
X151212840Y-134758176D01*
X151365999Y-134659621D01*
X151454061Y-134530738D01*
X152087264Y-134530738D01*
X152087264Y-134680738D01*
X152118642Y-134847498D01*
X152217197Y-135000657D01*
X152367575Y-135103406D01*
X152546080Y-135139554D01*
X153446080Y-135139554D01*
X153612840Y-135108176D01*
X153765999Y-135009621D01*
X153868748Y-134859243D01*
X153904896Y-134680738D01*
X153904896Y-133480738D01*
X153873518Y-133313978D01*
X153774963Y-133160819D01*
X153624585Y-133058070D01*
X153446080Y-133021922D01*
X152546080Y-133021922D01*
X152379320Y-133053300D01*
X152226161Y-133151855D01*
X152123412Y-133302233D01*
X152117640Y-133330738D01*
X151452129Y-133330738D01*
X151374963Y-133210819D01*
X151224585Y-133108070D01*
X151046080Y-133071922D01*
X150146080Y-133071922D01*
X149979320Y-133103300D01*
X149911081Y-133147211D01*
X149896080Y-133132210D01*
X149896080Y-132804556D01*
X149967575Y-132853406D01*
X150146080Y-132889554D01*
X151046080Y-132889554D01*
X151212840Y-132858176D01*
X151365999Y-132759621D01*
X151468748Y-132609243D01*
X151504896Y-132430738D01*
X151504896Y-131630738D01*
X151473518Y-131463978D01*
X151374963Y-131310819D01*
X151224585Y-131208070D01*
X151196080Y-131202298D01*
X151196080Y-131080738D01*
X151150408Y-130851128D01*
X151020344Y-130656474D01*
X150256080Y-129892210D01*
X150256080Y-128098765D01*
X150317966Y-128073194D01*
X150647380Y-127744355D01*
X150673796Y-127680738D01*
X151178053Y-127680738D01*
X151203624Y-127742624D01*
X151532463Y-128072038D01*
X151962332Y-128250535D01*
X152427786Y-128250941D01*
X152796080Y-128098765D01*
X152796080Y-129890788D01*
X152501105Y-130185763D01*
X152349364Y-130412859D01*
X152318383Y-130568612D01*
X152296080Y-130680738D01*
X152296080Y-130906863D01*
X152226161Y-130951855D01*
X152123412Y-131102233D01*
X152087264Y-131280738D01*
X152087264Y-132480738D01*
X152118642Y-132647498D01*
X152217197Y-132800657D01*
X152367575Y-132903406D01*
X152546080Y-132939554D01*
X153446080Y-132939554D01*
X153612840Y-132908176D01*
X153765999Y-132809621D01*
X153868748Y-132659243D01*
X153904896Y-132480738D01*
X153904896Y-131280738D01*
X153873518Y-131113978D01*
X153774963Y-130960819D01*
X153733963Y-130932805D01*
X153991055Y-130675713D01*
X154142796Y-130448617D01*
X154196081Y-130180738D01*
X154196080Y-130180733D01*
X154196080Y-123630738D01*
X154142796Y-123362860D01*
X154142796Y-123362859D01*
X153991055Y-123135763D01*
X152447600Y-121592308D01*
X152802743Y-121521666D01*
X153143387Y-121294054D01*
X153370999Y-120953410D01*
X153450925Y-120551592D01*
X153450925Y-120000654D01*
X153370999Y-119598836D01*
X153143387Y-119258192D01*
X152802743Y-119030580D01*
X152400925Y-118950654D01*
X151999107Y-119030580D01*
X151658463Y-119258192D01*
X151430851Y-119598836D01*
X151400925Y-119749285D01*
X151370999Y-119598836D01*
X151143387Y-119258192D01*
X150802743Y-119030580D01*
X150400925Y-118950654D01*
X149999107Y-119030580D01*
X149658463Y-119258192D01*
X149430851Y-119598836D01*
X149402644Y-119740645D01*
X149354508Y-119559050D01*
X149103180Y-119229683D01*
X148711650Y-119023153D01*
X148550925Y-119100701D01*
X148550925Y-120126123D01*
X148570925Y-120126123D01*
X148570925Y-120426123D01*
X148550925Y-120426123D01*
X148550925Y-121451545D01*
X148711650Y-121529093D01*
X149103180Y-121322563D01*
X149354508Y-120993196D01*
X149402644Y-120811601D01*
X149430851Y-120953410D01*
X149658463Y-121294054D01*
X149999107Y-121521666D01*
X150400925Y-121601592D01*
X150464365Y-121588973D01*
X152796080Y-123920688D01*
X152796080Y-126063022D01*
X152429828Y-125910941D01*
X151964374Y-125910535D01*
X151534194Y-126088282D01*
X151204780Y-126417121D01*
X151178364Y-126480738D01*
X150674107Y-126480738D01*
X150648536Y-126418852D01*
X150319697Y-126089438D01*
X149889828Y-125910941D01*
X149424374Y-125910535D01*
X148994194Y-126088282D01*
X148664780Y-126417121D01*
X148486283Y-126846990D01*
X148485877Y-127312444D01*
X148663624Y-127742624D01*
X148992463Y-128072038D01*
X149056080Y-128098454D01*
X149056080Y-130140738D01*
X149101752Y-130370348D01*
X149231816Y-130565002D01*
X149912872Y-131246058D01*
X149826161Y-131301855D01*
X149723412Y-131452233D01*
X149687264Y-131630738D01*
X149687264Y-131963392D01*
X145380346Y-127656474D01*
X145341828Y-127630737D01*
X146077393Y-127630737D01*
X146123624Y-127742624D01*
X146452463Y-128072038D01*
X146882332Y-128250535D01*
X147347786Y-128250941D01*
X147777966Y-128073194D01*
X148107380Y-127744355D01*
X148285877Y-127314486D01*
X148286283Y-126849032D01*
X148108536Y-126418852D01*
X147779697Y-126089438D01*
X147349828Y-125910941D01*
X146884374Y-125910535D01*
X146454194Y-126088282D01*
X146124780Y-126417121D01*
X146119126Y-126430737D01*
X143904896Y-126430737D01*
X143904896Y-125280738D01*
X143873518Y-125113978D01*
X143774963Y-124960819D01*
X143624585Y-124858070D01*
X143596080Y-124852298D01*
X143596080Y-123411330D01*
X143612840Y-123408176D01*
X143765999Y-123309621D01*
X143868748Y-123159243D01*
X143904896Y-122980738D01*
X143904896Y-121780738D01*
X143873518Y-121613978D01*
X143774963Y-121460819D01*
X143624585Y-121358070D01*
X143446080Y-121321922D01*
X142546080Y-121321922D01*
X142379320Y-121353300D01*
X142296080Y-121406863D01*
X142296080Y-121154556D01*
X142367575Y-121203406D01*
X142546080Y-121239554D01*
X143446080Y-121239554D01*
X143612840Y-121208176D01*
X143765999Y-121109621D01*
X143868748Y-120959243D01*
X143904896Y-120780738D01*
X143904896Y-119580738D01*
X143875804Y-119426123D01*
X145342109Y-119426123D01*
X145342109Y-121126123D01*
X145373487Y-121292883D01*
X145472042Y-121446042D01*
X145622420Y-121548791D01*
X145800925Y-121584939D01*
X147000925Y-121584939D01*
X147167685Y-121553561D01*
X147320844Y-121455006D01*
X147423593Y-121304628D01*
X147459741Y-121126123D01*
X147459741Y-121009445D01*
X147698670Y-121322563D01*
X148090200Y-121529093D01*
X148250925Y-121451545D01*
X148250925Y-120426123D01*
X148230925Y-120426123D01*
X148230925Y-120126123D01*
X148250925Y-120126123D01*
X148250925Y-119100701D01*
X148090200Y-119023153D01*
X147698670Y-119229683D01*
X147459741Y-119542801D01*
X147459741Y-119426123D01*
X147428363Y-119259363D01*
X147329808Y-119106204D01*
X147179430Y-119003455D01*
X147000925Y-118967307D01*
X145800925Y-118967307D01*
X145634165Y-118998685D01*
X145481006Y-119097240D01*
X145378257Y-119247618D01*
X145342109Y-119426123D01*
X143875804Y-119426123D01*
X143873518Y-119413978D01*
X143774963Y-119260819D01*
X143624585Y-119158070D01*
X143446080Y-119121922D01*
X142546080Y-119121922D01*
X142379320Y-119153300D01*
X142232412Y-119247832D01*
X141755699Y-118771119D01*
X141544825Y-118630216D01*
X141503556Y-118622007D01*
X141296080Y-118580738D01*
X137622577Y-118580738D01*
X137548353Y-118506384D01*
X137546797Y-118505738D01*
X154471080Y-118505738D01*
X154471080Y-142455738D01*
X127521080Y-142455738D01*
X127521080Y-134498091D01*
X127645846Y-134498091D01*
X127850938Y-134994453D01*
X128230368Y-135374545D01*
X128726370Y-135580503D01*
X129263433Y-135580972D01*
X129759795Y-135375880D01*
X130139887Y-134996450D01*
X130345845Y-134500448D01*
X130346314Y-133963385D01*
X130141222Y-133467023D01*
X129761792Y-133086931D01*
X129265790Y-132880973D01*
X128728727Y-132880504D01*
X128232365Y-133085596D01*
X127852273Y-133465026D01*
X127646315Y-133961028D01*
X127645846Y-134498091D01*
X127521080Y-134498091D01*
X127521080Y-118505738D01*
X130845016Y-118505738D01*
X130521726Y-118828465D01*
M02*
