M48
;DRILL file {KiCad 4.0.4-1.fc24-product} date Tue Aug 28 17:02:45 2018
;FORMAT={3:3/ absolute / metric / suppress leading zeros}
FMAT,2
METRIC,TZ
T1C0.400
T2C0.800
T3C1.000
%
G90
G05
M71
T1
X147000Y-92100
X147000Y-96800
X147000Y-98600
X150400Y-105500
T2
X138900Y-87400
X138900Y-105600
X143900Y-87400
X143900Y-105600
X156500Y-94500
X159040Y-94500
X161580Y-94500
T3
X139000Y-92750
X139000Y-96500
X139000Y-100250
X144000Y-92750
X144000Y-96500
X144000Y-100250
X155500Y-87100
X158040Y-87100
X160560Y-105800
X160580Y-87100
X163100Y-105800
X163120Y-87100
T0
M30
