M48
;DRILL file {KiCad (5.0.0)} date 08/27/18 21:32:58
;FORMAT={-:-/ absolute / inch / decimal}
FMAT,2
INCH,TZ
T1C0.0157
T2C0.0315
T3C0.0394
%
G90
G05
M72
T1
X5.7874Y-3.5709
X5.7874Y-3.7677
X5.7874Y-3.8819
X5.9213Y-4.1181
T2
X5.4606Y-4.1575
X5.6575Y-4.1575
X6.1614Y-3.6654
X6.2614Y-3.6654
X6.3614Y-3.6654
X5.4685Y-3.4409
X5.6654Y-3.4409
T3
X6.3213Y-4.1654
X6.4213Y-4.1654
X5.4724Y-3.6516
X5.4724Y-3.7992
X5.4724Y-3.9469
X5.6693Y-3.6516
X5.6693Y-3.7992
X5.6693Y-3.9469
X6.122Y-3.4291
X6.222Y-3.4291
X6.322Y-3.4291
X6.422Y-3.4291
T0
M30
