M48
;DRILL file {KiCad 4.0.4-1.fc24-product} date Mon Aug 27 11:18:22 2018
;FORMAT={3:3/ absolute / metric / suppress leading zeros}
FMAT,2
METRIC,TZ
T1C0.400
T2C0.700
T3C0.800
T4C1.000
%
G90
G05
M71
T1
X144300Y-103200
X146964Y-96736
X147370Y-95270
T2
X141500Y-85500
X141500Y-88000
X146900Y-85500
X146900Y-88000
T3
X157120Y-93100
X159660Y-93100
X162200Y-93100
T4
X139000Y-92750
X139000Y-96500
X139000Y-100250
X144000Y-92750
X144000Y-96500
X144000Y-100250
X155500Y-86600
X155500Y-103000
X158040Y-86600
X158040Y-103000
X160580Y-86600
X163120Y-86600
T0
M30
