G04 #@! TF.FileFunction,Copper,L1,Top,Signal*
%FSLAX46Y46*%
G04 Gerber Fmt 4.6, Leading zero omitted, Abs format (unit mm)*
G04 Created by KiCad (PCBNEW 4.0.4-1.fc24-product) date Thu Mar  1 10:32:11 2018*
%MOMM*%
%LPD*%
G01*
G04 APERTURE LIST*
%ADD10C,0.100000*%
%ADD11R,1.200000X1.700000*%
%ADD12O,1.200000X1.700000*%
%ADD13R,1.700000X1.700000*%
%ADD14O,1.700000X1.700000*%
%ADD15C,1.800000*%
%ADD16C,0.750000*%
%ADD17C,0.300000*%
G04 APERTURE END LIST*
D10*
D11*
X147000000Y-98500000D03*
D12*
X149000000Y-98500000D03*
D13*
X150540000Y-89000000D03*
D14*
X148000000Y-89000000D03*
X145460000Y-89000000D03*
D13*
X150540000Y-92500000D03*
D14*
X148000000Y-92500000D03*
X145460000Y-92500000D03*
D15*
X150500000Y-82000000D03*
X148000000Y-82000000D03*
X145500000Y-82000000D03*
X150500000Y-84500000D03*
X148000000Y-84500000D03*
X145500000Y-84500000D03*
D16*
X142300000Y-95150000D02*
X142300000Y-85200000D01*
X142300000Y-85200000D02*
X145500000Y-82000000D01*
X147000000Y-98500000D02*
X145650000Y-98500000D01*
X145650000Y-98500000D02*
X142300000Y-95150000D01*
X145460000Y-92500000D02*
X149000000Y-96040000D01*
X149000000Y-96040000D02*
X149000000Y-98500000D01*
X145460000Y-92500000D02*
X145460000Y-89000000D01*
X150500000Y-82000000D02*
X148000000Y-82000000D01*
X150500000Y-82000000D02*
X151772792Y-82000000D01*
X151772792Y-82000000D02*
X152900000Y-83127208D01*
X152900000Y-83127208D02*
X152900000Y-88240000D01*
X152900000Y-88240000D02*
X152140000Y-89000000D01*
X152140000Y-89000000D02*
X150540000Y-89000000D01*
X150540000Y-92500000D02*
X150540000Y-89000000D01*
D17*
G36*
X157475000Y-101475000D02*
X138525000Y-101475000D01*
X138525000Y-85200000D01*
X141475000Y-85200000D01*
X141475000Y-95150000D01*
X141537799Y-95465714D01*
X141716637Y-95733363D01*
X145066637Y-99083363D01*
X145334286Y-99262201D01*
X145650000Y-99325000D01*
X145941184Y-99325000D01*
X145941184Y-99350000D01*
X145972562Y-99516760D01*
X146071117Y-99669919D01*
X146221495Y-99772668D01*
X146400000Y-99808816D01*
X147600000Y-99808816D01*
X147766760Y-99777438D01*
X147919919Y-99678883D01*
X148022668Y-99528505D01*
X148058816Y-99350000D01*
X148058816Y-99220524D01*
X148257538Y-99517931D01*
X148598182Y-99745543D01*
X149000000Y-99825469D01*
X149401818Y-99745543D01*
X149742462Y-99517931D01*
X149970074Y-99177287D01*
X150050000Y-98775469D01*
X150050000Y-98224531D01*
X149970074Y-97822713D01*
X149825000Y-97605595D01*
X149825000Y-96040000D01*
X149762201Y-95724286D01*
X149583363Y-95456637D01*
X147940325Y-93813599D01*
X148000000Y-93825469D01*
X148497488Y-93726512D01*
X148919239Y-93444708D01*
X149201043Y-93022957D01*
X149231184Y-92871429D01*
X149231184Y-93350000D01*
X149262562Y-93516760D01*
X149361117Y-93669919D01*
X149511495Y-93772668D01*
X149690000Y-93808816D01*
X151390000Y-93808816D01*
X151556760Y-93777438D01*
X151709919Y-93678883D01*
X151812668Y-93528505D01*
X151848816Y-93350000D01*
X151848816Y-91650000D01*
X151817438Y-91483240D01*
X151718883Y-91330081D01*
X151568505Y-91227332D01*
X151390000Y-91191184D01*
X151365000Y-91191184D01*
X151365000Y-90308816D01*
X151390000Y-90308816D01*
X151556760Y-90277438D01*
X151709919Y-90178883D01*
X151812668Y-90028505D01*
X151848816Y-89850000D01*
X151848816Y-89825000D01*
X152140000Y-89825000D01*
X152455714Y-89762201D01*
X152723363Y-89583363D01*
X153483363Y-88823363D01*
X153662201Y-88555714D01*
X153725000Y-88240000D01*
X153725000Y-83127208D01*
X153662201Y-82811494D01*
X153483363Y-82543845D01*
X152356155Y-81416637D01*
X152088506Y-81237799D01*
X151772792Y-81175000D01*
X151583964Y-81175000D01*
X151265712Y-80856193D01*
X150769710Y-80650235D01*
X150232647Y-80649766D01*
X149736285Y-80854858D01*
X149415584Y-81175000D01*
X149083964Y-81175000D01*
X148765712Y-80856193D01*
X148269710Y-80650235D01*
X147732647Y-80649766D01*
X147236285Y-80854858D01*
X146856193Y-81234288D01*
X146749993Y-81490045D01*
X146645142Y-81236285D01*
X146265712Y-80856193D01*
X145769710Y-80650235D01*
X145232647Y-80649766D01*
X144736285Y-80854858D01*
X144356193Y-81234288D01*
X144150235Y-81730290D01*
X144149839Y-82183435D01*
X141716637Y-84616637D01*
X141537799Y-84884286D01*
X141475000Y-85200000D01*
X138525000Y-85200000D01*
X138525000Y-76525000D01*
X157475000Y-76525000D01*
X157475000Y-101475000D01*
X157475000Y-101475000D01*
G37*
X157475000Y-101475000D02*
X138525000Y-101475000D01*
X138525000Y-85200000D01*
X141475000Y-85200000D01*
X141475000Y-95150000D01*
X141537799Y-95465714D01*
X141716637Y-95733363D01*
X145066637Y-99083363D01*
X145334286Y-99262201D01*
X145650000Y-99325000D01*
X145941184Y-99325000D01*
X145941184Y-99350000D01*
X145972562Y-99516760D01*
X146071117Y-99669919D01*
X146221495Y-99772668D01*
X146400000Y-99808816D01*
X147600000Y-99808816D01*
X147766760Y-99777438D01*
X147919919Y-99678883D01*
X148022668Y-99528505D01*
X148058816Y-99350000D01*
X148058816Y-99220524D01*
X148257538Y-99517931D01*
X148598182Y-99745543D01*
X149000000Y-99825469D01*
X149401818Y-99745543D01*
X149742462Y-99517931D01*
X149970074Y-99177287D01*
X150050000Y-98775469D01*
X150050000Y-98224531D01*
X149970074Y-97822713D01*
X149825000Y-97605595D01*
X149825000Y-96040000D01*
X149762201Y-95724286D01*
X149583363Y-95456637D01*
X147940325Y-93813599D01*
X148000000Y-93825469D01*
X148497488Y-93726512D01*
X148919239Y-93444708D01*
X149201043Y-93022957D01*
X149231184Y-92871429D01*
X149231184Y-93350000D01*
X149262562Y-93516760D01*
X149361117Y-93669919D01*
X149511495Y-93772668D01*
X149690000Y-93808816D01*
X151390000Y-93808816D01*
X151556760Y-93777438D01*
X151709919Y-93678883D01*
X151812668Y-93528505D01*
X151848816Y-93350000D01*
X151848816Y-91650000D01*
X151817438Y-91483240D01*
X151718883Y-91330081D01*
X151568505Y-91227332D01*
X151390000Y-91191184D01*
X151365000Y-91191184D01*
X151365000Y-90308816D01*
X151390000Y-90308816D01*
X151556760Y-90277438D01*
X151709919Y-90178883D01*
X151812668Y-90028505D01*
X151848816Y-89850000D01*
X151848816Y-89825000D01*
X152140000Y-89825000D01*
X152455714Y-89762201D01*
X152723363Y-89583363D01*
X153483363Y-88823363D01*
X153662201Y-88555714D01*
X153725000Y-88240000D01*
X153725000Y-83127208D01*
X153662201Y-82811494D01*
X153483363Y-82543845D01*
X152356155Y-81416637D01*
X152088506Y-81237799D01*
X151772792Y-81175000D01*
X151583964Y-81175000D01*
X151265712Y-80856193D01*
X150769710Y-80650235D01*
X150232647Y-80649766D01*
X149736285Y-80854858D01*
X149415584Y-81175000D01*
X149083964Y-81175000D01*
X148765712Y-80856193D01*
X148269710Y-80650235D01*
X147732647Y-80649766D01*
X147236285Y-80854858D01*
X146856193Y-81234288D01*
X146749993Y-81490045D01*
X146645142Y-81236285D01*
X146265712Y-80856193D01*
X145769710Y-80650235D01*
X145232647Y-80649766D01*
X144736285Y-80854858D01*
X144356193Y-81234288D01*
X144150235Y-81730290D01*
X144149839Y-82183435D01*
X141716637Y-84616637D01*
X141537799Y-84884286D01*
X141475000Y-85200000D01*
X138525000Y-85200000D01*
X138525000Y-76525000D01*
X157475000Y-76525000D01*
X157475000Y-101475000D01*
G36*
X143868471Y-84910279D02*
X144056224Y-85363554D01*
X144342268Y-85445600D01*
X144439432Y-85348436D01*
X144651379Y-85560753D01*
X144554400Y-85657732D01*
X144636446Y-85943776D01*
X145254689Y-86164343D01*
X145910279Y-86131529D01*
X146363554Y-85943776D01*
X146445600Y-85657732D01*
X146348436Y-85560568D01*
X146553173Y-85356188D01*
X146556224Y-85363554D01*
X146583513Y-85371381D01*
X146657732Y-85445600D01*
X146750000Y-85419135D01*
X146842268Y-85445600D01*
X146916487Y-85371381D01*
X146943776Y-85363554D01*
X146946606Y-85355623D01*
X147151379Y-85560753D01*
X147054400Y-85657732D01*
X147136446Y-85943776D01*
X147754689Y-86164343D01*
X148410279Y-86131529D01*
X148863554Y-85943776D01*
X148945600Y-85657732D01*
X148848436Y-85560568D01*
X149053173Y-85356188D01*
X149056224Y-85363554D01*
X149083513Y-85371381D01*
X149157732Y-85445600D01*
X149250000Y-85419135D01*
X149342268Y-85445600D01*
X149416487Y-85371381D01*
X149443776Y-85363554D01*
X149446606Y-85355623D01*
X149651379Y-85560753D01*
X149554400Y-85657732D01*
X149636446Y-85943776D01*
X150254689Y-86164343D01*
X150910279Y-86131529D01*
X151363554Y-85943776D01*
X151445600Y-85657732D01*
X151348436Y-85560568D01*
X151560753Y-85348621D01*
X151657732Y-85445600D01*
X151943776Y-85363554D01*
X152075000Y-84995737D01*
X152075000Y-87898274D01*
X151844771Y-88128503D01*
X151817438Y-87983240D01*
X151718883Y-87830081D01*
X151568505Y-87727332D01*
X151390000Y-87691184D01*
X149690000Y-87691184D01*
X149523240Y-87722562D01*
X149370081Y-87821117D01*
X149267332Y-87971495D01*
X149231184Y-88150000D01*
X149231184Y-88628571D01*
X149201043Y-88477043D01*
X148919239Y-88055292D01*
X148497488Y-87773488D01*
X148000000Y-87674531D01*
X147502512Y-87773488D01*
X147080761Y-88055292D01*
X146798957Y-88477043D01*
X146730000Y-88823712D01*
X146661043Y-88477043D01*
X146379239Y-88055292D01*
X145957488Y-87773488D01*
X145460000Y-87674531D01*
X144962512Y-87773488D01*
X144540761Y-88055292D01*
X144258957Y-88477043D01*
X144160000Y-88974531D01*
X144160000Y-89025469D01*
X144258957Y-89522957D01*
X144540761Y-89944708D01*
X144635000Y-90007676D01*
X144635000Y-91492324D01*
X144540761Y-91555292D01*
X144258957Y-91977043D01*
X144160000Y-92474531D01*
X144160000Y-92525469D01*
X144258957Y-93022957D01*
X144540761Y-93444708D01*
X144962512Y-93726512D01*
X145460000Y-93825469D01*
X145592406Y-93799132D01*
X148175000Y-96381726D01*
X148175000Y-97605595D01*
X148058816Y-97779476D01*
X148058816Y-97650000D01*
X148027438Y-97483240D01*
X147928883Y-97330081D01*
X147778505Y-97227332D01*
X147600000Y-97191184D01*
X146400000Y-97191184D01*
X146233240Y-97222562D01*
X146080081Y-97321117D01*
X145977332Y-97471495D01*
X145945485Y-97628759D01*
X143125000Y-94808274D01*
X143125000Y-85541726D01*
X143863131Y-84803595D01*
X143868471Y-84910279D01*
X143868471Y-84910279D01*
G37*
X143868471Y-84910279D02*
X144056224Y-85363554D01*
X144342268Y-85445600D01*
X144439432Y-85348436D01*
X144651379Y-85560753D01*
X144554400Y-85657732D01*
X144636446Y-85943776D01*
X145254689Y-86164343D01*
X145910279Y-86131529D01*
X146363554Y-85943776D01*
X146445600Y-85657732D01*
X146348436Y-85560568D01*
X146553173Y-85356188D01*
X146556224Y-85363554D01*
X146583513Y-85371381D01*
X146657732Y-85445600D01*
X146750000Y-85419135D01*
X146842268Y-85445600D01*
X146916487Y-85371381D01*
X146943776Y-85363554D01*
X146946606Y-85355623D01*
X147151379Y-85560753D01*
X147054400Y-85657732D01*
X147136446Y-85943776D01*
X147754689Y-86164343D01*
X148410279Y-86131529D01*
X148863554Y-85943776D01*
X148945600Y-85657732D01*
X148848436Y-85560568D01*
X149053173Y-85356188D01*
X149056224Y-85363554D01*
X149083513Y-85371381D01*
X149157732Y-85445600D01*
X149250000Y-85419135D01*
X149342268Y-85445600D01*
X149416487Y-85371381D01*
X149443776Y-85363554D01*
X149446606Y-85355623D01*
X149651379Y-85560753D01*
X149554400Y-85657732D01*
X149636446Y-85943776D01*
X150254689Y-86164343D01*
X150910279Y-86131529D01*
X151363554Y-85943776D01*
X151445600Y-85657732D01*
X151348436Y-85560568D01*
X151560753Y-85348621D01*
X151657732Y-85445600D01*
X151943776Y-85363554D01*
X152075000Y-84995737D01*
X152075000Y-87898274D01*
X151844771Y-88128503D01*
X151817438Y-87983240D01*
X151718883Y-87830081D01*
X151568505Y-87727332D01*
X151390000Y-87691184D01*
X149690000Y-87691184D01*
X149523240Y-87722562D01*
X149370081Y-87821117D01*
X149267332Y-87971495D01*
X149231184Y-88150000D01*
X149231184Y-88628571D01*
X149201043Y-88477043D01*
X148919239Y-88055292D01*
X148497488Y-87773488D01*
X148000000Y-87674531D01*
X147502512Y-87773488D01*
X147080761Y-88055292D01*
X146798957Y-88477043D01*
X146730000Y-88823712D01*
X146661043Y-88477043D01*
X146379239Y-88055292D01*
X145957488Y-87773488D01*
X145460000Y-87674531D01*
X144962512Y-87773488D01*
X144540761Y-88055292D01*
X144258957Y-88477043D01*
X144160000Y-88974531D01*
X144160000Y-89025469D01*
X144258957Y-89522957D01*
X144540761Y-89944708D01*
X144635000Y-90007676D01*
X144635000Y-91492324D01*
X144540761Y-91555292D01*
X144258957Y-91977043D01*
X144160000Y-92474531D01*
X144160000Y-92525469D01*
X144258957Y-93022957D01*
X144540761Y-93444708D01*
X144962512Y-93726512D01*
X145460000Y-93825469D01*
X145592406Y-93799132D01*
X148175000Y-96381726D01*
X148175000Y-97605595D01*
X148058816Y-97779476D01*
X148058816Y-97650000D01*
X148027438Y-97483240D01*
X147928883Y-97330081D01*
X147778505Y-97227332D01*
X147600000Y-97191184D01*
X146400000Y-97191184D01*
X146233240Y-97222562D01*
X146080081Y-97321117D01*
X145977332Y-97471495D01*
X145945485Y-97628759D01*
X143125000Y-94808274D01*
X143125000Y-85541726D01*
X143863131Y-84803595D01*
X143868471Y-84910279D01*
G36*
X146798957Y-89522957D02*
X147080761Y-89944708D01*
X147502512Y-90226512D01*
X148000000Y-90325469D01*
X148497488Y-90226512D01*
X148919239Y-89944708D01*
X149201043Y-89522957D01*
X149231184Y-89371429D01*
X149231184Y-89850000D01*
X149262562Y-90016760D01*
X149361117Y-90169919D01*
X149511495Y-90272668D01*
X149690000Y-90308816D01*
X149715000Y-90308816D01*
X149715000Y-91191184D01*
X149690000Y-91191184D01*
X149523240Y-91222562D01*
X149370081Y-91321117D01*
X149267332Y-91471495D01*
X149231184Y-91650000D01*
X149231184Y-92128571D01*
X149201043Y-91977043D01*
X148919239Y-91555292D01*
X148497488Y-91273488D01*
X148000000Y-91174531D01*
X147502512Y-91273488D01*
X147080761Y-91555292D01*
X146798957Y-91977043D01*
X146730000Y-92323712D01*
X146661043Y-91977043D01*
X146379239Y-91555292D01*
X146285000Y-91492324D01*
X146285000Y-90007676D01*
X146379239Y-89944708D01*
X146661043Y-89522957D01*
X146730000Y-89176288D01*
X146798957Y-89522957D01*
X146798957Y-89522957D01*
G37*
X146798957Y-89522957D02*
X147080761Y-89944708D01*
X147502512Y-90226512D01*
X148000000Y-90325469D01*
X148497488Y-90226512D01*
X148919239Y-89944708D01*
X149201043Y-89522957D01*
X149231184Y-89371429D01*
X149231184Y-89850000D01*
X149262562Y-90016760D01*
X149361117Y-90169919D01*
X149511495Y-90272668D01*
X149690000Y-90308816D01*
X149715000Y-90308816D01*
X149715000Y-91191184D01*
X149690000Y-91191184D01*
X149523240Y-91222562D01*
X149370081Y-91321117D01*
X149267332Y-91471495D01*
X149231184Y-91650000D01*
X149231184Y-92128571D01*
X149201043Y-91977043D01*
X148919239Y-91555292D01*
X148497488Y-91273488D01*
X148000000Y-91174531D01*
X147502512Y-91273488D01*
X147080761Y-91555292D01*
X146798957Y-91977043D01*
X146730000Y-92323712D01*
X146661043Y-91977043D01*
X146379239Y-91555292D01*
X146285000Y-91492324D01*
X146285000Y-90007676D01*
X146379239Y-89944708D01*
X146661043Y-89522957D01*
X146730000Y-89176288D01*
X146798957Y-89522957D01*
G36*
X152075000Y-83468934D02*
X152075000Y-83953248D01*
X151943776Y-83636446D01*
X151657732Y-83554400D01*
X151560568Y-83651564D01*
X151348621Y-83439247D01*
X151445600Y-83342268D01*
X151363554Y-83056224D01*
X151355623Y-83053394D01*
X151507674Y-82901608D01*
X152075000Y-83468934D01*
X152075000Y-83468934D01*
G37*
X152075000Y-83468934D02*
X152075000Y-83953248D01*
X151943776Y-83636446D01*
X151657732Y-83554400D01*
X151560568Y-83651564D01*
X151348621Y-83439247D01*
X151445600Y-83342268D01*
X151363554Y-83056224D01*
X151355623Y-83053394D01*
X151507674Y-82901608D01*
X152075000Y-83468934D01*
G36*
X149643812Y-83053173D02*
X149636446Y-83056224D01*
X149554400Y-83342268D01*
X149651564Y-83439432D01*
X149446827Y-83643812D01*
X149443776Y-83636446D01*
X149416487Y-83628619D01*
X149342268Y-83554400D01*
X149250000Y-83580865D01*
X149157732Y-83554400D01*
X149083513Y-83628619D01*
X149056224Y-83636446D01*
X149053394Y-83644377D01*
X148848621Y-83439247D01*
X148945600Y-83342268D01*
X148863554Y-83056224D01*
X148855623Y-83053394D01*
X149084416Y-82825000D01*
X149416036Y-82825000D01*
X149643812Y-83053173D01*
X149643812Y-83053173D01*
G37*
X149643812Y-83053173D02*
X149636446Y-83056224D01*
X149554400Y-83342268D01*
X149651564Y-83439432D01*
X149446827Y-83643812D01*
X149443776Y-83636446D01*
X149416487Y-83628619D01*
X149342268Y-83554400D01*
X149250000Y-83580865D01*
X149157732Y-83554400D01*
X149083513Y-83628619D01*
X149056224Y-83636446D01*
X149053394Y-83644377D01*
X148848621Y-83439247D01*
X148945600Y-83342268D01*
X148863554Y-83056224D01*
X148855623Y-83053394D01*
X149084416Y-82825000D01*
X149416036Y-82825000D01*
X149643812Y-83053173D01*
G36*
X146854858Y-82763715D02*
X147143812Y-83053173D01*
X147136446Y-83056224D01*
X147054400Y-83342268D01*
X147151564Y-83439432D01*
X146946827Y-83643812D01*
X146943776Y-83636446D01*
X146916487Y-83628619D01*
X146842268Y-83554400D01*
X146750000Y-83580865D01*
X146657732Y-83554400D01*
X146583513Y-83628619D01*
X146556224Y-83636446D01*
X146553394Y-83644377D01*
X146348621Y-83439247D01*
X146445600Y-83342268D01*
X146363554Y-83056224D01*
X146355623Y-83053394D01*
X146643807Y-82765712D01*
X146750007Y-82509955D01*
X146854858Y-82763715D01*
X146854858Y-82763715D01*
G37*
X146854858Y-82763715D02*
X147143812Y-83053173D01*
X147136446Y-83056224D01*
X147054400Y-83342268D01*
X147151564Y-83439432D01*
X146946827Y-83643812D01*
X146943776Y-83636446D01*
X146916487Y-83628619D01*
X146842268Y-83554400D01*
X146750000Y-83580865D01*
X146657732Y-83554400D01*
X146583513Y-83628619D01*
X146556224Y-83636446D01*
X146553394Y-83644377D01*
X146348621Y-83439247D01*
X146445600Y-83342268D01*
X146363554Y-83056224D01*
X146355623Y-83053394D01*
X146643807Y-82765712D01*
X146750007Y-82509955D01*
X146854858Y-82763715D01*
M02*
