G04 #@! TF.FileFunction,Legend,Bot*
%FSLAX46Y46*%
G04 Gerber Fmt 4.6, Leading zero omitted, Abs format (unit mm)*
G04 Created by KiCad (PCBNEW 4.0.4-1.fc24-product) date Thu Mar  1 10:32:11 2018*
%MOMM*%
%LPD*%
G01*
G04 APERTURE LIST*
%ADD10C,0.100000*%
%ADD11C,0.120000*%
%ADD12C,0.150000*%
G04 APERTURE END LIST*
D10*
D11*
X144950000Y-100300000D02*
X144950000Y-95600000D01*
X144950000Y-95600000D02*
X151050000Y-95600000D01*
X151050000Y-95600000D02*
X151050000Y-100300000D01*
X151050000Y-100300000D02*
X144950000Y-100300000D01*
X147500000Y-100300000D02*
X147500000Y-99700000D01*
X147500000Y-99700000D02*
X145550000Y-99700000D01*
X145550000Y-99700000D02*
X145550000Y-96200000D01*
X145550000Y-96200000D02*
X150450000Y-96200000D01*
X150450000Y-96200000D02*
X150450000Y-99700000D01*
X150450000Y-99700000D02*
X148500000Y-99700000D01*
X148500000Y-99700000D02*
X148500000Y-100300000D01*
X144950000Y-99000000D02*
X145550000Y-99000000D01*
X144950000Y-97700000D02*
X145550000Y-97700000D01*
X151050000Y-99000000D02*
X150450000Y-99000000D01*
X151050000Y-97700000D02*
X150450000Y-97700000D01*
X146700000Y-100300000D02*
X146700000Y-100500000D01*
X146700000Y-100500000D02*
X146400000Y-100500000D01*
X146400000Y-100500000D02*
X146400000Y-100300000D01*
X146700000Y-100400000D02*
X146400000Y-100400000D01*
X147900000Y-96200000D02*
X147900000Y-96700000D01*
X147900000Y-96700000D02*
X148100000Y-96700000D01*
X148100000Y-96700000D02*
X148100000Y-96200000D01*
X148000000Y-96200000D02*
X148000000Y-96700000D01*
X145900000Y-100600000D02*
X144650000Y-100600000D01*
X144650000Y-100600000D02*
X144650000Y-99350000D01*
X144130000Y-90330000D02*
X144130000Y-87670000D01*
X149270000Y-90330000D02*
X144130000Y-90330000D01*
X149270000Y-87670000D02*
X144130000Y-87670000D01*
X149270000Y-90330000D02*
X149270000Y-87670000D01*
X150540000Y-90330000D02*
X151870000Y-90330000D01*
X151870000Y-90330000D02*
X151870000Y-89000000D01*
X144130000Y-93830000D02*
X144130000Y-91170000D01*
X149270000Y-93830000D02*
X144130000Y-93830000D01*
X149270000Y-91170000D02*
X144130000Y-91170000D01*
X149270000Y-93830000D02*
X149270000Y-91170000D01*
X150540000Y-93830000D02*
X151870000Y-93830000D01*
X151870000Y-93830000D02*
X151870000Y-92500000D01*
X152810000Y-86610000D02*
X152810000Y-77940000D01*
X143190000Y-86610000D02*
X143190000Y-77940000D01*
X152810000Y-86610000D02*
X143190000Y-86610000D01*
X152810000Y-77940000D02*
X143190000Y-77940000D01*
D12*
X150942857Y-95171429D02*
X150942857Y-94571429D01*
X150714285Y-94571429D01*
X150657143Y-94600000D01*
X150628571Y-94628571D01*
X150600000Y-94685714D01*
X150600000Y-94771429D01*
X150628571Y-94828571D01*
X150657143Y-94857143D01*
X150714285Y-94885714D01*
X150942857Y-94885714D01*
X150028571Y-95171429D02*
X150371428Y-95171429D01*
X150200000Y-95171429D02*
X150200000Y-94571429D01*
X150257143Y-94657143D01*
X150314285Y-94714286D01*
X150371428Y-94742857D01*
X152541429Y-88800000D02*
X152970000Y-88800000D01*
X153055714Y-88771428D01*
X153112857Y-88714285D01*
X153141429Y-88628571D01*
X153141429Y-88571428D01*
X153141429Y-89400000D02*
X153141429Y-89057143D01*
X153141429Y-89228571D02*
X152541429Y-89228571D01*
X152627143Y-89171428D01*
X152684286Y-89114286D01*
X152712857Y-89057143D01*
X152541429Y-92300000D02*
X152970000Y-92300000D01*
X153055714Y-92271428D01*
X153112857Y-92214285D01*
X153141429Y-92128571D01*
X153141429Y-92071428D01*
X152598571Y-92557143D02*
X152570000Y-92585714D01*
X152541429Y-92642857D01*
X152541429Y-92785714D01*
X152570000Y-92842857D01*
X152598571Y-92871428D01*
X152655714Y-92900000D01*
X152712857Y-92900000D01*
X152798571Y-92871428D01*
X153141429Y-92528571D01*
X153141429Y-92900000D01*
X154271429Y-81642857D02*
X153985714Y-81442857D01*
X154271429Y-81300000D02*
X153671429Y-81300000D01*
X153671429Y-81528572D01*
X153700000Y-81585714D01*
X153728571Y-81614286D01*
X153785714Y-81642857D01*
X153871429Y-81642857D01*
X153928571Y-81614286D01*
X153957143Y-81585714D01*
X153985714Y-81528572D01*
X153985714Y-81300000D01*
X153671429Y-81814286D02*
X154271429Y-82014286D01*
X153671429Y-82214286D01*
X154271429Y-82728572D02*
X154271429Y-82385715D01*
X154271429Y-82557143D02*
X153671429Y-82557143D01*
X153757143Y-82500000D01*
X153814286Y-82442858D01*
X153842857Y-82385715D01*
M02*
