%MOIN*%
%OFA0B0*%
%FSLAX46Y46*%
%IPPOS*%
%LPD*%
%ADD10C,0.0039370078740157488*%
%ADD11C,0.0047244094488188976*%
%ADD12C,0.005905511811023622*%
%ADD23C,0.0039370078740157488*%
%ADD34C,0.0039370078740157488*%
%ADD35C,0.005905511811023622*%
%ADD36C,0.0047244094488188976*%
%ADD47C,0.0039370078740157488*%
%ADD48C,0.005905511811023622*%
%ADD49C,0.0047244094488188976*%
%ADD60C,0.0039370078740157488*%
%ADD61C,0.005905511811023622*%
%ADD62C,0.0047244094488188976*%
%ADD73C,0.0039370078740157488*%
%ADD74C,0.005905511811023622*%
%ADD75C,0.0047244094488188976*%
%ADD86C,0.0039370078740157488*%
%ADD87C,0.005905511811023622*%
%ADD88C,0.0047244094488188976*%
%LPD*%
G01*
D10*
D11*
X0001218503Y0000188976D02*
X0001218503Y0000003936D01*
X0001218503Y0000003936D02*
X0001616141Y0000003936D01*
X0001616141Y0000003936D02*
X0001616141Y0000188976D01*
X0001616141Y0000188976D02*
X0001218503Y0000188976D01*
X0001318897Y0000188976D02*
X0001318897Y0000165354D01*
X0001318897Y0000165354D02*
X0001242125Y0000165354D01*
X0001242125Y0000165354D02*
X0001242125Y0000027558D01*
X0001242125Y0000027558D02*
X0001592519Y0000027558D01*
X0001592519Y0000027558D02*
X0001592519Y0000165354D01*
X0001592519Y0000165354D02*
X0001515748Y0000165354D01*
X0001515748Y0000165354D02*
X0001515748Y0000188976D01*
X0001218503Y0000137795D02*
X0001242125Y0000137795D01*
X0001218503Y0000086614D02*
X0001242125Y0000086614D01*
X0001616141Y0000137795D02*
X0001592519Y0000137795D01*
X0001616141Y0000086614D02*
X0001592519Y0000086614D01*
X0001287400Y0000188976D02*
X0001287400Y0000196850D01*
X0001287400Y0000196850D02*
X0001275590Y0000196850D01*
X0001275590Y0000196850D02*
X0001275590Y0000188976D01*
X0001287400Y0000192913D02*
X0001275590Y0000192913D01*
X0001334645Y0000027558D02*
X0001334645Y0000047244D01*
X0001334645Y0000047244D02*
X0001342519Y0000047244D01*
X0001342519Y0000047244D02*
X0001342519Y0000027558D01*
X0001338582Y0000027558D02*
X0001338582Y0000047244D01*
X0001413385Y0000027558D02*
X0001413385Y0000047244D01*
X0001413385Y0000047244D02*
X0001421259Y0000047244D01*
X0001421259Y0000047244D02*
X0001421259Y0000027558D01*
X0001417321Y0000027558D02*
X0001417321Y0000047244D01*
X0001492125Y0000027558D02*
X0001492125Y0000047244D01*
X0001492125Y0000047244D02*
X0001499999Y0000047244D01*
X0001499999Y0000047244D02*
X0001499999Y0000027558D01*
X0001496062Y0000027558D02*
X0001496062Y0000047244D01*
X0001255905Y0000200787D02*
X0001206692Y0000200787D01*
X0001206692Y0000200787D02*
X0001206692Y0000151574D01*
D12*
X0001128937Y0000492125D02*
X0001128937Y0000452755D01*
X0001075787Y0000452755D02*
X0001075787Y0000492125D01*
X0001705708Y0000452755D02*
X0001705708Y0000492125D01*
X0001758858Y0000492125D02*
X0001758858Y0000452755D01*
X0001354330Y0000312007D02*
X0001314960Y0000312007D01*
X0001314960Y0000365157D02*
X0001354330Y0000365157D01*
X0001580989Y0000197975D02*
X0001580989Y0000221597D01*
X0001589987Y0000221597D01*
X0001592238Y0000220471D01*
X0001593363Y0000219347D01*
X0001594488Y0000217097D01*
X0001594488Y0000213723D01*
X0001593363Y0000211473D01*
X0001592238Y0000210348D01*
X0001589987Y0000209223D01*
X0001580989Y0000209223D01*
X0001616984Y0000197975D02*
X0001603487Y0000197975D01*
X0001610236Y0000197975D02*
X0001610236Y0000221597D01*
X0001607986Y0000218221D01*
X0001605736Y0000215971D01*
X0001603487Y0000214848D01*
X0001065804Y0000417322D02*
X0001054555Y0000409448D01*
X0001065804Y0000403823D02*
X0001042181Y0000403823D01*
X0001042181Y0000412823D01*
X0001043307Y0000415073D01*
X0001044431Y0000416197D01*
X0001046681Y0000417322D01*
X0001050056Y0000417322D01*
X0001052305Y0000416197D01*
X0001053430Y0000415073D01*
X0001054555Y0000412823D01*
X0001054555Y0000403823D01*
X0001065804Y0000439820D02*
X0001065804Y0000426320D01*
X0001065804Y0000433070D02*
X0001042181Y0000433070D01*
X0001045555Y0000430820D01*
X0001047806Y0000428571D01*
X0001048931Y0000426320D01*
X0001790213Y0000519684D02*
X0001778965Y0000511811D01*
X0001790213Y0000506186D02*
X0001766591Y0000506186D01*
X0001766591Y0000515185D01*
X0001767715Y0000517435D01*
X0001768841Y0000518560D01*
X0001771091Y0000519684D01*
X0001774465Y0000519684D01*
X0001776715Y0000518560D01*
X0001777840Y0000517435D01*
X0001778965Y0000515185D01*
X0001778965Y0000506186D01*
X0001768841Y0000528683D02*
X0001767715Y0000529808D01*
X0001766591Y0000532058D01*
X0001766591Y0000537682D01*
X0001767715Y0000539932D01*
X0001768841Y0000541057D01*
X0001771091Y0000542182D01*
X0001773340Y0000542182D01*
X0001776715Y0000541057D01*
X0001790213Y0000527559D01*
X0001790213Y0000542182D01*
X0001275590Y0000374156D02*
X0001267716Y0000385405D01*
X0001262091Y0000374156D02*
X0001262091Y0000397778D01*
X0001271091Y0000397778D01*
X0001273340Y0000396653D01*
X0001274465Y0000395528D01*
X0001275590Y0000393279D01*
X0001275590Y0000389903D01*
X0001274465Y0000387654D01*
X0001273340Y0000386529D01*
X0001271091Y0000385405D01*
X0001262091Y0000385405D01*
X0001283464Y0000397778D02*
X0001298087Y0000397778D01*
X0001290213Y0000388779D01*
X0001293588Y0000388779D01*
X0001295838Y0000387654D01*
X0001296962Y0000386529D01*
X0001298087Y0000384280D01*
X0001298087Y0000378655D01*
X0001296962Y0000376406D01*
X0001295838Y0000375280D01*
X0001293588Y0000374156D01*
X0001286839Y0000374156D01*
X0001284589Y0000375280D01*
X0001283464Y0000376406D01*
G01*
D23*
G01*
D34*
D35*
X0000420275Y0002618110D02*
X0000420275Y0002578740D01*
X0000367125Y0002578740D02*
X0000367125Y0002618110D01*
X0000486811Y0002623425D02*
X0000536810Y0002623425D01*
X0000486811Y0002558425D02*
X0000536810Y0002558425D01*
X0000536810Y0002558425D02*
X0000536810Y0002638425D01*
X0000536810Y0002638425D02*
X0000486811Y0002638425D01*
X0000486811Y0002638425D02*
X0000486811Y0002558425D01*
X0000771653Y0002612204D02*
X0000771653Y0002584644D01*
X0000724409Y0002584644D02*
X0000724409Y0002612204D01*
X0000536810Y0002809645D02*
X0000486811Y0002809645D01*
X0000536810Y0002874645D02*
X0000486811Y0002874645D01*
X0000486811Y0002874645D02*
X0000486811Y0002794645D01*
X0000486811Y0002794645D02*
X0000536810Y0002794645D01*
X0000536810Y0002794645D02*
X0000536810Y0002874645D01*
D36*
X0000687007Y0003127952D02*
X0000687007Y0002942913D01*
X0000687007Y0002942913D02*
X0001084645Y0002942913D01*
X0001084645Y0002942913D02*
X0001084645Y0003127952D01*
X0001084645Y0003127952D02*
X0000687007Y0003127952D01*
X0000787401Y0003127952D02*
X0000787401Y0003104330D01*
X0000787401Y0003104330D02*
X0000710629Y0003104330D01*
X0000710629Y0003104330D02*
X0000710629Y0002966535D01*
X0000710629Y0002966535D02*
X0001061023Y0002966535D01*
X0001061023Y0002966535D02*
X0001061023Y0003104330D01*
X0001061023Y0003104330D02*
X0000984250Y0003104330D01*
X0000984250Y0003104330D02*
X0000984250Y0003127952D01*
X0000687007Y0003076771D02*
X0000710629Y0003076771D01*
X0000687007Y0003025590D02*
X0000710629Y0003025590D01*
X0001084645Y0003076771D02*
X0001061023Y0003076771D01*
X0001084645Y0003025590D02*
X0001061023Y0003025590D01*
X0000755905Y0003127952D02*
X0000755905Y0003135826D01*
X0000755905Y0003135826D02*
X0000744094Y0003135826D01*
X0000744094Y0003135826D02*
X0000744094Y0003127952D01*
X0000755905Y0003131889D02*
X0000744094Y0003131889D01*
X0000803149Y0002966535D02*
X0000803149Y0002986220D01*
X0000803149Y0002986220D02*
X0000811023Y0002986220D01*
X0000811023Y0002986220D02*
X0000811023Y0002966535D01*
X0000807086Y0002966535D02*
X0000807086Y0002986220D01*
X0000881889Y0002966535D02*
X0000881889Y0002986220D01*
X0000881889Y0002986220D02*
X0000889763Y0002986220D01*
X0000889763Y0002986220D02*
X0000889763Y0002966535D01*
X0000885826Y0002966535D02*
X0000885826Y0002986220D01*
X0000960629Y0002966535D02*
X0000960629Y0002986220D01*
X0000960629Y0002986220D02*
X0000968503Y0002986220D01*
X0000968503Y0002986220D02*
X0000968503Y0002966535D01*
X0000964565Y0002966535D02*
X0000964565Y0002986220D01*
X0000724409Y0003139763D02*
X0000675196Y0003139763D01*
X0000675196Y0003139763D02*
X0000675196Y0003090551D01*
X0000938976Y0002533464D02*
X0000844488Y0002533464D01*
X0000844488Y0002533464D02*
X0000844488Y0002574803D01*
X0000915354Y0002663384D02*
X0000844488Y0002663384D01*
X0000844488Y0002663384D02*
X0000844488Y0002622047D01*
D35*
X0000603346Y0002578740D02*
X0000603346Y0002618110D01*
X0000656496Y0002618110D02*
X0000656496Y0002578740D01*
X0000997047Y0002578740D02*
X0000997047Y0002618110D01*
X0001050196Y0002618110D02*
X0001050196Y0002578740D01*
X0000420275Y0002854330D02*
X0000420275Y0002814960D01*
X0000367125Y0002814960D02*
X0000367125Y0002854330D01*
X0000603346Y0002814960D02*
X0000603346Y0002854330D01*
X0000656496Y0002854330D02*
X0000656496Y0002814960D01*
X0000656496Y0003078739D02*
X0000656496Y0003039370D01*
X0000603346Y0003039370D02*
X0000603346Y0003078739D01*
X0000105313Y0003094488D02*
X0000105313Y0003055118D01*
X0000052165Y0003055118D02*
X0000052165Y0003094488D01*
X0000549212Y0003035433D02*
X0000549212Y0003074803D01*
X0000482282Y0003074803D02*
X0000482282Y0003035433D01*
X0000447694Y0002641731D02*
X0000436445Y0002633858D01*
X0000447694Y0002628233D02*
X0000424072Y0002628233D01*
X0000424072Y0002637232D01*
X0000425196Y0002639482D01*
X0000426320Y0002640607D01*
X0000428571Y0002641731D01*
X0000431946Y0002641731D01*
X0000434195Y0002640607D01*
X0000435320Y0002639482D01*
X0000436445Y0002637232D01*
X0000436445Y0002628233D01*
X0000447694Y0002664229D02*
X0000447694Y0002650731D01*
X0000447694Y0002657479D02*
X0000424072Y0002657479D01*
X0000427446Y0002655230D01*
X0000429696Y0002652980D01*
X0000430820Y0002650731D01*
X0000457255Y0002547244D02*
X0000458380Y0002546119D01*
X0000459505Y0002542744D01*
X0000459505Y0002540494D01*
X0000458380Y0002537120D01*
X0000456130Y0002534870D01*
X0000453880Y0002533745D01*
X0000449381Y0002532620D01*
X0000446006Y0002532620D01*
X0000441507Y0002533745D01*
X0000439257Y0002534870D01*
X0000437007Y0002537120D01*
X0000435882Y0002540494D01*
X0000435882Y0002542744D01*
X0000437007Y0002546119D01*
X0000438132Y0002547244D01*
X0000459505Y0002569741D02*
X0000459505Y0002556242D01*
X0000459505Y0002562992D02*
X0000435882Y0002562992D01*
X0000439257Y0002560742D01*
X0000441507Y0002558492D01*
X0000442632Y0002556242D01*
X0000799775Y0002641731D02*
X0000800899Y0002640607D01*
X0000802023Y0002637232D01*
X0000802023Y0002634983D01*
X0000800899Y0002631608D01*
X0000798650Y0002629358D01*
X0000796400Y0002628233D01*
X0000791900Y0002627108D01*
X0000788526Y0002627108D01*
X0000784027Y0002628233D01*
X0000781777Y0002629358D01*
X0000779527Y0002631608D01*
X0000778401Y0002634983D01*
X0000778401Y0002637232D01*
X0000779527Y0002640607D01*
X0000780652Y0002641731D01*
X0000780652Y0002650731D02*
X0000779527Y0002651856D01*
X0000778401Y0002654105D01*
X0000778401Y0002659730D01*
X0000779527Y0002661979D01*
X0000780652Y0002663104D01*
X0000782902Y0002664229D01*
X0000785151Y0002664229D01*
X0000788526Y0002663104D01*
X0000802023Y0002649606D01*
X0000802023Y0002664229D01*
X0000461192Y0002783464D02*
X0000462317Y0002782338D01*
X0000463442Y0002778965D01*
X0000463442Y0002776715D01*
X0000462317Y0002773340D01*
X0000460066Y0002771091D01*
X0000457817Y0002769966D01*
X0000453318Y0002768841D01*
X0000449943Y0002768841D01*
X0000445443Y0002769966D01*
X0000443194Y0002771091D01*
X0000440943Y0002773340D01*
X0000439820Y0002776715D01*
X0000439820Y0002778965D01*
X0000440943Y0002782338D01*
X0000442069Y0002783464D01*
X0000439820Y0002791338D02*
X0000439820Y0002805961D01*
X0000448818Y0002798087D01*
X0000448818Y0002801462D01*
X0000449943Y0002803712D01*
X0000451068Y0002804836D01*
X0000453318Y0002805961D01*
X0000458942Y0002805961D01*
X0000461192Y0002804836D01*
X0000462317Y0002803712D01*
X0000463442Y0002801462D01*
X0000463442Y0002794713D01*
X0000462317Y0002792462D01*
X0000461192Y0002791338D01*
X0001045555Y0003140888D02*
X0001045555Y0003164510D01*
X0001054555Y0003164510D01*
X0001056805Y0003163385D01*
X0001057930Y0003162260D01*
X0001059055Y0003160011D01*
X0001059055Y0003156636D01*
X0001057930Y0003154386D01*
X0001056805Y0003153261D01*
X0001054555Y0003152136D01*
X0001045555Y0003152136D01*
X0001079302Y0003156636D02*
X0001079302Y0003140888D01*
X0001073678Y0003165635D02*
X0001068053Y0003148762D01*
X0001082677Y0003148762D01*
X0000894824Y0002595191D02*
X0000893700Y0002592941D01*
X0000891451Y0002590691D01*
X0000888076Y0002587317D01*
X0000886950Y0002585067D01*
X0000886950Y0002582817D01*
X0000892575Y0002583942D02*
X0000891451Y0002581691D01*
X0000889201Y0002579443D01*
X0000884701Y0002578318D01*
X0000876827Y0002578318D01*
X0000872328Y0002579443D01*
X0000870078Y0002581691D01*
X0000868953Y0002583942D01*
X0000868953Y0002588442D01*
X0000870078Y0002590691D01*
X0000872328Y0002592941D01*
X0000876827Y0002594066D01*
X0000884701Y0002594066D01*
X0000889201Y0002592941D01*
X0000891451Y0002590691D01*
X0000892575Y0002588442D01*
X0000892575Y0002583942D01*
X0000892575Y0002616563D02*
X0000892575Y0002603065D01*
X0000892575Y0002609814D02*
X0000868953Y0002609814D01*
X0000872328Y0002607563D01*
X0000874578Y0002605314D01*
X0000875701Y0002603065D01*
X0000683914Y0002641731D02*
X0000672665Y0002633858D01*
X0000683914Y0002628233D02*
X0000660291Y0002628233D01*
X0000660291Y0002637232D01*
X0000661417Y0002639482D01*
X0000662542Y0002640607D01*
X0000664791Y0002641731D01*
X0000668166Y0002641731D01*
X0000670416Y0002640607D01*
X0000671541Y0002639482D01*
X0000672665Y0002637232D01*
X0000672665Y0002628233D01*
X0000662542Y0002650731D02*
X0000661417Y0002651856D01*
X0000660291Y0002654105D01*
X0000660291Y0002659730D01*
X0000661417Y0002661979D01*
X0000662542Y0002663104D01*
X0000664791Y0002664229D01*
X0000667041Y0002664229D01*
X0000670416Y0002663104D01*
X0000683914Y0002649606D01*
X0000683914Y0002664229D01*
X0000987064Y0002539370D02*
X0000975815Y0002531496D01*
X0000987064Y0002525870D02*
X0000963442Y0002525870D01*
X0000963442Y0002534870D01*
X0000964565Y0002537120D01*
X0000965691Y0002538245D01*
X0000967941Y0002539370D01*
X0000971316Y0002539370D01*
X0000973565Y0002538245D01*
X0000974690Y0002537120D01*
X0000975815Y0002534870D01*
X0000975815Y0002525870D01*
X0000963442Y0002547244D02*
X0000963442Y0002561867D01*
X0000972440Y0002553993D01*
X0000972440Y0002557367D01*
X0000973565Y0002559617D01*
X0000974690Y0002560742D01*
X0000976940Y0002561867D01*
X0000982564Y0002561867D01*
X0000984814Y0002560742D01*
X0000985939Y0002559617D01*
X0000987064Y0002557367D01*
X0000987064Y0002550618D01*
X0000985939Y0002548368D01*
X0000984814Y0002547244D01*
X0000357142Y0002783464D02*
X0000345894Y0002775590D01*
X0000357142Y0002769966D02*
X0000333520Y0002769966D01*
X0000333520Y0002778965D01*
X0000334645Y0002781214D01*
X0000335770Y0002782338D01*
X0000338020Y0002783464D01*
X0000341394Y0002783464D01*
X0000343644Y0002782338D01*
X0000344768Y0002781214D01*
X0000345894Y0002778965D01*
X0000345894Y0002769966D01*
X0000341394Y0002803712D02*
X0000357142Y0002803712D01*
X0000332395Y0002798087D02*
X0000349268Y0002792462D01*
X0000349268Y0002807086D01*
X0000593363Y0002783464D02*
X0000582114Y0002775590D01*
X0000593363Y0002769966D02*
X0000569741Y0002769966D01*
X0000569741Y0002778965D01*
X0000570866Y0002781214D01*
X0000571990Y0002782338D01*
X0000574240Y0002783464D01*
X0000577615Y0002783464D01*
X0000579864Y0002782338D01*
X0000580989Y0002781214D01*
X0000582114Y0002778965D01*
X0000582114Y0002769966D01*
X0000569741Y0002804836D02*
X0000569741Y0002793588D01*
X0000580989Y0002792462D01*
X0000579864Y0002793588D01*
X0000578740Y0002795838D01*
X0000578740Y0002801462D01*
X0000579864Y0002803712D01*
X0000580989Y0002804836D01*
X0000583239Y0002805961D01*
X0000588863Y0002805961D01*
X0000591113Y0002804836D01*
X0000592238Y0002803712D01*
X0000593363Y0002801462D01*
X0000593363Y0002795838D01*
X0000592238Y0002793588D01*
X0000591113Y0002792462D01*
X0000597300Y0003007874D02*
X0000586051Y0002999999D01*
X0000597300Y0002994375D02*
X0000573678Y0002994375D01*
X0000573678Y0003003374D01*
X0000574803Y0003005624D01*
X0000575927Y0003006749D01*
X0000578177Y0003007874D01*
X0000581552Y0003007874D01*
X0000583802Y0003006749D01*
X0000584926Y0003005624D01*
X0000586051Y0003003374D01*
X0000586051Y0002994375D01*
X0000573678Y0003028121D02*
X0000573678Y0003023622D01*
X0000574803Y0003021372D01*
X0000575927Y0003020246D01*
X0000579302Y0003017997D01*
X0000583802Y0003016872D01*
X0000592800Y0003016872D01*
X0000595050Y0003017997D01*
X0000596175Y0003019122D01*
X0000597300Y0003021372D01*
X0000597300Y0003025871D01*
X0000596175Y0003028121D01*
X0000595050Y0003029246D01*
X0000592800Y0003030371D01*
X0000587176Y0003030371D01*
X0000584926Y0003029246D01*
X0000583802Y0003028121D01*
X0000582677Y0003025871D01*
X0000582677Y0003021372D01*
X0000583802Y0003019122D01*
X0000584926Y0003017997D01*
X0000587176Y0003016872D01*
X0000046119Y0003023622D02*
X0000034870Y0003015748D01*
X0000046119Y0003010123D02*
X0000022497Y0003010123D01*
X0000022497Y0003019122D01*
X0000023622Y0003021372D01*
X0000024746Y0003022497D01*
X0000026996Y0003023622D01*
X0000030370Y0003023622D01*
X0000032620Y0003022497D01*
X0000033745Y0003021372D01*
X0000034870Y0003019122D01*
X0000034870Y0003010123D01*
X0000022497Y0003031496D02*
X0000022497Y0003047244D01*
X0000046119Y0003037120D01*
X0000469066Y0002999999D02*
X0000470191Y0002998875D01*
X0000471316Y0002995500D01*
X0000471316Y0002993250D01*
X0000470191Y0002989876D01*
X0000467941Y0002987626D01*
X0000465691Y0002986501D01*
X0000461192Y0002985376D01*
X0000457817Y0002985376D01*
X0000453318Y0002986501D01*
X0000451068Y0002987626D01*
X0000448818Y0002989876D01*
X0000447694Y0002993250D01*
X0000447694Y0002995500D01*
X0000448818Y0002998875D01*
X0000449943Y0002999999D01*
X0000455568Y0003020246D02*
X0000471316Y0003020246D01*
X0000446569Y0003014623D02*
X0000463442Y0003008998D01*
X0000463442Y0003023622D01*
G04 next file*
%LPD*%
G01*
D47*
D48*
X0002029903Y0002456645D02*
X0001707103Y0002456645D01*
X0002029903Y0002440945D02*
X0001707103Y0002440945D01*
X0002029903Y0002232245D02*
X0001707103Y0002232245D01*
X0001707103Y0002212645D02*
X0002029903Y0002212645D01*
X0001919703Y0002232245D02*
X0001919703Y0002212645D01*
X0001715003Y0002212645D02*
X0001715003Y0002232245D01*
X0002022103Y0002232245D02*
X0002022103Y0002212645D01*
X0001817403Y0002212645D02*
X0001817403Y0002232245D01*
X0002029903Y0002212645D02*
X0002029903Y0002456645D01*
X0001707203Y0002456645D02*
X0001707203Y0002212645D01*
D49*
X0001789370Y0002856299D02*
X0001789370Y0002950787D01*
X0001789370Y0002950787D02*
X0001830708Y0002950787D01*
X0001919291Y0002879921D02*
X0001919291Y0002950787D01*
X0001919291Y0002950787D02*
X0001877952Y0002950787D01*
D48*
X0001701770Y0002893700D02*
X0001701770Y0002933070D01*
X0001754921Y0002933070D02*
X0001754921Y0002893700D01*
X0001960629Y0002899606D02*
X0001960629Y0002927165D01*
X0002007874Y0002927165D02*
X0002007874Y0002899606D01*
X0002225787Y0002888385D02*
X0002175787Y0002888385D01*
X0002225787Y0002953384D02*
X0002175787Y0002953384D01*
X0002175787Y0002953384D02*
X0002175787Y0002873385D01*
X0002175787Y0002873385D02*
X0002225787Y0002873385D01*
X0002225787Y0002873385D02*
X0002225787Y0002953384D01*
X0001833267Y0002730905D02*
X0001833267Y0002780905D01*
X0001898267Y0002730905D02*
X0001898267Y0002780905D01*
X0001898267Y0002780905D02*
X0001818267Y0002780905D01*
X0001818267Y0002780905D02*
X0001818267Y0002730905D01*
X0001818267Y0002730905D02*
X0001898267Y0002730905D01*
X0001644291Y0002730905D02*
X0001644291Y0002780905D01*
X0001709291Y0002730905D02*
X0001709291Y0002780905D01*
X0001709291Y0002780905D02*
X0001629291Y0002780905D01*
X0001629291Y0002780905D02*
X0001629291Y0002730905D01*
X0001629291Y0002730905D02*
X0001709291Y0002730905D01*
X0002228346Y0002572834D02*
X0002228346Y0002545275D01*
X0002181102Y0002545275D02*
X0002181102Y0002572834D01*
X0001780905Y0002534054D02*
X0001730905Y0002534054D01*
X0001780905Y0002599055D02*
X0001730905Y0002599055D01*
X0001730905Y0002599055D02*
X0001730905Y0002519055D01*
X0001730905Y0002519055D02*
X0001780905Y0002519055D01*
X0001780905Y0002519055D02*
X0001780905Y0002599055D01*
X0002262562Y0002232245D02*
X0002042161Y0002232245D01*
X0002049961Y0002212645D02*
X0002049961Y0002232245D01*
X0002254762Y0002232245D02*
X0002254762Y0002212645D01*
X0002152362Y0002212645D02*
X0002152362Y0002232245D01*
X0002042161Y0002440945D02*
X0002262562Y0002440945D01*
X0002042161Y0002212645D02*
X0002262562Y0002212645D01*
X0002262562Y0002212645D02*
X0002262562Y0002456645D01*
X0002262562Y0002456645D02*
X0002042161Y0002456645D01*
X0002042161Y0002456645D02*
X0002042161Y0002212645D01*
D49*
X0001931101Y0002624015D02*
X0002025589Y0002624015D01*
X0002025589Y0002624015D02*
X0002025589Y0002582676D01*
X0001954724Y0002494094D02*
X0002025589Y0002494094D01*
X0002025589Y0002494094D02*
X0002025589Y0002535433D01*
D48*
X0002109251Y0002933070D02*
X0002109251Y0002893700D01*
X0002056102Y0002893700D02*
X0002056102Y0002933070D01*
X0001611220Y0002893700D02*
X0001611220Y0002933070D01*
X0001664370Y0002933070D02*
X0001664370Y0002893700D01*
X0002095472Y0002539370D02*
X0002095472Y0002578740D01*
X0002148622Y0002578740D02*
X0002148622Y0002539370D01*
X0001884842Y0002578740D02*
X0001884842Y0002539370D01*
X0001831692Y0002539370D02*
X0001831692Y0002578740D01*
X0001672244Y0002578740D02*
X0001672244Y0002539370D01*
X0001619094Y0002539370D02*
X0001619094Y0002578740D01*
X0001520669Y0002893700D02*
X0001520669Y0002933070D01*
X0001573818Y0002933070D02*
X0001573818Y0002893700D01*
X0002178149Y0002708661D02*
X0002178149Y0002748030D01*
X0002231299Y0002748030D02*
X0002231299Y0002708661D01*
D49*
X0001609055Y0002272440D02*
X0001609055Y0002377165D01*
X0001406692Y0002272440D02*
X0001609055Y0002272440D01*
X0001406692Y0002377165D02*
X0001609055Y0002377165D01*
X0001406692Y0002272440D02*
X0001406692Y0002377165D01*
X0001356692Y0002272440D02*
X0001304330Y0002272440D01*
X0001304330Y0002272440D02*
X0001304330Y0002324803D01*
D48*
X0001966816Y0002469628D02*
X0001966816Y0002493250D01*
X0001975815Y0002493250D01*
X0001978065Y0002492125D01*
X0001979190Y0002491001D01*
X0001980314Y0002488751D01*
X0001980314Y0002485376D01*
X0001979190Y0002483127D01*
X0001978065Y0002482002D01*
X0001975815Y0002480877D01*
X0001966816Y0002480877D01*
X0002002812Y0002469628D02*
X0001989313Y0002469628D01*
X0001996062Y0002469628D02*
X0001996062Y0002493250D01*
X0001993813Y0002489876D01*
X0001991563Y0002487626D01*
X0001989313Y0002486501D01*
X0001852080Y0002900449D02*
X0001849831Y0002901573D01*
X0001847581Y0002903824D01*
X0001844206Y0002907199D01*
X0001841957Y0002908323D01*
X0001839707Y0002908323D01*
X0001840832Y0002902699D02*
X0001838582Y0002903824D01*
X0001836332Y0002906074D01*
X0001835208Y0002910573D01*
X0001835208Y0002918447D01*
X0001836332Y0002922947D01*
X0001838582Y0002925196D01*
X0001840832Y0002926321D01*
X0001845330Y0002926321D01*
X0001847581Y0002925196D01*
X0001849831Y0002922947D01*
X0001850956Y0002918447D01*
X0001850956Y0002910573D01*
X0001849831Y0002906074D01*
X0001847581Y0002903824D01*
X0001845330Y0002902699D01*
X0001840832Y0002902699D01*
X0001873453Y0002902699D02*
X0001859954Y0002902699D01*
X0001866704Y0002902699D02*
X0001866704Y0002926321D01*
X0001864453Y0002922947D01*
X0001862204Y0002920697D01*
X0001859954Y0002919572D01*
X0001699662Y0002956692D02*
X0001688413Y0002948818D01*
X0001699662Y0002943194D02*
X0001676040Y0002943194D01*
X0001676040Y0002952193D01*
X0001677165Y0002954443D01*
X0001678290Y0002955567D01*
X0001680539Y0002956692D01*
X0001683914Y0002956692D01*
X0001686164Y0002955567D01*
X0001687289Y0002954443D01*
X0001688413Y0002952193D01*
X0001688413Y0002943194D01*
X0001683914Y0002976940D02*
X0001699662Y0002976940D01*
X0001674915Y0002971316D02*
X0001691788Y0002965691D01*
X0001691788Y0002980313D01*
X0001957255Y0002948818D02*
X0001958380Y0002947694D01*
X0001959504Y0002944318D01*
X0001959504Y0002942069D01*
X0001958380Y0002938695D01*
X0001956129Y0002936445D01*
X0001953880Y0002935320D01*
X0001949381Y0002934195D01*
X0001946006Y0002934195D01*
X0001941507Y0002935320D01*
X0001939257Y0002936445D01*
X0001937006Y0002938695D01*
X0001935882Y0002942069D01*
X0001935882Y0002944318D01*
X0001937006Y0002947694D01*
X0001938132Y0002948818D01*
X0001935882Y0002956692D02*
X0001935882Y0002971316D01*
X0001944881Y0002963442D01*
X0001944881Y0002966816D01*
X0001946006Y0002969066D01*
X0001947131Y0002970191D01*
X0001949381Y0002971316D01*
X0001955005Y0002971316D01*
X0001957255Y0002970191D01*
X0001958380Y0002969066D01*
X0001959504Y0002966816D01*
X0001959504Y0002960066D01*
X0001958380Y0002957817D01*
X0001957255Y0002956692D01*
X0002154105Y0002964566D02*
X0002155230Y0002963442D01*
X0002156355Y0002960066D01*
X0002156355Y0002957817D01*
X0002155230Y0002954443D01*
X0002152980Y0002952193D01*
X0002150731Y0002951068D01*
X0002146231Y0002949943D01*
X0002142857Y0002949943D01*
X0002138357Y0002951068D01*
X0002136107Y0002952193D01*
X0002133858Y0002954443D01*
X0002132733Y0002957817D01*
X0002132733Y0002960066D01*
X0002133858Y0002963442D01*
X0002134983Y0002964566D01*
X0002156355Y0002987064D02*
X0002156355Y0002973565D01*
X0002156355Y0002980313D02*
X0002132733Y0002980313D01*
X0002136107Y0002978065D01*
X0002138357Y0002975814D01*
X0002139482Y0002973565D01*
X0001795275Y0002802587D02*
X0001794150Y0002801462D01*
X0001790776Y0002800337D01*
X0001788526Y0002800337D01*
X0001785151Y0002801462D01*
X0001782902Y0002803712D01*
X0001781777Y0002805961D01*
X0001780652Y0002810461D01*
X0001780652Y0002813835D01*
X0001781777Y0002818335D01*
X0001782902Y0002820584D01*
X0001785151Y0002822834D01*
X0001788526Y0002823959D01*
X0001790776Y0002823959D01*
X0001794150Y0002822834D01*
X0001795275Y0002821709D01*
X0001815523Y0002816085D02*
X0001815523Y0002800337D01*
X0001809898Y0002825084D02*
X0001804274Y0002808211D01*
X0001818897Y0002808211D01*
X0001606299Y0002802587D02*
X0001605174Y0002801462D01*
X0001601799Y0002800337D01*
X0001599550Y0002800337D01*
X0001596175Y0002801462D01*
X0001593925Y0002803712D01*
X0001592800Y0002805961D01*
X0001591676Y0002810461D01*
X0001591676Y0002813835D01*
X0001592800Y0002818335D01*
X0001593925Y0002820584D01*
X0001596175Y0002822834D01*
X0001599550Y0002823959D01*
X0001601799Y0002823959D01*
X0001605174Y0002822834D01*
X0001606299Y0002821709D01*
X0001627671Y0002823959D02*
X0001616422Y0002823959D01*
X0001615298Y0002812709D01*
X0001616422Y0002813835D01*
X0001618672Y0002814960D01*
X0001624296Y0002814960D01*
X0001626545Y0002813835D01*
X0001627671Y0002812709D01*
X0001628796Y0002810461D01*
X0001628796Y0002804836D01*
X0001627671Y0002802587D01*
X0001626545Y0002801462D01*
X0001624296Y0002800337D01*
X0001618672Y0002800337D01*
X0001616422Y0002801462D01*
X0001615298Y0002802587D01*
X0002177727Y0002511811D02*
X0002178852Y0002510686D01*
X0002179977Y0002507311D01*
X0002179977Y0002505061D01*
X0002178852Y0002501687D01*
X0002176602Y0002499437D01*
X0002174353Y0002498312D01*
X0002169853Y0002497187D01*
X0002166479Y0002497187D01*
X0002161979Y0002498312D01*
X0002159730Y0002499437D01*
X0002157480Y0002501687D01*
X0002156355Y0002505061D01*
X0002156355Y0002507311D01*
X0002157480Y0002510686D01*
X0002158605Y0002511811D01*
X0002156355Y0002532058D02*
X0002156355Y0002527559D01*
X0002157480Y0002525309D01*
X0002158605Y0002524183D01*
X0002161979Y0002521934D01*
X0002166479Y0002520809D01*
X0002175478Y0002520809D01*
X0002177727Y0002521934D01*
X0002178852Y0002523059D01*
X0002179977Y0002525309D01*
X0002179977Y0002529808D01*
X0002178852Y0002532058D01*
X0002177727Y0002533183D01*
X0002175478Y0002534308D01*
X0002169853Y0002534308D01*
X0002167604Y0002533183D01*
X0002166479Y0002532058D01*
X0002165354Y0002529808D01*
X0002165354Y0002525309D01*
X0002166479Y0002523059D01*
X0002167604Y0002521934D01*
X0002169853Y0002520809D01*
X0001707255Y0002507086D02*
X0001708380Y0002505961D01*
X0001709505Y0002502587D01*
X0001709505Y0002500337D01*
X0001708380Y0002496962D01*
X0001706130Y0002494713D01*
X0001703880Y0002493588D01*
X0001699381Y0002492463D01*
X0001696006Y0002492463D01*
X0001691507Y0002493588D01*
X0001689257Y0002494713D01*
X0001687007Y0002496962D01*
X0001685882Y0002500337D01*
X0001685882Y0002502587D01*
X0001687007Y0002505961D01*
X0001688132Y0002507086D01*
X0001685882Y0002514960D02*
X0001685882Y0002530708D01*
X0001709505Y0002520584D01*
X0002021934Y0002469628D02*
X0002021934Y0002493250D01*
X0002030933Y0002493250D01*
X0002033183Y0002492125D01*
X0002034307Y0002491001D01*
X0002035432Y0002488751D01*
X0002035432Y0002485376D01*
X0002034307Y0002483127D01*
X0002033183Y0002482002D01*
X0002030933Y0002480877D01*
X0002021934Y0002480877D01*
X0002044431Y0002491001D02*
X0002045556Y0002492125D01*
X0002047806Y0002493250D01*
X0002053430Y0002493250D01*
X0002055680Y0002492125D01*
X0002056805Y0002491001D01*
X0002057929Y0002488751D01*
X0002057929Y0002486501D01*
X0002056805Y0002483127D01*
X0002043307Y0002469628D01*
X0002057929Y0002469628D01*
X0002001481Y0002557789D02*
X0002000356Y0002555539D01*
X0001998106Y0002553290D01*
X0001994731Y0002549915D01*
X0001993607Y0002547665D01*
X0001993607Y0002545416D01*
X0001999231Y0002546541D02*
X0001998106Y0002544291D01*
X0001995855Y0002542041D01*
X0001991357Y0002540916D01*
X0001983483Y0002540916D01*
X0001978983Y0002542041D01*
X0001976732Y0002544291D01*
X0001975609Y0002546541D01*
X0001975609Y0002551040D01*
X0001976732Y0002553290D01*
X0001978983Y0002555539D01*
X0001983483Y0002556664D01*
X0001991357Y0002556664D01*
X0001995855Y0002555539D01*
X0001998106Y0002553290D01*
X0001999231Y0002551040D01*
X0001999231Y0002546541D01*
X0001977858Y0002565663D02*
X0001976732Y0002566788D01*
X0001975609Y0002569038D01*
X0001975609Y0002574662D01*
X0001976732Y0002576912D01*
X0001977858Y0002578037D01*
X0001980108Y0002579161D01*
X0001982358Y0002579161D01*
X0001985733Y0002578037D01*
X0001999231Y0002564538D01*
X0001999231Y0002579161D01*
X0002046119Y0002960629D02*
X0002034870Y0002952755D01*
X0002046119Y0002947131D02*
X0002022497Y0002947131D01*
X0002022497Y0002956130D01*
X0002023622Y0002958380D01*
X0002024746Y0002959505D01*
X0002026996Y0002960629D01*
X0002030371Y0002960629D01*
X0002032620Y0002959505D01*
X0002033745Y0002958380D01*
X0002034870Y0002956130D01*
X0002034870Y0002947131D01*
X0002046119Y0002983127D02*
X0002046119Y0002969628D01*
X0002046119Y0002976377D02*
X0002022497Y0002976377D01*
X0002025871Y0002974127D01*
X0002028121Y0002971878D01*
X0002029246Y0002969628D01*
X0001609110Y0002956692D02*
X0001597861Y0002948818D01*
X0001609110Y0002943194D02*
X0001585489Y0002943194D01*
X0001585489Y0002952193D01*
X0001586614Y0002954443D01*
X0001587739Y0002955567D01*
X0001589987Y0002956692D01*
X0001593363Y0002956692D01*
X0001595613Y0002955567D01*
X0001596737Y0002954443D01*
X0001597861Y0002952193D01*
X0001597861Y0002943194D01*
X0001585489Y0002978065D02*
X0001585489Y0002966816D01*
X0001596737Y0002965691D01*
X0001595613Y0002966816D01*
X0001594488Y0002969066D01*
X0001594488Y0002974690D01*
X0001595613Y0002976940D01*
X0001596737Y0002978065D01*
X0001598987Y0002979190D01*
X0001604611Y0002979190D01*
X0001606861Y0002978065D01*
X0001607986Y0002976940D01*
X0001609110Y0002974690D01*
X0001609110Y0002969066D01*
X0001607986Y0002966816D01*
X0001606861Y0002965691D01*
X0002093363Y0002507874D02*
X0002082113Y0002500000D01*
X0002093363Y0002494375D02*
X0002069741Y0002494375D01*
X0002069741Y0002503374D01*
X0002070866Y0002505624D01*
X0002071990Y0002506749D01*
X0002074240Y0002507874D01*
X0002077615Y0002507874D01*
X0002079864Y0002506749D01*
X0002080989Y0002505624D01*
X0002082113Y0002503374D01*
X0002082113Y0002494375D01*
X0002069741Y0002528121D02*
X0002069741Y0002523622D01*
X0002070866Y0002521372D01*
X0002071990Y0002520247D01*
X0002075365Y0002517997D01*
X0002079864Y0002516872D01*
X0002088863Y0002516872D01*
X0002091113Y0002517997D01*
X0002092238Y0002519122D01*
X0002093363Y0002521372D01*
X0002093363Y0002525870D01*
X0002092238Y0002528121D01*
X0002091113Y0002529246D01*
X0002088863Y0002530371D01*
X0002083238Y0002530371D01*
X0002080989Y0002529246D01*
X0002079864Y0002528121D01*
X0002078739Y0002525870D01*
X0002078739Y0002521372D01*
X0002079864Y0002519122D01*
X0002080989Y0002517997D01*
X0002083238Y0002516872D01*
X0001829583Y0002507874D02*
X0001818335Y0002500000D01*
X0001829583Y0002494375D02*
X0001805961Y0002494375D01*
X0001805961Y0002503374D01*
X0001807086Y0002505624D01*
X0001808211Y0002506749D01*
X0001810461Y0002507874D01*
X0001813835Y0002507874D01*
X0001816085Y0002506749D01*
X0001817210Y0002505624D01*
X0001818335Y0002503374D01*
X0001818335Y0002494375D01*
X0001805961Y0002515748D02*
X0001805961Y0002531496D01*
X0001829583Y0002521372D01*
X0001616591Y0002507874D02*
X0001605341Y0002500000D01*
X0001616591Y0002494375D02*
X0001592969Y0002494375D01*
X0001592969Y0002503374D01*
X0001594093Y0002505624D01*
X0001595219Y0002506749D01*
X0001597469Y0002507874D01*
X0001600843Y0002507874D01*
X0001603093Y0002506749D01*
X0001604218Y0002505624D01*
X0001605341Y0002503374D01*
X0001605341Y0002494375D01*
X0001603093Y0002521372D02*
X0001601968Y0002519122D01*
X0001600843Y0002517997D01*
X0001598593Y0002516872D01*
X0001597469Y0002516872D01*
X0001595219Y0002517997D01*
X0001594093Y0002519122D01*
X0001592969Y0002521372D01*
X0001592969Y0002525870D01*
X0001594093Y0002528121D01*
X0001595219Y0002529246D01*
X0001597469Y0002530371D01*
X0001598593Y0002530371D01*
X0001600843Y0002529246D01*
X0001601968Y0002528121D01*
X0001603093Y0002525870D01*
X0001603093Y0002521372D01*
X0001604218Y0002519122D01*
X0001605341Y0002517997D01*
X0001607592Y0002516872D01*
X0001612092Y0002516872D01*
X0001614341Y0002517997D01*
X0001615466Y0002519122D01*
X0001616591Y0002521372D01*
X0001616591Y0002525870D01*
X0001615466Y0002528121D01*
X0001614341Y0002529246D01*
X0001612092Y0002530371D01*
X0001607592Y0002530371D01*
X0001605341Y0002529246D01*
X0001604218Y0002528121D01*
X0001603093Y0002525870D01*
X0001506749Y0002968503D02*
X0001495500Y0002960629D01*
X0001506749Y0002955005D02*
X0001483127Y0002955005D01*
X0001483127Y0002964004D01*
X0001484251Y0002966254D01*
X0001485376Y0002967379D01*
X0001487626Y0002968503D01*
X0001491001Y0002968503D01*
X0001493250Y0002967379D01*
X0001494375Y0002966254D01*
X0001495500Y0002964004D01*
X0001495500Y0002955005D01*
X0001506749Y0002979752D02*
X0001506749Y0002984251D01*
X0001505624Y0002986501D01*
X0001504499Y0002987626D01*
X0001501122Y0002989876D01*
X0001496625Y0002991001D01*
X0001487626Y0002991001D01*
X0001485376Y0002989876D01*
X0001484251Y0002988750D01*
X0001483127Y0002986501D01*
X0001483127Y0002982002D01*
X0001484251Y0002979752D01*
X0001485376Y0002978627D01*
X0001487626Y0002977502D01*
X0001493250Y0002977502D01*
X0001495500Y0002978627D01*
X0001496625Y0002979752D01*
X0001497750Y0002982002D01*
X0001497750Y0002986501D01*
X0001496625Y0002988750D01*
X0001495500Y0002989876D01*
X0001493250Y0002991001D01*
X0002261670Y0002760404D02*
X0002250421Y0002752529D01*
X0002261670Y0002746906D02*
X0002238048Y0002746906D01*
X0002238048Y0002755905D01*
X0002239173Y0002758155D01*
X0002240298Y0002759280D01*
X0002242547Y0002760404D01*
X0002245922Y0002760404D01*
X0002248172Y0002759280D01*
X0002249297Y0002758155D01*
X0002250421Y0002755905D01*
X0002250421Y0002746906D01*
X0002261670Y0002782902D02*
X0002261670Y0002769403D01*
X0002261670Y0002776152D02*
X0002238048Y0002776152D01*
X0002241422Y0002773903D01*
X0002243672Y0002771653D01*
X0002244797Y0002769403D01*
X0002238048Y0002797525D02*
X0002238048Y0002799775D01*
X0002239173Y0002802024D01*
X0002240298Y0002803149D01*
X0002242547Y0002804274D01*
X0002247047Y0002805399D01*
X0002252671Y0002805399D01*
X0002257171Y0002804274D01*
X0002259420Y0002803149D01*
X0002260545Y0002802024D01*
X0002261670Y0002799775D01*
X0002261670Y0002797525D01*
X0002260545Y0002795275D01*
X0002259420Y0002794150D01*
X0002257171Y0002793025D01*
X0002252671Y0002791901D01*
X0002247047Y0002791901D01*
X0002242547Y0002793025D01*
X0002240298Y0002794150D01*
X0002239173Y0002795275D01*
X0002238048Y0002797525D01*
X0001276826Y0002372047D02*
X0001293700Y0002372047D01*
X0001297075Y0002370922D01*
X0001299324Y0002368672D01*
X0001300449Y0002365298D01*
X0001300449Y0002363048D01*
X0001300449Y0002395669D02*
X0001300449Y0002382170D01*
X0001300449Y0002388920D02*
X0001276826Y0002388920D01*
X0001280201Y0002386670D01*
X0001282452Y0002384420D01*
X0001283577Y0002382170D01*
G01*
D60*
D61*
X0002579921Y0001959448D02*
X0002579921Y0002059448D01*
X0002568896Y0001848423D02*
X0002568896Y0001909448D01*
X0002579921Y0001959448D02*
X0002679921Y0001959448D01*
X0002690944Y0001909448D02*
X0002690944Y0001848423D01*
X0002690944Y0001848423D02*
X0002568896Y0001848423D01*
X0002679921Y0001959448D02*
X0002679921Y0002059448D01*
X0002679921Y0002059448D02*
X0002579921Y0002059448D01*
X0002675984Y0001312204D02*
X0002675984Y0001212204D01*
X0002687007Y0001423228D02*
X0002687007Y0001362204D01*
X0002675984Y0001312204D02*
X0002575984Y0001312204D01*
X0002564960Y0001362204D02*
X0002564960Y0001423228D01*
X0002564960Y0001423228D02*
X0002687007Y0001423228D01*
X0002575984Y0001312204D02*
X0002575984Y0001212204D01*
X0002575984Y0001212204D02*
X0002675984Y0001212204D01*
D62*
X0001943307Y0001595275D02*
X0001943307Y0001631889D01*
X0001943307Y0001719685D02*
X0001943307Y0001683070D01*
X0001943307Y0001719685D02*
X0001818897Y0001719685D01*
X0001943307Y0001595275D02*
X0001885826Y0001595275D01*
D61*
X0001893700Y0002030511D02*
X0001933070Y0002030511D01*
X0001933070Y0001977362D02*
X0001893700Y0001977362D01*
X0001933070Y0001276574D02*
X0001893700Y0001276574D01*
X0001893700Y0001329724D02*
X0001933070Y0001329724D01*
X0002600862Y0001789276D02*
X0002600862Y0001828646D01*
X0002615860Y0001828646D01*
X0002619610Y0001826771D01*
X0002621484Y0001824896D01*
X0002623359Y0001821147D01*
X0002623359Y0001815523D01*
X0002621484Y0001811773D01*
X0002619610Y0001809898D01*
X0002615860Y0001808024D01*
X0002600862Y0001808024D01*
X0002660854Y0001789276D02*
X0002638357Y0001789276D01*
X0002649606Y0001789276D02*
X0002649606Y0001828646D01*
X0002645856Y0001823022D01*
X0002642107Y0001819272D01*
X0002638357Y0001817397D01*
X0002596925Y0001446756D02*
X0002596925Y0001486125D01*
X0002611923Y0001486125D01*
X0002615673Y0001484251D01*
X0002617547Y0001482377D01*
X0002619422Y0001478627D01*
X0002619422Y0001473002D01*
X0002617547Y0001469253D01*
X0002615673Y0001467379D01*
X0002611923Y0001465504D01*
X0002596925Y0001465504D01*
X0002634420Y0001482377D02*
X0002636295Y0001484251D01*
X0002640045Y0001486125D01*
X0002649418Y0001486125D01*
X0002653167Y0001484251D01*
X0002655043Y0001482377D01*
X0002656917Y0001478627D01*
X0002656917Y0001474876D01*
X0002655043Y0001469253D01*
X0002632545Y0001446756D01*
X0002656917Y0001446756D01*
X0001909636Y0001734345D02*
X0001905886Y0001736220D01*
X0001902137Y0001739970D01*
X0001896512Y0001745594D01*
X0001892763Y0001747469D01*
X0001889013Y0001747469D01*
X0001890888Y0001738094D02*
X0001887139Y0001739970D01*
X0001883389Y0001743719D01*
X0001881514Y0001751217D01*
X0001881514Y0001764340D01*
X0001883389Y0001771841D01*
X0001887139Y0001775589D01*
X0001890888Y0001777465D01*
X0001898387Y0001777465D01*
X0001902137Y0001775589D01*
X0001905886Y0001771841D01*
X0001907761Y0001764340D01*
X0001907761Y0001751217D01*
X0001905886Y0001743719D01*
X0001902137Y0001739970D01*
X0001898387Y0001738094D01*
X0001890888Y0001738094D01*
X0001945256Y0001738094D02*
X0001922759Y0001738094D01*
X0001934008Y0001738094D02*
X0001934008Y0001777465D01*
X0001930258Y0001771841D01*
X0001926509Y0001768091D01*
X0001922759Y0001766216D01*
X0001906824Y0001911323D02*
X0001893700Y0001930071D01*
X0001884326Y0001911323D02*
X0001884326Y0001950693D01*
X0001899325Y0001950693D01*
X0001903074Y0001948818D01*
X0001904949Y0001946944D01*
X0001906824Y0001943194D01*
X0001906824Y0001937570D01*
X0001904949Y0001933820D01*
X0001903074Y0001931945D01*
X0001899325Y0001930071D01*
X0001884326Y0001930071D01*
X0001944319Y0001911323D02*
X0001921822Y0001911323D01*
X0001933070Y0001911323D02*
X0001933070Y0001950693D01*
X0001929321Y0001945069D01*
X0001925571Y0001941317D01*
X0001921822Y0001939445D01*
X0001906824Y0001360142D02*
X0001893700Y0001378889D01*
X0001884326Y0001360142D02*
X0001884326Y0001399512D01*
X0001899325Y0001399512D01*
X0001903074Y0001397637D01*
X0001904949Y0001395763D01*
X0001906824Y0001392012D01*
X0001906824Y0001386389D01*
X0001904949Y0001382639D01*
X0001903074Y0001380764D01*
X0001899325Y0001378889D01*
X0001884326Y0001378889D01*
X0001921822Y0001395763D02*
X0001923697Y0001397637D01*
X0001927446Y0001399512D01*
X0001936820Y0001399512D01*
X0001940569Y0001397637D01*
X0001942444Y0001395763D01*
X0001944319Y0001392012D01*
X0001944319Y0001388263D01*
X0001942444Y0001382639D01*
X0001919947Y0001360142D01*
X0001944319Y0001360142D01*
G04 next file*
G01*
D73*
D74*
X0000554133Y0000252952D02*
X0000554133Y0000258660D01*
X0000390748Y0000252952D02*
X0000390748Y0000258660D01*
X0000390748Y0000455708D02*
X0000390748Y0000450000D01*
X0000554133Y0000455708D02*
X0000554133Y0000450000D01*
X0000554133Y0000252952D02*
X0000390748Y0000252952D01*
X0000554133Y0000455708D02*
X0000390748Y0000455708D01*
X0000554133Y0000258660D02*
X0000609251Y0000258660D01*
D75*
X0000025589Y0000216535D02*
X0000025589Y0000031496D01*
X0000025589Y0000031496D02*
X0000501967Y0000031496D01*
X0000501967Y0000031496D02*
X0000501967Y0000216535D01*
X0000501967Y0000216535D02*
X0000025589Y0000216535D01*
X0000125984Y0000216535D02*
X0000125984Y0000192913D01*
X0000125984Y0000192913D02*
X0000049212Y0000192913D01*
X0000049212Y0000192913D02*
X0000049212Y0000055117D01*
X0000049212Y0000055117D02*
X0000478346Y0000055117D01*
X0000478346Y0000055117D02*
X0000478346Y0000192913D01*
X0000478346Y0000192913D02*
X0000401574Y0000192913D01*
X0000401574Y0000192913D02*
X0000401574Y0000216535D01*
X0000025589Y0000165354D02*
X0000049212Y0000165354D01*
X0000025589Y0000114173D02*
X0000049212Y0000114173D01*
X0000501967Y0000165354D02*
X0000478346Y0000165354D01*
X0000501967Y0000114173D02*
X0000478346Y0000114173D01*
X0000094488Y0000216535D02*
X0000094488Y0000224409D01*
X0000094488Y0000224409D02*
X0000082677Y0000224409D01*
X0000082677Y0000224409D02*
X0000082677Y0000216535D01*
X0000094488Y0000220471D02*
X0000082677Y0000220471D01*
X0000141732Y0000055117D02*
X0000141732Y0000074803D01*
X0000141732Y0000074803D02*
X0000149606Y0000074803D01*
X0000149606Y0000074803D02*
X0000149606Y0000055117D01*
X0000145669Y0000055117D02*
X0000145669Y0000074803D01*
X0000220471Y0000055117D02*
X0000220471Y0000074803D01*
X0000220471Y0000074803D02*
X0000228346Y0000074803D01*
X0000228346Y0000074803D02*
X0000228346Y0000055117D01*
X0000224409Y0000055117D02*
X0000224409Y0000074803D01*
X0000299212Y0000055117D02*
X0000299212Y0000074803D01*
X0000299212Y0000074803D02*
X0000307086Y0000074803D01*
X0000307086Y0000074803D02*
X0000307086Y0000055117D01*
X0000303149Y0000055117D02*
X0000303149Y0000074803D01*
X0000377952Y0000055117D02*
X0000377952Y0000074803D01*
X0000377952Y0000074803D02*
X0000385826Y0000074803D01*
X0000385826Y0000074803D02*
X0000385826Y0000055117D01*
X0000381888Y0000055117D02*
X0000381888Y0000074803D01*
X0000062992Y0000228346D02*
X0000013779Y0000228346D01*
X0000013779Y0000228346D02*
X0000013779Y0000179133D01*
D74*
X0000177165Y0000406496D02*
X0000137795Y0000406496D01*
X0000137795Y0000459644D02*
X0000177165Y0000459644D01*
X0000771653Y0000585629D02*
X0000811023Y0000585629D01*
X0000811023Y0000532480D02*
X0000771653Y0000532480D01*
X0000811023Y0000839566D02*
X0000771653Y0000839566D01*
X0000771653Y0000892716D02*
X0000811023Y0000892716D01*
X0000822834Y0000474409D02*
X0000783464Y0000474409D01*
X0000783464Y0000407480D02*
X0000822834Y0000407480D01*
X0000811023Y0000650590D02*
X0000771653Y0000650590D01*
X0000771653Y0000703740D02*
X0000811023Y0000703740D01*
X0000173228Y0000504920D02*
X0000133858Y0000504920D01*
X0000133858Y0000558070D02*
X0000173228Y0000558070D01*
X0000173228Y0000721456D02*
X0000133858Y0000721456D01*
X0000133858Y0000774606D02*
X0000173228Y0000774606D01*
X0000173228Y0000839566D02*
X0000133858Y0000839566D01*
X0000133858Y0000892716D02*
X0000173228Y0000892716D01*
X0000173228Y0000603346D02*
X0000133858Y0000603346D01*
X0000133858Y0000656496D02*
X0000173228Y0000656496D01*
D75*
X0000521653Y0000216535D02*
X0000521653Y0000031496D01*
X0000521653Y0000031496D02*
X0000919291Y0000031496D01*
X0000919291Y0000031496D02*
X0000919291Y0000216535D01*
X0000919291Y0000216535D02*
X0000521653Y0000216535D01*
X0000622047Y0000216535D02*
X0000622047Y0000192913D01*
X0000622047Y0000192913D02*
X0000545275Y0000192913D01*
X0000545275Y0000192913D02*
X0000545275Y0000055117D01*
X0000545275Y0000055117D02*
X0000895669Y0000055117D01*
X0000895669Y0000055117D02*
X0000895669Y0000192913D01*
X0000895669Y0000192913D02*
X0000818897Y0000192913D01*
X0000818897Y0000192913D02*
X0000818897Y0000216535D01*
X0000521653Y0000165354D02*
X0000545275Y0000165354D01*
X0000521653Y0000114173D02*
X0000545275Y0000114173D01*
X0000919291Y0000165354D02*
X0000895669Y0000165354D01*
X0000919291Y0000114173D02*
X0000895669Y0000114173D01*
X0000590551Y0000216535D02*
X0000590551Y0000224409D01*
X0000590551Y0000224409D02*
X0000578740Y0000224409D01*
X0000578740Y0000224409D02*
X0000578740Y0000216535D01*
X0000590551Y0000220471D02*
X0000578740Y0000220471D01*
X0000637795Y0000055117D02*
X0000637795Y0000074803D01*
X0000637795Y0000074803D02*
X0000645669Y0000074803D01*
X0000645669Y0000074803D02*
X0000645669Y0000055117D01*
X0000641732Y0000055117D02*
X0000641732Y0000074803D01*
X0000716535Y0000055117D02*
X0000716535Y0000074803D01*
X0000716535Y0000074803D02*
X0000724409Y0000074803D01*
X0000724409Y0000074803D02*
X0000724409Y0000055117D01*
X0000720472Y0000055117D02*
X0000720472Y0000074803D01*
X0000795275Y0000055117D02*
X0000795275Y0000074803D01*
X0000795275Y0000074803D02*
X0000803149Y0000074803D01*
X0000803149Y0000074803D02*
X0000803149Y0000055117D01*
X0000799212Y0000055117D02*
X0000799212Y0000074803D01*
X0000559055Y0000228346D02*
X0000509842Y0000228346D01*
X0000509842Y0000228346D02*
X0000509842Y0000179133D01*
D74*
X0000492125Y0000805118D02*
X0000452755Y0000805118D01*
X0000452755Y0000738188D02*
X0000492125Y0000738188D01*
X0000458661Y0000551181D02*
X0000486220Y0000551181D01*
X0000486220Y0000503936D02*
X0000458661Y0000503936D01*
D75*
X0000120078Y0000358267D02*
X0000147637Y0000358267D01*
X0000147637Y0000311023D02*
X0000120078Y0000311023D01*
X0000807086Y0000288188D02*
X0000767716Y0000288188D01*
X0000767716Y0000341732D02*
X0000807086Y0000341732D01*
D74*
X0000454443Y0000367266D02*
X0000454443Y0000348143D01*
X0000455568Y0000345894D01*
X0000456692Y0000344768D01*
X0000458942Y0000343644D01*
X0000463442Y0000343644D01*
X0000465691Y0000344768D01*
X0000466816Y0000345894D01*
X0000467941Y0000348143D01*
X0000467941Y0000367266D01*
X0000491563Y0000343644D02*
X0000478065Y0000343644D01*
X0000484814Y0000343644D02*
X0000484814Y0000367266D01*
X0000482563Y0000363891D01*
X0000480314Y0000361642D01*
X0000478065Y0000360517D01*
X0000021934Y0000237345D02*
X0000021934Y0000260967D01*
X0000030933Y0000260967D01*
X0000033183Y0000259842D01*
X0000034308Y0000258716D01*
X0000035433Y0000256467D01*
X0000035433Y0000253093D01*
X0000034308Y0000250842D01*
X0000033183Y0000249718D01*
X0000030933Y0000248593D01*
X0000021934Y0000248593D01*
X0000057930Y0000237345D02*
X0000044431Y0000237345D01*
X0000051181Y0000237345D02*
X0000051181Y0000260967D01*
X0000048931Y0000257592D01*
X0000046681Y0000255343D01*
X0000044431Y0000254218D01*
X0000094488Y0000469628D02*
X0000086614Y0000480877D01*
X0000080989Y0000469628D02*
X0000080989Y0000493250D01*
X0000089988Y0000493250D01*
X0000092238Y0000492125D01*
X0000093363Y0000491001D01*
X0000094488Y0000488751D01*
X0000094488Y0000485376D01*
X0000093363Y0000483127D01*
X0000092238Y0000482002D01*
X0000089988Y0000480877D01*
X0000080989Y0000480877D01*
X0000107985Y0000483127D02*
X0000105736Y0000484251D01*
X0000104611Y0000485376D01*
X0000103487Y0000487626D01*
X0000103487Y0000488751D01*
X0000104611Y0000491001D01*
X0000105736Y0000492125D01*
X0000107985Y0000493250D01*
X0000112485Y0000493250D01*
X0000114735Y0000492125D01*
X0000115860Y0000491001D01*
X0000116985Y0000488751D01*
X0000116985Y0000487626D01*
X0000115860Y0000485376D01*
X0000114735Y0000484251D01*
X0000112485Y0000483127D01*
X0000107985Y0000483127D01*
X0000105736Y0000482002D01*
X0000104611Y0000480877D01*
X0000103487Y0000478627D01*
X0000103487Y0000474128D01*
X0000104611Y0000471878D01*
X0000105736Y0000470753D01*
X0000107985Y0000469628D01*
X0000112485Y0000469628D01*
X0000114735Y0000470753D01*
X0000115860Y0000471878D01*
X0000116985Y0000474128D01*
X0000116985Y0000478627D01*
X0000115860Y0000480877D01*
X0000114735Y0000482002D01*
X0000112485Y0000483127D01*
X0000846455Y0000501124D02*
X0000838582Y0000512372D01*
X0000832958Y0000501124D02*
X0000832958Y0000524746D01*
X0000841957Y0000524746D01*
X0000844206Y0000523622D01*
X0000845331Y0000522497D01*
X0000846455Y0000520247D01*
X0000846455Y0000516872D01*
X0000845331Y0000514623D01*
X0000844206Y0000513498D01*
X0000841957Y0000512372D01*
X0000832958Y0000512372D01*
X0000868953Y0000501124D02*
X0000855455Y0000501124D01*
X0000862204Y0000501124D02*
X0000862204Y0000524746D01*
X0000859955Y0000521371D01*
X0000857704Y0000519122D01*
X0000855455Y0000517997D01*
X0000732283Y0000902699D02*
X0000724409Y0000913948D01*
X0000718785Y0000902699D02*
X0000718785Y0000926321D01*
X0000727783Y0000926321D01*
X0000730032Y0000925196D01*
X0000731158Y0000924072D01*
X0000732283Y0000921822D01*
X0000732283Y0000918447D01*
X0000731158Y0000916196D01*
X0000730032Y0000915073D01*
X0000727783Y0000913948D01*
X0000718785Y0000913948D01*
X0000741282Y0000924072D02*
X0000742407Y0000925196D01*
X0000744656Y0000926321D01*
X0000750281Y0000926321D01*
X0000752530Y0000925196D01*
X0000753654Y0000924072D01*
X0000754780Y0000921822D01*
X0000754780Y0000919572D01*
X0000753654Y0000916196D01*
X0000740157Y0000902699D01*
X0000754780Y0000902699D01*
X0000728346Y0000487626D02*
X0000727221Y0000486501D01*
X0000723846Y0000485376D01*
X0000721597Y0000485376D01*
X0000718222Y0000486501D01*
X0000715972Y0000488751D01*
X0000714848Y0000491001D01*
X0000713723Y0000495500D01*
X0000713723Y0000498875D01*
X0000714848Y0000503374D01*
X0000715972Y0000505623D01*
X0000718222Y0000507874D01*
X0000721597Y0000508997D01*
X0000723846Y0000508997D01*
X0000727221Y0000507874D01*
X0000728346Y0000506749D01*
X0000736220Y0000508997D02*
X0000750843Y0000508997D01*
X0000742969Y0000500000D01*
X0000746344Y0000500000D01*
X0000748593Y0000498875D01*
X0000749718Y0000497750D01*
X0000750843Y0000495500D01*
X0000750843Y0000489876D01*
X0000749718Y0000487626D01*
X0000748593Y0000486501D01*
X0000746344Y0000485376D01*
X0000739595Y0000485376D01*
X0000737345Y0000486501D01*
X0000736220Y0000487626D01*
X0000728346Y0000713723D02*
X0000720472Y0000724971D01*
X0000714848Y0000713723D02*
X0000714848Y0000737345D01*
X0000723846Y0000737345D01*
X0000726096Y0000736220D01*
X0000727221Y0000735095D01*
X0000728346Y0000732845D01*
X0000728346Y0000729471D01*
X0000727221Y0000727221D01*
X0000726096Y0000726096D01*
X0000723846Y0000724971D01*
X0000714848Y0000724971D01*
X0000736220Y0000737345D02*
X0000750843Y0000737345D01*
X0000742969Y0000728346D01*
X0000746344Y0000728346D01*
X0000748593Y0000727221D01*
X0000749718Y0000726096D01*
X0000750843Y0000723846D01*
X0000750843Y0000718222D01*
X0000749718Y0000715972D01*
X0000748593Y0000714848D01*
X0000746344Y0000713723D01*
X0000739595Y0000713723D01*
X0000737345Y0000714848D01*
X0000736220Y0000715972D01*
X0000090551Y0000568053D02*
X0000082677Y0000579302D01*
X0000077052Y0000568053D02*
X0000077052Y0000591676D01*
X0000086050Y0000591676D01*
X0000088300Y0000590551D01*
X0000089426Y0000589426D01*
X0000090551Y0000587176D01*
X0000090551Y0000583801D01*
X0000089426Y0000581552D01*
X0000088300Y0000580427D01*
X0000086050Y0000579302D01*
X0000077052Y0000579302D01*
X0000098425Y0000591676D02*
X0000114173Y0000591676D01*
X0000104049Y0000568053D01*
X0000204724Y0000690101D02*
X0000196850Y0000701349D01*
X0000191226Y0000690101D02*
X0000191226Y0000713723D01*
X0000200224Y0000713723D01*
X0000202474Y0000712598D01*
X0000203599Y0000711473D01*
X0000204724Y0000709223D01*
X0000204724Y0000705849D01*
X0000203599Y0000703599D01*
X0000202474Y0000702474D01*
X0000200224Y0000701349D01*
X0000191226Y0000701349D01*
X0000226096Y0000713723D02*
X0000214848Y0000713723D01*
X0000213723Y0000702474D01*
X0000214848Y0000703599D01*
X0000217097Y0000704723D01*
X0000222721Y0000704723D01*
X0000224971Y0000703599D01*
X0000226096Y0000702474D01*
X0000227221Y0000700224D01*
X0000227221Y0000694600D01*
X0000226096Y0000692350D01*
X0000224971Y0000691226D01*
X0000222721Y0000690101D01*
X0000217097Y0000690101D01*
X0000214848Y0000691226D01*
X0000213723Y0000692350D01*
X0000204724Y0000808211D02*
X0000196850Y0000819460D01*
X0000191226Y0000808211D02*
X0000191226Y0000831833D01*
X0000200224Y0000831833D01*
X0000202474Y0000830708D01*
X0000203599Y0000829583D01*
X0000204724Y0000827334D01*
X0000204724Y0000823959D01*
X0000203599Y0000821709D01*
X0000202474Y0000820584D01*
X0000200224Y0000819460D01*
X0000191226Y0000819460D01*
X0000224971Y0000823959D02*
X0000224971Y0000808211D01*
X0000219347Y0000832958D02*
X0000213723Y0000816085D01*
X0000228346Y0000816085D01*
X0000090551Y0000666479D02*
X0000082677Y0000677727D01*
X0000077052Y0000666479D02*
X0000077052Y0000690101D01*
X0000086050Y0000690101D01*
X0000088300Y0000688976D01*
X0000089426Y0000687851D01*
X0000090551Y0000685600D01*
X0000090551Y0000682227D01*
X0000089426Y0000679977D01*
X0000088300Y0000678852D01*
X0000086050Y0000677727D01*
X0000077052Y0000677727D01*
X0000110798Y0000690101D02*
X0000106299Y0000690101D01*
X0000104049Y0000688976D01*
X0000102924Y0000687851D01*
X0000100674Y0000684476D01*
X0000099550Y0000679977D01*
X0000099550Y0000670978D01*
X0000100674Y0000668728D01*
X0000101799Y0000667604D01*
X0000104049Y0000666479D01*
X0000108548Y0000666479D01*
X0000110798Y0000667604D01*
X0000111923Y0000668728D01*
X0000113048Y0000670978D01*
X0000113048Y0000676602D01*
X0000111923Y0000678852D01*
X0000110798Y0000679977D01*
X0000108548Y0000681102D01*
X0000104049Y0000681102D01*
X0000101799Y0000679977D01*
X0000100674Y0000678852D01*
X0000099550Y0000676602D01*
X0000521934Y-0000002812D02*
X0000521934Y0000020809D01*
X0000530933Y0000020809D01*
X0000533183Y0000019685D01*
X0000534308Y0000018560D01*
X0000535433Y0000016310D01*
X0000535433Y0000012935D01*
X0000534308Y0000010686D01*
X0000533183Y0000009561D01*
X0000530933Y0000008436D01*
X0000521934Y0000008436D01*
X0000543307Y0000020809D02*
X0000557930Y0000020809D01*
X0000550056Y0000011810D01*
X0000553430Y0000011810D01*
X0000555680Y0000010686D01*
X0000556805Y0000009561D01*
X0000557930Y0000007311D01*
X0000557930Y0000001687D01*
X0000556805Y-0000000562D01*
X0000555680Y-0000001687D01*
X0000553430Y-0000002812D01*
X0000546681Y-0000002812D01*
X0000544431Y-0000001687D01*
X0000543307Y-0000000562D01*
X0000582677Y0000767154D02*
X0000581552Y0000766029D01*
X0000578177Y0000764904D01*
X0000575927Y0000764904D01*
X0000572553Y0000766029D01*
X0000570303Y0000768278D01*
X0000569178Y0000770528D01*
X0000568054Y0000775028D01*
X0000568054Y0000778401D01*
X0000569178Y0000782902D01*
X0000570303Y0000785151D01*
X0000572553Y0000787401D01*
X0000575927Y0000788526D01*
X0000578177Y0000788526D01*
X0000581552Y0000787401D01*
X0000582677Y0000786276D01*
X0000604049Y0000788526D02*
X0000592800Y0000788526D01*
X0000591676Y0000777277D01*
X0000592800Y0000778401D01*
X0000595050Y0000779527D01*
X0000600674Y0000779527D01*
X0000602924Y0000778401D01*
X0000604049Y0000777277D01*
X0000605174Y0000775028D01*
X0000605174Y0000769403D01*
X0000604049Y0000767154D01*
X0000602924Y0000766029D01*
X0000600674Y0000764904D01*
X0000595050Y0000764904D01*
X0000592800Y0000766029D01*
X0000591676Y0000767154D01*
X0000433070Y0000561445D02*
X0000431946Y0000560320D01*
X0000428571Y0000559195D01*
X0000426320Y0000559195D01*
X0000422947Y0000560320D01*
X0000420697Y0000562570D01*
X0000419572Y0000564820D01*
X0000418447Y0000569319D01*
X0000418447Y0000572694D01*
X0000419572Y0000577193D01*
X0000420697Y0000579443D01*
X0000422947Y0000581692D01*
X0000426320Y0000582817D01*
X0000428571Y0000582817D01*
X0000431946Y0000581692D01*
X0000433070Y0000580568D01*
X0000453318Y0000574943D02*
X0000453318Y0000559195D01*
X0000447694Y0000583942D02*
X0000442069Y0000567069D01*
X0000456692Y0000567069D01*
X0000165354Y0000286839D02*
X0000164229Y0000285714D01*
X0000160854Y0000284589D01*
X0000158605Y0000284589D01*
X0000155230Y0000285714D01*
X0000152980Y0000287963D01*
X0000151856Y0000290213D01*
X0000150731Y0000294713D01*
X0000150731Y0000298087D01*
X0000151856Y0000302587D01*
X0000152980Y0000304836D01*
X0000155230Y0000307086D01*
X0000158605Y0000308211D01*
X0000160854Y0000308211D01*
X0000164229Y0000307086D01*
X0000165354Y0000305961D01*
X0000185601Y0000308211D02*
X0000181102Y0000308211D01*
X0000178852Y0000307086D01*
X0000177727Y0000305961D01*
X0000175478Y0000302587D01*
X0000174353Y0000298087D01*
X0000174353Y0000289088D01*
X0000175478Y0000286839D01*
X0000176601Y0000285714D01*
X0000178852Y0000284589D01*
X0000183352Y0000284589D01*
X0000185601Y0000285714D01*
X0000186726Y0000286839D01*
X0000187851Y0000289088D01*
X0000187851Y0000294713D01*
X0000186726Y0000296962D01*
X0000185601Y0000298087D01*
X0000183352Y0000299212D01*
X0000178852Y0000299212D01*
X0000176601Y0000298087D01*
X0000175478Y0000296962D01*
X0000174353Y0000294713D01*
X0000724409Y0000343644D02*
X0000716535Y0000354893D01*
X0000710911Y0000343644D02*
X0000710911Y0000367266D01*
X0000719909Y0000367266D01*
X0000722159Y0000366141D01*
X0000723284Y0000365016D01*
X0000724409Y0000362767D01*
X0000724409Y0000359391D01*
X0000723284Y0000357142D01*
X0000722159Y0000356017D01*
X0000719909Y0000354893D01*
X0000710911Y0000354893D01*
X0000735658Y0000343644D02*
X0000740157Y0000343644D01*
X0000742407Y0000344768D01*
X0000743531Y0000345894D01*
X0000745781Y0000349268D01*
X0000746906Y0000353768D01*
X0000746906Y0000362767D01*
X0000745781Y0000365016D01*
X0000744656Y0000366141D01*
X0000742407Y0000367266D01*
X0000737906Y0000367266D01*
X0000735658Y0000366141D01*
X0000734533Y0000365016D01*
X0000733408Y0000362767D01*
X0000733408Y0000357142D01*
X0000734533Y0000354893D01*
X0000735658Y0000353768D01*
X0000737906Y0000352643D01*
X0000742407Y0000352643D01*
X0000744656Y0000353768D01*
X0000745781Y0000354893D01*
X0000746906Y0000357142D01*
G04 next file*
G04 #@! TF.FileFunction,Legend,Top*
G04 Gerber Fmt 4.6, Leading zero omitted, Abs format (unit mm)*
G04 Created by KiCad (PCBNEW 4.0.4-1.fc24-product) date Thu Mar  1 09:38:40 2018*
G01*
G04 APERTURE LIST*
G04 APERTURE END LIST*
D86*
D87*
X0000029246Y0001284167D02*
X0000032620Y0001283042D01*
X0000033745Y0001281917D01*
X0000034870Y0001279668D01*
X0000034870Y0001276293D01*
X0000033745Y0001274043D01*
X0000032620Y0001272919D01*
X0000030370Y0001271794D01*
X0000021372Y0001271794D01*
X0000021372Y0001295416D01*
X0000029246Y0001295416D01*
X0000031496Y0001294291D01*
X0000032620Y0001293166D01*
X0000033745Y0001290916D01*
X0000033745Y0001288667D01*
X0000032620Y0001286417D01*
X0000031496Y0001285291D01*
X0000029246Y0001284167D01*
X0000021372Y0001284167D01*
X0000041619Y0001295416D02*
X0000055117Y0001295416D01*
X0000048368Y0001271794D02*
X0000048368Y0001295416D01*
X0000062992Y0001280793D02*
X0000080989Y0001280793D01*
X0000029246Y0001160151D02*
X0000032620Y0001159026D01*
X0000033745Y0001157902D01*
X0000034870Y0001155652D01*
X0000034870Y0001152277D01*
X0000033745Y0001150028D01*
X0000032620Y0001148903D01*
X0000030370Y0001147778D01*
X0000021372Y0001147778D01*
X0000021372Y0001171400D01*
X0000029246Y0001171400D01*
X0000031496Y0001170275D01*
X0000032620Y0001169150D01*
X0000033745Y0001166901D01*
X0000033745Y0001164651D01*
X0000032620Y0001162401D01*
X0000031496Y0001161276D01*
X0000029246Y0001160151D01*
X0000021372Y0001160151D01*
X0000041619Y0001171400D02*
X0000055117Y0001171400D01*
X0000048368Y0001147778D02*
X0000048368Y0001171400D01*
X0000062992Y0001156777D02*
X0000080989Y0001156777D01*
X0000071990Y0001147778D02*
X0000071990Y0001165776D01*
X0000041619Y0001590551D02*
X0000039370Y0001591676D01*
X0000035995Y0001591676D01*
X0000032620Y0001590551D01*
X0000030370Y0001588301D01*
X0000029246Y0001586051D01*
X0000028121Y0001581552D01*
X0000028121Y0001578177D01*
X0000029246Y0001573678D01*
X0000030370Y0001571428D01*
X0000032620Y0001569178D01*
X0000035995Y0001568053D01*
X0000038245Y0001568053D01*
X0000041619Y0001569178D01*
X0000042744Y0001570303D01*
X0000042744Y0001578177D01*
X0000038245Y0001578177D01*
X0000033183Y0001508998D02*
X0000037682Y0001508998D01*
X0000039932Y0001507874D01*
X0000042182Y0001505624D01*
X0000043307Y0001501122D01*
X0000043307Y0001493250D01*
X0000042182Y0001488751D01*
X0000039932Y0001486501D01*
X0000037682Y0001485376D01*
X0000033183Y0001485376D01*
X0000030933Y0001486501D01*
X0000028683Y0001488751D01*
X0000027558Y0001493250D01*
X0000027558Y0001501122D01*
X0000028683Y0001505624D01*
X0000030933Y0001507874D01*
X0000033183Y0001508998D01*
X0000026434Y0001411698D02*
X0000044431Y0001411698D01*
X0000034308Y0001835348D02*
X0000037682Y0001834223D01*
X0000038807Y0001833096D01*
X0000039932Y0001830849D01*
X0000039932Y0001827474D01*
X0000038807Y0001825222D01*
X0000037682Y0001824099D01*
X0000035433Y0001822975D01*
X0000026434Y0001822975D01*
X0000026434Y0001846597D01*
X0000034308Y0001846597D01*
X0000036557Y0001845472D01*
X0000037682Y0001844345D01*
X0000038807Y0001842097D01*
X0000038807Y0001839848D01*
X0000037682Y0001837598D01*
X0000036557Y0001836473D01*
X0000034308Y0001835348D01*
X0000026434Y0001835348D01*
X0000050056Y0001831974D02*
X0000068053Y0001831974D01*
X0000059055Y0001822975D02*
X0000059055Y0001840972D01*
X0000034308Y0001711331D02*
X0000037682Y0001710208D01*
X0000038807Y0001709083D01*
X0000039932Y0001706833D01*
X0000039932Y0001703458D01*
X0000038807Y0001701209D01*
X0000037682Y0001700084D01*
X0000035433Y0001698959D01*
X0000026434Y0001698959D01*
X0000026434Y0001722581D01*
X0000034308Y0001722581D01*
X0000036557Y0001721456D01*
X0000037682Y0001720331D01*
X0000038807Y0001718082D01*
X0000038807Y0001715832D01*
X0000037682Y0001713582D01*
X0000036557Y0001712457D01*
X0000034308Y0001711331D01*
X0000026434Y0001711331D01*
X0000050056Y0001707958D02*
X0000068053Y0001707958D01*
X0000025871Y0002059195D02*
X0000025871Y0002082817D01*
X0000039370Y0002059195D01*
X0000039370Y0002082817D01*
X0000050618Y0002068194D02*
X0000068616Y0002068194D01*
X0000059617Y0002059195D02*
X0000059617Y0002077192D01*
X0000025871Y0001935179D02*
X0000025871Y0001958801D01*
X0000039370Y0001935179D01*
X0000039370Y0001958801D01*
X0000050618Y0001944177D02*
X0000068616Y0001944177D01*
X0000374015Y0001331692D02*
X0000334645Y0001331692D01*
X0000334645Y0001384841D02*
X0000374015Y0001384841D01*
X0000418700Y0002080118D02*
X0000418700Y0002030117D01*
X0000353700Y0002080118D02*
X0000353700Y0002030117D01*
X0000353700Y0002030117D02*
X0000433700Y0002030117D01*
X0000433700Y0002030117D02*
X0000433700Y0002080118D01*
X0000433700Y0002080118D02*
X0000353700Y0002080118D01*
X0000418700Y0001851771D02*
X0000418700Y0001801771D01*
X0000353700Y0001851771D02*
X0000353700Y0001801771D01*
X0000353700Y0001801771D02*
X0000433700Y0001801771D01*
X0000433700Y0001801771D02*
X0000433700Y0001851771D01*
X0000433700Y0001851771D02*
X0000353700Y0001851771D01*
X0000778149Y0002030117D02*
X0000778149Y0002080118D01*
X0000843148Y0002030117D02*
X0000843148Y0002080118D01*
X0000843148Y0002080118D02*
X0000763149Y0002080118D01*
X0000763149Y0002080118D02*
X0000763149Y0002030117D01*
X0000763149Y0002030117D02*
X0000843148Y0002030117D01*
X0000774212Y0001734842D02*
X0000774212Y0001784842D01*
X0000839212Y0001734842D02*
X0000839212Y0001784842D01*
X0000839212Y0001784842D02*
X0000759212Y0001784842D01*
X0000759212Y0001784842D02*
X0000759212Y0001734842D01*
X0000759212Y0001734842D02*
X0000839212Y0001734842D01*
X0000408070Y0001439565D02*
X0000408070Y0001489566D01*
X0000473070Y0001439565D02*
X0000473070Y0001489566D01*
X0000473070Y0001489566D02*
X0000393070Y0001489566D01*
X0000393070Y0001489566D02*
X0000393070Y0001439565D01*
X0000393070Y0001439565D02*
X0000473070Y0001439565D01*
X0001281142Y0001486811D02*
X0001281142Y0001536811D01*
X0001346142Y0001486811D02*
X0001346142Y0001536811D01*
X0001346142Y0001536811D02*
X0001266141Y0001536811D01*
X0001266141Y0001536811D02*
X0001266141Y0001486811D01*
X0001266141Y0001486811D02*
X0001346142Y0001486811D01*
D88*
X0000647637Y0001927165D02*
X0000553149Y0001927165D01*
X0000553149Y0001927165D02*
X0000553149Y0001968503D01*
X0000624015Y0002057086D02*
X0000553149Y0002057086D01*
X0000553149Y0002057086D02*
X0000553149Y0002015747D01*
X0000647637Y0001710629D02*
X0000553149Y0001710629D01*
X0000553149Y0001710629D02*
X0000553149Y0001751968D01*
X0000624015Y0001840551D02*
X0000553149Y0001840551D01*
X0000553149Y0001840551D02*
X0000553149Y0001799212D01*
D87*
X0000312007Y0001925196D02*
X0000312007Y0001964566D01*
X0000365157Y0001964566D02*
X0000365157Y0001925196D01*
X0000312007Y0001696850D02*
X0000312007Y0001736220D01*
X0000365157Y0001736220D02*
X0000365157Y0001696850D01*
X0000418307Y0001925196D02*
X0000418307Y0001964566D01*
X0000471455Y0001964566D02*
X0000471455Y0001925196D01*
X0000418307Y0001694881D02*
X0000418307Y0001734250D01*
X0000471455Y0001734250D02*
X0000471455Y0001694881D01*
X0000531496Y0001331692D02*
X0000492125Y0001331692D01*
X0000492125Y0001384841D02*
X0000531496Y0001384841D01*
X0001106299Y0001538384D02*
X0001145669Y0001538384D01*
X0001145669Y0001485236D02*
X0001106299Y0001485236D01*
X0001267716Y0001766732D02*
X0001307086Y0001766732D01*
X0001307086Y0001713582D02*
X0001267716Y0001713582D01*
X0001122047Y0001766732D02*
X0001161417Y0001766732D01*
X0001161417Y0001713582D02*
X0001122047Y0001713582D01*
X0000362238Y0001167320D02*
X0000362238Y0001181120D01*
X0000362238Y0001305120D02*
X0000362238Y0001291320D01*
X0000521669Y0001167320D02*
X0000521669Y0001181120D01*
X0000344470Y0001167320D02*
X0000344470Y0001181120D01*
X0000344470Y0001305120D02*
X0000344470Y0001291320D01*
X0000521669Y0001305120D02*
X0000521669Y0001291320D01*
X0000344470Y0001167320D02*
X0000521669Y0001167320D01*
X0000344470Y0001305120D02*
X0000521669Y0001305120D01*
X0000791338Y0001833661D02*
X0000751968Y0001833661D01*
X0000751968Y0001886811D02*
X0000791338Y0001886811D01*
X0000751968Y0001589566D02*
X0000791338Y0001589566D01*
X0000791338Y0001536417D02*
X0000751968Y0001536417D01*
X0000751968Y0001975393D02*
X0000791338Y0001975393D01*
X0000791338Y0001922244D02*
X0000751968Y0001922244D01*
X0000751968Y0001676181D02*
X0000791338Y0001676181D01*
X0000791338Y0001623031D02*
X0000751968Y0001623031D01*
X0000381888Y0001300337D02*
X0000374015Y0001311586D01*
X0000368391Y0001300337D02*
X0000368391Y0001323959D01*
X0000377390Y0001323959D01*
X0000379640Y0001322834D01*
X0000380764Y0001321709D01*
X0000381888Y0001319460D01*
X0000381888Y0001316085D01*
X0000380764Y0001313835D01*
X0000379640Y0001312709D01*
X0000377390Y0001311586D01*
X0000368391Y0001311586D01*
X0000389763Y0001323959D02*
X0000405511Y0001323959D01*
X0000395388Y0001300337D01*
X0000303712Y0002027559D02*
X0000304836Y0002026434D01*
X0000305961Y0002023059D01*
X0000305961Y0002020808D01*
X0000304836Y0002017434D01*
X0000302587Y0002015184D01*
X0000300337Y0002014060D01*
X0000295837Y0002012935D01*
X0000292463Y0002012935D01*
X0000287964Y0002014060D01*
X0000285714Y0002015184D01*
X0000283464Y0002017434D01*
X0000282339Y0002020808D01*
X0000282339Y0002023059D01*
X0000283464Y0002026434D01*
X0000284589Y0002027559D01*
X0000305961Y0002050056D02*
X0000305961Y0002036557D01*
X0000305961Y0002043307D02*
X0000282339Y0002043307D01*
X0000285714Y0002041057D01*
X0000287964Y0002038806D01*
X0000289088Y0002036557D01*
X0000500561Y0001846456D02*
X0000501687Y0001845330D01*
X0000502812Y0001841957D01*
X0000502812Y0001839707D01*
X0000501687Y0001836332D01*
X0000499437Y0001834081D01*
X0000497186Y0001832958D01*
X0000492688Y0001831833D01*
X0000489313Y0001831833D01*
X0000484814Y0001832958D01*
X0000482563Y0001834081D01*
X0000480314Y0001836332D01*
X0000479190Y0001839707D01*
X0000479190Y0001841957D01*
X0000480314Y0001845330D01*
X0000481439Y0001846456D01*
X0000481439Y0001855455D02*
X0000480314Y0001856580D01*
X0000479190Y0001858830D01*
X0000479190Y0001864453D01*
X0000480314Y0001866704D01*
X0000481439Y0001867829D01*
X0000483689Y0001868953D01*
X0000485939Y0001868953D01*
X0000489313Y0001867829D01*
X0000502812Y0001854330D01*
X0000502812Y0001868953D01*
X0000905511Y0002046681D02*
X0000904386Y0002045556D01*
X0000901012Y0002044431D01*
X0000898762Y0002044431D01*
X0000895388Y0002045556D01*
X0000893138Y0002047806D01*
X0000892013Y0002050056D01*
X0000890887Y0002054555D01*
X0000890887Y0002057929D01*
X0000892013Y0002062428D01*
X0000893138Y0002064679D01*
X0000895388Y0002066929D01*
X0000898762Y0002068053D01*
X0000901012Y0002068053D01*
X0000904386Y0002066929D01*
X0000905511Y0002065804D01*
X0000913385Y0002068053D02*
X0000928008Y0002068053D01*
X0000920135Y0002059054D01*
X0000923509Y0002059054D01*
X0000925759Y0002057929D01*
X0000926884Y0002056805D01*
X0000928008Y0002054555D01*
X0000928008Y0002048931D01*
X0000926884Y0002046681D01*
X0000925759Y0002045556D01*
X0000923509Y0002044431D01*
X0000916760Y0002044431D01*
X0000914510Y0002045556D01*
X0000913385Y0002046681D01*
X0000903543Y0001743532D02*
X0000902418Y0001742406D01*
X0000899043Y0001741282D01*
X0000896794Y0001741282D01*
X0000893419Y0001742406D01*
X0000891169Y0001744656D01*
X0000890045Y0001746906D01*
X0000888920Y0001751406D01*
X0000888920Y0001754780D01*
X0000890045Y0001759280D01*
X0000891169Y0001761529D01*
X0000893419Y0001763779D01*
X0000896794Y0001764904D01*
X0000899043Y0001764904D01*
X0000902418Y0001763779D01*
X0000903543Y0001762654D01*
X0000923790Y0001757030D02*
X0000923790Y0001741282D01*
X0000918166Y0001766029D02*
X0000912542Y0001749156D01*
X0000927165Y0001749156D01*
X0000492125Y0001397075D02*
X0000491001Y0001395950D01*
X0000487626Y0001394825D01*
X0000485376Y0001394825D01*
X0000482002Y0001395950D01*
X0000479752Y0001398200D01*
X0000478627Y0001400449D01*
X0000477502Y0001404949D01*
X0000477502Y0001408323D01*
X0000478627Y0001412823D01*
X0000479752Y0001415073D01*
X0000482002Y0001417321D01*
X0000485376Y0001418447D01*
X0000487626Y0001418447D01*
X0000491001Y0001417321D01*
X0000492125Y0001416197D01*
X0000513498Y0001418447D02*
X0000502248Y0001418447D01*
X0000501124Y0001407199D01*
X0000502248Y0001408323D01*
X0000504499Y0001409447D01*
X0000510123Y0001409447D01*
X0000512372Y0001408323D01*
X0000513498Y0001407199D01*
X0000514623Y0001404949D01*
X0000514623Y0001399325D01*
X0000513498Y0001397075D01*
X0000512372Y0001395950D01*
X0000510123Y0001394825D01*
X0000504499Y0001394825D01*
X0000502248Y0001395950D01*
X0000501124Y0001397075D01*
X0001232283Y0001566366D02*
X0001231158Y0001565241D01*
X0001227784Y0001564116D01*
X0001225534Y0001564116D01*
X0001222159Y0001565241D01*
X0001219910Y0001567491D01*
X0001218785Y0001569740D01*
X0001217660Y0001574240D01*
X0001217660Y0001577615D01*
X0001218785Y0001582112D01*
X0001219910Y0001584364D01*
X0001222159Y0001586614D01*
X0001225534Y0001587739D01*
X0001227784Y0001587739D01*
X0001231158Y0001586614D01*
X0001232283Y0001585489D01*
X0001240157Y0001587739D02*
X0001255905Y0001587739D01*
X0001245781Y0001564116D01*
X0000603487Y0001989876D02*
X0000602362Y0001987626D01*
X0000600112Y0001985376D01*
X0000596737Y0001982002D01*
X0000595612Y0001979752D01*
X0000595612Y0001977502D01*
X0000601237Y0001978627D02*
X0000600112Y0001976377D01*
X0000597862Y0001974128D01*
X0000593363Y0001973003D01*
X0000585489Y0001973003D01*
X0000580989Y0001974128D01*
X0000578740Y0001976377D01*
X0000577615Y0001978627D01*
X0000577615Y0001983127D01*
X0000578740Y0001985376D01*
X0000580989Y0001987626D01*
X0000585489Y0001988751D01*
X0000593363Y0001988751D01*
X0000597862Y0001987626D01*
X0000600112Y0001985376D01*
X0000601237Y0001983127D01*
X0000601237Y0001978627D01*
X0000601237Y0002011248D02*
X0000601237Y0001997750D01*
X0000601237Y0002004499D02*
X0000577615Y0002004499D01*
X0000580989Y0002002249D01*
X0000583239Y0002000000D01*
X0000584364Y0001997750D01*
X0000603674Y0001774325D02*
X0000602549Y0001772075D01*
X0000600299Y0001769825D01*
X0000596925Y0001766451D01*
X0000595800Y0001764201D01*
X0000595800Y0001761951D01*
X0000601424Y0001763076D02*
X0000600299Y0001760826D01*
X0000598050Y0001758577D01*
X0000593550Y0001757451D01*
X0000585676Y0001757451D01*
X0000581177Y0001758577D01*
X0000578927Y0001760826D01*
X0000577802Y0001763076D01*
X0000577802Y0001767575D01*
X0000578927Y0001769825D01*
X0000581177Y0001772075D01*
X0000585676Y0001773200D01*
X0000593550Y0001773200D01*
X0000598050Y0001772075D01*
X0000600299Y0001769825D01*
X0000601424Y0001767575D01*
X0000601424Y0001763076D01*
X0000580052Y0001782199D02*
X0000578927Y0001783323D01*
X0000577802Y0001785573D01*
X0000577802Y0001791197D01*
X0000578927Y0001793447D01*
X0000580052Y0001794572D01*
X0000582302Y0001795697D01*
X0000584551Y0001795697D01*
X0000587926Y0001794572D01*
X0000601424Y0001781074D01*
X0000601424Y0001795697D01*
X0000305961Y0001909448D02*
X0000294713Y0001901574D01*
X0000305961Y0001895950D02*
X0000282339Y0001895950D01*
X0000282339Y0001904949D01*
X0000283464Y0001907199D01*
X0000284589Y0001908323D01*
X0000286839Y0001909448D01*
X0000290213Y0001909448D01*
X0000292463Y0001908323D01*
X0000293588Y0001907199D01*
X0000294713Y0001904949D01*
X0000294713Y0001895950D01*
X0000305961Y0001931945D02*
X0000305961Y0001918447D01*
X0000305961Y0001925196D02*
X0000282339Y0001925196D01*
X0000285714Y0001922946D01*
X0000287964Y0001920697D01*
X0000289088Y0001918447D01*
X0000302024Y0001685039D02*
X0000290776Y0001677165D01*
X0000302024Y0001671541D02*
X0000278402Y0001671541D01*
X0000278402Y0001680539D01*
X0000279527Y0001682789D01*
X0000280652Y0001683914D01*
X0000282902Y0001685039D01*
X0000286276Y0001685039D01*
X0000288526Y0001683914D01*
X0000289651Y0001682789D01*
X0000290776Y0001680539D01*
X0000290776Y0001671541D01*
X0000280652Y0001694038D02*
X0000279527Y0001695163D01*
X0000278402Y0001697412D01*
X0000278402Y0001703037D01*
X0000279527Y0001705286D01*
X0000280652Y0001706411D01*
X0000282902Y0001707536D01*
X0000285151Y0001707536D01*
X0000288526Y0001706411D01*
X0000302024Y0001692913D01*
X0000302024Y0001707536D01*
X0000412260Y0001909448D02*
X0000401011Y0001901574D01*
X0000412260Y0001895950D02*
X0000388638Y0001895950D01*
X0000388638Y0001904949D01*
X0000389763Y0001907199D01*
X0000390888Y0001908323D01*
X0000393138Y0001909448D01*
X0000396511Y0001909448D01*
X0000398762Y0001908323D01*
X0000399887Y0001907199D01*
X0000401011Y0001904949D01*
X0000401011Y0001895950D01*
X0000388638Y0001917322D02*
X0000388638Y0001931945D01*
X0000397637Y0001924072D01*
X0000397637Y0001927446D01*
X0000398762Y0001929696D01*
X0000399887Y0001930820D01*
X0000402137Y0001931945D01*
X0000407761Y0001931945D01*
X0000410011Y0001930820D01*
X0000411136Y0001929696D01*
X0000412260Y0001927446D01*
X0000412260Y0001920697D01*
X0000411136Y0001918447D01*
X0000410011Y0001917322D01*
X0000412260Y0001679133D02*
X0000401011Y0001671259D01*
X0000412260Y0001665635D02*
X0000388638Y0001665635D01*
X0000388638Y0001674634D01*
X0000389763Y0001676884D01*
X0000390888Y0001678009D01*
X0000393138Y0001679133D01*
X0000396511Y0001679133D01*
X0000398762Y0001678009D01*
X0000399887Y0001676884D01*
X0000401011Y0001674634D01*
X0000401011Y0001665635D01*
X0000396511Y0001699381D02*
X0000412260Y0001699381D01*
X0000387514Y0001693757D02*
X0000404386Y0001688132D01*
X0000404386Y0001702755D01*
X0000539370Y0001300337D02*
X0000531496Y0001311586D01*
X0000525871Y0001300337D02*
X0000525871Y0001323959D01*
X0000534870Y0001323959D01*
X0000537120Y0001322834D01*
X0000538245Y0001321709D01*
X0000539370Y0001319460D01*
X0000539370Y0001316085D01*
X0000538245Y0001313835D01*
X0000537120Y0001312709D01*
X0000534870Y0001311586D01*
X0000525871Y0001311586D01*
X0000552868Y0001313835D02*
X0000550618Y0001314960D01*
X0000549493Y0001316085D01*
X0000548368Y0001318335D01*
X0000548368Y0001319460D01*
X0000549493Y0001321709D01*
X0000550618Y0001322834D01*
X0000552868Y0001323959D01*
X0000557367Y0001323959D01*
X0000559617Y0001322834D01*
X0000560742Y0001321709D01*
X0000561867Y0001319460D01*
X0000561867Y0001318335D01*
X0000560742Y0001316085D01*
X0000559617Y0001314960D01*
X0000557367Y0001313835D01*
X0000552868Y0001313835D01*
X0000550618Y0001312709D01*
X0000549493Y0001311586D01*
X0000548368Y0001309336D01*
X0000548368Y0001304836D01*
X0000549493Y0001302587D01*
X0000550618Y0001301462D01*
X0000552868Y0001300337D01*
X0000557367Y0001300337D01*
X0000559617Y0001301462D01*
X0000560742Y0001302587D01*
X0000561867Y0001304836D01*
X0000561867Y0001309336D01*
X0000560742Y0001311586D01*
X0000559617Y0001312709D01*
X0000557367Y0001313835D01*
X0001087176Y0001548368D02*
X0001079302Y0001559617D01*
X0001073678Y0001548368D02*
X0001073678Y0001571990D01*
X0001082677Y0001571990D01*
X0001084926Y0001570866D01*
X0001086051Y0001569740D01*
X0001087176Y0001567491D01*
X0001087176Y0001564116D01*
X0001086051Y0001561867D01*
X0001084926Y0001560742D01*
X0001082677Y0001559617D01*
X0001073678Y0001559617D01*
X0001109673Y0001548368D02*
X0001096175Y0001548368D01*
X0001102924Y0001548368D02*
X0001102924Y0001571990D01*
X0001100674Y0001568616D01*
X0001098425Y0001566366D01*
X0001096175Y0001565241D01*
X0001124296Y0001571990D02*
X0001126546Y0001571990D01*
X0001128796Y0001570866D01*
X0001129921Y0001569740D01*
X0001131046Y0001567491D01*
X0001132170Y0001562992D01*
X0001132170Y0001557367D01*
X0001131046Y0001552868D01*
X0001129921Y0001550617D01*
X0001128796Y0001549493D01*
X0001126546Y0001548368D01*
X0001124296Y0001548368D01*
X0001122047Y0001549493D01*
X0001120922Y0001550617D01*
X0001119797Y0001552868D01*
X0001118672Y0001557367D01*
X0001118672Y0001562992D01*
X0001119797Y0001567491D01*
X0001120922Y0001569740D01*
X0001122047Y0001570866D01*
X0001124296Y0001571990D01*
X0001358829Y0001729471D02*
X0001350955Y0001740719D01*
X0001345331Y0001729471D02*
X0001345331Y0001753093D01*
X0001354330Y0001753093D01*
X0001356580Y0001751968D01*
X0001357705Y0001750843D01*
X0001358829Y0001748592D01*
X0001358829Y0001745219D01*
X0001357705Y0001742969D01*
X0001356580Y0001741844D01*
X0001354330Y0001740719D01*
X0001345331Y0001740719D01*
X0001381327Y0001729471D02*
X0001367828Y0001729471D01*
X0001374578Y0001729471D02*
X0001374578Y0001753093D01*
X0001372328Y0001749718D01*
X0001370078Y0001747469D01*
X0001367828Y0001746344D01*
X0001403824Y0001729471D02*
X0001390326Y0001729471D01*
X0001397075Y0001729471D02*
X0001397075Y0001753093D01*
X0001394825Y0001749718D01*
X0001392575Y0001747469D01*
X0001390326Y0001746344D01*
X0001039932Y0001729471D02*
X0001032057Y0001740719D01*
X0001026434Y0001729471D02*
X0001026434Y0001753093D01*
X0001035433Y0001753093D01*
X0001037682Y0001751968D01*
X0001038807Y0001750843D01*
X0001039932Y0001748592D01*
X0001039932Y0001745219D01*
X0001038807Y0001742969D01*
X0001037682Y0001741844D01*
X0001035433Y0001740719D01*
X0001026434Y0001740719D01*
X0001062429Y0001729471D02*
X0001048931Y0001729471D01*
X0001055680Y0001729471D02*
X0001055680Y0001753093D01*
X0001053430Y0001749718D01*
X0001051181Y0001747469D01*
X0001048931Y0001746344D01*
X0001071428Y0001750843D02*
X0001072553Y0001751968D01*
X0001074803Y0001753093D01*
X0001080427Y0001753093D01*
X0001082677Y0001751968D01*
X0001083802Y0001750843D01*
X0001084926Y0001748592D01*
X0001084926Y0001746344D01*
X0001083802Y0001742969D01*
X0001070303Y0001729471D01*
X0001084926Y0001729471D01*
X0000415634Y0001315101D02*
X0000415634Y0001338723D01*
X0000421259Y0001338723D01*
X0000424634Y0001337598D01*
X0000426884Y0001335348D01*
X0000428009Y0001333099D01*
X0000429133Y0001328599D01*
X0000429133Y0001325224D01*
X0000428009Y0001320725D01*
X0000426884Y0001318475D01*
X0000424634Y0001316226D01*
X0000421259Y0001315101D01*
X0000415634Y0001315101D01*
X0000437007Y0001338723D02*
X0000451631Y0001338723D01*
X0000443757Y0001329724D01*
X0000447131Y0001329724D01*
X0000449381Y0001328599D01*
X0000450506Y0001327474D01*
X0000451631Y0001325224D01*
X0000451631Y0001319600D01*
X0000450506Y0001317350D01*
X0000449381Y0001316226D01*
X0000447131Y0001315101D01*
X0000440382Y0001315101D01*
X0000438132Y0001316226D01*
X0000437007Y0001317350D01*
X0000304649Y0001143607D02*
X0000304649Y0001182977D01*
X0000327145Y0001143607D02*
X0000310273Y0001166104D01*
X0000327145Y0001182977D02*
X0000304649Y0001160479D01*
X0000541807Y0001154855D02*
X0000560554Y0001154855D01*
X0000538057Y0001143607D02*
X0000551181Y0001182977D01*
X0000564304Y0001143607D01*
X0000843082Y0001853487D02*
X0000835208Y0001864735D01*
X0000829583Y0001853487D02*
X0000829583Y0001877109D01*
X0000838582Y0001877109D01*
X0000840832Y0001875984D01*
X0000841957Y0001874859D01*
X0000843082Y0001872609D01*
X0000843082Y0001869235D01*
X0000841957Y0001866985D01*
X0000840832Y0001865860D01*
X0000838582Y0001864735D01*
X0000829583Y0001864735D01*
X0000865578Y0001853487D02*
X0000852080Y0001853487D01*
X0000858830Y0001853487D02*
X0000858830Y0001877109D01*
X0000856580Y0001873734D01*
X0000854330Y0001871484D01*
X0000852080Y0001870359D01*
X0000873453Y0001877109D02*
X0000888076Y0001877109D01*
X0000880202Y0001868110D01*
X0000883577Y0001868110D01*
X0000885826Y0001866985D01*
X0000886950Y0001865860D01*
X0000888076Y0001863610D01*
X0000888076Y0001857986D01*
X0000886950Y0001855736D01*
X0000885826Y0001854611D01*
X0000883577Y0001853487D01*
X0000876827Y0001853487D01*
X0000874578Y0001854611D01*
X0000873453Y0001855736D01*
X0000669853Y0001556242D02*
X0000661979Y0001567491D01*
X0000656354Y0001556242D02*
X0000656354Y0001579864D01*
X0000665354Y0001579864D01*
X0000667604Y0001578740D01*
X0000668728Y0001577615D01*
X0000669853Y0001575365D01*
X0000669853Y0001571990D01*
X0000668728Y0001569740D01*
X0000667604Y0001568616D01*
X0000665354Y0001567491D01*
X0000656354Y0001567491D01*
X0000692350Y0001556242D02*
X0000678852Y0001556242D01*
X0000685600Y0001556242D02*
X0000685600Y0001579864D01*
X0000683351Y0001576490D01*
X0000681102Y0001574240D01*
X0000678852Y0001573115D01*
X0000712598Y0001571990D02*
X0000712598Y0001556242D01*
X0000706974Y0001580989D02*
X0000701349Y0001564116D01*
X0000715972Y0001564116D01*
X0000843082Y0001938132D02*
X0000835208Y0001949381D01*
X0000829583Y0001938132D02*
X0000829583Y0001961754D01*
X0000838582Y0001961754D01*
X0000840832Y0001960629D01*
X0000841957Y0001959504D01*
X0000843082Y0001957255D01*
X0000843082Y0001953880D01*
X0000841957Y0001951631D01*
X0000840832Y0001950506D01*
X0000838582Y0001949381D01*
X0000829583Y0001949381D01*
X0000865578Y0001938132D02*
X0000852080Y0001938132D01*
X0000858830Y0001938132D02*
X0000858830Y0001961754D01*
X0000856580Y0001958380D01*
X0000854330Y0001956129D01*
X0000852080Y0001955005D01*
X0000886950Y0001961754D02*
X0000875701Y0001961754D01*
X0000874578Y0001950506D01*
X0000875701Y0001951631D01*
X0000877952Y0001952755D01*
X0000883577Y0001952755D01*
X0000885826Y0001951631D01*
X0000886950Y0001950506D01*
X0000888076Y0001948254D01*
X0000888076Y0001942632D01*
X0000886950Y0001940381D01*
X0000885826Y0001939257D01*
X0000883577Y0001938132D01*
X0000877952Y0001938132D01*
X0000875701Y0001939257D01*
X0000874578Y0001940381D01*
X0000843082Y0001638920D02*
X0000835208Y0001650168D01*
X0000829583Y0001638920D02*
X0000829583Y0001662542D01*
X0000838582Y0001662542D01*
X0000840832Y0001661416D01*
X0000841957Y0001660292D01*
X0000843082Y0001658042D01*
X0000843082Y0001654668D01*
X0000841957Y0001652418D01*
X0000840832Y0001651293D01*
X0000838582Y0001650168D01*
X0000829583Y0001650168D01*
X0000865578Y0001638920D02*
X0000852080Y0001638920D01*
X0000858830Y0001638920D02*
X0000858830Y0001662542D01*
X0000856580Y0001659167D01*
X0000854330Y0001656917D01*
X0000852080Y0001655793D01*
X0000885826Y0001662542D02*
X0000881327Y0001662542D01*
X0000879077Y0001661416D01*
X0000877952Y0001660292D01*
X0000875701Y0001656917D01*
X0000874578Y0001652418D01*
X0000874578Y0001643419D01*
X0000875701Y0001641169D01*
X0000876827Y0001640045D01*
X0000879077Y0001638920D01*
X0000883577Y0001638920D01*
X0000885826Y0001640045D01*
X0000886950Y0001641169D01*
X0000888076Y0001643419D01*
X0000888076Y0001649043D01*
X0000886950Y0001651293D01*
X0000885826Y0001652418D01*
X0000883577Y0001653542D01*
X0000879077Y0001653542D01*
X0000876827Y0001652418D01*
X0000875701Y0001651293D01*
X0000874578Y0001649043D01*
M02*