%
M48
METRIC,000.000
T01C0.40
T02C0.80
T03C1.00
T10C1.10
%
T01
X075876Y076255
X081600Y070400
X082000Y077900
X002300Y087000
X006250Y073250
X009500Y079100
X010800Y073700
X011900Y075000
X017836Y086407
X018385Y076006
X018699Y073900
X018699Y072800
X023300Y079000
X024000Y073000
X024099Y088600
X033400Y052599
X033400Y049700
X033400Y043300
X033400Y040500
X037500Y054099
X038020Y049620
X049599Y040800
X052500Y042599
X054900Y046800
X057800Y050900
X058000Y057000
X059400Y052599
X067900Y044599
X071199Y035200
X073300Y041300
X077199Y046300
X036156Y089162
X045699Y084250
X045887Y085169
X047000Y087000
X048199Y091500
X050893Y070528
X065000Y015700
X067000Y019000
X068600Y026100
X069900Y022700
X072400Y027600
X074500Y027600
X074500Y022700
X078300Y021200
X083500Y020799
X084300Y027600
X087699Y018799
X004099Y028599
X004099Y023299
X006599Y022099
X008799Y019900
X014340Y019933
X016050Y022620
X016800Y025799
X017400Y016900
X018872Y020611
X022800Y028500
X023217Y018322
X038599Y018799
X001400Y052599
X001400Y049700
X001400Y043300
X001400Y040500
X005500Y054099
X006020Y049620
X017599Y040800
X020500Y042599
X022900Y046800
X025800Y050900
X026000Y057000
X027400Y052599
T02
X075000Y066800
X077000Y066800
X079000Y066800
X081000Y066800
X083000Y066800
X011000Y066700
X013000Y066700
X015000Y066700
X017000Y066700
X019000Y066700
X043000Y035500
X045000Y035500
X047000Y035500
X049000Y035500
X051000Y035500
X075000Y036099
X077000Y036099
X079000Y036099
X081000Y036099
X083000Y036099
X043000Y066900
X045000Y066900
X047000Y066900
X049000Y066900
X051000Y066900
X067000Y011500
X067000Y009500
X067000Y007500
X067000Y005500
X067000Y003500
X075000Y011500
X075000Y009500
X075000Y007500
X075000Y005500
X075000Y003500
X083000Y011500
X083000Y009500
X083000Y007500
X083000Y005500
X083000Y003500
X005000Y011400
X005000Y009400
X005000Y007400
X005000Y005400
X005000Y003400
X015000Y011400
X015000Y009400
X015000Y007400
X015000Y005400
X015000Y003400
X025000Y011400
X025000Y009400
X025000Y007400
X025000Y005400
X025000Y003400
X036400Y007500
X036400Y005500
X038400Y007500
X038400Y005500
X051349Y028200
X051349Y026200
X051349Y021700
X051349Y019700
X051349Y014700
X053349Y028200
X053349Y026200
X053349Y021700
X053349Y019700
X055349Y028200
X055349Y026200
X055349Y021700
X055349Y019700
X055349Y014700
X011000Y035500
X013000Y035500
X015000Y035500
X017000Y035500
X019000Y035500
T03
X076500Y092000
X076500Y087000
X079000Y092000
X079000Y087000
X081500Y092000
X081500Y087000
X012500Y092000
X012500Y089500
X015000Y092000
X015000Y089500
X017500Y092000
X017500Y089500
X044500Y059000
X044500Y056500
X044500Y051500
X044500Y049000
X047000Y059000
X047000Y056500
X047000Y051500
X047000Y049000
X049500Y059000
X049500Y056500
X049500Y051500
X049500Y049000
X076500Y060000
X076500Y055000
X079000Y060000
X079000Y055000
X081500Y060000
X081500Y055000
X054400Y091000
X054400Y088500
X054400Y083500
X054400Y081000
X056900Y091000
X056900Y088500
X056900Y083500
X056900Y081000
X059400Y091000
X059400Y088500
X059400Y083500
X059400Y081000
X088600Y028000
X091100Y028000
X093600Y028000
X012500Y059000
X012500Y056500
X012500Y051500
X012500Y049000
X015000Y059000
X015000Y056500
X015000Y051500
X015000Y049000
X017500Y059000
X017500Y056500
X017500Y051500
X017500Y049000
T10
X002099Y067700
X004639Y067700
X025300Y067700
X027840Y067700
X035400Y036340
X035400Y033800
X092300Y013500
X092300Y010959
X092300Y007400
X092300Y004859
X092300Y002319
X046860Y003500
X049400Y003500
X053120Y003500
X055660Y003500
X058199Y003500
X003400Y036340
X003400Y033800
M30