%MOIN*%
%OFA0B0*%
%FSLAX44Y44*%
%IPPOS*%
%LPD*%
%ADD10C,0*%
D10*
X00013401Y00025196D02*
X00013401Y00025196D01*
X00017307Y00025196D01*
X00017399Y00025185D01*
X00017485Y00025153D01*
X00017562Y00025102D01*
X00017625Y00025034D01*
X00017670Y00024953D01*
X00017696Y00024864D01*
X00017699Y00024772D01*
X00017681Y00024681D01*
X00017642Y00024597D01*
X00017585Y00024524D01*
X00017512Y00024467D01*
X00017428Y00024428D01*
X00017338Y00024410D01*
X00017245Y00024414D01*
X00017156Y00024439D01*
X00017075Y00024484D01*
X00017007Y00024547D01*
X00016956Y00024624D01*
X00016924Y00024711D01*
X00017307Y00024803D01*
X00016924Y00024895D01*
X00016956Y00024981D01*
X00017007Y00025058D01*
X00017075Y00025121D01*
X00017156Y00025166D01*
X00017245Y00025192D01*
X00017338Y00025195D01*
X00017428Y00025177D01*
X00017512Y00025138D01*
X00017585Y00025081D01*
X00017642Y00025008D01*
X00017681Y00024924D01*
X00017699Y00024834D01*
X00017696Y00024741D01*
X00017670Y00024652D01*
X00017625Y00024571D01*
X00017562Y00024503D01*
X00017485Y00024452D01*
X00017399Y00024420D01*
X00017307Y00024409D01*
X00013401Y00024409D01*
X00013370Y00024410D01*
X00013339Y00024414D01*
X00013309Y00024420D01*
X00013279Y00024428D01*
X00013250Y00024439D01*
X00013222Y00024452D01*
X00013195Y00024467D01*
X00013170Y00024484D01*
X00013145Y00024503D01*
X00013123Y00024524D01*
X00013102Y00024547D01*
X00013082Y00024571D01*
X00013065Y00024597D01*
X00013050Y00024624D01*
X00013037Y00024652D01*
X00013027Y00024681D01*
X00013018Y00024711D01*
X00013012Y00024741D01*
X00013008Y00024772D01*
X00013401Y00024803D01*
X00013008Y00024834D01*
X00013012Y00024864D01*
X00013018Y00024895D01*
X00013027Y00024924D01*
X00013037Y00024953D01*
X00013050Y00024981D01*
X00013065Y00025008D01*
X00013082Y00025034D01*
X00013102Y00025058D01*
X00013123Y00025081D01*
X00013145Y00025102D01*
X00013170Y00025121D01*
X00013195Y00025138D01*
X00013222Y00025153D01*
X00013250Y00025166D01*
X00013279Y00025177D01*
X00013309Y00025185D01*
X00013339Y00025192D01*
X00013370Y00025195D01*
X00013401Y00025196D01*
X00032215Y00025196D02*
X00032215Y00025196D01*
X00037007Y00025196D01*
X00037007Y00037007D01*
X00025196Y00037007D01*
X00025196Y00032215D01*
X00025192Y00032154D01*
X00025177Y00032094D01*
X00025153Y00032037D01*
X00025121Y00031984D01*
X00025081Y00031937D01*
X00025034Y00031897D01*
X00024981Y00031865D01*
X00024924Y00031841D01*
X00024864Y00031827D01*
X00024803Y00031822D01*
X00024741Y00031827D01*
X00024681Y00031841D01*
X00024624Y00031865D01*
X00024571Y00031897D01*
X00024524Y00031937D01*
X00024484Y00031984D01*
X00024452Y00032037D01*
X00024428Y00032094D01*
X00024414Y00032154D01*
X00024803Y00032215D01*
X00024409Y00032215D01*
X00024409Y00037007D01*
X00012598Y00037007D01*
X00012598Y00032299D01*
X00012593Y00032237D01*
X00012579Y00032177D01*
X00012555Y00032120D01*
X00012523Y00032067D01*
X00012483Y00032020D01*
X00012436Y00031980D01*
X00012383Y00031948D01*
X00012326Y00031924D01*
X00012266Y00031910D01*
X00012204Y00031905D01*
X00012143Y00031910D01*
X00012083Y00031924D01*
X00012025Y00031948D01*
X00011973Y00031980D01*
X00011926Y00032020D01*
X00011886Y00032067D01*
X00011853Y00032120D01*
X00011830Y00032177D01*
X00011815Y00032237D01*
X00012204Y00032299D01*
X00011811Y00032299D01*
X00011811Y00037007D01*
X00000000Y00037007D01*
X00000000Y00025196D01*
X00004708Y00025196D01*
X00004708Y00025196D01*
X00004770Y00025192D01*
X00004830Y00025177D01*
X00004887Y00025153D01*
X00004940Y00025121D01*
X00004987Y00025081D01*
X00005027Y00025034D01*
X00005059Y00024981D01*
X00005083Y00024924D01*
X00005097Y00024864D01*
X00005102Y00024803D01*
X00005097Y00024741D01*
X00005083Y00024681D01*
X00005059Y00024624D01*
X00005027Y00024571D01*
X00004987Y00024524D01*
X00004940Y00024484D01*
X00004887Y00024452D01*
X00004830Y00024428D01*
X00004770Y00024414D01*
X00004708Y00024409D01*
X00000000Y00024409D01*
X00000000Y00012598D01*
X00007661Y00012598D01*
X00007753Y00012587D01*
X00007840Y00012555D01*
X00007917Y00012504D01*
X00007980Y00012436D01*
X00008025Y00012355D01*
X00008050Y00012266D01*
X00008054Y00012173D01*
X00008035Y00012083D01*
X00007997Y00011999D01*
X00007939Y00011926D01*
X00007867Y00011869D01*
X00007783Y00011830D01*
X00007692Y00011812D01*
X00007599Y00011815D01*
X00007510Y00011840D01*
X00007430Y00011886D01*
X00007362Y00011949D01*
X00007310Y00012025D01*
X00007278Y00012112D01*
X00007661Y00012204D01*
X00007278Y00012296D01*
X00007310Y00012383D01*
X00007362Y00012460D01*
X00007430Y00012523D01*
X00007510Y00012568D01*
X00007599Y00012593D01*
X00007692Y00012597D01*
X00007783Y00012579D01*
X00007867Y00012540D01*
X00007939Y00012483D01*
X00007997Y00012410D01*
X00008035Y00012326D01*
X00008054Y00012235D01*
X00008050Y00012143D01*
X00008025Y00012054D01*
X00007980Y00011973D01*
X00007917Y00011905D01*
X00007840Y00011853D01*
X00007753Y00011821D01*
X00007661Y00011811D01*
X00000000Y00011811D01*
X00000000Y00000000D01*
X00023622Y00000000D01*
X00023622Y00004708D01*
X00023622Y00004708D01*
X00023626Y00004770D01*
X00023641Y00004830D01*
X00023664Y00004887D01*
X00023697Y00004940D01*
X00023737Y00004987D01*
X00023784Y00005027D01*
X00023837Y00005059D01*
X00023894Y00005083D01*
X00023954Y00005097D01*
X00024015Y00005102D01*
X00024077Y00005097D01*
X00024137Y00005083D01*
X00024194Y00005059D01*
X00024247Y00005027D01*
X00024294Y00004987D01*
X00024334Y00004940D01*
X00024366Y00004887D01*
X00024390Y00004830D01*
X00024404Y00004770D01*
X00024409Y00004708D01*
X00024409Y00000000D01*
X00037795Y00000000D01*
X00037795Y00011811D01*
X00032299Y00011811D01*
X00032268Y00011812D01*
X00032237Y00011815D01*
X00032207Y00011821D01*
X00032177Y00011830D01*
X00032148Y00011840D01*
X00032120Y00011853D01*
X00032093Y00011869D01*
X00032067Y00011886D01*
X00032043Y00011905D01*
X00032020Y00011926D01*
X00031999Y00011949D01*
X00031980Y00011973D01*
X00031963Y00011999D01*
X00031948Y00012025D01*
X00031935Y00012054D01*
X00031924Y00012083D01*
X00031916Y00012112D01*
X00031910Y00012143D01*
X00031906Y00012173D01*
X00032299Y00012204D01*
X00031906Y00012235D01*
X00031910Y00012266D01*
X00031916Y00012296D01*
X00031924Y00012326D01*
X00031935Y00012355D01*
X00031948Y00012383D01*
X00031963Y00012410D01*
X00031980Y00012436D01*
X00031999Y00012460D01*
X00032020Y00012483D01*
X00032043Y00012504D01*
X00032067Y00012523D01*
X00032093Y00012540D01*
X00032120Y00012555D01*
X00032148Y00012568D01*
X00032177Y00012579D01*
X00032207Y00012587D01*
X00032237Y00012593D01*
X00032268Y00012597D01*
X00032299Y00012598D01*
X00037007Y00012598D01*
X00037007Y00024409D01*
X00032215Y00024409D01*
X00032185Y00024410D01*
X00032154Y00024414D01*
X00032124Y00024420D01*
X00032094Y00024428D01*
X00032065Y00024439D01*
X00032037Y00024452D01*
X00032010Y00024467D01*
X00031984Y00024484D01*
X00031960Y00024503D01*
X00031937Y00024524D01*
X00031916Y00024547D01*
X00031897Y00024571D01*
X00031880Y00024597D01*
X00031865Y00024624D01*
X00031852Y00024652D01*
X00031841Y00024681D01*
X00031833Y00024711D01*
X00031827Y00024741D01*
X00031823Y00024772D01*
X00032215Y00024803D01*
X00031823Y00024834D01*
X00031827Y00024864D01*
X00031833Y00024895D01*
X00031841Y00024924D01*
X00031852Y00024953D01*
X00031865Y00024981D01*
X00031880Y00025008D01*
X00031897Y00025034D01*
X00031916Y00025058D01*
X00031937Y00025081D01*
X00031960Y00025102D01*
X00031984Y00025121D01*
X00032010Y00025138D01*
X00032037Y00025153D01*
X00032065Y00025166D01*
X00032094Y00025177D01*
X00032124Y00025185D01*
X00032154Y00025192D01*
X00032185Y00025195D01*
X00032215Y00025196D01*
X00025999Y00024409D02*
X00025999Y00024409D01*
X00025969Y00024410D01*
X00025938Y00024414D01*
X00025907Y00024420D01*
X00025878Y00024428D01*
X00025849Y00024439D01*
X00025821Y00024452D01*
X00025794Y00024467D01*
X00025768Y00024484D01*
X00025744Y00024503D01*
X00025721Y00024524D01*
X00025700Y00024547D01*
X00025681Y00024571D01*
X00025664Y00024597D01*
X00025649Y00024624D01*
X00025636Y00024652D01*
X00025625Y00024681D01*
X00025617Y00024711D01*
X00025611Y00024741D01*
X00025607Y00024772D01*
X00025999Y00024803D01*
X00025607Y00024834D01*
X00025611Y00024864D01*
X00025617Y00024895D01*
X00025625Y00024924D01*
X00025636Y00024953D01*
X00025649Y00024981D01*
X00025664Y00025008D01*
X00025681Y00025034D01*
X00025700Y00025058D01*
X00025721Y00025081D01*
X00025744Y00025102D01*
X00025768Y00025121D01*
X00025794Y00025138D01*
X00025821Y00025153D01*
X00025849Y00025166D01*
X00025878Y00025177D01*
X00025907Y00025185D01*
X00025938Y00025192D01*
X00025969Y00025195D01*
X00025999Y00025196D01*
X00029988Y00025196D01*
X00030080Y00025185D01*
X00030167Y00025153D01*
X00030244Y00025102D01*
X00030307Y00025034D01*
X00030352Y00024953D01*
X00030377Y00024864D01*
X00030381Y00024772D01*
X00030363Y00024681D01*
X00030324Y00024597D01*
X00030267Y00024524D01*
X00030194Y00024467D01*
X00030110Y00024428D01*
X00030019Y00024410D01*
X00029927Y00024414D01*
X00029838Y00024439D01*
X00029757Y00024484D01*
X00029689Y00024547D01*
X00029638Y00024624D01*
X00029605Y00024711D01*
X00029988Y00024803D01*
X00029605Y00024895D01*
X00029638Y00024981D01*
X00029689Y00025058D01*
X00029757Y00025121D01*
X00029838Y00025166D01*
X00029927Y00025192D01*
X00030019Y00025195D01*
X00030110Y00025177D01*
X00030194Y00025138D01*
X00030267Y00025081D01*
X00030324Y00025008D01*
X00030363Y00024924D01*
X00030381Y00024834D01*
X00030377Y00024741D01*
X00030352Y00024652D01*
X00030307Y00024571D01*
X00030244Y00024503D01*
X00030167Y00024452D01*
X00030080Y00024420D01*
X00029988Y00024409D01*
X00025999Y00024409D01*
X00024409Y00023606D02*
X00024409Y00023606D01*
X00024803Y00023606D01*
X00024414Y00023667D01*
X00024428Y00023728D01*
X00024452Y00023785D01*
X00024484Y00023837D01*
X00024524Y00023884D01*
X00024571Y00023924D01*
X00024624Y00023957D01*
X00024681Y00023980D01*
X00024741Y00023995D01*
X00024803Y00024000D01*
X00024864Y00023995D01*
X00024924Y00023980D01*
X00024981Y00023957D01*
X00025034Y00023924D01*
X00025081Y00023884D01*
X00025121Y00023837D01*
X00025153Y00023785D01*
X00025177Y00023728D01*
X00025192Y00023667D01*
X00025196Y00023606D01*
X00025196Y00019700D01*
X00025192Y00019639D01*
X00025177Y00019579D01*
X00025153Y00019521D01*
X00025121Y00019469D01*
X00025081Y00019422D01*
X00025034Y00019382D01*
X00024981Y00019349D01*
X00024924Y00019326D01*
X00024864Y00019311D01*
X00024803Y00019306D01*
X00024741Y00019311D01*
X00024681Y00019326D01*
X00024624Y00019349D01*
X00024571Y00019382D01*
X00024524Y00019422D01*
X00024484Y00019469D01*
X00024452Y00019521D01*
X00024428Y00019579D01*
X00024414Y00019639D01*
X00024803Y00019700D01*
X00024409Y00019700D01*
X00024409Y00023606D01*
X00023606Y00025196D02*
X00023606Y00025196D01*
X00023698Y00025185D01*
X00023785Y00025153D01*
X00023862Y00025102D01*
X00023924Y00025034D01*
X00023970Y00024953D01*
X00023995Y00024864D01*
X00023998Y00024772D01*
X00023980Y00024681D01*
X00023942Y00024597D01*
X00023884Y00024524D01*
X00023812Y00024467D01*
X00023728Y00024428D01*
X00023637Y00024410D01*
X00023544Y00024414D01*
X00023455Y00024439D01*
X00023374Y00024484D01*
X00023307Y00024547D01*
X00023255Y00024624D01*
X00023223Y00024711D01*
X00023606Y00024803D01*
X00023223Y00024895D01*
X00023255Y00024981D01*
X00023307Y00025058D01*
X00023374Y00025121D01*
X00023455Y00025166D01*
X00023544Y00025192D01*
X00023637Y00025195D01*
X00023728Y00025177D01*
X00023812Y00025138D01*
X00023884Y00025081D01*
X00023942Y00025008D01*
X00023980Y00024924D01*
X00023998Y00024834D01*
X00023995Y00024741D01*
X00023970Y00024652D01*
X00023924Y00024571D01*
X00023862Y00024503D01*
X00023785Y00024452D01*
X00023698Y00024420D01*
X00023606Y00024409D01*
X00019700Y00024409D01*
X00019669Y00024410D01*
X00019639Y00024414D01*
X00019608Y00024420D01*
X00019579Y00024428D01*
X00019550Y00024439D01*
X00019521Y00024452D01*
X00019494Y00024467D01*
X00019469Y00024484D01*
X00019444Y00024503D01*
X00019422Y00024524D01*
X00019401Y00024547D01*
X00019382Y00024571D01*
X00019364Y00024597D01*
X00019349Y00024624D01*
X00019336Y00024652D01*
X00019326Y00024681D01*
X00019317Y00024711D01*
X00019311Y00024741D01*
X00019308Y00024772D01*
X00019700Y00024803D01*
X00019308Y00024834D01*
X00019311Y00024864D01*
X00019317Y00024895D01*
X00019326Y00024924D01*
X00019336Y00024953D01*
X00019349Y00024981D01*
X00019364Y00025008D01*
X00019382Y00025034D01*
X00019401Y00025058D01*
X00019422Y00025081D01*
X00019444Y00025102D01*
X00019469Y00025121D01*
X00019494Y00025138D01*
X00019521Y00025153D01*
X00019550Y00025166D01*
X00019579Y00025177D01*
X00019608Y00025185D01*
X00019639Y00025192D01*
X00019669Y00025195D01*
X00019700Y00025196D01*
X00023606Y00025196D01*
X00025196Y00025999D02*
X00025196Y00025999D01*
X00025192Y00025938D01*
X00025177Y00025878D01*
X00025153Y00025821D01*
X00025121Y00025768D01*
X00025081Y00025721D01*
X00025034Y00025681D01*
X00024981Y00025649D01*
X00024924Y00025625D01*
X00024864Y00025611D01*
X00024803Y00025606D01*
X00024741Y00025611D01*
X00024681Y00025625D01*
X00024624Y00025649D01*
X00024571Y00025681D01*
X00024524Y00025721D01*
X00024484Y00025768D01*
X00024452Y00025821D01*
X00024428Y00025878D01*
X00024414Y00025938D01*
X00024803Y00025999D01*
X00024409Y00025999D01*
X00024409Y00029988D01*
X00024803Y00029988D01*
X00024414Y00030050D01*
X00024428Y00030110D01*
X00024452Y00030167D01*
X00024484Y00030220D01*
X00024524Y00030267D01*
X00024571Y00030307D01*
X00024624Y00030339D01*
X00024681Y00030363D01*
X00024741Y00030377D01*
X00024803Y00030382D01*
X00024864Y00030377D01*
X00024924Y00030363D01*
X00024981Y00030339D01*
X00025034Y00030307D01*
X00025081Y00030267D01*
X00025121Y00030220D01*
X00025153Y00030167D01*
X00025177Y00030110D01*
X00025192Y00030050D01*
X00025196Y00029988D01*
X00025196Y00025999D01*
X00025999Y00011811D02*
X00025999Y00011811D01*
X00025938Y00011815D01*
X00025878Y00011830D01*
X00025821Y00011853D01*
X00025768Y00011886D01*
X00025721Y00011926D01*
X00025681Y00011973D01*
X00025649Y00012025D01*
X00025625Y00012083D01*
X00025611Y00012143D01*
X00025606Y00012204D01*
X00025611Y00012266D01*
X00025625Y00012326D01*
X00025649Y00012383D01*
X00025681Y00012436D01*
X00025721Y00012483D01*
X00025768Y00012523D01*
X00025821Y00012555D01*
X00025878Y00012579D01*
X00025938Y00012593D01*
X00025999Y00012598D01*
X00025999Y00012598D01*
X00029905Y00012598D01*
X00029997Y00012587D01*
X00030084Y00012555D01*
X00030161Y00012504D01*
X00030224Y00012436D01*
X00030269Y00012355D01*
X00030294Y00012266D01*
X00030298Y00012173D01*
X00030280Y00012083D01*
X00030241Y00011999D01*
X00030184Y00011926D01*
X00030111Y00011869D01*
X00030027Y00011830D01*
X00029936Y00011812D01*
X00029844Y00011815D01*
X00029754Y00011840D01*
X00029674Y00011886D01*
X00029606Y00011949D01*
X00029554Y00012025D01*
X00029522Y00012112D01*
X00029905Y00012204D01*
X00029522Y00012296D01*
X00029554Y00012383D01*
X00029606Y00012460D01*
X00029674Y00012523D01*
X00029754Y00012568D01*
X00029844Y00012593D01*
X00029936Y00012597D01*
X00030027Y00012579D01*
X00030111Y00012540D01*
X00030184Y00012483D01*
X00030241Y00012410D01*
X00030280Y00012326D01*
X00030298Y00012235D01*
X00030294Y00012143D01*
X00030269Y00012054D01*
X00030224Y00011973D01*
X00030161Y00011905D01*
X00030084Y00011853D01*
X00029997Y00011821D01*
X00029905Y00011811D01*
X00025999Y00011811D01*
X00023622Y00011766D02*
X00023622Y00011766D01*
X00023626Y00011827D01*
X00023641Y00011887D01*
X00023664Y00011945D01*
X00023697Y00011997D01*
X00023737Y00012044D01*
X00023784Y00012084D01*
X00023837Y00012117D01*
X00023894Y00012140D01*
X00023954Y00012155D01*
X00024015Y00012160D01*
X00024077Y00012155D01*
X00024137Y00012140D01*
X00024194Y00012117D01*
X00024247Y00012084D01*
X00024294Y00012044D01*
X00024334Y00011997D01*
X00024366Y00011945D01*
X00024390Y00011887D01*
X00024404Y00011827D01*
X00024409Y00011766D01*
X00024409Y00011007D01*
X00024409Y00007102D01*
X00024404Y00007040D01*
X00024390Y00006980D01*
X00024366Y00006923D01*
X00024334Y00006870D01*
X00024294Y00006823D01*
X00024247Y00006783D01*
X00024194Y00006751D01*
X00024137Y00006727D01*
X00024077Y00006713D01*
X00024015Y00006708D01*
X00023954Y00006713D01*
X00023894Y00006727D01*
X00023837Y00006751D01*
X00023784Y00006783D01*
X00023737Y00006823D01*
X00023697Y00006870D01*
X00023664Y00006923D01*
X00023641Y00006980D01*
X00023626Y00007040D01*
X00024015Y00007102D01*
X00023622Y00007102D01*
X00023622Y00011766D01*
X00023606Y00012598D02*
X00023606Y00012598D01*
X00023698Y00012587D01*
X00023785Y00012555D01*
X00023862Y00012504D01*
X00023924Y00012436D01*
X00023970Y00012355D01*
X00023995Y00012266D01*
X00023998Y00012173D01*
X00023980Y00012083D01*
X00023942Y00011999D01*
X00023884Y00011926D01*
X00023812Y00011869D01*
X00023728Y00011830D01*
X00023637Y00011812D01*
X00023544Y00011815D01*
X00023455Y00011840D01*
X00023374Y00011886D01*
X00023307Y00011949D01*
X00023255Y00012025D01*
X00023223Y00012112D01*
X00023606Y00012204D01*
X00023223Y00012296D01*
X00023255Y00012383D01*
X00023307Y00012460D01*
X00023374Y00012523D01*
X00023455Y00012568D01*
X00023544Y00012593D01*
X00023637Y00012597D01*
X00023728Y00012579D01*
X00023812Y00012540D01*
X00023884Y00012483D01*
X00023942Y00012410D01*
X00023980Y00012326D01*
X00023998Y00012235D01*
X00023995Y00012143D01*
X00023970Y00012054D01*
X00023924Y00011973D01*
X00023862Y00011905D01*
X00023785Y00011853D01*
X00023698Y00011821D01*
X00023606Y00011811D01*
X00016354Y00011811D01*
X00016323Y00011812D01*
X00016292Y00011815D01*
X00016262Y00011821D01*
X00016232Y00011830D01*
X00016203Y00011840D01*
X00016175Y00011853D01*
X00016148Y00011869D01*
X00016122Y00011886D01*
X00016098Y00011905D01*
X00016075Y00011926D01*
X00016054Y00011949D01*
X00016035Y00011973D01*
X00016018Y00011999D01*
X00016003Y00012025D01*
X00015990Y00012054D01*
X00015979Y00012083D01*
X00015971Y00012112D01*
X00015965Y00012143D01*
X00015961Y00012173D01*
X00016354Y00012204D01*
X00015961Y00012235D01*
X00015965Y00012266D01*
X00015971Y00012296D01*
X00015979Y00012326D01*
X00015990Y00012355D01*
X00016003Y00012383D01*
X00016018Y00012410D01*
X00016035Y00012436D01*
X00016054Y00012460D01*
X00016075Y00012483D01*
X00016098Y00012504D01*
X00016122Y00012523D01*
X00016148Y00012540D01*
X00016175Y00012555D01*
X00016203Y00012568D01*
X00016232Y00012579D01*
X00016262Y00012587D01*
X00016292Y00012593D01*
X00016323Y00012597D01*
X00016354Y00012598D01*
X00023606Y00012598D01*
X00025196Y00013401D02*
X00025196Y00013401D01*
X00025192Y00013339D01*
X00025177Y00013279D01*
X00025153Y00013222D01*
X00025121Y00013170D01*
X00025081Y00013123D01*
X00025034Y00013082D01*
X00024981Y00013050D01*
X00024924Y00013027D01*
X00024864Y00013012D01*
X00024803Y00013007D01*
X00024741Y00013012D01*
X00024681Y00013027D01*
X00024624Y00013050D01*
X00024571Y00013082D01*
X00024524Y00013123D01*
X00024484Y00013170D01*
X00024452Y00013222D01*
X00024428Y00013279D01*
X00024414Y00013339D01*
X00024803Y00013401D01*
X00024409Y00013401D01*
X00024409Y00017307D01*
X00024803Y00017307D01*
X00024414Y00017368D01*
X00024428Y00017428D01*
X00024452Y00017485D01*
X00024484Y00017538D01*
X00024524Y00017585D01*
X00024571Y00017625D01*
X00024624Y00017657D01*
X00024681Y00017681D01*
X00024741Y00017696D01*
X00024803Y00017700D01*
X00024864Y00017696D01*
X00024924Y00017681D01*
X00024981Y00017657D01*
X00025034Y00017625D01*
X00025081Y00017585D01*
X00025121Y00017538D01*
X00025153Y00017485D01*
X00025177Y00017428D01*
X00025192Y00017368D01*
X00025196Y00017307D01*
X00025196Y00013401D01*
X00010055Y00011811D02*
X00010055Y00011811D01*
X00010024Y00011812D01*
X00009993Y00011815D01*
X00009963Y00011821D01*
X00009933Y00011830D01*
X00009904Y00011840D01*
X00009876Y00011853D01*
X00009849Y00011869D01*
X00009823Y00011886D01*
X00009799Y00011905D01*
X00009776Y00011926D01*
X00009755Y00011949D01*
X00009736Y00011973D01*
X00009719Y00011999D01*
X00009704Y00012025D01*
X00009691Y00012054D01*
X00009680Y00012083D01*
X00009672Y00012112D01*
X00009666Y00012143D01*
X00009662Y00012173D01*
X00010055Y00012204D01*
X00009662Y00012235D01*
X00009666Y00012266D01*
X00009672Y00012296D01*
X00009680Y00012326D01*
X00009691Y00012355D01*
X00009704Y00012383D01*
X00009719Y00012410D01*
X00009736Y00012436D01*
X00009755Y00012460D01*
X00009776Y00012483D01*
X00009799Y00012504D01*
X00009823Y00012523D01*
X00009849Y00012540D01*
X00009876Y00012555D01*
X00009904Y00012568D01*
X00009933Y00012579D01*
X00009963Y00012587D01*
X00009993Y00012593D01*
X00010024Y00012597D01*
X00010055Y00012598D01*
X00011811Y00012598D01*
X00011811Y00017307D01*
X00012204Y00017307D01*
X00011815Y00017368D01*
X00011830Y00017428D01*
X00011853Y00017485D01*
X00011886Y00017538D01*
X00011926Y00017585D01*
X00011973Y00017625D01*
X00012025Y00017657D01*
X00012083Y00017681D01*
X00012143Y00017696D01*
X00012204Y00017700D01*
X00012266Y00017696D01*
X00012326Y00017681D01*
X00012383Y00017657D01*
X00012436Y00017625D01*
X00012483Y00017585D01*
X00012523Y00017538D01*
X00012555Y00017485D01*
X00012579Y00017428D01*
X00012593Y00017368D01*
X00012598Y00017307D01*
X00012598Y00012598D01*
X00013960Y00012598D01*
X00014052Y00012587D01*
X00014139Y00012555D01*
X00014216Y00012504D01*
X00014279Y00012436D01*
X00014324Y00012355D01*
X00014349Y00012266D01*
X00014353Y00012173D01*
X00014335Y00012083D01*
X00014296Y00011999D01*
X00014239Y00011926D01*
X00014166Y00011869D01*
X00014082Y00011830D01*
X00013991Y00011812D01*
X00013899Y00011815D01*
X00013810Y00011840D01*
X00013729Y00011886D01*
X00013661Y00011949D01*
X00013609Y00012025D01*
X00013577Y00012112D01*
X00013960Y00012204D01*
X00013577Y00012296D01*
X00013609Y00012383D01*
X00013661Y00012460D01*
X00013729Y00012523D01*
X00013810Y00012568D01*
X00013899Y00012593D01*
X00013991Y00012597D01*
X00014082Y00012579D01*
X00014166Y00012540D01*
X00014239Y00012483D01*
X00014296Y00012410D01*
X00014335Y00012326D01*
X00014353Y00012235D01*
X00014349Y00012143D01*
X00014324Y00012054D01*
X00014279Y00011973D01*
X00014216Y00011905D01*
X00014139Y00011853D01*
X00014052Y00011821D01*
X00013960Y00011811D01*
X00010055Y00011811D01*
X00011811Y00023606D02*
X00011811Y00023606D01*
X00012204Y00023606D01*
X00011815Y00023667D01*
X00011830Y00023728D01*
X00011853Y00023785D01*
X00011886Y00023837D01*
X00011926Y00023884D01*
X00011973Y00023924D01*
X00012025Y00023957D01*
X00012083Y00023980D01*
X00012143Y00023995D01*
X00012204Y00024000D01*
X00012266Y00023995D01*
X00012326Y00023980D01*
X00012383Y00023957D01*
X00012436Y00023924D01*
X00012483Y00023884D01*
X00012523Y00023837D01*
X00012555Y00023785D01*
X00012579Y00023728D01*
X00012593Y00023667D01*
X00012598Y00023606D01*
X00012598Y00019700D01*
X00012593Y00019639D01*
X00012579Y00019579D01*
X00012555Y00019521D01*
X00012523Y00019469D01*
X00012483Y00019422D01*
X00012436Y00019382D01*
X00012383Y00019349D01*
X00012326Y00019326D01*
X00012266Y00019311D01*
X00012204Y00019306D01*
X00012143Y00019311D01*
X00012083Y00019326D01*
X00012025Y00019349D01*
X00011973Y00019382D01*
X00011926Y00019422D01*
X00011886Y00019469D01*
X00011853Y00019521D01*
X00011830Y00019579D01*
X00011815Y00019639D01*
X00012204Y00019700D01*
X00011811Y00019700D01*
X00011811Y00023606D01*
X00011007Y00025196D02*
X00011007Y00025196D01*
X00011069Y00025192D01*
X00011129Y00025177D01*
X00011186Y00025153D01*
X00011239Y00025121D01*
X00011286Y00025081D01*
X00011326Y00025034D01*
X00011358Y00024981D01*
X00011382Y00024924D01*
X00011396Y00024864D01*
X00011401Y00024803D01*
X00011396Y00024741D01*
X00011382Y00024681D01*
X00011358Y00024624D01*
X00011326Y00024571D01*
X00011286Y00024524D01*
X00011239Y00024484D01*
X00011186Y00024452D01*
X00011129Y00024428D01*
X00011069Y00024414D01*
X00011007Y00024409D01*
X00011007Y00024409D01*
X00007102Y00024409D01*
X00007071Y00024410D01*
X00007040Y00024414D01*
X00007010Y00024420D01*
X00006980Y00024428D01*
X00006951Y00024439D01*
X00006923Y00024452D01*
X00006896Y00024467D01*
X00006870Y00024484D01*
X00006846Y00024503D01*
X00006823Y00024524D01*
X00006802Y00024547D01*
X00006783Y00024571D01*
X00006766Y00024597D01*
X00006751Y00024624D01*
X00006738Y00024652D01*
X00006727Y00024681D01*
X00006719Y00024711D01*
X00006713Y00024741D01*
X00006709Y00024772D01*
X00007102Y00024803D01*
X00006709Y00024834D01*
X00006713Y00024864D01*
X00006719Y00024895D01*
X00006727Y00024924D01*
X00006738Y00024953D01*
X00006751Y00024981D01*
X00006766Y00025008D01*
X00006783Y00025034D01*
X00006802Y00025058D01*
X00006823Y00025081D01*
X00006846Y00025102D01*
X00006870Y00025121D01*
X00006896Y00025138D01*
X00006923Y00025153D01*
X00006951Y00025166D01*
X00006980Y00025177D01*
X00007010Y00025185D01*
X00007040Y00025192D01*
X00007071Y00025195D01*
X00007102Y00025196D01*
X00011007Y00025196D01*
X00012598Y00025999D02*
X00012598Y00025999D01*
X00012593Y00025938D01*
X00012579Y00025878D01*
X00012555Y00025821D01*
X00012523Y00025768D01*
X00012483Y00025721D01*
X00012436Y00025681D01*
X00012383Y00025649D01*
X00012326Y00025625D01*
X00012266Y00025611D01*
X00012204Y00025606D01*
X00012143Y00025611D01*
X00012083Y00025625D01*
X00012025Y00025649D01*
X00011973Y00025681D01*
X00011926Y00025721D01*
X00011886Y00025768D01*
X00011853Y00025821D01*
X00011830Y00025878D01*
X00011815Y00025938D01*
X00012204Y00025999D01*
X00011811Y00025999D01*
X00011811Y00029905D01*
X00012204Y00029905D01*
X00011815Y00029967D01*
X00011830Y00030027D01*
X00011853Y00030084D01*
X00011886Y00030137D01*
X00011926Y00030184D01*
X00011973Y00030224D01*
X00012025Y00030256D01*
X00012083Y00030280D01*
X00012143Y00030294D01*
X00012204Y00030299D01*
X00012266Y00030294D01*
X00012326Y00030280D01*
X00012383Y00030256D01*
X00012436Y00030224D01*
X00012483Y00030184D01*
X00012523Y00030137D01*
X00012555Y00030084D01*
X00012579Y00030027D01*
X00012593Y00029967D01*
X00012598Y00029905D01*
X00012598Y00025999D01*
M02*