%
M48
METRIC,000.000
T01C0.50
%
T01
X005785Y062250
X004785Y062250
X003785Y062250
X002785Y062250
X001785Y062250
X000785Y062250
X000429Y063750
X001429Y063750
X002429Y063750
X003429Y063750
X004429Y063750
X005429Y063750
X020250Y032607
X020250Y033607
X018429Y031750
X019429Y031750
X021750Y033178
X021750Y032178
X022429Y031750
X023429Y031750
X023785Y030250
X022785Y030250
X021785Y030250
X020785Y030250
X019785Y030250
X018785Y030250
X020250Y060607
X020250Y061607
X019785Y062250
X018785Y062250
X023785Y062250
X022785Y062250
X021810Y062163
X021750Y061178
X021750Y060178
X021750Y065178
X021750Y064178
X022429Y063750
X023429Y063750
X020250Y064607
X020250Y065607
X018429Y063750
X019429Y063750
X000429Y031750
X001429Y031750
X002429Y031750
X003429Y031750
X004429Y031750
X005429Y031750
X005785Y030250
X004785Y030250
X003785Y030250
X002785Y030250
X001785Y030250
X000785Y030250
X052250Y032607
X052250Y033607
X050429Y031750
X051429Y031750
X053750Y033178
X053750Y032178
X054429Y031750
X055429Y031750
X055785Y030250
X054785Y030250
X053785Y030250
X052785Y030250
X051785Y030250
X050785Y030250
X072429Y031750
X073429Y031750
X074429Y031750
X075429Y031750
X076429Y031750
X077429Y031750
X077785Y030250
X076785Y030250
X075785Y030250
X074785Y030250
X073785Y030250
X072785Y030250
X061750Y017178
X061750Y016178
X061750Y015178
X061750Y014178
X061750Y013178
X061750Y012178
X060250Y012607
X060250Y013607
X060250Y014607
X060250Y015607
X060250Y016607
X060250Y017607
X052250Y060607
X052250Y061607
X051785Y062250
X050785Y062250
X052250Y064607
X052250Y065607
X050429Y063750
X051429Y063750
X055785Y062250
X054785Y062250
X053810Y062163
X053750Y061178
X053750Y060178
X053750Y065178
X053750Y064178
X054429Y063750
X055429Y063750
X021750Y081178
X021750Y080178
X021750Y079178
X021750Y078178
X021750Y077178
X021750Y076178
X020250Y076607
X020250Y077607
X020250Y078607
X020250Y079607
X020250Y080607
X020250Y081607
X052250Y076607
X052250Y077607
X052250Y078607
X052250Y079607
X052250Y080607
X052250Y081607
X053750Y081178
X053750Y080178
X053750Y079178
X053750Y078178
X053750Y077178
X053750Y076178
X077785Y062250
X076785Y062250
X075785Y062250
X074785Y062250
X073785Y062250
X072785Y062250
X072429Y063750
X073429Y063750
X074429Y063750
X075429Y063750
X076429Y063750
X077429Y063750
M30