%MOIN*%
%OFA0B0*%
%FSLAX46Y46*%
%IPPOS*%
%LPD*%
%ADD10C,0.0039370078740157488*%
%ADD11R,0.051181102362204731X0.062992125984251982*%
%ADD12R,0.07716535433070866X0.041338582677165357*%
%ADD13R,0.064960629921259838X0.074803149606299218*%
%ADD14R,0.074803149606299218X0.074803149606299218*%
%ADD15C,0.074803149606299218*%
%ADD16C,0.086614173228346469*%
%ADD27C,0.0039370078740157488*%
%ADD28R,0.062992125984251982X0.051181102362204731*%
%ADD29O,0.094448031496063X0.094448031496063*%
%ADD30R,0.094448031496063X0.094448031496063*%
%ADD31R,0.07716535433070866X0.041338582677165357*%
%ADD32R,0.07874015748031496X0.094488188976377951*%
%ADD33R,0.047244094488188976X0.086614173228346469*%
%ADD34R,0.051181102362204731X0.062992125984251982*%
%ADD35R,0.063779527559055124X0.0515748031496063*%
%ADD36R,0.1141732283464567X0.094488188976377951*%
%ADD37R,0.074803149606299218X0.074803149606299218*%
%ADD38C,0.074803149606299218*%
%ADD39C,0.086614173228346469*%
%ADD40C,0.0039370078740157488*%
%ADD41R,0.062992125984251982X0.051181102362204731*%
%ADD42O,0.094448031496063X0.094448031496063*%
%ADD43R,0.094448031496063X0.094448031496063*%
%ADD44R,0.064960629921259838X0.074803149606299218*%
%ADD45R,0.094488188976377951X0.07874015748031496*%
%ADD46R,0.074803149606299218X0.064960629921259838*%
%ADD47R,0.041338582677165357X0.07716535433070866*%
%ADD48R,0.076771653543307089X0.03937007874015748*%
%ADD49R,0.074803149606299218X0.074803149606299218*%
%ADD50C,0.074803149606299218*%
%ADD51C,0.086614173228346469*%
%ADD52C,0.0039370078740157488*%
%ADD53R,0.074803149606299218X0.064960629921259838*%
%ADD54R,0.062992125984251982X0.051181102362204731*%
%ADD55R,0.03937007874015748X0.076771653543307089*%
%ADD56R,0.074803149606299218X0.074803149606299218*%
%ADD57C,0.074803149606299218*%
%ADD58C,0.086614173228346469*%
%ADD59C,0.0039370078740157488*%
%ADD60R,0.094488188976377951X0.07874015748031496*%
%ADD61R,0.074803149606299218X0.064960629921259838*%
%ADD62R,0.062992125984251982X0.051181102362204731*%
%ADD63R,0.041338582677165357X0.07716535433070866*%
%ADD64R,0.074803149606299218X0.074803149606299218*%
%ADD65C,0.074803149606299218*%
%ADD66C,0.086614173228346469*%
%ADD67C,0.0039370078740157488*%
%ADD68R,0.094488188976377951X0.07874015748031496*%
%ADD69R,0.0452755905511811X0.062992125984251982*%
%ADD70R,0.064960629921259838X0.074803149606299218*%
%ADD71R,0.07874015748031496X0.094488188976377951*%
%ADD72R,0.074803149606299218X0.064960629921259838*%
%ADD73R,0.062992125984251982X0.0452755905511811*%
%ADD74R,0.076771653543307089X0.03937007874015748*%
%ADD75R,0.062992125984251982X0.051181102362204731*%
%ADD76R,0.0515748031496063X0.063779527559055124*%
%ADD77O,0.094448031496063X0.094448031496063*%
%ADD78R,0.094448031496063X0.094448031496063*%
%ADD79R,0.074803149606299218X0.074803149606299218*%
%ADD80C,0.074803149606299218*%
%ADD81C,0.086614173228346469*%
%ADD82C,0.0039370078740157488*%
%ADD83O,0.094448031496063X0.094448031496063*%
%ADD84R,0.094448031496063X0.094448031496063*%
%ADD85R,0.064960629921259838X0.074803149606299218*%
%ADD86R,0.094488188976377951X0.07874015748031496*%
%ADD87R,0.074803149606299218X0.064960629921259838*%
%ADD88R,0.0515748031496063X0.063779527559055124*%
%ADD89R,0.076771653543307089X0.03937007874015748*%
%ADD90R,0.068897637795275593X0.068897637795275593*%
%ADD91C,0.068897637795275593*%
%ADD92R,0.062992125984251982X0.051181102362204731*%
%ADD93R,0.074803149606299218X0.074803149606299218*%
%ADD94C,0.074803149606299218*%
%ADD95R,0.062992125984251982X0.0452755905511811*%
%ADD96R,0.051181102362204731X0.062992125984251982*%
%ADD97C,0.070866141732283464*%
%ADD98C,0.0039370078740157488*%
%ADD99R,0.062992125984251982X0.051181102362204731*%
%ADD100O,0.094448031496063X0.094448031496063*%
%ADD101R,0.094448031496063X0.094448031496063*%
%ADD102R,0.064960629921259838X0.074803149606299218*%
%ADD103R,0.094488188976377951X0.07874015748031496*%
%ADD104R,0.074803149606299218X0.064960629921259838*%
%ADD105R,0.041338582677165357X0.07716535433070866*%
%ADD106R,0.076771653543307089X0.03937007874015748*%
%ADD107R,0.074803149606299218X0.074803149606299218*%
%ADD108C,0.074803149606299218*%
%ADD109C,0.086614173228346469*%
G01G01*
D10*
D11*
X-0004173228Y0006377952D02*
X0003452755Y0003421259D03*
X0003452755Y0003507874D03*
D12*
X0003057086Y0003068897D03*
X0003057086Y0003031496D03*
X0003057086Y0002994094D03*
X0003163385Y0002994094D03*
X0003163385Y0003068897D03*
D13*
X0002755905Y0003257874D03*
X0002755905Y0003159448D03*
X0003405511Y0003001968D03*
X0003405511Y0002903543D03*
X0002755905Y0003513779D03*
X0002755905Y0003415354D03*
D11*
X0003582677Y0003507874D03*
X0003582677Y0003421259D03*
X0002629921Y0003507874D03*
X0002629921Y0003421259D03*
X0002629921Y0003251968D03*
X0002629921Y0003165354D03*
X0003452755Y0003161417D03*
X0003452755Y0003248031D03*
X0003543307Y0002909448D03*
X0003543307Y0002996062D03*
D14*
X0002952755Y0002629921D03*
D15*
X0003031496Y0002629921D03*
X0003110236Y0002629921D03*
X0003188976Y0002629921D03*
X0003267716Y0002629921D03*
D16*
X0003208661Y0003622047D03*
X0003110236Y0003622047D03*
X0003011811Y0003622047D03*
X0003208661Y0003425196D03*
X0003110236Y0003425196D03*
X0003011811Y0003425196D03*
G04 next file*
G04 Gerber Fmt 4.6, Leading zero omitted, Abs format (unit mm)*
G04 Created by KiCad (PCBNEW 4.0.4-1.fc24-product) date Fri Jan 12 13:17:57 2018*
G01G01*
G04 APERTURE LIST*
G04 APERTURE END LIST*
D27*
D28*
X-0005354330Y0006377952D02*
X0000889763Y0002811023D03*
X0000803149Y0002811023D03*
X0001086614Y0002874015D03*
X0001000000Y0002874015D03*
D29*
X0000182677Y0002665354D03*
D30*
X0000082677Y0002665354D03*
D29*
X0001096062Y0002665354D03*
D30*
X0000996062Y0002665354D03*
D31*
X0000537401Y0002990157D03*
X0000537401Y0002952755D03*
X0000537401Y0002915354D03*
X0000643700Y0002915354D03*
X0000643700Y0002990157D03*
D32*
X0000476377Y0003173228D03*
X0000476377Y0003330708D03*
X0000696850Y0003173228D03*
X0000696850Y0003330708D03*
D33*
X0000179133Y0003490157D03*
X0000104330Y0003490157D03*
X0000141732Y0003360236D03*
X0001076771Y0003490157D03*
X0001001968Y0003490157D03*
X0001039370Y0003360236D03*
D28*
X0000104330Y0002883858D03*
X0000190944Y0002883858D03*
D34*
X0000232283Y0003236220D03*
X0000232283Y0003149606D03*
X0000964566Y0003232283D03*
X0000964566Y0003145669D03*
X0000322834Y0003374015D03*
X0000322834Y0003460629D03*
X0000854330Y0003374015D03*
X0000854330Y0003460629D03*
D28*
X0000366141Y0003594488D03*
X0000279527Y0003594488D03*
X0000897637Y0003594488D03*
X0000811023Y0003594488D03*
D34*
X0000374015Y0002901574D03*
X0000374015Y0002988188D03*
X0000807086Y0002901574D03*
X0000807086Y0002988188D03*
D28*
X0000547244Y0002811023D03*
X0000633858Y0002811023D03*
D35*
X0000322834Y0003116732D03*
X0000322834Y0003245472D03*
X0000862204Y0003112795D03*
X0000862204Y0003241535D03*
D36*
X0000114173Y0003204724D03*
X0000114173Y0003047244D03*
X0001086614Y0003196850D03*
X0001086614Y0003039370D03*
D37*
X0000433070Y0002625984D03*
D38*
X0000511811Y0002625984D03*
X0000590551Y0002625984D03*
X0000669291Y0002625984D03*
X0000748031Y0002625984D03*
D39*
X0000688976Y0003622047D03*
X0000590551Y0003622047D03*
X0000492125Y0003622047D03*
X0000688976Y0003523622D03*
X0000590551Y0003523622D03*
X0000492125Y0003523622D03*
G04 next file*
G04 #@! TF.FileFunction,Soldermask,Top*
G04 Gerber Fmt 4.6, Leading zero omitted, Abs format (unit mm)*
G04 Created by KiCad (PCBNEW 4.0.4-1.fc24-product) date Fri Jan 12 11:53:18 2018*
G01G01*
G04 APERTURE LIST*
G04 APERTURE END LIST*
D40*
D41*
X-0004133858Y0006062992D02*
X0002354330Y0001523622D03*
X0002267716Y0001523622D03*
D42*
X0001393700Y0001330708D03*
D43*
X0001393700Y0001430708D03*
D44*
X0001586614Y0001698818D03*
X0001586614Y0001600393D03*
D45*
X0001535433Y0001830708D03*
X0001377952Y0001830708D03*
D44*
X0001586614Y0002061023D03*
X0001586614Y0001962598D03*
D46*
X0001466535Y0002070866D03*
X0001368110Y0002070866D03*
D45*
X0002185039Y0001401574D03*
X0002342519Y0001401574D03*
D41*
X0001361220Y0001591535D03*
X0001447834Y0001591535D03*
X0001361220Y0001705708D03*
X0001447834Y0001705708D03*
X0001362204Y0001956692D03*
X0001448818Y0001956692D03*
X0001807086Y0001814960D03*
X0001893700Y0001814960D03*
X0001448818Y0002291338D03*
X0001362204Y0002291338D03*
X0001362204Y0002185039D03*
X0001448818Y0002185039D03*
X0001637795Y0002287401D03*
X0001551181Y0002287401D03*
X0002196850Y0002283464D03*
X0002283464Y0002283464D03*
X0002196850Y0002177165D03*
X0002283464Y0002177165D03*
X0002196850Y0002070866D03*
X0002283464Y0002070866D03*
D47*
X0002277559Y0001946850D03*
X0002240157Y0001946850D03*
X0002202755Y0001946850D03*
X0002202755Y0001840551D03*
X0002277559Y0001840551D03*
D48*
X0001791338Y0001708858D03*
X0001791338Y0001658858D03*
X0001791338Y0001608858D03*
X0001791338Y0001558858D03*
X0002003937Y0001558858D03*
X0002003937Y0001608858D03*
X0002003937Y0001658858D03*
X0002003937Y0001708858D03*
D49*
X0001692913Y0001397637D03*
D50*
X0001771653Y0001397637D03*
X0001850393Y0001397637D03*
X0001929133Y0001397637D03*
X0002007874Y0001397637D03*
D51*
X0001948818Y0001929133D03*
X0001850393Y0001929133D03*
X0001751968Y0001929133D03*
X0001751968Y0002322834D03*
X0001850393Y0002322834D03*
X0001948818Y0002322834D03*
X0001751968Y0002224409D03*
X0001850393Y0002224409D03*
X0001948818Y0002224409D03*
X0001751968Y0002027559D03*
X0001850393Y0002027559D03*
X0001948818Y0002027559D03*
G04 next file*
G04 #@! TF.FileFunction,Soldermask,Top*
G04 Gerber Fmt 4.6, Leading zero omitted, Abs format (unit mm)*
G04 Created by KiCad (PCBNEW 4.0.4-1.fc24-product) date Fri Jan 12 13:14:49 2018*
G01G01*
G04 APERTURE LIST*
G04 APERTURE END LIST*
D52*
D53*
X-0002992125Y0004409448D02*
X0002710629Y0002011811D03*
X0002809055Y0002011811D03*
X0003486220Y0001870078D03*
X0003387795Y0001870078D03*
D54*
X0002716535Y0001559055D03*
X0002803149Y0001559055D03*
X0002803149Y0001429133D03*
X0002716535Y0001429133D03*
X0002720472Y0001755905D03*
X0002807086Y0001755905D03*
X0002720472Y0001870078D03*
X0002807086Y0001870078D03*
X0003476377Y0001755905D03*
X0003389763Y0001755905D03*
X0003476377Y0001649606D03*
X0003389763Y0001649606D03*
D55*
X0003189173Y0001881889D03*
X0003139173Y0001881889D03*
X0003089173Y0001881889D03*
X0003039173Y0001881889D03*
X0003039173Y0001669291D03*
X0003089173Y0001669291D03*
X0003139173Y0001669291D03*
X0003189173Y0001669291D03*
D56*
X0002952755Y0001421259D03*
D57*
X0003031496Y0001421259D03*
X0003110236Y0001421259D03*
X0003188976Y0001421259D03*
X0003267716Y0001421259D03*
D58*
X0003208661Y0002362204D03*
X0003110236Y0002362204D03*
X0003011811Y0002362204D03*
X0003208661Y0002165354D03*
X0003110236Y0002165354D03*
X0003011811Y0002165354D03*
G04 next file*
G04 Gerber Fmt 4.6, Leading zero omitted, Abs format (unit mm)*
G04 Created by KiCad (PCBNEW 4.0.4-1.fc24-product) date Fri Jan 12 13:19:57 2018*
G01G01*
G04 APERTURE LIST*
G04 APERTURE END LIST*
D59*
D60*
X-0004409448Y0006220472D02*
X0001822834Y0003602362D03*
X0001665354Y0003602362D03*
D61*
X0002096456Y0002874015D03*
X0001998031Y0002874015D03*
D62*
X0001704724Y0003425196D03*
X0001791338Y0003425196D03*
X0001791338Y0003267716D03*
X0001704724Y0003267716D03*
X0002366141Y0002874015D03*
X0002279527Y0002874015D03*
X0001791338Y0003110236D03*
X0001704724Y0003110236D03*
X0001704724Y0002874015D03*
X0001791338Y0002874015D03*
D63*
X0001474409Y0003446850D03*
X0001437007Y0003446850D03*
X0001399606Y0003446850D03*
X0001399606Y0003340551D03*
X0001474409Y0003340551D03*
D64*
X0001692913Y0002633858D03*
D65*
X0001771653Y0002633858D03*
X0001850393Y0002633858D03*
X0001929133Y0002633858D03*
X0002007874Y0002633858D03*
D66*
X0002338582Y0003188976D03*
X0002240157Y0003188976D03*
X0002141732Y0003188976D03*
X0002141732Y0003582677D03*
X0002240157Y0003582677D03*
X0002338582Y0003582677D03*
X0002141732Y0003484251D03*
X0002240157Y0003484251D03*
X0002338582Y0003484251D03*
X0002141732Y0003287401D03*
X0002240157Y0003287401D03*
X0002338582Y0003287401D03*
G04 next file*
G04 #@! TF.FileFunction,Soldermask,Top*
G04 Gerber Fmt 4.6, Leading zero omitted, Abs format (unit mm)*
G04 Created by KiCad (PCBNEW 4.0.4-1.fc24-product) date Fri Jan 12 13:21:34 2018*
G01G01*
G04 APERTURE LIST*
G04 APERTURE END LIST*
D67*
D68*
X-0003543307Y0003149606D02*
X0003610236Y0000803149D03*
X0003452755Y0000803149D03*
D69*
X0002519685Y0000895669D03*
X0002519685Y0000820866D03*
D70*
X0002519685Y0000986220D03*
X0002519685Y0001084645D03*
D69*
X0002972440Y0000891732D03*
X0002972440Y0000816929D03*
D71*
X0003082677Y0000929133D03*
X0003082677Y0000771653D03*
D72*
X0002639763Y0000696850D03*
X0002738188Y0000696850D03*
D69*
X0002519685Y0000694881D03*
X0002519685Y0000620078D03*
D72*
X0003084645Y0001086614D03*
X0002986220Y0001086614D03*
D73*
X0003194881Y0001086614D03*
X0003269685Y0001086614D03*
D74*
X0002645669Y0000972637D03*
X0002645669Y0000922637D03*
X0002645669Y0000872637D03*
X0002645669Y0000822637D03*
X0002858267Y0000822637D03*
X0002858267Y0000872637D03*
X0002858267Y0000922637D03*
X0002858267Y0000972637D03*
D72*
X0003210629Y0000944881D03*
X0003309055Y0000944881D03*
X0002958661Y0000696850D03*
X0002860236Y0000696850D03*
X0003214566Y0000692913D03*
X0003312992Y0000692913D03*
D75*
X0003456692Y0000921259D03*
X0003543307Y0000921259D03*
X0003637795Y0000921259D03*
X0003724409Y0000921259D03*
D76*
X0003195472Y0000818897D03*
X0003324212Y0000818897D03*
D72*
X0002698818Y0001086614D03*
X0002797244Y0001086614D03*
D77*
X0003633858Y0000091338D03*
D78*
X0003633858Y0000291338D03*
D77*
X0003633858Y0000191338D03*
X0003633858Y0000431496D03*
D78*
X0003633858Y0000531496D03*
D79*
X0003267716Y0000137795D03*
D80*
X0003267716Y0000216535D03*
X0003267716Y0000295275D03*
X0003267716Y0000374015D03*
X0003267716Y0000452755D03*
D79*
X0002637795Y0000137795D03*
D80*
X0002637795Y0000216535D03*
X0002637795Y0000295275D03*
X0002637795Y0000374015D03*
X0002637795Y0000452755D03*
D79*
X0002952755Y0000137795D03*
D80*
X0002952755Y0000216535D03*
X0002952755Y0000295275D03*
X0002952755Y0000374015D03*
X0002952755Y0000452755D03*
D81*
X0003488188Y0001102362D03*
X0003586614Y0001102362D03*
X0003685039Y0001102362D03*
G04 next file*
G04 #@! TF.FileFunction,Soldermask,Top*
G04 Gerber Fmt 4.6, Leading zero omitted, Abs format (unit mm)*
G04 Created by KiCad (PCBNEW 4.0.4-1.fc24-product) date Fri Jan 12 12:09:15 2018*
G01G01*
G04 APERTURE LIST*
G04 APERTURE END LIST*
D82*
D83*
X-0004685039Y0004370078D02*
X0002091338Y0000137795D03*
D84*
X0002291338Y0000137795D03*
D83*
X0002191338Y0000137795D03*
D85*
X0000389763Y0000974409D03*
X0000389763Y0001072834D03*
D86*
X0001350393Y0000665354D03*
X0001507874Y0000665354D03*
D87*
X0000801181Y0000944881D03*
X0000899606Y0000944881D03*
D85*
X0000275590Y0000974409D03*
X0000275590Y0001072834D03*
D87*
X0000801181Y0001070866D03*
X0000899606Y0001070866D03*
D85*
X0000161417Y0001072834D03*
X0000161417Y0000974409D03*
D87*
X0000163385Y0000811023D03*
X0000261811Y0000811023D03*
X0001781496Y0000976377D03*
X0001683070Y0000976377D03*
D88*
X0000914763Y0000807086D03*
X0000786023Y0000807086D03*
D89*
X0000622047Y0000665157D03*
X0000622047Y0000715157D03*
X0000622047Y0000765157D03*
X0000622047Y0000815157D03*
X0000409448Y0000815157D03*
X0000409448Y0000765157D03*
X0000409448Y0000715157D03*
X0000409448Y0000665157D03*
D87*
X0000537401Y0001070866D03*
X0000635826Y0001070866D03*
X0000537401Y0000944881D03*
X0000635826Y0000944881D03*
X0000261811Y0000673228D03*
X0000163385Y0000673228D03*
D83*
X0001844881Y0000137795D03*
D84*
X0001944881Y0000137795D03*
D90*
X0001511811Y0000216535D03*
D91*
X0001433070Y0000216535D03*
X0001511811Y0000295275D03*
X0001433070Y0000295275D03*
D92*
X0001165354Y0000665354D03*
X0001078740Y0000665354D03*
X0001165354Y0000767716D03*
X0001078740Y0000767716D03*
X0001078740Y0000870078D03*
X0001165354Y0000870078D03*
X0001681102Y0000665354D03*
X0001767716Y0000665354D03*
X0001681102Y0000562992D03*
X0001767716Y0000562992D03*
X0001472440Y0001078740D03*
X0001385826Y0001078740D03*
X0001681102Y0000767716D03*
X0001767716Y0000767716D03*
X0001771653Y0001082677D03*
X0001685039Y0001082677D03*
D89*
X0001322834Y0000956889D03*
X0001322834Y0000906889D03*
X0001322834Y0000856889D03*
X0001322834Y0000806889D03*
X0001535433Y0000806889D03*
X0001535433Y0000856889D03*
X0001535433Y0000906889D03*
X0001535433Y0000956889D03*
D93*
X0000984251Y0000133858D03*
D94*
X0000984251Y0000212598D03*
X0000984251Y0000291338D03*
X0000984251Y0000370078D03*
X0000984251Y0000448818D03*
D93*
X0000590551Y0000133858D03*
D94*
X0000590551Y0000212598D03*
X0000590551Y0000291338D03*
X0000590551Y0000370078D03*
X0000590551Y0000448818D03*
D93*
X0000196850Y0000133858D03*
D94*
X0000196850Y0000212598D03*
X0000196850Y0000291338D03*
X0000196850Y0000370078D03*
X0000196850Y0000448818D03*
D95*
X0001683070Y0000870078D03*
X0001757874Y0000870078D03*
D87*
X0000899606Y0000665354D03*
X0000801181Y0000665354D03*
D96*
X0001885826Y0000877952D03*
X0001885826Y0000964566D03*
D97*
X0002021653Y0001110236D03*
X0002100393Y0001110236D03*
X0002179133Y0000578740D03*
X0002179133Y0001110236D03*
X0002100393Y0000775590D03*
X0002021653Y0000578740D03*
X0002179133Y0001031496D03*
X0002100393Y0001031496D03*
X0002021653Y0001031496D03*
X0002179133Y0000854330D03*
X0002100393Y0000854330D03*
X0002021653Y0000854330D03*
X0002179133Y0000775590D03*
X0002021653Y0000775590D03*
G04 next file*
G04 #@! TF.FileFunction,Soldermask,Top*
G04 Gerber Fmt 4.6, Leading zero omitted, Abs format (unit mm)*
G04 Created by KiCad (PCBNEW 4.0.4-1.fc24-product) date Fri Jan 12 11:53:18 2018*
G01G01*
G04 APERTURE LIST*
G04 APERTURE END LIST*
D98*
D99*
X-0005393700Y0006062992D02*
X0001094488Y0001523622D03*
X0001007873Y0001523622D03*
D100*
X0000133858Y0001330708D03*
D101*
X0000133858Y0001430708D03*
D102*
X0000326771Y0001698818D03*
X0000326771Y0001600393D03*
D103*
X0000275590Y0001830708D03*
X0000118110Y0001830708D03*
D102*
X0000326771Y0002061023D03*
X0000326771Y0001962598D03*
D104*
X0000206692Y0002070866D03*
X0000108267Y0002070866D03*
D103*
X0000925196Y0001401574D03*
X0001082677Y0001401574D03*
D99*
X0000101377Y0001591535D03*
X0000187992Y0001591535D03*
X0000101377Y0001705708D03*
X0000187992Y0001705708D03*
X0000102362Y0001956692D03*
X0000188976Y0001956692D03*
X0000547244Y0001814960D03*
X0000633858Y0001814960D03*
X0000188976Y0002291338D03*
X0000102362Y0002291338D03*
X0000102362Y0002185039D03*
X0000188976Y0002185039D03*
X0000377952Y0002287401D03*
X0000291338Y0002287401D03*
X0000937007Y0002283464D03*
X0001023622Y0002283464D03*
X0000937007Y0002177165D03*
X0001023622Y0002177165D03*
X0000937007Y0002070866D03*
X0001023622Y0002070866D03*
D105*
X0001017716Y0001946850D03*
X0000980314Y0001946850D03*
X0000942913Y0001946850D03*
X0000942913Y0001840551D03*
X0001017716Y0001840551D03*
D106*
X0000531496Y0001708858D03*
X0000531496Y0001658858D03*
X0000531496Y0001608858D03*
X0000531496Y0001558858D03*
X0000744094Y0001558858D03*
X0000744094Y0001608858D03*
X0000744094Y0001658858D03*
X0000744094Y0001708858D03*
D107*
X0000433070Y0001397637D03*
D108*
X0000511811Y0001397637D03*
X0000590551Y0001397637D03*
X0000669291Y0001397637D03*
X0000748031Y0001397637D03*
D109*
X0000688976Y0001929133D03*
X0000590551Y0001929133D03*
X0000492125Y0001929133D03*
X0000492125Y0002322834D03*
X0000590551Y0002322834D03*
X0000688976Y0002322834D03*
X0000492125Y0002224409D03*
X0000590551Y0002224409D03*
X0000688976Y0002224409D03*
X0000492125Y0002027559D03*
X0000590551Y0002027559D03*
X0000688976Y0002027559D03*
M02*