%MOIN*%
%OFA0B0*%
%FSLAX46Y46*%
%IPPOS*%
%LPD*%
%ADD10C,0.0039370078740157488*%
%ADD11R,0.062992125984251982X0.082677165354330714*%
%ADD12O,0.062992125984251982X0.082677165354330714*%
%ADD13R,0.074803149606299218X0.064960629921259838*%
%ADD14R,0.076748031496062991X0.086648031496063*%
%ADD15C,0.086614173228346469*%
%ADD26C,0.0039370078740157488*%
%ADD27R,0.035433070866141732X0.051181102362204731*%
%ADD28R,0.0452755905511811X0.047244094488188976*%
%ADD29R,0.051181102362204731X0.035433070866141732*%
%ADD30R,0.076771653543307089X0.03937007874015748*%
%ADD31C,0.086614173228346469*%
%ADD32R,0.062992125984251982X0.082677165354330714*%
%ADD33O,0.062992125984251982X0.082677165354330714*%
%ADD34O,0.094448031496063X0.094448031496063*%
%ADD35R,0.094448031496063X0.094448031496063*%
%ADD36C,0.0039370078740157488*%
%ADD37C,0.086614173228346469*%
%ADD38R,0.062992125984251982X0.082677165354330714*%
%ADD39O,0.062992125984251982X0.082677165354330714*%
%ADD40C,0.07874015748031496*%
%ADD41C,0.0039370078740157488*%
%ADD42R,0.062992125984251982X0.082677165354330714*%
%ADD43O,0.062992125984251982X0.082677165354330714*%
%ADD44R,0.082677165354330714X0.082677165354330714*%
%ADD45O,0.082677165354330714X0.082677165354330714*%
%ADD46C,0.086614173228346469*%
%ADD47C,0.0039370078740157488*%
%ADD48C,0.070866141732283464*%
%ADD49R,0.062992125984251982X0.082677165354330714*%
%ADD50O,0.062992125984251982X0.082677165354330714*%
%ADD51C,0.086614173228346469*%
%ADD52C,0.072440944881889777*%
%ADD53O,0.094448031496063X0.094448031496063*%
%ADD54R,0.094448031496063X0.094448031496063*%
%ADD55C,0.0039370078740157488*%
%ADD56R,0.062992125984251982X0.082677165354330714*%
%ADD57O,0.062992125984251982X0.082677165354330714*%
%ADD58O,0.094448031496063X0.094448031496063*%
%ADD59R,0.094448031496063X0.094448031496063*%
%ADD60R,0.051181102362204731X0.062992125984251982*%
%ADD61R,0.11414803149606301X0.086648031496063*%
%ADD62C,0.086614173228346469*%
%ADD63R,0.055118110236220472X0.064960629921259838*%
%ADD64R,0.11414803149606301X0.092548031496063*%
%ADD65R,0.082677165354330714X0.082677165354330714*%
%ADD66O,0.082677165354330714X0.082677165354330714*%
%ADD67C,0.0039370078740157488*%
%ADD68R,0.095748031496063X0.095748031496063*%
%ADD69O,0.095748031496063X0.095748031496063*%
G01G01*
D10*
D11*
X-0003779527Y0004842519D02*
X0001838582Y0001248031D03*
D12*
X0001917322Y0001248031D03*
X0001996062Y0001248031D03*
X0002074803Y0001248031D03*
X0002153543Y0001248031D03*
D11*
X0002334645Y0001248031D03*
D12*
X0002413385Y0001248031D03*
X0002492125Y0001248031D03*
X0002570866Y0001248031D03*
D13*
X0002007874Y0001417322D03*
X0001909448Y0001417322D03*
D14*
X0002329764Y0001417322D03*
X0002237164Y0001417322D03*
D15*
X0002352362Y0001976377D03*
X0002204724Y0001976377D03*
X0002057086Y0001976377D03*
X0002352362Y0001779527D03*
X0002204724Y0001779527D03*
X0002057086Y0001779527D03*
G04 next file*
G04 #@! TF.FileFunction,Soldermask,Bot*
G04 Gerber Fmt 4.6, Leading zero omitted, Abs format (unit mm)*
G04 Created by KiCad (PCBNEW 4.0.4-1.fc24-product) date Thu Mar  1 09:38:40 2018*
G01G01*
G04 APERTURE LIST*
G04 APERTURE END LIST*
D26*
D27*
X-0004921259Y0004094488D02*
X0000915354Y0000539370D03*
X0000856299Y0000539370D03*
D28*
X0000811023Y0000381889D03*
X0000811023Y0000440944D03*
D29*
X0000905511Y0000387795D03*
X0000905511Y0000446850D03*
D30*
X0000484251Y0000338385D03*
X0000484251Y0000388385D03*
X0000484251Y0000438385D03*
X0000484251Y0000488385D03*
X0000696850Y0000488385D03*
X0000696850Y0000438385D03*
X0000696850Y0000388385D03*
X0000696850Y0000338385D03*
D31*
X0001362204Y0000940944D03*
X0001214566Y0000940944D03*
X0001066929Y0000940944D03*
X0001362204Y0000744094D03*
X0001214566Y0000744094D03*
X0001066929Y0000744094D03*
X0001066929Y0000547244D03*
X0001214566Y0000547244D03*
X0001362204Y0000547244D03*
D32*
X0001212598Y0000125984D03*
D33*
X0001291338Y0000125984D03*
D32*
X0000704724Y0000125984D03*
D33*
X0000783464Y0000125984D03*
X0000862204Y0000125984D03*
X0000940944Y0000125984D03*
X0001019685Y0000125984D03*
D34*
X0000134056Y0000725439D03*
D35*
X0000134056Y0000625439D03*
D34*
X0000137795Y0000492125D03*
D35*
X0000137795Y0000292125D03*
D34*
X0000137795Y0000392125D03*
X0000133858Y0000950393D03*
D35*
X0000133858Y0000850393D03*
D34*
X0000137795Y0000162992D03*
D35*
X0000137795Y0000062992D03*
D27*
X0000797244Y0000708661D03*
X0000856299Y0000708661D03*
X0000797244Y0000610236D03*
X0000856299Y0000610236D03*
G04 next file*
G04 Gerber Fmt 4.6, Leading zero omitted, Abs format (unit mm)*
G04 Created by KiCad (PCBNEW 4.0.4-1.fc24-product) date Thu Mar  1 10:39:20 2018*
G01G01*
G04 APERTURE LIST*
G04 APERTURE END LIST*
D36*
D37*
X-0006496062Y0005748031D02*
X0000541338Y0001968503D03*
X0000393700Y0001968503D03*
X0000246062Y0001968503D03*
X0000541338Y0001771653D03*
X0000393700Y0001771653D03*
X0000246062Y0001771653D03*
X0000246062Y0001574803D03*
X0000393700Y0001574803D03*
X0000541338Y0001574803D03*
D38*
X0000275590Y0001220472D03*
D39*
X0000354330Y0001220472D03*
X0000433070Y0001220472D03*
X0000511811Y0001220472D03*
D40*
X0000066929Y0001925196D03*
X0000066929Y0001728346D03*
X0000724409Y0001192913D03*
X0000724409Y0001389763D03*
G04 next file*
G04 #@! TF.FileFunction,Soldermask,Bot*
G04 Gerber Fmt 4.6, Leading zero omitted, Abs format (unit mm)*
G04 Created by KiCad (PCBNEW 4.0.4-1.fc24-product) date Thu Mar  1 10:32:11 2018*
G01G01*
G04 APERTURE LIST*
G04 APERTURE END LIST*
D41*
D42*
X-0004566929Y0005118110D02*
X0001220472Y0001240157D03*
D43*
X0001299212Y0001240157D03*
D44*
X0001359842Y0001614173D03*
D45*
X0001259842Y0001614173D03*
X0001159842Y0001614173D03*
D44*
X0001359842Y0001476377D03*
D45*
X0001259842Y0001476377D03*
X0001159842Y0001476377D03*
D46*
X0001358267Y0001889763D03*
X0001259842Y0001889763D03*
X0001161417Y0001889763D03*
X0001358267Y0001791338D03*
X0001259842Y0001791338D03*
X0001161417Y0001791338D03*
G04 next file*
G04 #@! TF.FileFunction,Soldermask,Bot*
G04 Gerber Fmt 4.6, Leading zero omitted, Abs format (unit mm)*
G04 Created by KiCad (PCBNEW 4.0.4-1.fc24-product) date Thu Mar  1 09:37:53 2018*
G01G01*
G04 APERTURE LIST*
G04 APERTURE END LIST*
D47*
D48*
X-0005236220Y0006299212D02*
X0000177165Y0003129921D03*
X0000177165Y0003031496D03*
X0000389763Y0003129921D03*
X0000389763Y0003031496D03*
D49*
X0000196850Y0002307086D03*
D50*
X0000275590Y0002307086D03*
X0000354330Y0002307086D03*
X0000433070Y0002307086D03*
D51*
X0000078740Y0002844488D03*
X0000078740Y0002696850D03*
X0000078740Y0002549212D03*
X0000275590Y0002844488D03*
X0000275590Y0002696850D03*
X0000275590Y0002549212D03*
D52*
X0000992125Y0002830708D03*
X0000892125Y0002830708D03*
X0000792125Y0002830708D03*
D53*
X0000691338Y0002346456D03*
D54*
X0000791338Y0002346456D03*
D53*
X0000921259Y0002346456D03*
D54*
X0001021259Y0002346456D03*
D49*
X0000767716Y0003057086D03*
D50*
X0000846456Y0003057086D03*
X0000925196Y0003057086D03*
X0001003937Y0003057086D03*
G04 next file*
G04 #@! TF.FileFunction,Soldermask,Bot*
G04 Gerber Fmt 4.6, Leading zero omitted, Abs format (unit mm)*
G04 Created by KiCad (PCBNEW 4.0.4-1.fc24-product) date Thu Mar  1 09:36:58 2018*
G01G01*
G04 APERTURE LIST*
G04 APERTURE END LIST*
D55*
D56*
X-0004763779Y0005984251D02*
X0002181102Y0003098425D03*
D57*
X0002102362Y0003098425D03*
X0002023622Y0003098425D03*
X0001944881Y0003098425D03*
D58*
X0001968503Y0002334645D03*
D59*
X0001768503Y0002334645D03*
D58*
X0001868503Y0002334645D03*
X0002202362Y0002334645D03*
D59*
X0002102362Y0002334645D03*
D56*
X0001763779Y0003098425D03*
D57*
X0001685039Y0003098425D03*
D60*
X0002204724Y0002688976D03*
X0002204724Y0002775590D03*
X0002110236Y0002775590D03*
X0002110236Y0002688976D03*
D61*
X0002177125Y0002547244D03*
X0002019725Y0002547244D03*
D56*
X0001503936Y0003098425D03*
D57*
X0001425196Y0003098425D03*
X0001346456Y0003098425D03*
D62*
X0001259842Y0002840551D03*
X0001259842Y0002692913D03*
X0001259842Y0002545275D03*
X0001456692Y0002840551D03*
X0001456692Y0002692913D03*
X0001456692Y0002545275D03*
D63*
X0001807086Y0002771653D03*
X0001728346Y0002771653D03*
D64*
X0001964566Y0002804094D03*
X0001964566Y0002684094D03*
D65*
X0001356692Y0002324803D03*
D66*
X0001456692Y0002324803D03*
X0001556692Y0002324803D03*
G04 next file*
G04 #@! TF.FileFunction,Soldermask,Bot*
G04 Gerber Fmt 4.6, Leading zero omitted, Abs format (unit mm)*
G04 Created by KiCad (PCBNEW 4.0.4-1.fc24-product) date Thu Mar  1 10:42:45 2018*
G01G01*
G04 APERTURE LIST*
G04 APERTURE END LIST*
D67*
D68*
X-0005354330Y0003779527D02*
X0002629921Y0000807086D03*
D69*
X0002629921Y0000907086D03*
D68*
X0002625984Y0000259842D03*
D69*
X0002625984Y0000159842D03*
M02*