%
M48
METRIC,000.000
T01C0.40
T02C0.75
T03C1.00
T10C1.10
T11C0.80
T12C0.70
T13C1.02
%
T01
X049500Y037400
X057400Y038900
X057900Y034000
X060000Y037700
X063099Y040400
X065199Y043200
X008199Y009150
X011000Y012400
X012300Y014799
X012500Y020599
X014900Y023400
X014900Y017950
X017699Y007650
X003000Y079200
X009963Y068264
X010400Y069700
X013580Y073920
X019000Y063900
X040599Y066400
X042800Y071700
X046000Y068500
X046349Y076600
X047220Y067300
X051500Y075000
X054099Y075000
X056000Y062860
X057360Y070400
T02
X046699Y031700
X048699Y031700
X050699Y031700
X052699Y031700
X054699Y031700
X059300Y031700
X061300Y031700
X063300Y031700
X065300Y031700
X017900Y003200
X019900Y003200
X021900Y003200
X023900Y003200
X025900Y003200
X030800Y003200
X032800Y003200
X007000Y031000
X009000Y031000
X011000Y031000
X013000Y031000
X031000Y031500
X033000Y031500
X005000Y058599
X007000Y058599
X009000Y058599
X011000Y058599
X019500Y077650
X021500Y077650
X023500Y077650
X025500Y077650
X034199Y078700
X036199Y078700
X038199Y078700
X042800Y078700
X044800Y078700
X049400Y078700
X051400Y078700
X053400Y078700
X055400Y078700
T03
X052250Y050200
X052250Y045200
X056000Y050200
X056000Y045200
X059750Y050200
X059750Y045200
X027099Y023900
X027099Y018900
X027099Y013900
X030849Y023900
X030849Y018900
X030849Y013900
X034599Y023900
X034599Y018900
X034599Y013900
X006250Y050000
X006250Y045000
X006250Y040000
X010000Y050000
X010000Y045000
X010000Y040000
X013750Y050000
X013750Y045000
X013750Y040000
X029460Y041000
X029460Y037500
X029500Y048000
X029500Y045500
X032000Y048000
X032000Y045500
X032000Y041000
X032000Y037500
X034500Y048000
X034500Y045500
X034539Y041000
X034539Y037500
X002000Y072250
X002000Y068500
X002000Y064750
X007000Y072250
X007000Y068500
X007000Y064750
X032000Y072150
X032000Y068400
X032000Y064650
X034460Y059050
X037000Y072150
X037000Y068400
X037000Y064650
X037000Y059050
X039539Y059050
T10
X003400Y024140
X003400Y021599
X003405Y018426
X003405Y015885
X003500Y012500
X003500Y009959
X003500Y007420
X003500Y004140
X003500Y001599
X017560Y059599
X020099Y059599
X023400Y059599
X025939Y059599
X044919Y059300
X047460Y059300
X050000Y059300
X053400Y059300
X055940Y059300
T11
X001699Y048900
X001699Y043900
X018400Y035300
X018400Y030299
X020120Y071900
X022659Y071900
X025199Y071900
T12
X004500Y079500
X004500Y077000
X009900Y079500
X009900Y077000
T13
X066699Y006599
X066699Y004059
X066800Y023040
X066800Y020500
M30