%MOIN*%
%OFA0B0*%
%FSLAX46Y46*%
%IPPOS*%
%LPD*%
%ADD10C,0.0039370078740157488*%
%ADD11R,0.051181102362204731X0.062992125984251982*%
%ADD12C,0.086614173228346469*%
%ADD13R,0.07716535433070866X0.041338582677165357*%
%ADD14R,0.064960629921259838X0.074803149606299218*%
%ADD15R,0.074803149606299218X0.074803149606299218*%
%ADD16C,0.074803149606299218*%
%ADD27C,0.0039370078740157488*%
%ADD28R,0.062992125984251982X0.051181102362204731*%
%ADD29O,0.094448031496063X0.094448031496063*%
%ADD30R,0.094448031496063X0.094448031496063*%
%ADD31C,0.086614173228346469*%
%ADD32R,0.07716535433070866X0.041338582677165357*%
%ADD33R,0.07874015748031496X0.094488188976377951*%
%ADD34R,0.047244094488188976X0.086614173228346469*%
%ADD35R,0.051181102362204731X0.062992125984251982*%
%ADD36R,0.063779527559055124X0.0515748031496063*%
%ADD37R,0.1141732283464567X0.094488188976377951*%
%ADD38R,0.074803149606299218X0.074803149606299218*%
%ADD39C,0.074803149606299218*%
%ADD40C,0.0039370078740157488*%
%ADD41R,0.062992125984251982X0.051181102362204731*%
%ADD42C,0.086614173228346469*%
%ADD43R,0.074803149606299218X0.074803149606299218*%
%ADD44C,0.074803149606299218*%
%ADD45O,0.094448031496063X0.094448031496063*%
%ADD46R,0.094448031496063X0.094448031496063*%
%ADD47R,0.064960629921259838X0.074803149606299218*%
%ADD48R,0.094488188976377951X0.07874015748031496*%
%ADD49R,0.074803149606299218X0.064960629921259838*%
%ADD50R,0.041338582677165357X0.07716535433070866*%
%ADD51R,0.076771653543307089X0.03937007874015748*%
%ADD52C,0.0039370078740157488*%
%ADD53R,0.062992125984251982X0.051181102362204731*%
%ADD54C,0.086614173228346469*%
%ADD55R,0.074803149606299218X0.074803149606299218*%
%ADD56C,0.074803149606299218*%
%ADD57O,0.094448031496063X0.094448031496063*%
%ADD58R,0.094448031496063X0.094448031496063*%
%ADD59R,0.064960629921259838X0.074803149606299218*%
%ADD60R,0.094488188976377951X0.07874015748031496*%
%ADD61R,0.074803149606299218X0.064960629921259838*%
%ADD62R,0.041338582677165357X0.07716535433070866*%
%ADD63R,0.076771653543307089X0.03937007874015748*%
%ADD64C,0.0039370078740157488*%
%ADD65R,0.074803149606299218X0.064960629921259838*%
%ADD66R,0.074803149606299218X0.074803149606299218*%
%ADD67C,0.074803149606299218*%
%ADD68R,0.062992125984251982X0.051181102362204731*%
%ADD69R,0.03937007874015748X0.076771653543307089*%
%ADD70C,0.086614173228346469*%
%ADD71C,0.0039370078740157488*%
%ADD72C,0.086614173228346469*%
%ADD73R,0.074803149606299218X0.074803149606299218*%
%ADD74C,0.074803149606299218*%
%ADD75R,0.094488188976377951X0.07874015748031496*%
%ADD76R,0.074803149606299218X0.064960629921259838*%
%ADD77R,0.062992125984251982X0.051181102362204731*%
%ADD78R,0.041338582677165357X0.07716535433070866*%
%ADD79C,0.0039370078740157488*%
%ADD80C,0.086614173228346469*%
%ADD81R,0.074803149606299218X0.074803149606299218*%
%ADD82C,0.074803149606299218*%
%ADD83R,0.094488188976377951X0.07874015748031496*%
%ADD84R,0.0452755905511811X0.062992125984251982*%
%ADD85R,0.064960629921259838X0.074803149606299218*%
%ADD86R,0.07874015748031496X0.094488188976377951*%
%ADD87R,0.074803149606299218X0.064960629921259838*%
%ADD88R,0.062992125984251982X0.0452755905511811*%
%ADD89R,0.076771653543307089X0.03937007874015748*%
%ADD90R,0.062992125984251982X0.051181102362204731*%
%ADD91R,0.0515748031496063X0.063779527559055124*%
%ADD92O,0.094448031496063X0.094448031496063*%
%ADD93R,0.094448031496063X0.094448031496063*%
%ADD94C,0.0039370078740157488*%
%ADD95O,0.094448031496063X0.094448031496063*%
%ADD96R,0.094448031496063X0.094448031496063*%
%ADD97R,0.064960629921259838X0.074803149606299218*%
%ADD98R,0.094488188976377951X0.07874015748031496*%
%ADD99R,0.074803149606299218X0.064960629921259838*%
%ADD100R,0.0515748031496063X0.063779527559055124*%
%ADD101R,0.076771653543307089X0.03937007874015748*%
%ADD102R,0.068897637795275593X0.068897637795275593*%
%ADD103C,0.068897637795275593*%
%ADD104R,0.062992125984251982X0.051181102362204731*%
%ADD105R,0.074803149606299218X0.074803149606299218*%
%ADD106C,0.074803149606299218*%
%ADD107R,0.062992125984251982X0.0452755905511811*%
%ADD108R,0.051181102362204731X0.062992125984251982*%
%ADD109C,0.070866141732283464*%
G01G01*
D10*
D11*
X-0005433070Y0006377952D02*
X0002192913Y0003421259D03*
X0002192913Y0003507874D03*
D12*
X0001994094Y0003629921D03*
X0001850393Y0003629921D03*
X0001706692Y0003629921D03*
X0001994094Y0003433070D03*
X0001850393Y0003433070D03*
X0001706692Y0003433070D03*
D13*
X0001797244Y0003068897D03*
X0001797244Y0003031496D03*
X0001797244Y0002994094D03*
X0001903543Y0002994094D03*
X0001903543Y0003068897D03*
D14*
X0001496062Y0003257874D03*
X0001496062Y0003159448D03*
X0002145669Y0003001968D03*
X0002145669Y0002903543D03*
X0001496062Y0003513779D03*
X0001496062Y0003415354D03*
D11*
X0002322834Y0003507874D03*
X0002322834Y0003421259D03*
X0001370078Y0003507874D03*
X0001370078Y0003421259D03*
X0001370078Y0003165354D03*
X0001370078Y0003251968D03*
X0002192913Y0003161417D03*
X0002192913Y0003248031D03*
X0002283464Y0002909448D03*
X0002283464Y0002996062D03*
D15*
X0001677165Y0002633858D03*
D16*
X0001755905Y0002633858D03*
X0001834645Y0002633858D03*
X0001913385Y0002633858D03*
X0001992125Y0002633858D03*
G04 next file*
G04 Gerber Fmt 4.6, Leading zero omitted, Abs format (unit mm)*
G04 Created by KiCad (PCBNEW 4.0.4-1.fc24-product) date Thu Jan 11 10:53:59 2018*
G01G01*
G04 APERTURE LIST*
G04 APERTURE END LIST*
D27*
D28*
X-0005354330Y0006377952D02*
X0000889763Y0002811023D03*
X0000803149Y0002811023D03*
X0001086614Y0002874015D03*
X0001000000Y0002874015D03*
D29*
X0000087007Y0002667322D03*
D30*
X0000187007Y0002667322D03*
D29*
X0000994094Y0002667322D03*
D30*
X0001094094Y0002667322D03*
D31*
X0000688976Y0003622047D03*
X0000590551Y0003622047D03*
X0000492125Y0003622047D03*
X0000688976Y0003523622D03*
X0000590551Y0003523622D03*
X0000492125Y0003523622D03*
D32*
X0000537401Y0002990157D03*
X0000537401Y0002952755D03*
X0000537401Y0002915354D03*
X0000643700Y0002915354D03*
X0000643700Y0002990157D03*
D33*
X0000476377Y0003173228D03*
X0000476377Y0003330708D03*
X0000696850Y0003173228D03*
X0000696850Y0003330708D03*
D34*
X0000179133Y0003490157D03*
X0000104330Y0003490157D03*
X0000141732Y0003360236D03*
X0001076771Y0003490157D03*
X0001001968Y0003490157D03*
X0001039370Y0003360236D03*
D28*
X0000104330Y0002883858D03*
X0000190944Y0002883858D03*
D35*
X0000232283Y0003236220D03*
X0000232283Y0003149606D03*
X0000964566Y0003232283D03*
X0000964566Y0003145669D03*
X0000322834Y0003374015D03*
X0000322834Y0003460629D03*
X0000854330Y0003374015D03*
X0000854330Y0003460629D03*
D28*
X0000366141Y0003594488D03*
X0000279527Y0003594488D03*
X0000897637Y0003594488D03*
X0000811023Y0003594488D03*
D35*
X0000374015Y0002901574D03*
X0000374015Y0002988188D03*
X0000807086Y0002901574D03*
X0000807086Y0002988188D03*
D28*
X0000547244Y0002811023D03*
X0000633858Y0002811023D03*
D36*
X0000322834Y0003245472D03*
X0000322834Y0003116732D03*
X0000862204Y0003241535D03*
X0000862204Y0003112795D03*
D37*
X0000114173Y0003204724D03*
X0000114173Y0003047244D03*
X0001086614Y0003196850D03*
X0001086614Y0003039370D03*
D38*
X0000433070Y0002625984D03*
D39*
X0000511811Y0002625984D03*
X0000590551Y0002625984D03*
X0000669291Y0002625984D03*
X0000748031Y0002625984D03*
G04 next file*
G04 #@! TF.FileFunction,Soldermask,Top*
G04 Gerber Fmt 4.6, Leading zero omitted, Abs format (unit mm)*
G04 Created by KiCad (PCBNEW 4.0.4-1.fc24-product) date Thu Jan 11 10:50:09 2018*
G01G01*
G04 APERTURE LIST*
G04 APERTURE END LIST*
D40*
D41*
X-0004133858Y0006062992D02*
X0002354330Y0001523622D03*
X0002267716Y0001523622D03*
D42*
X0001946850Y0001929133D03*
X0001848425Y0001929133D03*
X0001749999Y0001929133D03*
X0001749999Y0002322834D03*
X0001848425Y0002322834D03*
X0001946850Y0002322834D03*
X0001749999Y0002224409D03*
X0001848425Y0002224409D03*
X0001946850Y0002224409D03*
X0001749999Y0002027559D03*
X0001848425Y0002027559D03*
X0001946850Y0002027559D03*
D43*
X0001692913Y0001397637D03*
D44*
X0001771653Y0001397637D03*
X0001850393Y0001397637D03*
X0001929133Y0001397637D03*
X0002007874Y0001397637D03*
D45*
X0001393700Y0001330708D03*
D46*
X0001393700Y0001430708D03*
D47*
X0001586614Y0001698818D03*
X0001586614Y0001600393D03*
D48*
X0001535433Y0001830708D03*
X0001377952Y0001830708D03*
D47*
X0001586614Y0002061023D03*
X0001586614Y0001962598D03*
D49*
X0001466535Y0002070866D03*
X0001368110Y0002070866D03*
D48*
X0002185039Y0001401574D03*
X0002342519Y0001401574D03*
D41*
X0001361220Y0001591535D03*
X0001447834Y0001591535D03*
X0001361220Y0001705708D03*
X0001447834Y0001705708D03*
X0001362204Y0001956692D03*
X0001448818Y0001956692D03*
X0001807086Y0001814960D03*
X0001893700Y0001814960D03*
X0001448818Y0002291338D03*
X0001362204Y0002291338D03*
X0001362204Y0002185039D03*
X0001448818Y0002185039D03*
X0001637795Y0002287401D03*
X0001551181Y0002287401D03*
X0002196850Y0002283464D03*
X0002283464Y0002283464D03*
X0002196850Y0002177165D03*
X0002283464Y0002177165D03*
X0002196850Y0002070866D03*
X0002283464Y0002070866D03*
D50*
X0002277559Y0001946850D03*
X0002240157Y0001946850D03*
X0002202755Y0001946850D03*
X0002202755Y0001840551D03*
X0002277559Y0001840551D03*
D51*
X0001791338Y0001708858D03*
X0001791338Y0001658858D03*
X0001791338Y0001608858D03*
X0001791338Y0001558858D03*
X0002003937Y0001558858D03*
X0002003937Y0001608858D03*
X0002003937Y0001658858D03*
X0002003937Y0001708858D03*
G04 next file*
G04 #@! TF.FileFunction,Soldermask,Top*
G04 Gerber Fmt 4.6, Leading zero omitted, Abs format (unit mm)*
G04 Created by KiCad (PCBNEW 4.0.4-1.fc24-product) date Thu Jan 11 10:50:09 2018*
G01G01*
G04 APERTURE LIST*
G04 APERTURE END LIST*
D52*
D53*
X-0002874015Y0006062992D02*
X0003614173Y0001523622D03*
X0003527559Y0001523622D03*
D54*
X0003206692Y0001929133D03*
X0003108267Y0001929133D03*
X0003009842Y0001929133D03*
X0003009842Y0002322834D03*
X0003108267Y0002322834D03*
X0003206692Y0002322834D03*
X0003009842Y0002224409D03*
X0003108267Y0002224409D03*
X0003206692Y0002224409D03*
X0003009842Y0002027559D03*
X0003108267Y0002027559D03*
X0003206692Y0002027559D03*
D55*
X0002952755Y0001397637D03*
D56*
X0003031496Y0001397637D03*
X0003110236Y0001397637D03*
X0003188976Y0001397637D03*
X0003267716Y0001397637D03*
D57*
X0002653543Y0001330708D03*
D58*
X0002653543Y0001430708D03*
D59*
X0002846456Y0001698818D03*
X0002846456Y0001600393D03*
D60*
X0002795275Y0001830708D03*
X0002637795Y0001830708D03*
D59*
X0002846456Y0002061023D03*
X0002846456Y0001962598D03*
D61*
X0002726377Y0002070866D03*
X0002627952Y0002070866D03*
D60*
X0003444881Y0001401574D03*
X0003602362Y0001401574D03*
D53*
X0002621062Y0001591535D03*
X0002707677Y0001591535D03*
X0002621062Y0001705708D03*
X0002707677Y0001705708D03*
X0002622047Y0001956692D03*
X0002708661Y0001956692D03*
X0003066929Y0001814960D03*
X0003153543Y0001814960D03*
X0002708661Y0002291338D03*
X0002622047Y0002291338D03*
X0002622047Y0002185039D03*
X0002708661Y0002185039D03*
X0002897637Y0002287401D03*
X0002811023Y0002287401D03*
X0003456692Y0002283464D03*
X0003543307Y0002283464D03*
X0003456692Y0002177165D03*
X0003543307Y0002177165D03*
X0003456692Y0002070866D03*
X0003543307Y0002070866D03*
D62*
X0003537401Y0001946850D03*
X0003500000Y0001946850D03*
X0003462598Y0001946850D03*
X0003462598Y0001840551D03*
X0003537401Y0001840551D03*
D63*
X0003051181Y0001708858D03*
X0003051181Y0001658858D03*
X0003051181Y0001608858D03*
X0003051181Y0001558858D03*
X0003263779Y0001558858D03*
X0003263779Y0001608858D03*
X0003263779Y0001658858D03*
X0003263779Y0001708858D03*
G04 next file*
G04 #@! TF.FileFunction,Soldermask,Top*
G04 Gerber Fmt 4.6, Leading zero omitted, Abs format (unit mm)*
G04 Created by KiCad (PCBNEW 4.0.4-1.fc24-product) date Thu Jan 11 10:49:16 2018*
G01G01*
G04 APERTURE LIST*
G04 APERTURE END LIST*
D64*
D65*
X-0005511811Y0004409448D02*
X0000190944Y0002011811D03*
X0000289370Y0002011811D03*
X0000966535Y0001870078D03*
X0000868110Y0001870078D03*
D66*
X0000433070Y0001421259D03*
D67*
X0000511811Y0001421259D03*
X0000590551Y0001421259D03*
X0000669291Y0001421259D03*
X0000748031Y0001421259D03*
D68*
X0000196850Y0001559055D03*
X0000283464Y0001559055D03*
X0000283464Y0001429133D03*
X0000196850Y0001429133D03*
X0000200787Y0001755905D03*
X0000287401Y0001755905D03*
X0000200787Y0001870078D03*
X0000287401Y0001870078D03*
X0000956692Y0001755905D03*
X0000870078Y0001755905D03*
X0000956692Y0001649606D03*
X0000870078Y0001649606D03*
D69*
X0000669488Y0001881889D03*
X0000619488Y0001881889D03*
X0000569488Y0001881889D03*
X0000519488Y0001881889D03*
X0000519488Y0001669291D03*
X0000569488Y0001669291D03*
X0000619488Y0001669291D03*
X0000669488Y0001669291D03*
D70*
X0000492125Y0002322834D03*
X0000590551Y0002322834D03*
X0000688976Y0002322834D03*
X0000492125Y0002125984D03*
X0000590551Y0002125984D03*
X0000688976Y0002125984D03*
G04 next file*
G04 Gerber Fmt 4.6, Leading zero omitted, Abs format (unit mm)*
G04 Created by KiCad (PCBNEW 4.0.4-1.fc24-product) date Thu Jan 11 10:52:46 2018*
G01G01*
G04 APERTURE LIST*
G04 APERTURE END LIST*
D71*
D72*
X-0003149606Y0006220472D02*
X0003564960Y0003629921D03*
X0003421259Y0003629921D03*
X0003277559Y0003629921D03*
X0003564960Y0003433070D03*
X0003421259Y0003433070D03*
X0003277559Y0003433070D03*
X0003277559Y0003236220D03*
X0003421259Y0003236220D03*
X0003564960Y0003236220D03*
D73*
X0002952755Y0002633858D03*
D74*
X0003031496Y0002633858D03*
X0003110236Y0002633858D03*
X0003188976Y0002633858D03*
X0003267716Y0002633858D03*
D75*
X0003082677Y0003602362D03*
X0002925196Y0003602362D03*
D76*
X0003356299Y0002874015D03*
X0003257874Y0002874015D03*
D77*
X0002964566Y0003425196D03*
X0003051181Y0003425196D03*
X0003051181Y0003267716D03*
X0002964566Y0003267716D03*
X0003625984Y0002874015D03*
X0003539370Y0002874015D03*
X0003051181Y0003110236D03*
X0002964566Y0003110236D03*
X0002964566Y0002874015D03*
X0003051181Y0002874015D03*
D78*
X0002734251Y0003446850D03*
X0002696850Y0003446850D03*
X0002659448Y0003446850D03*
X0002659448Y0003340551D03*
X0002734251Y0003340551D03*
G04 next file*
G04 Gerber Fmt 4.6, Leading zero omitted, Abs format (unit mm)*
G04 Created by KiCad (PCBNEW 4.0.4-1.fc24-product) date Thu Jan 11 12:08:34 2018*
G01G01*
G04 APERTURE LIST*
G04 APERTURE END LIST*
D79*
D80*
X-0003543307Y0003149606D02*
X0003488188Y0001102362D03*
X0003586614Y0001102362D03*
X0003685039Y0001102362D03*
D81*
X0002637795Y0000137795D03*
D82*
X0002637795Y0000216535D03*
X0002637795Y0000295275D03*
X0002637795Y0000374015D03*
X0002637795Y0000452755D03*
D81*
X0002952755Y0000137795D03*
D82*
X0002952755Y0000216535D03*
X0002952755Y0000295275D03*
X0002952755Y0000374015D03*
X0002952755Y0000452755D03*
D83*
X0003610236Y0000803149D03*
X0003452755Y0000803149D03*
D84*
X0002519685Y0000895669D03*
X0002519685Y0000820866D03*
D85*
X0002519685Y0000986220D03*
X0002519685Y0001084645D03*
D84*
X0002972440Y0000891732D03*
X0002972440Y0000816929D03*
D86*
X0003082677Y0000929133D03*
X0003082677Y0000771653D03*
D87*
X0002639763Y0000696850D03*
X0002738188Y0000696850D03*
D84*
X0002519685Y0000694881D03*
X0002519685Y0000620078D03*
D87*
X0003084645Y0001086614D03*
X0002986220Y0001086614D03*
D88*
X0003194881Y0001086614D03*
X0003269685Y0001086614D03*
D89*
X0002645669Y0000972637D03*
X0002645669Y0000922637D03*
X0002645669Y0000872637D03*
X0002645669Y0000822637D03*
X0002858267Y0000822637D03*
X0002858267Y0000872637D03*
X0002858267Y0000922637D03*
X0002858267Y0000972637D03*
D87*
X0003210629Y0000944881D03*
X0003309055Y0000944881D03*
X0002958661Y0000696850D03*
X0002860236Y0000696850D03*
X0003214566Y0000692913D03*
X0003312992Y0000692913D03*
D90*
X0003456692Y0000921259D03*
X0003543307Y0000921259D03*
X0003637795Y0000921259D03*
X0003724409Y0000921259D03*
D91*
X0003195472Y0000818897D03*
X0003324212Y0000818897D03*
D87*
X0002698818Y0001086614D03*
X0002797244Y0001086614D03*
D81*
X0003267716Y0000137795D03*
D82*
X0003267716Y0000216535D03*
X0003267716Y0000295275D03*
X0003267716Y0000374015D03*
X0003267716Y0000452755D03*
D92*
X0003633858Y0000091338D03*
D93*
X0003633858Y0000291338D03*
D92*
X0003633858Y0000191338D03*
X0003633858Y0000431496D03*
D93*
X0003633858Y0000531496D03*
G04 next file*
G04 #@! TF.FileFunction,Soldermask,Top*
G04 Gerber Fmt 4.6, Leading zero omitted, Abs format (unit mm)*
G04 Created by KiCad (PCBNEW 4.0.4-1.fc24-product) date Thu Jan 11 10:47:53 2018*
G01G01*
G04 APERTURE LIST*
G04 APERTURE END LIST*
D94*
D95*
X-0004685039Y0004370078D02*
X0002091338Y0000137795D03*
D96*
X0002291338Y0000137795D03*
D95*
X0002191338Y0000137795D03*
D97*
X0000389763Y0000974409D03*
X0000389763Y0001072834D03*
D98*
X0001350393Y0000665354D03*
X0001507874Y0000665354D03*
D99*
X0000801181Y0000944881D03*
X0000899606Y0000944881D03*
D97*
X0000275590Y0000974409D03*
X0000275590Y0001072834D03*
D99*
X0000801181Y0001070866D03*
X0000899606Y0001070866D03*
D97*
X0000161417Y0001072834D03*
X0000161417Y0000974409D03*
D99*
X0000163385Y0000811023D03*
X0000261811Y0000811023D03*
X0001781496Y0000976377D03*
X0001683070Y0000976377D03*
D100*
X0000914763Y0000807086D03*
X0000786023Y0000807086D03*
D101*
X0000622047Y0000665157D03*
X0000622047Y0000715157D03*
X0000622047Y0000765157D03*
X0000622047Y0000815157D03*
X0000409448Y0000815157D03*
X0000409448Y0000765157D03*
X0000409448Y0000715157D03*
X0000409448Y0000665157D03*
D99*
X0000537401Y0001070866D03*
X0000635826Y0001070866D03*
X0000537401Y0000944881D03*
X0000635826Y0000944881D03*
X0000261811Y0000673228D03*
X0000163385Y0000673228D03*
D95*
X0001844881Y0000137795D03*
D96*
X0001944881Y0000137795D03*
D102*
X0001511811Y0000216535D03*
D103*
X0001433070Y0000216535D03*
X0001511811Y0000295275D03*
X0001433070Y0000295275D03*
D104*
X0001165354Y0000665354D03*
X0001078740Y0000665354D03*
X0001165354Y0000767716D03*
X0001078740Y0000767716D03*
X0001078740Y0000870078D03*
X0001165354Y0000870078D03*
X0001681102Y0000665354D03*
X0001767716Y0000665354D03*
X0001681102Y0000562992D03*
X0001767716Y0000562992D03*
X0001472440Y0001078740D03*
X0001385826Y0001078740D03*
X0001681102Y0000767716D03*
X0001767716Y0000767716D03*
X0001771653Y0001082677D03*
X0001685039Y0001082677D03*
D101*
X0001322834Y0000956889D03*
X0001322834Y0000906889D03*
X0001322834Y0000856889D03*
X0001322834Y0000806889D03*
X0001535433Y0000806889D03*
X0001535433Y0000856889D03*
X0001535433Y0000906889D03*
X0001535433Y0000956889D03*
D105*
X0000984251Y0000133858D03*
D106*
X0000984251Y0000212598D03*
X0000984251Y0000291338D03*
X0000984251Y0000370078D03*
X0000984251Y0000448818D03*
D105*
X0000590551Y0000133858D03*
D106*
X0000590551Y0000212598D03*
X0000590551Y0000291338D03*
X0000590551Y0000370078D03*
X0000590551Y0000448818D03*
D105*
X0000196850Y0000133858D03*
D106*
X0000196850Y0000212598D03*
X0000196850Y0000291338D03*
X0000196850Y0000370078D03*
X0000196850Y0000448818D03*
D107*
X0001683070Y0000870078D03*
X0001757874Y0000870078D03*
D99*
X0000899606Y0000665354D03*
X0000801181Y0000665354D03*
D108*
X0001885826Y0000877952D03*
X0001885826Y0000964566D03*
D109*
X0002021653Y0001110236D03*
X0002100393Y0001110236D03*
X0002179133Y0000578740D03*
X0002179133Y0001110236D03*
X0002100393Y0000775590D03*
X0002021653Y0000578740D03*
X0002179133Y0001031496D03*
X0002100393Y0001031496D03*
X0002021653Y0001031496D03*
X0002179133Y0000854330D03*
X0002100393Y0000854330D03*
X0002021653Y0000854330D03*
X0002179133Y0000775590D03*
X0002021653Y0000775590D03*
M02*