%MOIN*%
%OFA0B0*%
%FSLAX46Y46*%
%IPPOS*%
%LPD*%
%ADD10C,0.0039370078740157488*%
%ADD11O,0.094448031496063X0.094448031496063*%
%ADD12R,0.094448031496063X0.094448031496063*%
%ADD13C,0.086614173228346469*%
%ADD14R,0.139748031496063X0.086648031496063*%
%ADD15R,0.094488188976377951X0.07874015748031496*%
%ADD16R,0.074803149606299218X0.074803149606299218*%
%ADD17C,0.074803149606299218*%
%ADD28C,0.0039370078740157488*%
%ADD29C,0.086614173228346469*%
%ADD30O,0.094448031496063X0.094448031496063*%
%ADD31R,0.094448031496063X0.094448031496063*%
%ADD32R,0.062992125984251982X0.051181102362204731*%
%ADD33R,0.074803149606299218X0.064960629921259838*%
%ADD34R,0.074803149606299218X0.074803149606299218*%
%ADD35C,0.074803149606299218*%
%ADD46C,0.0039370078740157488*%
%ADD47R,0.094488188976377951X0.07874015748031496*%
%ADD48R,0.074803149606299218X0.074803149606299218*%
%ADD49C,0.074803149606299218*%
%ADD50C,0.086614173228346469*%
%ADD61C,0.0039370078740157488*%
%ADD62C,0.086614173228346469*%
%ADD63R,0.094488188976377951X0.07874015748031496*%
%ADD64R,0.074803149606299218X0.074803149606299218*%
%ADD65C,0.074803149606299218*%
%ADD76C,0.0039370078740157488*%
%ADD77C,0.086614173228346469*%
%ADD78O,0.094448031496063X0.094448031496063*%
%ADD79R,0.094448031496063X0.094448031496063*%
%ADD80R,0.074803149606299218X0.074803149606299218*%
%ADD81C,0.074803149606299218*%
%ADD92C,0.0039370078740157488*%
%ADD93O,0.094448031496063X0.094448031496063*%
%ADD94R,0.094448031496063X0.094448031496063*%
%ADD95R,0.068897637795275593X0.068897637795275593*%
%ADD96C,0.068897637795275593*%
%ADD97R,0.074803149606299218X0.074803149606299218*%
%ADD98C,0.074803149606299218*%
%ADD99R,0.062992125984251982X0.051181102362204731*%
%ADD100C,0.070866141732283464*%
%ADD111C,0.0039370078740157488*%
%ADD112C,0.086614173228346469*%
%ADD113R,0.139748031496063X0.086648031496063*%
%ADD114R,0.074803149606299218X0.074803149606299218*%
%ADD115C,0.074803149606299218*%
%ADD126C,0.0039370078740157488*%
%ADD127C,0.086614173228346469*%
%ADD128O,0.094448031496063X0.094448031496063*%
%ADD129R,0.094448031496063X0.094448031496063*%
%ADD130R,0.062992125984251982X0.051181102362204731*%
%ADD131R,0.074803149606299218X0.064960629921259838*%
%ADD132R,0.074803149606299218X0.074803149606299218*%
%ADD133C,0.074803149606299218*%
%LPD*%
G01*
D10*
D11*
X-0005354330Y0005118110D02*
X0000182677Y0001405511D03*
D12*
X0000082677Y0001405511D03*
D11*
X0001096062Y0001405511D03*
D12*
X0000996062Y0001405511D03*
D13*
X0000688976Y0002362204D03*
X0000590551Y0002362204D03*
X0000492125Y0002362204D03*
X0000688976Y0002263779D03*
X0000590551Y0002263779D03*
X0000492125Y0002263779D03*
D14*
X0000506851Y0001803149D03*
X0000674251Y0001803149D03*
D15*
X0000669291Y0001551181D03*
X0000511811Y0001551181D03*
D16*
X0000433070Y0001366141D03*
D17*
X0000511811Y0001366141D03*
X0000590551Y0001366141D03*
X0000669291Y0001366141D03*
X0000748031Y0001366141D03*
G01*
D28*
D29*
X-0005393700Y0007322834D02*
X0000687007Y0003188976D03*
X0000588582Y0003188976D03*
X0000490156Y0003188976D03*
X0000490156Y0003582677D03*
X0000588582Y0003582677D03*
X0000687007Y0003582677D03*
X0000490156Y0003484251D03*
X0000588582Y0003484251D03*
X0000687007Y0003484251D03*
X0000490156Y0003287401D03*
X0000588582Y0003287401D03*
X0000687007Y0003287401D03*
D30*
X0000133858Y0002590551D03*
D31*
X0000133858Y0002690551D03*
D32*
X0000271653Y0003444881D03*
X0000185038Y0003444881D03*
D33*
X0000474409Y0002830708D03*
X0000572834Y0002830708D03*
D34*
X0000433070Y0002657479D03*
D35*
X0000511811Y0002657479D03*
X0000590551Y0002657479D03*
X0000669291Y0002657479D03*
X0000748031Y0002657479D03*
G01*
D46*
D47*
X-0004251968Y0005669291D02*
X0001692913Y0002885826D03*
X0001850393Y0002885826D03*
D48*
X0001692913Y0002681102D03*
D49*
X0001771653Y0002681102D03*
X0001850393Y0002681102D03*
X0001929131Y0002681102D03*
X0002007874Y0002681102D03*
D50*
X0001751968Y0003582677D03*
X0001850393Y0003582677D03*
X0001948818Y0003582677D03*
X0001751968Y0003385826D03*
X0001850393Y0003385826D03*
X0001948818Y0003385826D03*
G01*
D61*
D62*
X-0004409448Y0004960629D02*
X0002305118Y0002370078D03*
X0002161417Y0002370078D03*
X0002017716Y0002370078D03*
X0002305118Y0002173228D03*
X0002161417Y0002173228D03*
X0002017716Y0002173228D03*
X0002017716Y0001976377D03*
X0002161417Y0001976377D03*
X0002305118Y0001976377D03*
D63*
X0001929131Y0001535433D03*
X0001771653Y0001535433D03*
D64*
X0001692913Y0001374015D03*
D65*
X0001771653Y0001374015D03*
X0001850393Y0001374015D03*
X0001929131Y0001374015D03*
X0002007874Y0001374015D03*
G04 next file*
%LPD*%
G01*
D76*
D77*
X-0003543306Y0003149606D02*
X0003488188Y0001102362D03*
X0003586614Y0001102362D03*
X0003685039Y0001102362D03*
D78*
X0003633857Y0000091338D03*
D79*
X0003633857Y0000291338D03*
D78*
X0003633857Y0000191338D03*
X0003633857Y0000431496D03*
D79*
X0003633857Y0000531496D03*
D80*
X0003267716Y0000137795D03*
D81*
X0003267716Y0000216535D03*
X0003267716Y0000295275D03*
X0003267716Y0000374015D03*
X0003267716Y0000452755D03*
D80*
X0002637795Y0000137795D03*
D81*
X0002637795Y0000216535D03*
X0002637795Y0000295275D03*
X0002637795Y0000374015D03*
X0002637795Y0000452755D03*
D80*
X0002952755Y0000137795D03*
D81*
X0002952755Y0000216535D03*
X0002952755Y0000295275D03*
X0002952755Y0000374015D03*
X0002952755Y0000452755D03*
G01*
D92*
D93*
X-0004685039Y0004370078D02*
X0002091338Y0000137795D03*
D94*
X0002291338Y0000137795D03*
D93*
X0002191338Y0000137795D03*
X0001844881Y0000137795D03*
D94*
X0001944881Y0000137795D03*
D95*
X0001511811Y0000216535D03*
D96*
X0001433070Y0000216535D03*
X0001511811Y0000295275D03*
X0001433070Y0000295275D03*
D97*
X0000984250Y0000133858D03*
D98*
X0000984250Y0000212598D03*
X0000984250Y0000291338D03*
X0000984250Y0000370077D03*
X0000984250Y0000448818D03*
D97*
X0000590551Y0000133858D03*
D98*
X0000590551Y0000212598D03*
X0000590551Y0000291338D03*
X0000590551Y0000370077D03*
X0000590551Y0000448818D03*
D97*
X0000196850Y0000133858D03*
D98*
X0000196850Y0000212598D03*
X0000196850Y0000291338D03*
X0000196850Y0000370077D03*
X0000196850Y0000448818D03*
D99*
X0002086614Y0000472440D03*
X0002173228Y0000472440D03*
D100*
X0002021653Y0001110236D03*
X0002100393Y0001110236D03*
X0002179133Y0000578740D03*
X0002179133Y0001110236D03*
X0002100393Y0000775590D03*
X0002021653Y0000578740D03*
X0002179133Y0001031496D03*
X0002100393Y0001031496D03*
X0002021653Y0001031496D03*
X0002179133Y0000854330D03*
X0002100393Y0000854330D03*
X0002021653Y0000854330D03*
X0002179133Y0000775590D03*
X0002021653Y0000775590D03*
G04 next file*
G01*
D111*
D112*
X-0004173228Y0005118110D02*
X0003253937Y0002370078D03*
X0003110236Y0002370078D03*
X0002966535Y0002370078D03*
X0003253937Y0002173228D03*
X0003110236Y0002173228D03*
X0002966535Y0002173228D03*
D113*
X0003022599Y0001602362D03*
X0003189998Y0001602362D03*
D114*
X0002952755Y0001370078D03*
D115*
X0003031496Y0001370078D03*
X0003110236Y0001370078D03*
X0003188976Y0001370078D03*
X0003267716Y0001370078D03*
G04 next file*
G04 #@! TF.FileFunction,Soldermask,Bot*
G04 Gerber Fmt 4.6, Leading zero omitted, Abs format (unit mm)*
G04 Created by KiCad (PCBNEW 4.0.7) date 01/11/18 21:38:16*
G01*
G04 APERTURE LIST*
G04 APERTURE END LIST*
D126*
D127*
X-0002874015Y0007322834D02*
X0003206692Y0003188976D03*
X0003108267Y0003188976D03*
X0003009842Y0003188976D03*
X0003009842Y0003582677D03*
X0003108267Y0003582677D03*
X0003206692Y0003582677D03*
X0003009842Y0003484251D03*
X0003108267Y0003484251D03*
X0003206692Y0003484251D03*
X0003009842Y0003287401D03*
X0003108267Y0003287401D03*
X0003206692Y0003287401D03*
D128*
X0002653543Y0002590551D03*
D129*
X0002653543Y0002690551D03*
D130*
X0002791338Y0003444881D03*
X0002704724Y0003444881D03*
D131*
X0002994094Y0002830708D03*
X0003092519Y0002830708D03*
D132*
X0002952755Y0002657479D03*
D133*
X0003031496Y0002657479D03*
X0003110236Y0002657479D03*
X0003188976Y0002657479D03*
X0003267716Y0002657479D03*
M02*