%MOIN*%
%OFA0B0*%
%FSLAX44Y44*%
%IPPOS*%
%LPD*%
%ADD10C,0*%
D10*
X00005133Y00011023D02*
X00005133Y00011023D01*
X00011401Y00011023D01*
X00011463Y00011018D01*
X00011523Y00011004D01*
X00011580Y00010980D01*
X00011633Y00010948D01*
X00011680Y00010908D01*
X00011720Y00010861D01*
X00011752Y00010808D01*
X00011776Y00010751D01*
X00011790Y00010691D01*
X00011795Y00010629D01*
X00011790Y00010568D01*
X00011776Y00010508D01*
X00011752Y00010451D01*
X00011720Y00010398D01*
X00011680Y00010351D01*
X00011633Y00010311D01*
X00011580Y00010279D01*
X00011523Y00010255D01*
X00011463Y00010241D01*
X00011401Y00010236D01*
X00011401Y00010236D01*
X00010236Y00010236D01*
X00010236Y00006314D01*
X00010231Y00006253D01*
X00010216Y00006193D01*
X00010193Y00006136D01*
X00010161Y00006083D01*
X00010120Y00006036D01*
X00010073Y00005996D01*
X00010021Y00005964D01*
X00009964Y00005940D01*
X00009904Y00005926D01*
X00009842Y00005921D01*
X00009780Y00005926D01*
X00009720Y00005940D01*
X00009663Y00005964D01*
X00009611Y00005996D01*
X00009564Y00006036D01*
X00009524Y00006083D01*
X00009491Y00006136D01*
X00009468Y00006193D01*
X00009453Y00006253D01*
X00009842Y00006314D01*
X00009448Y00006314D01*
X00009448Y00010236D01*
X00005133Y00010236D01*
X00005072Y00010241D01*
X00005012Y00010255D01*
X00004955Y00010279D01*
X00004902Y00010311D01*
X00004855Y00010351D01*
X00004815Y00010398D01*
X00004782Y00010451D01*
X00004759Y00010508D01*
X00004744Y00010568D01*
X00004740Y00010629D01*
X00004744Y00010691D01*
X00004759Y00010751D01*
X00004782Y00010808D01*
X00004815Y00010861D01*
X00004855Y00010908D01*
X00004902Y00010948D01*
X00004955Y00010980D01*
X00005012Y00011004D01*
X00005072Y00011018D01*
X00005133Y00011023D01*
X00005133Y00011023D01*
X00013687Y00022047D02*
X00013687Y00022047D01*
X00018252Y00022047D01*
X00018343Y00022036D01*
X00018430Y00022004D01*
X00018507Y00021952D01*
X00018570Y00021884D01*
X00018615Y00021804D01*
X00018640Y00021715D01*
X00018644Y00021622D01*
X00018626Y00021531D01*
X00018587Y00021447D01*
X00018530Y00021375D01*
X00018457Y00021317D01*
X00018373Y00021279D01*
X00018282Y00021261D01*
X00018190Y00021264D01*
X00018101Y00021289D01*
X00018020Y00021335D01*
X00017952Y00021397D01*
X00017901Y00021474D01*
X00017869Y00021561D01*
X00018252Y00021653D01*
X00017869Y00021745D01*
X00017901Y00021832D01*
X00017952Y00021909D01*
X00018020Y00021972D01*
X00018101Y00022017D01*
X00018190Y00022042D01*
X00018282Y00022046D01*
X00018373Y00022027D01*
X00018457Y00021989D01*
X00018530Y00021931D01*
X00018587Y00021859D01*
X00018626Y00021775D01*
X00018644Y00021684D01*
X00018640Y00021591D01*
X00018615Y00021502D01*
X00018570Y00021422D01*
X00018507Y00021354D01*
X00018430Y00021302D01*
X00018343Y00021270D01*
X00018252Y00021259D01*
X00015748Y00021259D01*
X00015748Y00017338D01*
X00015743Y00017276D01*
X00015728Y00017216D01*
X00015705Y00017159D01*
X00015672Y00017107D01*
X00015632Y00017060D01*
X00015585Y00017019D01*
X00015533Y00016987D01*
X00015475Y00016964D01*
X00015415Y00016949D01*
X00015354Y00016944D01*
X00015292Y00016949D01*
X00015232Y00016964D01*
X00015175Y00016987D01*
X00015122Y00017019D01*
X00015075Y00017060D01*
X00015035Y00017107D01*
X00015003Y00017159D01*
X00014979Y00017216D01*
X00014965Y00017276D01*
X00015354Y00017338D01*
X00014960Y00017338D01*
X00014960Y00021259D01*
X00013687Y00021259D01*
X00013656Y00021261D01*
X00013626Y00021264D01*
X00013595Y00021270D01*
X00013566Y00021279D01*
X00013537Y00021289D01*
X00013509Y00021302D01*
X00013482Y00021317D01*
X00013456Y00021335D01*
X00013432Y00021354D01*
X00013409Y00021375D01*
X00013388Y00021397D01*
X00013369Y00021422D01*
X00013352Y00021447D01*
X00013337Y00021474D01*
X00013324Y00021502D01*
X00013313Y00021531D01*
X00013304Y00021561D01*
X00013298Y00021591D01*
X00013295Y00021622D01*
X00013687Y00021653D01*
X00013295Y00021684D01*
X00013298Y00021715D01*
X00013304Y00021745D01*
X00013313Y00021775D01*
X00013324Y00021804D01*
X00013337Y00021832D01*
X00013352Y00021859D01*
X00013369Y00021884D01*
X00013388Y00021909D01*
X00013409Y00021931D01*
X00013432Y00021952D01*
X00013456Y00021972D01*
X00013482Y00021989D01*
X00013509Y00022004D01*
X00013537Y00022017D01*
X00013566Y00022027D01*
X00013595Y00022036D01*
X00013626Y00022042D01*
X00013656Y00022046D01*
X00013687Y00022047D01*
X00022425Y00010236D02*
X00022425Y00010236D01*
X00018897Y00010236D01*
X00018897Y00006314D01*
X00018892Y00006253D01*
X00018878Y00006193D01*
X00018854Y00006136D01*
X00018822Y00006083D01*
X00018782Y00006036D01*
X00018735Y00005996D01*
X00018682Y00005964D01*
X00018625Y00005940D01*
X00018565Y00005926D01*
X00018503Y00005921D01*
X00018442Y00005926D01*
X00018382Y00005940D01*
X00018325Y00005964D01*
X00018272Y00005996D01*
X00018225Y00006036D01*
X00018185Y00006083D01*
X00018153Y00006136D01*
X00018129Y00006193D01*
X00018115Y00006253D01*
X00018503Y00006314D01*
X00018110Y00006314D01*
X00018110Y00010236D01*
X00013795Y00010236D01*
X00013795Y00010236D01*
X00013733Y00010241D01*
X00013673Y00010255D01*
X00013616Y00010279D01*
X00013563Y00010311D01*
X00013516Y00010351D01*
X00013476Y00010398D01*
X00013444Y00010451D01*
X00013420Y00010508D01*
X00013406Y00010568D01*
X00013401Y00010629D01*
X00013406Y00010691D01*
X00013420Y00010751D01*
X00013444Y00010808D01*
X00013476Y00010861D01*
X00013516Y00010908D01*
X00013563Y00010948D01*
X00013616Y00010980D01*
X00013673Y00011004D01*
X00013733Y00011018D01*
X00013795Y00011023D01*
X00014960Y00011023D01*
X00014960Y00014944D01*
X00015354Y00014944D01*
X00014965Y00015006D01*
X00014979Y00015066D01*
X00015003Y00015123D01*
X00015035Y00015176D01*
X00015075Y00015223D01*
X00015122Y00015263D01*
X00015175Y00015295D01*
X00015232Y00015319D01*
X00015292Y00015333D01*
X00015354Y00015338D01*
X00015415Y00015333D01*
X00015475Y00015319D01*
X00015533Y00015295D01*
X00015585Y00015263D01*
X00015632Y00015223D01*
X00015672Y00015176D01*
X00015705Y00015123D01*
X00015728Y00015066D01*
X00015743Y00015006D01*
X00015748Y00014944D01*
X00015748Y00011023D01*
X00022425Y00011023D01*
X00022517Y00011012D01*
X00022604Y00010980D01*
X00022680Y00010929D01*
X00022743Y00010861D01*
X00022789Y00010780D01*
X00022814Y00010691D01*
X00022817Y00010599D01*
X00022799Y00010508D01*
X00022760Y00010424D01*
X00022703Y00010351D01*
X00022631Y00010294D01*
X00022546Y00010255D01*
X00022456Y00010237D01*
X00022363Y00010241D01*
X00022274Y00010266D01*
X00022193Y00010311D01*
X00022125Y00010374D01*
X00022074Y00010451D01*
X00022042Y00010538D01*
X00022425Y00010629D01*
X00022042Y00010721D01*
X00022074Y00010808D01*
X00022125Y00010885D01*
X00022193Y00010948D01*
X00022274Y00010993D01*
X00022363Y00011018D01*
X00022456Y00011022D01*
X00022546Y00011004D01*
X00022631Y00010965D01*
X00022703Y00010908D01*
X00022760Y00010835D01*
X00022799Y00010751D01*
X00022817Y00010660D01*
X00022814Y00010568D01*
X00022789Y00010479D01*
X00022743Y00010398D01*
X00022680Y00010330D01*
X00022604Y00010279D01*
X00022517Y00010247D01*
X00022425Y00010236D01*
X00005133Y00021259D02*
X00005133Y00021259D01*
X00005072Y00021264D01*
X00005012Y00021279D01*
X00004955Y00021302D01*
X00004902Y00021335D01*
X00004855Y00021375D01*
X00004815Y00021422D01*
X00004782Y00021474D01*
X00004759Y00021531D01*
X00004744Y00021591D01*
X00004740Y00021653D01*
X00004744Y00021715D01*
X00004759Y00021775D01*
X00004782Y00021832D01*
X00004815Y00021884D01*
X00004855Y00021931D01*
X00004902Y00021972D01*
X00004955Y00022004D01*
X00005012Y00022027D01*
X00005072Y00022042D01*
X00005133Y00022047D01*
X00005133Y00022047D01*
X00011023Y00022047D01*
X00011023Y00025771D01*
X00011417Y00025771D01*
X00011028Y00025833D01*
X00011042Y00025893D01*
X00011066Y00025950D01*
X00011098Y00026003D01*
X00011138Y00026050D01*
X00011185Y00026090D01*
X00011238Y00026122D01*
X00011295Y00026146D01*
X00011355Y00026160D01*
X00011417Y00026165D01*
X00011478Y00026160D01*
X00011538Y00026146D01*
X00011596Y00026122D01*
X00011648Y00026090D01*
X00011695Y00026050D01*
X00011735Y00026003D01*
X00011768Y00025950D01*
X00011791Y00025893D01*
X00011806Y00025833D01*
X00011811Y00025771D01*
X00011811Y00022714D01*
X00011811Y00022711D01*
X00011810Y00022709D01*
X00011810Y00022707D01*
X00011810Y00022705D01*
X00011810Y00022702D01*
X00011810Y00022700D01*
X00011810Y00022698D01*
X00011810Y00022695D01*
X00011810Y00022693D01*
X00011810Y00022691D01*
X00011810Y00022689D01*
X00011810Y00022686D01*
X00011809Y00022684D01*
X00011809Y00022682D01*
X00011809Y00022680D01*
X00011809Y00022677D01*
X00011809Y00022675D01*
X00011808Y00022673D01*
X00011808Y00022670D01*
X00011808Y00022668D01*
X00011685Y00021608D01*
X00011681Y00021579D01*
X00011674Y00021551D01*
X00011666Y00021524D01*
X00011655Y00021497D01*
X00011643Y00021471D01*
X00011629Y00021447D01*
X00011613Y00021423D01*
X00011596Y00021400D01*
X00011576Y00021379D01*
X00011556Y00021359D01*
X00011534Y00021341D01*
X00011510Y00021324D01*
X00011486Y00021309D01*
X00011460Y00021296D01*
X00011434Y00021285D01*
X00011407Y00021276D01*
X00011379Y00021269D01*
X00011351Y00021264D01*
X00011322Y00021260D01*
X00011294Y00021259D01*
X00005133Y00021259D01*
X00002740Y00011023D02*
X00002740Y00011023D01*
X00002801Y00011018D01*
X00002861Y00011004D01*
X00002918Y00010980D01*
X00002971Y00010948D01*
X00003018Y00010908D01*
X00003058Y00010861D01*
X00003091Y00010808D01*
X00003114Y00010751D01*
X00003129Y00010691D01*
X00003133Y00010629D01*
X00003129Y00010568D01*
X00003114Y00010508D01*
X00003091Y00010451D01*
X00003058Y00010398D01*
X00003018Y00010351D01*
X00002971Y00010311D01*
X00002918Y00010279D01*
X00002861Y00010255D01*
X00002801Y00010241D01*
X00002740Y00010236D01*
X00002740Y00010236D01*
X00000000Y00010236D01*
X00000000Y00000000D01*
X00009448Y00000000D01*
X00009448Y00003921D01*
X00009842Y00003921D01*
X00009453Y00003982D01*
X00009468Y00004043D01*
X00009491Y00004100D01*
X00009524Y00004152D01*
X00009564Y00004199D01*
X00009611Y00004239D01*
X00009663Y00004272D01*
X00009720Y00004295D01*
X00009780Y00004310D01*
X00009842Y00004315D01*
X00009904Y00004310D01*
X00009964Y00004295D01*
X00010021Y00004272D01*
X00010073Y00004239D01*
X00010120Y00004199D01*
X00010161Y00004152D01*
X00010193Y00004100D01*
X00010216Y00004043D01*
X00010231Y00003982D01*
X00010236Y00003921D01*
X00010236Y00000000D01*
X00018110Y00000000D01*
X00018110Y00003921D01*
X00018503Y00003921D01*
X00018115Y00003982D01*
X00018129Y00004043D01*
X00018153Y00004100D01*
X00018185Y00004152D01*
X00018225Y00004199D01*
X00018272Y00004239D01*
X00018325Y00004272D01*
X00018382Y00004295D01*
X00018442Y00004310D01*
X00018503Y00004315D01*
X00018565Y00004310D01*
X00018625Y00004295D01*
X00018682Y00004272D01*
X00018735Y00004239D01*
X00018782Y00004199D01*
X00018822Y00004152D01*
X00018854Y00004100D01*
X00018878Y00004043D01*
X00018892Y00003982D01*
X00018897Y00003921D01*
X00018897Y00000000D01*
X00026771Y00000000D01*
X00026771Y00010236D01*
X00024818Y00010236D01*
X00024787Y00010237D01*
X00024757Y00010241D01*
X00024726Y00010247D01*
X00024697Y00010255D01*
X00024668Y00010266D01*
X00024640Y00010279D01*
X00024613Y00010294D01*
X00024587Y00010311D01*
X00024563Y00010330D01*
X00024540Y00010351D01*
X00024519Y00010374D01*
X00024500Y00010398D01*
X00024483Y00010424D01*
X00024468Y00010451D01*
X00024455Y00010479D01*
X00024444Y00010508D01*
X00024435Y00010538D01*
X00024429Y00010568D01*
X00024426Y00010599D01*
X00024818Y00010629D01*
X00024426Y00010660D01*
X00024429Y00010691D01*
X00024435Y00010721D01*
X00024444Y00010751D01*
X00024455Y00010780D01*
X00024468Y00010808D01*
X00024483Y00010835D01*
X00024500Y00010861D01*
X00024519Y00010885D01*
X00024540Y00010908D01*
X00024563Y00010929D01*
X00024587Y00010948D01*
X00024613Y00010965D01*
X00024640Y00010980D01*
X00024668Y00010993D01*
X00024697Y00011004D01*
X00024726Y00011012D01*
X00024757Y00011018D01*
X00024787Y00011022D01*
X00024818Y00011023D01*
X00027559Y00011023D01*
X00027559Y00021259D01*
X00020645Y00021259D01*
X00020614Y00021261D01*
X00020583Y00021264D01*
X00020553Y00021270D01*
X00020523Y00021279D01*
X00020494Y00021289D01*
X00020466Y00021302D01*
X00020439Y00021317D01*
X00020414Y00021335D01*
X00020389Y00021354D01*
X00020367Y00021375D01*
X00020346Y00021397D01*
X00020327Y00021422D01*
X00020309Y00021447D01*
X00020294Y00021474D01*
X00020281Y00021502D01*
X00020271Y00021531D01*
X00020262Y00021561D01*
X00020256Y00021591D01*
X00020253Y00021622D01*
X00020645Y00021653D01*
X00020253Y00021684D01*
X00020256Y00021715D01*
X00020262Y00021745D01*
X00020271Y00021775D01*
X00020281Y00021804D01*
X00020294Y00021832D01*
X00020309Y00021859D01*
X00020327Y00021884D01*
X00020346Y00021909D01*
X00020367Y00021931D01*
X00020389Y00021952D01*
X00020414Y00021972D01*
X00020439Y00021989D01*
X00020466Y00022004D01*
X00020494Y00022017D01*
X00020523Y00022027D01*
X00020553Y00022036D01*
X00020583Y00022042D01*
X00020614Y00022046D01*
X00020645Y00022047D01*
X00022834Y00022047D01*
X00022834Y00031889D01*
X00011811Y00031889D01*
X00011811Y00028165D01*
X00011806Y00028103D01*
X00011791Y00028043D01*
X00011768Y00027986D01*
X00011735Y00027933D01*
X00011695Y00027886D01*
X00011648Y00027846D01*
X00011596Y00027814D01*
X00011538Y00027790D01*
X00011478Y00027776D01*
X00011417Y00027771D01*
X00011355Y00027776D01*
X00011295Y00027790D01*
X00011238Y00027814D01*
X00011185Y00027846D01*
X00011138Y00027886D01*
X00011098Y00027933D01*
X00011066Y00027986D01*
X00011042Y00028043D01*
X00011028Y00028103D01*
X00011417Y00028165D01*
X00011023Y00028165D01*
X00011023Y00031889D01*
X00000000Y00031889D01*
X00000000Y00022047D01*
X00002740Y00022047D01*
X00002740Y00022047D01*
X00002801Y00022042D01*
X00002861Y00022027D01*
X00002918Y00022004D01*
X00002971Y00021972D01*
X00003018Y00021931D01*
X00003058Y00021884D01*
X00003091Y00021832D01*
X00003114Y00021775D01*
X00003129Y00021715D01*
X00003133Y00021653D01*
X00003129Y00021591D01*
X00003114Y00021531D01*
X00003091Y00021474D01*
X00003058Y00021422D01*
X00003018Y00021375D01*
X00002971Y00021335D01*
X00002918Y00021302D01*
X00002861Y00021279D01*
X00002801Y00021264D01*
X00002740Y00021259D01*
X00000000Y00021259D01*
X00000000Y00011023D01*
X00002740Y00011023D01*
M02*