%
M48
METRIC,000.000
T01C0.40
T02C0.80
T03C1.00
T10C1.10
%
T01
X043876Y076255
X049599Y070400
X050000Y077900
X050959Y090350
X002300Y087000
X006250Y073250
X009500Y079100
X010800Y073700
X011900Y075000
X017836Y086407
X018385Y076006
X018699Y073900
X018699Y072800
X023300Y079000
X024000Y073000
X024099Y088600
X033400Y052599
X033400Y043300
X033400Y040500
X033400Y049700
X037500Y054099
X038020Y049620
X049599Y040800
X052500Y042599
X054900Y046800
X057800Y050900
X058000Y057000
X059400Y052599
X065400Y052599
X065400Y043300
X065400Y040500
X065400Y049700
X069500Y054099
X070020Y049620
X081600Y040800
X084500Y042599
X086900Y046800
X089800Y050900
X090000Y057000
X091400Y052599
X003800Y044599
X007199Y035200
X022032Y046251
X068156Y089162
X077699Y084250
X082893Y070528
X065000Y015700
X067000Y019000
X068600Y026100
X069900Y022700
X072400Y027600
X074500Y027600
X074500Y022700
X078300Y021200
X083500Y020799
X084300Y027600
X087699Y018799
X004099Y028599
X004099Y023299
X006599Y022099
X008799Y019900
X014340Y019933
X016050Y022620
X016800Y025799
X017400Y016900
X018872Y020611
X022800Y028500
X023217Y018322
X038599Y018799
T02
X042599Y066900
X044599Y066900
X046599Y066900
X048599Y066900
X050599Y066900
X011000Y066700
X013000Y066700
X015000Y066700
X017000Y066700
X019000Y066700
X043000Y035500
X045000Y035500
X047000Y035500
X049000Y035500
X051000Y035500
X075000Y035500
X077000Y035500
X079000Y035500
X081000Y035500
X083000Y035500
X011000Y036099
X013000Y036099
X015000Y036099
X017000Y036099
X019000Y036099
X075000Y066900
X077000Y066900
X079000Y066900
X081000Y066900
X083000Y066900
X067000Y011500
X067000Y009500
X067000Y007500
X067000Y005500
X067000Y003500
X075000Y011500
X075000Y009500
X075000Y007500
X075000Y005500
X075000Y003500
X083000Y011500
X083000Y009500
X083000Y007500
X083000Y005500
X083000Y003500
X005000Y011400
X005000Y009400
X005000Y007400
X005000Y005400
X005000Y003400
X015000Y011400
X015000Y009400
X015000Y007400
X015000Y005400
X015000Y003400
X025000Y011400
X025000Y009400
X025000Y007400
X025000Y005400
X025000Y003400
X036400Y007500
X036400Y005500
X038400Y007500
X038400Y005500
X051349Y028200
X051349Y026200
X051349Y021700
X051349Y019700
X051349Y014700
X053349Y028200
X053349Y026200
X053349Y021700
X053349Y019700
X055349Y028200
X055349Y026200
X055349Y021700
X055349Y019700
X055349Y014700
T03
X043349Y092200
X043349Y087200
X047000Y092200
X047000Y087200
X050650Y092200
X050650Y087200
X012500Y092000
X012500Y089500
X015000Y092000
X015000Y089500
X017500Y092000
X017500Y089500
X044449Y059000
X044449Y056500
X044449Y051500
X044449Y049000
X046949Y059000
X046949Y056500
X046949Y051500
X046949Y049000
X049449Y059000
X049449Y056500
X049449Y051500
X049449Y049000
X076449Y059000
X076449Y056500
X076449Y051500
X076449Y049000
X078949Y059000
X078949Y056500
X078949Y051500
X078949Y049000
X081449Y059000
X081449Y056500
X081449Y051500
X081449Y049000
X012500Y059000
X012500Y054000
X015000Y059000
X015000Y054000
X017500Y059000
X017500Y054000
X083250Y092200
X083250Y087200
X083250Y082200
X086900Y092200
X086900Y087200
X086900Y082200
X090550Y092200
X090550Y087200
X090550Y082200
X088600Y028000
X091100Y028000
X093600Y028000
T10
X002210Y067750
X004750Y067750
X025250Y067750
X027789Y067750
X035400Y036340
X035400Y033800
X067400Y036340
X067400Y033800
X092300Y013500
X092300Y010959
X092300Y007400
X092300Y004859
X092300Y002319
X046860Y003500
X049400Y003500
X053120Y003500
X055660Y003500
X058199Y003500
M30