%MOIN*%
%OFA0B0*%
%FSLAX46Y46*%
%IPPOS*%
%LPD*%
%ADD10C,0.0039370078740157488*%
%ADD11R,0.076771653543307089X0.03937007874015748*%
%ADD12R,0.062992125984251982X0.082677165354330714*%
%ADD13O,0.062992125984251982X0.082677165354330714*%
%ADD14R,0.062992125984251982X0.051181102362204731*%
%ADD15R,0.074803149606299218X0.064960629921259838*%
%ADD16C,0.086614173228346469*%
%ADD17R,0.047244094488188976X0.0452755905511811*%
%ADD28C,0.0039370078740157488*%
%ADD29C,0.086614173228346469*%
%ADD30R,0.062992125984251982X0.082677165354330714*%
%ADD31O,0.062992125984251982X0.082677165354330714*%
%ADD32O,0.094448031496063X0.094448031496063*%
%ADD33R,0.094448031496063X0.094448031496063*%
%ADD34R,0.035433070866141732X0.051181102362204731*%
%ADD35R,0.076748031496062991X0.086648031496063*%
%ADD36R,0.051181102362204731X0.047244094488188976*%
%ADD37R,0.051181102362204731X0.035433070866141732*%
%ADD38R,0.11414803149606301X0.086648031496063*%
%ADD39C,0.0039370078740157488*%
%ADD40C,0.086614173228346469*%
%ADD41R,0.062992125984251982X0.082677165354330714*%
%ADD42O,0.062992125984251982X0.082677165354330714*%
%ADD43R,0.051181102362204731X0.062992125984251982*%
%ADD44C,0.07874015748031496*%
%ADD45R,0.062992125984251982X0.051181102362204731*%
%ADD46C,0.0039370078740157488*%
%ADD47R,0.062992125984251982X0.082677165354330714*%
%ADD48O,0.062992125984251982X0.082677165354330714*%
%ADD49R,0.082677165354330714X0.082677165354330714*%
%ADD50O,0.082677165354330714X0.082677165354330714*%
%ADD51C,0.086614173228346469*%
%ADD52C,0.0039370078740157488*%
%ADD53C,0.070866141732283464*%
%ADD54R,0.062992125984251982X0.082677165354330714*%
%ADD55O,0.062992125984251982X0.082677165354330714*%
%ADD56C,0.086614173228346469*%
%ADD57C,0.072440944881889777*%
%ADD58O,0.094448031496063X0.094448031496063*%
%ADD59R,0.094448031496063X0.094448031496063*%
%ADD60R,0.051181102362204731X0.062992125984251982*%
%ADD61R,0.086648031496063X0.076748031496062991*%
%ADD62R,0.0452755905511811X0.062992125984251982*%
%ADD63R,0.051181102362204731X0.047244094488188976*%
%ADD64R,0.064960629921259838X0.055118110236220472*%
%ADD65C,0.0039370078740157488*%
%ADD66R,0.062992125984251982X0.082677165354330714*%
%ADD67O,0.062992125984251982X0.082677165354330714*%
%ADD68O,0.094448031496063X0.094448031496063*%
%ADD69R,0.094448031496063X0.094448031496063*%
%ADD70R,0.047244094488188976X0.051181102362204731*%
%ADD71R,0.051181102362204731X0.062992125984251982*%
%ADD72R,0.0452755905511811X0.062992125984251982*%
%ADD73R,0.086648031496063X0.076748031496062991*%
%ADD74R,0.076748031496062991X0.086648031496063*%
%ADD75R,0.051181102362204731X0.047244094488188976*%
%ADD76C,0.086614173228346469*%
%ADD77R,0.082677165354330714X0.082677165354330714*%
%ADD78O,0.082677165354330714X0.082677165354330714*%
%ADD79C,0.0039370078740157488*%
%ADD80R,0.095748031496063X0.095748031496063*%
%ADD81O,0.095748031496063X0.095748031496063*%
%ADD82R,0.0905511811023622X0.047244094488188976*%
%ADD83R,0.062992125984251982X0.051181102362204731*%
G01G01*
D10*
D11*
X-0003779527Y0004842519D02*
X0002311023Y0001381692D03*
X0002311023Y0001431692D03*
X0002311023Y0001481692D03*
X0002311023Y0001531692D03*
X0002098425Y0001531692D03*
X0002098425Y0001481692D03*
X0002098425Y0001431692D03*
X0002098425Y0001381692D03*
D12*
X0001838582Y0001248031D03*
D13*
X0001917322Y0001248031D03*
X0001996062Y0001248031D03*
X0002074803Y0001248031D03*
X0002153543Y0001248031D03*
D14*
X0001846456Y0001535433D03*
X0001933070Y0001535433D03*
X0002566929Y0001661417D03*
X0002480314Y0001661417D03*
X0002480314Y0001968503D03*
X0002566929Y0001968503D03*
D15*
X0002486220Y0001543307D03*
X0002584645Y0001543307D03*
D14*
X0002480314Y0001779527D03*
X0002566929Y0001779527D03*
X0001842519Y0001633858D03*
X0001929133Y0001633858D03*
X0001842519Y0001850393D03*
X0001929133Y0001850393D03*
X0001842519Y0001968503D03*
X0001929133Y0001968503D03*
X0001842519Y0001732283D03*
X0001929133Y0001732283D03*
D12*
X0002334645Y0001248031D03*
D13*
X0002413385Y0001248031D03*
X0002492125Y0001248031D03*
X0002570866Y0001248031D03*
D15*
X0002155511Y0001874015D03*
X0002253937Y0001874015D03*
D16*
X0002352362Y0001976377D03*
X0002204724Y0001976377D03*
X0002057086Y0001976377D03*
X0002352362Y0001779527D03*
X0002204724Y0001779527D03*
X0002057086Y0001779527D03*
D17*
X0002175196Y0001629921D03*
X0002234251Y0001629921D03*
X0001836614Y0001437007D03*
X0001895669Y0001437007D03*
D14*
X0002476377Y0001417322D03*
X0002562992Y0001417322D03*
G04 next file*
G04 #@! TF.FileFunction,Soldermask,Top*
G04 Gerber Fmt 4.6, Leading zero omitted, Abs format (unit mm)*
G04 Created by KiCad (PCBNEW 4.0.4-1.fc24-product) date Thu Mar  1 09:38:40 2018*
G01G01*
G04 APERTURE LIST*
G04 APERTURE END LIST*
D28*
D29*
X-0004921259Y0004094488D02*
X0001362204Y0000940944D03*
X0001214566Y0000940944D03*
X0001066929Y0000940944D03*
X0001362204Y0000744094D03*
X0001214566Y0000744094D03*
X0001066929Y0000744094D03*
X0001066929Y0000547244D03*
X0001214566Y0000547244D03*
X0001362204Y0000547244D03*
D30*
X0001212598Y0000125984D03*
D31*
X0001291338Y0000125984D03*
D30*
X0000704724Y0000125984D03*
D31*
X0000783464Y0000125984D03*
X0000862204Y0000125984D03*
X0000940944Y0000125984D03*
X0001019685Y0000125984D03*
D32*
X0000134056Y0000725439D03*
D33*
X0000134056Y0000625439D03*
D32*
X0000137795Y0000492125D03*
D33*
X0000137795Y0000292125D03*
D32*
X0000137795Y0000392125D03*
D34*
X0000324803Y0000255905D03*
X0000383858Y0000255905D03*
D32*
X0000133858Y0000950393D03*
D33*
X0000133858Y0000850393D03*
D32*
X0000137795Y0000162992D03*
D33*
X0000137795Y0000062992D03*
D35*
X0000440000Y0000952755D03*
X0000347400Y0000952755D03*
X0000440000Y0000724409D03*
X0000347400Y0000724409D03*
X0000756849Y0000952755D03*
X0000849449Y0000952755D03*
X0000752912Y0000657480D03*
X0000845512Y0000657480D03*
X0000386770Y0000362204D03*
X0000479370Y0000362204D03*
X0001259842Y0000409448D03*
X0001352442Y0000409448D03*
D36*
X0000637795Y0000852362D03*
X0000637795Y0000927165D03*
X0000543307Y0000889763D03*
X0000637795Y0000635826D03*
X0000637795Y0000710629D03*
X0000543307Y0000673228D03*
D37*
X0000338582Y0000872047D03*
X0000338582Y0000812992D03*
X0000338582Y0000643700D03*
X0000338582Y0000584645D03*
X0000444881Y0000872047D03*
X0000444881Y0000812992D03*
X0000444881Y0000641732D03*
X0000444881Y0000582677D03*
D34*
X0000482283Y0000255905D03*
X0000541338Y0000255905D03*
X0001155511Y0000409448D03*
X0001096456Y0000409448D03*
X0001316929Y0000637795D03*
X0001257873Y0000637795D03*
X0001171259Y0000637795D03*
X0001112204Y0000637795D03*
D38*
X0000354370Y0000133858D03*
X0000511770Y0000133858D03*
D34*
X0000742125Y0000757874D03*
X0000801181Y0000757874D03*
X0000801181Y0000460629D03*
X0000742125Y0000460629D03*
X0000801181Y0000846456D03*
X0000742125Y0000846456D03*
X0000801181Y0000547244D03*
X0000742125Y0000547244D03*
G04 next file*
G04 Gerber Fmt 4.6, Leading zero omitted, Abs format (unit mm)*
G04 Created by KiCad (PCBNEW 4.0.4-1.fc24-product) date Thu Mar  1 10:39:20 2018*
G01G01*
G04 APERTURE LIST*
G04 APERTURE END LIST*
D39*
D40*
X-0006496062Y0005748031D02*
X0000541338Y0001968503D03*
X0000393700Y0001968503D03*
X0000246062Y0001968503D03*
X0000541338Y0001771653D03*
X0000393700Y0001771653D03*
X0000246062Y0001771653D03*
X0000246062Y0001574803D03*
X0000393700Y0001574803D03*
X0000541338Y0001574803D03*
D41*
X0000275590Y0001220472D03*
D42*
X0000354330Y0001220472D03*
X0000433070Y0001220472D03*
X0000511811Y0001220472D03*
D43*
X0000078740Y0001531496D03*
X0000078740Y0001618110D03*
X0000708661Y0001618110D03*
X0000708661Y0001531496D03*
D44*
X0000066929Y0001925196D03*
X0000066929Y0001728346D03*
X0000724409Y0001192913D03*
X0000724409Y0001389763D03*
D45*
X0000267716Y0001440944D03*
X0000354330Y0001440944D03*
G04 next file*
G04 #@! TF.FileFunction,Soldermask,Top*
G04 Gerber Fmt 4.6, Leading zero omitted, Abs format (unit mm)*
G04 Created by KiCad (PCBNEW 4.0.4-1.fc24-product) date Thu Mar  1 10:32:11 2018*
G01G01*
G04 APERTURE LIST*
G04 APERTURE END LIST*
D46*
D47*
X-0004566929Y0005118110D02*
X0001220472Y0001240157D03*
D48*
X0001299212Y0001240157D03*
D49*
X0001359842Y0001614173D03*
D50*
X0001259842Y0001614173D03*
X0001159842Y0001614173D03*
D49*
X0001359842Y0001476377D03*
D50*
X0001259842Y0001476377D03*
X0001159842Y0001476377D03*
D51*
X0001358267Y0001889763D03*
X0001259842Y0001889763D03*
X0001161417Y0001889763D03*
X0001358267Y0001791338D03*
X0001259842Y0001791338D03*
X0001161417Y0001791338D03*
G04 next file*
G04 #@! TF.FileFunction,Soldermask,Top*
G04 Gerber Fmt 4.6, Leading zero omitted, Abs format (unit mm)*
G04 Created by KiCad (PCBNEW 4.0.4-1.fc24-product) date Thu Mar  1 09:37:53 2018*
G01G01*
G04 APERTURE LIST*
G04 APERTURE END LIST*
D52*
D53*
X-0005236220Y0006299212D02*
X0000177165Y0003129921D03*
X0000177165Y0003031496D03*
X0000389763Y0003129921D03*
X0000389763Y0003031496D03*
D54*
X0000196850Y0002307086D03*
D55*
X0000275590Y0002307086D03*
X0000354330Y0002307086D03*
X0000433070Y0002307086D03*
D56*
X0000078740Y0002844488D03*
X0000078740Y0002696850D03*
X0000078740Y0002549212D03*
X0000275590Y0002844488D03*
X0000275590Y0002696850D03*
X0000275590Y0002549212D03*
D57*
X0000992125Y0002830708D03*
X0000892125Y0002830708D03*
X0000792125Y0002830708D03*
D58*
X0000691338Y0002346456D03*
D59*
X0000791338Y0002346456D03*
D58*
X0000921259Y0002346456D03*
D59*
X0001021259Y0002346456D03*
D60*
X0000393700Y0002555118D03*
X0000393700Y0002641732D03*
D61*
X0000511811Y0002644725D03*
X0000511811Y0002552125D03*
D62*
X0000748031Y0002635826D03*
X0000748031Y0002561023D03*
D61*
X0000511811Y0002788345D03*
X0000511811Y0002880945D03*
D54*
X0000767716Y0003057086D03*
D55*
X0000846456Y0003057086D03*
X0000925196Y0003057086D03*
X0001003937Y0003057086D03*
D63*
X0000929133Y0002561023D03*
X0000929133Y0002635826D03*
X0000834645Y0002598425D03*
D60*
X0000629921Y0002641732D03*
X0000629921Y0002555118D03*
X0001023622Y0002641732D03*
X0001023622Y0002555118D03*
X0000393700Y0002791338D03*
X0000393700Y0002877952D03*
X0000629921Y0002877952D03*
X0000629921Y0002791338D03*
X0000629921Y0003015748D03*
X0000629921Y0003102362D03*
X0000078740Y0003031496D03*
X0000078740Y0003118110D03*
D64*
X0000515747Y0003094488D03*
X0000515747Y0003015748D03*
G04 next file*
G04 #@! TF.FileFunction,Soldermask,Top*
G04 Gerber Fmt 4.6, Leading zero omitted, Abs format (unit mm)*
G04 Created by KiCad (PCBNEW 4.0.4-1.fc24-product) date Thu Mar  1 09:36:58 2018*
G01G01*
G04 APERTURE LIST*
G04 APERTURE END LIST*
D65*
D66*
X-0004763779Y0005984251D02*
X0002181102Y0003098425D03*
D67*
X0002102362Y0003098425D03*
X0002023622Y0003098425D03*
X0001944881Y0003098425D03*
D68*
X0001968503Y0002334645D03*
D69*
X0001768503Y0002334645D03*
D68*
X0001868503Y0002334645D03*
D70*
X0001816929Y0002866141D03*
X0001891732Y0002866141D03*
X0001854330Y0002960629D03*
D71*
X0001728346Y0002956692D03*
X0001728346Y0002870078D03*
D72*
X0001984251Y0002875984D03*
X0001984251Y0002950787D03*
D73*
X0002200787Y0002867085D03*
X0002200787Y0002959685D03*
D74*
X0001811967Y0002755905D03*
X0001904567Y0002755905D03*
X0001622991Y0002755905D03*
X0001715591Y0002755905D03*
D72*
X0002204724Y0002596456D03*
X0002204724Y0002521653D03*
D73*
X0001755905Y0002512755D03*
X0001755905Y0002605355D03*
D68*
X0002202362Y0002334645D03*
D69*
X0002102362Y0002334645D03*
D66*
X0001763779Y0003098425D03*
D67*
X0001685039Y0003098425D03*
D75*
X0001940944Y0002596456D03*
X0001940944Y0002521653D03*
X0002035433Y0002559055D03*
D71*
X0002082677Y0002870078D03*
X0002082677Y0002956692D03*
X0001637795Y0002956692D03*
X0001637795Y0002870078D03*
X0002122047Y0002602362D03*
X0002122047Y0002515748D03*
X0001858267Y0002515748D03*
X0001858267Y0002602362D03*
X0001645669Y0002515748D03*
X0001645669Y0002602362D03*
D66*
X0001503936Y0003098425D03*
D67*
X0001425196Y0003098425D03*
X0001346456Y0003098425D03*
D71*
X0001547244Y0002956692D03*
X0001547244Y0002870078D03*
X0002204724Y0002771653D03*
X0002204724Y0002685039D03*
D76*
X0001259842Y0002840551D03*
X0001259842Y0002692913D03*
X0001259842Y0002545275D03*
X0001456692Y0002840551D03*
X0001456692Y0002692913D03*
X0001456692Y0002545275D03*
D77*
X0001356692Y0002324803D03*
D78*
X0001456692Y0002324803D03*
X0001556692Y0002324803D03*
G04 next file*
G04 #@! TF.FileFunction,Soldermask,Top*
G04 Gerber Fmt 4.6, Leading zero omitted, Abs format (unit mm)*
G04 Created by KiCad (PCBNEW 4.0.4-1.fc24-product) date Thu Mar  1 10:42:45 2018*
G01G01*
G04 APERTURE LIST*
G04 APERTURE END LIST*
D79*
D80*
X-0005354330Y0003779527D02*
X0002629921Y0000807086D03*
D81*
X0002629921Y0000907086D03*
D80*
X0002625984Y0000259842D03*
D81*
X0002625984Y0000159842D03*
D82*
X0001854330Y0000592519D03*
X0001854330Y0000517716D03*
X0001972440Y0000555118D03*
D83*
X0001956692Y0000901574D03*
X0001870078Y0000901574D03*
X0001870078Y0000200787D03*
X0001956692Y0000200787D03*
M02*