%
M48
METRIC,000.000
T01C0.41
T02C0.79
T03C0.99
T04C1.09
T10C0.40
T11C0.80
T12C1.00
T13C1.10
%
T01
X002300Y054998
X006250Y041249
X009498Y047099
X010799Y041699
X011899Y042999
X017837Y054407
X018386Y044005
X018701Y041900
X018701Y040800
X023301Y047000
X023999Y041000
X024098Y056599
X001399Y084600
X001399Y075299
X001399Y072500
X001399Y081699
X005499Y086099
X006019Y081618
X017599Y072799
X020500Y074600
X022900Y078799
X025798Y082898
X025999Y088999
X027398Y084600
X036155Y057160
X045700Y052251
X050892Y038527
X065000Y015699
X066999Y018999
X068600Y026101
X069900Y022700
X072399Y027599
X074500Y027599
X074500Y022700
X078300Y021199
X083499Y020800
X084299Y027599
X087700Y018801
X075876Y044254
X081599Y038399
X082000Y045900
X082958Y058349
X065399Y084600
X065399Y075299
X065399Y072500
X065399Y081699
X069499Y086099
X070019Y081618
X081599Y072799
X084500Y074600
X086900Y078799
X089798Y082898
X089999Y088999
X091398Y084600
T02
X010999Y034699
X012998Y034699
X015000Y034699
X016999Y034699
X019000Y034699
X011000Y067498
X012999Y067498
X015001Y067498
X017000Y067498
X018999Y067498
X043000Y034900
X044999Y034900
X046998Y034900
X049000Y034900
X050999Y034900
X066999Y011498
X066999Y009499
X066999Y007500
X066999Y005499
X066999Y003500
X075000Y011498
X075000Y009499
X075000Y007500
X075000Y005499
X075000Y003500
X082999Y011498
X082999Y009499
X082999Y007500
X082999Y005499
X082999Y003500
X075000Y034800
X076999Y034800
X079000Y034800
X080999Y034800
X082998Y034800
X075000Y067498
X076999Y067498
X079001Y067498
X081000Y067498
X082999Y067498
T03
X012501Y060000
X012501Y057500
X015000Y060000
X015000Y057500
X017499Y060000
X017499Y057500
X012451Y090998
X012451Y088499
X012451Y083500
X012451Y080998
X014950Y090998
X014950Y088499
X014950Y083500
X014950Y080998
X017449Y090998
X017449Y088499
X017449Y083500
X017449Y080998
X051250Y060198
X051250Y055200
X051250Y050198
X054900Y060198
X054900Y055200
X054900Y050198
X058550Y060198
X058550Y055200
X058550Y050198
X088600Y028001
X091099Y028001
X093598Y028001
X075350Y060200
X075350Y055199
X079000Y060200
X079000Y055199
X082650Y060200
X082650Y055199
X076451Y090998
X076451Y088499
X076451Y083500
X076451Y080998
X078950Y090998
X078950Y088499
X078950Y083500
X078950Y080998
X081449Y090998
X081449Y088499
X081449Y083500
X081449Y080998
T04
X002099Y035699
X004639Y035699
X025300Y035699
X027840Y035699
X003401Y068339
X003401Y065799
X092300Y013500
X092300Y010960
X092300Y007399
X092300Y004859
X092300Y002319
X067401Y068339
X067401Y065799
T10
X035800Y076600
X039199Y067200
X054032Y078251
X004099Y028599
X004099Y023299
X006599Y022099
X008799Y019900
X014340Y019933
X016050Y022620
X016800Y025799
X017400Y016900
X018872Y020611
X022800Y028500
X023217Y018322
X038599Y018799
T11
X043000Y068100
X045000Y068100
X047000Y068100
X049000Y068100
X051000Y068100
X005000Y011400
X005000Y009400
X005000Y007400
X005000Y005400
X005000Y003400
X015000Y011400
X015000Y009400
X015000Y007400
X015000Y005400
X015000Y003400
X025000Y011400
X025000Y009400
X025000Y007400
X025000Y005400
X025000Y003400
X036400Y007500
X036400Y005500
X038400Y007500
X038400Y005500
X051349Y028200
X051349Y026200
X051349Y021700
X051349Y019700
X051349Y014700
X053349Y028200
X053349Y026200
X053349Y021700
X053349Y019700
X055349Y028200
X055349Y026200
X055349Y021700
X055349Y019700
X055349Y014700
T12
X044500Y091000
X044500Y086000
X047000Y091000
X047000Y086000
X049500Y091000
X049500Y086000
T13
X046860Y003500
X049400Y003500
X053120Y003500
X055660Y003500
X058199Y003500
M30