G04 #@! TF.FileFunction,Copper,L2,Bot,Signal*
%FSLAX46Y46*%
G04 Gerber Fmt 4.6, Leading zero omitted, Abs format (unit mm)*
G04 Created by KiCad (PCBNEW 4.0.7) date 06/14/18 22:08:16*
%MOMM*%
%LPD*%
G01*
G04 APERTURE LIST*
%ADD10C,0.100000*%
%ADD11C,1.800000*%
%ADD12R,1.700000X1.700000*%
%ADD13O,1.700000X1.700000*%
%ADD14C,0.250000*%
G04 APERTURE END LIST*
D10*
D11*
X142500000Y-85000000D03*
X137500000Y-85000000D03*
X132500000Y-85000000D03*
D12*
X136200000Y-92100000D03*
D13*
X138740000Y-92100000D03*
D14*
G36*
X145550000Y-93550000D02*
X139002108Y-93550000D01*
X139033633Y-93546909D01*
X139309216Y-93463705D01*
X139563390Y-93328559D01*
X139786472Y-93146617D01*
X139969967Y-92924810D01*
X140106885Y-92671585D01*
X140192010Y-92396590D01*
X140222101Y-92110297D01*
X140196011Y-91823613D01*
X140114733Y-91547455D01*
X139981364Y-91292344D01*
X139800984Y-91067997D01*
X139580463Y-90882958D01*
X139328201Y-90744275D01*
X139053807Y-90657232D01*
X138767731Y-90625144D01*
X138747137Y-90625000D01*
X138732863Y-90625000D01*
X138446367Y-90653091D01*
X138170784Y-90736295D01*
X137916610Y-90871441D01*
X137693528Y-91053383D01*
X137654595Y-91100445D01*
X137617809Y-90981659D01*
X137520571Y-90834095D01*
X137386073Y-90719463D01*
X137224963Y-90646840D01*
X137050000Y-90621976D01*
X135350000Y-90621976D01*
X135250471Y-90629913D01*
X135081659Y-90682191D01*
X134934095Y-90779429D01*
X134819463Y-90913927D01*
X134746840Y-91075037D01*
X134721976Y-91250000D01*
X134721976Y-92950000D01*
X134729913Y-93049529D01*
X134782191Y-93218341D01*
X134879429Y-93365905D01*
X135013927Y-93480537D01*
X135168027Y-93550000D01*
X129450000Y-93550000D01*
X129450000Y-85128226D01*
X130972995Y-85128226D01*
X131026983Y-85422381D01*
X131137077Y-85700447D01*
X131299085Y-85951834D01*
X131506835Y-86166965D01*
X131752414Y-86337647D01*
X132026469Y-86457379D01*
X132318560Y-86521599D01*
X132617563Y-86527863D01*
X132912087Y-86475930D01*
X133190915Y-86367780D01*
X133443427Y-86207531D01*
X133660003Y-86001288D01*
X133832396Y-85756906D01*
X133954038Y-85483694D01*
X134020296Y-85192058D01*
X134021187Y-85128226D01*
X135972995Y-85128226D01*
X136026983Y-85422381D01*
X136137077Y-85700447D01*
X136299085Y-85951834D01*
X136506835Y-86166965D01*
X136752414Y-86337647D01*
X137026469Y-86457379D01*
X137318560Y-86521599D01*
X137617563Y-86527863D01*
X137912087Y-86475930D01*
X138190915Y-86367780D01*
X138443427Y-86207531D01*
X138660003Y-86001288D01*
X138832396Y-85756906D01*
X138954038Y-85483694D01*
X139020296Y-85192058D01*
X139021187Y-85128226D01*
X140972995Y-85128226D01*
X141026983Y-85422381D01*
X141137077Y-85700447D01*
X141299085Y-85951834D01*
X141506835Y-86166965D01*
X141752414Y-86337647D01*
X142026469Y-86457379D01*
X142318560Y-86521599D01*
X142617563Y-86527863D01*
X142912087Y-86475930D01*
X143190915Y-86367780D01*
X143443427Y-86207531D01*
X143660003Y-86001288D01*
X143832396Y-85756906D01*
X143954038Y-85483694D01*
X144020296Y-85192058D01*
X144025066Y-84850466D01*
X143966976Y-84557094D01*
X143853010Y-84280592D01*
X143687509Y-84031492D01*
X143476775Y-83819282D01*
X143228837Y-83652045D01*
X142953137Y-83536151D01*
X142660177Y-83476016D01*
X142361117Y-83473928D01*
X142067346Y-83529967D01*
X141790055Y-83642000D01*
X141539805Y-83805759D01*
X141326130Y-84015006D01*
X141157166Y-84261771D01*
X141039351Y-84536655D01*
X140977171Y-84829187D01*
X140972995Y-85128226D01*
X139021187Y-85128226D01*
X139025066Y-84850466D01*
X138966976Y-84557094D01*
X138853010Y-84280592D01*
X138687509Y-84031492D01*
X138476775Y-83819282D01*
X138228837Y-83652045D01*
X137953137Y-83536151D01*
X137660177Y-83476016D01*
X137361117Y-83473928D01*
X137067346Y-83529967D01*
X136790055Y-83642000D01*
X136539805Y-83805759D01*
X136326130Y-84015006D01*
X136157166Y-84261771D01*
X136039351Y-84536655D01*
X135977171Y-84829187D01*
X135972995Y-85128226D01*
X134021187Y-85128226D01*
X134025066Y-84850466D01*
X133966976Y-84557094D01*
X133853010Y-84280592D01*
X133687509Y-84031492D01*
X133476775Y-83819282D01*
X133228837Y-83652045D01*
X132953137Y-83536151D01*
X132660177Y-83476016D01*
X132361117Y-83473928D01*
X132067346Y-83529967D01*
X131790055Y-83642000D01*
X131539805Y-83805759D01*
X131326130Y-84015006D01*
X131157166Y-84261771D01*
X131039351Y-84536655D01*
X130977171Y-84829187D01*
X130972995Y-85128226D01*
X129450000Y-85128226D01*
X129450000Y-81450000D01*
X145550000Y-81450000D01*
X145550000Y-93550000D01*
X145550000Y-93550000D01*
G37*
X145550000Y-93550000D02*
X139002108Y-93550000D01*
X139033633Y-93546909D01*
X139309216Y-93463705D01*
X139563390Y-93328559D01*
X139786472Y-93146617D01*
X139969967Y-92924810D01*
X140106885Y-92671585D01*
X140192010Y-92396590D01*
X140222101Y-92110297D01*
X140196011Y-91823613D01*
X140114733Y-91547455D01*
X139981364Y-91292344D01*
X139800984Y-91067997D01*
X139580463Y-90882958D01*
X139328201Y-90744275D01*
X139053807Y-90657232D01*
X138767731Y-90625144D01*
X138747137Y-90625000D01*
X138732863Y-90625000D01*
X138446367Y-90653091D01*
X138170784Y-90736295D01*
X137916610Y-90871441D01*
X137693528Y-91053383D01*
X137654595Y-91100445D01*
X137617809Y-90981659D01*
X137520571Y-90834095D01*
X137386073Y-90719463D01*
X137224963Y-90646840D01*
X137050000Y-90621976D01*
X135350000Y-90621976D01*
X135250471Y-90629913D01*
X135081659Y-90682191D01*
X134934095Y-90779429D01*
X134819463Y-90913927D01*
X134746840Y-91075037D01*
X134721976Y-91250000D01*
X134721976Y-92950000D01*
X134729913Y-93049529D01*
X134782191Y-93218341D01*
X134879429Y-93365905D01*
X135013927Y-93480537D01*
X135168027Y-93550000D01*
X129450000Y-93550000D01*
X129450000Y-85128226D01*
X130972995Y-85128226D01*
X131026983Y-85422381D01*
X131137077Y-85700447D01*
X131299085Y-85951834D01*
X131506835Y-86166965D01*
X131752414Y-86337647D01*
X132026469Y-86457379D01*
X132318560Y-86521599D01*
X132617563Y-86527863D01*
X132912087Y-86475930D01*
X133190915Y-86367780D01*
X133443427Y-86207531D01*
X133660003Y-86001288D01*
X133832396Y-85756906D01*
X133954038Y-85483694D01*
X134020296Y-85192058D01*
X134021187Y-85128226D01*
X135972995Y-85128226D01*
X136026983Y-85422381D01*
X136137077Y-85700447D01*
X136299085Y-85951834D01*
X136506835Y-86166965D01*
X136752414Y-86337647D01*
X137026469Y-86457379D01*
X137318560Y-86521599D01*
X137617563Y-86527863D01*
X137912087Y-86475930D01*
X138190915Y-86367780D01*
X138443427Y-86207531D01*
X138660003Y-86001288D01*
X138832396Y-85756906D01*
X138954038Y-85483694D01*
X139020296Y-85192058D01*
X139021187Y-85128226D01*
X140972995Y-85128226D01*
X141026983Y-85422381D01*
X141137077Y-85700447D01*
X141299085Y-85951834D01*
X141506835Y-86166965D01*
X141752414Y-86337647D01*
X142026469Y-86457379D01*
X142318560Y-86521599D01*
X142617563Y-86527863D01*
X142912087Y-86475930D01*
X143190915Y-86367780D01*
X143443427Y-86207531D01*
X143660003Y-86001288D01*
X143832396Y-85756906D01*
X143954038Y-85483694D01*
X144020296Y-85192058D01*
X144025066Y-84850466D01*
X143966976Y-84557094D01*
X143853010Y-84280592D01*
X143687509Y-84031492D01*
X143476775Y-83819282D01*
X143228837Y-83652045D01*
X142953137Y-83536151D01*
X142660177Y-83476016D01*
X142361117Y-83473928D01*
X142067346Y-83529967D01*
X141790055Y-83642000D01*
X141539805Y-83805759D01*
X141326130Y-84015006D01*
X141157166Y-84261771D01*
X141039351Y-84536655D01*
X140977171Y-84829187D01*
X140972995Y-85128226D01*
X139021187Y-85128226D01*
X139025066Y-84850466D01*
X138966976Y-84557094D01*
X138853010Y-84280592D01*
X138687509Y-84031492D01*
X138476775Y-83819282D01*
X138228837Y-83652045D01*
X137953137Y-83536151D01*
X137660177Y-83476016D01*
X137361117Y-83473928D01*
X137067346Y-83529967D01*
X136790055Y-83642000D01*
X136539805Y-83805759D01*
X136326130Y-84015006D01*
X136157166Y-84261771D01*
X136039351Y-84536655D01*
X135977171Y-84829187D01*
X135972995Y-85128226D01*
X134021187Y-85128226D01*
X134025066Y-84850466D01*
X133966976Y-84557094D01*
X133853010Y-84280592D01*
X133687509Y-84031492D01*
X133476775Y-83819282D01*
X133228837Y-83652045D01*
X132953137Y-83536151D01*
X132660177Y-83476016D01*
X132361117Y-83473928D01*
X132067346Y-83529967D01*
X131790055Y-83642000D01*
X131539805Y-83805759D01*
X131326130Y-84015006D01*
X131157166Y-84261771D01*
X131039351Y-84536655D01*
X130977171Y-84829187D01*
X130972995Y-85128226D01*
X129450000Y-85128226D01*
X129450000Y-81450000D01*
X145550000Y-81450000D01*
X145550000Y-93550000D01*
G36*
X137679016Y-93132003D02*
X137899537Y-93317042D01*
X138151799Y-93455725D01*
X138426193Y-93542768D01*
X138490669Y-93550000D01*
X137214392Y-93550000D01*
X137318341Y-93517809D01*
X137465905Y-93420571D01*
X137580537Y-93286073D01*
X137653160Y-93124963D01*
X137656193Y-93103617D01*
X137679016Y-93132003D01*
X137679016Y-93132003D01*
G37*
X137679016Y-93132003D02*
X137899537Y-93317042D01*
X138151799Y-93455725D01*
X138426193Y-93542768D01*
X138490669Y-93550000D01*
X137214392Y-93550000D01*
X137318341Y-93517809D01*
X137465905Y-93420571D01*
X137580537Y-93286073D01*
X137653160Y-93124963D01*
X137656193Y-93103617D01*
X137679016Y-93132003D01*
M02*
