M48
;DRILL file {KiCad 4.0.4-1.fc24-product} date Mon Jun  4 17:16:09 2018
;FORMAT={3:3/ absolute / metric / suppress leading zeros}
FMAT,2
METRIC,TZ
T1C0.750
T2C1.000
T3C1.097
%
G90
G05
M71
T1
X131000Y-92550
X131000Y-94550
X131000Y-96550
X131000Y-98550
X136000Y-92550
X136000Y-94550
X136000Y-96550
X136000Y-98550
X141700Y-93400
X141700Y-98800
X143700Y-93400
X143700Y-98800
T2
X132500Y-85000
X137500Y-85000
X142500Y-85000
T3
X149750Y-82800
X149750Y-85340
X149750Y-87880
X149750Y-91100
X149750Y-93640
X149750Y-96860
X149750Y-99400
T0
M30
