G04 #@! TF.FileFunction,Copper,L2,Bot,Signal*
%FSLAX46Y46*%
G04 Gerber Fmt 4.6, Leading zero omitted, Abs format (unit mm)*
G04 Created by KiCad (PCBNEW 4.0.7) date 06/06/18 08:13:09*
%MOMM*%
%LPD*%
G01*
G04 APERTURE LIST*
%ADD10C,0.100000*%
%ADD11C,1.800000*%
%ADD12R,1.200000X1.700000*%
%ADD13O,1.200000X1.700000*%
%ADD14C,0.300000*%
G04 APERTURE END LIST*
D10*
D11*
X142500000Y-85000000D03*
X137500000Y-85000000D03*
X132500000Y-85000000D03*
D12*
X136400000Y-93600000D03*
D13*
X138400000Y-93600000D03*
D14*
G36*
X145475000Y-95475000D02*
X129525000Y-95475000D01*
X129525000Y-92750000D01*
X135341184Y-92750000D01*
X135341184Y-94450000D01*
X135372562Y-94616760D01*
X135471117Y-94769919D01*
X135621495Y-94872668D01*
X135800000Y-94908816D01*
X137000000Y-94908816D01*
X137166760Y-94877438D01*
X137319919Y-94778883D01*
X137422668Y-94628505D01*
X137458816Y-94450000D01*
X137458816Y-94320524D01*
X137657538Y-94617931D01*
X137998182Y-94845543D01*
X138400000Y-94925469D01*
X138801818Y-94845543D01*
X139142462Y-94617931D01*
X139370074Y-94277287D01*
X139450000Y-93875469D01*
X139450000Y-93324531D01*
X139370074Y-92922713D01*
X139142462Y-92582069D01*
X138801818Y-92354457D01*
X138400000Y-92274531D01*
X137998182Y-92354457D01*
X137657538Y-92582069D01*
X137458816Y-92879476D01*
X137458816Y-92750000D01*
X137427438Y-92583240D01*
X137328883Y-92430081D01*
X137178505Y-92327332D01*
X137000000Y-92291184D01*
X135800000Y-92291184D01*
X135633240Y-92322562D01*
X135480081Y-92421117D01*
X135377332Y-92571495D01*
X135341184Y-92750000D01*
X129525000Y-92750000D01*
X129525000Y-85267353D01*
X131149766Y-85267353D01*
X131354858Y-85763715D01*
X131734288Y-86143807D01*
X132230290Y-86349765D01*
X132767353Y-86350234D01*
X133263715Y-86145142D01*
X133643807Y-85765712D01*
X133849765Y-85269710D01*
X133849767Y-85267353D01*
X136149766Y-85267353D01*
X136354858Y-85763715D01*
X136734288Y-86143807D01*
X137230290Y-86349765D01*
X137767353Y-86350234D01*
X138263715Y-86145142D01*
X138643807Y-85765712D01*
X138849765Y-85269710D01*
X138849767Y-85267353D01*
X141149766Y-85267353D01*
X141354858Y-85763715D01*
X141734288Y-86143807D01*
X142230290Y-86349765D01*
X142767353Y-86350234D01*
X143263715Y-86145142D01*
X143643807Y-85765712D01*
X143849765Y-85269710D01*
X143850234Y-84732647D01*
X143645142Y-84236285D01*
X143265712Y-83856193D01*
X142769710Y-83650235D01*
X142232647Y-83649766D01*
X141736285Y-83854858D01*
X141356193Y-84234288D01*
X141150235Y-84730290D01*
X141149766Y-85267353D01*
X138849767Y-85267353D01*
X138850234Y-84732647D01*
X138645142Y-84236285D01*
X138265712Y-83856193D01*
X137769710Y-83650235D01*
X137232647Y-83649766D01*
X136736285Y-83854858D01*
X136356193Y-84234288D01*
X136150235Y-84730290D01*
X136149766Y-85267353D01*
X133849767Y-85267353D01*
X133850234Y-84732647D01*
X133645142Y-84236285D01*
X133265712Y-83856193D01*
X132769710Y-83650235D01*
X132232647Y-83649766D01*
X131736285Y-83854858D01*
X131356193Y-84234288D01*
X131150235Y-84730290D01*
X131149766Y-85267353D01*
X129525000Y-85267353D01*
X129525000Y-81525000D01*
X145475000Y-81525000D01*
X145475000Y-95475000D01*
X145475000Y-95475000D01*
G37*
X145475000Y-95475000D02*
X129525000Y-95475000D01*
X129525000Y-92750000D01*
X135341184Y-92750000D01*
X135341184Y-94450000D01*
X135372562Y-94616760D01*
X135471117Y-94769919D01*
X135621495Y-94872668D01*
X135800000Y-94908816D01*
X137000000Y-94908816D01*
X137166760Y-94877438D01*
X137319919Y-94778883D01*
X137422668Y-94628505D01*
X137458816Y-94450000D01*
X137458816Y-94320524D01*
X137657538Y-94617931D01*
X137998182Y-94845543D01*
X138400000Y-94925469D01*
X138801818Y-94845543D01*
X139142462Y-94617931D01*
X139370074Y-94277287D01*
X139450000Y-93875469D01*
X139450000Y-93324531D01*
X139370074Y-92922713D01*
X139142462Y-92582069D01*
X138801818Y-92354457D01*
X138400000Y-92274531D01*
X137998182Y-92354457D01*
X137657538Y-92582069D01*
X137458816Y-92879476D01*
X137458816Y-92750000D01*
X137427438Y-92583240D01*
X137328883Y-92430081D01*
X137178505Y-92327332D01*
X137000000Y-92291184D01*
X135800000Y-92291184D01*
X135633240Y-92322562D01*
X135480081Y-92421117D01*
X135377332Y-92571495D01*
X135341184Y-92750000D01*
X129525000Y-92750000D01*
X129525000Y-85267353D01*
X131149766Y-85267353D01*
X131354858Y-85763715D01*
X131734288Y-86143807D01*
X132230290Y-86349765D01*
X132767353Y-86350234D01*
X133263715Y-86145142D01*
X133643807Y-85765712D01*
X133849765Y-85269710D01*
X133849767Y-85267353D01*
X136149766Y-85267353D01*
X136354858Y-85763715D01*
X136734288Y-86143807D01*
X137230290Y-86349765D01*
X137767353Y-86350234D01*
X138263715Y-86145142D01*
X138643807Y-85765712D01*
X138849765Y-85269710D01*
X138849767Y-85267353D01*
X141149766Y-85267353D01*
X141354858Y-85763715D01*
X141734288Y-86143807D01*
X142230290Y-86349765D01*
X142767353Y-86350234D01*
X143263715Y-86145142D01*
X143643807Y-85765712D01*
X143849765Y-85269710D01*
X143850234Y-84732647D01*
X143645142Y-84236285D01*
X143265712Y-83856193D01*
X142769710Y-83650235D01*
X142232647Y-83649766D01*
X141736285Y-83854858D01*
X141356193Y-84234288D01*
X141150235Y-84730290D01*
X141149766Y-85267353D01*
X138849767Y-85267353D01*
X138850234Y-84732647D01*
X138645142Y-84236285D01*
X138265712Y-83856193D01*
X137769710Y-83650235D01*
X137232647Y-83649766D01*
X136736285Y-83854858D01*
X136356193Y-84234288D01*
X136150235Y-84730290D01*
X136149766Y-85267353D01*
X133849767Y-85267353D01*
X133850234Y-84732647D01*
X133645142Y-84236285D01*
X133265712Y-83856193D01*
X132769710Y-83650235D01*
X132232647Y-83649766D01*
X131736285Y-83854858D01*
X131356193Y-84234288D01*
X131150235Y-84730290D01*
X131149766Y-85267353D01*
X129525000Y-85267353D01*
X129525000Y-81525000D01*
X145475000Y-81525000D01*
X145475000Y-95475000D01*
M02*
