G04 #@! TF.FileFunction,Legend,Bot*
%FSLAX46Y46*%
G04 Gerber Fmt 4.6, Leading zero omitted, Abs format (unit mm)*
G04 Created by KiCad (PCBNEW 4.0.4-1.fc24-product) date Tue Jun 12 13:17:19 2018*
%MOMM*%
%LPD*%
G01*
G04 APERTURE LIST*
%ADD10C,0.100000*%
%ADD11C,0.120000*%
%ADD12C,0.150000*%
G04 APERTURE END LIST*
D10*
D11*
X146100000Y-90300000D02*
X146100000Y-81100000D01*
X128900000Y-90300000D02*
X128900000Y-81100000D01*
X146100000Y-90300000D02*
X128900000Y-90300000D01*
X146100000Y-81100000D02*
X128900000Y-81100000D01*
X131170000Y-91670000D02*
X136370000Y-91670000D01*
X131170000Y-91730000D02*
X131170000Y-91670000D01*
X136370000Y-94330000D02*
X136370000Y-91670000D01*
X131170000Y-91730000D02*
X133770000Y-91730000D01*
X133770000Y-91730000D02*
X133770000Y-94330000D01*
X133770000Y-94330000D02*
X136370000Y-94330000D01*
X131170000Y-93000000D02*
X131170000Y-94330000D01*
X131170000Y-94330000D02*
X132500000Y-94330000D01*
D12*
X145816667Y-82483334D02*
X145483333Y-82250000D01*
X145816667Y-82083334D02*
X145116667Y-82083334D01*
X145116667Y-82350000D01*
X145150000Y-82416667D01*
X145183333Y-82450000D01*
X145250000Y-82483334D01*
X145350000Y-82483334D01*
X145416667Y-82450000D01*
X145450000Y-82416667D01*
X145483333Y-82350000D01*
X145483333Y-82083334D01*
X145116667Y-82683334D02*
X145816667Y-82916667D01*
X145116667Y-83150000D01*
X145816667Y-83750000D02*
X145816667Y-83350000D01*
X145816667Y-83550000D02*
X145116667Y-83550000D01*
X145216667Y-83483334D01*
X145283333Y-83416667D01*
X145316667Y-83350000D01*
X134003333Y-94946667D02*
X134003333Y-95446667D01*
X134036667Y-95546667D01*
X134103333Y-95613333D01*
X134203333Y-95646667D01*
X134270000Y-95646667D01*
X133303334Y-95646667D02*
X133703334Y-95646667D01*
X133503334Y-95646667D02*
X133503334Y-94946667D01*
X133570000Y-95046667D01*
X133636667Y-95113333D01*
X133703334Y-95146667D01*
M02*
