G04 #@! TF.FileFunction,Paste,Top*
%FSLAX46Y46*%
G04 Gerber Fmt 4.6, Leading zero omitted, Abs format (unit mm)*
G04 Created by KiCad (PCBNEW 4.0.4-1.fc24-product) date Wed Jun 13 10:34:08 2018*
%MOMM*%
%LPD*%
G01*
G04 APERTURE LIST*
%ADD10C,0.100000*%
%ADD11R,0.900000X0.500000*%
%ADD12R,1.800860X1.549400*%
%ADD13R,1.549400X1.800860*%
%ADD14R,0.800000X0.900000*%
%ADD15R,0.500000X0.900000*%
%ADD16R,1.800860X2.499360*%
G04 APERTURE END LIST*
D10*
D11*
X154300000Y-96750000D03*
X154300000Y-98250000D03*
D12*
X141243993Y-82646275D03*
X141243993Y-80294235D03*
X135443993Y-82646275D03*
X135443993Y-80294235D03*
X138093993Y-89250000D03*
X138093993Y-91602040D03*
X135450000Y-89250000D03*
X135450000Y-91602040D03*
X151550000Y-99873980D03*
X151550000Y-102226020D03*
D13*
X151373980Y-93900000D03*
X153726020Y-93900000D03*
D14*
X138800000Y-87150000D03*
X140700000Y-87150000D03*
X139750000Y-84750000D03*
X133150000Y-87100000D03*
X135050000Y-87100000D03*
X134100000Y-84700000D03*
D15*
X139193993Y-80070255D03*
X137693993Y-80070255D03*
X133393993Y-80070255D03*
X131893993Y-80070255D03*
X139193993Y-82770255D03*
X137693993Y-82770255D03*
X133343993Y-82770255D03*
X131843993Y-82770255D03*
D11*
X154350000Y-101250000D03*
X154350000Y-102750000D03*
D15*
X148850000Y-93950000D03*
X147350000Y-93950000D03*
D16*
X147800000Y-97652040D03*
X147800000Y-101650000D03*
D11*
X141700000Y-88750000D03*
X141700000Y-90250000D03*
X131850000Y-88800000D03*
X131850000Y-90300000D03*
X140050000Y-90250000D03*
X140050000Y-88750000D03*
X133500000Y-90300000D03*
X133500000Y-88800000D03*
D15*
X148800000Y-90400000D03*
X147300000Y-90400000D03*
M02*
