G04 #@! TF.FileFunction,Legend,Top*
%FSLAX46Y46*%
G04 Gerber Fmt 4.6, Leading zero omitted, Abs format (unit mm)*
G04 Created by KiCad (PCBNEW 4.0.4-1.fc24-product) date Wed Jun 13 10:34:08 2018*
%MOMM*%
%LPD*%
G01*
G04 APERTURE LIST*
%ADD10C,0.100000*%
%ADD11C,0.150000*%
%ADD12C,0.120000*%
G04 APERTURE END LIST*
D10*
D11*
X153625000Y-98000000D02*
X153625000Y-97000000D01*
X154975000Y-97000000D02*
X154975000Y-98000000D01*
X141878993Y-82105255D02*
X140608993Y-82105255D01*
X141878993Y-80454255D02*
X140608993Y-80454255D01*
X140608993Y-80454255D02*
X140608993Y-82486255D01*
X140608993Y-82486255D02*
X141878993Y-82486255D01*
X141878993Y-82486255D02*
X141878993Y-80454255D01*
X136078993Y-82105255D02*
X134808993Y-82105255D01*
X136078993Y-80454255D02*
X134808993Y-80454255D01*
X134808993Y-80454255D02*
X134808993Y-82486255D01*
X134808993Y-82486255D02*
X136078993Y-82486255D01*
X136078993Y-82486255D02*
X136078993Y-80454255D01*
X137458993Y-89791020D02*
X138728993Y-89791020D01*
X137458993Y-91442020D02*
X138728993Y-91442020D01*
X138728993Y-91442020D02*
X138728993Y-89410020D01*
X138728993Y-89410020D02*
X137458993Y-89410020D01*
X137458993Y-89410020D02*
X137458993Y-91442020D01*
X134815000Y-89791020D02*
X136085000Y-89791020D01*
X134815000Y-91442020D02*
X136085000Y-91442020D01*
X136085000Y-91442020D02*
X136085000Y-89410020D01*
X136085000Y-89410020D02*
X134815000Y-89410020D01*
X134815000Y-89410020D02*
X134815000Y-91442020D01*
X150915000Y-100415000D02*
X152185000Y-100415000D01*
X150915000Y-102066000D02*
X152185000Y-102066000D01*
X152185000Y-102066000D02*
X152185000Y-100034000D01*
X152185000Y-100034000D02*
X150915000Y-100034000D01*
X150915000Y-100034000D02*
X150915000Y-102066000D01*
X151915000Y-94535000D02*
X151915000Y-93265000D01*
X153566000Y-94535000D02*
X153566000Y-93265000D01*
X153566000Y-93265000D02*
X151534000Y-93265000D01*
X151534000Y-93265000D02*
X151534000Y-94535000D01*
X151534000Y-94535000D02*
X153566000Y-94535000D01*
D12*
X138100000Y-87400000D02*
X138100000Y-85000000D01*
X138100000Y-85000000D02*
X139150000Y-85000000D01*
X141400000Y-86800000D02*
X141400000Y-85000000D01*
X141400000Y-85000000D02*
X140350000Y-85000000D01*
X132450000Y-87350000D02*
X132450000Y-84950000D01*
X132450000Y-84950000D02*
X133500000Y-84950000D01*
X135750000Y-86750000D02*
X135750000Y-84950000D01*
X135750000Y-84950000D02*
X134700000Y-84950000D01*
D11*
X137943993Y-79395255D02*
X138943993Y-79395255D01*
X138943993Y-80745255D02*
X137943993Y-80745255D01*
X132143993Y-79395255D02*
X133143993Y-79395255D01*
X133143993Y-80745255D02*
X132143993Y-80745255D01*
X137943993Y-82095255D02*
X138943993Y-82095255D01*
X138943993Y-83445255D02*
X137943993Y-83445255D01*
X132093993Y-82095255D02*
X133093993Y-82095255D01*
X133093993Y-83445255D02*
X132093993Y-83445255D01*
X153675000Y-102500000D02*
X153675000Y-101500000D01*
X155025000Y-101500000D02*
X155025000Y-102500000D01*
X147600000Y-93275000D02*
X148600000Y-93275000D01*
X148600000Y-94625000D02*
X147600000Y-94625000D01*
X146049940Y-97851880D02*
X146400460Y-97851880D01*
X149550060Y-97851880D02*
X149199540Y-97851880D01*
X146049940Y-101901460D02*
X146400460Y-101901460D01*
X146049940Y-97400580D02*
X146400460Y-97400580D01*
X149550060Y-97400580D02*
X149199540Y-97400580D01*
X149550060Y-101901460D02*
X149199540Y-101901460D01*
X146049940Y-97400580D02*
X146049940Y-101901460D01*
X149550060Y-97400580D02*
X149550060Y-101901460D01*
X141025000Y-90000000D02*
X141025000Y-89000000D01*
X142375000Y-89000000D02*
X142375000Y-90000000D01*
X131175000Y-90050000D02*
X131175000Y-89050000D01*
X132525000Y-89050000D02*
X132525000Y-90050000D01*
X140725000Y-89000000D02*
X140725000Y-90000000D01*
X139375000Y-90000000D02*
X139375000Y-89000000D01*
X134175000Y-89050000D02*
X134175000Y-90050000D01*
X132825000Y-90050000D02*
X132825000Y-89050000D01*
D12*
X147550000Y-89720000D02*
X148550000Y-89720000D01*
X148550000Y-91080000D02*
X147550000Y-91080000D01*
D11*
X153371429Y-98400000D02*
X153085714Y-98600000D01*
X153371429Y-98742857D02*
X152771429Y-98742857D01*
X152771429Y-98514285D01*
X152800000Y-98457143D01*
X152828571Y-98428571D01*
X152885714Y-98400000D01*
X152971429Y-98400000D01*
X153028571Y-98428571D01*
X153057143Y-98457143D01*
X153085714Y-98514285D01*
X153085714Y-98742857D01*
X152771429Y-98200000D02*
X152771429Y-97800000D01*
X153371429Y-98057143D01*
X140543993Y-79184541D02*
X140515422Y-79213112D01*
X140429708Y-79241684D01*
X140372565Y-79241684D01*
X140286850Y-79213112D01*
X140229708Y-79155969D01*
X140201136Y-79098826D01*
X140172565Y-78984541D01*
X140172565Y-78898826D01*
X140201136Y-78784541D01*
X140229708Y-78727398D01*
X140286850Y-78670255D01*
X140372565Y-78641684D01*
X140429708Y-78641684D01*
X140515422Y-78670255D01*
X140543993Y-78698826D01*
X141115422Y-79241684D02*
X140772565Y-79241684D01*
X140943993Y-79241684D02*
X140943993Y-78641684D01*
X140886850Y-78727398D01*
X140829708Y-78784541D01*
X140772565Y-78813112D01*
X135943993Y-84184541D02*
X135915422Y-84213112D01*
X135829708Y-84241684D01*
X135772565Y-84241684D01*
X135686850Y-84213112D01*
X135629708Y-84155969D01*
X135601136Y-84098826D01*
X135572565Y-83984541D01*
X135572565Y-83898826D01*
X135601136Y-83784541D01*
X135629708Y-83727398D01*
X135686850Y-83670255D01*
X135772565Y-83641684D01*
X135829708Y-83641684D01*
X135915422Y-83670255D01*
X135943993Y-83698826D01*
X136172565Y-83698826D02*
X136201136Y-83670255D01*
X136258279Y-83641684D01*
X136401136Y-83641684D01*
X136458279Y-83670255D01*
X136486850Y-83698826D01*
X136515422Y-83755969D01*
X136515422Y-83813112D01*
X136486850Y-83898826D01*
X136143993Y-84241684D01*
X136515422Y-84241684D01*
X138308279Y-93226020D02*
X138336850Y-93254591D01*
X138365422Y-93340305D01*
X138365422Y-93397448D01*
X138336850Y-93483163D01*
X138279707Y-93540305D01*
X138222564Y-93568877D01*
X138108279Y-93597448D01*
X138022564Y-93597448D01*
X137908279Y-93568877D01*
X137851136Y-93540305D01*
X137793993Y-93483163D01*
X137765422Y-93397448D01*
X137765422Y-93340305D01*
X137793993Y-93254591D01*
X137822564Y-93226020D01*
X137765422Y-93026020D02*
X137765422Y-92654591D01*
X137993993Y-92854591D01*
X137993993Y-92768877D01*
X138022564Y-92711734D01*
X138051136Y-92683163D01*
X138108279Y-92654591D01*
X138251136Y-92654591D01*
X138308279Y-92683163D01*
X138336850Y-92711734D01*
X138365422Y-92768877D01*
X138365422Y-92940305D01*
X138336850Y-92997448D01*
X138308279Y-93026020D01*
X135464286Y-93276020D02*
X135492857Y-93304591D01*
X135521429Y-93390305D01*
X135521429Y-93447448D01*
X135492857Y-93533163D01*
X135435714Y-93590305D01*
X135378571Y-93618877D01*
X135264286Y-93647448D01*
X135178571Y-93647448D01*
X135064286Y-93618877D01*
X135007143Y-93590305D01*
X134950000Y-93533163D01*
X134921429Y-93447448D01*
X134921429Y-93390305D01*
X134950000Y-93304591D01*
X134978571Y-93276020D01*
X135121429Y-92761734D02*
X135521429Y-92761734D01*
X134892857Y-92904591D02*
X135321429Y-93047448D01*
X135321429Y-92676020D01*
X150264286Y-102750000D02*
X150292857Y-102778571D01*
X150321429Y-102864285D01*
X150321429Y-102921428D01*
X150292857Y-103007143D01*
X150235714Y-103064285D01*
X150178571Y-103092857D01*
X150064286Y-103121428D01*
X149978571Y-103121428D01*
X149864286Y-103092857D01*
X149807143Y-103064285D01*
X149750000Y-103007143D01*
X149721429Y-102921428D01*
X149721429Y-102864285D01*
X149750000Y-102778571D01*
X149778571Y-102750000D01*
X149721429Y-102207143D02*
X149721429Y-102492857D01*
X150007143Y-102521428D01*
X149978571Y-102492857D01*
X149950000Y-102435714D01*
X149950000Y-102292857D01*
X149978571Y-102235714D01*
X150007143Y-102207143D01*
X150064286Y-102178571D01*
X150207143Y-102178571D01*
X150264286Y-102207143D01*
X150292857Y-102235714D01*
X150321429Y-102292857D01*
X150321429Y-102435714D01*
X150292857Y-102492857D01*
X150264286Y-102521428D01*
X150673980Y-92514286D02*
X150645409Y-92542857D01*
X150559695Y-92571429D01*
X150502552Y-92571429D01*
X150416837Y-92542857D01*
X150359695Y-92485714D01*
X150331123Y-92428571D01*
X150302552Y-92314286D01*
X150302552Y-92228571D01*
X150331123Y-92114286D01*
X150359695Y-92057143D01*
X150416837Y-92000000D01*
X150502552Y-91971429D01*
X150559695Y-91971429D01*
X150645409Y-92000000D01*
X150673980Y-92028571D01*
X150873980Y-91971429D02*
X151273980Y-91971429D01*
X151016837Y-92571429D01*
X139692857Y-86278571D02*
X139635714Y-86250000D01*
X139578571Y-86192857D01*
X139492857Y-86107143D01*
X139435714Y-86078571D01*
X139378571Y-86078571D01*
X139407143Y-86221429D02*
X139350000Y-86192857D01*
X139292857Y-86135714D01*
X139264286Y-86021429D01*
X139264286Y-85821429D01*
X139292857Y-85707143D01*
X139350000Y-85650000D01*
X139407143Y-85621429D01*
X139521429Y-85621429D01*
X139578571Y-85650000D01*
X139635714Y-85707143D01*
X139664286Y-85821429D01*
X139664286Y-86021429D01*
X139635714Y-86135714D01*
X139578571Y-86192857D01*
X139521429Y-86221429D01*
X139407143Y-86221429D01*
X140235714Y-86221429D02*
X139892857Y-86221429D01*
X140064285Y-86221429D02*
X140064285Y-85621429D01*
X140007142Y-85707143D01*
X139950000Y-85764286D01*
X139892857Y-85792857D01*
X138942857Y-85728571D02*
X138885714Y-85700000D01*
X138828571Y-85642857D01*
X138742857Y-85557143D01*
X138685714Y-85528571D01*
X138628571Y-85528571D01*
X138657143Y-85671429D02*
X138600000Y-85642857D01*
X138542857Y-85585714D01*
X138514286Y-85471429D01*
X138514286Y-85271429D01*
X138542857Y-85157143D01*
X138600000Y-85100000D01*
X138657143Y-85071429D01*
X138771429Y-85071429D01*
X138828571Y-85100000D01*
X138885714Y-85157143D01*
X138914286Y-85271429D01*
X138914286Y-85471429D01*
X138885714Y-85585714D01*
X138828571Y-85642857D01*
X138771429Y-85671429D01*
X138657143Y-85671429D01*
X139142857Y-85128571D02*
X139171428Y-85100000D01*
X139228571Y-85071429D01*
X139371428Y-85071429D01*
X139428571Y-85100000D01*
X139457142Y-85128571D01*
X139485714Y-85185714D01*
X139485714Y-85242857D01*
X139457142Y-85328571D01*
X139114285Y-85671429D01*
X139485714Y-85671429D01*
X137543993Y-79241684D02*
X137343993Y-78955969D01*
X137201136Y-79241684D02*
X137201136Y-78641684D01*
X137429708Y-78641684D01*
X137486850Y-78670255D01*
X137515422Y-78698826D01*
X137543993Y-78755969D01*
X137543993Y-78841684D01*
X137515422Y-78898826D01*
X137486850Y-78927398D01*
X137429708Y-78955969D01*
X137201136Y-78955969D01*
X138115422Y-79241684D02*
X137772565Y-79241684D01*
X137943993Y-79241684D02*
X137943993Y-78641684D01*
X137886850Y-78727398D01*
X137829708Y-78784541D01*
X137772565Y-78813112D01*
X131843993Y-79141684D02*
X131643993Y-78855969D01*
X131501136Y-79141684D02*
X131501136Y-78541684D01*
X131729708Y-78541684D01*
X131786850Y-78570255D01*
X131815422Y-78598826D01*
X131843993Y-78655969D01*
X131843993Y-78741684D01*
X131815422Y-78798826D01*
X131786850Y-78827398D01*
X131729708Y-78855969D01*
X131501136Y-78855969D01*
X132072565Y-78598826D02*
X132101136Y-78570255D01*
X132158279Y-78541684D01*
X132301136Y-78541684D01*
X132358279Y-78570255D01*
X132386850Y-78598826D01*
X132415422Y-78655969D01*
X132415422Y-78713112D01*
X132386850Y-78798826D01*
X132043993Y-79141684D01*
X132415422Y-79141684D01*
X137543993Y-81941684D02*
X137343993Y-81655969D01*
X137201136Y-81941684D02*
X137201136Y-81341684D01*
X137429708Y-81341684D01*
X137486850Y-81370255D01*
X137515422Y-81398826D01*
X137543993Y-81455969D01*
X137543993Y-81541684D01*
X137515422Y-81598826D01*
X137486850Y-81627398D01*
X137429708Y-81655969D01*
X137201136Y-81655969D01*
X137743993Y-81341684D02*
X138115422Y-81341684D01*
X137915422Y-81570255D01*
X138001136Y-81570255D01*
X138058279Y-81598826D01*
X138086850Y-81627398D01*
X138115422Y-81684541D01*
X138115422Y-81827398D01*
X138086850Y-81884541D01*
X138058279Y-81913112D01*
X138001136Y-81941684D01*
X137829708Y-81941684D01*
X137772565Y-81913112D01*
X137743993Y-81884541D01*
X131693993Y-81941684D02*
X131493993Y-81655969D01*
X131351136Y-81941684D02*
X131351136Y-81341684D01*
X131579708Y-81341684D01*
X131636850Y-81370255D01*
X131665422Y-81398826D01*
X131693993Y-81455969D01*
X131693993Y-81541684D01*
X131665422Y-81598826D01*
X131636850Y-81627398D01*
X131579708Y-81655969D01*
X131351136Y-81655969D01*
X132208279Y-81541684D02*
X132208279Y-81941684D01*
X132065422Y-81313112D02*
X131922565Y-81741684D01*
X132293993Y-81741684D01*
X153421429Y-102900000D02*
X153135714Y-103100000D01*
X153421429Y-103242857D02*
X152821429Y-103242857D01*
X152821429Y-103014285D01*
X152850000Y-102957143D01*
X152878571Y-102928571D01*
X152935714Y-102900000D01*
X153021429Y-102900000D01*
X153078571Y-102928571D01*
X153107143Y-102957143D01*
X153135714Y-103014285D01*
X153135714Y-103242857D01*
X153078571Y-102557143D02*
X153050000Y-102614285D01*
X153021429Y-102642857D01*
X152964286Y-102671428D01*
X152935714Y-102671428D01*
X152878571Y-102642857D01*
X152850000Y-102614285D01*
X152821429Y-102557143D01*
X152821429Y-102442857D01*
X152850000Y-102385714D01*
X152878571Y-102357143D01*
X152935714Y-102328571D01*
X152964286Y-102328571D01*
X153021429Y-102357143D01*
X153050000Y-102385714D01*
X153078571Y-102442857D01*
X153078571Y-102557143D01*
X153107143Y-102614285D01*
X153135714Y-102642857D01*
X153192857Y-102671428D01*
X153307143Y-102671428D01*
X153364286Y-102642857D01*
X153392857Y-102614285D01*
X153421429Y-102557143D01*
X153421429Y-102442857D01*
X153392857Y-102385714D01*
X153364286Y-102357143D01*
X153307143Y-102328571D01*
X153192857Y-102328571D01*
X153135714Y-102357143D01*
X153107143Y-102385714D01*
X153078571Y-102442857D01*
X147114285Y-93021429D02*
X146914285Y-92735714D01*
X146771428Y-93021429D02*
X146771428Y-92421429D01*
X147000000Y-92421429D01*
X147057142Y-92450000D01*
X147085714Y-92478571D01*
X147114285Y-92535714D01*
X147114285Y-92621429D01*
X147085714Y-92678571D01*
X147057142Y-92707143D01*
X147000000Y-92735714D01*
X146771428Y-92735714D01*
X147685714Y-93021429D02*
X147342857Y-93021429D01*
X147514285Y-93021429D02*
X147514285Y-92421429D01*
X147457142Y-92507143D01*
X147400000Y-92564286D01*
X147342857Y-92592857D01*
X148057143Y-92421429D02*
X148114286Y-92421429D01*
X148171429Y-92450000D01*
X148200000Y-92478571D01*
X148228571Y-92535714D01*
X148257143Y-92650000D01*
X148257143Y-92792857D01*
X148228571Y-92907143D01*
X148200000Y-92964286D01*
X148171429Y-92992857D01*
X148114286Y-93021429D01*
X148057143Y-93021429D01*
X148000000Y-92992857D01*
X147971429Y-92964286D01*
X147942857Y-92907143D01*
X147914286Y-92792857D01*
X147914286Y-92650000D01*
X147942857Y-92535714D01*
X147971429Y-92478571D01*
X148000000Y-92450000D01*
X148057143Y-92421429D01*
X150346430Y-100093877D02*
X149746430Y-100093877D01*
X149746430Y-99951020D01*
X149775001Y-99865305D01*
X149832144Y-99808163D01*
X149889287Y-99779591D01*
X150003572Y-99751020D01*
X150089287Y-99751020D01*
X150203572Y-99779591D01*
X150260715Y-99808163D01*
X150317858Y-99865305D01*
X150346430Y-99951020D01*
X150346430Y-100093877D01*
X149746430Y-99551020D02*
X149746430Y-99179591D01*
X149975001Y-99379591D01*
X149975001Y-99293877D01*
X150003572Y-99236734D01*
X150032144Y-99208163D01*
X150089287Y-99179591D01*
X150232144Y-99179591D01*
X150289287Y-99208163D01*
X150317858Y-99236734D01*
X150346430Y-99293877D01*
X150346430Y-99465305D01*
X150317858Y-99522448D01*
X150289287Y-99551020D01*
X142071429Y-92085715D02*
X141785714Y-92285715D01*
X142071429Y-92428572D02*
X141471429Y-92428572D01*
X141471429Y-92200000D01*
X141500000Y-92142858D01*
X141528571Y-92114286D01*
X141585714Y-92085715D01*
X141671429Y-92085715D01*
X141728571Y-92114286D01*
X141757143Y-92142858D01*
X141785714Y-92200000D01*
X141785714Y-92428572D01*
X142071429Y-91514286D02*
X142071429Y-91857143D01*
X142071429Y-91685715D02*
X141471429Y-91685715D01*
X141557143Y-91742858D01*
X141614286Y-91800000D01*
X141642857Y-91857143D01*
X141471429Y-91314286D02*
X141471429Y-90942857D01*
X141700000Y-91142857D01*
X141700000Y-91057143D01*
X141728571Y-91000000D01*
X141757143Y-90971429D01*
X141814286Y-90942857D01*
X141957143Y-90942857D01*
X142014286Y-90971429D01*
X142042857Y-91000000D01*
X142071429Y-91057143D01*
X142071429Y-91228571D01*
X142042857Y-91285714D01*
X142014286Y-91314286D01*
X132021429Y-92135715D02*
X131735714Y-92335715D01*
X132021429Y-92478572D02*
X131421429Y-92478572D01*
X131421429Y-92250000D01*
X131450000Y-92192858D01*
X131478571Y-92164286D01*
X131535714Y-92135715D01*
X131621429Y-92135715D01*
X131678571Y-92164286D01*
X131707143Y-92192858D01*
X131735714Y-92250000D01*
X131735714Y-92478572D01*
X132021429Y-91564286D02*
X132021429Y-91907143D01*
X132021429Y-91735715D02*
X131421429Y-91735715D01*
X131507143Y-91792858D01*
X131564286Y-91850000D01*
X131592857Y-91907143D01*
X131621429Y-91050000D02*
X132021429Y-91050000D01*
X131392857Y-91192857D02*
X131821429Y-91335714D01*
X131821429Y-90964286D01*
X140321429Y-92085715D02*
X140035714Y-92285715D01*
X140321429Y-92428572D02*
X139721429Y-92428572D01*
X139721429Y-92200000D01*
X139750000Y-92142858D01*
X139778571Y-92114286D01*
X139835714Y-92085715D01*
X139921429Y-92085715D01*
X139978571Y-92114286D01*
X140007143Y-92142858D01*
X140035714Y-92200000D01*
X140035714Y-92428572D01*
X140321429Y-91514286D02*
X140321429Y-91857143D01*
X140321429Y-91685715D02*
X139721429Y-91685715D01*
X139807143Y-91742858D01*
X139864286Y-91800000D01*
X139892857Y-91857143D01*
X139721429Y-90971429D02*
X139721429Y-91257143D01*
X140007143Y-91285714D01*
X139978571Y-91257143D01*
X139950000Y-91200000D01*
X139950000Y-91057143D01*
X139978571Y-91000000D01*
X140007143Y-90971429D01*
X140064286Y-90942857D01*
X140207143Y-90942857D01*
X140264286Y-90971429D01*
X140292857Y-91000000D01*
X140321429Y-91057143D01*
X140321429Y-91200000D01*
X140292857Y-91257143D01*
X140264286Y-91285714D01*
X133771429Y-92135715D02*
X133485714Y-92335715D01*
X133771429Y-92478572D02*
X133171429Y-92478572D01*
X133171429Y-92250000D01*
X133200000Y-92192858D01*
X133228571Y-92164286D01*
X133285714Y-92135715D01*
X133371429Y-92135715D01*
X133428571Y-92164286D01*
X133457143Y-92192858D01*
X133485714Y-92250000D01*
X133485714Y-92478572D01*
X133771429Y-91564286D02*
X133771429Y-91907143D01*
X133771429Y-91735715D02*
X133171429Y-91735715D01*
X133257143Y-91792858D01*
X133314286Y-91850000D01*
X133342857Y-91907143D01*
X133171429Y-91050000D02*
X133171429Y-91164286D01*
X133200000Y-91221429D01*
X133228571Y-91250000D01*
X133314286Y-91307143D01*
X133428571Y-91335714D01*
X133657143Y-91335714D01*
X133714286Y-91307143D01*
X133742857Y-91278571D01*
X133771429Y-91221429D01*
X133771429Y-91107143D01*
X133742857Y-91050000D01*
X133714286Y-91021429D01*
X133657143Y-90992857D01*
X133514286Y-90992857D01*
X133457143Y-91021429D01*
X133428571Y-91050000D01*
X133400000Y-91107143D01*
X133400000Y-91221429D01*
X133428571Y-91278571D01*
X133457143Y-91307143D01*
X133514286Y-91335714D01*
X147664285Y-89571429D02*
X147464285Y-89285714D01*
X147321428Y-89571429D02*
X147321428Y-88971429D01*
X147550000Y-88971429D01*
X147607142Y-89000000D01*
X147635714Y-89028571D01*
X147664285Y-89085714D01*
X147664285Y-89171429D01*
X147635714Y-89228571D01*
X147607142Y-89257143D01*
X147550000Y-89285714D01*
X147321428Y-89285714D01*
X148235714Y-89571429D02*
X147892857Y-89571429D01*
X148064285Y-89571429D02*
X148064285Y-88971429D01*
X148007142Y-89057143D01*
X147950000Y-89114286D01*
X147892857Y-89142857D01*
X148807143Y-89571429D02*
X148464286Y-89571429D01*
X148635714Y-89571429D02*
X148635714Y-88971429D01*
X148578571Y-89057143D01*
X148521429Y-89114286D01*
X148464286Y-89142857D01*
M02*
