G04 #@! TF.FileFunction,Copper,L1,Top,Signal*
%FSLAX46Y46*%
G04 Gerber Fmt 4.6, Leading zero omitted, Abs format (unit mm)*
G04 Created by KiCad (PCBNEW 4.0.4-1.fc24-product) date Wed Jun 13 23:40:41 2018*
%MOMM*%
%LPD*%
G01*
G04 APERTURE LIST*
%ADD10C,0.100000*%
%ADD11R,1.600000X1.000000*%
%ADD12C,1.800000*%
%ADD13O,1.998980X1.998980*%
%ADD14R,1.998980X1.998980*%
%ADD15R,0.900000X0.500000*%
%ADD16R,1.549400X1.800860*%
%ADD17R,0.800000X0.900000*%
%ADD18R,0.500000X0.900000*%
%ADD19R,1.800860X2.499360*%
%ADD20R,1.727200X2.032000*%
%ADD21O,1.727200X2.032000*%
%ADD22R,2.032000X2.032000*%
%ADD23O,2.032000X2.032000*%
%ADD24R,1.250000X1.000000*%
%ADD25C,0.600000*%
%ADD26C,0.300000*%
%ADD27C,0.500000*%
%ADD28C,1.000000*%
%ADD29C,0.400000*%
%ADD30C,0.250000*%
G04 APERTURE END LIST*
D10*
D11*
X151500000Y-99400000D03*
X151500000Y-102400000D03*
D12*
X153300000Y-80000000D03*
X149550000Y-80000000D03*
X145800000Y-80000000D03*
X153300000Y-85000000D03*
X149550000Y-85000000D03*
X145800000Y-85000000D03*
D13*
X128400000Y-91310000D03*
D14*
X128400000Y-93850000D03*
D13*
X128405024Y-85573844D03*
D14*
X128405024Y-88113844D03*
D13*
X128400000Y-97000000D03*
D14*
X128400000Y-102080000D03*
D13*
X128400000Y-99540000D03*
D15*
X154300000Y-96750000D03*
X154300000Y-98250000D03*
D13*
X128400000Y-79860000D03*
D14*
X128400000Y-82400000D03*
D16*
X151373980Y-93900000D03*
X153726020Y-93900000D03*
D17*
X138800000Y-87150000D03*
X140700000Y-87150000D03*
X139750000Y-84750000D03*
X133150000Y-87100000D03*
X135050000Y-87100000D03*
X134100000Y-84700000D03*
D18*
X139193993Y-80070255D03*
X137693993Y-80070255D03*
X133393993Y-80070255D03*
X131893993Y-80070255D03*
X139193993Y-82770255D03*
X137693993Y-82770255D03*
X133343993Y-82770255D03*
X131843993Y-82770255D03*
D15*
X154350000Y-101250000D03*
X154350000Y-102750000D03*
D18*
X148850000Y-93950000D03*
X147350000Y-93950000D03*
D19*
X147800000Y-97652040D03*
X147800000Y-101650000D03*
D15*
X141700000Y-88750000D03*
X141700000Y-90250000D03*
X131850000Y-88800000D03*
X131850000Y-90300000D03*
X140050000Y-90250000D03*
X140050000Y-88750000D03*
X133500000Y-90300000D03*
X133500000Y-88800000D03*
D18*
X148800000Y-90400000D03*
X147300000Y-90400000D03*
D20*
X133630000Y-101740000D03*
D21*
X136170000Y-101740000D03*
X138710000Y-101740000D03*
X141250000Y-101740000D03*
X143790000Y-101740000D03*
D22*
X133600000Y-97600000D03*
D23*
X136140000Y-97600000D03*
D24*
X141200000Y-82400000D03*
X141200000Y-80400000D03*
X135500000Y-82500000D03*
X135500000Y-80500000D03*
X137500000Y-89400000D03*
X137500000Y-91400000D03*
X135400000Y-89400000D03*
X135400000Y-91400000D03*
D25*
X137500008Y-84600000D03*
X135299994Y-84600000D03*
X145600000Y-99600000D03*
X137400000Y-81400016D03*
X140300000Y-94600000D03*
X139200000Y-81600000D03*
X130900000Y-83300000D03*
X141197960Y-97652040D03*
X135949998Y-87100000D03*
D26*
X139193993Y-82770255D02*
X139364248Y-82600000D01*
X139364248Y-82600000D02*
X141197718Y-82600000D01*
X141197718Y-82600000D02*
X141243993Y-82646275D01*
X139750000Y-84140268D02*
X139193993Y-83584261D01*
X139193993Y-83584261D02*
X139193993Y-82770255D01*
X137650008Y-84750000D02*
X137500008Y-84600000D01*
X139750000Y-84750000D02*
X137650008Y-84750000D01*
X139193993Y-82770255D02*
X139193993Y-82970255D01*
X139750000Y-84750000D02*
X139750000Y-84140268D01*
X134100000Y-84700000D02*
X134100000Y-84100000D01*
X134100000Y-84100000D02*
X133343993Y-83343993D01*
X133343993Y-83343993D02*
X133343993Y-82770255D01*
X135199994Y-84700000D02*
X135299994Y-84600000D01*
X134100000Y-84700000D02*
X135199994Y-84700000D01*
X133343993Y-82770255D02*
X135320013Y-82770255D01*
X135320013Y-82770255D02*
X135443993Y-82646275D01*
X138093993Y-89250000D02*
X138250000Y-89250000D01*
X138250000Y-89250000D02*
X139250000Y-90250000D01*
X139250000Y-90250000D02*
X140050000Y-90250000D01*
X138093993Y-91602040D02*
X143097960Y-91602040D01*
X143097960Y-91602040D02*
X147500000Y-87200000D01*
X147500000Y-87200000D02*
X147500000Y-84527208D01*
X147500000Y-84527208D02*
X152027208Y-80000000D01*
X152027208Y-80000000D02*
X153300000Y-80000000D01*
X133700000Y-89550000D02*
X135123980Y-89550000D01*
X135123980Y-89550000D02*
X135450000Y-89223980D01*
X133500000Y-90300000D02*
X133500000Y-89750000D01*
X133500000Y-89750000D02*
X133700000Y-89550000D01*
X151500000Y-99400000D02*
X151300000Y-99600000D01*
X151300000Y-99600000D02*
X145600000Y-99600000D01*
X154350000Y-99850000D02*
X154350000Y-99400000D01*
X154350000Y-99400000D02*
X154350000Y-98300000D01*
X151500000Y-99400000D02*
X154350000Y-99400000D01*
X154350000Y-101250000D02*
X154350000Y-99850000D01*
X154350000Y-98300000D02*
X154300000Y-98250000D01*
X137693993Y-80070255D02*
X137693993Y-80270255D01*
X151373980Y-93900000D02*
X148900000Y-93900000D01*
X148900000Y-93900000D02*
X148850000Y-93950000D01*
X133393993Y-80070255D02*
X133623738Y-80300000D01*
X133623738Y-80300000D02*
X135438228Y-80300000D01*
X135438228Y-80300000D02*
X135443993Y-80294235D01*
X128405024Y-85573844D02*
X130420146Y-85573844D01*
X130420146Y-85573844D02*
X132600000Y-83393990D01*
X132600000Y-83393990D02*
X132600000Y-81614248D01*
X132600000Y-81614248D02*
X133393993Y-80820255D01*
X133393993Y-80820255D02*
X133393993Y-80070255D01*
X133393993Y-80270255D02*
X133393993Y-80070255D01*
X139193993Y-80070255D02*
X139423738Y-80300000D01*
X139423738Y-80300000D02*
X141238228Y-80300000D01*
X141238228Y-80300000D02*
X141243993Y-80294235D01*
X128400000Y-79860000D02*
X129813492Y-79860000D01*
X129813492Y-79860000D02*
X130873492Y-78800000D01*
X130873492Y-78800000D02*
X138700000Y-78800000D01*
X138700000Y-78800000D02*
X139193993Y-79293993D01*
X139193993Y-79293993D02*
X139193993Y-80070255D01*
X133630000Y-101740000D02*
X133630000Y-101587600D01*
X133630000Y-101587600D02*
X135317600Y-99900000D01*
X135317600Y-99900000D02*
X136500000Y-99900000D01*
X136500000Y-99900000D02*
X140300000Y-96100000D01*
X140300000Y-96100000D02*
X140300000Y-94600000D01*
X140250000Y-94600000D02*
X140300000Y-94600000D01*
X138775736Y-81600000D02*
X139200000Y-81600000D01*
X138664248Y-81600000D02*
X138775736Y-81600000D01*
X137693993Y-82570255D02*
X138664248Y-81600000D01*
X137693993Y-82770255D02*
X137693993Y-82570255D01*
X130900000Y-83164248D02*
X130900000Y-83300000D01*
X131293993Y-82770255D02*
X130900000Y-83164248D01*
X131843993Y-82770255D02*
X131293993Y-82770255D01*
D27*
X130800000Y-87300000D02*
X130400000Y-87700000D01*
X130400000Y-87700000D02*
X130400000Y-90900000D01*
X130400000Y-90900000D02*
X129990000Y-91310000D01*
X129990000Y-91310000D02*
X128400000Y-91310000D01*
X140100000Y-86000000D02*
X135000000Y-86000000D01*
X135000000Y-86000000D02*
X132100000Y-86000000D01*
X135050000Y-87100000D02*
X135050000Y-86050000D01*
X135050000Y-86050000D02*
X135000000Y-86000000D01*
X140700000Y-87150000D02*
X140700000Y-86600000D01*
X140700000Y-86600000D02*
X140100000Y-86000000D01*
X132100000Y-86000000D02*
X130800000Y-87300000D01*
X136000000Y-87049998D02*
X135949998Y-87100000D01*
X138710000Y-101740000D02*
X138710000Y-100140000D01*
X138710000Y-100140000D02*
X141197960Y-97652040D01*
X141197960Y-97652040D02*
X146599570Y-97652040D01*
X146599570Y-97652040D02*
X147800000Y-97652040D01*
X135050000Y-87100000D02*
X135949998Y-87100000D01*
X154300000Y-96750000D02*
X148702040Y-96750000D01*
X148702040Y-96750000D02*
X147800000Y-97652040D01*
D26*
X147350000Y-93950000D02*
X143650000Y-93950000D01*
X143650000Y-93950000D02*
X136170000Y-101430000D01*
X136170000Y-101430000D02*
X136170000Y-101740000D01*
X140050000Y-88750000D02*
X140050000Y-88400000D01*
X140050000Y-88400000D02*
X138800000Y-87150000D01*
X140050000Y-88750000D02*
X141700000Y-88750000D01*
X133150000Y-87100000D02*
X133300000Y-87250000D01*
X133300000Y-87250000D02*
X133300000Y-88600000D01*
X133300000Y-88600000D02*
X133500000Y-88800000D01*
X131850000Y-88800000D02*
X133500000Y-88800000D01*
D27*
X128400000Y-93850000D02*
X128400000Y-95149490D01*
D28*
X128400000Y-95149490D02*
X128400000Y-97000000D01*
D26*
X148348542Y-87200000D02*
X151100000Y-87200000D01*
X151100000Y-87200000D02*
X153300000Y-85000000D01*
X142648554Y-92899988D02*
X148348542Y-87200000D01*
X136873678Y-92899988D02*
X142648554Y-92899988D01*
X135575730Y-91602040D02*
X136873678Y-92899988D01*
X135450000Y-91602040D02*
X135575730Y-91602040D01*
D29*
X133600000Y-97600000D02*
X133600000Y-95700000D01*
X153726020Y-94025730D02*
X153726020Y-93900000D01*
X153300000Y-91800000D02*
X153726020Y-92226020D01*
X148800000Y-91800000D02*
X148800000Y-90400000D01*
X135700000Y-93600000D02*
X135750000Y-93600000D01*
X153300000Y-91800000D02*
X148800000Y-91800000D01*
X142900000Y-93600000D02*
X144700000Y-91800000D01*
X135750000Y-93600000D02*
X142900000Y-93600000D01*
X133600000Y-95700000D02*
X135700000Y-93600000D01*
X153726020Y-92226020D02*
X153726020Y-93900000D01*
X144700000Y-91800000D02*
X148800000Y-91800000D01*
D30*
G36*
X128133077Y-78453850D02*
X127866377Y-78532344D01*
X127620002Y-78661146D01*
X127403337Y-78835349D01*
X127224634Y-79048318D01*
X127090701Y-79291942D01*
X127006639Y-79556940D01*
X126975649Y-79833219D01*
X126975510Y-79853108D01*
X126975510Y-79866892D01*
X127002639Y-80143577D01*
X127082993Y-80409723D01*
X127213512Y-80655193D01*
X127389224Y-80870636D01*
X127576433Y-81025510D01*
X127363575Y-81025510D01*
X127291126Y-81039921D01*
X127222881Y-81068189D01*
X127161461Y-81109229D01*
X127109228Y-81161462D01*
X127068189Y-81222881D01*
X127039921Y-81291127D01*
X127025510Y-81363576D01*
X127025510Y-82131250D01*
X127119260Y-82225000D01*
X128225000Y-82225000D01*
X128225000Y-82205000D01*
X128575000Y-82205000D01*
X128575000Y-82225000D01*
X129680740Y-82225000D01*
X129774490Y-82131250D01*
X129774490Y-81363576D01*
X129760079Y-81291127D01*
X129731811Y-81222881D01*
X129690772Y-81161462D01*
X129638539Y-81109229D01*
X129577119Y-81068189D01*
X129508874Y-81039921D01*
X129436425Y-81025510D01*
X129221470Y-81025510D01*
X129396663Y-80884651D01*
X129575366Y-80671682D01*
X129705483Y-80435000D01*
X129813492Y-80435000D01*
X129866359Y-80429816D01*
X129919264Y-80425188D01*
X129922169Y-80424344D01*
X129925177Y-80424049D01*
X129975982Y-80408710D01*
X130027028Y-80393880D01*
X130029715Y-80392487D01*
X130032607Y-80391614D01*
X130079461Y-80366701D01*
X130126660Y-80342236D01*
X130129025Y-80340348D01*
X130131550Y-80339005D01*
X131268993Y-80339005D01*
X131268993Y-80557190D01*
X131283404Y-80629639D01*
X131311672Y-80697884D01*
X131352712Y-80759304D01*
X131404945Y-80811537D01*
X131466364Y-80852576D01*
X131534610Y-80880844D01*
X131607059Y-80895255D01*
X131675243Y-80895255D01*
X131768993Y-80801505D01*
X131768993Y-80245255D01*
X132018993Y-80245255D01*
X132018993Y-80801505D01*
X132112743Y-80895255D01*
X132180927Y-80895255D01*
X132253376Y-80880844D01*
X132321622Y-80852576D01*
X132383041Y-80811537D01*
X132435274Y-80759304D01*
X132476314Y-80697884D01*
X132504582Y-80629639D01*
X132518993Y-80557190D01*
X132518993Y-80339005D01*
X132425243Y-80245255D01*
X132018993Y-80245255D01*
X131768993Y-80245255D01*
X131362743Y-80245255D01*
X131268993Y-80339005D01*
X130131550Y-80339005D01*
X130131692Y-80338930D01*
X130172853Y-80305360D01*
X130214362Y-80272223D01*
X130218565Y-80268078D01*
X130218657Y-80268003D01*
X130218727Y-80267918D01*
X130220078Y-80266586D01*
X131111665Y-79375000D01*
X131358918Y-79375000D01*
X131352712Y-79381206D01*
X131311672Y-79442626D01*
X131283404Y-79510871D01*
X131268993Y-79583320D01*
X131268993Y-79801505D01*
X131362743Y-79895255D01*
X131768993Y-79895255D01*
X131768993Y-79875255D01*
X132018993Y-79875255D01*
X132018993Y-79895255D01*
X132425243Y-79895255D01*
X132518993Y-79801505D01*
X132518993Y-79583320D01*
X132504582Y-79510871D01*
X132476314Y-79442626D01*
X132435274Y-79381206D01*
X132429068Y-79375000D01*
X132797483Y-79375000D01*
X132783228Y-79391726D01*
X132733845Y-79501280D01*
X132716937Y-79620255D01*
X132716937Y-80520255D01*
X132722334Y-80587935D01*
X132743806Y-80657270D01*
X132193414Y-81207662D01*
X132159708Y-81248696D01*
X132125560Y-81289392D01*
X132124104Y-81292041D01*
X132122184Y-81294378D01*
X132097085Y-81341187D01*
X132071497Y-81387731D01*
X132070583Y-81390614D01*
X132069154Y-81393278D01*
X132053626Y-81444068D01*
X132037565Y-81494699D01*
X132037228Y-81497704D01*
X132036344Y-81500595D01*
X132030974Y-81553457D01*
X132025056Y-81606220D01*
X132025015Y-81612125D01*
X132025003Y-81612241D01*
X132025013Y-81612349D01*
X132025000Y-81614248D01*
X132025000Y-81893199D01*
X131593993Y-81893199D01*
X131526313Y-81898596D01*
X131411521Y-81934145D01*
X131311178Y-82000267D01*
X131233228Y-82091726D01*
X131183845Y-82201280D01*
X131183157Y-82206123D01*
X131182308Y-82206206D01*
X131131474Y-82221554D01*
X131080456Y-82236375D01*
X131077768Y-82237769D01*
X131074878Y-82238641D01*
X131028003Y-82263565D01*
X130980825Y-82288020D01*
X130978464Y-82289905D01*
X130975793Y-82291325D01*
X130934604Y-82324918D01*
X130893123Y-82358032D01*
X130888915Y-82362181D01*
X130888828Y-82362252D01*
X130888761Y-82362333D01*
X130887406Y-82363669D01*
X130619865Y-82631211D01*
X130562485Y-82654394D01*
X130443514Y-82732246D01*
X130341930Y-82831724D01*
X130261604Y-82949039D01*
X130205593Y-83079721D01*
X130176032Y-83218794D01*
X130174047Y-83360960D01*
X130199713Y-83500804D01*
X130252053Y-83632999D01*
X130329073Y-83752511D01*
X130427839Y-83854787D01*
X130544590Y-83935931D01*
X130674879Y-83992852D01*
X130813742Y-84023383D01*
X130955890Y-84026361D01*
X131095910Y-84001672D01*
X131228468Y-83950256D01*
X131234199Y-83946619D01*
X130181974Y-84998844D01*
X129708591Y-84998844D01*
X129591512Y-84778651D01*
X129415800Y-84563208D01*
X129201589Y-84385996D01*
X128957036Y-84253767D01*
X128691457Y-84171557D01*
X128414969Y-84142497D01*
X128138101Y-84167694D01*
X127871401Y-84246188D01*
X127625026Y-84374990D01*
X127408361Y-84549193D01*
X127229658Y-84762162D01*
X127095725Y-85005786D01*
X127011663Y-85270784D01*
X126980673Y-85547063D01*
X126980534Y-85566952D01*
X126980534Y-85580736D01*
X127007663Y-85857421D01*
X127088017Y-86123567D01*
X127218536Y-86369037D01*
X127394248Y-86584480D01*
X127581457Y-86739354D01*
X127368599Y-86739354D01*
X127296150Y-86753765D01*
X127227905Y-86782033D01*
X127166485Y-86823073D01*
X127114252Y-86875306D01*
X127073213Y-86936725D01*
X127044945Y-87004971D01*
X127030534Y-87077420D01*
X127030534Y-87845094D01*
X127124284Y-87938844D01*
X128230024Y-87938844D01*
X128230024Y-87918844D01*
X128580024Y-87918844D01*
X128580024Y-87938844D01*
X128600024Y-87938844D01*
X128600024Y-88288844D01*
X128580024Y-88288844D01*
X128580024Y-89394584D01*
X128673774Y-89488334D01*
X129441449Y-89488334D01*
X129513898Y-89473923D01*
X129582143Y-89445655D01*
X129643563Y-89404615D01*
X129695796Y-89352382D01*
X129725000Y-89308675D01*
X129725000Y-90620406D01*
X129710406Y-90635000D01*
X129650396Y-90635000D01*
X129586488Y-90514807D01*
X129410776Y-90299364D01*
X129196565Y-90122152D01*
X128952012Y-89989923D01*
X128686433Y-89907713D01*
X128409945Y-89878653D01*
X128133077Y-89903850D01*
X127866377Y-89982344D01*
X127620002Y-90111146D01*
X127403337Y-90285349D01*
X127224634Y-90498318D01*
X127090701Y-90741942D01*
X127006639Y-91006940D01*
X126975649Y-91283219D01*
X126975510Y-91303108D01*
X126975510Y-91316892D01*
X127002639Y-91593577D01*
X127082993Y-91859723D01*
X127213512Y-92105193D01*
X127389224Y-92320636D01*
X127513509Y-92423454D01*
X127400510Y-92423454D01*
X127332830Y-92428851D01*
X127218038Y-92464400D01*
X127117695Y-92530522D01*
X127039745Y-92621981D01*
X126990362Y-92731535D01*
X126973454Y-92850510D01*
X126973454Y-94849490D01*
X126978851Y-94917170D01*
X127014400Y-95031962D01*
X127080522Y-95132305D01*
X127171981Y-95210255D01*
X127281535Y-95259638D01*
X127400510Y-95276546D01*
X127475000Y-95276546D01*
X127475000Y-95917731D01*
X127403337Y-95975349D01*
X127224634Y-96188318D01*
X127090701Y-96431942D01*
X127006639Y-96696940D01*
X126975649Y-96973219D01*
X126975510Y-96993108D01*
X126975510Y-97006892D01*
X127002639Y-97283577D01*
X127082993Y-97549723D01*
X127213512Y-97795193D01*
X127389224Y-98010636D01*
X127603435Y-98187848D01*
X127755726Y-98270191D01*
X127620002Y-98341146D01*
X127403337Y-98515349D01*
X127224634Y-98728318D01*
X127090701Y-98971942D01*
X127006639Y-99236940D01*
X126975649Y-99513219D01*
X126975510Y-99533108D01*
X126975510Y-99546892D01*
X127002639Y-99823577D01*
X127082993Y-100089723D01*
X127213512Y-100335193D01*
X127389224Y-100550636D01*
X127576433Y-100705510D01*
X127363575Y-100705510D01*
X127291126Y-100719921D01*
X127222881Y-100748189D01*
X127161461Y-100789229D01*
X127109228Y-100841462D01*
X127068189Y-100902881D01*
X127039921Y-100971127D01*
X127025510Y-101043576D01*
X127025510Y-101811250D01*
X127119260Y-101905000D01*
X128225000Y-101905000D01*
X128225000Y-101885000D01*
X128575000Y-101885000D01*
X128575000Y-101905000D01*
X129680740Y-101905000D01*
X129774490Y-101811250D01*
X129774490Y-101043576D01*
X129760079Y-100971127D01*
X129731811Y-100902881D01*
X129690772Y-100841462D01*
X129638539Y-100789229D01*
X129577119Y-100748189D01*
X129508874Y-100719921D01*
X129436425Y-100705510D01*
X129221470Y-100705510D01*
X129396663Y-100564651D01*
X129575366Y-100351682D01*
X129709299Y-100108058D01*
X129793361Y-99843060D01*
X129824351Y-99566781D01*
X129824490Y-99546892D01*
X129824490Y-99533108D01*
X129797361Y-99256423D01*
X129717007Y-98990277D01*
X129586488Y-98744807D01*
X129410776Y-98529364D01*
X129196565Y-98352152D01*
X129044274Y-98269809D01*
X129179998Y-98198854D01*
X129396663Y-98024651D01*
X129575366Y-97811682D01*
X129709299Y-97568058D01*
X129793361Y-97303060D01*
X129824351Y-97026781D01*
X129824490Y-97006892D01*
X129824490Y-96993108D01*
X129797361Y-96716423D01*
X129757381Y-96584000D01*
X132156944Y-96584000D01*
X132156944Y-98616000D01*
X132162341Y-98683680D01*
X132197890Y-98798472D01*
X132264012Y-98898815D01*
X132355471Y-98976765D01*
X132465025Y-99026148D01*
X132584000Y-99043056D01*
X134616000Y-99043056D01*
X134683680Y-99037659D01*
X134798472Y-99002110D01*
X134898815Y-98935988D01*
X134976765Y-98844529D01*
X135026148Y-98734975D01*
X135043056Y-98616000D01*
X135043056Y-98452173D01*
X135054832Y-98470236D01*
X135245458Y-98665220D01*
X135470460Y-98819269D01*
X135721193Y-98926462D01*
X135751283Y-98935583D01*
X135965000Y-98885392D01*
X135965000Y-97775000D01*
X135945000Y-97775000D01*
X135945000Y-97425000D01*
X135965000Y-97425000D01*
X135965000Y-96314608D01*
X136315000Y-96314608D01*
X136315000Y-97425000D01*
X137426205Y-97425000D01*
X137475589Y-97211282D01*
X137374091Y-96958191D01*
X137225168Y-96729764D01*
X137034542Y-96534780D01*
X136809540Y-96380731D01*
X136558807Y-96273538D01*
X136528717Y-96264417D01*
X136315000Y-96314608D01*
X135965000Y-96314608D01*
X135751283Y-96264417D01*
X135721193Y-96273538D01*
X135470460Y-96380731D01*
X135245458Y-96534780D01*
X135054832Y-96729764D01*
X135043056Y-96747827D01*
X135043056Y-96584000D01*
X135037659Y-96516320D01*
X135002110Y-96401528D01*
X134935988Y-96301185D01*
X134844529Y-96223235D01*
X134734975Y-96173852D01*
X134616000Y-96156944D01*
X134225000Y-96156944D01*
X134225000Y-95958884D01*
X135958883Y-94225000D01*
X139678064Y-94225000D01*
X139661604Y-94249039D01*
X139605593Y-94379721D01*
X139576032Y-94518794D01*
X139574047Y-94660960D01*
X139599713Y-94800804D01*
X139652053Y-94932999D01*
X139725000Y-95046191D01*
X139725000Y-95861827D01*
X137393556Y-98193271D01*
X137475589Y-97988718D01*
X137426205Y-97775000D01*
X136315000Y-97775000D01*
X136315000Y-98885392D01*
X136528717Y-98935583D01*
X136558807Y-98926462D01*
X136736208Y-98850620D01*
X136261828Y-99325000D01*
X135317600Y-99325000D01*
X135264733Y-99330184D01*
X135211828Y-99334812D01*
X135208923Y-99335656D01*
X135205915Y-99335951D01*
X135155110Y-99351290D01*
X135104064Y-99366120D01*
X135101377Y-99367513D01*
X135098485Y-99368386D01*
X135051631Y-99393299D01*
X135004432Y-99417764D01*
X135002067Y-99419652D01*
X134999400Y-99421070D01*
X134958269Y-99454615D01*
X134916730Y-99487776D01*
X134912521Y-99491927D01*
X134912435Y-99491997D01*
X134912369Y-99492076D01*
X134911014Y-99493413D01*
X134107483Y-100296944D01*
X132766400Y-100296944D01*
X132698720Y-100302341D01*
X132583928Y-100337890D01*
X132483585Y-100404012D01*
X132405635Y-100495471D01*
X132356252Y-100605025D01*
X132339344Y-100724000D01*
X132339344Y-102756000D01*
X132344741Y-102823680D01*
X132380290Y-102938472D01*
X132446412Y-103038815D01*
X132537871Y-103116765D01*
X132647425Y-103166148D01*
X132766400Y-103183056D01*
X134493600Y-103183056D01*
X134561280Y-103177659D01*
X134676072Y-103142110D01*
X134776415Y-103075988D01*
X134854365Y-102984529D01*
X134903748Y-102874975D01*
X134920656Y-102756000D01*
X134920656Y-102198400D01*
X134978630Y-102390419D01*
X135096698Y-102612472D01*
X135255647Y-102807364D01*
X135449424Y-102967670D01*
X135670647Y-103087285D01*
X135910891Y-103161653D01*
X136161004Y-103187941D01*
X136411460Y-103165147D01*
X136652718Y-103094141D01*
X136875590Y-102977626D01*
X137071586Y-102820041D01*
X137233241Y-102627388D01*
X137354398Y-102407006D01*
X137430441Y-102167287D01*
X137439634Y-102085333D01*
X137445941Y-102149662D01*
X137518630Y-102390419D01*
X137636698Y-102612472D01*
X137795647Y-102807364D01*
X137989424Y-102967670D01*
X138210647Y-103087285D01*
X138450891Y-103161653D01*
X138701004Y-103187941D01*
X138951460Y-103165147D01*
X139192718Y-103094141D01*
X139415590Y-102977626D01*
X139611586Y-102820041D01*
X139773241Y-102627388D01*
X139894398Y-102407006D01*
X139970441Y-102167287D01*
X139979634Y-102085333D01*
X139985941Y-102149662D01*
X140058630Y-102390419D01*
X140176698Y-102612472D01*
X140335647Y-102807364D01*
X140529424Y-102967670D01*
X140750647Y-103087285D01*
X140990891Y-103161653D01*
X141241004Y-103187941D01*
X141491460Y-103165147D01*
X141732718Y-103094141D01*
X141955590Y-102977626D01*
X142151586Y-102820041D01*
X142313241Y-102627388D01*
X142434398Y-102407006D01*
X142510441Y-102167287D01*
X142517064Y-102108232D01*
X142571762Y-102108232D01*
X142637277Y-102341751D01*
X142747090Y-102558002D01*
X142896982Y-102748674D01*
X143081192Y-102906440D01*
X143292641Y-103025237D01*
X143425339Y-103076103D01*
X143615000Y-103023796D01*
X143615000Y-101915000D01*
X143965000Y-101915000D01*
X143965000Y-103023796D01*
X144154661Y-103076103D01*
X144287359Y-103025237D01*
X144498808Y-102906440D01*
X144683018Y-102748674D01*
X144832910Y-102558002D01*
X144942723Y-102341751D01*
X145008238Y-102108232D01*
X144934709Y-101918750D01*
X146524570Y-101918750D01*
X146524570Y-102936614D01*
X146538981Y-103009063D01*
X146567249Y-103077309D01*
X146608288Y-103138728D01*
X146660521Y-103190961D01*
X146721941Y-103232001D01*
X146790186Y-103260269D01*
X146862635Y-103274680D01*
X147531250Y-103274680D01*
X147625000Y-103180930D01*
X147625000Y-101825000D01*
X147975000Y-101825000D01*
X147975000Y-103180930D01*
X148068750Y-103274680D01*
X148737365Y-103274680D01*
X148809814Y-103260269D01*
X148878059Y-103232001D01*
X148939479Y-103190961D01*
X148991712Y-103138728D01*
X149032751Y-103077309D01*
X149061019Y-103009063D01*
X149075430Y-102936614D01*
X149075430Y-102668750D01*
X150325000Y-102668750D01*
X150325000Y-102936934D01*
X150339411Y-103009383D01*
X150367679Y-103077629D01*
X150408718Y-103139048D01*
X150460951Y-103191281D01*
X150522371Y-103232321D01*
X150590616Y-103260589D01*
X150663065Y-103275000D01*
X151231250Y-103275000D01*
X151325000Y-103181250D01*
X151325000Y-102575000D01*
X151675000Y-102575000D01*
X151675000Y-103181250D01*
X151768750Y-103275000D01*
X152336935Y-103275000D01*
X152409384Y-103260589D01*
X152477629Y-103232321D01*
X152539049Y-103191281D01*
X152591282Y-103139048D01*
X152632321Y-103077629D01*
X152660589Y-103009383D01*
X152668671Y-102968750D01*
X153525000Y-102968750D01*
X153525000Y-103036934D01*
X153539411Y-103109383D01*
X153567679Y-103177629D01*
X153608718Y-103239048D01*
X153660951Y-103291281D01*
X153722371Y-103332321D01*
X153790616Y-103360589D01*
X153863065Y-103375000D01*
X154081250Y-103375000D01*
X154175000Y-103281250D01*
X154175000Y-102875000D01*
X154525000Y-102875000D01*
X154525000Y-103281250D01*
X154618750Y-103375000D01*
X154836935Y-103375000D01*
X154909384Y-103360589D01*
X154977629Y-103332321D01*
X155039049Y-103291281D01*
X155091282Y-103239048D01*
X155132321Y-103177629D01*
X155160589Y-103109383D01*
X155175000Y-103036934D01*
X155175000Y-102968750D01*
X155081250Y-102875000D01*
X154525000Y-102875000D01*
X154175000Y-102875000D01*
X153618750Y-102875000D01*
X153525000Y-102968750D01*
X152668671Y-102968750D01*
X152675000Y-102936934D01*
X152675000Y-102668750D01*
X152581250Y-102575000D01*
X151675000Y-102575000D01*
X151325000Y-102575000D01*
X150418750Y-102575000D01*
X150325000Y-102668750D01*
X149075430Y-102668750D01*
X149075430Y-102463066D01*
X153525000Y-102463066D01*
X153525000Y-102531250D01*
X153618750Y-102625000D01*
X154175000Y-102625000D01*
X154175000Y-102218750D01*
X154525000Y-102218750D01*
X154525000Y-102625000D01*
X155081250Y-102625000D01*
X155175000Y-102531250D01*
X155175000Y-102463066D01*
X155160589Y-102390617D01*
X155132321Y-102322371D01*
X155091282Y-102260952D01*
X155039049Y-102208719D01*
X154977629Y-102167679D01*
X154909384Y-102139411D01*
X154836935Y-102125000D01*
X154618750Y-102125000D01*
X154525000Y-102218750D01*
X154175000Y-102218750D01*
X154081250Y-102125000D01*
X153863065Y-102125000D01*
X153790616Y-102139411D01*
X153722371Y-102167679D01*
X153660951Y-102208719D01*
X153608718Y-102260952D01*
X153567679Y-102322371D01*
X153539411Y-102390617D01*
X153525000Y-102463066D01*
X149075430Y-102463066D01*
X149075430Y-101918750D01*
X149019746Y-101863066D01*
X150325000Y-101863066D01*
X150325000Y-102131250D01*
X150418750Y-102225000D01*
X151325000Y-102225000D01*
X151325000Y-101618750D01*
X151675000Y-101618750D01*
X151675000Y-102225000D01*
X152581250Y-102225000D01*
X152675000Y-102131250D01*
X152675000Y-101863066D01*
X152660589Y-101790617D01*
X152632321Y-101722371D01*
X152591282Y-101660952D01*
X152539049Y-101608719D01*
X152477629Y-101567679D01*
X152409384Y-101539411D01*
X152336935Y-101525000D01*
X151768750Y-101525000D01*
X151675000Y-101618750D01*
X151325000Y-101618750D01*
X151231250Y-101525000D01*
X150663065Y-101525000D01*
X150590616Y-101539411D01*
X150522371Y-101567679D01*
X150460951Y-101608719D01*
X150408718Y-101660952D01*
X150367679Y-101722371D01*
X150339411Y-101790617D01*
X150325000Y-101863066D01*
X149019746Y-101863066D01*
X148981680Y-101825000D01*
X147975000Y-101825000D01*
X147625000Y-101825000D01*
X146618320Y-101825000D01*
X146524570Y-101918750D01*
X144934709Y-101918750D01*
X144933253Y-101915000D01*
X143965000Y-101915000D01*
X143615000Y-101915000D01*
X142646747Y-101915000D01*
X142571762Y-102108232D01*
X142517064Y-102108232D01*
X142538474Y-101917364D01*
X142538600Y-101899372D01*
X142538600Y-101580628D01*
X142518122Y-101371768D01*
X142571762Y-101371768D01*
X142646747Y-101565000D01*
X143615000Y-101565000D01*
X143615000Y-100456204D01*
X143965000Y-100456204D01*
X143965000Y-101565000D01*
X144933253Y-101565000D01*
X145008238Y-101371768D01*
X144942723Y-101138249D01*
X144832910Y-100921998D01*
X144683018Y-100731326D01*
X144498808Y-100573560D01*
X144287359Y-100454763D01*
X144154661Y-100403897D01*
X143965000Y-100456204D01*
X143615000Y-100456204D01*
X143425339Y-100403897D01*
X143292641Y-100454763D01*
X143081192Y-100573560D01*
X142896982Y-100731326D01*
X142747090Y-100921998D01*
X142637277Y-101138249D01*
X142571762Y-101371768D01*
X142518122Y-101371768D01*
X142514059Y-101330338D01*
X142441370Y-101089581D01*
X142323302Y-100867528D01*
X142164353Y-100672636D01*
X141970576Y-100512330D01*
X141749353Y-100392715D01*
X141509109Y-100318347D01*
X141258996Y-100292059D01*
X141008540Y-100314853D01*
X140767282Y-100385859D01*
X140544410Y-100502374D01*
X140348414Y-100659959D01*
X140186759Y-100852612D01*
X140065602Y-101072994D01*
X139989559Y-101312713D01*
X139980366Y-101394667D01*
X139974059Y-101330338D01*
X139901370Y-101089581D01*
X139783302Y-100867528D01*
X139624353Y-100672636D01*
X139430576Y-100512330D01*
X139385000Y-100487687D01*
X139385000Y-100419594D01*
X141477554Y-98327040D01*
X146472514Y-98327040D01*
X146472514Y-98901720D01*
X146477911Y-98969400D01*
X146495129Y-99025000D01*
X146044094Y-99025000D01*
X145946496Y-98959169D01*
X145815426Y-98904072D01*
X145676150Y-98875483D01*
X145533973Y-98874490D01*
X145394312Y-98901132D01*
X145262485Y-98954394D01*
X145143514Y-99032246D01*
X145041930Y-99131724D01*
X144961604Y-99249039D01*
X144905593Y-99379721D01*
X144876032Y-99518794D01*
X144874047Y-99660960D01*
X144899713Y-99800804D01*
X144952053Y-99932999D01*
X145029073Y-100052511D01*
X145127839Y-100154787D01*
X145244590Y-100235931D01*
X145374879Y-100292852D01*
X145513742Y-100323383D01*
X145655890Y-100326361D01*
X145795910Y-100301672D01*
X145928468Y-100250256D01*
X146047052Y-100175000D01*
X146599115Y-100175000D01*
X146567249Y-100222691D01*
X146538981Y-100290937D01*
X146524570Y-100363386D01*
X146524570Y-101381250D01*
X146618320Y-101475000D01*
X147625000Y-101475000D01*
X147625000Y-101455000D01*
X147975000Y-101455000D01*
X147975000Y-101475000D01*
X148981680Y-101475000D01*
X149075430Y-101381250D01*
X149075430Y-100363386D01*
X149061019Y-100290937D01*
X149032751Y-100222691D01*
X149000885Y-100175000D01*
X150374862Y-100175000D01*
X150380012Y-100182815D01*
X150471471Y-100260765D01*
X150581025Y-100310148D01*
X150700000Y-100327056D01*
X152300000Y-100327056D01*
X152367680Y-100321659D01*
X152482472Y-100286110D01*
X152582815Y-100219988D01*
X152660765Y-100128529D01*
X152710148Y-100018975D01*
X152716397Y-99975000D01*
X153775000Y-99975000D01*
X153775000Y-100596092D01*
X153717528Y-100613890D01*
X153617185Y-100680012D01*
X153539235Y-100771471D01*
X153489852Y-100881025D01*
X153472944Y-101000000D01*
X153472944Y-101500000D01*
X153478341Y-101567680D01*
X153513890Y-101682472D01*
X153580012Y-101782815D01*
X153671471Y-101860765D01*
X153781025Y-101910148D01*
X153900000Y-101927056D01*
X154800000Y-101927056D01*
X154867680Y-101921659D01*
X154982472Y-101886110D01*
X155082815Y-101819988D01*
X155160765Y-101728529D01*
X155210148Y-101618975D01*
X155227056Y-101500000D01*
X155227056Y-101000000D01*
X155221659Y-100932320D01*
X155186110Y-100817528D01*
X155119988Y-100717185D01*
X155028529Y-100639235D01*
X154925000Y-100592568D01*
X154925000Y-98888424D01*
X154932472Y-98886110D01*
X155032815Y-98819988D01*
X155110765Y-98728529D01*
X155160148Y-98618975D01*
X155177056Y-98500000D01*
X155177056Y-98000000D01*
X155171659Y-97932320D01*
X155136110Y-97817528D01*
X155069988Y-97717185D01*
X154978529Y-97639235D01*
X154868975Y-97589852D01*
X154750000Y-97572944D01*
X153850000Y-97572944D01*
X153782320Y-97578341D01*
X153667528Y-97613890D01*
X153567185Y-97680012D01*
X153489235Y-97771471D01*
X153439852Y-97881025D01*
X153422944Y-98000000D01*
X153422944Y-98500000D01*
X153428341Y-98567680D01*
X153463890Y-98682472D01*
X153530012Y-98782815D01*
X153579508Y-98825000D01*
X152719392Y-98825000D01*
X152686110Y-98717528D01*
X152619988Y-98617185D01*
X152528529Y-98539235D01*
X152418975Y-98489852D01*
X152300000Y-98472944D01*
X150700000Y-98472944D01*
X150632320Y-98478341D01*
X150517528Y-98513890D01*
X150417185Y-98580012D01*
X150339235Y-98671471D01*
X150289852Y-98781025D01*
X150272944Y-98900000D01*
X150272944Y-99025000D01*
X149108637Y-99025000D01*
X149110578Y-99020695D01*
X149127486Y-98901720D01*
X149127486Y-97425000D01*
X153835533Y-97425000D01*
X153850000Y-97427056D01*
X154750000Y-97427056D01*
X154817680Y-97421659D01*
X154932472Y-97386110D01*
X155032815Y-97319988D01*
X155110765Y-97228529D01*
X155160148Y-97118975D01*
X155177056Y-97000000D01*
X155177056Y-96500000D01*
X155171659Y-96432320D01*
X155136110Y-96317528D01*
X155069988Y-96217185D01*
X154978529Y-96139235D01*
X154868975Y-96089852D01*
X154750000Y-96072944D01*
X153850000Y-96072944D01*
X153824217Y-96075000D01*
X148968153Y-96075000D01*
X148928959Y-96041595D01*
X148819405Y-95992212D01*
X148700430Y-95975304D01*
X146899570Y-95975304D01*
X146831890Y-95980701D01*
X146717098Y-96016250D01*
X146616755Y-96082372D01*
X146538805Y-96173831D01*
X146489422Y-96283385D01*
X146472514Y-96402360D01*
X146472514Y-96977040D01*
X141463172Y-96977040D01*
X141444135Y-96969038D01*
X143888173Y-94525000D01*
X146696092Y-94525000D01*
X146713890Y-94582472D01*
X146780012Y-94682815D01*
X146871471Y-94760765D01*
X146981025Y-94810148D01*
X147100000Y-94827056D01*
X147600000Y-94827056D01*
X147667680Y-94821659D01*
X147782472Y-94786110D01*
X147882815Y-94719988D01*
X147960765Y-94628529D01*
X148010148Y-94518975D01*
X148027056Y-94400000D01*
X148027056Y-93500000D01*
X148021659Y-93432320D01*
X147986110Y-93317528D01*
X147919988Y-93217185D01*
X147828529Y-93139235D01*
X147718975Y-93089852D01*
X147600000Y-93072944D01*
X147100000Y-93072944D01*
X147032320Y-93078341D01*
X146917528Y-93113890D01*
X146817185Y-93180012D01*
X146739235Y-93271471D01*
X146692568Y-93375000D01*
X144008884Y-93375000D01*
X144958883Y-92425000D01*
X153041116Y-92425000D01*
X153101020Y-92484904D01*
X153101020Y-92572514D01*
X152951320Y-92572514D01*
X152883640Y-92577911D01*
X152768848Y-92613460D01*
X152668505Y-92679582D01*
X152590555Y-92771041D01*
X152549045Y-92863129D01*
X152534790Y-92817098D01*
X152468668Y-92716755D01*
X152377209Y-92638805D01*
X152267655Y-92589422D01*
X152148680Y-92572514D01*
X150599280Y-92572514D01*
X150531600Y-92577911D01*
X150416808Y-92613460D01*
X150316465Y-92679582D01*
X150238515Y-92771041D01*
X150189132Y-92880595D01*
X150172224Y-92999570D01*
X150172224Y-93325000D01*
X149488424Y-93325000D01*
X149486110Y-93317528D01*
X149419988Y-93217185D01*
X149328529Y-93139235D01*
X149218975Y-93089852D01*
X149100000Y-93072944D01*
X148600000Y-93072944D01*
X148532320Y-93078341D01*
X148417528Y-93113890D01*
X148317185Y-93180012D01*
X148239235Y-93271471D01*
X148189852Y-93381025D01*
X148172944Y-93500000D01*
X148172944Y-94400000D01*
X148178341Y-94467680D01*
X148213890Y-94582472D01*
X148280012Y-94682815D01*
X148371471Y-94760765D01*
X148481025Y-94810148D01*
X148600000Y-94827056D01*
X149100000Y-94827056D01*
X149167680Y-94821659D01*
X149282472Y-94786110D01*
X149382815Y-94719988D01*
X149460765Y-94628529D01*
X149510148Y-94518975D01*
X149516397Y-94475000D01*
X150172224Y-94475000D01*
X150172224Y-94800430D01*
X150177621Y-94868110D01*
X150213170Y-94982902D01*
X150279292Y-95083245D01*
X150370751Y-95161195D01*
X150480305Y-95210578D01*
X150599280Y-95227486D01*
X152148680Y-95227486D01*
X152216360Y-95222089D01*
X152331152Y-95186540D01*
X152431495Y-95120418D01*
X152509445Y-95028959D01*
X152550955Y-94936871D01*
X152565210Y-94982902D01*
X152631332Y-95083245D01*
X152722791Y-95161195D01*
X152832345Y-95210578D01*
X152951320Y-95227486D01*
X154500720Y-95227486D01*
X154568400Y-95222089D01*
X154683192Y-95186540D01*
X154783535Y-95120418D01*
X154861485Y-95028959D01*
X154910868Y-94919405D01*
X154927776Y-94800430D01*
X154927776Y-92999570D01*
X154922379Y-92931890D01*
X154886830Y-92817098D01*
X154820708Y-92716755D01*
X154729249Y-92638805D01*
X154619695Y-92589422D01*
X154500720Y-92572514D01*
X154351020Y-92572514D01*
X154351020Y-92226020D01*
X154345385Y-92168552D01*
X154340354Y-92111050D01*
X154339438Y-92107897D01*
X154339117Y-92104624D01*
X154322435Y-92049370D01*
X154306324Y-91993915D01*
X154304810Y-91990994D01*
X154303861Y-91987851D01*
X154276757Y-91936876D01*
X154250189Y-91885621D01*
X154248141Y-91883055D01*
X154246596Y-91880150D01*
X154210100Y-91835402D01*
X154174089Y-91790291D01*
X154169576Y-91785714D01*
X154169502Y-91785624D01*
X154169418Y-91785555D01*
X154167962Y-91784078D01*
X153741942Y-91358058D01*
X153697312Y-91321399D01*
X153653104Y-91284304D01*
X153650225Y-91282721D01*
X153647685Y-91280635D01*
X153596853Y-91253379D01*
X153546214Y-91225540D01*
X153543076Y-91224544D01*
X153540184Y-91222994D01*
X153484990Y-91206119D01*
X153429945Y-91188658D01*
X153426683Y-91188292D01*
X153423536Y-91187330D01*
X153366063Y-91181492D01*
X153308726Y-91175061D01*
X153302301Y-91175016D01*
X153302182Y-91175004D01*
X153302071Y-91175014D01*
X153300000Y-91175000D01*
X149425000Y-91175000D01*
X149425000Y-91046949D01*
X149460148Y-90968975D01*
X149477056Y-90850000D01*
X149477056Y-89950000D01*
X149471659Y-89882320D01*
X149436110Y-89767528D01*
X149369988Y-89667185D01*
X149278529Y-89589235D01*
X149168975Y-89539852D01*
X149050000Y-89522944D01*
X148550000Y-89522944D01*
X148482320Y-89528341D01*
X148367528Y-89563890D01*
X148267185Y-89630012D01*
X148189235Y-89721471D01*
X148139852Y-89831025D01*
X148122944Y-89950000D01*
X148122944Y-90850000D01*
X148128341Y-90917680D01*
X148163890Y-91032472D01*
X148175000Y-91049332D01*
X148175000Y-91175000D01*
X147738586Y-91175000D01*
X147789048Y-91141282D01*
X147841281Y-91089049D01*
X147882321Y-91027629D01*
X147910589Y-90959384D01*
X147925000Y-90886935D01*
X147925000Y-90668750D01*
X147831250Y-90575000D01*
X147425000Y-90575000D01*
X147425000Y-90595000D01*
X147175000Y-90595000D01*
X147175000Y-90575000D01*
X146768750Y-90575000D01*
X146675000Y-90668750D01*
X146675000Y-90886935D01*
X146689411Y-90959384D01*
X146717679Y-91027629D01*
X146758719Y-91089049D01*
X146810952Y-91141282D01*
X146861414Y-91175000D01*
X145186714Y-91175000D01*
X146448649Y-89913065D01*
X146675000Y-89913065D01*
X146675000Y-90131250D01*
X146768750Y-90225000D01*
X147175000Y-90225000D01*
X147175000Y-89668750D01*
X147425000Y-89668750D01*
X147425000Y-90225000D01*
X147831250Y-90225000D01*
X147925000Y-90131250D01*
X147925000Y-89913065D01*
X147910589Y-89840616D01*
X147882321Y-89772371D01*
X147841281Y-89710951D01*
X147789048Y-89658718D01*
X147727629Y-89617679D01*
X147659383Y-89589411D01*
X147586934Y-89575000D01*
X147518750Y-89575000D01*
X147425000Y-89668750D01*
X147175000Y-89668750D01*
X147081250Y-89575000D01*
X147013066Y-89575000D01*
X146940617Y-89589411D01*
X146872371Y-89617679D01*
X146810952Y-89658718D01*
X146758719Y-89710951D01*
X146717679Y-89772371D01*
X146689411Y-89840616D01*
X146675000Y-89913065D01*
X146448649Y-89913065D01*
X148586715Y-87775000D01*
X151100000Y-87775000D01*
X151152867Y-87769816D01*
X151205772Y-87765188D01*
X151208677Y-87764344D01*
X151211685Y-87764049D01*
X151262490Y-87748710D01*
X151313536Y-87733880D01*
X151316223Y-87732487D01*
X151319115Y-87731614D01*
X151365969Y-87706701D01*
X151413168Y-87682236D01*
X151415533Y-87680348D01*
X151418200Y-87678930D01*
X151459361Y-87645360D01*
X151500870Y-87612223D01*
X151505073Y-87608078D01*
X151505165Y-87608003D01*
X151505235Y-87607918D01*
X151506586Y-87606586D01*
X152859588Y-86253585D01*
X152888571Y-86266247D01*
X153142356Y-86322045D01*
X153402145Y-86327487D01*
X153658043Y-86282365D01*
X153900303Y-86188399D01*
X154119698Y-86049166D01*
X154307872Y-85869971D01*
X154457655Y-85657640D01*
X154563344Y-85420259D01*
X154620912Y-85166870D01*
X154625057Y-84870077D01*
X154574586Y-84615180D01*
X154475566Y-84374940D01*
X154331770Y-84158509D01*
X154148673Y-83974130D01*
X153933251Y-83828826D01*
X153693709Y-83728132D01*
X153439170Y-83675883D01*
X153179331Y-83674069D01*
X152924087Y-83722759D01*
X152683163Y-83820099D01*
X152465733Y-83962381D01*
X152280080Y-84144186D01*
X152133276Y-84358588D01*
X152030911Y-84597421D01*
X151976886Y-84851589D01*
X151973258Y-85111410D01*
X152020166Y-85366987D01*
X152048437Y-85438391D01*
X150861828Y-86625000D01*
X148348542Y-86625000D01*
X148295629Y-86630188D01*
X148242770Y-86634813D01*
X148239870Y-86635656D01*
X148236857Y-86635951D01*
X148186023Y-86651299D01*
X148135005Y-86666120D01*
X148132317Y-86667514D01*
X148129427Y-86668386D01*
X148082552Y-86693310D01*
X148075000Y-86697224D01*
X148075000Y-84765380D01*
X148309379Y-84531001D01*
X148280911Y-84597421D01*
X148226886Y-84851589D01*
X148223258Y-85111410D01*
X148270166Y-85366987D01*
X148365821Y-85608585D01*
X148506582Y-85827003D01*
X148687086Y-86013920D01*
X148900458Y-86162218D01*
X149138571Y-86266247D01*
X149392356Y-86322045D01*
X149652145Y-86327487D01*
X149908043Y-86282365D01*
X150150303Y-86188399D01*
X150369698Y-86049166D01*
X150557872Y-85869971D01*
X150707655Y-85657640D01*
X150813344Y-85420259D01*
X150870912Y-85166870D01*
X150875057Y-84870077D01*
X150824586Y-84615180D01*
X150725566Y-84374940D01*
X150581770Y-84158509D01*
X150398673Y-83974130D01*
X150183251Y-83828826D01*
X149943709Y-83728132D01*
X149689170Y-83675883D01*
X149429331Y-83674069D01*
X149174087Y-83722759D01*
X149079341Y-83761039D01*
X152161271Y-80679109D01*
X152256582Y-80827003D01*
X152437086Y-81013920D01*
X152650458Y-81162218D01*
X152888571Y-81266247D01*
X153142356Y-81322045D01*
X153402145Y-81327487D01*
X153658043Y-81282365D01*
X153900303Y-81188399D01*
X154119698Y-81049166D01*
X154307872Y-80869971D01*
X154457655Y-80657640D01*
X154563344Y-80420259D01*
X154620912Y-80166870D01*
X154625057Y-79870077D01*
X154574586Y-79615180D01*
X154475566Y-79374940D01*
X154331770Y-79158509D01*
X154148673Y-78974130D01*
X153933251Y-78828826D01*
X153693709Y-78728132D01*
X153439170Y-78675883D01*
X153179331Y-78674069D01*
X152924087Y-78722759D01*
X152683163Y-78820099D01*
X152465733Y-78962381D01*
X152280080Y-79144186D01*
X152133276Y-79358588D01*
X152104811Y-79425000D01*
X152027208Y-79425000D01*
X151974341Y-79430184D01*
X151921436Y-79434812D01*
X151918531Y-79435656D01*
X151915523Y-79435951D01*
X151864718Y-79451290D01*
X151813672Y-79466120D01*
X151810985Y-79467513D01*
X151808093Y-79468386D01*
X151761239Y-79493299D01*
X151714040Y-79517764D01*
X151711675Y-79519652D01*
X151709008Y-79521070D01*
X151667847Y-79554640D01*
X151626338Y-79587777D01*
X151622135Y-79591922D01*
X151622043Y-79591997D01*
X151621973Y-79592082D01*
X151620622Y-79593414D01*
X150819096Y-80394940D01*
X150870912Y-80166870D01*
X150875057Y-79870077D01*
X150824586Y-79615180D01*
X150725566Y-79374940D01*
X150581770Y-79158509D01*
X150398673Y-78974130D01*
X150183251Y-78828826D01*
X149943709Y-78728132D01*
X149689170Y-78675883D01*
X149429331Y-78674069D01*
X149174087Y-78722759D01*
X148933163Y-78820099D01*
X148715733Y-78962381D01*
X148530080Y-79144186D01*
X148383276Y-79358588D01*
X148280911Y-79597421D01*
X148226886Y-79851589D01*
X148223258Y-80111410D01*
X148270166Y-80366987D01*
X148365821Y-80608585D01*
X148506582Y-80827003D01*
X148687086Y-81013920D01*
X148900458Y-81162218D01*
X149138571Y-81266247D01*
X149392356Y-81322045D01*
X149652145Y-81327487D01*
X149908043Y-81282365D01*
X149946643Y-81267393D01*
X147093414Y-84120622D01*
X147059708Y-84161656D01*
X147025560Y-84202352D01*
X147024104Y-84205001D01*
X147022184Y-84207338D01*
X146997085Y-84254147D01*
X146971497Y-84300691D01*
X146970583Y-84303574D01*
X146969154Y-84306238D01*
X146956790Y-84346680D01*
X146831770Y-84158509D01*
X146648673Y-83974130D01*
X146433251Y-83828826D01*
X146193709Y-83728132D01*
X145939170Y-83675883D01*
X145679331Y-83674069D01*
X145424087Y-83722759D01*
X145183163Y-83820099D01*
X144965733Y-83962381D01*
X144780080Y-84144186D01*
X144633276Y-84358588D01*
X144530911Y-84597421D01*
X144476886Y-84851589D01*
X144473258Y-85111410D01*
X144520166Y-85366987D01*
X144615821Y-85608585D01*
X144756582Y-85827003D01*
X144937086Y-86013920D01*
X145150458Y-86162218D01*
X145388571Y-86266247D01*
X145642356Y-86322045D01*
X145902145Y-86327487D01*
X146158043Y-86282365D01*
X146400303Y-86188399D01*
X146619698Y-86049166D01*
X146807872Y-85869971D01*
X146925000Y-85703931D01*
X146925000Y-86961827D01*
X142859788Y-91027040D01*
X138552056Y-91027040D01*
X138552056Y-90900000D01*
X138546659Y-90832320D01*
X138511110Y-90717528D01*
X138444988Y-90617185D01*
X138353529Y-90539235D01*
X138243975Y-90489852D01*
X138125000Y-90472944D01*
X136875000Y-90472944D01*
X136807320Y-90478341D01*
X136692528Y-90513890D01*
X136592185Y-90580012D01*
X136514235Y-90671471D01*
X136464852Y-90781025D01*
X136450578Y-90881466D01*
X136446659Y-90832320D01*
X136411110Y-90717528D01*
X136344988Y-90617185D01*
X136253529Y-90539235D01*
X136143975Y-90489852D01*
X136025000Y-90472944D01*
X134775000Y-90472944D01*
X134707320Y-90478341D01*
X134592528Y-90513890D01*
X134492185Y-90580012D01*
X134414235Y-90671471D01*
X134364852Y-90781025D01*
X134347944Y-90900000D01*
X134347944Y-91900000D01*
X134353341Y-91967680D01*
X134388890Y-92082472D01*
X134455012Y-92182815D01*
X134546471Y-92260765D01*
X134656025Y-92310148D01*
X134775000Y-92327056D01*
X135487574Y-92327056D01*
X136135517Y-92975000D01*
X135700000Y-92975000D01*
X135642487Y-92980639D01*
X135585030Y-92985666D01*
X135581877Y-92986582D01*
X135578604Y-92986903D01*
X135523350Y-93003585D01*
X135467895Y-93019696D01*
X135464974Y-93021210D01*
X135461831Y-93022159D01*
X135410856Y-93049263D01*
X135359601Y-93075831D01*
X135357035Y-93077879D01*
X135354130Y-93079424D01*
X135309351Y-93115945D01*
X135264271Y-93151932D01*
X135259700Y-93156440D01*
X135259604Y-93156518D01*
X135259530Y-93156607D01*
X135258058Y-93158059D01*
X133158058Y-95258058D01*
X133121399Y-95302688D01*
X133084304Y-95346896D01*
X133082721Y-95349775D01*
X133080635Y-95352315D01*
X133053379Y-95403147D01*
X133025540Y-95453786D01*
X133024544Y-95456924D01*
X133022994Y-95459816D01*
X133006119Y-95515010D01*
X132988658Y-95570055D01*
X132988292Y-95573317D01*
X132987330Y-95576464D01*
X132981492Y-95633937D01*
X132975061Y-95691274D01*
X132975016Y-95697699D01*
X132975004Y-95697818D01*
X132975014Y-95697929D01*
X132975000Y-95700000D01*
X132975000Y-96156944D01*
X132584000Y-96156944D01*
X132516320Y-96162341D01*
X132401528Y-96197890D01*
X132301185Y-96264012D01*
X132223235Y-96355471D01*
X132173852Y-96465025D01*
X132156944Y-96584000D01*
X129757381Y-96584000D01*
X129717007Y-96450277D01*
X129586488Y-96204807D01*
X129410776Y-95989364D01*
X129325000Y-95918403D01*
X129325000Y-95276546D01*
X129399490Y-95276546D01*
X129467170Y-95271149D01*
X129581962Y-95235600D01*
X129682305Y-95169478D01*
X129760255Y-95078019D01*
X129809638Y-94968465D01*
X129826546Y-94849490D01*
X129826546Y-92850510D01*
X129821149Y-92782830D01*
X129785600Y-92668038D01*
X129719478Y-92567695D01*
X129628019Y-92489745D01*
X129518465Y-92440362D01*
X129399490Y-92423454D01*
X129286214Y-92423454D01*
X129396663Y-92334651D01*
X129575366Y-92121682D01*
X129650507Y-91985000D01*
X129990000Y-91985000D01*
X130052031Y-91978918D01*
X130114167Y-91973482D01*
X130117577Y-91972491D01*
X130121108Y-91972145D01*
X130180808Y-91954121D01*
X130240673Y-91936728D01*
X130243822Y-91935096D01*
X130247223Y-91934069D01*
X130302278Y-91904796D01*
X130357632Y-91876103D01*
X130360408Y-91873887D01*
X130363539Y-91872222D01*
X130411829Y-91832838D01*
X130460587Y-91793914D01*
X130465528Y-91789042D01*
X130465628Y-91788960D01*
X130465705Y-91788867D01*
X130467297Y-91787297D01*
X130877297Y-91377297D01*
X130916870Y-91329121D01*
X130956952Y-91281353D01*
X130958661Y-91278243D01*
X130960915Y-91275500D01*
X130990407Y-91220498D01*
X131020416Y-91165911D01*
X131021488Y-91162533D01*
X131023168Y-91159399D01*
X131041412Y-91099725D01*
X131060250Y-91040340D01*
X131060646Y-91036812D01*
X131061683Y-91033419D01*
X131067984Y-90971385D01*
X131074934Y-90909424D01*
X131074983Y-90902488D01*
X131074996Y-90902356D01*
X131074984Y-90902233D01*
X131075000Y-90900000D01*
X131075000Y-90738586D01*
X131108718Y-90789048D01*
X131160951Y-90841281D01*
X131222371Y-90882321D01*
X131290616Y-90910589D01*
X131363065Y-90925000D01*
X131581250Y-90925000D01*
X131675000Y-90831250D01*
X131675000Y-90425000D01*
X131655000Y-90425000D01*
X131655000Y-90175000D01*
X131675000Y-90175000D01*
X131675000Y-89768750D01*
X131581250Y-89675000D01*
X131363065Y-89675000D01*
X131290616Y-89689411D01*
X131222371Y-89717679D01*
X131160951Y-89758719D01*
X131108718Y-89810952D01*
X131075000Y-89861414D01*
X131075000Y-89325209D01*
X131080012Y-89332815D01*
X131171471Y-89410765D01*
X131281025Y-89460148D01*
X131400000Y-89477056D01*
X132300000Y-89477056D01*
X132367680Y-89471659D01*
X132482472Y-89436110D01*
X132575209Y-89375000D01*
X132779508Y-89375000D01*
X132821471Y-89410765D01*
X132931025Y-89460148D01*
X133000773Y-89470060D01*
X132997085Y-89476939D01*
X132971497Y-89523483D01*
X132970583Y-89526366D01*
X132969154Y-89529030D01*
X132953626Y-89579820D01*
X132937565Y-89630451D01*
X132937228Y-89633456D01*
X132936344Y-89636347D01*
X132935690Y-89642781D01*
X132867528Y-89663890D01*
X132767185Y-89730012D01*
X132689235Y-89821471D01*
X132648588Y-89911644D01*
X132632321Y-89872371D01*
X132591282Y-89810952D01*
X132539049Y-89758719D01*
X132477629Y-89717679D01*
X132409384Y-89689411D01*
X132336935Y-89675000D01*
X132118750Y-89675000D01*
X132025000Y-89768750D01*
X132025000Y-90175000D01*
X132045000Y-90175000D01*
X132045000Y-90425000D01*
X132025000Y-90425000D01*
X132025000Y-90831250D01*
X132118750Y-90925000D01*
X132336935Y-90925000D01*
X132409384Y-90910589D01*
X132477629Y-90882321D01*
X132539049Y-90841281D01*
X132591282Y-90789048D01*
X132632321Y-90727629D01*
X132649527Y-90686091D01*
X132663890Y-90732472D01*
X132730012Y-90832815D01*
X132821471Y-90910765D01*
X132931025Y-90960148D01*
X133050000Y-90977056D01*
X133950000Y-90977056D01*
X134017680Y-90971659D01*
X134132472Y-90936110D01*
X134232815Y-90869988D01*
X134310765Y-90778529D01*
X134360148Y-90668975D01*
X134377056Y-90550000D01*
X134377056Y-90125000D01*
X134416914Y-90125000D01*
X134455012Y-90182815D01*
X134546471Y-90260765D01*
X134656025Y-90310148D01*
X134775000Y-90327056D01*
X136025000Y-90327056D01*
X136092680Y-90321659D01*
X136207472Y-90286110D01*
X136307815Y-90219988D01*
X136385765Y-90128529D01*
X136435148Y-90018975D01*
X136449422Y-89918534D01*
X136453341Y-89967680D01*
X136488890Y-90082472D01*
X136555012Y-90182815D01*
X136646471Y-90260765D01*
X136756025Y-90310148D01*
X136875000Y-90327056D01*
X138125000Y-90327056D01*
X138192680Y-90321659D01*
X138307472Y-90286110D01*
X138407212Y-90220385D01*
X138843414Y-90656587D01*
X138884456Y-90690299D01*
X138925144Y-90724440D01*
X138927796Y-90725898D01*
X138930131Y-90727816D01*
X138976918Y-90752904D01*
X139023483Y-90778503D01*
X139026366Y-90779418D01*
X139029030Y-90780846D01*
X139079820Y-90796374D01*
X139130451Y-90812435D01*
X139133456Y-90812772D01*
X139136347Y-90813656D01*
X139189204Y-90819025D01*
X139241972Y-90824944D01*
X139247878Y-90824985D01*
X139247994Y-90824997D01*
X139248102Y-90824987D01*
X139250000Y-90825000D01*
X139329508Y-90825000D01*
X139371471Y-90860765D01*
X139481025Y-90910148D01*
X139600000Y-90927056D01*
X140500000Y-90927056D01*
X140567680Y-90921659D01*
X140682472Y-90886110D01*
X140782815Y-90819988D01*
X140860765Y-90728529D01*
X140901412Y-90638356D01*
X140917679Y-90677629D01*
X140958718Y-90739048D01*
X141010951Y-90791281D01*
X141072371Y-90832321D01*
X141140616Y-90860589D01*
X141213065Y-90875000D01*
X141431250Y-90875000D01*
X141525000Y-90781250D01*
X141525000Y-90375000D01*
X141875000Y-90375000D01*
X141875000Y-90781250D01*
X141968750Y-90875000D01*
X142186935Y-90875000D01*
X142259384Y-90860589D01*
X142327629Y-90832321D01*
X142389049Y-90791281D01*
X142441282Y-90739048D01*
X142482321Y-90677629D01*
X142510589Y-90609383D01*
X142525000Y-90536934D01*
X142525000Y-90468750D01*
X142431250Y-90375000D01*
X141875000Y-90375000D01*
X141525000Y-90375000D01*
X141505000Y-90375000D01*
X141505000Y-90125000D01*
X141525000Y-90125000D01*
X141525000Y-89718750D01*
X141875000Y-89718750D01*
X141875000Y-90125000D01*
X142431250Y-90125000D01*
X142525000Y-90031250D01*
X142525000Y-89963066D01*
X142510589Y-89890617D01*
X142482321Y-89822371D01*
X142441282Y-89760952D01*
X142389049Y-89708719D01*
X142327629Y-89667679D01*
X142259384Y-89639411D01*
X142186935Y-89625000D01*
X141968750Y-89625000D01*
X141875000Y-89718750D01*
X141525000Y-89718750D01*
X141431250Y-89625000D01*
X141213065Y-89625000D01*
X141140616Y-89639411D01*
X141072371Y-89667679D01*
X141010951Y-89708719D01*
X140958718Y-89760952D01*
X140917679Y-89822371D01*
X140900473Y-89863909D01*
X140886110Y-89817528D01*
X140819988Y-89717185D01*
X140728529Y-89639235D01*
X140618975Y-89589852D01*
X140500000Y-89572944D01*
X139600000Y-89572944D01*
X139532320Y-89578341D01*
X139424808Y-89611635D01*
X138656586Y-88843414D01*
X138615552Y-88809708D01*
X138574856Y-88775560D01*
X138572207Y-88774104D01*
X138569870Y-88772184D01*
X138523061Y-88747085D01*
X138519689Y-88745231D01*
X138511110Y-88717528D01*
X138444988Y-88617185D01*
X138353529Y-88539235D01*
X138243975Y-88489852D01*
X138125000Y-88472944D01*
X136875000Y-88472944D01*
X136807320Y-88478341D01*
X136692528Y-88513890D01*
X136592185Y-88580012D01*
X136514235Y-88671471D01*
X136464852Y-88781025D01*
X136450578Y-88881466D01*
X136446659Y-88832320D01*
X136411110Y-88717528D01*
X136344988Y-88617185D01*
X136253529Y-88539235D01*
X136143975Y-88489852D01*
X136025000Y-88472944D01*
X134775000Y-88472944D01*
X134707320Y-88478341D01*
X134592528Y-88513890D01*
X134492185Y-88580012D01*
X134414235Y-88671471D01*
X134377056Y-88753951D01*
X134377056Y-88550000D01*
X134371659Y-88482320D01*
X134336110Y-88367528D01*
X134269988Y-88267185D01*
X134178529Y-88189235D01*
X134068975Y-88139852D01*
X133950000Y-88122944D01*
X133875000Y-88122944D01*
X133875000Y-87820492D01*
X133910765Y-87778529D01*
X133960148Y-87668975D01*
X133977056Y-87550000D01*
X133977056Y-86675000D01*
X134222944Y-86675000D01*
X134222944Y-87550000D01*
X134228341Y-87617680D01*
X134263890Y-87732472D01*
X134330012Y-87832815D01*
X134421471Y-87910765D01*
X134531025Y-87960148D01*
X134650000Y-87977056D01*
X135450000Y-87977056D01*
X135517680Y-87971659D01*
X135632472Y-87936110D01*
X135732815Y-87869988D01*
X135786930Y-87806495D01*
X135863740Y-87823383D01*
X136005888Y-87826361D01*
X136145908Y-87801672D01*
X136278466Y-87750256D01*
X136398512Y-87674072D01*
X136501475Y-87576022D01*
X136583432Y-87459841D01*
X136641262Y-87329953D01*
X136672761Y-87191306D01*
X136674655Y-87055714D01*
X136674996Y-87052354D01*
X136674739Y-87049640D01*
X136675029Y-87028910D01*
X136670725Y-87007173D01*
X136662598Y-86921202D01*
X136624963Y-86794955D01*
X136563523Y-86678424D01*
X136560750Y-86675000D01*
X137976497Y-86675000D01*
X137972944Y-86700000D01*
X137972944Y-87600000D01*
X137978341Y-87667680D01*
X138013890Y-87782472D01*
X138080012Y-87882815D01*
X138171471Y-87960765D01*
X138281025Y-88010148D01*
X138400000Y-88027056D01*
X138863884Y-88027056D01*
X139198552Y-88361724D01*
X139189852Y-88381025D01*
X139172944Y-88500000D01*
X139172944Y-89000000D01*
X139178341Y-89067680D01*
X139213890Y-89182472D01*
X139280012Y-89282815D01*
X139371471Y-89360765D01*
X139481025Y-89410148D01*
X139600000Y-89427056D01*
X140500000Y-89427056D01*
X140567680Y-89421659D01*
X140682472Y-89386110D01*
X140775209Y-89325000D01*
X140979508Y-89325000D01*
X141021471Y-89360765D01*
X141131025Y-89410148D01*
X141250000Y-89427056D01*
X142150000Y-89427056D01*
X142217680Y-89421659D01*
X142332472Y-89386110D01*
X142432815Y-89319988D01*
X142510765Y-89228529D01*
X142560148Y-89118975D01*
X142577056Y-89000000D01*
X142577056Y-88500000D01*
X142571659Y-88432320D01*
X142536110Y-88317528D01*
X142469988Y-88217185D01*
X142378529Y-88139235D01*
X142268975Y-88089852D01*
X142150000Y-88072944D01*
X141250000Y-88072944D01*
X141182320Y-88078341D01*
X141067528Y-88113890D01*
X140974791Y-88175000D01*
X140770492Y-88175000D01*
X140728529Y-88139235D01*
X140618975Y-88089852D01*
X140524553Y-88076433D01*
X140495360Y-88040639D01*
X140484516Y-88027056D01*
X141100000Y-88027056D01*
X141167680Y-88021659D01*
X141282472Y-87986110D01*
X141382815Y-87919988D01*
X141460765Y-87828529D01*
X141510148Y-87718975D01*
X141527056Y-87600000D01*
X141527056Y-86700000D01*
X141521659Y-86632320D01*
X141486110Y-86517528D01*
X141419988Y-86417185D01*
X141328529Y-86339235D01*
X141320186Y-86335474D01*
X141294796Y-86287722D01*
X141266103Y-86232368D01*
X141263887Y-86229592D01*
X141262222Y-86226461D01*
X141222838Y-86178171D01*
X141183914Y-86129413D01*
X141179042Y-86124472D01*
X141178960Y-86124372D01*
X141178867Y-86124295D01*
X141177297Y-86122703D01*
X140577297Y-85522703D01*
X140529121Y-85483130D01*
X140491286Y-85451383D01*
X140510765Y-85428529D01*
X140560148Y-85318975D01*
X140577056Y-85200000D01*
X140577056Y-84300000D01*
X140571659Y-84232320D01*
X140536110Y-84117528D01*
X140469988Y-84017185D01*
X140378529Y-83939235D01*
X140268975Y-83889852D01*
X140264644Y-83889236D01*
X140256690Y-83874278D01*
X140232236Y-83827101D01*
X140230350Y-83824738D01*
X140228930Y-83822068D01*
X140195367Y-83780915D01*
X140162224Y-83739398D01*
X140158073Y-83735189D01*
X140158003Y-83735103D01*
X140157924Y-83735037D01*
X140156587Y-83733682D01*
X139825554Y-83402649D01*
X139854141Y-83339230D01*
X139871049Y-83220255D01*
X139871049Y-83175000D01*
X140249862Y-83175000D01*
X140255012Y-83182815D01*
X140346471Y-83260765D01*
X140456025Y-83310148D01*
X140575000Y-83327056D01*
X141825000Y-83327056D01*
X141892680Y-83321659D01*
X142007472Y-83286110D01*
X142107815Y-83219988D01*
X142185765Y-83128529D01*
X142235148Y-83018975D01*
X142252056Y-82900000D01*
X142252056Y-81900000D01*
X142246659Y-81832320D01*
X142211110Y-81717528D01*
X142144988Y-81617185D01*
X142053529Y-81539235D01*
X141943975Y-81489852D01*
X141825000Y-81472944D01*
X140575000Y-81472944D01*
X140507320Y-81478341D01*
X140392528Y-81513890D01*
X140292185Y-81580012D01*
X140214235Y-81671471D01*
X140164852Y-81781025D01*
X140147944Y-81900000D01*
X140147944Y-82025000D01*
X139787469Y-82025000D01*
X139833434Y-81959841D01*
X139891264Y-81829953D01*
X139922763Y-81691306D01*
X139925031Y-81528910D01*
X139897415Y-81389438D01*
X139843234Y-81257986D01*
X139764553Y-81139562D01*
X139664368Y-81038675D01*
X139546496Y-80959169D01*
X139506441Y-80942331D01*
X139511673Y-80941914D01*
X139626465Y-80906365D01*
X139674063Y-80875000D01*
X140147944Y-80875000D01*
X140147944Y-80900000D01*
X140153341Y-80967680D01*
X140188890Y-81082472D01*
X140255012Y-81182815D01*
X140346471Y-81260765D01*
X140456025Y-81310148D01*
X140575000Y-81327056D01*
X141825000Y-81327056D01*
X141892680Y-81321659D01*
X142007472Y-81286110D01*
X142107815Y-81219988D01*
X142185765Y-81128529D01*
X142235148Y-81018975D01*
X142252056Y-80900000D01*
X142252056Y-80111410D01*
X144473258Y-80111410D01*
X144520166Y-80366987D01*
X144615821Y-80608585D01*
X144756582Y-80827003D01*
X144937086Y-81013920D01*
X145150458Y-81162218D01*
X145388571Y-81266247D01*
X145642356Y-81322045D01*
X145902145Y-81327487D01*
X146158043Y-81282365D01*
X146400303Y-81188399D01*
X146619698Y-81049166D01*
X146807872Y-80869971D01*
X146957655Y-80657640D01*
X147063344Y-80420259D01*
X147120912Y-80166870D01*
X147125057Y-79870077D01*
X147074586Y-79615180D01*
X146975566Y-79374940D01*
X146831770Y-79158509D01*
X146648673Y-78974130D01*
X146433251Y-78828826D01*
X146193709Y-78728132D01*
X145939170Y-78675883D01*
X145679331Y-78674069D01*
X145424087Y-78722759D01*
X145183163Y-78820099D01*
X144965733Y-78962381D01*
X144780080Y-79144186D01*
X144633276Y-79358588D01*
X144530911Y-79597421D01*
X144476886Y-79851589D01*
X144473258Y-80111410D01*
X142252056Y-80111410D01*
X142252056Y-79900000D01*
X142246659Y-79832320D01*
X142211110Y-79717528D01*
X142144988Y-79617185D01*
X142053529Y-79539235D01*
X141943975Y-79489852D01*
X141825000Y-79472944D01*
X140575000Y-79472944D01*
X140507320Y-79478341D01*
X140392528Y-79513890D01*
X140292185Y-79580012D01*
X140214235Y-79671471D01*
X140190106Y-79725000D01*
X139871049Y-79725000D01*
X139871049Y-79620255D01*
X139865652Y-79552575D01*
X139830103Y-79437783D01*
X139768993Y-79345046D01*
X139768993Y-79293993D01*
X139763814Y-79241171D01*
X139759181Y-79188221D01*
X139758337Y-79185316D01*
X139758042Y-79182308D01*
X139742703Y-79131503D01*
X139727873Y-79080457D01*
X139726480Y-79077770D01*
X139725607Y-79074878D01*
X139700683Y-79028003D01*
X139676229Y-78980826D01*
X139674343Y-78978463D01*
X139672923Y-78975793D01*
X139639360Y-78934640D01*
X139606217Y-78893123D01*
X139602066Y-78888914D01*
X139601996Y-78888828D01*
X139601917Y-78888762D01*
X139600580Y-78887407D01*
X139163172Y-78450000D01*
X156050000Y-78450000D01*
X156050000Y-103550000D01*
X125450000Y-103550000D01*
X125450000Y-102348750D01*
X127025510Y-102348750D01*
X127025510Y-103116424D01*
X127039921Y-103188873D01*
X127068189Y-103257119D01*
X127109228Y-103318538D01*
X127161461Y-103370771D01*
X127222881Y-103411811D01*
X127291126Y-103440079D01*
X127363575Y-103454490D01*
X128131250Y-103454490D01*
X128225000Y-103360740D01*
X128225000Y-102255000D01*
X128575000Y-102255000D01*
X128575000Y-103360740D01*
X128668750Y-103454490D01*
X129436425Y-103454490D01*
X129508874Y-103440079D01*
X129577119Y-103411811D01*
X129638539Y-103370771D01*
X129690772Y-103318538D01*
X129731811Y-103257119D01*
X129760079Y-103188873D01*
X129774490Y-103116424D01*
X129774490Y-102348750D01*
X129680740Y-102255000D01*
X128575000Y-102255000D01*
X128225000Y-102255000D01*
X127119260Y-102255000D01*
X127025510Y-102348750D01*
X125450000Y-102348750D01*
X125450000Y-88382594D01*
X127030534Y-88382594D01*
X127030534Y-89150268D01*
X127044945Y-89222717D01*
X127073213Y-89290963D01*
X127114252Y-89352382D01*
X127166485Y-89404615D01*
X127227905Y-89445655D01*
X127296150Y-89473923D01*
X127368599Y-89488334D01*
X128136274Y-89488334D01*
X128230024Y-89394584D01*
X128230024Y-88288844D01*
X127124284Y-88288844D01*
X127030534Y-88382594D01*
X125450000Y-88382594D01*
X125450000Y-82668750D01*
X127025510Y-82668750D01*
X127025510Y-83436424D01*
X127039921Y-83508873D01*
X127068189Y-83577119D01*
X127109228Y-83638538D01*
X127161461Y-83690771D01*
X127222881Y-83731811D01*
X127291126Y-83760079D01*
X127363575Y-83774490D01*
X128131250Y-83774490D01*
X128225000Y-83680740D01*
X128225000Y-82575000D01*
X128575000Y-82575000D01*
X128575000Y-83680740D01*
X128668750Y-83774490D01*
X129436425Y-83774490D01*
X129508874Y-83760079D01*
X129577119Y-83731811D01*
X129638539Y-83690771D01*
X129690772Y-83638538D01*
X129731811Y-83577119D01*
X129760079Y-83508873D01*
X129774490Y-83436424D01*
X129774490Y-82668750D01*
X129680740Y-82575000D01*
X128575000Y-82575000D01*
X128225000Y-82575000D01*
X127119260Y-82575000D01*
X127025510Y-82668750D01*
X125450000Y-82668750D01*
X125450000Y-78450000D01*
X128175381Y-78450000D01*
X128133077Y-78453850D01*
X128133077Y-78453850D01*
G37*
X128133077Y-78453850D02*
X127866377Y-78532344D01*
X127620002Y-78661146D01*
X127403337Y-78835349D01*
X127224634Y-79048318D01*
X127090701Y-79291942D01*
X127006639Y-79556940D01*
X126975649Y-79833219D01*
X126975510Y-79853108D01*
X126975510Y-79866892D01*
X127002639Y-80143577D01*
X127082993Y-80409723D01*
X127213512Y-80655193D01*
X127389224Y-80870636D01*
X127576433Y-81025510D01*
X127363575Y-81025510D01*
X127291126Y-81039921D01*
X127222881Y-81068189D01*
X127161461Y-81109229D01*
X127109228Y-81161462D01*
X127068189Y-81222881D01*
X127039921Y-81291127D01*
X127025510Y-81363576D01*
X127025510Y-82131250D01*
X127119260Y-82225000D01*
X128225000Y-82225000D01*
X128225000Y-82205000D01*
X128575000Y-82205000D01*
X128575000Y-82225000D01*
X129680740Y-82225000D01*
X129774490Y-82131250D01*
X129774490Y-81363576D01*
X129760079Y-81291127D01*
X129731811Y-81222881D01*
X129690772Y-81161462D01*
X129638539Y-81109229D01*
X129577119Y-81068189D01*
X129508874Y-81039921D01*
X129436425Y-81025510D01*
X129221470Y-81025510D01*
X129396663Y-80884651D01*
X129575366Y-80671682D01*
X129705483Y-80435000D01*
X129813492Y-80435000D01*
X129866359Y-80429816D01*
X129919264Y-80425188D01*
X129922169Y-80424344D01*
X129925177Y-80424049D01*
X129975982Y-80408710D01*
X130027028Y-80393880D01*
X130029715Y-80392487D01*
X130032607Y-80391614D01*
X130079461Y-80366701D01*
X130126660Y-80342236D01*
X130129025Y-80340348D01*
X130131550Y-80339005D01*
X131268993Y-80339005D01*
X131268993Y-80557190D01*
X131283404Y-80629639D01*
X131311672Y-80697884D01*
X131352712Y-80759304D01*
X131404945Y-80811537D01*
X131466364Y-80852576D01*
X131534610Y-80880844D01*
X131607059Y-80895255D01*
X131675243Y-80895255D01*
X131768993Y-80801505D01*
X131768993Y-80245255D01*
X132018993Y-80245255D01*
X132018993Y-80801505D01*
X132112743Y-80895255D01*
X132180927Y-80895255D01*
X132253376Y-80880844D01*
X132321622Y-80852576D01*
X132383041Y-80811537D01*
X132435274Y-80759304D01*
X132476314Y-80697884D01*
X132504582Y-80629639D01*
X132518993Y-80557190D01*
X132518993Y-80339005D01*
X132425243Y-80245255D01*
X132018993Y-80245255D01*
X131768993Y-80245255D01*
X131362743Y-80245255D01*
X131268993Y-80339005D01*
X130131550Y-80339005D01*
X130131692Y-80338930D01*
X130172853Y-80305360D01*
X130214362Y-80272223D01*
X130218565Y-80268078D01*
X130218657Y-80268003D01*
X130218727Y-80267918D01*
X130220078Y-80266586D01*
X131111665Y-79375000D01*
X131358918Y-79375000D01*
X131352712Y-79381206D01*
X131311672Y-79442626D01*
X131283404Y-79510871D01*
X131268993Y-79583320D01*
X131268993Y-79801505D01*
X131362743Y-79895255D01*
X131768993Y-79895255D01*
X131768993Y-79875255D01*
X132018993Y-79875255D01*
X132018993Y-79895255D01*
X132425243Y-79895255D01*
X132518993Y-79801505D01*
X132518993Y-79583320D01*
X132504582Y-79510871D01*
X132476314Y-79442626D01*
X132435274Y-79381206D01*
X132429068Y-79375000D01*
X132797483Y-79375000D01*
X132783228Y-79391726D01*
X132733845Y-79501280D01*
X132716937Y-79620255D01*
X132716937Y-80520255D01*
X132722334Y-80587935D01*
X132743806Y-80657270D01*
X132193414Y-81207662D01*
X132159708Y-81248696D01*
X132125560Y-81289392D01*
X132124104Y-81292041D01*
X132122184Y-81294378D01*
X132097085Y-81341187D01*
X132071497Y-81387731D01*
X132070583Y-81390614D01*
X132069154Y-81393278D01*
X132053626Y-81444068D01*
X132037565Y-81494699D01*
X132037228Y-81497704D01*
X132036344Y-81500595D01*
X132030974Y-81553457D01*
X132025056Y-81606220D01*
X132025015Y-81612125D01*
X132025003Y-81612241D01*
X132025013Y-81612349D01*
X132025000Y-81614248D01*
X132025000Y-81893199D01*
X131593993Y-81893199D01*
X131526313Y-81898596D01*
X131411521Y-81934145D01*
X131311178Y-82000267D01*
X131233228Y-82091726D01*
X131183845Y-82201280D01*
X131183157Y-82206123D01*
X131182308Y-82206206D01*
X131131474Y-82221554D01*
X131080456Y-82236375D01*
X131077768Y-82237769D01*
X131074878Y-82238641D01*
X131028003Y-82263565D01*
X130980825Y-82288020D01*
X130978464Y-82289905D01*
X130975793Y-82291325D01*
X130934604Y-82324918D01*
X130893123Y-82358032D01*
X130888915Y-82362181D01*
X130888828Y-82362252D01*
X130888761Y-82362333D01*
X130887406Y-82363669D01*
X130619865Y-82631211D01*
X130562485Y-82654394D01*
X130443514Y-82732246D01*
X130341930Y-82831724D01*
X130261604Y-82949039D01*
X130205593Y-83079721D01*
X130176032Y-83218794D01*
X130174047Y-83360960D01*
X130199713Y-83500804D01*
X130252053Y-83632999D01*
X130329073Y-83752511D01*
X130427839Y-83854787D01*
X130544590Y-83935931D01*
X130674879Y-83992852D01*
X130813742Y-84023383D01*
X130955890Y-84026361D01*
X131095910Y-84001672D01*
X131228468Y-83950256D01*
X131234199Y-83946619D01*
X130181974Y-84998844D01*
X129708591Y-84998844D01*
X129591512Y-84778651D01*
X129415800Y-84563208D01*
X129201589Y-84385996D01*
X128957036Y-84253767D01*
X128691457Y-84171557D01*
X128414969Y-84142497D01*
X128138101Y-84167694D01*
X127871401Y-84246188D01*
X127625026Y-84374990D01*
X127408361Y-84549193D01*
X127229658Y-84762162D01*
X127095725Y-85005786D01*
X127011663Y-85270784D01*
X126980673Y-85547063D01*
X126980534Y-85566952D01*
X126980534Y-85580736D01*
X127007663Y-85857421D01*
X127088017Y-86123567D01*
X127218536Y-86369037D01*
X127394248Y-86584480D01*
X127581457Y-86739354D01*
X127368599Y-86739354D01*
X127296150Y-86753765D01*
X127227905Y-86782033D01*
X127166485Y-86823073D01*
X127114252Y-86875306D01*
X127073213Y-86936725D01*
X127044945Y-87004971D01*
X127030534Y-87077420D01*
X127030534Y-87845094D01*
X127124284Y-87938844D01*
X128230024Y-87938844D01*
X128230024Y-87918844D01*
X128580024Y-87918844D01*
X128580024Y-87938844D01*
X128600024Y-87938844D01*
X128600024Y-88288844D01*
X128580024Y-88288844D01*
X128580024Y-89394584D01*
X128673774Y-89488334D01*
X129441449Y-89488334D01*
X129513898Y-89473923D01*
X129582143Y-89445655D01*
X129643563Y-89404615D01*
X129695796Y-89352382D01*
X129725000Y-89308675D01*
X129725000Y-90620406D01*
X129710406Y-90635000D01*
X129650396Y-90635000D01*
X129586488Y-90514807D01*
X129410776Y-90299364D01*
X129196565Y-90122152D01*
X128952012Y-89989923D01*
X128686433Y-89907713D01*
X128409945Y-89878653D01*
X128133077Y-89903850D01*
X127866377Y-89982344D01*
X127620002Y-90111146D01*
X127403337Y-90285349D01*
X127224634Y-90498318D01*
X127090701Y-90741942D01*
X127006639Y-91006940D01*
X126975649Y-91283219D01*
X126975510Y-91303108D01*
X126975510Y-91316892D01*
X127002639Y-91593577D01*
X127082993Y-91859723D01*
X127213512Y-92105193D01*
X127389224Y-92320636D01*
X127513509Y-92423454D01*
X127400510Y-92423454D01*
X127332830Y-92428851D01*
X127218038Y-92464400D01*
X127117695Y-92530522D01*
X127039745Y-92621981D01*
X126990362Y-92731535D01*
X126973454Y-92850510D01*
X126973454Y-94849490D01*
X126978851Y-94917170D01*
X127014400Y-95031962D01*
X127080522Y-95132305D01*
X127171981Y-95210255D01*
X127281535Y-95259638D01*
X127400510Y-95276546D01*
X127475000Y-95276546D01*
X127475000Y-95917731D01*
X127403337Y-95975349D01*
X127224634Y-96188318D01*
X127090701Y-96431942D01*
X127006639Y-96696940D01*
X126975649Y-96973219D01*
X126975510Y-96993108D01*
X126975510Y-97006892D01*
X127002639Y-97283577D01*
X127082993Y-97549723D01*
X127213512Y-97795193D01*
X127389224Y-98010636D01*
X127603435Y-98187848D01*
X127755726Y-98270191D01*
X127620002Y-98341146D01*
X127403337Y-98515349D01*
X127224634Y-98728318D01*
X127090701Y-98971942D01*
X127006639Y-99236940D01*
X126975649Y-99513219D01*
X126975510Y-99533108D01*
X126975510Y-99546892D01*
X127002639Y-99823577D01*
X127082993Y-100089723D01*
X127213512Y-100335193D01*
X127389224Y-100550636D01*
X127576433Y-100705510D01*
X127363575Y-100705510D01*
X127291126Y-100719921D01*
X127222881Y-100748189D01*
X127161461Y-100789229D01*
X127109228Y-100841462D01*
X127068189Y-100902881D01*
X127039921Y-100971127D01*
X127025510Y-101043576D01*
X127025510Y-101811250D01*
X127119260Y-101905000D01*
X128225000Y-101905000D01*
X128225000Y-101885000D01*
X128575000Y-101885000D01*
X128575000Y-101905000D01*
X129680740Y-101905000D01*
X129774490Y-101811250D01*
X129774490Y-101043576D01*
X129760079Y-100971127D01*
X129731811Y-100902881D01*
X129690772Y-100841462D01*
X129638539Y-100789229D01*
X129577119Y-100748189D01*
X129508874Y-100719921D01*
X129436425Y-100705510D01*
X129221470Y-100705510D01*
X129396663Y-100564651D01*
X129575366Y-100351682D01*
X129709299Y-100108058D01*
X129793361Y-99843060D01*
X129824351Y-99566781D01*
X129824490Y-99546892D01*
X129824490Y-99533108D01*
X129797361Y-99256423D01*
X129717007Y-98990277D01*
X129586488Y-98744807D01*
X129410776Y-98529364D01*
X129196565Y-98352152D01*
X129044274Y-98269809D01*
X129179998Y-98198854D01*
X129396663Y-98024651D01*
X129575366Y-97811682D01*
X129709299Y-97568058D01*
X129793361Y-97303060D01*
X129824351Y-97026781D01*
X129824490Y-97006892D01*
X129824490Y-96993108D01*
X129797361Y-96716423D01*
X129757381Y-96584000D01*
X132156944Y-96584000D01*
X132156944Y-98616000D01*
X132162341Y-98683680D01*
X132197890Y-98798472D01*
X132264012Y-98898815D01*
X132355471Y-98976765D01*
X132465025Y-99026148D01*
X132584000Y-99043056D01*
X134616000Y-99043056D01*
X134683680Y-99037659D01*
X134798472Y-99002110D01*
X134898815Y-98935988D01*
X134976765Y-98844529D01*
X135026148Y-98734975D01*
X135043056Y-98616000D01*
X135043056Y-98452173D01*
X135054832Y-98470236D01*
X135245458Y-98665220D01*
X135470460Y-98819269D01*
X135721193Y-98926462D01*
X135751283Y-98935583D01*
X135965000Y-98885392D01*
X135965000Y-97775000D01*
X135945000Y-97775000D01*
X135945000Y-97425000D01*
X135965000Y-97425000D01*
X135965000Y-96314608D01*
X136315000Y-96314608D01*
X136315000Y-97425000D01*
X137426205Y-97425000D01*
X137475589Y-97211282D01*
X137374091Y-96958191D01*
X137225168Y-96729764D01*
X137034542Y-96534780D01*
X136809540Y-96380731D01*
X136558807Y-96273538D01*
X136528717Y-96264417D01*
X136315000Y-96314608D01*
X135965000Y-96314608D01*
X135751283Y-96264417D01*
X135721193Y-96273538D01*
X135470460Y-96380731D01*
X135245458Y-96534780D01*
X135054832Y-96729764D01*
X135043056Y-96747827D01*
X135043056Y-96584000D01*
X135037659Y-96516320D01*
X135002110Y-96401528D01*
X134935988Y-96301185D01*
X134844529Y-96223235D01*
X134734975Y-96173852D01*
X134616000Y-96156944D01*
X134225000Y-96156944D01*
X134225000Y-95958884D01*
X135958883Y-94225000D01*
X139678064Y-94225000D01*
X139661604Y-94249039D01*
X139605593Y-94379721D01*
X139576032Y-94518794D01*
X139574047Y-94660960D01*
X139599713Y-94800804D01*
X139652053Y-94932999D01*
X139725000Y-95046191D01*
X139725000Y-95861827D01*
X137393556Y-98193271D01*
X137475589Y-97988718D01*
X137426205Y-97775000D01*
X136315000Y-97775000D01*
X136315000Y-98885392D01*
X136528717Y-98935583D01*
X136558807Y-98926462D01*
X136736208Y-98850620D01*
X136261828Y-99325000D01*
X135317600Y-99325000D01*
X135264733Y-99330184D01*
X135211828Y-99334812D01*
X135208923Y-99335656D01*
X135205915Y-99335951D01*
X135155110Y-99351290D01*
X135104064Y-99366120D01*
X135101377Y-99367513D01*
X135098485Y-99368386D01*
X135051631Y-99393299D01*
X135004432Y-99417764D01*
X135002067Y-99419652D01*
X134999400Y-99421070D01*
X134958269Y-99454615D01*
X134916730Y-99487776D01*
X134912521Y-99491927D01*
X134912435Y-99491997D01*
X134912369Y-99492076D01*
X134911014Y-99493413D01*
X134107483Y-100296944D01*
X132766400Y-100296944D01*
X132698720Y-100302341D01*
X132583928Y-100337890D01*
X132483585Y-100404012D01*
X132405635Y-100495471D01*
X132356252Y-100605025D01*
X132339344Y-100724000D01*
X132339344Y-102756000D01*
X132344741Y-102823680D01*
X132380290Y-102938472D01*
X132446412Y-103038815D01*
X132537871Y-103116765D01*
X132647425Y-103166148D01*
X132766400Y-103183056D01*
X134493600Y-103183056D01*
X134561280Y-103177659D01*
X134676072Y-103142110D01*
X134776415Y-103075988D01*
X134854365Y-102984529D01*
X134903748Y-102874975D01*
X134920656Y-102756000D01*
X134920656Y-102198400D01*
X134978630Y-102390419D01*
X135096698Y-102612472D01*
X135255647Y-102807364D01*
X135449424Y-102967670D01*
X135670647Y-103087285D01*
X135910891Y-103161653D01*
X136161004Y-103187941D01*
X136411460Y-103165147D01*
X136652718Y-103094141D01*
X136875590Y-102977626D01*
X137071586Y-102820041D01*
X137233241Y-102627388D01*
X137354398Y-102407006D01*
X137430441Y-102167287D01*
X137439634Y-102085333D01*
X137445941Y-102149662D01*
X137518630Y-102390419D01*
X137636698Y-102612472D01*
X137795647Y-102807364D01*
X137989424Y-102967670D01*
X138210647Y-103087285D01*
X138450891Y-103161653D01*
X138701004Y-103187941D01*
X138951460Y-103165147D01*
X139192718Y-103094141D01*
X139415590Y-102977626D01*
X139611586Y-102820041D01*
X139773241Y-102627388D01*
X139894398Y-102407006D01*
X139970441Y-102167287D01*
X139979634Y-102085333D01*
X139985941Y-102149662D01*
X140058630Y-102390419D01*
X140176698Y-102612472D01*
X140335647Y-102807364D01*
X140529424Y-102967670D01*
X140750647Y-103087285D01*
X140990891Y-103161653D01*
X141241004Y-103187941D01*
X141491460Y-103165147D01*
X141732718Y-103094141D01*
X141955590Y-102977626D01*
X142151586Y-102820041D01*
X142313241Y-102627388D01*
X142434398Y-102407006D01*
X142510441Y-102167287D01*
X142517064Y-102108232D01*
X142571762Y-102108232D01*
X142637277Y-102341751D01*
X142747090Y-102558002D01*
X142896982Y-102748674D01*
X143081192Y-102906440D01*
X143292641Y-103025237D01*
X143425339Y-103076103D01*
X143615000Y-103023796D01*
X143615000Y-101915000D01*
X143965000Y-101915000D01*
X143965000Y-103023796D01*
X144154661Y-103076103D01*
X144287359Y-103025237D01*
X144498808Y-102906440D01*
X144683018Y-102748674D01*
X144832910Y-102558002D01*
X144942723Y-102341751D01*
X145008238Y-102108232D01*
X144934709Y-101918750D01*
X146524570Y-101918750D01*
X146524570Y-102936614D01*
X146538981Y-103009063D01*
X146567249Y-103077309D01*
X146608288Y-103138728D01*
X146660521Y-103190961D01*
X146721941Y-103232001D01*
X146790186Y-103260269D01*
X146862635Y-103274680D01*
X147531250Y-103274680D01*
X147625000Y-103180930D01*
X147625000Y-101825000D01*
X147975000Y-101825000D01*
X147975000Y-103180930D01*
X148068750Y-103274680D01*
X148737365Y-103274680D01*
X148809814Y-103260269D01*
X148878059Y-103232001D01*
X148939479Y-103190961D01*
X148991712Y-103138728D01*
X149032751Y-103077309D01*
X149061019Y-103009063D01*
X149075430Y-102936614D01*
X149075430Y-102668750D01*
X150325000Y-102668750D01*
X150325000Y-102936934D01*
X150339411Y-103009383D01*
X150367679Y-103077629D01*
X150408718Y-103139048D01*
X150460951Y-103191281D01*
X150522371Y-103232321D01*
X150590616Y-103260589D01*
X150663065Y-103275000D01*
X151231250Y-103275000D01*
X151325000Y-103181250D01*
X151325000Y-102575000D01*
X151675000Y-102575000D01*
X151675000Y-103181250D01*
X151768750Y-103275000D01*
X152336935Y-103275000D01*
X152409384Y-103260589D01*
X152477629Y-103232321D01*
X152539049Y-103191281D01*
X152591282Y-103139048D01*
X152632321Y-103077629D01*
X152660589Y-103009383D01*
X152668671Y-102968750D01*
X153525000Y-102968750D01*
X153525000Y-103036934D01*
X153539411Y-103109383D01*
X153567679Y-103177629D01*
X153608718Y-103239048D01*
X153660951Y-103291281D01*
X153722371Y-103332321D01*
X153790616Y-103360589D01*
X153863065Y-103375000D01*
X154081250Y-103375000D01*
X154175000Y-103281250D01*
X154175000Y-102875000D01*
X154525000Y-102875000D01*
X154525000Y-103281250D01*
X154618750Y-103375000D01*
X154836935Y-103375000D01*
X154909384Y-103360589D01*
X154977629Y-103332321D01*
X155039049Y-103291281D01*
X155091282Y-103239048D01*
X155132321Y-103177629D01*
X155160589Y-103109383D01*
X155175000Y-103036934D01*
X155175000Y-102968750D01*
X155081250Y-102875000D01*
X154525000Y-102875000D01*
X154175000Y-102875000D01*
X153618750Y-102875000D01*
X153525000Y-102968750D01*
X152668671Y-102968750D01*
X152675000Y-102936934D01*
X152675000Y-102668750D01*
X152581250Y-102575000D01*
X151675000Y-102575000D01*
X151325000Y-102575000D01*
X150418750Y-102575000D01*
X150325000Y-102668750D01*
X149075430Y-102668750D01*
X149075430Y-102463066D01*
X153525000Y-102463066D01*
X153525000Y-102531250D01*
X153618750Y-102625000D01*
X154175000Y-102625000D01*
X154175000Y-102218750D01*
X154525000Y-102218750D01*
X154525000Y-102625000D01*
X155081250Y-102625000D01*
X155175000Y-102531250D01*
X155175000Y-102463066D01*
X155160589Y-102390617D01*
X155132321Y-102322371D01*
X155091282Y-102260952D01*
X155039049Y-102208719D01*
X154977629Y-102167679D01*
X154909384Y-102139411D01*
X154836935Y-102125000D01*
X154618750Y-102125000D01*
X154525000Y-102218750D01*
X154175000Y-102218750D01*
X154081250Y-102125000D01*
X153863065Y-102125000D01*
X153790616Y-102139411D01*
X153722371Y-102167679D01*
X153660951Y-102208719D01*
X153608718Y-102260952D01*
X153567679Y-102322371D01*
X153539411Y-102390617D01*
X153525000Y-102463066D01*
X149075430Y-102463066D01*
X149075430Y-101918750D01*
X149019746Y-101863066D01*
X150325000Y-101863066D01*
X150325000Y-102131250D01*
X150418750Y-102225000D01*
X151325000Y-102225000D01*
X151325000Y-101618750D01*
X151675000Y-101618750D01*
X151675000Y-102225000D01*
X152581250Y-102225000D01*
X152675000Y-102131250D01*
X152675000Y-101863066D01*
X152660589Y-101790617D01*
X152632321Y-101722371D01*
X152591282Y-101660952D01*
X152539049Y-101608719D01*
X152477629Y-101567679D01*
X152409384Y-101539411D01*
X152336935Y-101525000D01*
X151768750Y-101525000D01*
X151675000Y-101618750D01*
X151325000Y-101618750D01*
X151231250Y-101525000D01*
X150663065Y-101525000D01*
X150590616Y-101539411D01*
X150522371Y-101567679D01*
X150460951Y-101608719D01*
X150408718Y-101660952D01*
X150367679Y-101722371D01*
X150339411Y-101790617D01*
X150325000Y-101863066D01*
X149019746Y-101863066D01*
X148981680Y-101825000D01*
X147975000Y-101825000D01*
X147625000Y-101825000D01*
X146618320Y-101825000D01*
X146524570Y-101918750D01*
X144934709Y-101918750D01*
X144933253Y-101915000D01*
X143965000Y-101915000D01*
X143615000Y-101915000D01*
X142646747Y-101915000D01*
X142571762Y-102108232D01*
X142517064Y-102108232D01*
X142538474Y-101917364D01*
X142538600Y-101899372D01*
X142538600Y-101580628D01*
X142518122Y-101371768D01*
X142571762Y-101371768D01*
X142646747Y-101565000D01*
X143615000Y-101565000D01*
X143615000Y-100456204D01*
X143965000Y-100456204D01*
X143965000Y-101565000D01*
X144933253Y-101565000D01*
X145008238Y-101371768D01*
X144942723Y-101138249D01*
X144832910Y-100921998D01*
X144683018Y-100731326D01*
X144498808Y-100573560D01*
X144287359Y-100454763D01*
X144154661Y-100403897D01*
X143965000Y-100456204D01*
X143615000Y-100456204D01*
X143425339Y-100403897D01*
X143292641Y-100454763D01*
X143081192Y-100573560D01*
X142896982Y-100731326D01*
X142747090Y-100921998D01*
X142637277Y-101138249D01*
X142571762Y-101371768D01*
X142518122Y-101371768D01*
X142514059Y-101330338D01*
X142441370Y-101089581D01*
X142323302Y-100867528D01*
X142164353Y-100672636D01*
X141970576Y-100512330D01*
X141749353Y-100392715D01*
X141509109Y-100318347D01*
X141258996Y-100292059D01*
X141008540Y-100314853D01*
X140767282Y-100385859D01*
X140544410Y-100502374D01*
X140348414Y-100659959D01*
X140186759Y-100852612D01*
X140065602Y-101072994D01*
X139989559Y-101312713D01*
X139980366Y-101394667D01*
X139974059Y-101330338D01*
X139901370Y-101089581D01*
X139783302Y-100867528D01*
X139624353Y-100672636D01*
X139430576Y-100512330D01*
X139385000Y-100487687D01*
X139385000Y-100419594D01*
X141477554Y-98327040D01*
X146472514Y-98327040D01*
X146472514Y-98901720D01*
X146477911Y-98969400D01*
X146495129Y-99025000D01*
X146044094Y-99025000D01*
X145946496Y-98959169D01*
X145815426Y-98904072D01*
X145676150Y-98875483D01*
X145533973Y-98874490D01*
X145394312Y-98901132D01*
X145262485Y-98954394D01*
X145143514Y-99032246D01*
X145041930Y-99131724D01*
X144961604Y-99249039D01*
X144905593Y-99379721D01*
X144876032Y-99518794D01*
X144874047Y-99660960D01*
X144899713Y-99800804D01*
X144952053Y-99932999D01*
X145029073Y-100052511D01*
X145127839Y-100154787D01*
X145244590Y-100235931D01*
X145374879Y-100292852D01*
X145513742Y-100323383D01*
X145655890Y-100326361D01*
X145795910Y-100301672D01*
X145928468Y-100250256D01*
X146047052Y-100175000D01*
X146599115Y-100175000D01*
X146567249Y-100222691D01*
X146538981Y-100290937D01*
X146524570Y-100363386D01*
X146524570Y-101381250D01*
X146618320Y-101475000D01*
X147625000Y-101475000D01*
X147625000Y-101455000D01*
X147975000Y-101455000D01*
X147975000Y-101475000D01*
X148981680Y-101475000D01*
X149075430Y-101381250D01*
X149075430Y-100363386D01*
X149061019Y-100290937D01*
X149032751Y-100222691D01*
X149000885Y-100175000D01*
X150374862Y-100175000D01*
X150380012Y-100182815D01*
X150471471Y-100260765D01*
X150581025Y-100310148D01*
X150700000Y-100327056D01*
X152300000Y-100327056D01*
X152367680Y-100321659D01*
X152482472Y-100286110D01*
X152582815Y-100219988D01*
X152660765Y-100128529D01*
X152710148Y-100018975D01*
X152716397Y-99975000D01*
X153775000Y-99975000D01*
X153775000Y-100596092D01*
X153717528Y-100613890D01*
X153617185Y-100680012D01*
X153539235Y-100771471D01*
X153489852Y-100881025D01*
X153472944Y-101000000D01*
X153472944Y-101500000D01*
X153478341Y-101567680D01*
X153513890Y-101682472D01*
X153580012Y-101782815D01*
X153671471Y-101860765D01*
X153781025Y-101910148D01*
X153900000Y-101927056D01*
X154800000Y-101927056D01*
X154867680Y-101921659D01*
X154982472Y-101886110D01*
X155082815Y-101819988D01*
X155160765Y-101728529D01*
X155210148Y-101618975D01*
X155227056Y-101500000D01*
X155227056Y-101000000D01*
X155221659Y-100932320D01*
X155186110Y-100817528D01*
X155119988Y-100717185D01*
X155028529Y-100639235D01*
X154925000Y-100592568D01*
X154925000Y-98888424D01*
X154932472Y-98886110D01*
X155032815Y-98819988D01*
X155110765Y-98728529D01*
X155160148Y-98618975D01*
X155177056Y-98500000D01*
X155177056Y-98000000D01*
X155171659Y-97932320D01*
X155136110Y-97817528D01*
X155069988Y-97717185D01*
X154978529Y-97639235D01*
X154868975Y-97589852D01*
X154750000Y-97572944D01*
X153850000Y-97572944D01*
X153782320Y-97578341D01*
X153667528Y-97613890D01*
X153567185Y-97680012D01*
X153489235Y-97771471D01*
X153439852Y-97881025D01*
X153422944Y-98000000D01*
X153422944Y-98500000D01*
X153428341Y-98567680D01*
X153463890Y-98682472D01*
X153530012Y-98782815D01*
X153579508Y-98825000D01*
X152719392Y-98825000D01*
X152686110Y-98717528D01*
X152619988Y-98617185D01*
X152528529Y-98539235D01*
X152418975Y-98489852D01*
X152300000Y-98472944D01*
X150700000Y-98472944D01*
X150632320Y-98478341D01*
X150517528Y-98513890D01*
X150417185Y-98580012D01*
X150339235Y-98671471D01*
X150289852Y-98781025D01*
X150272944Y-98900000D01*
X150272944Y-99025000D01*
X149108637Y-99025000D01*
X149110578Y-99020695D01*
X149127486Y-98901720D01*
X149127486Y-97425000D01*
X153835533Y-97425000D01*
X153850000Y-97427056D01*
X154750000Y-97427056D01*
X154817680Y-97421659D01*
X154932472Y-97386110D01*
X155032815Y-97319988D01*
X155110765Y-97228529D01*
X155160148Y-97118975D01*
X155177056Y-97000000D01*
X155177056Y-96500000D01*
X155171659Y-96432320D01*
X155136110Y-96317528D01*
X155069988Y-96217185D01*
X154978529Y-96139235D01*
X154868975Y-96089852D01*
X154750000Y-96072944D01*
X153850000Y-96072944D01*
X153824217Y-96075000D01*
X148968153Y-96075000D01*
X148928959Y-96041595D01*
X148819405Y-95992212D01*
X148700430Y-95975304D01*
X146899570Y-95975304D01*
X146831890Y-95980701D01*
X146717098Y-96016250D01*
X146616755Y-96082372D01*
X146538805Y-96173831D01*
X146489422Y-96283385D01*
X146472514Y-96402360D01*
X146472514Y-96977040D01*
X141463172Y-96977040D01*
X141444135Y-96969038D01*
X143888173Y-94525000D01*
X146696092Y-94525000D01*
X146713890Y-94582472D01*
X146780012Y-94682815D01*
X146871471Y-94760765D01*
X146981025Y-94810148D01*
X147100000Y-94827056D01*
X147600000Y-94827056D01*
X147667680Y-94821659D01*
X147782472Y-94786110D01*
X147882815Y-94719988D01*
X147960765Y-94628529D01*
X148010148Y-94518975D01*
X148027056Y-94400000D01*
X148027056Y-93500000D01*
X148021659Y-93432320D01*
X147986110Y-93317528D01*
X147919988Y-93217185D01*
X147828529Y-93139235D01*
X147718975Y-93089852D01*
X147600000Y-93072944D01*
X147100000Y-93072944D01*
X147032320Y-93078341D01*
X146917528Y-93113890D01*
X146817185Y-93180012D01*
X146739235Y-93271471D01*
X146692568Y-93375000D01*
X144008884Y-93375000D01*
X144958883Y-92425000D01*
X153041116Y-92425000D01*
X153101020Y-92484904D01*
X153101020Y-92572514D01*
X152951320Y-92572514D01*
X152883640Y-92577911D01*
X152768848Y-92613460D01*
X152668505Y-92679582D01*
X152590555Y-92771041D01*
X152549045Y-92863129D01*
X152534790Y-92817098D01*
X152468668Y-92716755D01*
X152377209Y-92638805D01*
X152267655Y-92589422D01*
X152148680Y-92572514D01*
X150599280Y-92572514D01*
X150531600Y-92577911D01*
X150416808Y-92613460D01*
X150316465Y-92679582D01*
X150238515Y-92771041D01*
X150189132Y-92880595D01*
X150172224Y-92999570D01*
X150172224Y-93325000D01*
X149488424Y-93325000D01*
X149486110Y-93317528D01*
X149419988Y-93217185D01*
X149328529Y-93139235D01*
X149218975Y-93089852D01*
X149100000Y-93072944D01*
X148600000Y-93072944D01*
X148532320Y-93078341D01*
X148417528Y-93113890D01*
X148317185Y-93180012D01*
X148239235Y-93271471D01*
X148189852Y-93381025D01*
X148172944Y-93500000D01*
X148172944Y-94400000D01*
X148178341Y-94467680D01*
X148213890Y-94582472D01*
X148280012Y-94682815D01*
X148371471Y-94760765D01*
X148481025Y-94810148D01*
X148600000Y-94827056D01*
X149100000Y-94827056D01*
X149167680Y-94821659D01*
X149282472Y-94786110D01*
X149382815Y-94719988D01*
X149460765Y-94628529D01*
X149510148Y-94518975D01*
X149516397Y-94475000D01*
X150172224Y-94475000D01*
X150172224Y-94800430D01*
X150177621Y-94868110D01*
X150213170Y-94982902D01*
X150279292Y-95083245D01*
X150370751Y-95161195D01*
X150480305Y-95210578D01*
X150599280Y-95227486D01*
X152148680Y-95227486D01*
X152216360Y-95222089D01*
X152331152Y-95186540D01*
X152431495Y-95120418D01*
X152509445Y-95028959D01*
X152550955Y-94936871D01*
X152565210Y-94982902D01*
X152631332Y-95083245D01*
X152722791Y-95161195D01*
X152832345Y-95210578D01*
X152951320Y-95227486D01*
X154500720Y-95227486D01*
X154568400Y-95222089D01*
X154683192Y-95186540D01*
X154783535Y-95120418D01*
X154861485Y-95028959D01*
X154910868Y-94919405D01*
X154927776Y-94800430D01*
X154927776Y-92999570D01*
X154922379Y-92931890D01*
X154886830Y-92817098D01*
X154820708Y-92716755D01*
X154729249Y-92638805D01*
X154619695Y-92589422D01*
X154500720Y-92572514D01*
X154351020Y-92572514D01*
X154351020Y-92226020D01*
X154345385Y-92168552D01*
X154340354Y-92111050D01*
X154339438Y-92107897D01*
X154339117Y-92104624D01*
X154322435Y-92049370D01*
X154306324Y-91993915D01*
X154304810Y-91990994D01*
X154303861Y-91987851D01*
X154276757Y-91936876D01*
X154250189Y-91885621D01*
X154248141Y-91883055D01*
X154246596Y-91880150D01*
X154210100Y-91835402D01*
X154174089Y-91790291D01*
X154169576Y-91785714D01*
X154169502Y-91785624D01*
X154169418Y-91785555D01*
X154167962Y-91784078D01*
X153741942Y-91358058D01*
X153697312Y-91321399D01*
X153653104Y-91284304D01*
X153650225Y-91282721D01*
X153647685Y-91280635D01*
X153596853Y-91253379D01*
X153546214Y-91225540D01*
X153543076Y-91224544D01*
X153540184Y-91222994D01*
X153484990Y-91206119D01*
X153429945Y-91188658D01*
X153426683Y-91188292D01*
X153423536Y-91187330D01*
X153366063Y-91181492D01*
X153308726Y-91175061D01*
X153302301Y-91175016D01*
X153302182Y-91175004D01*
X153302071Y-91175014D01*
X153300000Y-91175000D01*
X149425000Y-91175000D01*
X149425000Y-91046949D01*
X149460148Y-90968975D01*
X149477056Y-90850000D01*
X149477056Y-89950000D01*
X149471659Y-89882320D01*
X149436110Y-89767528D01*
X149369988Y-89667185D01*
X149278529Y-89589235D01*
X149168975Y-89539852D01*
X149050000Y-89522944D01*
X148550000Y-89522944D01*
X148482320Y-89528341D01*
X148367528Y-89563890D01*
X148267185Y-89630012D01*
X148189235Y-89721471D01*
X148139852Y-89831025D01*
X148122944Y-89950000D01*
X148122944Y-90850000D01*
X148128341Y-90917680D01*
X148163890Y-91032472D01*
X148175000Y-91049332D01*
X148175000Y-91175000D01*
X147738586Y-91175000D01*
X147789048Y-91141282D01*
X147841281Y-91089049D01*
X147882321Y-91027629D01*
X147910589Y-90959384D01*
X147925000Y-90886935D01*
X147925000Y-90668750D01*
X147831250Y-90575000D01*
X147425000Y-90575000D01*
X147425000Y-90595000D01*
X147175000Y-90595000D01*
X147175000Y-90575000D01*
X146768750Y-90575000D01*
X146675000Y-90668750D01*
X146675000Y-90886935D01*
X146689411Y-90959384D01*
X146717679Y-91027629D01*
X146758719Y-91089049D01*
X146810952Y-91141282D01*
X146861414Y-91175000D01*
X145186714Y-91175000D01*
X146448649Y-89913065D01*
X146675000Y-89913065D01*
X146675000Y-90131250D01*
X146768750Y-90225000D01*
X147175000Y-90225000D01*
X147175000Y-89668750D01*
X147425000Y-89668750D01*
X147425000Y-90225000D01*
X147831250Y-90225000D01*
X147925000Y-90131250D01*
X147925000Y-89913065D01*
X147910589Y-89840616D01*
X147882321Y-89772371D01*
X147841281Y-89710951D01*
X147789048Y-89658718D01*
X147727629Y-89617679D01*
X147659383Y-89589411D01*
X147586934Y-89575000D01*
X147518750Y-89575000D01*
X147425000Y-89668750D01*
X147175000Y-89668750D01*
X147081250Y-89575000D01*
X147013066Y-89575000D01*
X146940617Y-89589411D01*
X146872371Y-89617679D01*
X146810952Y-89658718D01*
X146758719Y-89710951D01*
X146717679Y-89772371D01*
X146689411Y-89840616D01*
X146675000Y-89913065D01*
X146448649Y-89913065D01*
X148586715Y-87775000D01*
X151100000Y-87775000D01*
X151152867Y-87769816D01*
X151205772Y-87765188D01*
X151208677Y-87764344D01*
X151211685Y-87764049D01*
X151262490Y-87748710D01*
X151313536Y-87733880D01*
X151316223Y-87732487D01*
X151319115Y-87731614D01*
X151365969Y-87706701D01*
X151413168Y-87682236D01*
X151415533Y-87680348D01*
X151418200Y-87678930D01*
X151459361Y-87645360D01*
X151500870Y-87612223D01*
X151505073Y-87608078D01*
X151505165Y-87608003D01*
X151505235Y-87607918D01*
X151506586Y-87606586D01*
X152859588Y-86253585D01*
X152888571Y-86266247D01*
X153142356Y-86322045D01*
X153402145Y-86327487D01*
X153658043Y-86282365D01*
X153900303Y-86188399D01*
X154119698Y-86049166D01*
X154307872Y-85869971D01*
X154457655Y-85657640D01*
X154563344Y-85420259D01*
X154620912Y-85166870D01*
X154625057Y-84870077D01*
X154574586Y-84615180D01*
X154475566Y-84374940D01*
X154331770Y-84158509D01*
X154148673Y-83974130D01*
X153933251Y-83828826D01*
X153693709Y-83728132D01*
X153439170Y-83675883D01*
X153179331Y-83674069D01*
X152924087Y-83722759D01*
X152683163Y-83820099D01*
X152465733Y-83962381D01*
X152280080Y-84144186D01*
X152133276Y-84358588D01*
X152030911Y-84597421D01*
X151976886Y-84851589D01*
X151973258Y-85111410D01*
X152020166Y-85366987D01*
X152048437Y-85438391D01*
X150861828Y-86625000D01*
X148348542Y-86625000D01*
X148295629Y-86630188D01*
X148242770Y-86634813D01*
X148239870Y-86635656D01*
X148236857Y-86635951D01*
X148186023Y-86651299D01*
X148135005Y-86666120D01*
X148132317Y-86667514D01*
X148129427Y-86668386D01*
X148082552Y-86693310D01*
X148075000Y-86697224D01*
X148075000Y-84765380D01*
X148309379Y-84531001D01*
X148280911Y-84597421D01*
X148226886Y-84851589D01*
X148223258Y-85111410D01*
X148270166Y-85366987D01*
X148365821Y-85608585D01*
X148506582Y-85827003D01*
X148687086Y-86013920D01*
X148900458Y-86162218D01*
X149138571Y-86266247D01*
X149392356Y-86322045D01*
X149652145Y-86327487D01*
X149908043Y-86282365D01*
X150150303Y-86188399D01*
X150369698Y-86049166D01*
X150557872Y-85869971D01*
X150707655Y-85657640D01*
X150813344Y-85420259D01*
X150870912Y-85166870D01*
X150875057Y-84870077D01*
X150824586Y-84615180D01*
X150725566Y-84374940D01*
X150581770Y-84158509D01*
X150398673Y-83974130D01*
X150183251Y-83828826D01*
X149943709Y-83728132D01*
X149689170Y-83675883D01*
X149429331Y-83674069D01*
X149174087Y-83722759D01*
X149079341Y-83761039D01*
X152161271Y-80679109D01*
X152256582Y-80827003D01*
X152437086Y-81013920D01*
X152650458Y-81162218D01*
X152888571Y-81266247D01*
X153142356Y-81322045D01*
X153402145Y-81327487D01*
X153658043Y-81282365D01*
X153900303Y-81188399D01*
X154119698Y-81049166D01*
X154307872Y-80869971D01*
X154457655Y-80657640D01*
X154563344Y-80420259D01*
X154620912Y-80166870D01*
X154625057Y-79870077D01*
X154574586Y-79615180D01*
X154475566Y-79374940D01*
X154331770Y-79158509D01*
X154148673Y-78974130D01*
X153933251Y-78828826D01*
X153693709Y-78728132D01*
X153439170Y-78675883D01*
X153179331Y-78674069D01*
X152924087Y-78722759D01*
X152683163Y-78820099D01*
X152465733Y-78962381D01*
X152280080Y-79144186D01*
X152133276Y-79358588D01*
X152104811Y-79425000D01*
X152027208Y-79425000D01*
X151974341Y-79430184D01*
X151921436Y-79434812D01*
X151918531Y-79435656D01*
X151915523Y-79435951D01*
X151864718Y-79451290D01*
X151813672Y-79466120D01*
X151810985Y-79467513D01*
X151808093Y-79468386D01*
X151761239Y-79493299D01*
X151714040Y-79517764D01*
X151711675Y-79519652D01*
X151709008Y-79521070D01*
X151667847Y-79554640D01*
X151626338Y-79587777D01*
X151622135Y-79591922D01*
X151622043Y-79591997D01*
X151621973Y-79592082D01*
X151620622Y-79593414D01*
X150819096Y-80394940D01*
X150870912Y-80166870D01*
X150875057Y-79870077D01*
X150824586Y-79615180D01*
X150725566Y-79374940D01*
X150581770Y-79158509D01*
X150398673Y-78974130D01*
X150183251Y-78828826D01*
X149943709Y-78728132D01*
X149689170Y-78675883D01*
X149429331Y-78674069D01*
X149174087Y-78722759D01*
X148933163Y-78820099D01*
X148715733Y-78962381D01*
X148530080Y-79144186D01*
X148383276Y-79358588D01*
X148280911Y-79597421D01*
X148226886Y-79851589D01*
X148223258Y-80111410D01*
X148270166Y-80366987D01*
X148365821Y-80608585D01*
X148506582Y-80827003D01*
X148687086Y-81013920D01*
X148900458Y-81162218D01*
X149138571Y-81266247D01*
X149392356Y-81322045D01*
X149652145Y-81327487D01*
X149908043Y-81282365D01*
X149946643Y-81267393D01*
X147093414Y-84120622D01*
X147059708Y-84161656D01*
X147025560Y-84202352D01*
X147024104Y-84205001D01*
X147022184Y-84207338D01*
X146997085Y-84254147D01*
X146971497Y-84300691D01*
X146970583Y-84303574D01*
X146969154Y-84306238D01*
X146956790Y-84346680D01*
X146831770Y-84158509D01*
X146648673Y-83974130D01*
X146433251Y-83828826D01*
X146193709Y-83728132D01*
X145939170Y-83675883D01*
X145679331Y-83674069D01*
X145424087Y-83722759D01*
X145183163Y-83820099D01*
X144965733Y-83962381D01*
X144780080Y-84144186D01*
X144633276Y-84358588D01*
X144530911Y-84597421D01*
X144476886Y-84851589D01*
X144473258Y-85111410D01*
X144520166Y-85366987D01*
X144615821Y-85608585D01*
X144756582Y-85827003D01*
X144937086Y-86013920D01*
X145150458Y-86162218D01*
X145388571Y-86266247D01*
X145642356Y-86322045D01*
X145902145Y-86327487D01*
X146158043Y-86282365D01*
X146400303Y-86188399D01*
X146619698Y-86049166D01*
X146807872Y-85869971D01*
X146925000Y-85703931D01*
X146925000Y-86961827D01*
X142859788Y-91027040D01*
X138552056Y-91027040D01*
X138552056Y-90900000D01*
X138546659Y-90832320D01*
X138511110Y-90717528D01*
X138444988Y-90617185D01*
X138353529Y-90539235D01*
X138243975Y-90489852D01*
X138125000Y-90472944D01*
X136875000Y-90472944D01*
X136807320Y-90478341D01*
X136692528Y-90513890D01*
X136592185Y-90580012D01*
X136514235Y-90671471D01*
X136464852Y-90781025D01*
X136450578Y-90881466D01*
X136446659Y-90832320D01*
X136411110Y-90717528D01*
X136344988Y-90617185D01*
X136253529Y-90539235D01*
X136143975Y-90489852D01*
X136025000Y-90472944D01*
X134775000Y-90472944D01*
X134707320Y-90478341D01*
X134592528Y-90513890D01*
X134492185Y-90580012D01*
X134414235Y-90671471D01*
X134364852Y-90781025D01*
X134347944Y-90900000D01*
X134347944Y-91900000D01*
X134353341Y-91967680D01*
X134388890Y-92082472D01*
X134455012Y-92182815D01*
X134546471Y-92260765D01*
X134656025Y-92310148D01*
X134775000Y-92327056D01*
X135487574Y-92327056D01*
X136135517Y-92975000D01*
X135700000Y-92975000D01*
X135642487Y-92980639D01*
X135585030Y-92985666D01*
X135581877Y-92986582D01*
X135578604Y-92986903D01*
X135523350Y-93003585D01*
X135467895Y-93019696D01*
X135464974Y-93021210D01*
X135461831Y-93022159D01*
X135410856Y-93049263D01*
X135359601Y-93075831D01*
X135357035Y-93077879D01*
X135354130Y-93079424D01*
X135309351Y-93115945D01*
X135264271Y-93151932D01*
X135259700Y-93156440D01*
X135259604Y-93156518D01*
X135259530Y-93156607D01*
X135258058Y-93158059D01*
X133158058Y-95258058D01*
X133121399Y-95302688D01*
X133084304Y-95346896D01*
X133082721Y-95349775D01*
X133080635Y-95352315D01*
X133053379Y-95403147D01*
X133025540Y-95453786D01*
X133024544Y-95456924D01*
X133022994Y-95459816D01*
X133006119Y-95515010D01*
X132988658Y-95570055D01*
X132988292Y-95573317D01*
X132987330Y-95576464D01*
X132981492Y-95633937D01*
X132975061Y-95691274D01*
X132975016Y-95697699D01*
X132975004Y-95697818D01*
X132975014Y-95697929D01*
X132975000Y-95700000D01*
X132975000Y-96156944D01*
X132584000Y-96156944D01*
X132516320Y-96162341D01*
X132401528Y-96197890D01*
X132301185Y-96264012D01*
X132223235Y-96355471D01*
X132173852Y-96465025D01*
X132156944Y-96584000D01*
X129757381Y-96584000D01*
X129717007Y-96450277D01*
X129586488Y-96204807D01*
X129410776Y-95989364D01*
X129325000Y-95918403D01*
X129325000Y-95276546D01*
X129399490Y-95276546D01*
X129467170Y-95271149D01*
X129581962Y-95235600D01*
X129682305Y-95169478D01*
X129760255Y-95078019D01*
X129809638Y-94968465D01*
X129826546Y-94849490D01*
X129826546Y-92850510D01*
X129821149Y-92782830D01*
X129785600Y-92668038D01*
X129719478Y-92567695D01*
X129628019Y-92489745D01*
X129518465Y-92440362D01*
X129399490Y-92423454D01*
X129286214Y-92423454D01*
X129396663Y-92334651D01*
X129575366Y-92121682D01*
X129650507Y-91985000D01*
X129990000Y-91985000D01*
X130052031Y-91978918D01*
X130114167Y-91973482D01*
X130117577Y-91972491D01*
X130121108Y-91972145D01*
X130180808Y-91954121D01*
X130240673Y-91936728D01*
X130243822Y-91935096D01*
X130247223Y-91934069D01*
X130302278Y-91904796D01*
X130357632Y-91876103D01*
X130360408Y-91873887D01*
X130363539Y-91872222D01*
X130411829Y-91832838D01*
X130460587Y-91793914D01*
X130465528Y-91789042D01*
X130465628Y-91788960D01*
X130465705Y-91788867D01*
X130467297Y-91787297D01*
X130877297Y-91377297D01*
X130916870Y-91329121D01*
X130956952Y-91281353D01*
X130958661Y-91278243D01*
X130960915Y-91275500D01*
X130990407Y-91220498D01*
X131020416Y-91165911D01*
X131021488Y-91162533D01*
X131023168Y-91159399D01*
X131041412Y-91099725D01*
X131060250Y-91040340D01*
X131060646Y-91036812D01*
X131061683Y-91033419D01*
X131067984Y-90971385D01*
X131074934Y-90909424D01*
X131074983Y-90902488D01*
X131074996Y-90902356D01*
X131074984Y-90902233D01*
X131075000Y-90900000D01*
X131075000Y-90738586D01*
X131108718Y-90789048D01*
X131160951Y-90841281D01*
X131222371Y-90882321D01*
X131290616Y-90910589D01*
X131363065Y-90925000D01*
X131581250Y-90925000D01*
X131675000Y-90831250D01*
X131675000Y-90425000D01*
X131655000Y-90425000D01*
X131655000Y-90175000D01*
X131675000Y-90175000D01*
X131675000Y-89768750D01*
X131581250Y-89675000D01*
X131363065Y-89675000D01*
X131290616Y-89689411D01*
X131222371Y-89717679D01*
X131160951Y-89758719D01*
X131108718Y-89810952D01*
X131075000Y-89861414D01*
X131075000Y-89325209D01*
X131080012Y-89332815D01*
X131171471Y-89410765D01*
X131281025Y-89460148D01*
X131400000Y-89477056D01*
X132300000Y-89477056D01*
X132367680Y-89471659D01*
X132482472Y-89436110D01*
X132575209Y-89375000D01*
X132779508Y-89375000D01*
X132821471Y-89410765D01*
X132931025Y-89460148D01*
X133000773Y-89470060D01*
X132997085Y-89476939D01*
X132971497Y-89523483D01*
X132970583Y-89526366D01*
X132969154Y-89529030D01*
X132953626Y-89579820D01*
X132937565Y-89630451D01*
X132937228Y-89633456D01*
X132936344Y-89636347D01*
X132935690Y-89642781D01*
X132867528Y-89663890D01*
X132767185Y-89730012D01*
X132689235Y-89821471D01*
X132648588Y-89911644D01*
X132632321Y-89872371D01*
X132591282Y-89810952D01*
X132539049Y-89758719D01*
X132477629Y-89717679D01*
X132409384Y-89689411D01*
X132336935Y-89675000D01*
X132118750Y-89675000D01*
X132025000Y-89768750D01*
X132025000Y-90175000D01*
X132045000Y-90175000D01*
X132045000Y-90425000D01*
X132025000Y-90425000D01*
X132025000Y-90831250D01*
X132118750Y-90925000D01*
X132336935Y-90925000D01*
X132409384Y-90910589D01*
X132477629Y-90882321D01*
X132539049Y-90841281D01*
X132591282Y-90789048D01*
X132632321Y-90727629D01*
X132649527Y-90686091D01*
X132663890Y-90732472D01*
X132730012Y-90832815D01*
X132821471Y-90910765D01*
X132931025Y-90960148D01*
X133050000Y-90977056D01*
X133950000Y-90977056D01*
X134017680Y-90971659D01*
X134132472Y-90936110D01*
X134232815Y-90869988D01*
X134310765Y-90778529D01*
X134360148Y-90668975D01*
X134377056Y-90550000D01*
X134377056Y-90125000D01*
X134416914Y-90125000D01*
X134455012Y-90182815D01*
X134546471Y-90260765D01*
X134656025Y-90310148D01*
X134775000Y-90327056D01*
X136025000Y-90327056D01*
X136092680Y-90321659D01*
X136207472Y-90286110D01*
X136307815Y-90219988D01*
X136385765Y-90128529D01*
X136435148Y-90018975D01*
X136449422Y-89918534D01*
X136453341Y-89967680D01*
X136488890Y-90082472D01*
X136555012Y-90182815D01*
X136646471Y-90260765D01*
X136756025Y-90310148D01*
X136875000Y-90327056D01*
X138125000Y-90327056D01*
X138192680Y-90321659D01*
X138307472Y-90286110D01*
X138407212Y-90220385D01*
X138843414Y-90656587D01*
X138884456Y-90690299D01*
X138925144Y-90724440D01*
X138927796Y-90725898D01*
X138930131Y-90727816D01*
X138976918Y-90752904D01*
X139023483Y-90778503D01*
X139026366Y-90779418D01*
X139029030Y-90780846D01*
X139079820Y-90796374D01*
X139130451Y-90812435D01*
X139133456Y-90812772D01*
X139136347Y-90813656D01*
X139189204Y-90819025D01*
X139241972Y-90824944D01*
X139247878Y-90824985D01*
X139247994Y-90824997D01*
X139248102Y-90824987D01*
X139250000Y-90825000D01*
X139329508Y-90825000D01*
X139371471Y-90860765D01*
X139481025Y-90910148D01*
X139600000Y-90927056D01*
X140500000Y-90927056D01*
X140567680Y-90921659D01*
X140682472Y-90886110D01*
X140782815Y-90819988D01*
X140860765Y-90728529D01*
X140901412Y-90638356D01*
X140917679Y-90677629D01*
X140958718Y-90739048D01*
X141010951Y-90791281D01*
X141072371Y-90832321D01*
X141140616Y-90860589D01*
X141213065Y-90875000D01*
X141431250Y-90875000D01*
X141525000Y-90781250D01*
X141525000Y-90375000D01*
X141875000Y-90375000D01*
X141875000Y-90781250D01*
X141968750Y-90875000D01*
X142186935Y-90875000D01*
X142259384Y-90860589D01*
X142327629Y-90832321D01*
X142389049Y-90791281D01*
X142441282Y-90739048D01*
X142482321Y-90677629D01*
X142510589Y-90609383D01*
X142525000Y-90536934D01*
X142525000Y-90468750D01*
X142431250Y-90375000D01*
X141875000Y-90375000D01*
X141525000Y-90375000D01*
X141505000Y-90375000D01*
X141505000Y-90125000D01*
X141525000Y-90125000D01*
X141525000Y-89718750D01*
X141875000Y-89718750D01*
X141875000Y-90125000D01*
X142431250Y-90125000D01*
X142525000Y-90031250D01*
X142525000Y-89963066D01*
X142510589Y-89890617D01*
X142482321Y-89822371D01*
X142441282Y-89760952D01*
X142389049Y-89708719D01*
X142327629Y-89667679D01*
X142259384Y-89639411D01*
X142186935Y-89625000D01*
X141968750Y-89625000D01*
X141875000Y-89718750D01*
X141525000Y-89718750D01*
X141431250Y-89625000D01*
X141213065Y-89625000D01*
X141140616Y-89639411D01*
X141072371Y-89667679D01*
X141010951Y-89708719D01*
X140958718Y-89760952D01*
X140917679Y-89822371D01*
X140900473Y-89863909D01*
X140886110Y-89817528D01*
X140819988Y-89717185D01*
X140728529Y-89639235D01*
X140618975Y-89589852D01*
X140500000Y-89572944D01*
X139600000Y-89572944D01*
X139532320Y-89578341D01*
X139424808Y-89611635D01*
X138656586Y-88843414D01*
X138615552Y-88809708D01*
X138574856Y-88775560D01*
X138572207Y-88774104D01*
X138569870Y-88772184D01*
X138523061Y-88747085D01*
X138519689Y-88745231D01*
X138511110Y-88717528D01*
X138444988Y-88617185D01*
X138353529Y-88539235D01*
X138243975Y-88489852D01*
X138125000Y-88472944D01*
X136875000Y-88472944D01*
X136807320Y-88478341D01*
X136692528Y-88513890D01*
X136592185Y-88580012D01*
X136514235Y-88671471D01*
X136464852Y-88781025D01*
X136450578Y-88881466D01*
X136446659Y-88832320D01*
X136411110Y-88717528D01*
X136344988Y-88617185D01*
X136253529Y-88539235D01*
X136143975Y-88489852D01*
X136025000Y-88472944D01*
X134775000Y-88472944D01*
X134707320Y-88478341D01*
X134592528Y-88513890D01*
X134492185Y-88580012D01*
X134414235Y-88671471D01*
X134377056Y-88753951D01*
X134377056Y-88550000D01*
X134371659Y-88482320D01*
X134336110Y-88367528D01*
X134269988Y-88267185D01*
X134178529Y-88189235D01*
X134068975Y-88139852D01*
X133950000Y-88122944D01*
X133875000Y-88122944D01*
X133875000Y-87820492D01*
X133910765Y-87778529D01*
X133960148Y-87668975D01*
X133977056Y-87550000D01*
X133977056Y-86675000D01*
X134222944Y-86675000D01*
X134222944Y-87550000D01*
X134228341Y-87617680D01*
X134263890Y-87732472D01*
X134330012Y-87832815D01*
X134421471Y-87910765D01*
X134531025Y-87960148D01*
X134650000Y-87977056D01*
X135450000Y-87977056D01*
X135517680Y-87971659D01*
X135632472Y-87936110D01*
X135732815Y-87869988D01*
X135786930Y-87806495D01*
X135863740Y-87823383D01*
X136005888Y-87826361D01*
X136145908Y-87801672D01*
X136278466Y-87750256D01*
X136398512Y-87674072D01*
X136501475Y-87576022D01*
X136583432Y-87459841D01*
X136641262Y-87329953D01*
X136672761Y-87191306D01*
X136674655Y-87055714D01*
X136674996Y-87052354D01*
X136674739Y-87049640D01*
X136675029Y-87028910D01*
X136670725Y-87007173D01*
X136662598Y-86921202D01*
X136624963Y-86794955D01*
X136563523Y-86678424D01*
X136560750Y-86675000D01*
X137976497Y-86675000D01*
X137972944Y-86700000D01*
X137972944Y-87600000D01*
X137978341Y-87667680D01*
X138013890Y-87782472D01*
X138080012Y-87882815D01*
X138171471Y-87960765D01*
X138281025Y-88010148D01*
X138400000Y-88027056D01*
X138863884Y-88027056D01*
X139198552Y-88361724D01*
X139189852Y-88381025D01*
X139172944Y-88500000D01*
X139172944Y-89000000D01*
X139178341Y-89067680D01*
X139213890Y-89182472D01*
X139280012Y-89282815D01*
X139371471Y-89360765D01*
X139481025Y-89410148D01*
X139600000Y-89427056D01*
X140500000Y-89427056D01*
X140567680Y-89421659D01*
X140682472Y-89386110D01*
X140775209Y-89325000D01*
X140979508Y-89325000D01*
X141021471Y-89360765D01*
X141131025Y-89410148D01*
X141250000Y-89427056D01*
X142150000Y-89427056D01*
X142217680Y-89421659D01*
X142332472Y-89386110D01*
X142432815Y-89319988D01*
X142510765Y-89228529D01*
X142560148Y-89118975D01*
X142577056Y-89000000D01*
X142577056Y-88500000D01*
X142571659Y-88432320D01*
X142536110Y-88317528D01*
X142469988Y-88217185D01*
X142378529Y-88139235D01*
X142268975Y-88089852D01*
X142150000Y-88072944D01*
X141250000Y-88072944D01*
X141182320Y-88078341D01*
X141067528Y-88113890D01*
X140974791Y-88175000D01*
X140770492Y-88175000D01*
X140728529Y-88139235D01*
X140618975Y-88089852D01*
X140524553Y-88076433D01*
X140495360Y-88040639D01*
X140484516Y-88027056D01*
X141100000Y-88027056D01*
X141167680Y-88021659D01*
X141282472Y-87986110D01*
X141382815Y-87919988D01*
X141460765Y-87828529D01*
X141510148Y-87718975D01*
X141527056Y-87600000D01*
X141527056Y-86700000D01*
X141521659Y-86632320D01*
X141486110Y-86517528D01*
X141419988Y-86417185D01*
X141328529Y-86339235D01*
X141320186Y-86335474D01*
X141294796Y-86287722D01*
X141266103Y-86232368D01*
X141263887Y-86229592D01*
X141262222Y-86226461D01*
X141222838Y-86178171D01*
X141183914Y-86129413D01*
X141179042Y-86124472D01*
X141178960Y-86124372D01*
X141178867Y-86124295D01*
X141177297Y-86122703D01*
X140577297Y-85522703D01*
X140529121Y-85483130D01*
X140491286Y-85451383D01*
X140510765Y-85428529D01*
X140560148Y-85318975D01*
X140577056Y-85200000D01*
X140577056Y-84300000D01*
X140571659Y-84232320D01*
X140536110Y-84117528D01*
X140469988Y-84017185D01*
X140378529Y-83939235D01*
X140268975Y-83889852D01*
X140264644Y-83889236D01*
X140256690Y-83874278D01*
X140232236Y-83827101D01*
X140230350Y-83824738D01*
X140228930Y-83822068D01*
X140195367Y-83780915D01*
X140162224Y-83739398D01*
X140158073Y-83735189D01*
X140158003Y-83735103D01*
X140157924Y-83735037D01*
X140156587Y-83733682D01*
X139825554Y-83402649D01*
X139854141Y-83339230D01*
X139871049Y-83220255D01*
X139871049Y-83175000D01*
X140249862Y-83175000D01*
X140255012Y-83182815D01*
X140346471Y-83260765D01*
X140456025Y-83310148D01*
X140575000Y-83327056D01*
X141825000Y-83327056D01*
X141892680Y-83321659D01*
X142007472Y-83286110D01*
X142107815Y-83219988D01*
X142185765Y-83128529D01*
X142235148Y-83018975D01*
X142252056Y-82900000D01*
X142252056Y-81900000D01*
X142246659Y-81832320D01*
X142211110Y-81717528D01*
X142144988Y-81617185D01*
X142053529Y-81539235D01*
X141943975Y-81489852D01*
X141825000Y-81472944D01*
X140575000Y-81472944D01*
X140507320Y-81478341D01*
X140392528Y-81513890D01*
X140292185Y-81580012D01*
X140214235Y-81671471D01*
X140164852Y-81781025D01*
X140147944Y-81900000D01*
X140147944Y-82025000D01*
X139787469Y-82025000D01*
X139833434Y-81959841D01*
X139891264Y-81829953D01*
X139922763Y-81691306D01*
X139925031Y-81528910D01*
X139897415Y-81389438D01*
X139843234Y-81257986D01*
X139764553Y-81139562D01*
X139664368Y-81038675D01*
X139546496Y-80959169D01*
X139506441Y-80942331D01*
X139511673Y-80941914D01*
X139626465Y-80906365D01*
X139674063Y-80875000D01*
X140147944Y-80875000D01*
X140147944Y-80900000D01*
X140153341Y-80967680D01*
X140188890Y-81082472D01*
X140255012Y-81182815D01*
X140346471Y-81260765D01*
X140456025Y-81310148D01*
X140575000Y-81327056D01*
X141825000Y-81327056D01*
X141892680Y-81321659D01*
X142007472Y-81286110D01*
X142107815Y-81219988D01*
X142185765Y-81128529D01*
X142235148Y-81018975D01*
X142252056Y-80900000D01*
X142252056Y-80111410D01*
X144473258Y-80111410D01*
X144520166Y-80366987D01*
X144615821Y-80608585D01*
X144756582Y-80827003D01*
X144937086Y-81013920D01*
X145150458Y-81162218D01*
X145388571Y-81266247D01*
X145642356Y-81322045D01*
X145902145Y-81327487D01*
X146158043Y-81282365D01*
X146400303Y-81188399D01*
X146619698Y-81049166D01*
X146807872Y-80869971D01*
X146957655Y-80657640D01*
X147063344Y-80420259D01*
X147120912Y-80166870D01*
X147125057Y-79870077D01*
X147074586Y-79615180D01*
X146975566Y-79374940D01*
X146831770Y-79158509D01*
X146648673Y-78974130D01*
X146433251Y-78828826D01*
X146193709Y-78728132D01*
X145939170Y-78675883D01*
X145679331Y-78674069D01*
X145424087Y-78722759D01*
X145183163Y-78820099D01*
X144965733Y-78962381D01*
X144780080Y-79144186D01*
X144633276Y-79358588D01*
X144530911Y-79597421D01*
X144476886Y-79851589D01*
X144473258Y-80111410D01*
X142252056Y-80111410D01*
X142252056Y-79900000D01*
X142246659Y-79832320D01*
X142211110Y-79717528D01*
X142144988Y-79617185D01*
X142053529Y-79539235D01*
X141943975Y-79489852D01*
X141825000Y-79472944D01*
X140575000Y-79472944D01*
X140507320Y-79478341D01*
X140392528Y-79513890D01*
X140292185Y-79580012D01*
X140214235Y-79671471D01*
X140190106Y-79725000D01*
X139871049Y-79725000D01*
X139871049Y-79620255D01*
X139865652Y-79552575D01*
X139830103Y-79437783D01*
X139768993Y-79345046D01*
X139768993Y-79293993D01*
X139763814Y-79241171D01*
X139759181Y-79188221D01*
X139758337Y-79185316D01*
X139758042Y-79182308D01*
X139742703Y-79131503D01*
X139727873Y-79080457D01*
X139726480Y-79077770D01*
X139725607Y-79074878D01*
X139700683Y-79028003D01*
X139676229Y-78980826D01*
X139674343Y-78978463D01*
X139672923Y-78975793D01*
X139639360Y-78934640D01*
X139606217Y-78893123D01*
X139602066Y-78888914D01*
X139601996Y-78888828D01*
X139601917Y-78888762D01*
X139600580Y-78887407D01*
X139163172Y-78450000D01*
X156050000Y-78450000D01*
X156050000Y-103550000D01*
X125450000Y-103550000D01*
X125450000Y-102348750D01*
X127025510Y-102348750D01*
X127025510Y-103116424D01*
X127039921Y-103188873D01*
X127068189Y-103257119D01*
X127109228Y-103318538D01*
X127161461Y-103370771D01*
X127222881Y-103411811D01*
X127291126Y-103440079D01*
X127363575Y-103454490D01*
X128131250Y-103454490D01*
X128225000Y-103360740D01*
X128225000Y-102255000D01*
X128575000Y-102255000D01*
X128575000Y-103360740D01*
X128668750Y-103454490D01*
X129436425Y-103454490D01*
X129508874Y-103440079D01*
X129577119Y-103411811D01*
X129638539Y-103370771D01*
X129690772Y-103318538D01*
X129731811Y-103257119D01*
X129760079Y-103188873D01*
X129774490Y-103116424D01*
X129774490Y-102348750D01*
X129680740Y-102255000D01*
X128575000Y-102255000D01*
X128225000Y-102255000D01*
X127119260Y-102255000D01*
X127025510Y-102348750D01*
X125450000Y-102348750D01*
X125450000Y-88382594D01*
X127030534Y-88382594D01*
X127030534Y-89150268D01*
X127044945Y-89222717D01*
X127073213Y-89290963D01*
X127114252Y-89352382D01*
X127166485Y-89404615D01*
X127227905Y-89445655D01*
X127296150Y-89473923D01*
X127368599Y-89488334D01*
X128136274Y-89488334D01*
X128230024Y-89394584D01*
X128230024Y-88288844D01*
X127124284Y-88288844D01*
X127030534Y-88382594D01*
X125450000Y-88382594D01*
X125450000Y-82668750D01*
X127025510Y-82668750D01*
X127025510Y-83436424D01*
X127039921Y-83508873D01*
X127068189Y-83577119D01*
X127109228Y-83638538D01*
X127161461Y-83690771D01*
X127222881Y-83731811D01*
X127291126Y-83760079D01*
X127363575Y-83774490D01*
X128131250Y-83774490D01*
X128225000Y-83680740D01*
X128225000Y-82575000D01*
X128575000Y-82575000D01*
X128575000Y-83680740D01*
X128668750Y-83774490D01*
X129436425Y-83774490D01*
X129508874Y-83760079D01*
X129577119Y-83731811D01*
X129638539Y-83690771D01*
X129690772Y-83638538D01*
X129731811Y-83577119D01*
X129760079Y-83508873D01*
X129774490Y-83436424D01*
X129774490Y-82668750D01*
X129680740Y-82575000D01*
X128575000Y-82575000D01*
X128225000Y-82575000D01*
X127119260Y-82575000D01*
X127025510Y-82668750D01*
X125450000Y-82668750D01*
X125450000Y-78450000D01*
X128175381Y-78450000D01*
X128133077Y-78453850D01*
G36*
X137152712Y-79381206D02*
X137111672Y-79442626D01*
X137083404Y-79510871D01*
X137068993Y-79583320D01*
X137068993Y-79801505D01*
X137162743Y-79895255D01*
X137568993Y-79895255D01*
X137568993Y-79875255D01*
X137818993Y-79875255D01*
X137818993Y-79895255D01*
X138225243Y-79895255D01*
X138318993Y-79801505D01*
X138318993Y-79583320D01*
X138304582Y-79510871D01*
X138276314Y-79442626D01*
X138235274Y-79381206D01*
X138229068Y-79375000D01*
X138461828Y-79375000D01*
X138550705Y-79463877D01*
X138533845Y-79501280D01*
X138516937Y-79620255D01*
X138516937Y-80520255D01*
X138522334Y-80587935D01*
X138557883Y-80702727D01*
X138624005Y-80803070D01*
X138715464Y-80881020D01*
X138825018Y-80930403D01*
X138896664Y-80940585D01*
X138862485Y-80954394D01*
X138754587Y-81025000D01*
X138664248Y-81025000D01*
X138611381Y-81030184D01*
X138558476Y-81034812D01*
X138555571Y-81035656D01*
X138552563Y-81035951D01*
X138501758Y-81051290D01*
X138450712Y-81066120D01*
X138448025Y-81067513D01*
X138445133Y-81068386D01*
X138398279Y-81093299D01*
X138351080Y-81117764D01*
X138348715Y-81119652D01*
X138346048Y-81121070D01*
X138304917Y-81154615D01*
X138263378Y-81187776D01*
X138259169Y-81191927D01*
X138259083Y-81191997D01*
X138259017Y-81192076D01*
X138257662Y-81193413D01*
X137557877Y-81893199D01*
X137443993Y-81893199D01*
X137376313Y-81898596D01*
X137261521Y-81934145D01*
X137161178Y-82000267D01*
X137083228Y-82091726D01*
X137033845Y-82201280D01*
X137016937Y-82320255D01*
X137016937Y-83220255D01*
X137022334Y-83287935D01*
X137057883Y-83402727D01*
X137124005Y-83503070D01*
X137215464Y-83581020D01*
X137325018Y-83630403D01*
X137443993Y-83647311D01*
X137943993Y-83647311D01*
X138011673Y-83641914D01*
X138126465Y-83606365D01*
X138226808Y-83540243D01*
X138304758Y-83448784D01*
X138354141Y-83339230D01*
X138371049Y-83220255D01*
X138371049Y-82706371D01*
X138516937Y-82560483D01*
X138516937Y-83220255D01*
X138522334Y-83287935D01*
X138557883Y-83402727D01*
X138618993Y-83495464D01*
X138618993Y-83584261D01*
X138624177Y-83637128D01*
X138628805Y-83690033D01*
X138629649Y-83692938D01*
X138629944Y-83695946D01*
X138645283Y-83746751D01*
X138660113Y-83797797D01*
X138661506Y-83800484D01*
X138662379Y-83803376D01*
X138687292Y-83850230D01*
X138711757Y-83897429D01*
X138713645Y-83899794D01*
X138715063Y-83902461D01*
X138748633Y-83943622D01*
X138781770Y-83985131D01*
X138785915Y-83989334D01*
X138785990Y-83989426D01*
X138786075Y-83989496D01*
X138787407Y-83990847D01*
X138951576Y-84155016D01*
X138942568Y-84175000D01*
X138088106Y-84175000D01*
X138064561Y-84139562D01*
X137964376Y-84038675D01*
X137846504Y-83959169D01*
X137715434Y-83904072D01*
X137576158Y-83875483D01*
X137433981Y-83874490D01*
X137294320Y-83901132D01*
X137162493Y-83954394D01*
X137043522Y-84032246D01*
X136941938Y-84131724D01*
X136861612Y-84249039D01*
X136805601Y-84379721D01*
X136776040Y-84518794D01*
X136774055Y-84660960D01*
X136799721Y-84800804D01*
X136852061Y-84932999D01*
X136929081Y-85052511D01*
X137027847Y-85154787D01*
X137144598Y-85235931D01*
X137274887Y-85292852D01*
X137413750Y-85323383D01*
X137490934Y-85325000D01*
X135363603Y-85325000D01*
X135495904Y-85301672D01*
X135628462Y-85250256D01*
X135748508Y-85174072D01*
X135851471Y-85076022D01*
X135933428Y-84959841D01*
X135991258Y-84829953D01*
X136022757Y-84691306D01*
X136025025Y-84528910D01*
X135997409Y-84389438D01*
X135943228Y-84257986D01*
X135864547Y-84139562D01*
X135764362Y-84038675D01*
X135646490Y-83959169D01*
X135515420Y-83904072D01*
X135376144Y-83875483D01*
X135233967Y-83874490D01*
X135094306Y-83901132D01*
X134962479Y-83954394D01*
X134857030Y-84023398D01*
X134819988Y-83967185D01*
X134728529Y-83889235D01*
X134618975Y-83839852D01*
X134609046Y-83838441D01*
X134606690Y-83834010D01*
X134582235Y-83786832D01*
X134580350Y-83784471D01*
X134578930Y-83781800D01*
X134545337Y-83740611D01*
X134512223Y-83699130D01*
X134508074Y-83694922D01*
X134508003Y-83694835D01*
X134507922Y-83694768D01*
X134506586Y-83693413D01*
X134158428Y-83345255D01*
X134628273Y-83345255D01*
X134646471Y-83360765D01*
X134756025Y-83410148D01*
X134875000Y-83427056D01*
X136125000Y-83427056D01*
X136192680Y-83421659D01*
X136307472Y-83386110D01*
X136407815Y-83319988D01*
X136485765Y-83228529D01*
X136535148Y-83118975D01*
X136552056Y-83000000D01*
X136552056Y-82000000D01*
X136546659Y-81932320D01*
X136511110Y-81817528D01*
X136444988Y-81717185D01*
X136353529Y-81639235D01*
X136243975Y-81589852D01*
X136125000Y-81572944D01*
X134875000Y-81572944D01*
X134807320Y-81578341D01*
X134692528Y-81613890D01*
X134592185Y-81680012D01*
X134514235Y-81771471D01*
X134464852Y-81881025D01*
X134447944Y-82000000D01*
X134447944Y-82195255D01*
X133997901Y-82195255D01*
X133980103Y-82137783D01*
X133913981Y-82037440D01*
X133822522Y-81959490D01*
X133712968Y-81910107D01*
X133593993Y-81893199D01*
X133175000Y-81893199D01*
X133175000Y-81852420D01*
X133800580Y-81226841D01*
X133834292Y-81185799D01*
X133868433Y-81145111D01*
X133869891Y-81142459D01*
X133871809Y-81140124D01*
X133896897Y-81093337D01*
X133922496Y-81046772D01*
X133923411Y-81043889D01*
X133924839Y-81041225D01*
X133940367Y-80990435D01*
X133956428Y-80939804D01*
X133956765Y-80936799D01*
X133957649Y-80933908D01*
X133963019Y-80881046D01*
X133963697Y-80875000D01*
X134447944Y-80875000D01*
X134447944Y-81000000D01*
X134453341Y-81067680D01*
X134488890Y-81182472D01*
X134555012Y-81282815D01*
X134646471Y-81360765D01*
X134756025Y-81410148D01*
X134875000Y-81427056D01*
X136125000Y-81427056D01*
X136192680Y-81421659D01*
X136307472Y-81386110D01*
X136407815Y-81319988D01*
X136485765Y-81228529D01*
X136535148Y-81118975D01*
X136552056Y-81000000D01*
X136552056Y-80339005D01*
X137068993Y-80339005D01*
X137068993Y-80557190D01*
X137083404Y-80629639D01*
X137111672Y-80697884D01*
X137152712Y-80759304D01*
X137204945Y-80811537D01*
X137266364Y-80852576D01*
X137334610Y-80880844D01*
X137407059Y-80895255D01*
X137475243Y-80895255D01*
X137568993Y-80801505D01*
X137568993Y-80245255D01*
X137818993Y-80245255D01*
X137818993Y-80801505D01*
X137912743Y-80895255D01*
X137980927Y-80895255D01*
X138053376Y-80880844D01*
X138121622Y-80852576D01*
X138183041Y-80811537D01*
X138235274Y-80759304D01*
X138276314Y-80697884D01*
X138304582Y-80629639D01*
X138318993Y-80557190D01*
X138318993Y-80339005D01*
X138225243Y-80245255D01*
X137818993Y-80245255D01*
X137568993Y-80245255D01*
X137162743Y-80245255D01*
X137068993Y-80339005D01*
X136552056Y-80339005D01*
X136552056Y-80000000D01*
X136546659Y-79932320D01*
X136511110Y-79817528D01*
X136444988Y-79717185D01*
X136353529Y-79639235D01*
X136243975Y-79589852D01*
X136125000Y-79572944D01*
X134875000Y-79572944D01*
X134807320Y-79578341D01*
X134692528Y-79613890D01*
X134592185Y-79680012D01*
X134553842Y-79725000D01*
X134071049Y-79725000D01*
X134071049Y-79620255D01*
X134065652Y-79552575D01*
X134030103Y-79437783D01*
X133988732Y-79375000D01*
X137158918Y-79375000D01*
X137152712Y-79381206D01*
X137152712Y-79381206D01*
G37*
X137152712Y-79381206D02*
X137111672Y-79442626D01*
X137083404Y-79510871D01*
X137068993Y-79583320D01*
X137068993Y-79801505D01*
X137162743Y-79895255D01*
X137568993Y-79895255D01*
X137568993Y-79875255D01*
X137818993Y-79875255D01*
X137818993Y-79895255D01*
X138225243Y-79895255D01*
X138318993Y-79801505D01*
X138318993Y-79583320D01*
X138304582Y-79510871D01*
X138276314Y-79442626D01*
X138235274Y-79381206D01*
X138229068Y-79375000D01*
X138461828Y-79375000D01*
X138550705Y-79463877D01*
X138533845Y-79501280D01*
X138516937Y-79620255D01*
X138516937Y-80520255D01*
X138522334Y-80587935D01*
X138557883Y-80702727D01*
X138624005Y-80803070D01*
X138715464Y-80881020D01*
X138825018Y-80930403D01*
X138896664Y-80940585D01*
X138862485Y-80954394D01*
X138754587Y-81025000D01*
X138664248Y-81025000D01*
X138611381Y-81030184D01*
X138558476Y-81034812D01*
X138555571Y-81035656D01*
X138552563Y-81035951D01*
X138501758Y-81051290D01*
X138450712Y-81066120D01*
X138448025Y-81067513D01*
X138445133Y-81068386D01*
X138398279Y-81093299D01*
X138351080Y-81117764D01*
X138348715Y-81119652D01*
X138346048Y-81121070D01*
X138304917Y-81154615D01*
X138263378Y-81187776D01*
X138259169Y-81191927D01*
X138259083Y-81191997D01*
X138259017Y-81192076D01*
X138257662Y-81193413D01*
X137557877Y-81893199D01*
X137443993Y-81893199D01*
X137376313Y-81898596D01*
X137261521Y-81934145D01*
X137161178Y-82000267D01*
X137083228Y-82091726D01*
X137033845Y-82201280D01*
X137016937Y-82320255D01*
X137016937Y-83220255D01*
X137022334Y-83287935D01*
X137057883Y-83402727D01*
X137124005Y-83503070D01*
X137215464Y-83581020D01*
X137325018Y-83630403D01*
X137443993Y-83647311D01*
X137943993Y-83647311D01*
X138011673Y-83641914D01*
X138126465Y-83606365D01*
X138226808Y-83540243D01*
X138304758Y-83448784D01*
X138354141Y-83339230D01*
X138371049Y-83220255D01*
X138371049Y-82706371D01*
X138516937Y-82560483D01*
X138516937Y-83220255D01*
X138522334Y-83287935D01*
X138557883Y-83402727D01*
X138618993Y-83495464D01*
X138618993Y-83584261D01*
X138624177Y-83637128D01*
X138628805Y-83690033D01*
X138629649Y-83692938D01*
X138629944Y-83695946D01*
X138645283Y-83746751D01*
X138660113Y-83797797D01*
X138661506Y-83800484D01*
X138662379Y-83803376D01*
X138687292Y-83850230D01*
X138711757Y-83897429D01*
X138713645Y-83899794D01*
X138715063Y-83902461D01*
X138748633Y-83943622D01*
X138781770Y-83985131D01*
X138785915Y-83989334D01*
X138785990Y-83989426D01*
X138786075Y-83989496D01*
X138787407Y-83990847D01*
X138951576Y-84155016D01*
X138942568Y-84175000D01*
X138088106Y-84175000D01*
X138064561Y-84139562D01*
X137964376Y-84038675D01*
X137846504Y-83959169D01*
X137715434Y-83904072D01*
X137576158Y-83875483D01*
X137433981Y-83874490D01*
X137294320Y-83901132D01*
X137162493Y-83954394D01*
X137043522Y-84032246D01*
X136941938Y-84131724D01*
X136861612Y-84249039D01*
X136805601Y-84379721D01*
X136776040Y-84518794D01*
X136774055Y-84660960D01*
X136799721Y-84800804D01*
X136852061Y-84932999D01*
X136929081Y-85052511D01*
X137027847Y-85154787D01*
X137144598Y-85235931D01*
X137274887Y-85292852D01*
X137413750Y-85323383D01*
X137490934Y-85325000D01*
X135363603Y-85325000D01*
X135495904Y-85301672D01*
X135628462Y-85250256D01*
X135748508Y-85174072D01*
X135851471Y-85076022D01*
X135933428Y-84959841D01*
X135991258Y-84829953D01*
X136022757Y-84691306D01*
X136025025Y-84528910D01*
X135997409Y-84389438D01*
X135943228Y-84257986D01*
X135864547Y-84139562D01*
X135764362Y-84038675D01*
X135646490Y-83959169D01*
X135515420Y-83904072D01*
X135376144Y-83875483D01*
X135233967Y-83874490D01*
X135094306Y-83901132D01*
X134962479Y-83954394D01*
X134857030Y-84023398D01*
X134819988Y-83967185D01*
X134728529Y-83889235D01*
X134618975Y-83839852D01*
X134609046Y-83838441D01*
X134606690Y-83834010D01*
X134582235Y-83786832D01*
X134580350Y-83784471D01*
X134578930Y-83781800D01*
X134545337Y-83740611D01*
X134512223Y-83699130D01*
X134508074Y-83694922D01*
X134508003Y-83694835D01*
X134507922Y-83694768D01*
X134506586Y-83693413D01*
X134158428Y-83345255D01*
X134628273Y-83345255D01*
X134646471Y-83360765D01*
X134756025Y-83410148D01*
X134875000Y-83427056D01*
X136125000Y-83427056D01*
X136192680Y-83421659D01*
X136307472Y-83386110D01*
X136407815Y-83319988D01*
X136485765Y-83228529D01*
X136535148Y-83118975D01*
X136552056Y-83000000D01*
X136552056Y-82000000D01*
X136546659Y-81932320D01*
X136511110Y-81817528D01*
X136444988Y-81717185D01*
X136353529Y-81639235D01*
X136243975Y-81589852D01*
X136125000Y-81572944D01*
X134875000Y-81572944D01*
X134807320Y-81578341D01*
X134692528Y-81613890D01*
X134592185Y-81680012D01*
X134514235Y-81771471D01*
X134464852Y-81881025D01*
X134447944Y-82000000D01*
X134447944Y-82195255D01*
X133997901Y-82195255D01*
X133980103Y-82137783D01*
X133913981Y-82037440D01*
X133822522Y-81959490D01*
X133712968Y-81910107D01*
X133593993Y-81893199D01*
X133175000Y-81893199D01*
X133175000Y-81852420D01*
X133800580Y-81226841D01*
X133834292Y-81185799D01*
X133868433Y-81145111D01*
X133869891Y-81142459D01*
X133871809Y-81140124D01*
X133896897Y-81093337D01*
X133922496Y-81046772D01*
X133923411Y-81043889D01*
X133924839Y-81041225D01*
X133940367Y-80990435D01*
X133956428Y-80939804D01*
X133956765Y-80936799D01*
X133957649Y-80933908D01*
X133963019Y-80881046D01*
X133963697Y-80875000D01*
X134447944Y-80875000D01*
X134447944Y-81000000D01*
X134453341Y-81067680D01*
X134488890Y-81182472D01*
X134555012Y-81282815D01*
X134646471Y-81360765D01*
X134756025Y-81410148D01*
X134875000Y-81427056D01*
X136125000Y-81427056D01*
X136192680Y-81421659D01*
X136307472Y-81386110D01*
X136407815Y-81319988D01*
X136485765Y-81228529D01*
X136535148Y-81118975D01*
X136552056Y-81000000D01*
X136552056Y-80339005D01*
X137068993Y-80339005D01*
X137068993Y-80557190D01*
X137083404Y-80629639D01*
X137111672Y-80697884D01*
X137152712Y-80759304D01*
X137204945Y-80811537D01*
X137266364Y-80852576D01*
X137334610Y-80880844D01*
X137407059Y-80895255D01*
X137475243Y-80895255D01*
X137568993Y-80801505D01*
X137568993Y-80245255D01*
X137818993Y-80245255D01*
X137818993Y-80801505D01*
X137912743Y-80895255D01*
X137980927Y-80895255D01*
X138053376Y-80880844D01*
X138121622Y-80852576D01*
X138183041Y-80811537D01*
X138235274Y-80759304D01*
X138276314Y-80697884D01*
X138304582Y-80629639D01*
X138318993Y-80557190D01*
X138318993Y-80339005D01*
X138225243Y-80245255D01*
X137818993Y-80245255D01*
X137568993Y-80245255D01*
X137162743Y-80245255D01*
X137068993Y-80339005D01*
X136552056Y-80339005D01*
X136552056Y-80000000D01*
X136546659Y-79932320D01*
X136511110Y-79817528D01*
X136444988Y-79717185D01*
X136353529Y-79639235D01*
X136243975Y-79589852D01*
X136125000Y-79572944D01*
X134875000Y-79572944D01*
X134807320Y-79578341D01*
X134692528Y-79613890D01*
X134592185Y-79680012D01*
X134553842Y-79725000D01*
X134071049Y-79725000D01*
X134071049Y-79620255D01*
X134065652Y-79552575D01*
X134030103Y-79437783D01*
X133988732Y-79375000D01*
X137158918Y-79375000D01*
X137152712Y-79381206D01*
M02*
