G04 #@! TF.FileFunction,Legend,Top*
%FSLAX46Y46*%
G04 Gerber Fmt 4.6, Leading zero omitted, Abs format (unit mm)*
G04 Created by KiCad (PCBNEW 4.0.4-1.fc24-product) date Mon Jun  4 16:06:22 2018*
%MOMM*%
%LPD*%
G01*
G04 APERTURE LIST*
%ADD10C,0.100000*%
%ADD11C,0.150000*%
G04 APERTURE END LIST*
D10*
D11*
X137100000Y-83150000D02*
X137100000Y-95850000D01*
X137100000Y-95850000D02*
X148500000Y-95850000D01*
X148500000Y-95850000D02*
X148500000Y-83150000D01*
X148500000Y-83150000D02*
X137100000Y-83150000D01*
X143404762Y-91233333D02*
X143452381Y-91090476D01*
X143452381Y-90852380D01*
X143404762Y-90757142D01*
X143357143Y-90709523D01*
X143261905Y-90661904D01*
X143166667Y-90661904D01*
X143071429Y-90709523D01*
X143023810Y-90757142D01*
X142976190Y-90852380D01*
X142928571Y-91042857D01*
X142880952Y-91138095D01*
X142833333Y-91185714D01*
X142738095Y-91233333D01*
X142642857Y-91233333D01*
X142547619Y-91185714D01*
X142500000Y-91138095D01*
X142452381Y-91042857D01*
X142452381Y-90804761D01*
X142500000Y-90661904D01*
X142452381Y-90328571D02*
X143452381Y-90090476D01*
X142738095Y-89899999D01*
X143452381Y-89709523D01*
X142452381Y-89471428D01*
X143452381Y-88566666D02*
X143452381Y-89138095D01*
X143452381Y-88852381D02*
X142452381Y-88852381D01*
X142595238Y-88947619D01*
X142690476Y-89042857D01*
X142738095Y-89138095D01*
M02*
