G04 #@! TF.FileFunction,Copper,L1,Top,Signal*
%FSLAX46Y46*%
G04 Gerber Fmt 4.6, Leading zero omitted, Abs format (unit mm)*
G04 Created by KiCad (PCBNEW 4.0.4-1.fc24-product) date Tue Jun 12 13:23:07 2018*
%MOMM*%
%LPD*%
G01*
G04 APERTURE LIST*
%ADD10C,0.100000*%
%ADD11O,1.800000X1.800000*%
%ADD12C,1.800000*%
%ADD13R,1.700000X1.700000*%
%ADD14O,1.700000X1.700000*%
%ADD15C,0.500000*%
%ADD16C,0.250000*%
G04 APERTURE END LIST*
D10*
D11*
X140400000Y-90500000D03*
D12*
X140400000Y-95200000D03*
D11*
X140400000Y-85800000D03*
D12*
X145230000Y-95200000D03*
D11*
X145230000Y-90500000D03*
X145230000Y-85800000D03*
D13*
X150100000Y-85320000D03*
D14*
X150100000Y-87860000D03*
X150100000Y-90400000D03*
D13*
X150100000Y-93060000D03*
D14*
X150100000Y-95600000D03*
D15*
X150100000Y-87860000D02*
X150060000Y-87900000D01*
X150060000Y-87900000D02*
X147800000Y-87900000D01*
X147800000Y-87900000D02*
X145230000Y-90470000D01*
X145230000Y-90470000D02*
X145230000Y-90500000D01*
X140400000Y-90500000D02*
X140500000Y-90500000D01*
X140500000Y-90500000D02*
X142800000Y-88200000D01*
X142800000Y-88200000D02*
X145500000Y-88200000D01*
X145500000Y-88200000D02*
X148380000Y-85320000D01*
X148380000Y-85320000D02*
X150100000Y-85320000D01*
X150100000Y-85320000D02*
X150080000Y-85320000D01*
D16*
G36*
X148822944Y-84470000D02*
X148822944Y-84645000D01*
X148380000Y-84645000D01*
X148317969Y-84651082D01*
X148255833Y-84656518D01*
X148252423Y-84657509D01*
X148248892Y-84657855D01*
X148189192Y-84675879D01*
X148129327Y-84693272D01*
X148126178Y-84694904D01*
X148122777Y-84695931D01*
X148067722Y-84725204D01*
X148012368Y-84753897D01*
X148009592Y-84756113D01*
X148006461Y-84757778D01*
X147958171Y-84797162D01*
X147909413Y-84836086D01*
X147904472Y-84840958D01*
X147904372Y-84841040D01*
X147904295Y-84841133D01*
X147902703Y-84842703D01*
X146462179Y-86283227D01*
X146526046Y-86081894D01*
X146554871Y-85824911D01*
X146555000Y-85806411D01*
X146555000Y-85793589D01*
X146529766Y-85536228D01*
X146455023Y-85288671D01*
X146333621Y-85060345D01*
X146170181Y-84859949D01*
X145970931Y-84695114D01*
X145743458Y-84572120D01*
X145496428Y-84495652D01*
X145239250Y-84468621D01*
X144981720Y-84492058D01*
X144733646Y-84565070D01*
X144504479Y-84684876D01*
X144302946Y-84846913D01*
X144136725Y-85045008D01*
X144012146Y-85271616D01*
X143933954Y-85518106D01*
X143905129Y-85775089D01*
X143905000Y-85793589D01*
X143905000Y-85806411D01*
X143930234Y-86063772D01*
X144004977Y-86311329D01*
X144126379Y-86539655D01*
X144289819Y-86740051D01*
X144489069Y-86904886D01*
X144716542Y-87027880D01*
X144963572Y-87104348D01*
X145220750Y-87131379D01*
X145478280Y-87107942D01*
X145703854Y-87041552D01*
X145220406Y-87525000D01*
X142800000Y-87525000D01*
X142737969Y-87531082D01*
X142675833Y-87536518D01*
X142672423Y-87537509D01*
X142668892Y-87537855D01*
X142609192Y-87555879D01*
X142549327Y-87573272D01*
X142546178Y-87574904D01*
X142542777Y-87575931D01*
X142487683Y-87605225D01*
X142432368Y-87633898D01*
X142429595Y-87636111D01*
X142426461Y-87637778D01*
X142378144Y-87677185D01*
X142329413Y-87716086D01*
X142324472Y-87720958D01*
X142324372Y-87721040D01*
X142324295Y-87721133D01*
X142322703Y-87722703D01*
X140806420Y-89238986D01*
X140666428Y-89195652D01*
X140409250Y-89168621D01*
X140151720Y-89192058D01*
X139903646Y-89265070D01*
X139674479Y-89384876D01*
X139472946Y-89546913D01*
X139306725Y-89745008D01*
X139182146Y-89971616D01*
X139103954Y-90218106D01*
X139075129Y-90475089D01*
X139075000Y-90493589D01*
X139075000Y-90506411D01*
X139100234Y-90763772D01*
X139174977Y-91011329D01*
X139296379Y-91239655D01*
X139459819Y-91440051D01*
X139659069Y-91604886D01*
X139886542Y-91727880D01*
X140133572Y-91804348D01*
X140390750Y-91831379D01*
X140648280Y-91807942D01*
X140896354Y-91734930D01*
X141125521Y-91615124D01*
X141327054Y-91453087D01*
X141493275Y-91254992D01*
X141617854Y-91028384D01*
X141696046Y-90781894D01*
X141724871Y-90524911D01*
X141725000Y-90506411D01*
X141725000Y-90493589D01*
X141701427Y-90253167D01*
X143079594Y-88875000D01*
X145500000Y-88875000D01*
X145562031Y-88868918D01*
X145624167Y-88863482D01*
X145627577Y-88862491D01*
X145631108Y-88862145D01*
X145690808Y-88844121D01*
X145750673Y-88826728D01*
X145753822Y-88825096D01*
X145757223Y-88824069D01*
X145812278Y-88794796D01*
X145867632Y-88766103D01*
X145870408Y-88763887D01*
X145873539Y-88762222D01*
X145921829Y-88722838D01*
X145970587Y-88683914D01*
X145975528Y-88679042D01*
X145975628Y-88678960D01*
X145975705Y-88678867D01*
X145977297Y-88677297D01*
X148659594Y-85995000D01*
X148822944Y-85995000D01*
X148822944Y-86170000D01*
X148828341Y-86237680D01*
X148863890Y-86352472D01*
X148930012Y-86452815D01*
X149021471Y-86530765D01*
X149131025Y-86580148D01*
X149250000Y-86597056D01*
X149970873Y-86597056D01*
X149846182Y-86609282D01*
X149607966Y-86681204D01*
X149388257Y-86798025D01*
X149195422Y-86955297D01*
X149036808Y-87147029D01*
X148994649Y-87225000D01*
X147800000Y-87225000D01*
X147737969Y-87231082D01*
X147675833Y-87236518D01*
X147672423Y-87237509D01*
X147668892Y-87237855D01*
X147609192Y-87255879D01*
X147549327Y-87273272D01*
X147546178Y-87274904D01*
X147542777Y-87275931D01*
X147487722Y-87305204D01*
X147432368Y-87333897D01*
X147429592Y-87336113D01*
X147426461Y-87337778D01*
X147378171Y-87377162D01*
X147329413Y-87416086D01*
X147324472Y-87420958D01*
X147324372Y-87421040D01*
X147324295Y-87421133D01*
X147322703Y-87422703D01*
X145537149Y-89208257D01*
X145496428Y-89195652D01*
X145239250Y-89168621D01*
X144981720Y-89192058D01*
X144733646Y-89265070D01*
X144504479Y-89384876D01*
X144302946Y-89546913D01*
X144136725Y-89745008D01*
X144012146Y-89971616D01*
X143933954Y-90218106D01*
X143905129Y-90475089D01*
X143905000Y-90493589D01*
X143905000Y-90506411D01*
X143930234Y-90763772D01*
X144004977Y-91011329D01*
X144126379Y-91239655D01*
X144289819Y-91440051D01*
X144489069Y-91604886D01*
X144716542Y-91727880D01*
X144963572Y-91804348D01*
X145220750Y-91831379D01*
X145478280Y-91807942D01*
X145726354Y-91734930D01*
X145955521Y-91615124D01*
X146157054Y-91453087D01*
X146323275Y-91254992D01*
X146447854Y-91028384D01*
X146526046Y-90781894D01*
X146528220Y-90762512D01*
X148929867Y-90762512D01*
X149016250Y-90971079D01*
X149148486Y-91171535D01*
X149317288Y-91342341D01*
X149516169Y-91476934D01*
X149737487Y-91570141D01*
X149925000Y-91518694D01*
X149925000Y-90575000D01*
X150275000Y-90575000D01*
X150275000Y-91518694D01*
X150462513Y-91570141D01*
X150683831Y-91476934D01*
X150882712Y-91342341D01*
X151051514Y-91171535D01*
X151183750Y-90971079D01*
X151270133Y-90762512D01*
X151217632Y-90575000D01*
X150275000Y-90575000D01*
X149925000Y-90575000D01*
X148982368Y-90575000D01*
X148929867Y-90762512D01*
X146528220Y-90762512D01*
X146554871Y-90524911D01*
X146555000Y-90506411D01*
X146555000Y-90493589D01*
X146529766Y-90236228D01*
X146503932Y-90150662D01*
X146617106Y-90037488D01*
X148929867Y-90037488D01*
X148982368Y-90225000D01*
X149925000Y-90225000D01*
X149925000Y-89281306D01*
X150275000Y-89281306D01*
X150275000Y-90225000D01*
X151217632Y-90225000D01*
X151270133Y-90037488D01*
X151183750Y-89828921D01*
X151051514Y-89628465D01*
X150882712Y-89457659D01*
X150683831Y-89323066D01*
X150462513Y-89229859D01*
X150275000Y-89281306D01*
X149925000Y-89281306D01*
X149737487Y-89229859D01*
X149516169Y-89323066D01*
X149317288Y-89457659D01*
X149148486Y-89628465D01*
X149016250Y-89828921D01*
X148929867Y-90037488D01*
X146617106Y-90037488D01*
X148079594Y-88575000D01*
X149040510Y-88575000D01*
X149182878Y-88752071D01*
X149373498Y-88912020D01*
X149591555Y-89031898D01*
X149828744Y-89107138D01*
X150076029Y-89134876D01*
X150093831Y-89135000D01*
X150106169Y-89135000D01*
X150353818Y-89110718D01*
X150592034Y-89038796D01*
X150811743Y-88921975D01*
X151004578Y-88764703D01*
X151163192Y-88572971D01*
X151281545Y-88354082D01*
X151355127Y-88116374D01*
X151381138Y-87868901D01*
X151358585Y-87621089D01*
X151288328Y-87382377D01*
X151173043Y-87161857D01*
X151017122Y-86967929D01*
X150826502Y-86807980D01*
X150608445Y-86688102D01*
X150371256Y-86612862D01*
X150230345Y-86597056D01*
X150950000Y-86597056D01*
X151017680Y-86591659D01*
X151132472Y-86556110D01*
X151232815Y-86489988D01*
X151310765Y-86398529D01*
X151360148Y-86288975D01*
X151377056Y-86170000D01*
X151377056Y-84470000D01*
X151375461Y-84450000D01*
X151550000Y-84450000D01*
X151550000Y-96550000D01*
X150871395Y-96550000D01*
X150882712Y-96542341D01*
X151051514Y-96371535D01*
X151183750Y-96171079D01*
X151270133Y-95962512D01*
X151217632Y-95775000D01*
X150275000Y-95775000D01*
X150275000Y-95795000D01*
X149925000Y-95795000D01*
X149925000Y-95775000D01*
X148982368Y-95775000D01*
X148929867Y-95962512D01*
X149016250Y-96171079D01*
X149148486Y-96371535D01*
X149317288Y-96542341D01*
X149328605Y-96550000D01*
X137450000Y-96550000D01*
X137450000Y-95311410D01*
X139073258Y-95311410D01*
X139120166Y-95566987D01*
X139215821Y-95808585D01*
X139356582Y-96027003D01*
X139537086Y-96213920D01*
X139750458Y-96362218D01*
X139988571Y-96466247D01*
X140242356Y-96522045D01*
X140502145Y-96527487D01*
X140758043Y-96482365D01*
X141000303Y-96388399D01*
X141219698Y-96249166D01*
X141319415Y-96154207D01*
X144523280Y-96154207D01*
X144625584Y-96329635D01*
X144857579Y-96425845D01*
X145103885Y-96474947D01*
X145355038Y-96475053D01*
X145601386Y-96426159D01*
X145833462Y-96330145D01*
X145834416Y-96329635D01*
X145936720Y-96154207D01*
X145230000Y-95447487D01*
X144523280Y-96154207D01*
X141319415Y-96154207D01*
X141407872Y-96069971D01*
X141557655Y-95857640D01*
X141663344Y-95620259D01*
X141720912Y-95366870D01*
X141721496Y-95325038D01*
X143954947Y-95325038D01*
X144003841Y-95571386D01*
X144099855Y-95803462D01*
X144100365Y-95804416D01*
X144275793Y-95906720D01*
X144982513Y-95200000D01*
X145477487Y-95200000D01*
X146184207Y-95906720D01*
X146359635Y-95804416D01*
X146455845Y-95572421D01*
X146504947Y-95326115D01*
X146504984Y-95237488D01*
X148929867Y-95237488D01*
X148982368Y-95425000D01*
X149925000Y-95425000D01*
X149925000Y-94481306D01*
X150275000Y-94481306D01*
X150275000Y-95425000D01*
X151217632Y-95425000D01*
X151270133Y-95237488D01*
X151183750Y-95028921D01*
X151051514Y-94828465D01*
X150882712Y-94657659D01*
X150683831Y-94523066D01*
X150462513Y-94429859D01*
X150275000Y-94481306D01*
X149925000Y-94481306D01*
X149737487Y-94429859D01*
X149516169Y-94523066D01*
X149317288Y-94657659D01*
X149148486Y-94828465D01*
X149016250Y-95028921D01*
X148929867Y-95237488D01*
X146504984Y-95237488D01*
X146505053Y-95074962D01*
X146456159Y-94828614D01*
X146360145Y-94596538D01*
X146359635Y-94595584D01*
X146184207Y-94493280D01*
X145477487Y-95200000D01*
X144982513Y-95200000D01*
X144275793Y-94493280D01*
X144100365Y-94595584D01*
X144004155Y-94827579D01*
X143955053Y-95073885D01*
X143954947Y-95325038D01*
X141721496Y-95325038D01*
X141725057Y-95070077D01*
X141674586Y-94815180D01*
X141575566Y-94574940D01*
X141431770Y-94358509D01*
X141319838Y-94245793D01*
X144523280Y-94245793D01*
X145230000Y-94952513D01*
X145936720Y-94245793D01*
X145834416Y-94070365D01*
X145602421Y-93974155D01*
X145356115Y-93925053D01*
X145104962Y-93924947D01*
X144858614Y-93973841D01*
X144626538Y-94069855D01*
X144625584Y-94070365D01*
X144523280Y-94245793D01*
X141319838Y-94245793D01*
X141248673Y-94174130D01*
X141033251Y-94028826D01*
X140793709Y-93928132D01*
X140539170Y-93875883D01*
X140279331Y-93874069D01*
X140024087Y-93922759D01*
X139783163Y-94020099D01*
X139565733Y-94162381D01*
X139380080Y-94344186D01*
X139233276Y-94558588D01*
X139130911Y-94797421D01*
X139076886Y-95051589D01*
X139073258Y-95311410D01*
X137450000Y-95311410D01*
X137450000Y-92210000D01*
X148822944Y-92210000D01*
X148822944Y-93910000D01*
X148828341Y-93977680D01*
X148863890Y-94092472D01*
X148930012Y-94192815D01*
X149021471Y-94270765D01*
X149131025Y-94320148D01*
X149250000Y-94337056D01*
X150950000Y-94337056D01*
X151017680Y-94331659D01*
X151132472Y-94296110D01*
X151232815Y-94229988D01*
X151310765Y-94138529D01*
X151360148Y-94028975D01*
X151377056Y-93910000D01*
X151377056Y-92210000D01*
X151371659Y-92142320D01*
X151336110Y-92027528D01*
X151269988Y-91927185D01*
X151178529Y-91849235D01*
X151068975Y-91799852D01*
X150950000Y-91782944D01*
X149250000Y-91782944D01*
X149182320Y-91788341D01*
X149067528Y-91823890D01*
X148967185Y-91890012D01*
X148889235Y-91981471D01*
X148839852Y-92091025D01*
X148822944Y-92210000D01*
X137450000Y-92210000D01*
X137450000Y-86170413D01*
X139179984Y-86170413D01*
X139275690Y-86401309D01*
X139414603Y-86609097D01*
X139591384Y-86785792D01*
X139799240Y-86924603D01*
X140029588Y-87020008D01*
X140225000Y-86968215D01*
X140225000Y-85975000D01*
X140575000Y-85975000D01*
X140575000Y-86968215D01*
X140770412Y-87020008D01*
X141000760Y-86924603D01*
X141208616Y-86785792D01*
X141385397Y-86609097D01*
X141524310Y-86401309D01*
X141620016Y-86170413D01*
X141569191Y-85975000D01*
X140575000Y-85975000D01*
X140225000Y-85975000D01*
X139230809Y-85975000D01*
X139179984Y-86170413D01*
X137450000Y-86170413D01*
X137450000Y-85429587D01*
X139179984Y-85429587D01*
X139230809Y-85625000D01*
X140225000Y-85625000D01*
X140225000Y-84631785D01*
X140575000Y-84631785D01*
X140575000Y-85625000D01*
X141569191Y-85625000D01*
X141620016Y-85429587D01*
X141524310Y-85198691D01*
X141385397Y-84990903D01*
X141208616Y-84814208D01*
X141000760Y-84675397D01*
X140770412Y-84579992D01*
X140575000Y-84631785D01*
X140225000Y-84631785D01*
X140029588Y-84579992D01*
X139799240Y-84675397D01*
X139591384Y-84814208D01*
X139414603Y-84990903D01*
X139275690Y-85198691D01*
X139179984Y-85429587D01*
X137450000Y-85429587D01*
X137450000Y-84450000D01*
X148825786Y-84450000D01*
X148822944Y-84470000D01*
X148822944Y-84470000D01*
G37*
X148822944Y-84470000D02*
X148822944Y-84645000D01*
X148380000Y-84645000D01*
X148317969Y-84651082D01*
X148255833Y-84656518D01*
X148252423Y-84657509D01*
X148248892Y-84657855D01*
X148189192Y-84675879D01*
X148129327Y-84693272D01*
X148126178Y-84694904D01*
X148122777Y-84695931D01*
X148067722Y-84725204D01*
X148012368Y-84753897D01*
X148009592Y-84756113D01*
X148006461Y-84757778D01*
X147958171Y-84797162D01*
X147909413Y-84836086D01*
X147904472Y-84840958D01*
X147904372Y-84841040D01*
X147904295Y-84841133D01*
X147902703Y-84842703D01*
X146462179Y-86283227D01*
X146526046Y-86081894D01*
X146554871Y-85824911D01*
X146555000Y-85806411D01*
X146555000Y-85793589D01*
X146529766Y-85536228D01*
X146455023Y-85288671D01*
X146333621Y-85060345D01*
X146170181Y-84859949D01*
X145970931Y-84695114D01*
X145743458Y-84572120D01*
X145496428Y-84495652D01*
X145239250Y-84468621D01*
X144981720Y-84492058D01*
X144733646Y-84565070D01*
X144504479Y-84684876D01*
X144302946Y-84846913D01*
X144136725Y-85045008D01*
X144012146Y-85271616D01*
X143933954Y-85518106D01*
X143905129Y-85775089D01*
X143905000Y-85793589D01*
X143905000Y-85806411D01*
X143930234Y-86063772D01*
X144004977Y-86311329D01*
X144126379Y-86539655D01*
X144289819Y-86740051D01*
X144489069Y-86904886D01*
X144716542Y-87027880D01*
X144963572Y-87104348D01*
X145220750Y-87131379D01*
X145478280Y-87107942D01*
X145703854Y-87041552D01*
X145220406Y-87525000D01*
X142800000Y-87525000D01*
X142737969Y-87531082D01*
X142675833Y-87536518D01*
X142672423Y-87537509D01*
X142668892Y-87537855D01*
X142609192Y-87555879D01*
X142549327Y-87573272D01*
X142546178Y-87574904D01*
X142542777Y-87575931D01*
X142487683Y-87605225D01*
X142432368Y-87633898D01*
X142429595Y-87636111D01*
X142426461Y-87637778D01*
X142378144Y-87677185D01*
X142329413Y-87716086D01*
X142324472Y-87720958D01*
X142324372Y-87721040D01*
X142324295Y-87721133D01*
X142322703Y-87722703D01*
X140806420Y-89238986D01*
X140666428Y-89195652D01*
X140409250Y-89168621D01*
X140151720Y-89192058D01*
X139903646Y-89265070D01*
X139674479Y-89384876D01*
X139472946Y-89546913D01*
X139306725Y-89745008D01*
X139182146Y-89971616D01*
X139103954Y-90218106D01*
X139075129Y-90475089D01*
X139075000Y-90493589D01*
X139075000Y-90506411D01*
X139100234Y-90763772D01*
X139174977Y-91011329D01*
X139296379Y-91239655D01*
X139459819Y-91440051D01*
X139659069Y-91604886D01*
X139886542Y-91727880D01*
X140133572Y-91804348D01*
X140390750Y-91831379D01*
X140648280Y-91807942D01*
X140896354Y-91734930D01*
X141125521Y-91615124D01*
X141327054Y-91453087D01*
X141493275Y-91254992D01*
X141617854Y-91028384D01*
X141696046Y-90781894D01*
X141724871Y-90524911D01*
X141725000Y-90506411D01*
X141725000Y-90493589D01*
X141701427Y-90253167D01*
X143079594Y-88875000D01*
X145500000Y-88875000D01*
X145562031Y-88868918D01*
X145624167Y-88863482D01*
X145627577Y-88862491D01*
X145631108Y-88862145D01*
X145690808Y-88844121D01*
X145750673Y-88826728D01*
X145753822Y-88825096D01*
X145757223Y-88824069D01*
X145812278Y-88794796D01*
X145867632Y-88766103D01*
X145870408Y-88763887D01*
X145873539Y-88762222D01*
X145921829Y-88722838D01*
X145970587Y-88683914D01*
X145975528Y-88679042D01*
X145975628Y-88678960D01*
X145975705Y-88678867D01*
X145977297Y-88677297D01*
X148659594Y-85995000D01*
X148822944Y-85995000D01*
X148822944Y-86170000D01*
X148828341Y-86237680D01*
X148863890Y-86352472D01*
X148930012Y-86452815D01*
X149021471Y-86530765D01*
X149131025Y-86580148D01*
X149250000Y-86597056D01*
X149970873Y-86597056D01*
X149846182Y-86609282D01*
X149607966Y-86681204D01*
X149388257Y-86798025D01*
X149195422Y-86955297D01*
X149036808Y-87147029D01*
X148994649Y-87225000D01*
X147800000Y-87225000D01*
X147737969Y-87231082D01*
X147675833Y-87236518D01*
X147672423Y-87237509D01*
X147668892Y-87237855D01*
X147609192Y-87255879D01*
X147549327Y-87273272D01*
X147546178Y-87274904D01*
X147542777Y-87275931D01*
X147487722Y-87305204D01*
X147432368Y-87333897D01*
X147429592Y-87336113D01*
X147426461Y-87337778D01*
X147378171Y-87377162D01*
X147329413Y-87416086D01*
X147324472Y-87420958D01*
X147324372Y-87421040D01*
X147324295Y-87421133D01*
X147322703Y-87422703D01*
X145537149Y-89208257D01*
X145496428Y-89195652D01*
X145239250Y-89168621D01*
X144981720Y-89192058D01*
X144733646Y-89265070D01*
X144504479Y-89384876D01*
X144302946Y-89546913D01*
X144136725Y-89745008D01*
X144012146Y-89971616D01*
X143933954Y-90218106D01*
X143905129Y-90475089D01*
X143905000Y-90493589D01*
X143905000Y-90506411D01*
X143930234Y-90763772D01*
X144004977Y-91011329D01*
X144126379Y-91239655D01*
X144289819Y-91440051D01*
X144489069Y-91604886D01*
X144716542Y-91727880D01*
X144963572Y-91804348D01*
X145220750Y-91831379D01*
X145478280Y-91807942D01*
X145726354Y-91734930D01*
X145955521Y-91615124D01*
X146157054Y-91453087D01*
X146323275Y-91254992D01*
X146447854Y-91028384D01*
X146526046Y-90781894D01*
X146528220Y-90762512D01*
X148929867Y-90762512D01*
X149016250Y-90971079D01*
X149148486Y-91171535D01*
X149317288Y-91342341D01*
X149516169Y-91476934D01*
X149737487Y-91570141D01*
X149925000Y-91518694D01*
X149925000Y-90575000D01*
X150275000Y-90575000D01*
X150275000Y-91518694D01*
X150462513Y-91570141D01*
X150683831Y-91476934D01*
X150882712Y-91342341D01*
X151051514Y-91171535D01*
X151183750Y-90971079D01*
X151270133Y-90762512D01*
X151217632Y-90575000D01*
X150275000Y-90575000D01*
X149925000Y-90575000D01*
X148982368Y-90575000D01*
X148929867Y-90762512D01*
X146528220Y-90762512D01*
X146554871Y-90524911D01*
X146555000Y-90506411D01*
X146555000Y-90493589D01*
X146529766Y-90236228D01*
X146503932Y-90150662D01*
X146617106Y-90037488D01*
X148929867Y-90037488D01*
X148982368Y-90225000D01*
X149925000Y-90225000D01*
X149925000Y-89281306D01*
X150275000Y-89281306D01*
X150275000Y-90225000D01*
X151217632Y-90225000D01*
X151270133Y-90037488D01*
X151183750Y-89828921D01*
X151051514Y-89628465D01*
X150882712Y-89457659D01*
X150683831Y-89323066D01*
X150462513Y-89229859D01*
X150275000Y-89281306D01*
X149925000Y-89281306D01*
X149737487Y-89229859D01*
X149516169Y-89323066D01*
X149317288Y-89457659D01*
X149148486Y-89628465D01*
X149016250Y-89828921D01*
X148929867Y-90037488D01*
X146617106Y-90037488D01*
X148079594Y-88575000D01*
X149040510Y-88575000D01*
X149182878Y-88752071D01*
X149373498Y-88912020D01*
X149591555Y-89031898D01*
X149828744Y-89107138D01*
X150076029Y-89134876D01*
X150093831Y-89135000D01*
X150106169Y-89135000D01*
X150353818Y-89110718D01*
X150592034Y-89038796D01*
X150811743Y-88921975D01*
X151004578Y-88764703D01*
X151163192Y-88572971D01*
X151281545Y-88354082D01*
X151355127Y-88116374D01*
X151381138Y-87868901D01*
X151358585Y-87621089D01*
X151288328Y-87382377D01*
X151173043Y-87161857D01*
X151017122Y-86967929D01*
X150826502Y-86807980D01*
X150608445Y-86688102D01*
X150371256Y-86612862D01*
X150230345Y-86597056D01*
X150950000Y-86597056D01*
X151017680Y-86591659D01*
X151132472Y-86556110D01*
X151232815Y-86489988D01*
X151310765Y-86398529D01*
X151360148Y-86288975D01*
X151377056Y-86170000D01*
X151377056Y-84470000D01*
X151375461Y-84450000D01*
X151550000Y-84450000D01*
X151550000Y-96550000D01*
X150871395Y-96550000D01*
X150882712Y-96542341D01*
X151051514Y-96371535D01*
X151183750Y-96171079D01*
X151270133Y-95962512D01*
X151217632Y-95775000D01*
X150275000Y-95775000D01*
X150275000Y-95795000D01*
X149925000Y-95795000D01*
X149925000Y-95775000D01*
X148982368Y-95775000D01*
X148929867Y-95962512D01*
X149016250Y-96171079D01*
X149148486Y-96371535D01*
X149317288Y-96542341D01*
X149328605Y-96550000D01*
X137450000Y-96550000D01*
X137450000Y-95311410D01*
X139073258Y-95311410D01*
X139120166Y-95566987D01*
X139215821Y-95808585D01*
X139356582Y-96027003D01*
X139537086Y-96213920D01*
X139750458Y-96362218D01*
X139988571Y-96466247D01*
X140242356Y-96522045D01*
X140502145Y-96527487D01*
X140758043Y-96482365D01*
X141000303Y-96388399D01*
X141219698Y-96249166D01*
X141319415Y-96154207D01*
X144523280Y-96154207D01*
X144625584Y-96329635D01*
X144857579Y-96425845D01*
X145103885Y-96474947D01*
X145355038Y-96475053D01*
X145601386Y-96426159D01*
X145833462Y-96330145D01*
X145834416Y-96329635D01*
X145936720Y-96154207D01*
X145230000Y-95447487D01*
X144523280Y-96154207D01*
X141319415Y-96154207D01*
X141407872Y-96069971D01*
X141557655Y-95857640D01*
X141663344Y-95620259D01*
X141720912Y-95366870D01*
X141721496Y-95325038D01*
X143954947Y-95325038D01*
X144003841Y-95571386D01*
X144099855Y-95803462D01*
X144100365Y-95804416D01*
X144275793Y-95906720D01*
X144982513Y-95200000D01*
X145477487Y-95200000D01*
X146184207Y-95906720D01*
X146359635Y-95804416D01*
X146455845Y-95572421D01*
X146504947Y-95326115D01*
X146504984Y-95237488D01*
X148929867Y-95237488D01*
X148982368Y-95425000D01*
X149925000Y-95425000D01*
X149925000Y-94481306D01*
X150275000Y-94481306D01*
X150275000Y-95425000D01*
X151217632Y-95425000D01*
X151270133Y-95237488D01*
X151183750Y-95028921D01*
X151051514Y-94828465D01*
X150882712Y-94657659D01*
X150683831Y-94523066D01*
X150462513Y-94429859D01*
X150275000Y-94481306D01*
X149925000Y-94481306D01*
X149737487Y-94429859D01*
X149516169Y-94523066D01*
X149317288Y-94657659D01*
X149148486Y-94828465D01*
X149016250Y-95028921D01*
X148929867Y-95237488D01*
X146504984Y-95237488D01*
X146505053Y-95074962D01*
X146456159Y-94828614D01*
X146360145Y-94596538D01*
X146359635Y-94595584D01*
X146184207Y-94493280D01*
X145477487Y-95200000D01*
X144982513Y-95200000D01*
X144275793Y-94493280D01*
X144100365Y-94595584D01*
X144004155Y-94827579D01*
X143955053Y-95073885D01*
X143954947Y-95325038D01*
X141721496Y-95325038D01*
X141725057Y-95070077D01*
X141674586Y-94815180D01*
X141575566Y-94574940D01*
X141431770Y-94358509D01*
X141319838Y-94245793D01*
X144523280Y-94245793D01*
X145230000Y-94952513D01*
X145936720Y-94245793D01*
X145834416Y-94070365D01*
X145602421Y-93974155D01*
X145356115Y-93925053D01*
X145104962Y-93924947D01*
X144858614Y-93973841D01*
X144626538Y-94069855D01*
X144625584Y-94070365D01*
X144523280Y-94245793D01*
X141319838Y-94245793D01*
X141248673Y-94174130D01*
X141033251Y-94028826D01*
X140793709Y-93928132D01*
X140539170Y-93875883D01*
X140279331Y-93874069D01*
X140024087Y-93922759D01*
X139783163Y-94020099D01*
X139565733Y-94162381D01*
X139380080Y-94344186D01*
X139233276Y-94558588D01*
X139130911Y-94797421D01*
X139076886Y-95051589D01*
X139073258Y-95311410D01*
X137450000Y-95311410D01*
X137450000Y-92210000D01*
X148822944Y-92210000D01*
X148822944Y-93910000D01*
X148828341Y-93977680D01*
X148863890Y-94092472D01*
X148930012Y-94192815D01*
X149021471Y-94270765D01*
X149131025Y-94320148D01*
X149250000Y-94337056D01*
X150950000Y-94337056D01*
X151017680Y-94331659D01*
X151132472Y-94296110D01*
X151232815Y-94229988D01*
X151310765Y-94138529D01*
X151360148Y-94028975D01*
X151377056Y-93910000D01*
X151377056Y-92210000D01*
X151371659Y-92142320D01*
X151336110Y-92027528D01*
X151269988Y-91927185D01*
X151178529Y-91849235D01*
X151068975Y-91799852D01*
X150950000Y-91782944D01*
X149250000Y-91782944D01*
X149182320Y-91788341D01*
X149067528Y-91823890D01*
X148967185Y-91890012D01*
X148889235Y-91981471D01*
X148839852Y-92091025D01*
X148822944Y-92210000D01*
X137450000Y-92210000D01*
X137450000Y-86170413D01*
X139179984Y-86170413D01*
X139275690Y-86401309D01*
X139414603Y-86609097D01*
X139591384Y-86785792D01*
X139799240Y-86924603D01*
X140029588Y-87020008D01*
X140225000Y-86968215D01*
X140225000Y-85975000D01*
X140575000Y-85975000D01*
X140575000Y-86968215D01*
X140770412Y-87020008D01*
X141000760Y-86924603D01*
X141208616Y-86785792D01*
X141385397Y-86609097D01*
X141524310Y-86401309D01*
X141620016Y-86170413D01*
X141569191Y-85975000D01*
X140575000Y-85975000D01*
X140225000Y-85975000D01*
X139230809Y-85975000D01*
X139179984Y-86170413D01*
X137450000Y-86170413D01*
X137450000Y-85429587D01*
X139179984Y-85429587D01*
X139230809Y-85625000D01*
X140225000Y-85625000D01*
X140225000Y-84631785D01*
X140575000Y-84631785D01*
X140575000Y-85625000D01*
X141569191Y-85625000D01*
X141620016Y-85429587D01*
X141524310Y-85198691D01*
X141385397Y-84990903D01*
X141208616Y-84814208D01*
X141000760Y-84675397D01*
X140770412Y-84579992D01*
X140575000Y-84631785D01*
X140225000Y-84631785D01*
X140029588Y-84579992D01*
X139799240Y-84675397D01*
X139591384Y-84814208D01*
X139414603Y-84990903D01*
X139275690Y-85198691D01*
X139179984Y-85429587D01*
X137450000Y-85429587D01*
X137450000Y-84450000D01*
X148825786Y-84450000D01*
X148822944Y-84470000D01*
M02*
