G04 #@! TF.FileFunction,Copper,L1,Top,Signal*
%FSLAX46Y46*%
G04 Gerber Fmt 4.6, Leading zero omitted, Abs format (unit mm)*
G04 Created by KiCad (PCBNEW 4.0.4-1.fc24-product) date Mon Jun  4 16:06:22 2018*
%MOMM*%
%LPD*%
G01*
G04 APERTURE LIST*
%ADD10C,0.100000*%
%ADD11R,1.700000X1.200000*%
%ADD12O,1.700000X1.200000*%
%ADD13O,1.800000X1.800000*%
%ADD14C,1.800000*%
%ADD15C,0.500000*%
%ADD16C,0.300000*%
G04 APERTURE END LIST*
D10*
D11*
X150700000Y-92500000D03*
D12*
X150700000Y-90500000D03*
X150700000Y-88500000D03*
X150700000Y-86500000D03*
D13*
X140400000Y-89500000D03*
D14*
X140400000Y-84800000D03*
D13*
X140400000Y-94200000D03*
D14*
X145230000Y-84800000D03*
D13*
X145230000Y-89500000D03*
X145230000Y-94200000D03*
D15*
X140400000Y-84800000D02*
X143000000Y-87400000D01*
X144330001Y-93300001D02*
X145230000Y-94200000D01*
X143000000Y-87400000D02*
X143000000Y-91970000D01*
X143000000Y-91970000D02*
X144330001Y-93300001D01*
X150700000Y-90500000D02*
X148930000Y-90500000D01*
X148930000Y-90500000D02*
X145230000Y-94200000D01*
X150700000Y-86500000D02*
X148230000Y-86500000D01*
X148230000Y-86500000D02*
X145230000Y-89500000D01*
D16*
G36*
X139636285Y-83654858D02*
X139256193Y-84034288D01*
X139050235Y-84530290D01*
X139049766Y-85067353D01*
X139254858Y-85563715D01*
X139634288Y-85943807D01*
X140130290Y-86149765D01*
X140667353Y-86150234D01*
X140733113Y-86123063D01*
X142300000Y-87689950D01*
X142300000Y-91970000D01*
X142353284Y-92237879D01*
X142505025Y-92464975D01*
X143835024Y-93794973D01*
X143835026Y-93794976D01*
X143935348Y-93895298D01*
X143880000Y-94173552D01*
X143880000Y-94226448D01*
X143982763Y-94743071D01*
X144275406Y-95181042D01*
X144713377Y-95473685D01*
X144719988Y-95475000D01*
X140822397Y-95475000D01*
X141067252Y-95373588D01*
X141465573Y-95028908D01*
X141701670Y-94558034D01*
X141629153Y-94350000D01*
X140550000Y-94350000D01*
X140550000Y-94370000D01*
X140250000Y-94370000D01*
X140250000Y-94350000D01*
X139170847Y-94350000D01*
X139098330Y-94558034D01*
X139334427Y-95028908D01*
X139732748Y-95373588D01*
X139977603Y-95475000D01*
X137525000Y-95475000D01*
X137525000Y-93841966D01*
X139098330Y-93841966D01*
X139170847Y-94050000D01*
X140250000Y-94050000D01*
X140250000Y-92971625D01*
X140550000Y-92971625D01*
X140550000Y-94050000D01*
X141629153Y-94050000D01*
X141701670Y-93841966D01*
X141465573Y-93371092D01*
X141067252Y-93026412D01*
X140758032Y-92898342D01*
X140550000Y-92971625D01*
X140250000Y-92971625D01*
X140041968Y-92898342D01*
X139732748Y-93026412D01*
X139334427Y-93371092D01*
X139098330Y-93841966D01*
X137525000Y-93841966D01*
X137525000Y-89473552D01*
X139050000Y-89473552D01*
X139050000Y-89526448D01*
X139152763Y-90043071D01*
X139445406Y-90481042D01*
X139883377Y-90773685D01*
X140400000Y-90876448D01*
X140916623Y-90773685D01*
X141354594Y-90481042D01*
X141647237Y-90043071D01*
X141750000Y-89526448D01*
X141750000Y-89473552D01*
X141647237Y-88956929D01*
X141354594Y-88518958D01*
X140916623Y-88226315D01*
X140400000Y-88123552D01*
X139883377Y-88226315D01*
X139445406Y-88518958D01*
X139152763Y-88956929D01*
X139050000Y-89473552D01*
X137525000Y-89473552D01*
X137525000Y-83525000D01*
X139950566Y-83525000D01*
X139636285Y-83654858D01*
X139636285Y-83654858D01*
G37*
X139636285Y-83654858D02*
X139256193Y-84034288D01*
X139050235Y-84530290D01*
X139049766Y-85067353D01*
X139254858Y-85563715D01*
X139634288Y-85943807D01*
X140130290Y-86149765D01*
X140667353Y-86150234D01*
X140733113Y-86123063D01*
X142300000Y-87689950D01*
X142300000Y-91970000D01*
X142353284Y-92237879D01*
X142505025Y-92464975D01*
X143835024Y-93794973D01*
X143835026Y-93794976D01*
X143935348Y-93895298D01*
X143880000Y-94173552D01*
X143880000Y-94226448D01*
X143982763Y-94743071D01*
X144275406Y-95181042D01*
X144713377Y-95473685D01*
X144719988Y-95475000D01*
X140822397Y-95475000D01*
X141067252Y-95373588D01*
X141465573Y-95028908D01*
X141701670Y-94558034D01*
X141629153Y-94350000D01*
X140550000Y-94350000D01*
X140550000Y-94370000D01*
X140250000Y-94370000D01*
X140250000Y-94350000D01*
X139170847Y-94350000D01*
X139098330Y-94558034D01*
X139334427Y-95028908D01*
X139732748Y-95373588D01*
X139977603Y-95475000D01*
X137525000Y-95475000D01*
X137525000Y-93841966D01*
X139098330Y-93841966D01*
X139170847Y-94050000D01*
X140250000Y-94050000D01*
X140250000Y-92971625D01*
X140550000Y-92971625D01*
X140550000Y-94050000D01*
X141629153Y-94050000D01*
X141701670Y-93841966D01*
X141465573Y-93371092D01*
X141067252Y-93026412D01*
X140758032Y-92898342D01*
X140550000Y-92971625D01*
X140250000Y-92971625D01*
X140041968Y-92898342D01*
X139732748Y-93026412D01*
X139334427Y-93371092D01*
X139098330Y-93841966D01*
X137525000Y-93841966D01*
X137525000Y-89473552D01*
X139050000Y-89473552D01*
X139050000Y-89526448D01*
X139152763Y-90043071D01*
X139445406Y-90481042D01*
X139883377Y-90773685D01*
X140400000Y-90876448D01*
X140916623Y-90773685D01*
X141354594Y-90481042D01*
X141647237Y-90043071D01*
X141750000Y-89526448D01*
X141750000Y-89473552D01*
X141647237Y-88956929D01*
X141354594Y-88518958D01*
X140916623Y-88226315D01*
X140400000Y-88123552D01*
X139883377Y-88226315D01*
X139445406Y-88518958D01*
X139152763Y-88956929D01*
X139050000Y-89473552D01*
X137525000Y-89473552D01*
X137525000Y-83525000D01*
X139950566Y-83525000D01*
X139636285Y-83654858D01*
G36*
X144547116Y-83604895D02*
X144448636Y-83806504D01*
X145230000Y-84587868D01*
X146011364Y-83806504D01*
X145912884Y-83604895D01*
X145674016Y-83525000D01*
X152475000Y-83525000D01*
X152475000Y-95475000D01*
X145740012Y-95475000D01*
X145746623Y-95473685D01*
X146184594Y-95181042D01*
X146477237Y-94743071D01*
X146580000Y-94226448D01*
X146580000Y-94173552D01*
X146524652Y-93895298D01*
X147657450Y-92762500D01*
X149400000Y-92762500D01*
X149400000Y-93189511D01*
X149468509Y-93354905D01*
X149595096Y-93481492D01*
X149760490Y-93550000D01*
X150437500Y-93550000D01*
X150550000Y-93437500D01*
X150550000Y-92650000D01*
X150850000Y-92650000D01*
X150850000Y-93437500D01*
X150962500Y-93550000D01*
X151639510Y-93550000D01*
X151804904Y-93481492D01*
X151931491Y-93354905D01*
X152000000Y-93189511D01*
X152000000Y-92762500D01*
X151887500Y-92650000D01*
X150850000Y-92650000D01*
X150550000Y-92650000D01*
X149512500Y-92650000D01*
X149400000Y-92762500D01*
X147657450Y-92762500D01*
X149219950Y-91200000D01*
X149653697Y-91200000D01*
X149682069Y-91242462D01*
X149992670Y-91450000D01*
X149760490Y-91450000D01*
X149595096Y-91518508D01*
X149468509Y-91645095D01*
X149400000Y-91810489D01*
X149400000Y-92237500D01*
X149512500Y-92350000D01*
X150550000Y-92350000D01*
X150550000Y-92330000D01*
X150850000Y-92330000D01*
X150850000Y-92350000D01*
X151887500Y-92350000D01*
X152000000Y-92237500D01*
X152000000Y-91810489D01*
X151931491Y-91645095D01*
X151804904Y-91518508D01*
X151639510Y-91450000D01*
X151407330Y-91450000D01*
X151717931Y-91242462D01*
X151945543Y-90901818D01*
X152025469Y-90500000D01*
X151945543Y-90098182D01*
X151717931Y-89757538D01*
X151377287Y-89529926D01*
X151226838Y-89500000D01*
X151377287Y-89470074D01*
X151717931Y-89242462D01*
X151945543Y-88901818D01*
X152025469Y-88500000D01*
X151945543Y-88098182D01*
X151717931Y-87757538D01*
X151377287Y-87529926D01*
X151226838Y-87500000D01*
X151377287Y-87470074D01*
X151717931Y-87242462D01*
X151945543Y-86901818D01*
X152025469Y-86500000D01*
X151945543Y-86098182D01*
X151717931Y-85757538D01*
X151377287Y-85529926D01*
X150975469Y-85450000D01*
X150424531Y-85450000D01*
X150022713Y-85529926D01*
X149682069Y-85757538D01*
X149653697Y-85800000D01*
X148230005Y-85800000D01*
X148230000Y-85799999D01*
X147962121Y-85853284D01*
X147735025Y-86005025D01*
X145552374Y-88187676D01*
X145230000Y-88123552D01*
X144713377Y-88226315D01*
X144275406Y-88518958D01*
X143982763Y-88956929D01*
X143880000Y-89473552D01*
X143880000Y-89526448D01*
X143982763Y-90043071D01*
X144275406Y-90481042D01*
X144713377Y-90773685D01*
X145230000Y-90876448D01*
X145746623Y-90773685D01*
X146184594Y-90481042D01*
X146477237Y-90043071D01*
X146580000Y-89526448D01*
X146580000Y-89473552D01*
X146524652Y-89195298D01*
X148519950Y-87200000D01*
X149653697Y-87200000D01*
X149682069Y-87242462D01*
X150022713Y-87470074D01*
X150173162Y-87500000D01*
X150022713Y-87529926D01*
X149682069Y-87757538D01*
X149454457Y-88098182D01*
X149374531Y-88500000D01*
X149454457Y-88901818D01*
X149682069Y-89242462D01*
X150022713Y-89470074D01*
X150173162Y-89500000D01*
X150022713Y-89529926D01*
X149682069Y-89757538D01*
X149653697Y-89800000D01*
X148930000Y-89800000D01*
X148662122Y-89853284D01*
X148662120Y-89853285D01*
X148662121Y-89853285D01*
X148435025Y-90005025D01*
X145552374Y-92887676D01*
X145230000Y-92823552D01*
X144907626Y-92887676D01*
X144824976Y-92805026D01*
X144824973Y-92805024D01*
X143700000Y-91680050D01*
X143700000Y-87400000D01*
X143646716Y-87132122D01*
X143494975Y-86905025D01*
X142383446Y-85793496D01*
X144448636Y-85793496D01*
X144547116Y-85995105D01*
X145056444Y-86165462D01*
X145592196Y-86127939D01*
X145912884Y-85995105D01*
X146011364Y-85793496D01*
X145230000Y-85012132D01*
X144448636Y-85793496D01*
X142383446Y-85793496D01*
X141723328Y-85133378D01*
X141749765Y-85069710D01*
X141750152Y-84626444D01*
X143864538Y-84626444D01*
X143902061Y-85162196D01*
X144034895Y-85482884D01*
X144236504Y-85581364D01*
X145017868Y-84800000D01*
X145442132Y-84800000D01*
X146223496Y-85581364D01*
X146425105Y-85482884D01*
X146595462Y-84973556D01*
X146557939Y-84437804D01*
X146425105Y-84117116D01*
X146223496Y-84018636D01*
X145442132Y-84800000D01*
X145017868Y-84800000D01*
X144236504Y-84018636D01*
X144034895Y-84117116D01*
X143864538Y-84626444D01*
X141750152Y-84626444D01*
X141750234Y-84532647D01*
X141545142Y-84036285D01*
X141165712Y-83656193D01*
X140849764Y-83525000D01*
X144739999Y-83525000D01*
X144547116Y-83604895D01*
X144547116Y-83604895D01*
G37*
X144547116Y-83604895D02*
X144448636Y-83806504D01*
X145230000Y-84587868D01*
X146011364Y-83806504D01*
X145912884Y-83604895D01*
X145674016Y-83525000D01*
X152475000Y-83525000D01*
X152475000Y-95475000D01*
X145740012Y-95475000D01*
X145746623Y-95473685D01*
X146184594Y-95181042D01*
X146477237Y-94743071D01*
X146580000Y-94226448D01*
X146580000Y-94173552D01*
X146524652Y-93895298D01*
X147657450Y-92762500D01*
X149400000Y-92762500D01*
X149400000Y-93189511D01*
X149468509Y-93354905D01*
X149595096Y-93481492D01*
X149760490Y-93550000D01*
X150437500Y-93550000D01*
X150550000Y-93437500D01*
X150550000Y-92650000D01*
X150850000Y-92650000D01*
X150850000Y-93437500D01*
X150962500Y-93550000D01*
X151639510Y-93550000D01*
X151804904Y-93481492D01*
X151931491Y-93354905D01*
X152000000Y-93189511D01*
X152000000Y-92762500D01*
X151887500Y-92650000D01*
X150850000Y-92650000D01*
X150550000Y-92650000D01*
X149512500Y-92650000D01*
X149400000Y-92762500D01*
X147657450Y-92762500D01*
X149219950Y-91200000D01*
X149653697Y-91200000D01*
X149682069Y-91242462D01*
X149992670Y-91450000D01*
X149760490Y-91450000D01*
X149595096Y-91518508D01*
X149468509Y-91645095D01*
X149400000Y-91810489D01*
X149400000Y-92237500D01*
X149512500Y-92350000D01*
X150550000Y-92350000D01*
X150550000Y-92330000D01*
X150850000Y-92330000D01*
X150850000Y-92350000D01*
X151887500Y-92350000D01*
X152000000Y-92237500D01*
X152000000Y-91810489D01*
X151931491Y-91645095D01*
X151804904Y-91518508D01*
X151639510Y-91450000D01*
X151407330Y-91450000D01*
X151717931Y-91242462D01*
X151945543Y-90901818D01*
X152025469Y-90500000D01*
X151945543Y-90098182D01*
X151717931Y-89757538D01*
X151377287Y-89529926D01*
X151226838Y-89500000D01*
X151377287Y-89470074D01*
X151717931Y-89242462D01*
X151945543Y-88901818D01*
X152025469Y-88500000D01*
X151945543Y-88098182D01*
X151717931Y-87757538D01*
X151377287Y-87529926D01*
X151226838Y-87500000D01*
X151377287Y-87470074D01*
X151717931Y-87242462D01*
X151945543Y-86901818D01*
X152025469Y-86500000D01*
X151945543Y-86098182D01*
X151717931Y-85757538D01*
X151377287Y-85529926D01*
X150975469Y-85450000D01*
X150424531Y-85450000D01*
X150022713Y-85529926D01*
X149682069Y-85757538D01*
X149653697Y-85800000D01*
X148230005Y-85800000D01*
X148230000Y-85799999D01*
X147962121Y-85853284D01*
X147735025Y-86005025D01*
X145552374Y-88187676D01*
X145230000Y-88123552D01*
X144713377Y-88226315D01*
X144275406Y-88518958D01*
X143982763Y-88956929D01*
X143880000Y-89473552D01*
X143880000Y-89526448D01*
X143982763Y-90043071D01*
X144275406Y-90481042D01*
X144713377Y-90773685D01*
X145230000Y-90876448D01*
X145746623Y-90773685D01*
X146184594Y-90481042D01*
X146477237Y-90043071D01*
X146580000Y-89526448D01*
X146580000Y-89473552D01*
X146524652Y-89195298D01*
X148519950Y-87200000D01*
X149653697Y-87200000D01*
X149682069Y-87242462D01*
X150022713Y-87470074D01*
X150173162Y-87500000D01*
X150022713Y-87529926D01*
X149682069Y-87757538D01*
X149454457Y-88098182D01*
X149374531Y-88500000D01*
X149454457Y-88901818D01*
X149682069Y-89242462D01*
X150022713Y-89470074D01*
X150173162Y-89500000D01*
X150022713Y-89529926D01*
X149682069Y-89757538D01*
X149653697Y-89800000D01*
X148930000Y-89800000D01*
X148662122Y-89853284D01*
X148662120Y-89853285D01*
X148662121Y-89853285D01*
X148435025Y-90005025D01*
X145552374Y-92887676D01*
X145230000Y-92823552D01*
X144907626Y-92887676D01*
X144824976Y-92805026D01*
X144824973Y-92805024D01*
X143700000Y-91680050D01*
X143700000Y-87400000D01*
X143646716Y-87132122D01*
X143494975Y-86905025D01*
X142383446Y-85793496D01*
X144448636Y-85793496D01*
X144547116Y-85995105D01*
X145056444Y-86165462D01*
X145592196Y-86127939D01*
X145912884Y-85995105D01*
X146011364Y-85793496D01*
X145230000Y-85012132D01*
X144448636Y-85793496D01*
X142383446Y-85793496D01*
X141723328Y-85133378D01*
X141749765Y-85069710D01*
X141750152Y-84626444D01*
X143864538Y-84626444D01*
X143902061Y-85162196D01*
X144034895Y-85482884D01*
X144236504Y-85581364D01*
X145017868Y-84800000D01*
X145442132Y-84800000D01*
X146223496Y-85581364D01*
X146425105Y-85482884D01*
X146595462Y-84973556D01*
X146557939Y-84437804D01*
X146425105Y-84117116D01*
X146223496Y-84018636D01*
X145442132Y-84800000D01*
X145017868Y-84800000D01*
X144236504Y-84018636D01*
X144034895Y-84117116D01*
X143864538Y-84626444D01*
X141750152Y-84626444D01*
X141750234Y-84532647D01*
X141545142Y-84036285D01*
X141165712Y-83656193D01*
X140849764Y-83525000D01*
X144739999Y-83525000D01*
X144547116Y-83604895D01*
M02*
