G04 #@! TF.FileFunction,Legend,Bot*
%FSLAX46Y46*%
G04 Gerber Fmt 4.6, Leading zero omitted, Abs format (unit mm)*
G04 Created by KiCad (PCBNEW 4.0.4-1.fc24-product) date Mon Jun  4 16:06:22 2018*
%MOMM*%
%LPD*%
G01*
G04 APERTURE LIST*
%ADD10C,0.100000*%
%ADD11C,0.150000*%
%ADD12C,0.120000*%
G04 APERTURE END LIST*
D10*
D11*
X138553571Y-85457143D02*
X139153571Y-85457143D01*
X138725000Y-85657143D01*
X139153571Y-85857143D01*
X138553571Y-85857143D01*
X138553571Y-86142857D02*
X139153571Y-86142857D01*
X138725000Y-86342857D01*
X139153571Y-86542857D01*
X138553571Y-86542857D01*
X138582143Y-87257143D02*
X138553571Y-87342857D01*
X138553571Y-87485714D01*
X138582143Y-87542857D01*
X138610714Y-87571428D01*
X138667857Y-87600000D01*
X138725000Y-87600000D01*
X138782143Y-87571428D01*
X138810714Y-87542857D01*
X138839286Y-87485714D01*
X138867857Y-87371428D01*
X138896429Y-87314286D01*
X138925000Y-87285714D01*
X138982143Y-87257143D01*
X139039286Y-87257143D01*
X139096429Y-87285714D01*
X139125000Y-87314286D01*
X139153571Y-87371428D01*
X139153571Y-87514286D01*
X139125000Y-87600000D01*
X138553571Y-88114286D02*
X138867857Y-88114286D01*
X138925000Y-88085715D01*
X138953571Y-88028572D01*
X138953571Y-87914286D01*
X138925000Y-87857143D01*
X138582143Y-88114286D02*
X138553571Y-88057143D01*
X138553571Y-87914286D01*
X138582143Y-87857143D01*
X138639286Y-87828572D01*
X138696429Y-87828572D01*
X138753571Y-87857143D01*
X138782143Y-87914286D01*
X138782143Y-88057143D01*
X138810714Y-88114286D01*
X138553571Y-88400000D02*
X139153571Y-88400000D01*
X138925000Y-88400000D02*
X138953571Y-88457143D01*
X138953571Y-88571429D01*
X138925000Y-88628572D01*
X138896429Y-88657143D01*
X138839286Y-88685714D01*
X138667857Y-88685714D01*
X138610714Y-88657143D01*
X138582143Y-88628572D01*
X138553571Y-88571429D01*
X138553571Y-88457143D01*
X138582143Y-88400000D01*
X138553571Y-88942857D02*
X138953571Y-88942857D01*
X138839286Y-88942857D02*
X138896429Y-88971429D01*
X138925000Y-89000000D01*
X138953571Y-89057143D01*
X138953571Y-89114286D01*
X138582143Y-89542858D02*
X138553571Y-89485715D01*
X138553571Y-89371429D01*
X138582143Y-89314286D01*
X138639286Y-89285715D01*
X138867857Y-89285715D01*
X138925000Y-89314286D01*
X138953571Y-89371429D01*
X138953571Y-89485715D01*
X138925000Y-89542858D01*
X138867857Y-89571429D01*
X138810714Y-89571429D01*
X138753571Y-89285715D01*
X137532143Y-85242857D02*
X137503571Y-85328571D01*
X137503571Y-85471428D01*
X137532143Y-85528571D01*
X137560714Y-85557142D01*
X137617857Y-85585714D01*
X137675000Y-85585714D01*
X137732143Y-85557142D01*
X137760714Y-85528571D01*
X137789286Y-85471428D01*
X137817857Y-85357142D01*
X137846429Y-85300000D01*
X137875000Y-85271428D01*
X137932143Y-85242857D01*
X137989286Y-85242857D01*
X138046429Y-85271428D01*
X138075000Y-85300000D01*
X138103571Y-85357142D01*
X138103571Y-85500000D01*
X138075000Y-85585714D01*
X137532143Y-86071429D02*
X137503571Y-86014286D01*
X137503571Y-85900000D01*
X137532143Y-85842857D01*
X137589286Y-85814286D01*
X137817857Y-85814286D01*
X137875000Y-85842857D01*
X137903571Y-85900000D01*
X137903571Y-86014286D01*
X137875000Y-86071429D01*
X137817857Y-86100000D01*
X137760714Y-86100000D01*
X137703571Y-85814286D01*
X137503571Y-86442857D02*
X137532143Y-86385715D01*
X137589286Y-86357143D01*
X138103571Y-86357143D01*
X137532143Y-87100001D02*
X137503571Y-87185715D01*
X137503571Y-87328572D01*
X137532143Y-87385715D01*
X137560714Y-87414286D01*
X137617857Y-87442858D01*
X137675000Y-87442858D01*
X137732143Y-87414286D01*
X137760714Y-87385715D01*
X137789286Y-87328572D01*
X137817857Y-87214286D01*
X137846429Y-87157144D01*
X137875000Y-87128572D01*
X137932143Y-87100001D01*
X137989286Y-87100001D01*
X138046429Y-87128572D01*
X138075000Y-87157144D01*
X138103571Y-87214286D01*
X138103571Y-87357144D01*
X138075000Y-87442858D01*
X137903571Y-87642858D02*
X137503571Y-87757144D01*
X137789286Y-87871430D01*
X137503571Y-87985715D01*
X137903571Y-88100001D01*
X137503571Y-88328572D02*
X137903571Y-88328572D01*
X138103571Y-88328572D02*
X138075000Y-88300001D01*
X138046429Y-88328572D01*
X138075000Y-88357144D01*
X138103571Y-88328572D01*
X138046429Y-88328572D01*
X137903571Y-88528572D02*
X137903571Y-88757143D01*
X138103571Y-88614286D02*
X137589286Y-88614286D01*
X137532143Y-88642858D01*
X137503571Y-88700000D01*
X137503571Y-88757143D01*
X137532143Y-89214286D02*
X137503571Y-89157143D01*
X137503571Y-89042857D01*
X137532143Y-88985715D01*
X137560714Y-88957143D01*
X137617857Y-88928572D01*
X137789286Y-88928572D01*
X137846429Y-88957143D01*
X137875000Y-88985715D01*
X137903571Y-89042857D01*
X137903571Y-89157143D01*
X137875000Y-89214286D01*
X137503571Y-89471429D02*
X138103571Y-89471429D01*
X137503571Y-89728572D02*
X137817857Y-89728572D01*
X137875000Y-89700001D01*
X137903571Y-89642858D01*
X137903571Y-89557143D01*
X137875000Y-89500001D01*
X137846429Y-89471429D01*
D12*
X152500000Y-94550000D02*
X147800000Y-94550000D01*
X147800000Y-94550000D02*
X147800000Y-84450000D01*
X147800000Y-84450000D02*
X152500000Y-84450000D01*
X152500000Y-84450000D02*
X152500000Y-94550000D01*
X152500000Y-92000000D02*
X151900000Y-92000000D01*
X151900000Y-92000000D02*
X151900000Y-93950000D01*
X151900000Y-93950000D02*
X148400000Y-93950000D01*
X148400000Y-93950000D02*
X148400000Y-85050000D01*
X148400000Y-85050000D02*
X151900000Y-85050000D01*
X151900000Y-85050000D02*
X151900000Y-87000000D01*
X151900000Y-87000000D02*
X152500000Y-87000000D01*
X151200000Y-94550000D02*
X151200000Y-93950000D01*
X149900000Y-94550000D02*
X149900000Y-93950000D01*
X151200000Y-84450000D02*
X151200000Y-85050000D01*
X149900000Y-84450000D02*
X149900000Y-85050000D01*
X152500000Y-92800000D02*
X152700000Y-92800000D01*
X152700000Y-92800000D02*
X152700000Y-93100000D01*
X152700000Y-93100000D02*
X152500000Y-93100000D01*
X152600000Y-92800000D02*
X152600000Y-93100000D01*
X148400000Y-91600000D02*
X148900000Y-91600000D01*
X148900000Y-91600000D02*
X148900000Y-91400000D01*
X148900000Y-91400000D02*
X148400000Y-91400000D01*
X148400000Y-91500000D02*
X148900000Y-91500000D01*
X148400000Y-89600000D02*
X148900000Y-89600000D01*
X148900000Y-89600000D02*
X148900000Y-89400000D01*
X148900000Y-89400000D02*
X148400000Y-89400000D01*
X148400000Y-89500000D02*
X148900000Y-89500000D01*
X148400000Y-87600000D02*
X148900000Y-87600000D01*
X148900000Y-87600000D02*
X148900000Y-87400000D01*
X148900000Y-87400000D02*
X148400000Y-87400000D01*
X148400000Y-87500000D02*
X148900000Y-87500000D01*
X152800000Y-93600000D02*
X152800000Y-94850000D01*
X152800000Y-94850000D02*
X151550000Y-94850000D01*
D11*
X149652381Y-88761905D02*
X148652381Y-88761905D01*
X148652381Y-89142858D01*
X148700000Y-89238096D01*
X148747619Y-89285715D01*
X148842857Y-89333334D01*
X148985714Y-89333334D01*
X149080952Y-89285715D01*
X149128571Y-89238096D01*
X149176190Y-89142858D01*
X149176190Y-88761905D01*
X149652381Y-90285715D02*
X149652381Y-89714286D01*
X149652381Y-90000000D02*
X148652381Y-90000000D01*
X148795238Y-89904762D01*
X148890476Y-89809524D01*
X148938095Y-89714286D01*
M02*
