%MOIN*%
%OFA0B0*%
%FSLAX46Y46*%
%IPPOS*%
%LPD*%
%ADD10C,0.0039370078740157488*%
%ADD11C,0.005905511811023622*%
%ADD12C,0.0047244094488188976*%
%ADD23C,0.0039370078740157488*%
%ADD24C,0.0047244094488188976*%
%ADD25C,0.005905511811023622*%
%ADD26C,0.0039370078740157488*%
%ADD27C,0.005905511811023622*%
%ADD28C,0.0047244094488188976*%
%ADD29C,0.0039370078740157488*%
G01G01*
D10*
D11*
X0000726377Y0001335433D02*
X0000726377Y0001274409D01*
X0000726377Y0001274409D02*
X0000848425Y0001274409D01*
X0000848425Y0001274409D02*
X0000848425Y0001335433D01*
X0000837401Y0001385433D02*
X0000837401Y0001785433D01*
X0000837401Y0001785433D02*
X0000737401Y0001785433D01*
X0000737401Y0001785433D02*
X0000737401Y0001385433D01*
X0000837401Y0001385433D02*
X0000737401Y0001385433D01*
X0000852362Y0001335433D02*
X0000852362Y0001274409D01*
X0000852362Y0001274409D02*
X0000974409Y0001274409D01*
X0000974409Y0001274409D02*
X0000974409Y0001335433D01*
X0000963385Y0001385433D02*
X0000963385Y0001785433D01*
X0000963385Y0001785433D02*
X0000863385Y0001785433D01*
X0000863385Y0001785433D02*
X0000863385Y0001385433D01*
X0000963385Y0001385433D02*
X0000863385Y0001385433D01*
D12*
X0000561417Y0001801181D02*
X0000025196Y0001801181D01*
X0000561417Y0001277165D02*
X0000025196Y0001277165D01*
X0000561417Y0001801181D02*
X0000561417Y0001277165D01*
X0000025196Y0001801181D02*
X0000025196Y0001277165D01*
D11*
X0000596456Y0001269685D02*
X0000596456Y0001309055D01*
X0000663385Y0001309055D02*
X0000663385Y0001269685D01*
D12*
X0000241338Y0001241338D02*
X0000241338Y0001136614D01*
X0000138976Y0001241338D02*
X0000241338Y0001241338D01*
X0000138976Y0001136614D02*
X0000241338Y0001136614D01*
X0000138976Y0001241338D02*
X0000138976Y0001136614D01*
X0000088976Y0001241338D02*
X0000036614Y0001241338D01*
X0000036614Y0001241338D02*
X0000036614Y0001188976D01*
D11*
X0000654921Y0001639173D02*
X0000604921Y0001639173D01*
X0000654921Y0001574173D02*
X0000604921Y0001574173D01*
X0000604921Y0001574173D02*
X0000604921Y0001654173D01*
X0000604921Y0001654173D02*
X0000654921Y0001654173D01*
X0000654921Y0001654173D02*
X0000654921Y0001574173D01*
X0000750843Y0001262317D02*
X0000727221Y0001262317D01*
X0000727221Y0001253318D01*
X0000728346Y0001251068D01*
X0000729471Y0001249943D01*
X0000731721Y0001248818D01*
X0000735095Y0001248818D01*
X0000737345Y0001249943D01*
X0000738470Y0001251068D01*
X0000739595Y0001253318D01*
X0000739595Y0001262317D01*
X0000727221Y0001240944D02*
X0000727221Y0001226321D01*
X0000736220Y0001234195D01*
X0000736220Y0001230821D01*
X0000737345Y0001228571D01*
X0000738470Y0001227446D01*
X0000740719Y0001226321D01*
X0000746344Y0001226321D01*
X0000748593Y0001227446D01*
X0000749718Y0001228571D01*
X0000750843Y0001230821D01*
X0000750843Y0001237570D01*
X0000749718Y0001239820D01*
X0000748593Y0001240944D01*
X0000880764Y0001262317D02*
X0000857142Y0001262317D01*
X0000857142Y0001253318D01*
X0000858267Y0001251068D01*
X0000859392Y0001249943D01*
X0000861642Y0001248818D01*
X0000865016Y0001248818D01*
X0000867266Y0001249943D01*
X0000868391Y0001251068D01*
X0000869516Y0001253318D01*
X0000869516Y0001262317D01*
X0000880764Y0001226321D02*
X0000880764Y0001239820D01*
X0000880764Y0001233070D02*
X0000857142Y0001233070D01*
X0000860517Y0001235320D01*
X0000862767Y0001237570D01*
X0000863892Y0001239820D01*
X0000550056Y0001777840D02*
X0000538807Y0001785714D01*
X0000550056Y0001791338D02*
X0000526434Y0001791338D01*
X0000526434Y0001782339D01*
X0000527559Y0001780089D01*
X0000528683Y0001778965D01*
X0000530933Y0001777840D01*
X0000534308Y0001777840D01*
X0000536557Y0001778965D01*
X0000537682Y0001780089D01*
X0000538807Y0001782339D01*
X0000538807Y0001791338D01*
X0000526434Y0001771091D02*
X0000550056Y0001763217D01*
X0000526434Y0001755343D01*
X0000550056Y0001735095D02*
X0000550056Y0001748593D01*
X0000550056Y0001741844D02*
X0000526434Y0001741844D01*
X0000529808Y0001744094D01*
X0000532058Y0001746344D01*
X0000533183Y0001748593D01*
X0000693475Y0001222440D02*
X0000694600Y0001223565D01*
X0000695725Y0001226940D01*
X0000695725Y0001229190D01*
X0000694600Y0001232564D01*
X0000692350Y0001234814D01*
X0000690101Y0001235939D01*
X0000685601Y0001237064D01*
X0000682227Y0001237064D01*
X0000677727Y0001235939D01*
X0000675478Y0001234814D01*
X0000673228Y0001232564D01*
X0000672103Y0001229190D01*
X0000672103Y0001226940D01*
X0000673228Y0001223565D01*
X0000674353Y0001222440D01*
X0000695725Y0001199943D02*
X0000695725Y0001213442D01*
X0000695725Y0001206692D02*
X0000672103Y0001206692D01*
X0000675478Y0001208942D01*
X0000677727Y0001211192D01*
X0000678852Y0001213442D01*
X0000272890Y0001210348D02*
X0000249268Y0001210348D01*
X0000249268Y0001201349D01*
X0000250393Y0001199100D01*
X0000251518Y0001197975D01*
X0000253768Y0001196850D01*
X0000257142Y0001196850D01*
X0000259392Y0001197975D01*
X0000260517Y0001199100D01*
X0000261642Y0001201349D01*
X0000261642Y0001210348D01*
X0000251518Y0001187851D02*
X0000250393Y0001186726D01*
X0000249268Y0001184476D01*
X0000249268Y0001178852D01*
X0000250393Y0001176602D01*
X0000251518Y0001175478D01*
X0000253768Y0001174353D01*
X0000256017Y0001174353D01*
X0000259392Y0001175478D01*
X0000272890Y0001188976D01*
X0000272890Y0001174353D01*
X0000575365Y0001681102D02*
X0000576490Y0001682227D01*
X0000577615Y0001685601D01*
X0000577615Y0001687851D01*
X0000576490Y0001691226D01*
X0000574240Y0001693475D01*
X0000571990Y0001694600D01*
X0000567491Y0001695725D01*
X0000564116Y0001695725D01*
X0000559617Y0001694600D01*
X0000557367Y0001693475D01*
X0000555118Y0001691226D01*
X0000553993Y0001687851D01*
X0000553993Y0001685601D01*
X0000555118Y0001682227D01*
X0000556242Y0001681102D01*
X0000556242Y0001672103D02*
X0000555118Y0001670978D01*
X0000553993Y0001668728D01*
X0000553993Y0001663104D01*
X0000555118Y0001660854D01*
X0000556242Y0001659730D01*
X0000558492Y0001658605D01*
X0000560742Y0001658605D01*
X0000564116Y0001659730D01*
X0000577615Y0001673228D01*
X0000577615Y0001658605D01*
G04 next file*
G04 #@! TF.FileFunction,Legend,Bot*
G04 Gerber Fmt 4.6, Leading zero omitted, Abs format (unit mm)*
G04 Created by KiCad (PCBNEW 4.0.4-1.fc24-product) date Wed Jun 13 10:34:08 2018*
G01G01*
G04 APERTURE LIST*
G04 APERTURE END LIST*
D23*
D24*
X0001232283Y0000481889D02*
X0001232283Y0001018110D01*
X0000708267Y0000481889D02*
X0000708267Y0001018110D01*
X0001232283Y0000481889D02*
X0000708267Y0000481889D01*
X0001232283Y0001018110D02*
X0000708267Y0001018110D01*
D25*
X0000659448Y0000570866D02*
X0000631889Y0000570866D01*
X0000631889Y0000523622D02*
X0000659448Y0000523622D01*
X0000031458Y0000559806D02*
X0000031458Y0000339406D01*
X0000011858Y0000347206D02*
X0000031458Y0000347206D01*
X0000031458Y0000552006D02*
X0000011858Y0000552006D01*
X0000011858Y0000449606D02*
X0000031458Y0000449606D01*
X0000240158Y0000339406D02*
X0000240158Y0000559806D01*
X0000011858Y0000339406D02*
X0000011858Y0000559806D01*
X0000011858Y0000559806D02*
X0000255858Y0000559806D01*
X0000255858Y0000559806D02*
X0000255858Y0000339406D01*
X0000255858Y0000339406D02*
X0000011858Y0000339406D01*
X0000665934Y0000946446D02*
X0000626564Y0000946446D01*
X0000626564Y0000893296D02*
X0000665934Y0000893296D01*
X0000625984Y0000609251D02*
X0000665354Y0000609251D01*
X0000665354Y0000662401D02*
X0000625984Y0000662401D01*
X0000625984Y0000705708D02*
X0000665354Y0000705708D01*
X0000665354Y0000758858D02*
X0000625984Y0000758858D01*
X0000335629Y0000514763D02*
X0000335629Y0000520472D01*
X0000499015Y0000514763D02*
X0000499015Y0000520472D01*
X0000499015Y0000717519D02*
X0000499015Y0000711811D01*
X0000335629Y0000717519D02*
X0000335629Y0000711811D01*
X0000335629Y0000514763D02*
X0000499015Y0000514763D01*
X0000335629Y0000717519D02*
X0000499015Y0000717519D01*
X0000335629Y0000520472D02*
X0000280511Y0000520472D01*
X0000031656Y0000785639D02*
X0000031656Y0000565239D01*
X0000012056Y0000573039D02*
X0000031656Y0000573039D01*
X0000031656Y0000777839D02*
X0000012056Y0000777839D01*
X0000012056Y0000675439D02*
X0000031656Y0000675439D01*
X0000240356Y0000565239D02*
X0000240356Y0000785639D01*
X0000012056Y0000565239D02*
X0000012056Y0000785639D01*
X0000012056Y0000785639D02*
X0000256056Y0000785639D01*
X0000256056Y0000785639D02*
X0000256056Y0000565239D01*
X0000256056Y0000565239D02*
X0000012056Y0000565239D01*
X0000255858Y0000336990D02*
X0000255858Y0000014190D01*
X0000240158Y0000336990D02*
X0000240158Y0000014190D01*
X0000031458Y0000336990D02*
X0000031458Y0000014190D01*
X0000011858Y0000014190D02*
X0000011858Y0000336990D01*
X0000031458Y0000226790D02*
X0000011858Y0000226790D01*
X0000011858Y0000022090D02*
X0000031458Y0000022090D01*
X0000031458Y0000329190D02*
X0000011858Y0000329190D01*
X0000011858Y0000124490D02*
X0000031458Y0000124490D01*
X0000011858Y0000336990D02*
X0000255858Y0000336990D01*
X0000255858Y0000014290D02*
X0000011858Y0000014290D01*
X0000031458Y0001010593D02*
X0000031458Y0000790193D01*
X0000011858Y0000797993D02*
X0000031458Y0000797993D01*
X0000031458Y0001002793D02*
X0000011858Y0001002793D01*
X0000011858Y0000900393D02*
X0000031458Y0000900393D01*
X0000240158Y0000790193D02*
X0000240158Y0001010593D01*
X0000011858Y0000790193D02*
X0000011858Y0001010593D01*
X0000011858Y0001010593D02*
X0000255858Y0001010593D01*
X0000255858Y0001010593D02*
X0000255858Y0000790193D01*
X0000255858Y0000790193D02*
X0000011858Y0000790193D01*
X0000665354Y0000853346D02*
X0000625984Y0000853346D01*
X0000625984Y0000800196D02*
X0000665354Y0000800196D01*
D24*
X0000480314Y0000779527D02*
X0000480314Y0000807086D01*
X0000433070Y0000807086D02*
X0000433070Y0000779527D01*
X0000393700Y0000779527D02*
X0000393700Y0000807086D01*
X0000346456Y0000807086D02*
X0000346456Y0000779527D01*
D25*
X0000339763Y0000150000D02*
X0000278740Y0000150000D01*
X0000278740Y0000150000D02*
X0000278740Y0000027952D01*
X0000278740Y0000027952D02*
X0000339763Y0000027952D01*
X0000389763Y0000038976D02*
X0000789763Y0000038976D01*
X0000789763Y0000038976D02*
X0000789763Y0000138976D01*
X0000789763Y0000138976D02*
X0000389763Y0000138976D01*
X0000389763Y0000038976D02*
X0000389763Y0000138976D01*
X0000388582Y0000201968D02*
X0000488582Y0000201968D01*
X0000277559Y0000190944D02*
X0000338582Y0000190944D01*
X0000388582Y0000201968D02*
X0000388582Y0000301968D01*
X0000338582Y0000312992D02*
X0000277559Y0000312992D01*
X0000277559Y0000312992D02*
X0000277559Y0000190944D01*
X0000388582Y0000301968D02*
X0000488582Y0000301968D01*
X0000488582Y0000301968D02*
X0000488582Y0000201968D01*
X0001212317Y0000446006D02*
X0001212317Y0000469628D01*
X0001203318Y0000469628D01*
X0001201068Y0000468503D01*
X0001199943Y0000467379D01*
X0001198818Y0000465129D01*
X0001198818Y0000461754D01*
X0001199943Y0000459505D01*
X0001201068Y0000458380D01*
X0001203318Y0000457255D01*
X0001212317Y0000457255D01*
X0001177446Y0000469628D02*
X0001188695Y0000469628D01*
X0001189820Y0000458380D01*
X0001188695Y0000459505D01*
X0001186445Y0000460629D01*
X0001180821Y0000460629D01*
X0001178571Y0000459505D01*
X0001177446Y0000458380D01*
X0001176321Y0000456130D01*
X0001176321Y0000450506D01*
X0001177446Y0000448256D01*
X0001178571Y0000447131D01*
X0001180821Y0000446006D01*
X0001186445Y0000446006D01*
X0001188695Y0000447131D01*
X0001189820Y0000448256D01*
X0000679133Y0000582114D02*
X0000680258Y0000580989D01*
X0000683633Y0000579865D01*
X0000685882Y0000579865D01*
X0000689257Y0000580989D01*
X0000691507Y0000583239D01*
X0000692632Y0000585489D01*
X0000693757Y0000589988D01*
X0000693757Y0000593363D01*
X0000692632Y0000597862D01*
X0000691507Y0000600112D01*
X0000689257Y0000602362D01*
X0000685882Y0000603487D01*
X0000683633Y0000603487D01*
X0000680258Y0000602362D01*
X0000679133Y0000601237D01*
X0000658886Y0000603487D02*
X0000663385Y0000603487D01*
X0000665635Y0000602362D01*
X0000666760Y0000601237D01*
X0000669010Y0000597862D01*
X0000670134Y0000593363D01*
X0000670134Y0000584364D01*
X0000669010Y0000582114D01*
X0000667885Y0000580989D01*
X0000665635Y0000579865D01*
X0000661136Y0000579865D01*
X0000658886Y0000580989D01*
X0000657761Y0000582114D01*
X0000656636Y0000584364D01*
X0000656636Y0000589988D01*
X0000657761Y0000592238D01*
X0000658886Y0000593363D01*
X0000661136Y0000594488D01*
X0000665635Y0000594488D01*
X0000667885Y0000593363D01*
X0000669010Y0000592238D01*
X0000670134Y0000589988D01*
X0000336332Y0000320022D02*
X0000336332Y0000343644D01*
X0000327334Y0000343644D01*
X0000325084Y0000342519D01*
X0000323959Y0000341394D01*
X0000322834Y0000339145D01*
X0000322834Y0000335770D01*
X0000323959Y0000333520D01*
X0000325084Y0000332395D01*
X0000327334Y0000331271D01*
X0000336332Y0000331271D01*
X0000302587Y0000335770D02*
X0000302587Y0000320022D01*
X0000308211Y0000344769D02*
X0000313835Y0000327896D01*
X0000299212Y0000327896D01*
X0000681682Y0000956429D02*
X0000689556Y0000967678D01*
X0000695180Y0000956429D02*
X0000695180Y0000980051D01*
X0000686182Y0000980051D01*
X0000683932Y0000978926D01*
X0000682807Y0000977801D01*
X0000681682Y0000975552D01*
X0000681682Y0000972177D01*
X0000682807Y0000969927D01*
X0000683932Y0000968802D01*
X0000686182Y0000967678D01*
X0000695180Y0000967678D01*
X0000660310Y0000980051D02*
X0000671558Y0000980051D01*
X0000672683Y0000968802D01*
X0000671558Y0000969927D01*
X0000669309Y0000971052D01*
X0000663684Y0000971052D01*
X0000661435Y0000969927D01*
X0000660310Y0000968802D01*
X0000659185Y0000966553D01*
X0000659185Y0000960928D01*
X0000660310Y0000958679D01*
X0000661435Y0000957554D01*
X0000663684Y0000956429D01*
X0000669309Y0000956429D01*
X0000671558Y0000957554D01*
X0000672683Y0000958679D01*
X0000679133Y0000670416D02*
X0000687007Y0000681664D01*
X0000692632Y0000670416D02*
X0000692632Y0000694038D01*
X0000683633Y0000694038D01*
X0000681383Y0000692913D01*
X0000680258Y0000691788D01*
X0000679133Y0000689538D01*
X0000679133Y0000686164D01*
X0000680258Y0000683914D01*
X0000681383Y0000682789D01*
X0000683633Y0000681664D01*
X0000692632Y0000681664D01*
X0000667885Y0000670416D02*
X0000663385Y0000670416D01*
X0000661136Y0000671541D01*
X0000660011Y0000672665D01*
X0000657761Y0000676040D01*
X0000656636Y0000680539D01*
X0000656636Y0000689538D01*
X0000657761Y0000691788D01*
X0000658886Y0000692913D01*
X0000661136Y0000694038D01*
X0000665635Y0000694038D01*
X0000667885Y0000692913D01*
X0000669010Y0000691788D01*
X0000670134Y0000689538D01*
X0000670134Y0000683914D01*
X0000669010Y0000681664D01*
X0000667885Y0000680539D01*
X0000665635Y0000679415D01*
X0000661136Y0000679415D01*
X0000658886Y0000680539D01*
X0000657761Y0000681664D01*
X0000656636Y0000683914D01*
X0000680539Y0000768841D02*
X0000688413Y0000780089D01*
X0000694038Y0000768841D02*
X0000694038Y0000792463D01*
X0000685039Y0000792463D01*
X0000682789Y0000791338D01*
X0000681664Y0000790213D01*
X0000680539Y0000787964D01*
X0000680539Y0000784589D01*
X0000681664Y0000782339D01*
X0000682789Y0000781214D01*
X0000685039Y0000780089D01*
X0000694038Y0000780089D01*
X0000658042Y0000768841D02*
X0000671541Y0000768841D01*
X0000664791Y0000768841D02*
X0000664791Y0000792463D01*
X0000667041Y0000789088D01*
X0000669291Y0000786839D01*
X0000671541Y0000785714D01*
X0000650168Y0000792463D02*
X0000634420Y0000792463D01*
X0000644544Y0000768841D01*
X0000435320Y0000629077D02*
X0000435320Y0000609955D01*
X0000434195Y0000607705D01*
X0000433070Y0000606580D01*
X0000430821Y0000605455D01*
X0000426321Y0000605455D01*
X0000424072Y0000606580D01*
X0000422947Y0000607705D01*
X0000421822Y0000609955D01*
X0000421822Y0000629077D01*
X0000398200Y0000605455D02*
X0000411698Y0000605455D01*
X0000404949Y0000605455D02*
X0000404949Y0000629077D01*
X0000407199Y0000625703D01*
X0000409448Y0000623453D01*
X0000411698Y0000622328D01*
X0000286474Y0000601142D02*
X0000262852Y0000601142D01*
X0000262852Y0000592143D01*
X0000263977Y0000589893D01*
X0000265102Y0000588768D01*
X0000267351Y0000587643D01*
X0000270726Y0000587643D01*
X0000272976Y0000588768D01*
X0000274101Y0000589893D01*
X0000275225Y0000592143D01*
X0000275225Y0000601142D01*
X0000265102Y0000578645D02*
X0000263977Y0000577520D01*
X0000262852Y0000575270D01*
X0000262852Y0000569646D01*
X0000263977Y0000567396D01*
X0000265102Y0000566271D01*
X0000267351Y0000565146D01*
X0000269601Y0000565146D01*
X0000272976Y0000566271D01*
X0000286474Y0000579769D01*
X0000286474Y0000565146D01*
X0000336332Y0000157424D02*
X0000336332Y0000181046D01*
X0000327334Y0000181046D01*
X0000325084Y0000179921D01*
X0000323959Y0000178796D01*
X0000322834Y0000176546D01*
X0000322834Y0000173172D01*
X0000323959Y0000170922D01*
X0000325084Y0000169797D01*
X0000327334Y0000168672D01*
X0000336332Y0000168672D01*
X0000314960Y0000181046D02*
X0000300337Y0000181046D01*
X0000308211Y0000172047D01*
X0000304836Y0000172047D01*
X0000302587Y0000170922D01*
X0000301462Y0000169797D01*
X0000300337Y0000167547D01*
X0000300337Y0000161923D01*
X0000301462Y0000159673D01*
X0000302587Y0000158548D01*
X0000304836Y0000157424D01*
X0000311586Y0000157424D01*
X0000313835Y0000158548D01*
X0000314960Y0000159673D01*
X0000290015Y0000825066D02*
X0000266393Y0000825066D01*
X0000266393Y0000816068D01*
X0000267518Y0000813818D01*
X0000268643Y0000812693D01*
X0000270893Y0000811568D01*
X0000274267Y0000811568D01*
X0000276517Y0000812693D01*
X0000277642Y0000813818D01*
X0000278767Y0000816068D01*
X0000278767Y0000825066D01*
X0000290015Y0000789071D02*
X0000290015Y0000802569D01*
X0000290015Y0000795820D02*
X0000266393Y0000795820D01*
X0000269768Y0000798070D01*
X0000272018Y0000800320D01*
X0000273143Y0000802569D01*
X0000681102Y0000863329D02*
X0000688976Y0000874578D01*
X0000694600Y0000863329D02*
X0000694600Y0000886951D01*
X0000685601Y0000886951D01*
X0000683352Y0000885826D01*
X0000682227Y0000884701D01*
X0000681102Y0000882452D01*
X0000681102Y0000879077D01*
X0000682227Y0000876827D01*
X0000683352Y0000875703D01*
X0000685601Y0000874578D01*
X0000694600Y0000874578D01*
X0000660854Y0000886951D02*
X0000665354Y0000886951D01*
X0000667604Y0000885826D01*
X0000668728Y0000884701D01*
X0000670978Y0000881327D01*
X0000672103Y0000876827D01*
X0000672103Y0000867828D01*
X0000670978Y0000865579D01*
X0000669853Y0000864454D01*
X0000667604Y0000863329D01*
X0000663104Y0000863329D01*
X0000660854Y0000864454D01*
X0000659730Y0000865579D01*
X0000658605Y0000867828D01*
X0000658605Y0000873453D01*
X0000659730Y0000875703D01*
X0000660854Y0000876827D01*
X0000663104Y0000877952D01*
X0000667604Y0000877952D01*
X0000669853Y0000876827D01*
X0000670978Y0000875703D01*
X0000672103Y0000873453D01*
X0000508436Y0000826771D02*
X0000509561Y0000827896D01*
X0000510686Y0000831271D01*
X0000510686Y0000833520D01*
X0000509561Y0000836895D01*
X0000507311Y0000839145D01*
X0000505061Y0000840269D01*
X0000500562Y0000841394D01*
X0000497187Y0000841394D01*
X0000492688Y0000840269D01*
X0000490438Y0000839145D01*
X0000488188Y0000836895D01*
X0000487064Y0000833520D01*
X0000487064Y0000831271D01*
X0000488188Y0000827896D01*
X0000489313Y0000826771D01*
X0000497187Y0000813273D02*
X0000496062Y0000815523D01*
X0000494938Y0000816647D01*
X0000492688Y0000817772D01*
X0000491563Y0000817772D01*
X0000489313Y0000816647D01*
X0000488188Y0000815523D01*
X0000487064Y0000813273D01*
X0000487064Y0000808773D01*
X0000488188Y0000806524D01*
X0000489313Y0000805399D01*
X0000491563Y0000804274D01*
X0000492688Y0000804274D01*
X0000494938Y0000805399D01*
X0000496062Y0000806524D01*
X0000497187Y0000808773D01*
X0000497187Y0000813273D01*
X0000498312Y0000815523D01*
X0000499437Y0000816647D01*
X0000501687Y0000817772D01*
X0000506186Y0000817772D01*
X0000508436Y0000816647D01*
X0000509561Y0000815523D01*
X0000510686Y0000813273D01*
X0000510686Y0000808773D01*
X0000509561Y0000806524D01*
X0000508436Y0000805399D01*
X0000506186Y0000804274D01*
X0000501687Y0000804274D01*
X0000499437Y0000805399D01*
X0000498312Y0000806524D01*
X0000497187Y0000808773D01*
X0000339145Y0000826771D02*
X0000340269Y0000827896D01*
X0000341394Y0000831271D01*
X0000341394Y0000833520D01*
X0000340269Y0000836895D01*
X0000338020Y0000839145D01*
X0000335770Y0000840269D01*
X0000331271Y0000841394D01*
X0000327896Y0000841394D01*
X0000323397Y0000840269D01*
X0000321147Y0000839145D01*
X0000318897Y0000836895D01*
X0000317772Y0000833520D01*
X0000317772Y0000831271D01*
X0000318897Y0000827896D01*
X0000320022Y0000826771D01*
X0000341394Y0000815523D02*
X0000341394Y0000811023D01*
X0000340269Y0000808773D01*
X0000339145Y0000807649D01*
X0000335770Y0000805399D01*
X0000331271Y0000804274D01*
X0000322272Y0000804274D01*
X0000320022Y0000805399D01*
X0000318897Y0000806524D01*
X0000317772Y0000808773D01*
X0000317772Y0000813273D01*
X0000318897Y0000815523D01*
X0000320022Y0000816647D01*
X0000322272Y0000817772D01*
X0000327896Y0000817772D01*
X0000330146Y0000816647D01*
X0000331271Y0000815523D01*
X0000332395Y0000813273D01*
X0000332395Y0000808773D01*
X0000331271Y0000806524D01*
X0000330146Y0000805399D01*
X0000327896Y0000804274D01*
X0000149662Y0000106411D02*
X0000126040Y0000106411D01*
X0000126040Y0000097412D01*
X0000127165Y0000095163D01*
X0000128290Y0000094038D01*
X0000130539Y0000092913D01*
X0000133914Y0000092913D01*
X0000136164Y0000094038D01*
X0000137289Y0000095163D01*
X0000138413Y0000097412D01*
X0000138413Y0000106411D01*
X0000126040Y0000072665D02*
X0000126040Y0000077165D01*
X0000127165Y0000079415D01*
X0000128290Y0000080539D01*
X0000131664Y0000082789D01*
X0000136164Y0000083914D01*
X0000145163Y0000083914D01*
X0000147412Y0000082789D01*
X0000148537Y0000081664D01*
X0000149662Y0000079415D01*
X0000149662Y0000074915D01*
X0000148537Y0000072665D01*
X0000147412Y0000071541D01*
X0000145163Y0000070416D01*
X0000139538Y0000070416D01*
X0000137289Y0000071541D01*
X0000136164Y0000072665D01*
X0000135039Y0000074915D01*
X0000135039Y0000079415D01*
X0000136164Y0000081664D01*
X0000137289Y0000082789D01*
X0000139538Y0000083914D01*
X0000148481Y0000269403D02*
X0000124859Y0000269403D01*
X0000124859Y0000260404D01*
X0000125984Y0000258155D01*
X0000127109Y0000257030D01*
X0000129358Y0000255905D01*
X0000132733Y0000255905D01*
X0000134983Y0000257030D01*
X0000136107Y0000258155D01*
X0000137232Y0000260404D01*
X0000137232Y0000269403D01*
X0000124859Y0000248031D02*
X0000124859Y0000232283D01*
X0000148481Y0000242407D01*
G04 next file*
G04 #@! TF.FileFunction,Legend,Bot*
G04 Gerber Fmt 4.6, Leading zero omitted, Abs format (unit mm)*
G04 Created by KiCad (PCBNEW 4.0.4-1.fc24-product) date Wed Jun 13 10:55:40 2018*
G01G01*
G04 APERTURE LIST*
G04 APERTURE END LIST*
D26*
D27*
X0001742913Y0001796456D02*
X0001742913Y0001496456D01*
X0001642913Y0001796456D02*
X0001642913Y0001496456D01*
X0001631889Y0001907480D02*
X0001631889Y0001846456D01*
X0001742913Y0001496456D02*
X0001642913Y0001496456D01*
X0001642913Y0001796456D02*
X0001742913Y0001796456D01*
X0001753937Y0001846456D02*
X0001753937Y0001907480D01*
X0001753937Y0001907480D02*
X0001631889Y0001907480D01*
D28*
X0001624015Y0001229921D02*
X0001624015Y0001884251D01*
X0001099999Y0001229921D02*
X0001099999Y0001884251D01*
X0001624015Y0001229921D02*
X0001099999Y0001229921D01*
X0001624015Y0001884251D02*
X0001099999Y0001884251D01*
D27*
X0001702099Y0001488320D02*
X0001702099Y0001468635D01*
X0001703412Y0001464698D01*
X0001706036Y0001462073D01*
X0001709973Y0001460761D01*
X0001712598Y0001460761D01*
X0001674540Y0001460761D02*
X0001690288Y0001460761D01*
X0001682414Y0001460761D02*
X0001682414Y0001488320D01*
X0001685039Y0001484383D01*
X0001687664Y0001481758D01*
X0001690288Y0001480446D01*
X0001614829Y0001845800D02*
X0001614829Y0001873359D01*
X0001604330Y0001873359D01*
X0001601706Y0001872047D01*
X0001600393Y0001870734D01*
X0001599081Y0001868110D01*
X0001599081Y0001864173D01*
X0001600393Y0001861548D01*
X0001601706Y0001860236D01*
X0001604330Y0001858923D01*
X0001614829Y0001858923D01*
X0001572834Y0001845800D02*
X0001588582Y0001845800D01*
X0001580708Y0001845800D02*
X0001580708Y0001873359D01*
X0001583333Y0001869422D01*
X0001585957Y0001866797D01*
X0001588582Y0001865485D01*
G04 next file*
G04 #@! TF.FileFunction,Legend,Bot*
G04 Gerber Fmt 4.6, Leading zero omitted, Abs format (unit mm)*
G04 Created by KiCad (PCBNEW 4.0.4-1.fc24-product) date Wed Jun 13 10:10:06 2018*
G01G01*
G04 APERTURE LIST*
G04 APERTURE END LIST*
D29*
M02*