%
M48
METRIC,000.000
T01C0.40
T02C1.00
T03C1.02
T10C1.10
T11C0.50
%
T01
X012800Y028699
X013500Y031000
X018300Y037099
X010600Y038699
X011900Y041300
X014365Y043035
X017500Y043150
X012300Y043800
X015000Y048099
X005900Y020700
X010300Y019400
X010949Y016900
X012400Y022599
X012500Y019400
X014199Y022400
X015300Y009400
X016198Y006347
X020599Y004400
X036199Y034099
T02
X002260Y030199
X004800Y030199
X002500Y035250
X007500Y035250
X002500Y039000
X007500Y039000
X002500Y042750
X007500Y042750
X020800Y024000
X020800Y019000
X024550Y024000
X024550Y019000
X028300Y024000
X028300Y019000
X030349Y046000
X030349Y041000
X030349Y036000
X034099Y046000
X034099Y041000
X034099Y036000
X037849Y046000
X037849Y041000
X037849Y036000
X045000Y011960
X037000Y013000
X045000Y014500
X045000Y017039
X037000Y018000
X045000Y021400
X037000Y023000
X045000Y023939
T03
X020000Y033919
X023200Y033919
X020000Y036460
X023200Y036460
X020000Y039000
X023200Y039000
X020000Y041539
X023200Y041539
X020000Y044080
X023200Y044080
X008599Y006400
X008629Y002260
X011139Y006400
X011169Y002260
X013710Y002260
X016250Y002260
X018789Y002260
X042599Y046900
X042599Y044360
X042599Y041819
X042599Y039280
T10
X003400Y024140
X003400Y021599
X003400Y012689
X003400Y010150
X003400Y007000
X003400Y004459
X003400Y001920
X003405Y018426
X003405Y015885
T11
X011429Y027750
X012429Y027750
X013429Y027750
X014429Y027750
X015429Y027750
X016429Y027750
X016285Y026250
X015285Y026250
X014285Y026250
X013285Y026250
X012285Y026250
X037029Y027750
X038029Y027750
X039029Y027750
X040029Y027750
X041029Y027750
X040785Y026250
X039785Y026250
X038785Y026250
X037785Y026250
X036785Y026250
X031750Y014607
X031750Y015607
X031750Y016607
X031750Y017607
X031750Y018607
X033750Y018178
X033750Y017178
X033750Y016178
X033750Y015178
X033750Y014178
X025250Y037607
X025250Y038607
X025250Y039607
X025250Y040607
X025250Y041607
X025250Y042607
X026849Y041678
X026849Y040678
X026849Y039678
X026849Y038678
X026849Y037678
M30