%MOIN*%
%OFA0B0*%
%FSLAX46Y46*%
%IPPOS*%
%LPD*%
%ADD10C,0.0039370078740157488*%
%ADD11C,0.005905511811023622*%
%ADD22C,0.0039370078740157488*%
%ADD23C,0.005905511811023622*%
%ADD24C,0.0047244094488188976*%
%ADD25C,0.0039370078740157488*%
%ADD26C,0.005905511811023622*%
%ADD27C,0.0047244094488188976*%
%ADD28C,0.0039370078740157488*%
G01G01*
D10*
D11*
X0000632874Y0001240157D02*
X0000632874Y0001200787D01*
X0000579724Y0001200787D02*
X0000579724Y0001240157D01*
X0000514763Y0001240157D02*
X0000514763Y0001200787D01*
X0000461614Y0001200787D02*
X0000461614Y0001240157D01*
X0000416338Y0001240157D02*
X0000416338Y0001200787D01*
X0000363188Y0001200787D02*
X0000363188Y0001240157D01*
X0000317913Y0001240157D02*
X0000317913Y0001200787D01*
X0000264763Y0001200787D02*
X0000264763Y0001240157D01*
X0000691929Y0001617125D02*
X0000686220Y0001617125D01*
X0000691929Y0001453740D02*
X0000686220Y0001453740D01*
X0000489173Y0001453740D02*
X0000494881Y0001453740D01*
X0000489173Y0001617125D02*
X0000494881Y0001617125D01*
X0000691929Y0001617125D02*
X0000691929Y0001453740D01*
X0000489173Y0001617125D02*
X0000489173Y0001453740D01*
X0000686220Y0001617125D02*
X0000686220Y0001672244D01*
X0000386811Y0001830708D02*
X0000386811Y0001870078D01*
X0000439960Y0001870078D02*
X0000439960Y0001830708D01*
X0000243110Y0001870078D02*
X0000243110Y0001830708D01*
X0000189960Y0001830708D02*
X0000189960Y0001870078D01*
X0000478346Y0001870078D02*
X0000478346Y0001830708D01*
X0000545275Y0001830708D02*
X0000545275Y0001870078D01*
X0000341535Y0001870078D02*
X0000341535Y0001830708D01*
X0000288385Y0001830708D02*
X0000288385Y0001870078D01*
X0000439960Y0001448818D02*
X0000439960Y0001409448D01*
X0000386811Y0001409448D02*
X0000386811Y0001448818D01*
X0000656496Y0001870078D02*
X0000656496Y0001830708D01*
X0000603346Y0001830708D02*
X0000603346Y0001870078D01*
X0000057086Y0001881889D02*
X0000057086Y0001842519D01*
X0000124015Y0001842519D02*
X0000124015Y0001881889D01*
X0000728346Y0001228346D02*
X0000728346Y0001200787D01*
X0000681102Y0001200787D02*
X0000681102Y0001228346D01*
X0000389763Y0001627952D02*
X0000389763Y0001655511D01*
X0000437007Y0001655511D02*
X0000437007Y0001627952D01*
X0000569741Y0001169291D02*
X0000558492Y0001161417D01*
X0000569741Y0001155793D02*
X0000546119Y0001155793D01*
X0000546119Y0001164791D01*
X0000547244Y0001167041D01*
X0000548368Y0001168166D01*
X0000550618Y0001169291D01*
X0000553993Y0001169291D01*
X0000556242Y0001168166D01*
X0000557367Y0001167041D01*
X0000558492Y0001164791D01*
X0000558492Y0001155793D01*
X0000556242Y0001182789D02*
X0000555118Y0001180539D01*
X0000553993Y0001179415D01*
X0000551743Y0001178290D01*
X0000550618Y0001178290D01*
X0000548368Y0001179415D01*
X0000547244Y0001180539D01*
X0000546119Y0001182789D01*
X0000546119Y0001187289D01*
X0000547244Y0001189538D01*
X0000548368Y0001190663D01*
X0000550618Y0001191788D01*
X0000551743Y0001191788D01*
X0000553993Y0001190663D01*
X0000555118Y0001189538D01*
X0000556242Y0001187289D01*
X0000556242Y0001182789D01*
X0000557367Y0001180539D01*
X0000558492Y0001179415D01*
X0000560742Y0001178290D01*
X0000565241Y0001178290D01*
X0000567491Y0001179415D01*
X0000568616Y0001180539D01*
X0000569741Y0001182789D01*
X0000569741Y0001187289D01*
X0000568616Y0001189538D01*
X0000567491Y0001190663D01*
X0000565241Y0001191788D01*
X0000560742Y0001191788D01*
X0000558492Y0001190663D01*
X0000557367Y0001189538D01*
X0000556242Y0001187289D01*
X0000451631Y0001169291D02*
X0000440382Y0001161417D01*
X0000451631Y0001155793D02*
X0000428009Y0001155793D01*
X0000428009Y0001164791D01*
X0000429133Y0001167041D01*
X0000430258Y0001168166D01*
X0000432508Y0001169291D01*
X0000435883Y0001169291D01*
X0000438132Y0001168166D01*
X0000439257Y0001167041D01*
X0000440382Y0001164791D01*
X0000440382Y0001155793D01*
X0000428009Y0001189538D02*
X0000428009Y0001185039D01*
X0000429133Y0001182789D01*
X0000430258Y0001181664D01*
X0000433633Y0001179415D01*
X0000438132Y0001178290D01*
X0000447131Y0001178290D01*
X0000449381Y0001179415D01*
X0000450506Y0001180539D01*
X0000451631Y0001182789D01*
X0000451631Y0001187289D01*
X0000450506Y0001189538D01*
X0000449381Y0001190663D01*
X0000447131Y0001191788D01*
X0000441507Y0001191788D01*
X0000439257Y0001190663D01*
X0000438132Y0001189538D01*
X0000437007Y0001187289D01*
X0000437007Y0001182789D01*
X0000438132Y0001180539D01*
X0000439257Y0001179415D01*
X0000441507Y0001178290D01*
X0000353205Y0001169291D02*
X0000341957Y0001161417D01*
X0000353205Y0001155793D02*
X0000329583Y0001155793D01*
X0000329583Y0001164791D01*
X0000330708Y0001167041D01*
X0000331833Y0001168166D01*
X0000334083Y0001169291D01*
X0000337457Y0001169291D01*
X0000339707Y0001168166D01*
X0000340832Y0001167041D01*
X0000341957Y0001164791D01*
X0000341957Y0001155793D01*
X0000329583Y0001190663D02*
X0000329583Y0001179415D01*
X0000340832Y0001178290D01*
X0000339707Y0001179415D01*
X0000338582Y0001181664D01*
X0000338582Y0001187289D01*
X0000339707Y0001189538D01*
X0000340832Y0001190663D01*
X0000343082Y0001191788D01*
X0000348706Y0001191788D01*
X0000350956Y0001190663D01*
X0000352080Y0001189538D01*
X0000353205Y0001187289D01*
X0000353205Y0001181664D01*
X0000352080Y0001179415D01*
X0000350956Y0001178290D01*
X0000254780Y0001169291D02*
X0000243532Y0001161417D01*
X0000254780Y0001155793D02*
X0000231158Y0001155793D01*
X0000231158Y0001164791D01*
X0000232283Y0001167041D01*
X0000233408Y0001168166D01*
X0000235658Y0001169291D01*
X0000239032Y0001169291D01*
X0000241282Y0001168166D01*
X0000242407Y0001167041D01*
X0000243532Y0001164791D01*
X0000243532Y0001155793D01*
X0000239032Y0001189538D02*
X0000254780Y0001189538D01*
X0000230033Y0001183914D02*
X0000246906Y0001178290D01*
X0000246906Y0001192913D01*
X0000577615Y0001517435D02*
X0000596737Y0001517435D01*
X0000598987Y0001518560D01*
X0000600112Y0001519685D01*
X0000601237Y0001521934D01*
X0000601237Y0001526434D01*
X0000600112Y0001528683D01*
X0000598987Y0001529808D01*
X0000596737Y0001530933D01*
X0000577615Y0001530933D01*
X0000601237Y0001554555D02*
X0000601237Y0001541057D01*
X0000601237Y0001547806D02*
X0000577615Y0001547806D01*
X0000580989Y0001545556D01*
X0000583239Y0001543307D01*
X0000584364Y0001541057D01*
X0000380764Y0001799212D02*
X0000369516Y0001791338D01*
X0000380764Y0001785714D02*
X0000357142Y0001785714D01*
X0000357142Y0001794713D01*
X0000358267Y0001796962D01*
X0000359392Y0001798087D01*
X0000361642Y0001799212D01*
X0000365016Y0001799212D01*
X0000367266Y0001798087D01*
X0000368391Y0001796962D01*
X0000369516Y0001794713D01*
X0000369516Y0001785714D01*
X0000380764Y0001821709D02*
X0000380764Y0001808211D01*
X0000380764Y0001814960D02*
X0000357142Y0001814960D01*
X0000360517Y0001812710D01*
X0000362767Y0001810461D01*
X0000363892Y0001808211D01*
X0000179977Y0001799212D02*
X0000168728Y0001791338D01*
X0000179977Y0001785714D02*
X0000156355Y0001785714D01*
X0000156355Y0001794713D01*
X0000157480Y0001796962D01*
X0000158605Y0001798087D01*
X0000160854Y0001799212D01*
X0000164229Y0001799212D01*
X0000166479Y0001798087D01*
X0000167604Y0001796962D01*
X0000168728Y0001794713D01*
X0000168728Y0001785714D01*
X0000158605Y0001808211D02*
X0000157480Y0001809336D01*
X0000156355Y0001811586D01*
X0000156355Y0001817210D01*
X0000157480Y0001819460D01*
X0000158605Y0001820584D01*
X0000160854Y0001821709D01*
X0000163104Y0001821709D01*
X0000166479Y0001820584D01*
X0000179977Y0001807086D01*
X0000179977Y0001821709D01*
X0000469066Y0001787401D02*
X0000470191Y0001786276D01*
X0000471316Y0001782902D01*
X0000471316Y0001780652D01*
X0000470191Y0001777277D01*
X0000467941Y0001775028D01*
X0000465691Y0001773903D01*
X0000461192Y0001772778D01*
X0000457817Y0001772778D01*
X0000453318Y0001773903D01*
X0000451068Y0001775028D01*
X0000448818Y0001777277D01*
X0000447694Y0001780652D01*
X0000447694Y0001782902D01*
X0000448818Y0001786276D01*
X0000449943Y0001787401D01*
X0000447694Y0001795275D02*
X0000447694Y0001809898D01*
X0000456692Y0001802024D01*
X0000456692Y0001805399D01*
X0000457817Y0001807649D01*
X0000458942Y0001808773D01*
X0000461192Y0001809898D01*
X0000466816Y0001809898D01*
X0000469066Y0001808773D01*
X0000470191Y0001807649D01*
X0000471316Y0001805399D01*
X0000471316Y0001798650D01*
X0000470191Y0001796400D01*
X0000469066Y0001795275D01*
X0000278402Y0001799212D02*
X0000267154Y0001791338D01*
X0000278402Y0001785714D02*
X0000254780Y0001785714D01*
X0000254780Y0001794713D01*
X0000255905Y0001796962D01*
X0000257030Y0001798087D01*
X0000259280Y0001799212D01*
X0000262654Y0001799212D01*
X0000264904Y0001798087D01*
X0000266029Y0001796962D01*
X0000267154Y0001794713D01*
X0000267154Y0001785714D01*
X0000254780Y0001807086D02*
X0000254780Y0001821709D01*
X0000263779Y0001813835D01*
X0000263779Y0001817210D01*
X0000264904Y0001819460D01*
X0000266029Y0001820584D01*
X0000268278Y0001821709D01*
X0000273903Y0001821709D01*
X0000276152Y0001820584D01*
X0000277277Y0001819460D01*
X0000278402Y0001817210D01*
X0000278402Y0001810461D01*
X0000277277Y0001808211D01*
X0000276152Y0001807086D01*
X0000376827Y0001377952D02*
X0000365579Y0001370078D01*
X0000376827Y0001364454D02*
X0000353205Y0001364454D01*
X0000353205Y0001373453D01*
X0000354330Y0001375703D01*
X0000355455Y0001376827D01*
X0000357705Y0001377952D01*
X0000361079Y0001377952D01*
X0000363329Y0001376827D01*
X0000364454Y0001375703D01*
X0000365579Y0001373453D01*
X0000365579Y0001364454D01*
X0000353205Y0001385826D02*
X0000353205Y0001401574D01*
X0000376827Y0001391451D01*
X0000597300Y0001799212D02*
X0000586051Y0001791338D01*
X0000597300Y0001785714D02*
X0000573678Y0001785714D01*
X0000573678Y0001794713D01*
X0000574803Y0001796962D01*
X0000575927Y0001798087D01*
X0000578177Y0001799212D01*
X0000581552Y0001799212D01*
X0000583802Y0001798087D01*
X0000584926Y0001796962D01*
X0000586051Y0001794713D01*
X0000586051Y0001785714D01*
X0000597300Y0001810461D02*
X0000597300Y0001814960D01*
X0000596175Y0001817210D01*
X0000595050Y0001818335D01*
X0000591676Y0001820584D01*
X0000587176Y0001821709D01*
X0000578177Y0001821709D01*
X0000575927Y0001820584D01*
X0000574803Y0001819460D01*
X0000573678Y0001817210D01*
X0000573678Y0001812710D01*
X0000574803Y0001810461D01*
X0000575927Y0001809336D01*
X0000578177Y0001808211D01*
X0000583802Y0001808211D01*
X0000586051Y0001809336D01*
X0000587176Y0001810461D01*
X0000588301Y0001812710D01*
X0000588301Y0001817210D01*
X0000587176Y0001819460D01*
X0000586051Y0001820584D01*
X0000583802Y0001821709D01*
X0000051743Y0001795275D02*
X0000052868Y0001794150D01*
X0000053993Y0001790776D01*
X0000053993Y0001788526D01*
X0000052868Y0001785151D01*
X0000050618Y0001782902D01*
X0000048368Y0001781777D01*
X0000043869Y0001780652D01*
X0000040494Y0001780652D01*
X0000035995Y0001781777D01*
X0000033745Y0001782902D01*
X0000031496Y0001785151D01*
X0000030371Y0001788526D01*
X0000030371Y0001790776D01*
X0000031496Y0001794150D01*
X0000032620Y0001795275D01*
X0000030371Y0001816647D02*
X0000030371Y0001805399D01*
X0000041619Y0001804274D01*
X0000040494Y0001805399D01*
X0000039370Y0001807649D01*
X0000039370Y0001813273D01*
X0000040494Y0001815523D01*
X0000041619Y0001816647D01*
X0000043869Y0001817772D01*
X0000049493Y0001817772D01*
X0000051743Y0001816647D01*
X0000052868Y0001815523D01*
X0000053993Y0001813273D01*
X0000053993Y0001807649D01*
X0000052868Y0001805399D01*
X0000051743Y0001804274D01*
X0000669853Y0001169291D02*
X0000670978Y0001168166D01*
X0000672103Y0001164791D01*
X0000672103Y0001162542D01*
X0000670978Y0001159167D01*
X0000668728Y0001156917D01*
X0000666479Y0001155793D01*
X0000661979Y0001154668D01*
X0000658605Y0001154668D01*
X0000654105Y0001155793D01*
X0000651856Y0001156917D01*
X0000649606Y0001159167D01*
X0000648481Y0001162542D01*
X0000648481Y0001164791D01*
X0000649606Y0001168166D01*
X0000650731Y0001169291D01*
X0000648481Y0001189538D02*
X0000648481Y0001185039D01*
X0000649606Y0001182789D01*
X0000650731Y0001181664D01*
X0000654105Y0001179415D01*
X0000658605Y0001178290D01*
X0000667604Y0001178290D01*
X0000669853Y0001179415D01*
X0000670978Y0001180539D01*
X0000672103Y0001182789D01*
X0000672103Y0001187289D01*
X0000670978Y0001189538D01*
X0000669853Y0001190663D01*
X0000667604Y0001191788D01*
X0000661979Y0001191788D01*
X0000659730Y0001190663D01*
X0000658605Y0001189538D01*
X0000657480Y0001187289D01*
X0000657480Y0001182789D01*
X0000658605Y0001180539D01*
X0000659730Y0001179415D01*
X0000661979Y0001178290D01*
X0000378515Y0001594488D02*
X0000379640Y0001593363D01*
X0000380764Y0001589988D01*
X0000380764Y0001587739D01*
X0000379640Y0001584364D01*
X0000377390Y0001582114D01*
X0000375140Y0001580989D01*
X0000370641Y0001579865D01*
X0000367266Y0001579865D01*
X0000362767Y0001580989D01*
X0000360517Y0001582114D01*
X0000358267Y0001584364D01*
X0000357142Y0001587739D01*
X0000357142Y0001589988D01*
X0000358267Y0001593363D01*
X0000359392Y0001594488D01*
X0000365016Y0001614735D02*
X0000380764Y0001614735D01*
X0000356017Y0001609111D02*
X0000372890Y0001603487D01*
X0000372890Y0001618110D01*
G04 next file*
G04 #@! TF.FileFunction,Legend,Top*
G04 Gerber Fmt 4.6, Leading zero omitted, Abs format (unit mm)*
G04 Created by KiCad (PCBNEW 4.0.4-1.fc24-product) date Tue Jun  5 14:17:38 2018*
G01G01*
G04 APERTURE LIST*
G04 APERTURE END LIST*
D22*
D23*
X0001126968Y0000236220D02*
X0001126968Y0000275590D01*
X0001180118Y0000275590D02*
X0001180118Y0000236220D01*
X0000664527Y0000861997D02*
X0000614527Y0000861997D01*
X0000664527Y0000926997D02*
X0000614527Y0000926997D01*
X0000614527Y0000926997D02*
X0000614527Y0000846997D01*
X0000614527Y0000846997D02*
X0000664527Y0000846997D01*
X0000664527Y0000846997D02*
X0000664527Y0000926997D01*
X0000436180Y0000861997D02*
X0000386180Y0000861997D01*
X0000436180Y0000926997D02*
X0000386180Y0000926997D01*
X0000386180Y0000926997D02*
X0000386180Y0000846997D01*
X0000386180Y0000846997D02*
X0000436180Y0000846997D01*
X0000436180Y0000846997D02*
X0000436180Y0000926997D01*
X0000490511Y0000559408D02*
X0000540511Y0000559408D01*
X0000490511Y0000494408D02*
X0000540511Y0000494408D01*
X0000540511Y0000494408D02*
X0000540511Y0000574408D01*
X0000540511Y0000574408D02*
X0000490511Y0000574408D01*
X0000490511Y0000574408D02*
X0000490511Y0000494408D01*
X0000386417Y0000559408D02*
X0000436417Y0000559408D01*
X0000386417Y0000494408D02*
X0000436417Y0000494408D01*
X0000436417Y0000494408D02*
X0000436417Y0000574408D01*
X0000436417Y0000574408D02*
X0000386417Y0000574408D01*
X0000386417Y0000574408D02*
X0000386417Y0000494408D01*
X0001020275Y0000141141D02*
X0001070275Y0000141141D01*
X0001020275Y0000076141D02*
X0001070275Y0000076141D01*
X0001070275Y0000076141D02*
X0001070275Y0000156141D01*
X0001070275Y0000156141D02*
X0001020275Y0000156141D01*
X0001020275Y0000156141D02*
X0001020275Y0000076141D01*
X0001059645Y0000372637D02*
X0001059645Y0000422637D01*
X0001124645Y0000372637D02*
X0001124645Y0000422637D01*
X0001124645Y0000422637D02*
X0001044645Y0000422637D01*
X0001044645Y0000422637D02*
X0001044645Y0000372637D01*
X0001044645Y0000372637D02*
X0001124645Y0000372637D01*
D24*
X0000515747Y0000653543D02*
X0000515747Y0000748031D01*
X0000515747Y0000748031D02*
X0000557086Y0000748031D01*
X0000645669Y0000677165D02*
X0000645669Y0000748031D01*
X0000645669Y0000748031D02*
X0000604330Y0000748031D01*
X0000293307Y0000655511D02*
X0000293307Y0000749999D01*
X0000293307Y0000749999D02*
X0000334645Y0000749999D01*
X0000423228Y0000679133D02*
X0000423228Y0000749999D01*
X0000423228Y0000749999D02*
X0000381889Y0000749999D01*
D23*
X0000509606Y0000968690D02*
X0000548976Y0000968690D01*
X0000548976Y0000915541D02*
X0000509606Y0000915541D01*
X0000281259Y0000968690D02*
X0000320629Y0000968690D01*
X0000320629Y0000915541D02*
X0000281259Y0000915541D01*
X0000509606Y0000862391D02*
X0000548976Y0000862391D01*
X0000548976Y0000809241D02*
X0000509606Y0000809241D01*
X0000279291Y0000862391D02*
X0000318661Y0000862391D01*
X0000318661Y0000809241D02*
X0000279291Y0000809241D01*
X0001128937Y0000059055D02*
X0001128937Y0000098425D01*
X0001182086Y0000098425D02*
X0001182086Y0000059055D01*
X0000889763Y0000422244D02*
X0000929133Y0000422244D01*
X0000929133Y0000369094D02*
X0000889763Y0000369094D01*
X0000828737Y0000242051D02*
X0000842537Y0000242051D01*
X0000966537Y0000242051D02*
X0000952737Y0000242051D01*
X0000828737Y0000082619D02*
X0000842537Y0000082619D01*
X0000828737Y0000259819D02*
X0000842537Y0000259819D01*
X0000966537Y0000259819D02*
X0000952737Y0000259819D01*
X0000966537Y0000082619D02*
X0000952737Y0000082619D01*
X0000828737Y0000259819D02*
X0000828737Y0000082619D01*
X0000966537Y0000259819D02*
X0000966537Y0000082619D01*
X0000630905Y0000551181D02*
X0000630905Y0000590551D01*
X0000684055Y0000590551D02*
X0000684055Y0000551181D01*
X0000243110Y0000549212D02*
X0000243110Y0000588582D01*
X0000296259Y0000588582D02*
X0000296259Y0000549212D01*
X0000619094Y0000590551D02*
X0000619094Y0000551181D01*
X0000565944Y0000551181D02*
X0000565944Y0000590551D01*
X0000361220Y0000588582D02*
X0000361220Y0000549212D01*
X0000308070Y0000549212D02*
X0000308070Y0000588582D01*
D24*
X0000887795Y0000562204D02*
X0000927165Y0000562204D01*
X0000927165Y0000508661D02*
X0000887795Y0000508661D01*
D23*
X0001116985Y0000220472D02*
X0001105736Y0000212598D01*
X0001116985Y0000206974D02*
X0001093363Y0000206974D01*
X0001093363Y0000215972D01*
X0001094488Y0000218222D01*
X0001095613Y0000219347D01*
X0001097862Y0000220472D01*
X0001101237Y0000220472D01*
X0001103487Y0000219347D01*
X0001104611Y0000218222D01*
X0001105736Y0000215972D01*
X0001105736Y0000206974D01*
X0001093363Y0000228346D02*
X0001093363Y0000244094D01*
X0001116985Y0000233970D01*
X0000611968Y0000976986D02*
X0000610843Y0000975861D01*
X0000607468Y0000974736D01*
X0000605219Y0000974736D01*
X0000601844Y0000975861D01*
X0000599594Y0000978111D01*
X0000598469Y0000980361D01*
X0000597345Y0000984860D01*
X0000597345Y0000988235D01*
X0000598469Y0000992734D01*
X0000599594Y0000994984D01*
X0000601844Y0000997234D01*
X0000605219Y0000998358D01*
X0000607468Y0000998358D01*
X0000610843Y0000997234D01*
X0000611968Y0000996109D01*
X0000634465Y0000974736D02*
X0000620967Y0000974736D01*
X0000627716Y0000974736D02*
X0000627716Y0000998358D01*
X0000625466Y0000994984D01*
X0000623216Y0000992734D01*
X0000620967Y0000991609D01*
X0000430865Y0000780136D02*
X0000429741Y0000779011D01*
X0000426366Y0000777886D01*
X0000424116Y0000777886D01*
X0000420742Y0000779011D01*
X0000418492Y0000781261D01*
X0000417367Y0000783510D01*
X0000416242Y0000788010D01*
X0000416242Y0000791384D01*
X0000417367Y0000795884D01*
X0000418492Y0000798133D01*
X0000420742Y0000800383D01*
X0000424116Y0000801508D01*
X0000426366Y0000801508D01*
X0000429741Y0000800383D01*
X0000430865Y0000799258D01*
X0000439864Y0000799258D02*
X0000440989Y0000800383D01*
X0000443239Y0000801508D01*
X0000448863Y0000801508D01*
X0000451113Y0000800383D01*
X0000452238Y0000799258D01*
X0000453363Y0000797009D01*
X0000453363Y0000794759D01*
X0000452238Y0000791384D01*
X0000438739Y0000777886D01*
X0000453363Y0000777886D01*
X0000523947Y0000424172D02*
X0000525072Y0000423047D01*
X0000526197Y0000419673D01*
X0000526197Y0000417423D01*
X0000525072Y0000414048D01*
X0000522823Y0000411798D01*
X0000520573Y0000410674D01*
X0000516073Y0000409549D01*
X0000512699Y0000409549D01*
X0000508199Y0000410674D01*
X0000505950Y0000411798D01*
X0000503700Y0000414048D01*
X0000502575Y0000417423D01*
X0000502575Y0000419673D01*
X0000503700Y0000423047D01*
X0000504825Y0000424172D01*
X0000502575Y0000432046D02*
X0000502575Y0000446669D01*
X0000511574Y0000438795D01*
X0000511574Y0000442170D01*
X0000512699Y0000444419D01*
X0000513824Y0000445544D01*
X0000516073Y0000446669D01*
X0000521698Y0000446669D01*
X0000523947Y0000445544D01*
X0000525072Y0000444419D01*
X0000526197Y0000442170D01*
X0000526197Y0000435421D01*
X0000525072Y0000433171D01*
X0000523947Y0000432046D01*
X0000411979Y0000422203D02*
X0000413104Y0000421079D01*
X0000414229Y0000417704D01*
X0000414229Y0000415454D01*
X0000413104Y0000412080D01*
X0000410854Y0000409830D01*
X0000408605Y0000408705D01*
X0000404105Y0000407580D01*
X0000400731Y0000407580D01*
X0000396231Y0000408705D01*
X0000393982Y0000409830D01*
X0000391732Y0000412080D01*
X0000390607Y0000415454D01*
X0000390607Y0000417704D01*
X0000391732Y0000421079D01*
X0000392857Y0000422203D01*
X0000398481Y0000442451D02*
X0000414229Y0000442451D01*
X0000389482Y0000436827D02*
X0000406355Y0000431202D01*
X0000406355Y0000445825D01*
X0000994656Y0000049212D02*
X0000995781Y0000048087D01*
X0000996906Y0000044713D01*
X0000996906Y0000042463D01*
X0000995781Y0000039088D01*
X0000993532Y0000036839D01*
X0000991282Y0000035714D01*
X0000986782Y0000034589D01*
X0000983408Y0000034589D01*
X0000978908Y0000035714D01*
X0000976659Y0000036839D01*
X0000974409Y0000039088D01*
X0000973284Y0000042463D01*
X0000973284Y0000044713D01*
X0000974409Y0000048087D01*
X0000975534Y0000049212D01*
X0000973284Y0000070584D02*
X0000973284Y0000059336D01*
X0000984533Y0000058211D01*
X0000983408Y0000059336D01*
X0000982283Y0000061586D01*
X0000982283Y0000067210D01*
X0000983408Y0000069460D01*
X0000984533Y0000070584D01*
X0000986782Y0000071709D01*
X0000992407Y0000071709D01*
X0000994656Y0000070584D01*
X0000995781Y0000069460D01*
X0000996906Y0000067210D01*
X0000996906Y0000061586D01*
X0000995781Y0000059336D01*
X0000994656Y0000058211D01*
X0001010786Y0000452193D02*
X0001009661Y0000451068D01*
X0001006287Y0000449943D01*
X0001004037Y0000449943D01*
X0001000662Y0000451068D01*
X0000998413Y0000453318D01*
X0000997288Y0000455568D01*
X0000996163Y0000460067D01*
X0000996163Y0000463442D01*
X0000997288Y0000467941D01*
X0000998413Y0000470191D01*
X0001000662Y0000472440D01*
X0001004037Y0000473565D01*
X0001006287Y0000473565D01*
X0001009661Y0000472440D01*
X0001010786Y0000471316D01*
X0001018660Y0000473565D02*
X0001034408Y0000473565D01*
X0001024284Y0000449943D01*
X0000578458Y0000697694D02*
X0000576209Y0000698818D01*
X0000573959Y0000701068D01*
X0000570584Y0000704443D01*
X0000568335Y0000705568D01*
X0000566085Y0000705568D01*
X0000567210Y0000699943D02*
X0000564960Y0000701068D01*
X0000562710Y0000703318D01*
X0000561586Y0000707817D01*
X0000561586Y0000715691D01*
X0000562710Y0000720191D01*
X0000564960Y0000722440D01*
X0000567210Y0000723565D01*
X0000571709Y0000723565D01*
X0000573959Y0000722440D01*
X0000576209Y0000720191D01*
X0000577334Y0000715691D01*
X0000577334Y0000707817D01*
X0000576209Y0000703318D01*
X0000573959Y0000701068D01*
X0000571709Y0000699943D01*
X0000567210Y0000699943D01*
X0000599831Y0000699943D02*
X0000586332Y0000699943D01*
X0000593082Y0000699943D02*
X0000593082Y0000723565D01*
X0000590832Y0000720191D01*
X0000588582Y0000717941D01*
X0000586332Y0000716816D01*
X0000548931Y0000719347D02*
X0000546681Y0000720472D01*
X0000544431Y0000722722D01*
X0000541057Y0000726096D01*
X0000538807Y0000727221D01*
X0000536557Y0000727221D01*
X0000537682Y0000721597D02*
X0000535433Y0000722722D01*
X0000533183Y0000724971D01*
X0000532058Y0000729471D01*
X0000532058Y0000737345D01*
X0000533183Y0000741844D01*
X0000535433Y0000744094D01*
X0000537682Y0000745219D01*
X0000542182Y0000745219D01*
X0000544431Y0000744094D01*
X0000546681Y0000741844D01*
X0000547806Y0000737345D01*
X0000547806Y0000729471D01*
X0000546681Y0000724971D01*
X0000544431Y0000722722D01*
X0000542182Y0000721597D01*
X0000537682Y0000721597D01*
X0000556805Y0000742969D02*
X0000557930Y0000744094D01*
X0000560179Y0000745219D01*
X0000565804Y0000745219D01*
X0000568053Y0000744094D01*
X0000569178Y0000742969D01*
X0000570303Y0000740719D01*
X0000570303Y0000738470D01*
X0000569178Y0000735095D01*
X0000555680Y0000721597D01*
X0000570303Y0000721597D01*
X0000493857Y0000974736D02*
X0000485983Y0000985985D01*
X0000480359Y0000974736D02*
X0000480359Y0000998358D01*
X0000489358Y0000998358D01*
X0000491608Y0000997234D01*
X0000492733Y0000996109D01*
X0000493857Y0000993859D01*
X0000493857Y0000990484D01*
X0000492733Y0000988235D01*
X0000491608Y0000987110D01*
X0000489358Y0000985985D01*
X0000480359Y0000985985D01*
X0000516355Y0000974736D02*
X0000502856Y0000974736D01*
X0000509606Y0000974736D02*
X0000509606Y0000998358D01*
X0000507356Y0000994984D01*
X0000505106Y0000992734D01*
X0000502856Y0000991609D01*
X0000269448Y0000978673D02*
X0000261574Y0000989922D01*
X0000255950Y0000978673D02*
X0000255950Y0001002295D01*
X0000264949Y0001002295D01*
X0000267198Y0001001171D01*
X0000268323Y0001000046D01*
X0000269448Y0000997796D01*
X0000269448Y0000994421D01*
X0000268323Y0000992172D01*
X0000267198Y0000991047D01*
X0000264949Y0000989922D01*
X0000255950Y0000989922D01*
X0000278447Y0001000046D02*
X0000279572Y0001001171D01*
X0000281821Y0001002295D01*
X0000287446Y0001002295D01*
X0000289696Y0001001171D01*
X0000290820Y0001000046D01*
X0000291945Y0000997796D01*
X0000291945Y0000995546D01*
X0000290820Y0000992172D01*
X0000277322Y0000978673D01*
X0000291945Y0000978673D01*
X0000493857Y0000868437D02*
X0000485983Y0000879686D01*
X0000480359Y0000868437D02*
X0000480359Y0000892059D01*
X0000489358Y0000892059D01*
X0000491608Y0000890934D01*
X0000492733Y0000889810D01*
X0000493857Y0000887560D01*
X0000493857Y0000884185D01*
X0000492733Y0000881935D01*
X0000491608Y0000880811D01*
X0000489358Y0000879686D01*
X0000480359Y0000879686D01*
X0000501731Y0000892059D02*
X0000516355Y0000892059D01*
X0000508481Y0000883060D01*
X0000511855Y0000883060D01*
X0000514105Y0000881935D01*
X0000515230Y0000880811D01*
X0000516355Y0000878561D01*
X0000516355Y0000872937D01*
X0000515230Y0000870687D01*
X0000514105Y0000869562D01*
X0000511855Y0000868437D01*
X0000505106Y0000868437D01*
X0000502856Y0000869562D01*
X0000501731Y0000870687D01*
X0000263543Y0000868437D02*
X0000255668Y0000879686D01*
X0000250044Y0000868437D02*
X0000250044Y0000892059D01*
X0000259043Y0000892059D01*
X0000261293Y0000890934D01*
X0000262418Y0000889810D01*
X0000263543Y0000887560D01*
X0000263543Y0000884185D01*
X0000262418Y0000881935D01*
X0000261293Y0000880811D01*
X0000259043Y0000879686D01*
X0000250044Y0000879686D01*
X0000283790Y0000884185D02*
X0000283790Y0000868437D01*
X0000278166Y0000893184D02*
X0000272541Y0000876311D01*
X0000287165Y0000876311D01*
X0001118953Y0000043307D02*
X0001107705Y0000035433D01*
X0001118953Y0000029808D02*
X0001095331Y0000029808D01*
X0001095331Y0000038807D01*
X0001096456Y0000041057D01*
X0001097581Y0000042182D01*
X0001099831Y0000043307D01*
X0001103205Y0000043307D01*
X0001105455Y0000042182D01*
X0001106580Y0000041057D01*
X0001107705Y0000038807D01*
X0001107705Y0000029808D01*
X0001105455Y0000056805D02*
X0001104330Y0000054555D01*
X0001103205Y0000053430D01*
X0001100956Y0000052305D01*
X0001099831Y0000052305D01*
X0001097581Y0000053430D01*
X0001096456Y0000054555D01*
X0001095331Y0000056805D01*
X0001095331Y0000061304D01*
X0001096456Y0000063554D01*
X0001097581Y0000064679D01*
X0001099831Y0000065804D01*
X0001100956Y0000065804D01*
X0001103205Y0000064679D01*
X0001104330Y0000063554D01*
X0001105455Y0000061304D01*
X0001105455Y0000056805D01*
X0001106580Y0000054555D01*
X0001107705Y0000053430D01*
X0001109955Y0000052305D01*
X0001114454Y0000052305D01*
X0001116704Y0000053430D01*
X0001117828Y0000054555D01*
X0001118953Y0000056805D01*
X0001118953Y0000061304D01*
X0001117828Y0000063554D01*
X0001116704Y0000064679D01*
X0001114454Y0000065804D01*
X0001109955Y0000065804D01*
X0001107705Y0000064679D01*
X0001106580Y0000063554D01*
X0001105455Y0000061304D01*
X0000870641Y0000432227D02*
X0000862767Y0000443475D01*
X0000857142Y0000432227D02*
X0000857142Y0000455849D01*
X0000866141Y0000455849D01*
X0000868391Y0000454724D01*
X0000869516Y0000453599D01*
X0000870641Y0000451349D01*
X0000870641Y0000447975D01*
X0000869516Y0000445725D01*
X0000868391Y0000444600D01*
X0000866141Y0000443475D01*
X0000857142Y0000443475D01*
X0000893138Y0000432227D02*
X0000879640Y0000432227D01*
X0000886389Y0000432227D02*
X0000886389Y0000455849D01*
X0000884139Y0000452474D01*
X0000881889Y0000450224D01*
X0000879640Y0000449100D01*
X0000907761Y0000455849D02*
X0000910011Y0000455849D01*
X0000912260Y0000454724D01*
X0000913385Y0000453599D01*
X0000914510Y0000451349D01*
X0000915635Y0000446850D01*
X0000915635Y0000441226D01*
X0000914510Y0000436726D01*
X0000913385Y0000434476D01*
X0000912260Y0000433352D01*
X0000910011Y0000432227D01*
X0000907761Y0000432227D01*
X0000905511Y0000433352D01*
X0000904386Y0000434476D01*
X0000903262Y0000436726D01*
X0000902137Y0000441226D01*
X0000902137Y0000446850D01*
X0000903262Y0000451349D01*
X0000904386Y0000453599D01*
X0000905511Y0000454724D01*
X0000907761Y0000455849D01*
X0000997890Y0000153784D02*
X0000974268Y0000153784D01*
X0000974268Y0000159408D01*
X0000975393Y0000162783D01*
X0000977643Y0000165032D01*
X0000979893Y0000166157D01*
X0000984392Y0000167282D01*
X0000987767Y0000167282D01*
X0000992266Y0000166157D01*
X0000994516Y0000165032D01*
X0000996766Y0000162783D01*
X0000997890Y0000159408D01*
X0000997890Y0000153784D01*
X0000974268Y0000175156D02*
X0000974268Y0000189779D01*
X0000983267Y0000181905D01*
X0000983267Y0000185280D01*
X0000984392Y0000187530D01*
X0000985517Y0000188655D01*
X0000987767Y0000189779D01*
X0000993391Y0000189779D01*
X0000995641Y0000188655D01*
X0000996766Y0000187530D01*
X0000997890Y0000185280D01*
X0000997890Y0000178531D01*
X0000996766Y0000176281D01*
X0000995641Y0000175156D01*
X0000672103Y0000469066D02*
X0000660854Y0000461192D01*
X0000672103Y0000455567D02*
X0000648481Y0000455567D01*
X0000648481Y0000464566D01*
X0000649606Y0000466816D01*
X0000650731Y0000467941D01*
X0000652980Y0000469066D01*
X0000656355Y0000469066D01*
X0000658605Y0000467941D01*
X0000659730Y0000466816D01*
X0000660854Y0000464566D01*
X0000660854Y0000455567D01*
X0000672103Y0000491563D02*
X0000672103Y0000478065D01*
X0000672103Y0000484814D02*
X0000648481Y0000484814D01*
X0000651855Y0000482564D01*
X0000654105Y0000480314D01*
X0000655230Y0000478065D01*
X0000648481Y0000499437D02*
X0000648481Y0000514060D01*
X0000657480Y0000506186D01*
X0000657480Y0000509561D01*
X0000658605Y0000511811D01*
X0000659730Y0000512935D01*
X0000661979Y0000514060D01*
X0000667604Y0000514060D01*
X0000669853Y0000512935D01*
X0000670978Y0000511811D01*
X0000672103Y0000509561D01*
X0000672103Y0000502812D01*
X0000670978Y0000500562D01*
X0000669853Y0000499437D01*
X0000276434Y0000467097D02*
X0000265185Y0000459223D01*
X0000276434Y0000453599D02*
X0000252812Y0000453599D01*
X0000252812Y0000462598D01*
X0000253936Y0000464848D01*
X0000255061Y0000465972D01*
X0000257311Y0000467097D01*
X0000260686Y0000467097D01*
X0000262935Y0000465972D01*
X0000264060Y0000464848D01*
X0000265185Y0000462598D01*
X0000265185Y0000453599D01*
X0000276434Y0000489595D02*
X0000276434Y0000476096D01*
X0000276434Y0000482845D02*
X0000252812Y0000482845D01*
X0000256186Y0000480596D01*
X0000258436Y0000478346D01*
X0000259561Y0000476096D01*
X0000260686Y0000509842D02*
X0000276434Y0000509842D01*
X0000251687Y0000504218D02*
X0000268560Y0000498593D01*
X0000268560Y0000513217D01*
X0000603205Y0000469066D02*
X0000591957Y0000461192D01*
X0000603205Y0000455567D02*
X0000579583Y0000455567D01*
X0000579583Y0000464566D01*
X0000580708Y0000466816D01*
X0000581833Y0000467941D01*
X0000584083Y0000469066D01*
X0000587457Y0000469066D01*
X0000589707Y0000467941D01*
X0000590832Y0000466816D01*
X0000591957Y0000464566D01*
X0000591957Y0000455567D01*
X0000603205Y0000491563D02*
X0000603205Y0000478065D01*
X0000603205Y0000484814D02*
X0000579583Y0000484814D01*
X0000582958Y0000482564D01*
X0000585208Y0000480314D01*
X0000586332Y0000478065D01*
X0000579583Y0000512935D02*
X0000579583Y0000501687D01*
X0000590832Y0000500562D01*
X0000589707Y0000501687D01*
X0000588582Y0000503936D01*
X0000588582Y0000509561D01*
X0000589707Y0000511811D01*
X0000590832Y0000512935D01*
X0000593082Y0000514060D01*
X0000598706Y0000514060D01*
X0000600956Y0000512935D01*
X0000602080Y0000511811D01*
X0000603205Y0000509561D01*
X0000603205Y0000503936D01*
X0000602080Y0000501687D01*
X0000600956Y0000500562D01*
X0000345331Y0000467097D02*
X0000334083Y0000459223D01*
X0000345331Y0000453599D02*
X0000321709Y0000453599D01*
X0000321709Y0000462598D01*
X0000322834Y0000464848D01*
X0000323959Y0000465972D01*
X0000326209Y0000467097D01*
X0000329583Y0000467097D01*
X0000331833Y0000465972D01*
X0000332958Y0000464848D01*
X0000334083Y0000462598D01*
X0000334083Y0000453599D01*
X0000345331Y0000489595D02*
X0000345331Y0000476096D01*
X0000345331Y0000482845D02*
X0000321709Y0000482845D01*
X0000325084Y0000480596D01*
X0000327334Y0000478346D01*
X0000328458Y0000476096D01*
X0000321709Y0000509842D02*
X0000321709Y0000505343D01*
X0000322834Y0000503093D01*
X0000323959Y0000501968D01*
X0000327334Y0000499718D01*
X0000331833Y0000498593D01*
X0000340832Y0000498593D01*
X0000343082Y0000499718D01*
X0000344206Y0000500843D01*
X0000345331Y0000503093D01*
X0000345331Y0000507592D01*
X0000344206Y0000509842D01*
X0000343082Y0000510967D01*
X0000340832Y0000512092D01*
X0000335208Y0000512092D01*
X0000332958Y0000510967D01*
X0000331833Y0000509842D01*
X0000330708Y0000507592D01*
X0000330708Y0000503093D01*
X0000331833Y0000500843D01*
X0000332958Y0000499718D01*
X0000335208Y0000498593D01*
X0000892294Y0000568053D02*
X0000884420Y0000579302D01*
X0000878796Y0000568053D02*
X0000878796Y0000591676D01*
X0000887795Y0000591676D01*
X0000890044Y0000590551D01*
X0000891169Y0000589426D01*
X0000892294Y0000587176D01*
X0000892294Y0000583801D01*
X0000891169Y0000581552D01*
X0000890044Y0000580427D01*
X0000887795Y0000579302D01*
X0000878796Y0000579302D01*
X0000914791Y0000568053D02*
X0000901293Y0000568053D01*
X0000908042Y0000568053D02*
X0000908042Y0000591676D01*
X0000905792Y0000588301D01*
X0000903543Y0000586051D01*
X0000901293Y0000584926D01*
X0000937289Y0000568053D02*
X0000923790Y0000568053D01*
X0000930539Y0000568053D02*
X0000930539Y0000591676D01*
X0000928290Y0000588301D01*
X0000926040Y0000586051D01*
X0000923790Y0000584926D01*
G04 next file*
G04 #@! TF.FileFunction,Legend,Top*
G04 Gerber Fmt 4.6, Leading zero omitted, Abs format (unit mm)*
G04 Created by KiCad (PCBNEW 4.0.4-1.fc24-product) date Tue Jun  5 14:18:38 2018*
G01G01*
G04 APERTURE LIST*
G04 APERTURE END LIST*
D25*
D26*
X0001557367Y0001221597D02*
X0001557367Y0001245219D01*
X0001565241Y0001228346D01*
X0001573115Y0001245219D01*
X0001573115Y0001221597D01*
X0001584364Y0001221597D02*
X0001584364Y0001245219D01*
X0001592238Y0001228346D01*
X0001600112Y0001245219D01*
X0001600112Y0001221597D01*
X0001628233Y0001222722D02*
X0001631608Y0001221597D01*
X0001637232Y0001221597D01*
X0001639482Y0001222722D01*
X0001640607Y0001223846D01*
X0001641732Y0001226096D01*
X0001641732Y0001228346D01*
X0001640607Y0001230596D01*
X0001639482Y0001231721D01*
X0001637232Y0001232845D01*
X0001632733Y0001233970D01*
X0001630483Y0001235095D01*
X0001629358Y0001236220D01*
X0001628233Y0001238470D01*
X0001628233Y0001240719D01*
X0001629358Y0001242969D01*
X0001630483Y0001244094D01*
X0001632733Y0001245219D01*
X0001638357Y0001245219D01*
X0001641732Y0001244094D01*
X0001661979Y0001221597D02*
X0001661979Y0001233970D01*
X0001660854Y0001236220D01*
X0001658605Y0001237345D01*
X0001654105Y0001237345D01*
X0001651856Y0001236220D01*
X0001661979Y0001222722D02*
X0001659730Y0001221597D01*
X0001654105Y0001221597D01*
X0001651856Y0001222722D01*
X0001650731Y0001224971D01*
X0001650731Y0001227221D01*
X0001651856Y0001229471D01*
X0001654105Y0001230596D01*
X0001659730Y0001230596D01*
X0001661979Y0001231721D01*
X0001673228Y0001221597D02*
X0001673228Y0001245219D01*
X0001673228Y0001236220D02*
X0001675478Y0001237345D01*
X0001679977Y0001237345D01*
X0001682227Y0001236220D01*
X0001683352Y0001235095D01*
X0001684476Y0001232845D01*
X0001684476Y0001226096D01*
X0001683352Y0001223846D01*
X0001682227Y0001222722D01*
X0001679977Y0001221597D01*
X0001675478Y0001221597D01*
X0001673228Y0001222722D01*
X0001694600Y0001221597D02*
X0001694600Y0001237345D01*
X0001694600Y0001232845D02*
X0001695725Y0001235095D01*
X0001696850Y0001236220D01*
X0001699100Y0001237345D01*
X0001701349Y0001237345D01*
X0001718222Y0001222722D02*
X0001715972Y0001221597D01*
X0001711473Y0001221597D01*
X0001709223Y0001222722D01*
X0001708099Y0001224971D01*
X0001708099Y0001233970D01*
X0001709223Y0001236220D01*
X0001711473Y0001237345D01*
X0001715972Y0001237345D01*
X0001718222Y0001236220D01*
X0001719347Y0001233970D01*
X0001719347Y0001231721D01*
X0001708099Y0001229471D01*
X0001556242Y0001180258D02*
X0001556242Y0001203880D01*
X0001564117Y0001187007D01*
X0001571991Y0001203880D01*
X0001571991Y0001180258D01*
X0001583239Y0001180258D02*
X0001583239Y0001196006D01*
X0001583239Y0001203880D02*
X0001582114Y0001202755D01*
X0001583239Y0001201631D01*
X0001584364Y0001202755D01*
X0001583239Y0001203880D01*
X0001583239Y0001201631D01*
X0001604611Y0001180258D02*
X0001604611Y0001203880D01*
X0001604611Y0001181383D02*
X0001602362Y0001180258D01*
X0001597862Y0001180258D01*
X0001595613Y0001181383D01*
X0001594488Y0001182508D01*
X0001593363Y0001184758D01*
X0001593363Y0001191507D01*
X0001594488Y0001193757D01*
X0001595613Y0001194881D01*
X0001597862Y0001196006D01*
X0001602362Y0001196006D01*
X0001604611Y0001194881D01*
X0001632733Y0001181383D02*
X0001636107Y0001180258D01*
X0001641732Y0001180258D01*
X0001643982Y0001181383D01*
X0001645106Y0001182508D01*
X0001646231Y0001184758D01*
X0001646231Y0001187007D01*
X0001645106Y0001189257D01*
X0001643982Y0001190382D01*
X0001641732Y0001191507D01*
X0001637232Y0001192632D01*
X0001634983Y0001193757D01*
X0001633858Y0001194881D01*
X0001632733Y0001197131D01*
X0001632733Y0001199381D01*
X0001633858Y0001201631D01*
X0001634983Y0001202755D01*
X0001637232Y0001203880D01*
X0001642857Y0001203880D01*
X0001646231Y0001202755D01*
X0001652980Y0001196006D02*
X0001661979Y0001196006D01*
X0001656355Y0001203880D02*
X0001656355Y0001183633D01*
X0001657480Y0001181383D01*
X0001659730Y0001180258D01*
X0001661979Y0001180258D01*
X0001679977Y0001180258D02*
X0001679977Y0001192632D01*
X0001678852Y0001194881D01*
X0001676602Y0001196006D01*
X0001672103Y0001196006D01*
X0001669853Y0001194881D01*
X0001679977Y0001181383D02*
X0001677727Y0001180258D01*
X0001672103Y0001180258D01*
X0001669853Y0001181383D01*
X0001668728Y0001183633D01*
X0001668728Y0001185883D01*
X0001669853Y0001188132D01*
X0001672103Y0001189257D01*
X0001677727Y0001189257D01*
X0001679977Y0001190382D01*
X0001701349Y0001181383D02*
X0001699100Y0001180258D01*
X0001694600Y0001180258D01*
X0001692350Y0001181383D01*
X0001691226Y0001182508D01*
X0001690101Y0001184758D01*
X0001690101Y0001191507D01*
X0001691226Y0001193757D01*
X0001692350Y0001194881D01*
X0001694600Y0001196006D01*
X0001699100Y0001196006D01*
X0001701349Y0001194881D01*
X0001711473Y0001180258D02*
X0001711473Y0001203880D01*
X0001713723Y0001189257D02*
X0001720472Y0001180258D01*
X0001720472Y0001196006D02*
X0001711473Y0001187007D01*
X0001553993Y0001141169D02*
X0001552868Y0001140045D01*
X0001549493Y0001138920D01*
X0001547244Y0001138920D01*
X0001543869Y0001140045D01*
X0001541619Y0001142294D01*
X0001540494Y0001144544D01*
X0001539370Y0001149043D01*
X0001539370Y0001152418D01*
X0001540494Y0001156917D01*
X0001541619Y0001159167D01*
X0001543869Y0001161417D01*
X0001547244Y0001162542D01*
X0001549493Y0001162542D01*
X0001552868Y0001161417D01*
X0001553993Y0001160292D01*
X0001571991Y0001151293D02*
X0001575365Y0001150168D01*
X0001576490Y0001149043D01*
X0001577615Y0001146794D01*
X0001577615Y0001143419D01*
X0001576490Y0001141169D01*
X0001575365Y0001140045D01*
X0001573115Y0001138920D01*
X0001564117Y0001138920D01*
X0001564117Y0001162542D01*
X0001571991Y0001162542D01*
X0001574240Y0001161417D01*
X0001575365Y0001160292D01*
X0001576490Y0001158042D01*
X0001576490Y0001155792D01*
X0001575365Y0001153543D01*
X0001574240Y0001152418D01*
X0001571991Y0001151293D01*
X0001564117Y0001151293D01*
X0001587739Y0001138920D02*
X0001587739Y0001162542D01*
X0001593363Y0001162542D01*
X0001596737Y0001161417D01*
X0001598987Y0001159167D01*
X0001600112Y0001156917D01*
X0001601237Y0001152418D01*
X0001601237Y0001149043D01*
X0001600112Y0001144544D01*
X0001598987Y0001142294D01*
X0001596737Y0001140045D01*
X0001593363Y0001138920D01*
X0001587739Y0001138920D01*
X0001629358Y0001138920D02*
X0001629358Y0001162542D01*
X0001634983Y0001162542D01*
X0001638357Y0001161417D01*
X0001640607Y0001159167D01*
X0001641732Y0001156917D01*
X0001642857Y0001152418D01*
X0001642857Y0001149043D01*
X0001641732Y0001144544D01*
X0001640607Y0001142294D01*
X0001638357Y0001140045D01*
X0001634983Y0001138920D01*
X0001629358Y0001138920D01*
X0001661979Y0001140045D02*
X0001659730Y0001138920D01*
X0001655230Y0001138920D01*
X0001652980Y0001140045D01*
X0001651856Y0001142294D01*
X0001651856Y0001151293D01*
X0001652980Y0001153543D01*
X0001655230Y0001154668D01*
X0001659730Y0001154668D01*
X0001661979Y0001153543D01*
X0001663104Y0001151293D01*
X0001663104Y0001149043D01*
X0001651856Y0001146794D01*
X0001672103Y0001140045D02*
X0001674353Y0001138920D01*
X0001678852Y0001138920D01*
X0001681102Y0001140045D01*
X0001682227Y0001142294D01*
X0001682227Y0001143419D01*
X0001681102Y0001145669D01*
X0001678852Y0001146794D01*
X0001675478Y0001146794D01*
X0001673228Y0001147919D01*
X0001672103Y0001150168D01*
X0001672103Y0001151293D01*
X0001673228Y0001153543D01*
X0001675478Y0001154668D01*
X0001678852Y0001154668D01*
X0001681102Y0001153543D01*
X0001692350Y0001138920D02*
X0001692350Y0001154668D01*
X0001692350Y0001162542D02*
X0001691226Y0001161417D01*
X0001692350Y0001160292D01*
X0001693475Y0001161417D01*
X0001692350Y0001162542D01*
X0001692350Y0001160292D01*
X0001713723Y0001154668D02*
X0001713723Y0001135545D01*
X0001712598Y0001133295D01*
X0001711473Y0001132170D01*
X0001709223Y0001131046D01*
X0001705849Y0001131046D01*
X0001703599Y0001132170D01*
X0001713723Y0001140045D02*
X0001711473Y0001138920D01*
X0001706974Y0001138920D01*
X0001704724Y0001140045D01*
X0001703599Y0001141169D01*
X0001702474Y0001143419D01*
X0001702474Y0001150168D01*
X0001703599Y0001152418D01*
X0001704724Y0001153543D01*
X0001706974Y0001154668D01*
X0001711473Y0001154668D01*
X0001713723Y0001153543D01*
X0001724971Y0001154668D02*
X0001724971Y0001138920D01*
X0001724971Y0001152418D02*
X0001726096Y0001153543D01*
X0001728346Y0001154668D01*
X0001731721Y0001154668D01*
X0001733970Y0001153543D01*
X0001735095Y0001151293D01*
X0001735095Y0001138920D01*
X0001535433Y0001272637D02*
X0001496062Y0001272637D01*
X0001496062Y0001325787D02*
X0001535433Y0001325787D01*
X0001338582Y0001272637D02*
X0001299212Y0001272637D01*
X0001299212Y0001325787D02*
X0001338582Y0001325787D01*
X0001102362Y0001325787D02*
X0001141732Y0001325787D01*
X0001141732Y0001272637D02*
X0001102362Y0001272637D01*
D27*
X0001141732Y0001214566D02*
X0001102362Y0001214566D01*
X0001102362Y0001147637D02*
X0001141732Y0001147637D01*
X0001279527Y0001140944D02*
X0001358267Y0001140944D01*
X0001358267Y0001221259D02*
X0001279527Y0001221259D01*
D26*
X0001456036Y0001333005D02*
X0001446850Y0001346128D01*
X0001440288Y0001333005D02*
X0001440288Y0001360564D01*
X0001450787Y0001360564D01*
X0001453412Y0001359252D01*
X0001454724Y0001357939D01*
X0001456036Y0001355314D01*
X0001456036Y0001351377D01*
X0001454724Y0001348753D01*
X0001453412Y0001347440D01*
X0001450787Y0001346128D01*
X0001440288Y0001346128D01*
X0001465223Y0001360564D02*
X0001482283Y0001360564D01*
X0001473097Y0001350065D01*
X0001477034Y0001350065D01*
X0001479658Y0001348753D01*
X0001480971Y0001347440D01*
X0001482283Y0001344816D01*
X0001482283Y0001338254D01*
X0001480971Y0001335629D01*
X0001479658Y0001334317D01*
X0001477034Y0001333005D01*
X0001469160Y0001333005D01*
X0001466535Y0001334317D01*
X0001465223Y0001335629D01*
X0001314304Y0001333989D02*
X0001305118Y0001347112D01*
X0001298556Y0001333989D02*
X0001298556Y0001361548D01*
X0001309055Y0001361548D01*
X0001311679Y0001360236D01*
X0001312992Y0001358923D01*
X0001314304Y0001356299D01*
X0001314304Y0001352362D01*
X0001312992Y0001349737D01*
X0001311679Y0001348425D01*
X0001309055Y0001347112D01*
X0001298556Y0001347112D01*
X0001324803Y0001358923D02*
X0001326115Y0001360236D01*
X0001328740Y0001361548D01*
X0001335301Y0001361548D01*
X0001337926Y0001360236D01*
X0001339238Y0001358923D01*
X0001340551Y0001356299D01*
X0001340551Y0001353674D01*
X0001339238Y0001349737D01*
X0001323490Y0001333989D01*
X0001340551Y0001333989D01*
X0001121391Y0001333989D02*
X0001112204Y0001347112D01*
X0001105643Y0001333989D02*
X0001105643Y0001361548D01*
X0001116141Y0001361548D01*
X0001118766Y0001360236D01*
X0001120078Y0001358923D01*
X0001121391Y0001356299D01*
X0001121391Y0001352362D01*
X0001120078Y0001349737D01*
X0001118766Y0001348425D01*
X0001116141Y0001347112D01*
X0001105643Y0001347112D01*
X0001147637Y0001333989D02*
X0001131889Y0001333989D01*
X0001139763Y0001333989D02*
X0001139763Y0001361548D01*
X0001137139Y0001357611D01*
X0001134514Y0001354986D01*
X0001131889Y0001353674D01*
X0001117454Y0001224409D02*
X0001116141Y0001223097D01*
X0001112204Y0001221784D01*
X0001109580Y0001221784D01*
X0001105643Y0001223097D01*
X0001103018Y0001225721D01*
X0001101706Y0001228346D01*
X0001100393Y0001233595D01*
X0001100393Y0001237532D01*
X0001101706Y0001242782D01*
X0001103018Y0001245406D01*
X0001105643Y0001248031D01*
X0001109580Y0001249343D01*
X0001112204Y0001249343D01*
X0001116141Y0001248031D01*
X0001117454Y0001246719D01*
X0001127952Y0001246719D02*
X0001129265Y0001248031D01*
X0001131889Y0001249343D01*
X0001138451Y0001249343D01*
X0001141076Y0001248031D01*
X0001142388Y0001246719D01*
X0001143700Y0001244094D01*
X0001143700Y0001241469D01*
X0001142388Y0001237532D01*
X0001126640Y0001221784D01*
X0001143700Y0001221784D01*
X0001312335Y0001230314D02*
X0001311023Y0001229002D01*
X0001307086Y0001227690D01*
X0001304461Y0001227690D01*
X0001300524Y0001229002D01*
X0001297900Y0001231627D01*
X0001296587Y0001234251D01*
X0001295275Y0001239501D01*
X0001295275Y0001243438D01*
X0001296587Y0001248687D01*
X0001297900Y0001251312D01*
X0001300524Y0001253936D01*
X0001304461Y0001255249D01*
X0001307086Y0001255249D01*
X0001311023Y0001253936D01*
X0001312335Y0001252624D01*
X0001338582Y0001227690D02*
X0001322834Y0001227690D01*
X0001330708Y0001227690D02*
X0001330708Y0001255249D01*
X0001328084Y0001251312D01*
X0001325459Y0001248687D01*
X0001322834Y0001247375D01*
G04 next file*
G04 #@! TF.FileFunction,Legend,Top*
G04 Gerber Fmt 4.6, Leading zero omitted, Abs format (unit mm)*
G04 Created by KiCad (PCBNEW 4.0.4-1.fc24-product) date Tue Jun  5 15:13:36 2018*
G01G01*
G04 APERTURE LIST*
G04 APERTURE END LIST*
D28*
M02*