%MOIN*%
%OFA0B0*%
%FSLAX46Y46*%
%IPPOS*%
%LPD*%
%ADD10C,0.0039370078740157488*%
%ADD11R,0.08X0.068*%
%ADD12O,0.08X0.068*%
%ADD13C,0.070866141732283464*%
%ADD14R,0.066929133858267723X0.066929133858267723*%
%ADD15O,0.066929133858267723X0.066929133858267723*%
%ADD16R,0.062992125984251982X0.07874015748031496*%
%ADD17R,0.049212598425196853X0.059055118110236227*%
%ADD18C,0.023622047244094488*%
%ADD19C,0.011811023622047244*%
%ADD20C,0.01968503937007874*%
%ADD21C,0.00984251968503937*%
%ADD32C,0.0039370078740157488*%
%ADD33C,0.070866141732283464*%
%ADD34R,0.031496062992125991X0.029527559055118113*%
%ADD35O,0.0787X0.0787*%
%ADD36R,0.0787X0.0787*%
%ADD37R,0.01968503937007874X0.035433070866141732*%
%ADD38R,0.0610236220472441X0.023622047244094488*%
%ADD39R,0.029527559055118113X0.031496062992125991*%
%ADD40R,0.068X0.08*%
%ADD41O,0.068X0.08*%
%ADD42R,0.08X0.08*%
%ADD43O,0.08X0.08*%
%ADD44C,0.023622047244094488*%
%ADD45C,0.011811023622047244*%
%ADD46C,0.01968503937007874*%
%ADD47C,0.015748031496062995*%
%ADD48C,0.00984251968503937*%
%ADD49C,0.0039370078740157488*%
%ADD50R,0.08X0.068*%
%ADD51O,0.08X0.068*%
%ADD52C,0.070866141732283464*%
%ADD53C,0.023622047244094488*%
%ADD54C,0.015748031496062995*%
%ADD55C,0.00984251968503937*%
%ADD56C,0.0039370078740157488*%
%ADD57C,0.070866141732283464*%
%ADD58R,0.066929133858267723X0.066929133858267723*%
%ADD59O,0.066929133858267723X0.066929133858267723*%
%ADD60C,0.00984251968503937*%
G01G01*
D10*
D11*
X-0002795275Y-0004448818D02*
X0000787401Y0001335433D03*
D12*
X0000787401Y0001435433D03*
X0000787401Y0001535433D03*
X0000787401Y0001635433D03*
X0000787401Y0001735433D03*
D11*
X0000913385Y0001335433D03*
D12*
X0000913385Y0001435433D03*
X0000913385Y0001535433D03*
X0000913385Y0001635433D03*
X0000913385Y0001735433D03*
D13*
X0000098425Y0001683070D03*
X0000098425Y0001535433D03*
X0000098425Y0001387795D03*
X0000295275Y0001683070D03*
X0000295275Y0001535433D03*
X0000295275Y0001387795D03*
D14*
X0000088976Y0001188976D03*
D15*
X0000188976Y0001188976D03*
D16*
X0000629921Y0001417322D03*
X0000629921Y0001259842D03*
D17*
X0000629921Y0001663385D03*
X0000629921Y0001564960D03*
D18*
X0000720472Y0001460629D03*
X0000468503Y0001625984D03*
X0000484251Y0001724409D03*
X0000688976Y0001698818D03*
X0000590551Y0001893700D03*
X0000565551Y0001694291D03*
X0000417322Y0001523622D03*
X0000503937Y0001129921D03*
X0000531496Y0001220472D03*
D19*
X0000720472Y0001460629D02*
X0000677165Y0001417322D01*
X0000677165Y0001417322D02*
X0000629921Y0001417322D01*
X0000745527Y0001485684D02*
X0000732283Y0001472440D01*
X0000857637Y0001485684D02*
X0000745527Y0001485684D01*
X0000907385Y0001535433D02*
X0000857637Y0001485684D01*
X0000732283Y0001472440D02*
X0000720472Y0001460629D01*
X0000913385Y0001535433D02*
X0000907385Y0001535433D01*
X0000907480Y0001535433D02*
X0000913385Y0001535433D01*
D20*
X0000913385Y0001335433D02*
X0000913385Y0001291590D01*
X0000913385Y0001291590D02*
X0000802897Y0001181102D01*
X0000802897Y0001181102D02*
X0000629921Y0001181102D01*
X0000468503Y0001609280D02*
X0000468503Y0001625984D01*
X0000468503Y0001206377D02*
X0000468503Y0001609280D01*
X0000493779Y0001181102D02*
X0000468503Y0001206377D01*
X0000629921Y0001181102D02*
X0000493779Y0001181102D01*
X0000629921Y0001240157D02*
X0000629921Y0001198818D01*
X0000629921Y0001198818D02*
X0000629921Y0001181102D01*
D19*
X0000677182Y0001567873D02*
X0000629921Y0001567873D01*
X0000694742Y0001585433D02*
X0000677182Y0001567873D01*
X0000862992Y0001585433D02*
X0000694742Y0001585433D01*
X0000862992Y0001585433D02*
X0000912992Y0001635433D01*
X0000912992Y0001635433D02*
X0000913385Y0001635433D01*
X0000484251Y0001724409D02*
X0000484251Y0001724409D01*
X0000295275Y0001535433D02*
X0000484251Y0001724409D01*
X0000781401Y0001635433D02*
X0000718015Y0001698818D01*
X0000718015Y0001698818D02*
X0000688976Y0001698818D01*
X0000787401Y0001635433D02*
X0000781401Y0001635433D01*
X0000088976Y0001188976D02*
X0000088976Y0001234251D01*
X0000088976Y0001234251D02*
X0000027559Y0001295669D01*
X0000027559Y0001295669D02*
X0000027559Y0001612204D01*
X0000027559Y0001612204D02*
X0000098425Y0001683070D01*
X0000188976Y0001188976D02*
X0000188976Y0001444881D01*
X0000188976Y0001444881D02*
X0000098425Y0001535433D01*
X0000503937Y0001129921D02*
X0000429133Y0001129921D01*
X0000429133Y0001129921D02*
X0000362204Y0001196850D01*
X0000362204Y0001196850D02*
X0000362204Y0001468504D01*
X0000362204Y0001468504D02*
X0000405511Y0001511811D01*
X0000405511Y0001511811D02*
X0000417322Y0001523622D01*
X0000531496Y0001237175D02*
X0000531496Y0001220472D01*
X0000531496Y0001614173D02*
X0000531496Y0001237175D01*
X0000577796Y0001660473D02*
X0000531496Y0001614173D01*
X0000629921Y0001660473D02*
X0000577796Y0001660473D01*
D21*
G36*
X0000586357Y0001639803D02*
X0000590479Y0001639803D01*
X0000590479Y0001633858D01*
X0000590667Y0001631507D01*
X0000591902Y0001627519D01*
X0000594199Y0001624033D01*
X0000597376Y0001621325D01*
X0000601181Y0001619610D01*
X0000605314Y0001619023D01*
X0000654527Y0001619023D01*
X0000656878Y0001619210D01*
X0000660866Y0001620445D01*
X0000664352Y0001622742D01*
X0000667059Y0001625919D01*
X0000668775Y0001629725D01*
X0000669362Y0001633858D01*
X0000669362Y0001680863D01*
X0000671811Y0001678362D01*
X0000676111Y0001675418D01*
X0000680902Y0001673365D01*
X0000685999Y0001672281D01*
X0000691210Y0001672209D01*
X0000696336Y0001673149D01*
X0000701182Y0001675068D01*
X0000705563Y0001677891D01*
X0000705830Y0001678149D01*
X0000709454Y0001678149D01*
X0000735495Y0001652108D01*
X0000733368Y0001645238D01*
X0000732374Y0001635773D01*
X0000733236Y0001626295D01*
X0000735923Y0001617165D01*
X0000740332Y0001608731D01*
X0000742446Y0001606102D01*
X0000694742Y0001606102D01*
X0000692844Y0001605916D01*
X0000690940Y0001605749D01*
X0000690835Y0001605719D01*
X0000690727Y0001605708D01*
X0000688902Y0001605157D01*
X0000687066Y0001604624D01*
X0000686969Y0001604574D01*
X0000686865Y0001604542D01*
X0000685178Y0001603645D01*
X0000683484Y0001602767D01*
X0000683400Y0001602700D01*
X0000683303Y0001602648D01*
X0000681822Y0001601441D01*
X0000680332Y0001600251D01*
X0000680181Y0001600102D01*
X0000680177Y0001600099D01*
X0000680175Y0001600096D01*
X0000680126Y0001600048D01*
X0000669362Y0001589284D01*
X0000669362Y0001594488D01*
X0000669175Y0001596839D01*
X0000667940Y0001600826D01*
X0000665643Y0001604312D01*
X0000662466Y0001607020D01*
X0000658660Y0001608736D01*
X0000654527Y0001609323D01*
X0000605314Y0001609323D01*
X0000602963Y0001609135D01*
X0000598976Y0001607900D01*
X0000595490Y0001605604D01*
X0000592782Y0001602426D01*
X0000591067Y0001598621D01*
X0000590479Y0001594488D01*
X0000590479Y0001535433D01*
X0000590667Y0001533081D01*
X0000591902Y0001529094D01*
X0000594199Y0001525608D01*
X0000597376Y0001522900D01*
X0000601181Y0001521185D01*
X0000605314Y0001520597D01*
X0000654527Y0001520597D01*
X0000656878Y0001520785D01*
X0000660866Y0001522020D01*
X0000664352Y0001524317D01*
X0000667059Y0001527494D01*
X0000668775Y0001531300D01*
X0000669362Y0001535433D01*
X0000669362Y0001547203D01*
X0000677182Y0001547203D01*
X0000679080Y0001547390D01*
X0000680984Y0001547556D01*
X0000681089Y0001547586D01*
X0000681196Y0001547597D01*
X0000683022Y0001548148D01*
X0000684858Y0001548682D01*
X0000684954Y0001548732D01*
X0000685058Y0001548763D01*
X0000686746Y0001549660D01*
X0000688439Y0001550538D01*
X0000688524Y0001550606D01*
X0000688620Y0001550657D01*
X0000690101Y0001551865D01*
X0000691592Y0001553055D01*
X0000691743Y0001553204D01*
X0000691746Y0001553206D01*
X0000691749Y0001553209D01*
X0000691797Y0001553257D01*
X0000703303Y0001564763D01*
X0000742415Y0001564763D01*
X0000740709Y0001562701D01*
X0000736183Y0001554329D01*
X0000733368Y0001545238D01*
X0000732374Y0001535773D01*
X0000733236Y0001526295D01*
X0000735923Y0001517165D01*
X0000740332Y0001508731D01*
X0000742475Y0001506066D01*
X0000741725Y0001506001D01*
X0000741620Y0001505970D01*
X0000741512Y0001505960D01*
X0000739687Y0001505409D01*
X0000737851Y0001504875D01*
X0000737754Y0001504825D01*
X0000737650Y0001504794D01*
X0000735964Y0001503897D01*
X0000734269Y0001503019D01*
X0000734185Y0001502951D01*
X0000734088Y0001502900D01*
X0000732607Y0001501692D01*
X0000731117Y0001500502D01*
X0000730966Y0001500353D01*
X0000730962Y0001500350D01*
X0000730960Y0001500347D01*
X0000730911Y0001500300D01*
X0000717805Y0001487193D01*
X0000712754Y0001486193D01*
X0000707935Y0001484207D01*
X0000703595Y0001481323D01*
X0000699897Y0001477651D01*
X0000696982Y0001473330D01*
X0000694963Y0001468526D01*
X0000693915Y0001463421D01*
X0000693914Y0001463302D01*
X0000676252Y0001445640D01*
X0000676252Y0001456692D01*
X0000676065Y0001459043D01*
X0000674830Y0001463031D01*
X0000672533Y0001466517D01*
X0000669356Y0001469225D01*
X0000665550Y0001470940D01*
X0000661417Y0001471528D01*
X0000598425Y0001471528D01*
X0000596074Y0001471340D01*
X0000592086Y0001470105D01*
X0000588600Y0001467808D01*
X0000585892Y0001464631D01*
X0000584177Y0001460825D01*
X0000583590Y0001456692D01*
X0000583590Y0001377952D01*
X0000583777Y0001375601D01*
X0000585012Y0001371614D01*
X0000587309Y0001368128D01*
X0000590486Y0001365420D01*
X0000594292Y0001363704D01*
X0000598425Y0001363117D01*
X0000661417Y0001363117D01*
X0000663768Y0001363305D01*
X0000667756Y0001364539D01*
X0000671241Y0001366836D01*
X0000673949Y0001370014D01*
X0000675665Y0001373819D01*
X0000676252Y0001377952D01*
X0000676252Y0001396653D01*
X0000677165Y0001396653D01*
X0000679063Y0001396839D01*
X0000680967Y0001397006D01*
X0000681072Y0001397036D01*
X0000681180Y0001397047D01*
X0000683005Y0001397598D01*
X0000684841Y0001398131D01*
X0000684937Y0001398181D01*
X0000685041Y0001398213D01*
X0000686729Y0001399110D01*
X0000688422Y0001399988D01*
X0000688507Y0001400055D01*
X0000688603Y0001400106D01*
X0000690084Y0001401314D01*
X0000691575Y0001402504D01*
X0000691726Y0001402653D01*
X0000691729Y0001402656D01*
X0000691732Y0001402659D01*
X0000691780Y0001402707D01*
X0000723180Y0001434107D01*
X0000727832Y0001434960D01*
X0000732482Y0001436801D01*
X0000732374Y0001435773D01*
X0000733236Y0001426295D01*
X0000735923Y0001417165D01*
X0000740332Y0001408731D01*
X0000746296Y0001401314D01*
X0000753586Y0001395197D01*
X0000761926Y0001390612D01*
X0000770998Y0001387734D01*
X0000780455Y0001386674D01*
X0000781136Y0001386669D01*
X0000793666Y0001386669D01*
X0000803138Y0001387597D01*
X0000812248Y0001390348D01*
X0000820652Y0001394816D01*
X0000828027Y0001400831D01*
X0000834093Y0001408164D01*
X0000838620Y0001416536D01*
X0000841434Y0001425627D01*
X0000842429Y0001435092D01*
X0000841566Y0001444570D01*
X0000838879Y0001453700D01*
X0000834470Y0001462134D01*
X0000832153Y0001465015D01*
X0000857637Y0001465015D01*
X0000859535Y0001465201D01*
X0000861439Y0001465368D01*
X0000861544Y0001465398D01*
X0000861652Y0001465408D01*
X0000863477Y0001465960D01*
X0000865313Y0001466493D01*
X0000865409Y0001466543D01*
X0000865513Y0001466574D01*
X0000867201Y0001467472D01*
X0000868894Y0001468349D01*
X0000868979Y0001468417D01*
X0000869075Y0001468468D01*
X0000870556Y0001469676D01*
X0000872047Y0001470866D01*
X0000872198Y0001471015D01*
X0000872201Y0001471018D01*
X0000872204Y0001471021D01*
X0000872252Y0001471069D01*
X0000890860Y0001489676D01*
X0000896982Y0001487734D01*
X0000906440Y0001486674D01*
X0000907120Y0001486669D01*
X0000919650Y0001486669D01*
X0000929122Y0001487597D01*
X0000938233Y0001490348D01*
X0000946636Y0001494816D01*
X0000954011Y0001500831D01*
X0000960077Y0001508164D01*
X0000964604Y0001516536D01*
X0000966535Y0001522774D01*
X0000966535Y0001442322D01*
X0000963929Y0001442322D01*
X0000965988Y0001449789D01*
X0000963985Y0001455014D01*
X0000959308Y0001463338D01*
X0000953097Y0001470591D01*
X0000945590Y0001476492D01*
X0000937076Y0001480815D01*
X0000927883Y0001483395D01*
X0000920275Y0001480442D01*
X0000920275Y0001442322D01*
X0000921062Y0001442322D01*
X0000921062Y0001428543D01*
X0000920275Y0001428543D01*
X0000920275Y0001390423D01*
X0000927883Y0001387470D01*
X0000937076Y0001390050D01*
X0000945590Y0001394373D01*
X0000953097Y0001400274D01*
X0000959308Y0001407527D01*
X0000963985Y0001415851D01*
X0000965988Y0001421076D01*
X0000963929Y0001428543D01*
X0000966535Y0001428543D01*
X0000966535Y0001376171D01*
X0000964501Y0001379257D01*
X0000961324Y0001381965D01*
X0000957518Y0001383680D01*
X0000953385Y0001384268D01*
X0000898888Y0001384268D01*
X0000898888Y0001387470D01*
X0000906496Y0001390423D01*
X0000906496Y0001428543D01*
X0000862842Y0001428543D01*
X0000862842Y0001442322D01*
X0000906496Y0001442322D01*
X0000906496Y0001480442D01*
X0000898888Y0001483395D01*
X0000889694Y0001480815D01*
X0000881181Y0001476492D01*
X0000873674Y0001470591D01*
X0000867462Y0001463338D01*
X0000862785Y0001455014D01*
X0000860783Y0001449789D01*
X0000862842Y0001442322D01*
X0000862842Y0001428543D01*
X0000860783Y0001421076D01*
X0000862785Y0001415851D01*
X0000867462Y0001407527D01*
X0000873674Y0001400274D01*
X0000881181Y0001394373D01*
X0000889694Y0001390050D01*
X0000898888Y0001387470D01*
X0000898888Y0001384268D01*
X0000873385Y0001384268D01*
X0000871034Y0001384080D01*
X0000867047Y0001382845D01*
X0000863561Y0001380548D01*
X0000860853Y0001377371D01*
X0000859137Y0001373566D01*
X0000858550Y0001369433D01*
X0000858550Y0001301433D01*
X0000858738Y0001299081D01*
X0000859973Y0001295094D01*
X0000862269Y0001291608D01*
X0000865447Y0001288900D01*
X0000869252Y0001287185D01*
X0000873385Y0001286597D01*
X0000873594Y0001286597D01*
X0000797982Y0001210985D01*
X0000797982Y0001286669D01*
X0000828855Y0001286669D01*
X0000831707Y0001287236D01*
X0000834394Y0001288349D01*
X0000836812Y0001289965D01*
X0000838869Y0001292021D01*
X0000840485Y0001294439D01*
X0000841597Y0001297126D01*
X0000842165Y0001299978D01*
X0000842165Y0001324852D01*
X0000838474Y0001328543D01*
X0000794291Y0001328543D01*
X0000794291Y0001342322D01*
X0000838474Y0001342322D01*
X0000842165Y0001346013D01*
X0000842165Y0001370887D01*
X0000841597Y0001373739D01*
X0000840485Y0001376426D01*
X0000838869Y0001378844D01*
X0000836812Y0001380900D01*
X0000834394Y0001382516D01*
X0000831707Y0001383629D01*
X0000828855Y0001384196D01*
X0000797982Y0001384196D01*
X0000794291Y0001380505D01*
X0000794291Y0001342322D01*
X0000794291Y0001328543D01*
X0000794291Y0001290360D01*
X0000797982Y0001286669D01*
X0000797982Y0001210985D01*
X0000792705Y0001205708D01*
X0000745947Y0001205708D01*
X0000745947Y0001286669D01*
X0000776820Y0001286669D01*
X0000780511Y0001290360D01*
X0000780511Y0001328543D01*
X0000736328Y0001328543D01*
X0000736328Y0001342322D01*
X0000780511Y0001342322D01*
X0000780511Y0001380505D01*
X0000776820Y0001384196D01*
X0000745947Y0001384196D01*
X0000743095Y0001383629D01*
X0000740408Y0001382516D01*
X0000737990Y0001380900D01*
X0000735933Y0001378844D01*
X0000734318Y0001376426D01*
X0000733205Y0001373739D01*
X0000732637Y0001370887D01*
X0000732637Y0001346013D01*
X0000736328Y0001342322D01*
X0000736328Y0001328543D01*
X0000732637Y0001324852D01*
X0000732637Y0001299978D01*
X0000733205Y0001297126D01*
X0000734318Y0001294439D01*
X0000735933Y0001292021D01*
X0000737990Y0001289965D01*
X0000740408Y0001288349D01*
X0000743095Y0001287236D01*
X0000745947Y0001286669D01*
X0000745947Y0001205708D01*
X0000662312Y0001205708D01*
X0000663768Y0001205824D01*
X0000667756Y0001207059D01*
X0000671241Y0001209356D01*
X0000673949Y0001212533D01*
X0000675665Y0001216339D01*
X0000676252Y0001220472D01*
X0000676252Y0001299212D01*
X0000676065Y0001301563D01*
X0000674830Y0001305551D01*
X0000672533Y0001309037D01*
X0000669356Y0001311744D01*
X0000665550Y0001313460D01*
X0000661417Y0001314047D01*
X0000598425Y0001314047D01*
X0000596074Y0001313860D01*
X0000592086Y0001312625D01*
X0000588600Y0001310328D01*
X0000585892Y0001307151D01*
X0000584177Y0001303345D01*
X0000583590Y0001299212D01*
X0000583590Y0001220472D01*
X0000583777Y0001218121D01*
X0000585012Y0001214133D01*
X0000587309Y0001210647D01*
X0000590486Y0001207940D01*
X0000594292Y0001206224D01*
X0000597922Y0001205708D01*
X0000553599Y0001205708D01*
X0000554806Y0001207444D01*
X0000556892Y0001212220D01*
X0000558011Y0001217310D01*
X0000558120Y0001222521D01*
X0000557215Y0001227653D01*
X0000555331Y0001232512D01*
X0000552538Y0001236912D01*
X0000552165Y0001237304D01*
X0000552165Y0001605611D01*
X0000586357Y0001639803D01*
X0000586357Y0001639803D01*
G37*
X0000586357Y0001639803D02*
X0000590479Y0001639803D01*
X0000590479Y0001633858D01*
X0000590667Y0001631507D01*
X0000591902Y0001627519D01*
X0000594199Y0001624033D01*
X0000597376Y0001621325D01*
X0000601181Y0001619610D01*
X0000605314Y0001619023D01*
X0000654527Y0001619023D01*
X0000656878Y0001619210D01*
X0000660866Y0001620445D01*
X0000664352Y0001622742D01*
X0000667059Y0001625919D01*
X0000668775Y0001629725D01*
X0000669362Y0001633858D01*
X0000669362Y0001680863D01*
X0000671811Y0001678362D01*
X0000676111Y0001675418D01*
X0000680902Y0001673365D01*
X0000685999Y0001672281D01*
X0000691210Y0001672209D01*
X0000696336Y0001673149D01*
X0000701182Y0001675068D01*
X0000705563Y0001677891D01*
X0000705830Y0001678149D01*
X0000709454Y0001678149D01*
X0000735495Y0001652108D01*
X0000733368Y0001645238D01*
X0000732374Y0001635773D01*
X0000733236Y0001626295D01*
X0000735923Y0001617165D01*
X0000740332Y0001608731D01*
X0000742446Y0001606102D01*
X0000694742Y0001606102D01*
X0000692844Y0001605916D01*
X0000690940Y0001605749D01*
X0000690835Y0001605719D01*
X0000690727Y0001605708D01*
X0000688902Y0001605157D01*
X0000687066Y0001604624D01*
X0000686969Y0001604574D01*
X0000686865Y0001604542D01*
X0000685178Y0001603645D01*
X0000683484Y0001602767D01*
X0000683400Y0001602700D01*
X0000683303Y0001602648D01*
X0000681822Y0001601441D01*
X0000680332Y0001600251D01*
X0000680181Y0001600102D01*
X0000680177Y0001600099D01*
X0000680175Y0001600096D01*
X0000680126Y0001600048D01*
X0000669362Y0001589284D01*
X0000669362Y0001594488D01*
X0000669175Y0001596839D01*
X0000667940Y0001600826D01*
X0000665643Y0001604312D01*
X0000662466Y0001607020D01*
X0000658660Y0001608736D01*
X0000654527Y0001609323D01*
X0000605314Y0001609323D01*
X0000602963Y0001609135D01*
X0000598976Y0001607900D01*
X0000595490Y0001605604D01*
X0000592782Y0001602426D01*
X0000591067Y0001598621D01*
X0000590479Y0001594488D01*
X0000590479Y0001535433D01*
X0000590667Y0001533081D01*
X0000591902Y0001529094D01*
X0000594199Y0001525608D01*
X0000597376Y0001522900D01*
X0000601181Y0001521185D01*
X0000605314Y0001520597D01*
X0000654527Y0001520597D01*
X0000656878Y0001520785D01*
X0000660866Y0001522020D01*
X0000664352Y0001524317D01*
X0000667059Y0001527494D01*
X0000668775Y0001531300D01*
X0000669362Y0001535433D01*
X0000669362Y0001547203D01*
X0000677182Y0001547203D01*
X0000679080Y0001547390D01*
X0000680984Y0001547556D01*
X0000681089Y0001547586D01*
X0000681196Y0001547597D01*
X0000683022Y0001548148D01*
X0000684858Y0001548682D01*
X0000684954Y0001548732D01*
X0000685058Y0001548763D01*
X0000686746Y0001549660D01*
X0000688439Y0001550538D01*
X0000688524Y0001550606D01*
X0000688620Y0001550657D01*
X0000690101Y0001551865D01*
X0000691592Y0001553055D01*
X0000691743Y0001553204D01*
X0000691746Y0001553206D01*
X0000691749Y0001553209D01*
X0000691797Y0001553257D01*
X0000703303Y0001564763D01*
X0000742415Y0001564763D01*
X0000740709Y0001562701D01*
X0000736183Y0001554329D01*
X0000733368Y0001545238D01*
X0000732374Y0001535773D01*
X0000733236Y0001526295D01*
X0000735923Y0001517165D01*
X0000740332Y0001508731D01*
X0000742475Y0001506066D01*
X0000741725Y0001506001D01*
X0000741620Y0001505970D01*
X0000741512Y0001505960D01*
X0000739687Y0001505409D01*
X0000737851Y0001504875D01*
X0000737754Y0001504825D01*
X0000737650Y0001504794D01*
X0000735964Y0001503897D01*
X0000734269Y0001503019D01*
X0000734185Y0001502951D01*
X0000734088Y0001502900D01*
X0000732607Y0001501692D01*
X0000731117Y0001500502D01*
X0000730966Y0001500353D01*
X0000730962Y0001500350D01*
X0000730960Y0001500347D01*
X0000730911Y0001500300D01*
X0000717805Y0001487193D01*
X0000712754Y0001486193D01*
X0000707935Y0001484207D01*
X0000703595Y0001481323D01*
X0000699897Y0001477651D01*
X0000696982Y0001473330D01*
X0000694963Y0001468526D01*
X0000693915Y0001463421D01*
X0000693914Y0001463302D01*
X0000676252Y0001445640D01*
X0000676252Y0001456692D01*
X0000676065Y0001459043D01*
X0000674830Y0001463031D01*
X0000672533Y0001466517D01*
X0000669356Y0001469225D01*
X0000665550Y0001470940D01*
X0000661417Y0001471528D01*
X0000598425Y0001471528D01*
X0000596074Y0001471340D01*
X0000592086Y0001470105D01*
X0000588600Y0001467808D01*
X0000585892Y0001464631D01*
X0000584177Y0001460825D01*
X0000583590Y0001456692D01*
X0000583590Y0001377952D01*
X0000583777Y0001375601D01*
X0000585012Y0001371614D01*
X0000587309Y0001368128D01*
X0000590486Y0001365420D01*
X0000594292Y0001363704D01*
X0000598425Y0001363117D01*
X0000661417Y0001363117D01*
X0000663768Y0001363305D01*
X0000667756Y0001364539D01*
X0000671241Y0001366836D01*
X0000673949Y0001370014D01*
X0000675665Y0001373819D01*
X0000676252Y0001377952D01*
X0000676252Y0001396653D01*
X0000677165Y0001396653D01*
X0000679063Y0001396839D01*
X0000680967Y0001397006D01*
X0000681072Y0001397036D01*
X0000681180Y0001397047D01*
X0000683005Y0001397598D01*
X0000684841Y0001398131D01*
X0000684937Y0001398181D01*
X0000685041Y0001398213D01*
X0000686729Y0001399110D01*
X0000688422Y0001399988D01*
X0000688507Y0001400055D01*
X0000688603Y0001400106D01*
X0000690084Y0001401314D01*
X0000691575Y0001402504D01*
X0000691726Y0001402653D01*
X0000691729Y0001402656D01*
X0000691732Y0001402659D01*
X0000691780Y0001402707D01*
X0000723180Y0001434107D01*
X0000727832Y0001434960D01*
X0000732482Y0001436801D01*
X0000732374Y0001435773D01*
X0000733236Y0001426295D01*
X0000735923Y0001417165D01*
X0000740332Y0001408731D01*
X0000746296Y0001401314D01*
X0000753586Y0001395197D01*
X0000761926Y0001390612D01*
X0000770998Y0001387734D01*
X0000780455Y0001386674D01*
X0000781136Y0001386669D01*
X0000793666Y0001386669D01*
X0000803138Y0001387597D01*
X0000812248Y0001390348D01*
X0000820652Y0001394816D01*
X0000828027Y0001400831D01*
X0000834093Y0001408164D01*
X0000838620Y0001416536D01*
X0000841434Y0001425627D01*
X0000842429Y0001435092D01*
X0000841566Y0001444570D01*
X0000838879Y0001453700D01*
X0000834470Y0001462134D01*
X0000832153Y0001465015D01*
X0000857637Y0001465015D01*
X0000859535Y0001465201D01*
X0000861439Y0001465368D01*
X0000861544Y0001465398D01*
X0000861652Y0001465408D01*
X0000863477Y0001465960D01*
X0000865313Y0001466493D01*
X0000865409Y0001466543D01*
X0000865513Y0001466574D01*
X0000867201Y0001467472D01*
X0000868894Y0001468349D01*
X0000868979Y0001468417D01*
X0000869075Y0001468468D01*
X0000870556Y0001469676D01*
X0000872047Y0001470866D01*
X0000872198Y0001471015D01*
X0000872201Y0001471018D01*
X0000872204Y0001471021D01*
X0000872252Y0001471069D01*
X0000890860Y0001489676D01*
X0000896982Y0001487734D01*
X0000906440Y0001486674D01*
X0000907120Y0001486669D01*
X0000919650Y0001486669D01*
X0000929122Y0001487597D01*
X0000938233Y0001490348D01*
X0000946636Y0001494816D01*
X0000954011Y0001500831D01*
X0000960077Y0001508164D01*
X0000964604Y0001516536D01*
X0000966535Y0001522774D01*
X0000966535Y0001442322D01*
X0000963929Y0001442322D01*
X0000965988Y0001449789D01*
X0000963985Y0001455014D01*
X0000959308Y0001463338D01*
X0000953097Y0001470591D01*
X0000945590Y0001476492D01*
X0000937076Y0001480815D01*
X0000927883Y0001483395D01*
X0000920275Y0001480442D01*
X0000920275Y0001442322D01*
X0000921062Y0001442322D01*
X0000921062Y0001428543D01*
X0000920275Y0001428543D01*
X0000920275Y0001390423D01*
X0000927883Y0001387470D01*
X0000937076Y0001390050D01*
X0000945590Y0001394373D01*
X0000953097Y0001400274D01*
X0000959308Y0001407527D01*
X0000963985Y0001415851D01*
X0000965988Y0001421076D01*
X0000963929Y0001428543D01*
X0000966535Y0001428543D01*
X0000966535Y0001376171D01*
X0000964501Y0001379257D01*
X0000961324Y0001381965D01*
X0000957518Y0001383680D01*
X0000953385Y0001384268D01*
X0000898888Y0001384268D01*
X0000898888Y0001387470D01*
X0000906496Y0001390423D01*
X0000906496Y0001428543D01*
X0000862842Y0001428543D01*
X0000862842Y0001442322D01*
X0000906496Y0001442322D01*
X0000906496Y0001480442D01*
X0000898888Y0001483395D01*
X0000889694Y0001480815D01*
X0000881181Y0001476492D01*
X0000873674Y0001470591D01*
X0000867462Y0001463338D01*
X0000862785Y0001455014D01*
X0000860783Y0001449789D01*
X0000862842Y0001442322D01*
X0000862842Y0001428543D01*
X0000860783Y0001421076D01*
X0000862785Y0001415851D01*
X0000867462Y0001407527D01*
X0000873674Y0001400274D01*
X0000881181Y0001394373D01*
X0000889694Y0001390050D01*
X0000898888Y0001387470D01*
X0000898888Y0001384268D01*
X0000873385Y0001384268D01*
X0000871034Y0001384080D01*
X0000867047Y0001382845D01*
X0000863561Y0001380548D01*
X0000860853Y0001377371D01*
X0000859137Y0001373566D01*
X0000858550Y0001369433D01*
X0000858550Y0001301433D01*
X0000858738Y0001299081D01*
X0000859973Y0001295094D01*
X0000862269Y0001291608D01*
X0000865447Y0001288900D01*
X0000869252Y0001287185D01*
X0000873385Y0001286597D01*
X0000873594Y0001286597D01*
X0000797982Y0001210985D01*
X0000797982Y0001286669D01*
X0000828855Y0001286669D01*
X0000831707Y0001287236D01*
X0000834394Y0001288349D01*
X0000836812Y0001289965D01*
X0000838869Y0001292021D01*
X0000840485Y0001294439D01*
X0000841597Y0001297126D01*
X0000842165Y0001299978D01*
X0000842165Y0001324852D01*
X0000838474Y0001328543D01*
X0000794291Y0001328543D01*
X0000794291Y0001342322D01*
X0000838474Y0001342322D01*
X0000842165Y0001346013D01*
X0000842165Y0001370887D01*
X0000841597Y0001373739D01*
X0000840485Y0001376426D01*
X0000838869Y0001378844D01*
X0000836812Y0001380900D01*
X0000834394Y0001382516D01*
X0000831707Y0001383629D01*
X0000828855Y0001384196D01*
X0000797982Y0001384196D01*
X0000794291Y0001380505D01*
X0000794291Y0001342322D01*
X0000794291Y0001328543D01*
X0000794291Y0001290360D01*
X0000797982Y0001286669D01*
X0000797982Y0001210985D01*
X0000792705Y0001205708D01*
X0000745947Y0001205708D01*
X0000745947Y0001286669D01*
X0000776820Y0001286669D01*
X0000780511Y0001290360D01*
X0000780511Y0001328543D01*
X0000736328Y0001328543D01*
X0000736328Y0001342322D01*
X0000780511Y0001342322D01*
X0000780511Y0001380505D01*
X0000776820Y0001384196D01*
X0000745947Y0001384196D01*
X0000743095Y0001383629D01*
X0000740408Y0001382516D01*
X0000737990Y0001380900D01*
X0000735933Y0001378844D01*
X0000734318Y0001376426D01*
X0000733205Y0001373739D01*
X0000732637Y0001370887D01*
X0000732637Y0001346013D01*
X0000736328Y0001342322D01*
X0000736328Y0001328543D01*
X0000732637Y0001324852D01*
X0000732637Y0001299978D01*
X0000733205Y0001297126D01*
X0000734318Y0001294439D01*
X0000735933Y0001292021D01*
X0000737990Y0001289965D01*
X0000740408Y0001288349D01*
X0000743095Y0001287236D01*
X0000745947Y0001286669D01*
X0000745947Y0001205708D01*
X0000662312Y0001205708D01*
X0000663768Y0001205824D01*
X0000667756Y0001207059D01*
X0000671241Y0001209356D01*
X0000673949Y0001212533D01*
X0000675665Y0001216339D01*
X0000676252Y0001220472D01*
X0000676252Y0001299212D01*
X0000676065Y0001301563D01*
X0000674830Y0001305551D01*
X0000672533Y0001309037D01*
X0000669356Y0001311744D01*
X0000665550Y0001313460D01*
X0000661417Y0001314047D01*
X0000598425Y0001314047D01*
X0000596074Y0001313860D01*
X0000592086Y0001312625D01*
X0000588600Y0001310328D01*
X0000585892Y0001307151D01*
X0000584177Y0001303345D01*
X0000583590Y0001299212D01*
X0000583590Y0001220472D01*
X0000583777Y0001218121D01*
X0000585012Y0001214133D01*
X0000587309Y0001210647D01*
X0000590486Y0001207940D01*
X0000594292Y0001206224D01*
X0000597922Y0001205708D01*
X0000553599Y0001205708D01*
X0000554806Y0001207444D01*
X0000556892Y0001212220D01*
X0000558011Y0001217310D01*
X0000558120Y0001222521D01*
X0000557215Y0001227653D01*
X0000555331Y0001232512D01*
X0000552538Y0001236912D01*
X0000552165Y0001237304D01*
X0000552165Y0001605611D01*
X0000586357Y0001639803D01*
G36*
X0000056721Y0001237276D02*
X0000055511Y0001237276D01*
X0000053160Y0001237088D01*
X0000049173Y0001235853D01*
X0000045687Y0001233556D01*
X0000042979Y0001230379D01*
X0000041263Y0001226573D01*
X0000040676Y0001222440D01*
X0000040676Y0001155511D01*
X0000040864Y0001153160D01*
X0000042099Y0001149173D01*
X0000044395Y0001145687D01*
X0000047573Y0001142979D01*
X0000051378Y0001141263D01*
X0000055511Y0001140676D01*
X0000122440Y0001140676D01*
X0000124792Y0001140864D01*
X0000128779Y0001142098D01*
X0000132265Y0001144395D01*
X0000134973Y0001147573D01*
X0000136688Y0001151378D01*
X0000137276Y0001155511D01*
X0000137276Y0001222440D01*
X0000137088Y0001224791D01*
X0000135853Y0001228779D01*
X0000133556Y0001232265D01*
X0000130379Y0001234973D01*
X0000126573Y0001236688D01*
X0000122440Y0001237276D01*
X0000109361Y0001237276D01*
X0000109292Y0001238054D01*
X0000109262Y0001238158D01*
X0000109252Y0001238266D01*
X0000108700Y0001240092D01*
X0000108167Y0001241927D01*
X0000108117Y0001242024D01*
X0000108086Y0001242128D01*
X0000107188Y0001243816D01*
X0000106311Y0001245509D01*
X0000106243Y0001245594D01*
X0000106192Y0001245690D01*
X0000104984Y0001247171D01*
X0000103794Y0001248661D01*
X0000103645Y0001248813D01*
X0000103642Y0001248816D01*
X0000103639Y0001248818D01*
X0000103591Y0001248867D01*
X0000048228Y0001304230D01*
X0000048228Y0001383038D01*
X0000050037Y0001373554D01*
X0000053725Y0001364426D01*
X0000059115Y0001356189D01*
X0000066003Y0001349156D01*
X0000074125Y0001343594D01*
X0000083173Y0001339716D01*
X0000092802Y0001337669D01*
X0000102645Y0001337532D01*
X0000112328Y0001339309D01*
X0000121481Y0001342933D01*
X0000129755Y0001348265D01*
X0000136836Y0001355104D01*
X0000142455Y0001363187D01*
X0000146396Y0001372208D01*
X0000148510Y0001381823D01*
X0000148716Y0001391664D01*
X0000147006Y0001401359D01*
X0000143446Y0001410537D01*
X0000138172Y0001418849D01*
X0000131383Y0001425977D01*
X0000123339Y0001431652D01*
X0000114346Y0001435656D01*
X0000104746Y0001437837D01*
X0000093503Y0001437994D01*
X0000083846Y0001436082D01*
X0000074745Y0001432330D01*
X0000066545Y0001426883D01*
X0000059560Y0001419946D01*
X0000054055Y0001411785D01*
X0000050241Y0001402710D01*
X0000048261Y0001393067D01*
X0000048228Y0001388278D01*
X0000048228Y0001530676D01*
X0000050037Y0001521191D01*
X0000053725Y0001512064D01*
X0000059115Y0001503827D01*
X0000066003Y0001496793D01*
X0000074125Y0001491232D01*
X0000083173Y0001487354D01*
X0000092802Y0001485307D01*
X0000102645Y0001485170D01*
X0000112328Y0001486947D01*
X0000116162Y0001488465D01*
X0000168307Y0001436320D01*
X0000168307Y0001232565D01*
X0000162568Y0001229565D01*
X0000155232Y0001223667D01*
X0000149182Y0001216457D01*
X0000144647Y0001208208D01*
X0000141801Y0001199236D01*
X0000140752Y0001189883D01*
X0000140748Y0001189209D01*
X0000140748Y0001188743D01*
X0000141666Y0001179375D01*
X0000144387Y0001170364D01*
X0000148805Y0001162053D01*
X0000154754Y0001154759D01*
X0000162007Y0001148759D01*
X0000170287Y0001144283D01*
X0000179278Y0001141499D01*
X0000188639Y0001140515D01*
X0000198013Y0001141368D01*
X0000207043Y0001144026D01*
X0000215384Y0001148387D01*
X0000222720Y0001154285D01*
X0000228770Y0001161495D01*
X0000233304Y0001169743D01*
X0000236150Y0001178715D01*
X0000237200Y0001188069D01*
X0000237204Y0001188743D01*
X0000237204Y0001189209D01*
X0000236286Y0001198577D01*
X0000233565Y0001207588D01*
X0000229146Y0001215898D01*
X0000223197Y0001223193D01*
X0000215945Y0001229192D01*
X0000209645Y0001232599D01*
X0000209645Y0001444881D01*
X0000209459Y0001446779D01*
X0000209292Y0001448684D01*
X0000209262Y0001448788D01*
X0000209252Y0001448896D01*
X0000208700Y0001450722D01*
X0000208167Y0001452557D01*
X0000208117Y0001452654D01*
X0000208086Y0001452758D01*
X0000207188Y0001454446D01*
X0000206311Y0001456139D01*
X0000206243Y0001456223D01*
X0000206192Y0001456320D01*
X0000204984Y0001457801D01*
X0000203794Y0001459291D01*
X0000203645Y0001459442D01*
X0000203642Y0001459446D01*
X0000203639Y0001459448D01*
X0000203591Y0001459497D01*
X0000145437Y0001517651D01*
X0000146396Y0001519846D01*
X0000148510Y0001529460D01*
X0000148716Y0001539302D01*
X0000147006Y0001548997D01*
X0000143446Y0001558175D01*
X0000138172Y0001566486D01*
X0000131383Y0001573615D01*
X0000123339Y0001579290D01*
X0000114346Y0001583294D01*
X0000104746Y0001585475D01*
X0000093503Y0001585632D01*
X0000083846Y0001583719D01*
X0000074745Y0001579968D01*
X0000066545Y0001574521D01*
X0000059560Y0001567584D01*
X0000054055Y0001559423D01*
X0000050241Y0001550348D01*
X0000048261Y0001540705D01*
X0000048228Y0001535916D01*
X0000048228Y0001603643D01*
X0000080656Y0001636071D01*
X0000083173Y0001634992D01*
X0000092802Y0001632945D01*
X0000102645Y0001632807D01*
X0000112328Y0001634585D01*
X0000121481Y0001638208D01*
X0000129755Y0001643541D01*
X0000136836Y0001650379D01*
X0000142455Y0001658463D01*
X0000146396Y0001667484D01*
X0000148510Y0001677098D01*
X0000148716Y0001686940D01*
X0000147006Y0001696635D01*
X0000143446Y0001705812D01*
X0000138172Y0001714124D01*
X0000131383Y0001721253D01*
X0000123339Y0001726927D01*
X0000114346Y0001730931D01*
X0000104746Y0001733112D01*
X0000093503Y0001733269D01*
X0000083846Y0001731357D01*
X0000074745Y0001727606D01*
X0000066545Y0001722158D01*
X0000059560Y0001715222D01*
X0000054055Y0001707061D01*
X0000050241Y0001697986D01*
X0000048261Y0001688343D01*
X0000048193Y0001678499D01*
X0000050037Y0001668829D01*
X0000051452Y0001665328D01*
X0000017716Y0001631592D01*
X0000017716Y0001950787D01*
X0000966535Y0001950787D01*
X0000966535Y0001748020D01*
X0000964863Y0001753700D01*
X0000960454Y0001762134D01*
X0000954491Y0001769551D01*
X0000947200Y0001775668D01*
X0000938860Y0001780253D01*
X0000929789Y0001783131D01*
X0000920331Y0001784192D01*
X0000919650Y0001784196D01*
X0000907120Y0001784196D01*
X0000897649Y0001783268D01*
X0000888538Y0001780517D01*
X0000880135Y0001776049D01*
X0000872760Y0001770034D01*
X0000866693Y0001762701D01*
X0000862167Y0001754329D01*
X0000859353Y0001745238D01*
X0000858358Y0001735773D01*
X0000859220Y0001726295D01*
X0000861907Y0001717165D01*
X0000866317Y0001708731D01*
X0000872280Y0001701314D01*
X0000879570Y0001695197D01*
X0000887910Y0001690612D01*
X0000896982Y0001687734D01*
X0000906440Y0001686674D01*
X0000907120Y0001686669D01*
X0000919650Y0001686669D01*
X0000929122Y0001687597D01*
X0000938233Y0001690348D01*
X0000946636Y0001694816D01*
X0000954011Y0001700831D01*
X0000960077Y0001708164D01*
X0000964604Y0001716536D01*
X0000966535Y0001722774D01*
X0000966535Y0001648020D01*
X0000964863Y0001653700D01*
X0000960454Y0001662134D01*
X0000954491Y0001669551D01*
X0000947200Y0001675668D01*
X0000938860Y0001680253D01*
X0000929789Y0001683131D01*
X0000920331Y0001684192D01*
X0000919650Y0001684196D01*
X0000907120Y0001684196D01*
X0000897649Y0001683268D01*
X0000888538Y0001680517D01*
X0000880135Y0001676049D01*
X0000872760Y0001670034D01*
X0000866693Y0001662701D01*
X0000862167Y0001654329D01*
X0000859353Y0001645238D01*
X0000858358Y0001635773D01*
X0000859220Y0001626295D01*
X0000861907Y0001617165D01*
X0000863139Y0001614810D01*
X0000854430Y0001606102D01*
X0000832387Y0001606102D01*
X0000834093Y0001608164D01*
X0000838620Y0001616536D01*
X0000841434Y0001625627D01*
X0000842429Y0001635092D01*
X0000841566Y0001644570D01*
X0000838879Y0001653700D01*
X0000834470Y0001662134D01*
X0000828506Y0001669551D01*
X0000821216Y0001675668D01*
X0000812876Y0001680253D01*
X0000803805Y0001683131D01*
X0000794347Y0001684192D01*
X0000793666Y0001684196D01*
X0000781136Y0001684196D01*
X0000781136Y0001686669D01*
X0000793666Y0001686669D01*
X0000803138Y0001687597D01*
X0000812248Y0001690348D01*
X0000820652Y0001694816D01*
X0000828027Y0001700831D01*
X0000834093Y0001708164D01*
X0000838620Y0001716536D01*
X0000841434Y0001725627D01*
X0000842429Y0001735092D01*
X0000841566Y0001744570D01*
X0000838879Y0001753700D01*
X0000834470Y0001762134D01*
X0000828506Y0001769551D01*
X0000821216Y0001775668D01*
X0000812876Y0001780253D01*
X0000803805Y0001783131D01*
X0000794347Y0001784192D01*
X0000793666Y0001784196D01*
X0000781136Y0001784196D01*
X0000771664Y0001783268D01*
X0000762554Y0001780517D01*
X0000754151Y0001776049D01*
X0000746775Y0001770034D01*
X0000740709Y0001762701D01*
X0000736183Y0001754329D01*
X0000733368Y0001745238D01*
X0000732374Y0001735773D01*
X0000733236Y0001726295D01*
X0000735923Y0001717165D01*
X0000740332Y0001708731D01*
X0000746296Y0001701314D01*
X0000753586Y0001695197D01*
X0000761926Y0001690612D01*
X0000770998Y0001687734D01*
X0000780455Y0001686674D01*
X0000781136Y0001686669D01*
X0000781136Y0001684196D01*
X0000771664Y0001683268D01*
X0000764853Y0001681211D01*
X0000732631Y0001713434D01*
X0000731156Y0001714645D01*
X0000729693Y0001715873D01*
X0000729597Y0001715925D01*
X0000729513Y0001715994D01*
X0000727831Y0001716896D01*
X0000726158Y0001717816D01*
X0000726054Y0001717849D01*
X0000725958Y0001717900D01*
X0000724130Y0001718460D01*
X0000722313Y0001719036D01*
X0000722205Y0001719048D01*
X0000722101Y0001719080D01*
X0000720199Y0001719273D01*
X0000718304Y0001719486D01*
X0000718091Y0001719487D01*
X0000718087Y0001719488D01*
X0000718084Y0001719487D01*
X0000718015Y0001719488D01*
X0000705779Y0001719488D01*
X0000702166Y0001722037D01*
X0000697405Y0001724157D01*
X0000692323Y0001725311D01*
X0000686370Y0001725394D01*
X0000681258Y0001724382D01*
X0000676439Y0001722396D01*
X0000672099Y0001719512D01*
X0000668401Y0001715840D01*
X0000665486Y0001711519D01*
X0000663467Y0001706715D01*
X0000663096Y0001704908D01*
X0000662466Y0001705445D01*
X0000658660Y0001707161D01*
X0000654527Y0001707748D01*
X0000605314Y0001707748D01*
X0000602963Y0001707561D01*
X0000598976Y0001706326D01*
X0000595490Y0001704029D01*
X0000592782Y0001700852D01*
X0000591067Y0001697046D01*
X0000590479Y0001692913D01*
X0000590479Y0001681142D01*
X0000577796Y0001681142D01*
X0000575896Y0001680956D01*
X0000573993Y0001680789D01*
X0000573889Y0001680759D01*
X0000573781Y0001680748D01*
X0000571953Y0001680197D01*
X0000570120Y0001679664D01*
X0000570023Y0001679614D01*
X0000569919Y0001679582D01*
X0000568231Y0001678685D01*
X0000566538Y0001677807D01*
X0000566453Y0001677740D01*
X0000566357Y0001677689D01*
X0000564876Y0001676481D01*
X0000563386Y0001675291D01*
X0000563235Y0001675142D01*
X0000563231Y0001675139D01*
X0000563229Y0001675136D01*
X0000563180Y0001675088D01*
X0000516880Y0001628788D01*
X0000515670Y0001627314D01*
X0000514441Y0001625850D01*
X0000514389Y0001625755D01*
X0000514320Y0001625671D01*
X0000513418Y0001623990D01*
X0000512498Y0001622315D01*
X0000512465Y0001622212D01*
X0000512413Y0001622116D01*
X0000511854Y0001620287D01*
X0000511278Y0001618470D01*
X0000511266Y0001618362D01*
X0000511234Y0001618258D01*
X0000511041Y0001616357D01*
X0000510828Y0001614461D01*
X0000510827Y0001614249D01*
X0000510826Y0001614245D01*
X0000510827Y0001614241D01*
X0000510826Y0001614173D01*
X0000510826Y0001237354D01*
X0000508006Y0001233173D01*
X0000505986Y0001228368D01*
X0000504938Y0001223263D01*
X0000504902Y0001218052D01*
X0000505879Y0001212932D01*
X0000507831Y0001208100D01*
X0000509396Y0001205708D01*
X0000503971Y0001205708D01*
X0000493110Y0001216570D01*
X0000493110Y0001615923D01*
X0000493900Y0001617732D01*
X0000495019Y0001622822D01*
X0000495128Y0001628032D01*
X0000494223Y0001633165D01*
X0000492339Y0001638024D01*
X0000489546Y0001642424D01*
X0000485952Y0001646198D01*
X0000481693Y0001649202D01*
X0000476932Y0001651322D01*
X0000471850Y0001652477D01*
X0000465898Y0001652560D01*
X0000460785Y0001651547D01*
X0000455967Y0001649561D01*
X0000451626Y0001646677D01*
X0000447928Y0001643005D01*
X0000445014Y0001638685D01*
X0000442994Y0001633880D01*
X0000441946Y0001628775D01*
X0000441910Y0001623564D01*
X0000442887Y0001618444D01*
X0000443897Y0001615943D01*
X0000443897Y0001525951D01*
X0000443042Y0001530803D01*
X0000441157Y0001535662D01*
X0000438365Y0001540062D01*
X0000434770Y0001543836D01*
X0000430512Y0001546840D01*
X0000425751Y0001548960D01*
X0000420669Y0001550114D01*
X0000414716Y0001550197D01*
X0000409604Y0001549185D01*
X0000404785Y0001547199D01*
X0000400445Y0001544315D01*
X0000396747Y0001540643D01*
X0000393832Y0001536322D01*
X0000391813Y0001531518D01*
X0000390765Y0001526413D01*
X0000390764Y0001526294D01*
X0000347589Y0001483119D01*
X0000346379Y0001481646D01*
X0000345150Y0001480182D01*
X0000345097Y0001480086D01*
X0000345029Y0001480002D01*
X0000344127Y0001478321D01*
X0000343207Y0001476647D01*
X0000343174Y0001476543D01*
X0000343122Y0001476447D01*
X0000342563Y0001474619D01*
X0000341987Y0001472801D01*
X0000341975Y0001472694D01*
X0000341943Y0001472589D01*
X0000341750Y0001470688D01*
X0000341537Y0001468793D01*
X0000341536Y0001468580D01*
X0000341535Y0001468576D01*
X0000341536Y0001468572D01*
X0000341535Y0001468504D01*
X0000341535Y0001407344D01*
X0000340297Y0001410537D01*
X0000335022Y0001418849D01*
X0000328233Y0001425977D01*
X0000320189Y0001431652D01*
X0000311196Y0001435656D01*
X0000301597Y0001437837D01*
X0000299496Y0001437866D01*
X0000299496Y0001485170D01*
X0000309178Y0001486947D01*
X0000318331Y0001490571D01*
X0000326606Y0001495903D01*
X0000333687Y0001502742D01*
X0000339305Y0001510825D01*
X0000343246Y0001519846D01*
X0000345360Y0001529460D01*
X0000345566Y0001539302D01*
X0000343857Y0001548997D01*
X0000342240Y0001553166D01*
X0000486959Y0001697886D01*
X0000491612Y0001698740D01*
X0000496458Y0001700658D01*
X0000500838Y0001703481D01*
X0000504587Y0001707102D01*
X0000507561Y0001711381D01*
X0000509648Y0001716157D01*
X0000510767Y0001721247D01*
X0000510876Y0001726457D01*
X0000509971Y0001731590D01*
X0000508087Y0001736449D01*
X0000505294Y0001740849D01*
X0000501700Y0001744623D01*
X0000497441Y0001747627D01*
X0000492680Y0001749747D01*
X0000487598Y0001750902D01*
X0000481646Y0001750985D01*
X0000476533Y0001749972D01*
X0000471715Y0001747986D01*
X0000467374Y0001745102D01*
X0000463676Y0001741430D01*
X0000460762Y0001737109D01*
X0000458742Y0001732305D01*
X0000457694Y0001727200D01*
X0000457694Y0001727082D01*
X0000313071Y0001582459D01*
X0000311196Y0001583294D01*
X0000301597Y0001585475D01*
X0000299496Y0001585504D01*
X0000299496Y0001632807D01*
X0000309178Y0001634585D01*
X0000318331Y0001638208D01*
X0000326606Y0001643541D01*
X0000333687Y0001650379D01*
X0000339305Y0001658463D01*
X0000343246Y0001667484D01*
X0000345360Y0001677098D01*
X0000345566Y0001686940D01*
X0000343857Y0001696635D01*
X0000340297Y0001705812D01*
X0000335022Y0001714124D01*
X0000328233Y0001721253D01*
X0000320189Y0001726927D01*
X0000311196Y0001730931D01*
X0000301597Y0001733112D01*
X0000290353Y0001733269D01*
X0000280696Y0001731357D01*
X0000271595Y0001727606D01*
X0000263396Y0001722158D01*
X0000256411Y0001715222D01*
X0000250906Y0001707061D01*
X0000247091Y0001697986D01*
X0000245112Y0001688343D01*
X0000245043Y0001678499D01*
X0000246888Y0001668829D01*
X0000250575Y0001659702D01*
X0000255965Y0001651465D01*
X0000262853Y0001644431D01*
X0000270976Y0001638870D01*
X0000280024Y0001634992D01*
X0000289653Y0001632945D01*
X0000299496Y0001632807D01*
X0000299496Y0001585504D01*
X0000290353Y0001585632D01*
X0000280696Y0001583719D01*
X0000271595Y0001579968D01*
X0000263396Y0001574521D01*
X0000256411Y0001567584D01*
X0000250906Y0001559423D01*
X0000247091Y0001550348D01*
X0000245112Y0001540705D01*
X0000245043Y0001530861D01*
X0000246888Y0001521191D01*
X0000250575Y0001512064D01*
X0000255965Y0001503827D01*
X0000262853Y0001496793D01*
X0000270976Y0001491232D01*
X0000280024Y0001487354D01*
X0000289653Y0001485307D01*
X0000299496Y0001485170D01*
X0000299496Y0001437866D01*
X0000290353Y0001437994D01*
X0000280696Y0001436082D01*
X0000271595Y0001432330D01*
X0000263396Y0001426883D01*
X0000256411Y0001419946D01*
X0000250906Y0001411785D01*
X0000247091Y0001402710D01*
X0000245112Y0001393067D01*
X0000245043Y0001383223D01*
X0000246888Y0001373554D01*
X0000250575Y0001364426D01*
X0000255965Y0001356189D01*
X0000262853Y0001349156D01*
X0000270976Y0001343594D01*
X0000280024Y0001339716D01*
X0000289653Y0001337669D01*
X0000299496Y0001337532D01*
X0000309178Y0001339309D01*
X0000318331Y0001342933D01*
X0000326606Y0001348265D01*
X0000333687Y0001355104D01*
X0000339305Y0001363187D01*
X0000341535Y0001368292D01*
X0000341535Y0001196850D01*
X0000341721Y0001194952D01*
X0000341888Y0001193047D01*
X0000341918Y0001192943D01*
X0000341929Y0001192835D01*
X0000342480Y0001191010D01*
X0000343013Y0001189174D01*
X0000343063Y0001189077D01*
X0000343095Y0001188973D01*
X0000343992Y0001187286D01*
X0000344870Y0001185592D01*
X0000344937Y0001185508D01*
X0000344989Y0001185411D01*
X0000346197Y0001183930D01*
X0000347386Y0001182440D01*
X0000347536Y0001182289D01*
X0000347538Y0001182285D01*
X0000347541Y0001182283D01*
X0000347589Y0001182234D01*
X0000409745Y0001120078D01*
X0000017716Y0001120078D01*
X0000017716Y0001276281D01*
X0000056721Y0001237276D01*
X0000056721Y0001237276D01*
G37*
X0000056721Y0001237276D02*
X0000055511Y0001237276D01*
X0000053160Y0001237088D01*
X0000049173Y0001235853D01*
X0000045687Y0001233556D01*
X0000042979Y0001230379D01*
X0000041263Y0001226573D01*
X0000040676Y0001222440D01*
X0000040676Y0001155511D01*
X0000040864Y0001153160D01*
X0000042099Y0001149173D01*
X0000044395Y0001145687D01*
X0000047573Y0001142979D01*
X0000051378Y0001141263D01*
X0000055511Y0001140676D01*
X0000122440Y0001140676D01*
X0000124792Y0001140864D01*
X0000128779Y0001142098D01*
X0000132265Y0001144395D01*
X0000134973Y0001147573D01*
X0000136688Y0001151378D01*
X0000137276Y0001155511D01*
X0000137276Y0001222440D01*
X0000137088Y0001224791D01*
X0000135853Y0001228779D01*
X0000133556Y0001232265D01*
X0000130379Y0001234973D01*
X0000126573Y0001236688D01*
X0000122440Y0001237276D01*
X0000109361Y0001237276D01*
X0000109292Y0001238054D01*
X0000109262Y0001238158D01*
X0000109252Y0001238266D01*
X0000108700Y0001240092D01*
X0000108167Y0001241927D01*
X0000108117Y0001242024D01*
X0000108086Y0001242128D01*
X0000107188Y0001243816D01*
X0000106311Y0001245509D01*
X0000106243Y0001245594D01*
X0000106192Y0001245690D01*
X0000104984Y0001247171D01*
X0000103794Y0001248661D01*
X0000103645Y0001248813D01*
X0000103642Y0001248816D01*
X0000103639Y0001248818D01*
X0000103591Y0001248867D01*
X0000048228Y0001304230D01*
X0000048228Y0001383038D01*
X0000050037Y0001373554D01*
X0000053725Y0001364426D01*
X0000059115Y0001356189D01*
X0000066003Y0001349156D01*
X0000074125Y0001343594D01*
X0000083173Y0001339716D01*
X0000092802Y0001337669D01*
X0000102645Y0001337532D01*
X0000112328Y0001339309D01*
X0000121481Y0001342933D01*
X0000129755Y0001348265D01*
X0000136836Y0001355104D01*
X0000142455Y0001363187D01*
X0000146396Y0001372208D01*
X0000148510Y0001381823D01*
X0000148716Y0001391664D01*
X0000147006Y0001401359D01*
X0000143446Y0001410537D01*
X0000138172Y0001418849D01*
X0000131383Y0001425977D01*
X0000123339Y0001431652D01*
X0000114346Y0001435656D01*
X0000104746Y0001437837D01*
X0000093503Y0001437994D01*
X0000083846Y0001436082D01*
X0000074745Y0001432330D01*
X0000066545Y0001426883D01*
X0000059560Y0001419946D01*
X0000054055Y0001411785D01*
X0000050241Y0001402710D01*
X0000048261Y0001393067D01*
X0000048228Y0001388278D01*
X0000048228Y0001530676D01*
X0000050037Y0001521191D01*
X0000053725Y0001512064D01*
X0000059115Y0001503827D01*
X0000066003Y0001496793D01*
X0000074125Y0001491232D01*
X0000083173Y0001487354D01*
X0000092802Y0001485307D01*
X0000102645Y0001485170D01*
X0000112328Y0001486947D01*
X0000116162Y0001488465D01*
X0000168307Y0001436320D01*
X0000168307Y0001232565D01*
X0000162568Y0001229565D01*
X0000155232Y0001223667D01*
X0000149182Y0001216457D01*
X0000144647Y0001208208D01*
X0000141801Y0001199236D01*
X0000140752Y0001189883D01*
X0000140748Y0001189209D01*
X0000140748Y0001188743D01*
X0000141666Y0001179375D01*
X0000144387Y0001170364D01*
X0000148805Y0001162053D01*
X0000154754Y0001154759D01*
X0000162007Y0001148759D01*
X0000170287Y0001144283D01*
X0000179278Y0001141499D01*
X0000188639Y0001140515D01*
X0000198013Y0001141368D01*
X0000207043Y0001144026D01*
X0000215384Y0001148387D01*
X0000222720Y0001154285D01*
X0000228770Y0001161495D01*
X0000233304Y0001169743D01*
X0000236150Y0001178715D01*
X0000237200Y0001188069D01*
X0000237204Y0001188743D01*
X0000237204Y0001189209D01*
X0000236286Y0001198577D01*
X0000233565Y0001207588D01*
X0000229146Y0001215898D01*
X0000223197Y0001223193D01*
X0000215945Y0001229192D01*
X0000209645Y0001232599D01*
X0000209645Y0001444881D01*
X0000209459Y0001446779D01*
X0000209292Y0001448684D01*
X0000209262Y0001448788D01*
X0000209252Y0001448896D01*
X0000208700Y0001450722D01*
X0000208167Y0001452557D01*
X0000208117Y0001452654D01*
X0000208086Y0001452758D01*
X0000207188Y0001454446D01*
X0000206311Y0001456139D01*
X0000206243Y0001456223D01*
X0000206192Y0001456320D01*
X0000204984Y0001457801D01*
X0000203794Y0001459291D01*
X0000203645Y0001459442D01*
X0000203642Y0001459446D01*
X0000203639Y0001459448D01*
X0000203591Y0001459497D01*
X0000145437Y0001517651D01*
X0000146396Y0001519846D01*
X0000148510Y0001529460D01*
X0000148716Y0001539302D01*
X0000147006Y0001548997D01*
X0000143446Y0001558175D01*
X0000138172Y0001566486D01*
X0000131383Y0001573615D01*
X0000123339Y0001579290D01*
X0000114346Y0001583294D01*
X0000104746Y0001585475D01*
X0000093503Y0001585632D01*
X0000083846Y0001583719D01*
X0000074745Y0001579968D01*
X0000066545Y0001574521D01*
X0000059560Y0001567584D01*
X0000054055Y0001559423D01*
X0000050241Y0001550348D01*
X0000048261Y0001540705D01*
X0000048228Y0001535916D01*
X0000048228Y0001603643D01*
X0000080656Y0001636071D01*
X0000083173Y0001634992D01*
X0000092802Y0001632945D01*
X0000102645Y0001632807D01*
X0000112328Y0001634585D01*
X0000121481Y0001638208D01*
X0000129755Y0001643541D01*
X0000136836Y0001650379D01*
X0000142455Y0001658463D01*
X0000146396Y0001667484D01*
X0000148510Y0001677098D01*
X0000148716Y0001686940D01*
X0000147006Y0001696635D01*
X0000143446Y0001705812D01*
X0000138172Y0001714124D01*
X0000131383Y0001721253D01*
X0000123339Y0001726927D01*
X0000114346Y0001730931D01*
X0000104746Y0001733112D01*
X0000093503Y0001733269D01*
X0000083846Y0001731357D01*
X0000074745Y0001727606D01*
X0000066545Y0001722158D01*
X0000059560Y0001715222D01*
X0000054055Y0001707061D01*
X0000050241Y0001697986D01*
X0000048261Y0001688343D01*
X0000048193Y0001678499D01*
X0000050037Y0001668829D01*
X0000051452Y0001665328D01*
X0000017716Y0001631592D01*
X0000017716Y0001950787D01*
X0000966535Y0001950787D01*
X0000966535Y0001748020D01*
X0000964863Y0001753700D01*
X0000960454Y0001762134D01*
X0000954491Y0001769551D01*
X0000947200Y0001775668D01*
X0000938860Y0001780253D01*
X0000929789Y0001783131D01*
X0000920331Y0001784192D01*
X0000919650Y0001784196D01*
X0000907120Y0001784196D01*
X0000897649Y0001783268D01*
X0000888538Y0001780517D01*
X0000880135Y0001776049D01*
X0000872760Y0001770034D01*
X0000866693Y0001762701D01*
X0000862167Y0001754329D01*
X0000859353Y0001745238D01*
X0000858358Y0001735773D01*
X0000859220Y0001726295D01*
X0000861907Y0001717165D01*
X0000866317Y0001708731D01*
X0000872280Y0001701314D01*
X0000879570Y0001695197D01*
X0000887910Y0001690612D01*
X0000896982Y0001687734D01*
X0000906440Y0001686674D01*
X0000907120Y0001686669D01*
X0000919650Y0001686669D01*
X0000929122Y0001687597D01*
X0000938233Y0001690348D01*
X0000946636Y0001694816D01*
X0000954011Y0001700831D01*
X0000960077Y0001708164D01*
X0000964604Y0001716536D01*
X0000966535Y0001722774D01*
X0000966535Y0001648020D01*
X0000964863Y0001653700D01*
X0000960454Y0001662134D01*
X0000954491Y0001669551D01*
X0000947200Y0001675668D01*
X0000938860Y0001680253D01*
X0000929789Y0001683131D01*
X0000920331Y0001684192D01*
X0000919650Y0001684196D01*
X0000907120Y0001684196D01*
X0000897649Y0001683268D01*
X0000888538Y0001680517D01*
X0000880135Y0001676049D01*
X0000872760Y0001670034D01*
X0000866693Y0001662701D01*
X0000862167Y0001654329D01*
X0000859353Y0001645238D01*
X0000858358Y0001635773D01*
X0000859220Y0001626295D01*
X0000861907Y0001617165D01*
X0000863139Y0001614810D01*
X0000854430Y0001606102D01*
X0000832387Y0001606102D01*
X0000834093Y0001608164D01*
X0000838620Y0001616536D01*
X0000841434Y0001625627D01*
X0000842429Y0001635092D01*
X0000841566Y0001644570D01*
X0000838879Y0001653700D01*
X0000834470Y0001662134D01*
X0000828506Y0001669551D01*
X0000821216Y0001675668D01*
X0000812876Y0001680253D01*
X0000803805Y0001683131D01*
X0000794347Y0001684192D01*
X0000793666Y0001684196D01*
X0000781136Y0001684196D01*
X0000781136Y0001686669D01*
X0000793666Y0001686669D01*
X0000803138Y0001687597D01*
X0000812248Y0001690348D01*
X0000820652Y0001694816D01*
X0000828027Y0001700831D01*
X0000834093Y0001708164D01*
X0000838620Y0001716536D01*
X0000841434Y0001725627D01*
X0000842429Y0001735092D01*
X0000841566Y0001744570D01*
X0000838879Y0001753700D01*
X0000834470Y0001762134D01*
X0000828506Y0001769551D01*
X0000821216Y0001775668D01*
X0000812876Y0001780253D01*
X0000803805Y0001783131D01*
X0000794347Y0001784192D01*
X0000793666Y0001784196D01*
X0000781136Y0001784196D01*
X0000771664Y0001783268D01*
X0000762554Y0001780517D01*
X0000754151Y0001776049D01*
X0000746775Y0001770034D01*
X0000740709Y0001762701D01*
X0000736183Y0001754329D01*
X0000733368Y0001745238D01*
X0000732374Y0001735773D01*
X0000733236Y0001726295D01*
X0000735923Y0001717165D01*
X0000740332Y0001708731D01*
X0000746296Y0001701314D01*
X0000753586Y0001695197D01*
X0000761926Y0001690612D01*
X0000770998Y0001687734D01*
X0000780455Y0001686674D01*
X0000781136Y0001686669D01*
X0000781136Y0001684196D01*
X0000771664Y0001683268D01*
X0000764853Y0001681211D01*
X0000732631Y0001713434D01*
X0000731156Y0001714645D01*
X0000729693Y0001715873D01*
X0000729597Y0001715925D01*
X0000729513Y0001715994D01*
X0000727831Y0001716896D01*
X0000726158Y0001717816D01*
X0000726054Y0001717849D01*
X0000725958Y0001717900D01*
X0000724130Y0001718460D01*
X0000722313Y0001719036D01*
X0000722205Y0001719048D01*
X0000722101Y0001719080D01*
X0000720199Y0001719273D01*
X0000718304Y0001719486D01*
X0000718091Y0001719487D01*
X0000718087Y0001719488D01*
X0000718084Y0001719487D01*
X0000718015Y0001719488D01*
X0000705779Y0001719488D01*
X0000702166Y0001722037D01*
X0000697405Y0001724157D01*
X0000692323Y0001725311D01*
X0000686370Y0001725394D01*
X0000681258Y0001724382D01*
X0000676439Y0001722396D01*
X0000672099Y0001719512D01*
X0000668401Y0001715840D01*
X0000665486Y0001711519D01*
X0000663467Y0001706715D01*
X0000663096Y0001704908D01*
X0000662466Y0001705445D01*
X0000658660Y0001707161D01*
X0000654527Y0001707748D01*
X0000605314Y0001707748D01*
X0000602963Y0001707561D01*
X0000598976Y0001706326D01*
X0000595490Y0001704029D01*
X0000592782Y0001700852D01*
X0000591067Y0001697046D01*
X0000590479Y0001692913D01*
X0000590479Y0001681142D01*
X0000577796Y0001681142D01*
X0000575896Y0001680956D01*
X0000573993Y0001680789D01*
X0000573889Y0001680759D01*
X0000573781Y0001680748D01*
X0000571953Y0001680197D01*
X0000570120Y0001679664D01*
X0000570023Y0001679614D01*
X0000569919Y0001679582D01*
X0000568231Y0001678685D01*
X0000566538Y0001677807D01*
X0000566453Y0001677740D01*
X0000566357Y0001677689D01*
X0000564876Y0001676481D01*
X0000563386Y0001675291D01*
X0000563235Y0001675142D01*
X0000563231Y0001675139D01*
X0000563229Y0001675136D01*
X0000563180Y0001675088D01*
X0000516880Y0001628788D01*
X0000515670Y0001627314D01*
X0000514441Y0001625850D01*
X0000514389Y0001625755D01*
X0000514320Y0001625671D01*
X0000513418Y0001623990D01*
X0000512498Y0001622315D01*
X0000512465Y0001622212D01*
X0000512413Y0001622116D01*
X0000511854Y0001620287D01*
X0000511278Y0001618470D01*
X0000511266Y0001618362D01*
X0000511234Y0001618258D01*
X0000511041Y0001616357D01*
X0000510828Y0001614461D01*
X0000510827Y0001614249D01*
X0000510826Y0001614245D01*
X0000510827Y0001614241D01*
X0000510826Y0001614173D01*
X0000510826Y0001237354D01*
X0000508006Y0001233173D01*
X0000505986Y0001228368D01*
X0000504938Y0001223263D01*
X0000504902Y0001218052D01*
X0000505879Y0001212932D01*
X0000507831Y0001208100D01*
X0000509396Y0001205708D01*
X0000503971Y0001205708D01*
X0000493110Y0001216570D01*
X0000493110Y0001615923D01*
X0000493900Y0001617732D01*
X0000495019Y0001622822D01*
X0000495128Y0001628032D01*
X0000494223Y0001633165D01*
X0000492339Y0001638024D01*
X0000489546Y0001642424D01*
X0000485952Y0001646198D01*
X0000481693Y0001649202D01*
X0000476932Y0001651322D01*
X0000471850Y0001652477D01*
X0000465898Y0001652560D01*
X0000460785Y0001651547D01*
X0000455967Y0001649561D01*
X0000451626Y0001646677D01*
X0000447928Y0001643005D01*
X0000445014Y0001638685D01*
X0000442994Y0001633880D01*
X0000441946Y0001628775D01*
X0000441910Y0001623564D01*
X0000442887Y0001618444D01*
X0000443897Y0001615943D01*
X0000443897Y0001525951D01*
X0000443042Y0001530803D01*
X0000441157Y0001535662D01*
X0000438365Y0001540062D01*
X0000434770Y0001543836D01*
X0000430512Y0001546840D01*
X0000425751Y0001548960D01*
X0000420669Y0001550114D01*
X0000414716Y0001550197D01*
X0000409604Y0001549185D01*
X0000404785Y0001547199D01*
X0000400445Y0001544315D01*
X0000396747Y0001540643D01*
X0000393832Y0001536322D01*
X0000391813Y0001531518D01*
X0000390765Y0001526413D01*
X0000390764Y0001526294D01*
X0000347589Y0001483119D01*
X0000346379Y0001481646D01*
X0000345150Y0001480182D01*
X0000345097Y0001480086D01*
X0000345029Y0001480002D01*
X0000344127Y0001478321D01*
X0000343207Y0001476647D01*
X0000343174Y0001476543D01*
X0000343122Y0001476447D01*
X0000342563Y0001474619D01*
X0000341987Y0001472801D01*
X0000341975Y0001472694D01*
X0000341943Y0001472589D01*
X0000341750Y0001470688D01*
X0000341537Y0001468793D01*
X0000341536Y0001468580D01*
X0000341535Y0001468576D01*
X0000341536Y0001468572D01*
X0000341535Y0001468504D01*
X0000341535Y0001407344D01*
X0000340297Y0001410537D01*
X0000335022Y0001418849D01*
X0000328233Y0001425977D01*
X0000320189Y0001431652D01*
X0000311196Y0001435656D01*
X0000301597Y0001437837D01*
X0000299496Y0001437866D01*
X0000299496Y0001485170D01*
X0000309178Y0001486947D01*
X0000318331Y0001490571D01*
X0000326606Y0001495903D01*
X0000333687Y0001502742D01*
X0000339305Y0001510825D01*
X0000343246Y0001519846D01*
X0000345360Y0001529460D01*
X0000345566Y0001539302D01*
X0000343857Y0001548997D01*
X0000342240Y0001553166D01*
X0000486959Y0001697886D01*
X0000491612Y0001698740D01*
X0000496458Y0001700658D01*
X0000500838Y0001703481D01*
X0000504587Y0001707102D01*
X0000507561Y0001711381D01*
X0000509648Y0001716157D01*
X0000510767Y0001721247D01*
X0000510876Y0001726457D01*
X0000509971Y0001731590D01*
X0000508087Y0001736449D01*
X0000505294Y0001740849D01*
X0000501700Y0001744623D01*
X0000497441Y0001747627D01*
X0000492680Y0001749747D01*
X0000487598Y0001750902D01*
X0000481646Y0001750985D01*
X0000476533Y0001749972D01*
X0000471715Y0001747986D01*
X0000467374Y0001745102D01*
X0000463676Y0001741430D01*
X0000460762Y0001737109D01*
X0000458742Y0001732305D01*
X0000457694Y0001727200D01*
X0000457694Y0001727082D01*
X0000313071Y0001582459D01*
X0000311196Y0001583294D01*
X0000301597Y0001585475D01*
X0000299496Y0001585504D01*
X0000299496Y0001632807D01*
X0000309178Y0001634585D01*
X0000318331Y0001638208D01*
X0000326606Y0001643541D01*
X0000333687Y0001650379D01*
X0000339305Y0001658463D01*
X0000343246Y0001667484D01*
X0000345360Y0001677098D01*
X0000345566Y0001686940D01*
X0000343857Y0001696635D01*
X0000340297Y0001705812D01*
X0000335022Y0001714124D01*
X0000328233Y0001721253D01*
X0000320189Y0001726927D01*
X0000311196Y0001730931D01*
X0000301597Y0001733112D01*
X0000290353Y0001733269D01*
X0000280696Y0001731357D01*
X0000271595Y0001727606D01*
X0000263396Y0001722158D01*
X0000256411Y0001715222D01*
X0000250906Y0001707061D01*
X0000247091Y0001697986D01*
X0000245112Y0001688343D01*
X0000245043Y0001678499D01*
X0000246888Y0001668829D01*
X0000250575Y0001659702D01*
X0000255965Y0001651465D01*
X0000262853Y0001644431D01*
X0000270976Y0001638870D01*
X0000280024Y0001634992D01*
X0000289653Y0001632945D01*
X0000299496Y0001632807D01*
X0000299496Y0001585504D01*
X0000290353Y0001585632D01*
X0000280696Y0001583719D01*
X0000271595Y0001579968D01*
X0000263396Y0001574521D01*
X0000256411Y0001567584D01*
X0000250906Y0001559423D01*
X0000247091Y0001550348D01*
X0000245112Y0001540705D01*
X0000245043Y0001530861D01*
X0000246888Y0001521191D01*
X0000250575Y0001512064D01*
X0000255965Y0001503827D01*
X0000262853Y0001496793D01*
X0000270976Y0001491232D01*
X0000280024Y0001487354D01*
X0000289653Y0001485307D01*
X0000299496Y0001485170D01*
X0000299496Y0001437866D01*
X0000290353Y0001437994D01*
X0000280696Y0001436082D01*
X0000271595Y0001432330D01*
X0000263396Y0001426883D01*
X0000256411Y0001419946D01*
X0000250906Y0001411785D01*
X0000247091Y0001402710D01*
X0000245112Y0001393067D01*
X0000245043Y0001383223D01*
X0000246888Y0001373554D01*
X0000250575Y0001364426D01*
X0000255965Y0001356189D01*
X0000262853Y0001349156D01*
X0000270976Y0001343594D01*
X0000280024Y0001339716D01*
X0000289653Y0001337669D01*
X0000299496Y0001337532D01*
X0000309178Y0001339309D01*
X0000318331Y0001342933D01*
X0000326606Y0001348265D01*
X0000333687Y0001355104D01*
X0000339305Y0001363187D01*
X0000341535Y0001368292D01*
X0000341535Y0001196850D01*
X0000341721Y0001194952D01*
X0000341888Y0001193047D01*
X0000341918Y0001192943D01*
X0000341929Y0001192835D01*
X0000342480Y0001191010D01*
X0000343013Y0001189174D01*
X0000343063Y0001189077D01*
X0000343095Y0001188973D01*
X0000343992Y0001187286D01*
X0000344870Y0001185592D01*
X0000344937Y0001185508D01*
X0000344989Y0001185411D01*
X0000346197Y0001183930D01*
X0000347386Y0001182440D01*
X0000347536Y0001182289D01*
X0000347538Y0001182285D01*
X0000347541Y0001182283D01*
X0000347589Y0001182234D01*
X0000409745Y0001120078D01*
X0000017716Y0001120078D01*
X0000017716Y0001276281D01*
X0000056721Y0001237276D01*
G04 next file*
G04 #@! TF.FileFunction,Copper,L2,Bot,Signal*
G04 Gerber Fmt 4.6, Leading zero omitted, Abs format (unit mm)*
G04 Created by KiCad (PCBNEW 4.0.4-1.fc24-product) date Thu Jun 14 15:19:54 2018*
G01G01*
G04 APERTURE LIST*
G04 APERTURE END LIST*
D32*
D33*
X-0004921259Y0004094488D02*
X0001114173Y0000944881D03*
X0000966535Y0000944881D03*
X0000818897Y0000944881D03*
X0001114173Y0000748031D03*
X0000966535Y0000748031D03*
X0000818897Y0000748031D03*
D34*
X0000675196Y0000547244D03*
X0000616141Y0000547244D03*
D35*
X0000133858Y0000499606D03*
D36*
X0000133858Y0000399606D03*
D37*
X0000616721Y0000919871D03*
X0000675777Y0000919871D03*
X0000675196Y0000635826D03*
X0000616141Y0000635826D03*
X0000675196Y0000732283D03*
X0000616141Y0000732283D03*
D38*
X0000311023Y0000541141D03*
X0000311023Y0000591141D03*
X0000311023Y0000641141D03*
X0000311023Y0000691141D03*
X0000523622Y0000691141D03*
X0000523622Y0000641141D03*
X0000523622Y0000591141D03*
X0000523622Y0000541141D03*
D35*
X0000134056Y0000725439D03*
D36*
X0000134056Y0000625439D03*
D35*
X0000133858Y0000275590D03*
D36*
X0000133858Y0000075590D03*
D35*
X0000133858Y0000175590D03*
X0000133858Y0000950393D03*
D36*
X0000133858Y0000850393D03*
D37*
X0000616141Y0000826771D03*
X0000675196Y0000826771D03*
D39*
X0000456692Y0000763779D03*
X0000456692Y0000822834D03*
X0000370078Y0000763779D03*
X0000370078Y0000822834D03*
D40*
X0000339763Y0000088976D03*
D41*
X0000439763Y0000088976D03*
X0000539763Y0000088976D03*
X0000639763Y0000088976D03*
X0000739763Y0000088976D03*
D42*
X0000338582Y0000251968D03*
D43*
X0000438582Y0000251968D03*
D44*
X0000492126Y0000763779D03*
X0000405511Y0000763779D03*
X0000811023Y0000173228D03*
X0000488188Y0000889763D03*
X0000602362Y0000370078D03*
X0000559055Y0000881889D03*
X0000232283Y0000814960D03*
X0000637714Y0000249919D03*
X0000431102Y0000665354D03*
D45*
X0000456692Y0000763779D02*
X0000492126Y0000763779D01*
X0000370078Y0000763779D02*
X0000405511Y0000763779D01*
X0000670705Y0000173228D02*
X0000794320Y0000173228D01*
X0000794320Y0000173228D02*
X0000811023Y0000173228D01*
X0000464566Y0000379366D02*
X0000670705Y0000173228D01*
X0000329724Y0000641141D02*
X0000464566Y0000506299D01*
X0000311023Y0000641141D02*
X0000329724Y0000641141D01*
X0000464566Y0000506299D02*
X0000464566Y0000379366D01*
X0000471485Y0000889763D02*
X0000488188Y0000889763D01*
X0000224388Y0000889763D02*
X0000471485Y0000889763D01*
X0000185019Y0000850393D02*
X0000224388Y0000889763D01*
X0000133858Y0000850393D02*
X0000185019Y0000850393D01*
X0000311023Y0000691141D02*
X0000265944Y0000691141D01*
X0000265944Y0000691141D02*
X0000200242Y0000625439D01*
X0000200242Y0000625439D02*
X0000134056Y0000625439D01*
X0000523622Y0000641141D02*
X0000610826Y0000641141D01*
X0000610826Y0000641141D02*
X0000616141Y0000635826D01*
X0000616141Y0000639763D02*
X0000616141Y0000732283D01*
X0000616141Y0000639763D02*
X0000616141Y0000551181D01*
X0000594488Y0000484251D02*
X0000629921Y0000484251D01*
X0000629921Y0000484251D02*
X0000657480Y0000484251D01*
X0000602362Y0000370078D02*
X0000629921Y0000397637D01*
X0000629921Y0000397637D02*
X0000629921Y0000484251D01*
X0000523622Y0000591141D02*
X0000558464Y0000591141D01*
X0000558464Y0000591141D02*
X0000576771Y0000572834D01*
X0000576771Y0000572834D02*
X0000576771Y0000501968D01*
X0000576771Y0000501968D02*
X0000594488Y0000484251D01*
X0000657480Y0000484251D02*
X0000675196Y0000501968D01*
X0000675196Y0000501968D02*
X0000675196Y0000521653D01*
X0000675196Y0000521653D02*
X0000675196Y0000547244D01*
X0000675196Y0000547244D02*
X0000675196Y0000635826D01*
X0000456692Y0000822834D02*
X0000456692Y0000821850D01*
X0000370078Y0000822834D02*
X0000370078Y0000821850D01*
X0000735412Y0000881889D02*
X0000903543Y0000881889D01*
X0000903543Y0000881889D02*
X0000966535Y0000944881D01*
X0000675777Y0000919871D02*
X0000697430Y0000919871D01*
X0000697430Y0000919871D02*
X0000735412Y0000881889D01*
X0000675196Y0000826771D02*
X0000887795Y0000826771D01*
X0000887795Y0000826771D02*
X0000966535Y0000748031D01*
D46*
X0000523622Y0000541141D02*
X0000470669Y0000541141D01*
X0000470669Y0000541141D02*
X0000431102Y0000580708D01*
X0000431102Y0000580708D02*
X0000431102Y0000648650D01*
X0000431102Y0000648650D02*
X0000431102Y0000665354D01*
X0000523622Y0000541141D02*
X0000523622Y0000364012D01*
X0000523622Y0000364012D02*
X0000607874Y0000279760D01*
X0000607874Y0000279760D02*
X0000637714Y0000249919D01*
D45*
X0000523622Y0000691141D02*
X0000523622Y0000708661D01*
X0000523622Y0000708661D02*
X0000616141Y0000801181D01*
X0000616141Y0000801181D02*
X0000616141Y0000826771D01*
X0000616141Y0000826771D02*
X0000616141Y0000919291D01*
X0000616141Y0000919291D02*
X0000616721Y0000919871D01*
D47*
X0000133858Y0000175590D02*
X0000210236Y0000251968D01*
X0000210236Y0000251968D02*
X0000338582Y0000251968D01*
D48*
G36*
X0000123349Y0001005753D02*
X0000112849Y0001002663D01*
X0000103149Y0000997592D01*
X0000094619Y0000990734D01*
X0000087583Y0000982349D01*
X0000082311Y0000972758D01*
X0000079001Y0000962325D01*
X0000077781Y0000951448D01*
X0000077775Y0000950665D01*
X0000077775Y0000950122D01*
X0000078844Y0000939229D01*
X0000082007Y0000928751D01*
X0000087146Y0000919086D01*
X0000094063Y0000910604D01*
X0000098957Y0000906556D01*
X0000094508Y0000906556D01*
X0000091843Y0000906344D01*
X0000087324Y0000904944D01*
X0000083373Y0000902341D01*
X0000080304Y0000898740D01*
X0000078360Y0000894427D01*
X0000077695Y0000889743D01*
X0000077695Y0000811043D01*
X0000077907Y0000808379D01*
X0000079307Y0000803859D01*
X0000081910Y0000799909D01*
X0000085511Y0000796840D01*
X0000089824Y0000794896D01*
X0000094508Y0000794230D01*
X0000173208Y0000794230D01*
X0000175872Y0000794442D01*
X0000180392Y0000795842D01*
X0000184342Y0000798445D01*
X0000187411Y0000802046D01*
X0000189355Y0000806359D01*
X0000190021Y0000811043D01*
X0000190021Y0000828369D01*
X0000191416Y0000828790D01*
X0000193426Y0000829374D01*
X0000193532Y0000829429D01*
X0000193645Y0000829464D01*
X0000195490Y0000830444D01*
X0000197348Y0000831407D01*
X0000197441Y0000831482D01*
X0000197546Y0000831538D01*
X0000199167Y0000832859D01*
X0000200801Y0000834164D01*
X0000200967Y0000834327D01*
X0000200970Y0000834330D01*
X0000200973Y0000834333D01*
X0000201026Y0000834386D01*
X0000206676Y0000840036D01*
X0000340551Y0000840036D01*
X0000340551Y0000833415D01*
X0000344242Y0000829724D01*
X0000363188Y0000829724D01*
X0000363188Y0000849655D01*
X0000376968Y0000849655D01*
X0000376968Y0000829724D01*
X0000395915Y0000829724D01*
X0000399606Y0000833415D01*
X0000399606Y0000840036D01*
X0000427165Y0000840036D01*
X0000427165Y0000833415D01*
X0000430856Y0000829724D01*
X0000449803Y0000829724D01*
X0000449803Y0000849655D01*
X0000463582Y0000849655D01*
X0000463582Y0000829724D01*
X0000482529Y0000829724D01*
X0000486220Y0000833415D01*
X0000486220Y0000840036D01*
X0000485653Y0000842889D01*
X0000484540Y0000845575D01*
X0000482924Y0000847993D01*
X0000480868Y0000850050D01*
X0000478449Y0000851666D01*
X0000475763Y0000852779D01*
X0000472910Y0000853346D01*
X0000467273Y0000853346D01*
X0000463582Y0000849655D01*
X0000449803Y0000849655D01*
X0000446112Y0000853346D01*
X0000440474Y0000853346D01*
X0000437622Y0000852779D01*
X0000434935Y0000851666D01*
X0000432517Y0000850050D01*
X0000430461Y0000847993D01*
X0000428845Y0000845575D01*
X0000427732Y0000842889D01*
X0000427165Y0000840036D01*
X0000399606Y0000840036D01*
X0000399038Y0000842889D01*
X0000397926Y0000845575D01*
X0000396310Y0000847993D01*
X0000394253Y0000850050D01*
X0000391835Y0000851666D01*
X0000389148Y0000852779D01*
X0000386296Y0000853346D01*
X0000380659Y0000853346D01*
X0000376968Y0000849655D01*
X0000363188Y0000849655D01*
X0000359497Y0000853346D01*
X0000353860Y0000853346D01*
X0000351008Y0000852779D01*
X0000348321Y0000851666D01*
X0000345903Y0000850050D01*
X0000343847Y0000847993D01*
X0000342231Y0000845575D01*
X0000341118Y0000842889D01*
X0000340551Y0000840036D01*
X0000206676Y0000840036D01*
X0000233765Y0000867125D01*
X0000470744Y0000867125D01*
X0000474196Y0000864726D01*
X0000479325Y0000862485D01*
X0000484792Y0000861283D01*
X0000490389Y0000861166D01*
X0000495901Y0000862138D01*
X0000501120Y0000864162D01*
X0000505846Y0000867161D01*
X0000509900Y0000871022D01*
X0000513127Y0000875596D01*
X0000515404Y0000880709D01*
X0000516644Y0000886168D01*
X0000516733Y0000892561D01*
X0000515646Y0000898052D01*
X0000513513Y0000903228D01*
X0000510415Y0000907890D01*
X0000506471Y0000911862D01*
X0000501830Y0000914992D01*
X0000496670Y0000917161D01*
X0000491186Y0000918287D01*
X0000485589Y0000918326D01*
X0000480090Y0000917277D01*
X0000474900Y0000915180D01*
X0000470653Y0000912400D01*
X0000224388Y0000912400D01*
X0000222307Y0000912196D01*
X0000220224Y0000912014D01*
X0000220110Y0000911981D01*
X0000219991Y0000911969D01*
X0000217991Y0000911365D01*
X0000215981Y0000910782D01*
X0000215875Y0000910727D01*
X0000215762Y0000910692D01*
X0000213917Y0000909712D01*
X0000212059Y0000908748D01*
X0000211966Y0000908674D01*
X0000211861Y0000908618D01*
X0000210241Y0000907297D01*
X0000208606Y0000905992D01*
X0000208440Y0000905829D01*
X0000208437Y0000905826D01*
X0000208434Y0000905822D01*
X0000208381Y0000905770D01*
X0000190021Y0000887410D01*
X0000190021Y0000889743D01*
X0000189808Y0000892408D01*
X0000188409Y0000896927D01*
X0000185806Y0000900878D01*
X0000182205Y0000903947D01*
X0000177892Y0000905891D01*
X0000173208Y0000906556D01*
X0000168748Y0000906556D01*
X0000173096Y0000910053D01*
X0000180132Y0000918437D01*
X0000185405Y0000928029D01*
X0000188715Y0000938462D01*
X0000189935Y0000949339D01*
X0000189940Y0000950122D01*
X0000189940Y0000950665D01*
X0000188872Y0000961558D01*
X0000185708Y0000972036D01*
X0000180570Y0000981700D01*
X0000179959Y0000982449D01*
X0000791073Y0000982449D01*
X0000818897Y0000954625D01*
X0000846721Y0000982449D01*
X0000842693Y0000989355D01*
X0000833559Y0000993143D01*
X0000823862Y0000995076D01*
X0000813974Y0000995080D01*
X0000804276Y0000993155D01*
X0000795139Y0000989375D01*
X0000795101Y0000989355D01*
X0000791073Y0000982449D01*
X0000179959Y0000982449D01*
X0000173652Y0000990182D01*
X0000165219Y0000997159D01*
X0000155590Y0001002365D01*
X0000145135Y0001005601D01*
X0000142245Y0001005905D01*
X0001222440Y0001005905D01*
X0001222440Y0000017716D01*
X0000017716Y0000017716D01*
X0000017716Y0000114940D01*
X0000077695Y0000114940D01*
X0000077695Y0000036240D01*
X0000077907Y0000033575D01*
X0000079307Y0000029056D01*
X0000081910Y0000025106D01*
X0000085511Y0000022037D01*
X0000089824Y0000020092D01*
X0000094508Y0000019427D01*
X0000173208Y0000019427D01*
X0000175872Y0000019639D01*
X0000180392Y0000021039D01*
X0000184342Y0000023642D01*
X0000187411Y0000027243D01*
X0000189355Y0000031556D01*
X0000190021Y0000036240D01*
X0000190021Y0000114940D01*
X0000189808Y0000117605D01*
X0000188409Y0000122124D01*
X0000185806Y0000126074D01*
X0000182402Y0000128976D01*
X0000288950Y0000128976D01*
X0000288950Y0000048976D01*
X0000289162Y0000046311D01*
X0000290562Y0000041792D01*
X0000293165Y0000037841D01*
X0000296766Y0000034772D01*
X0000301079Y0000032828D01*
X0000305763Y0000032163D01*
X0000373763Y0000032163D01*
X0000376428Y0000032375D01*
X0000380947Y0000033775D01*
X0000384898Y0000036378D01*
X0000387967Y0000039979D01*
X0000389911Y0000044292D01*
X0000390577Y0000048976D01*
X0000390577Y0000070929D01*
X0000392859Y0000063369D01*
X0000397507Y0000054627D01*
X0000403765Y0000046954D01*
X0000411394Y0000040642D01*
X0000420104Y0000035933D01*
X0000429562Y0000033005D01*
X0000439409Y0000031970D01*
X0000449270Y0000032868D01*
X0000458768Y0000035663D01*
X0000467542Y0000040250D01*
X0000475259Y0000046455D01*
X0000481623Y0000054039D01*
X0000486393Y0000062716D01*
X0000489387Y0000072154D01*
X0000489749Y0000075380D01*
X0000489997Y0000072847D01*
X0000492859Y0000063369D01*
X0000497507Y0000054627D01*
X0000503765Y0000046954D01*
X0000511394Y0000040642D01*
X0000520104Y0000035933D01*
X0000529562Y0000033005D01*
X0000539409Y0000031970D01*
X0000549270Y0000032868D01*
X0000558768Y0000035663D01*
X0000567542Y0000040250D01*
X0000575259Y0000046455D01*
X0000581623Y0000054039D01*
X0000586393Y0000062716D01*
X0000589387Y0000072154D01*
X0000589648Y0000074479D01*
X0000591801Y0000074479D01*
X0000594380Y0000065285D01*
X0000598704Y0000056771D01*
X0000604605Y0000049264D01*
X0000611857Y0000043053D01*
X0000620182Y0000038376D01*
X0000625407Y0000036373D01*
X0000632873Y0000038433D01*
X0000632873Y0000082086D01*
X0000646653Y0000082086D01*
X0000646653Y0000038433D01*
X0000654120Y0000036373D01*
X0000659344Y0000038376D01*
X0000667669Y0000043053D01*
X0000674921Y0000049264D01*
X0000680823Y0000056771D01*
X0000685146Y0000065285D01*
X0000687725Y0000074479D01*
X0000684773Y0000082086D01*
X0000646653Y0000082086D01*
X0000632873Y0000082086D01*
X0000594753Y0000082086D01*
X0000591801Y0000074479D01*
X0000589648Y0000074479D01*
X0000590491Y0000081993D01*
X0000590496Y0000082701D01*
X0000590496Y0000095250D01*
X0000689031Y0000095250D01*
X0000689031Y0000082701D01*
X0000689997Y0000072847D01*
X0000692859Y0000063369D01*
X0000697507Y0000054627D01*
X0000703765Y0000046954D01*
X0000711394Y0000040642D01*
X0000720104Y0000035933D01*
X0000729562Y0000033005D01*
X0000739409Y0000031970D01*
X0000749270Y0000032868D01*
X0000758768Y0000035663D01*
X0000767542Y0000040250D01*
X0000775259Y0000046455D01*
X0000781623Y0000054039D01*
X0000786393Y0000062716D01*
X0000789387Y0000072154D01*
X0000790491Y0000081993D01*
X0000790496Y0000082701D01*
X0000790496Y0000095250D01*
X0000789529Y0000105104D01*
X0000786668Y0000114583D01*
X0000782019Y0000123325D01*
X0000775761Y0000130998D01*
X0000768132Y0000137309D01*
X0000759423Y0000142019D01*
X0000749964Y0000144946D01*
X0000740117Y0000145981D01*
X0000730257Y0000145084D01*
X0000720759Y0000142289D01*
X0000711984Y0000137701D01*
X0000704268Y0000131497D01*
X0000697903Y0000123912D01*
X0000693133Y0000115236D01*
X0000690140Y0000105798D01*
X0000689036Y0000095959D01*
X0000689031Y0000095250D01*
X0000590496Y0000095250D01*
X0000589689Y0000103473D01*
X0000591801Y0000103473D01*
X0000594753Y0000095866D01*
X0000632873Y0000095866D01*
X0000632873Y0000139519D01*
X0000646653Y0000139519D01*
X0000646653Y0000095866D01*
X0000684773Y0000095866D01*
X0000687725Y0000103473D01*
X0000685146Y0000112667D01*
X0000680823Y0000121181D01*
X0000674921Y0000128687D01*
X0000667669Y0000134899D01*
X0000659344Y0000139576D01*
X0000654120Y0000141578D01*
X0000646653Y0000139519D01*
X0000632873Y0000139519D01*
X0000625407Y0000141578D01*
X0000620182Y0000139576D01*
X0000611857Y0000134899D01*
X0000604605Y0000128687D01*
X0000598704Y0000121181D01*
X0000594380Y0000112667D01*
X0000591801Y0000103473D01*
X0000589689Y0000103473D01*
X0000589529Y0000105104D01*
X0000586668Y0000114583D01*
X0000582019Y0000123325D01*
X0000575761Y0000130998D01*
X0000568132Y0000137309D01*
X0000559423Y0000142019D01*
X0000549964Y0000144946D01*
X0000540117Y0000145981D01*
X0000530257Y0000145084D01*
X0000520759Y0000142289D01*
X0000511984Y0000137701D01*
X0000504268Y0000131497D01*
X0000497903Y0000123912D01*
X0000493133Y0000115236D01*
X0000490140Y0000105798D01*
X0000489778Y0000102572D01*
X0000489529Y0000105104D01*
X0000486668Y0000114583D01*
X0000482019Y0000123325D01*
X0000475761Y0000130998D01*
X0000468132Y0000137309D01*
X0000459423Y0000142019D01*
X0000449964Y0000144946D01*
X0000440117Y0000145981D01*
X0000430257Y0000145084D01*
X0000420759Y0000142289D01*
X0000411984Y0000137701D01*
X0000404268Y0000131497D01*
X0000397903Y0000123912D01*
X0000393133Y0000115236D01*
X0000390577Y0000107175D01*
X0000390577Y0000128976D01*
X0000390364Y0000131640D01*
X0000388964Y0000136160D01*
X0000386361Y0000140110D01*
X0000382760Y0000143179D01*
X0000378447Y0000145123D01*
X0000373763Y0000145789D01*
X0000305763Y0000145789D01*
X0000303099Y0000145577D01*
X0000298579Y0000144177D01*
X0000294629Y0000141574D01*
X0000291560Y0000137973D01*
X0000289616Y0000133660D01*
X0000288950Y0000128976D01*
X0000182402Y0000128976D01*
X0000182205Y0000129143D01*
X0000177892Y0000131088D01*
X0000173208Y0000131753D01*
X0000168748Y0000131753D01*
X0000173096Y0000135249D01*
X0000180132Y0000143634D01*
X0000185405Y0000153226D01*
X0000188715Y0000163659D01*
X0000189935Y0000174536D01*
X0000189940Y0000175319D01*
X0000189940Y0000175861D01*
X0000188872Y0000186755D01*
X0000186773Y0000193707D01*
X0000220428Y0000227362D01*
X0000281769Y0000227362D01*
X0000281769Y0000211968D01*
X0000281981Y0000209303D01*
X0000283381Y0000204784D01*
X0000285984Y0000200834D01*
X0000289585Y0000197765D01*
X0000293898Y0000195820D01*
X0000298582Y0000195155D01*
X0000378582Y0000195155D01*
X0000381247Y0000195367D01*
X0000385766Y0000196767D01*
X0000389717Y0000199370D01*
X0000392786Y0000202971D01*
X0000394730Y0000207284D01*
X0000395395Y0000211968D01*
X0000395395Y0000215312D01*
X0000398327Y0000211718D01*
X0000406858Y0000204660D01*
X0000416598Y0000199394D01*
X0000427175Y0000196120D01*
X0000438186Y0000194963D01*
X0000449213Y0000195966D01*
X0000459834Y0000199092D01*
X0000469647Y0000204222D01*
X0000478276Y0000211160D01*
X0000485393Y0000219642D01*
X0000490727Y0000229344D01*
X0000494075Y0000239898D01*
X0000495309Y0000250901D01*
X0000495314Y0000251694D01*
X0000495314Y0000252242D01*
X0000494234Y0000263262D01*
X0000491034Y0000273861D01*
X0000485836Y0000283638D01*
X0000478838Y0000292218D01*
X0000470306Y0000299276D01*
X0000460567Y0000304542D01*
X0000449990Y0000307816D01*
X0000438978Y0000308973D01*
X0000427952Y0000307970D01*
X0000417330Y0000304844D01*
X0000407518Y0000299714D01*
X0000398889Y0000292776D01*
X0000395395Y0000288613D01*
X0000395395Y0000291968D01*
X0000395183Y0000294633D01*
X0000393783Y0000299152D01*
X0000391180Y0000303102D01*
X0000387579Y0000306171D01*
X0000383266Y0000308116D01*
X0000378582Y0000308781D01*
X0000298582Y0000308781D01*
X0000295918Y0000308569D01*
X0000291398Y0000307169D01*
X0000287448Y0000304566D01*
X0000284379Y0000300965D01*
X0000282435Y0000296652D01*
X0000281769Y0000291968D01*
X0000281769Y0000276574D01*
X0000210236Y0000276574D01*
X0000207973Y0000276352D01*
X0000205709Y0000276154D01*
X0000205585Y0000276118D01*
X0000205456Y0000276106D01*
X0000203281Y0000275449D01*
X0000201098Y0000274815D01*
X0000200983Y0000274755D01*
X0000200859Y0000274718D01*
X0000198852Y0000273651D01*
X0000196834Y0000272605D01*
X0000196733Y0000272524D01*
X0000196619Y0000272463D01*
X0000194857Y0000271026D01*
X0000193081Y0000269608D01*
X0000192901Y0000269431D01*
X0000192897Y0000269428D01*
X0000192895Y0000269425D01*
X0000192836Y0000269367D01*
X0000188915Y0000265446D01*
X0000189935Y0000274536D01*
X0000189940Y0000275319D01*
X0000189940Y0000275861D01*
X0000188872Y0000286754D01*
X0000185708Y0000297233D01*
X0000180570Y0000306897D01*
X0000173652Y0000315379D01*
X0000165219Y0000322356D01*
X0000155590Y0000327562D01*
X0000145135Y0000330798D01*
X0000134249Y0000331942D01*
X0000123349Y0000330950D01*
X0000112849Y0000327860D01*
X0000103149Y0000322789D01*
X0000094619Y0000315931D01*
X0000087583Y0000307546D01*
X0000082311Y0000297955D01*
X0000079001Y0000287522D01*
X0000077781Y0000276644D01*
X0000077775Y0000275861D01*
X0000077775Y0000275319D01*
X0000078844Y0000264426D01*
X0000082007Y0000253947D01*
X0000087146Y0000244283D01*
X0000094063Y0000235801D01*
X0000102497Y0000228824D01*
X0000108493Y0000225583D01*
X0000103149Y0000222789D01*
X0000094619Y0000215931D01*
X0000087583Y0000207546D01*
X0000082311Y0000197955D01*
X0000079001Y0000187522D01*
X0000077781Y0000176644D01*
X0000077775Y0000175861D01*
X0000077775Y0000175319D01*
X0000078844Y0000164426D01*
X0000082007Y0000153947D01*
X0000087146Y0000144283D01*
X0000094063Y0000135801D01*
X0000098957Y0000131753D01*
X0000094508Y0000131753D01*
X0000091843Y0000131541D01*
X0000087324Y0000130141D01*
X0000083373Y0000127538D01*
X0000080304Y0000123937D01*
X0000078360Y0000119624D01*
X0000077695Y0000114940D01*
X0000017716Y0000114940D01*
X0000017716Y0000438956D01*
X0000077695Y0000438956D01*
X0000077695Y0000360256D01*
X0000077907Y0000357591D01*
X0000079307Y0000353072D01*
X0000081910Y0000349121D01*
X0000085511Y0000346052D01*
X0000089824Y0000344108D01*
X0000094508Y0000343443D01*
X0000173208Y0000343443D01*
X0000175872Y0000343655D01*
X0000180392Y0000345055D01*
X0000184342Y0000347658D01*
X0000187411Y0000351259D01*
X0000189355Y0000355572D01*
X0000190021Y0000360256D01*
X0000190021Y0000438956D01*
X0000189808Y0000441620D01*
X0000188409Y0000446140D01*
X0000185806Y0000450090D01*
X0000182205Y0000453159D01*
X0000177892Y0000455103D01*
X0000173208Y0000455769D01*
X0000168748Y0000455769D01*
X0000173096Y0000459265D01*
X0000180132Y0000467650D01*
X0000185405Y0000477241D01*
X0000188715Y0000487674D01*
X0000189935Y0000498551D01*
X0000189940Y0000499334D01*
X0000189940Y0000499877D01*
X0000188872Y0000510770D01*
X0000185708Y0000521248D01*
X0000180570Y0000530913D01*
X0000180054Y0000531545D01*
X0000265748Y0000531545D01*
X0000265748Y0000527876D01*
X0000266315Y0000525024D01*
X0000267428Y0000522337D01*
X0000269044Y0000519919D01*
X0000271100Y0000517862D01*
X0000273518Y0000516247D01*
X0000276205Y0000515134D01*
X0000279057Y0000514566D01*
X0000300442Y0000514566D01*
X0000304133Y0000518257D01*
X0000304133Y0000535236D01*
X0000317913Y0000535236D01*
X0000317913Y0000518257D01*
X0000321604Y0000514566D01*
X0000342989Y0000514566D01*
X0000345841Y0000515134D01*
X0000348528Y0000516247D01*
X0000350946Y0000517862D01*
X0000353003Y0000519919D01*
X0000354618Y0000522337D01*
X0000355731Y0000525024D01*
X0000356299Y0000527876D01*
X0000356299Y0000531545D01*
X0000352608Y0000535236D01*
X0000317913Y0000535236D01*
X0000304133Y0000535236D01*
X0000269438Y0000535236D01*
X0000265748Y0000531545D01*
X0000180054Y0000531545D01*
X0000173652Y0000539395D01*
X0000165219Y0000546371D01*
X0000155590Y0000551577D01*
X0000145135Y0000554814D01*
X0000134249Y0000555958D01*
X0000123349Y0000554966D01*
X0000112849Y0000551876D01*
X0000103149Y0000546805D01*
X0000094619Y0000539946D01*
X0000087583Y0000531562D01*
X0000082311Y0000521970D01*
X0000079001Y0000511537D01*
X0000077781Y0000500660D01*
X0000077775Y0000499877D01*
X0000077775Y0000499334D01*
X0000078844Y0000488441D01*
X0000082007Y0000477963D01*
X0000087146Y0000468299D01*
X0000094063Y0000459817D01*
X0000098957Y0000455769D01*
X0000094508Y0000455769D01*
X0000091843Y0000455557D01*
X0000087324Y0000454157D01*
X0000083373Y0000451554D01*
X0000080304Y0000447953D01*
X0000078360Y0000443640D01*
X0000077695Y0000438956D01*
X0000017716Y0000438956D01*
X0000017716Y0000664789D01*
X0000077892Y0000664789D01*
X0000077892Y0000586089D01*
X0000078105Y0000583424D01*
X0000079504Y0000578905D01*
X0000082108Y0000574954D01*
X0000085708Y0000571885D01*
X0000090021Y0000569941D01*
X0000094706Y0000569275D01*
X0000173406Y0000569275D01*
X0000176070Y0000569488D01*
X0000180589Y0000570888D01*
X0000184540Y0000573491D01*
X0000187609Y0000577091D01*
X0000189553Y0000581405D01*
X0000189573Y0000581545D01*
X0000265748Y0000581545D01*
X0000265748Y0000577876D01*
X0000266315Y0000575024D01*
X0000267428Y0000572337D01*
X0000269044Y0000569919D01*
X0000271100Y0000567862D01*
X0000273518Y0000566247D01*
X0000273773Y0000566141D01*
X0000273518Y0000566036D01*
X0000271100Y0000564420D01*
X0000269044Y0000562364D01*
X0000267428Y0000559945D01*
X0000266315Y0000557259D01*
X0000265748Y0000554406D01*
X0000265748Y0000550738D01*
X0000269438Y0000547047D01*
X0000304133Y0000547047D01*
X0000304133Y0000564025D01*
X0000302017Y0000566141D01*
X0000304133Y0000568257D01*
X0000304133Y0000585236D01*
X0000269438Y0000585236D01*
X0000265748Y0000581545D01*
X0000189573Y0000581545D01*
X0000190219Y0000586089D01*
X0000190219Y0000602801D01*
X0000200242Y0000602801D01*
X0000202323Y0000603005D01*
X0000204406Y0000603187D01*
X0000204520Y0000603220D01*
X0000204639Y0000603232D01*
X0000206639Y0000603836D01*
X0000208649Y0000604420D01*
X0000208755Y0000604475D01*
X0000208868Y0000604509D01*
X0000210713Y0000605490D01*
X0000212571Y0000606453D01*
X0000212664Y0000606527D01*
X0000212769Y0000606583D01*
X0000214390Y0000607905D01*
X0000216024Y0000609209D01*
X0000216190Y0000609373D01*
X0000216193Y0000609376D01*
X0000216196Y0000609379D01*
X0000216249Y0000609431D01*
X0000264349Y0000657531D01*
X0000263698Y0000652952D01*
X0000263698Y0000629330D01*
X0000263911Y0000626666D01*
X0000265310Y0000622146D01*
X0000267913Y0000618196D01*
X0000271514Y0000615127D01*
X0000271898Y0000614954D01*
X0000271100Y0000614420D01*
X0000269044Y0000612364D01*
X0000267428Y0000609945D01*
X0000266315Y0000607259D01*
X0000265748Y0000604406D01*
X0000265748Y0000600738D01*
X0000269438Y0000597047D01*
X0000304133Y0000597047D01*
X0000304133Y0000598818D01*
X0000317913Y0000598818D01*
X0000317913Y0000597047D01*
X0000318700Y0000597047D01*
X0000318700Y0000585236D01*
X0000317913Y0000585236D01*
X0000317913Y0000568257D01*
X0000320029Y0000566141D01*
X0000317913Y0000564025D01*
X0000317913Y0000547047D01*
X0000352608Y0000547047D01*
X0000356299Y0000550738D01*
X0000356299Y0000554406D01*
X0000355731Y0000557259D01*
X0000354618Y0000559945D01*
X0000353003Y0000562364D01*
X0000350946Y0000564420D01*
X0000348528Y0000566036D01*
X0000348274Y0000566141D01*
X0000348528Y0000566247D01*
X0000350946Y0000567862D01*
X0000353003Y0000569919D01*
X0000354618Y0000572337D01*
X0000355731Y0000575024D01*
X0000356299Y0000577876D01*
X0000356299Y0000581545D01*
X0000353592Y0000584251D01*
X0000354599Y0000584251D01*
X0000441929Y0000496922D01*
X0000441929Y0000379366D01*
X0000442133Y0000377285D01*
X0000442315Y0000375202D01*
X0000442348Y0000375088D01*
X0000442360Y0000374969D01*
X0000442964Y0000372969D01*
X0000443548Y0000370959D01*
X0000443602Y0000370854D01*
X0000443637Y0000370740D01*
X0000444618Y0000368895D01*
X0000445581Y0000367037D01*
X0000445655Y0000366944D01*
X0000445711Y0000366839D01*
X0000447033Y0000365218D01*
X0000448337Y0000363584D01*
X0000448500Y0000363418D01*
X0000448503Y0000363415D01*
X0000448507Y0000363412D01*
X0000448559Y0000363359D01*
X0000654697Y0000157221D01*
X0000656314Y0000155893D01*
X0000657915Y0000154549D01*
X0000658020Y0000154492D01*
X0000658112Y0000154416D01*
X0000659953Y0000153429D01*
X0000661787Y0000152421D01*
X0000661901Y0000152385D01*
X0000662005Y0000152328D01*
X0000664004Y0000151717D01*
X0000665998Y0000151085D01*
X0000666116Y0000151071D01*
X0000666230Y0000151037D01*
X0000668310Y0000150825D01*
X0000670389Y0000150592D01*
X0000670622Y0000150591D01*
X0000670626Y0000150590D01*
X0000670630Y0000150591D01*
X0000670705Y0000150590D01*
X0000793579Y0000150590D01*
X0000797031Y0000148191D01*
X0000802160Y0000145950D01*
X0000807627Y0000144748D01*
X0000813224Y0000144631D01*
X0000818736Y0000145603D01*
X0000823955Y0000147627D01*
X0000828681Y0000150627D01*
X0000832735Y0000154487D01*
X0000835961Y0000159061D01*
X0000838238Y0000164175D01*
X0000839478Y0000169633D01*
X0000839568Y0000176027D01*
X0000838480Y0000181518D01*
X0000836347Y0000186693D01*
X0000833250Y0000191355D01*
X0000829305Y0000195327D01*
X0000824665Y0000198457D01*
X0000819504Y0000200627D01*
X0000814021Y0000201752D01*
X0000808424Y0000201791D01*
X0000802925Y0000200742D01*
X0000797735Y0000198645D01*
X0000793487Y0000195866D01*
X0000680082Y0000195866D01*
X0000651247Y0000224700D01*
X0000655372Y0000227318D01*
X0000659426Y0000231178D01*
X0000662653Y0000235752D01*
X0000664930Y0000240866D01*
X0000666170Y0000246324D01*
X0000666259Y0000252718D01*
X0000665172Y0000258209D01*
X0000663039Y0000263384D01*
X0000659941Y0000268047D01*
X0000655997Y0000272019D01*
X0000651356Y0000275149D01*
X0000649133Y0000276083D01*
X0000550196Y0000375020D01*
X0000550196Y0000512517D01*
X0000554133Y0000512517D01*
X0000554133Y0000501968D01*
X0000554337Y0000499887D01*
X0000554520Y0000497804D01*
X0000554553Y0000497689D01*
X0000554564Y0000497571D01*
X0000555168Y0000495571D01*
X0000555752Y0000493561D01*
X0000555807Y0000493455D01*
X0000555841Y0000493341D01*
X0000556822Y0000491497D01*
X0000557785Y0000489639D01*
X0000557860Y0000489545D01*
X0000557916Y0000489440D01*
X0000559237Y0000487820D01*
X0000560542Y0000486186D01*
X0000560705Y0000486020D01*
X0000560708Y0000486017D01*
X0000560711Y0000486014D01*
X0000560764Y0000485961D01*
X0000578480Y0000468244D01*
X0000580096Y0000466917D01*
X0000581698Y0000465573D01*
X0000581802Y0000465515D01*
X0000581894Y0000465440D01*
X0000583736Y0000464452D01*
X0000585570Y0000463444D01*
X0000585683Y0000463408D01*
X0000585788Y0000463352D01*
X0000587786Y0000462741D01*
X0000589781Y0000462108D01*
X0000589899Y0000462095D01*
X0000590013Y0000462060D01*
X0000592094Y0000461849D01*
X0000594172Y0000461616D01*
X0000594404Y0000461614D01*
X0000594409Y0000461614D01*
X0000594413Y0000461614D01*
X0000594488Y0000461614D01*
X0000607283Y0000461614D01*
X0000607283Y0000407014D01*
X0000598710Y0000398441D01*
X0000594264Y0000397593D01*
X0000589074Y0000395496D01*
X0000584390Y0000392431D01*
X0000580390Y0000388514D01*
X0000577228Y0000383896D01*
X0000575023Y0000378751D01*
X0000573859Y0000373275D01*
X0000573781Y0000367678D01*
X0000574791Y0000362173D01*
X0000576852Y0000356968D01*
X0000579884Y0000352263D01*
X0000583773Y0000348236D01*
X0000588369Y0000345042D01*
X0000593499Y0000342801D01*
X0000598966Y0000341599D01*
X0000604562Y0000341481D01*
X0000610075Y0000342453D01*
X0000615293Y0000344478D01*
X0000620020Y0000347477D01*
X0000624073Y0000351337D01*
X0000627300Y0000355911D01*
X0000629577Y0000361025D01*
X0000630817Y0000366484D01*
X0000630817Y0000366519D01*
X0000645928Y0000381630D01*
X0000647256Y0000383246D01*
X0000648599Y0000384848D01*
X0000648657Y0000384952D01*
X0000648732Y0000385044D01*
X0000649720Y0000386886D01*
X0000650728Y0000388719D01*
X0000650764Y0000388833D01*
X0000650820Y0000388938D01*
X0000651431Y0000390937D01*
X0000652064Y0000392931D01*
X0000652077Y0000393049D01*
X0000652112Y0000393163D01*
X0000652323Y0000395242D01*
X0000652556Y0000397321D01*
X0000652558Y0000397554D01*
X0000652558Y0000397558D01*
X0000652558Y0000397562D01*
X0000652559Y0000397637D01*
X0000652559Y0000461614D01*
X0000657480Y0000461614D01*
X0000659561Y0000461818D01*
X0000661644Y0000462000D01*
X0000661758Y0000462033D01*
X0000661877Y0000462045D01*
X0000663877Y0000462649D01*
X0000665887Y0000463233D01*
X0000665993Y0000463287D01*
X0000666106Y0000463322D01*
X0000667951Y0000464303D01*
X0000669809Y0000465266D01*
X0000669902Y0000465340D01*
X0000670007Y0000465396D01*
X0000671628Y0000466718D01*
X0000673262Y0000468022D01*
X0000673428Y0000468185D01*
X0000673431Y0000468188D01*
X0000673434Y0000468192D01*
X0000673487Y0000468244D01*
X0000691204Y0000485961D01*
X0000692531Y0000487576D01*
X0000693875Y0000489178D01*
X0000693932Y0000489283D01*
X0000694008Y0000489375D01*
X0000694995Y0000491216D01*
X0000696004Y0000493050D01*
X0000696040Y0000493164D01*
X0000696096Y0000493268D01*
X0000696707Y0000495266D01*
X0000697339Y0000497261D01*
X0000697353Y0000497380D01*
X0000697387Y0000497493D01*
X0000697599Y0000499575D01*
X0000697832Y0000501652D01*
X0000697834Y0000501884D01*
X0000697834Y0000501889D01*
X0000697834Y0000501893D01*
X0000697834Y0000501968D01*
X0000697834Y0000517188D01*
X0000698128Y0000517279D01*
X0000702079Y0000519882D01*
X0000705148Y0000523483D01*
X0000707092Y0000527796D01*
X0000707758Y0000532480D01*
X0000707758Y0000562007D01*
X0000707545Y0000564672D01*
X0000706146Y0000569191D01*
X0000703542Y0000573142D01*
X0000699942Y0000576211D01*
X0000697834Y0000577161D01*
X0000697834Y0000607460D01*
X0000699242Y0000609112D01*
X0000701186Y0000613426D01*
X0000701852Y0000618110D01*
X0000701852Y0000653543D01*
X0000701640Y0000656207D01*
X0000700240Y0000660727D01*
X0000697637Y0000664677D01*
X0000694036Y0000667746D01*
X0000689723Y0000669690D01*
X0000685039Y0000670356D01*
X0000665354Y0000670356D01*
X0000662689Y0000670144D01*
X0000658170Y0000668744D01*
X0000654219Y0000666141D01*
X0000651150Y0000662540D01*
X0000649206Y0000658227D01*
X0000648541Y0000653543D01*
X0000648541Y0000618110D01*
X0000648753Y0000615445D01*
X0000650153Y0000610926D01*
X0000652559Y0000607275D01*
X0000652559Y0000577300D01*
X0000652264Y0000577209D01*
X0000648314Y0000574605D01*
X0000645612Y0000571435D01*
X0000644487Y0000573142D01*
X0000640886Y0000576211D01*
X0000638779Y0000577161D01*
X0000638779Y0000607460D01*
X0000640187Y0000609112D01*
X0000642131Y0000613426D01*
X0000642797Y0000618110D01*
X0000642797Y0000653543D01*
X0000642585Y0000656207D01*
X0000641185Y0000660727D01*
X0000638779Y0000664378D01*
X0000638779Y0000703917D01*
X0000640187Y0000705569D01*
X0000642131Y0000709882D01*
X0000642797Y0000714566D01*
X0000642797Y0000721702D01*
X0000650590Y0000721702D01*
X0000650590Y0000713112D01*
X0000651157Y0000710260D01*
X0000652270Y0000707573D01*
X0000653886Y0000705155D01*
X0000655942Y0000703099D01*
X0000658361Y0000701483D01*
X0000661047Y0000700370D01*
X0000663900Y0000699803D01*
X0000666584Y0000699803D01*
X0000670275Y0000703494D01*
X0000670275Y0000725393D01*
X0000680118Y0000725393D01*
X0000680118Y0000703494D01*
X0000683809Y0000699803D01*
X0000686493Y0000699803D01*
X0000689345Y0000700370D01*
X0000692032Y0000701483D01*
X0000694450Y0000703099D01*
X0000696507Y0000705155D01*
X0000698122Y0000707573D01*
X0000699235Y0000710260D01*
X0000699276Y0000710464D01*
X0000791073Y0000710464D01*
X0000795101Y0000703557D01*
X0000804235Y0000699769D01*
X0000813932Y0000697836D01*
X0000823820Y0000697832D01*
X0000833519Y0000699757D01*
X0000842655Y0000703537D01*
X0000842693Y0000703557D01*
X0000846721Y0000710464D01*
X0000818897Y0000738287D01*
X0000791073Y0000710464D01*
X0000699276Y0000710464D01*
X0000699803Y0000713112D01*
X0000699803Y0000721702D01*
X0000696112Y0000725393D01*
X0000680118Y0000725393D01*
X0000670275Y0000725393D01*
X0000654281Y0000725393D01*
X0000650590Y0000721702D01*
X0000642797Y0000721702D01*
X0000642797Y0000749999D01*
X0000642681Y0000751454D01*
X0000650590Y0000751454D01*
X0000650590Y0000742864D01*
X0000654281Y0000739173D01*
X0000670275Y0000739173D01*
X0000670275Y0000761072D01*
X0000680118Y0000761072D01*
X0000680118Y0000739173D01*
X0000696112Y0000739173D01*
X0000699803Y0000742864D01*
X0000699803Y0000743108D01*
X0000768698Y0000743108D01*
X0000770623Y0000733410D01*
X0000774403Y0000724273D01*
X0000774423Y0000724235D01*
X0000781330Y0000720207D01*
X0000809154Y0000748031D01*
X0000828641Y0000748031D01*
X0000856464Y0000720207D01*
X0000863371Y0000724235D01*
X0000867159Y0000733369D01*
X0000869092Y0000743066D01*
X0000869096Y0000752954D01*
X0000867171Y0000762652D01*
X0000863391Y0000771789D01*
X0000863371Y0000771827D01*
X0000856464Y0000775855D01*
X0000828641Y0000748031D01*
X0000809154Y0000748031D01*
X0000781330Y0000775855D01*
X0000774423Y0000771827D01*
X0000770635Y0000762693D01*
X0000768702Y0000752996D01*
X0000768698Y0000743108D01*
X0000699803Y0000743108D01*
X0000699803Y0000751454D01*
X0000699235Y0000754306D01*
X0000698122Y0000756993D01*
X0000696507Y0000759411D01*
X0000694450Y0000761467D01*
X0000692032Y0000763083D01*
X0000689345Y0000764196D01*
X0000686493Y0000764763D01*
X0000683809Y0000764763D01*
X0000680118Y0000761072D01*
X0000670275Y0000761072D01*
X0000666584Y0000764763D01*
X0000663900Y0000764763D01*
X0000661047Y0000764196D01*
X0000658361Y0000763083D01*
X0000655942Y0000761467D01*
X0000653886Y0000759411D01*
X0000652270Y0000756993D01*
X0000651157Y0000754306D01*
X0000650590Y0000751454D01*
X0000642681Y0000751454D01*
X0000642585Y0000752664D01*
X0000641185Y0000757183D01*
X0000638582Y0000761134D01*
X0000634981Y0000764203D01*
X0000630668Y0000766147D01*
X0000625984Y0000766813D01*
X0000613788Y0000766813D01*
X0000632149Y0000785173D01*
X0000632498Y0000785598D01*
X0000791073Y0000785598D01*
X0000818897Y0000757775D01*
X0000846721Y0000785598D01*
X0000842693Y0000792505D01*
X0000833559Y0000796293D01*
X0000823862Y0000798226D01*
X0000813974Y0000798230D01*
X0000804276Y0000796305D01*
X0000795139Y0000792525D01*
X0000795101Y0000792505D01*
X0000791073Y0000785598D01*
X0000632498Y0000785598D01*
X0000633476Y0000786789D01*
X0000634820Y0000788391D01*
X0000634877Y0000788495D01*
X0000634953Y0000788587D01*
X0000635941Y0000790430D01*
X0000636948Y0000792263D01*
X0000636984Y0000792376D01*
X0000637041Y0000792481D01*
X0000637652Y0000794481D01*
X0000638284Y0000796474D01*
X0000638298Y0000796592D01*
X0000638332Y0000796706D01*
X0000638468Y0000798040D01*
X0000640187Y0000800057D01*
X0000642131Y0000804371D01*
X0000642797Y0000809055D01*
X0000642797Y0000844488D01*
X0000648541Y0000844488D01*
X0000648541Y0000809055D01*
X0000648753Y0000806390D01*
X0000650153Y0000801871D01*
X0000652756Y0000797920D01*
X0000656357Y0000794851D01*
X0000660670Y0000792907D01*
X0000665354Y0000792241D01*
X0000685039Y0000792241D01*
X0000687703Y0000792454D01*
X0000692223Y0000793853D01*
X0000696173Y0000796457D01*
X0000699242Y0000800057D01*
X0000701080Y0000804133D01*
X0000878418Y0000804133D01*
X0000917201Y0000765350D01*
X0000916571Y0000763881D01*
X0000914444Y0000753874D01*
X0000914301Y0000743645D01*
X0000916148Y0000733583D01*
X0000919914Y0000724071D01*
X0000925455Y0000715472D01*
X0000932562Y0000708113D01*
X0000940962Y0000702274D01*
X0000950337Y0000698179D01*
X0000960328Y0000695982D01*
X0000970556Y0000695768D01*
X0000980631Y0000697544D01*
X0000990169Y0000701244D01*
X0000998807Y0000706725D01*
X0001006215Y0000713780D01*
X0001012112Y0000722140D01*
X0001016273Y0000731485D01*
X0001018539Y0000741461D01*
X0001018570Y0000743645D01*
X0001061939Y0000743645D01*
X0001063786Y0000733583D01*
X0001067552Y0000724071D01*
X0001073093Y0000715472D01*
X0001080200Y0000708113D01*
X0001088600Y0000702274D01*
X0001097975Y0000698179D01*
X0001107966Y0000695982D01*
X0001118194Y0000695768D01*
X0001128269Y0000697544D01*
X0001137807Y0000701244D01*
X0001146444Y0000706725D01*
X0001153853Y0000713780D01*
X0001159750Y0000722140D01*
X0001163911Y0000731485D01*
X0001166177Y0000741461D01*
X0001166340Y0000753146D01*
X0001164353Y0000763181D01*
X0001160455Y0000772640D01*
X0001154794Y0000781161D01*
X0001147585Y0000788420D01*
X0001139104Y0000794140D01*
X0001129673Y0000798105D01*
X0001119652Y0000800162D01*
X0001109422Y0000800233D01*
X0001099373Y0000798316D01*
X0001089888Y0000794484D01*
X0001081328Y0000788882D01*
X0001074018Y0000781724D01*
X0001068239Y0000773283D01*
X0001064209Y0000763881D01*
X0001062082Y0000753874D01*
X0001061939Y0000743645D01*
X0001018570Y0000743645D01*
X0001018703Y0000753146D01*
X0001016715Y0000763181D01*
X0001012817Y0000772640D01*
X0001007156Y0000781161D01*
X0000999947Y0000788420D01*
X0000991466Y0000794140D01*
X0000982035Y0000798105D01*
X0000972014Y0000800162D01*
X0000961784Y0000800233D01*
X0000951735Y0000798316D01*
X0000949263Y0000797317D01*
X0000903802Y0000842778D01*
X0000902187Y0000844105D01*
X0000900584Y0000845450D01*
X0000900480Y0000845507D01*
X0000900388Y0000845583D01*
X0000898545Y0000846571D01*
X0000896713Y0000847578D01*
X0000896599Y0000847614D01*
X0000896494Y0000847671D01*
X0000894495Y0000848282D01*
X0000892501Y0000848914D01*
X0000892383Y0000848927D01*
X0000892269Y0000848962D01*
X0000890188Y0000849174D01*
X0000888111Y0000849407D01*
X0000887878Y0000849408D01*
X0000887874Y0000849409D01*
X0000887870Y0000849408D01*
X0000887795Y0000849409D01*
X0000700941Y0000849409D01*
X0000700240Y0000851672D01*
X0000697637Y0000855622D01*
X0000694036Y0000858691D01*
X0000689723Y0000860635D01*
X0000685039Y0000861301D01*
X0000665354Y0000861301D01*
X0000662689Y0000861088D01*
X0000658170Y0000859689D01*
X0000654219Y0000857086D01*
X0000651150Y0000853485D01*
X0000649206Y0000849172D01*
X0000648541Y0000844488D01*
X0000642797Y0000844488D01*
X0000642585Y0000847152D01*
X0000641185Y0000851672D01*
X0000638779Y0000855323D01*
X0000638779Y0000890824D01*
X0000640767Y0000893157D01*
X0000642712Y0000897471D01*
X0000643377Y0000902155D01*
X0000643377Y0000937588D01*
X0000649121Y0000937588D01*
X0000649121Y0000902155D01*
X0000649333Y0000899490D01*
X0000650733Y0000894971D01*
X0000653336Y0000891020D01*
X0000656937Y0000887951D01*
X0000661250Y0000886007D01*
X0000665934Y0000885341D01*
X0000685619Y0000885341D01*
X0000688284Y0000885554D01*
X0000692803Y0000886953D01*
X0000696137Y0000889150D01*
X0000719405Y0000865882D01*
X0000721020Y0000864555D01*
X0000722622Y0000863211D01*
X0000722727Y0000863153D01*
X0000722819Y0000863078D01*
X0000724662Y0000862089D01*
X0000726494Y0000861082D01*
X0000726608Y0000861046D01*
X0000726712Y0000860990D01*
X0000728712Y0000860378D01*
X0000730705Y0000859746D01*
X0000730824Y0000859733D01*
X0000730937Y0000859698D01*
X0000733019Y0000859487D01*
X0000735096Y0000859254D01*
X0000735328Y0000859252D01*
X0000735333Y0000859252D01*
X0000735337Y0000859252D01*
X0000735412Y0000859251D01*
X0000903543Y0000859251D01*
X0000905624Y0000859456D01*
X0000907707Y0000859638D01*
X0000907821Y0000859671D01*
X0000907940Y0000859683D01*
X0000909940Y0000860287D01*
X0000911950Y0000860870D01*
X0000912056Y0000860925D01*
X0000912169Y0000860960D01*
X0000914014Y0000861940D01*
X0000915872Y0000862904D01*
X0000915965Y0000862978D01*
X0000916070Y0000863034D01*
X0000917691Y0000864355D01*
X0000919325Y0000865660D01*
X0000919491Y0000865823D01*
X0000919494Y0000865826D01*
X0000919497Y0000865829D01*
X0000919550Y0000865882D01*
X0000949196Y0000895528D01*
X0000950337Y0000895029D01*
X0000960328Y0000892832D01*
X0000970556Y0000892618D01*
X0000980631Y0000894395D01*
X0000990169Y0000898094D01*
X0000998807Y0000903576D01*
X0001006215Y0000910631D01*
X0001012112Y0000918990D01*
X0001016273Y0000928336D01*
X0001018539Y0000938312D01*
X0001018570Y0000940495D01*
X0001061939Y0000940495D01*
X0001063786Y0000930433D01*
X0001067552Y0000920921D01*
X0001073093Y0000912322D01*
X0001080200Y0000904963D01*
X0001088600Y0000899125D01*
X0001097975Y0000895029D01*
X0001107966Y0000892832D01*
X0001118194Y0000892618D01*
X0001128269Y0000894395D01*
X0001137807Y0000898094D01*
X0001146444Y0000903576D01*
X0001153853Y0000910631D01*
X0001159750Y0000918990D01*
X0001163911Y0000928336D01*
X0001166177Y0000938312D01*
X0001166340Y0000949996D01*
X0001164353Y0000960032D01*
X0001160455Y0000969490D01*
X0001154794Y0000978011D01*
X0001147585Y0000985270D01*
X0001139104Y0000990991D01*
X0001129673Y0000994955D01*
X0001119652Y0000997012D01*
X0001109422Y0000997083D01*
X0001099373Y0000995166D01*
X0001089888Y0000991334D01*
X0001081328Y0000985733D01*
X0001074018Y0000978575D01*
X0001068239Y0000970134D01*
X0001064209Y0000960731D01*
X0001062082Y0000950724D01*
X0001061939Y0000940495D01*
X0001018570Y0000940495D01*
X0001018703Y0000949996D01*
X0001016715Y0000960032D01*
X0001012817Y0000969490D01*
X0001007156Y0000978011D01*
X0000999947Y0000985270D01*
X0000991466Y0000990991D01*
X0000982035Y0000994955D01*
X0000972014Y0000997012D01*
X0000961784Y0000997083D01*
X0000951735Y0000995166D01*
X0000942250Y0000991334D01*
X0000933690Y0000985733D01*
X0000926381Y0000978575D01*
X0000920601Y0000970134D01*
X0000916571Y0000960731D01*
X0000914444Y0000950724D01*
X0000914301Y0000940495D01*
X0000916148Y0000930433D01*
X0000917261Y0000927622D01*
X0000894166Y0000904527D01*
X0000845095Y0000904527D01*
X0000846721Y0000907314D01*
X0000818897Y0000935138D01*
X0000791073Y0000907314D01*
X0000792699Y0000904527D01*
X0000744789Y0000904527D01*
X0000713437Y0000935878D01*
X0000711822Y0000937205D01*
X0000710220Y0000938550D01*
X0000710115Y0000938607D01*
X0000710023Y0000938683D01*
X0000708181Y0000939671D01*
X0000707657Y0000939959D01*
X0000768698Y0000939959D01*
X0000770623Y0000930260D01*
X0000774403Y0000921123D01*
X0000774423Y0000921085D01*
X0000781330Y0000917058D01*
X0000809154Y0000944881D01*
X0000828641Y0000944881D01*
X0000856464Y0000917058D01*
X0000863371Y0000921085D01*
X0000867159Y0000930219D01*
X0000869092Y0000939916D01*
X0000869096Y0000949804D01*
X0000867171Y0000959503D01*
X0000863391Y0000968640D01*
X0000863371Y0000968677D01*
X0000856464Y0000972705D01*
X0000828641Y0000944881D01*
X0000809154Y0000944881D01*
X0000781330Y0000972705D01*
X0000774423Y0000968677D01*
X0000770635Y0000959544D01*
X0000768702Y0000949847D01*
X0000768698Y0000939959D01*
X0000707657Y0000939959D01*
X0000706348Y0000940678D01*
X0000706235Y0000940714D01*
X0000706130Y0000940771D01*
X0000704130Y0000941382D01*
X0000702137Y0000942014D01*
X0000702019Y0000942027D01*
X0000701905Y0000942062D01*
X0000701651Y0000942088D01*
X0000700820Y0000944772D01*
X0000698217Y0000948722D01*
X0000694616Y0000951791D01*
X0000690303Y0000953735D01*
X0000685619Y0000954401D01*
X0000665934Y0000954401D01*
X0000663270Y0000954188D01*
X0000658750Y0000952789D01*
X0000654800Y0000950186D01*
X0000651731Y0000946585D01*
X0000649787Y0000942272D01*
X0000649121Y0000937588D01*
X0000643377Y0000937588D01*
X0000643165Y0000940252D01*
X0000641765Y0000944772D01*
X0000639162Y0000948722D01*
X0000635561Y0000951791D01*
X0000631248Y0000953735D01*
X0000626564Y0000954401D01*
X0000606879Y0000954401D01*
X0000604214Y0000954188D01*
X0000599695Y0000952789D01*
X0000595745Y0000950186D01*
X0000592676Y0000946585D01*
X0000590731Y0000942272D01*
X0000590066Y0000937588D01*
X0000590066Y0000902155D01*
X0000590278Y0000899490D01*
X0000591678Y0000894971D01*
X0000593503Y0000892200D01*
X0000593503Y0000855137D01*
X0000592095Y0000853485D01*
X0000590151Y0000849172D01*
X0000589485Y0000844488D01*
X0000589485Y0000809055D01*
X0000589671Y0000806725D01*
X0000507614Y0000724668D01*
X0000506287Y0000723053D01*
X0000504943Y0000721450D01*
X0000504885Y0000721346D01*
X0000504810Y0000721254D01*
X0000504012Y0000719765D01*
X0000493110Y0000719765D01*
X0000490445Y0000719553D01*
X0000485926Y0000718153D01*
X0000481975Y0000715550D01*
X0000478906Y0000711949D01*
X0000476962Y0000707636D01*
X0000476297Y0000702952D01*
X0000476297Y0000679330D01*
X0000476509Y0000676666D01*
X0000477909Y0000672146D01*
X0000480512Y0000668196D01*
X0000482900Y0000666160D01*
X0000481975Y0000665550D01*
X0000478906Y0000661949D01*
X0000476962Y0000657636D01*
X0000476297Y0000652952D01*
X0000476297Y0000629330D01*
X0000476509Y0000626666D01*
X0000477909Y0000622146D01*
X0000480512Y0000618196D01*
X0000482900Y0000616160D01*
X0000481975Y0000615550D01*
X0000478906Y0000611949D01*
X0000476962Y0000607636D01*
X0000476297Y0000602952D01*
X0000476297Y0000579330D01*
X0000476509Y0000576666D01*
X0000477909Y0000572146D01*
X0000479188Y0000570204D01*
X0000457677Y0000591716D01*
X0000457677Y0000654862D01*
X0000458317Y0000656301D01*
X0000459557Y0000661759D01*
X0000459646Y0000668153D01*
X0000458559Y0000673644D01*
X0000456426Y0000678819D01*
X0000453328Y0000683481D01*
X0000449384Y0000687453D01*
X0000444743Y0000690583D01*
X0000439583Y0000692753D01*
X0000434100Y0000693878D01*
X0000428502Y0000693917D01*
X0000423004Y0000692868D01*
X0000417814Y0000690771D01*
X0000413130Y0000687706D01*
X0000409131Y0000683790D01*
X0000405968Y0000679171D01*
X0000403763Y0000674026D01*
X0000402599Y0000668551D01*
X0000402521Y0000662954D01*
X0000403531Y0000657448D01*
X0000404527Y0000654934D01*
X0000404527Y0000598353D01*
X0000358348Y0000644532D01*
X0000358348Y0000652952D01*
X0000358136Y0000655617D01*
X0000356736Y0000660136D01*
X0000354133Y0000664087D01*
X0000351744Y0000666123D01*
X0000352669Y0000666732D01*
X0000355738Y0000670333D01*
X0000357682Y0000674646D01*
X0000358348Y0000679330D01*
X0000358348Y0000702952D01*
X0000358136Y0000705617D01*
X0000356736Y0000710136D01*
X0000354133Y0000714087D01*
X0000350532Y0000717156D01*
X0000346219Y0000719100D01*
X0000341535Y0000719765D01*
X0000280511Y0000719765D01*
X0000277847Y0000719553D01*
X0000273327Y0000718153D01*
X0000269377Y0000715550D01*
X0000267867Y0000713779D01*
X0000265944Y0000713779D01*
X0000263863Y0000713575D01*
X0000261780Y0000713393D01*
X0000261666Y0000713359D01*
X0000261547Y0000713348D01*
X0000259547Y0000712744D01*
X0000257537Y0000712160D01*
X0000257432Y0000712105D01*
X0000257318Y0000712071D01*
X0000255473Y0000711090D01*
X0000253615Y0000710127D01*
X0000253522Y0000710053D01*
X0000253417Y0000709997D01*
X0000251797Y0000708676D01*
X0000250162Y0000707371D01*
X0000249996Y0000707207D01*
X0000249993Y0000707204D01*
X0000249990Y0000707201D01*
X0000249937Y0000707149D01*
X0000190865Y0000648077D01*
X0000190219Y0000648077D01*
X0000190219Y0000664789D01*
X0000190006Y0000667453D01*
X0000188607Y0000671973D01*
X0000186004Y0000675923D01*
X0000182403Y0000678992D01*
X0000178090Y0000680936D01*
X0000173406Y0000681602D01*
X0000168946Y0000681602D01*
X0000173294Y0000685098D01*
X0000180330Y0000693483D01*
X0000185603Y0000703074D01*
X0000188912Y0000713507D01*
X0000190132Y0000724384D01*
X0000190138Y0000725167D01*
X0000190138Y0000725710D01*
X0000189070Y0000736603D01*
X0000185906Y0000747081D01*
X0000180768Y0000756746D01*
X0000173850Y0000765227D01*
X0000165416Y0000772204D01*
X0000155788Y0000777410D01*
X0000148950Y0000779527D01*
X0000338501Y0000779527D01*
X0000338501Y0000748031D01*
X0000338714Y0000745366D01*
X0000340113Y0000740847D01*
X0000342717Y0000736897D01*
X0000346317Y0000733828D01*
X0000350630Y0000731883D01*
X0000355314Y0000731218D01*
X0000384842Y0000731218D01*
X0000387507Y0000731430D01*
X0000392026Y0000732830D01*
X0000395976Y0000735433D01*
X0000396849Y0000736457D01*
X0000402115Y0000735299D01*
X0000407711Y0000735182D01*
X0000413224Y0000736154D01*
X0000418443Y0000738178D01*
X0000423169Y0000741178D01*
X0000425838Y0000743719D01*
X0000426727Y0000740847D01*
X0000429331Y0000736897D01*
X0000432931Y0000733828D01*
X0000437245Y0000731883D01*
X0000441929Y0000731218D01*
X0000471456Y0000731218D01*
X0000474121Y0000731430D01*
X0000478640Y0000732830D01*
X0000482591Y0000735433D01*
X0000483464Y0000736457D01*
X0000488730Y0000735299D01*
X0000494326Y0000735182D01*
X0000499839Y0000736154D01*
X0000505058Y0000738178D01*
X0000509784Y0000741178D01*
X0000513837Y0000745038D01*
X0000517064Y0000749612D01*
X0000519341Y0000754726D01*
X0000520581Y0000760184D01*
X0000520670Y0000766578D01*
X0000519583Y0000772069D01*
X0000517450Y0000777244D01*
X0000514352Y0000781907D01*
X0000510408Y0000785878D01*
X0000505767Y0000789009D01*
X0000500607Y0000791178D01*
X0000495124Y0000792303D01*
X0000489526Y0000792342D01*
X0000484028Y0000791293D01*
X0000483543Y0000791097D01*
X0000480453Y0000793730D01*
X0000479013Y0000794379D01*
X0000480868Y0000795618D01*
X0000482924Y0000797675D01*
X0000484540Y0000800093D01*
X0000485653Y0000802780D01*
X0000486220Y0000805632D01*
X0000486220Y0000812253D01*
X0000482529Y0000815944D01*
X0000463582Y0000815944D01*
X0000463582Y0000815157D01*
X0000449803Y0000815157D01*
X0000449803Y0000815944D01*
X0000430856Y0000815944D01*
X0000427165Y0000812253D01*
X0000427165Y0000805632D01*
X0000427732Y0000802780D01*
X0000428845Y0000800093D01*
X0000430461Y0000797675D01*
X0000432517Y0000795618D01*
X0000434294Y0000794431D01*
X0000430794Y0000792125D01*
X0000427725Y0000788524D01*
X0000425781Y0000784211D01*
X0000425739Y0000783919D01*
X0000423793Y0000785878D01*
X0000419153Y0000789009D01*
X0000413992Y0000791178D01*
X0000408509Y0000792303D01*
X0000402912Y0000792342D01*
X0000397413Y0000791293D01*
X0000396928Y0000791098D01*
X0000393839Y0000793730D01*
X0000392399Y0000794379D01*
X0000394253Y0000795618D01*
X0000396310Y0000797675D01*
X0000397926Y0000800093D01*
X0000399038Y0000802780D01*
X0000399606Y0000805632D01*
X0000399606Y0000812253D01*
X0000395915Y0000815944D01*
X0000376968Y0000815944D01*
X0000376968Y0000815157D01*
X0000363188Y0000815157D01*
X0000363188Y0000815944D01*
X0000344242Y0000815944D01*
X0000340551Y0000812253D01*
X0000340551Y0000805632D01*
X0000341118Y0000802780D01*
X0000342231Y0000800093D01*
X0000343847Y0000797675D01*
X0000345903Y0000795618D01*
X0000347680Y0000794431D01*
X0000344180Y0000792125D01*
X0000341111Y0000788524D01*
X0000339167Y0000784211D01*
X0000338501Y0000779527D01*
X0000148950Y0000779527D01*
X0000145332Y0000780647D01*
X0000134447Y0000781791D01*
X0000123547Y0000780799D01*
X0000113047Y0000777709D01*
X0000103347Y0000772638D01*
X0000094817Y0000765779D01*
X0000087781Y0000757395D01*
X0000082508Y0000747803D01*
X0000079199Y0000737370D01*
X0000077979Y0000726493D01*
X0000077973Y0000725710D01*
X0000077973Y0000725167D01*
X0000079041Y0000714274D01*
X0000082205Y0000703796D01*
X0000087343Y0000694132D01*
X0000094261Y0000685650D01*
X0000099154Y0000681602D01*
X0000094706Y0000681602D01*
X0000092041Y0000681389D01*
X0000087522Y0000679990D01*
X0000083571Y0000677387D01*
X0000080502Y0000673786D01*
X0000078558Y0000669473D01*
X0000077892Y0000664789D01*
X0000017716Y0000664789D01*
X0000017716Y0001005905D01*
X0000125014Y0001005905D01*
X0000123349Y0001005753D01*
X0000123349Y0001005753D01*
G37*
X0000123349Y0001005753D02*
X0000112849Y0001002663D01*
X0000103149Y0000997592D01*
X0000094619Y0000990734D01*
X0000087583Y0000982349D01*
X0000082311Y0000972758D01*
X0000079001Y0000962325D01*
X0000077781Y0000951448D01*
X0000077775Y0000950665D01*
X0000077775Y0000950122D01*
X0000078844Y0000939229D01*
X0000082007Y0000928751D01*
X0000087146Y0000919086D01*
X0000094063Y0000910604D01*
X0000098957Y0000906556D01*
X0000094508Y0000906556D01*
X0000091843Y0000906344D01*
X0000087324Y0000904944D01*
X0000083373Y0000902341D01*
X0000080304Y0000898740D01*
X0000078360Y0000894427D01*
X0000077695Y0000889743D01*
X0000077695Y0000811043D01*
X0000077907Y0000808379D01*
X0000079307Y0000803859D01*
X0000081910Y0000799909D01*
X0000085511Y0000796840D01*
X0000089824Y0000794896D01*
X0000094508Y0000794230D01*
X0000173208Y0000794230D01*
X0000175872Y0000794442D01*
X0000180392Y0000795842D01*
X0000184342Y0000798445D01*
X0000187411Y0000802046D01*
X0000189355Y0000806359D01*
X0000190021Y0000811043D01*
X0000190021Y0000828369D01*
X0000191416Y0000828790D01*
X0000193426Y0000829374D01*
X0000193532Y0000829429D01*
X0000193645Y0000829464D01*
X0000195490Y0000830444D01*
X0000197348Y0000831407D01*
X0000197441Y0000831482D01*
X0000197546Y0000831538D01*
X0000199167Y0000832859D01*
X0000200801Y0000834164D01*
X0000200967Y0000834327D01*
X0000200970Y0000834330D01*
X0000200973Y0000834333D01*
X0000201026Y0000834386D01*
X0000206676Y0000840036D01*
X0000340551Y0000840036D01*
X0000340551Y0000833415D01*
X0000344242Y0000829724D01*
X0000363188Y0000829724D01*
X0000363188Y0000849655D01*
X0000376968Y0000849655D01*
X0000376968Y0000829724D01*
X0000395915Y0000829724D01*
X0000399606Y0000833415D01*
X0000399606Y0000840036D01*
X0000427165Y0000840036D01*
X0000427165Y0000833415D01*
X0000430856Y0000829724D01*
X0000449803Y0000829724D01*
X0000449803Y0000849655D01*
X0000463582Y0000849655D01*
X0000463582Y0000829724D01*
X0000482529Y0000829724D01*
X0000486220Y0000833415D01*
X0000486220Y0000840036D01*
X0000485653Y0000842889D01*
X0000484540Y0000845575D01*
X0000482924Y0000847993D01*
X0000480868Y0000850050D01*
X0000478449Y0000851666D01*
X0000475763Y0000852779D01*
X0000472910Y0000853346D01*
X0000467273Y0000853346D01*
X0000463582Y0000849655D01*
X0000449803Y0000849655D01*
X0000446112Y0000853346D01*
X0000440474Y0000853346D01*
X0000437622Y0000852779D01*
X0000434935Y0000851666D01*
X0000432517Y0000850050D01*
X0000430461Y0000847993D01*
X0000428845Y0000845575D01*
X0000427732Y0000842889D01*
X0000427165Y0000840036D01*
X0000399606Y0000840036D01*
X0000399038Y0000842889D01*
X0000397926Y0000845575D01*
X0000396310Y0000847993D01*
X0000394253Y0000850050D01*
X0000391835Y0000851666D01*
X0000389148Y0000852779D01*
X0000386296Y0000853346D01*
X0000380659Y0000853346D01*
X0000376968Y0000849655D01*
X0000363188Y0000849655D01*
X0000359497Y0000853346D01*
X0000353860Y0000853346D01*
X0000351008Y0000852779D01*
X0000348321Y0000851666D01*
X0000345903Y0000850050D01*
X0000343847Y0000847993D01*
X0000342231Y0000845575D01*
X0000341118Y0000842889D01*
X0000340551Y0000840036D01*
X0000206676Y0000840036D01*
X0000233765Y0000867125D01*
X0000470744Y0000867125D01*
X0000474196Y0000864726D01*
X0000479325Y0000862485D01*
X0000484792Y0000861283D01*
X0000490389Y0000861166D01*
X0000495901Y0000862138D01*
X0000501120Y0000864162D01*
X0000505846Y0000867161D01*
X0000509900Y0000871022D01*
X0000513127Y0000875596D01*
X0000515404Y0000880709D01*
X0000516644Y0000886168D01*
X0000516733Y0000892561D01*
X0000515646Y0000898052D01*
X0000513513Y0000903228D01*
X0000510415Y0000907890D01*
X0000506471Y0000911862D01*
X0000501830Y0000914992D01*
X0000496670Y0000917161D01*
X0000491186Y0000918287D01*
X0000485589Y0000918326D01*
X0000480090Y0000917277D01*
X0000474900Y0000915180D01*
X0000470653Y0000912400D01*
X0000224388Y0000912400D01*
X0000222307Y0000912196D01*
X0000220224Y0000912014D01*
X0000220110Y0000911981D01*
X0000219991Y0000911969D01*
X0000217991Y0000911365D01*
X0000215981Y0000910782D01*
X0000215875Y0000910727D01*
X0000215762Y0000910692D01*
X0000213917Y0000909712D01*
X0000212059Y0000908748D01*
X0000211966Y0000908674D01*
X0000211861Y0000908618D01*
X0000210241Y0000907297D01*
X0000208606Y0000905992D01*
X0000208440Y0000905829D01*
X0000208437Y0000905826D01*
X0000208434Y0000905822D01*
X0000208381Y0000905770D01*
X0000190021Y0000887410D01*
X0000190021Y0000889743D01*
X0000189808Y0000892408D01*
X0000188409Y0000896927D01*
X0000185806Y0000900878D01*
X0000182205Y0000903947D01*
X0000177892Y0000905891D01*
X0000173208Y0000906556D01*
X0000168748Y0000906556D01*
X0000173096Y0000910053D01*
X0000180132Y0000918437D01*
X0000185405Y0000928029D01*
X0000188715Y0000938462D01*
X0000189935Y0000949339D01*
X0000189940Y0000950122D01*
X0000189940Y0000950665D01*
X0000188872Y0000961558D01*
X0000185708Y0000972036D01*
X0000180570Y0000981700D01*
X0000179959Y0000982449D01*
X0000791073Y0000982449D01*
X0000818897Y0000954625D01*
X0000846721Y0000982449D01*
X0000842693Y0000989355D01*
X0000833559Y0000993143D01*
X0000823862Y0000995076D01*
X0000813974Y0000995080D01*
X0000804276Y0000993155D01*
X0000795139Y0000989375D01*
X0000795101Y0000989355D01*
X0000791073Y0000982449D01*
X0000179959Y0000982449D01*
X0000173652Y0000990182D01*
X0000165219Y0000997159D01*
X0000155590Y0001002365D01*
X0000145135Y0001005601D01*
X0000142245Y0001005905D01*
X0001222440Y0001005905D01*
X0001222440Y0000017716D01*
X0000017716Y0000017716D01*
X0000017716Y0000114940D01*
X0000077695Y0000114940D01*
X0000077695Y0000036240D01*
X0000077907Y0000033575D01*
X0000079307Y0000029056D01*
X0000081910Y0000025106D01*
X0000085511Y0000022037D01*
X0000089824Y0000020092D01*
X0000094508Y0000019427D01*
X0000173208Y0000019427D01*
X0000175872Y0000019639D01*
X0000180392Y0000021039D01*
X0000184342Y0000023642D01*
X0000187411Y0000027243D01*
X0000189355Y0000031556D01*
X0000190021Y0000036240D01*
X0000190021Y0000114940D01*
X0000189808Y0000117605D01*
X0000188409Y0000122124D01*
X0000185806Y0000126074D01*
X0000182402Y0000128976D01*
X0000288950Y0000128976D01*
X0000288950Y0000048976D01*
X0000289162Y0000046311D01*
X0000290562Y0000041792D01*
X0000293165Y0000037841D01*
X0000296766Y0000034772D01*
X0000301079Y0000032828D01*
X0000305763Y0000032163D01*
X0000373763Y0000032163D01*
X0000376428Y0000032375D01*
X0000380947Y0000033775D01*
X0000384898Y0000036378D01*
X0000387967Y0000039979D01*
X0000389911Y0000044292D01*
X0000390577Y0000048976D01*
X0000390577Y0000070929D01*
X0000392859Y0000063369D01*
X0000397507Y0000054627D01*
X0000403765Y0000046954D01*
X0000411394Y0000040642D01*
X0000420104Y0000035933D01*
X0000429562Y0000033005D01*
X0000439409Y0000031970D01*
X0000449270Y0000032868D01*
X0000458768Y0000035663D01*
X0000467542Y0000040250D01*
X0000475259Y0000046455D01*
X0000481623Y0000054039D01*
X0000486393Y0000062716D01*
X0000489387Y0000072154D01*
X0000489749Y0000075380D01*
X0000489997Y0000072847D01*
X0000492859Y0000063369D01*
X0000497507Y0000054627D01*
X0000503765Y0000046954D01*
X0000511394Y0000040642D01*
X0000520104Y0000035933D01*
X0000529562Y0000033005D01*
X0000539409Y0000031970D01*
X0000549270Y0000032868D01*
X0000558768Y0000035663D01*
X0000567542Y0000040250D01*
X0000575259Y0000046455D01*
X0000581623Y0000054039D01*
X0000586393Y0000062716D01*
X0000589387Y0000072154D01*
X0000589648Y0000074479D01*
X0000591801Y0000074479D01*
X0000594380Y0000065285D01*
X0000598704Y0000056771D01*
X0000604605Y0000049264D01*
X0000611857Y0000043053D01*
X0000620182Y0000038376D01*
X0000625407Y0000036373D01*
X0000632873Y0000038433D01*
X0000632873Y0000082086D01*
X0000646653Y0000082086D01*
X0000646653Y0000038433D01*
X0000654120Y0000036373D01*
X0000659344Y0000038376D01*
X0000667669Y0000043053D01*
X0000674921Y0000049264D01*
X0000680823Y0000056771D01*
X0000685146Y0000065285D01*
X0000687725Y0000074479D01*
X0000684773Y0000082086D01*
X0000646653Y0000082086D01*
X0000632873Y0000082086D01*
X0000594753Y0000082086D01*
X0000591801Y0000074479D01*
X0000589648Y0000074479D01*
X0000590491Y0000081993D01*
X0000590496Y0000082701D01*
X0000590496Y0000095250D01*
X0000689031Y0000095250D01*
X0000689031Y0000082701D01*
X0000689997Y0000072847D01*
X0000692859Y0000063369D01*
X0000697507Y0000054627D01*
X0000703765Y0000046954D01*
X0000711394Y0000040642D01*
X0000720104Y0000035933D01*
X0000729562Y0000033005D01*
X0000739409Y0000031970D01*
X0000749270Y0000032868D01*
X0000758768Y0000035663D01*
X0000767542Y0000040250D01*
X0000775259Y0000046455D01*
X0000781623Y0000054039D01*
X0000786393Y0000062716D01*
X0000789387Y0000072154D01*
X0000790491Y0000081993D01*
X0000790496Y0000082701D01*
X0000790496Y0000095250D01*
X0000789529Y0000105104D01*
X0000786668Y0000114583D01*
X0000782019Y0000123325D01*
X0000775761Y0000130998D01*
X0000768132Y0000137309D01*
X0000759423Y0000142019D01*
X0000749964Y0000144946D01*
X0000740117Y0000145981D01*
X0000730257Y0000145084D01*
X0000720759Y0000142289D01*
X0000711984Y0000137701D01*
X0000704268Y0000131497D01*
X0000697903Y0000123912D01*
X0000693133Y0000115236D01*
X0000690140Y0000105798D01*
X0000689036Y0000095959D01*
X0000689031Y0000095250D01*
X0000590496Y0000095250D01*
X0000589689Y0000103473D01*
X0000591801Y0000103473D01*
X0000594753Y0000095866D01*
X0000632873Y0000095866D01*
X0000632873Y0000139519D01*
X0000646653Y0000139519D01*
X0000646653Y0000095866D01*
X0000684773Y0000095866D01*
X0000687725Y0000103473D01*
X0000685146Y0000112667D01*
X0000680823Y0000121181D01*
X0000674921Y0000128687D01*
X0000667669Y0000134899D01*
X0000659344Y0000139576D01*
X0000654120Y0000141578D01*
X0000646653Y0000139519D01*
X0000632873Y0000139519D01*
X0000625407Y0000141578D01*
X0000620182Y0000139576D01*
X0000611857Y0000134899D01*
X0000604605Y0000128687D01*
X0000598704Y0000121181D01*
X0000594380Y0000112667D01*
X0000591801Y0000103473D01*
X0000589689Y0000103473D01*
X0000589529Y0000105104D01*
X0000586668Y0000114583D01*
X0000582019Y0000123325D01*
X0000575761Y0000130998D01*
X0000568132Y0000137309D01*
X0000559423Y0000142019D01*
X0000549964Y0000144946D01*
X0000540117Y0000145981D01*
X0000530257Y0000145084D01*
X0000520759Y0000142289D01*
X0000511984Y0000137701D01*
X0000504268Y0000131497D01*
X0000497903Y0000123912D01*
X0000493133Y0000115236D01*
X0000490140Y0000105798D01*
X0000489778Y0000102572D01*
X0000489529Y0000105104D01*
X0000486668Y0000114583D01*
X0000482019Y0000123325D01*
X0000475761Y0000130998D01*
X0000468132Y0000137309D01*
X0000459423Y0000142019D01*
X0000449964Y0000144946D01*
X0000440117Y0000145981D01*
X0000430257Y0000145084D01*
X0000420759Y0000142289D01*
X0000411984Y0000137701D01*
X0000404268Y0000131497D01*
X0000397903Y0000123912D01*
X0000393133Y0000115236D01*
X0000390577Y0000107175D01*
X0000390577Y0000128976D01*
X0000390364Y0000131640D01*
X0000388964Y0000136160D01*
X0000386361Y0000140110D01*
X0000382760Y0000143179D01*
X0000378447Y0000145123D01*
X0000373763Y0000145789D01*
X0000305763Y0000145789D01*
X0000303099Y0000145577D01*
X0000298579Y0000144177D01*
X0000294629Y0000141574D01*
X0000291560Y0000137973D01*
X0000289616Y0000133660D01*
X0000288950Y0000128976D01*
X0000182402Y0000128976D01*
X0000182205Y0000129143D01*
X0000177892Y0000131088D01*
X0000173208Y0000131753D01*
X0000168748Y0000131753D01*
X0000173096Y0000135249D01*
X0000180132Y0000143634D01*
X0000185405Y0000153226D01*
X0000188715Y0000163659D01*
X0000189935Y0000174536D01*
X0000189940Y0000175319D01*
X0000189940Y0000175861D01*
X0000188872Y0000186755D01*
X0000186773Y0000193707D01*
X0000220428Y0000227362D01*
X0000281769Y0000227362D01*
X0000281769Y0000211968D01*
X0000281981Y0000209303D01*
X0000283381Y0000204784D01*
X0000285984Y0000200834D01*
X0000289585Y0000197765D01*
X0000293898Y0000195820D01*
X0000298582Y0000195155D01*
X0000378582Y0000195155D01*
X0000381247Y0000195367D01*
X0000385766Y0000196767D01*
X0000389717Y0000199370D01*
X0000392786Y0000202971D01*
X0000394730Y0000207284D01*
X0000395395Y0000211968D01*
X0000395395Y0000215312D01*
X0000398327Y0000211718D01*
X0000406858Y0000204660D01*
X0000416598Y0000199394D01*
X0000427175Y0000196120D01*
X0000438186Y0000194963D01*
X0000449213Y0000195966D01*
X0000459834Y0000199092D01*
X0000469647Y0000204222D01*
X0000478276Y0000211160D01*
X0000485393Y0000219642D01*
X0000490727Y0000229344D01*
X0000494075Y0000239898D01*
X0000495309Y0000250901D01*
X0000495314Y0000251694D01*
X0000495314Y0000252242D01*
X0000494234Y0000263262D01*
X0000491034Y0000273861D01*
X0000485836Y0000283638D01*
X0000478838Y0000292218D01*
X0000470306Y0000299276D01*
X0000460567Y0000304542D01*
X0000449990Y0000307816D01*
X0000438978Y0000308973D01*
X0000427952Y0000307970D01*
X0000417330Y0000304844D01*
X0000407518Y0000299714D01*
X0000398889Y0000292776D01*
X0000395395Y0000288613D01*
X0000395395Y0000291968D01*
X0000395183Y0000294633D01*
X0000393783Y0000299152D01*
X0000391180Y0000303102D01*
X0000387579Y0000306171D01*
X0000383266Y0000308116D01*
X0000378582Y0000308781D01*
X0000298582Y0000308781D01*
X0000295918Y0000308569D01*
X0000291398Y0000307169D01*
X0000287448Y0000304566D01*
X0000284379Y0000300965D01*
X0000282435Y0000296652D01*
X0000281769Y0000291968D01*
X0000281769Y0000276574D01*
X0000210236Y0000276574D01*
X0000207973Y0000276352D01*
X0000205709Y0000276154D01*
X0000205585Y0000276118D01*
X0000205456Y0000276106D01*
X0000203281Y0000275449D01*
X0000201098Y0000274815D01*
X0000200983Y0000274755D01*
X0000200859Y0000274718D01*
X0000198852Y0000273651D01*
X0000196834Y0000272605D01*
X0000196733Y0000272524D01*
X0000196619Y0000272463D01*
X0000194857Y0000271026D01*
X0000193081Y0000269608D01*
X0000192901Y0000269431D01*
X0000192897Y0000269428D01*
X0000192895Y0000269425D01*
X0000192836Y0000269367D01*
X0000188915Y0000265446D01*
X0000189935Y0000274536D01*
X0000189940Y0000275319D01*
X0000189940Y0000275861D01*
X0000188872Y0000286754D01*
X0000185708Y0000297233D01*
X0000180570Y0000306897D01*
X0000173652Y0000315379D01*
X0000165219Y0000322356D01*
X0000155590Y0000327562D01*
X0000145135Y0000330798D01*
X0000134249Y0000331942D01*
X0000123349Y0000330950D01*
X0000112849Y0000327860D01*
X0000103149Y0000322789D01*
X0000094619Y0000315931D01*
X0000087583Y0000307546D01*
X0000082311Y0000297955D01*
X0000079001Y0000287522D01*
X0000077781Y0000276644D01*
X0000077775Y0000275861D01*
X0000077775Y0000275319D01*
X0000078844Y0000264426D01*
X0000082007Y0000253947D01*
X0000087146Y0000244283D01*
X0000094063Y0000235801D01*
X0000102497Y0000228824D01*
X0000108493Y0000225583D01*
X0000103149Y0000222789D01*
X0000094619Y0000215931D01*
X0000087583Y0000207546D01*
X0000082311Y0000197955D01*
X0000079001Y0000187522D01*
X0000077781Y0000176644D01*
X0000077775Y0000175861D01*
X0000077775Y0000175319D01*
X0000078844Y0000164426D01*
X0000082007Y0000153947D01*
X0000087146Y0000144283D01*
X0000094063Y0000135801D01*
X0000098957Y0000131753D01*
X0000094508Y0000131753D01*
X0000091843Y0000131541D01*
X0000087324Y0000130141D01*
X0000083373Y0000127538D01*
X0000080304Y0000123937D01*
X0000078360Y0000119624D01*
X0000077695Y0000114940D01*
X0000017716Y0000114940D01*
X0000017716Y0000438956D01*
X0000077695Y0000438956D01*
X0000077695Y0000360256D01*
X0000077907Y0000357591D01*
X0000079307Y0000353072D01*
X0000081910Y0000349121D01*
X0000085511Y0000346052D01*
X0000089824Y0000344108D01*
X0000094508Y0000343443D01*
X0000173208Y0000343443D01*
X0000175872Y0000343655D01*
X0000180392Y0000345055D01*
X0000184342Y0000347658D01*
X0000187411Y0000351259D01*
X0000189355Y0000355572D01*
X0000190021Y0000360256D01*
X0000190021Y0000438956D01*
X0000189808Y0000441620D01*
X0000188409Y0000446140D01*
X0000185806Y0000450090D01*
X0000182205Y0000453159D01*
X0000177892Y0000455103D01*
X0000173208Y0000455769D01*
X0000168748Y0000455769D01*
X0000173096Y0000459265D01*
X0000180132Y0000467650D01*
X0000185405Y0000477241D01*
X0000188715Y0000487674D01*
X0000189935Y0000498551D01*
X0000189940Y0000499334D01*
X0000189940Y0000499877D01*
X0000188872Y0000510770D01*
X0000185708Y0000521248D01*
X0000180570Y0000530913D01*
X0000180054Y0000531545D01*
X0000265748Y0000531545D01*
X0000265748Y0000527876D01*
X0000266315Y0000525024D01*
X0000267428Y0000522337D01*
X0000269044Y0000519919D01*
X0000271100Y0000517862D01*
X0000273518Y0000516247D01*
X0000276205Y0000515134D01*
X0000279057Y0000514566D01*
X0000300442Y0000514566D01*
X0000304133Y0000518257D01*
X0000304133Y0000535236D01*
X0000317913Y0000535236D01*
X0000317913Y0000518257D01*
X0000321604Y0000514566D01*
X0000342989Y0000514566D01*
X0000345841Y0000515134D01*
X0000348528Y0000516247D01*
X0000350946Y0000517862D01*
X0000353003Y0000519919D01*
X0000354618Y0000522337D01*
X0000355731Y0000525024D01*
X0000356299Y0000527876D01*
X0000356299Y0000531545D01*
X0000352608Y0000535236D01*
X0000317913Y0000535236D01*
X0000304133Y0000535236D01*
X0000269438Y0000535236D01*
X0000265748Y0000531545D01*
X0000180054Y0000531545D01*
X0000173652Y0000539395D01*
X0000165219Y0000546371D01*
X0000155590Y0000551577D01*
X0000145135Y0000554814D01*
X0000134249Y0000555958D01*
X0000123349Y0000554966D01*
X0000112849Y0000551876D01*
X0000103149Y0000546805D01*
X0000094619Y0000539946D01*
X0000087583Y0000531562D01*
X0000082311Y0000521970D01*
X0000079001Y0000511537D01*
X0000077781Y0000500660D01*
X0000077775Y0000499877D01*
X0000077775Y0000499334D01*
X0000078844Y0000488441D01*
X0000082007Y0000477963D01*
X0000087146Y0000468299D01*
X0000094063Y0000459817D01*
X0000098957Y0000455769D01*
X0000094508Y0000455769D01*
X0000091843Y0000455557D01*
X0000087324Y0000454157D01*
X0000083373Y0000451554D01*
X0000080304Y0000447953D01*
X0000078360Y0000443640D01*
X0000077695Y0000438956D01*
X0000017716Y0000438956D01*
X0000017716Y0000664789D01*
X0000077892Y0000664789D01*
X0000077892Y0000586089D01*
X0000078105Y0000583424D01*
X0000079504Y0000578905D01*
X0000082108Y0000574954D01*
X0000085708Y0000571885D01*
X0000090021Y0000569941D01*
X0000094706Y0000569275D01*
X0000173406Y0000569275D01*
X0000176070Y0000569488D01*
X0000180589Y0000570888D01*
X0000184540Y0000573491D01*
X0000187609Y0000577091D01*
X0000189553Y0000581405D01*
X0000189573Y0000581545D01*
X0000265748Y0000581545D01*
X0000265748Y0000577876D01*
X0000266315Y0000575024D01*
X0000267428Y0000572337D01*
X0000269044Y0000569919D01*
X0000271100Y0000567862D01*
X0000273518Y0000566247D01*
X0000273773Y0000566141D01*
X0000273518Y0000566036D01*
X0000271100Y0000564420D01*
X0000269044Y0000562364D01*
X0000267428Y0000559945D01*
X0000266315Y0000557259D01*
X0000265748Y0000554406D01*
X0000265748Y0000550738D01*
X0000269438Y0000547047D01*
X0000304133Y0000547047D01*
X0000304133Y0000564025D01*
X0000302017Y0000566141D01*
X0000304133Y0000568257D01*
X0000304133Y0000585236D01*
X0000269438Y0000585236D01*
X0000265748Y0000581545D01*
X0000189573Y0000581545D01*
X0000190219Y0000586089D01*
X0000190219Y0000602801D01*
X0000200242Y0000602801D01*
X0000202323Y0000603005D01*
X0000204406Y0000603187D01*
X0000204520Y0000603220D01*
X0000204639Y0000603232D01*
X0000206639Y0000603836D01*
X0000208649Y0000604420D01*
X0000208755Y0000604475D01*
X0000208868Y0000604509D01*
X0000210713Y0000605490D01*
X0000212571Y0000606453D01*
X0000212664Y0000606527D01*
X0000212769Y0000606583D01*
X0000214390Y0000607905D01*
X0000216024Y0000609209D01*
X0000216190Y0000609373D01*
X0000216193Y0000609376D01*
X0000216196Y0000609379D01*
X0000216249Y0000609431D01*
X0000264349Y0000657531D01*
X0000263698Y0000652952D01*
X0000263698Y0000629330D01*
X0000263911Y0000626666D01*
X0000265310Y0000622146D01*
X0000267913Y0000618196D01*
X0000271514Y0000615127D01*
X0000271898Y0000614954D01*
X0000271100Y0000614420D01*
X0000269044Y0000612364D01*
X0000267428Y0000609945D01*
X0000266315Y0000607259D01*
X0000265748Y0000604406D01*
X0000265748Y0000600738D01*
X0000269438Y0000597047D01*
X0000304133Y0000597047D01*
X0000304133Y0000598818D01*
X0000317913Y0000598818D01*
X0000317913Y0000597047D01*
X0000318700Y0000597047D01*
X0000318700Y0000585236D01*
X0000317913Y0000585236D01*
X0000317913Y0000568257D01*
X0000320029Y0000566141D01*
X0000317913Y0000564025D01*
X0000317913Y0000547047D01*
X0000352608Y0000547047D01*
X0000356299Y0000550738D01*
X0000356299Y0000554406D01*
X0000355731Y0000557259D01*
X0000354618Y0000559945D01*
X0000353003Y0000562364D01*
X0000350946Y0000564420D01*
X0000348528Y0000566036D01*
X0000348274Y0000566141D01*
X0000348528Y0000566247D01*
X0000350946Y0000567862D01*
X0000353003Y0000569919D01*
X0000354618Y0000572337D01*
X0000355731Y0000575024D01*
X0000356299Y0000577876D01*
X0000356299Y0000581545D01*
X0000353592Y0000584251D01*
X0000354599Y0000584251D01*
X0000441929Y0000496922D01*
X0000441929Y0000379366D01*
X0000442133Y0000377285D01*
X0000442315Y0000375202D01*
X0000442348Y0000375088D01*
X0000442360Y0000374969D01*
X0000442964Y0000372969D01*
X0000443548Y0000370959D01*
X0000443602Y0000370854D01*
X0000443637Y0000370740D01*
X0000444618Y0000368895D01*
X0000445581Y0000367037D01*
X0000445655Y0000366944D01*
X0000445711Y0000366839D01*
X0000447033Y0000365218D01*
X0000448337Y0000363584D01*
X0000448500Y0000363418D01*
X0000448503Y0000363415D01*
X0000448507Y0000363412D01*
X0000448559Y0000363359D01*
X0000654697Y0000157221D01*
X0000656314Y0000155893D01*
X0000657915Y0000154549D01*
X0000658020Y0000154492D01*
X0000658112Y0000154416D01*
X0000659953Y0000153429D01*
X0000661787Y0000152421D01*
X0000661901Y0000152385D01*
X0000662005Y0000152328D01*
X0000664004Y0000151717D01*
X0000665998Y0000151085D01*
X0000666116Y0000151071D01*
X0000666230Y0000151037D01*
X0000668310Y0000150825D01*
X0000670389Y0000150592D01*
X0000670622Y0000150591D01*
X0000670626Y0000150590D01*
X0000670630Y0000150591D01*
X0000670705Y0000150590D01*
X0000793579Y0000150590D01*
X0000797031Y0000148191D01*
X0000802160Y0000145950D01*
X0000807627Y0000144748D01*
X0000813224Y0000144631D01*
X0000818736Y0000145603D01*
X0000823955Y0000147627D01*
X0000828681Y0000150627D01*
X0000832735Y0000154487D01*
X0000835961Y0000159061D01*
X0000838238Y0000164175D01*
X0000839478Y0000169633D01*
X0000839568Y0000176027D01*
X0000838480Y0000181518D01*
X0000836347Y0000186693D01*
X0000833250Y0000191355D01*
X0000829305Y0000195327D01*
X0000824665Y0000198457D01*
X0000819504Y0000200627D01*
X0000814021Y0000201752D01*
X0000808424Y0000201791D01*
X0000802925Y0000200742D01*
X0000797735Y0000198645D01*
X0000793487Y0000195866D01*
X0000680082Y0000195866D01*
X0000651247Y0000224700D01*
X0000655372Y0000227318D01*
X0000659426Y0000231178D01*
X0000662653Y0000235752D01*
X0000664930Y0000240866D01*
X0000666170Y0000246324D01*
X0000666259Y0000252718D01*
X0000665172Y0000258209D01*
X0000663039Y0000263384D01*
X0000659941Y0000268047D01*
X0000655997Y0000272019D01*
X0000651356Y0000275149D01*
X0000649133Y0000276083D01*
X0000550196Y0000375020D01*
X0000550196Y0000512517D01*
X0000554133Y0000512517D01*
X0000554133Y0000501968D01*
X0000554337Y0000499887D01*
X0000554520Y0000497804D01*
X0000554553Y0000497689D01*
X0000554564Y0000497571D01*
X0000555168Y0000495571D01*
X0000555752Y0000493561D01*
X0000555807Y0000493455D01*
X0000555841Y0000493341D01*
X0000556822Y0000491497D01*
X0000557785Y0000489639D01*
X0000557860Y0000489545D01*
X0000557916Y0000489440D01*
X0000559237Y0000487820D01*
X0000560542Y0000486186D01*
X0000560705Y0000486020D01*
X0000560708Y0000486017D01*
X0000560711Y0000486014D01*
X0000560764Y0000485961D01*
X0000578480Y0000468244D01*
X0000580096Y0000466917D01*
X0000581698Y0000465573D01*
X0000581802Y0000465515D01*
X0000581894Y0000465440D01*
X0000583736Y0000464452D01*
X0000585570Y0000463444D01*
X0000585683Y0000463408D01*
X0000585788Y0000463352D01*
X0000587786Y0000462741D01*
X0000589781Y0000462108D01*
X0000589899Y0000462095D01*
X0000590013Y0000462060D01*
X0000592094Y0000461849D01*
X0000594172Y0000461616D01*
X0000594404Y0000461614D01*
X0000594409Y0000461614D01*
X0000594413Y0000461614D01*
X0000594488Y0000461614D01*
X0000607283Y0000461614D01*
X0000607283Y0000407014D01*
X0000598710Y0000398441D01*
X0000594264Y0000397593D01*
X0000589074Y0000395496D01*
X0000584390Y0000392431D01*
X0000580390Y0000388514D01*
X0000577228Y0000383896D01*
X0000575023Y0000378751D01*
X0000573859Y0000373275D01*
X0000573781Y0000367678D01*
X0000574791Y0000362173D01*
X0000576852Y0000356968D01*
X0000579884Y0000352263D01*
X0000583773Y0000348236D01*
X0000588369Y0000345042D01*
X0000593499Y0000342801D01*
X0000598966Y0000341599D01*
X0000604562Y0000341481D01*
X0000610075Y0000342453D01*
X0000615293Y0000344478D01*
X0000620020Y0000347477D01*
X0000624073Y0000351337D01*
X0000627300Y0000355911D01*
X0000629577Y0000361025D01*
X0000630817Y0000366484D01*
X0000630817Y0000366519D01*
X0000645928Y0000381630D01*
X0000647256Y0000383246D01*
X0000648599Y0000384848D01*
X0000648657Y0000384952D01*
X0000648732Y0000385044D01*
X0000649720Y0000386886D01*
X0000650728Y0000388719D01*
X0000650764Y0000388833D01*
X0000650820Y0000388938D01*
X0000651431Y0000390937D01*
X0000652064Y0000392931D01*
X0000652077Y0000393049D01*
X0000652112Y0000393163D01*
X0000652323Y0000395242D01*
X0000652556Y0000397321D01*
X0000652558Y0000397554D01*
X0000652558Y0000397558D01*
X0000652558Y0000397562D01*
X0000652559Y0000397637D01*
X0000652559Y0000461614D01*
X0000657480Y0000461614D01*
X0000659561Y0000461818D01*
X0000661644Y0000462000D01*
X0000661758Y0000462033D01*
X0000661877Y0000462045D01*
X0000663877Y0000462649D01*
X0000665887Y0000463233D01*
X0000665993Y0000463287D01*
X0000666106Y0000463322D01*
X0000667951Y0000464303D01*
X0000669809Y0000465266D01*
X0000669902Y0000465340D01*
X0000670007Y0000465396D01*
X0000671628Y0000466718D01*
X0000673262Y0000468022D01*
X0000673428Y0000468185D01*
X0000673431Y0000468188D01*
X0000673434Y0000468192D01*
X0000673487Y0000468244D01*
X0000691204Y0000485961D01*
X0000692531Y0000487576D01*
X0000693875Y0000489178D01*
X0000693932Y0000489283D01*
X0000694008Y0000489375D01*
X0000694995Y0000491216D01*
X0000696004Y0000493050D01*
X0000696040Y0000493164D01*
X0000696096Y0000493268D01*
X0000696707Y0000495266D01*
X0000697339Y0000497261D01*
X0000697353Y0000497380D01*
X0000697387Y0000497493D01*
X0000697599Y0000499575D01*
X0000697832Y0000501652D01*
X0000697834Y0000501884D01*
X0000697834Y0000501889D01*
X0000697834Y0000501893D01*
X0000697834Y0000501968D01*
X0000697834Y0000517188D01*
X0000698128Y0000517279D01*
X0000702079Y0000519882D01*
X0000705148Y0000523483D01*
X0000707092Y0000527796D01*
X0000707758Y0000532480D01*
X0000707758Y0000562007D01*
X0000707545Y0000564672D01*
X0000706146Y0000569191D01*
X0000703542Y0000573142D01*
X0000699942Y0000576211D01*
X0000697834Y0000577161D01*
X0000697834Y0000607460D01*
X0000699242Y0000609112D01*
X0000701186Y0000613426D01*
X0000701852Y0000618110D01*
X0000701852Y0000653543D01*
X0000701640Y0000656207D01*
X0000700240Y0000660727D01*
X0000697637Y0000664677D01*
X0000694036Y0000667746D01*
X0000689723Y0000669690D01*
X0000685039Y0000670356D01*
X0000665354Y0000670356D01*
X0000662689Y0000670144D01*
X0000658170Y0000668744D01*
X0000654219Y0000666141D01*
X0000651150Y0000662540D01*
X0000649206Y0000658227D01*
X0000648541Y0000653543D01*
X0000648541Y0000618110D01*
X0000648753Y0000615445D01*
X0000650153Y0000610926D01*
X0000652559Y0000607275D01*
X0000652559Y0000577300D01*
X0000652264Y0000577209D01*
X0000648314Y0000574605D01*
X0000645612Y0000571435D01*
X0000644487Y0000573142D01*
X0000640886Y0000576211D01*
X0000638779Y0000577161D01*
X0000638779Y0000607460D01*
X0000640187Y0000609112D01*
X0000642131Y0000613426D01*
X0000642797Y0000618110D01*
X0000642797Y0000653543D01*
X0000642585Y0000656207D01*
X0000641185Y0000660727D01*
X0000638779Y0000664378D01*
X0000638779Y0000703917D01*
X0000640187Y0000705569D01*
X0000642131Y0000709882D01*
X0000642797Y0000714566D01*
X0000642797Y0000721702D01*
X0000650590Y0000721702D01*
X0000650590Y0000713112D01*
X0000651157Y0000710260D01*
X0000652270Y0000707573D01*
X0000653886Y0000705155D01*
X0000655942Y0000703099D01*
X0000658361Y0000701483D01*
X0000661047Y0000700370D01*
X0000663900Y0000699803D01*
X0000666584Y0000699803D01*
X0000670275Y0000703494D01*
X0000670275Y0000725393D01*
X0000680118Y0000725393D01*
X0000680118Y0000703494D01*
X0000683809Y0000699803D01*
X0000686493Y0000699803D01*
X0000689345Y0000700370D01*
X0000692032Y0000701483D01*
X0000694450Y0000703099D01*
X0000696507Y0000705155D01*
X0000698122Y0000707573D01*
X0000699235Y0000710260D01*
X0000699276Y0000710464D01*
X0000791073Y0000710464D01*
X0000795101Y0000703557D01*
X0000804235Y0000699769D01*
X0000813932Y0000697836D01*
X0000823820Y0000697832D01*
X0000833519Y0000699757D01*
X0000842655Y0000703537D01*
X0000842693Y0000703557D01*
X0000846721Y0000710464D01*
X0000818897Y0000738287D01*
X0000791073Y0000710464D01*
X0000699276Y0000710464D01*
X0000699803Y0000713112D01*
X0000699803Y0000721702D01*
X0000696112Y0000725393D01*
X0000680118Y0000725393D01*
X0000670275Y0000725393D01*
X0000654281Y0000725393D01*
X0000650590Y0000721702D01*
X0000642797Y0000721702D01*
X0000642797Y0000749999D01*
X0000642681Y0000751454D01*
X0000650590Y0000751454D01*
X0000650590Y0000742864D01*
X0000654281Y0000739173D01*
X0000670275Y0000739173D01*
X0000670275Y0000761072D01*
X0000680118Y0000761072D01*
X0000680118Y0000739173D01*
X0000696112Y0000739173D01*
X0000699803Y0000742864D01*
X0000699803Y0000743108D01*
X0000768698Y0000743108D01*
X0000770623Y0000733410D01*
X0000774403Y0000724273D01*
X0000774423Y0000724235D01*
X0000781330Y0000720207D01*
X0000809154Y0000748031D01*
X0000828641Y0000748031D01*
X0000856464Y0000720207D01*
X0000863371Y0000724235D01*
X0000867159Y0000733369D01*
X0000869092Y0000743066D01*
X0000869096Y0000752954D01*
X0000867171Y0000762652D01*
X0000863391Y0000771789D01*
X0000863371Y0000771827D01*
X0000856464Y0000775855D01*
X0000828641Y0000748031D01*
X0000809154Y0000748031D01*
X0000781330Y0000775855D01*
X0000774423Y0000771827D01*
X0000770635Y0000762693D01*
X0000768702Y0000752996D01*
X0000768698Y0000743108D01*
X0000699803Y0000743108D01*
X0000699803Y0000751454D01*
X0000699235Y0000754306D01*
X0000698122Y0000756993D01*
X0000696507Y0000759411D01*
X0000694450Y0000761467D01*
X0000692032Y0000763083D01*
X0000689345Y0000764196D01*
X0000686493Y0000764763D01*
X0000683809Y0000764763D01*
X0000680118Y0000761072D01*
X0000670275Y0000761072D01*
X0000666584Y0000764763D01*
X0000663900Y0000764763D01*
X0000661047Y0000764196D01*
X0000658361Y0000763083D01*
X0000655942Y0000761467D01*
X0000653886Y0000759411D01*
X0000652270Y0000756993D01*
X0000651157Y0000754306D01*
X0000650590Y0000751454D01*
X0000642681Y0000751454D01*
X0000642585Y0000752664D01*
X0000641185Y0000757183D01*
X0000638582Y0000761134D01*
X0000634981Y0000764203D01*
X0000630668Y0000766147D01*
X0000625984Y0000766813D01*
X0000613788Y0000766813D01*
X0000632149Y0000785173D01*
X0000632498Y0000785598D01*
X0000791073Y0000785598D01*
X0000818897Y0000757775D01*
X0000846721Y0000785598D01*
X0000842693Y0000792505D01*
X0000833559Y0000796293D01*
X0000823862Y0000798226D01*
X0000813974Y0000798230D01*
X0000804276Y0000796305D01*
X0000795139Y0000792525D01*
X0000795101Y0000792505D01*
X0000791073Y0000785598D01*
X0000632498Y0000785598D01*
X0000633476Y0000786789D01*
X0000634820Y0000788391D01*
X0000634877Y0000788495D01*
X0000634953Y0000788587D01*
X0000635941Y0000790430D01*
X0000636948Y0000792263D01*
X0000636984Y0000792376D01*
X0000637041Y0000792481D01*
X0000637652Y0000794481D01*
X0000638284Y0000796474D01*
X0000638298Y0000796592D01*
X0000638332Y0000796706D01*
X0000638468Y0000798040D01*
X0000640187Y0000800057D01*
X0000642131Y0000804371D01*
X0000642797Y0000809055D01*
X0000642797Y0000844488D01*
X0000648541Y0000844488D01*
X0000648541Y0000809055D01*
X0000648753Y0000806390D01*
X0000650153Y0000801871D01*
X0000652756Y0000797920D01*
X0000656357Y0000794851D01*
X0000660670Y0000792907D01*
X0000665354Y0000792241D01*
X0000685039Y0000792241D01*
X0000687703Y0000792454D01*
X0000692223Y0000793853D01*
X0000696173Y0000796457D01*
X0000699242Y0000800057D01*
X0000701080Y0000804133D01*
X0000878418Y0000804133D01*
X0000917201Y0000765350D01*
X0000916571Y0000763881D01*
X0000914444Y0000753874D01*
X0000914301Y0000743645D01*
X0000916148Y0000733583D01*
X0000919914Y0000724071D01*
X0000925455Y0000715472D01*
X0000932562Y0000708113D01*
X0000940962Y0000702274D01*
X0000950337Y0000698179D01*
X0000960328Y0000695982D01*
X0000970556Y0000695768D01*
X0000980631Y0000697544D01*
X0000990169Y0000701244D01*
X0000998807Y0000706725D01*
X0001006215Y0000713780D01*
X0001012112Y0000722140D01*
X0001016273Y0000731485D01*
X0001018539Y0000741461D01*
X0001018570Y0000743645D01*
X0001061939Y0000743645D01*
X0001063786Y0000733583D01*
X0001067552Y0000724071D01*
X0001073093Y0000715472D01*
X0001080200Y0000708113D01*
X0001088600Y0000702274D01*
X0001097975Y0000698179D01*
X0001107966Y0000695982D01*
X0001118194Y0000695768D01*
X0001128269Y0000697544D01*
X0001137807Y0000701244D01*
X0001146444Y0000706725D01*
X0001153853Y0000713780D01*
X0001159750Y0000722140D01*
X0001163911Y0000731485D01*
X0001166177Y0000741461D01*
X0001166340Y0000753146D01*
X0001164353Y0000763181D01*
X0001160455Y0000772640D01*
X0001154794Y0000781161D01*
X0001147585Y0000788420D01*
X0001139104Y0000794140D01*
X0001129673Y0000798105D01*
X0001119652Y0000800162D01*
X0001109422Y0000800233D01*
X0001099373Y0000798316D01*
X0001089888Y0000794484D01*
X0001081328Y0000788882D01*
X0001074018Y0000781724D01*
X0001068239Y0000773283D01*
X0001064209Y0000763881D01*
X0001062082Y0000753874D01*
X0001061939Y0000743645D01*
X0001018570Y0000743645D01*
X0001018703Y0000753146D01*
X0001016715Y0000763181D01*
X0001012817Y0000772640D01*
X0001007156Y0000781161D01*
X0000999947Y0000788420D01*
X0000991466Y0000794140D01*
X0000982035Y0000798105D01*
X0000972014Y0000800162D01*
X0000961784Y0000800233D01*
X0000951735Y0000798316D01*
X0000949263Y0000797317D01*
X0000903802Y0000842778D01*
X0000902187Y0000844105D01*
X0000900584Y0000845450D01*
X0000900480Y0000845507D01*
X0000900388Y0000845583D01*
X0000898545Y0000846571D01*
X0000896713Y0000847578D01*
X0000896599Y0000847614D01*
X0000896494Y0000847671D01*
X0000894495Y0000848282D01*
X0000892501Y0000848914D01*
X0000892383Y0000848927D01*
X0000892269Y0000848962D01*
X0000890188Y0000849174D01*
X0000888111Y0000849407D01*
X0000887878Y0000849408D01*
X0000887874Y0000849409D01*
X0000887870Y0000849408D01*
X0000887795Y0000849409D01*
X0000700941Y0000849409D01*
X0000700240Y0000851672D01*
X0000697637Y0000855622D01*
X0000694036Y0000858691D01*
X0000689723Y0000860635D01*
X0000685039Y0000861301D01*
X0000665354Y0000861301D01*
X0000662689Y0000861088D01*
X0000658170Y0000859689D01*
X0000654219Y0000857086D01*
X0000651150Y0000853485D01*
X0000649206Y0000849172D01*
X0000648541Y0000844488D01*
X0000642797Y0000844488D01*
X0000642585Y0000847152D01*
X0000641185Y0000851672D01*
X0000638779Y0000855323D01*
X0000638779Y0000890824D01*
X0000640767Y0000893157D01*
X0000642712Y0000897471D01*
X0000643377Y0000902155D01*
X0000643377Y0000937588D01*
X0000649121Y0000937588D01*
X0000649121Y0000902155D01*
X0000649333Y0000899490D01*
X0000650733Y0000894971D01*
X0000653336Y0000891020D01*
X0000656937Y0000887951D01*
X0000661250Y0000886007D01*
X0000665934Y0000885341D01*
X0000685619Y0000885341D01*
X0000688284Y0000885554D01*
X0000692803Y0000886953D01*
X0000696137Y0000889150D01*
X0000719405Y0000865882D01*
X0000721020Y0000864555D01*
X0000722622Y0000863211D01*
X0000722727Y0000863153D01*
X0000722819Y0000863078D01*
X0000724662Y0000862089D01*
X0000726494Y0000861082D01*
X0000726608Y0000861046D01*
X0000726712Y0000860990D01*
X0000728712Y0000860378D01*
X0000730705Y0000859746D01*
X0000730824Y0000859733D01*
X0000730937Y0000859698D01*
X0000733019Y0000859487D01*
X0000735096Y0000859254D01*
X0000735328Y0000859252D01*
X0000735333Y0000859252D01*
X0000735337Y0000859252D01*
X0000735412Y0000859251D01*
X0000903543Y0000859251D01*
X0000905624Y0000859456D01*
X0000907707Y0000859638D01*
X0000907821Y0000859671D01*
X0000907940Y0000859683D01*
X0000909940Y0000860287D01*
X0000911950Y0000860870D01*
X0000912056Y0000860925D01*
X0000912169Y0000860960D01*
X0000914014Y0000861940D01*
X0000915872Y0000862904D01*
X0000915965Y0000862978D01*
X0000916070Y0000863034D01*
X0000917691Y0000864355D01*
X0000919325Y0000865660D01*
X0000919491Y0000865823D01*
X0000919494Y0000865826D01*
X0000919497Y0000865829D01*
X0000919550Y0000865882D01*
X0000949196Y0000895528D01*
X0000950337Y0000895029D01*
X0000960328Y0000892832D01*
X0000970556Y0000892618D01*
X0000980631Y0000894395D01*
X0000990169Y0000898094D01*
X0000998807Y0000903576D01*
X0001006215Y0000910631D01*
X0001012112Y0000918990D01*
X0001016273Y0000928336D01*
X0001018539Y0000938312D01*
X0001018570Y0000940495D01*
X0001061939Y0000940495D01*
X0001063786Y0000930433D01*
X0001067552Y0000920921D01*
X0001073093Y0000912322D01*
X0001080200Y0000904963D01*
X0001088600Y0000899125D01*
X0001097975Y0000895029D01*
X0001107966Y0000892832D01*
X0001118194Y0000892618D01*
X0001128269Y0000894395D01*
X0001137807Y0000898094D01*
X0001146444Y0000903576D01*
X0001153853Y0000910631D01*
X0001159750Y0000918990D01*
X0001163911Y0000928336D01*
X0001166177Y0000938312D01*
X0001166340Y0000949996D01*
X0001164353Y0000960032D01*
X0001160455Y0000969490D01*
X0001154794Y0000978011D01*
X0001147585Y0000985270D01*
X0001139104Y0000990991D01*
X0001129673Y0000994955D01*
X0001119652Y0000997012D01*
X0001109422Y0000997083D01*
X0001099373Y0000995166D01*
X0001089888Y0000991334D01*
X0001081328Y0000985733D01*
X0001074018Y0000978575D01*
X0001068239Y0000970134D01*
X0001064209Y0000960731D01*
X0001062082Y0000950724D01*
X0001061939Y0000940495D01*
X0001018570Y0000940495D01*
X0001018703Y0000949996D01*
X0001016715Y0000960032D01*
X0001012817Y0000969490D01*
X0001007156Y0000978011D01*
X0000999947Y0000985270D01*
X0000991466Y0000990991D01*
X0000982035Y0000994955D01*
X0000972014Y0000997012D01*
X0000961784Y0000997083D01*
X0000951735Y0000995166D01*
X0000942250Y0000991334D01*
X0000933690Y0000985733D01*
X0000926381Y0000978575D01*
X0000920601Y0000970134D01*
X0000916571Y0000960731D01*
X0000914444Y0000950724D01*
X0000914301Y0000940495D01*
X0000916148Y0000930433D01*
X0000917261Y0000927622D01*
X0000894166Y0000904527D01*
X0000845095Y0000904527D01*
X0000846721Y0000907314D01*
X0000818897Y0000935138D01*
X0000791073Y0000907314D01*
X0000792699Y0000904527D01*
X0000744789Y0000904527D01*
X0000713437Y0000935878D01*
X0000711822Y0000937205D01*
X0000710220Y0000938550D01*
X0000710115Y0000938607D01*
X0000710023Y0000938683D01*
X0000708181Y0000939671D01*
X0000707657Y0000939959D01*
X0000768698Y0000939959D01*
X0000770623Y0000930260D01*
X0000774403Y0000921123D01*
X0000774423Y0000921085D01*
X0000781330Y0000917058D01*
X0000809154Y0000944881D01*
X0000828641Y0000944881D01*
X0000856464Y0000917058D01*
X0000863371Y0000921085D01*
X0000867159Y0000930219D01*
X0000869092Y0000939916D01*
X0000869096Y0000949804D01*
X0000867171Y0000959503D01*
X0000863391Y0000968640D01*
X0000863371Y0000968677D01*
X0000856464Y0000972705D01*
X0000828641Y0000944881D01*
X0000809154Y0000944881D01*
X0000781330Y0000972705D01*
X0000774423Y0000968677D01*
X0000770635Y0000959544D01*
X0000768702Y0000949847D01*
X0000768698Y0000939959D01*
X0000707657Y0000939959D01*
X0000706348Y0000940678D01*
X0000706235Y0000940714D01*
X0000706130Y0000940771D01*
X0000704130Y0000941382D01*
X0000702137Y0000942014D01*
X0000702019Y0000942027D01*
X0000701905Y0000942062D01*
X0000701651Y0000942088D01*
X0000700820Y0000944772D01*
X0000698217Y0000948722D01*
X0000694616Y0000951791D01*
X0000690303Y0000953735D01*
X0000685619Y0000954401D01*
X0000665934Y0000954401D01*
X0000663270Y0000954188D01*
X0000658750Y0000952789D01*
X0000654800Y0000950186D01*
X0000651731Y0000946585D01*
X0000649787Y0000942272D01*
X0000649121Y0000937588D01*
X0000643377Y0000937588D01*
X0000643165Y0000940252D01*
X0000641765Y0000944772D01*
X0000639162Y0000948722D01*
X0000635561Y0000951791D01*
X0000631248Y0000953735D01*
X0000626564Y0000954401D01*
X0000606879Y0000954401D01*
X0000604214Y0000954188D01*
X0000599695Y0000952789D01*
X0000595745Y0000950186D01*
X0000592676Y0000946585D01*
X0000590731Y0000942272D01*
X0000590066Y0000937588D01*
X0000590066Y0000902155D01*
X0000590278Y0000899490D01*
X0000591678Y0000894971D01*
X0000593503Y0000892200D01*
X0000593503Y0000855137D01*
X0000592095Y0000853485D01*
X0000590151Y0000849172D01*
X0000589485Y0000844488D01*
X0000589485Y0000809055D01*
X0000589671Y0000806725D01*
X0000507614Y0000724668D01*
X0000506287Y0000723053D01*
X0000504943Y0000721450D01*
X0000504885Y0000721346D01*
X0000504810Y0000721254D01*
X0000504012Y0000719765D01*
X0000493110Y0000719765D01*
X0000490445Y0000719553D01*
X0000485926Y0000718153D01*
X0000481975Y0000715550D01*
X0000478906Y0000711949D01*
X0000476962Y0000707636D01*
X0000476297Y0000702952D01*
X0000476297Y0000679330D01*
X0000476509Y0000676666D01*
X0000477909Y0000672146D01*
X0000480512Y0000668196D01*
X0000482900Y0000666160D01*
X0000481975Y0000665550D01*
X0000478906Y0000661949D01*
X0000476962Y0000657636D01*
X0000476297Y0000652952D01*
X0000476297Y0000629330D01*
X0000476509Y0000626666D01*
X0000477909Y0000622146D01*
X0000480512Y0000618196D01*
X0000482900Y0000616160D01*
X0000481975Y0000615550D01*
X0000478906Y0000611949D01*
X0000476962Y0000607636D01*
X0000476297Y0000602952D01*
X0000476297Y0000579330D01*
X0000476509Y0000576666D01*
X0000477909Y0000572146D01*
X0000479188Y0000570204D01*
X0000457677Y0000591716D01*
X0000457677Y0000654862D01*
X0000458317Y0000656301D01*
X0000459557Y0000661759D01*
X0000459646Y0000668153D01*
X0000458559Y0000673644D01*
X0000456426Y0000678819D01*
X0000453328Y0000683481D01*
X0000449384Y0000687453D01*
X0000444743Y0000690583D01*
X0000439583Y0000692753D01*
X0000434100Y0000693878D01*
X0000428502Y0000693917D01*
X0000423004Y0000692868D01*
X0000417814Y0000690771D01*
X0000413130Y0000687706D01*
X0000409131Y0000683790D01*
X0000405968Y0000679171D01*
X0000403763Y0000674026D01*
X0000402599Y0000668551D01*
X0000402521Y0000662954D01*
X0000403531Y0000657448D01*
X0000404527Y0000654934D01*
X0000404527Y0000598353D01*
X0000358348Y0000644532D01*
X0000358348Y0000652952D01*
X0000358136Y0000655617D01*
X0000356736Y0000660136D01*
X0000354133Y0000664087D01*
X0000351744Y0000666123D01*
X0000352669Y0000666732D01*
X0000355738Y0000670333D01*
X0000357682Y0000674646D01*
X0000358348Y0000679330D01*
X0000358348Y0000702952D01*
X0000358136Y0000705617D01*
X0000356736Y0000710136D01*
X0000354133Y0000714087D01*
X0000350532Y0000717156D01*
X0000346219Y0000719100D01*
X0000341535Y0000719765D01*
X0000280511Y0000719765D01*
X0000277847Y0000719553D01*
X0000273327Y0000718153D01*
X0000269377Y0000715550D01*
X0000267867Y0000713779D01*
X0000265944Y0000713779D01*
X0000263863Y0000713575D01*
X0000261780Y0000713393D01*
X0000261666Y0000713359D01*
X0000261547Y0000713348D01*
X0000259547Y0000712744D01*
X0000257537Y0000712160D01*
X0000257432Y0000712105D01*
X0000257318Y0000712071D01*
X0000255473Y0000711090D01*
X0000253615Y0000710127D01*
X0000253522Y0000710053D01*
X0000253417Y0000709997D01*
X0000251797Y0000708676D01*
X0000250162Y0000707371D01*
X0000249996Y0000707207D01*
X0000249993Y0000707204D01*
X0000249990Y0000707201D01*
X0000249937Y0000707149D01*
X0000190865Y0000648077D01*
X0000190219Y0000648077D01*
X0000190219Y0000664789D01*
X0000190006Y0000667453D01*
X0000188607Y0000671973D01*
X0000186004Y0000675923D01*
X0000182403Y0000678992D01*
X0000178090Y0000680936D01*
X0000173406Y0000681602D01*
X0000168946Y0000681602D01*
X0000173294Y0000685098D01*
X0000180330Y0000693483D01*
X0000185603Y0000703074D01*
X0000188912Y0000713507D01*
X0000190132Y0000724384D01*
X0000190138Y0000725167D01*
X0000190138Y0000725710D01*
X0000189070Y0000736603D01*
X0000185906Y0000747081D01*
X0000180768Y0000756746D01*
X0000173850Y0000765227D01*
X0000165416Y0000772204D01*
X0000155788Y0000777410D01*
X0000148950Y0000779527D01*
X0000338501Y0000779527D01*
X0000338501Y0000748031D01*
X0000338714Y0000745366D01*
X0000340113Y0000740847D01*
X0000342717Y0000736897D01*
X0000346317Y0000733828D01*
X0000350630Y0000731883D01*
X0000355314Y0000731218D01*
X0000384842Y0000731218D01*
X0000387507Y0000731430D01*
X0000392026Y0000732830D01*
X0000395976Y0000735433D01*
X0000396849Y0000736457D01*
X0000402115Y0000735299D01*
X0000407711Y0000735182D01*
X0000413224Y0000736154D01*
X0000418443Y0000738178D01*
X0000423169Y0000741178D01*
X0000425838Y0000743719D01*
X0000426727Y0000740847D01*
X0000429331Y0000736897D01*
X0000432931Y0000733828D01*
X0000437245Y0000731883D01*
X0000441929Y0000731218D01*
X0000471456Y0000731218D01*
X0000474121Y0000731430D01*
X0000478640Y0000732830D01*
X0000482591Y0000735433D01*
X0000483464Y0000736457D01*
X0000488730Y0000735299D01*
X0000494326Y0000735182D01*
X0000499839Y0000736154D01*
X0000505058Y0000738178D01*
X0000509784Y0000741178D01*
X0000513837Y0000745038D01*
X0000517064Y0000749612D01*
X0000519341Y0000754726D01*
X0000520581Y0000760184D01*
X0000520670Y0000766578D01*
X0000519583Y0000772069D01*
X0000517450Y0000777244D01*
X0000514352Y0000781907D01*
X0000510408Y0000785878D01*
X0000505767Y0000789009D01*
X0000500607Y0000791178D01*
X0000495124Y0000792303D01*
X0000489526Y0000792342D01*
X0000484028Y0000791293D01*
X0000483543Y0000791097D01*
X0000480453Y0000793730D01*
X0000479013Y0000794379D01*
X0000480868Y0000795618D01*
X0000482924Y0000797675D01*
X0000484540Y0000800093D01*
X0000485653Y0000802780D01*
X0000486220Y0000805632D01*
X0000486220Y0000812253D01*
X0000482529Y0000815944D01*
X0000463582Y0000815944D01*
X0000463582Y0000815157D01*
X0000449803Y0000815157D01*
X0000449803Y0000815944D01*
X0000430856Y0000815944D01*
X0000427165Y0000812253D01*
X0000427165Y0000805632D01*
X0000427732Y0000802780D01*
X0000428845Y0000800093D01*
X0000430461Y0000797675D01*
X0000432517Y0000795618D01*
X0000434294Y0000794431D01*
X0000430794Y0000792125D01*
X0000427725Y0000788524D01*
X0000425781Y0000784211D01*
X0000425739Y0000783919D01*
X0000423793Y0000785878D01*
X0000419153Y0000789009D01*
X0000413992Y0000791178D01*
X0000408509Y0000792303D01*
X0000402912Y0000792342D01*
X0000397413Y0000791293D01*
X0000396928Y0000791098D01*
X0000393839Y0000793730D01*
X0000392399Y0000794379D01*
X0000394253Y0000795618D01*
X0000396310Y0000797675D01*
X0000397926Y0000800093D01*
X0000399038Y0000802780D01*
X0000399606Y0000805632D01*
X0000399606Y0000812253D01*
X0000395915Y0000815944D01*
X0000376968Y0000815944D01*
X0000376968Y0000815157D01*
X0000363188Y0000815157D01*
X0000363188Y0000815944D01*
X0000344242Y0000815944D01*
X0000340551Y0000812253D01*
X0000340551Y0000805632D01*
X0000341118Y0000802780D01*
X0000342231Y0000800093D01*
X0000343847Y0000797675D01*
X0000345903Y0000795618D01*
X0000347680Y0000794431D01*
X0000344180Y0000792125D01*
X0000341111Y0000788524D01*
X0000339167Y0000784211D01*
X0000338501Y0000779527D01*
X0000148950Y0000779527D01*
X0000145332Y0000780647D01*
X0000134447Y0000781791D01*
X0000123547Y0000780799D01*
X0000113047Y0000777709D01*
X0000103347Y0000772638D01*
X0000094817Y0000765779D01*
X0000087781Y0000757395D01*
X0000082508Y0000747803D01*
X0000079199Y0000737370D01*
X0000077979Y0000726493D01*
X0000077973Y0000725710D01*
X0000077973Y0000725167D01*
X0000079041Y0000714274D01*
X0000082205Y0000703796D01*
X0000087343Y0000694132D01*
X0000094261Y0000685650D01*
X0000099154Y0000681602D01*
X0000094706Y0000681602D01*
X0000092041Y0000681389D01*
X0000087522Y0000679990D01*
X0000083571Y0000677387D01*
X0000080502Y0000673786D01*
X0000078558Y0000669473D01*
X0000077892Y0000664789D01*
X0000017716Y0000664789D01*
X0000017716Y0001005905D01*
X0000125014Y0001005905D01*
X0000123349Y0001005753D01*
G04 next file*
G04 #@! TF.FileFunction,Copper,L2,Bot,Signal*
G04 Gerber Fmt 4.6, Leading zero omitted, Abs format (unit mm)*
G04 Created by KiCad (PCBNEW 4.0.4-1.fc24-product) date Thu Jun 14 15:20:10 2018*
G01G01*
G04 APERTURE LIST*
G04 APERTURE END LIST*
D49*
D50*
X-0004011811Y0005137795D02*
X0001677165Y0001846456D03*
D51*
X0001677165Y0001746456D03*
X0001677165Y0001646456D03*
X0001677165Y0001546456D03*
D52*
X0001490157Y0001811023D03*
X0001342519Y0001811023D03*
X0001194881Y0001811023D03*
X0001490157Y0001614173D03*
X0001342519Y0001614173D03*
X0001194881Y0001614173D03*
X0001194881Y0001417322D03*
X0001342519Y0001417322D03*
X0001490157Y0001417322D03*
D53*
X0001425196Y0001342519D03*
D54*
X0001677165Y0001843700D02*
X0001683165Y0001843700D01*
X0001683165Y0001843700D02*
X0001738188Y0001788677D01*
X0001309055Y0001303149D02*
X0001230314Y0001381889D01*
X0001738188Y0001788677D02*
X0001738188Y0001450787D01*
X0001738188Y0001450787D02*
X0001590551Y0001303149D01*
X0001590551Y0001303149D02*
X0001309055Y0001303149D01*
X0001230314Y0001381889D02*
X0001194881Y0001417322D01*
X0001490157Y0001462692D02*
X0001671165Y0001643700D01*
X0001671165Y0001643700D02*
X0001677165Y0001643700D01*
X0001490157Y0001417322D02*
X0001490157Y0001462692D01*
X0001425196Y0001728346D02*
X0001425196Y0001342519D01*
X0001425196Y0001728346D02*
X0001342519Y0001811023D01*
D55*
G36*
X0001713582Y0001581448D02*
X0001709370Y0001584760D01*
X0001700856Y0001589083D01*
X0001691662Y0001591662D01*
X0001684055Y0001588710D01*
X0001684055Y0001550590D01*
X0001684842Y0001550590D01*
X0001684842Y0001536811D01*
X0001684055Y0001536811D01*
X0001684055Y0001498690D01*
X0001691662Y0001495738D01*
X0001700856Y0001498317D01*
X0001709370Y0001502641D01*
X0001713582Y0001505952D01*
X0001713582Y0001460979D01*
X0001580358Y0001327755D01*
X0001449714Y0001327755D01*
X0001450135Y0001328352D01*
X0001452411Y0001333466D01*
X0001453652Y0001338924D01*
X0001453741Y0001345318D01*
X0001452654Y0001350809D01*
X0001450520Y0001355984D01*
X0001449803Y0001357065D01*
X0001449803Y0001384012D01*
X0001456184Y0001377404D01*
X0001464584Y0001371566D01*
X0001473959Y0001367470D01*
X0001483950Y0001365273D01*
X0001494178Y0001365059D01*
X0001504253Y0001366836D01*
X0001513791Y0001370535D01*
X0001522428Y0001376017D01*
X0001529837Y0001383071D01*
X0001535734Y0001391431D01*
X0001539895Y0001400777D01*
X0001542161Y0001410753D01*
X0001542325Y0001422437D01*
X0001540337Y0001432473D01*
X0001536439Y0001441931D01*
X0001530778Y0001450452D01*
X0001523569Y0001457711D01*
X0001521422Y0001459159D01*
X0001591607Y0001529344D01*
X0001624562Y0001529344D01*
X0001626565Y0001524119D01*
X0001631242Y0001515794D01*
X0001637453Y0001508542D01*
X0001644960Y0001502641D01*
X0001653474Y0001498317D01*
X0001662667Y0001495738D01*
X0001670275Y0001498690D01*
X0001670275Y0001536811D01*
X0001626622Y0001536811D01*
X0001624562Y0001529344D01*
X0001591607Y0001529344D01*
X0001627873Y0001565610D01*
X0001626565Y0001563281D01*
X0001624562Y0001558057D01*
X0001626622Y0001550590D01*
X0001670275Y0001550590D01*
X0001670275Y0001588710D01*
X0001662667Y0001591662D01*
X0001653474Y0001589083D01*
X0001649151Y0001586888D01*
X0001657304Y0001595041D01*
X0001660342Y0001594077D01*
X0001670182Y0001592973D01*
X0001670890Y0001592968D01*
X0001683439Y0001592968D01*
X0001693293Y0001593934D01*
X0001702772Y0001596796D01*
X0001711514Y0001601444D01*
X0001713582Y0001603131D01*
X0001713582Y0001581448D01*
X0001713582Y0001581448D01*
G37*
X0001713582Y0001581448D02*
X0001709370Y0001584760D01*
X0001700856Y0001589083D01*
X0001691662Y0001591662D01*
X0001684055Y0001588710D01*
X0001684055Y0001550590D01*
X0001684842Y0001550590D01*
X0001684842Y0001536811D01*
X0001684055Y0001536811D01*
X0001684055Y0001498690D01*
X0001691662Y0001495738D01*
X0001700856Y0001498317D01*
X0001709370Y0001502641D01*
X0001713582Y0001505952D01*
X0001713582Y0001460979D01*
X0001580358Y0001327755D01*
X0001449714Y0001327755D01*
X0001450135Y0001328352D01*
X0001452411Y0001333466D01*
X0001453652Y0001338924D01*
X0001453741Y0001345318D01*
X0001452654Y0001350809D01*
X0001450520Y0001355984D01*
X0001449803Y0001357065D01*
X0001449803Y0001384012D01*
X0001456184Y0001377404D01*
X0001464584Y0001371566D01*
X0001473959Y0001367470D01*
X0001483950Y0001365273D01*
X0001494178Y0001365059D01*
X0001504253Y0001366836D01*
X0001513791Y0001370535D01*
X0001522428Y0001376017D01*
X0001529837Y0001383071D01*
X0001535734Y0001391431D01*
X0001539895Y0001400777D01*
X0001542161Y0001410753D01*
X0001542325Y0001422437D01*
X0001540337Y0001432473D01*
X0001536439Y0001441931D01*
X0001530778Y0001450452D01*
X0001523569Y0001457711D01*
X0001521422Y0001459159D01*
X0001591607Y0001529344D01*
X0001624562Y0001529344D01*
X0001626565Y0001524119D01*
X0001631242Y0001515794D01*
X0001637453Y0001508542D01*
X0001644960Y0001502641D01*
X0001653474Y0001498317D01*
X0001662667Y0001495738D01*
X0001670275Y0001498690D01*
X0001670275Y0001536811D01*
X0001626622Y0001536811D01*
X0001624562Y0001529344D01*
X0001591607Y0001529344D01*
X0001627873Y0001565610D01*
X0001626565Y0001563281D01*
X0001624562Y0001558057D01*
X0001626622Y0001550590D01*
X0001670275Y0001550590D01*
X0001670275Y0001588710D01*
X0001662667Y0001591662D01*
X0001653474Y0001589083D01*
X0001649151Y0001586888D01*
X0001657304Y0001595041D01*
X0001660342Y0001594077D01*
X0001670182Y0001592973D01*
X0001670890Y0001592968D01*
X0001683439Y0001592968D01*
X0001693293Y0001593934D01*
X0001702772Y0001596796D01*
X0001711514Y0001601444D01*
X0001713582Y0001603131D01*
X0001713582Y0001581448D01*
G04 next file*
G04 #@! TF.FileFunction,Copper,L2,Bot,Signal*
G04 Gerber Fmt 4.6, Leading zero omitted, Abs format (unit mm)*
G04 Created by KiCad (PCBNEW 4.0.4-1.fc24-product) date Thu Jun 14 15:20:28 2018*
G01G01*
G04 APERTURE LIST*
G04 APERTURE END LIST*
D56*
D57*
X-0001653543Y-0005118110D02*
X0001456692Y0000511811D03*
X0001456692Y0000708661D03*
X0001456692Y0000905511D03*
D58*
X0001771653Y0000670866D03*
D59*
X0001771653Y0000570866D03*
X0001771653Y0000470866D03*
D58*
X0001771653Y0000942519D03*
D59*
X0001771653Y0000842519D03*
D60*
G36*
X0001832677Y0001005905D02*
X0001832677Y0000411417D01*
X0001785925Y0000411417D01*
X0001785925Y0000424797D01*
X0001794639Y0000428467D01*
X0001802468Y0000433766D01*
X0001809114Y0000440490D01*
X0001814320Y0000448382D01*
X0001817721Y0000456593D01*
X0001815654Y0000463976D01*
X0001778543Y0000463976D01*
X0001778543Y0000477755D01*
X0001815654Y0000477755D01*
X0001817721Y0000485138D01*
X0001814320Y0000493349D01*
X0001809114Y0000501241D01*
X0001802468Y0000507966D01*
X0001794639Y0000513265D01*
X0001785925Y0000516934D01*
X0001778543Y0000514909D01*
X0001778543Y0000477755D01*
X0001778543Y0000463976D01*
X0001778543Y0000426823D01*
X0001785925Y0000424797D01*
X0001785925Y0000411417D01*
X0001771410Y0000411417D01*
X0001771410Y0000520669D01*
X0001771896Y0000520669D01*
X0001781646Y0000521625D01*
X0001791024Y0000524456D01*
X0001799674Y0000529056D01*
X0001807266Y0000535247D01*
X0001813511Y0000542796D01*
X0001818171Y0000551414D01*
X0001821067Y0000560772D01*
X0001822092Y0000570515D01*
X0001821204Y0000580272D01*
X0001818438Y0000589670D01*
X0001813899Y0000598352D01*
X0001807760Y0000605987D01*
X0001800255Y0000612284D01*
X0001791671Y0000617003D01*
X0001782332Y0000619966D01*
X0001776785Y0000620588D01*
X0001805118Y0000620588D01*
X0001807782Y0000620800D01*
X0001812302Y0000622200D01*
X0001816252Y0000624803D01*
X0001819321Y0000628404D01*
X0001821265Y0000632717D01*
X0001821931Y0000637401D01*
X0001821931Y0000704330D01*
X0001821718Y0000706995D01*
X0001820319Y0000711514D01*
X0001817716Y0000715465D01*
X0001814115Y0000718534D01*
X0001809802Y0000720478D01*
X0001805118Y0000721143D01*
X0001785925Y0000721143D01*
X0001785925Y0000796451D01*
X0001794639Y0000800120D01*
X0001802468Y0000805419D01*
X0001809114Y0000812144D01*
X0001814320Y0000820036D01*
X0001817721Y0000828247D01*
X0001815654Y0000835629D01*
X0001778543Y0000835629D01*
X0001778543Y0000849409D01*
X0001815654Y0000849409D01*
X0001817721Y0000856791D01*
X0001814320Y0000865003D01*
X0001809114Y0000872895D01*
X0001802468Y0000879619D01*
X0001794639Y0000884918D01*
X0001785925Y0000888588D01*
X0001778543Y0000886562D01*
X0001778543Y0000849409D01*
X0001778543Y0000835629D01*
X0001778543Y0000798476D01*
X0001785925Y0000796451D01*
X0001785925Y0000721143D01*
X0001757381Y0000721143D01*
X0001757381Y0000796451D01*
X0001764763Y0000798476D01*
X0001764763Y0000835629D01*
X0001727652Y0000835629D01*
X0001727652Y0000849409D01*
X0001764763Y0000849409D01*
X0001764763Y0000886562D01*
X0001757381Y0000888588D01*
X0001748668Y0000884918D01*
X0001740838Y0000879619D01*
X0001738188Y0000876939D01*
X0001738188Y0000892241D01*
X0001805118Y0000892241D01*
X0001807782Y0000892454D01*
X0001812302Y0000893853D01*
X0001816252Y0000896457D01*
X0001819321Y0000900057D01*
X0001821265Y0000904371D01*
X0001821931Y0000909055D01*
X0001821931Y0000975984D01*
X0001821718Y0000978648D01*
X0001820319Y0000983168D01*
X0001817716Y0000987118D01*
X0001814115Y0000990187D01*
X0001809802Y0000992131D01*
X0001805118Y0000992797D01*
X0001738188Y0000992797D01*
X0001735524Y0000992584D01*
X0001731005Y0000991185D01*
X0001727054Y0000988582D01*
X0001723985Y0000984981D01*
X0001722041Y0000980668D01*
X0001721375Y0000975984D01*
X0001721375Y0000909055D01*
X0001721588Y0000906390D01*
X0001722987Y0000901871D01*
X0001725591Y0000897920D01*
X0001729191Y0000894851D01*
X0001733504Y0000892907D01*
X0001738188Y0000892241D01*
X0001738188Y0000876939D01*
X0001734192Y0000872895D01*
X0001728986Y0000865003D01*
X0001725585Y0000856791D01*
X0001727652Y0000849409D01*
X0001727652Y0000835629D01*
X0001725585Y0000828247D01*
X0001728986Y0000820036D01*
X0001734192Y0000812144D01*
X0001740838Y0000805419D01*
X0001748668Y0000800120D01*
X0001757381Y0000796451D01*
X0001757381Y0000721143D01*
X0001738188Y0000721143D01*
X0001735524Y0000720931D01*
X0001731005Y0000719531D01*
X0001727054Y0000716928D01*
X0001723985Y0000713327D01*
X0001722041Y0000709014D01*
X0001721375Y0000704330D01*
X0001721375Y0000637401D01*
X0001721588Y0000634737D01*
X0001722987Y0000630217D01*
X0001725591Y0000626267D01*
X0001729191Y0000623198D01*
X0001733504Y0000621254D01*
X0001738188Y0000620588D01*
X0001766569Y0000620588D01*
X0001761660Y0000620107D01*
X0001752282Y0000617275D01*
X0001743632Y0000612676D01*
X0001736040Y0000606484D01*
X0001729795Y0000598935D01*
X0001725136Y0000590318D01*
X0001722239Y0000580959D01*
X0001721215Y0000571216D01*
X0001722102Y0000561460D01*
X0001724868Y0000552062D01*
X0001729407Y0000543380D01*
X0001735546Y0000535745D01*
X0001743051Y0000529448D01*
X0001751636Y0000524728D01*
X0001760974Y0000521766D01*
X0001770709Y0000520674D01*
X0001771410Y0000520669D01*
X0001771410Y0000411417D01*
X0001757381Y0000411417D01*
X0001757381Y0000424797D01*
X0001764763Y0000426823D01*
X0001764763Y0000463976D01*
X0001727652Y0000463976D01*
X0001727652Y0000477755D01*
X0001764763Y0000477755D01*
X0001764763Y0000514909D01*
X0001757381Y0000516934D01*
X0001748668Y0000513265D01*
X0001740838Y0000507966D01*
X0001734192Y0000501241D01*
X0001728986Y0000493349D01*
X0001725585Y0000485138D01*
X0001727652Y0000477755D01*
X0001727652Y0000463976D01*
X0001725585Y0000456593D01*
X0001728986Y0000448382D01*
X0001734192Y0000440490D01*
X0001740838Y0000433766D01*
X0001748668Y0000428467D01*
X0001757381Y0000424797D01*
X0001757381Y0000411417D01*
X0001461079Y0000411417D01*
X0001461079Y0000459577D01*
X0001471141Y0000461423D01*
X0001480652Y0000465189D01*
X0001489252Y0000470731D01*
X0001496611Y0000477838D01*
X0001502449Y0000486238D01*
X0001506545Y0000495613D01*
X0001508741Y0000505604D01*
X0001508956Y0000515832D01*
X0001507179Y0000525907D01*
X0001503480Y0000535444D01*
X0001497998Y0000544082D01*
X0001490943Y0000551490D01*
X0001482584Y0000557387D01*
X0001473238Y0000561548D01*
X0001463262Y0000563815D01*
X0001461079Y0000563845D01*
X0001461079Y0000656427D01*
X0001471141Y0000658274D01*
X0001480652Y0000662040D01*
X0001489252Y0000667581D01*
X0001496611Y0000674688D01*
X0001502449Y0000683088D01*
X0001506545Y0000692463D01*
X0001508741Y0000702454D01*
X0001508956Y0000712682D01*
X0001507179Y0000722757D01*
X0001503480Y0000732295D01*
X0001497998Y0000740932D01*
X0001490943Y0000748341D01*
X0001482584Y0000754238D01*
X0001473238Y0000758399D01*
X0001463262Y0000760665D01*
X0001461079Y0000760696D01*
X0001461079Y0000853277D01*
X0001471141Y0000855124D01*
X0001480652Y0000858890D01*
X0001489252Y0000864432D01*
X0001496611Y0000871538D01*
X0001502449Y0000879939D01*
X0001506545Y0000889313D01*
X0001508741Y0000899305D01*
X0001508956Y0000909533D01*
X0001507179Y0000919607D01*
X0001503480Y0000929145D01*
X0001497998Y0000937783D01*
X0001490943Y0000945191D01*
X0001482584Y0000951088D01*
X0001473238Y0000955249D01*
X0001463262Y0000957516D01*
X0001451577Y0000957679D01*
X0001441542Y0000955692D01*
X0001432084Y0000951793D01*
X0001423563Y0000946132D01*
X0001416304Y0000938924D01*
X0001410583Y0000930442D01*
X0001406619Y0000921012D01*
X0001404562Y0000910990D01*
X0001404490Y0000900761D01*
X0001406407Y0000890712D01*
X0001410240Y0000881226D01*
X0001415841Y0000872666D01*
X0001422999Y0000865357D01*
X0001431440Y0000859577D01*
X0001440843Y0000855547D01*
X0001450849Y0000853420D01*
X0001461079Y0000853277D01*
X0001461079Y0000760696D01*
X0001451577Y0000760828D01*
X0001441542Y0000758841D01*
X0001432084Y0000754943D01*
X0001423563Y0000749282D01*
X0001416304Y0000742073D01*
X0001410583Y0000733592D01*
X0001406619Y0000724161D01*
X0001404562Y0000714140D01*
X0001404490Y0000703910D01*
X0001406407Y0000693861D01*
X0001410240Y0000684376D01*
X0001415841Y0000675816D01*
X0001422999Y0000668507D01*
X0001431440Y0000662727D01*
X0001440843Y0000658697D01*
X0001450849Y0000656570D01*
X0001461079Y0000656427D01*
X0001461079Y0000563845D01*
X0001451577Y0000563978D01*
X0001441542Y0000561991D01*
X0001432084Y0000558093D01*
X0001423563Y0000552431D01*
X0001416304Y0000545223D01*
X0001410583Y0000536742D01*
X0001406619Y0000527311D01*
X0001404562Y0000517290D01*
X0001404490Y0000507060D01*
X0001406407Y0000497011D01*
X0001410240Y0000487526D01*
X0001415841Y0000478965D01*
X0001422999Y0000471656D01*
X0001431440Y0000465877D01*
X0001440843Y0000461846D01*
X0001450849Y0000459719D01*
X0001461079Y0000459577D01*
X0001461079Y0000411417D01*
X0001356299Y0000411417D01*
X0001356299Y0001005905D01*
X0001832677Y0001005905D01*
X0001832677Y0001005905D01*
G37*
X0001832677Y0001005905D02*
X0001832677Y0000411417D01*
X0001785925Y0000411417D01*
X0001785925Y0000424797D01*
X0001794639Y0000428467D01*
X0001802468Y0000433766D01*
X0001809114Y0000440490D01*
X0001814320Y0000448382D01*
X0001817721Y0000456593D01*
X0001815654Y0000463976D01*
X0001778543Y0000463976D01*
X0001778543Y0000477755D01*
X0001815654Y0000477755D01*
X0001817721Y0000485138D01*
X0001814320Y0000493349D01*
X0001809114Y0000501241D01*
X0001802468Y0000507966D01*
X0001794639Y0000513265D01*
X0001785925Y0000516934D01*
X0001778543Y0000514909D01*
X0001778543Y0000477755D01*
X0001778543Y0000463976D01*
X0001778543Y0000426823D01*
X0001785925Y0000424797D01*
X0001785925Y0000411417D01*
X0001771410Y0000411417D01*
X0001771410Y0000520669D01*
X0001771896Y0000520669D01*
X0001781646Y0000521625D01*
X0001791024Y0000524456D01*
X0001799674Y0000529056D01*
X0001807266Y0000535247D01*
X0001813511Y0000542796D01*
X0001818171Y0000551414D01*
X0001821067Y0000560772D01*
X0001822092Y0000570515D01*
X0001821204Y0000580272D01*
X0001818438Y0000589670D01*
X0001813899Y0000598352D01*
X0001807760Y0000605987D01*
X0001800255Y0000612284D01*
X0001791671Y0000617003D01*
X0001782332Y0000619966D01*
X0001776785Y0000620588D01*
X0001805118Y0000620588D01*
X0001807782Y0000620800D01*
X0001812302Y0000622200D01*
X0001816252Y0000624803D01*
X0001819321Y0000628404D01*
X0001821265Y0000632717D01*
X0001821931Y0000637401D01*
X0001821931Y0000704330D01*
X0001821718Y0000706995D01*
X0001820319Y0000711514D01*
X0001817716Y0000715465D01*
X0001814115Y0000718534D01*
X0001809802Y0000720478D01*
X0001805118Y0000721143D01*
X0001785925Y0000721143D01*
X0001785925Y0000796451D01*
X0001794639Y0000800120D01*
X0001802468Y0000805419D01*
X0001809114Y0000812144D01*
X0001814320Y0000820036D01*
X0001817721Y0000828247D01*
X0001815654Y0000835629D01*
X0001778543Y0000835629D01*
X0001778543Y0000849409D01*
X0001815654Y0000849409D01*
X0001817721Y0000856791D01*
X0001814320Y0000865003D01*
X0001809114Y0000872895D01*
X0001802468Y0000879619D01*
X0001794639Y0000884918D01*
X0001785925Y0000888588D01*
X0001778543Y0000886562D01*
X0001778543Y0000849409D01*
X0001778543Y0000835629D01*
X0001778543Y0000798476D01*
X0001785925Y0000796451D01*
X0001785925Y0000721143D01*
X0001757381Y0000721143D01*
X0001757381Y0000796451D01*
X0001764763Y0000798476D01*
X0001764763Y0000835629D01*
X0001727652Y0000835629D01*
X0001727652Y0000849409D01*
X0001764763Y0000849409D01*
X0001764763Y0000886562D01*
X0001757381Y0000888588D01*
X0001748668Y0000884918D01*
X0001740838Y0000879619D01*
X0001738188Y0000876939D01*
X0001738188Y0000892241D01*
X0001805118Y0000892241D01*
X0001807782Y0000892454D01*
X0001812302Y0000893853D01*
X0001816252Y0000896457D01*
X0001819321Y0000900057D01*
X0001821265Y0000904371D01*
X0001821931Y0000909055D01*
X0001821931Y0000975984D01*
X0001821718Y0000978648D01*
X0001820319Y0000983168D01*
X0001817716Y0000987118D01*
X0001814115Y0000990187D01*
X0001809802Y0000992131D01*
X0001805118Y0000992797D01*
X0001738188Y0000992797D01*
X0001735524Y0000992584D01*
X0001731005Y0000991185D01*
X0001727054Y0000988582D01*
X0001723985Y0000984981D01*
X0001722041Y0000980668D01*
X0001721375Y0000975984D01*
X0001721375Y0000909055D01*
X0001721588Y0000906390D01*
X0001722987Y0000901871D01*
X0001725591Y0000897920D01*
X0001729191Y0000894851D01*
X0001733504Y0000892907D01*
X0001738188Y0000892241D01*
X0001738188Y0000876939D01*
X0001734192Y0000872895D01*
X0001728986Y0000865003D01*
X0001725585Y0000856791D01*
X0001727652Y0000849409D01*
X0001727652Y0000835629D01*
X0001725585Y0000828247D01*
X0001728986Y0000820036D01*
X0001734192Y0000812144D01*
X0001740838Y0000805419D01*
X0001748668Y0000800120D01*
X0001757381Y0000796451D01*
X0001757381Y0000721143D01*
X0001738188Y0000721143D01*
X0001735524Y0000720931D01*
X0001731005Y0000719531D01*
X0001727054Y0000716928D01*
X0001723985Y0000713327D01*
X0001722041Y0000709014D01*
X0001721375Y0000704330D01*
X0001721375Y0000637401D01*
X0001721588Y0000634737D01*
X0001722987Y0000630217D01*
X0001725591Y0000626267D01*
X0001729191Y0000623198D01*
X0001733504Y0000621254D01*
X0001738188Y0000620588D01*
X0001766569Y0000620588D01*
X0001761660Y0000620107D01*
X0001752282Y0000617275D01*
X0001743632Y0000612676D01*
X0001736040Y0000606484D01*
X0001729795Y0000598935D01*
X0001725136Y0000590318D01*
X0001722239Y0000580959D01*
X0001721215Y0000571216D01*
X0001722102Y0000561460D01*
X0001724868Y0000552062D01*
X0001729407Y0000543380D01*
X0001735546Y0000535745D01*
X0001743051Y0000529448D01*
X0001751636Y0000524728D01*
X0001760974Y0000521766D01*
X0001770709Y0000520674D01*
X0001771410Y0000520669D01*
X0001771410Y0000411417D01*
X0001757381Y0000411417D01*
X0001757381Y0000424797D01*
X0001764763Y0000426823D01*
X0001764763Y0000463976D01*
X0001727652Y0000463976D01*
X0001727652Y0000477755D01*
X0001764763Y0000477755D01*
X0001764763Y0000514909D01*
X0001757381Y0000516934D01*
X0001748668Y0000513265D01*
X0001740838Y0000507966D01*
X0001734192Y0000501241D01*
X0001728986Y0000493349D01*
X0001725585Y0000485138D01*
X0001727652Y0000477755D01*
X0001727652Y0000463976D01*
X0001725585Y0000456593D01*
X0001728986Y0000448382D01*
X0001734192Y0000440490D01*
X0001740838Y0000433766D01*
X0001748668Y0000428467D01*
X0001757381Y0000424797D01*
X0001757381Y0000411417D01*
X0001461079Y0000411417D01*
X0001461079Y0000459577D01*
X0001471141Y0000461423D01*
X0001480652Y0000465189D01*
X0001489252Y0000470731D01*
X0001496611Y0000477838D01*
X0001502449Y0000486238D01*
X0001506545Y0000495613D01*
X0001508741Y0000505604D01*
X0001508956Y0000515832D01*
X0001507179Y0000525907D01*
X0001503480Y0000535444D01*
X0001497998Y0000544082D01*
X0001490943Y0000551490D01*
X0001482584Y0000557387D01*
X0001473238Y0000561548D01*
X0001463262Y0000563815D01*
X0001461079Y0000563845D01*
X0001461079Y0000656427D01*
X0001471141Y0000658274D01*
X0001480652Y0000662040D01*
X0001489252Y0000667581D01*
X0001496611Y0000674688D01*
X0001502449Y0000683088D01*
X0001506545Y0000692463D01*
X0001508741Y0000702454D01*
X0001508956Y0000712682D01*
X0001507179Y0000722757D01*
X0001503480Y0000732295D01*
X0001497998Y0000740932D01*
X0001490943Y0000748341D01*
X0001482584Y0000754238D01*
X0001473238Y0000758399D01*
X0001463262Y0000760665D01*
X0001461079Y0000760696D01*
X0001461079Y0000853277D01*
X0001471141Y0000855124D01*
X0001480652Y0000858890D01*
X0001489252Y0000864432D01*
X0001496611Y0000871538D01*
X0001502449Y0000879939D01*
X0001506545Y0000889313D01*
X0001508741Y0000899305D01*
X0001508956Y0000909533D01*
X0001507179Y0000919607D01*
X0001503480Y0000929145D01*
X0001497998Y0000937783D01*
X0001490943Y0000945191D01*
X0001482584Y0000951088D01*
X0001473238Y0000955249D01*
X0001463262Y0000957516D01*
X0001451577Y0000957679D01*
X0001441542Y0000955692D01*
X0001432084Y0000951793D01*
X0001423563Y0000946132D01*
X0001416304Y0000938924D01*
X0001410583Y0000930442D01*
X0001406619Y0000921012D01*
X0001404562Y0000910990D01*
X0001404490Y0000900761D01*
X0001406407Y0000890712D01*
X0001410240Y0000881226D01*
X0001415841Y0000872666D01*
X0001422999Y0000865357D01*
X0001431440Y0000859577D01*
X0001440843Y0000855547D01*
X0001450849Y0000853420D01*
X0001461079Y0000853277D01*
X0001461079Y0000760696D01*
X0001451577Y0000760828D01*
X0001441542Y0000758841D01*
X0001432084Y0000754943D01*
X0001423563Y0000749282D01*
X0001416304Y0000742073D01*
X0001410583Y0000733592D01*
X0001406619Y0000724161D01*
X0001404562Y0000714140D01*
X0001404490Y0000703910D01*
X0001406407Y0000693861D01*
X0001410240Y0000684376D01*
X0001415841Y0000675816D01*
X0001422999Y0000668507D01*
X0001431440Y0000662727D01*
X0001440843Y0000658697D01*
X0001450849Y0000656570D01*
X0001461079Y0000656427D01*
X0001461079Y0000563845D01*
X0001451577Y0000563978D01*
X0001441542Y0000561991D01*
X0001432084Y0000558093D01*
X0001423563Y0000552431D01*
X0001416304Y0000545223D01*
X0001410583Y0000536742D01*
X0001406619Y0000527311D01*
X0001404562Y0000517290D01*
X0001404490Y0000507060D01*
X0001406407Y0000497011D01*
X0001410240Y0000487526D01*
X0001415841Y0000478965D01*
X0001422999Y0000471656D01*
X0001431440Y0000465877D01*
X0001440843Y0000461846D01*
X0001450849Y0000459719D01*
X0001461079Y0000459577D01*
X0001461079Y0000411417D01*
X0001356299Y0000411417D01*
X0001356299Y0001005905D01*
X0001832677Y0001005905D01*
M02*