%MOIN*%
%OFA0B0*%
%FSLAX46Y46*%
%IPPOS*%
%LPD*%
%ADD10C,0.0039370078740157488*%
%ADD11R,0.035433070866141732X0.047244094488188976*%
%ADD12R,0.0709X0.061000000000000006*%
%ADD13R,0.029527559055118113X0.047244094488188976*%
%ADD14R,0.035433070866141732X0.031496062992125991*%
%ADD15R,0.049212598425196853X0.03937007874015748*%
%ADD26C,0.0039370078740157488*%
%ADD27R,0.029527559055118113X0.047244094488188976*%
%ADD28R,0.035433070866141732X0.031496062992125991*%
%ADD29R,0.061000000000000006X0.0709*%
%ADD30R,0.031496062992125991X0.035433070866141732*%
%ADD31R,0.035433070866141732X0.047244094488188976*%
%ADD32R,0.0709X0.061000000000000006*%
%ADD43C,0.0039370078740157488*%
%ADD44R,0.035433070866141732X0.047244094488188976*%
%ADD45R,0.0709X0.061000000000000006*%
%ADD46R,0.029527559055118113X0.047244094488188976*%
%ADD47R,0.035433070866141732X0.031496062992125991*%
%ADD48R,0.049212598425196853X0.03937007874015748*%
%ADD59C,0.0039370078740157488*%
%ADD60R,0.029527559055118113X0.047244094488188976*%
%ADD61R,0.035433070866141732X0.031496062992125991*%
%ADD62R,0.061000000000000006X0.0709*%
%ADD63R,0.031496062992125991X0.035433070866141732*%
%ADD64R,0.035433070866141732X0.047244094488188976*%
%ADD65R,0.0709X0.061000000000000006*%
%LPD*%
G01*
D10*
D11*
X-0005003782Y0005629163D02*
X0000389763Y0000350393D03*
X0000389763Y0000437008D03*
D12*
X0000507874Y0000440000D03*
X0000507874Y0000347400D03*
D13*
X0000744094Y0000431102D03*
X0000744094Y0000356299D03*
D12*
X0000507874Y0000583621D03*
X0000507874Y0000676221D03*
D14*
X0000925196Y0000356299D03*
X0000925196Y0000431102D03*
X0000830708Y0000393700D03*
D11*
X0000625984Y0000437008D03*
X0000625984Y0000350393D03*
X0001019685Y0000437008D03*
X0001019685Y0000350393D03*
X0000389763Y0000586614D03*
X0000389763Y0000673228D03*
X0000625984Y0000673228D03*
X0000625984Y0000586614D03*
X0000625984Y0000811023D03*
X0000625984Y0000897637D03*
X0000074803Y0000826771D03*
X0000074803Y0000913386D03*
D15*
X0000507874Y0000885826D03*
X0000507874Y0000807086D03*
G01*
D26*
D27*
X-0004566929Y0004842519D02*
X0001983833Y0000671230D03*
X0001983833Y0000746033D03*
D28*
X0001940526Y0000391703D03*
X0001940526Y0000316900D03*
X0002035013Y0000354301D03*
D29*
X0001811548Y0000551152D03*
X0001904149Y0000551152D03*
D30*
X0001816510Y0000661388D03*
X0001891313Y0000661388D03*
X0001853912Y0000755876D03*
D31*
X0001727926Y0000751939D03*
X0001727926Y0000665325D03*
D32*
X0002200368Y0000662332D03*
X0002200368Y0000754932D03*
D29*
X0001622571Y0000551152D03*
X0001715172Y0000551152D03*
D27*
X0002204305Y0000391703D03*
X0002204305Y0000316900D03*
D32*
X0001755487Y0000308001D03*
X0001755487Y0000400601D03*
D31*
X0002082258Y0000665325D03*
X0002082258Y0000751939D03*
X0001637376Y0000751939D03*
X0001637376Y0000665325D03*
X0002121628Y0000397608D03*
X0002121628Y0000310994D03*
X0001857849Y0000310994D03*
X0001857849Y0000397608D03*
X0001645250Y0000310994D03*
X0001645250Y0000397608D03*
X0001546825Y0000751939D03*
X0001546825Y0000665325D03*
X0002204305Y0000566900D03*
X0002204305Y0000480285D03*
G04 next file*
%LPD*%
G01*
D43*
D44*
X-0005003936Y0006692913D02*
X0000389609Y0001414144D03*
X0000389609Y0001500757D03*
D45*
X0000507719Y0001503751D03*
X0000507719Y0001411151D03*
D46*
X0000743940Y0001494852D03*
X0000743940Y0001420049D03*
D45*
X0000507719Y0001647370D03*
X0000507719Y0001739971D03*
D47*
X0000925041Y0001420049D03*
X0000925041Y0001494852D03*
X0000830554Y0001457451D03*
D44*
X0000625829Y0001500757D03*
X0000625829Y0001414144D03*
X0001019530Y0001500757D03*
X0001019530Y0001414144D03*
X0000389609Y0001650364D03*
X0000389609Y0001736978D03*
X0000625829Y0001736978D03*
X0000625829Y0001650364D03*
X0000625829Y0001874773D03*
X0000625829Y0001961388D03*
X0000074648Y0001890522D03*
X0000074648Y0001977136D03*
D48*
X0000507719Y0001949577D03*
X0000507719Y0001870837D03*
G04 next file*
G04 #@! TF.FileFunction,Paste,Top*
G04 Gerber Fmt 4.6, Leading zero omitted, Abs format (unit mm)*
G04 Created by KiCad (PCBNEW 4.0.7) date 04/30/18 07:14:38*
G01*
G04 APERTURE LIST*
G04 APERTURE END LIST*
D59*
D60*
X-0004566929Y0005905510D02*
X0001983833Y0001734222D03*
X0001983833Y0001809026D03*
D61*
X0001940526Y0001454695D03*
X0001940526Y0001379892D03*
X0002035013Y0001417293D03*
D62*
X0001811548Y0001614144D03*
X0001904149Y0001614144D03*
D63*
X0001816510Y0001724380D03*
X0001891313Y0001724380D03*
X0001853912Y0001818868D03*
D64*
X0001727926Y0001814930D03*
X0001727926Y0001728317D03*
D65*
X0002200368Y0001725324D03*
X0002200368Y0001817924D03*
D62*
X0001622571Y0001614144D03*
X0001715172Y0001614144D03*
D60*
X0002204305Y0001454695D03*
X0002204305Y0001379892D03*
D65*
X0001755487Y0001370993D03*
X0001755487Y0001463593D03*
D64*
X0002082258Y0001728317D03*
X0002082258Y0001814930D03*
X0001637376Y0001814930D03*
X0001637376Y0001728317D03*
X0002121628Y0001460600D03*
X0002121628Y0001373986D03*
X0001857849Y0001373986D03*
X0001857849Y0001460600D03*
X0001645250Y0001373986D03*
X0001645250Y0001460600D03*
X0001546825Y0001814930D03*
X0001546825Y0001728317D03*
X0002204305Y0001629892D03*
X0002204305Y0001543278D03*
M02*