%MOIN*%
%OFA0B0*%
%FSLAX46Y46*%
%IPPOS*%
%LPD*%
%ADD10C,0.0039370078740157488*%
%ADD11C,0.086614173228346469*%
%ADD12O,0.094448031496063X0.094448031496063*%
%ADD13R,0.094448031496063X0.094448031496063*%
%ADD14R,0.062992125984251982X0.082677165354330714*%
%ADD15O,0.062992125984251982X0.082677165354330714*%
%ADD16R,0.051181102362204731X0.062992125984251982*%
%ADD17R,0.11414803149606301X0.086648031496063*%
%ADD18R,0.064960629921259838X0.055118110236220472*%
%ADD19R,0.082677165354330714X0.082677165354330714*%
%ADD20O,0.082677165354330714X0.082677165354330714*%
%ADD21R,0.11414803149606301X0.092548031496063*%
%ADD32C,0.0039370078740157488*%
%ADD33C,0.086614173228346469*%
%ADD34O,0.094448031496063X0.094448031496063*%
%ADD35R,0.094448031496063X0.094448031496063*%
%ADD36R,0.062992125984251982X0.082677165354330714*%
%ADD37O,0.062992125984251982X0.082677165354330714*%
%ADD38R,0.051181102362204731X0.062992125984251982*%
%ADD39R,0.11414803149606301X0.086648031496063*%
%ADD40R,0.064960629921259838X0.055118110236220472*%
%ADD41R,0.082677165354330714X0.082677165354330714*%
%ADD42O,0.082677165354330714X0.082677165354330714*%
%ADD43R,0.11414803149606301X0.092548031496063*%
%ADD54C,0.0039370078740157488*%
%ADD55C,0.086614173228346469*%
%ADD56O,0.094448031496063X0.094448031496063*%
%ADD57R,0.094448031496063X0.094448031496063*%
%ADD58R,0.062992125984251982X0.082677165354330714*%
%ADD59O,0.062992125984251982X0.082677165354330714*%
%ADD60R,0.051181102362204731X0.062992125984251982*%
%ADD61R,0.11414803149606301X0.086648031496063*%
%ADD62R,0.064960629921259838X0.055118110236220472*%
%ADD63R,0.082677165354330714X0.082677165354330714*%
%ADD64O,0.082677165354330714X0.082677165354330714*%
%ADD65R,0.11414803149606301X0.092548031496063*%
%ADD76C,0.0039370078740157488*%
%ADD77C,0.086614173228346469*%
%ADD78O,0.094448031496063X0.094448031496063*%
%ADD79R,0.094448031496063X0.094448031496063*%
%ADD80R,0.062992125984251982X0.082677165354330714*%
%ADD81O,0.062992125984251982X0.082677165354330714*%
%ADD82R,0.051181102362204731X0.062992125984251982*%
%ADD83R,0.11414803149606301X0.086648031496063*%
%ADD84R,0.064960629921259838X0.055118110236220472*%
%ADD85R,0.082677165354330714X0.082677165354330714*%
%ADD86O,0.082677165354330714X0.082677165354330714*%
%ADD87R,0.11414803149606301X0.092548031496063*%
%LPD*%
G01*
D10*
D11*
X-0005354330Y0004488188D02*
X0000078740Y0000635826D03*
X0000078740Y0000488188D03*
X0000078740Y0000340551D03*
X0000275590Y0000635826D03*
X0000275590Y0000488188D03*
X0000275590Y0000340551D03*
D12*
X0000587401Y0000127952D03*
D13*
X0000787401Y0000127952D03*
D12*
X0000687401Y0000127952D03*
D14*
X0000413385Y0000895669D03*
D15*
X0000334645Y0000895669D03*
D14*
X0000999711Y0000893006D03*
D15*
X0000920970Y0000893006D03*
X0000842230Y0000893006D03*
X0000763490Y0000893006D03*
D12*
X0000923622Y0000127952D03*
D13*
X0001023622Y0000127952D03*
D16*
X0001023622Y0000484251D03*
X0001023622Y0000570866D03*
X0000929133Y0000570866D03*
X0000929133Y0000484251D03*
D17*
X0000996022Y0000364173D03*
X0000838622Y0000364173D03*
D18*
X0000629921Y0000665354D03*
X0000629921Y0000586614D03*
D19*
X0000175590Y0000120078D03*
D20*
X0000275590Y0000120078D03*
X0000375590Y0000120078D03*
D21*
X0000777977Y0000611210D03*
X0000777977Y0000491210D03*
G01*
D32*
D33*
X-0005354330Y0005551181D02*
X0000078740Y0001698818D03*
X0000078740Y0001551181D03*
X0000078740Y0001403543D03*
X0000275590Y0001698818D03*
X0000275590Y0001551181D03*
X0000275590Y0001403543D03*
D34*
X0000587401Y0001190944D03*
D35*
X0000787401Y0001190944D03*
D34*
X0000687401Y0001190944D03*
D36*
X0000413385Y0001958661D03*
D37*
X0000334645Y0001958661D03*
D36*
X0000999711Y0001955998D03*
D37*
X0000920970Y0001955998D03*
X0000842230Y0001955998D03*
X0000763490Y0001955998D03*
D34*
X0000923622Y0001190944D03*
D35*
X0001023622Y0001190944D03*
D38*
X0001023622Y0001547244D03*
X0001023622Y0001633858D03*
X0000929133Y0001633858D03*
X0000929133Y0001547244D03*
D39*
X0000996022Y0001427165D03*
X0000838622Y0001427165D03*
D40*
X0000629921Y0001728346D03*
X0000629921Y0001649606D03*
D41*
X0000175590Y0001183070D03*
D42*
X0000275590Y0001183070D03*
X0000375590Y0001183070D03*
D43*
X0000777977Y0001674201D03*
X0000777977Y0001554202D03*
G04 next file*
%LPD*%
G01*
D54*
D55*
X-0004173228Y0004488188D02*
X0001259842Y0000635826D03*
X0001259842Y0000488188D03*
X0001259842Y0000340551D03*
X0001456692Y0000635826D03*
X0001456692Y0000488188D03*
X0001456692Y0000340551D03*
D56*
X0001768503Y0000127952D03*
D57*
X0001968503Y0000127952D03*
D56*
X0001868503Y0000127952D03*
D58*
X0001594488Y0000895669D03*
D59*
X0001515748Y0000895669D03*
D58*
X0002180813Y0000893006D03*
D59*
X0002102073Y0000893006D03*
X0002023333Y0000893006D03*
X0001944593Y0000893006D03*
D56*
X0002104724Y0000127952D03*
D57*
X0002204724Y0000127952D03*
D60*
X0002204724Y0000484251D03*
X0002204724Y0000570866D03*
X0002110236Y0000570866D03*
X0002110236Y0000484251D03*
D61*
X0002177125Y0000364173D03*
X0002019725Y0000364173D03*
D62*
X0001811023Y0000665354D03*
X0001811023Y0000586614D03*
D63*
X0001356692Y0000120078D03*
D64*
X0001456692Y0000120078D03*
X0001556692Y0000120078D03*
D65*
X0001959079Y0000611210D03*
X0001959079Y0000491210D03*
G04 next file*
G04 #@! TF.FileFunction,Soldermask,Bot*
G04 Gerber Fmt 4.6, Leading zero omitted, Abs format (unit mm)*
G04 Created by KiCad (PCBNEW 4.0.4-1.fc24-product) date Mon Apr 30 14:16:04 2018*
G01*
G04 APERTURE LIST*
G04 APERTURE END LIST*
D76*
D77*
X-0004173228Y0005551181D02*
X0001259842Y0001698818D03*
X0001259842Y0001551181D03*
X0001259842Y0001403543D03*
X0001456692Y0001698818D03*
X0001456692Y0001551181D03*
X0001456692Y0001403543D03*
D78*
X0001768503Y0001190944D03*
D79*
X0001968503Y0001190944D03*
D78*
X0001868503Y0001190944D03*
D80*
X0001594488Y0001958661D03*
D81*
X0001515748Y0001958661D03*
D80*
X0002180813Y0001955998D03*
D81*
X0002102073Y0001955998D03*
X0002023333Y0001955998D03*
X0001944593Y0001955998D03*
D78*
X0002104724Y0001190944D03*
D79*
X0002204724Y0001190944D03*
D82*
X0002204724Y0001547244D03*
X0002204724Y0001633858D03*
X0002110236Y0001633858D03*
X0002110236Y0001547244D03*
D83*
X0002177125Y0001427165D03*
X0002019725Y0001427165D03*
D84*
X0001811023Y0001728346D03*
X0001811023Y0001649606D03*
D85*
X0001356692Y0001183070D03*
D86*
X0001456692Y0001183070D03*
X0001556692Y0001183070D03*
D87*
X0001959079Y0001674201D03*
X0001959079Y0001554202D03*
M02*