%MOIN*%
%OFA0B0*%
%FSLAX44Y44*%
%IPPOS*%
%LPD*%
%ADD10C,0*%
D10*
X00018515Y00009842D02*
X00018515Y00009842D01*
X00016121Y00009842D02*
X00016121Y00009842D01*
X00016121Y00009842D02*
X00011806Y00009842D01*
X00011806Y00006148D01*
X00011804Y00006106D01*
X00011798Y00006065D01*
X00011787Y00006025D01*
X00011772Y00005987D01*
X00011753Y00005950D01*
X00011730Y00005915D01*
X00011704Y00005883D01*
X00011675Y00005854D01*
X00011643Y00005828D01*
X00011608Y00005806D01*
X00011571Y00005787D01*
X00011532Y00005773D01*
X00011492Y00005762D01*
X00011451Y00005756D01*
X00011410Y00005754D01*
X00011368Y00005756D01*
X00011328Y00005763D01*
X00011288Y00005774D01*
X00011249Y00005790D01*
X00011212Y00005809D01*
X00011177Y00005829D01*
X00011160Y00005840D01*
X00011143Y00005852D01*
X00011127Y00005865D01*
X00011112Y00005878D01*
X00011097Y00005892D01*
X00011083Y00005907D01*
X00011070Y00005923D01*
X00011058Y00005939D01*
X00011046Y00005956D01*
X00011036Y00005973D01*
X00011026Y00005991D01*
X00011017Y00006010D01*
X00011009Y00006029D01*
X00011003Y00006048D01*
X00010997Y00006068D01*
X00010992Y00006087D01*
X00010989Y00006107D01*
X00010986Y00006128D01*
X00010984Y00006148D01*
X00010984Y00006168D01*
X00010984Y00009842D01*
X00006706Y00009842D01*
X00006675Y00009843D01*
X00006644Y00009847D01*
X00006614Y00009853D01*
X00006584Y00009861D01*
X00006555Y00009872D01*
X00006527Y00009885D01*
X00006500Y00009900D01*
X00006475Y00009917D01*
X00006450Y00009936D01*
X00006428Y00009957D01*
X00006407Y00009980D01*
X00006388Y00010004D01*
X00006370Y00010030D01*
X00006355Y00010057D01*
X00006342Y00010085D01*
X00006332Y00010114D01*
X00006323Y00010144D01*
X00006317Y00010174D01*
X00006314Y00010205D01*
X00006312Y00010236D01*
X00006312Y00010243D01*
X00006314Y00010274D01*
X00006317Y00010305D01*
X00006323Y00010335D01*
X00006332Y00010365D01*
X00006342Y00010394D01*
X00006355Y00010422D01*
X00006370Y00010449D01*
X00006388Y00010475D01*
X00006407Y00010499D01*
X00006428Y00010522D01*
X00006450Y00010543D01*
X00006475Y00010562D01*
X00006500Y00010579D01*
X00006527Y00010594D01*
X00006555Y00010607D01*
X00006584Y00010618D01*
X00006614Y00010626D01*
X00006644Y00010632D01*
X00006675Y00010636D01*
X00006706Y00010637D01*
X00010982Y00010637D01*
X00010982Y00014246D01*
X00010983Y00014271D01*
X00010985Y00014296D01*
X00010989Y00014321D01*
X00010995Y00014345D01*
X00011002Y00014370D01*
X00011011Y00014393D01*
X00011021Y00014416D01*
X00011033Y00014439D01*
X00011046Y00014460D01*
X00011060Y00014481D01*
X00011076Y00014501D01*
X00011093Y00014519D01*
X00011111Y00014537D01*
X00011130Y00014553D01*
X00011150Y00014568D01*
X00011171Y00014582D01*
X00011193Y00014594D01*
X00011216Y00014605D01*
X00011239Y00014615D01*
X00011263Y00014623D01*
X00011300Y00014634D01*
X00011335Y00014643D01*
X00011372Y00014648D01*
X00011408Y00014650D01*
X00011445Y00014649D01*
X00011481Y00014644D01*
X00011517Y00014636D01*
X00011552Y00014625D01*
X00011585Y00014611D01*
X00011617Y00014593D01*
X00011648Y00014572D01*
X00011676Y00014549D01*
X00011702Y00014523D01*
X00011726Y00014495D01*
X00011747Y00014465D01*
X00011764Y00014433D01*
X00011779Y00014400D01*
X00011791Y00014365D01*
X00011800Y00014330D01*
X00011805Y00014293D01*
X00011806Y00014257D01*
X00011806Y00010629D01*
X00016121Y00010629D01*
X00016183Y00010624D01*
X00016243Y00010610D01*
X00016300Y00010586D01*
X00016353Y00010554D01*
X00016400Y00010514D01*
X00016440Y00010467D01*
X00016472Y00010414D01*
X00016496Y00010357D01*
X00016510Y00010297D01*
X00016515Y00010235D01*
X00016510Y00010174D01*
X00016496Y00010114D01*
X00016472Y00010057D01*
X00016440Y00010004D01*
X00016400Y00009957D01*
X00016353Y00009917D01*
X00016300Y00009885D01*
X00016243Y00009861D01*
X00016183Y00009847D01*
X00016121Y00009842D01*
X00016121Y00009842D01*
X00022830Y00009842D02*
X00018515Y00009842D01*
X00018515Y00009842D01*
X00018453Y00009847D01*
X00018393Y00009861D01*
X00018336Y00009885D01*
X00018283Y00009917D01*
X00018237Y00009957D01*
X00018196Y00010004D01*
X00018164Y00010057D01*
X00018140Y00010114D01*
X00018126Y00010174D01*
X00018121Y00010235D01*
X00018126Y00010297D01*
X00018140Y00010357D01*
X00018164Y00010414D01*
X00018196Y00010467D01*
X00018237Y00010514D01*
X00018283Y00010554D01*
X00018336Y00010586D01*
X00018393Y00010610D01*
X00018453Y00010624D01*
X00018515Y00010629D01*
X00022830Y00010629D01*
X00022830Y00020472D01*
X00011806Y00020472D01*
X00011806Y00016459D01*
X00011805Y00016423D01*
X00011800Y00016386D01*
X00011791Y00016351D01*
X00011779Y00016316D01*
X00011764Y00016283D01*
X00011747Y00016251D01*
X00011726Y00016221D01*
X00011702Y00016192D01*
X00011676Y00016167D01*
X00011648Y00016144D01*
X00011617Y00016123D01*
X00011585Y00016105D01*
X00011552Y00016091D01*
X00011517Y00016080D01*
X00011481Y00016072D01*
X00011445Y00016067D01*
X00011408Y00016066D01*
X00011372Y00016068D01*
X00011335Y00016073D01*
X00011300Y00016082D01*
X00011263Y00016093D01*
X00011239Y00016101D01*
X00011216Y00016111D01*
X00011193Y00016122D01*
X00011171Y00016134D01*
X00011150Y00016148D01*
X00011130Y00016163D01*
X00011111Y00016179D01*
X00011093Y00016197D01*
X00011076Y00016215D01*
X00011060Y00016235D01*
X00011046Y00016256D01*
X00011033Y00016277D01*
X00011021Y00016300D01*
X00011011Y00016323D01*
X00011002Y00016346D01*
X00010995Y00016371D01*
X00010989Y00016395D01*
X00010985Y00016420D01*
X00010983Y00016445D01*
X00010982Y00016470D01*
X00010982Y00020480D01*
X-00000040Y00020480D01*
X-00000040Y00010637D01*
X00004315Y00010637D01*
X00004346Y00010636D01*
X00004377Y00010632D01*
X00004407Y00010626D01*
X00004437Y00010618D01*
X00004466Y00010607D01*
X00004494Y00010594D01*
X00004521Y00010579D01*
X00004546Y00010562D01*
X00004571Y00010543D01*
X00004593Y00010522D01*
X00004614Y00010499D01*
X00004634Y00010475D01*
X00004651Y00010449D01*
X00004666Y00010422D01*
X00004679Y00010394D01*
X00004689Y00010365D01*
X00004698Y00010335D01*
X00004704Y00010305D01*
X00004708Y00010274D01*
X00004709Y00010243D01*
X00004709Y00010236D01*
X00004708Y00010205D01*
X00004704Y00010174D01*
X00004698Y00010144D01*
X00004689Y00010114D01*
X00004679Y00010085D01*
X00004666Y00010057D01*
X00004651Y00010030D01*
X00004634Y00010004D01*
X00004614Y00009980D01*
X00004593Y00009957D01*
X00004571Y00009936D01*
X00004546Y00009917D01*
X00004521Y00009900D01*
X00004494Y00009885D01*
X00004466Y00009872D01*
X00004437Y00009861D01*
X00004407Y00009853D01*
X00004377Y00009847D01*
X00004346Y00009843D01*
X00004315Y00009842D01*
X-00000039Y00009842D01*
X-00000039Y00000000D01*
X00010984Y00000000D01*
X00010984Y00003934D01*
X00010984Y00003955D01*
X00010986Y00003975D01*
X00010989Y00003995D01*
X00010992Y00004015D01*
X00010997Y00004035D01*
X00011003Y00004055D01*
X00011009Y00004074D01*
X00011017Y00004093D01*
X00011026Y00004111D01*
X00011036Y00004129D01*
X00011046Y00004147D01*
X00011058Y00004164D01*
X00011070Y00004180D01*
X00011083Y00004196D01*
X00011097Y00004210D01*
X00011112Y00004225D01*
X00011127Y00004238D01*
X00011143Y00004251D01*
X00011160Y00004262D01*
X00011177Y00004273D01*
X00011212Y00004294D01*
X00011249Y00004313D01*
X00011288Y00004328D01*
X00011328Y00004339D01*
X00011368Y00004346D01*
X00011410Y00004349D01*
X00011451Y00004347D01*
X00011492Y00004341D01*
X00011532Y00004330D01*
X00011571Y00004315D01*
X00011608Y00004297D01*
X00011643Y00004274D01*
X00011675Y00004249D01*
X00011704Y00004219D01*
X00011730Y00004187D01*
X00011753Y00004153D01*
X00011772Y00004116D01*
X00011787Y00004077D01*
X00011798Y00004037D01*
X00011804Y00003996D01*
X00011806Y00003955D01*
X00011806Y00000000D01*
X00022830Y00000000D01*
X00022830Y00009842D01*
M02*