%
M48
METRIC,000.000
T01C0.40
T02C1.00
T03C1.02
T04C1.10
T10C0.50
%
T01
X010500Y009000
X012748Y015751
X016000Y012500
X016349Y020599
X017220Y011299
X021500Y019000
X026000Y006859
X027360Y014400
X041000Y009000
X043248Y015751
X046500Y012500
X046849Y020599
X047720Y011299
X052000Y019000
X056500Y006859
X057860Y014400
X041000Y036500
X043248Y043251
X046500Y040000
X046849Y048099
X047720Y038800
X052000Y046500
X056500Y034360
X057860Y041900
X010500Y036500
X012748Y043251
X016000Y040000
X016349Y048099
X017220Y038800
X021500Y046500
X026000Y034360
X027360Y041900
T02
X002000Y016149
X002000Y012400
X002000Y008650
X004460Y003049
X007000Y016149
X007000Y012400
X007000Y008650
X007000Y003049
X009539Y003049
X032500Y016149
X032500Y012400
X032500Y008650
X034960Y003049
X037500Y016149
X037500Y012400
X037500Y008650
X037500Y003049
X040039Y003049
X032500Y043650
X032500Y039900
X032500Y036150
X034960Y030549
X037500Y043650
X037500Y039900
X037500Y036150
X037500Y030549
X040039Y030549
X002000Y043650
X002000Y039900
X002000Y036150
X004460Y030549
X007000Y043650
X007000Y039900
X007000Y036150
X007000Y030549
X009539Y030549
T03
X012800Y022500
X015340Y022500
X017879Y022500
X020419Y022500
X022960Y022500
X025500Y022500
X043300Y022500
X045840Y022500
X048379Y022500
X050919Y022500
X053460Y022500
X056000Y022500
X043300Y050000
X045840Y050000
X048379Y050000
X050919Y050000
X053460Y050000
X056000Y050000
X012800Y050000
X015340Y050000
X017879Y050000
X020419Y050000
X022960Y050000
X025500Y050000
T04
X014919Y003250
X017460Y003250
X020000Y003250
X023460Y003250
X026000Y003250
X045419Y003250
X047960Y003250
X050500Y003250
X053960Y003250
X056500Y003250
X045419Y030750
X047960Y030750
X050500Y030750
X053960Y030750
X056500Y030750
X014919Y030750
X017460Y030750
X020000Y030750
X023460Y030750
X026000Y030750
T10
X016785Y025250
X015785Y025250
X014785Y025250
X013785Y025250
X012785Y025250
X011785Y025250
X011429Y027250
X012429Y027250
X013429Y027250
X014429Y027250
X015429Y027250
X016429Y027250
X028250Y009607
X028250Y010607
X028250Y011607
X028250Y012607
X028250Y013607
X028250Y014607
X030250Y015178
X030250Y014178
X030250Y013178
X030250Y012178
X030250Y011178
X030250Y010178
X047285Y025250
X046285Y025250
X045285Y025250
X044285Y025250
X043285Y025250
X042285Y025250
X041929Y027250
X042929Y027250
X043929Y027250
X044929Y027250
X045929Y027250
X046929Y027250
X030250Y042678
X030250Y041678
X030250Y040678
X030250Y039678
X030250Y038678
X030250Y037678
X028250Y037107
X028250Y038107
X028250Y039107
X028250Y040107
X028250Y041107
X028250Y042107
M30