%MOIN*%
%OFA0B0*%
%FSLAX46Y46*%
%IPPOS*%
%LPD*%
%ADD10C,0.0039370078740157488*%
%ADD11R,0.029527559055118113X0.047244094488188976*%
%ADD12R,0.035433070866141732X0.031496062992125991*%
%ADD13R,0.061000000000000006X0.0709*%
%ADD14R,0.031496062992125991X0.035433070866141732*%
%ADD15R,0.035433070866141732X0.047244094488188976*%
%ADD16R,0.0709X0.061000000000000006*%
%ADD27C,0.0039370078740157488*%
%ADD28R,0.029527559055118113X0.047244094488188976*%
%ADD29R,0.035433070866141732X0.031496062992125991*%
%ADD30R,0.061000000000000006X0.0709*%
%ADD31R,0.031496062992125991X0.035433070866141732*%
%ADD32R,0.035433070866141732X0.047244094488188976*%
%ADD33R,0.0709X0.061000000000000006*%
%ADD44C,0.0039370078740157488*%
%ADD45R,0.029527559055118113X0.047244094488188976*%
%ADD46R,0.035433070866141732X0.031496062992125991*%
%ADD47R,0.061000000000000006X0.0709*%
%ADD48R,0.031496062992125991X0.035433070866141732*%
%ADD49R,0.035433070866141732X0.047244094488188976*%
%ADD50R,0.0709X0.061000000000000006*%
%ADD61C,0.0039370078740157488*%
%ADD62R,0.029527559055118113X0.047244094488188976*%
%ADD63R,0.035433070866141732X0.031496062992125991*%
%ADD64R,0.061000000000000006X0.0709*%
%ADD65R,0.031496062992125991X0.035433070866141732*%
%ADD66R,0.035433070866141732X0.047244094488188976*%
%ADD67R,0.0709X0.061000000000000006*%
%LPD*%
G01*
D10*
D11*
X-0005354330Y0004488188D02*
X0000803149Y0000671259D03*
X0000803149Y0000746062D03*
D12*
X0000759842Y0000391732D03*
X0000759842Y0000316929D03*
X0000854330Y0000354330D03*
D13*
X0000630865Y0000551181D03*
X0000723465Y0000551181D03*
D14*
X0000635826Y0000661417D03*
X0000710629Y0000661417D03*
X0000673228Y0000755905D03*
D15*
X0000547244Y0000751968D03*
X0000547244Y0000665354D03*
D16*
X0001019685Y0000662361D03*
X0001019685Y0000754961D03*
D11*
X0001023622Y0000391732D03*
X0001023622Y0000316929D03*
D16*
X0000574803Y0000308030D03*
X0000574803Y0000400630D03*
D15*
X0000901574Y0000665354D03*
X0000901574Y0000751968D03*
X0000456692Y0000751968D03*
X0000456692Y0000665354D03*
X0000940944Y0000397637D03*
X0000940944Y0000311023D03*
X0000677165Y0000311023D03*
X0000677165Y0000397637D03*
X0000464566Y0000311023D03*
X0000464566Y0000397637D03*
X0000366141Y0000751968D03*
X0000366141Y0000665354D03*
X0001023622Y0000566929D03*
X0001023622Y0000480314D03*
D13*
X0000416716Y0000551210D03*
X0000509316Y0000551210D03*
G01*
D27*
D28*
X-0005354330Y0005551181D02*
X0000803149Y0001734250D03*
X0000803149Y0001809054D03*
D29*
X0000759842Y0001454724D03*
X0000759842Y0001379921D03*
X0000854330Y0001417321D03*
D30*
X0000630865Y0001614173D03*
X0000723465Y0001614173D03*
D31*
X0000635826Y0001724409D03*
X0000710629Y0001724409D03*
X0000673228Y0001818897D03*
D32*
X0000547244Y0001814959D03*
X0000547244Y0001728346D03*
D33*
X0001019685Y0001725353D03*
X0001019685Y0001817953D03*
D28*
X0001023622Y0001454724D03*
X0001023622Y0001379921D03*
D33*
X0000574803Y0001371022D03*
X0000574803Y0001463622D03*
D32*
X0000901574Y0001728346D03*
X0000901574Y0001814959D03*
X0000456692Y0001814959D03*
X0000456692Y0001728346D03*
X0000940944Y0001460629D03*
X0000940944Y0001374015D03*
X0000677165Y0001374015D03*
X0000677165Y0001460629D03*
X0000464566Y0001374015D03*
X0000464566Y0001460629D03*
X0000366141Y0001814959D03*
X0000366141Y0001728346D03*
X0001023622Y0001629921D03*
X0001023622Y0001543307D03*
D30*
X0000416716Y0001614201D03*
X0000509316Y0001614201D03*
G04 next file*
%LPD*%
G01*
D44*
D45*
X-0004173228Y0004488188D02*
X0001984251Y0000671259D03*
X0001984251Y0000746062D03*
D46*
X0001940944Y0000391732D03*
X0001940944Y0000316929D03*
X0002035432Y0000354330D03*
D47*
X0001811967Y0000551181D03*
X0001904567Y0000551181D03*
D48*
X0001816928Y0000661417D03*
X0001891732Y0000661417D03*
X0001854330Y0000755905D03*
D49*
X0001728346Y0000751968D03*
X0001728346Y0000665354D03*
D50*
X0002200787Y0000662361D03*
X0002200787Y0000754961D03*
D45*
X0002204724Y0000391732D03*
X0002204724Y0000316929D03*
D50*
X0001755905Y0000308030D03*
X0001755905Y0000400630D03*
D49*
X0002082677Y0000665354D03*
X0002082677Y0000751968D03*
X0001637795Y0000751968D03*
X0001637795Y0000665354D03*
X0002122047Y0000397637D03*
X0002122047Y0000311023D03*
X0001858267Y0000311023D03*
X0001858267Y0000397637D03*
X0001645668Y0000311023D03*
X0001645668Y0000397637D03*
X0001547244Y0000751968D03*
X0001547244Y0000665354D03*
X0002204724Y0000566929D03*
X0002204724Y0000480314D03*
D47*
X0001597819Y0000551210D03*
X0001690418Y0000551210D03*
G04 next file*
G04 #@! TF.FileFunction,Paste,Top*
G04 Gerber Fmt 4.6, Leading zero omitted, Abs format (unit mm)*
G04 Created by KiCad (PCBNEW 4.0.4-1.fc24-product) date Mon Apr 30 14:16:04 2018*
G01*
G04 APERTURE LIST*
G04 APERTURE END LIST*
D61*
D62*
X-0004173228Y0005551181D02*
X0001984251Y0001734250D03*
X0001984251Y0001809054D03*
D63*
X0001940944Y0001454724D03*
X0001940944Y0001379921D03*
X0002035432Y0001417321D03*
D64*
X0001811967Y0001614173D03*
X0001904567Y0001614173D03*
D65*
X0001816928Y0001724409D03*
X0001891732Y0001724409D03*
X0001854330Y0001818897D03*
D66*
X0001728346Y0001814959D03*
X0001728346Y0001728346D03*
D67*
X0002200787Y0001725353D03*
X0002200787Y0001817953D03*
D62*
X0002204724Y0001454724D03*
X0002204724Y0001379921D03*
D67*
X0001755905Y0001371022D03*
X0001755905Y0001463622D03*
D66*
X0002082677Y0001728346D03*
X0002082677Y0001814959D03*
X0001637795Y0001814959D03*
X0001637795Y0001728346D03*
X0002122047Y0001460629D03*
X0002122047Y0001374015D03*
X0001858267Y0001374015D03*
X0001858267Y0001460629D03*
X0001645668Y0001374015D03*
X0001645668Y0001460629D03*
X0001547244Y0001814959D03*
X0001547244Y0001728346D03*
X0002204724Y0001629921D03*
X0002204724Y0001543307D03*
D64*
X0001597819Y0001614201D03*
X0001690418Y0001614201D03*
M02*