M48
;DRILL file {KiCad 4.0.4-1.fc24-product} date Thu Jun  7 15:39:20 2018
;FORMAT={3:3/ absolute / metric / suppress leading zeros}
FMAT,2
METRIC,TZ
T1C0.750
T2C1.000
T3C1.097
%
G90
G05
M71
T1
X140900Y-81400
X142900Y-81400
X144900Y-81400
T2
X138800Y-86300
X138800Y-91100
X138800Y-95900
X138800Y-100730
X143500Y-86300
X143500Y-91100
X143500Y-95900
X143500Y-100730
X148200Y-86300
X148200Y-91100
X148200Y-95900
X148200Y-100730
T3
X152800Y-81300
X152800Y-83840
X152800Y-86860
X152800Y-89400
X152800Y-93560
X152800Y-96100
X152800Y-99160
X152800Y-101700
T0
M30
