G04 #@! TF.FileFunction,Copper,L2,Bot,Signal*
%FSLAX46Y46*%
G04 Gerber Fmt 4.6, Leading zero omitted, Abs format (unit mm)*
G04 Created by KiCad (PCBNEW 4.0.7) date 06/06/18 08:32:26*
%MOMM*%
%LPD*%
G01*
G04 APERTURE LIST*
%ADD10C,0.100000*%
%ADD11O,1.800000X1.800000*%
%ADD12C,1.800000*%
%ADD13O,1.998980X1.998980*%
%ADD14R,1.998980X1.998980*%
%ADD15R,1.200000X1.700000*%
%ADD16O,1.200000X1.700000*%
%ADD17C,0.500000*%
%ADD18C,0.300000*%
G04 APERTURE END LIST*
D10*
D11*
X140400000Y-91500000D03*
D12*
X140400000Y-86800000D03*
D11*
X140400000Y-96200000D03*
D12*
X145230000Y-86800000D03*
D11*
X145230000Y-91500000D03*
X145230000Y-96200000D03*
D13*
X150000000Y-87140000D03*
D14*
X150000000Y-84600000D03*
D13*
X150000000Y-92740000D03*
D14*
X150000000Y-90200000D03*
D15*
X149100000Y-97700000D03*
D16*
X151100000Y-97700000D03*
D17*
X147300000Y-95650000D02*
X147300000Y-90200000D01*
X147300000Y-90200000D02*
X147300000Y-88870000D01*
X150000000Y-90200000D02*
X148500510Y-90200000D01*
X148500510Y-90200000D02*
X147300000Y-90200000D01*
X147300000Y-88870000D02*
X145230000Y-86800000D01*
X149100000Y-97700000D02*
X149100000Y-97450000D01*
X149100000Y-97450000D02*
X147300000Y-95650000D01*
D18*
G36*
X148541694Y-83600510D02*
X148541694Y-85599490D01*
X148573072Y-85766250D01*
X148671627Y-85919409D01*
X148822005Y-86022158D01*
X149000510Y-86058306D01*
X149077252Y-86058306D01*
X148849107Y-86258808D01*
X148599496Y-86766312D01*
X148670781Y-86990000D01*
X149850000Y-86990000D01*
X149850000Y-86970000D01*
X150150000Y-86970000D01*
X150150000Y-86990000D01*
X151329219Y-86990000D01*
X151400504Y-86766312D01*
X151150893Y-86258808D01*
X150922748Y-86058306D01*
X150999490Y-86058306D01*
X151166250Y-86026928D01*
X151319409Y-85928373D01*
X151422158Y-85777995D01*
X151458306Y-85599490D01*
X151458306Y-83600510D01*
X151444098Y-83525000D01*
X152475000Y-83525000D01*
X152475000Y-99475000D01*
X137525000Y-99475000D01*
X137525000Y-96173552D01*
X139050000Y-96173552D01*
X139050000Y-96226448D01*
X139152763Y-96743071D01*
X139445406Y-97181042D01*
X139883377Y-97473685D01*
X140400000Y-97576448D01*
X140916623Y-97473685D01*
X141354594Y-97181042D01*
X141647237Y-96743071D01*
X141750000Y-96226448D01*
X141750000Y-96173552D01*
X143880000Y-96173552D01*
X143880000Y-96226448D01*
X143982763Y-96743071D01*
X144275406Y-97181042D01*
X144713377Y-97473685D01*
X145230000Y-97576448D01*
X145746623Y-97473685D01*
X146184594Y-97181042D01*
X146477237Y-96743071D01*
X146580000Y-96226448D01*
X146580000Y-96173552D01*
X146477237Y-95656929D01*
X146184594Y-95218958D01*
X145746623Y-94926315D01*
X145230000Y-94823552D01*
X144713377Y-94926315D01*
X144275406Y-95218958D01*
X143982763Y-95656929D01*
X143880000Y-96173552D01*
X141750000Y-96173552D01*
X141647237Y-95656929D01*
X141354594Y-95218958D01*
X140916623Y-94926315D01*
X140400000Y-94823552D01*
X139883377Y-94926315D01*
X139445406Y-95218958D01*
X139152763Y-95656929D01*
X139050000Y-96173552D01*
X137525000Y-96173552D01*
X137525000Y-91858034D01*
X139098330Y-91858034D01*
X139334427Y-92328908D01*
X139732748Y-92673588D01*
X140041968Y-92801658D01*
X140250000Y-92728375D01*
X140250000Y-91650000D01*
X140550000Y-91650000D01*
X140550000Y-92728375D01*
X140758032Y-92801658D01*
X141067252Y-92673588D01*
X141465573Y-92328908D01*
X141701670Y-91858034D01*
X141629153Y-91650000D01*
X140550000Y-91650000D01*
X140250000Y-91650000D01*
X139170847Y-91650000D01*
X139098330Y-91858034D01*
X137525000Y-91858034D01*
X137525000Y-91473552D01*
X143880000Y-91473552D01*
X143880000Y-91526448D01*
X143982763Y-92043071D01*
X144275406Y-92481042D01*
X144713377Y-92773685D01*
X145230000Y-92876448D01*
X145746623Y-92773685D01*
X146184594Y-92481042D01*
X146477237Y-92043071D01*
X146580000Y-91526448D01*
X146580000Y-91473552D01*
X146477237Y-90956929D01*
X146184594Y-90518958D01*
X145746623Y-90226315D01*
X145230000Y-90123552D01*
X144713377Y-90226315D01*
X144275406Y-90518958D01*
X143982763Y-90956929D01*
X143880000Y-91473552D01*
X137525000Y-91473552D01*
X137525000Y-91141966D01*
X139098330Y-91141966D01*
X139170847Y-91350000D01*
X140250000Y-91350000D01*
X140250000Y-90271625D01*
X140550000Y-90271625D01*
X140550000Y-91350000D01*
X141629153Y-91350000D01*
X141701670Y-91141966D01*
X141465573Y-90671092D01*
X141067252Y-90326412D01*
X140758032Y-90198342D01*
X140550000Y-90271625D01*
X140250000Y-90271625D01*
X140041968Y-90198342D01*
X139732748Y-90326412D01*
X139334427Y-90671092D01*
X139098330Y-91141966D01*
X137525000Y-91141966D01*
X137525000Y-87067353D01*
X139049766Y-87067353D01*
X139254858Y-87563715D01*
X139634288Y-87943807D01*
X140130290Y-88149765D01*
X140667353Y-88150234D01*
X141163715Y-87945142D01*
X141543807Y-87565712D01*
X141749765Y-87069710D01*
X141749767Y-87067353D01*
X143879766Y-87067353D01*
X144084858Y-87563715D01*
X144464288Y-87943807D01*
X144960290Y-88149765D01*
X145497353Y-88150234D01*
X145563113Y-88123063D01*
X146600000Y-89159950D01*
X146600000Y-95650000D01*
X146653284Y-95917879D01*
X146805025Y-96144975D01*
X148041184Y-97381133D01*
X148041184Y-98550000D01*
X148072562Y-98716760D01*
X148171117Y-98869919D01*
X148321495Y-98972668D01*
X148500000Y-99008816D01*
X149700000Y-99008816D01*
X149866760Y-98977438D01*
X150019919Y-98878883D01*
X150122668Y-98728505D01*
X150158816Y-98550000D01*
X150158816Y-98433322D01*
X150397745Y-98746440D01*
X150789275Y-98952970D01*
X150950000Y-98875422D01*
X150950000Y-97850000D01*
X151250000Y-97850000D01*
X151250000Y-98875422D01*
X151410725Y-98952970D01*
X151802255Y-98746440D01*
X152053583Y-98417073D01*
X152159737Y-98016599D01*
X152044608Y-97850000D01*
X151250000Y-97850000D01*
X150950000Y-97850000D01*
X150930000Y-97850000D01*
X150930000Y-97550000D01*
X150950000Y-97550000D01*
X150950000Y-96524578D01*
X151250000Y-96524578D01*
X151250000Y-97550000D01*
X152044608Y-97550000D01*
X152159737Y-97383401D01*
X152053583Y-96982927D01*
X151802255Y-96653560D01*
X151410725Y-96447030D01*
X151250000Y-96524578D01*
X150950000Y-96524578D01*
X150789275Y-96447030D01*
X150397745Y-96653560D01*
X150158816Y-96966678D01*
X150158816Y-96850000D01*
X150127438Y-96683240D01*
X150028883Y-96530081D01*
X149878505Y-96427332D01*
X149700000Y-96391184D01*
X149031133Y-96391184D01*
X148000000Y-95360050D01*
X148000000Y-90900000D01*
X148541694Y-90900000D01*
X148541694Y-91199490D01*
X148573072Y-91366250D01*
X148671627Y-91519409D01*
X148822005Y-91622158D01*
X149000510Y-91658306D01*
X149017489Y-91658306D01*
X148975056Y-91686659D01*
X148660846Y-92156907D01*
X148550510Y-92711603D01*
X148550510Y-92768397D01*
X148660846Y-93323093D01*
X148975056Y-93793341D01*
X149445304Y-94107551D01*
X150000000Y-94217887D01*
X150554696Y-94107551D01*
X151024944Y-93793341D01*
X151339154Y-93323093D01*
X151449490Y-92768397D01*
X151449490Y-92711603D01*
X151339154Y-92156907D01*
X151024944Y-91686659D01*
X150982511Y-91658306D01*
X150999490Y-91658306D01*
X151166250Y-91626928D01*
X151319409Y-91528373D01*
X151422158Y-91377995D01*
X151458306Y-91199490D01*
X151458306Y-89200510D01*
X151426928Y-89033750D01*
X151328373Y-88880591D01*
X151177995Y-88777842D01*
X150999490Y-88741694D01*
X149000510Y-88741694D01*
X148833750Y-88773072D01*
X148680591Y-88871627D01*
X148577842Y-89022005D01*
X148541694Y-89200510D01*
X148541694Y-89500000D01*
X148000000Y-89500000D01*
X148000000Y-88870000D01*
X147980720Y-88773072D01*
X147946716Y-88602121D01*
X147794975Y-88375025D01*
X146933638Y-87513688D01*
X148599496Y-87513688D01*
X148849107Y-88021192D01*
X149273931Y-88394543D01*
X149626314Y-88540493D01*
X149850000Y-88468549D01*
X149850000Y-87290000D01*
X150150000Y-87290000D01*
X150150000Y-88468549D01*
X150373686Y-88540493D01*
X150726069Y-88394543D01*
X151150893Y-88021192D01*
X151400504Y-87513688D01*
X151329219Y-87290000D01*
X150150000Y-87290000D01*
X149850000Y-87290000D01*
X148670781Y-87290000D01*
X148599496Y-87513688D01*
X146933638Y-87513688D01*
X146553328Y-87133378D01*
X146579765Y-87069710D01*
X146580234Y-86532647D01*
X146375142Y-86036285D01*
X145995712Y-85656193D01*
X145499710Y-85450235D01*
X144962647Y-85449766D01*
X144466285Y-85654858D01*
X144086193Y-86034288D01*
X143880235Y-86530290D01*
X143879766Y-87067353D01*
X141749767Y-87067353D01*
X141750234Y-86532647D01*
X141545142Y-86036285D01*
X141165712Y-85656193D01*
X140669710Y-85450235D01*
X140132647Y-85449766D01*
X139636285Y-85654858D01*
X139256193Y-86034288D01*
X139050235Y-86530290D01*
X139049766Y-87067353D01*
X137525000Y-87067353D01*
X137525000Y-83525000D01*
X148556985Y-83525000D01*
X148541694Y-83600510D01*
X148541694Y-83600510D01*
G37*
X148541694Y-83600510D02*
X148541694Y-85599490D01*
X148573072Y-85766250D01*
X148671627Y-85919409D01*
X148822005Y-86022158D01*
X149000510Y-86058306D01*
X149077252Y-86058306D01*
X148849107Y-86258808D01*
X148599496Y-86766312D01*
X148670781Y-86990000D01*
X149850000Y-86990000D01*
X149850000Y-86970000D01*
X150150000Y-86970000D01*
X150150000Y-86990000D01*
X151329219Y-86990000D01*
X151400504Y-86766312D01*
X151150893Y-86258808D01*
X150922748Y-86058306D01*
X150999490Y-86058306D01*
X151166250Y-86026928D01*
X151319409Y-85928373D01*
X151422158Y-85777995D01*
X151458306Y-85599490D01*
X151458306Y-83600510D01*
X151444098Y-83525000D01*
X152475000Y-83525000D01*
X152475000Y-99475000D01*
X137525000Y-99475000D01*
X137525000Y-96173552D01*
X139050000Y-96173552D01*
X139050000Y-96226448D01*
X139152763Y-96743071D01*
X139445406Y-97181042D01*
X139883377Y-97473685D01*
X140400000Y-97576448D01*
X140916623Y-97473685D01*
X141354594Y-97181042D01*
X141647237Y-96743071D01*
X141750000Y-96226448D01*
X141750000Y-96173552D01*
X143880000Y-96173552D01*
X143880000Y-96226448D01*
X143982763Y-96743071D01*
X144275406Y-97181042D01*
X144713377Y-97473685D01*
X145230000Y-97576448D01*
X145746623Y-97473685D01*
X146184594Y-97181042D01*
X146477237Y-96743071D01*
X146580000Y-96226448D01*
X146580000Y-96173552D01*
X146477237Y-95656929D01*
X146184594Y-95218958D01*
X145746623Y-94926315D01*
X145230000Y-94823552D01*
X144713377Y-94926315D01*
X144275406Y-95218958D01*
X143982763Y-95656929D01*
X143880000Y-96173552D01*
X141750000Y-96173552D01*
X141647237Y-95656929D01*
X141354594Y-95218958D01*
X140916623Y-94926315D01*
X140400000Y-94823552D01*
X139883377Y-94926315D01*
X139445406Y-95218958D01*
X139152763Y-95656929D01*
X139050000Y-96173552D01*
X137525000Y-96173552D01*
X137525000Y-91858034D01*
X139098330Y-91858034D01*
X139334427Y-92328908D01*
X139732748Y-92673588D01*
X140041968Y-92801658D01*
X140250000Y-92728375D01*
X140250000Y-91650000D01*
X140550000Y-91650000D01*
X140550000Y-92728375D01*
X140758032Y-92801658D01*
X141067252Y-92673588D01*
X141465573Y-92328908D01*
X141701670Y-91858034D01*
X141629153Y-91650000D01*
X140550000Y-91650000D01*
X140250000Y-91650000D01*
X139170847Y-91650000D01*
X139098330Y-91858034D01*
X137525000Y-91858034D01*
X137525000Y-91473552D01*
X143880000Y-91473552D01*
X143880000Y-91526448D01*
X143982763Y-92043071D01*
X144275406Y-92481042D01*
X144713377Y-92773685D01*
X145230000Y-92876448D01*
X145746623Y-92773685D01*
X146184594Y-92481042D01*
X146477237Y-92043071D01*
X146580000Y-91526448D01*
X146580000Y-91473552D01*
X146477237Y-90956929D01*
X146184594Y-90518958D01*
X145746623Y-90226315D01*
X145230000Y-90123552D01*
X144713377Y-90226315D01*
X144275406Y-90518958D01*
X143982763Y-90956929D01*
X143880000Y-91473552D01*
X137525000Y-91473552D01*
X137525000Y-91141966D01*
X139098330Y-91141966D01*
X139170847Y-91350000D01*
X140250000Y-91350000D01*
X140250000Y-90271625D01*
X140550000Y-90271625D01*
X140550000Y-91350000D01*
X141629153Y-91350000D01*
X141701670Y-91141966D01*
X141465573Y-90671092D01*
X141067252Y-90326412D01*
X140758032Y-90198342D01*
X140550000Y-90271625D01*
X140250000Y-90271625D01*
X140041968Y-90198342D01*
X139732748Y-90326412D01*
X139334427Y-90671092D01*
X139098330Y-91141966D01*
X137525000Y-91141966D01*
X137525000Y-87067353D01*
X139049766Y-87067353D01*
X139254858Y-87563715D01*
X139634288Y-87943807D01*
X140130290Y-88149765D01*
X140667353Y-88150234D01*
X141163715Y-87945142D01*
X141543807Y-87565712D01*
X141749765Y-87069710D01*
X141749767Y-87067353D01*
X143879766Y-87067353D01*
X144084858Y-87563715D01*
X144464288Y-87943807D01*
X144960290Y-88149765D01*
X145497353Y-88150234D01*
X145563113Y-88123063D01*
X146600000Y-89159950D01*
X146600000Y-95650000D01*
X146653284Y-95917879D01*
X146805025Y-96144975D01*
X148041184Y-97381133D01*
X148041184Y-98550000D01*
X148072562Y-98716760D01*
X148171117Y-98869919D01*
X148321495Y-98972668D01*
X148500000Y-99008816D01*
X149700000Y-99008816D01*
X149866760Y-98977438D01*
X150019919Y-98878883D01*
X150122668Y-98728505D01*
X150158816Y-98550000D01*
X150158816Y-98433322D01*
X150397745Y-98746440D01*
X150789275Y-98952970D01*
X150950000Y-98875422D01*
X150950000Y-97850000D01*
X151250000Y-97850000D01*
X151250000Y-98875422D01*
X151410725Y-98952970D01*
X151802255Y-98746440D01*
X152053583Y-98417073D01*
X152159737Y-98016599D01*
X152044608Y-97850000D01*
X151250000Y-97850000D01*
X150950000Y-97850000D01*
X150930000Y-97850000D01*
X150930000Y-97550000D01*
X150950000Y-97550000D01*
X150950000Y-96524578D01*
X151250000Y-96524578D01*
X151250000Y-97550000D01*
X152044608Y-97550000D01*
X152159737Y-97383401D01*
X152053583Y-96982927D01*
X151802255Y-96653560D01*
X151410725Y-96447030D01*
X151250000Y-96524578D01*
X150950000Y-96524578D01*
X150789275Y-96447030D01*
X150397745Y-96653560D01*
X150158816Y-96966678D01*
X150158816Y-96850000D01*
X150127438Y-96683240D01*
X150028883Y-96530081D01*
X149878505Y-96427332D01*
X149700000Y-96391184D01*
X149031133Y-96391184D01*
X148000000Y-95360050D01*
X148000000Y-90900000D01*
X148541694Y-90900000D01*
X148541694Y-91199490D01*
X148573072Y-91366250D01*
X148671627Y-91519409D01*
X148822005Y-91622158D01*
X149000510Y-91658306D01*
X149017489Y-91658306D01*
X148975056Y-91686659D01*
X148660846Y-92156907D01*
X148550510Y-92711603D01*
X148550510Y-92768397D01*
X148660846Y-93323093D01*
X148975056Y-93793341D01*
X149445304Y-94107551D01*
X150000000Y-94217887D01*
X150554696Y-94107551D01*
X151024944Y-93793341D01*
X151339154Y-93323093D01*
X151449490Y-92768397D01*
X151449490Y-92711603D01*
X151339154Y-92156907D01*
X151024944Y-91686659D01*
X150982511Y-91658306D01*
X150999490Y-91658306D01*
X151166250Y-91626928D01*
X151319409Y-91528373D01*
X151422158Y-91377995D01*
X151458306Y-91199490D01*
X151458306Y-89200510D01*
X151426928Y-89033750D01*
X151328373Y-88880591D01*
X151177995Y-88777842D01*
X150999490Y-88741694D01*
X149000510Y-88741694D01*
X148833750Y-88773072D01*
X148680591Y-88871627D01*
X148577842Y-89022005D01*
X148541694Y-89200510D01*
X148541694Y-89500000D01*
X148000000Y-89500000D01*
X148000000Y-88870000D01*
X147980720Y-88773072D01*
X147946716Y-88602121D01*
X147794975Y-88375025D01*
X146933638Y-87513688D01*
X148599496Y-87513688D01*
X148849107Y-88021192D01*
X149273931Y-88394543D01*
X149626314Y-88540493D01*
X149850000Y-88468549D01*
X149850000Y-87290000D01*
X150150000Y-87290000D01*
X150150000Y-88468549D01*
X150373686Y-88540493D01*
X150726069Y-88394543D01*
X151150893Y-88021192D01*
X151400504Y-87513688D01*
X151329219Y-87290000D01*
X150150000Y-87290000D01*
X149850000Y-87290000D01*
X148670781Y-87290000D01*
X148599496Y-87513688D01*
X146933638Y-87513688D01*
X146553328Y-87133378D01*
X146579765Y-87069710D01*
X146580234Y-86532647D01*
X146375142Y-86036285D01*
X145995712Y-85656193D01*
X145499710Y-85450235D01*
X144962647Y-85449766D01*
X144466285Y-85654858D01*
X144086193Y-86034288D01*
X143880235Y-86530290D01*
X143879766Y-87067353D01*
X141749767Y-87067353D01*
X141750234Y-86532647D01*
X141545142Y-86036285D01*
X141165712Y-85656193D01*
X140669710Y-85450235D01*
X140132647Y-85449766D01*
X139636285Y-85654858D01*
X139256193Y-86034288D01*
X139050235Y-86530290D01*
X139049766Y-87067353D01*
X137525000Y-87067353D01*
X137525000Y-83525000D01*
X148556985Y-83525000D01*
X148541694Y-83600510D01*
M02*
