G04 #@! TF.FileFunction,Copper,L2,Bot,Signal*
%FSLAX46Y46*%
G04 Gerber Fmt 4.6, Leading zero omitted, Abs format (unit mm)*
G04 Created by KiCad (PCBNEW 4.0.4-1.fc24-product) date Mon Jun  4 16:03:53 2018*
%MOMM*%
%LPD*%
G01*
G04 APERTURE LIST*
%ADD10C,0.100000*%
%ADD11R,1.700000X1.200000*%
%ADD12O,1.700000X1.200000*%
%ADD13O,1.800000X1.800000*%
%ADD14C,1.800000*%
%ADD15C,0.500000*%
%ADD16C,0.300000*%
G04 APERTURE END LIST*
D10*
D11*
X150600000Y-92500000D03*
D12*
X150600000Y-90500000D03*
X150600000Y-88500000D03*
X150600000Y-86500000D03*
D13*
X140400000Y-89500000D03*
D14*
X140400000Y-84800000D03*
D13*
X140400000Y-94200000D03*
D14*
X145230000Y-84800000D03*
D13*
X145230000Y-89500000D03*
X145230000Y-94200000D03*
D15*
X150600000Y-92500000D02*
X143400000Y-92500000D01*
X143400000Y-92500000D02*
X140400000Y-89500000D01*
X150600000Y-90500000D02*
X146230000Y-90500000D01*
X146230000Y-90500000D02*
X145230000Y-89500000D01*
D16*
G36*
X139636285Y-83654858D02*
X139256193Y-84034288D01*
X139050235Y-84530290D01*
X139049766Y-85067353D01*
X139254858Y-85563715D01*
X139634288Y-85943807D01*
X140130290Y-86149765D01*
X140667353Y-86150234D01*
X141163715Y-85945142D01*
X141543807Y-85565712D01*
X141749765Y-85069710D01*
X141750234Y-84532647D01*
X141545142Y-84036285D01*
X141165712Y-83656193D01*
X140849764Y-83525000D01*
X144780566Y-83525000D01*
X144466285Y-83654858D01*
X144086193Y-84034288D01*
X143880235Y-84530290D01*
X143879766Y-85067353D01*
X144084858Y-85563715D01*
X144464288Y-85943807D01*
X144960290Y-86149765D01*
X145497353Y-86150234D01*
X145993715Y-85945142D01*
X146373807Y-85565712D01*
X146579765Y-85069710D01*
X146580234Y-84532647D01*
X146375142Y-84036285D01*
X145995712Y-83656193D01*
X145679764Y-83525000D01*
X152475000Y-83525000D01*
X152475000Y-95475000D01*
X145740012Y-95475000D01*
X145746623Y-95473685D01*
X146184594Y-95181042D01*
X146477237Y-94743071D01*
X146580000Y-94226448D01*
X146580000Y-94173552D01*
X146477237Y-93656929D01*
X146184594Y-93218958D01*
X146156221Y-93200000D01*
X149310000Y-93200000D01*
X149322562Y-93266760D01*
X149421117Y-93419919D01*
X149571495Y-93522668D01*
X149750000Y-93558816D01*
X151450000Y-93558816D01*
X151616760Y-93527438D01*
X151769919Y-93428883D01*
X151872668Y-93278505D01*
X151908816Y-93100000D01*
X151908816Y-91900000D01*
X151877438Y-91733240D01*
X151778883Y-91580081D01*
X151628505Y-91477332D01*
X151450000Y-91441184D01*
X151320524Y-91441184D01*
X151617931Y-91242462D01*
X151845543Y-90901818D01*
X151925469Y-90500000D01*
X151845543Y-90098182D01*
X151617931Y-89757538D01*
X151277287Y-89529926D01*
X151126838Y-89500000D01*
X151277287Y-89470074D01*
X151617931Y-89242462D01*
X151845543Y-88901818D01*
X151925469Y-88500000D01*
X151845543Y-88098182D01*
X151617931Y-87757538D01*
X151277287Y-87529926D01*
X151126838Y-87500000D01*
X151277287Y-87470074D01*
X151617931Y-87242462D01*
X151845543Y-86901818D01*
X151925469Y-86500000D01*
X151845543Y-86098182D01*
X151617931Y-85757538D01*
X151277287Y-85529926D01*
X150875469Y-85450000D01*
X150324531Y-85450000D01*
X149922713Y-85529926D01*
X149582069Y-85757538D01*
X149354457Y-86098182D01*
X149274531Y-86500000D01*
X149354457Y-86901818D01*
X149582069Y-87242462D01*
X149922713Y-87470074D01*
X150073162Y-87500000D01*
X149922713Y-87529926D01*
X149582069Y-87757538D01*
X149354457Y-88098182D01*
X149274531Y-88500000D01*
X149354457Y-88901818D01*
X149582069Y-89242462D01*
X149922713Y-89470074D01*
X150073162Y-89500000D01*
X149922713Y-89529926D01*
X149582069Y-89757538D01*
X149553697Y-89800000D01*
X146525587Y-89800000D01*
X146580000Y-89526448D01*
X146580000Y-89473552D01*
X146477237Y-88956929D01*
X146184594Y-88518958D01*
X145746623Y-88226315D01*
X145230000Y-88123552D01*
X144713377Y-88226315D01*
X144275406Y-88518958D01*
X143982763Y-88956929D01*
X143880000Y-89473552D01*
X143880000Y-89526448D01*
X143982763Y-90043071D01*
X144275406Y-90481042D01*
X144713377Y-90773685D01*
X145230000Y-90876448D01*
X145552374Y-90812324D01*
X145735023Y-90994972D01*
X145735025Y-90994975D01*
X145848574Y-91070846D01*
X145962121Y-91146716D01*
X146230000Y-91200001D01*
X146230005Y-91200000D01*
X149553697Y-91200000D01*
X149582069Y-91242462D01*
X149879476Y-91441184D01*
X149750000Y-91441184D01*
X149583240Y-91472562D01*
X149430081Y-91571117D01*
X149327332Y-91721495D01*
X149311434Y-91800000D01*
X143689950Y-91800000D01*
X141694652Y-89804702D01*
X141750000Y-89526448D01*
X141750000Y-89473552D01*
X141647237Y-88956929D01*
X141354594Y-88518958D01*
X140916623Y-88226315D01*
X140400000Y-88123552D01*
X139883377Y-88226315D01*
X139445406Y-88518958D01*
X139152763Y-88956929D01*
X139050000Y-89473552D01*
X139050000Y-89526448D01*
X139152763Y-90043071D01*
X139445406Y-90481042D01*
X139883377Y-90773685D01*
X140400000Y-90876448D01*
X140722374Y-90812324D01*
X142905025Y-92994975D01*
X143132121Y-93146716D01*
X143400000Y-93200001D01*
X143400005Y-93200000D01*
X144303779Y-93200000D01*
X144275406Y-93218958D01*
X143982763Y-93656929D01*
X143880000Y-94173552D01*
X143880000Y-94226448D01*
X143982763Y-94743071D01*
X144275406Y-95181042D01*
X144713377Y-95473685D01*
X144719988Y-95475000D01*
X140910012Y-95475000D01*
X140916623Y-95473685D01*
X141354594Y-95181042D01*
X141647237Y-94743071D01*
X141750000Y-94226448D01*
X141750000Y-94173552D01*
X141647237Y-93656929D01*
X141354594Y-93218958D01*
X140916623Y-92926315D01*
X140400000Y-92823552D01*
X139883377Y-92926315D01*
X139445406Y-93218958D01*
X139152763Y-93656929D01*
X139050000Y-94173552D01*
X139050000Y-94226448D01*
X139152763Y-94743071D01*
X139445406Y-95181042D01*
X139883377Y-95473685D01*
X139889988Y-95475000D01*
X137525000Y-95475000D01*
X137525000Y-83525000D01*
X139950566Y-83525000D01*
X139636285Y-83654858D01*
X139636285Y-83654858D01*
G37*
X139636285Y-83654858D02*
X139256193Y-84034288D01*
X139050235Y-84530290D01*
X139049766Y-85067353D01*
X139254858Y-85563715D01*
X139634288Y-85943807D01*
X140130290Y-86149765D01*
X140667353Y-86150234D01*
X141163715Y-85945142D01*
X141543807Y-85565712D01*
X141749765Y-85069710D01*
X141750234Y-84532647D01*
X141545142Y-84036285D01*
X141165712Y-83656193D01*
X140849764Y-83525000D01*
X144780566Y-83525000D01*
X144466285Y-83654858D01*
X144086193Y-84034288D01*
X143880235Y-84530290D01*
X143879766Y-85067353D01*
X144084858Y-85563715D01*
X144464288Y-85943807D01*
X144960290Y-86149765D01*
X145497353Y-86150234D01*
X145993715Y-85945142D01*
X146373807Y-85565712D01*
X146579765Y-85069710D01*
X146580234Y-84532647D01*
X146375142Y-84036285D01*
X145995712Y-83656193D01*
X145679764Y-83525000D01*
X152475000Y-83525000D01*
X152475000Y-95475000D01*
X145740012Y-95475000D01*
X145746623Y-95473685D01*
X146184594Y-95181042D01*
X146477237Y-94743071D01*
X146580000Y-94226448D01*
X146580000Y-94173552D01*
X146477237Y-93656929D01*
X146184594Y-93218958D01*
X146156221Y-93200000D01*
X149310000Y-93200000D01*
X149322562Y-93266760D01*
X149421117Y-93419919D01*
X149571495Y-93522668D01*
X149750000Y-93558816D01*
X151450000Y-93558816D01*
X151616760Y-93527438D01*
X151769919Y-93428883D01*
X151872668Y-93278505D01*
X151908816Y-93100000D01*
X151908816Y-91900000D01*
X151877438Y-91733240D01*
X151778883Y-91580081D01*
X151628505Y-91477332D01*
X151450000Y-91441184D01*
X151320524Y-91441184D01*
X151617931Y-91242462D01*
X151845543Y-90901818D01*
X151925469Y-90500000D01*
X151845543Y-90098182D01*
X151617931Y-89757538D01*
X151277287Y-89529926D01*
X151126838Y-89500000D01*
X151277287Y-89470074D01*
X151617931Y-89242462D01*
X151845543Y-88901818D01*
X151925469Y-88500000D01*
X151845543Y-88098182D01*
X151617931Y-87757538D01*
X151277287Y-87529926D01*
X151126838Y-87500000D01*
X151277287Y-87470074D01*
X151617931Y-87242462D01*
X151845543Y-86901818D01*
X151925469Y-86500000D01*
X151845543Y-86098182D01*
X151617931Y-85757538D01*
X151277287Y-85529926D01*
X150875469Y-85450000D01*
X150324531Y-85450000D01*
X149922713Y-85529926D01*
X149582069Y-85757538D01*
X149354457Y-86098182D01*
X149274531Y-86500000D01*
X149354457Y-86901818D01*
X149582069Y-87242462D01*
X149922713Y-87470074D01*
X150073162Y-87500000D01*
X149922713Y-87529926D01*
X149582069Y-87757538D01*
X149354457Y-88098182D01*
X149274531Y-88500000D01*
X149354457Y-88901818D01*
X149582069Y-89242462D01*
X149922713Y-89470074D01*
X150073162Y-89500000D01*
X149922713Y-89529926D01*
X149582069Y-89757538D01*
X149553697Y-89800000D01*
X146525587Y-89800000D01*
X146580000Y-89526448D01*
X146580000Y-89473552D01*
X146477237Y-88956929D01*
X146184594Y-88518958D01*
X145746623Y-88226315D01*
X145230000Y-88123552D01*
X144713377Y-88226315D01*
X144275406Y-88518958D01*
X143982763Y-88956929D01*
X143880000Y-89473552D01*
X143880000Y-89526448D01*
X143982763Y-90043071D01*
X144275406Y-90481042D01*
X144713377Y-90773685D01*
X145230000Y-90876448D01*
X145552374Y-90812324D01*
X145735023Y-90994972D01*
X145735025Y-90994975D01*
X145848574Y-91070846D01*
X145962121Y-91146716D01*
X146230000Y-91200001D01*
X146230005Y-91200000D01*
X149553697Y-91200000D01*
X149582069Y-91242462D01*
X149879476Y-91441184D01*
X149750000Y-91441184D01*
X149583240Y-91472562D01*
X149430081Y-91571117D01*
X149327332Y-91721495D01*
X149311434Y-91800000D01*
X143689950Y-91800000D01*
X141694652Y-89804702D01*
X141750000Y-89526448D01*
X141750000Y-89473552D01*
X141647237Y-88956929D01*
X141354594Y-88518958D01*
X140916623Y-88226315D01*
X140400000Y-88123552D01*
X139883377Y-88226315D01*
X139445406Y-88518958D01*
X139152763Y-88956929D01*
X139050000Y-89473552D01*
X139050000Y-89526448D01*
X139152763Y-90043071D01*
X139445406Y-90481042D01*
X139883377Y-90773685D01*
X140400000Y-90876448D01*
X140722374Y-90812324D01*
X142905025Y-92994975D01*
X143132121Y-93146716D01*
X143400000Y-93200001D01*
X143400005Y-93200000D01*
X144303779Y-93200000D01*
X144275406Y-93218958D01*
X143982763Y-93656929D01*
X143880000Y-94173552D01*
X143880000Y-94226448D01*
X143982763Y-94743071D01*
X144275406Y-95181042D01*
X144713377Y-95473685D01*
X144719988Y-95475000D01*
X140910012Y-95475000D01*
X140916623Y-95473685D01*
X141354594Y-95181042D01*
X141647237Y-94743071D01*
X141750000Y-94226448D01*
X141750000Y-94173552D01*
X141647237Y-93656929D01*
X141354594Y-93218958D01*
X140916623Y-92926315D01*
X140400000Y-92823552D01*
X139883377Y-92926315D01*
X139445406Y-93218958D01*
X139152763Y-93656929D01*
X139050000Y-94173552D01*
X139050000Y-94226448D01*
X139152763Y-94743071D01*
X139445406Y-95181042D01*
X139883377Y-95473685D01*
X139889988Y-95475000D01*
X137525000Y-95475000D01*
X137525000Y-83525000D01*
X139950566Y-83525000D01*
X139636285Y-83654858D01*
M02*
