G04 #@! TF.FileFunction,Legend,Top*
%FSLAX46Y46*%
G04 Gerber Fmt 4.6, Leading zero omitted, Abs format (unit mm)*
G04 Created by KiCad (PCBNEW 4.0.4-1.fc24-product) date Tue Jun 12 10:11:22 2018*
%MOMM*%
%LPD*%
G01*
G04 APERTURE LIST*
%ADD10C,0.100000*%
%ADD11C,0.150000*%
G04 APERTURE END LIST*
D10*
D11*
X149850000Y-83000000D02*
X137150000Y-83000000D01*
X137150000Y-83000000D02*
X137150000Y-104000000D01*
X137150000Y-104000000D02*
X149850000Y-104000000D01*
X149850000Y-104000000D02*
X149850000Y-83000000D01*
X142266667Y-84304762D02*
X142409524Y-84352381D01*
X142647620Y-84352381D01*
X142742858Y-84304762D01*
X142790477Y-84257143D01*
X142838096Y-84161905D01*
X142838096Y-84066667D01*
X142790477Y-83971429D01*
X142742858Y-83923810D01*
X142647620Y-83876190D01*
X142457143Y-83828571D01*
X142361905Y-83780952D01*
X142314286Y-83733333D01*
X142266667Y-83638095D01*
X142266667Y-83542857D01*
X142314286Y-83447619D01*
X142361905Y-83400000D01*
X142457143Y-83352381D01*
X142695239Y-83352381D01*
X142838096Y-83400000D01*
X143171429Y-83352381D02*
X143409524Y-84352381D01*
X143600001Y-83638095D01*
X143790477Y-84352381D01*
X144028572Y-83352381D01*
X144933334Y-84352381D02*
X144361905Y-84352381D01*
X144647619Y-84352381D02*
X144647619Y-83352381D01*
X144552381Y-83495238D01*
X144457143Y-83590476D01*
X144361905Y-83638095D01*
M02*
