G04 #@! TF.FileFunction,Copper,L1,Top,Signal*
%FSLAX46Y46*%
G04 Gerber Fmt 4.6, Leading zero omitted, Abs format (unit mm)*
G04 Created by KiCad (PCBNEW 4.0.4-1.fc24-product) date Mon Jan 15 09:33:09 2018*
%MOMM*%
%LPD*%
G01*
G04 APERTURE LIST*
%ADD10C,0.100000*%
%ADD11R,1.500000X1.250000*%
%ADD12R,1.200000X0.900000*%
%ADD13R,0.600000X1.550000*%
%ADD14R,1.500000X1.500000*%
%ADD15C,1.500000*%
%ADD16C,1.800000*%
%ADD17C,0.600000*%
%ADD18C,0.300000*%
%ADD19C,0.500000*%
G04 APERTURE END LIST*
D10*
D11*
X144850000Y-60900000D03*
X147350000Y-60900000D03*
X164550000Y-64500000D03*
X162050000Y-64500000D03*
D12*
X145000000Y-72400000D03*
X147200000Y-72400000D03*
X147200000Y-75700000D03*
X145000000Y-75700000D03*
X145100000Y-67400000D03*
X147300000Y-67400000D03*
X145100000Y-64500000D03*
X147300000Y-64500000D03*
X164300000Y-67400000D03*
X162100000Y-67400000D03*
X164300000Y-70100000D03*
X162100000Y-70100000D03*
D13*
X157005000Y-64200000D03*
X155735000Y-64200000D03*
X154465000Y-64200000D03*
X153195000Y-64200000D03*
X153195000Y-69600000D03*
X154465000Y-69600000D03*
X155735000Y-69600000D03*
X157005000Y-69600000D03*
D14*
X151000000Y-75900000D03*
D15*
X153000000Y-75900000D03*
X155000000Y-75900000D03*
X157000000Y-75900000D03*
X159000000Y-75900000D03*
D16*
X157500000Y-52000000D03*
X155000000Y-52000000D03*
X152500000Y-52000000D03*
X157500000Y-57000000D03*
X155000000Y-57000000D03*
X152500000Y-57000000D03*
D17*
X149300004Y-70700000D03*
X153200000Y-65700000D03*
X147199996Y-76800000D03*
X143900006Y-67400000D03*
D18*
X157005000Y-57000000D02*
X157500000Y-57000000D01*
X162050000Y-64500000D02*
X160849700Y-64500000D01*
X157005000Y-57000000D02*
X157005000Y-64200000D01*
X159924400Y-65425300D02*
X160849700Y-64500000D01*
X157005000Y-65425300D02*
X159924400Y-65425300D01*
X157005000Y-64200000D02*
X157005000Y-65425300D01*
X144850000Y-63349700D02*
X144850000Y-60900000D01*
X145100000Y-63599700D02*
X144850000Y-63349700D01*
X145100000Y-64500000D02*
X145100000Y-63599700D01*
X144850000Y-60900000D02*
X144850000Y-59824700D01*
X155000000Y-57000000D02*
X157005000Y-57000000D01*
X149081000Y-55593700D02*
X144850000Y-59824700D01*
X153593700Y-55593700D02*
X149081000Y-55593700D01*
X155000000Y-57000000D02*
X153593700Y-55593700D01*
X155735000Y-64200000D02*
X155735000Y-62974700D01*
X152444600Y-57055400D02*
X152444600Y-59908900D01*
X152500000Y-57000000D02*
X152444600Y-57055400D01*
X155510400Y-62974700D02*
X155735000Y-62974700D01*
X152444600Y-59908900D02*
X155510400Y-62974700D01*
X149541400Y-59908900D02*
X148550300Y-60900000D01*
X152444600Y-59908900D02*
X149541400Y-59908900D01*
X147350000Y-60900000D02*
X148550300Y-60900000D01*
X147300000Y-67400000D02*
X147300000Y-64500000D01*
X147300000Y-62025300D02*
X147350000Y-61975300D01*
X147300000Y-64500000D02*
X147300000Y-62025300D01*
X147350000Y-60900000D02*
X147350000Y-61975300D01*
X164300000Y-67400000D02*
X164300000Y-67850100D01*
X164550000Y-67600100D02*
X164550000Y-64500000D01*
X164300000Y-67850100D02*
X164550000Y-67600100D01*
X163775400Y-68374700D02*
X164300000Y-67850100D01*
X153195000Y-68374700D02*
X163775400Y-68374700D01*
X153195000Y-69600000D02*
X153195000Y-68374700D01*
D19*
X153195000Y-65695000D02*
X153200000Y-65700000D01*
X153195000Y-64200000D02*
X153195000Y-65695000D01*
X147200000Y-76799996D02*
X147199996Y-76800000D01*
X147200000Y-75700000D02*
X147200000Y-76799996D01*
X145100000Y-67400000D02*
X143900006Y-67400000D01*
X153500000Y-72400000D02*
X147200000Y-72400000D01*
X157000000Y-75900000D02*
X153500000Y-72400000D01*
X163799700Y-71100300D02*
X164300000Y-71100300D01*
X159000000Y-75900000D02*
X163799700Y-71100300D01*
X164300000Y-70100000D02*
X164300000Y-71100300D01*
D18*
X154465000Y-64200000D02*
X154500000Y-64235000D01*
X154500000Y-64235000D02*
X154500000Y-66440900D01*
X154500000Y-66440900D02*
X153284500Y-67656400D01*
X153284500Y-67656400D02*
X148843300Y-67656400D01*
X148843300Y-67656400D02*
X145000000Y-71499700D01*
X145000000Y-71499700D02*
X145000000Y-72400000D01*
X145000000Y-75700000D02*
X145000000Y-72400000D01*
X162100000Y-67400000D02*
X162100000Y-66499700D01*
X162100000Y-66499700D02*
X163300000Y-65299700D01*
X163300000Y-65299700D02*
X163300000Y-59200000D01*
X163300000Y-59200000D02*
X158100000Y-54000000D01*
X158100000Y-54000000D02*
X154500000Y-54000000D01*
X154500000Y-54000000D02*
X152500000Y-52000000D01*
X155735000Y-70825300D02*
X154465000Y-70825300D01*
X154465000Y-69600000D02*
X154465000Y-70825300D01*
X155735000Y-69600000D02*
X155735000Y-70675200D01*
X155735000Y-70675200D02*
X155735000Y-70825300D01*
X160324400Y-70825300D02*
X161049700Y-70100000D01*
X155735000Y-70825300D02*
X160324400Y-70825300D01*
X162100000Y-70100000D02*
X161049700Y-70100000D01*
G36*
X169475000Y-79475000D02*
X140525000Y-79475000D01*
X140525000Y-67548530D01*
X143149876Y-67548530D01*
X143263817Y-67824286D01*
X143474611Y-68035448D01*
X143750167Y-68149869D01*
X144048536Y-68150130D01*
X144135311Y-68114275D01*
X144171117Y-68169919D01*
X144321495Y-68272668D01*
X144500000Y-68308816D01*
X145700000Y-68308816D01*
X145866760Y-68277438D01*
X146019919Y-68178883D01*
X146122668Y-68028505D01*
X146158816Y-67850000D01*
X146158816Y-66950000D01*
X146127438Y-66783240D01*
X146028883Y-66630081D01*
X145878505Y-66527332D01*
X145700000Y-66491184D01*
X144500000Y-66491184D01*
X144333240Y-66522562D01*
X144180081Y-66621117D01*
X144135854Y-66685845D01*
X144049845Y-66650131D01*
X143751476Y-66649870D01*
X143475720Y-66763811D01*
X143264558Y-66974605D01*
X143150137Y-67250161D01*
X143149876Y-67548530D01*
X140525000Y-67548530D01*
X140525000Y-60275000D01*
X143641184Y-60275000D01*
X143641184Y-61525000D01*
X143672562Y-61691760D01*
X143771117Y-61844919D01*
X143921495Y-61947668D01*
X144100000Y-61983816D01*
X144250000Y-61983816D01*
X144250000Y-63349700D01*
X144295672Y-63579310D01*
X144327178Y-63626463D01*
X144180081Y-63721117D01*
X144077332Y-63871495D01*
X144041184Y-64050000D01*
X144041184Y-64950000D01*
X144072562Y-65116760D01*
X144171117Y-65269919D01*
X144321495Y-65372668D01*
X144500000Y-65408816D01*
X145700000Y-65408816D01*
X145866760Y-65377438D01*
X146019919Y-65278883D01*
X146122668Y-65128505D01*
X146158816Y-64950000D01*
X146158816Y-64050000D01*
X146127438Y-63883240D01*
X146028883Y-63730081D01*
X145878505Y-63627332D01*
X145700000Y-63591184D01*
X145698306Y-63591184D01*
X145663497Y-63416184D01*
X145654328Y-63370089D01*
X145524264Y-63175436D01*
X145450000Y-63101172D01*
X145450000Y-61983816D01*
X145600000Y-61983816D01*
X145766760Y-61952438D01*
X145919919Y-61853883D01*
X146022668Y-61703505D01*
X146058816Y-61525000D01*
X146058816Y-60275000D01*
X146027438Y-60108240D01*
X145928883Y-59955081D01*
X145778505Y-59852332D01*
X145689018Y-59834210D01*
X149329528Y-56193700D01*
X151396852Y-56193700D01*
X151356193Y-56234288D01*
X151150235Y-56730290D01*
X151149766Y-57267353D01*
X151354858Y-57763715D01*
X151734288Y-58143807D01*
X151844600Y-58189613D01*
X151844600Y-59308900D01*
X149541400Y-59308900D01*
X149311790Y-59354572D01*
X149117136Y-59484636D01*
X148514163Y-60087609D01*
X148428883Y-59955081D01*
X148278505Y-59852332D01*
X148100000Y-59816184D01*
X146600000Y-59816184D01*
X146433240Y-59847562D01*
X146280081Y-59946117D01*
X146177332Y-60096495D01*
X146141184Y-60275000D01*
X146141184Y-61525000D01*
X146172562Y-61691760D01*
X146271117Y-61844919D01*
X146421495Y-61947668D01*
X146600000Y-61983816D01*
X146708252Y-61983816D01*
X146700000Y-62025300D01*
X146700000Y-63591184D01*
X146533240Y-63622562D01*
X146380081Y-63721117D01*
X146277332Y-63871495D01*
X146241184Y-64050000D01*
X146241184Y-64950000D01*
X146272562Y-65116760D01*
X146371117Y-65269919D01*
X146521495Y-65372668D01*
X146700000Y-65408816D01*
X146700000Y-66491184D01*
X146533240Y-66522562D01*
X146380081Y-66621117D01*
X146277332Y-66771495D01*
X146241184Y-66950000D01*
X146241184Y-67850000D01*
X146272562Y-68016760D01*
X146371117Y-68169919D01*
X146521495Y-68272668D01*
X146700000Y-68308816D01*
X147342356Y-68308816D01*
X144575736Y-71075436D01*
X144445672Y-71270090D01*
X144401694Y-71491184D01*
X144400000Y-71491184D01*
X144233240Y-71522562D01*
X144080081Y-71621117D01*
X143977332Y-71771495D01*
X143941184Y-71950000D01*
X143941184Y-72850000D01*
X143972562Y-73016760D01*
X144071117Y-73169919D01*
X144221495Y-73272668D01*
X144400000Y-73308816D01*
X144400000Y-74791184D01*
X144233240Y-74822562D01*
X144080081Y-74921117D01*
X143977332Y-75071495D01*
X143941184Y-75250000D01*
X143941184Y-76150000D01*
X143972562Y-76316760D01*
X144071117Y-76469919D01*
X144221495Y-76572668D01*
X144400000Y-76608816D01*
X145600000Y-76608816D01*
X145766760Y-76577438D01*
X145919919Y-76478883D01*
X146022668Y-76328505D01*
X146058816Y-76150000D01*
X146058816Y-75250000D01*
X146141184Y-75250000D01*
X146141184Y-76150000D01*
X146172562Y-76316760D01*
X146271117Y-76469919D01*
X146421495Y-76572668D01*
X146477588Y-76584027D01*
X146450127Y-76650161D01*
X146449866Y-76948530D01*
X146563807Y-77224286D01*
X146774601Y-77435448D01*
X147050157Y-77549869D01*
X147348526Y-77550130D01*
X147624282Y-77436189D01*
X147835444Y-77225395D01*
X147949865Y-76949839D01*
X147950126Y-76651470D01*
X147922943Y-76585683D01*
X147966760Y-76577438D01*
X148119919Y-76478883D01*
X148222668Y-76328505D01*
X148256284Y-76162500D01*
X149800000Y-76162500D01*
X149800000Y-76739510D01*
X149868508Y-76904904D01*
X149995095Y-77031491D01*
X150160489Y-77100000D01*
X150737500Y-77100000D01*
X150850000Y-76987500D01*
X150850000Y-76050000D01*
X149912500Y-76050000D01*
X149800000Y-76162500D01*
X148256284Y-76162500D01*
X148258816Y-76150000D01*
X148258816Y-75250000D01*
X148227438Y-75083240D01*
X148212799Y-75060490D01*
X149800000Y-75060490D01*
X149800000Y-75637500D01*
X149912500Y-75750000D01*
X150850000Y-75750000D01*
X150850000Y-74812500D01*
X150737500Y-74700000D01*
X150160489Y-74700000D01*
X149995095Y-74768509D01*
X149868508Y-74895096D01*
X149800000Y-75060490D01*
X148212799Y-75060490D01*
X148128883Y-74930081D01*
X147978505Y-74827332D01*
X147800000Y-74791184D01*
X146600000Y-74791184D01*
X146433240Y-74822562D01*
X146280081Y-74921117D01*
X146177332Y-75071495D01*
X146141184Y-75250000D01*
X146058816Y-75250000D01*
X146027438Y-75083240D01*
X145928883Y-74930081D01*
X145778505Y-74827332D01*
X145600000Y-74791184D01*
X145600000Y-73308816D01*
X145766760Y-73277438D01*
X145919919Y-73178883D01*
X146022668Y-73028505D01*
X146058816Y-72850000D01*
X146058816Y-71950000D01*
X146141184Y-71950000D01*
X146141184Y-72850000D01*
X146172562Y-73016760D01*
X146271117Y-73169919D01*
X146421495Y-73272668D01*
X146600000Y-73308816D01*
X147800000Y-73308816D01*
X147966760Y-73277438D01*
X148119919Y-73178883D01*
X148173818Y-73100000D01*
X153210050Y-73100000D01*
X154809885Y-74699834D01*
X154762353Y-74699793D01*
X154321143Y-74882097D01*
X153999735Y-75202943D01*
X153680633Y-74883283D01*
X153239742Y-74700209D01*
X152762353Y-74699793D01*
X152321143Y-74882097D01*
X152183161Y-75019838D01*
X152131492Y-74895096D01*
X152004905Y-74768509D01*
X151839511Y-74700000D01*
X151262500Y-74700000D01*
X151150000Y-74812500D01*
X151150000Y-75750000D01*
X151170000Y-75750000D01*
X151170000Y-76050000D01*
X151150000Y-76050000D01*
X151150000Y-76987500D01*
X151262500Y-77100000D01*
X151839511Y-77100000D01*
X152004905Y-77031491D01*
X152131492Y-76904904D01*
X152183129Y-76780241D01*
X152319367Y-76916717D01*
X152760258Y-77099791D01*
X153237647Y-77100207D01*
X153678857Y-76917903D01*
X154000265Y-76597057D01*
X154319367Y-76916717D01*
X154760258Y-77099791D01*
X155237647Y-77100207D01*
X155678857Y-76917903D01*
X156000265Y-76597057D01*
X156319367Y-76916717D01*
X156760258Y-77099791D01*
X157237647Y-77100207D01*
X157678857Y-76917903D01*
X158000265Y-76597057D01*
X158319367Y-76916717D01*
X158760258Y-77099791D01*
X159237647Y-77100207D01*
X159678857Y-76917903D01*
X160016717Y-76580633D01*
X160199791Y-76139742D01*
X160200183Y-75689767D01*
X164089650Y-71800300D01*
X164300000Y-71800300D01*
X164567878Y-71747016D01*
X164794975Y-71595275D01*
X164946716Y-71368178D01*
X165000000Y-71100300D01*
X165000000Y-70990000D01*
X165066760Y-70977438D01*
X165219919Y-70878883D01*
X165322668Y-70728505D01*
X165358816Y-70550000D01*
X165358816Y-69650000D01*
X165327438Y-69483240D01*
X165228883Y-69330081D01*
X165078505Y-69227332D01*
X164900000Y-69191184D01*
X163700000Y-69191184D01*
X163533240Y-69222562D01*
X163380081Y-69321117D01*
X163277332Y-69471495D01*
X163241184Y-69650000D01*
X163241184Y-70550000D01*
X163260008Y-70650042D01*
X159209867Y-74700183D01*
X158762353Y-74699793D01*
X158321143Y-74882097D01*
X157999735Y-75202943D01*
X157680633Y-74883283D01*
X157239742Y-74700209D01*
X156789766Y-74699817D01*
X153994975Y-71905025D01*
X153767879Y-71753284D01*
X153500000Y-71700000D01*
X148173875Y-71700000D01*
X148128883Y-71630081D01*
X147978505Y-71527332D01*
X147800000Y-71491184D01*
X146600000Y-71491184D01*
X146433240Y-71522562D01*
X146280081Y-71621117D01*
X146177332Y-71771495D01*
X146141184Y-71950000D01*
X146058816Y-71950000D01*
X146027438Y-71783240D01*
X145928883Y-71630081D01*
X145803689Y-71544539D01*
X149091828Y-68256400D01*
X152618531Y-68256400D01*
X152595000Y-68374700D01*
X152595000Y-68483299D01*
X152575081Y-68496117D01*
X152472332Y-68646495D01*
X152436184Y-68825000D01*
X152436184Y-70375000D01*
X152467562Y-70541760D01*
X152566117Y-70694919D01*
X152716495Y-70797668D01*
X152895000Y-70833816D01*
X153495000Y-70833816D01*
X153661760Y-70802438D01*
X153814919Y-70703883D01*
X153828806Y-70683558D01*
X153836117Y-70694919D01*
X153865000Y-70714654D01*
X153865000Y-70825300D01*
X153910672Y-71054910D01*
X154040736Y-71249564D01*
X154235390Y-71379628D01*
X154465000Y-71425300D01*
X160324400Y-71425300D01*
X160554010Y-71379628D01*
X160748664Y-71249564D01*
X161154356Y-70843872D01*
X161171117Y-70869919D01*
X161321495Y-70972668D01*
X161500000Y-71008816D01*
X162700000Y-71008816D01*
X162866760Y-70977438D01*
X163019919Y-70878883D01*
X163122668Y-70728505D01*
X163158816Y-70550000D01*
X163158816Y-69650000D01*
X163127438Y-69483240D01*
X163028883Y-69330081D01*
X162878505Y-69227332D01*
X162700000Y-69191184D01*
X161500000Y-69191184D01*
X161333240Y-69222562D01*
X161180081Y-69321117D01*
X161077332Y-69471495D01*
X161071560Y-69500000D01*
X161049700Y-69500000D01*
X160820090Y-69545672D01*
X160625436Y-69675736D01*
X160075872Y-70225300D01*
X157755000Y-70225300D01*
X157755000Y-69862500D01*
X157642500Y-69750000D01*
X157155000Y-69750000D01*
X157155000Y-69770000D01*
X156855000Y-69770000D01*
X156855000Y-69750000D01*
X156835000Y-69750000D01*
X156835000Y-69450000D01*
X156855000Y-69450000D01*
X156855000Y-69430000D01*
X157155000Y-69430000D01*
X157155000Y-69450000D01*
X157642500Y-69450000D01*
X157755000Y-69337500D01*
X157755000Y-68974700D01*
X163775400Y-68974700D01*
X164005010Y-68929028D01*
X164199664Y-68798964D01*
X164689812Y-68308816D01*
X164900000Y-68308816D01*
X165066760Y-68277438D01*
X165219919Y-68178883D01*
X165322668Y-68028505D01*
X165358816Y-67850000D01*
X165358816Y-66950000D01*
X165327438Y-66783240D01*
X165228883Y-66630081D01*
X165150000Y-66576182D01*
X165150000Y-65583816D01*
X165300000Y-65583816D01*
X165466760Y-65552438D01*
X165619919Y-65453883D01*
X165722668Y-65303505D01*
X165758816Y-65125000D01*
X165758816Y-63875000D01*
X165727438Y-63708240D01*
X165628883Y-63555081D01*
X165478505Y-63452332D01*
X165300000Y-63416184D01*
X163900000Y-63416184D01*
X163900000Y-59200000D01*
X163854328Y-58970390D01*
X163724264Y-58775736D01*
X158524264Y-53575736D01*
X158329610Y-53445672D01*
X158100000Y-53400000D01*
X154748528Y-53400000D01*
X154675572Y-53327044D01*
X154730290Y-53349765D01*
X155267353Y-53350234D01*
X155763715Y-53145142D01*
X156143807Y-52765712D01*
X156250007Y-52509955D01*
X156354858Y-52763715D01*
X156734288Y-53143807D01*
X157230290Y-53349765D01*
X157767353Y-53350234D01*
X158263715Y-53145142D01*
X158643807Y-52765712D01*
X158849765Y-52269710D01*
X158850234Y-51732647D01*
X158645142Y-51236285D01*
X158265712Y-50856193D01*
X157769710Y-50650235D01*
X157232647Y-50649766D01*
X156736285Y-50854858D01*
X156356193Y-51234288D01*
X156249993Y-51490045D01*
X156145142Y-51236285D01*
X155765712Y-50856193D01*
X155269710Y-50650235D01*
X154732647Y-50649766D01*
X154236285Y-50854858D01*
X153856193Y-51234288D01*
X153749993Y-51490045D01*
X153645142Y-51236285D01*
X153265712Y-50856193D01*
X152769710Y-50650235D01*
X152232647Y-50649766D01*
X151736285Y-50854858D01*
X151356193Y-51234288D01*
X151150235Y-51730290D01*
X151149766Y-52267353D01*
X151354858Y-52763715D01*
X151734288Y-53143807D01*
X152230290Y-53349765D01*
X152767353Y-53350234D01*
X152933186Y-53281714D01*
X154075736Y-54424264D01*
X154270390Y-54554328D01*
X154500000Y-54600000D01*
X157851472Y-54600000D01*
X162700000Y-59448528D01*
X162700000Y-63416184D01*
X161300000Y-63416184D01*
X161133240Y-63447562D01*
X160980081Y-63546117D01*
X160877332Y-63696495D01*
X160841184Y-63875000D01*
X160841184Y-63901694D01*
X160620090Y-63945672D01*
X160425436Y-64075736D01*
X159675872Y-64825300D01*
X157763816Y-64825300D01*
X157763816Y-63425000D01*
X157732438Y-63258240D01*
X157633883Y-63105081D01*
X157605000Y-63085346D01*
X157605000Y-58350092D01*
X157767353Y-58350234D01*
X158263715Y-58145142D01*
X158643807Y-57765712D01*
X158849765Y-57269710D01*
X158850234Y-56732647D01*
X158645142Y-56236285D01*
X158265712Y-55856193D01*
X157769710Y-55650235D01*
X157232647Y-55649766D01*
X156736285Y-55854858D01*
X156356193Y-56234288D01*
X156287383Y-56400000D01*
X156212787Y-56400000D01*
X156145142Y-56236285D01*
X155765712Y-55856193D01*
X155269710Y-55650235D01*
X154732647Y-55649766D01*
X154566814Y-55718286D01*
X154017964Y-55169436D01*
X153823310Y-55039372D01*
X153593700Y-54993700D01*
X149081000Y-54993700D01*
X148851390Y-55039372D01*
X148656736Y-55169436D01*
X144425736Y-59400436D01*
X144295672Y-59595090D01*
X144251694Y-59816184D01*
X144100000Y-59816184D01*
X143933240Y-59847562D01*
X143780081Y-59946117D01*
X143677332Y-60096495D01*
X143641184Y-60275000D01*
X140525000Y-60275000D01*
X140525000Y-50525000D01*
X169475000Y-50525000D01*
X169475000Y-79475000D01*
X169475000Y-79475000D01*
G37*
X169475000Y-79475000D02*
X140525000Y-79475000D01*
X140525000Y-67548530D01*
X143149876Y-67548530D01*
X143263817Y-67824286D01*
X143474611Y-68035448D01*
X143750167Y-68149869D01*
X144048536Y-68150130D01*
X144135311Y-68114275D01*
X144171117Y-68169919D01*
X144321495Y-68272668D01*
X144500000Y-68308816D01*
X145700000Y-68308816D01*
X145866760Y-68277438D01*
X146019919Y-68178883D01*
X146122668Y-68028505D01*
X146158816Y-67850000D01*
X146158816Y-66950000D01*
X146127438Y-66783240D01*
X146028883Y-66630081D01*
X145878505Y-66527332D01*
X145700000Y-66491184D01*
X144500000Y-66491184D01*
X144333240Y-66522562D01*
X144180081Y-66621117D01*
X144135854Y-66685845D01*
X144049845Y-66650131D01*
X143751476Y-66649870D01*
X143475720Y-66763811D01*
X143264558Y-66974605D01*
X143150137Y-67250161D01*
X143149876Y-67548530D01*
X140525000Y-67548530D01*
X140525000Y-60275000D01*
X143641184Y-60275000D01*
X143641184Y-61525000D01*
X143672562Y-61691760D01*
X143771117Y-61844919D01*
X143921495Y-61947668D01*
X144100000Y-61983816D01*
X144250000Y-61983816D01*
X144250000Y-63349700D01*
X144295672Y-63579310D01*
X144327178Y-63626463D01*
X144180081Y-63721117D01*
X144077332Y-63871495D01*
X144041184Y-64050000D01*
X144041184Y-64950000D01*
X144072562Y-65116760D01*
X144171117Y-65269919D01*
X144321495Y-65372668D01*
X144500000Y-65408816D01*
X145700000Y-65408816D01*
X145866760Y-65377438D01*
X146019919Y-65278883D01*
X146122668Y-65128505D01*
X146158816Y-64950000D01*
X146158816Y-64050000D01*
X146127438Y-63883240D01*
X146028883Y-63730081D01*
X145878505Y-63627332D01*
X145700000Y-63591184D01*
X145698306Y-63591184D01*
X145663497Y-63416184D01*
X145654328Y-63370089D01*
X145524264Y-63175436D01*
X145450000Y-63101172D01*
X145450000Y-61983816D01*
X145600000Y-61983816D01*
X145766760Y-61952438D01*
X145919919Y-61853883D01*
X146022668Y-61703505D01*
X146058816Y-61525000D01*
X146058816Y-60275000D01*
X146027438Y-60108240D01*
X145928883Y-59955081D01*
X145778505Y-59852332D01*
X145689018Y-59834210D01*
X149329528Y-56193700D01*
X151396852Y-56193700D01*
X151356193Y-56234288D01*
X151150235Y-56730290D01*
X151149766Y-57267353D01*
X151354858Y-57763715D01*
X151734288Y-58143807D01*
X151844600Y-58189613D01*
X151844600Y-59308900D01*
X149541400Y-59308900D01*
X149311790Y-59354572D01*
X149117136Y-59484636D01*
X148514163Y-60087609D01*
X148428883Y-59955081D01*
X148278505Y-59852332D01*
X148100000Y-59816184D01*
X146600000Y-59816184D01*
X146433240Y-59847562D01*
X146280081Y-59946117D01*
X146177332Y-60096495D01*
X146141184Y-60275000D01*
X146141184Y-61525000D01*
X146172562Y-61691760D01*
X146271117Y-61844919D01*
X146421495Y-61947668D01*
X146600000Y-61983816D01*
X146708252Y-61983816D01*
X146700000Y-62025300D01*
X146700000Y-63591184D01*
X146533240Y-63622562D01*
X146380081Y-63721117D01*
X146277332Y-63871495D01*
X146241184Y-64050000D01*
X146241184Y-64950000D01*
X146272562Y-65116760D01*
X146371117Y-65269919D01*
X146521495Y-65372668D01*
X146700000Y-65408816D01*
X146700000Y-66491184D01*
X146533240Y-66522562D01*
X146380081Y-66621117D01*
X146277332Y-66771495D01*
X146241184Y-66950000D01*
X146241184Y-67850000D01*
X146272562Y-68016760D01*
X146371117Y-68169919D01*
X146521495Y-68272668D01*
X146700000Y-68308816D01*
X147342356Y-68308816D01*
X144575736Y-71075436D01*
X144445672Y-71270090D01*
X144401694Y-71491184D01*
X144400000Y-71491184D01*
X144233240Y-71522562D01*
X144080081Y-71621117D01*
X143977332Y-71771495D01*
X143941184Y-71950000D01*
X143941184Y-72850000D01*
X143972562Y-73016760D01*
X144071117Y-73169919D01*
X144221495Y-73272668D01*
X144400000Y-73308816D01*
X144400000Y-74791184D01*
X144233240Y-74822562D01*
X144080081Y-74921117D01*
X143977332Y-75071495D01*
X143941184Y-75250000D01*
X143941184Y-76150000D01*
X143972562Y-76316760D01*
X144071117Y-76469919D01*
X144221495Y-76572668D01*
X144400000Y-76608816D01*
X145600000Y-76608816D01*
X145766760Y-76577438D01*
X145919919Y-76478883D01*
X146022668Y-76328505D01*
X146058816Y-76150000D01*
X146058816Y-75250000D01*
X146141184Y-75250000D01*
X146141184Y-76150000D01*
X146172562Y-76316760D01*
X146271117Y-76469919D01*
X146421495Y-76572668D01*
X146477588Y-76584027D01*
X146450127Y-76650161D01*
X146449866Y-76948530D01*
X146563807Y-77224286D01*
X146774601Y-77435448D01*
X147050157Y-77549869D01*
X147348526Y-77550130D01*
X147624282Y-77436189D01*
X147835444Y-77225395D01*
X147949865Y-76949839D01*
X147950126Y-76651470D01*
X147922943Y-76585683D01*
X147966760Y-76577438D01*
X148119919Y-76478883D01*
X148222668Y-76328505D01*
X148256284Y-76162500D01*
X149800000Y-76162500D01*
X149800000Y-76739510D01*
X149868508Y-76904904D01*
X149995095Y-77031491D01*
X150160489Y-77100000D01*
X150737500Y-77100000D01*
X150850000Y-76987500D01*
X150850000Y-76050000D01*
X149912500Y-76050000D01*
X149800000Y-76162500D01*
X148256284Y-76162500D01*
X148258816Y-76150000D01*
X148258816Y-75250000D01*
X148227438Y-75083240D01*
X148212799Y-75060490D01*
X149800000Y-75060490D01*
X149800000Y-75637500D01*
X149912500Y-75750000D01*
X150850000Y-75750000D01*
X150850000Y-74812500D01*
X150737500Y-74700000D01*
X150160489Y-74700000D01*
X149995095Y-74768509D01*
X149868508Y-74895096D01*
X149800000Y-75060490D01*
X148212799Y-75060490D01*
X148128883Y-74930081D01*
X147978505Y-74827332D01*
X147800000Y-74791184D01*
X146600000Y-74791184D01*
X146433240Y-74822562D01*
X146280081Y-74921117D01*
X146177332Y-75071495D01*
X146141184Y-75250000D01*
X146058816Y-75250000D01*
X146027438Y-75083240D01*
X145928883Y-74930081D01*
X145778505Y-74827332D01*
X145600000Y-74791184D01*
X145600000Y-73308816D01*
X145766760Y-73277438D01*
X145919919Y-73178883D01*
X146022668Y-73028505D01*
X146058816Y-72850000D01*
X146058816Y-71950000D01*
X146141184Y-71950000D01*
X146141184Y-72850000D01*
X146172562Y-73016760D01*
X146271117Y-73169919D01*
X146421495Y-73272668D01*
X146600000Y-73308816D01*
X147800000Y-73308816D01*
X147966760Y-73277438D01*
X148119919Y-73178883D01*
X148173818Y-73100000D01*
X153210050Y-73100000D01*
X154809885Y-74699834D01*
X154762353Y-74699793D01*
X154321143Y-74882097D01*
X153999735Y-75202943D01*
X153680633Y-74883283D01*
X153239742Y-74700209D01*
X152762353Y-74699793D01*
X152321143Y-74882097D01*
X152183161Y-75019838D01*
X152131492Y-74895096D01*
X152004905Y-74768509D01*
X151839511Y-74700000D01*
X151262500Y-74700000D01*
X151150000Y-74812500D01*
X151150000Y-75750000D01*
X151170000Y-75750000D01*
X151170000Y-76050000D01*
X151150000Y-76050000D01*
X151150000Y-76987500D01*
X151262500Y-77100000D01*
X151839511Y-77100000D01*
X152004905Y-77031491D01*
X152131492Y-76904904D01*
X152183129Y-76780241D01*
X152319367Y-76916717D01*
X152760258Y-77099791D01*
X153237647Y-77100207D01*
X153678857Y-76917903D01*
X154000265Y-76597057D01*
X154319367Y-76916717D01*
X154760258Y-77099791D01*
X155237647Y-77100207D01*
X155678857Y-76917903D01*
X156000265Y-76597057D01*
X156319367Y-76916717D01*
X156760258Y-77099791D01*
X157237647Y-77100207D01*
X157678857Y-76917903D01*
X158000265Y-76597057D01*
X158319367Y-76916717D01*
X158760258Y-77099791D01*
X159237647Y-77100207D01*
X159678857Y-76917903D01*
X160016717Y-76580633D01*
X160199791Y-76139742D01*
X160200183Y-75689767D01*
X164089650Y-71800300D01*
X164300000Y-71800300D01*
X164567878Y-71747016D01*
X164794975Y-71595275D01*
X164946716Y-71368178D01*
X165000000Y-71100300D01*
X165000000Y-70990000D01*
X165066760Y-70977438D01*
X165219919Y-70878883D01*
X165322668Y-70728505D01*
X165358816Y-70550000D01*
X165358816Y-69650000D01*
X165327438Y-69483240D01*
X165228883Y-69330081D01*
X165078505Y-69227332D01*
X164900000Y-69191184D01*
X163700000Y-69191184D01*
X163533240Y-69222562D01*
X163380081Y-69321117D01*
X163277332Y-69471495D01*
X163241184Y-69650000D01*
X163241184Y-70550000D01*
X163260008Y-70650042D01*
X159209867Y-74700183D01*
X158762353Y-74699793D01*
X158321143Y-74882097D01*
X157999735Y-75202943D01*
X157680633Y-74883283D01*
X157239742Y-74700209D01*
X156789766Y-74699817D01*
X153994975Y-71905025D01*
X153767879Y-71753284D01*
X153500000Y-71700000D01*
X148173875Y-71700000D01*
X148128883Y-71630081D01*
X147978505Y-71527332D01*
X147800000Y-71491184D01*
X146600000Y-71491184D01*
X146433240Y-71522562D01*
X146280081Y-71621117D01*
X146177332Y-71771495D01*
X146141184Y-71950000D01*
X146058816Y-71950000D01*
X146027438Y-71783240D01*
X145928883Y-71630081D01*
X145803689Y-71544539D01*
X149091828Y-68256400D01*
X152618531Y-68256400D01*
X152595000Y-68374700D01*
X152595000Y-68483299D01*
X152575081Y-68496117D01*
X152472332Y-68646495D01*
X152436184Y-68825000D01*
X152436184Y-70375000D01*
X152467562Y-70541760D01*
X152566117Y-70694919D01*
X152716495Y-70797668D01*
X152895000Y-70833816D01*
X153495000Y-70833816D01*
X153661760Y-70802438D01*
X153814919Y-70703883D01*
X153828806Y-70683558D01*
X153836117Y-70694919D01*
X153865000Y-70714654D01*
X153865000Y-70825300D01*
X153910672Y-71054910D01*
X154040736Y-71249564D01*
X154235390Y-71379628D01*
X154465000Y-71425300D01*
X160324400Y-71425300D01*
X160554010Y-71379628D01*
X160748664Y-71249564D01*
X161154356Y-70843872D01*
X161171117Y-70869919D01*
X161321495Y-70972668D01*
X161500000Y-71008816D01*
X162700000Y-71008816D01*
X162866760Y-70977438D01*
X163019919Y-70878883D01*
X163122668Y-70728505D01*
X163158816Y-70550000D01*
X163158816Y-69650000D01*
X163127438Y-69483240D01*
X163028883Y-69330081D01*
X162878505Y-69227332D01*
X162700000Y-69191184D01*
X161500000Y-69191184D01*
X161333240Y-69222562D01*
X161180081Y-69321117D01*
X161077332Y-69471495D01*
X161071560Y-69500000D01*
X161049700Y-69500000D01*
X160820090Y-69545672D01*
X160625436Y-69675736D01*
X160075872Y-70225300D01*
X157755000Y-70225300D01*
X157755000Y-69862500D01*
X157642500Y-69750000D01*
X157155000Y-69750000D01*
X157155000Y-69770000D01*
X156855000Y-69770000D01*
X156855000Y-69750000D01*
X156835000Y-69750000D01*
X156835000Y-69450000D01*
X156855000Y-69450000D01*
X156855000Y-69430000D01*
X157155000Y-69430000D01*
X157155000Y-69450000D01*
X157642500Y-69450000D01*
X157755000Y-69337500D01*
X157755000Y-68974700D01*
X163775400Y-68974700D01*
X164005010Y-68929028D01*
X164199664Y-68798964D01*
X164689812Y-68308816D01*
X164900000Y-68308816D01*
X165066760Y-68277438D01*
X165219919Y-68178883D01*
X165322668Y-68028505D01*
X165358816Y-67850000D01*
X165358816Y-66950000D01*
X165327438Y-66783240D01*
X165228883Y-66630081D01*
X165150000Y-66576182D01*
X165150000Y-65583816D01*
X165300000Y-65583816D01*
X165466760Y-65552438D01*
X165619919Y-65453883D01*
X165722668Y-65303505D01*
X165758816Y-65125000D01*
X165758816Y-63875000D01*
X165727438Y-63708240D01*
X165628883Y-63555081D01*
X165478505Y-63452332D01*
X165300000Y-63416184D01*
X163900000Y-63416184D01*
X163900000Y-59200000D01*
X163854328Y-58970390D01*
X163724264Y-58775736D01*
X158524264Y-53575736D01*
X158329610Y-53445672D01*
X158100000Y-53400000D01*
X154748528Y-53400000D01*
X154675572Y-53327044D01*
X154730290Y-53349765D01*
X155267353Y-53350234D01*
X155763715Y-53145142D01*
X156143807Y-52765712D01*
X156250007Y-52509955D01*
X156354858Y-52763715D01*
X156734288Y-53143807D01*
X157230290Y-53349765D01*
X157767353Y-53350234D01*
X158263715Y-53145142D01*
X158643807Y-52765712D01*
X158849765Y-52269710D01*
X158850234Y-51732647D01*
X158645142Y-51236285D01*
X158265712Y-50856193D01*
X157769710Y-50650235D01*
X157232647Y-50649766D01*
X156736285Y-50854858D01*
X156356193Y-51234288D01*
X156249993Y-51490045D01*
X156145142Y-51236285D01*
X155765712Y-50856193D01*
X155269710Y-50650235D01*
X154732647Y-50649766D01*
X154236285Y-50854858D01*
X153856193Y-51234288D01*
X153749993Y-51490045D01*
X153645142Y-51236285D01*
X153265712Y-50856193D01*
X152769710Y-50650235D01*
X152232647Y-50649766D01*
X151736285Y-50854858D01*
X151356193Y-51234288D01*
X151150235Y-51730290D01*
X151149766Y-52267353D01*
X151354858Y-52763715D01*
X151734288Y-53143807D01*
X152230290Y-53349765D01*
X152767353Y-53350234D01*
X152933186Y-53281714D01*
X154075736Y-54424264D01*
X154270390Y-54554328D01*
X154500000Y-54600000D01*
X157851472Y-54600000D01*
X162700000Y-59448528D01*
X162700000Y-63416184D01*
X161300000Y-63416184D01*
X161133240Y-63447562D01*
X160980081Y-63546117D01*
X160877332Y-63696495D01*
X160841184Y-63875000D01*
X160841184Y-63901694D01*
X160620090Y-63945672D01*
X160425436Y-64075736D01*
X159675872Y-64825300D01*
X157763816Y-64825300D01*
X157763816Y-63425000D01*
X157732438Y-63258240D01*
X157633883Y-63105081D01*
X157605000Y-63085346D01*
X157605000Y-58350092D01*
X157767353Y-58350234D01*
X158263715Y-58145142D01*
X158643807Y-57765712D01*
X158849765Y-57269710D01*
X158850234Y-56732647D01*
X158645142Y-56236285D01*
X158265712Y-55856193D01*
X157769710Y-55650235D01*
X157232647Y-55649766D01*
X156736285Y-55854858D01*
X156356193Y-56234288D01*
X156287383Y-56400000D01*
X156212787Y-56400000D01*
X156145142Y-56236285D01*
X155765712Y-55856193D01*
X155269710Y-55650235D01*
X154732647Y-55649766D01*
X154566814Y-55718286D01*
X154017964Y-55169436D01*
X153823310Y-55039372D01*
X153593700Y-54993700D01*
X149081000Y-54993700D01*
X148851390Y-55039372D01*
X148656736Y-55169436D01*
X144425736Y-59400436D01*
X144295672Y-59595090D01*
X144251694Y-59816184D01*
X144100000Y-59816184D01*
X143933240Y-59847562D01*
X143780081Y-59946117D01*
X143677332Y-60096495D01*
X143641184Y-60275000D01*
X140525000Y-60275000D01*
X140525000Y-50525000D01*
X169475000Y-50525000D01*
X169475000Y-79475000D01*
M02*
