G04 #@! TF.FileFunction,Copper,L2,Bot,Signal*
%FSLAX46Y46*%
G04 Gerber Fmt 4.6, Leading zero omitted, Abs format (unit mm)*
G04 Created by KiCad (PCBNEW 4.0.7) date 01/12/18 04:18:43*
%MOMM*%
%LPD*%
G01*
G04 APERTURE LIST*
%ADD10C,0.100000*%
%ADD11R,2.000000X1.600000*%
%ADD12C,1.800000*%
%ADD13R,1.500000X1.500000*%
%ADD14C,1.500000*%
%ADD15C,0.600000*%
%ADD16C,0.500000*%
%ADD17C,0.300000*%
G04 APERTURE END LIST*
D10*
D11*
X151000000Y-70700000D03*
X155000000Y-70700000D03*
D12*
X157500000Y-53000000D03*
X155000000Y-53000000D03*
X152500000Y-53000000D03*
X157500000Y-58000000D03*
X155000000Y-58000000D03*
X152500000Y-58000000D03*
D13*
X151000000Y-75900000D03*
D14*
X153000000Y-75900000D03*
X155000000Y-75900000D03*
X157000000Y-75900000D03*
X159000000Y-75900000D03*
D15*
X147200000Y-76800000D03*
X143800000Y-67400000D03*
X162032000Y-65748700D03*
D16*
X151000000Y-70700000D02*
X151000000Y-75900000D01*
X155000000Y-75900000D02*
X155000000Y-70700000D01*
D17*
X162032000Y-60575700D02*
X162032000Y-65748700D01*
X158088300Y-56632000D02*
X162032000Y-60575700D01*
X153868000Y-56632000D02*
X158088300Y-56632000D01*
X152500000Y-58000000D02*
X153868000Y-56632000D01*
G36*
X169475000Y-79475000D02*
X140525000Y-79475000D01*
X140525000Y-69900000D01*
X149541184Y-69900000D01*
X149541184Y-71500000D01*
X149572562Y-71666760D01*
X149671117Y-71819919D01*
X149821495Y-71922668D01*
X150000000Y-71958816D01*
X150300000Y-71958816D01*
X150300000Y-74691184D01*
X150250000Y-74691184D01*
X150083240Y-74722562D01*
X149930081Y-74821117D01*
X149827332Y-74971495D01*
X149791184Y-75150000D01*
X149791184Y-76650000D01*
X149822562Y-76816760D01*
X149921117Y-76969919D01*
X150071495Y-77072668D01*
X150250000Y-77108816D01*
X151750000Y-77108816D01*
X151916760Y-77077438D01*
X152069919Y-76978883D01*
X152172668Y-76828505D01*
X152177668Y-76803816D01*
X152242993Y-76869141D01*
X152327658Y-76784476D01*
X152407617Y-76970540D01*
X152862388Y-77115745D01*
X153338108Y-77075864D01*
X153592383Y-76970540D01*
X153672343Y-76784475D01*
X153000000Y-76112132D01*
X152985858Y-76126275D01*
X152773726Y-75914143D01*
X152787868Y-75900000D01*
X153212132Y-75900000D01*
X153884475Y-76572343D01*
X153965091Y-76537699D01*
X153982097Y-76578857D01*
X154319367Y-76916717D01*
X154760258Y-77099791D01*
X155237647Y-77100207D01*
X155678857Y-76917903D01*
X156000265Y-76597057D01*
X156319367Y-76916717D01*
X156760258Y-77099791D01*
X157237647Y-77100207D01*
X157678857Y-76917903D01*
X158000265Y-76597057D01*
X158319367Y-76916717D01*
X158760258Y-77099791D01*
X159237647Y-77100207D01*
X159678857Y-76917903D01*
X160016717Y-76580633D01*
X160199791Y-76139742D01*
X160200207Y-75662353D01*
X160017903Y-75221143D01*
X159680633Y-74883283D01*
X159239742Y-74700209D01*
X158762353Y-74699793D01*
X158321143Y-74882097D01*
X157999735Y-75202943D01*
X157680633Y-74883283D01*
X157239742Y-74700209D01*
X156762353Y-74699793D01*
X156321143Y-74882097D01*
X155999735Y-75202943D01*
X155700000Y-74902684D01*
X155700000Y-71958816D01*
X156000000Y-71958816D01*
X156166760Y-71927438D01*
X156319919Y-71828883D01*
X156422668Y-71678505D01*
X156458816Y-71500000D01*
X156458816Y-69900000D01*
X156427438Y-69733240D01*
X156328883Y-69580081D01*
X156178505Y-69477332D01*
X156000000Y-69441184D01*
X154000000Y-69441184D01*
X153833240Y-69472562D01*
X153680081Y-69571117D01*
X153577332Y-69721495D01*
X153541184Y-69900000D01*
X153541184Y-71500000D01*
X153572562Y-71666760D01*
X153671117Y-71819919D01*
X153821495Y-71922668D01*
X154000000Y-71958816D01*
X154300000Y-71958816D01*
X154300000Y-74903203D01*
X153983283Y-75219367D01*
X153965400Y-75262434D01*
X153884475Y-75227657D01*
X153212132Y-75900000D01*
X152787868Y-75900000D01*
X152773726Y-75885858D01*
X152985858Y-75673726D01*
X153000000Y-75687868D01*
X153672343Y-75015525D01*
X153592383Y-74829460D01*
X153137612Y-74684255D01*
X152661892Y-74724136D01*
X152407617Y-74829460D01*
X152327658Y-75015524D01*
X152242993Y-74930859D01*
X152179524Y-74994328D01*
X152177438Y-74983240D01*
X152078883Y-74830081D01*
X151928505Y-74727332D01*
X151750000Y-74691184D01*
X151700000Y-74691184D01*
X151700000Y-71958816D01*
X152000000Y-71958816D01*
X152166760Y-71927438D01*
X152319919Y-71828883D01*
X152422668Y-71678505D01*
X152458816Y-71500000D01*
X152458816Y-69900000D01*
X152427438Y-69733240D01*
X152328883Y-69580081D01*
X152178505Y-69477332D01*
X152000000Y-69441184D01*
X150000000Y-69441184D01*
X149833240Y-69472562D01*
X149680081Y-69571117D01*
X149577332Y-69721495D01*
X149541184Y-69900000D01*
X140525000Y-69900000D01*
X140525000Y-58267353D01*
X151149766Y-58267353D01*
X151354858Y-58763715D01*
X151734288Y-59143807D01*
X152230290Y-59349765D01*
X152767353Y-59350234D01*
X153263715Y-59145142D01*
X153415625Y-58993496D01*
X154218636Y-58993496D01*
X154317116Y-59195105D01*
X154826444Y-59365462D01*
X155362196Y-59327939D01*
X155682884Y-59195105D01*
X155781364Y-58993496D01*
X156718636Y-58993496D01*
X156817116Y-59195105D01*
X157326444Y-59365462D01*
X157862196Y-59327939D01*
X158182884Y-59195105D01*
X158281364Y-58993496D01*
X157500000Y-58212132D01*
X156718636Y-58993496D01*
X155781364Y-58993496D01*
X155000000Y-58212132D01*
X154218636Y-58993496D01*
X153415625Y-58993496D01*
X153643807Y-58765712D01*
X153741626Y-58530139D01*
X153804895Y-58682884D01*
X154006504Y-58781364D01*
X154787868Y-58000000D01*
X154773726Y-57985858D01*
X154985858Y-57773726D01*
X155000000Y-57787868D01*
X155014143Y-57773726D01*
X155226275Y-57985858D01*
X155212132Y-58000000D01*
X155993496Y-58781364D01*
X156195105Y-58682884D01*
X156244153Y-58536241D01*
X156304895Y-58682884D01*
X156506504Y-58781364D01*
X157287868Y-58000000D01*
X157273726Y-57985858D01*
X157485858Y-57773726D01*
X157500000Y-57787868D01*
X157514143Y-57773726D01*
X157726275Y-57985858D01*
X157712132Y-58000000D01*
X158493496Y-58781364D01*
X158695105Y-58682884D01*
X158844375Y-58236603D01*
X161432000Y-60824228D01*
X161432000Y-65287919D01*
X161396552Y-65323305D01*
X161282131Y-65598861D01*
X161281870Y-65897230D01*
X161395811Y-66172986D01*
X161606605Y-66384148D01*
X161882161Y-66498569D01*
X162180530Y-66498830D01*
X162456286Y-66384889D01*
X162667448Y-66174095D01*
X162781869Y-65898539D01*
X162782130Y-65600170D01*
X162668189Y-65324414D01*
X162632000Y-65288162D01*
X162632000Y-60575700D01*
X162586328Y-60346090D01*
X162456264Y-60151436D01*
X158512564Y-56207736D01*
X158317910Y-56077672D01*
X158088300Y-56032000D01*
X153868000Y-56032000D01*
X153638390Y-56077672D01*
X153443736Y-56207736D01*
X152933306Y-56718166D01*
X152769710Y-56650235D01*
X152232647Y-56649766D01*
X151736285Y-56854858D01*
X151356193Y-57234288D01*
X151150235Y-57730290D01*
X151149766Y-58267353D01*
X140525000Y-58267353D01*
X140525000Y-53267353D01*
X151149766Y-53267353D01*
X151354858Y-53763715D01*
X151734288Y-54143807D01*
X152230290Y-54349765D01*
X152767353Y-54350234D01*
X153263715Y-54145142D01*
X153643807Y-53765712D01*
X153750007Y-53509955D01*
X153854858Y-53763715D01*
X154234288Y-54143807D01*
X154730290Y-54349765D01*
X155267353Y-54350234D01*
X155763715Y-54145142D01*
X156143807Y-53765712D01*
X156250007Y-53509955D01*
X156354858Y-53763715D01*
X156734288Y-54143807D01*
X157230290Y-54349765D01*
X157767353Y-54350234D01*
X158263715Y-54145142D01*
X158643807Y-53765712D01*
X158849765Y-53269710D01*
X158850234Y-52732647D01*
X158645142Y-52236285D01*
X158265712Y-51856193D01*
X157769710Y-51650235D01*
X157232647Y-51649766D01*
X156736285Y-51854858D01*
X156356193Y-52234288D01*
X156249993Y-52490045D01*
X156145142Y-52236285D01*
X155765712Y-51856193D01*
X155269710Y-51650235D01*
X154732647Y-51649766D01*
X154236285Y-51854858D01*
X153856193Y-52234288D01*
X153749993Y-52490045D01*
X153645142Y-52236285D01*
X153265712Y-51856193D01*
X152769710Y-51650235D01*
X152232647Y-51649766D01*
X151736285Y-51854858D01*
X151356193Y-52234288D01*
X151150235Y-52730290D01*
X151149766Y-53267353D01*
X140525000Y-53267353D01*
X140525000Y-50525000D01*
X169475000Y-50525000D01*
X169475000Y-79475000D01*
X169475000Y-79475000D01*
G37*
X169475000Y-79475000D02*
X140525000Y-79475000D01*
X140525000Y-69900000D01*
X149541184Y-69900000D01*
X149541184Y-71500000D01*
X149572562Y-71666760D01*
X149671117Y-71819919D01*
X149821495Y-71922668D01*
X150000000Y-71958816D01*
X150300000Y-71958816D01*
X150300000Y-74691184D01*
X150250000Y-74691184D01*
X150083240Y-74722562D01*
X149930081Y-74821117D01*
X149827332Y-74971495D01*
X149791184Y-75150000D01*
X149791184Y-76650000D01*
X149822562Y-76816760D01*
X149921117Y-76969919D01*
X150071495Y-77072668D01*
X150250000Y-77108816D01*
X151750000Y-77108816D01*
X151916760Y-77077438D01*
X152069919Y-76978883D01*
X152172668Y-76828505D01*
X152177668Y-76803816D01*
X152242993Y-76869141D01*
X152327658Y-76784476D01*
X152407617Y-76970540D01*
X152862388Y-77115745D01*
X153338108Y-77075864D01*
X153592383Y-76970540D01*
X153672343Y-76784475D01*
X153000000Y-76112132D01*
X152985858Y-76126275D01*
X152773726Y-75914143D01*
X152787868Y-75900000D01*
X153212132Y-75900000D01*
X153884475Y-76572343D01*
X153965091Y-76537699D01*
X153982097Y-76578857D01*
X154319367Y-76916717D01*
X154760258Y-77099791D01*
X155237647Y-77100207D01*
X155678857Y-76917903D01*
X156000265Y-76597057D01*
X156319367Y-76916717D01*
X156760258Y-77099791D01*
X157237647Y-77100207D01*
X157678857Y-76917903D01*
X158000265Y-76597057D01*
X158319367Y-76916717D01*
X158760258Y-77099791D01*
X159237647Y-77100207D01*
X159678857Y-76917903D01*
X160016717Y-76580633D01*
X160199791Y-76139742D01*
X160200207Y-75662353D01*
X160017903Y-75221143D01*
X159680633Y-74883283D01*
X159239742Y-74700209D01*
X158762353Y-74699793D01*
X158321143Y-74882097D01*
X157999735Y-75202943D01*
X157680633Y-74883283D01*
X157239742Y-74700209D01*
X156762353Y-74699793D01*
X156321143Y-74882097D01*
X155999735Y-75202943D01*
X155700000Y-74902684D01*
X155700000Y-71958816D01*
X156000000Y-71958816D01*
X156166760Y-71927438D01*
X156319919Y-71828883D01*
X156422668Y-71678505D01*
X156458816Y-71500000D01*
X156458816Y-69900000D01*
X156427438Y-69733240D01*
X156328883Y-69580081D01*
X156178505Y-69477332D01*
X156000000Y-69441184D01*
X154000000Y-69441184D01*
X153833240Y-69472562D01*
X153680081Y-69571117D01*
X153577332Y-69721495D01*
X153541184Y-69900000D01*
X153541184Y-71500000D01*
X153572562Y-71666760D01*
X153671117Y-71819919D01*
X153821495Y-71922668D01*
X154000000Y-71958816D01*
X154300000Y-71958816D01*
X154300000Y-74903203D01*
X153983283Y-75219367D01*
X153965400Y-75262434D01*
X153884475Y-75227657D01*
X153212132Y-75900000D01*
X152787868Y-75900000D01*
X152773726Y-75885858D01*
X152985858Y-75673726D01*
X153000000Y-75687868D01*
X153672343Y-75015525D01*
X153592383Y-74829460D01*
X153137612Y-74684255D01*
X152661892Y-74724136D01*
X152407617Y-74829460D01*
X152327658Y-75015524D01*
X152242993Y-74930859D01*
X152179524Y-74994328D01*
X152177438Y-74983240D01*
X152078883Y-74830081D01*
X151928505Y-74727332D01*
X151750000Y-74691184D01*
X151700000Y-74691184D01*
X151700000Y-71958816D01*
X152000000Y-71958816D01*
X152166760Y-71927438D01*
X152319919Y-71828883D01*
X152422668Y-71678505D01*
X152458816Y-71500000D01*
X152458816Y-69900000D01*
X152427438Y-69733240D01*
X152328883Y-69580081D01*
X152178505Y-69477332D01*
X152000000Y-69441184D01*
X150000000Y-69441184D01*
X149833240Y-69472562D01*
X149680081Y-69571117D01*
X149577332Y-69721495D01*
X149541184Y-69900000D01*
X140525000Y-69900000D01*
X140525000Y-58267353D01*
X151149766Y-58267353D01*
X151354858Y-58763715D01*
X151734288Y-59143807D01*
X152230290Y-59349765D01*
X152767353Y-59350234D01*
X153263715Y-59145142D01*
X153415625Y-58993496D01*
X154218636Y-58993496D01*
X154317116Y-59195105D01*
X154826444Y-59365462D01*
X155362196Y-59327939D01*
X155682884Y-59195105D01*
X155781364Y-58993496D01*
X156718636Y-58993496D01*
X156817116Y-59195105D01*
X157326444Y-59365462D01*
X157862196Y-59327939D01*
X158182884Y-59195105D01*
X158281364Y-58993496D01*
X157500000Y-58212132D01*
X156718636Y-58993496D01*
X155781364Y-58993496D01*
X155000000Y-58212132D01*
X154218636Y-58993496D01*
X153415625Y-58993496D01*
X153643807Y-58765712D01*
X153741626Y-58530139D01*
X153804895Y-58682884D01*
X154006504Y-58781364D01*
X154787868Y-58000000D01*
X154773726Y-57985858D01*
X154985858Y-57773726D01*
X155000000Y-57787868D01*
X155014143Y-57773726D01*
X155226275Y-57985858D01*
X155212132Y-58000000D01*
X155993496Y-58781364D01*
X156195105Y-58682884D01*
X156244153Y-58536241D01*
X156304895Y-58682884D01*
X156506504Y-58781364D01*
X157287868Y-58000000D01*
X157273726Y-57985858D01*
X157485858Y-57773726D01*
X157500000Y-57787868D01*
X157514143Y-57773726D01*
X157726275Y-57985858D01*
X157712132Y-58000000D01*
X158493496Y-58781364D01*
X158695105Y-58682884D01*
X158844375Y-58236603D01*
X161432000Y-60824228D01*
X161432000Y-65287919D01*
X161396552Y-65323305D01*
X161282131Y-65598861D01*
X161281870Y-65897230D01*
X161395811Y-66172986D01*
X161606605Y-66384148D01*
X161882161Y-66498569D01*
X162180530Y-66498830D01*
X162456286Y-66384889D01*
X162667448Y-66174095D01*
X162781869Y-65898539D01*
X162782130Y-65600170D01*
X162668189Y-65324414D01*
X162632000Y-65288162D01*
X162632000Y-60575700D01*
X162586328Y-60346090D01*
X162456264Y-60151436D01*
X158512564Y-56207736D01*
X158317910Y-56077672D01*
X158088300Y-56032000D01*
X153868000Y-56032000D01*
X153638390Y-56077672D01*
X153443736Y-56207736D01*
X152933306Y-56718166D01*
X152769710Y-56650235D01*
X152232647Y-56649766D01*
X151736285Y-56854858D01*
X151356193Y-57234288D01*
X151150235Y-57730290D01*
X151149766Y-58267353D01*
X140525000Y-58267353D01*
X140525000Y-53267353D01*
X151149766Y-53267353D01*
X151354858Y-53763715D01*
X151734288Y-54143807D01*
X152230290Y-54349765D01*
X152767353Y-54350234D01*
X153263715Y-54145142D01*
X153643807Y-53765712D01*
X153750007Y-53509955D01*
X153854858Y-53763715D01*
X154234288Y-54143807D01*
X154730290Y-54349765D01*
X155267353Y-54350234D01*
X155763715Y-54145142D01*
X156143807Y-53765712D01*
X156250007Y-53509955D01*
X156354858Y-53763715D01*
X156734288Y-54143807D01*
X157230290Y-54349765D01*
X157767353Y-54350234D01*
X158263715Y-54145142D01*
X158643807Y-53765712D01*
X158849765Y-53269710D01*
X158850234Y-52732647D01*
X158645142Y-52236285D01*
X158265712Y-51856193D01*
X157769710Y-51650235D01*
X157232647Y-51649766D01*
X156736285Y-51854858D01*
X156356193Y-52234288D01*
X156249993Y-52490045D01*
X156145142Y-52236285D01*
X155765712Y-51856193D01*
X155269710Y-51650235D01*
X154732647Y-51649766D01*
X154236285Y-51854858D01*
X153856193Y-52234288D01*
X153749993Y-52490045D01*
X153645142Y-52236285D01*
X153265712Y-51856193D01*
X152769710Y-51650235D01*
X152232647Y-51649766D01*
X151736285Y-51854858D01*
X151356193Y-52234288D01*
X151150235Y-52730290D01*
X151149766Y-53267353D01*
X140525000Y-53267353D01*
X140525000Y-50525000D01*
X169475000Y-50525000D01*
X169475000Y-79475000D01*
M02*
