G04 #@! TF.FileFunction,Legend,Bot*
%FSLAX46Y46*%
G04 Gerber Fmt 4.6, Leading zero omitted, Abs format (unit mm)*
G04 Created by KiCad (PCBNEW 4.0.4-1.fc24-product) date Mon Jan 15 15:54:34 2018*
%MOMM*%
%LPD*%
G01*
G04 APERTURE LIST*
%ADD10C,0.100000*%
%ADD11C,0.150000*%
%ADD12C,0.120000*%
G04 APERTURE END LIST*
D10*
D11*
X159057142Y-73671429D02*
X158942856Y-73671429D01*
X158885714Y-73700000D01*
X158828571Y-73757143D01*
X158799999Y-73871429D01*
X158799999Y-74071429D01*
X158828571Y-74185714D01*
X158885714Y-74242857D01*
X158942856Y-74271429D01*
X159057142Y-74271429D01*
X159114285Y-74242857D01*
X159171428Y-74185714D01*
X159199999Y-74071429D01*
X159199999Y-73871429D01*
X159171428Y-73757143D01*
X159114285Y-73700000D01*
X159057142Y-73671429D01*
X157000000Y-74271429D02*
X157000000Y-73671429D01*
X155228571Y-73942857D02*
X154771428Y-73942857D01*
X152842857Y-73700000D02*
X152900000Y-73671429D01*
X152985714Y-73671429D01*
X153071429Y-73700000D01*
X153128571Y-73757143D01*
X153157143Y-73814286D01*
X153185714Y-73928571D01*
X153185714Y-74014286D01*
X153157143Y-74128571D01*
X153128571Y-74185714D01*
X153071429Y-74242857D01*
X152985714Y-74271429D01*
X152928571Y-74271429D01*
X152842857Y-74242857D01*
X152814286Y-74214286D01*
X152814286Y-74014286D01*
X152928571Y-74014286D01*
X151228571Y-74042857D02*
X150771428Y-74042857D01*
X150999999Y-74271429D02*
X150999999Y-73814286D01*
X145957143Y-50832143D02*
X145871429Y-50860714D01*
X145842857Y-50889286D01*
X145814286Y-50946429D01*
X145814286Y-51032143D01*
X145842857Y-51089286D01*
X145871429Y-51117857D01*
X145928571Y-51146429D01*
X146157143Y-51146429D01*
X146157143Y-50546429D01*
X145957143Y-50546429D01*
X145900000Y-50575000D01*
X145871429Y-50603571D01*
X145842857Y-50660714D01*
X145842857Y-50717857D01*
X145871429Y-50775000D01*
X145900000Y-50803571D01*
X145957143Y-50832143D01*
X146157143Y-50832143D01*
X145242857Y-50575000D02*
X145300000Y-50546429D01*
X145385714Y-50546429D01*
X145471429Y-50575000D01*
X145528571Y-50632143D01*
X145557143Y-50689286D01*
X145585714Y-50803571D01*
X145585714Y-50889286D01*
X145557143Y-51003571D01*
X145528571Y-51060714D01*
X145471429Y-51117857D01*
X145385714Y-51146429D01*
X145328571Y-51146429D01*
X145242857Y-51117857D01*
X145214286Y-51089286D01*
X145214286Y-50889286D01*
X145328571Y-50889286D01*
X144957143Y-51146429D02*
X144957143Y-50546429D01*
X144728571Y-50546429D01*
X144671429Y-50575000D01*
X144642857Y-50603571D01*
X144614286Y-50660714D01*
X144614286Y-50746429D01*
X144642857Y-50803571D01*
X144671429Y-50832143D01*
X144728571Y-50860714D01*
X144957143Y-50860714D01*
X143985714Y-50546429D02*
X143785714Y-51146429D01*
X143585714Y-50546429D01*
X143071428Y-51146429D02*
X143414285Y-51146429D01*
X143242857Y-51146429D02*
X143242857Y-50546429D01*
X143300000Y-50632143D01*
X143357142Y-50689286D01*
X143414285Y-50717857D01*
X142814285Y-51089286D02*
X142785713Y-51117857D01*
X142814285Y-51146429D01*
X142842856Y-51117857D01*
X142814285Y-51089286D01*
X142814285Y-51146429D01*
X142414285Y-50546429D02*
X142357142Y-50546429D01*
X142299999Y-50575000D01*
X142271428Y-50603571D01*
X142242857Y-50660714D01*
X142214285Y-50775000D01*
X142214285Y-50917857D01*
X142242857Y-51032143D01*
X142271428Y-51089286D01*
X142299999Y-51117857D01*
X142357142Y-51146429D01*
X142414285Y-51146429D01*
X142471428Y-51117857D01*
X142499999Y-51089286D01*
X142528571Y-51032143D01*
X142557142Y-50917857D01*
X142557142Y-50775000D01*
X142528571Y-50660714D01*
X142499999Y-50603571D01*
X142471428Y-50575000D01*
X142414285Y-50546429D01*
X147742857Y-52196429D02*
X147742857Y-51596429D01*
X147742857Y-51882143D02*
X147400000Y-51882143D01*
X147400000Y-52196429D02*
X147400000Y-51596429D01*
X147114286Y-52196429D02*
X147114286Y-51796429D01*
X147114286Y-51596429D02*
X147142857Y-51625000D01*
X147114286Y-51653571D01*
X147085714Y-51625000D01*
X147114286Y-51596429D01*
X147114286Y-51653571D01*
X146571429Y-51796429D02*
X146571429Y-52282143D01*
X146600000Y-52339286D01*
X146628572Y-52367857D01*
X146685715Y-52396429D01*
X146771429Y-52396429D01*
X146828572Y-52367857D01*
X146571429Y-52167857D02*
X146628572Y-52196429D01*
X146742858Y-52196429D01*
X146800000Y-52167857D01*
X146828572Y-52139286D01*
X146857143Y-52082143D01*
X146857143Y-51910714D01*
X146828572Y-51853571D01*
X146800000Y-51825000D01*
X146742858Y-51796429D01*
X146628572Y-51796429D01*
X146571429Y-51825000D01*
X146285715Y-52196429D02*
X146285715Y-51596429D01*
X146028572Y-52196429D02*
X146028572Y-51882143D01*
X146057143Y-51825000D01*
X146114286Y-51796429D01*
X146200001Y-51796429D01*
X146257143Y-51825000D01*
X146285715Y-51853571D01*
X145285715Y-52196429D02*
X145285715Y-51596429D01*
X145057143Y-51596429D01*
X145000001Y-51625000D01*
X144971429Y-51653571D01*
X144942858Y-51710714D01*
X144942858Y-51796429D01*
X144971429Y-51853571D01*
X145000001Y-51882143D01*
X145057143Y-51910714D01*
X145285715Y-51910714D01*
X144428572Y-52196429D02*
X144428572Y-51882143D01*
X144457143Y-51825000D01*
X144514286Y-51796429D01*
X144628572Y-51796429D01*
X144685715Y-51825000D01*
X144428572Y-52167857D02*
X144485715Y-52196429D01*
X144628572Y-52196429D01*
X144685715Y-52167857D01*
X144714286Y-52110714D01*
X144714286Y-52053571D01*
X144685715Y-51996429D01*
X144628572Y-51967857D01*
X144485715Y-51967857D01*
X144428572Y-51939286D01*
X144171429Y-52167857D02*
X144114286Y-52196429D01*
X144000001Y-52196429D01*
X143942858Y-52167857D01*
X143914286Y-52110714D01*
X143914286Y-52082143D01*
X143942858Y-52025000D01*
X144000001Y-51996429D01*
X144085715Y-51996429D01*
X144142858Y-51967857D01*
X144171429Y-51910714D01*
X144171429Y-51882143D01*
X144142858Y-51825000D01*
X144085715Y-51796429D01*
X144000001Y-51796429D01*
X143942858Y-51825000D01*
X143685715Y-52167857D02*
X143628572Y-52196429D01*
X143514287Y-52196429D01*
X143457144Y-52167857D01*
X143428572Y-52110714D01*
X143428572Y-52082143D01*
X143457144Y-52025000D01*
X143514287Y-51996429D01*
X143600001Y-51996429D01*
X143657144Y-51967857D01*
X143685715Y-51910714D01*
X143685715Y-51882143D01*
X143657144Y-51825000D01*
X143600001Y-51796429D01*
X143514287Y-51796429D01*
X143457144Y-51825000D01*
X142514287Y-51882143D02*
X142714287Y-51882143D01*
X142714287Y-52196429D02*
X142714287Y-51596429D01*
X142428573Y-51596429D01*
X142200001Y-52196429D02*
X142200001Y-51796429D01*
X142200001Y-51596429D02*
X142228572Y-51625000D01*
X142200001Y-51653571D01*
X142171429Y-51625000D01*
X142200001Y-51596429D01*
X142200001Y-51653571D01*
X141828573Y-52196429D02*
X141885715Y-52167857D01*
X141914287Y-52110714D01*
X141914287Y-51596429D01*
X141685715Y-51796429D02*
X141457144Y-51796429D01*
X141600001Y-51596429D02*
X141600001Y-52110714D01*
X141571429Y-52167857D01*
X141514287Y-52196429D01*
X141457144Y-52196429D01*
X141028572Y-52167857D02*
X141085715Y-52196429D01*
X141200001Y-52196429D01*
X141257144Y-52167857D01*
X141285715Y-52110714D01*
X141285715Y-51882143D01*
X141257144Y-51825000D01*
X141200001Y-51796429D01*
X141085715Y-51796429D01*
X141028572Y-51825000D01*
X141000001Y-51882143D01*
X141000001Y-51939286D01*
X141285715Y-51996429D01*
X140742858Y-52196429D02*
X140742858Y-51796429D01*
X140742858Y-51910714D02*
X140714286Y-51853571D01*
X140685715Y-51825000D01*
X140628572Y-51796429D01*
X140571429Y-51796429D01*
D12*
X148850000Y-78950000D02*
X148850000Y-75000000D01*
X148850000Y-75000000D02*
X161150000Y-75000000D01*
X161150000Y-75000000D02*
X161150000Y-78950000D01*
X161150000Y-78950000D02*
X148850000Y-78950000D01*
X151350000Y-79200000D02*
X148600000Y-79200000D01*
X148600000Y-79200000D02*
X148600000Y-76450000D01*
X148850000Y-76500000D02*
X149250000Y-76500000D01*
X161150000Y-76500000D02*
X160750000Y-76500000D01*
X155000000Y-78550000D02*
X149250000Y-78550000D01*
X149250000Y-78550000D02*
X149250000Y-77300000D01*
X149250000Y-77300000D02*
X149650000Y-77300000D01*
X149650000Y-77300000D02*
X149650000Y-76900000D01*
X149650000Y-76900000D02*
X149250000Y-76900000D01*
X149250000Y-76900000D02*
X149250000Y-75000000D01*
X155000000Y-78550000D02*
X160750000Y-78550000D01*
X160750000Y-78550000D02*
X160750000Y-77300000D01*
X160750000Y-77300000D02*
X160350000Y-77300000D01*
X160350000Y-77300000D02*
X160350000Y-76900000D01*
X160350000Y-76900000D02*
X160750000Y-76900000D01*
X160750000Y-76900000D02*
X160750000Y-75000000D01*
X159810000Y-59200000D02*
X159810000Y-49940000D01*
X150190000Y-59200000D02*
X150190000Y-49940000D01*
X159810000Y-59200000D02*
X150190000Y-59200000D01*
X159810000Y-49940000D02*
X150190000Y-49940000D01*
D11*
X154600000Y-70450000D02*
X155600000Y-70450000D01*
X155600000Y-72150000D02*
X154600000Y-72150000D01*
X162642857Y-75671429D02*
X162642857Y-75071429D01*
X162414285Y-75071429D01*
X162357143Y-75100000D01*
X162328571Y-75128571D01*
X162300000Y-75185714D01*
X162300000Y-75271429D01*
X162328571Y-75328571D01*
X162357143Y-75357143D01*
X162414285Y-75385714D01*
X162642857Y-75385714D01*
X161728571Y-75671429D02*
X162071428Y-75671429D01*
X161900000Y-75671429D02*
X161900000Y-75071429D01*
X161957143Y-75157143D01*
X162014285Y-75214286D01*
X162071428Y-75242857D01*
X149871429Y-50942857D02*
X149585714Y-50742857D01*
X149871429Y-50600000D02*
X149271429Y-50600000D01*
X149271429Y-50828572D01*
X149300000Y-50885714D01*
X149328571Y-50914286D01*
X149385714Y-50942857D01*
X149471429Y-50942857D01*
X149528571Y-50914286D01*
X149557143Y-50885714D01*
X149585714Y-50828572D01*
X149585714Y-50600000D01*
X149271429Y-51114286D02*
X149871429Y-51314286D01*
X149271429Y-51514286D01*
X149871429Y-52028572D02*
X149871429Y-51685715D01*
X149871429Y-51857143D02*
X149271429Y-51857143D01*
X149357143Y-51800000D01*
X149414286Y-51742858D01*
X149442857Y-51685715D01*
X157000000Y-70014286D02*
X157028571Y-70042857D01*
X157114285Y-70071429D01*
X157171428Y-70071429D01*
X157257143Y-70042857D01*
X157314285Y-69985714D01*
X157342857Y-69928571D01*
X157371428Y-69814286D01*
X157371428Y-69728571D01*
X157342857Y-69614286D01*
X157314285Y-69557143D01*
X157257143Y-69500000D01*
X157171428Y-69471429D01*
X157114285Y-69471429D01*
X157028571Y-69500000D01*
X157000000Y-69528571D01*
X156800000Y-69471429D02*
X156428571Y-69471429D01*
X156628571Y-69700000D01*
X156542857Y-69700000D01*
X156485714Y-69728571D01*
X156457143Y-69757143D01*
X156428571Y-69814286D01*
X156428571Y-69957143D01*
X156457143Y-70014286D01*
X156485714Y-70042857D01*
X156542857Y-70071429D01*
X156714285Y-70071429D01*
X156771428Y-70042857D01*
X156800000Y-70014286D01*
M02*
