G04 #@! TF.FileFunction,Copper,L2,Bot,Signal*
%FSLAX46Y46*%
G04 Gerber Fmt 4.6, Leading zero omitted, Abs format (unit mm)*
G04 Created by KiCad (PCBNEW 4.0.4-1.fc24-product) date Tue Jun 12 10:10:09 2018*
%MOMM*%
%LPD*%
G01*
G04 APERTURE LIST*
%ADD10C,0.100000*%
%ADD11R,1.700000X1.700000*%
%ADD12O,1.700000X1.700000*%
%ADD13C,1.800000*%
%ADD14R,2.499360X1.800860*%
%ADD15R,1.200000X0.750000*%
%ADD16R,1.000000X1.600000*%
%ADD17C,0.600000*%
%ADD18C,0.500000*%
%ADD19C,0.300000*%
%ADD20C,0.400000*%
G04 APERTURE END LIST*
D10*
D11*
X165000000Y-90000000D03*
D12*
X165000000Y-92540000D03*
D11*
X148000000Y-108500000D03*
D12*
X148000000Y-105960000D03*
X148000000Y-103420000D03*
X148000000Y-100880000D03*
X148000000Y-98340000D03*
D13*
X158700000Y-89900000D03*
X153700000Y-89900000D03*
X148700000Y-89900000D03*
D14*
X152001020Y-109000000D03*
X155998980Y-109000000D03*
D15*
X158950000Y-106000000D03*
X160850000Y-106000000D03*
X160750000Y-109000000D03*
X158850000Y-109000000D03*
D16*
X151800000Y-105700000D03*
X154800000Y-105700000D03*
X163500000Y-109000000D03*
X166500000Y-109000000D03*
D17*
X153000004Y-105400000D03*
X166000000Y-105999998D03*
X156600000Y-102200000D03*
X162600000Y-104300000D03*
X161000000Y-100300000D03*
X155800000Y-100300002D03*
X153000000Y-100300000D03*
X154199998Y-104200000D03*
X162300000Y-109000000D03*
D18*
X151800000Y-105700000D02*
X151800000Y-103000000D01*
X152600000Y-102200000D02*
X156175736Y-102200000D01*
X151800000Y-103000000D02*
X152600000Y-102200000D01*
X156175736Y-102200000D02*
X156600000Y-102200000D01*
X151800000Y-107200000D02*
X151800000Y-108798980D01*
X151800000Y-105700000D02*
X151800000Y-107200000D01*
X151800000Y-107200000D02*
X156650000Y-107200000D01*
X156650000Y-107200000D02*
X157850000Y-106000000D01*
X151800000Y-108798980D02*
X152001020Y-109000000D01*
X158950000Y-106000000D02*
X157850000Y-106000000D01*
X150200000Y-109000000D02*
X149700000Y-108500000D01*
X149700000Y-108500000D02*
X148000000Y-108500000D01*
X150200000Y-109000000D02*
X152001020Y-109000000D01*
D19*
X162600000Y-89600000D02*
X162600000Y-103875736D01*
X150700000Y-87900000D02*
X160900000Y-87900000D01*
X148700000Y-89900000D02*
X150700000Y-87900000D01*
X162600000Y-103875736D02*
X162600000Y-104300000D01*
X160900000Y-87900000D02*
X162600000Y-89600000D01*
X160999998Y-100300002D02*
X161000000Y-100300000D01*
X155800000Y-100300002D02*
X160999998Y-100300002D01*
X152000000Y-99300000D02*
X153000000Y-100300000D01*
X152000000Y-91600000D02*
X152000000Y-99300000D01*
X153700000Y-89900000D02*
X152000000Y-91600000D01*
X155799998Y-100300000D02*
X155800000Y-100300002D01*
X153000000Y-100300000D02*
X155799998Y-100300000D01*
D20*
X160850000Y-106000000D02*
X160850000Y-105250000D01*
X160850000Y-105250000D02*
X159800000Y-104200000D01*
X159800000Y-104200000D02*
X154624262Y-104200000D01*
X154624262Y-104200000D02*
X154199998Y-104200000D01*
X160850000Y-106000000D02*
X160850000Y-108900000D01*
X160850000Y-108900000D02*
X160750000Y-109000000D01*
X162300000Y-109000000D02*
X160750000Y-109000000D01*
X163500000Y-109000000D02*
X162300000Y-109000000D01*
D19*
G36*
X167475000Y-111475000D02*
X145525000Y-111475000D01*
X145525000Y-100880000D01*
X146674531Y-100880000D01*
X146773488Y-101377488D01*
X147055292Y-101799239D01*
X147477043Y-102081043D01*
X147823712Y-102150000D01*
X147477043Y-102218957D01*
X147055292Y-102500761D01*
X146773488Y-102922512D01*
X146674531Y-103420000D01*
X146773488Y-103917488D01*
X147055292Y-104339239D01*
X147477043Y-104621043D01*
X147823712Y-104690000D01*
X147477043Y-104758957D01*
X147055292Y-105040761D01*
X146773488Y-105462512D01*
X146674531Y-105960000D01*
X146773488Y-106457488D01*
X147055292Y-106879239D01*
X147477043Y-107161043D01*
X147628571Y-107191184D01*
X147150000Y-107191184D01*
X146983240Y-107222562D01*
X146830081Y-107321117D01*
X146727332Y-107471495D01*
X146691184Y-107650000D01*
X146691184Y-109350000D01*
X146722562Y-109516760D01*
X146821117Y-109669919D01*
X146971495Y-109772668D01*
X147150000Y-109808816D01*
X148850000Y-109808816D01*
X149016760Y-109777438D01*
X149169919Y-109678883D01*
X149272668Y-109528505D01*
X149308816Y-109350000D01*
X149308816Y-109200000D01*
X149410050Y-109200000D01*
X149705025Y-109494975D01*
X149932121Y-109646716D01*
X150200000Y-109700001D01*
X150200005Y-109700000D01*
X150292524Y-109700000D01*
X150292524Y-109900430D01*
X150323902Y-110067190D01*
X150422457Y-110220349D01*
X150572835Y-110323098D01*
X150751340Y-110359246D01*
X153250700Y-110359246D01*
X153417460Y-110327868D01*
X153570619Y-110229313D01*
X153673368Y-110078935D01*
X153709516Y-109900430D01*
X153709516Y-109262500D01*
X154299300Y-109262500D01*
X154299300Y-109989940D01*
X154367808Y-110155334D01*
X154494395Y-110281921D01*
X154659789Y-110350430D01*
X155736480Y-110350430D01*
X155848980Y-110237930D01*
X155848980Y-109150000D01*
X156148980Y-109150000D01*
X156148980Y-110237930D01*
X156261480Y-110350430D01*
X157338171Y-110350430D01*
X157503565Y-110281921D01*
X157630152Y-110155334D01*
X157698660Y-109989940D01*
X157698660Y-109262500D01*
X157800000Y-109262500D01*
X157800000Y-109464510D01*
X157868508Y-109629904D01*
X157995095Y-109756491D01*
X158160489Y-109825000D01*
X158587500Y-109825000D01*
X158700000Y-109712500D01*
X158700000Y-109150000D01*
X157912500Y-109150000D01*
X157800000Y-109262500D01*
X157698660Y-109262500D01*
X157586160Y-109150000D01*
X156148980Y-109150000D01*
X155848980Y-109150000D01*
X154411800Y-109150000D01*
X154299300Y-109262500D01*
X153709516Y-109262500D01*
X153709516Y-108099570D01*
X153678138Y-107932810D01*
X153657025Y-107900000D01*
X154344888Y-107900000D01*
X154299300Y-108010060D01*
X154299300Y-108737500D01*
X154411800Y-108850000D01*
X155848980Y-108850000D01*
X155848980Y-108830000D01*
X156148980Y-108830000D01*
X156148980Y-108850000D01*
X157586160Y-108850000D01*
X157698660Y-108737500D01*
X157698660Y-108535490D01*
X157800000Y-108535490D01*
X157800000Y-108737500D01*
X157912500Y-108850000D01*
X158700000Y-108850000D01*
X158700000Y-108287500D01*
X158587500Y-108175000D01*
X158160489Y-108175000D01*
X157995095Y-108243509D01*
X157868508Y-108370096D01*
X157800000Y-108535490D01*
X157698660Y-108535490D01*
X157698660Y-108010060D01*
X157630152Y-107844666D01*
X157503565Y-107718079D01*
X157338171Y-107649570D01*
X157190380Y-107649570D01*
X158094732Y-106745218D01*
X158171495Y-106797668D01*
X158350000Y-106833816D01*
X159550000Y-106833816D01*
X159716760Y-106802438D01*
X159869919Y-106703883D01*
X159899256Y-106660946D01*
X159921117Y-106694919D01*
X160071495Y-106797668D01*
X160200000Y-106823691D01*
X160200000Y-108166184D01*
X160150000Y-108166184D01*
X159983240Y-108197562D01*
X159830081Y-108296117D01*
X159800624Y-108339228D01*
X159704905Y-108243509D01*
X159539511Y-108175000D01*
X159112500Y-108175000D01*
X159000000Y-108287500D01*
X159000000Y-108850000D01*
X159020000Y-108850000D01*
X159020000Y-109150000D01*
X159000000Y-109150000D01*
X159000000Y-109712500D01*
X159112500Y-109825000D01*
X159539511Y-109825000D01*
X159704905Y-109756491D01*
X159799723Y-109661673D01*
X159821117Y-109694919D01*
X159971495Y-109797668D01*
X160150000Y-109833816D01*
X161350000Y-109833816D01*
X161516760Y-109802438D01*
X161669919Y-109703883D01*
X161706736Y-109650000D01*
X161909650Y-109650000D01*
X162150161Y-109749869D01*
X162448530Y-109750130D01*
X162541184Y-109711846D01*
X162541184Y-109800000D01*
X162572562Y-109966760D01*
X162671117Y-110119919D01*
X162821495Y-110222668D01*
X163000000Y-110258816D01*
X164000000Y-110258816D01*
X164166760Y-110227438D01*
X164319919Y-110128883D01*
X164422668Y-109978505D01*
X164458816Y-109800000D01*
X164458816Y-109262500D01*
X165550000Y-109262500D01*
X165550000Y-109889510D01*
X165618508Y-110054904D01*
X165745095Y-110181491D01*
X165910489Y-110250000D01*
X166237500Y-110250000D01*
X166350000Y-110137500D01*
X166350000Y-109150000D01*
X166650000Y-109150000D01*
X166650000Y-110137500D01*
X166762500Y-110250000D01*
X167089511Y-110250000D01*
X167254905Y-110181491D01*
X167381492Y-110054904D01*
X167450000Y-109889510D01*
X167450000Y-109262500D01*
X167337500Y-109150000D01*
X166650000Y-109150000D01*
X166350000Y-109150000D01*
X165662500Y-109150000D01*
X165550000Y-109262500D01*
X164458816Y-109262500D01*
X164458816Y-108200000D01*
X164441974Y-108110490D01*
X165550000Y-108110490D01*
X165550000Y-108737500D01*
X165662500Y-108850000D01*
X166350000Y-108850000D01*
X166350000Y-107862500D01*
X166650000Y-107862500D01*
X166650000Y-108850000D01*
X167337500Y-108850000D01*
X167450000Y-108737500D01*
X167450000Y-108110490D01*
X167381492Y-107945096D01*
X167254905Y-107818509D01*
X167089511Y-107750000D01*
X166762500Y-107750000D01*
X166650000Y-107862500D01*
X166350000Y-107862500D01*
X166237500Y-107750000D01*
X165910489Y-107750000D01*
X165745095Y-107818509D01*
X165618508Y-107945096D01*
X165550000Y-108110490D01*
X164441974Y-108110490D01*
X164427438Y-108033240D01*
X164328883Y-107880081D01*
X164178505Y-107777332D01*
X164000000Y-107741184D01*
X163000000Y-107741184D01*
X162833240Y-107772562D01*
X162680081Y-107871117D01*
X162577332Y-108021495D01*
X162541184Y-108200000D01*
X162541184Y-108288061D01*
X162449839Y-108250131D01*
X162151470Y-108249870D01*
X161909139Y-108350000D01*
X161707788Y-108350000D01*
X161678883Y-108305081D01*
X161528505Y-108202332D01*
X161500000Y-108196560D01*
X161500000Y-106824408D01*
X161616760Y-106802438D01*
X161769919Y-106703883D01*
X161872668Y-106553505D01*
X161908816Y-106375000D01*
X161908816Y-105625000D01*
X161877438Y-105458240D01*
X161778883Y-105305081D01*
X161628505Y-105202332D01*
X161484727Y-105173216D01*
X161450522Y-105001256D01*
X161450522Y-105001255D01*
X161309619Y-104790380D01*
X160259619Y-103740381D01*
X160048745Y-103599478D01*
X160007476Y-103591269D01*
X159800000Y-103550000D01*
X154590348Y-103550000D01*
X154349837Y-103450131D01*
X154051468Y-103449870D01*
X153775712Y-103563811D01*
X153564550Y-103774605D01*
X153450129Y-104050161D01*
X153449868Y-104348530D01*
X153563809Y-104624286D01*
X153774603Y-104835448D01*
X153850000Y-104866756D01*
X153850000Y-105437500D01*
X153962500Y-105550000D01*
X154650000Y-105550000D01*
X154650000Y-105530000D01*
X154950000Y-105530000D01*
X154950000Y-105550000D01*
X155637500Y-105550000D01*
X155750000Y-105437500D01*
X155750000Y-104850000D01*
X159530762Y-104850000D01*
X159958556Y-105277794D01*
X159930081Y-105296117D01*
X159900744Y-105339054D01*
X159878883Y-105305081D01*
X159728505Y-105202332D01*
X159550000Y-105166184D01*
X158350000Y-105166184D01*
X158183240Y-105197562D01*
X158030081Y-105296117D01*
X158027428Y-105300000D01*
X157850000Y-105300000D01*
X157582122Y-105353284D01*
X157456084Y-105437500D01*
X157355025Y-105505025D01*
X156360050Y-106500000D01*
X155750000Y-106500000D01*
X155750000Y-105962500D01*
X155637500Y-105850000D01*
X154950000Y-105850000D01*
X154950000Y-105870000D01*
X154650000Y-105870000D01*
X154650000Y-105850000D01*
X153962500Y-105850000D01*
X153850000Y-105962500D01*
X153850000Y-106500000D01*
X152758816Y-106500000D01*
X152758816Y-104900000D01*
X152727438Y-104733240D01*
X152628883Y-104580081D01*
X152500000Y-104492019D01*
X152500000Y-103289950D01*
X152889950Y-102900000D01*
X156330063Y-102900000D01*
X156450161Y-102949869D01*
X156748530Y-102950130D01*
X157024286Y-102836189D01*
X157235448Y-102625395D01*
X157349869Y-102349839D01*
X157350130Y-102051470D01*
X157236189Y-101775714D01*
X157025395Y-101564552D01*
X156749839Y-101450131D01*
X156451470Y-101449870D01*
X156330147Y-101500000D01*
X152600000Y-101500000D01*
X152332121Y-101553284D01*
X152105025Y-101705025D01*
X151305025Y-102505025D01*
X151153284Y-102732121D01*
X151153284Y-102732122D01*
X151100000Y-103000000D01*
X151100000Y-104493951D01*
X150980081Y-104571117D01*
X150877332Y-104721495D01*
X150841184Y-104900000D01*
X150841184Y-106500000D01*
X150872562Y-106666760D01*
X150971117Y-106819919D01*
X151100000Y-106907981D01*
X151100000Y-107640754D01*
X150751340Y-107640754D01*
X150584580Y-107672132D01*
X150431421Y-107770687D01*
X150328672Y-107921065D01*
X150292524Y-108099570D01*
X150292524Y-108102574D01*
X150194975Y-108005025D01*
X149967879Y-107853284D01*
X149700000Y-107800000D01*
X149308816Y-107800000D01*
X149308816Y-107650000D01*
X149277438Y-107483240D01*
X149178883Y-107330081D01*
X149028505Y-107227332D01*
X148850000Y-107191184D01*
X148371429Y-107191184D01*
X148522957Y-107161043D01*
X148944708Y-106879239D01*
X149226512Y-106457488D01*
X149325469Y-105960000D01*
X149226512Y-105462512D01*
X148944708Y-105040761D01*
X148522957Y-104758957D01*
X148176288Y-104690000D01*
X148522957Y-104621043D01*
X148944708Y-104339239D01*
X149226512Y-103917488D01*
X149325469Y-103420000D01*
X149226512Y-102922512D01*
X148944708Y-102500761D01*
X148522957Y-102218957D01*
X148176288Y-102150000D01*
X148522957Y-102081043D01*
X148944708Y-101799239D01*
X149226512Y-101377488D01*
X149325469Y-100880000D01*
X149226512Y-100382512D01*
X148944708Y-99960761D01*
X148522957Y-99678957D01*
X148150002Y-99604771D01*
X148150002Y-99518831D01*
X148350162Y-99591966D01*
X148802614Y-99362665D01*
X149132876Y-98977672D01*
X149251954Y-98690160D01*
X149177988Y-98490000D01*
X148150000Y-98490000D01*
X148150000Y-98510000D01*
X147850000Y-98510000D01*
X147850000Y-98490000D01*
X146822012Y-98490000D01*
X146748046Y-98690160D01*
X146867124Y-98977672D01*
X147197386Y-99362665D01*
X147649838Y-99591966D01*
X147849998Y-99518831D01*
X147849998Y-99604771D01*
X147477043Y-99678957D01*
X147055292Y-99960761D01*
X146773488Y-100382512D01*
X146674531Y-100880000D01*
X145525000Y-100880000D01*
X145525000Y-97989840D01*
X146748046Y-97989840D01*
X146822012Y-98190000D01*
X147850000Y-98190000D01*
X147850000Y-97161170D01*
X148150000Y-97161170D01*
X148150000Y-98190000D01*
X149177988Y-98190000D01*
X149251954Y-97989840D01*
X149132876Y-97702328D01*
X148802614Y-97317335D01*
X148350162Y-97088034D01*
X148150000Y-97161170D01*
X147850000Y-97161170D01*
X147649838Y-97088034D01*
X147197386Y-97317335D01*
X146867124Y-97702328D01*
X146748046Y-97989840D01*
X145525000Y-97989840D01*
X145525000Y-91600000D01*
X151400000Y-91600000D01*
X151400000Y-99300000D01*
X151445672Y-99529610D01*
X151575736Y-99724264D01*
X152249914Y-100398442D01*
X152249870Y-100448530D01*
X152363811Y-100724286D01*
X152574605Y-100935448D01*
X152850161Y-101049869D01*
X153148530Y-101050130D01*
X153424286Y-100936189D01*
X153460538Y-100900000D01*
X155339217Y-100900000D01*
X155374605Y-100935450D01*
X155650161Y-101049871D01*
X155948530Y-101050132D01*
X156224286Y-100936191D01*
X156260538Y-100900002D01*
X160539221Y-100900002D01*
X160574605Y-100935448D01*
X160850161Y-101049869D01*
X161148530Y-101050130D01*
X161424286Y-100936189D01*
X161635448Y-100725395D01*
X161749869Y-100449839D01*
X161750130Y-100151470D01*
X161636189Y-99875714D01*
X161425395Y-99664552D01*
X161149839Y-99550131D01*
X160851470Y-99549870D01*
X160575714Y-99663811D01*
X160539460Y-99700002D01*
X156260781Y-99700002D01*
X156225395Y-99664554D01*
X155949839Y-99550133D01*
X155651470Y-99549872D01*
X155375714Y-99663813D01*
X155339464Y-99700000D01*
X153460781Y-99700000D01*
X153425395Y-99664552D01*
X153149839Y-99550131D01*
X153098614Y-99550086D01*
X152600000Y-99051472D01*
X152600000Y-91848528D01*
X153266694Y-91181834D01*
X153430290Y-91249765D01*
X153967353Y-91250234D01*
X154463715Y-91045142D01*
X154843807Y-90665712D01*
X155049765Y-90169710D01*
X155049767Y-90167353D01*
X157349766Y-90167353D01*
X157554858Y-90663715D01*
X157934288Y-91043807D01*
X158430290Y-91249765D01*
X158967353Y-91250234D01*
X159463715Y-91045142D01*
X159843807Y-90665712D01*
X160049765Y-90169710D01*
X160050234Y-89632647D01*
X159845142Y-89136285D01*
X159465712Y-88756193D01*
X158969710Y-88550235D01*
X158432647Y-88549766D01*
X157936285Y-88754858D01*
X157556193Y-89134288D01*
X157350235Y-89630290D01*
X157349766Y-90167353D01*
X155049767Y-90167353D01*
X155050234Y-89632647D01*
X154845142Y-89136285D01*
X154465712Y-88756193D01*
X153969710Y-88550235D01*
X153432647Y-88549766D01*
X152936285Y-88754858D01*
X152556193Y-89134288D01*
X152350235Y-89630290D01*
X152349766Y-90167353D01*
X152418286Y-90333186D01*
X151575736Y-91175736D01*
X151445672Y-91370390D01*
X151400000Y-91600000D01*
X145525000Y-91600000D01*
X145525000Y-90167353D01*
X147349766Y-90167353D01*
X147554858Y-90663715D01*
X147934288Y-91043807D01*
X148430290Y-91249765D01*
X148967353Y-91250234D01*
X149463715Y-91045142D01*
X149843807Y-90665712D01*
X150049765Y-90169710D01*
X150050234Y-89632647D01*
X149981714Y-89466814D01*
X150948528Y-88500000D01*
X160651472Y-88500000D01*
X162000000Y-89848528D01*
X162000000Y-103839219D01*
X161964552Y-103874605D01*
X161850131Y-104150161D01*
X161849870Y-104448530D01*
X161963811Y-104724286D01*
X162174605Y-104935448D01*
X162450161Y-105049869D01*
X162748530Y-105050130D01*
X163024286Y-104936189D01*
X163235448Y-104725395D01*
X163349869Y-104449839D01*
X163350130Y-104151470D01*
X163236189Y-103875714D01*
X163200000Y-103839462D01*
X163200000Y-89600000D01*
X163154328Y-89370390D01*
X163024264Y-89175736D01*
X162998528Y-89150000D01*
X163691184Y-89150000D01*
X163691184Y-90850000D01*
X163722562Y-91016760D01*
X163821117Y-91169919D01*
X163971495Y-91272668D01*
X164150000Y-91308816D01*
X164526000Y-91308816D01*
X164502512Y-91313488D01*
X164080761Y-91595292D01*
X163798957Y-92017043D01*
X163700000Y-92514531D01*
X163700000Y-92565469D01*
X163798957Y-93062957D01*
X164080761Y-93484708D01*
X164502512Y-93766512D01*
X165000000Y-93865469D01*
X165497488Y-93766512D01*
X165919239Y-93484708D01*
X166201043Y-93062957D01*
X166300000Y-92565469D01*
X166300000Y-92514531D01*
X166201043Y-92017043D01*
X165919239Y-91595292D01*
X165497488Y-91313488D01*
X165474000Y-91308816D01*
X165850000Y-91308816D01*
X166016760Y-91277438D01*
X166169919Y-91178883D01*
X166272668Y-91028505D01*
X166308816Y-90850000D01*
X166308816Y-89150000D01*
X166277438Y-88983240D01*
X166178883Y-88830081D01*
X166028505Y-88727332D01*
X165850000Y-88691184D01*
X164150000Y-88691184D01*
X163983240Y-88722562D01*
X163830081Y-88821117D01*
X163727332Y-88971495D01*
X163691184Y-89150000D01*
X162998528Y-89150000D01*
X161324264Y-87475736D01*
X161129610Y-87345672D01*
X160900000Y-87300000D01*
X150700000Y-87300000D01*
X150470390Y-87345672D01*
X150275736Y-87475736D01*
X149133306Y-88618166D01*
X148969710Y-88550235D01*
X148432647Y-88549766D01*
X147936285Y-88754858D01*
X147556193Y-89134288D01*
X147350235Y-89630290D01*
X147349766Y-90167353D01*
X145525000Y-90167353D01*
X145525000Y-86525000D01*
X167475000Y-86525000D01*
X167475000Y-111475000D01*
X167475000Y-111475000D01*
G37*
X167475000Y-111475000D02*
X145525000Y-111475000D01*
X145525000Y-100880000D01*
X146674531Y-100880000D01*
X146773488Y-101377488D01*
X147055292Y-101799239D01*
X147477043Y-102081043D01*
X147823712Y-102150000D01*
X147477043Y-102218957D01*
X147055292Y-102500761D01*
X146773488Y-102922512D01*
X146674531Y-103420000D01*
X146773488Y-103917488D01*
X147055292Y-104339239D01*
X147477043Y-104621043D01*
X147823712Y-104690000D01*
X147477043Y-104758957D01*
X147055292Y-105040761D01*
X146773488Y-105462512D01*
X146674531Y-105960000D01*
X146773488Y-106457488D01*
X147055292Y-106879239D01*
X147477043Y-107161043D01*
X147628571Y-107191184D01*
X147150000Y-107191184D01*
X146983240Y-107222562D01*
X146830081Y-107321117D01*
X146727332Y-107471495D01*
X146691184Y-107650000D01*
X146691184Y-109350000D01*
X146722562Y-109516760D01*
X146821117Y-109669919D01*
X146971495Y-109772668D01*
X147150000Y-109808816D01*
X148850000Y-109808816D01*
X149016760Y-109777438D01*
X149169919Y-109678883D01*
X149272668Y-109528505D01*
X149308816Y-109350000D01*
X149308816Y-109200000D01*
X149410050Y-109200000D01*
X149705025Y-109494975D01*
X149932121Y-109646716D01*
X150200000Y-109700001D01*
X150200005Y-109700000D01*
X150292524Y-109700000D01*
X150292524Y-109900430D01*
X150323902Y-110067190D01*
X150422457Y-110220349D01*
X150572835Y-110323098D01*
X150751340Y-110359246D01*
X153250700Y-110359246D01*
X153417460Y-110327868D01*
X153570619Y-110229313D01*
X153673368Y-110078935D01*
X153709516Y-109900430D01*
X153709516Y-109262500D01*
X154299300Y-109262500D01*
X154299300Y-109989940D01*
X154367808Y-110155334D01*
X154494395Y-110281921D01*
X154659789Y-110350430D01*
X155736480Y-110350430D01*
X155848980Y-110237930D01*
X155848980Y-109150000D01*
X156148980Y-109150000D01*
X156148980Y-110237930D01*
X156261480Y-110350430D01*
X157338171Y-110350430D01*
X157503565Y-110281921D01*
X157630152Y-110155334D01*
X157698660Y-109989940D01*
X157698660Y-109262500D01*
X157800000Y-109262500D01*
X157800000Y-109464510D01*
X157868508Y-109629904D01*
X157995095Y-109756491D01*
X158160489Y-109825000D01*
X158587500Y-109825000D01*
X158700000Y-109712500D01*
X158700000Y-109150000D01*
X157912500Y-109150000D01*
X157800000Y-109262500D01*
X157698660Y-109262500D01*
X157586160Y-109150000D01*
X156148980Y-109150000D01*
X155848980Y-109150000D01*
X154411800Y-109150000D01*
X154299300Y-109262500D01*
X153709516Y-109262500D01*
X153709516Y-108099570D01*
X153678138Y-107932810D01*
X153657025Y-107900000D01*
X154344888Y-107900000D01*
X154299300Y-108010060D01*
X154299300Y-108737500D01*
X154411800Y-108850000D01*
X155848980Y-108850000D01*
X155848980Y-108830000D01*
X156148980Y-108830000D01*
X156148980Y-108850000D01*
X157586160Y-108850000D01*
X157698660Y-108737500D01*
X157698660Y-108535490D01*
X157800000Y-108535490D01*
X157800000Y-108737500D01*
X157912500Y-108850000D01*
X158700000Y-108850000D01*
X158700000Y-108287500D01*
X158587500Y-108175000D01*
X158160489Y-108175000D01*
X157995095Y-108243509D01*
X157868508Y-108370096D01*
X157800000Y-108535490D01*
X157698660Y-108535490D01*
X157698660Y-108010060D01*
X157630152Y-107844666D01*
X157503565Y-107718079D01*
X157338171Y-107649570D01*
X157190380Y-107649570D01*
X158094732Y-106745218D01*
X158171495Y-106797668D01*
X158350000Y-106833816D01*
X159550000Y-106833816D01*
X159716760Y-106802438D01*
X159869919Y-106703883D01*
X159899256Y-106660946D01*
X159921117Y-106694919D01*
X160071495Y-106797668D01*
X160200000Y-106823691D01*
X160200000Y-108166184D01*
X160150000Y-108166184D01*
X159983240Y-108197562D01*
X159830081Y-108296117D01*
X159800624Y-108339228D01*
X159704905Y-108243509D01*
X159539511Y-108175000D01*
X159112500Y-108175000D01*
X159000000Y-108287500D01*
X159000000Y-108850000D01*
X159020000Y-108850000D01*
X159020000Y-109150000D01*
X159000000Y-109150000D01*
X159000000Y-109712500D01*
X159112500Y-109825000D01*
X159539511Y-109825000D01*
X159704905Y-109756491D01*
X159799723Y-109661673D01*
X159821117Y-109694919D01*
X159971495Y-109797668D01*
X160150000Y-109833816D01*
X161350000Y-109833816D01*
X161516760Y-109802438D01*
X161669919Y-109703883D01*
X161706736Y-109650000D01*
X161909650Y-109650000D01*
X162150161Y-109749869D01*
X162448530Y-109750130D01*
X162541184Y-109711846D01*
X162541184Y-109800000D01*
X162572562Y-109966760D01*
X162671117Y-110119919D01*
X162821495Y-110222668D01*
X163000000Y-110258816D01*
X164000000Y-110258816D01*
X164166760Y-110227438D01*
X164319919Y-110128883D01*
X164422668Y-109978505D01*
X164458816Y-109800000D01*
X164458816Y-109262500D01*
X165550000Y-109262500D01*
X165550000Y-109889510D01*
X165618508Y-110054904D01*
X165745095Y-110181491D01*
X165910489Y-110250000D01*
X166237500Y-110250000D01*
X166350000Y-110137500D01*
X166350000Y-109150000D01*
X166650000Y-109150000D01*
X166650000Y-110137500D01*
X166762500Y-110250000D01*
X167089511Y-110250000D01*
X167254905Y-110181491D01*
X167381492Y-110054904D01*
X167450000Y-109889510D01*
X167450000Y-109262500D01*
X167337500Y-109150000D01*
X166650000Y-109150000D01*
X166350000Y-109150000D01*
X165662500Y-109150000D01*
X165550000Y-109262500D01*
X164458816Y-109262500D01*
X164458816Y-108200000D01*
X164441974Y-108110490D01*
X165550000Y-108110490D01*
X165550000Y-108737500D01*
X165662500Y-108850000D01*
X166350000Y-108850000D01*
X166350000Y-107862500D01*
X166650000Y-107862500D01*
X166650000Y-108850000D01*
X167337500Y-108850000D01*
X167450000Y-108737500D01*
X167450000Y-108110490D01*
X167381492Y-107945096D01*
X167254905Y-107818509D01*
X167089511Y-107750000D01*
X166762500Y-107750000D01*
X166650000Y-107862500D01*
X166350000Y-107862500D01*
X166237500Y-107750000D01*
X165910489Y-107750000D01*
X165745095Y-107818509D01*
X165618508Y-107945096D01*
X165550000Y-108110490D01*
X164441974Y-108110490D01*
X164427438Y-108033240D01*
X164328883Y-107880081D01*
X164178505Y-107777332D01*
X164000000Y-107741184D01*
X163000000Y-107741184D01*
X162833240Y-107772562D01*
X162680081Y-107871117D01*
X162577332Y-108021495D01*
X162541184Y-108200000D01*
X162541184Y-108288061D01*
X162449839Y-108250131D01*
X162151470Y-108249870D01*
X161909139Y-108350000D01*
X161707788Y-108350000D01*
X161678883Y-108305081D01*
X161528505Y-108202332D01*
X161500000Y-108196560D01*
X161500000Y-106824408D01*
X161616760Y-106802438D01*
X161769919Y-106703883D01*
X161872668Y-106553505D01*
X161908816Y-106375000D01*
X161908816Y-105625000D01*
X161877438Y-105458240D01*
X161778883Y-105305081D01*
X161628505Y-105202332D01*
X161484727Y-105173216D01*
X161450522Y-105001256D01*
X161450522Y-105001255D01*
X161309619Y-104790380D01*
X160259619Y-103740381D01*
X160048745Y-103599478D01*
X160007476Y-103591269D01*
X159800000Y-103550000D01*
X154590348Y-103550000D01*
X154349837Y-103450131D01*
X154051468Y-103449870D01*
X153775712Y-103563811D01*
X153564550Y-103774605D01*
X153450129Y-104050161D01*
X153449868Y-104348530D01*
X153563809Y-104624286D01*
X153774603Y-104835448D01*
X153850000Y-104866756D01*
X153850000Y-105437500D01*
X153962500Y-105550000D01*
X154650000Y-105550000D01*
X154650000Y-105530000D01*
X154950000Y-105530000D01*
X154950000Y-105550000D01*
X155637500Y-105550000D01*
X155750000Y-105437500D01*
X155750000Y-104850000D01*
X159530762Y-104850000D01*
X159958556Y-105277794D01*
X159930081Y-105296117D01*
X159900744Y-105339054D01*
X159878883Y-105305081D01*
X159728505Y-105202332D01*
X159550000Y-105166184D01*
X158350000Y-105166184D01*
X158183240Y-105197562D01*
X158030081Y-105296117D01*
X158027428Y-105300000D01*
X157850000Y-105300000D01*
X157582122Y-105353284D01*
X157456084Y-105437500D01*
X157355025Y-105505025D01*
X156360050Y-106500000D01*
X155750000Y-106500000D01*
X155750000Y-105962500D01*
X155637500Y-105850000D01*
X154950000Y-105850000D01*
X154950000Y-105870000D01*
X154650000Y-105870000D01*
X154650000Y-105850000D01*
X153962500Y-105850000D01*
X153850000Y-105962500D01*
X153850000Y-106500000D01*
X152758816Y-106500000D01*
X152758816Y-104900000D01*
X152727438Y-104733240D01*
X152628883Y-104580081D01*
X152500000Y-104492019D01*
X152500000Y-103289950D01*
X152889950Y-102900000D01*
X156330063Y-102900000D01*
X156450161Y-102949869D01*
X156748530Y-102950130D01*
X157024286Y-102836189D01*
X157235448Y-102625395D01*
X157349869Y-102349839D01*
X157350130Y-102051470D01*
X157236189Y-101775714D01*
X157025395Y-101564552D01*
X156749839Y-101450131D01*
X156451470Y-101449870D01*
X156330147Y-101500000D01*
X152600000Y-101500000D01*
X152332121Y-101553284D01*
X152105025Y-101705025D01*
X151305025Y-102505025D01*
X151153284Y-102732121D01*
X151153284Y-102732122D01*
X151100000Y-103000000D01*
X151100000Y-104493951D01*
X150980081Y-104571117D01*
X150877332Y-104721495D01*
X150841184Y-104900000D01*
X150841184Y-106500000D01*
X150872562Y-106666760D01*
X150971117Y-106819919D01*
X151100000Y-106907981D01*
X151100000Y-107640754D01*
X150751340Y-107640754D01*
X150584580Y-107672132D01*
X150431421Y-107770687D01*
X150328672Y-107921065D01*
X150292524Y-108099570D01*
X150292524Y-108102574D01*
X150194975Y-108005025D01*
X149967879Y-107853284D01*
X149700000Y-107800000D01*
X149308816Y-107800000D01*
X149308816Y-107650000D01*
X149277438Y-107483240D01*
X149178883Y-107330081D01*
X149028505Y-107227332D01*
X148850000Y-107191184D01*
X148371429Y-107191184D01*
X148522957Y-107161043D01*
X148944708Y-106879239D01*
X149226512Y-106457488D01*
X149325469Y-105960000D01*
X149226512Y-105462512D01*
X148944708Y-105040761D01*
X148522957Y-104758957D01*
X148176288Y-104690000D01*
X148522957Y-104621043D01*
X148944708Y-104339239D01*
X149226512Y-103917488D01*
X149325469Y-103420000D01*
X149226512Y-102922512D01*
X148944708Y-102500761D01*
X148522957Y-102218957D01*
X148176288Y-102150000D01*
X148522957Y-102081043D01*
X148944708Y-101799239D01*
X149226512Y-101377488D01*
X149325469Y-100880000D01*
X149226512Y-100382512D01*
X148944708Y-99960761D01*
X148522957Y-99678957D01*
X148150002Y-99604771D01*
X148150002Y-99518831D01*
X148350162Y-99591966D01*
X148802614Y-99362665D01*
X149132876Y-98977672D01*
X149251954Y-98690160D01*
X149177988Y-98490000D01*
X148150000Y-98490000D01*
X148150000Y-98510000D01*
X147850000Y-98510000D01*
X147850000Y-98490000D01*
X146822012Y-98490000D01*
X146748046Y-98690160D01*
X146867124Y-98977672D01*
X147197386Y-99362665D01*
X147649838Y-99591966D01*
X147849998Y-99518831D01*
X147849998Y-99604771D01*
X147477043Y-99678957D01*
X147055292Y-99960761D01*
X146773488Y-100382512D01*
X146674531Y-100880000D01*
X145525000Y-100880000D01*
X145525000Y-97989840D01*
X146748046Y-97989840D01*
X146822012Y-98190000D01*
X147850000Y-98190000D01*
X147850000Y-97161170D01*
X148150000Y-97161170D01*
X148150000Y-98190000D01*
X149177988Y-98190000D01*
X149251954Y-97989840D01*
X149132876Y-97702328D01*
X148802614Y-97317335D01*
X148350162Y-97088034D01*
X148150000Y-97161170D01*
X147850000Y-97161170D01*
X147649838Y-97088034D01*
X147197386Y-97317335D01*
X146867124Y-97702328D01*
X146748046Y-97989840D01*
X145525000Y-97989840D01*
X145525000Y-91600000D01*
X151400000Y-91600000D01*
X151400000Y-99300000D01*
X151445672Y-99529610D01*
X151575736Y-99724264D01*
X152249914Y-100398442D01*
X152249870Y-100448530D01*
X152363811Y-100724286D01*
X152574605Y-100935448D01*
X152850161Y-101049869D01*
X153148530Y-101050130D01*
X153424286Y-100936189D01*
X153460538Y-100900000D01*
X155339217Y-100900000D01*
X155374605Y-100935450D01*
X155650161Y-101049871D01*
X155948530Y-101050132D01*
X156224286Y-100936191D01*
X156260538Y-100900002D01*
X160539221Y-100900002D01*
X160574605Y-100935448D01*
X160850161Y-101049869D01*
X161148530Y-101050130D01*
X161424286Y-100936189D01*
X161635448Y-100725395D01*
X161749869Y-100449839D01*
X161750130Y-100151470D01*
X161636189Y-99875714D01*
X161425395Y-99664552D01*
X161149839Y-99550131D01*
X160851470Y-99549870D01*
X160575714Y-99663811D01*
X160539460Y-99700002D01*
X156260781Y-99700002D01*
X156225395Y-99664554D01*
X155949839Y-99550133D01*
X155651470Y-99549872D01*
X155375714Y-99663813D01*
X155339464Y-99700000D01*
X153460781Y-99700000D01*
X153425395Y-99664552D01*
X153149839Y-99550131D01*
X153098614Y-99550086D01*
X152600000Y-99051472D01*
X152600000Y-91848528D01*
X153266694Y-91181834D01*
X153430290Y-91249765D01*
X153967353Y-91250234D01*
X154463715Y-91045142D01*
X154843807Y-90665712D01*
X155049765Y-90169710D01*
X155049767Y-90167353D01*
X157349766Y-90167353D01*
X157554858Y-90663715D01*
X157934288Y-91043807D01*
X158430290Y-91249765D01*
X158967353Y-91250234D01*
X159463715Y-91045142D01*
X159843807Y-90665712D01*
X160049765Y-90169710D01*
X160050234Y-89632647D01*
X159845142Y-89136285D01*
X159465712Y-88756193D01*
X158969710Y-88550235D01*
X158432647Y-88549766D01*
X157936285Y-88754858D01*
X157556193Y-89134288D01*
X157350235Y-89630290D01*
X157349766Y-90167353D01*
X155049767Y-90167353D01*
X155050234Y-89632647D01*
X154845142Y-89136285D01*
X154465712Y-88756193D01*
X153969710Y-88550235D01*
X153432647Y-88549766D01*
X152936285Y-88754858D01*
X152556193Y-89134288D01*
X152350235Y-89630290D01*
X152349766Y-90167353D01*
X152418286Y-90333186D01*
X151575736Y-91175736D01*
X151445672Y-91370390D01*
X151400000Y-91600000D01*
X145525000Y-91600000D01*
X145525000Y-90167353D01*
X147349766Y-90167353D01*
X147554858Y-90663715D01*
X147934288Y-91043807D01*
X148430290Y-91249765D01*
X148967353Y-91250234D01*
X149463715Y-91045142D01*
X149843807Y-90665712D01*
X150049765Y-90169710D01*
X150050234Y-89632647D01*
X149981714Y-89466814D01*
X150948528Y-88500000D01*
X160651472Y-88500000D01*
X162000000Y-89848528D01*
X162000000Y-103839219D01*
X161964552Y-103874605D01*
X161850131Y-104150161D01*
X161849870Y-104448530D01*
X161963811Y-104724286D01*
X162174605Y-104935448D01*
X162450161Y-105049869D01*
X162748530Y-105050130D01*
X163024286Y-104936189D01*
X163235448Y-104725395D01*
X163349869Y-104449839D01*
X163350130Y-104151470D01*
X163236189Y-103875714D01*
X163200000Y-103839462D01*
X163200000Y-89600000D01*
X163154328Y-89370390D01*
X163024264Y-89175736D01*
X162998528Y-89150000D01*
X163691184Y-89150000D01*
X163691184Y-90850000D01*
X163722562Y-91016760D01*
X163821117Y-91169919D01*
X163971495Y-91272668D01*
X164150000Y-91308816D01*
X164526000Y-91308816D01*
X164502512Y-91313488D01*
X164080761Y-91595292D01*
X163798957Y-92017043D01*
X163700000Y-92514531D01*
X163700000Y-92565469D01*
X163798957Y-93062957D01*
X164080761Y-93484708D01*
X164502512Y-93766512D01*
X165000000Y-93865469D01*
X165497488Y-93766512D01*
X165919239Y-93484708D01*
X166201043Y-93062957D01*
X166300000Y-92565469D01*
X166300000Y-92514531D01*
X166201043Y-92017043D01*
X165919239Y-91595292D01*
X165497488Y-91313488D01*
X165474000Y-91308816D01*
X165850000Y-91308816D01*
X166016760Y-91277438D01*
X166169919Y-91178883D01*
X166272668Y-91028505D01*
X166308816Y-90850000D01*
X166308816Y-89150000D01*
X166277438Y-88983240D01*
X166178883Y-88830081D01*
X166028505Y-88727332D01*
X165850000Y-88691184D01*
X164150000Y-88691184D01*
X163983240Y-88722562D01*
X163830081Y-88821117D01*
X163727332Y-88971495D01*
X163691184Y-89150000D01*
X162998528Y-89150000D01*
X161324264Y-87475736D01*
X161129610Y-87345672D01*
X160900000Y-87300000D01*
X150700000Y-87300000D01*
X150470390Y-87345672D01*
X150275736Y-87475736D01*
X149133306Y-88618166D01*
X148969710Y-88550235D01*
X148432647Y-88549766D01*
X147936285Y-88754858D01*
X147556193Y-89134288D01*
X147350235Y-89630290D01*
X147349766Y-90167353D01*
X145525000Y-90167353D01*
X145525000Y-86525000D01*
X167475000Y-86525000D01*
X167475000Y-111475000D01*
M02*
