G04 #@! TF.FileFunction,Copper,L1,Top,Signal*
%FSLAX46Y46*%
G04 Gerber Fmt 4.6, Leading zero omitted, Abs format (unit mm)*
G04 Created by KiCad (PCBNEW 4.0.4-1.fc24-product) date Tue Jun 12 13:44:11 2018*
%MOMM*%
%LPD*%
G01*
G04 APERTURE LIST*
%ADD10C,0.100000*%
%ADD11R,1.143000X0.508000*%
%ADD12R,0.750000X1.200000*%
%ADD13C,1.800000*%
%ADD14R,1.250000X1.000000*%
%ADD15R,1.700000X1.700000*%
%ADD16O,1.700000X1.700000*%
%ADD17C,0.600000*%
%ADD18C,0.300000*%
%ADD19C,0.500000*%
%ADD20C,0.250000*%
G04 APERTURE END LIST*
D10*
D11*
X157175000Y-100595000D03*
X157175000Y-101865000D03*
X157175000Y-103135000D03*
X157175000Y-104405000D03*
X150825000Y-104405000D03*
X150825000Y-103135000D03*
X150825000Y-101865000D03*
X150825000Y-100595000D03*
D12*
X159000000Y-107050000D03*
X159000000Y-108950000D03*
X157000000Y-108950000D03*
X157000000Y-107050000D03*
D13*
X158700000Y-89900000D03*
X153700000Y-89900000D03*
X148700000Y-89900000D03*
D12*
X151000000Y-97950000D03*
X151000000Y-96050000D03*
D14*
X153000000Y-96000000D03*
X153000000Y-98000000D03*
D12*
X155000000Y-96050000D03*
X155000000Y-97950000D03*
X157000000Y-96050000D03*
X157000000Y-97950000D03*
X164000000Y-101050000D03*
X164000000Y-102950000D03*
D14*
X160000000Y-96000000D03*
X160000000Y-98000000D03*
D12*
X160000000Y-101050000D03*
X160000000Y-102950000D03*
X162000000Y-102950000D03*
X162000000Y-101050000D03*
D14*
X166000000Y-103000000D03*
X166000000Y-101000000D03*
D12*
X164000000Y-108950000D03*
X164000000Y-107050000D03*
X166000000Y-97950000D03*
X166000000Y-96050000D03*
D15*
X165000000Y-89000000D03*
D16*
X165000000Y-91540000D03*
D15*
X148000000Y-108500000D03*
D16*
X148000000Y-105960000D03*
X148000000Y-103420000D03*
X148000000Y-100880000D03*
X148000000Y-98340000D03*
D14*
X151000000Y-109000000D03*
X151000000Y-107000000D03*
X162000000Y-107000000D03*
X162000000Y-109000000D03*
X155000000Y-109000000D03*
X155000000Y-107000000D03*
D12*
X153000000Y-107050000D03*
X153000000Y-108950000D03*
X166000000Y-108950000D03*
X166000000Y-107050000D03*
D17*
X166000000Y-99999988D03*
X152959990Y-105159990D03*
X160000000Y-99000000D03*
X155900000Y-102000000D03*
X153900000Y-100000000D03*
X158400000Y-103100000D03*
X163800000Y-104400000D03*
X162000000Y-104400000D03*
X155900000Y-105500000D03*
X155900000Y-103200000D03*
X151900000Y-103200000D03*
X153000000Y-101000000D03*
D18*
X148000000Y-103420000D02*
X151000000Y-106420000D01*
X151000000Y-106420000D02*
X151000000Y-107000000D01*
X157000000Y-97950000D02*
X158900000Y-96050000D01*
X158900000Y-96050000D02*
X158900000Y-96000000D01*
X158900000Y-96000000D02*
X160000000Y-96000000D01*
X157000000Y-97950000D02*
X157050000Y-97950000D01*
X164000000Y-107050000D02*
X162050000Y-107050000D01*
X162050000Y-107050000D02*
X162000000Y-107000000D01*
X163950000Y-107000000D02*
X164000000Y-107050000D01*
X166000000Y-101000000D02*
X166000000Y-99999988D01*
X152238500Y-101800000D02*
X153700000Y-103261500D01*
X153700000Y-103261500D02*
X153700000Y-105500000D01*
X153700000Y-105500000D02*
X153000000Y-106200000D01*
X153000000Y-106200000D02*
X153000000Y-107050000D01*
X154650000Y-99200000D02*
X152300000Y-99200000D01*
X152300000Y-99200000D02*
X151400000Y-99200000D01*
X152238500Y-101800000D02*
X152238500Y-99261500D01*
X152238500Y-99261500D02*
X152300000Y-99200000D01*
X150825000Y-101865000D02*
X150835000Y-101865000D01*
X150835000Y-101865000D02*
X150900000Y-101800000D01*
X150900000Y-101800000D02*
X152238500Y-101800000D01*
X151000000Y-98800000D02*
X151000000Y-97950000D01*
X151400000Y-99200000D02*
X151000000Y-98800000D01*
X154650000Y-99200000D02*
X155000000Y-98850000D01*
X155000000Y-98850000D02*
X155000000Y-97950000D01*
X155000000Y-97950000D02*
X155000000Y-98200000D01*
X152659991Y-104859991D02*
X152959990Y-105159990D01*
X152205000Y-104405000D02*
X152659991Y-104859991D01*
X150825000Y-104405000D02*
X152205000Y-104405000D01*
X160000000Y-98000000D02*
X160000000Y-99000000D01*
D19*
X155900000Y-101575736D02*
X155900000Y-102000000D01*
X155900000Y-100798500D02*
X155900000Y-101575736D01*
X157175000Y-100595000D02*
X156103500Y-100595000D01*
X156103500Y-100595000D02*
X155900000Y-100798500D01*
D18*
X160000000Y-101050000D02*
X159325000Y-101050000D01*
X154524264Y-99800000D02*
X154324264Y-100000000D01*
X159325000Y-101050000D02*
X158075000Y-99800000D01*
X158075000Y-99800000D02*
X154524264Y-99800000D01*
X154324264Y-100000000D02*
X153900000Y-100000000D01*
X158365000Y-103135000D02*
X158400000Y-103100000D01*
X157175000Y-103135000D02*
X158365000Y-103135000D01*
X163800000Y-104400000D02*
X164224264Y-104400000D01*
X164224264Y-104400000D02*
X165184999Y-105360735D01*
X165184999Y-105360735D02*
X165184999Y-107909999D01*
X165184999Y-107909999D02*
X166000000Y-108725000D01*
X166000000Y-108725000D02*
X166000000Y-108950000D01*
X163800000Y-104400000D02*
X163800000Y-103150000D01*
X163800000Y-103150000D02*
X164000000Y-102950000D01*
X162000000Y-102950000D02*
X162000000Y-104400000D01*
X150825000Y-103135000D02*
X151835000Y-103135000D01*
X151835000Y-103135000D02*
X151900000Y-103200000D01*
D19*
X157175000Y-104405000D02*
X156857500Y-104405000D01*
D18*
X155000000Y-109000000D02*
X156950000Y-109000000D01*
X156950000Y-109000000D02*
X157000000Y-108950000D01*
X151000000Y-109000000D02*
X152950000Y-109000000D01*
X152950000Y-109000000D02*
X153000000Y-108950000D01*
X155000000Y-107000000D02*
X155000000Y-106200000D01*
X155000000Y-106200000D02*
X155030013Y-106169987D01*
X155030013Y-106169987D02*
X155030013Y-103030013D01*
X155030013Y-103030013D02*
X153299999Y-101299999D01*
X153299999Y-101299999D02*
X153000000Y-101000000D01*
X148000000Y-105960000D02*
X149600000Y-107560000D01*
X149600000Y-107560000D02*
X149600000Y-109517002D01*
X149600000Y-109517002D02*
X150482998Y-110400000D01*
X150482998Y-110400000D02*
X161600000Y-110400000D01*
X161600000Y-110400000D02*
X162000000Y-110000000D01*
X162000000Y-110000000D02*
X162000000Y-109000000D01*
X157000000Y-93200000D02*
X157000000Y-96050000D01*
X157000000Y-93200000D02*
X158200000Y-92000000D01*
X158200000Y-92000000D02*
X164540000Y-92000000D01*
X164540000Y-92000000D02*
X165000000Y-91540000D01*
X157000000Y-96050000D02*
X155000000Y-96050000D01*
X153000000Y-98000000D02*
X153050000Y-98000000D01*
X153050000Y-98000000D02*
X155000000Y-96050000D01*
X149900000Y-96400000D02*
X149900000Y-99116000D01*
X153000000Y-94200000D02*
X153000000Y-96000000D01*
X166900000Y-93900000D02*
X166900000Y-89750000D01*
X166000000Y-96050000D02*
X166000000Y-94800000D01*
X166000000Y-94800000D02*
X166900000Y-93900000D01*
X150825000Y-100595000D02*
X150825000Y-100041000D01*
X150825000Y-100041000D02*
X149900000Y-99116000D01*
X149900000Y-96400000D02*
X150250000Y-96050000D01*
X150250000Y-96050000D02*
X151000000Y-96050000D01*
X166900000Y-89750000D02*
X166150000Y-89000000D01*
X166150000Y-89000000D02*
X165000000Y-89000000D01*
X153000000Y-94200000D02*
X155959999Y-91240001D01*
X155959999Y-91240001D02*
X161609999Y-91240001D01*
X161609999Y-91240001D02*
X163850000Y-89000000D01*
X163850000Y-89000000D02*
X165000000Y-89000000D01*
X151050000Y-96000000D02*
X151000000Y-96050000D01*
X153000000Y-96000000D02*
X151050000Y-96000000D01*
X164900000Y-89000000D02*
X165000000Y-89100000D01*
X164000000Y-108950000D02*
X164000000Y-108800000D01*
X164000000Y-108800000D02*
X163200000Y-108000000D01*
X163200000Y-108000000D02*
X160700000Y-108000000D01*
X164000000Y-101050000D02*
X164000000Y-101275000D01*
X160700000Y-108000000D02*
X159750000Y-108950000D01*
X164000000Y-101275000D02*
X162959998Y-102315002D01*
X162959998Y-102315002D02*
X162959998Y-105140002D01*
X162900000Y-105200000D02*
X161200000Y-105200000D01*
X162959998Y-105140002D02*
X162900000Y-105200000D01*
X160700000Y-105700000D02*
X160700000Y-108000000D01*
X161200000Y-105200000D02*
X160700000Y-105700000D01*
X159750000Y-108950000D02*
X159000000Y-108950000D01*
X164934999Y-98465001D02*
X164934999Y-102059999D01*
X166000000Y-103000000D02*
X165875000Y-103000000D01*
X165875000Y-103000000D02*
X164934999Y-102059999D01*
X164934999Y-98465001D02*
X165450000Y-97950000D01*
X165450000Y-97950000D02*
X166000000Y-97950000D01*
X166000000Y-103000000D02*
X165900000Y-103000000D01*
X166000000Y-107050000D02*
X166000000Y-106150000D01*
X166000000Y-106150000D02*
X166000000Y-103000000D01*
X160000000Y-102950000D02*
X160000000Y-106700000D01*
X160000000Y-106700000D02*
X159650000Y-107050000D01*
X159650000Y-107050000D02*
X159000000Y-107050000D01*
X159000000Y-107050000D02*
X157000000Y-107050000D01*
X160000000Y-102950000D02*
X160000000Y-102725000D01*
X160000000Y-102725000D02*
X159140000Y-101865000D01*
X159140000Y-101865000D02*
X158046500Y-101865000D01*
X158046500Y-101865000D02*
X157175000Y-101865000D01*
X160000000Y-102950000D02*
X160100000Y-102950000D01*
X160100000Y-102950000D02*
X162000000Y-101050000D01*
D20*
G36*
X167550000Y-111550000D02*
X145450000Y-111550000D01*
X145450000Y-103411448D01*
X146769103Y-103411448D01*
X146790771Y-103649542D01*
X146858273Y-103878893D01*
X146969037Y-104090765D01*
X147118844Y-104277088D01*
X147301988Y-104430764D01*
X147511494Y-104545941D01*
X147739381Y-104618231D01*
X147976969Y-104644881D01*
X147994073Y-104645000D01*
X148005927Y-104645000D01*
X148243864Y-104621670D01*
X148409269Y-104571731D01*
X150093128Y-106255590D01*
X150056678Y-106298357D01*
X150013104Y-106395022D01*
X149998186Y-106500000D01*
X149998186Y-107221307D01*
X149976378Y-107193988D01*
X149972591Y-107190149D01*
X149972525Y-107190067D01*
X149972449Y-107190005D01*
X149971231Y-107188769D01*
X149154583Y-106372121D01*
X149205907Y-106206320D01*
X149230897Y-105968552D01*
X149209229Y-105730458D01*
X149141727Y-105501107D01*
X149030963Y-105289235D01*
X148881156Y-105102912D01*
X148698012Y-104949236D01*
X148488506Y-104834059D01*
X148260619Y-104761769D01*
X148023031Y-104735119D01*
X148005927Y-104735000D01*
X147994073Y-104735000D01*
X147756136Y-104758330D01*
X147527262Y-104827431D01*
X147316168Y-104939671D01*
X147130896Y-105090776D01*
X146978502Y-105274989D01*
X146864791Y-105485293D01*
X146794093Y-105713680D01*
X146769103Y-105951448D01*
X146790771Y-106189542D01*
X146858273Y-106418893D01*
X146969037Y-106630765D01*
X147118844Y-106817088D01*
X147301988Y-106970764D01*
X147511494Y-107085941D01*
X147739381Y-107158231D01*
X147976969Y-107184881D01*
X147994073Y-107185000D01*
X148005927Y-107185000D01*
X148243864Y-107161670D01*
X148409269Y-107111731D01*
X148570724Y-107273186D01*
X147150000Y-107273186D01*
X147090283Y-107277948D01*
X146988996Y-107309315D01*
X146900457Y-107367657D01*
X146831678Y-107448357D01*
X146788104Y-107545022D01*
X146773186Y-107650000D01*
X146773186Y-109350000D01*
X146777948Y-109409717D01*
X146809315Y-109511004D01*
X146867657Y-109599543D01*
X146948357Y-109668322D01*
X147045022Y-109711896D01*
X147150000Y-109726814D01*
X148850000Y-109726814D01*
X148909717Y-109722052D01*
X149011004Y-109690685D01*
X149090779Y-109638118D01*
X149099001Y-109665352D01*
X149112545Y-109711970D01*
X149113814Y-109714419D01*
X149114613Y-109717064D01*
X149137407Y-109759934D01*
X149159698Y-109802937D01*
X149161418Y-109805091D01*
X149162716Y-109807533D01*
X149193398Y-109845152D01*
X149223622Y-109883014D01*
X149227409Y-109886853D01*
X149227475Y-109886935D01*
X149227551Y-109886997D01*
X149228769Y-109888233D01*
X150111767Y-110771231D01*
X150149227Y-110802001D01*
X150186390Y-110833185D01*
X150188812Y-110834516D01*
X150190943Y-110836267D01*
X150233676Y-110859180D01*
X150276178Y-110882546D01*
X150278808Y-110883380D01*
X150281243Y-110884686D01*
X150327685Y-110898885D01*
X150373844Y-110913527D01*
X150376582Y-110913834D01*
X150379228Y-110914643D01*
X150427529Y-110919549D01*
X150475668Y-110924949D01*
X150481062Y-110924987D01*
X150481165Y-110924997D01*
X150481261Y-110924988D01*
X150482998Y-110925000D01*
X161600000Y-110925000D01*
X161648205Y-110920273D01*
X161696575Y-110916042D01*
X161699233Y-110915270D01*
X161701973Y-110915001D01*
X161748350Y-110900999D01*
X161794968Y-110887455D01*
X161797417Y-110886186D01*
X161800062Y-110885387D01*
X161842932Y-110862593D01*
X161885935Y-110840302D01*
X161888089Y-110838582D01*
X161890531Y-110837284D01*
X161928150Y-110806602D01*
X161966012Y-110776378D01*
X161969851Y-110772591D01*
X161969933Y-110772525D01*
X161969995Y-110772449D01*
X161971231Y-110771231D01*
X162371231Y-110371231D01*
X162401979Y-110333797D01*
X162433185Y-110296608D01*
X162434518Y-110294183D01*
X162436266Y-110292055D01*
X162459150Y-110249377D01*
X162482546Y-110206820D01*
X162483381Y-110204188D01*
X162484685Y-110201756D01*
X162498875Y-110155344D01*
X162513527Y-110109154D01*
X162513834Y-110106415D01*
X162514643Y-110103770D01*
X162519549Y-110055469D01*
X162524949Y-110007330D01*
X162524987Y-110001936D01*
X162524997Y-110001833D01*
X162524988Y-110001737D01*
X162525000Y-110000000D01*
X162525000Y-109876814D01*
X162625000Y-109876814D01*
X162684717Y-109872052D01*
X162786004Y-109840685D01*
X162874543Y-109782343D01*
X162943322Y-109701643D01*
X162986896Y-109604978D01*
X163001814Y-109500000D01*
X163001814Y-108544276D01*
X163248186Y-108790648D01*
X163248186Y-109550000D01*
X163252948Y-109609717D01*
X163284315Y-109711004D01*
X163342657Y-109799543D01*
X163423357Y-109868322D01*
X163520022Y-109911896D01*
X163625000Y-109926814D01*
X164375000Y-109926814D01*
X164434717Y-109922052D01*
X164536004Y-109890685D01*
X164624543Y-109832343D01*
X164693322Y-109751643D01*
X164736896Y-109654978D01*
X164751814Y-109550000D01*
X164751814Y-108350000D01*
X164747052Y-108290283D01*
X164715685Y-108188996D01*
X164657343Y-108100457D01*
X164576643Y-108031678D01*
X164506188Y-107999919D01*
X164536004Y-107990685D01*
X164624543Y-107932343D01*
X164659999Y-107890742D01*
X164659999Y-107909999D01*
X164664726Y-107958204D01*
X164668957Y-108006574D01*
X164669729Y-108009232D01*
X164669998Y-108011972D01*
X164684000Y-108058349D01*
X164697544Y-108104967D01*
X164698813Y-108107416D01*
X164699612Y-108110061D01*
X164722406Y-108152931D01*
X164744697Y-108195934D01*
X164746417Y-108198088D01*
X164747715Y-108200530D01*
X164778397Y-108238149D01*
X164808621Y-108276011D01*
X164812408Y-108279850D01*
X164812474Y-108279932D01*
X164812550Y-108279994D01*
X164813768Y-108281230D01*
X165248186Y-108715648D01*
X165248186Y-109550000D01*
X165252948Y-109609717D01*
X165284315Y-109711004D01*
X165342657Y-109799543D01*
X165423357Y-109868322D01*
X165520022Y-109911896D01*
X165625000Y-109926814D01*
X166375000Y-109926814D01*
X166434717Y-109922052D01*
X166536004Y-109890685D01*
X166624543Y-109832343D01*
X166693322Y-109751643D01*
X166736896Y-109654978D01*
X166751814Y-109550000D01*
X166751814Y-108350000D01*
X166747052Y-108290283D01*
X166715685Y-108188996D01*
X166657343Y-108100457D01*
X166576643Y-108031678D01*
X166506188Y-107999919D01*
X166536004Y-107990685D01*
X166624543Y-107932343D01*
X166693322Y-107851643D01*
X166736896Y-107754978D01*
X166751814Y-107650000D01*
X166751814Y-106450000D01*
X166747052Y-106390283D01*
X166715685Y-106288996D01*
X166657343Y-106200457D01*
X166576643Y-106131678D01*
X166525000Y-106108399D01*
X166525000Y-103876814D01*
X166625000Y-103876814D01*
X166684717Y-103872052D01*
X166786004Y-103840685D01*
X166874543Y-103782343D01*
X166943322Y-103701643D01*
X166986896Y-103604978D01*
X167001814Y-103500000D01*
X167001814Y-102500000D01*
X166997052Y-102440283D01*
X166965685Y-102338996D01*
X166907343Y-102250457D01*
X166826643Y-102181678D01*
X166729978Y-102138104D01*
X166625000Y-102123186D01*
X165740648Y-102123186D01*
X165494276Y-101876814D01*
X166625000Y-101876814D01*
X166684717Y-101872052D01*
X166786004Y-101840685D01*
X166874543Y-101782343D01*
X166943322Y-101701643D01*
X166986896Y-101604978D01*
X167001814Y-101500000D01*
X167001814Y-100500000D01*
X166997052Y-100440283D01*
X166965685Y-100338996D01*
X166907343Y-100250457D01*
X166826643Y-100181678D01*
X166729978Y-100138104D01*
X166663014Y-100128588D01*
X166672918Y-100084997D01*
X166675029Y-99933801D01*
X166649317Y-99803948D01*
X166598873Y-99681561D01*
X166525618Y-99571304D01*
X166432343Y-99477375D01*
X166322600Y-99403352D01*
X166200569Y-99352055D01*
X166070898Y-99325438D01*
X165938527Y-99324513D01*
X165808497Y-99349318D01*
X165685762Y-99398906D01*
X165574996Y-99471390D01*
X165480418Y-99564007D01*
X165459999Y-99593828D01*
X165459999Y-98884839D01*
X165520022Y-98911896D01*
X165625000Y-98926814D01*
X166375000Y-98926814D01*
X166434717Y-98922052D01*
X166536004Y-98890685D01*
X166624543Y-98832343D01*
X166693322Y-98751643D01*
X166736896Y-98654978D01*
X166751814Y-98550000D01*
X166751814Y-97350000D01*
X166747052Y-97290283D01*
X166715685Y-97188996D01*
X166657343Y-97100457D01*
X166576643Y-97031678D01*
X166506188Y-96999919D01*
X166536004Y-96990685D01*
X166624543Y-96932343D01*
X166693322Y-96851643D01*
X166736896Y-96754978D01*
X166751814Y-96650000D01*
X166751814Y-95450000D01*
X166747052Y-95390283D01*
X166715685Y-95288996D01*
X166657343Y-95200457D01*
X166576643Y-95131678D01*
X166525000Y-95108399D01*
X166525000Y-95017462D01*
X167271231Y-94271231D01*
X167301979Y-94233797D01*
X167333185Y-94196608D01*
X167334518Y-94194183D01*
X167336266Y-94192055D01*
X167359140Y-94149396D01*
X167382546Y-94106820D01*
X167383382Y-94104186D01*
X167384685Y-94101755D01*
X167398870Y-94055358D01*
X167413527Y-94009154D01*
X167413834Y-94006415D01*
X167414643Y-94003770D01*
X167419549Y-93955469D01*
X167424949Y-93907330D01*
X167424987Y-93901936D01*
X167424997Y-93901833D01*
X167424988Y-93901737D01*
X167425000Y-93900000D01*
X167425000Y-89750000D01*
X167420268Y-89701745D01*
X167416041Y-89653425D01*
X167415270Y-89650772D01*
X167415001Y-89648027D01*
X167400987Y-89601609D01*
X167387455Y-89555032D01*
X167386186Y-89552583D01*
X167385387Y-89549938D01*
X167362593Y-89507068D01*
X167340302Y-89464065D01*
X167338582Y-89461911D01*
X167337284Y-89459469D01*
X167306602Y-89421850D01*
X167276378Y-89383988D01*
X167272591Y-89380149D01*
X167272525Y-89380067D01*
X167272449Y-89380005D01*
X167271231Y-89378769D01*
X166521231Y-88628769D01*
X166483797Y-88598021D01*
X166446608Y-88566815D01*
X166444183Y-88565482D01*
X166442055Y-88563734D01*
X166399361Y-88540841D01*
X166356820Y-88517454D01*
X166354190Y-88516620D01*
X166351755Y-88515314D01*
X166305313Y-88501115D01*
X166259154Y-88486473D01*
X166256416Y-88486166D01*
X166253770Y-88485357D01*
X166226814Y-88482619D01*
X166226814Y-88150000D01*
X166222052Y-88090283D01*
X166190685Y-87988996D01*
X166132343Y-87900457D01*
X166051643Y-87831678D01*
X165954978Y-87788104D01*
X165850000Y-87773186D01*
X164150000Y-87773186D01*
X164090283Y-87777948D01*
X163988996Y-87809315D01*
X163900457Y-87867657D01*
X163831678Y-87948357D01*
X163788104Y-88045022D01*
X163773186Y-88150000D01*
X163773186Y-88482229D01*
X163753426Y-88483958D01*
X163750768Y-88484730D01*
X163748027Y-88484999D01*
X163701684Y-88498990D01*
X163655032Y-88512544D01*
X163652578Y-88513816D01*
X163649938Y-88514613D01*
X163607104Y-88537388D01*
X163564065Y-88559698D01*
X163561911Y-88561418D01*
X163559469Y-88562716D01*
X163521850Y-88593398D01*
X163483988Y-88623622D01*
X163480149Y-88627409D01*
X163480067Y-88627475D01*
X163480005Y-88627551D01*
X163478769Y-88628769D01*
X161392537Y-90715001D01*
X159685458Y-90715001D01*
X159813970Y-90532823D01*
X159915671Y-90304400D01*
X159971067Y-90060573D01*
X159975054Y-89774980D01*
X159926488Y-89529701D01*
X159831205Y-89298528D01*
X159692835Y-89090264D01*
X159516648Y-88912842D01*
X159309355Y-88773022D01*
X159078852Y-88676127D01*
X158833919Y-88625849D01*
X158583884Y-88624104D01*
X158338273Y-88670957D01*
X158106439Y-88764623D01*
X157897215Y-88901536D01*
X157718568Y-89076480D01*
X157577303Y-89282792D01*
X157478802Y-89512613D01*
X157426815Y-89757189D01*
X157423324Y-90007205D01*
X157468461Y-90253138D01*
X157560507Y-90485620D01*
X157695956Y-90695795D01*
X157714503Y-90715001D01*
X155959999Y-90715001D01*
X155911790Y-90719728D01*
X155863425Y-90723959D01*
X155860767Y-90724731D01*
X155858026Y-90725000D01*
X155811683Y-90738991D01*
X155765031Y-90752545D01*
X155762577Y-90753817D01*
X155759937Y-90754614D01*
X155717103Y-90777389D01*
X155674064Y-90799699D01*
X155671910Y-90801419D01*
X155669468Y-90802717D01*
X155631849Y-90833399D01*
X155593987Y-90863623D01*
X155590148Y-90867410D01*
X155590066Y-90867476D01*
X155590004Y-90867552D01*
X155588768Y-90868770D01*
X152628769Y-93828769D01*
X152598021Y-93866203D01*
X152566815Y-93903392D01*
X152565482Y-93905817D01*
X152563734Y-93907945D01*
X152540841Y-93950639D01*
X152517454Y-93993180D01*
X152516620Y-93995810D01*
X152515314Y-93998245D01*
X152501115Y-94044687D01*
X152486473Y-94090846D01*
X152486166Y-94093584D01*
X152485357Y-94096230D01*
X152480451Y-94144531D01*
X152475051Y-94192670D01*
X152475013Y-94198064D01*
X152475003Y-94198167D01*
X152475012Y-94198263D01*
X152475000Y-94200000D01*
X152475000Y-95123186D01*
X152375000Y-95123186D01*
X152315283Y-95127948D01*
X152213996Y-95159315D01*
X152125457Y-95217657D01*
X152056678Y-95298357D01*
X152013104Y-95395022D01*
X152001739Y-95475000D01*
X151751814Y-95475000D01*
X151751814Y-95450000D01*
X151747052Y-95390283D01*
X151715685Y-95288996D01*
X151657343Y-95200457D01*
X151576643Y-95131678D01*
X151479978Y-95088104D01*
X151375000Y-95073186D01*
X150625000Y-95073186D01*
X150565283Y-95077948D01*
X150463996Y-95109315D01*
X150375457Y-95167657D01*
X150306678Y-95248357D01*
X150263104Y-95345022D01*
X150248186Y-95450000D01*
X150248186Y-95525178D01*
X150201791Y-95529727D01*
X150153426Y-95533958D01*
X150150768Y-95534730D01*
X150148027Y-95534999D01*
X150101684Y-95548990D01*
X150055032Y-95562544D01*
X150052578Y-95563816D01*
X150049938Y-95564613D01*
X150007104Y-95587388D01*
X149964065Y-95609698D01*
X149961911Y-95611418D01*
X149959469Y-95612716D01*
X149921850Y-95643398D01*
X149883988Y-95673622D01*
X149880149Y-95677409D01*
X149880067Y-95677475D01*
X149880005Y-95677551D01*
X149878769Y-95678769D01*
X149528769Y-96028769D01*
X149498021Y-96066203D01*
X149466815Y-96103392D01*
X149465482Y-96105817D01*
X149463734Y-96107945D01*
X149440841Y-96150639D01*
X149417454Y-96193180D01*
X149416620Y-96195810D01*
X149415314Y-96198245D01*
X149401115Y-96244687D01*
X149386473Y-96290846D01*
X149386166Y-96293584D01*
X149385357Y-96296230D01*
X149380451Y-96344531D01*
X149375051Y-96392670D01*
X149375013Y-96398064D01*
X149375003Y-96398167D01*
X149375012Y-96398263D01*
X149375000Y-96400000D01*
X149375000Y-99116000D01*
X149379727Y-99164205D01*
X149383958Y-99212575D01*
X149384730Y-99215233D01*
X149384999Y-99217973D01*
X149399001Y-99264350D01*
X149412545Y-99310968D01*
X149413814Y-99313417D01*
X149414613Y-99316062D01*
X149437407Y-99358932D01*
X149459698Y-99401935D01*
X149461418Y-99404089D01*
X149462716Y-99406531D01*
X149493398Y-99444150D01*
X149523622Y-99482012D01*
X149527409Y-99485851D01*
X149527475Y-99485933D01*
X149527551Y-99485995D01*
X149528769Y-99487231D01*
X150061969Y-100020431D01*
X150003957Y-100058657D01*
X149935178Y-100139357D01*
X149891604Y-100236022D01*
X149876686Y-100341000D01*
X149876686Y-100849000D01*
X149881448Y-100908717D01*
X149912815Y-101010004D01*
X149971157Y-101098543D01*
X150051857Y-101167322D01*
X150148522Y-101210896D01*
X150253500Y-101225814D01*
X151396500Y-101225814D01*
X151456217Y-101221052D01*
X151557504Y-101189685D01*
X151646043Y-101131343D01*
X151713500Y-101052194D01*
X151713500Y-101275000D01*
X151558926Y-101275000D01*
X151501478Y-101249104D01*
X151396500Y-101234186D01*
X150253500Y-101234186D01*
X150193783Y-101238948D01*
X150092496Y-101270315D01*
X150003957Y-101328657D01*
X149935178Y-101409357D01*
X149891604Y-101506022D01*
X149876686Y-101611000D01*
X149876686Y-102119000D01*
X149881448Y-102178717D01*
X149912815Y-102280004D01*
X149971157Y-102368543D01*
X150051857Y-102437322D01*
X150148522Y-102480896D01*
X150253500Y-102495814D01*
X151396500Y-102495814D01*
X151456217Y-102491052D01*
X151557504Y-102459685D01*
X151646043Y-102401343D01*
X151711109Y-102325000D01*
X152021038Y-102325000D01*
X153175000Y-103478962D01*
X153175000Y-104518127D01*
X153160559Y-104512057D01*
X153030888Y-104485440D01*
X153027881Y-104485419D01*
X152576231Y-104033769D01*
X152538797Y-104003021D01*
X152501608Y-103971815D01*
X152499183Y-103970482D01*
X152497055Y-103968734D01*
X152454361Y-103945841D01*
X152411820Y-103922454D01*
X152409190Y-103921620D01*
X152406755Y-103920314D01*
X152360313Y-103906115D01*
X152314154Y-103891473D01*
X152311416Y-103891166D01*
X152308770Y-103890357D01*
X152260469Y-103885451D01*
X152212330Y-103880051D01*
X152206936Y-103880013D01*
X152206833Y-103880003D01*
X152206737Y-103880012D01*
X152205000Y-103880000D01*
X151653667Y-103880000D01*
X151598143Y-103832678D01*
X151501478Y-103789104D01*
X151396500Y-103774186D01*
X150253500Y-103774186D01*
X150193783Y-103778948D01*
X150092496Y-103810315D01*
X150003957Y-103868657D01*
X149935178Y-103949357D01*
X149891604Y-104046022D01*
X149876686Y-104151000D01*
X149876686Y-104554224D01*
X149154583Y-103832121D01*
X149205907Y-103666320D01*
X149230897Y-103428552D01*
X149224272Y-103355750D01*
X149878500Y-103355750D01*
X149878500Y-103425934D01*
X149892911Y-103498383D01*
X149921179Y-103566629D01*
X149962218Y-103628048D01*
X150014451Y-103680281D01*
X150075871Y-103721321D01*
X150144116Y-103749589D01*
X150216565Y-103764000D01*
X150556250Y-103764000D01*
X150650000Y-103670250D01*
X150650000Y-103262000D01*
X151000000Y-103262000D01*
X151000000Y-103670250D01*
X151093750Y-103764000D01*
X151433435Y-103764000D01*
X151505884Y-103749589D01*
X151574129Y-103721321D01*
X151635549Y-103680281D01*
X151687782Y-103628048D01*
X151728821Y-103566629D01*
X151757089Y-103498383D01*
X151771500Y-103425934D01*
X151771500Y-103355750D01*
X151677750Y-103262000D01*
X151000000Y-103262000D01*
X150650000Y-103262000D01*
X149972250Y-103262000D01*
X149878500Y-103355750D01*
X149224272Y-103355750D01*
X149209229Y-103190458D01*
X149141727Y-102961107D01*
X149080540Y-102844066D01*
X149878500Y-102844066D01*
X149878500Y-102914250D01*
X149972250Y-103008000D01*
X150650000Y-103008000D01*
X150650000Y-102599750D01*
X151000000Y-102599750D01*
X151000000Y-103008000D01*
X151677750Y-103008000D01*
X151771500Y-102914250D01*
X151771500Y-102844066D01*
X151757089Y-102771617D01*
X151728821Y-102703371D01*
X151687782Y-102641952D01*
X151635549Y-102589719D01*
X151574129Y-102548679D01*
X151505884Y-102520411D01*
X151433435Y-102506000D01*
X151093750Y-102506000D01*
X151000000Y-102599750D01*
X150650000Y-102599750D01*
X150556250Y-102506000D01*
X150216565Y-102506000D01*
X150144116Y-102520411D01*
X150075871Y-102548679D01*
X150014451Y-102589719D01*
X149962218Y-102641952D01*
X149921179Y-102703371D01*
X149892911Y-102771617D01*
X149878500Y-102844066D01*
X149080540Y-102844066D01*
X149030963Y-102749235D01*
X148881156Y-102562912D01*
X148698012Y-102409236D01*
X148488506Y-102294059D01*
X148260619Y-102221769D01*
X148023031Y-102195119D01*
X148005927Y-102195000D01*
X147994073Y-102195000D01*
X147756136Y-102218330D01*
X147527262Y-102287431D01*
X147316168Y-102399671D01*
X147130896Y-102550776D01*
X146978502Y-102734989D01*
X146864791Y-102945293D01*
X146794093Y-103173680D01*
X146769103Y-103411448D01*
X145450000Y-103411448D01*
X145450000Y-100871448D01*
X146769103Y-100871448D01*
X146790771Y-101109542D01*
X146858273Y-101338893D01*
X146969037Y-101550765D01*
X147118844Y-101737088D01*
X147301988Y-101890764D01*
X147511494Y-102005941D01*
X147739381Y-102078231D01*
X147976969Y-102104881D01*
X147994073Y-102105000D01*
X148005927Y-102105000D01*
X148243864Y-102081670D01*
X148472738Y-102012569D01*
X148683832Y-101900329D01*
X148869104Y-101749224D01*
X149021498Y-101565011D01*
X149135209Y-101354707D01*
X149205907Y-101126320D01*
X149230897Y-100888552D01*
X149209229Y-100650458D01*
X149141727Y-100421107D01*
X149030963Y-100209235D01*
X148881156Y-100022912D01*
X148698012Y-99869236D01*
X148488506Y-99754059D01*
X148260619Y-99681769D01*
X148023031Y-99655119D01*
X148005927Y-99655000D01*
X147994073Y-99655000D01*
X147756136Y-99678330D01*
X147527262Y-99747431D01*
X147316168Y-99859671D01*
X147130896Y-100010776D01*
X146978502Y-100194989D01*
X146864791Y-100405293D01*
X146794093Y-100633680D01*
X146769103Y-100871448D01*
X145450000Y-100871448D01*
X145450000Y-98331448D01*
X146769103Y-98331448D01*
X146790771Y-98569542D01*
X146858273Y-98798893D01*
X146969037Y-99010765D01*
X147118844Y-99197088D01*
X147301988Y-99350764D01*
X147511494Y-99465941D01*
X147739381Y-99538231D01*
X147976969Y-99564881D01*
X147994073Y-99565000D01*
X148005927Y-99565000D01*
X148243864Y-99541670D01*
X148472738Y-99472569D01*
X148683832Y-99360329D01*
X148869104Y-99209224D01*
X149021498Y-99025011D01*
X149135209Y-98814707D01*
X149205907Y-98586320D01*
X149230897Y-98348552D01*
X149209229Y-98110458D01*
X149141727Y-97881107D01*
X149030963Y-97669235D01*
X148881156Y-97482912D01*
X148698012Y-97329236D01*
X148488506Y-97214059D01*
X148260619Y-97141769D01*
X148023031Y-97115119D01*
X148005927Y-97115000D01*
X147994073Y-97115000D01*
X147756136Y-97138330D01*
X147527262Y-97207431D01*
X147316168Y-97319671D01*
X147130896Y-97470776D01*
X146978502Y-97654989D01*
X146864791Y-97865293D01*
X146794093Y-98093680D01*
X146769103Y-98331448D01*
X145450000Y-98331448D01*
X145450000Y-90007205D01*
X147423324Y-90007205D01*
X147468461Y-90253138D01*
X147560507Y-90485620D01*
X147695956Y-90695795D01*
X147869649Y-90875659D01*
X148074969Y-91018361D01*
X148304097Y-91118464D01*
X148548305Y-91172157D01*
X148798290Y-91177393D01*
X149044532Y-91133974D01*
X149277650Y-91043553D01*
X149488766Y-90909575D01*
X149669839Y-90737142D01*
X149813970Y-90532823D01*
X149915671Y-90304400D01*
X149971067Y-90060573D01*
X149971812Y-90007205D01*
X152423324Y-90007205D01*
X152468461Y-90253138D01*
X152560507Y-90485620D01*
X152695956Y-90695795D01*
X152869649Y-90875659D01*
X153074969Y-91018361D01*
X153304097Y-91118464D01*
X153548305Y-91172157D01*
X153798290Y-91177393D01*
X154044532Y-91133974D01*
X154277650Y-91043553D01*
X154488766Y-90909575D01*
X154669839Y-90737142D01*
X154813970Y-90532823D01*
X154915671Y-90304400D01*
X154971067Y-90060573D01*
X154975054Y-89774980D01*
X154926488Y-89529701D01*
X154831205Y-89298528D01*
X154692835Y-89090264D01*
X154516648Y-88912842D01*
X154309355Y-88773022D01*
X154078852Y-88676127D01*
X153833919Y-88625849D01*
X153583884Y-88624104D01*
X153338273Y-88670957D01*
X153106439Y-88764623D01*
X152897215Y-88901536D01*
X152718568Y-89076480D01*
X152577303Y-89282792D01*
X152478802Y-89512613D01*
X152426815Y-89757189D01*
X152423324Y-90007205D01*
X149971812Y-90007205D01*
X149975054Y-89774980D01*
X149926488Y-89529701D01*
X149831205Y-89298528D01*
X149692835Y-89090264D01*
X149516648Y-88912842D01*
X149309355Y-88773022D01*
X149078852Y-88676127D01*
X148833919Y-88625849D01*
X148583884Y-88624104D01*
X148338273Y-88670957D01*
X148106439Y-88764623D01*
X147897215Y-88901536D01*
X147718568Y-89076480D01*
X147577303Y-89282792D01*
X147478802Y-89512613D01*
X147426815Y-89757189D01*
X147423324Y-90007205D01*
X145450000Y-90007205D01*
X145450000Y-86450000D01*
X167550000Y-86450000D01*
X167550000Y-111550000D01*
X167550000Y-111550000D01*
G37*
X167550000Y-111550000D02*
X145450000Y-111550000D01*
X145450000Y-103411448D01*
X146769103Y-103411448D01*
X146790771Y-103649542D01*
X146858273Y-103878893D01*
X146969037Y-104090765D01*
X147118844Y-104277088D01*
X147301988Y-104430764D01*
X147511494Y-104545941D01*
X147739381Y-104618231D01*
X147976969Y-104644881D01*
X147994073Y-104645000D01*
X148005927Y-104645000D01*
X148243864Y-104621670D01*
X148409269Y-104571731D01*
X150093128Y-106255590D01*
X150056678Y-106298357D01*
X150013104Y-106395022D01*
X149998186Y-106500000D01*
X149998186Y-107221307D01*
X149976378Y-107193988D01*
X149972591Y-107190149D01*
X149972525Y-107190067D01*
X149972449Y-107190005D01*
X149971231Y-107188769D01*
X149154583Y-106372121D01*
X149205907Y-106206320D01*
X149230897Y-105968552D01*
X149209229Y-105730458D01*
X149141727Y-105501107D01*
X149030963Y-105289235D01*
X148881156Y-105102912D01*
X148698012Y-104949236D01*
X148488506Y-104834059D01*
X148260619Y-104761769D01*
X148023031Y-104735119D01*
X148005927Y-104735000D01*
X147994073Y-104735000D01*
X147756136Y-104758330D01*
X147527262Y-104827431D01*
X147316168Y-104939671D01*
X147130896Y-105090776D01*
X146978502Y-105274989D01*
X146864791Y-105485293D01*
X146794093Y-105713680D01*
X146769103Y-105951448D01*
X146790771Y-106189542D01*
X146858273Y-106418893D01*
X146969037Y-106630765D01*
X147118844Y-106817088D01*
X147301988Y-106970764D01*
X147511494Y-107085941D01*
X147739381Y-107158231D01*
X147976969Y-107184881D01*
X147994073Y-107185000D01*
X148005927Y-107185000D01*
X148243864Y-107161670D01*
X148409269Y-107111731D01*
X148570724Y-107273186D01*
X147150000Y-107273186D01*
X147090283Y-107277948D01*
X146988996Y-107309315D01*
X146900457Y-107367657D01*
X146831678Y-107448357D01*
X146788104Y-107545022D01*
X146773186Y-107650000D01*
X146773186Y-109350000D01*
X146777948Y-109409717D01*
X146809315Y-109511004D01*
X146867657Y-109599543D01*
X146948357Y-109668322D01*
X147045022Y-109711896D01*
X147150000Y-109726814D01*
X148850000Y-109726814D01*
X148909717Y-109722052D01*
X149011004Y-109690685D01*
X149090779Y-109638118D01*
X149099001Y-109665352D01*
X149112545Y-109711970D01*
X149113814Y-109714419D01*
X149114613Y-109717064D01*
X149137407Y-109759934D01*
X149159698Y-109802937D01*
X149161418Y-109805091D01*
X149162716Y-109807533D01*
X149193398Y-109845152D01*
X149223622Y-109883014D01*
X149227409Y-109886853D01*
X149227475Y-109886935D01*
X149227551Y-109886997D01*
X149228769Y-109888233D01*
X150111767Y-110771231D01*
X150149227Y-110802001D01*
X150186390Y-110833185D01*
X150188812Y-110834516D01*
X150190943Y-110836267D01*
X150233676Y-110859180D01*
X150276178Y-110882546D01*
X150278808Y-110883380D01*
X150281243Y-110884686D01*
X150327685Y-110898885D01*
X150373844Y-110913527D01*
X150376582Y-110913834D01*
X150379228Y-110914643D01*
X150427529Y-110919549D01*
X150475668Y-110924949D01*
X150481062Y-110924987D01*
X150481165Y-110924997D01*
X150481261Y-110924988D01*
X150482998Y-110925000D01*
X161600000Y-110925000D01*
X161648205Y-110920273D01*
X161696575Y-110916042D01*
X161699233Y-110915270D01*
X161701973Y-110915001D01*
X161748350Y-110900999D01*
X161794968Y-110887455D01*
X161797417Y-110886186D01*
X161800062Y-110885387D01*
X161842932Y-110862593D01*
X161885935Y-110840302D01*
X161888089Y-110838582D01*
X161890531Y-110837284D01*
X161928150Y-110806602D01*
X161966012Y-110776378D01*
X161969851Y-110772591D01*
X161969933Y-110772525D01*
X161969995Y-110772449D01*
X161971231Y-110771231D01*
X162371231Y-110371231D01*
X162401979Y-110333797D01*
X162433185Y-110296608D01*
X162434518Y-110294183D01*
X162436266Y-110292055D01*
X162459150Y-110249377D01*
X162482546Y-110206820D01*
X162483381Y-110204188D01*
X162484685Y-110201756D01*
X162498875Y-110155344D01*
X162513527Y-110109154D01*
X162513834Y-110106415D01*
X162514643Y-110103770D01*
X162519549Y-110055469D01*
X162524949Y-110007330D01*
X162524987Y-110001936D01*
X162524997Y-110001833D01*
X162524988Y-110001737D01*
X162525000Y-110000000D01*
X162525000Y-109876814D01*
X162625000Y-109876814D01*
X162684717Y-109872052D01*
X162786004Y-109840685D01*
X162874543Y-109782343D01*
X162943322Y-109701643D01*
X162986896Y-109604978D01*
X163001814Y-109500000D01*
X163001814Y-108544276D01*
X163248186Y-108790648D01*
X163248186Y-109550000D01*
X163252948Y-109609717D01*
X163284315Y-109711004D01*
X163342657Y-109799543D01*
X163423357Y-109868322D01*
X163520022Y-109911896D01*
X163625000Y-109926814D01*
X164375000Y-109926814D01*
X164434717Y-109922052D01*
X164536004Y-109890685D01*
X164624543Y-109832343D01*
X164693322Y-109751643D01*
X164736896Y-109654978D01*
X164751814Y-109550000D01*
X164751814Y-108350000D01*
X164747052Y-108290283D01*
X164715685Y-108188996D01*
X164657343Y-108100457D01*
X164576643Y-108031678D01*
X164506188Y-107999919D01*
X164536004Y-107990685D01*
X164624543Y-107932343D01*
X164659999Y-107890742D01*
X164659999Y-107909999D01*
X164664726Y-107958204D01*
X164668957Y-108006574D01*
X164669729Y-108009232D01*
X164669998Y-108011972D01*
X164684000Y-108058349D01*
X164697544Y-108104967D01*
X164698813Y-108107416D01*
X164699612Y-108110061D01*
X164722406Y-108152931D01*
X164744697Y-108195934D01*
X164746417Y-108198088D01*
X164747715Y-108200530D01*
X164778397Y-108238149D01*
X164808621Y-108276011D01*
X164812408Y-108279850D01*
X164812474Y-108279932D01*
X164812550Y-108279994D01*
X164813768Y-108281230D01*
X165248186Y-108715648D01*
X165248186Y-109550000D01*
X165252948Y-109609717D01*
X165284315Y-109711004D01*
X165342657Y-109799543D01*
X165423357Y-109868322D01*
X165520022Y-109911896D01*
X165625000Y-109926814D01*
X166375000Y-109926814D01*
X166434717Y-109922052D01*
X166536004Y-109890685D01*
X166624543Y-109832343D01*
X166693322Y-109751643D01*
X166736896Y-109654978D01*
X166751814Y-109550000D01*
X166751814Y-108350000D01*
X166747052Y-108290283D01*
X166715685Y-108188996D01*
X166657343Y-108100457D01*
X166576643Y-108031678D01*
X166506188Y-107999919D01*
X166536004Y-107990685D01*
X166624543Y-107932343D01*
X166693322Y-107851643D01*
X166736896Y-107754978D01*
X166751814Y-107650000D01*
X166751814Y-106450000D01*
X166747052Y-106390283D01*
X166715685Y-106288996D01*
X166657343Y-106200457D01*
X166576643Y-106131678D01*
X166525000Y-106108399D01*
X166525000Y-103876814D01*
X166625000Y-103876814D01*
X166684717Y-103872052D01*
X166786004Y-103840685D01*
X166874543Y-103782343D01*
X166943322Y-103701643D01*
X166986896Y-103604978D01*
X167001814Y-103500000D01*
X167001814Y-102500000D01*
X166997052Y-102440283D01*
X166965685Y-102338996D01*
X166907343Y-102250457D01*
X166826643Y-102181678D01*
X166729978Y-102138104D01*
X166625000Y-102123186D01*
X165740648Y-102123186D01*
X165494276Y-101876814D01*
X166625000Y-101876814D01*
X166684717Y-101872052D01*
X166786004Y-101840685D01*
X166874543Y-101782343D01*
X166943322Y-101701643D01*
X166986896Y-101604978D01*
X167001814Y-101500000D01*
X167001814Y-100500000D01*
X166997052Y-100440283D01*
X166965685Y-100338996D01*
X166907343Y-100250457D01*
X166826643Y-100181678D01*
X166729978Y-100138104D01*
X166663014Y-100128588D01*
X166672918Y-100084997D01*
X166675029Y-99933801D01*
X166649317Y-99803948D01*
X166598873Y-99681561D01*
X166525618Y-99571304D01*
X166432343Y-99477375D01*
X166322600Y-99403352D01*
X166200569Y-99352055D01*
X166070898Y-99325438D01*
X165938527Y-99324513D01*
X165808497Y-99349318D01*
X165685762Y-99398906D01*
X165574996Y-99471390D01*
X165480418Y-99564007D01*
X165459999Y-99593828D01*
X165459999Y-98884839D01*
X165520022Y-98911896D01*
X165625000Y-98926814D01*
X166375000Y-98926814D01*
X166434717Y-98922052D01*
X166536004Y-98890685D01*
X166624543Y-98832343D01*
X166693322Y-98751643D01*
X166736896Y-98654978D01*
X166751814Y-98550000D01*
X166751814Y-97350000D01*
X166747052Y-97290283D01*
X166715685Y-97188996D01*
X166657343Y-97100457D01*
X166576643Y-97031678D01*
X166506188Y-96999919D01*
X166536004Y-96990685D01*
X166624543Y-96932343D01*
X166693322Y-96851643D01*
X166736896Y-96754978D01*
X166751814Y-96650000D01*
X166751814Y-95450000D01*
X166747052Y-95390283D01*
X166715685Y-95288996D01*
X166657343Y-95200457D01*
X166576643Y-95131678D01*
X166525000Y-95108399D01*
X166525000Y-95017462D01*
X167271231Y-94271231D01*
X167301979Y-94233797D01*
X167333185Y-94196608D01*
X167334518Y-94194183D01*
X167336266Y-94192055D01*
X167359140Y-94149396D01*
X167382546Y-94106820D01*
X167383382Y-94104186D01*
X167384685Y-94101755D01*
X167398870Y-94055358D01*
X167413527Y-94009154D01*
X167413834Y-94006415D01*
X167414643Y-94003770D01*
X167419549Y-93955469D01*
X167424949Y-93907330D01*
X167424987Y-93901936D01*
X167424997Y-93901833D01*
X167424988Y-93901737D01*
X167425000Y-93900000D01*
X167425000Y-89750000D01*
X167420268Y-89701745D01*
X167416041Y-89653425D01*
X167415270Y-89650772D01*
X167415001Y-89648027D01*
X167400987Y-89601609D01*
X167387455Y-89555032D01*
X167386186Y-89552583D01*
X167385387Y-89549938D01*
X167362593Y-89507068D01*
X167340302Y-89464065D01*
X167338582Y-89461911D01*
X167337284Y-89459469D01*
X167306602Y-89421850D01*
X167276378Y-89383988D01*
X167272591Y-89380149D01*
X167272525Y-89380067D01*
X167272449Y-89380005D01*
X167271231Y-89378769D01*
X166521231Y-88628769D01*
X166483797Y-88598021D01*
X166446608Y-88566815D01*
X166444183Y-88565482D01*
X166442055Y-88563734D01*
X166399361Y-88540841D01*
X166356820Y-88517454D01*
X166354190Y-88516620D01*
X166351755Y-88515314D01*
X166305313Y-88501115D01*
X166259154Y-88486473D01*
X166256416Y-88486166D01*
X166253770Y-88485357D01*
X166226814Y-88482619D01*
X166226814Y-88150000D01*
X166222052Y-88090283D01*
X166190685Y-87988996D01*
X166132343Y-87900457D01*
X166051643Y-87831678D01*
X165954978Y-87788104D01*
X165850000Y-87773186D01*
X164150000Y-87773186D01*
X164090283Y-87777948D01*
X163988996Y-87809315D01*
X163900457Y-87867657D01*
X163831678Y-87948357D01*
X163788104Y-88045022D01*
X163773186Y-88150000D01*
X163773186Y-88482229D01*
X163753426Y-88483958D01*
X163750768Y-88484730D01*
X163748027Y-88484999D01*
X163701684Y-88498990D01*
X163655032Y-88512544D01*
X163652578Y-88513816D01*
X163649938Y-88514613D01*
X163607104Y-88537388D01*
X163564065Y-88559698D01*
X163561911Y-88561418D01*
X163559469Y-88562716D01*
X163521850Y-88593398D01*
X163483988Y-88623622D01*
X163480149Y-88627409D01*
X163480067Y-88627475D01*
X163480005Y-88627551D01*
X163478769Y-88628769D01*
X161392537Y-90715001D01*
X159685458Y-90715001D01*
X159813970Y-90532823D01*
X159915671Y-90304400D01*
X159971067Y-90060573D01*
X159975054Y-89774980D01*
X159926488Y-89529701D01*
X159831205Y-89298528D01*
X159692835Y-89090264D01*
X159516648Y-88912842D01*
X159309355Y-88773022D01*
X159078852Y-88676127D01*
X158833919Y-88625849D01*
X158583884Y-88624104D01*
X158338273Y-88670957D01*
X158106439Y-88764623D01*
X157897215Y-88901536D01*
X157718568Y-89076480D01*
X157577303Y-89282792D01*
X157478802Y-89512613D01*
X157426815Y-89757189D01*
X157423324Y-90007205D01*
X157468461Y-90253138D01*
X157560507Y-90485620D01*
X157695956Y-90695795D01*
X157714503Y-90715001D01*
X155959999Y-90715001D01*
X155911790Y-90719728D01*
X155863425Y-90723959D01*
X155860767Y-90724731D01*
X155858026Y-90725000D01*
X155811683Y-90738991D01*
X155765031Y-90752545D01*
X155762577Y-90753817D01*
X155759937Y-90754614D01*
X155717103Y-90777389D01*
X155674064Y-90799699D01*
X155671910Y-90801419D01*
X155669468Y-90802717D01*
X155631849Y-90833399D01*
X155593987Y-90863623D01*
X155590148Y-90867410D01*
X155590066Y-90867476D01*
X155590004Y-90867552D01*
X155588768Y-90868770D01*
X152628769Y-93828769D01*
X152598021Y-93866203D01*
X152566815Y-93903392D01*
X152565482Y-93905817D01*
X152563734Y-93907945D01*
X152540841Y-93950639D01*
X152517454Y-93993180D01*
X152516620Y-93995810D01*
X152515314Y-93998245D01*
X152501115Y-94044687D01*
X152486473Y-94090846D01*
X152486166Y-94093584D01*
X152485357Y-94096230D01*
X152480451Y-94144531D01*
X152475051Y-94192670D01*
X152475013Y-94198064D01*
X152475003Y-94198167D01*
X152475012Y-94198263D01*
X152475000Y-94200000D01*
X152475000Y-95123186D01*
X152375000Y-95123186D01*
X152315283Y-95127948D01*
X152213996Y-95159315D01*
X152125457Y-95217657D01*
X152056678Y-95298357D01*
X152013104Y-95395022D01*
X152001739Y-95475000D01*
X151751814Y-95475000D01*
X151751814Y-95450000D01*
X151747052Y-95390283D01*
X151715685Y-95288996D01*
X151657343Y-95200457D01*
X151576643Y-95131678D01*
X151479978Y-95088104D01*
X151375000Y-95073186D01*
X150625000Y-95073186D01*
X150565283Y-95077948D01*
X150463996Y-95109315D01*
X150375457Y-95167657D01*
X150306678Y-95248357D01*
X150263104Y-95345022D01*
X150248186Y-95450000D01*
X150248186Y-95525178D01*
X150201791Y-95529727D01*
X150153426Y-95533958D01*
X150150768Y-95534730D01*
X150148027Y-95534999D01*
X150101684Y-95548990D01*
X150055032Y-95562544D01*
X150052578Y-95563816D01*
X150049938Y-95564613D01*
X150007104Y-95587388D01*
X149964065Y-95609698D01*
X149961911Y-95611418D01*
X149959469Y-95612716D01*
X149921850Y-95643398D01*
X149883988Y-95673622D01*
X149880149Y-95677409D01*
X149880067Y-95677475D01*
X149880005Y-95677551D01*
X149878769Y-95678769D01*
X149528769Y-96028769D01*
X149498021Y-96066203D01*
X149466815Y-96103392D01*
X149465482Y-96105817D01*
X149463734Y-96107945D01*
X149440841Y-96150639D01*
X149417454Y-96193180D01*
X149416620Y-96195810D01*
X149415314Y-96198245D01*
X149401115Y-96244687D01*
X149386473Y-96290846D01*
X149386166Y-96293584D01*
X149385357Y-96296230D01*
X149380451Y-96344531D01*
X149375051Y-96392670D01*
X149375013Y-96398064D01*
X149375003Y-96398167D01*
X149375012Y-96398263D01*
X149375000Y-96400000D01*
X149375000Y-99116000D01*
X149379727Y-99164205D01*
X149383958Y-99212575D01*
X149384730Y-99215233D01*
X149384999Y-99217973D01*
X149399001Y-99264350D01*
X149412545Y-99310968D01*
X149413814Y-99313417D01*
X149414613Y-99316062D01*
X149437407Y-99358932D01*
X149459698Y-99401935D01*
X149461418Y-99404089D01*
X149462716Y-99406531D01*
X149493398Y-99444150D01*
X149523622Y-99482012D01*
X149527409Y-99485851D01*
X149527475Y-99485933D01*
X149527551Y-99485995D01*
X149528769Y-99487231D01*
X150061969Y-100020431D01*
X150003957Y-100058657D01*
X149935178Y-100139357D01*
X149891604Y-100236022D01*
X149876686Y-100341000D01*
X149876686Y-100849000D01*
X149881448Y-100908717D01*
X149912815Y-101010004D01*
X149971157Y-101098543D01*
X150051857Y-101167322D01*
X150148522Y-101210896D01*
X150253500Y-101225814D01*
X151396500Y-101225814D01*
X151456217Y-101221052D01*
X151557504Y-101189685D01*
X151646043Y-101131343D01*
X151713500Y-101052194D01*
X151713500Y-101275000D01*
X151558926Y-101275000D01*
X151501478Y-101249104D01*
X151396500Y-101234186D01*
X150253500Y-101234186D01*
X150193783Y-101238948D01*
X150092496Y-101270315D01*
X150003957Y-101328657D01*
X149935178Y-101409357D01*
X149891604Y-101506022D01*
X149876686Y-101611000D01*
X149876686Y-102119000D01*
X149881448Y-102178717D01*
X149912815Y-102280004D01*
X149971157Y-102368543D01*
X150051857Y-102437322D01*
X150148522Y-102480896D01*
X150253500Y-102495814D01*
X151396500Y-102495814D01*
X151456217Y-102491052D01*
X151557504Y-102459685D01*
X151646043Y-102401343D01*
X151711109Y-102325000D01*
X152021038Y-102325000D01*
X153175000Y-103478962D01*
X153175000Y-104518127D01*
X153160559Y-104512057D01*
X153030888Y-104485440D01*
X153027881Y-104485419D01*
X152576231Y-104033769D01*
X152538797Y-104003021D01*
X152501608Y-103971815D01*
X152499183Y-103970482D01*
X152497055Y-103968734D01*
X152454361Y-103945841D01*
X152411820Y-103922454D01*
X152409190Y-103921620D01*
X152406755Y-103920314D01*
X152360313Y-103906115D01*
X152314154Y-103891473D01*
X152311416Y-103891166D01*
X152308770Y-103890357D01*
X152260469Y-103885451D01*
X152212330Y-103880051D01*
X152206936Y-103880013D01*
X152206833Y-103880003D01*
X152206737Y-103880012D01*
X152205000Y-103880000D01*
X151653667Y-103880000D01*
X151598143Y-103832678D01*
X151501478Y-103789104D01*
X151396500Y-103774186D01*
X150253500Y-103774186D01*
X150193783Y-103778948D01*
X150092496Y-103810315D01*
X150003957Y-103868657D01*
X149935178Y-103949357D01*
X149891604Y-104046022D01*
X149876686Y-104151000D01*
X149876686Y-104554224D01*
X149154583Y-103832121D01*
X149205907Y-103666320D01*
X149230897Y-103428552D01*
X149224272Y-103355750D01*
X149878500Y-103355750D01*
X149878500Y-103425934D01*
X149892911Y-103498383D01*
X149921179Y-103566629D01*
X149962218Y-103628048D01*
X150014451Y-103680281D01*
X150075871Y-103721321D01*
X150144116Y-103749589D01*
X150216565Y-103764000D01*
X150556250Y-103764000D01*
X150650000Y-103670250D01*
X150650000Y-103262000D01*
X151000000Y-103262000D01*
X151000000Y-103670250D01*
X151093750Y-103764000D01*
X151433435Y-103764000D01*
X151505884Y-103749589D01*
X151574129Y-103721321D01*
X151635549Y-103680281D01*
X151687782Y-103628048D01*
X151728821Y-103566629D01*
X151757089Y-103498383D01*
X151771500Y-103425934D01*
X151771500Y-103355750D01*
X151677750Y-103262000D01*
X151000000Y-103262000D01*
X150650000Y-103262000D01*
X149972250Y-103262000D01*
X149878500Y-103355750D01*
X149224272Y-103355750D01*
X149209229Y-103190458D01*
X149141727Y-102961107D01*
X149080540Y-102844066D01*
X149878500Y-102844066D01*
X149878500Y-102914250D01*
X149972250Y-103008000D01*
X150650000Y-103008000D01*
X150650000Y-102599750D01*
X151000000Y-102599750D01*
X151000000Y-103008000D01*
X151677750Y-103008000D01*
X151771500Y-102914250D01*
X151771500Y-102844066D01*
X151757089Y-102771617D01*
X151728821Y-102703371D01*
X151687782Y-102641952D01*
X151635549Y-102589719D01*
X151574129Y-102548679D01*
X151505884Y-102520411D01*
X151433435Y-102506000D01*
X151093750Y-102506000D01*
X151000000Y-102599750D01*
X150650000Y-102599750D01*
X150556250Y-102506000D01*
X150216565Y-102506000D01*
X150144116Y-102520411D01*
X150075871Y-102548679D01*
X150014451Y-102589719D01*
X149962218Y-102641952D01*
X149921179Y-102703371D01*
X149892911Y-102771617D01*
X149878500Y-102844066D01*
X149080540Y-102844066D01*
X149030963Y-102749235D01*
X148881156Y-102562912D01*
X148698012Y-102409236D01*
X148488506Y-102294059D01*
X148260619Y-102221769D01*
X148023031Y-102195119D01*
X148005927Y-102195000D01*
X147994073Y-102195000D01*
X147756136Y-102218330D01*
X147527262Y-102287431D01*
X147316168Y-102399671D01*
X147130896Y-102550776D01*
X146978502Y-102734989D01*
X146864791Y-102945293D01*
X146794093Y-103173680D01*
X146769103Y-103411448D01*
X145450000Y-103411448D01*
X145450000Y-100871448D01*
X146769103Y-100871448D01*
X146790771Y-101109542D01*
X146858273Y-101338893D01*
X146969037Y-101550765D01*
X147118844Y-101737088D01*
X147301988Y-101890764D01*
X147511494Y-102005941D01*
X147739381Y-102078231D01*
X147976969Y-102104881D01*
X147994073Y-102105000D01*
X148005927Y-102105000D01*
X148243864Y-102081670D01*
X148472738Y-102012569D01*
X148683832Y-101900329D01*
X148869104Y-101749224D01*
X149021498Y-101565011D01*
X149135209Y-101354707D01*
X149205907Y-101126320D01*
X149230897Y-100888552D01*
X149209229Y-100650458D01*
X149141727Y-100421107D01*
X149030963Y-100209235D01*
X148881156Y-100022912D01*
X148698012Y-99869236D01*
X148488506Y-99754059D01*
X148260619Y-99681769D01*
X148023031Y-99655119D01*
X148005927Y-99655000D01*
X147994073Y-99655000D01*
X147756136Y-99678330D01*
X147527262Y-99747431D01*
X147316168Y-99859671D01*
X147130896Y-100010776D01*
X146978502Y-100194989D01*
X146864791Y-100405293D01*
X146794093Y-100633680D01*
X146769103Y-100871448D01*
X145450000Y-100871448D01*
X145450000Y-98331448D01*
X146769103Y-98331448D01*
X146790771Y-98569542D01*
X146858273Y-98798893D01*
X146969037Y-99010765D01*
X147118844Y-99197088D01*
X147301988Y-99350764D01*
X147511494Y-99465941D01*
X147739381Y-99538231D01*
X147976969Y-99564881D01*
X147994073Y-99565000D01*
X148005927Y-99565000D01*
X148243864Y-99541670D01*
X148472738Y-99472569D01*
X148683832Y-99360329D01*
X148869104Y-99209224D01*
X149021498Y-99025011D01*
X149135209Y-98814707D01*
X149205907Y-98586320D01*
X149230897Y-98348552D01*
X149209229Y-98110458D01*
X149141727Y-97881107D01*
X149030963Y-97669235D01*
X148881156Y-97482912D01*
X148698012Y-97329236D01*
X148488506Y-97214059D01*
X148260619Y-97141769D01*
X148023031Y-97115119D01*
X148005927Y-97115000D01*
X147994073Y-97115000D01*
X147756136Y-97138330D01*
X147527262Y-97207431D01*
X147316168Y-97319671D01*
X147130896Y-97470776D01*
X146978502Y-97654989D01*
X146864791Y-97865293D01*
X146794093Y-98093680D01*
X146769103Y-98331448D01*
X145450000Y-98331448D01*
X145450000Y-90007205D01*
X147423324Y-90007205D01*
X147468461Y-90253138D01*
X147560507Y-90485620D01*
X147695956Y-90695795D01*
X147869649Y-90875659D01*
X148074969Y-91018361D01*
X148304097Y-91118464D01*
X148548305Y-91172157D01*
X148798290Y-91177393D01*
X149044532Y-91133974D01*
X149277650Y-91043553D01*
X149488766Y-90909575D01*
X149669839Y-90737142D01*
X149813970Y-90532823D01*
X149915671Y-90304400D01*
X149971067Y-90060573D01*
X149971812Y-90007205D01*
X152423324Y-90007205D01*
X152468461Y-90253138D01*
X152560507Y-90485620D01*
X152695956Y-90695795D01*
X152869649Y-90875659D01*
X153074969Y-91018361D01*
X153304097Y-91118464D01*
X153548305Y-91172157D01*
X153798290Y-91177393D01*
X154044532Y-91133974D01*
X154277650Y-91043553D01*
X154488766Y-90909575D01*
X154669839Y-90737142D01*
X154813970Y-90532823D01*
X154915671Y-90304400D01*
X154971067Y-90060573D01*
X154975054Y-89774980D01*
X154926488Y-89529701D01*
X154831205Y-89298528D01*
X154692835Y-89090264D01*
X154516648Y-88912842D01*
X154309355Y-88773022D01*
X154078852Y-88676127D01*
X153833919Y-88625849D01*
X153583884Y-88624104D01*
X153338273Y-88670957D01*
X153106439Y-88764623D01*
X152897215Y-88901536D01*
X152718568Y-89076480D01*
X152577303Y-89282792D01*
X152478802Y-89512613D01*
X152426815Y-89757189D01*
X152423324Y-90007205D01*
X149971812Y-90007205D01*
X149975054Y-89774980D01*
X149926488Y-89529701D01*
X149831205Y-89298528D01*
X149692835Y-89090264D01*
X149516648Y-88912842D01*
X149309355Y-88773022D01*
X149078852Y-88676127D01*
X148833919Y-88625849D01*
X148583884Y-88624104D01*
X148338273Y-88670957D01*
X148106439Y-88764623D01*
X147897215Y-88901536D01*
X147718568Y-89076480D01*
X147577303Y-89282792D01*
X147478802Y-89512613D01*
X147426815Y-89757189D01*
X147423324Y-90007205D01*
X145450000Y-90007205D01*
X145450000Y-86450000D01*
X167550000Y-86450000D01*
X167550000Y-111550000D01*
G36*
X155458058Y-100356558D02*
X155421399Y-100401188D01*
X155384304Y-100445396D01*
X155382721Y-100448275D01*
X155380635Y-100450815D01*
X155353379Y-100501647D01*
X155325540Y-100552286D01*
X155324544Y-100555424D01*
X155322994Y-100558316D01*
X155306119Y-100613510D01*
X155288658Y-100668555D01*
X155288292Y-100671817D01*
X155287330Y-100674964D01*
X155281492Y-100732437D01*
X155275061Y-100789774D01*
X155275016Y-100796199D01*
X155275004Y-100796318D01*
X155275014Y-100796429D01*
X155275000Y-100798500D01*
X155275000Y-101744710D01*
X155253483Y-101794913D01*
X155225961Y-101924394D01*
X155224113Y-102056756D01*
X155248009Y-102186955D01*
X155296739Y-102310034D01*
X155368447Y-102421303D01*
X155460402Y-102516526D01*
X155569101Y-102592073D01*
X155690404Y-102645069D01*
X155819691Y-102673495D01*
X155952036Y-102676267D01*
X156082399Y-102653280D01*
X156205815Y-102605411D01*
X156317582Y-102534481D01*
X156413444Y-102443193D01*
X156413791Y-102442701D01*
X156498522Y-102480896D01*
X156603500Y-102495814D01*
X157746500Y-102495814D01*
X157806217Y-102491052D01*
X157907504Y-102459685D01*
X157996043Y-102401343D01*
X158005710Y-102390000D01*
X158922538Y-102390000D01*
X159248186Y-102715648D01*
X159248186Y-103550000D01*
X159252948Y-103609717D01*
X159284315Y-103711004D01*
X159342657Y-103799543D01*
X159423357Y-103868322D01*
X159475000Y-103891601D01*
X159475000Y-106087397D01*
X159375000Y-106073186D01*
X158625000Y-106073186D01*
X158565283Y-106077948D01*
X158463996Y-106109315D01*
X158375457Y-106167657D01*
X158306678Y-106248357D01*
X158263104Y-106345022D01*
X158248186Y-106450000D01*
X158248186Y-106525000D01*
X157751814Y-106525000D01*
X157751814Y-106450000D01*
X157747052Y-106390283D01*
X157715685Y-106288996D01*
X157657343Y-106200457D01*
X157576643Y-106131678D01*
X157479978Y-106088104D01*
X157375000Y-106073186D01*
X156625000Y-106073186D01*
X156565283Y-106077948D01*
X156463996Y-106109315D01*
X156375457Y-106167657D01*
X156306678Y-106248357D01*
X156263104Y-106345022D01*
X156248186Y-106450000D01*
X156248186Y-107650000D01*
X156252948Y-107709717D01*
X156284315Y-107811004D01*
X156342657Y-107899543D01*
X156423357Y-107968322D01*
X156493812Y-108000081D01*
X156463996Y-108009315D01*
X156375457Y-108067657D01*
X156306678Y-108148357D01*
X156263104Y-108245022D01*
X156248186Y-108350000D01*
X156248186Y-108475000D01*
X155999820Y-108475000D01*
X155997052Y-108440283D01*
X155965685Y-108338996D01*
X155907343Y-108250457D01*
X155826643Y-108181678D01*
X155729978Y-108138104D01*
X155625000Y-108123186D01*
X154375000Y-108123186D01*
X154315283Y-108127948D01*
X154213996Y-108159315D01*
X154125457Y-108217657D01*
X154056678Y-108298357D01*
X154013104Y-108395022D01*
X153998186Y-108500000D01*
X153998186Y-109500000D01*
X154002948Y-109559717D01*
X154034315Y-109661004D01*
X154092657Y-109749543D01*
X154173357Y-109818322D01*
X154270022Y-109861896D01*
X154362235Y-109875000D01*
X153559807Y-109875000D01*
X153624543Y-109832343D01*
X153693322Y-109751643D01*
X153736896Y-109654978D01*
X153751814Y-109550000D01*
X153751814Y-108350000D01*
X153747052Y-108290283D01*
X153715685Y-108188996D01*
X153657343Y-108100457D01*
X153576643Y-108031678D01*
X153506188Y-107999919D01*
X153536004Y-107990685D01*
X153624543Y-107932343D01*
X153693322Y-107851643D01*
X153736896Y-107754978D01*
X153751814Y-107650000D01*
X153751814Y-106450000D01*
X153747052Y-106390283D01*
X153715685Y-106288996D01*
X153690971Y-106251491D01*
X154071231Y-105871231D01*
X154101979Y-105833797D01*
X154133185Y-105796608D01*
X154134518Y-105794183D01*
X154136266Y-105792055D01*
X154159150Y-105749377D01*
X154182546Y-105706820D01*
X154183381Y-105704188D01*
X154184685Y-105701756D01*
X154198875Y-105655344D01*
X154213527Y-105609154D01*
X154213834Y-105606415D01*
X154214643Y-105603770D01*
X154219549Y-105555469D01*
X154224949Y-105507330D01*
X154224987Y-105501936D01*
X154224997Y-105501833D01*
X154224988Y-105501737D01*
X154225000Y-105500000D01*
X154225000Y-103261500D01*
X154220268Y-103213245D01*
X154216041Y-103164925D01*
X154215270Y-103162272D01*
X154215001Y-103159527D01*
X154200987Y-103113109D01*
X154187455Y-103066532D01*
X154186186Y-103064083D01*
X154185387Y-103061438D01*
X154162593Y-103018568D01*
X154140302Y-102975565D01*
X154138582Y-102973411D01*
X154137284Y-102970969D01*
X154106602Y-102933350D01*
X154076378Y-102895488D01*
X154072591Y-102891649D01*
X154072525Y-102891567D01*
X154072449Y-102891505D01*
X154071231Y-102890269D01*
X152836072Y-101655110D01*
X152919691Y-101673495D01*
X152931276Y-101673738D01*
X154505013Y-103247475D01*
X154505013Y-106031938D01*
X154501115Y-106044687D01*
X154486473Y-106090846D01*
X154486166Y-106093584D01*
X154485357Y-106096230D01*
X154482619Y-106123186D01*
X154375000Y-106123186D01*
X154315283Y-106127948D01*
X154213996Y-106159315D01*
X154125457Y-106217657D01*
X154056678Y-106298357D01*
X154013104Y-106395022D01*
X153998186Y-106500000D01*
X153998186Y-107500000D01*
X154002948Y-107559717D01*
X154034315Y-107661004D01*
X154092657Y-107749543D01*
X154173357Y-107818322D01*
X154270022Y-107861896D01*
X154375000Y-107876814D01*
X155625000Y-107876814D01*
X155684717Y-107872052D01*
X155786004Y-107840685D01*
X155874543Y-107782343D01*
X155943322Y-107701643D01*
X155986896Y-107604978D01*
X156001814Y-107500000D01*
X156001814Y-106500000D01*
X155997052Y-106440283D01*
X155965685Y-106338996D01*
X155907343Y-106250457D01*
X155826643Y-106181678D01*
X155729978Y-106138104D01*
X155625000Y-106123186D01*
X155555013Y-106123186D01*
X155555013Y-104625750D01*
X156228500Y-104625750D01*
X156228500Y-104695934D01*
X156242911Y-104768383D01*
X156271179Y-104836629D01*
X156312218Y-104898048D01*
X156364451Y-104950281D01*
X156425871Y-104991321D01*
X156494116Y-105019589D01*
X156566565Y-105034000D01*
X156906250Y-105034000D01*
X157000000Y-104940250D01*
X157000000Y-104532000D01*
X157350000Y-104532000D01*
X157350000Y-104940250D01*
X157443750Y-105034000D01*
X157783435Y-105034000D01*
X157855884Y-105019589D01*
X157924129Y-104991321D01*
X157985549Y-104950281D01*
X158037782Y-104898048D01*
X158078821Y-104836629D01*
X158107089Y-104768383D01*
X158121500Y-104695934D01*
X158121500Y-104625750D01*
X158027750Y-104532000D01*
X157350000Y-104532000D01*
X157000000Y-104532000D01*
X156322250Y-104532000D01*
X156228500Y-104625750D01*
X155555013Y-104625750D01*
X155555013Y-104114066D01*
X156228500Y-104114066D01*
X156228500Y-104184250D01*
X156322250Y-104278000D01*
X157000000Y-104278000D01*
X157000000Y-103869750D01*
X157350000Y-103869750D01*
X157350000Y-104278000D01*
X158027750Y-104278000D01*
X158121500Y-104184250D01*
X158121500Y-104114066D01*
X158107089Y-104041617D01*
X158078821Y-103973371D01*
X158037782Y-103911952D01*
X157985549Y-103859719D01*
X157924129Y-103818679D01*
X157855884Y-103790411D01*
X157783435Y-103776000D01*
X157443750Y-103776000D01*
X157350000Y-103869750D01*
X157000000Y-103869750D01*
X156906250Y-103776000D01*
X156566565Y-103776000D01*
X156494116Y-103790411D01*
X156425871Y-103818679D01*
X156364451Y-103859719D01*
X156312218Y-103911952D01*
X156271179Y-103973371D01*
X156242911Y-104041617D01*
X156228500Y-104114066D01*
X155555013Y-104114066D01*
X155555013Y-103030013D01*
X155550281Y-102981758D01*
X155546054Y-102933438D01*
X155545283Y-102930785D01*
X155545014Y-102928040D01*
X155531000Y-102881622D01*
X155530820Y-102881000D01*
X156226686Y-102881000D01*
X156226686Y-103389000D01*
X156231448Y-103448717D01*
X156262815Y-103550004D01*
X156321157Y-103638543D01*
X156401857Y-103707322D01*
X156498522Y-103750896D01*
X156603500Y-103765814D01*
X157746500Y-103765814D01*
X157806217Y-103761052D01*
X157907504Y-103729685D01*
X157996043Y-103671343D01*
X158005710Y-103660000D01*
X158022954Y-103660000D01*
X158069101Y-103692073D01*
X158190404Y-103745069D01*
X158319691Y-103773495D01*
X158452036Y-103776267D01*
X158582399Y-103753280D01*
X158705815Y-103705411D01*
X158817582Y-103634481D01*
X158913444Y-103543193D01*
X158989749Y-103435024D01*
X159043590Y-103314094D01*
X159072918Y-103185009D01*
X159075029Y-103033813D01*
X159049317Y-102903960D01*
X158998873Y-102781573D01*
X158925618Y-102671316D01*
X158832343Y-102577387D01*
X158722600Y-102503364D01*
X158600569Y-102452067D01*
X158470898Y-102425450D01*
X158338527Y-102424525D01*
X158208497Y-102449330D01*
X158085762Y-102498918D01*
X157974996Y-102571402D01*
X157967264Y-102578974D01*
X157948143Y-102562678D01*
X157851478Y-102519104D01*
X157746500Y-102504186D01*
X156603500Y-102504186D01*
X156543783Y-102508948D01*
X156442496Y-102540315D01*
X156353957Y-102598657D01*
X156285178Y-102679357D01*
X156241604Y-102776022D01*
X156226686Y-102881000D01*
X155530820Y-102881000D01*
X155517468Y-102835045D01*
X155516199Y-102832596D01*
X155515400Y-102829951D01*
X155492606Y-102787081D01*
X155470315Y-102744078D01*
X155468595Y-102741924D01*
X155467297Y-102739482D01*
X155436615Y-102701863D01*
X155406391Y-102664001D01*
X155402604Y-102660162D01*
X155402538Y-102660080D01*
X155402462Y-102660018D01*
X155401244Y-102658782D01*
X153674721Y-100932259D01*
X153649317Y-100803960D01*
X153598873Y-100681573D01*
X153525618Y-100571316D01*
X153495284Y-100540770D01*
X153569101Y-100592073D01*
X153690404Y-100645069D01*
X153819691Y-100673495D01*
X153952036Y-100676267D01*
X154082399Y-100653280D01*
X154205815Y-100605411D01*
X154317582Y-100534481D01*
X154327914Y-100524642D01*
X154372469Y-100520273D01*
X154420839Y-100516042D01*
X154423497Y-100515270D01*
X154426237Y-100515001D01*
X154472614Y-100500999D01*
X154519232Y-100487455D01*
X154521681Y-100486186D01*
X154524326Y-100485387D01*
X154567196Y-100462593D01*
X154610199Y-100440302D01*
X154612353Y-100438582D01*
X154614795Y-100437284D01*
X154652414Y-100406602D01*
X154690276Y-100376378D01*
X154694115Y-100372591D01*
X154694197Y-100372525D01*
X154694259Y-100372449D01*
X154695495Y-100371231D01*
X154741726Y-100325000D01*
X155489616Y-100325000D01*
X155458058Y-100356558D01*
X155458058Y-100356558D01*
G37*
X155458058Y-100356558D02*
X155421399Y-100401188D01*
X155384304Y-100445396D01*
X155382721Y-100448275D01*
X155380635Y-100450815D01*
X155353379Y-100501647D01*
X155325540Y-100552286D01*
X155324544Y-100555424D01*
X155322994Y-100558316D01*
X155306119Y-100613510D01*
X155288658Y-100668555D01*
X155288292Y-100671817D01*
X155287330Y-100674964D01*
X155281492Y-100732437D01*
X155275061Y-100789774D01*
X155275016Y-100796199D01*
X155275004Y-100796318D01*
X155275014Y-100796429D01*
X155275000Y-100798500D01*
X155275000Y-101744710D01*
X155253483Y-101794913D01*
X155225961Y-101924394D01*
X155224113Y-102056756D01*
X155248009Y-102186955D01*
X155296739Y-102310034D01*
X155368447Y-102421303D01*
X155460402Y-102516526D01*
X155569101Y-102592073D01*
X155690404Y-102645069D01*
X155819691Y-102673495D01*
X155952036Y-102676267D01*
X156082399Y-102653280D01*
X156205815Y-102605411D01*
X156317582Y-102534481D01*
X156413444Y-102443193D01*
X156413791Y-102442701D01*
X156498522Y-102480896D01*
X156603500Y-102495814D01*
X157746500Y-102495814D01*
X157806217Y-102491052D01*
X157907504Y-102459685D01*
X157996043Y-102401343D01*
X158005710Y-102390000D01*
X158922538Y-102390000D01*
X159248186Y-102715648D01*
X159248186Y-103550000D01*
X159252948Y-103609717D01*
X159284315Y-103711004D01*
X159342657Y-103799543D01*
X159423357Y-103868322D01*
X159475000Y-103891601D01*
X159475000Y-106087397D01*
X159375000Y-106073186D01*
X158625000Y-106073186D01*
X158565283Y-106077948D01*
X158463996Y-106109315D01*
X158375457Y-106167657D01*
X158306678Y-106248357D01*
X158263104Y-106345022D01*
X158248186Y-106450000D01*
X158248186Y-106525000D01*
X157751814Y-106525000D01*
X157751814Y-106450000D01*
X157747052Y-106390283D01*
X157715685Y-106288996D01*
X157657343Y-106200457D01*
X157576643Y-106131678D01*
X157479978Y-106088104D01*
X157375000Y-106073186D01*
X156625000Y-106073186D01*
X156565283Y-106077948D01*
X156463996Y-106109315D01*
X156375457Y-106167657D01*
X156306678Y-106248357D01*
X156263104Y-106345022D01*
X156248186Y-106450000D01*
X156248186Y-107650000D01*
X156252948Y-107709717D01*
X156284315Y-107811004D01*
X156342657Y-107899543D01*
X156423357Y-107968322D01*
X156493812Y-108000081D01*
X156463996Y-108009315D01*
X156375457Y-108067657D01*
X156306678Y-108148357D01*
X156263104Y-108245022D01*
X156248186Y-108350000D01*
X156248186Y-108475000D01*
X155999820Y-108475000D01*
X155997052Y-108440283D01*
X155965685Y-108338996D01*
X155907343Y-108250457D01*
X155826643Y-108181678D01*
X155729978Y-108138104D01*
X155625000Y-108123186D01*
X154375000Y-108123186D01*
X154315283Y-108127948D01*
X154213996Y-108159315D01*
X154125457Y-108217657D01*
X154056678Y-108298357D01*
X154013104Y-108395022D01*
X153998186Y-108500000D01*
X153998186Y-109500000D01*
X154002948Y-109559717D01*
X154034315Y-109661004D01*
X154092657Y-109749543D01*
X154173357Y-109818322D01*
X154270022Y-109861896D01*
X154362235Y-109875000D01*
X153559807Y-109875000D01*
X153624543Y-109832343D01*
X153693322Y-109751643D01*
X153736896Y-109654978D01*
X153751814Y-109550000D01*
X153751814Y-108350000D01*
X153747052Y-108290283D01*
X153715685Y-108188996D01*
X153657343Y-108100457D01*
X153576643Y-108031678D01*
X153506188Y-107999919D01*
X153536004Y-107990685D01*
X153624543Y-107932343D01*
X153693322Y-107851643D01*
X153736896Y-107754978D01*
X153751814Y-107650000D01*
X153751814Y-106450000D01*
X153747052Y-106390283D01*
X153715685Y-106288996D01*
X153690971Y-106251491D01*
X154071231Y-105871231D01*
X154101979Y-105833797D01*
X154133185Y-105796608D01*
X154134518Y-105794183D01*
X154136266Y-105792055D01*
X154159150Y-105749377D01*
X154182546Y-105706820D01*
X154183381Y-105704188D01*
X154184685Y-105701756D01*
X154198875Y-105655344D01*
X154213527Y-105609154D01*
X154213834Y-105606415D01*
X154214643Y-105603770D01*
X154219549Y-105555469D01*
X154224949Y-105507330D01*
X154224987Y-105501936D01*
X154224997Y-105501833D01*
X154224988Y-105501737D01*
X154225000Y-105500000D01*
X154225000Y-103261500D01*
X154220268Y-103213245D01*
X154216041Y-103164925D01*
X154215270Y-103162272D01*
X154215001Y-103159527D01*
X154200987Y-103113109D01*
X154187455Y-103066532D01*
X154186186Y-103064083D01*
X154185387Y-103061438D01*
X154162593Y-103018568D01*
X154140302Y-102975565D01*
X154138582Y-102973411D01*
X154137284Y-102970969D01*
X154106602Y-102933350D01*
X154076378Y-102895488D01*
X154072591Y-102891649D01*
X154072525Y-102891567D01*
X154072449Y-102891505D01*
X154071231Y-102890269D01*
X152836072Y-101655110D01*
X152919691Y-101673495D01*
X152931276Y-101673738D01*
X154505013Y-103247475D01*
X154505013Y-106031938D01*
X154501115Y-106044687D01*
X154486473Y-106090846D01*
X154486166Y-106093584D01*
X154485357Y-106096230D01*
X154482619Y-106123186D01*
X154375000Y-106123186D01*
X154315283Y-106127948D01*
X154213996Y-106159315D01*
X154125457Y-106217657D01*
X154056678Y-106298357D01*
X154013104Y-106395022D01*
X153998186Y-106500000D01*
X153998186Y-107500000D01*
X154002948Y-107559717D01*
X154034315Y-107661004D01*
X154092657Y-107749543D01*
X154173357Y-107818322D01*
X154270022Y-107861896D01*
X154375000Y-107876814D01*
X155625000Y-107876814D01*
X155684717Y-107872052D01*
X155786004Y-107840685D01*
X155874543Y-107782343D01*
X155943322Y-107701643D01*
X155986896Y-107604978D01*
X156001814Y-107500000D01*
X156001814Y-106500000D01*
X155997052Y-106440283D01*
X155965685Y-106338996D01*
X155907343Y-106250457D01*
X155826643Y-106181678D01*
X155729978Y-106138104D01*
X155625000Y-106123186D01*
X155555013Y-106123186D01*
X155555013Y-104625750D01*
X156228500Y-104625750D01*
X156228500Y-104695934D01*
X156242911Y-104768383D01*
X156271179Y-104836629D01*
X156312218Y-104898048D01*
X156364451Y-104950281D01*
X156425871Y-104991321D01*
X156494116Y-105019589D01*
X156566565Y-105034000D01*
X156906250Y-105034000D01*
X157000000Y-104940250D01*
X157000000Y-104532000D01*
X157350000Y-104532000D01*
X157350000Y-104940250D01*
X157443750Y-105034000D01*
X157783435Y-105034000D01*
X157855884Y-105019589D01*
X157924129Y-104991321D01*
X157985549Y-104950281D01*
X158037782Y-104898048D01*
X158078821Y-104836629D01*
X158107089Y-104768383D01*
X158121500Y-104695934D01*
X158121500Y-104625750D01*
X158027750Y-104532000D01*
X157350000Y-104532000D01*
X157000000Y-104532000D01*
X156322250Y-104532000D01*
X156228500Y-104625750D01*
X155555013Y-104625750D01*
X155555013Y-104114066D01*
X156228500Y-104114066D01*
X156228500Y-104184250D01*
X156322250Y-104278000D01*
X157000000Y-104278000D01*
X157000000Y-103869750D01*
X157350000Y-103869750D01*
X157350000Y-104278000D01*
X158027750Y-104278000D01*
X158121500Y-104184250D01*
X158121500Y-104114066D01*
X158107089Y-104041617D01*
X158078821Y-103973371D01*
X158037782Y-103911952D01*
X157985549Y-103859719D01*
X157924129Y-103818679D01*
X157855884Y-103790411D01*
X157783435Y-103776000D01*
X157443750Y-103776000D01*
X157350000Y-103869750D01*
X157000000Y-103869750D01*
X156906250Y-103776000D01*
X156566565Y-103776000D01*
X156494116Y-103790411D01*
X156425871Y-103818679D01*
X156364451Y-103859719D01*
X156312218Y-103911952D01*
X156271179Y-103973371D01*
X156242911Y-104041617D01*
X156228500Y-104114066D01*
X155555013Y-104114066D01*
X155555013Y-103030013D01*
X155550281Y-102981758D01*
X155546054Y-102933438D01*
X155545283Y-102930785D01*
X155545014Y-102928040D01*
X155531000Y-102881622D01*
X155530820Y-102881000D01*
X156226686Y-102881000D01*
X156226686Y-103389000D01*
X156231448Y-103448717D01*
X156262815Y-103550004D01*
X156321157Y-103638543D01*
X156401857Y-103707322D01*
X156498522Y-103750896D01*
X156603500Y-103765814D01*
X157746500Y-103765814D01*
X157806217Y-103761052D01*
X157907504Y-103729685D01*
X157996043Y-103671343D01*
X158005710Y-103660000D01*
X158022954Y-103660000D01*
X158069101Y-103692073D01*
X158190404Y-103745069D01*
X158319691Y-103773495D01*
X158452036Y-103776267D01*
X158582399Y-103753280D01*
X158705815Y-103705411D01*
X158817582Y-103634481D01*
X158913444Y-103543193D01*
X158989749Y-103435024D01*
X159043590Y-103314094D01*
X159072918Y-103185009D01*
X159075029Y-103033813D01*
X159049317Y-102903960D01*
X158998873Y-102781573D01*
X158925618Y-102671316D01*
X158832343Y-102577387D01*
X158722600Y-102503364D01*
X158600569Y-102452067D01*
X158470898Y-102425450D01*
X158338527Y-102424525D01*
X158208497Y-102449330D01*
X158085762Y-102498918D01*
X157974996Y-102571402D01*
X157967264Y-102578974D01*
X157948143Y-102562678D01*
X157851478Y-102519104D01*
X157746500Y-102504186D01*
X156603500Y-102504186D01*
X156543783Y-102508948D01*
X156442496Y-102540315D01*
X156353957Y-102598657D01*
X156285178Y-102679357D01*
X156241604Y-102776022D01*
X156226686Y-102881000D01*
X155530820Y-102881000D01*
X155517468Y-102835045D01*
X155516199Y-102832596D01*
X155515400Y-102829951D01*
X155492606Y-102787081D01*
X155470315Y-102744078D01*
X155468595Y-102741924D01*
X155467297Y-102739482D01*
X155436615Y-102701863D01*
X155406391Y-102664001D01*
X155402604Y-102660162D01*
X155402538Y-102660080D01*
X155402462Y-102660018D01*
X155401244Y-102658782D01*
X153674721Y-100932259D01*
X153649317Y-100803960D01*
X153598873Y-100681573D01*
X153525618Y-100571316D01*
X153495284Y-100540770D01*
X153569101Y-100592073D01*
X153690404Y-100645069D01*
X153819691Y-100673495D01*
X153952036Y-100676267D01*
X154082399Y-100653280D01*
X154205815Y-100605411D01*
X154317582Y-100534481D01*
X154327914Y-100524642D01*
X154372469Y-100520273D01*
X154420839Y-100516042D01*
X154423497Y-100515270D01*
X154426237Y-100515001D01*
X154472614Y-100500999D01*
X154519232Y-100487455D01*
X154521681Y-100486186D01*
X154524326Y-100485387D01*
X154567196Y-100462593D01*
X154610199Y-100440302D01*
X154612353Y-100438582D01*
X154614795Y-100437284D01*
X154652414Y-100406602D01*
X154690276Y-100376378D01*
X154694115Y-100372591D01*
X154694197Y-100372525D01*
X154694259Y-100372449D01*
X154695495Y-100371231D01*
X154741726Y-100325000D01*
X155489616Y-100325000D01*
X155458058Y-100356558D01*
M02*
