G04 #@! TF.FileFunction,Paste,Top*
%FSLAX46Y46*%
G04 Gerber Fmt 4.6, Leading zero omitted, Abs format (unit mm)*
G04 Created by KiCad (PCBNEW 4.0.4-1.fc24-product) date Tue Jun 12 10:10:09 2018*
%MOMM*%
%LPD*%
G01*
G04 APERTURE LIST*
%ADD10C,0.100000*%
%ADD11R,1.600000X1.000000*%
%ADD12R,1.250000X1.000000*%
%ADD13R,0.750000X1.200000*%
%ADD14R,1.143000X0.508000*%
G04 APERTURE END LIST*
D10*
D11*
X161600000Y-92800000D03*
X161600000Y-89800000D03*
D12*
X152000000Y-108000000D03*
X152000000Y-110000000D03*
D13*
X158000000Y-108050000D03*
X158000000Y-109950000D03*
X163900000Y-104950000D03*
X163900000Y-103050000D03*
X161100000Y-104950000D03*
X161100000Y-103050000D03*
X154000000Y-109950000D03*
X154000000Y-108050000D03*
X156000000Y-108050000D03*
X156000000Y-109950000D03*
X152000000Y-98950000D03*
X152000000Y-97050000D03*
X164000000Y-108050000D03*
X164000000Y-109950000D03*
X161000000Y-97050000D03*
X161000000Y-98950000D03*
X164000000Y-97050000D03*
X164000000Y-98950000D03*
X166100000Y-97050000D03*
X166100000Y-98950000D03*
X158000000Y-98950000D03*
X158000000Y-97050000D03*
D14*
X158175000Y-101595000D03*
X158175000Y-102865000D03*
X158175000Y-104135000D03*
X158175000Y-105405000D03*
X151825000Y-105405000D03*
X151825000Y-104135000D03*
X151825000Y-102865000D03*
X151825000Y-101595000D03*
D12*
X166000000Y-103000000D03*
X166000000Y-105000000D03*
X156000000Y-99000000D03*
X156000000Y-97000000D03*
X154000000Y-99000000D03*
X154000000Y-97000000D03*
X161000000Y-109950000D03*
X161000000Y-107950000D03*
M02*
