G04 #@! TF.FileFunction,Copper,L1,Top,Signal*
%FSLAX46Y46*%
G04 Gerber Fmt 4.6, Leading zero omitted, Abs format (unit mm)*
G04 Created by KiCad (PCBNEW 4.0.4-1.fc24-product) date Tue Jun 12 10:10:09 2018*
%MOMM*%
%LPD*%
G01*
G04 APERTURE LIST*
%ADD10C,0.100000*%
%ADD11R,1.700000X1.700000*%
%ADD12O,1.700000X1.700000*%
%ADD13R,1.600000X1.000000*%
%ADD14C,1.800000*%
%ADD15R,1.250000X1.000000*%
%ADD16R,0.750000X1.200000*%
%ADD17R,1.143000X0.508000*%
%ADD18C,0.600000*%
%ADD19C,0.300000*%
%ADD20C,0.500000*%
G04 APERTURE END LIST*
D10*
D11*
X165000000Y-90000000D03*
D12*
X165000000Y-92540000D03*
D11*
X148000000Y-108500000D03*
D12*
X148000000Y-105960000D03*
X148000000Y-103420000D03*
X148000000Y-100880000D03*
X148000000Y-98340000D03*
D13*
X161600000Y-92800000D03*
X161600000Y-89800000D03*
D14*
X158700000Y-89900000D03*
X153700000Y-89900000D03*
X148700000Y-89900000D03*
D15*
X152000000Y-108000000D03*
X152000000Y-110000000D03*
D16*
X158000000Y-108050000D03*
X158000000Y-109950000D03*
X163900000Y-104950000D03*
X163900000Y-103050000D03*
X161100000Y-104950000D03*
X161100000Y-103050000D03*
X154000000Y-109950000D03*
X154000000Y-108050000D03*
X156000000Y-108050000D03*
X156000000Y-109950000D03*
X152000000Y-98950000D03*
X152000000Y-97050000D03*
X164000000Y-108050000D03*
X164000000Y-109950000D03*
X161000000Y-97050000D03*
X161000000Y-98950000D03*
X164000000Y-97050000D03*
X164000000Y-98950000D03*
X166100000Y-97050000D03*
X166100000Y-98950000D03*
X158000000Y-98950000D03*
X158000000Y-97050000D03*
D17*
X158175000Y-101595000D03*
X158175000Y-102865000D03*
X158175000Y-104135000D03*
X158175000Y-105405000D03*
X151825000Y-105405000D03*
X151825000Y-104135000D03*
X151825000Y-102865000D03*
X151825000Y-101595000D03*
D15*
X166000000Y-103000000D03*
X166000000Y-105000000D03*
X156000000Y-99000000D03*
X156000000Y-97000000D03*
X154000000Y-99000000D03*
X154000000Y-97000000D03*
X161000000Y-109950000D03*
X161000000Y-107950000D03*
D18*
X153000004Y-105400000D03*
X166000000Y-105999998D03*
X156600000Y-102200000D03*
X162600000Y-104300000D03*
X161000000Y-100300000D03*
X155800000Y-100300002D03*
X153000000Y-100300000D03*
X154199998Y-104200000D03*
X162300000Y-109000000D03*
D19*
X149459998Y-104859998D02*
X149459998Y-105945214D01*
X149459998Y-105945214D02*
X150600000Y-107085216D01*
X148000000Y-103400000D02*
X149459998Y-104859998D01*
X150600000Y-107085216D02*
X150600000Y-108725000D01*
X150600000Y-108725000D02*
X151875000Y-110000000D01*
X151875000Y-110000000D02*
X152000000Y-110000000D01*
X152000000Y-97050000D02*
X152550000Y-97050000D01*
X152550000Y-97050000D02*
X152900000Y-97400000D01*
X152900000Y-97400000D02*
X152900000Y-98800000D01*
X152900000Y-98800000D02*
X153100000Y-99000000D01*
X153100000Y-99000000D02*
X154000000Y-99000000D01*
X154000000Y-99000000D02*
X153800000Y-99200000D01*
X153800000Y-99200000D02*
X153800000Y-101595000D01*
X153800000Y-101595000D02*
X153295000Y-101595000D01*
X156000000Y-108050000D02*
X156000000Y-103800000D01*
X156000000Y-103800000D02*
X153795000Y-101595000D01*
X153795000Y-101595000D02*
X153295000Y-101595000D01*
X158000000Y-108050000D02*
X156000000Y-108050000D01*
X153295000Y-101595000D02*
X151825000Y-101595000D01*
X155000000Y-109950000D02*
X155000000Y-103700000D01*
X155000000Y-103700000D02*
X154165000Y-102865000D01*
X154165000Y-102865000D02*
X152696500Y-102865000D01*
X152696500Y-102865000D02*
X151825000Y-102865000D01*
X155000000Y-109950000D02*
X156000000Y-109950000D01*
X154000000Y-109950000D02*
X155000000Y-109950000D01*
X156000000Y-109950000D02*
X158000000Y-109950000D01*
X161000000Y-109950000D02*
X164000000Y-109950000D01*
X163750000Y-110200000D02*
X164000000Y-109950000D01*
X158700000Y-89900000D02*
X157200000Y-91400000D01*
X154240001Y-97940001D02*
X154000000Y-97700000D01*
X157200000Y-91400000D02*
X157200000Y-96082998D01*
X157184999Y-96097999D02*
X157184999Y-97615001D01*
X157200000Y-96082998D02*
X157184999Y-96097999D01*
X157184999Y-97615001D02*
X156859999Y-97940001D01*
X156859999Y-97940001D02*
X154240001Y-97940001D01*
X154000000Y-97700000D02*
X154000000Y-97000000D01*
X166100000Y-98950000D02*
X166100000Y-102900000D01*
X166100000Y-102900000D02*
X166000000Y-103000000D01*
X152995004Y-105405000D02*
X153000004Y-105400000D01*
X151825000Y-105405000D02*
X152995004Y-105405000D01*
X166000000Y-105000000D02*
X166000000Y-105999998D01*
D20*
X157103500Y-101595000D02*
X156600000Y-102098500D01*
X156600000Y-102098500D02*
X156600000Y-102200000D01*
X158175000Y-101595000D02*
X157103500Y-101595000D01*
D19*
X162600000Y-104325000D02*
X162600000Y-104300000D01*
X163225000Y-104950000D02*
X162600000Y-104325000D01*
X163900000Y-104950000D02*
X163225000Y-104950000D01*
X161000000Y-98950000D02*
X161000000Y-100300000D01*
X158175000Y-104135000D02*
X157303500Y-104135000D01*
X157303500Y-104135000D02*
X155800000Y-102631500D01*
X155800000Y-100724266D02*
X155800000Y-100300002D01*
X155800000Y-102631500D02*
X155800000Y-100724266D01*
X152000000Y-98950000D02*
X152000000Y-99800000D01*
X152000000Y-99800000D02*
X152500000Y-100300000D01*
X152500000Y-100300000D02*
X153000000Y-100300000D01*
X158175000Y-104135000D02*
X159235000Y-104135000D01*
X159235000Y-104135000D02*
X160050000Y-104950000D01*
X160050000Y-104950000D02*
X161100000Y-104950000D01*
X156000000Y-99000000D02*
X157950000Y-99000000D01*
X157950000Y-99000000D02*
X158000000Y-98950000D01*
X152000000Y-108000000D02*
X153950000Y-108000000D01*
X153950000Y-108000000D02*
X154000000Y-108050000D01*
X148640000Y-100460000D02*
X148800000Y-100300000D01*
X148800000Y-100300000D02*
X150000000Y-99100000D01*
X148000000Y-100880000D02*
X148220000Y-100880000D01*
X148220000Y-100880000D02*
X148800000Y-100300000D01*
X150000000Y-99100000D02*
X150000000Y-96700000D01*
X150000000Y-96700000D02*
X151100000Y-95600000D01*
X151100000Y-95600000D02*
X155600000Y-95600000D01*
X155600000Y-95600000D02*
X156000000Y-96000000D01*
X156000000Y-96000000D02*
X156000000Y-97000000D01*
X148000000Y-105900000D02*
X150000000Y-107900000D01*
X150000000Y-107900000D02*
X150000000Y-109917002D01*
X150000000Y-109917002D02*
X151382998Y-111300000D01*
X159300000Y-108400000D02*
X159750000Y-107950000D01*
X151382998Y-111300000D02*
X158417002Y-111300000D01*
X158417002Y-111300000D02*
X159300000Y-110417002D01*
X159300000Y-110417002D02*
X159300000Y-108400000D01*
X159750000Y-107950000D02*
X161000000Y-107950000D01*
X161600000Y-89800000D02*
X164800000Y-89800000D01*
X164800000Y-89800000D02*
X165000000Y-90000000D01*
X159600000Y-97050000D02*
X159600000Y-92600000D01*
X159600000Y-92600000D02*
X161600000Y-90600000D01*
X161600000Y-90600000D02*
X161600000Y-89800000D01*
X161100000Y-103050000D02*
X161100000Y-102150000D01*
X161100000Y-102150000D02*
X161650000Y-101600000D01*
X161650000Y-101600000D02*
X163350000Y-101600000D01*
X163350000Y-101600000D02*
X163900000Y-102150000D01*
X163900000Y-102150000D02*
X163900000Y-103050000D01*
X159600000Y-102865000D02*
X159600000Y-97050000D01*
X159600000Y-97050000D02*
X158000000Y-97050000D01*
X159600000Y-102865000D02*
X160915000Y-102865000D01*
X158175000Y-102865000D02*
X159600000Y-102865000D01*
X160915000Y-102865000D02*
X161100000Y-103050000D01*
X161600000Y-92800000D02*
X161800000Y-92600000D01*
X161800000Y-92600000D02*
X164940000Y-92600000D01*
X164940000Y-92600000D02*
X165000000Y-92540000D01*
X164000000Y-95400000D02*
X165000000Y-94400000D01*
X165000000Y-94400000D02*
X165000000Y-92540000D01*
X164000000Y-97050000D02*
X164000000Y-95400000D01*
X166100000Y-97050000D02*
X166200000Y-96950000D01*
X164000000Y-97050000D02*
X166100000Y-97050000D01*
X161000000Y-97050000D02*
X161550000Y-97050000D01*
X161550000Y-97050000D02*
X163450000Y-98950000D01*
X163450000Y-98950000D02*
X164000000Y-98950000D01*
X164000000Y-107150000D02*
X164800000Y-106350000D01*
X164000000Y-108050000D02*
X164000000Y-107150000D01*
X164800000Y-106350000D02*
X164800000Y-101200000D01*
X164800000Y-101200000D02*
X164000000Y-100400000D01*
X164000000Y-100400000D02*
X164000000Y-98950000D01*
G36*
X167475000Y-111475000D02*
X159090530Y-111475000D01*
X159724264Y-110841266D01*
X159854328Y-110646612D01*
X159900000Y-110417002D01*
X159900000Y-108648528D01*
X159945061Y-108603467D01*
X159947562Y-108616760D01*
X160046117Y-108769919D01*
X160196495Y-108872668D01*
X160375000Y-108908816D01*
X161625000Y-108908816D01*
X161791760Y-108877438D01*
X161944919Y-108778883D01*
X162047668Y-108628505D01*
X162083816Y-108450000D01*
X162083816Y-107450000D01*
X162052438Y-107283240D01*
X161953883Y-107130081D01*
X161803505Y-107027332D01*
X161625000Y-106991184D01*
X160375000Y-106991184D01*
X160208240Y-107022562D01*
X160055081Y-107121117D01*
X159952332Y-107271495D01*
X159936434Y-107350000D01*
X159750000Y-107350000D01*
X159520390Y-107395672D01*
X159325736Y-107525736D01*
X158875736Y-107975736D01*
X158833816Y-108038474D01*
X158833816Y-107450000D01*
X158802438Y-107283240D01*
X158703883Y-107130081D01*
X158553505Y-107027332D01*
X158375000Y-106991184D01*
X157625000Y-106991184D01*
X157458240Y-107022562D01*
X157305081Y-107121117D01*
X157202332Y-107271495D01*
X157166184Y-107450000D01*
X156833816Y-107450000D01*
X156802438Y-107283240D01*
X156703883Y-107130081D01*
X156600000Y-107059101D01*
X156600000Y-105644500D01*
X157153500Y-105644500D01*
X157153500Y-105748511D01*
X157222009Y-105913905D01*
X157348596Y-106040492D01*
X157513990Y-106109000D01*
X157912500Y-106109000D01*
X158025000Y-105996500D01*
X158025000Y-105532000D01*
X158325000Y-105532000D01*
X158325000Y-105996500D01*
X158437500Y-106109000D01*
X158836010Y-106109000D01*
X159001404Y-106040492D01*
X159127991Y-105913905D01*
X159196500Y-105748511D01*
X159196500Y-105644500D01*
X159084000Y-105532000D01*
X158325000Y-105532000D01*
X158025000Y-105532000D01*
X157266000Y-105532000D01*
X157153500Y-105644500D01*
X156600000Y-105644500D01*
X156600000Y-104280028D01*
X156879236Y-104559264D01*
X157073890Y-104689328D01*
X157303500Y-104735000D01*
X157312788Y-104735000D01*
X157357745Y-104765718D01*
X157348596Y-104769508D01*
X157222009Y-104896095D01*
X157153500Y-105061489D01*
X157153500Y-105165500D01*
X157266000Y-105278000D01*
X158025000Y-105278000D01*
X158025000Y-105235000D01*
X158325000Y-105235000D01*
X158325000Y-105278000D01*
X159084000Y-105278000D01*
X159196500Y-105165500D01*
X159196500Y-105061489D01*
X159127991Y-104896095D01*
X159001404Y-104769508D01*
X158992149Y-104765674D01*
X159007359Y-104755887D01*
X159625736Y-105374264D01*
X159820390Y-105504328D01*
X160050000Y-105550000D01*
X160266184Y-105550000D01*
X160297562Y-105716760D01*
X160396117Y-105869919D01*
X160546495Y-105972668D01*
X160725000Y-106008816D01*
X161475000Y-106008816D01*
X161641760Y-105977438D01*
X161794919Y-105878883D01*
X161897668Y-105728505D01*
X161933816Y-105550000D01*
X161933816Y-104651693D01*
X161963811Y-104724286D01*
X162174605Y-104935448D01*
X162450161Y-105049869D01*
X162476364Y-105049892D01*
X162800736Y-105374264D01*
X162995389Y-105504328D01*
X163066184Y-105518410D01*
X163066184Y-105550000D01*
X163097562Y-105716760D01*
X163196117Y-105869919D01*
X163346495Y-105972668D01*
X163525000Y-106008816D01*
X164200000Y-106008816D01*
X164200000Y-106101472D01*
X163575736Y-106725736D01*
X163445672Y-106920390D01*
X163420521Y-107046834D01*
X163305081Y-107121117D01*
X163202332Y-107271495D01*
X163166184Y-107450000D01*
X163166184Y-108650000D01*
X163197562Y-108816760D01*
X163296117Y-108969919D01*
X163339054Y-108999256D01*
X163305081Y-109021117D01*
X163202332Y-109171495D01*
X163166184Y-109350000D01*
X162065000Y-109350000D01*
X162052438Y-109283240D01*
X161953883Y-109130081D01*
X161803505Y-109027332D01*
X161625000Y-108991184D01*
X160375000Y-108991184D01*
X160208240Y-109022562D01*
X160055081Y-109121117D01*
X159952332Y-109271495D01*
X159916184Y-109450000D01*
X159916184Y-110450000D01*
X159947562Y-110616760D01*
X160046117Y-110769919D01*
X160196495Y-110872668D01*
X160375000Y-110908816D01*
X161625000Y-110908816D01*
X161791760Y-110877438D01*
X161944919Y-110778883D01*
X162047668Y-110628505D01*
X162063566Y-110550000D01*
X163166184Y-110550000D01*
X163197562Y-110716760D01*
X163296117Y-110869919D01*
X163446495Y-110972668D01*
X163625000Y-111008816D01*
X164375000Y-111008816D01*
X164541760Y-110977438D01*
X164694919Y-110878883D01*
X164797668Y-110728505D01*
X164833816Y-110550000D01*
X164833816Y-109350000D01*
X164802438Y-109183240D01*
X164703883Y-109030081D01*
X164660946Y-109000744D01*
X164694919Y-108978883D01*
X164797668Y-108828505D01*
X164833816Y-108650000D01*
X164833816Y-107450000D01*
X164802438Y-107283240D01*
X164768316Y-107230212D01*
X165224264Y-106774264D01*
X165354328Y-106579610D01*
X165381666Y-106442170D01*
X165574605Y-106635446D01*
X165850161Y-106749867D01*
X166148530Y-106750128D01*
X166424286Y-106636187D01*
X166635448Y-106425393D01*
X166749869Y-106149837D01*
X166750057Y-105935285D01*
X166791760Y-105927438D01*
X166944919Y-105828883D01*
X167047668Y-105678505D01*
X167083816Y-105500000D01*
X167083816Y-104500000D01*
X167052438Y-104333240D01*
X166953883Y-104180081D01*
X166803505Y-104077332D01*
X166625000Y-104041184D01*
X165400000Y-104041184D01*
X165400000Y-103958816D01*
X166625000Y-103958816D01*
X166791760Y-103927438D01*
X166944919Y-103828883D01*
X167047668Y-103678505D01*
X167083816Y-103500000D01*
X167083816Y-102500000D01*
X167052438Y-102333240D01*
X166953883Y-102180081D01*
X166803505Y-102077332D01*
X166700000Y-102056372D01*
X166700000Y-99939962D01*
X166794919Y-99878883D01*
X166897668Y-99728505D01*
X166933816Y-99550000D01*
X166933816Y-98350000D01*
X166902438Y-98183240D01*
X166803883Y-98030081D01*
X166760946Y-98000744D01*
X166794919Y-97978883D01*
X166897668Y-97828505D01*
X166933816Y-97650000D01*
X166933816Y-96450000D01*
X166902438Y-96283240D01*
X166803883Y-96130081D01*
X166653505Y-96027332D01*
X166475000Y-95991184D01*
X165725000Y-95991184D01*
X165558240Y-96022562D01*
X165405081Y-96121117D01*
X165302332Y-96271495D01*
X165266184Y-96450000D01*
X164833816Y-96450000D01*
X164802438Y-96283240D01*
X164703883Y-96130081D01*
X164600000Y-96059101D01*
X164600000Y-95648528D01*
X165424264Y-94824264D01*
X165554328Y-94629610D01*
X165600000Y-94400000D01*
X165600000Y-93698016D01*
X165919239Y-93484708D01*
X166201043Y-93062957D01*
X166300000Y-92565469D01*
X166300000Y-92514531D01*
X166201043Y-92017043D01*
X165919239Y-91595292D01*
X165497488Y-91313488D01*
X165474000Y-91308816D01*
X165850000Y-91308816D01*
X166016760Y-91277438D01*
X166169919Y-91178883D01*
X166272668Y-91028505D01*
X166308816Y-90850000D01*
X166308816Y-89150000D01*
X166277438Y-88983240D01*
X166178883Y-88830081D01*
X166028505Y-88727332D01*
X165850000Y-88691184D01*
X164150000Y-88691184D01*
X163983240Y-88722562D01*
X163830081Y-88821117D01*
X163727332Y-88971495D01*
X163691184Y-89150000D01*
X163691184Y-89200000D01*
X162840000Y-89200000D01*
X162827438Y-89133240D01*
X162728883Y-88980081D01*
X162578505Y-88877332D01*
X162400000Y-88841184D01*
X160800000Y-88841184D01*
X160633240Y-88872562D01*
X160480081Y-88971117D01*
X160377332Y-89121495D01*
X160341184Y-89300000D01*
X160341184Y-90300000D01*
X160372562Y-90466760D01*
X160471117Y-90619919D01*
X160621495Y-90722668D01*
X160627573Y-90723899D01*
X159175736Y-92175736D01*
X159045672Y-92370390D01*
X159000000Y-92600000D01*
X159000000Y-96450000D01*
X158833816Y-96450000D01*
X158802438Y-96283240D01*
X158703883Y-96130081D01*
X158553505Y-96027332D01*
X158375000Y-95991184D01*
X157800000Y-95991184D01*
X157800000Y-91648528D01*
X158266694Y-91181834D01*
X158430290Y-91249765D01*
X158967353Y-91250234D01*
X159463715Y-91045142D01*
X159843807Y-90665712D01*
X160049765Y-90169710D01*
X160050234Y-89632647D01*
X159845142Y-89136285D01*
X159465712Y-88756193D01*
X158969710Y-88550235D01*
X158432647Y-88549766D01*
X157936285Y-88754858D01*
X157556193Y-89134288D01*
X157350235Y-89630290D01*
X157349766Y-90167353D01*
X157418286Y-90333186D01*
X156775736Y-90975736D01*
X156645672Y-91170390D01*
X156600000Y-91400000D01*
X156600000Y-96000000D01*
X156554328Y-95770390D01*
X156554328Y-95770389D01*
X156424264Y-95575736D01*
X156024264Y-95175736D01*
X155829610Y-95045672D01*
X155600000Y-95000000D01*
X151100000Y-95000000D01*
X150870390Y-95045672D01*
X150675736Y-95175736D01*
X149575736Y-96275736D01*
X149445672Y-96470390D01*
X149400000Y-96700000D01*
X149400000Y-98851472D01*
X148552665Y-99698807D01*
X148522957Y-99678957D01*
X148176288Y-99610000D01*
X148522957Y-99541043D01*
X148944708Y-99259239D01*
X149226512Y-98837488D01*
X149325469Y-98340000D01*
X149226512Y-97842512D01*
X148944708Y-97420761D01*
X148522957Y-97138957D01*
X148025469Y-97040000D01*
X147974531Y-97040000D01*
X147477043Y-97138957D01*
X147055292Y-97420761D01*
X146773488Y-97842512D01*
X146674531Y-98340000D01*
X146773488Y-98837488D01*
X147055292Y-99259239D01*
X147477043Y-99541043D01*
X147823712Y-99610000D01*
X147477043Y-99678957D01*
X147055292Y-99960761D01*
X146773488Y-100382512D01*
X146674531Y-100880000D01*
X146773488Y-101377488D01*
X147055292Y-101799239D01*
X147477043Y-102081043D01*
X147823712Y-102150000D01*
X147477043Y-102218957D01*
X147055292Y-102500761D01*
X146773488Y-102922512D01*
X146674531Y-103420000D01*
X146773488Y-103917488D01*
X147055292Y-104339239D01*
X147477043Y-104621043D01*
X147823712Y-104690000D01*
X147477043Y-104758957D01*
X147055292Y-105040761D01*
X146773488Y-105462512D01*
X146674531Y-105960000D01*
X146773488Y-106457488D01*
X147055292Y-106879239D01*
X147477043Y-107161043D01*
X147628571Y-107191184D01*
X147150000Y-107191184D01*
X146983240Y-107222562D01*
X146830081Y-107321117D01*
X146727332Y-107471495D01*
X146691184Y-107650000D01*
X146691184Y-109350000D01*
X146722562Y-109516760D01*
X146821117Y-109669919D01*
X146971495Y-109772668D01*
X147150000Y-109808816D01*
X148850000Y-109808816D01*
X149016760Y-109777438D01*
X149169919Y-109678883D01*
X149272668Y-109528505D01*
X149308816Y-109350000D01*
X149308816Y-108057344D01*
X149400000Y-108148528D01*
X149400000Y-109917002D01*
X149445672Y-110146612D01*
X149575736Y-110341266D01*
X150709470Y-111475000D01*
X145525000Y-111475000D01*
X145525000Y-90167353D01*
X147349766Y-90167353D01*
X147554858Y-90663715D01*
X147934288Y-91043807D01*
X148430290Y-91249765D01*
X148967353Y-91250234D01*
X149463715Y-91045142D01*
X149843807Y-90665712D01*
X150049765Y-90169710D01*
X150049767Y-90167353D01*
X152349766Y-90167353D01*
X152554858Y-90663715D01*
X152934288Y-91043807D01*
X153430290Y-91249765D01*
X153967353Y-91250234D01*
X154463715Y-91045142D01*
X154843807Y-90665712D01*
X155049765Y-90169710D01*
X155050234Y-89632647D01*
X154845142Y-89136285D01*
X154465712Y-88756193D01*
X153969710Y-88550235D01*
X153432647Y-88549766D01*
X152936285Y-88754858D01*
X152556193Y-89134288D01*
X152350235Y-89630290D01*
X152349766Y-90167353D01*
X150049767Y-90167353D01*
X150050234Y-89632647D01*
X149845142Y-89136285D01*
X149465712Y-88756193D01*
X148969710Y-88550235D01*
X148432647Y-88549766D01*
X147936285Y-88754858D01*
X147556193Y-89134288D01*
X147350235Y-89630290D01*
X147349766Y-90167353D01*
X145525000Y-90167353D01*
X145525000Y-86525000D01*
X167475000Y-86525000D01*
X167475000Y-111475000D01*
X167475000Y-111475000D01*
G37*
X167475000Y-111475000D02*
X159090530Y-111475000D01*
X159724264Y-110841266D01*
X159854328Y-110646612D01*
X159900000Y-110417002D01*
X159900000Y-108648528D01*
X159945061Y-108603467D01*
X159947562Y-108616760D01*
X160046117Y-108769919D01*
X160196495Y-108872668D01*
X160375000Y-108908816D01*
X161625000Y-108908816D01*
X161791760Y-108877438D01*
X161944919Y-108778883D01*
X162047668Y-108628505D01*
X162083816Y-108450000D01*
X162083816Y-107450000D01*
X162052438Y-107283240D01*
X161953883Y-107130081D01*
X161803505Y-107027332D01*
X161625000Y-106991184D01*
X160375000Y-106991184D01*
X160208240Y-107022562D01*
X160055081Y-107121117D01*
X159952332Y-107271495D01*
X159936434Y-107350000D01*
X159750000Y-107350000D01*
X159520390Y-107395672D01*
X159325736Y-107525736D01*
X158875736Y-107975736D01*
X158833816Y-108038474D01*
X158833816Y-107450000D01*
X158802438Y-107283240D01*
X158703883Y-107130081D01*
X158553505Y-107027332D01*
X158375000Y-106991184D01*
X157625000Y-106991184D01*
X157458240Y-107022562D01*
X157305081Y-107121117D01*
X157202332Y-107271495D01*
X157166184Y-107450000D01*
X156833816Y-107450000D01*
X156802438Y-107283240D01*
X156703883Y-107130081D01*
X156600000Y-107059101D01*
X156600000Y-105644500D01*
X157153500Y-105644500D01*
X157153500Y-105748511D01*
X157222009Y-105913905D01*
X157348596Y-106040492D01*
X157513990Y-106109000D01*
X157912500Y-106109000D01*
X158025000Y-105996500D01*
X158025000Y-105532000D01*
X158325000Y-105532000D01*
X158325000Y-105996500D01*
X158437500Y-106109000D01*
X158836010Y-106109000D01*
X159001404Y-106040492D01*
X159127991Y-105913905D01*
X159196500Y-105748511D01*
X159196500Y-105644500D01*
X159084000Y-105532000D01*
X158325000Y-105532000D01*
X158025000Y-105532000D01*
X157266000Y-105532000D01*
X157153500Y-105644500D01*
X156600000Y-105644500D01*
X156600000Y-104280028D01*
X156879236Y-104559264D01*
X157073890Y-104689328D01*
X157303500Y-104735000D01*
X157312788Y-104735000D01*
X157357745Y-104765718D01*
X157348596Y-104769508D01*
X157222009Y-104896095D01*
X157153500Y-105061489D01*
X157153500Y-105165500D01*
X157266000Y-105278000D01*
X158025000Y-105278000D01*
X158025000Y-105235000D01*
X158325000Y-105235000D01*
X158325000Y-105278000D01*
X159084000Y-105278000D01*
X159196500Y-105165500D01*
X159196500Y-105061489D01*
X159127991Y-104896095D01*
X159001404Y-104769508D01*
X158992149Y-104765674D01*
X159007359Y-104755887D01*
X159625736Y-105374264D01*
X159820390Y-105504328D01*
X160050000Y-105550000D01*
X160266184Y-105550000D01*
X160297562Y-105716760D01*
X160396117Y-105869919D01*
X160546495Y-105972668D01*
X160725000Y-106008816D01*
X161475000Y-106008816D01*
X161641760Y-105977438D01*
X161794919Y-105878883D01*
X161897668Y-105728505D01*
X161933816Y-105550000D01*
X161933816Y-104651693D01*
X161963811Y-104724286D01*
X162174605Y-104935448D01*
X162450161Y-105049869D01*
X162476364Y-105049892D01*
X162800736Y-105374264D01*
X162995389Y-105504328D01*
X163066184Y-105518410D01*
X163066184Y-105550000D01*
X163097562Y-105716760D01*
X163196117Y-105869919D01*
X163346495Y-105972668D01*
X163525000Y-106008816D01*
X164200000Y-106008816D01*
X164200000Y-106101472D01*
X163575736Y-106725736D01*
X163445672Y-106920390D01*
X163420521Y-107046834D01*
X163305081Y-107121117D01*
X163202332Y-107271495D01*
X163166184Y-107450000D01*
X163166184Y-108650000D01*
X163197562Y-108816760D01*
X163296117Y-108969919D01*
X163339054Y-108999256D01*
X163305081Y-109021117D01*
X163202332Y-109171495D01*
X163166184Y-109350000D01*
X162065000Y-109350000D01*
X162052438Y-109283240D01*
X161953883Y-109130081D01*
X161803505Y-109027332D01*
X161625000Y-108991184D01*
X160375000Y-108991184D01*
X160208240Y-109022562D01*
X160055081Y-109121117D01*
X159952332Y-109271495D01*
X159916184Y-109450000D01*
X159916184Y-110450000D01*
X159947562Y-110616760D01*
X160046117Y-110769919D01*
X160196495Y-110872668D01*
X160375000Y-110908816D01*
X161625000Y-110908816D01*
X161791760Y-110877438D01*
X161944919Y-110778883D01*
X162047668Y-110628505D01*
X162063566Y-110550000D01*
X163166184Y-110550000D01*
X163197562Y-110716760D01*
X163296117Y-110869919D01*
X163446495Y-110972668D01*
X163625000Y-111008816D01*
X164375000Y-111008816D01*
X164541760Y-110977438D01*
X164694919Y-110878883D01*
X164797668Y-110728505D01*
X164833816Y-110550000D01*
X164833816Y-109350000D01*
X164802438Y-109183240D01*
X164703883Y-109030081D01*
X164660946Y-109000744D01*
X164694919Y-108978883D01*
X164797668Y-108828505D01*
X164833816Y-108650000D01*
X164833816Y-107450000D01*
X164802438Y-107283240D01*
X164768316Y-107230212D01*
X165224264Y-106774264D01*
X165354328Y-106579610D01*
X165381666Y-106442170D01*
X165574605Y-106635446D01*
X165850161Y-106749867D01*
X166148530Y-106750128D01*
X166424286Y-106636187D01*
X166635448Y-106425393D01*
X166749869Y-106149837D01*
X166750057Y-105935285D01*
X166791760Y-105927438D01*
X166944919Y-105828883D01*
X167047668Y-105678505D01*
X167083816Y-105500000D01*
X167083816Y-104500000D01*
X167052438Y-104333240D01*
X166953883Y-104180081D01*
X166803505Y-104077332D01*
X166625000Y-104041184D01*
X165400000Y-104041184D01*
X165400000Y-103958816D01*
X166625000Y-103958816D01*
X166791760Y-103927438D01*
X166944919Y-103828883D01*
X167047668Y-103678505D01*
X167083816Y-103500000D01*
X167083816Y-102500000D01*
X167052438Y-102333240D01*
X166953883Y-102180081D01*
X166803505Y-102077332D01*
X166700000Y-102056372D01*
X166700000Y-99939962D01*
X166794919Y-99878883D01*
X166897668Y-99728505D01*
X166933816Y-99550000D01*
X166933816Y-98350000D01*
X166902438Y-98183240D01*
X166803883Y-98030081D01*
X166760946Y-98000744D01*
X166794919Y-97978883D01*
X166897668Y-97828505D01*
X166933816Y-97650000D01*
X166933816Y-96450000D01*
X166902438Y-96283240D01*
X166803883Y-96130081D01*
X166653505Y-96027332D01*
X166475000Y-95991184D01*
X165725000Y-95991184D01*
X165558240Y-96022562D01*
X165405081Y-96121117D01*
X165302332Y-96271495D01*
X165266184Y-96450000D01*
X164833816Y-96450000D01*
X164802438Y-96283240D01*
X164703883Y-96130081D01*
X164600000Y-96059101D01*
X164600000Y-95648528D01*
X165424264Y-94824264D01*
X165554328Y-94629610D01*
X165600000Y-94400000D01*
X165600000Y-93698016D01*
X165919239Y-93484708D01*
X166201043Y-93062957D01*
X166300000Y-92565469D01*
X166300000Y-92514531D01*
X166201043Y-92017043D01*
X165919239Y-91595292D01*
X165497488Y-91313488D01*
X165474000Y-91308816D01*
X165850000Y-91308816D01*
X166016760Y-91277438D01*
X166169919Y-91178883D01*
X166272668Y-91028505D01*
X166308816Y-90850000D01*
X166308816Y-89150000D01*
X166277438Y-88983240D01*
X166178883Y-88830081D01*
X166028505Y-88727332D01*
X165850000Y-88691184D01*
X164150000Y-88691184D01*
X163983240Y-88722562D01*
X163830081Y-88821117D01*
X163727332Y-88971495D01*
X163691184Y-89150000D01*
X163691184Y-89200000D01*
X162840000Y-89200000D01*
X162827438Y-89133240D01*
X162728883Y-88980081D01*
X162578505Y-88877332D01*
X162400000Y-88841184D01*
X160800000Y-88841184D01*
X160633240Y-88872562D01*
X160480081Y-88971117D01*
X160377332Y-89121495D01*
X160341184Y-89300000D01*
X160341184Y-90300000D01*
X160372562Y-90466760D01*
X160471117Y-90619919D01*
X160621495Y-90722668D01*
X160627573Y-90723899D01*
X159175736Y-92175736D01*
X159045672Y-92370390D01*
X159000000Y-92600000D01*
X159000000Y-96450000D01*
X158833816Y-96450000D01*
X158802438Y-96283240D01*
X158703883Y-96130081D01*
X158553505Y-96027332D01*
X158375000Y-95991184D01*
X157800000Y-95991184D01*
X157800000Y-91648528D01*
X158266694Y-91181834D01*
X158430290Y-91249765D01*
X158967353Y-91250234D01*
X159463715Y-91045142D01*
X159843807Y-90665712D01*
X160049765Y-90169710D01*
X160050234Y-89632647D01*
X159845142Y-89136285D01*
X159465712Y-88756193D01*
X158969710Y-88550235D01*
X158432647Y-88549766D01*
X157936285Y-88754858D01*
X157556193Y-89134288D01*
X157350235Y-89630290D01*
X157349766Y-90167353D01*
X157418286Y-90333186D01*
X156775736Y-90975736D01*
X156645672Y-91170390D01*
X156600000Y-91400000D01*
X156600000Y-96000000D01*
X156554328Y-95770390D01*
X156554328Y-95770389D01*
X156424264Y-95575736D01*
X156024264Y-95175736D01*
X155829610Y-95045672D01*
X155600000Y-95000000D01*
X151100000Y-95000000D01*
X150870390Y-95045672D01*
X150675736Y-95175736D01*
X149575736Y-96275736D01*
X149445672Y-96470390D01*
X149400000Y-96700000D01*
X149400000Y-98851472D01*
X148552665Y-99698807D01*
X148522957Y-99678957D01*
X148176288Y-99610000D01*
X148522957Y-99541043D01*
X148944708Y-99259239D01*
X149226512Y-98837488D01*
X149325469Y-98340000D01*
X149226512Y-97842512D01*
X148944708Y-97420761D01*
X148522957Y-97138957D01*
X148025469Y-97040000D01*
X147974531Y-97040000D01*
X147477043Y-97138957D01*
X147055292Y-97420761D01*
X146773488Y-97842512D01*
X146674531Y-98340000D01*
X146773488Y-98837488D01*
X147055292Y-99259239D01*
X147477043Y-99541043D01*
X147823712Y-99610000D01*
X147477043Y-99678957D01*
X147055292Y-99960761D01*
X146773488Y-100382512D01*
X146674531Y-100880000D01*
X146773488Y-101377488D01*
X147055292Y-101799239D01*
X147477043Y-102081043D01*
X147823712Y-102150000D01*
X147477043Y-102218957D01*
X147055292Y-102500761D01*
X146773488Y-102922512D01*
X146674531Y-103420000D01*
X146773488Y-103917488D01*
X147055292Y-104339239D01*
X147477043Y-104621043D01*
X147823712Y-104690000D01*
X147477043Y-104758957D01*
X147055292Y-105040761D01*
X146773488Y-105462512D01*
X146674531Y-105960000D01*
X146773488Y-106457488D01*
X147055292Y-106879239D01*
X147477043Y-107161043D01*
X147628571Y-107191184D01*
X147150000Y-107191184D01*
X146983240Y-107222562D01*
X146830081Y-107321117D01*
X146727332Y-107471495D01*
X146691184Y-107650000D01*
X146691184Y-109350000D01*
X146722562Y-109516760D01*
X146821117Y-109669919D01*
X146971495Y-109772668D01*
X147150000Y-109808816D01*
X148850000Y-109808816D01*
X149016760Y-109777438D01*
X149169919Y-109678883D01*
X149272668Y-109528505D01*
X149308816Y-109350000D01*
X149308816Y-108057344D01*
X149400000Y-108148528D01*
X149400000Y-109917002D01*
X149445672Y-110146612D01*
X149575736Y-110341266D01*
X150709470Y-111475000D01*
X145525000Y-111475000D01*
X145525000Y-90167353D01*
X147349766Y-90167353D01*
X147554858Y-90663715D01*
X147934288Y-91043807D01*
X148430290Y-91249765D01*
X148967353Y-91250234D01*
X149463715Y-91045142D01*
X149843807Y-90665712D01*
X150049765Y-90169710D01*
X150049767Y-90167353D01*
X152349766Y-90167353D01*
X152554858Y-90663715D01*
X152934288Y-91043807D01*
X153430290Y-91249765D01*
X153967353Y-91250234D01*
X154463715Y-91045142D01*
X154843807Y-90665712D01*
X155049765Y-90169710D01*
X155050234Y-89632647D01*
X154845142Y-89136285D01*
X154465712Y-88756193D01*
X153969710Y-88550235D01*
X153432647Y-88549766D01*
X152936285Y-88754858D01*
X152556193Y-89134288D01*
X152350235Y-89630290D01*
X152349766Y-90167353D01*
X150049767Y-90167353D01*
X150050234Y-89632647D01*
X149845142Y-89136285D01*
X149465712Y-88756193D01*
X148969710Y-88550235D01*
X148432647Y-88549766D01*
X147936285Y-88754858D01*
X147556193Y-89134288D01*
X147350235Y-89630290D01*
X147349766Y-90167353D01*
X145525000Y-90167353D01*
X145525000Y-86525000D01*
X167475000Y-86525000D01*
X167475000Y-111475000D01*
G36*
X151166184Y-96450000D02*
X151166184Y-97650000D01*
X151197562Y-97816760D01*
X151296117Y-97969919D01*
X151339054Y-97999256D01*
X151305081Y-98021117D01*
X151202332Y-98171495D01*
X151166184Y-98350000D01*
X151166184Y-99550000D01*
X151197562Y-99716760D01*
X151296117Y-99869919D01*
X151432435Y-99963061D01*
X151445672Y-100029610D01*
X151575736Y-100224264D01*
X152075736Y-100724264D01*
X152270390Y-100854328D01*
X152500000Y-100900000D01*
X152539219Y-100900000D01*
X152553088Y-100913894D01*
X152396500Y-100882184D01*
X151253500Y-100882184D01*
X151086740Y-100913562D01*
X150933581Y-101012117D01*
X150830832Y-101162495D01*
X150794684Y-101341000D01*
X150794684Y-101849000D01*
X150826062Y-102015760D01*
X150924617Y-102168919D01*
X151014284Y-102230186D01*
X150933581Y-102282117D01*
X150830832Y-102432495D01*
X150794684Y-102611000D01*
X150794684Y-103119000D01*
X150826062Y-103285760D01*
X150924617Y-103438919D01*
X151007745Y-103495718D01*
X150998596Y-103499508D01*
X150872009Y-103626095D01*
X150803500Y-103791489D01*
X150803500Y-103895500D01*
X150916000Y-104008000D01*
X151675000Y-104008000D01*
X151675000Y-103965000D01*
X151975000Y-103965000D01*
X151975000Y-104008000D01*
X152734000Y-104008000D01*
X152846500Y-103895500D01*
X152846500Y-103791489D01*
X152777991Y-103626095D01*
X152651404Y-103499508D01*
X152642149Y-103495674D01*
X152689818Y-103465000D01*
X153916472Y-103465000D01*
X154400000Y-103948528D01*
X154400000Y-106996247D01*
X154375000Y-106991184D01*
X153625000Y-106991184D01*
X153458240Y-107022562D01*
X153305081Y-107121117D01*
X153202332Y-107271495D01*
X153176309Y-107400000D01*
X153065000Y-107400000D01*
X153052438Y-107333240D01*
X152953883Y-107180081D01*
X152803505Y-107077332D01*
X152625000Y-107041184D01*
X151375000Y-107041184D01*
X151208240Y-107072562D01*
X151198704Y-107078699D01*
X151167214Y-106920390D01*
X151154328Y-106855605D01*
X151024264Y-106660952D01*
X150059998Y-105696686D01*
X150059998Y-105151000D01*
X150794684Y-105151000D01*
X150794684Y-105659000D01*
X150826062Y-105825760D01*
X150924617Y-105978919D01*
X151074995Y-106081668D01*
X151253500Y-106117816D01*
X152396500Y-106117816D01*
X152563260Y-106086438D01*
X152615873Y-106052582D01*
X152850165Y-106149869D01*
X153148534Y-106150130D01*
X153424290Y-106036189D01*
X153635452Y-105825395D01*
X153749873Y-105549839D01*
X153750134Y-105251470D01*
X153636193Y-104975714D01*
X153425399Y-104764552D01*
X153149843Y-104650131D01*
X152851474Y-104649870D01*
X152716083Y-104705813D01*
X152777991Y-104643905D01*
X152846500Y-104478511D01*
X152846500Y-104374500D01*
X152734000Y-104262000D01*
X151975000Y-104262000D01*
X151975000Y-104305000D01*
X151675000Y-104305000D01*
X151675000Y-104262000D01*
X150916000Y-104262000D01*
X150803500Y-104374500D01*
X150803500Y-104478511D01*
X150872009Y-104643905D01*
X150998596Y-104770492D01*
X151007851Y-104774326D01*
X150933581Y-104822117D01*
X150830832Y-104972495D01*
X150794684Y-105151000D01*
X150059998Y-105151000D01*
X150059998Y-104859998D01*
X150014326Y-104630388D01*
X149884262Y-104435734D01*
X149249657Y-103801129D01*
X149325469Y-103420000D01*
X149226512Y-102922512D01*
X148944708Y-102500761D01*
X148522957Y-102218957D01*
X148176288Y-102150000D01*
X148522957Y-102081043D01*
X148944708Y-101799239D01*
X149226512Y-101377488D01*
X149325469Y-100880000D01*
X149282840Y-100665688D01*
X150424264Y-99524264D01*
X150554328Y-99329610D01*
X150600000Y-99100000D01*
X150600000Y-96948528D01*
X151183364Y-96365164D01*
X151166184Y-96450000D01*
X151166184Y-96450000D01*
G37*
X151166184Y-96450000D02*
X151166184Y-97650000D01*
X151197562Y-97816760D01*
X151296117Y-97969919D01*
X151339054Y-97999256D01*
X151305081Y-98021117D01*
X151202332Y-98171495D01*
X151166184Y-98350000D01*
X151166184Y-99550000D01*
X151197562Y-99716760D01*
X151296117Y-99869919D01*
X151432435Y-99963061D01*
X151445672Y-100029610D01*
X151575736Y-100224264D01*
X152075736Y-100724264D01*
X152270390Y-100854328D01*
X152500000Y-100900000D01*
X152539219Y-100900000D01*
X152553088Y-100913894D01*
X152396500Y-100882184D01*
X151253500Y-100882184D01*
X151086740Y-100913562D01*
X150933581Y-101012117D01*
X150830832Y-101162495D01*
X150794684Y-101341000D01*
X150794684Y-101849000D01*
X150826062Y-102015760D01*
X150924617Y-102168919D01*
X151014284Y-102230186D01*
X150933581Y-102282117D01*
X150830832Y-102432495D01*
X150794684Y-102611000D01*
X150794684Y-103119000D01*
X150826062Y-103285760D01*
X150924617Y-103438919D01*
X151007745Y-103495718D01*
X150998596Y-103499508D01*
X150872009Y-103626095D01*
X150803500Y-103791489D01*
X150803500Y-103895500D01*
X150916000Y-104008000D01*
X151675000Y-104008000D01*
X151675000Y-103965000D01*
X151975000Y-103965000D01*
X151975000Y-104008000D01*
X152734000Y-104008000D01*
X152846500Y-103895500D01*
X152846500Y-103791489D01*
X152777991Y-103626095D01*
X152651404Y-103499508D01*
X152642149Y-103495674D01*
X152689818Y-103465000D01*
X153916472Y-103465000D01*
X154400000Y-103948528D01*
X154400000Y-106996247D01*
X154375000Y-106991184D01*
X153625000Y-106991184D01*
X153458240Y-107022562D01*
X153305081Y-107121117D01*
X153202332Y-107271495D01*
X153176309Y-107400000D01*
X153065000Y-107400000D01*
X153052438Y-107333240D01*
X152953883Y-107180081D01*
X152803505Y-107077332D01*
X152625000Y-107041184D01*
X151375000Y-107041184D01*
X151208240Y-107072562D01*
X151198704Y-107078699D01*
X151167214Y-106920390D01*
X151154328Y-106855605D01*
X151024264Y-106660952D01*
X150059998Y-105696686D01*
X150059998Y-105151000D01*
X150794684Y-105151000D01*
X150794684Y-105659000D01*
X150826062Y-105825760D01*
X150924617Y-105978919D01*
X151074995Y-106081668D01*
X151253500Y-106117816D01*
X152396500Y-106117816D01*
X152563260Y-106086438D01*
X152615873Y-106052582D01*
X152850165Y-106149869D01*
X153148534Y-106150130D01*
X153424290Y-106036189D01*
X153635452Y-105825395D01*
X153749873Y-105549839D01*
X153750134Y-105251470D01*
X153636193Y-104975714D01*
X153425399Y-104764552D01*
X153149843Y-104650131D01*
X152851474Y-104649870D01*
X152716083Y-104705813D01*
X152777991Y-104643905D01*
X152846500Y-104478511D01*
X152846500Y-104374500D01*
X152734000Y-104262000D01*
X151975000Y-104262000D01*
X151975000Y-104305000D01*
X151675000Y-104305000D01*
X151675000Y-104262000D01*
X150916000Y-104262000D01*
X150803500Y-104374500D01*
X150803500Y-104478511D01*
X150872009Y-104643905D01*
X150998596Y-104770492D01*
X151007851Y-104774326D01*
X150933581Y-104822117D01*
X150830832Y-104972495D01*
X150794684Y-105151000D01*
X150059998Y-105151000D01*
X150059998Y-104859998D01*
X150014326Y-104630388D01*
X149884262Y-104435734D01*
X149249657Y-103801129D01*
X149325469Y-103420000D01*
X149226512Y-102922512D01*
X148944708Y-102500761D01*
X148522957Y-102218957D01*
X148176288Y-102150000D01*
X148522957Y-102081043D01*
X148944708Y-101799239D01*
X149226512Y-101377488D01*
X149325469Y-100880000D01*
X149282840Y-100665688D01*
X150424264Y-99524264D01*
X150554328Y-99329610D01*
X150600000Y-99100000D01*
X150600000Y-96948528D01*
X151183364Y-96365164D01*
X151166184Y-96450000D01*
M02*
