G04 #@! TF.FileFunction,Soldermask,Top*
%FSLAX46Y46*%
G04 Gerber Fmt 4.6, Leading zero omitted, Abs format (unit mm)*
G04 Created by KiCad (PCBNEW 4.0.4-1.fc24-product) date Tue Jun 12 10:10:09 2018*
%MOMM*%
%LPD*%
G01*
G04 APERTURE LIST*
%ADD10C,0.100000*%
%ADD11R,2.100000X2.100000*%
%ADD12O,2.100000X2.100000*%
%ADD13R,2.000000X1.400000*%
%ADD14C,2.200000*%
%ADD15R,1.650000X1.400000*%
%ADD16R,1.150000X1.600000*%
%ADD17R,1.543000X0.908000*%
G04 APERTURE END LIST*
D10*
D11*
X165000000Y-90000000D03*
D12*
X165000000Y-92540000D03*
D11*
X148000000Y-108500000D03*
D12*
X148000000Y-105960000D03*
X148000000Y-103420000D03*
X148000000Y-100880000D03*
X148000000Y-98340000D03*
D13*
X161600000Y-92800000D03*
X161600000Y-89800000D03*
D14*
X158700000Y-89900000D03*
X153700000Y-89900000D03*
X148700000Y-89900000D03*
D15*
X152000000Y-108000000D03*
X152000000Y-110000000D03*
D16*
X158000000Y-108050000D03*
X158000000Y-109950000D03*
X163900000Y-104950000D03*
X163900000Y-103050000D03*
X161100000Y-104950000D03*
X161100000Y-103050000D03*
X154000000Y-109950000D03*
X154000000Y-108050000D03*
X156000000Y-108050000D03*
X156000000Y-109950000D03*
X152000000Y-98950000D03*
X152000000Y-97050000D03*
X164000000Y-108050000D03*
X164000000Y-109950000D03*
X161000000Y-97050000D03*
X161000000Y-98950000D03*
X164000000Y-97050000D03*
X164000000Y-98950000D03*
X166100000Y-97050000D03*
X166100000Y-98950000D03*
X158000000Y-98950000D03*
X158000000Y-97050000D03*
D17*
X158175000Y-101595000D03*
X158175000Y-102865000D03*
X158175000Y-104135000D03*
X158175000Y-105405000D03*
X151825000Y-105405000D03*
X151825000Y-104135000D03*
X151825000Y-102865000D03*
X151825000Y-101595000D03*
D15*
X166000000Y-103000000D03*
X166000000Y-105000000D03*
X156000000Y-99000000D03*
X156000000Y-97000000D03*
X154000000Y-99000000D03*
X154000000Y-97000000D03*
X161000000Y-109950000D03*
X161000000Y-107950000D03*
M02*
