G04 #@! TF.FileFunction,Copper,L2,Bot,Signal*
%FSLAX46Y46*%
G04 Gerber Fmt 4.6, Leading zero omitted, Abs format (unit mm)*
G04 Created by KiCad (PCBNEW 4.0.4-1.fc24-product) date Thu Mar  1 09:37:53 2018*
%MOMM*%
%LPD*%
G01*
G04 APERTURE LIST*
%ADD10C,0.100000*%
%ADD11C,1.400000*%
%ADD12R,1.200000X1.700000*%
%ADD13O,1.200000X1.700000*%
%ADD14C,1.800000*%
%ADD15C,1.440000*%
%ADD16O,1.998980X1.998980*%
%ADD17R,1.998980X1.998980*%
%ADD18C,0.600000*%
%ADD19C,0.300000*%
G04 APERTURE END LIST*
D10*
D11*
X137500000Y-80500000D03*
X137500000Y-83000000D03*
X142900000Y-80500000D03*
X142900000Y-83000000D03*
D12*
X138000000Y-101400000D03*
D13*
X140000000Y-101400000D03*
X142000000Y-101400000D03*
X144000000Y-101400000D03*
D14*
X135000000Y-87750000D03*
X135000000Y-91500000D03*
X135000000Y-95250000D03*
X140000000Y-87750000D03*
X140000000Y-91500000D03*
X140000000Y-95250000D03*
D15*
X158200000Y-88100000D03*
X155660000Y-88100000D03*
X153120000Y-88100000D03*
D16*
X150560000Y-100400000D03*
D17*
X153100000Y-100400000D03*
D16*
X156400000Y-100400000D03*
D17*
X158940000Y-100400000D03*
D12*
X152500000Y-82350000D03*
D13*
X154500000Y-82350000D03*
X156500000Y-82350000D03*
X158500000Y-82350000D03*
D18*
X136000000Y-80800000D03*
X146580338Y-86080338D03*
X142963596Y-91736404D03*
X152000000Y-96100000D03*
X143400000Y-90300000D03*
D19*
X158940000Y-100560000D02*
X158940000Y-100400000D01*
X153100000Y-100500000D02*
X153100000Y-100400000D01*
X141050010Y-102700010D02*
X140000000Y-101400000D01*
X153499979Y-103300021D02*
X155400511Y-101399489D01*
X140000000Y-101400000D02*
X140000000Y-101650000D01*
X140000000Y-101650000D02*
X141050010Y-102700010D01*
X140000000Y-101650000D02*
X141650021Y-103300021D01*
X141650021Y-103300021D02*
X153499979Y-103300021D01*
X155400511Y-101399489D02*
X156400000Y-100400000D01*
X140000000Y-100900000D02*
X140000000Y-101150000D01*
X142000000Y-101400000D02*
X142000000Y-101650000D01*
X142000000Y-101650000D02*
X143050010Y-102700010D01*
X143050010Y-102700010D02*
X148259990Y-102700010D01*
X148259990Y-102700010D02*
X149560511Y-101399489D01*
X149560511Y-101399489D02*
X150560000Y-100400000D01*
X142000000Y-101400000D02*
X142265062Y-101400000D01*
X142000000Y-100900000D02*
X142000000Y-101150000D01*
X143824264Y-90300000D02*
X143400000Y-90300000D01*
X153460000Y-90300000D02*
X143824264Y-90300000D01*
X155660000Y-88100000D02*
X153460000Y-90300000D01*
X140000000Y-91500000D02*
X149150000Y-82350000D01*
X149150000Y-82350000D02*
X152500000Y-82350000D01*
X140000000Y-91500000D02*
X140100000Y-91500000D01*
G36*
X136525646Y-79847727D02*
X136350200Y-80270247D01*
X136349801Y-80727746D01*
X136524509Y-81150572D01*
X136847727Y-81474354D01*
X137270247Y-81649800D01*
X137727746Y-81650199D01*
X138150572Y-81475491D01*
X138474354Y-81152273D01*
X138649800Y-80729753D01*
X138650199Y-80272254D01*
X138475491Y-79849428D01*
X138152273Y-79525646D01*
X138150717Y-79525000D01*
X142248936Y-79525000D01*
X141925646Y-79847727D01*
X141750200Y-80270247D01*
X141749801Y-80727746D01*
X141924509Y-81150572D01*
X142247727Y-81474354D01*
X142670247Y-81649800D01*
X143127746Y-81650199D01*
X143550572Y-81475491D01*
X143874354Y-81152273D01*
X144049800Y-80729753D01*
X144050199Y-80272254D01*
X143875491Y-79849428D01*
X143552273Y-79525646D01*
X143550717Y-79525000D01*
X160475000Y-79525000D01*
X160475000Y-103475000D01*
X154173528Y-103475000D01*
X155894033Y-101754495D01*
X156371603Y-101849490D01*
X156428397Y-101849490D01*
X156983093Y-101739154D01*
X157453341Y-101424944D01*
X157490510Y-101369317D01*
X157490510Y-101489000D01*
X157559018Y-101654394D01*
X157685605Y-101780981D01*
X157850999Y-101849490D01*
X158677500Y-101849490D01*
X158790000Y-101736990D01*
X158790000Y-100550000D01*
X159090000Y-100550000D01*
X159090000Y-101736990D01*
X159202500Y-101849490D01*
X160029001Y-101849490D01*
X160194395Y-101780981D01*
X160320982Y-101654394D01*
X160389490Y-101489000D01*
X160389490Y-100662500D01*
X160276990Y-100550000D01*
X159090000Y-100550000D01*
X158790000Y-100550000D01*
X158770000Y-100550000D01*
X158770000Y-100250000D01*
X158790000Y-100250000D01*
X158790000Y-99063010D01*
X159090000Y-99063010D01*
X159090000Y-100250000D01*
X160276990Y-100250000D01*
X160389490Y-100137500D01*
X160389490Y-99311000D01*
X160320982Y-99145606D01*
X160194395Y-99019019D01*
X160029001Y-98950510D01*
X159202500Y-98950510D01*
X159090000Y-99063010D01*
X158790000Y-99063010D01*
X158677500Y-98950510D01*
X157850999Y-98950510D01*
X157685605Y-99019019D01*
X157559018Y-99145606D01*
X157490510Y-99311000D01*
X157490510Y-99430683D01*
X157453341Y-99375056D01*
X156983093Y-99060846D01*
X156428397Y-98950510D01*
X156371603Y-98950510D01*
X155816907Y-99060846D01*
X155346659Y-99375056D01*
X155032449Y-99845304D01*
X154922113Y-100400000D01*
X155026530Y-100924942D01*
X154549490Y-101401982D01*
X154549490Y-100662500D01*
X154436990Y-100550000D01*
X153250000Y-100550000D01*
X153250000Y-101736990D01*
X153362500Y-101849490D01*
X154101982Y-101849490D01*
X153251451Y-102700021D01*
X149108507Y-102700021D01*
X150054033Y-101754495D01*
X150531603Y-101849490D01*
X150588397Y-101849490D01*
X151143093Y-101739154D01*
X151613341Y-101424944D01*
X151650510Y-101369317D01*
X151650510Y-101489000D01*
X151719018Y-101654394D01*
X151845605Y-101780981D01*
X152010999Y-101849490D01*
X152837500Y-101849490D01*
X152950000Y-101736990D01*
X152950000Y-100550000D01*
X152930000Y-100550000D01*
X152930000Y-100250000D01*
X152950000Y-100250000D01*
X152950000Y-99063010D01*
X153250000Y-99063010D01*
X153250000Y-100250000D01*
X154436990Y-100250000D01*
X154549490Y-100137500D01*
X154549490Y-99311000D01*
X154480982Y-99145606D01*
X154354395Y-99019019D01*
X154189001Y-98950510D01*
X153362500Y-98950510D01*
X153250000Y-99063010D01*
X152950000Y-99063010D01*
X152837500Y-98950510D01*
X152010999Y-98950510D01*
X151845605Y-99019019D01*
X151719018Y-99145606D01*
X151650510Y-99311000D01*
X151650510Y-99430683D01*
X151613341Y-99375056D01*
X151143093Y-99060846D01*
X150588397Y-98950510D01*
X150531603Y-98950510D01*
X149976907Y-99060846D01*
X149506659Y-99375056D01*
X149192449Y-99845304D01*
X149082113Y-100400000D01*
X149186530Y-100924942D01*
X148011462Y-102100010D01*
X144954891Y-102100010D01*
X144970074Y-102077287D01*
X145050000Y-101675469D01*
X145050000Y-101124531D01*
X144970074Y-100722713D01*
X144742462Y-100382069D01*
X144401818Y-100154457D01*
X144000000Y-100074531D01*
X143598182Y-100154457D01*
X143257538Y-100382069D01*
X143029926Y-100722713D01*
X143000000Y-100873162D01*
X142970074Y-100722713D01*
X142742462Y-100382069D01*
X142401818Y-100154457D01*
X142000000Y-100074531D01*
X141598182Y-100154457D01*
X141257538Y-100382069D01*
X141029926Y-100722713D01*
X141000000Y-100873162D01*
X140970074Y-100722713D01*
X140742462Y-100382069D01*
X140401818Y-100154457D01*
X140000000Y-100074531D01*
X139598182Y-100154457D01*
X139257538Y-100382069D01*
X139050000Y-100692670D01*
X139050000Y-100460490D01*
X138981492Y-100295096D01*
X138854905Y-100168509D01*
X138689511Y-100100000D01*
X138262500Y-100100000D01*
X138150000Y-100212500D01*
X138150000Y-101250000D01*
X138170000Y-101250000D01*
X138170000Y-101550000D01*
X138150000Y-101550000D01*
X138150000Y-102587500D01*
X138262500Y-102700000D01*
X138689511Y-102700000D01*
X138854905Y-102631491D01*
X138981492Y-102504904D01*
X139050000Y-102339510D01*
X139050000Y-102107330D01*
X139257538Y-102417931D01*
X139598182Y-102645543D01*
X140000000Y-102725469D01*
X140189289Y-102687817D01*
X140976472Y-103475000D01*
X133525000Y-103475000D01*
X133525000Y-101662500D01*
X136950000Y-101662500D01*
X136950000Y-102339510D01*
X137018508Y-102504904D01*
X137145095Y-102631491D01*
X137310489Y-102700000D01*
X137737500Y-102700000D01*
X137850000Y-102587500D01*
X137850000Y-101550000D01*
X137062500Y-101550000D01*
X136950000Y-101662500D01*
X133525000Y-101662500D01*
X133525000Y-100460490D01*
X136950000Y-100460490D01*
X136950000Y-101137500D01*
X137062500Y-101250000D01*
X137850000Y-101250000D01*
X137850000Y-100212500D01*
X137737500Y-100100000D01*
X137310489Y-100100000D01*
X137145095Y-100168509D01*
X137018508Y-100295096D01*
X136950000Y-100460490D01*
X133525000Y-100460490D01*
X133525000Y-95517353D01*
X133649766Y-95517353D01*
X133854858Y-96013715D01*
X134234288Y-96393807D01*
X134730290Y-96599765D01*
X135267353Y-96600234D01*
X135763715Y-96395142D01*
X136143807Y-96015712D01*
X136349765Y-95519710D01*
X136349767Y-95517353D01*
X138649766Y-95517353D01*
X138854858Y-96013715D01*
X139234288Y-96393807D01*
X139730290Y-96599765D01*
X140267353Y-96600234D01*
X140763715Y-96395142D01*
X141143807Y-96015712D01*
X141349765Y-95519710D01*
X141350234Y-94982647D01*
X141145142Y-94486285D01*
X140765712Y-94106193D01*
X140269710Y-93900235D01*
X139732647Y-93899766D01*
X139236285Y-94104858D01*
X138856193Y-94484288D01*
X138650235Y-94980290D01*
X138649766Y-95517353D01*
X136349767Y-95517353D01*
X136350234Y-94982647D01*
X136145142Y-94486285D01*
X135765712Y-94106193D01*
X135269710Y-93900235D01*
X134732647Y-93899766D01*
X134236285Y-94104858D01*
X133856193Y-94484288D01*
X133650235Y-94980290D01*
X133649766Y-95517353D01*
X133525000Y-95517353D01*
X133525000Y-91767353D01*
X133649766Y-91767353D01*
X133854858Y-92263715D01*
X134234288Y-92643807D01*
X134730290Y-92849765D01*
X135267353Y-92850234D01*
X135763715Y-92645142D01*
X136143807Y-92265712D01*
X136349765Y-91769710D01*
X136349767Y-91767353D01*
X138649766Y-91767353D01*
X138854858Y-92263715D01*
X139234288Y-92643807D01*
X139730290Y-92849765D01*
X140267353Y-92850234D01*
X140763715Y-92645142D01*
X141143807Y-92265712D01*
X141349765Y-91769710D01*
X141350234Y-91232647D01*
X141281714Y-91066814D01*
X141899998Y-90448530D01*
X142649870Y-90448530D01*
X142763811Y-90724286D01*
X142974605Y-90935448D01*
X143250161Y-91049869D01*
X143548530Y-91050130D01*
X143824286Y-90936189D01*
X143860538Y-90900000D01*
X153460000Y-90900000D01*
X153689610Y-90854328D01*
X153884264Y-90724264D01*
X155364410Y-89244118D01*
X155426252Y-89269797D01*
X155891706Y-89270203D01*
X156321886Y-89092456D01*
X156651300Y-88763617D01*
X156829797Y-88333748D01*
X156829798Y-88331706D01*
X157029797Y-88331706D01*
X157207544Y-88761886D01*
X157536383Y-89091300D01*
X157966252Y-89269797D01*
X158431706Y-89270203D01*
X158861886Y-89092456D01*
X159191300Y-88763617D01*
X159369797Y-88333748D01*
X159370203Y-87868294D01*
X159192456Y-87438114D01*
X158863617Y-87108700D01*
X158433748Y-86930203D01*
X157968294Y-86929797D01*
X157538114Y-87107544D01*
X157208700Y-87436383D01*
X157030203Y-87866252D01*
X157029797Y-88331706D01*
X156829798Y-88331706D01*
X156830203Y-87868294D01*
X156652456Y-87438114D01*
X156323617Y-87108700D01*
X155893748Y-86930203D01*
X155428294Y-86929797D01*
X154998114Y-87107544D01*
X154668700Y-87436383D01*
X154490203Y-87866252D01*
X154489797Y-88331706D01*
X154516102Y-88395370D01*
X153211472Y-89700000D01*
X143860781Y-89700000D01*
X143825395Y-89664552D01*
X143549839Y-89550131D01*
X143251470Y-89549870D01*
X142975714Y-89663811D01*
X142764552Y-89874605D01*
X142650131Y-90150161D01*
X142649870Y-90448530D01*
X141899998Y-90448530D01*
X144016822Y-88331706D01*
X151949797Y-88331706D01*
X152127544Y-88761886D01*
X152456383Y-89091300D01*
X152886252Y-89269797D01*
X153351706Y-89270203D01*
X153781886Y-89092456D01*
X154111300Y-88763617D01*
X154289797Y-88333748D01*
X154290203Y-87868294D01*
X154112456Y-87438114D01*
X153783617Y-87108700D01*
X153353748Y-86930203D01*
X152888294Y-86929797D01*
X152458114Y-87107544D01*
X152128700Y-87436383D01*
X151950203Y-87866252D01*
X151949797Y-88331706D01*
X144016822Y-88331706D01*
X149398528Y-82950000D01*
X151441184Y-82950000D01*
X151441184Y-83200000D01*
X151472562Y-83366760D01*
X151571117Y-83519919D01*
X151721495Y-83622668D01*
X151900000Y-83658816D01*
X153100000Y-83658816D01*
X153266760Y-83627438D01*
X153419919Y-83528883D01*
X153522668Y-83378505D01*
X153558816Y-83200000D01*
X153558816Y-83070524D01*
X153757538Y-83367931D01*
X154098182Y-83595543D01*
X154500000Y-83675469D01*
X154901818Y-83595543D01*
X155242462Y-83367931D01*
X155470074Y-83027287D01*
X155500000Y-82876838D01*
X155529926Y-83027287D01*
X155757538Y-83367931D01*
X156098182Y-83595543D01*
X156500000Y-83675469D01*
X156901818Y-83595543D01*
X157242462Y-83367931D01*
X157470074Y-83027287D01*
X157498281Y-82885478D01*
X157546417Y-83067073D01*
X157797745Y-83396440D01*
X158189275Y-83602970D01*
X158350000Y-83525422D01*
X158350000Y-82500000D01*
X158650000Y-82500000D01*
X158650000Y-83525422D01*
X158810725Y-83602970D01*
X159202255Y-83396440D01*
X159453583Y-83067073D01*
X159559737Y-82666599D01*
X159444608Y-82500000D01*
X158650000Y-82500000D01*
X158350000Y-82500000D01*
X158330000Y-82500000D01*
X158330000Y-82200000D01*
X158350000Y-82200000D01*
X158350000Y-81174578D01*
X158650000Y-81174578D01*
X158650000Y-82200000D01*
X159444608Y-82200000D01*
X159559737Y-82033401D01*
X159453583Y-81632927D01*
X159202255Y-81303560D01*
X158810725Y-81097030D01*
X158650000Y-81174578D01*
X158350000Y-81174578D01*
X158189275Y-81097030D01*
X157797745Y-81303560D01*
X157546417Y-81632927D01*
X157498281Y-81814522D01*
X157470074Y-81672713D01*
X157242462Y-81332069D01*
X156901818Y-81104457D01*
X156500000Y-81024531D01*
X156098182Y-81104457D01*
X155757538Y-81332069D01*
X155529926Y-81672713D01*
X155500000Y-81823162D01*
X155470074Y-81672713D01*
X155242462Y-81332069D01*
X154901818Y-81104457D01*
X154500000Y-81024531D01*
X154098182Y-81104457D01*
X153757538Y-81332069D01*
X153558816Y-81629476D01*
X153558816Y-81500000D01*
X153527438Y-81333240D01*
X153428883Y-81180081D01*
X153278505Y-81077332D01*
X153100000Y-81041184D01*
X151900000Y-81041184D01*
X151733240Y-81072562D01*
X151580081Y-81171117D01*
X151477332Y-81321495D01*
X151441184Y-81500000D01*
X151441184Y-81750000D01*
X149150000Y-81750000D01*
X148920390Y-81795672D01*
X148725736Y-81925736D01*
X140433306Y-90218166D01*
X140269710Y-90150235D01*
X139732647Y-90149766D01*
X139236285Y-90354858D01*
X138856193Y-90734288D01*
X138650235Y-91230290D01*
X138649766Y-91767353D01*
X136349767Y-91767353D01*
X136350234Y-91232647D01*
X136145142Y-90736285D01*
X135765712Y-90356193D01*
X135269710Y-90150235D01*
X134732647Y-90149766D01*
X134236285Y-90354858D01*
X133856193Y-90734288D01*
X133650235Y-91230290D01*
X133649766Y-91767353D01*
X133525000Y-91767353D01*
X133525000Y-88017353D01*
X133649766Y-88017353D01*
X133854858Y-88513715D01*
X134234288Y-88893807D01*
X134730290Y-89099765D01*
X135267353Y-89100234D01*
X135763715Y-88895142D01*
X136143807Y-88515712D01*
X136349765Y-88019710D01*
X136349767Y-88017353D01*
X138649766Y-88017353D01*
X138854858Y-88513715D01*
X139234288Y-88893807D01*
X139730290Y-89099765D01*
X140267353Y-89100234D01*
X140763715Y-88895142D01*
X141143807Y-88515712D01*
X141349765Y-88019710D01*
X141350234Y-87482647D01*
X141145142Y-86986285D01*
X140765712Y-86606193D01*
X140269710Y-86400235D01*
X139732647Y-86399766D01*
X139236285Y-86604858D01*
X138856193Y-86984288D01*
X138650235Y-87480290D01*
X138649766Y-88017353D01*
X136349767Y-88017353D01*
X136350234Y-87482647D01*
X136145142Y-86986285D01*
X135765712Y-86606193D01*
X135269710Y-86400235D01*
X134732647Y-86399766D01*
X134236285Y-86604858D01*
X133856193Y-86984288D01*
X133650235Y-87480290D01*
X133649766Y-88017353D01*
X133525000Y-88017353D01*
X133525000Y-83227746D01*
X136349801Y-83227746D01*
X136524509Y-83650572D01*
X136847727Y-83974354D01*
X137270247Y-84149800D01*
X137727746Y-84150199D01*
X138150572Y-83975491D01*
X138474354Y-83652273D01*
X138649800Y-83229753D01*
X138649801Y-83227746D01*
X141749801Y-83227746D01*
X141924509Y-83650572D01*
X142247727Y-83974354D01*
X142670247Y-84149800D01*
X143127746Y-84150199D01*
X143550572Y-83975491D01*
X143874354Y-83652273D01*
X144049800Y-83229753D01*
X144050199Y-82772254D01*
X143875491Y-82349428D01*
X143552273Y-82025646D01*
X143129753Y-81850200D01*
X142672254Y-81849801D01*
X142249428Y-82024509D01*
X141925646Y-82347727D01*
X141750200Y-82770247D01*
X141749801Y-83227746D01*
X138649801Y-83227746D01*
X138650199Y-82772254D01*
X138475491Y-82349428D01*
X138152273Y-82025646D01*
X137729753Y-81850200D01*
X137272254Y-81849801D01*
X136849428Y-82024509D01*
X136525646Y-82347727D01*
X136350200Y-82770247D01*
X136349801Y-83227746D01*
X133525000Y-83227746D01*
X133525000Y-79525000D01*
X136848936Y-79525000D01*
X136525646Y-79847727D01*
X136525646Y-79847727D01*
G37*
X136525646Y-79847727D02*
X136350200Y-80270247D01*
X136349801Y-80727746D01*
X136524509Y-81150572D01*
X136847727Y-81474354D01*
X137270247Y-81649800D01*
X137727746Y-81650199D01*
X138150572Y-81475491D01*
X138474354Y-81152273D01*
X138649800Y-80729753D01*
X138650199Y-80272254D01*
X138475491Y-79849428D01*
X138152273Y-79525646D01*
X138150717Y-79525000D01*
X142248936Y-79525000D01*
X141925646Y-79847727D01*
X141750200Y-80270247D01*
X141749801Y-80727746D01*
X141924509Y-81150572D01*
X142247727Y-81474354D01*
X142670247Y-81649800D01*
X143127746Y-81650199D01*
X143550572Y-81475491D01*
X143874354Y-81152273D01*
X144049800Y-80729753D01*
X144050199Y-80272254D01*
X143875491Y-79849428D01*
X143552273Y-79525646D01*
X143550717Y-79525000D01*
X160475000Y-79525000D01*
X160475000Y-103475000D01*
X154173528Y-103475000D01*
X155894033Y-101754495D01*
X156371603Y-101849490D01*
X156428397Y-101849490D01*
X156983093Y-101739154D01*
X157453341Y-101424944D01*
X157490510Y-101369317D01*
X157490510Y-101489000D01*
X157559018Y-101654394D01*
X157685605Y-101780981D01*
X157850999Y-101849490D01*
X158677500Y-101849490D01*
X158790000Y-101736990D01*
X158790000Y-100550000D01*
X159090000Y-100550000D01*
X159090000Y-101736990D01*
X159202500Y-101849490D01*
X160029001Y-101849490D01*
X160194395Y-101780981D01*
X160320982Y-101654394D01*
X160389490Y-101489000D01*
X160389490Y-100662500D01*
X160276990Y-100550000D01*
X159090000Y-100550000D01*
X158790000Y-100550000D01*
X158770000Y-100550000D01*
X158770000Y-100250000D01*
X158790000Y-100250000D01*
X158790000Y-99063010D01*
X159090000Y-99063010D01*
X159090000Y-100250000D01*
X160276990Y-100250000D01*
X160389490Y-100137500D01*
X160389490Y-99311000D01*
X160320982Y-99145606D01*
X160194395Y-99019019D01*
X160029001Y-98950510D01*
X159202500Y-98950510D01*
X159090000Y-99063010D01*
X158790000Y-99063010D01*
X158677500Y-98950510D01*
X157850999Y-98950510D01*
X157685605Y-99019019D01*
X157559018Y-99145606D01*
X157490510Y-99311000D01*
X157490510Y-99430683D01*
X157453341Y-99375056D01*
X156983093Y-99060846D01*
X156428397Y-98950510D01*
X156371603Y-98950510D01*
X155816907Y-99060846D01*
X155346659Y-99375056D01*
X155032449Y-99845304D01*
X154922113Y-100400000D01*
X155026530Y-100924942D01*
X154549490Y-101401982D01*
X154549490Y-100662500D01*
X154436990Y-100550000D01*
X153250000Y-100550000D01*
X153250000Y-101736990D01*
X153362500Y-101849490D01*
X154101982Y-101849490D01*
X153251451Y-102700021D01*
X149108507Y-102700021D01*
X150054033Y-101754495D01*
X150531603Y-101849490D01*
X150588397Y-101849490D01*
X151143093Y-101739154D01*
X151613341Y-101424944D01*
X151650510Y-101369317D01*
X151650510Y-101489000D01*
X151719018Y-101654394D01*
X151845605Y-101780981D01*
X152010999Y-101849490D01*
X152837500Y-101849490D01*
X152950000Y-101736990D01*
X152950000Y-100550000D01*
X152930000Y-100550000D01*
X152930000Y-100250000D01*
X152950000Y-100250000D01*
X152950000Y-99063010D01*
X153250000Y-99063010D01*
X153250000Y-100250000D01*
X154436990Y-100250000D01*
X154549490Y-100137500D01*
X154549490Y-99311000D01*
X154480982Y-99145606D01*
X154354395Y-99019019D01*
X154189001Y-98950510D01*
X153362500Y-98950510D01*
X153250000Y-99063010D01*
X152950000Y-99063010D01*
X152837500Y-98950510D01*
X152010999Y-98950510D01*
X151845605Y-99019019D01*
X151719018Y-99145606D01*
X151650510Y-99311000D01*
X151650510Y-99430683D01*
X151613341Y-99375056D01*
X151143093Y-99060846D01*
X150588397Y-98950510D01*
X150531603Y-98950510D01*
X149976907Y-99060846D01*
X149506659Y-99375056D01*
X149192449Y-99845304D01*
X149082113Y-100400000D01*
X149186530Y-100924942D01*
X148011462Y-102100010D01*
X144954891Y-102100010D01*
X144970074Y-102077287D01*
X145050000Y-101675469D01*
X145050000Y-101124531D01*
X144970074Y-100722713D01*
X144742462Y-100382069D01*
X144401818Y-100154457D01*
X144000000Y-100074531D01*
X143598182Y-100154457D01*
X143257538Y-100382069D01*
X143029926Y-100722713D01*
X143000000Y-100873162D01*
X142970074Y-100722713D01*
X142742462Y-100382069D01*
X142401818Y-100154457D01*
X142000000Y-100074531D01*
X141598182Y-100154457D01*
X141257538Y-100382069D01*
X141029926Y-100722713D01*
X141000000Y-100873162D01*
X140970074Y-100722713D01*
X140742462Y-100382069D01*
X140401818Y-100154457D01*
X140000000Y-100074531D01*
X139598182Y-100154457D01*
X139257538Y-100382069D01*
X139050000Y-100692670D01*
X139050000Y-100460490D01*
X138981492Y-100295096D01*
X138854905Y-100168509D01*
X138689511Y-100100000D01*
X138262500Y-100100000D01*
X138150000Y-100212500D01*
X138150000Y-101250000D01*
X138170000Y-101250000D01*
X138170000Y-101550000D01*
X138150000Y-101550000D01*
X138150000Y-102587500D01*
X138262500Y-102700000D01*
X138689511Y-102700000D01*
X138854905Y-102631491D01*
X138981492Y-102504904D01*
X139050000Y-102339510D01*
X139050000Y-102107330D01*
X139257538Y-102417931D01*
X139598182Y-102645543D01*
X140000000Y-102725469D01*
X140189289Y-102687817D01*
X140976472Y-103475000D01*
X133525000Y-103475000D01*
X133525000Y-101662500D01*
X136950000Y-101662500D01*
X136950000Y-102339510D01*
X137018508Y-102504904D01*
X137145095Y-102631491D01*
X137310489Y-102700000D01*
X137737500Y-102700000D01*
X137850000Y-102587500D01*
X137850000Y-101550000D01*
X137062500Y-101550000D01*
X136950000Y-101662500D01*
X133525000Y-101662500D01*
X133525000Y-100460490D01*
X136950000Y-100460490D01*
X136950000Y-101137500D01*
X137062500Y-101250000D01*
X137850000Y-101250000D01*
X137850000Y-100212500D01*
X137737500Y-100100000D01*
X137310489Y-100100000D01*
X137145095Y-100168509D01*
X137018508Y-100295096D01*
X136950000Y-100460490D01*
X133525000Y-100460490D01*
X133525000Y-95517353D01*
X133649766Y-95517353D01*
X133854858Y-96013715D01*
X134234288Y-96393807D01*
X134730290Y-96599765D01*
X135267353Y-96600234D01*
X135763715Y-96395142D01*
X136143807Y-96015712D01*
X136349765Y-95519710D01*
X136349767Y-95517353D01*
X138649766Y-95517353D01*
X138854858Y-96013715D01*
X139234288Y-96393807D01*
X139730290Y-96599765D01*
X140267353Y-96600234D01*
X140763715Y-96395142D01*
X141143807Y-96015712D01*
X141349765Y-95519710D01*
X141350234Y-94982647D01*
X141145142Y-94486285D01*
X140765712Y-94106193D01*
X140269710Y-93900235D01*
X139732647Y-93899766D01*
X139236285Y-94104858D01*
X138856193Y-94484288D01*
X138650235Y-94980290D01*
X138649766Y-95517353D01*
X136349767Y-95517353D01*
X136350234Y-94982647D01*
X136145142Y-94486285D01*
X135765712Y-94106193D01*
X135269710Y-93900235D01*
X134732647Y-93899766D01*
X134236285Y-94104858D01*
X133856193Y-94484288D01*
X133650235Y-94980290D01*
X133649766Y-95517353D01*
X133525000Y-95517353D01*
X133525000Y-91767353D01*
X133649766Y-91767353D01*
X133854858Y-92263715D01*
X134234288Y-92643807D01*
X134730290Y-92849765D01*
X135267353Y-92850234D01*
X135763715Y-92645142D01*
X136143807Y-92265712D01*
X136349765Y-91769710D01*
X136349767Y-91767353D01*
X138649766Y-91767353D01*
X138854858Y-92263715D01*
X139234288Y-92643807D01*
X139730290Y-92849765D01*
X140267353Y-92850234D01*
X140763715Y-92645142D01*
X141143807Y-92265712D01*
X141349765Y-91769710D01*
X141350234Y-91232647D01*
X141281714Y-91066814D01*
X141899998Y-90448530D01*
X142649870Y-90448530D01*
X142763811Y-90724286D01*
X142974605Y-90935448D01*
X143250161Y-91049869D01*
X143548530Y-91050130D01*
X143824286Y-90936189D01*
X143860538Y-90900000D01*
X153460000Y-90900000D01*
X153689610Y-90854328D01*
X153884264Y-90724264D01*
X155364410Y-89244118D01*
X155426252Y-89269797D01*
X155891706Y-89270203D01*
X156321886Y-89092456D01*
X156651300Y-88763617D01*
X156829797Y-88333748D01*
X156829798Y-88331706D01*
X157029797Y-88331706D01*
X157207544Y-88761886D01*
X157536383Y-89091300D01*
X157966252Y-89269797D01*
X158431706Y-89270203D01*
X158861886Y-89092456D01*
X159191300Y-88763617D01*
X159369797Y-88333748D01*
X159370203Y-87868294D01*
X159192456Y-87438114D01*
X158863617Y-87108700D01*
X158433748Y-86930203D01*
X157968294Y-86929797D01*
X157538114Y-87107544D01*
X157208700Y-87436383D01*
X157030203Y-87866252D01*
X157029797Y-88331706D01*
X156829798Y-88331706D01*
X156830203Y-87868294D01*
X156652456Y-87438114D01*
X156323617Y-87108700D01*
X155893748Y-86930203D01*
X155428294Y-86929797D01*
X154998114Y-87107544D01*
X154668700Y-87436383D01*
X154490203Y-87866252D01*
X154489797Y-88331706D01*
X154516102Y-88395370D01*
X153211472Y-89700000D01*
X143860781Y-89700000D01*
X143825395Y-89664552D01*
X143549839Y-89550131D01*
X143251470Y-89549870D01*
X142975714Y-89663811D01*
X142764552Y-89874605D01*
X142650131Y-90150161D01*
X142649870Y-90448530D01*
X141899998Y-90448530D01*
X144016822Y-88331706D01*
X151949797Y-88331706D01*
X152127544Y-88761886D01*
X152456383Y-89091300D01*
X152886252Y-89269797D01*
X153351706Y-89270203D01*
X153781886Y-89092456D01*
X154111300Y-88763617D01*
X154289797Y-88333748D01*
X154290203Y-87868294D01*
X154112456Y-87438114D01*
X153783617Y-87108700D01*
X153353748Y-86930203D01*
X152888294Y-86929797D01*
X152458114Y-87107544D01*
X152128700Y-87436383D01*
X151950203Y-87866252D01*
X151949797Y-88331706D01*
X144016822Y-88331706D01*
X149398528Y-82950000D01*
X151441184Y-82950000D01*
X151441184Y-83200000D01*
X151472562Y-83366760D01*
X151571117Y-83519919D01*
X151721495Y-83622668D01*
X151900000Y-83658816D01*
X153100000Y-83658816D01*
X153266760Y-83627438D01*
X153419919Y-83528883D01*
X153522668Y-83378505D01*
X153558816Y-83200000D01*
X153558816Y-83070524D01*
X153757538Y-83367931D01*
X154098182Y-83595543D01*
X154500000Y-83675469D01*
X154901818Y-83595543D01*
X155242462Y-83367931D01*
X155470074Y-83027287D01*
X155500000Y-82876838D01*
X155529926Y-83027287D01*
X155757538Y-83367931D01*
X156098182Y-83595543D01*
X156500000Y-83675469D01*
X156901818Y-83595543D01*
X157242462Y-83367931D01*
X157470074Y-83027287D01*
X157498281Y-82885478D01*
X157546417Y-83067073D01*
X157797745Y-83396440D01*
X158189275Y-83602970D01*
X158350000Y-83525422D01*
X158350000Y-82500000D01*
X158650000Y-82500000D01*
X158650000Y-83525422D01*
X158810725Y-83602970D01*
X159202255Y-83396440D01*
X159453583Y-83067073D01*
X159559737Y-82666599D01*
X159444608Y-82500000D01*
X158650000Y-82500000D01*
X158350000Y-82500000D01*
X158330000Y-82500000D01*
X158330000Y-82200000D01*
X158350000Y-82200000D01*
X158350000Y-81174578D01*
X158650000Y-81174578D01*
X158650000Y-82200000D01*
X159444608Y-82200000D01*
X159559737Y-82033401D01*
X159453583Y-81632927D01*
X159202255Y-81303560D01*
X158810725Y-81097030D01*
X158650000Y-81174578D01*
X158350000Y-81174578D01*
X158189275Y-81097030D01*
X157797745Y-81303560D01*
X157546417Y-81632927D01*
X157498281Y-81814522D01*
X157470074Y-81672713D01*
X157242462Y-81332069D01*
X156901818Y-81104457D01*
X156500000Y-81024531D01*
X156098182Y-81104457D01*
X155757538Y-81332069D01*
X155529926Y-81672713D01*
X155500000Y-81823162D01*
X155470074Y-81672713D01*
X155242462Y-81332069D01*
X154901818Y-81104457D01*
X154500000Y-81024531D01*
X154098182Y-81104457D01*
X153757538Y-81332069D01*
X153558816Y-81629476D01*
X153558816Y-81500000D01*
X153527438Y-81333240D01*
X153428883Y-81180081D01*
X153278505Y-81077332D01*
X153100000Y-81041184D01*
X151900000Y-81041184D01*
X151733240Y-81072562D01*
X151580081Y-81171117D01*
X151477332Y-81321495D01*
X151441184Y-81500000D01*
X151441184Y-81750000D01*
X149150000Y-81750000D01*
X148920390Y-81795672D01*
X148725736Y-81925736D01*
X140433306Y-90218166D01*
X140269710Y-90150235D01*
X139732647Y-90149766D01*
X139236285Y-90354858D01*
X138856193Y-90734288D01*
X138650235Y-91230290D01*
X138649766Y-91767353D01*
X136349767Y-91767353D01*
X136350234Y-91232647D01*
X136145142Y-90736285D01*
X135765712Y-90356193D01*
X135269710Y-90150235D01*
X134732647Y-90149766D01*
X134236285Y-90354858D01*
X133856193Y-90734288D01*
X133650235Y-91230290D01*
X133649766Y-91767353D01*
X133525000Y-91767353D01*
X133525000Y-88017353D01*
X133649766Y-88017353D01*
X133854858Y-88513715D01*
X134234288Y-88893807D01*
X134730290Y-89099765D01*
X135267353Y-89100234D01*
X135763715Y-88895142D01*
X136143807Y-88515712D01*
X136349765Y-88019710D01*
X136349767Y-88017353D01*
X138649766Y-88017353D01*
X138854858Y-88513715D01*
X139234288Y-88893807D01*
X139730290Y-89099765D01*
X140267353Y-89100234D01*
X140763715Y-88895142D01*
X141143807Y-88515712D01*
X141349765Y-88019710D01*
X141350234Y-87482647D01*
X141145142Y-86986285D01*
X140765712Y-86606193D01*
X140269710Y-86400235D01*
X139732647Y-86399766D01*
X139236285Y-86604858D01*
X138856193Y-86984288D01*
X138650235Y-87480290D01*
X138649766Y-88017353D01*
X136349767Y-88017353D01*
X136350234Y-87482647D01*
X136145142Y-86986285D01*
X135765712Y-86606193D01*
X135269710Y-86400235D01*
X134732647Y-86399766D01*
X134236285Y-86604858D01*
X133856193Y-86984288D01*
X133650235Y-87480290D01*
X133649766Y-88017353D01*
X133525000Y-88017353D01*
X133525000Y-83227746D01*
X136349801Y-83227746D01*
X136524509Y-83650572D01*
X136847727Y-83974354D01*
X137270247Y-84149800D01*
X137727746Y-84150199D01*
X138150572Y-83975491D01*
X138474354Y-83652273D01*
X138649800Y-83229753D01*
X138649801Y-83227746D01*
X141749801Y-83227746D01*
X141924509Y-83650572D01*
X142247727Y-83974354D01*
X142670247Y-84149800D01*
X143127746Y-84150199D01*
X143550572Y-83975491D01*
X143874354Y-83652273D01*
X144049800Y-83229753D01*
X144050199Y-82772254D01*
X143875491Y-82349428D01*
X143552273Y-82025646D01*
X143129753Y-81850200D01*
X142672254Y-81849801D01*
X142249428Y-82024509D01*
X141925646Y-82347727D01*
X141750200Y-82770247D01*
X141749801Y-83227746D01*
X138649801Y-83227746D01*
X138650199Y-82772254D01*
X138475491Y-82349428D01*
X138152273Y-82025646D01*
X137729753Y-81850200D01*
X137272254Y-81849801D01*
X136849428Y-82024509D01*
X136525646Y-82347727D01*
X136350200Y-82770247D01*
X136349801Y-83227746D01*
X133525000Y-83227746D01*
X133525000Y-79525000D01*
X136848936Y-79525000D01*
X136525646Y-79847727D01*
M02*
