G04 #@! TF.FileFunction,Soldermask,Top*
%FSLAX46Y46*%
G04 Gerber Fmt 4.6, Leading zero omitted, Abs format (unit mm)*
G04 Created by KiCad (PCBNEW 4.0.4-1.fc24-product) date Thu Mar  1 09:37:53 2018*
%MOMM*%
%LPD*%
G01*
G04 APERTURE LIST*
%ADD10C,0.100000*%
%ADD11C,1.800000*%
%ADD12R,1.600000X2.100000*%
%ADD13O,1.600000X2.100000*%
%ADD14C,2.200000*%
%ADD15C,1.840000*%
%ADD16O,2.398980X2.398980*%
%ADD17R,2.398980X2.398980*%
%ADD18R,1.300000X1.600000*%
%ADD19R,2.200860X1.949400*%
%ADD20R,1.150000X1.600000*%
%ADD21R,1.300000X1.200000*%
%ADD22R,1.650000X1.400000*%
G04 APERTURE END LIST*
D10*
D11*
X137500000Y-80500000D03*
X137500000Y-83000000D03*
X142900000Y-80500000D03*
X142900000Y-83000000D03*
D12*
X138000000Y-101400000D03*
D13*
X140000000Y-101400000D03*
X142000000Y-101400000D03*
X144000000Y-101400000D03*
D14*
X135000000Y-87750000D03*
X135000000Y-91500000D03*
X135000000Y-95250000D03*
X140000000Y-87750000D03*
X140000000Y-91500000D03*
X140000000Y-95250000D03*
D15*
X158200000Y-88100000D03*
X155660000Y-88100000D03*
X153120000Y-88100000D03*
D16*
X150560000Y-100400000D03*
D17*
X153100000Y-100400000D03*
D16*
X156400000Y-100400000D03*
D17*
X158940000Y-100400000D03*
D18*
X143000000Y-95100000D03*
X143000000Y-92900000D03*
D19*
X146000000Y-92823980D03*
X146000000Y-95176020D03*
D20*
X152000000Y-93050000D03*
X152000000Y-94950000D03*
D19*
X146000000Y-89176020D03*
X146000000Y-86823980D03*
D12*
X152500000Y-82350000D03*
D13*
X154500000Y-82350000D03*
X156500000Y-82350000D03*
X158500000Y-82350000D03*
D21*
X156600000Y-94950000D03*
X156600000Y-93050000D03*
X154200000Y-94000000D03*
D18*
X149000000Y-92900000D03*
X149000000Y-95100000D03*
X159000000Y-92900000D03*
X159000000Y-95100000D03*
X143000000Y-89100000D03*
X143000000Y-86900000D03*
X149000000Y-86900000D03*
X149000000Y-89100000D03*
X149000000Y-83400000D03*
X149000000Y-81200000D03*
X135000000Y-83000000D03*
X135000000Y-80800000D03*
D22*
X146100000Y-81400000D03*
X146100000Y-83400000D03*
M02*
