G04 #@! TF.FileFunction,Legend,Top*
%FSLAX46Y46*%
G04 Gerber Fmt 4.6, Leading zero omitted, Abs format (unit mm)*
G04 Created by KiCad (PCBNEW 4.0.4-1.fc24-product) date Thu Mar  1 09:37:53 2018*
%MOMM*%
%LPD*%
G01*
G04 APERTURE LIST*
%ADD10C,0.100000*%
%ADD11C,0.150000*%
%ADD12C,0.120000*%
G04 APERTURE END LIST*
D10*
D11*
X143675000Y-93500000D02*
X143675000Y-94500000D01*
X142325000Y-94500000D02*
X142325000Y-93500000D01*
X145365000Y-93365000D02*
X146635000Y-93365000D01*
X145365000Y-95016000D02*
X146635000Y-95016000D01*
X146635000Y-95016000D02*
X146635000Y-92984000D01*
X146635000Y-92984000D02*
X145365000Y-92984000D01*
X145365000Y-92984000D02*
X145365000Y-95016000D01*
X152600000Y-93650000D02*
X152600000Y-94350000D01*
X151400000Y-94350000D02*
X151400000Y-93650000D01*
X146635000Y-88635000D02*
X145365000Y-88635000D01*
X146635000Y-86984000D02*
X145365000Y-86984000D01*
X145365000Y-86984000D02*
X145365000Y-89016000D01*
X145365000Y-89016000D02*
X146635000Y-89016000D01*
X146635000Y-89016000D02*
X146635000Y-86984000D01*
D12*
X150450000Y-80550000D02*
X150450000Y-85250000D01*
X150450000Y-85250000D02*
X160550000Y-85250000D01*
X160550000Y-85250000D02*
X160550000Y-80550000D01*
X160550000Y-80550000D02*
X150450000Y-80550000D01*
X153000000Y-80550000D02*
X153000000Y-81150000D01*
X153000000Y-81150000D02*
X151050000Y-81150000D01*
X151050000Y-81150000D02*
X151050000Y-84650000D01*
X151050000Y-84650000D02*
X159950000Y-84650000D01*
X159950000Y-84650000D02*
X159950000Y-81150000D01*
X159950000Y-81150000D02*
X158000000Y-81150000D01*
X158000000Y-81150000D02*
X158000000Y-80550000D01*
X150450000Y-81850000D02*
X151050000Y-81850000D01*
X150450000Y-83150000D02*
X151050000Y-83150000D01*
X160550000Y-81850000D02*
X159950000Y-81850000D01*
X160550000Y-83150000D02*
X159950000Y-83150000D01*
X152200000Y-80550000D02*
X152200000Y-80350000D01*
X152200000Y-80350000D02*
X151900000Y-80350000D01*
X151900000Y-80350000D02*
X151900000Y-80550000D01*
X152200000Y-80450000D02*
X151900000Y-80450000D01*
X153400000Y-84650000D02*
X153400000Y-84150000D01*
X153400000Y-84150000D02*
X153600000Y-84150000D01*
X153600000Y-84150000D02*
X153600000Y-84650000D01*
X153500000Y-84650000D02*
X153500000Y-84150000D01*
X155400000Y-84650000D02*
X155400000Y-84150000D01*
X155400000Y-84150000D02*
X155600000Y-84150000D01*
X155600000Y-84150000D02*
X155600000Y-84650000D01*
X155500000Y-84650000D02*
X155500000Y-84150000D01*
X157400000Y-84650000D02*
X157400000Y-84150000D01*
X157400000Y-84150000D02*
X157600000Y-84150000D01*
X157600000Y-84150000D02*
X157600000Y-84650000D01*
X157500000Y-84650000D02*
X157500000Y-84150000D01*
X151400000Y-80250000D02*
X150150000Y-80250000D01*
X150150000Y-80250000D02*
X150150000Y-81500000D01*
X156850000Y-95650000D02*
X154450000Y-95650000D01*
X154450000Y-95650000D02*
X154450000Y-94600000D01*
X156250000Y-92350000D02*
X154450000Y-92350000D01*
X154450000Y-92350000D02*
X154450000Y-93400000D01*
D11*
X148325000Y-94500000D02*
X148325000Y-93500000D01*
X149675000Y-93500000D02*
X149675000Y-94500000D01*
X158325000Y-94500000D02*
X158325000Y-93500000D01*
X159675000Y-93500000D02*
X159675000Y-94500000D01*
X143675000Y-87500000D02*
X143675000Y-88500000D01*
X142325000Y-88500000D02*
X142325000Y-87500000D01*
X148325000Y-88500000D02*
X148325000Y-87500000D01*
X149675000Y-87500000D02*
X149675000Y-88500000D01*
X149675000Y-81800000D02*
X149675000Y-82800000D01*
X148325000Y-82800000D02*
X148325000Y-81800000D01*
X135675000Y-81400000D02*
X135675000Y-82400000D01*
X134325000Y-82400000D02*
X134325000Y-81400000D01*
X146950000Y-82900000D02*
X146950000Y-81900000D01*
X145250000Y-81900000D02*
X145250000Y-82900000D01*
X144371429Y-92900000D02*
X144085714Y-93100000D01*
X144371429Y-93242857D02*
X143771429Y-93242857D01*
X143771429Y-93014285D01*
X143800000Y-92957143D01*
X143828571Y-92928571D01*
X143885714Y-92900000D01*
X143971429Y-92900000D01*
X144028571Y-92928571D01*
X144057143Y-92957143D01*
X144085714Y-93014285D01*
X144085714Y-93242857D01*
X144371429Y-92328571D02*
X144371429Y-92671428D01*
X144371429Y-92500000D02*
X143771429Y-92500000D01*
X143857143Y-92557143D01*
X143914286Y-92614285D01*
X143942857Y-92671428D01*
X144614286Y-95300000D02*
X144642857Y-95328571D01*
X144671429Y-95414285D01*
X144671429Y-95471428D01*
X144642857Y-95557143D01*
X144585714Y-95614285D01*
X144528571Y-95642857D01*
X144414286Y-95671428D01*
X144328571Y-95671428D01*
X144214286Y-95642857D01*
X144157143Y-95614285D01*
X144100000Y-95557143D01*
X144071429Y-95471428D01*
X144071429Y-95414285D01*
X144100000Y-95328571D01*
X144128571Y-95300000D01*
X144671429Y-94728571D02*
X144671429Y-95071428D01*
X144671429Y-94900000D02*
X144071429Y-94900000D01*
X144157143Y-94957143D01*
X144214286Y-95014285D01*
X144242857Y-95071428D01*
X153314286Y-92900000D02*
X153342857Y-92928571D01*
X153371429Y-93014285D01*
X153371429Y-93071428D01*
X153342857Y-93157143D01*
X153285714Y-93214285D01*
X153228571Y-93242857D01*
X153114286Y-93271428D01*
X153028571Y-93271428D01*
X152914286Y-93242857D01*
X152857143Y-93214285D01*
X152800000Y-93157143D01*
X152771429Y-93071428D01*
X152771429Y-93014285D01*
X152800000Y-92928571D01*
X152828571Y-92900000D01*
X152828571Y-92671428D02*
X152800000Y-92642857D01*
X152771429Y-92585714D01*
X152771429Y-92442857D01*
X152800000Y-92385714D01*
X152828571Y-92357143D01*
X152885714Y-92328571D01*
X152942857Y-92328571D01*
X153028571Y-92357143D01*
X153371429Y-92700000D01*
X153371429Y-92328571D01*
X144714286Y-89300000D02*
X144742857Y-89328571D01*
X144771429Y-89414285D01*
X144771429Y-89471428D01*
X144742857Y-89557143D01*
X144685714Y-89614285D01*
X144628571Y-89642857D01*
X144514286Y-89671428D01*
X144428571Y-89671428D01*
X144314286Y-89642857D01*
X144257143Y-89614285D01*
X144200000Y-89557143D01*
X144171429Y-89471428D01*
X144171429Y-89414285D01*
X144200000Y-89328571D01*
X144228571Y-89300000D01*
X144171429Y-89100000D02*
X144171429Y-88728571D01*
X144400000Y-88928571D01*
X144400000Y-88842857D01*
X144428571Y-88785714D01*
X144457143Y-88757143D01*
X144514286Y-88728571D01*
X144657143Y-88728571D01*
X144714286Y-88757143D01*
X144742857Y-88785714D01*
X144771429Y-88842857D01*
X144771429Y-89014285D01*
X144742857Y-89071428D01*
X144714286Y-89100000D01*
X159557143Y-80221429D02*
X159557143Y-79621429D01*
X159785715Y-79621429D01*
X159842857Y-79650000D01*
X159871429Y-79678571D01*
X159900000Y-79735714D01*
X159900000Y-79821429D01*
X159871429Y-79878571D01*
X159842857Y-79907143D01*
X159785715Y-79935714D01*
X159557143Y-79935714D01*
X160414286Y-79821429D02*
X160414286Y-80221429D01*
X160271429Y-79592857D02*
X160128572Y-80021429D01*
X160500000Y-80021429D01*
X155728571Y-94082143D02*
X155700000Y-94139286D01*
X155642857Y-94196429D01*
X155557143Y-94282143D01*
X155528571Y-94339286D01*
X155528571Y-94396429D01*
X155671429Y-94367857D02*
X155642857Y-94425000D01*
X155585714Y-94482143D01*
X155471429Y-94510714D01*
X155271429Y-94510714D01*
X155157143Y-94482143D01*
X155100000Y-94425000D01*
X155071429Y-94367857D01*
X155071429Y-94253571D01*
X155100000Y-94196429D01*
X155157143Y-94139286D01*
X155271429Y-94110714D01*
X155471429Y-94110714D01*
X155585714Y-94139286D01*
X155642857Y-94196429D01*
X155671429Y-94253571D01*
X155671429Y-94367857D01*
X155671429Y-93539286D02*
X155671429Y-93882143D01*
X155671429Y-93710715D02*
X155071429Y-93710715D01*
X155157143Y-93767858D01*
X155214286Y-93825000D01*
X155242857Y-93882143D01*
X150371429Y-92900000D02*
X150085714Y-93100000D01*
X150371429Y-93242857D02*
X149771429Y-93242857D01*
X149771429Y-93014285D01*
X149800000Y-92957143D01*
X149828571Y-92928571D01*
X149885714Y-92900000D01*
X149971429Y-92900000D01*
X150028571Y-92928571D01*
X150057143Y-92957143D01*
X150085714Y-93014285D01*
X150085714Y-93242857D01*
X149828571Y-92671428D02*
X149800000Y-92642857D01*
X149771429Y-92585714D01*
X149771429Y-92442857D01*
X149800000Y-92385714D01*
X149828571Y-92357143D01*
X149885714Y-92328571D01*
X149942857Y-92328571D01*
X150028571Y-92357143D01*
X150371429Y-92700000D01*
X150371429Y-92328571D01*
X158071429Y-95500000D02*
X157785714Y-95700000D01*
X158071429Y-95842857D02*
X157471429Y-95842857D01*
X157471429Y-95614285D01*
X157500000Y-95557143D01*
X157528571Y-95528571D01*
X157585714Y-95500000D01*
X157671429Y-95500000D01*
X157728571Y-95528571D01*
X157757143Y-95557143D01*
X157785714Y-95614285D01*
X157785714Y-95842857D01*
X157471429Y-95300000D02*
X157471429Y-94928571D01*
X157700000Y-95128571D01*
X157700000Y-95042857D01*
X157728571Y-94985714D01*
X157757143Y-94957143D01*
X157814286Y-94928571D01*
X157957143Y-94928571D01*
X158014286Y-94957143D01*
X158042857Y-94985714D01*
X158071429Y-95042857D01*
X158071429Y-95214285D01*
X158042857Y-95271428D01*
X158014286Y-95300000D01*
X142071429Y-89300000D02*
X141785714Y-89500000D01*
X142071429Y-89642857D02*
X141471429Y-89642857D01*
X141471429Y-89414285D01*
X141500000Y-89357143D01*
X141528571Y-89328571D01*
X141585714Y-89300000D01*
X141671429Y-89300000D01*
X141728571Y-89328571D01*
X141757143Y-89357143D01*
X141785714Y-89414285D01*
X141785714Y-89642857D01*
X141671429Y-88785714D02*
X142071429Y-88785714D01*
X141442857Y-88928571D02*
X141871429Y-89071428D01*
X141871429Y-88700000D01*
X148071429Y-89300000D02*
X147785714Y-89500000D01*
X148071429Y-89642857D02*
X147471429Y-89642857D01*
X147471429Y-89414285D01*
X147500000Y-89357143D01*
X147528571Y-89328571D01*
X147585714Y-89300000D01*
X147671429Y-89300000D01*
X147728571Y-89328571D01*
X147757143Y-89357143D01*
X147785714Y-89414285D01*
X147785714Y-89642857D01*
X147471429Y-88757143D02*
X147471429Y-89042857D01*
X147757143Y-89071428D01*
X147728571Y-89042857D01*
X147700000Y-88985714D01*
X147700000Y-88842857D01*
X147728571Y-88785714D01*
X147757143Y-88757143D01*
X147814286Y-88728571D01*
X147957143Y-88728571D01*
X148014286Y-88757143D01*
X148042857Y-88785714D01*
X148071429Y-88842857D01*
X148071429Y-88985714D01*
X148042857Y-89042857D01*
X148014286Y-89071428D01*
X148171429Y-83600000D02*
X147885714Y-83800000D01*
X148171429Y-83942857D02*
X147571429Y-83942857D01*
X147571429Y-83714285D01*
X147600000Y-83657143D01*
X147628571Y-83628571D01*
X147685714Y-83600000D01*
X147771429Y-83600000D01*
X147828571Y-83628571D01*
X147857143Y-83657143D01*
X147885714Y-83714285D01*
X147885714Y-83942857D01*
X147571429Y-83085714D02*
X147571429Y-83200000D01*
X147600000Y-83257143D01*
X147628571Y-83285714D01*
X147714286Y-83342857D01*
X147828571Y-83371428D01*
X148057143Y-83371428D01*
X148114286Y-83342857D01*
X148142857Y-83314285D01*
X148171429Y-83257143D01*
X148171429Y-83142857D01*
X148142857Y-83085714D01*
X148114286Y-83057143D01*
X148057143Y-83028571D01*
X147914286Y-83028571D01*
X147857143Y-83057143D01*
X147828571Y-83085714D01*
X147800000Y-83142857D01*
X147800000Y-83257143D01*
X147828571Y-83314285D01*
X147857143Y-83342857D01*
X147914286Y-83371428D01*
X134171429Y-83200000D02*
X133885714Y-83400000D01*
X134171429Y-83542857D02*
X133571429Y-83542857D01*
X133571429Y-83314285D01*
X133600000Y-83257143D01*
X133628571Y-83228571D01*
X133685714Y-83200000D01*
X133771429Y-83200000D01*
X133828571Y-83228571D01*
X133857143Y-83257143D01*
X133885714Y-83314285D01*
X133885714Y-83542857D01*
X133571429Y-83000000D02*
X133571429Y-82600000D01*
X134171429Y-82857143D01*
X144914286Y-83800000D02*
X144942857Y-83828571D01*
X144971429Y-83914285D01*
X144971429Y-83971428D01*
X144942857Y-84057143D01*
X144885714Y-84114285D01*
X144828571Y-84142857D01*
X144714286Y-84171428D01*
X144628571Y-84171428D01*
X144514286Y-84142857D01*
X144457143Y-84114285D01*
X144400000Y-84057143D01*
X144371429Y-83971428D01*
X144371429Y-83914285D01*
X144400000Y-83828571D01*
X144428571Y-83800000D01*
X144571429Y-83285714D02*
X144971429Y-83285714D01*
X144342857Y-83428571D02*
X144771429Y-83571428D01*
X144771429Y-83200000D01*
M02*
