%MOIN*%
%OFA0B0*%
%FSLAX46Y46*%
%IPPOS*%
%LPD*%
%ADD10C,0.0039370078740157488*%
%ADD11O,0.10236220472440946X0.10236220472440946*%
%ADD12O,0.19291338582677167X0.10236220472440946*%
%ADD13O,0.094448031496063X0.094448031496063*%
%ADD14R,0.094448031496063X0.094448031496063*%
%ADD15R,0.082677165354330714X0.062992125984251982*%
%ADD16O,0.082677165354330714X0.062992125984251982*%
%ADD27C,0.0039370078740157488*%
%ADD28C,0.086614173228346469*%
%ADD29R,0.064960629921259838X0.055118110236220472*%
%ADD30R,0.051181102362204731X0.035433070866141732*%
%ADD31R,0.06074803149606299X0.035748031496062996*%
%ADD32R,0.051181102362204731X0.047244094488188976*%
%ADD33R,0.082677165354330714X0.062992125984251982*%
%ADD34O,0.082677165354330714X0.062992125984251982*%
%ADD35R,0.055118110236220472X0.064960629921259838*%
%ADD36R,0.047244094488188976X0.0452755905511811*%
%ADD37R,0.035433070866141732X0.051181102362204731*%
%ADD38R,0.07874015748031496X0.055118110236220472*%
%ADD39R,0.0452755905511811X0.047244094488188976*%
%ADD50C,0.0039370078740157488*%
%ADD51R,0.082677165354330714X0.062992125984251982*%
%ADD52O,0.082677165354330714X0.062992125984251982*%
%ADD53R,0.062992125984251982X0.051181102362204731*%
%ADD54C,0.086614173228346469*%
%ADD55R,0.055118110236220472X0.064960629921259838*%
%ADD56R,0.055118110236220472X0.07874015748031496*%
%ADD67C,0.0039370078740157488*%
%ADD68C,0.086614173228346469*%
%ADD69O,0.086614173228346469X0.086614173228346469*%
%ADD70R,0.082677165354330714X0.062992125984251982*%
%ADD71O,0.082677165354330714X0.062992125984251982*%
%ADD82C,0.0039370078740157488*%
%ADD83R,0.062992125984251982X0.082677165354330714*%
%ADD84O,0.062992125984251982X0.082677165354330714*%
%ADD85O,0.086614173228346469X0.086614173228346469*%
%ADD86C,0.086614173228346469*%
%ADD97C,0.0039370078740157488*%
%ADD98R,0.062992125984251982X0.082677165354330714*%
%ADD99O,0.062992125984251982X0.082677165354330714*%
%ADD100O,0.086614173228346469X0.086614173228346469*%
%ADD101C,0.086614173228346469*%
%ADD112C,0.0039370078740157488*%
%ADD113O,0.094448031496063X0.094448031496063*%
%ADD114R,0.094448031496063X0.094448031496063*%
%ADD115C,0.086614173228346469*%
%ADD116R,0.082677165354330714X0.062992125984251982*%
%ADD117O,0.082677165354330714X0.062992125984251982*%
%ADD118R,0.062992125984251982X0.082677165354330714*%
%ADD119O,0.062992125984251982X0.082677165354330714*%
%LPD*%
G01*
D10*
D11*
X-0004055118Y0003858267D02*
X0000728346Y0001023622D03*
X0000531496Y0001023622D03*
X0000334645Y0001023622D03*
X0000433070Y0000610236D03*
X0000433070Y0000452755D03*
X0000433070Y0000295275D03*
X0000629921Y0000610236D03*
X0000629921Y0000452755D03*
X0000629921Y0000295275D03*
D12*
X0000531496Y0000129921D03*
D13*
X0000940944Y0000407874D03*
D14*
X0000940944Y0000507874D03*
D13*
X0000940944Y0000070866D03*
D14*
X0000940944Y0000270866D03*
D13*
X0000940944Y0000170866D03*
D15*
X0000090551Y0000590551D03*
D16*
X0000090551Y0000511811D03*
X0000090551Y0000433070D03*
X0000090551Y0000354330D03*
D15*
X0000090551Y0000169291D03*
D16*
X0000090551Y0000090551D03*
G01*
D27*
D28*
X-0005708661Y0005610236D02*
X0000531496Y0002086614D03*
X0000334645Y0002086614D03*
X0000137795Y0002086614D03*
D29*
X0000374015Y0001692913D03*
X0000374015Y0001771653D03*
D30*
X0000275590Y0001584645D03*
X0000275590Y0001525590D03*
D29*
X0000629921Y0002106299D03*
X0000629921Y0002027559D03*
D31*
X0000794291Y0001826968D03*
X0000794291Y0001776968D03*
X0000794291Y0001726968D03*
X0000794291Y0001676968D03*
X0000544291Y0001676968D03*
X0000544291Y0001726968D03*
X0000544291Y0001776968D03*
X0000544291Y0001826968D03*
D32*
X0000472440Y0001303148D03*
X0000472440Y0001377952D03*
X0000393700Y0001340551D03*
D33*
X0000937007Y0001618110D03*
D34*
X0000937007Y0001696850D03*
D33*
X0000937007Y0001885826D03*
D34*
X0000937007Y0001964566D03*
X0000937007Y0002043307D03*
X0000937007Y0002122047D03*
D33*
X0000090551Y0001535433D03*
D34*
X0000090551Y0001456692D03*
X0000090551Y0001377952D03*
X0000090551Y0001299212D03*
D35*
X0000314960Y0001429133D03*
X0000236220Y0001429133D03*
X0000669291Y0001429133D03*
X0000590551Y0001429133D03*
D36*
X0000612204Y0001582677D03*
X0000671259Y0001582677D03*
D30*
X0000236220Y0001340551D03*
X0000236220Y0001281496D03*
X0000314960Y0001340551D03*
X0000314960Y0001281496D03*
X0000590551Y0001340551D03*
X0000590551Y0001281496D03*
X0000669291Y0001340551D03*
X0000669291Y0001281496D03*
X0000523622Y0001584645D03*
X0000523622Y0001525590D03*
X0000366141Y0001525590D03*
X0000366141Y0001584645D03*
X0000444881Y0001525590D03*
X0000444881Y0001584645D03*
X0000196850Y0001584645D03*
X0000196850Y0001525590D03*
D37*
X0000761810Y0001909448D03*
X0000702755Y0001909448D03*
X0000738188Y0001586614D03*
X0000797244Y0001586614D03*
D38*
X0000287401Y0001673228D03*
X0000287401Y0001791338D03*
D33*
X0000090551Y0001775589D03*
D34*
X0000090551Y0001696850D03*
D36*
X0000590551Y0001909448D03*
X0000531496Y0001909448D03*
D37*
X0000763779Y0002027559D03*
X0000704723Y0002027559D03*
D39*
X0000452755Y0001702755D03*
X0000452755Y0001761811D03*
G01*
D50*
D51*
X-0003917322Y0004291338D02*
X0001846456Y0000722440D03*
D52*
X0001846456Y0000801181D03*
X0001846456Y0000879921D03*
X0001846456Y0000958661D03*
D53*
X0001629921Y0000433070D03*
X0001716535Y0000433070D03*
X0001433070Y0000433070D03*
X0001519685Y0000433070D03*
X0001322834Y0000433070D03*
X0001236220Y0000433070D03*
D54*
X0001584645Y0000964565D03*
X0001437007Y0000964565D03*
X0001289370Y0000964565D03*
X0001584645Y0000767716D03*
X0001437007Y0000767716D03*
X0001289370Y0000767716D03*
X0001289370Y0000570866D03*
X0001437007Y0000570866D03*
X0001584645Y0000570866D03*
D55*
X0001240157Y0000314960D03*
X0001318897Y0000314960D03*
D56*
X0001535433Y0000314960D03*
X0001417321Y0000314960D03*
G04 next file*
%LPD*%
G01*
D67*
D68*
X-0004212598Y0006692913D02*
X0001362204Y0002314960D03*
D69*
X0001362204Y0002500000D03*
X0001362204Y0002685039D03*
D70*
X0001606299Y0002460629D03*
D71*
X0001606299Y0002539370D03*
G01*
D82*
D83*
X-0002657479Y-0003070866D02*
X0000984250Y0002858267D03*
D84*
X0000905511Y0002858267D03*
X0000826771Y0002858267D03*
X0000748031Y0002858267D03*
D85*
X0000866141Y0002456692D03*
D86*
X0000681102Y0002456692D03*
D85*
X0001051181Y0002456692D03*
D86*
X0000681102Y0002646850D03*
D85*
X0000866141Y0002646850D03*
X0001051181Y0002646850D03*
G04 next file*
G01*
D97*
D98*
X-0003267716Y-0003070866D02*
X0000374015Y0002862204D03*
D99*
X0000295275Y0002862204D03*
X0000216535Y0002862204D03*
X0000137795Y0002862204D03*
D100*
X0000255905Y0002456692D03*
D101*
X0000070866Y0002456692D03*
D100*
X0000440943Y0002456692D03*
D101*
X0000070866Y0002646850D03*
D100*
X0000255905Y0002646850D03*
X0000440943Y0002646850D03*
G04 next file*
G04 #@! TF.FileFunction,Soldermask,Top*
G04 Gerber Fmt 4.6, Leading zero omitted, Abs format (unit mm)*
G04 Created by KiCad (PCBNEW 4.0.4-1.fc24-product) date Mon Jun  4 17:16:06 2018*
G01*
G04 APERTURE LIST*
G04 APERTURE END LIST*
D112*
D113*
X-0002066929Y-0003877952D02*
X0001619685Y0002017716D03*
D114*
X0001519685Y0002017716D03*
D113*
X0001392913Y0002017716D03*
D114*
X0001192913Y0002017716D03*
D113*
X0001292913Y0002017716D03*
D115*
X0001279527Y0001732283D03*
X0001279527Y0001535433D03*
X0001279527Y0001338582D03*
D116*
X0001822834Y0001700787D03*
D117*
X0001822834Y0001779527D03*
D116*
X0001610236Y0001700787D03*
D117*
X0001610236Y0001779527D03*
D113*
X0001846456Y0002017716D03*
D114*
X0001746456Y0002017716D03*
D118*
X0001576771Y0001279527D03*
D119*
X0001655511Y0001279527D03*
X0001734250Y0001279527D03*
X0001812992Y0001279527D03*
D118*
X0001576771Y0001476377D03*
D119*
X0001655511Y0001476377D03*
X0001734250Y0001476377D03*
X0001812992Y0001476377D03*
M02*