%MOIN*%
%OFA0B0*%
%FSLAX44Y44*%
%IPPOS*%
%LPD*%
%ADD10C,0*%
D10*
X00009055Y00020866D02*
X00009055Y00020866D01*
X00006764Y00020866D01*
X00006733Y00020867D01*
X00006703Y00020870D01*
X00006672Y00020877D01*
X00006643Y00020885D01*
X00006614Y00020896D01*
X00006586Y00020909D01*
X00006559Y00020924D01*
X00006533Y00020941D01*
X00006509Y00020960D01*
X00006486Y00020981D01*
X00006465Y00021004D01*
X00006446Y00021028D01*
X00006429Y00021054D01*
X00006414Y00021081D01*
X00006401Y00021109D01*
X00006390Y00021138D01*
X00006381Y00021167D01*
X00006375Y00021198D01*
X00006372Y00021228D01*
X00006764Y00021259D01*
X00006372Y00021290D01*
X00006375Y00021321D01*
X00006381Y00021351D01*
X00006390Y00021381D01*
X00006401Y00021410D01*
X00006414Y00021438D01*
X00006429Y00021465D01*
X00006446Y00021491D01*
X00006465Y00021515D01*
X00006486Y00021538D01*
X00006509Y00021559D01*
X00006533Y00021578D01*
X00006559Y00021595D01*
X00006586Y00021610D01*
X00006614Y00021623D01*
X00006643Y00021634D01*
X00006672Y00021642D01*
X00006703Y00021648D01*
X00006733Y00021652D01*
X00006764Y00021653D01*
X00009055Y00021653D01*
X00009055Y00023803D01*
X00009448Y00023803D01*
X00009059Y00023864D01*
X00009074Y00023924D01*
X00009098Y00023981D01*
X00009130Y00024034D01*
X00009170Y00024081D01*
X00009217Y00024121D01*
X00009270Y00024154D01*
X00009327Y00024177D01*
X00009387Y00024192D01*
X00009448Y00024196D01*
X00009510Y00024192D01*
X00009570Y00024177D01*
X00009627Y00024154D01*
X00009680Y00024121D01*
X00009727Y00024081D01*
X00009767Y00024034D01*
X00009799Y00023981D01*
X00009823Y00023924D01*
X00009837Y00023864D01*
X00009842Y00023803D01*
X00009842Y00023228D01*
X00011795Y00023228D01*
X00011795Y00023228D01*
X00011856Y00023223D01*
X00011917Y00023209D01*
X00011974Y00023185D01*
X00012026Y00023153D01*
X00012073Y00023113D01*
X00012113Y00023066D01*
X00012146Y00023013D01*
X00012169Y00022956D01*
X00012184Y00022896D01*
X00012189Y00022834D01*
X00012184Y00022773D01*
X00012169Y00022712D01*
X00012146Y00022655D01*
X00012113Y00022603D01*
X00012073Y00022556D01*
X00012026Y00022516D01*
X00011974Y00022483D01*
X00011917Y00022460D01*
X00011856Y00022445D01*
X00011795Y00022440D01*
X00009842Y00022440D01*
X00009842Y00020488D01*
X00009837Y00020426D01*
X00009823Y00020366D01*
X00009799Y00020309D01*
X00009767Y00020256D01*
X00009727Y00020209D01*
X00009680Y00020169D01*
X00009627Y00020137D01*
X00009570Y00020113D01*
X00009510Y00020099D01*
X00009448Y00020094D01*
X00009387Y00020099D01*
X00009327Y00020113D01*
X00009270Y00020137D01*
X00009217Y00020169D01*
X00009170Y00020209D01*
X00009130Y00020256D01*
X00009098Y00020309D01*
X00009074Y00020366D01*
X00009059Y00020426D01*
X00009448Y00020488D01*
X00009055Y00020488D01*
X00009055Y00020866D01*
X00009842Y00016535D02*
X00009842Y00016535D01*
X00009842Y00013795D01*
X00009837Y00013733D01*
X00009823Y00013673D01*
X00009799Y00013616D01*
X00009767Y00013563D01*
X00009727Y00013516D01*
X00009680Y00013476D01*
X00009627Y00013444D01*
X00009570Y00013420D01*
X00009510Y00013406D01*
X00009448Y00013401D01*
X00009387Y00013406D01*
X00009327Y00013420D01*
X00009270Y00013444D01*
X00009217Y00013476D01*
X00009170Y00013516D01*
X00009130Y00013563D01*
X00009098Y00013616D01*
X00009074Y00013673D01*
X00009059Y00013733D01*
X00009448Y00013795D01*
X00009055Y00013795D01*
X00009055Y00018094D01*
X00009448Y00018094D01*
X00009059Y00018156D01*
X00009074Y00018216D01*
X00009098Y00018273D01*
X00009130Y00018326D01*
X00009170Y00018372D01*
X00009217Y00018413D01*
X00009270Y00018445D01*
X00009327Y00018469D01*
X00009387Y00018483D01*
X00009448Y00018488D01*
X00009510Y00018483D01*
X00009570Y00018469D01*
X00009627Y00018445D01*
X00009680Y00018413D01*
X00009727Y00018372D01*
X00009767Y00018326D01*
X00009799Y00018273D01*
X00009823Y00018216D01*
X00009837Y00018156D01*
X00009842Y00018094D01*
X00009842Y00017322D01*
X00012037Y00017322D01*
X00012037Y00017322D01*
X00012099Y00017317D01*
X00012159Y00017303D01*
X00012216Y00017279D01*
X00012268Y00017247D01*
X00012315Y00017207D01*
X00012355Y00017160D01*
X00012388Y00017107D01*
X00012411Y00017050D01*
X00012426Y00016990D01*
X00012431Y00016929D01*
X00012426Y00016867D01*
X00012411Y00016807D01*
X00012388Y00016750D01*
X00012355Y00016697D01*
X00012315Y00016650D01*
X00012268Y00016610D01*
X00012216Y00016578D01*
X00012159Y00016554D01*
X00012099Y00016540D01*
X00012037Y00016535D01*
X00009842Y00016535D01*
X00009055Y00005757D02*
X00009055Y00005757D01*
X00009055Y00010236D01*
X00006125Y00010236D01*
X00006094Y00010237D01*
X00006063Y00010241D01*
X00006033Y00010247D01*
X00006003Y00010255D01*
X00005974Y00010266D01*
X00005946Y00010279D01*
X00005919Y00010294D01*
X00005893Y00010311D01*
X00005869Y00010330D01*
X00005846Y00010351D01*
X00005825Y00010374D01*
X00005806Y00010398D01*
X00005789Y00010424D01*
X00005774Y00010451D01*
X00005761Y00010479D01*
X00005750Y00010508D01*
X00005742Y00010538D01*
X00005736Y00010568D01*
X00005732Y00010599D01*
X00006125Y00010629D01*
X00005732Y00010660D01*
X00005736Y00010691D01*
X00005742Y00010721D01*
X00005750Y00010751D01*
X00005761Y00010780D01*
X00005774Y00010808D01*
X00005789Y00010835D01*
X00005806Y00010861D01*
X00005825Y00010885D01*
X00005846Y00010908D01*
X00005869Y00010929D01*
X00005893Y00010948D01*
X00005919Y00010965D01*
X00005946Y00010980D01*
X00005974Y00010993D01*
X00006003Y00011004D01*
X00006033Y00011012D01*
X00006063Y00011018D01*
X00006094Y00011022D01*
X00006125Y00011023D01*
X00009055Y00011023D01*
X00009055Y00011401D01*
X00009448Y00011401D01*
X00009059Y00011463D01*
X00009074Y00011523D01*
X00009098Y00011580D01*
X00009130Y00011633D01*
X00009170Y00011680D01*
X00009217Y00011720D01*
X00009270Y00011752D01*
X00009327Y00011776D01*
X00009387Y00011790D01*
X00009448Y00011795D01*
X00009510Y00011790D01*
X00009570Y00011776D01*
X00009627Y00011752D01*
X00009680Y00011720D01*
X00009727Y00011680D01*
X00009767Y00011633D01*
X00009799Y00011580D01*
X00009823Y00011523D01*
X00009837Y00011463D01*
X00009842Y00011401D01*
X00009842Y00008661D01*
X00013222Y00008661D01*
X00013314Y00008650D01*
X00013401Y00008618D01*
X00013478Y00008567D01*
X00013541Y00008499D01*
X00013586Y00008418D01*
X00013611Y00008329D01*
X00013615Y00008236D01*
X00013596Y00008146D01*
X00013558Y00008062D01*
X00013500Y00007989D01*
X00013428Y00007932D01*
X00013344Y00007893D01*
X00013253Y00007875D01*
X00013160Y00007878D01*
X00013071Y00007903D01*
X00012991Y00007949D01*
X00012923Y00008012D01*
X00012871Y00008088D01*
X00012839Y00008175D01*
X00013222Y00008267D01*
X00012839Y00008359D01*
X00012871Y00008446D01*
X00012923Y00008523D01*
X00012991Y00008586D01*
X00013071Y00008631D01*
X00013160Y00008656D01*
X00013253Y00008660D01*
X00013344Y00008642D01*
X00013428Y00008603D01*
X00013500Y00008546D01*
X00013558Y00008473D01*
X00013596Y00008389D01*
X00013615Y00008298D01*
X00013611Y00008206D01*
X00013586Y00008117D01*
X00013541Y00008036D01*
X00013478Y00007968D01*
X00013401Y00007916D01*
X00013314Y00007884D01*
X00013222Y00007874D01*
X00009842Y00007874D01*
X00009842Y00005757D01*
X00009837Y00005696D01*
X00009823Y00005636D01*
X00009799Y00005578D01*
X00009767Y00005526D01*
X00009727Y00005479D01*
X00009680Y00005439D01*
X00009627Y00005406D01*
X00009570Y00005383D01*
X00009510Y00005368D01*
X00009448Y00005364D01*
X00009387Y00005368D01*
X00009327Y00005383D01*
X00009270Y00005406D01*
X00009217Y00005439D01*
X00009170Y00005479D01*
X00009130Y00005526D01*
X00009098Y00005578D01*
X00009074Y00005636D01*
X00009059Y00005696D01*
X00009448Y00005757D01*
X00009055Y00005757D01*
X00000000Y00000000D02*
X00000000Y00000000D01*
X00009055Y00000000D01*
X00009055Y00003364D01*
X00009059Y00003425D01*
X00009074Y00003485D01*
X00009098Y00003542D01*
X00009130Y00003595D01*
X00009170Y00003642D01*
X00009217Y00003682D01*
X00009270Y00003715D01*
X00009327Y00003738D01*
X00009387Y00003753D01*
X00009448Y00003757D01*
X00009510Y00003753D01*
X00009570Y00003738D01*
X00009627Y00003715D01*
X00009680Y00003682D01*
X00009727Y00003642D01*
X00009767Y00003595D01*
X00009799Y00003542D01*
X00009823Y00003485D01*
X00009837Y00003425D01*
X00009842Y00003364D01*
X00009842Y00003364D01*
X00009842Y00000000D01*
X00020078Y00000000D01*
X00020078Y00007874D01*
X00015616Y00007874D01*
X00015554Y00007878D01*
X00015494Y00007893D01*
X00015437Y00007916D01*
X00015384Y00007949D01*
X00015337Y00007989D01*
X00015297Y00008036D01*
X00015265Y00008088D01*
X00015241Y00008146D01*
X00015227Y00008206D01*
X00015222Y00008267D01*
X00015227Y00008329D01*
X00015241Y00008389D01*
X00015265Y00008446D01*
X00015297Y00008499D01*
X00015337Y00008546D01*
X00015384Y00008586D01*
X00015437Y00008618D01*
X00015494Y00008642D01*
X00015554Y00008656D01*
X00015616Y00008661D01*
X00015616Y00008661D01*
X00017913Y00008661D01*
X00017913Y00016535D01*
X00014430Y00016535D01*
X00014400Y00016536D01*
X00014369Y00016540D01*
X00014339Y00016546D01*
X00014309Y00016554D01*
X00014280Y00016565D01*
X00014252Y00016578D01*
X00014225Y00016593D01*
X00014199Y00016610D01*
X00014175Y00016629D01*
X00014152Y00016650D01*
X00014131Y00016673D01*
X00014112Y00016697D01*
X00014095Y00016723D01*
X00014080Y00016750D01*
X00014067Y00016778D01*
X00014056Y00016807D01*
X00014048Y00016837D01*
X00014042Y00016867D01*
X00014038Y00016898D01*
X00014430Y00016929D01*
X00014038Y00016960D01*
X00014042Y00016990D01*
X00014048Y00017021D01*
X00014056Y00017050D01*
X00014067Y00017079D01*
X00014080Y00017107D01*
X00014095Y00017134D01*
X00014112Y00017160D01*
X00014131Y00017184D01*
X00014152Y00017207D01*
X00014175Y00017228D01*
X00014199Y00017247D01*
X00014225Y00017264D01*
X00014252Y00017279D01*
X00014280Y00017292D01*
X00014309Y00017303D01*
X00014339Y00017311D01*
X00014369Y00017317D01*
X00014400Y00017321D01*
X00014430Y00017322D01*
X00015748Y00017322D01*
X00015748Y00022440D01*
X00014188Y00022440D01*
X00014157Y00022442D01*
X00014127Y00022445D01*
X00014096Y00022451D01*
X00014067Y00022460D01*
X00014038Y00022470D01*
X00014010Y00022483D01*
X00013983Y00022498D01*
X00013957Y00022516D01*
X00013933Y00022535D01*
X00013910Y00022556D01*
X00013889Y00022578D01*
X00013870Y00022603D01*
X00013853Y00022628D01*
X00013838Y00022655D01*
X00013825Y00022683D01*
X00013814Y00022712D01*
X00013806Y00022742D01*
X00013800Y00022773D01*
X00013796Y00022803D01*
X00014188Y00022834D01*
X00013796Y00022865D01*
X00013800Y00022896D01*
X00013806Y00022926D01*
X00013814Y00022956D01*
X00013825Y00022985D01*
X00013838Y00023013D01*
X00013853Y00023040D01*
X00013870Y00023066D01*
X00013889Y00023090D01*
X00013910Y00023113D01*
X00013933Y00023134D01*
X00013957Y00023153D01*
X00013983Y00023170D01*
X00014010Y00023185D01*
X00014038Y00023198D01*
X00014067Y00023209D01*
X00014096Y00023217D01*
X00014127Y00023223D01*
X00014157Y00023227D01*
X00014188Y00023228D01*
X00016535Y00023228D01*
X00016535Y00028346D01*
X00009842Y00028346D01*
X00009842Y00026196D01*
X00009837Y00026135D01*
X00009823Y00026075D01*
X00009799Y00026018D01*
X00009767Y00025965D01*
X00009727Y00025918D01*
X00009680Y00025878D01*
X00009627Y00025845D01*
X00009570Y00025822D01*
X00009510Y00025807D01*
X00009448Y00025803D01*
X00009387Y00025807D01*
X00009327Y00025822D01*
X00009270Y00025845D01*
X00009217Y00025878D01*
X00009170Y00025918D01*
X00009130Y00025965D01*
X00009098Y00026018D01*
X00009074Y00026075D01*
X00009059Y00026135D01*
X00009448Y00026196D01*
X00009055Y00026196D01*
X00009055Y00026771D01*
X00002362Y00026771D01*
X00002362Y00021653D01*
X00004371Y00021653D01*
X00004463Y00021642D01*
X00004550Y00021610D01*
X00004626Y00021559D01*
X00004689Y00021491D01*
X00004735Y00021410D01*
X00004760Y00021321D01*
X00004763Y00021228D01*
X00004745Y00021138D01*
X00004706Y00021054D01*
X00004649Y00020981D01*
X00004577Y00020924D01*
X00004492Y00020885D01*
X00004402Y00020867D01*
X00004309Y00020870D01*
X00004220Y00020896D01*
X00004139Y00020941D01*
X00004071Y00021004D01*
X00004020Y00021081D01*
X00003988Y00021167D01*
X00004371Y00021259D01*
X00003988Y00021351D01*
X00004020Y00021438D01*
X00004071Y00021515D01*
X00004139Y00021578D01*
X00004220Y00021623D01*
X00004309Y00021648D01*
X00004402Y00021652D01*
X00004492Y00021634D01*
X00004577Y00021595D01*
X00004649Y00021538D01*
X00004706Y00021465D01*
X00004745Y00021381D01*
X00004763Y00021290D01*
X00004760Y00021198D01*
X00004735Y00021109D01*
X00004689Y00021028D01*
X00004626Y00020960D01*
X00004550Y00020909D01*
X00004463Y00020877D01*
X00004371Y00020866D01*
X00001574Y00020866D01*
X00001574Y00011023D01*
X00003731Y00011023D01*
X00003731Y00011023D01*
X00003793Y00011018D01*
X00003853Y00011004D01*
X00003910Y00010980D01*
X00003963Y00010948D01*
X00004010Y00010908D01*
X00004050Y00010861D01*
X00004082Y00010808D01*
X00004106Y00010751D01*
X00004120Y00010691D01*
X00004125Y00010629D01*
X00004120Y00010568D01*
X00004106Y00010508D01*
X00004082Y00010451D01*
X00004050Y00010398D01*
X00004010Y00010351D01*
X00003963Y00010311D01*
X00003910Y00010279D01*
X00003853Y00010255D01*
X00003793Y00010241D01*
X00003731Y00010236D01*
X00000000Y00010236D01*
X00000000Y00000000D01*
M02*