%MOIN*%
%OFA0B0*%
%FSLAX44Y44*%
%IPPOS*%
%LPD*%
%ADD10C,0*%
D10*
X00009842Y00014124D02*
X00009842Y00014124D01*
X00009842Y00011023D01*
X00012056Y00011023D01*
X00012148Y00011012D01*
X00012235Y00010980D01*
X00012312Y00010929D01*
X00012375Y00010861D01*
X00012420Y00010780D01*
X00012445Y00010691D01*
X00012449Y00010599D01*
X00012430Y00010508D01*
X00012392Y00010424D01*
X00012334Y00010351D01*
X00012262Y00010294D01*
X00012178Y00010255D01*
X00012087Y00010237D01*
X00011994Y00010241D01*
X00011905Y00010266D01*
X00011825Y00010311D01*
X00011757Y00010374D01*
X00011705Y00010451D01*
X00011673Y00010538D01*
X00012056Y00010629D01*
X00011673Y00010721D01*
X00011705Y00010808D01*
X00011757Y00010885D01*
X00011825Y00010948D01*
X00011905Y00010993D01*
X00011994Y00011018D01*
X00012087Y00011022D01*
X00012178Y00011004D01*
X00012262Y00010965D01*
X00012334Y00010908D01*
X00012392Y00010835D01*
X00012430Y00010751D01*
X00012449Y00010660D01*
X00012445Y00010568D01*
X00012420Y00010479D01*
X00012375Y00010398D01*
X00012312Y00010330D01*
X00012235Y00010279D01*
X00012148Y00010247D01*
X00012056Y00010236D01*
X00009842Y00010236D01*
X00009842Y00006020D01*
X00009840Y00005984D01*
X00009836Y00005949D01*
X00009828Y00005914D01*
X00009816Y00005880D01*
X00009802Y00005847D01*
X00009785Y00005816D01*
X00009765Y00005786D01*
X00009743Y00005758D01*
X00009718Y00005733D01*
X00009691Y00005709D01*
X00009661Y00005689D01*
X00009631Y00005671D01*
X00009598Y00005656D01*
X00009565Y00005644D01*
X00009530Y00005635D01*
X00009495Y00005629D01*
X00009459Y00005626D01*
X00009423Y00005627D01*
X00009388Y00005631D01*
X00009353Y00005638D01*
X00009353Y00005638D01*
X00009328Y00005645D01*
X00009303Y00005654D01*
X00009279Y00005664D01*
X00009256Y00005676D01*
X00009234Y00005690D01*
X00009212Y00005705D01*
X00009192Y00005721D01*
X00009173Y00005739D01*
X00009155Y00005757D01*
X00009138Y00005777D01*
X00009123Y00005798D01*
X00009109Y00005821D01*
X00009096Y00005843D01*
X00009085Y00005867D01*
X00009076Y00005892D01*
X00009068Y00005917D01*
X00009062Y00005942D01*
X00009058Y00005968D01*
X00009055Y00005994D01*
X00009055Y00006020D01*
X00009055Y00010236D01*
X00005830Y00010236D01*
X00005799Y00010237D01*
X00005768Y00010241D01*
X00005738Y00010247D01*
X00005708Y00010255D01*
X00005679Y00010266D01*
X00005651Y00010279D01*
X00005624Y00010294D01*
X00005599Y00010311D01*
X00005574Y00010330D01*
X00005552Y00010351D01*
X00005531Y00010374D01*
X00005511Y00010398D01*
X00005494Y00010424D01*
X00005479Y00010451D01*
X00005466Y00010479D01*
X00005456Y00010508D01*
X00005447Y00010538D01*
X00005441Y00010568D01*
X00005438Y00010599D01*
X00005830Y00010629D01*
X00005438Y00010660D01*
X00005441Y00010691D01*
X00005447Y00010721D01*
X00005456Y00010751D01*
X00005466Y00010780D01*
X00005479Y00010808D01*
X00005494Y00010835D01*
X00005511Y00010861D01*
X00005531Y00010885D01*
X00005552Y00010908D01*
X00005574Y00010929D01*
X00005599Y00010948D01*
X00005624Y00010965D01*
X00005651Y00010980D01*
X00005679Y00010993D01*
X00005708Y00011004D01*
X00005738Y00011012D01*
X00005768Y00011018D01*
X00005799Y00011022D01*
X00005830Y00011023D01*
X00009055Y00011023D01*
X00009055Y00014124D01*
X00009056Y00014155D01*
X00009059Y00014185D01*
X00009065Y00014216D01*
X00009074Y00014245D01*
X00009085Y00014274D01*
X00009098Y00014302D01*
X00009113Y00014329D01*
X00009130Y00014355D01*
X00009149Y00014379D01*
X00009170Y00014402D01*
X00009193Y00014423D01*
X00009217Y00014442D01*
X00009243Y00014459D01*
X00009270Y00014474D01*
X00009298Y00014487D01*
X00009327Y00014498D01*
X00009356Y00014506D01*
X00009387Y00014513D01*
X00009417Y00014516D01*
X00009448Y00014517D01*
X00009448Y00014517D01*
X00009479Y00014516D01*
X00009510Y00014513D01*
X00009540Y00014506D01*
X00009570Y00014498D01*
X00009599Y00014487D01*
X00009627Y00014474D01*
X00009654Y00014459D01*
X00009680Y00014442D01*
X00009704Y00014423D01*
X00009727Y00014402D01*
X00009748Y00014379D01*
X00009767Y00014355D01*
X00009784Y00014329D01*
X00009799Y00014302D01*
X00009812Y00014274D01*
X00009823Y00014245D01*
X00009831Y00014216D01*
X00009837Y00014185D01*
X00009841Y00014155D01*
X00009842Y00014124D01*
X00009842Y00022621D02*
X00009842Y00022621D01*
X00009842Y00020587D01*
X00009841Y00020556D01*
X00009837Y00020525D01*
X00009831Y00020495D01*
X00009823Y00020465D01*
X00009812Y00020436D01*
X00009799Y00020408D01*
X00009784Y00020381D01*
X00009767Y00020355D01*
X00009748Y00020331D01*
X00009727Y00020308D01*
X00009704Y00020287D01*
X00009680Y00020268D01*
X00009654Y00020251D01*
X00009627Y00020236D01*
X00009599Y00020223D01*
X00009570Y00020212D01*
X00009540Y00020204D01*
X00009510Y00020198D01*
X00009479Y00020194D01*
X00009448Y00020193D01*
X00009448Y00020193D01*
X00009417Y00020194D01*
X00009387Y00020198D01*
X00009356Y00020204D01*
X00009327Y00020212D01*
X00009298Y00020223D01*
X00009270Y00020236D01*
X00009243Y00020251D01*
X00009217Y00020268D01*
X00009193Y00020287D01*
X00009170Y00020308D01*
X00009149Y00020331D01*
X00009130Y00020355D01*
X00009113Y00020381D01*
X00009098Y00020408D01*
X00009085Y00020436D01*
X00009074Y00020465D01*
X00009065Y00020495D01*
X00009059Y00020525D01*
X00009056Y00020556D01*
X00009055Y00020587D01*
X00009055Y00020866D01*
X00006109Y00020866D01*
X00006109Y00020866D01*
X00006048Y00020870D01*
X00005988Y00020885D01*
X00005930Y00020909D01*
X00005878Y00020941D01*
X00005831Y00020981D01*
X00005791Y00021028D01*
X00005758Y00021081D01*
X00005735Y00021138D01*
X00005720Y00021198D01*
X00005715Y00021259D01*
X00005720Y00021321D01*
X00005735Y00021381D01*
X00005758Y00021438D01*
X00005791Y00021491D01*
X00005831Y00021538D01*
X00005878Y00021578D01*
X00005930Y00021610D01*
X00005988Y00021634D01*
X00006048Y00021648D01*
X00006109Y00021653D01*
X00009055Y00021653D01*
X00009055Y00022621D01*
X00009055Y00022621D01*
X00009059Y00022683D01*
X00009074Y00022743D01*
X00009098Y00022800D01*
X00009130Y00022852D01*
X00009170Y00022899D01*
X00009217Y00022940D01*
X00009270Y00022972D01*
X00009327Y00022995D01*
X00009387Y00023010D01*
X00009448Y00023015D01*
X00009510Y00023010D01*
X00009570Y00022995D01*
X00009627Y00022972D01*
X00009680Y00022940D01*
X00009727Y00022899D01*
X00009767Y00022852D01*
X00009799Y00022800D01*
X00009823Y00022743D01*
X00009837Y00022683D01*
X00009842Y00022621D01*
X00009842Y00018782D02*
X00009842Y00018782D01*
X00009842Y00018503D01*
X00011401Y00018503D01*
X00011401Y00018503D01*
X00011463Y00018499D01*
X00011523Y00018484D01*
X00011580Y00018461D01*
X00011633Y00018428D01*
X00011680Y00018388D01*
X00011720Y00018341D01*
X00011752Y00018288D01*
X00011776Y00018231D01*
X00011790Y00018171D01*
X00011795Y00018110D01*
X00011790Y00018048D01*
X00011776Y00017988D01*
X00011752Y00017931D01*
X00011720Y00017878D01*
X00011680Y00017831D01*
X00011633Y00017791D01*
X00011580Y00017759D01*
X00011523Y00017735D01*
X00011463Y00017721D01*
X00011401Y00017716D01*
X00009842Y00017716D01*
X00009842Y00015928D01*
X00009841Y00015897D01*
X00009837Y00015866D01*
X00009831Y00015836D01*
X00009823Y00015806D01*
X00009812Y00015777D01*
X00009799Y00015749D01*
X00009784Y00015722D01*
X00009767Y00015696D01*
X00009748Y00015672D01*
X00009727Y00015649D01*
X00009704Y00015628D01*
X00009680Y00015609D01*
X00009654Y00015592D01*
X00009627Y00015577D01*
X00009599Y00015564D01*
X00009570Y00015553D01*
X00009540Y00015545D01*
X00009510Y00015539D01*
X00009479Y00015535D01*
X00009448Y00015534D01*
X00009448Y00015534D01*
X00009417Y00015535D01*
X00009387Y00015539D01*
X00009356Y00015545D01*
X00009327Y00015553D01*
X00009298Y00015564D01*
X00009270Y00015577D01*
X00009243Y00015592D01*
X00009217Y00015609D01*
X00009193Y00015628D01*
X00009170Y00015649D01*
X00009149Y00015672D01*
X00009130Y00015696D01*
X00009113Y00015722D01*
X00009098Y00015749D01*
X00009085Y00015777D01*
X00009074Y00015806D01*
X00009065Y00015836D01*
X00009059Y00015866D01*
X00009056Y00015897D01*
X00009055Y00015928D01*
X00009055Y00018782D01*
X00009056Y00018813D01*
X00009059Y00018844D01*
X00009065Y00018874D01*
X00009074Y00018904D01*
X00009085Y00018933D01*
X00009098Y00018961D01*
X00009113Y00018988D01*
X00009130Y00019014D01*
X00009149Y00019038D01*
X00009170Y00019061D01*
X00009193Y00019082D01*
X00009217Y00019101D01*
X00009243Y00019118D01*
X00009270Y00019133D01*
X00009298Y00019146D01*
X00009327Y00019157D01*
X00009356Y00019165D01*
X00009387Y00019171D01*
X00009417Y00019175D01*
X00009448Y00019176D01*
X00009448Y00019176D01*
X00009479Y00019175D01*
X00009510Y00019171D01*
X00009540Y00019165D01*
X00009570Y00019157D01*
X00009599Y00019146D01*
X00009627Y00019133D01*
X00009654Y00019118D01*
X00009680Y00019101D01*
X00009704Y00019082D01*
X00009727Y00019061D01*
X00009748Y00019038D01*
X00009767Y00019014D01*
X00009784Y00018988D01*
X00009799Y00018961D01*
X00009812Y00018933D01*
X00009823Y00018904D01*
X00009831Y00018874D01*
X00009837Y00018844D01*
X00009841Y00018813D01*
X00009842Y00018782D01*
X00015748Y00018503D02*
X00015748Y00018503D01*
X00015748Y00025196D01*
X00013489Y00025196D01*
X00013458Y00025198D01*
X00013427Y00025201D01*
X00013397Y00025207D01*
X00013367Y00025216D01*
X00013338Y00025226D01*
X00013310Y00025239D01*
X00013283Y00025254D01*
X00013258Y00025272D01*
X00013233Y00025291D01*
X00013211Y00025312D01*
X00013190Y00025334D01*
X00013171Y00025359D01*
X00013153Y00025384D01*
X00013138Y00025411D01*
X00013125Y00025439D01*
X00013115Y00025468D01*
X00013106Y00025498D01*
X00013100Y00025528D01*
X00013097Y00025559D01*
X00013489Y00025590D01*
X00013097Y00025621D01*
X00013100Y00025652D01*
X00013106Y00025682D01*
X00013115Y00025712D01*
X00013125Y00025741D01*
X00013138Y00025769D01*
X00013153Y00025796D01*
X00013171Y00025821D01*
X00013190Y00025846D01*
X00013211Y00025868D01*
X00013233Y00025889D01*
X00013258Y00025909D01*
X00013283Y00025926D01*
X00013310Y00025941D01*
X00013338Y00025954D01*
X00013367Y00025964D01*
X00013397Y00025973D01*
X00013427Y00025979D01*
X00013458Y00025983D01*
X00013489Y00025984D01*
X00014960Y00025984D01*
X00014960Y00031889D01*
X00009842Y00031889D01*
X00009842Y00028522D01*
X00009837Y00028460D01*
X00009823Y00028400D01*
X00009799Y00028343D01*
X00009767Y00028290D01*
X00009727Y00028243D01*
X00009680Y00028203D01*
X00009627Y00028171D01*
X00009570Y00028147D01*
X00009510Y00028133D01*
X00009448Y00028128D01*
X00009387Y00028133D01*
X00009327Y00028147D01*
X00009270Y00028171D01*
X00009217Y00028203D01*
X00009170Y00028243D01*
X00009130Y00028290D01*
X00009098Y00028343D01*
X00009074Y00028400D01*
X00009059Y00028460D01*
X00009055Y00028522D01*
X00009055Y00028522D01*
X00009055Y00029724D01*
X00001181Y00029724D01*
X00001181Y00021653D01*
X00004305Y00021653D01*
X00004397Y00021642D01*
X00004484Y00021610D01*
X00004561Y00021559D01*
X00004624Y00021491D01*
X00004669Y00021410D01*
X00004694Y00021321D01*
X00004697Y00021228D01*
X00004679Y00021138D01*
X00004641Y00021054D01*
X00004583Y00020981D01*
X00004511Y00020924D01*
X00004427Y00020885D01*
X00004336Y00020867D01*
X00004243Y00020870D01*
X00004154Y00020896D01*
X00004074Y00020941D01*
X00004006Y00021004D01*
X00003954Y00021081D01*
X00003922Y00021167D01*
X00004305Y00021259D01*
X00003922Y00021351D01*
X00003954Y00021438D01*
X00004006Y00021515D01*
X00004074Y00021578D01*
X00004154Y00021623D01*
X00004243Y00021648D01*
X00004336Y00021652D01*
X00004427Y00021634D01*
X00004511Y00021595D01*
X00004583Y00021538D01*
X00004641Y00021465D01*
X00004679Y00021381D01*
X00004697Y00021290D01*
X00004694Y00021198D01*
X00004669Y00021109D01*
X00004624Y00021028D01*
X00004561Y00020960D01*
X00004484Y00020909D01*
X00004397Y00020877D01*
X00004305Y00020866D01*
X00001574Y00020866D01*
X00001574Y00011023D01*
X00004026Y00011023D01*
X00004087Y00011018D01*
X00004147Y00011004D01*
X00004205Y00010980D01*
X00004257Y00010948D01*
X00004304Y00010908D01*
X00004344Y00010861D01*
X00004377Y00010808D01*
X00004400Y00010751D01*
X00004415Y00010691D01*
X00004420Y00010629D01*
X00004415Y00010568D01*
X00004400Y00010508D01*
X00004377Y00010451D01*
X00004344Y00010398D01*
X00004304Y00010351D01*
X00004257Y00010311D01*
X00004205Y00010279D01*
X00004147Y00010255D01*
X00004087Y00010241D01*
X00004026Y00010236D01*
X00004026Y00010236D01*
X00000000Y00010236D01*
X00000000Y00000000D01*
X00009055Y00000000D01*
X00009055Y00004216D01*
X00009055Y00004239D01*
X00009058Y00004263D01*
X00009061Y00004287D01*
X00009066Y00004310D01*
X00009073Y00004333D01*
X00009080Y00004356D01*
X00009090Y00004378D01*
X00009100Y00004399D01*
X00009112Y00004420D01*
X00009125Y00004440D01*
X00009139Y00004459D01*
X00009154Y00004477D01*
X00009171Y00004495D01*
X00009188Y00004511D01*
X00009206Y00004526D01*
X00009226Y00004540D01*
X00009246Y00004553D01*
X00009267Y00004565D01*
X00009288Y00004575D01*
X00009310Y00004584D01*
X00009310Y00004584D01*
X00009346Y00004596D01*
X00009383Y00004604D01*
X00009421Y00004608D01*
X00009459Y00004609D01*
X00009497Y00004606D01*
X00009534Y00004600D01*
X00009571Y00004590D01*
X00009606Y00004576D01*
X00009640Y00004559D01*
X00009673Y00004539D01*
X00009703Y00004516D01*
X00009730Y00004490D01*
X00009756Y00004462D01*
X00009778Y00004431D01*
X00009797Y00004398D01*
X00009813Y00004364D01*
X00009826Y00004328D01*
X00009835Y00004291D01*
X00009840Y00004253D01*
X00009842Y00004216D01*
X00009842Y00000000D01*
X00017716Y00000000D01*
X00017716Y00010236D01*
X00013860Y00010236D01*
X00013829Y00010237D01*
X00013799Y00010241D01*
X00013768Y00010247D01*
X00013739Y00010255D01*
X00013710Y00010266D01*
X00013681Y00010279D01*
X00013654Y00010294D01*
X00013629Y00010311D01*
X00013605Y00010330D01*
X00013582Y00010351D01*
X00013561Y00010374D01*
X00013542Y00010398D01*
X00013525Y00010424D01*
X00013509Y00010451D01*
X00013496Y00010479D01*
X00013486Y00010508D01*
X00013477Y00010538D01*
X00013471Y00010568D01*
X00013468Y00010599D01*
X00013860Y00010629D01*
X00013468Y00010660D01*
X00013471Y00010691D01*
X00013477Y00010721D01*
X00013486Y00010751D01*
X00013496Y00010780D01*
X00013509Y00010808D01*
X00013525Y00010835D01*
X00013542Y00010861D01*
X00013561Y00010885D01*
X00013582Y00010908D01*
X00013605Y00010929D01*
X00013629Y00010948D01*
X00013654Y00010965D01*
X00013681Y00010980D01*
X00013710Y00010993D01*
X00013739Y00011004D01*
X00013768Y00011012D01*
X00013799Y00011018D01*
X00013829Y00011022D01*
X00013860Y00011023D01*
X00014960Y00011023D01*
X00014960Y00017716D01*
X00013795Y00017716D01*
X00013764Y00017717D01*
X00013733Y00017721D01*
X00013703Y00017727D01*
X00013673Y00017735D01*
X00013644Y00017746D01*
X00013616Y00017759D01*
X00013589Y00017774D01*
X00013563Y00017791D01*
X00013539Y00017810D01*
X00013516Y00017831D01*
X00013495Y00017854D01*
X00013476Y00017878D01*
X00013459Y00017904D01*
X00013444Y00017931D01*
X00013431Y00017959D01*
X00013420Y00017988D01*
X00013412Y00018018D01*
X00013406Y00018048D01*
X00013402Y00018079D01*
X00013795Y00018110D01*
X00013402Y00018141D01*
X00013406Y00018171D01*
X00013412Y00018202D01*
X00013420Y00018231D01*
X00013431Y00018260D01*
X00013444Y00018288D01*
X00013459Y00018315D01*
X00013476Y00018341D01*
X00013495Y00018365D01*
X00013516Y00018388D01*
X00013539Y00018409D01*
X00013563Y00018428D01*
X00013589Y00018445D01*
X00013616Y00018461D01*
X00013644Y00018473D01*
X00013673Y00018484D01*
X00013703Y00018493D01*
X00013733Y00018499D01*
X00013764Y00018502D01*
X00013795Y00018503D01*
X00015748Y00018503D01*
X00009842Y00024425D02*
X00009842Y00024425D01*
X00009837Y00024364D01*
X00009823Y00024304D01*
X00009799Y00024246D01*
X00009767Y00024194D01*
X00009727Y00024147D01*
X00009680Y00024107D01*
X00009627Y00024074D01*
X00009570Y00024051D01*
X00009510Y00024036D01*
X00009448Y00024032D01*
X00009387Y00024036D01*
X00009327Y00024051D01*
X00009270Y00024074D01*
X00009217Y00024107D01*
X00009170Y00024147D01*
X00009130Y00024194D01*
X00009098Y00024246D01*
X00009074Y00024304D01*
X00009059Y00024364D01*
X00009055Y00024425D01*
X00009055Y00024425D01*
X00009055Y00026718D01*
X00009055Y00026718D01*
X00009059Y00026779D01*
X00009074Y00026839D01*
X00009098Y00026896D01*
X00009130Y00026949D01*
X00009170Y00026996D01*
X00009217Y00027036D01*
X00009270Y00027068D01*
X00009327Y00027092D01*
X00009387Y00027107D01*
X00009448Y00027111D01*
X00009510Y00027107D01*
X00009570Y00027092D01*
X00009627Y00027068D01*
X00009680Y00027036D01*
X00009727Y00026996D01*
X00009767Y00026949D01*
X00009799Y00026896D01*
X00009823Y00026839D01*
X00009837Y00026779D01*
X00009842Y00026718D01*
X00009842Y00025984D01*
X00011685Y00025984D01*
X00011685Y00025984D01*
X00011746Y00025979D01*
X00011807Y00025964D01*
X00011864Y00025941D01*
X00011916Y00025909D01*
X00011963Y00025868D01*
X00012003Y00025821D01*
X00012036Y00025769D01*
X00012059Y00025712D01*
X00012074Y00025652D01*
X00012079Y00025590D01*
X00012074Y00025528D01*
X00012059Y00025468D01*
X00012036Y00025411D01*
X00012003Y00025359D01*
X00011963Y00025312D01*
X00011916Y00025272D01*
X00011864Y00025239D01*
X00011807Y00025216D01*
X00011746Y00025201D01*
X00011685Y00025196D01*
X00009842Y00025196D01*
X00009842Y00024425D01*
M02*