%
M48
METRIC,000.000
T01C0.75
T02C1.10
T03C1.20
T10C0.40
T11C1.00
T12C0.50
%
T01
X002299Y015000
X002299Y013000
X002299Y011000
X002299Y009000
X002299Y004299
X002299Y002299
X002300Y044599
X002300Y042599
X002300Y038500
X002300Y036500
X002300Y034500
X002300Y032500
X023800Y053400
X023800Y051400
X023800Y049400
X023800Y047400
X023800Y042599
X023800Y040599
X045400Y048349
X045400Y046349
X045400Y044349
X045400Y042349
X059800Y037500
X059800Y035500
X030099Y060300
X032098Y060300
X038100Y066600
X043050Y066600
X048050Y066600
X038100Y068600
X043050Y068600
X048050Y068600
X054000Y023599
X059050Y023599
X054000Y025599
X059050Y025599
X041600Y018400
X041600Y020400
X012099Y060300
X014099Y060300
T02
X023900Y012900
X023900Y010360
X023900Y006879
X023900Y004340
X023900Y001799
X031000Y073400
X031000Y070860
X031000Y067800
X031000Y065260
X047760Y024699
X050300Y024699
X013000Y073400
X013000Y070860
X013000Y067800
X013000Y065260
T03
X008500Y026000G85X008500Y026000
X011000Y015500G85X011000Y015500
X011000Y011500G85X011000Y011500
X011000Y007500G85X011000Y007500
X013500Y026000G85X013500Y026000
X012349Y003299G85X014650Y003299
X016000Y015500G85X016000Y015500
X016000Y011500G85X016000Y011500
X016000Y007500G85X016000Y007500
X018500Y026000G85X018500Y026000
T10
X009500Y045550
X009900Y041000
X010939Y051000
X010969Y035006
X011500Y046400
X013849Y041250
X014050Y032049
X015000Y045905
X015250Y041250
X017300Y053000
X017900Y038700
X018300Y046700
X020000Y037599
X021250Y044599
X021250Y042099
X032150Y033175
X037099Y036099
T11
X003500Y052500
X008500Y052500
X013500Y052500
X031250Y048500
X031250Y043500
X031250Y038500
X035000Y048500
X035000Y043500
X035000Y038500
X038750Y048500
X038750Y043500
X038750Y038500
X053599Y041200
X053599Y036500
X053599Y031799
X021400Y071200
X021400Y066500
X021400Y061800
X026229Y071200
X026229Y066500
X026229Y061800
X038800Y057400
X043500Y057400
X048200Y057400
X038800Y062229
X043500Y062229
X048200Y062229
X049300Y014400
X054000Y014400
X058700Y014400
X049300Y019229
X054000Y019229
X058700Y019229
X033000Y014500
X033000Y019500
X033000Y024500
X003400Y071200
X003400Y066500
X003400Y061800
X008229Y071200
X008229Y066500
X008229Y061800
T12
X023785Y056250
X022785Y056250
X021785Y056250
X020785Y056250
X019785Y056250
X020429Y057750
X021429Y057750
X022429Y057750
X023429Y057750
X026250Y040607
X026250Y041607
X026250Y042607
X026250Y043607
X027750Y044178
X027750Y043178
X027750Y042178
X027750Y041178
X027750Y040178
X014785Y028250
X013785Y028250
X012785Y028250
X011785Y028250
X010785Y028250
X011429Y029750
X012429Y029750
X013429Y029750
X014429Y029750
X009785Y056250
X008785Y056250
X007785Y056250
X006785Y056250
X005785Y056250
X006429Y057750
X007429Y057750
X008429Y057750
X009429Y057750
X017750Y068178
X017750Y067178
X017750Y066178
X017750Y065178
X017750Y064178
X016250Y064607
X016250Y065607
X016250Y066607
X016250Y067607
X027250Y015607
X027250Y016607
X027250Y017607
X027250Y018607
X028750Y019178
X028750Y018178
X028750Y017178
X028750Y016178
X028750Y015178
X045750Y021178
X045750Y020178
X045750Y019178
X045750Y018178
X045750Y017178
X044250Y017607
X044250Y018607
X044250Y019607
X044250Y020607
X054429Y029750
X055429Y029750
X056429Y029750
X057429Y029750
X057785Y028250
X056785Y028250
X055785Y028250
X054785Y028250
X053785Y028250
X047750Y036107
X047750Y037107
X047750Y038107
X047750Y039107
X047750Y040107
X049750Y040178
X049750Y039178
X049750Y038178
X049750Y037178
X049750Y036178
X043785Y052250
X042785Y052250
X041785Y052250
X040785Y052250
X039785Y052250
X040429Y053750
X041429Y053750
X042429Y053750
X043429Y053750
X034929Y030250
X035929Y030250
X036929Y030250
X037929Y030250
X038929Y030250
X038785Y028250
X037785Y028250
X036785Y028250
X035785Y028250
X034785Y028250
X034250Y062607
X034250Y063607
X034250Y064607
X034250Y065607
X035750Y066178
X035750Y065178
X035750Y064178
X035750Y063178
X035750Y062178
M30