%MOIN*%
%OFA0B0*%
%FSLAX46Y46*%
%IPPOS*%
%LPD*%
%ADD10C,0.0039370078740157488*%
%ADD11C,0.0047244094488188976*%
%ADD12C,0.005905511811023622*%
%ADD23C,0.0039370078740157488*%
%ADD24C,0.0047244094488188976*%
%ADD25C,0.005905511811023622*%
%ADD26C,0.0039370078740157488*%
%ADD27C,0.0047244094488188976*%
%ADD28C,0.005905511811023622*%
%ADD29C,0.0039370078740157488*%
%ADD30C,0.0047244094488188976*%
%ADD31C,0.005905511811023622*%
%ADD32C,0.0039370078740157488*%
%ADD33C,0.005905511811023622*%
%ADD34C,0.0047244094488188976*%
%ADD35C,0.0039370078740157488*%
%ADD36C,0.005905511811023622*%
%ADD37C,0.0047244094488188976*%
%ADD38C,0.0039370078740157488*%
%ADD39C,0.005905511811023622*%
%ADD40C,0.0047244094488188976*%
%ADD41C,0.0039370078740157488*%
%ADD42C,0.006889763779527559*%
%ADD43C,0.0047244094488188976*%
%ADD44C,0.005905511811023622*%
%ADD45C,0.0039370078740157488*%
%ADD46C,0.005905511811023622*%
%ADD47C,0.0047244094488188976*%
G01G01*
D10*
D11*
X0000253937Y0000706692D02*
X0000253937Y0000068897D01*
X0000194881Y0000706692D02*
X0000253937Y0000706692D01*
X0000809055Y0000706692D02*
X0000809055Y0000068897D01*
X0000868110Y0000706692D02*
X0000809055Y0000706692D01*
X0000868110Y0000706692D02*
X0000868110Y0001104330D01*
X0000194881Y0000706692D02*
X0000194488Y0001104724D01*
X0000809055Y0000068897D02*
X0000253937Y0000068897D01*
X0000868503Y0001104724D02*
X0000194488Y0001104724D01*
D12*
X0001043344Y0000347674D02*
X0001043344Y0000568073D01*
X0001062944Y0000560273D02*
X0001043344Y0000560273D01*
X0001043344Y0000355473D02*
X0001062944Y0000355473D01*
X0001062944Y0000457873D02*
X0001043344Y0000457873D01*
X0000834644Y0000568073D02*
X0000834644Y0000347674D01*
X0001062944Y0000568073D02*
X0001062944Y0000347674D01*
X0001062944Y0000347674D02*
X0000818944Y0000347674D01*
X0000818944Y0000347674D02*
X0000818944Y0000568073D01*
X0000818944Y0000568073D02*
X0001062944Y0000568073D01*
X0000818944Y0000009466D02*
X0000818944Y0000332266D01*
X0000834644Y0000009466D02*
X0000834644Y0000332266D01*
X0001043344Y0000009466D02*
X0001043344Y0000332266D01*
X0001062944Y0000332266D02*
X0001062944Y0000009466D01*
X0001043344Y0000119666D02*
X0001062944Y0000119666D01*
X0001062944Y0000324366D02*
X0001043344Y0000324366D01*
X0001043344Y0000017266D02*
X0001062944Y0000017266D01*
X0001062944Y0000221966D02*
X0001043344Y0000221966D01*
X0001062944Y0000009466D02*
X0000818944Y0000009466D01*
X0000818944Y0000332166D02*
X0001062944Y0000332166D01*
D11*
X0000019685Y0000671259D02*
X0000204724Y0000671259D01*
X0000204724Y0000671259D02*
X0000204724Y0000273622D01*
X0000204724Y0000273622D02*
X0000019685Y0000273622D01*
X0000019685Y0000273622D02*
X0000019685Y0000671259D01*
X0000019685Y0000570866D02*
X0000043307Y0000570866D01*
X0000043307Y0000570866D02*
X0000043307Y0000647637D01*
X0000043307Y0000647637D02*
X0000181102Y0000647637D01*
X0000181102Y0000647637D02*
X0000181102Y0000297244D01*
X0000181102Y0000297244D02*
X0000043307Y0000297244D01*
X0000043307Y0000297244D02*
X0000043307Y0000374015D01*
X0000043307Y0000374015D02*
X0000019685Y0000374015D01*
X0000070866Y0000671259D02*
X0000070866Y0000647637D01*
X0000122047Y0000671259D02*
X0000122047Y0000647637D01*
X0000070866Y0000273622D02*
X0000070866Y0000297244D01*
X0000122047Y0000273622D02*
X0000122047Y0000297244D01*
X0000019685Y0000602362D02*
X0000011810Y0000602362D01*
X0000011810Y0000602362D02*
X0000011810Y0000614173D01*
X0000011810Y0000614173D02*
X0000019685Y0000614173D01*
X0000015748Y0000602362D02*
X0000015748Y0000614173D01*
X0000181102Y0000555118D02*
X0000161417Y0000555118D01*
X0000161417Y0000555118D02*
X0000161417Y0000547244D01*
X0000161417Y0000547244D02*
X0000181102Y0000547244D01*
X0000181102Y0000551181D02*
X0000161417Y0000551181D01*
X0000181102Y0000476377D02*
X0000161417Y0000476377D01*
X0000161417Y0000476377D02*
X0000161417Y0000468503D01*
X0000161417Y0000468503D02*
X0000181102Y0000468503D01*
X0000181102Y0000472440D02*
X0000161417Y0000472440D01*
X0000181102Y0000397637D02*
X0000161417Y0000397637D01*
X0000161417Y0000397637D02*
X0000161417Y0000389763D01*
X0000161417Y0000389763D02*
X0000181102Y0000389763D01*
X0000181102Y0000393700D02*
X0000161417Y0000393700D01*
X0000007874Y0000633858D02*
X0000007874Y0000683070D01*
X0000007874Y0000683070D02*
X0000057086Y0000683070D01*
X0000019685Y0000249999D02*
X0000204724Y0000249999D01*
X0000204724Y0000249999D02*
X0000204724Y0000009842D01*
X0000204724Y0000009842D02*
X0000019685Y0000009842D01*
X0000019685Y0000009842D02*
X0000019685Y0000249999D01*
X0000019685Y0000149606D02*
X0000043307Y0000149606D01*
X0000043307Y0000149606D02*
X0000043307Y0000226377D01*
X0000043307Y0000226377D02*
X0000181102Y0000226377D01*
X0000181102Y0000226377D02*
X0000181102Y0000033464D01*
X0000181102Y0000033464D02*
X0000043307Y0000033464D01*
X0000043307Y0000033464D02*
X0000043307Y0000110236D01*
X0000043307Y0000110236D02*
X0000019685Y0000110236D01*
X0000070866Y0000249999D02*
X0000070866Y0000226377D01*
X0000122047Y0000249999D02*
X0000122047Y0000226377D01*
X0000070866Y0000009842D02*
X0000070866Y0000033464D01*
X0000122047Y0000009842D02*
X0000122047Y0000033464D01*
X0000019685Y0000181102D02*
X0000011810Y0000181102D01*
X0000011810Y0000181102D02*
X0000011810Y0000192913D01*
X0000011810Y0000192913D02*
X0000019685Y0000192913D01*
X0000015748Y0000181102D02*
X0000015748Y0000192913D01*
X0000181102Y0000133858D02*
X0000161417Y0000133858D01*
X0000161417Y0000133858D02*
X0000161417Y0000125984D01*
X0000161417Y0000125984D02*
X0000181102Y0000125984D01*
X0000181102Y0000129921D02*
X0000161417Y0000129921D01*
X0000007874Y0000212598D02*
X0000007874Y0000261811D01*
X0000007874Y0000261811D02*
X0000057086Y0000261811D01*
D12*
X0000927259Y0000940757D02*
X0000908511Y0000953880D01*
X0000927259Y0000963254D02*
X0000887888Y0000963254D01*
X0000887888Y0000948256D01*
X0000889763Y0000944506D01*
X0000891638Y0000942632D01*
X0000895388Y0000940757D01*
X0000901012Y0000940757D01*
X0000904761Y0000942632D01*
X0000906636Y0000944506D01*
X0000908511Y0000948256D01*
X0000908511Y0000963254D01*
X0000887888Y0000929508D02*
X0000927259Y0000916385D01*
X0000887888Y0000903262D01*
X0000927259Y0000869516D02*
X0000927259Y0000892013D01*
X0000927259Y0000880764D02*
X0000887888Y0000880764D01*
X0000893513Y0000884514D01*
X0000897262Y0000888263D01*
X0000899137Y0000892013D01*
X0000843175Y0000548556D02*
X0000862860Y0000548556D01*
X0000866797Y0000549868D01*
X0000869422Y0000552493D01*
X0000870734Y0000556430D01*
X0000870734Y0000559055D01*
X0000870734Y0000520997D02*
X0000870734Y0000536745D01*
X0000870734Y0000528871D02*
X0000843175Y0000528871D01*
X0000847112Y0000531496D01*
X0000849737Y0000534120D01*
X0000851049Y0000536745D01*
X0000843175Y0000312335D02*
X0000862860Y0000312335D01*
X0000866797Y0000313648D01*
X0000869422Y0000316272D01*
X0000870734Y0000320209D01*
X0000870734Y0000322834D01*
X0000845800Y0000300524D02*
X0000844488Y0000299212D01*
X0000843175Y0000296587D01*
X0000843175Y0000290026D01*
X0000844488Y0000287401D01*
X0000845800Y0000286089D01*
X0000848425Y0000284776D01*
X0000851049Y0000284776D01*
X0000854986Y0000286089D01*
X0000870734Y0000301837D01*
X0000870734Y0000284776D01*
X0000169947Y0000634514D02*
X0000142388Y0000634514D01*
X0000142388Y0000624015D01*
X0000143700Y0000621391D01*
X0000145013Y0000620078D01*
X0000147637Y0000618766D01*
X0000151574Y0000618766D01*
X0000154199Y0000620078D01*
X0000155511Y0000621391D01*
X0000156824Y0000624015D01*
X0000156824Y0000634514D01*
X0000169947Y0000592519D02*
X0000169947Y0000608267D01*
X0000169947Y0000600393D02*
X0000142388Y0000600393D01*
X0000146325Y0000603018D01*
X0000148950Y0000605642D01*
X0000150262Y0000608267D01*
X0000169947Y0000217191D02*
X0000142388Y0000217191D01*
X0000142388Y0000206692D01*
X0000143700Y0000204068D01*
X0000145013Y0000202755D01*
X0000147637Y0000201443D01*
X0000151574Y0000201443D01*
X0000154199Y0000202755D01*
X0000155511Y0000204068D01*
X0000156824Y0000206692D01*
X0000156824Y0000217191D01*
X0000145013Y0000190944D02*
X0000143700Y0000189632D01*
X0000142388Y0000187007D01*
X0000142388Y0000180446D01*
X0000143700Y0000177821D01*
X0000145013Y0000176509D01*
X0000147637Y0000175196D01*
X0000150262Y0000175196D01*
X0000154199Y0000176509D01*
X0000169947Y0000192257D01*
X0000169947Y0000175196D01*
G04 next file*
G04 #@! TF.FileFunction,Legend,Bot*
G04 Gerber Fmt 4.6, Leading zero omitted, Abs format (unit mm)*
G04 Created by KiCad (PCBNEW 4.0.4-1.fc24-product) date Mon Jun  4 16:00:14 2018*
G01G01*
G04 APERTURE LIST*
G04 APERTURE END LIST*
D23*
D24*
X0000673228Y0001858267D02*
X0000673228Y0002220472D01*
X-0000003936Y0001858267D02*
X-0000003936Y0002220472D01*
X0000673228Y0001858267D02*
X-0000003936Y0001858267D01*
X0000673228Y0002220472D02*
X-0000003936Y0002220472D01*
X0001007873Y0001517716D02*
X0000822834Y0001517716D01*
X0000822834Y0001517716D02*
X0000822834Y0001757874D01*
X0000822834Y0001757874D02*
X0001007873Y0001757874D01*
X0001007873Y0001757874D02*
X0001007873Y0001517716D01*
X0001007873Y0001618110D02*
X0000984251Y0001618110D01*
X0000984251Y0001618110D02*
X0000984251Y0001541338D01*
X0000984251Y0001541338D02*
X0000846456Y0001541338D01*
X0000846456Y0001541338D02*
X0000846456Y0001734251D01*
X0000846456Y0001734251D02*
X0000984251Y0001734251D01*
X0000984251Y0001734251D02*
X0000984251Y0001657480D01*
X0000984251Y0001657480D02*
X0001007873Y0001657480D01*
X0000956692Y0001517716D02*
X0000956692Y0001541338D01*
X0000905511Y0001517716D02*
X0000905511Y0001541338D01*
X0000956692Y0001757874D02*
X0000956692Y0001734251D01*
X0000905511Y0001757874D02*
X0000905511Y0001734251D01*
X0001007873Y0001586614D02*
X0001015748Y0001586614D01*
X0001015748Y0001586614D02*
X0001015748Y0001574803D01*
X0001015748Y0001574803D02*
X0001007873Y0001574803D01*
X0001011810Y0001586614D02*
X0001011810Y0001574803D01*
X0000846456Y0001633858D02*
X0000866141Y0001633858D01*
X0000866141Y0001633858D02*
X0000866141Y0001641732D01*
X0000866141Y0001641732D02*
X0000846456Y0001641732D01*
X0000846456Y0001637795D02*
X0000866141Y0001637795D01*
X0001019685Y0001555118D02*
X0001019685Y0001505905D01*
X0001019685Y0001505905D02*
X0000970472Y0001505905D01*
X0001007873Y0001785433D02*
X0000822834Y0001785433D01*
X0000822834Y0001785433D02*
X0000822834Y0002183070D01*
X0000822834Y0002183070D02*
X0001007873Y0002183070D01*
X0001007873Y0002183070D02*
X0001007873Y0001785433D01*
X0001007873Y0001885826D02*
X0000984251Y0001885826D01*
X0000984251Y0001885826D02*
X0000984251Y0001809055D01*
X0000984251Y0001809055D02*
X0000846456Y0001809055D01*
X0000846456Y0001809055D02*
X0000846456Y0002159448D01*
X0000846456Y0002159448D02*
X0000984251Y0002159448D01*
X0000984251Y0002159448D02*
X0000984251Y0002082677D01*
X0000984251Y0002082677D02*
X0001007873Y0002082677D01*
X0000956692Y0001785433D02*
X0000956692Y0001809055D01*
X0000905511Y0001785433D02*
X0000905511Y0001809055D01*
X0000956692Y0002183070D02*
X0000956692Y0002159448D01*
X0000905511Y0002183070D02*
X0000905511Y0002159448D01*
X0001007873Y0001854330D02*
X0001015748Y0001854330D01*
X0001015748Y0001854330D02*
X0001015748Y0001842519D01*
X0001015748Y0001842519D02*
X0001007873Y0001842519D01*
X0001011810Y0001854330D02*
X0001011810Y0001842519D01*
X0000846456Y0001901574D02*
X0000866141Y0001901574D01*
X0000866141Y0001901574D02*
X0000866141Y0001909448D01*
X0000866141Y0001909448D02*
X0000846456Y0001909448D01*
X0000846456Y0001905511D02*
X0000866141Y0001905511D01*
X0000846456Y0001980314D02*
X0000866141Y0001980314D01*
X0000866141Y0001980314D02*
X0000866141Y0001988188D01*
X0000866141Y0001988188D02*
X0000846456Y0001988188D01*
X0000846456Y0001984251D02*
X0000866141Y0001984251D01*
X0000846456Y0002059055D02*
X0000866141Y0002059055D01*
X0000866141Y0002059055D02*
X0000866141Y0002066929D01*
X0000866141Y0002066929D02*
X0000846456Y0002066929D01*
X0000846456Y0002062992D02*
X0000866141Y0002062992D01*
X0001019685Y0001822834D02*
X0001019685Y0001773622D01*
X0001019685Y0001773622D02*
X0000970472Y0001773622D01*
D25*
X0000423230Y0001448785D02*
X0000409430Y0001448785D01*
X0000285430Y0001448785D02*
X0000299230Y0001448785D01*
X0000423230Y0001289352D02*
X0000409430Y0001289352D01*
X0000423230Y0001466552D02*
X0000409430Y0001466552D01*
X0000285430Y0001466552D02*
X0000299230Y0001466552D01*
X0000285430Y0001289352D02*
X0000299230Y0001289352D01*
X0000423230Y0001466552D02*
X0000423230Y0001289352D01*
X0000285430Y0001466552D02*
X0000285430Y0001289352D01*
D24*
X0000019685Y0001596456D02*
X0000204724Y0001596456D01*
X0000204724Y0001596456D02*
X0000204724Y0001198818D01*
X0000204724Y0001198818D02*
X0000019685Y0001198818D01*
X0000019685Y0001198818D02*
X0000019685Y0001596456D01*
X0000019685Y0001496062D02*
X0000043307Y0001496062D01*
X0000043307Y0001496062D02*
X0000043307Y0001572834D01*
X0000043307Y0001572834D02*
X0000181102Y0001572834D01*
X0000181102Y0001572834D02*
X0000181102Y0001222440D01*
X0000181102Y0001222440D02*
X0000043307Y0001222440D01*
X0000043307Y0001222440D02*
X0000043307Y0001299212D01*
X0000043307Y0001299212D02*
X0000019685Y0001299212D01*
X0000070866Y0001596456D02*
X0000070866Y0001572834D01*
X0000122047Y0001596456D02*
X0000122047Y0001572834D01*
X0000070866Y0001198818D02*
X0000070866Y0001222440D01*
X0000122047Y0001198818D02*
X0000122047Y0001222440D01*
X0000019685Y0001527559D02*
X0000011811Y0001527559D01*
X0000011811Y0001527559D02*
X0000011811Y0001539370D01*
X0000011811Y0001539370D02*
X0000019685Y0001539370D01*
X0000015748Y0001527559D02*
X0000015748Y0001539370D01*
X0000181102Y0001480314D02*
X0000161417Y0001480314D01*
X0000161417Y0001480314D02*
X0000161417Y0001472440D01*
X0000161417Y0001472440D02*
X0000181102Y0001472440D01*
X0000181102Y0001476377D02*
X0000161417Y0001476377D01*
X0000181102Y0001401574D02*
X0000161417Y0001401574D01*
X0000161417Y0001401574D02*
X0000161417Y0001393700D01*
X0000161417Y0001393700D02*
X0000181102Y0001393700D01*
X0000181102Y0001397637D02*
X0000161417Y0001397637D01*
X0000181102Y0001322834D02*
X0000161417Y0001322834D01*
X0000161417Y0001322834D02*
X0000161417Y0001314960D01*
X0000161417Y0001314960D02*
X0000181102Y0001314960D01*
X0000181102Y0001318897D02*
X0000161417Y0001318897D01*
X0000007873Y0001559055D02*
X0000007873Y0001608267D01*
X0000007873Y0001608267D02*
X0000057086Y0001608267D01*
D25*
X0000718503Y0001669291D02*
X0000718503Y0001708661D01*
X0000785433Y0001708661D02*
X0000785433Y0001669291D01*
X0000765747Y0001909448D02*
X0000738188Y0001909448D01*
X0000738188Y0001862204D02*
X0000765747Y0001862204D01*
X0000531496Y0001601377D02*
X0000492125Y0001601377D01*
X0000492125Y0001548228D02*
X0000531496Y0001548228D01*
X0000649606Y0001601377D02*
X0000610236Y0001601377D01*
X0000610236Y0001548228D02*
X0000649606Y0001548228D01*
X0000732283Y0001957677D02*
X0000771653Y0001957677D01*
X0000771653Y0002010826D02*
X0000732283Y0002010826D01*
X0000771653Y0002109251D02*
X0000732283Y0002109251D01*
X0000732283Y0002056102D02*
X0000771653Y0002056102D01*
X0000589566Y0001338582D02*
X0000589566Y0001417322D01*
X0000670275Y0001417322D02*
X0000670275Y0001338582D01*
X0000471456Y0001338582D02*
X0000471456Y0001417322D01*
X0000552165Y0001417322D02*
X0000552165Y0001338582D01*
D24*
X0000019685Y0001836614D02*
X0000204724Y0001836614D01*
X0000204724Y0001836614D02*
X0000204724Y0001596456D01*
X0000204724Y0001596456D02*
X0000019685Y0001596456D01*
X0000019685Y0001596456D02*
X0000019685Y0001836614D01*
X0000019685Y0001736220D02*
X0000043307Y0001736220D01*
X0000043307Y0001736220D02*
X0000043307Y0001812992D01*
X0000043307Y0001812992D02*
X0000181102Y0001812992D01*
X0000181102Y0001812992D02*
X0000181102Y0001620078D01*
X0000181102Y0001620078D02*
X0000043307Y0001620078D01*
X0000043307Y0001620078D02*
X0000043307Y0001696850D01*
X0000043307Y0001696850D02*
X0000019685Y0001696850D01*
X0000070866Y0001836614D02*
X0000070866Y0001812992D01*
X0000122047Y0001836614D02*
X0000122047Y0001812992D01*
X0000070866Y0001596456D02*
X0000070866Y0001620078D01*
X0000122047Y0001596456D02*
X0000122047Y0001620078D01*
X0000019685Y0001767716D02*
X0000011811Y0001767716D01*
X0000011811Y0001767716D02*
X0000011811Y0001779527D01*
X0000011811Y0001779527D02*
X0000019685Y0001779527D01*
X0000015748Y0001767716D02*
X0000015748Y0001779527D01*
X0000181102Y0001720472D02*
X0000161417Y0001720472D01*
X0000161417Y0001720472D02*
X0000161417Y0001712598D01*
X0000161417Y0001712598D02*
X0000181102Y0001712598D01*
X0000181102Y0001716535D02*
X0000161417Y0001716535D01*
X0000007873Y0001799212D02*
X0000007873Y0001848425D01*
X0000007873Y0001848425D02*
X0000057086Y0001848425D01*
D25*
X0000642388Y0002152887D02*
X0000651574Y0002166010D01*
X0000658136Y0002152887D02*
X0000658136Y0002180446D01*
X0000647637Y0002180446D01*
X0000645013Y0002179133D01*
X0000643700Y0002177821D01*
X0000642388Y0002175196D01*
X0000642388Y0002171259D01*
X0000643700Y0002168635D01*
X0000645013Y0002167322D01*
X0000647637Y0002166010D01*
X0000658136Y0002166010D01*
X0000634514Y0002180446D02*
X0000625328Y0002152887D01*
X0000616141Y0002180446D01*
X0000592519Y0002152887D02*
X0000608267Y0002152887D01*
X0000600393Y0002152887D02*
X0000600393Y0002180446D01*
X0000603018Y0002176509D01*
X0000605642Y0002173884D01*
X0000608267Y0002172572D01*
X0000854986Y0001713910D02*
X0000874671Y0001713910D01*
X0000878608Y0001715223D01*
X0000881233Y0001717847D01*
X0000882545Y0001721784D01*
X0000882545Y0001724409D01*
X0000882545Y0001686351D02*
X0000882545Y0001702099D01*
X0000882545Y0001694225D02*
X0000854986Y0001694225D01*
X0000858923Y0001696850D01*
X0000861548Y0001699475D01*
X0000862860Y0001702099D01*
X0000853018Y0002139107D02*
X0000872703Y0002139107D01*
X0000876640Y0002140419D01*
X0000879265Y0002143044D01*
X0000880577Y0002146981D01*
X0000880577Y0002149606D01*
X0000862204Y0002114173D02*
X0000880577Y0002114173D01*
X0000851705Y0002120734D02*
X0000871391Y0002127296D01*
X0000871391Y0002110236D01*
X0000374671Y0001519028D02*
X0000374671Y0001546587D01*
X0000368110Y0001546587D01*
X0000364173Y0001545275D01*
X0000361548Y0001542650D01*
X0000360236Y0001540026D01*
X0000358923Y0001534776D01*
X0000358923Y0001530839D01*
X0000360236Y0001525590D01*
X0000361548Y0001522965D01*
X0000364173Y0001520341D01*
X0000368110Y0001519028D01*
X0000374671Y0001519028D01*
X0000332677Y0001519028D02*
X0000348425Y0001519028D01*
X0000340551Y0001519028D02*
X0000340551Y0001546587D01*
X0000343175Y0001542650D01*
X0000345800Y0001540026D01*
X0000348425Y0001538713D01*
X0000134514Y0001406824D02*
X0000154199Y0001406824D01*
X0000158136Y0001408136D01*
X0000160761Y0001410761D01*
X0000162073Y0001414698D01*
X0000162073Y0001417322D01*
X0000134514Y0001396325D02*
X0000134514Y0001379265D01*
X0000145013Y0001388451D01*
X0000145013Y0001384514D01*
X0000146325Y0001381889D01*
X0000147637Y0001380577D01*
X0000150262Y0001379265D01*
X0000156824Y0001379265D01*
X0000159448Y0001380577D01*
X0000160761Y0001381889D01*
X0000162073Y0001384514D01*
X0000162073Y0001392388D01*
X0000160761Y0001395013D01*
X0000159448Y0001396325D01*
X0000756561Y0001761811D02*
X0000757874Y0001760498D01*
X0000761810Y0001759186D01*
X0000764435Y0001759186D01*
X0000768372Y0001760498D01*
X0000770997Y0001763123D01*
X0000772309Y0001765747D01*
X0000773622Y0001770997D01*
X0000773622Y0001774934D01*
X0000772309Y0001780183D01*
X0000770997Y0001782808D01*
X0000768372Y0001785433D01*
X0000764435Y0001786745D01*
X0000761810Y0001786745D01*
X0000757874Y0001785433D01*
X0000756561Y0001784120D01*
X0000747375Y0001786745D02*
X0000730314Y0001786745D01*
X0000739501Y0001776246D01*
X0000735564Y0001776246D01*
X0000732939Y0001774934D01*
X0000731627Y0001773622D01*
X0000730314Y0001770997D01*
X0000730314Y0001764435D01*
X0000731627Y0001761811D01*
X0000732939Y0001760498D01*
X0000735564Y0001759186D01*
X0000743438Y0001759186D01*
X0000746062Y0001760498D01*
X0000747375Y0001761811D01*
X0000769685Y0001923228D02*
X0000770997Y0001921915D01*
X0000774934Y0001920603D01*
X0000777559Y0001920603D01*
X0000781496Y0001921915D01*
X0000784120Y0001924540D01*
X0000785433Y0001927165D01*
X0000786745Y0001932414D01*
X0000786745Y0001936351D01*
X0000785433Y0001941601D01*
X0000784120Y0001944225D01*
X0000781496Y0001946850D01*
X0000777559Y0001948162D01*
X0000774934Y0001948162D01*
X0000770997Y0001946850D01*
X0000769685Y0001945538D01*
X0000743438Y0001920603D02*
X0000759186Y0001920603D01*
X0000751312Y0001920603D02*
X0000751312Y0001948162D01*
X0000753937Y0001944225D01*
X0000756561Y0001941601D01*
X0000759186Y0001940288D01*
X0000732939Y0001945538D02*
X0000731627Y0001946850D01*
X0000729002Y0001948162D01*
X0000722440Y0001948162D01*
X0000719816Y0001946850D01*
X0000718503Y0001945538D01*
X0000717191Y0001942913D01*
X0000717191Y0001940288D01*
X0000718503Y0001936351D01*
X0000734251Y0001920603D01*
X0000717191Y0001920603D01*
X0000516404Y0001609580D02*
X0000525590Y0001622703D01*
X0000532152Y0001609580D02*
X0000532152Y0001637139D01*
X0000521653Y0001637139D01*
X0000519028Y0001635826D01*
X0000517716Y0001634514D01*
X0000516404Y0001631889D01*
X0000516404Y0001627952D01*
X0000517716Y0001625328D01*
X0000519028Y0001624015D01*
X0000521653Y0001622703D01*
X0000532152Y0001622703D01*
X0000503280Y0001609580D02*
X0000498031Y0001609580D01*
X0000495406Y0001610892D01*
X0000494094Y0001612204D01*
X0000491469Y0001616141D01*
X0000490157Y0001621391D01*
X0000490157Y0001631889D01*
X0000491469Y0001634514D01*
X0000492782Y0001635826D01*
X0000495406Y0001637139D01*
X0000500656Y0001637139D01*
X0000503280Y0001635826D01*
X0000504593Y0001634514D01*
X0000505905Y0001631889D01*
X0000505905Y0001625328D01*
X0000504593Y0001622703D01*
X0000503280Y0001621391D01*
X0000500656Y0001620078D01*
X0000495406Y0001620078D01*
X0000492782Y0001621391D01*
X0000491469Y0001622703D01*
X0000490157Y0001625328D01*
X0000647637Y0001609580D02*
X0000656824Y0001622703D01*
X0000663385Y0001609580D02*
X0000663385Y0001637139D01*
X0000652887Y0001637139D01*
X0000650262Y0001635826D01*
X0000648950Y0001634514D01*
X0000647637Y0001631889D01*
X0000647637Y0001627952D01*
X0000648950Y0001625328D01*
X0000650262Y0001624015D01*
X0000652887Y0001622703D01*
X0000663385Y0001622703D01*
X0000621391Y0001609580D02*
X0000637139Y0001609580D01*
X0000629265Y0001609580D02*
X0000629265Y0001637139D01*
X0000631889Y0001633202D01*
X0000634514Y0001630577D01*
X0000637139Y0001629265D01*
X0000604330Y0001637139D02*
X0000601705Y0001637139D01*
X0000599081Y0001635826D01*
X0000597769Y0001634514D01*
X0000596456Y0001631889D01*
X0000595144Y0001626640D01*
X0000595144Y0001620078D01*
X0000596456Y0001614829D01*
X0000597769Y0001612204D01*
X0000599081Y0001610892D01*
X0000601705Y0001609580D01*
X0000604330Y0001609580D01*
X0000606955Y0001610892D01*
X0000608267Y0001612204D01*
X0000609580Y0001614829D01*
X0000610892Y0001620078D01*
X0000610892Y0001626640D01*
X0000609580Y0001631889D01*
X0000608267Y0001634514D01*
X0000606955Y0001635826D01*
X0000604330Y0001637139D01*
X0000769685Y0002019028D02*
X0000778871Y0002032152D01*
X0000785433Y0002019028D02*
X0000785433Y0002046587D01*
X0000774934Y0002046587D01*
X0000772309Y0002045275D01*
X0000770997Y0002043963D01*
X0000769685Y0002041338D01*
X0000769685Y0002037401D01*
X0000770997Y0002034776D01*
X0000772309Y0002033464D01*
X0000774934Y0002032152D01*
X0000785433Y0002032152D01*
X0000743438Y0002019028D02*
X0000759186Y0002019028D01*
X0000751312Y0002019028D02*
X0000751312Y0002046587D01*
X0000753937Y0002042650D01*
X0000756561Y0002040026D01*
X0000759186Y0002038713D01*
X0000719816Y0002037401D02*
X0000719816Y0002019028D01*
X0000726377Y0002047900D02*
X0000732939Y0002028215D01*
X0000715879Y0002028215D01*
X0000769685Y0002117454D02*
X0000778871Y0002130577D01*
X0000785433Y0002117454D02*
X0000785433Y0002145013D01*
X0000774934Y0002145013D01*
X0000772309Y0002143700D01*
X0000770997Y0002142388D01*
X0000769685Y0002139763D01*
X0000769685Y0002135826D01*
X0000770997Y0002133202D01*
X0000772309Y0002131889D01*
X0000774934Y0002130577D01*
X0000785433Y0002130577D01*
X0000743438Y0002117454D02*
X0000759186Y0002117454D01*
X0000751312Y0002117454D02*
X0000751312Y0002145013D01*
X0000753937Y0002141076D01*
X0000756561Y0002138451D01*
X0000759186Y0002137139D01*
X0000718503Y0002145013D02*
X0000731627Y0002145013D01*
X0000732939Y0002131889D01*
X0000731627Y0002133202D01*
X0000729002Y0002134514D01*
X0000722440Y0002134514D01*
X0000719816Y0002133202D01*
X0000718503Y0002131889D01*
X0000717191Y0002129265D01*
X0000717191Y0002122703D01*
X0000718503Y0002120078D01*
X0000719816Y0002118766D01*
X0000722440Y0002117454D01*
X0000729002Y0002117454D01*
X0000731627Y0002118766D01*
X0000732939Y0002120078D01*
X0000634514Y0001470472D02*
X0000635826Y0001469160D01*
X0000639763Y0001467847D01*
X0000642388Y0001467847D01*
X0000646325Y0001469160D01*
X0000648950Y0001471784D01*
X0000650262Y0001474409D01*
X0000651574Y0001479658D01*
X0000651574Y0001483595D01*
X0000650262Y0001488845D01*
X0000648950Y0001491469D01*
X0000646325Y0001494094D01*
X0000642388Y0001495406D01*
X0000639763Y0001495406D01*
X0000635826Y0001494094D01*
X0000634514Y0001492782D01*
X0000610892Y0001495406D02*
X0000616141Y0001495406D01*
X0000618766Y0001494094D01*
X0000620078Y0001492782D01*
X0000622703Y0001488845D01*
X0000624015Y0001483595D01*
X0000624015Y0001473097D01*
X0000622703Y0001470472D01*
X0000621391Y0001469160D01*
X0000618766Y0001467847D01*
X0000613517Y0001467847D01*
X0000610892Y0001469160D01*
X0000609580Y0001470472D01*
X0000608267Y0001473097D01*
X0000608267Y0001479658D01*
X0000609580Y0001482283D01*
X0000610892Y0001483595D01*
X0000613517Y0001484908D01*
X0000618766Y0001484908D01*
X0000621391Y0001483595D01*
X0000622703Y0001482283D01*
X0000624015Y0001479658D01*
X0000516404Y0001470472D02*
X0000517716Y0001469160D01*
X0000521653Y0001467847D01*
X0000524278Y0001467847D01*
X0000528215Y0001469160D01*
X0000530839Y0001471784D01*
X0000532152Y0001474409D01*
X0000533464Y0001479658D01*
X0000533464Y0001483595D01*
X0000532152Y0001488845D01*
X0000530839Y0001491469D01*
X0000528215Y0001494094D01*
X0000524278Y0001495406D01*
X0000521653Y0001495406D01*
X0000517716Y0001494094D01*
X0000516404Y0001492782D01*
X0000503280Y0001467847D02*
X0000498031Y0001467847D01*
X0000495406Y0001469160D01*
X0000494094Y0001470472D01*
X0000491469Y0001474409D01*
X0000490157Y0001479658D01*
X0000490157Y0001490157D01*
X0000491469Y0001492782D01*
X0000492782Y0001494094D01*
X0000495406Y0001495406D01*
X0000500656Y0001495406D01*
X0000503280Y0001494094D01*
X0000504593Y0001492782D01*
X0000505905Y0001490157D01*
X0000505905Y0001483595D01*
X0000504593Y0001480971D01*
X0000503280Y0001479658D01*
X0000500656Y0001478346D01*
X0000495406Y0001478346D01*
X0000492782Y0001479658D01*
X0000491469Y0001480971D01*
X0000490157Y0001483595D01*
X0000134514Y0001725721D02*
X0000154199Y0001725721D01*
X0000158136Y0001727034D01*
X0000160761Y0001729658D01*
X0000162073Y0001733595D01*
X0000162073Y0001736220D01*
X0000137139Y0001713910D02*
X0000135826Y0001712598D01*
X0000134514Y0001709973D01*
X0000134514Y0001703412D01*
X0000135826Y0001700787D01*
X0000137139Y0001699475D01*
X0000139763Y0001698162D01*
X0000142388Y0001698162D01*
X0000146325Y0001699475D01*
X0000162073Y0001715223D01*
X0000162073Y0001698162D01*
G04 next file*
G04 #@! TF.FileFunction,Legend,Bot*
G04 Gerber Fmt 4.6, Leading zero omitted, Abs format (unit mm)*
G04 Created by KiCad (PCBNEW 4.0.7) date 06/05/18 10:39:03*
G01G01*
G04 APERTURE LIST*
G04 APERTURE END LIST*
D26*
D27*
X0001858267Y0001586614D02*
X0001673228Y0001586614D01*
X0001673228Y0001586614D02*
X0001673228Y0001984251D01*
X0001673228Y0001984251D02*
X0001858267Y0001984251D01*
X0001858267Y0001984251D02*
X0001858267Y0001586614D01*
X0001858267Y0001687007D02*
X0001834645Y0001687007D01*
X0001834645Y0001687007D02*
X0001834645Y0001610236D01*
X0001834645Y0001610236D02*
X0001696850Y0001610236D01*
X0001696850Y0001610236D02*
X0001696850Y0001960629D01*
X0001696850Y0001960629D02*
X0001834645Y0001960629D01*
X0001834645Y0001960629D02*
X0001834645Y0001883858D01*
X0001834645Y0001883858D02*
X0001858267Y0001883858D01*
X0001807086Y0001586614D02*
X0001807086Y0001610236D01*
X0001755905Y0001586614D02*
X0001755905Y0001610236D01*
X0001807086Y0001984251D02*
X0001807086Y0001960629D01*
X0001755905Y0001984251D02*
X0001755905Y0001960629D01*
X0001858267Y0001655511D02*
X0001866141Y0001655511D01*
X0001866141Y0001655511D02*
X0001866141Y0001643700D01*
X0001866141Y0001643700D02*
X0001858267Y0001643700D01*
X0001862204Y0001655511D02*
X0001862204Y0001643700D01*
X0001696850Y0001702755D02*
X0001716535Y0001702755D01*
X0001716535Y0001702755D02*
X0001716535Y0001710629D01*
X0001716535Y0001710629D02*
X0001696850Y0001710629D01*
X0001696850Y0001706692D02*
X0001716535Y0001706692D01*
X0001696850Y0001781496D02*
X0001716535Y0001781496D01*
X0001716535Y0001781496D02*
X0001716535Y0001789370D01*
X0001716535Y0001789370D02*
X0001696850Y0001789370D01*
X0001696850Y0001785433D02*
X0001716535Y0001785433D01*
X0001696850Y0001860236D02*
X0001716535Y0001860236D01*
X0001716535Y0001860236D02*
X0001716535Y0001868110D01*
X0001716535Y0001868110D02*
X0001696850Y0001868110D01*
X0001696850Y0001864173D02*
X0001716535Y0001864173D01*
X0001870078Y0001624015D02*
X0001870078Y0001574803D01*
X0001870078Y0001574803D02*
X0001820866Y0001574803D01*
X0001643700Y0001328346D02*
X0001643700Y0001982677D01*
X0001119685Y0001328346D02*
X0001119685Y0001982677D01*
X0001643700Y0001328346D02*
X0001119685Y0001328346D01*
X0001643700Y0001982677D02*
X0001119685Y0001982677D01*
D28*
X0001713254Y0001794619D02*
X0001732939Y0001794619D01*
X0001736876Y0001795931D01*
X0001739501Y0001798556D01*
X0001740813Y0001802493D01*
X0001740813Y0001805118D01*
X0001740813Y0001767060D02*
X0001740813Y0001782808D01*
X0001740813Y0001774934D02*
X0001713254Y0001774934D01*
X0001717191Y0001777559D01*
X0001719816Y0001780183D01*
X0001721128Y0001782808D01*
X0001634514Y0001944225D02*
X0001634514Y0001971784D01*
X0001624015Y0001971784D01*
X0001621391Y0001970472D01*
X0001620078Y0001969160D01*
X0001618766Y0001966535D01*
X0001618766Y0001962598D01*
X0001620078Y0001959973D01*
X0001621391Y0001958661D01*
X0001624015Y0001957349D01*
X0001634514Y0001957349D01*
X0001592519Y0001944225D02*
X0001608267Y0001944225D01*
X0001600393Y0001944225D02*
X0001600393Y0001971784D01*
X0001603018Y0001967847D01*
X0001605643Y0001965223D01*
X0001608267Y0001963910D01*
G04 next file*
G04 #@! TF.FileFunction,Legend,Bot*
G04 Gerber Fmt 4.6, Leading zero omitted, Abs format (unit mm)*
G04 Created by KiCad (PCBNEW 4.0.7) date 06/05/18 11:02:08*
G01G01*
G04 APERTURE LIST*
G04 APERTURE END LIST*
D29*
D30*
X0002425196Y0001316929D02*
X0002240157Y0001316929D01*
X0002240157Y0001316929D02*
X0002240157Y0001557086D01*
X0002240157Y0001557086D02*
X0002425196Y0001557086D01*
X0002425196Y0001557086D02*
X0002425196Y0001316929D01*
X0002425196Y0001417322D02*
X0002401574Y0001417322D01*
X0002401574Y0001417322D02*
X0002401574Y0001340551D01*
X0002401574Y0001340551D02*
X0002263779Y0001340551D01*
X0002263779Y0001340551D02*
X0002263779Y0001533464D01*
X0002263779Y0001533464D02*
X0002401574Y0001533464D01*
X0002401574Y0001533464D02*
X0002401574Y0001456692D01*
X0002401574Y0001456692D02*
X0002425196Y0001456692D01*
X0002374015Y0001316929D02*
X0002374015Y0001340551D01*
X0002322834Y0001316929D02*
X0002322834Y0001340551D01*
X0002374015Y0001557086D02*
X0002374015Y0001533464D01*
X0002322834Y0001557086D02*
X0002322834Y0001533464D01*
X0002425196Y0001385826D02*
X0002433070Y0001385826D01*
X0002433070Y0001385826D02*
X0002433070Y0001374015D01*
X0002433070Y0001374015D02*
X0002425196Y0001374015D01*
X0002429133Y0001385826D02*
X0002429133Y0001374015D01*
X0002263779Y0001433070D02*
X0002283464Y0001433070D01*
X0002283464Y0001433070D02*
X0002283464Y0001440944D01*
X0002283464Y0001440944D02*
X0002263779Y0001440944D01*
X0002263779Y0001437007D02*
X0002283464Y0001437007D01*
X0002437007Y0001354330D02*
X0002437007Y0001305118D01*
X0002437007Y0001305118D02*
X0002387795Y0001305118D01*
D31*
X0002309105Y0001465924D02*
X0002269735Y0001465924D01*
X0002269735Y0001450926D01*
X0002271610Y0001447177D01*
X0002273485Y0001445302D01*
X0002277234Y0001443427D01*
X0002282858Y0001443427D01*
X0002286608Y0001445302D01*
X0002288483Y0001447177D01*
X0002290357Y0001450926D01*
X0002290357Y0001465924D01*
X0002273485Y0001428429D02*
X0002271610Y0001426554D01*
X0002269735Y0001422805D01*
X0002269735Y0001413431D01*
X0002271610Y0001409682D01*
X0002273485Y0001407807D01*
X0002277234Y0001405932D01*
X0002280984Y0001405932D01*
X0002286608Y0001407807D01*
X0002309105Y0001430304D01*
X0002309105Y0001405932D01*
G04 next file*
G04 #@! TF.FileFunction,Legend,Bot*
G04 Gerber Fmt 4.6, Leading zero omitted, Abs format (unit mm)*
G04 Created by KiCad (PCBNEW 4.0.7) date 06/06/18 08:32:26*
G01G01*
G04 APERTURE LIST*
G04 APERTURE END LIST*
D32*
D33*
X0000769825Y0002856017D02*
X0000793447Y0002856017D01*
X0000776574Y0002848143D01*
X0000793447Y0002840269D01*
X0000769825Y0002840269D01*
X0000769825Y0002829021D02*
X0000793447Y0002829021D01*
X0000776574Y0002821147D01*
X0000793447Y0002813273D01*
X0000769825Y0002813273D01*
X0000770950Y0002785151D02*
X0000769825Y0002781777D01*
X0000769825Y0002776152D01*
X0000770950Y0002773903D01*
X0000772075Y0002772778D01*
X0000774325Y0002771653D01*
X0000776574Y0002771653D01*
X0000778824Y0002772778D01*
X0000779949Y0002773903D01*
X0000781074Y0002776152D01*
X0000782199Y0002780652D01*
X0000783323Y0002782902D01*
X0000784448Y0002784027D01*
X0000786698Y0002785151D01*
X0000788948Y0002785151D01*
X0000791197Y0002784027D01*
X0000792322Y0002782902D01*
X0000793447Y0002780652D01*
X0000793447Y0002775028D01*
X0000792322Y0002771653D01*
X0000769825Y0002751406D02*
X0000782199Y0002751406D01*
X0000784448Y0002752530D01*
X0000785573Y0002754780D01*
X0000785573Y0002759280D01*
X0000784448Y0002761529D01*
X0000770950Y0002751406D02*
X0000769825Y0002753655D01*
X0000769825Y0002759280D01*
X0000770950Y0002761529D01*
X0000773200Y0002762654D01*
X0000775449Y0002762654D01*
X0000777699Y0002761529D01*
X0000778824Y0002759280D01*
X0000778824Y0002753655D01*
X0000779949Y0002751406D01*
X0000769825Y0002740157D02*
X0000793447Y0002740157D01*
X0000784448Y0002740157D02*
X0000785573Y0002737907D01*
X0000785573Y0002733408D01*
X0000784448Y0002731158D01*
X0000783323Y0002730033D01*
X0000781074Y0002728908D01*
X0000774325Y0002728908D01*
X0000772075Y0002730033D01*
X0000770950Y0002731158D01*
X0000769825Y0002733408D01*
X0000769825Y0002737907D01*
X0000770950Y0002740157D01*
X0000769825Y0002718785D02*
X0000785573Y0002718785D01*
X0000781074Y0002718785D02*
X0000783323Y0002717660D01*
X0000784448Y0002716535D01*
X0000785573Y0002714285D01*
X0000785573Y0002712035D01*
X0000770950Y0002695163D02*
X0000769825Y0002697412D01*
X0000769825Y0002701912D01*
X0000770950Y0002704161D01*
X0000773200Y0002705286D01*
X0000782199Y0002705286D01*
X0000784448Y0002704161D01*
X0000785573Y0002701912D01*
X0000785573Y0002697412D01*
X0000784448Y0002695163D01*
X0000782199Y0002694038D01*
X0000779949Y0002694038D01*
X0000777699Y0002705286D01*
X0000730736Y0002856580D02*
X0000729611Y0002857705D01*
X0000728487Y0002861079D01*
X0000728487Y0002863329D01*
X0000729611Y0002866704D01*
X0000731861Y0002868953D01*
X0000734111Y0002870078D01*
X0000738610Y0002871203D01*
X0000741985Y0002871203D01*
X0000746484Y0002870078D01*
X0000748734Y0002868953D01*
X0000750984Y0002866704D01*
X0000752109Y0002863329D01*
X0000752109Y0002861079D01*
X0000750984Y0002857705D01*
X0000749859Y0002856580D01*
X0000728487Y0002843082D02*
X0000729611Y0002845331D01*
X0000730736Y0002846456D01*
X0000732986Y0002847581D01*
X0000739735Y0002847581D01*
X0000741985Y0002846456D01*
X0000743110Y0002845331D01*
X0000744235Y0002843082D01*
X0000744235Y0002839707D01*
X0000743110Y0002837457D01*
X0000741985Y0002836332D01*
X0000739735Y0002835208D01*
X0000732986Y0002835208D01*
X0000730736Y0002836332D01*
X0000729611Y0002837457D01*
X0000728487Y0002839707D01*
X0000728487Y0002843082D01*
X0000728487Y0002825084D02*
X0000744235Y0002825084D01*
X0000752109Y0002825084D02*
X0000750984Y0002826209D01*
X0000749859Y0002825084D01*
X0000750984Y0002823959D01*
X0000752109Y0002825084D01*
X0000749859Y0002825084D01*
X0000728487Y0002810461D02*
X0000729611Y0002812710D01*
X0000731861Y0002813835D01*
X0000752109Y0002813835D01*
X0000729611Y0002784589D02*
X0000728487Y0002781214D01*
X0000728487Y0002775590D01*
X0000729611Y0002773340D01*
X0000730736Y0002772215D01*
X0000732986Y0002771091D01*
X0000735236Y0002771091D01*
X0000737485Y0002772215D01*
X0000738610Y0002773340D01*
X0000739735Y0002775590D01*
X0000740860Y0002780090D01*
X0000741985Y0002782339D01*
X0000743110Y0002783464D01*
X0000745359Y0002784589D01*
X0000747609Y0002784589D01*
X0000749859Y0002783464D01*
X0000750984Y0002782339D01*
X0000752109Y0002780090D01*
X0000752109Y0002774465D01*
X0000750984Y0002771091D01*
X0000744235Y0002763217D02*
X0000728487Y0002758717D01*
X0000739735Y0002754218D01*
X0000728487Y0002749718D01*
X0000744235Y0002745219D01*
X0000728487Y0002736220D02*
X0000744235Y0002736220D01*
X0000752109Y0002736220D02*
X0000750984Y0002737345D01*
X0000749859Y0002736220D01*
X0000750984Y0002735095D01*
X0000752109Y0002736220D01*
X0000749859Y0002736220D01*
X0000744235Y0002728346D02*
X0000744235Y0002719347D01*
X0000752109Y0002724971D02*
X0000731861Y0002724971D01*
X0000729611Y0002723847D01*
X0000728487Y0002721597D01*
X0000728487Y0002719347D01*
X0000729611Y0002701349D02*
X0000728487Y0002703599D01*
X0000728487Y0002708099D01*
X0000729611Y0002710348D01*
X0000730736Y0002711473D01*
X0000732986Y0002712598D01*
X0000739735Y0002712598D01*
X0000741985Y0002711473D01*
X0000743110Y0002710348D01*
X0000744235Y0002708099D01*
X0000744235Y0002703599D01*
X0000743110Y0002701349D01*
X0000728487Y0002691226D02*
X0000752109Y0002691226D01*
X0000728487Y0002681102D02*
X0000740860Y0002681102D01*
X0000743110Y0002682227D01*
X0000744235Y0002684476D01*
X0000744235Y0002687851D01*
X0000743110Y0002690101D01*
X0000741985Y0002691226D01*
X0001322872Y0002729563D02*
X0001322872Y0002949963D01*
X0001342472Y0002942163D02*
X0001322872Y0002942163D01*
X0001322872Y0002737363D02*
X0001342472Y0002737363D01*
X0001342472Y0002839763D02*
X0001322872Y0002839763D01*
X0001114172Y0002949963D02*
X0001114172Y0002729563D01*
X0001342472Y0002949963D02*
X0001342472Y0002729563D01*
X0001342472Y0002729563D02*
X0001098472Y0002729563D01*
X0001098472Y0002729563D02*
X0001098472Y0002949963D01*
X0001098472Y0002949963D02*
X0001342472Y0002949963D01*
X0001322872Y0002509091D02*
X0001322872Y0002729491D01*
X0001342472Y0002721691D02*
X0001322872Y0002721691D01*
X0001322872Y0002516891D02*
X0001342472Y0002516891D01*
X0001342472Y0002619291D02*
X0001322872Y0002619291D01*
X0001114172Y0002729491D02*
X0001114172Y0002509091D01*
X0001342472Y0002729491D02*
X0001342472Y0002509091D01*
X0001342472Y0002509091D02*
X0001098472Y0002509091D01*
X0001098472Y0002509091D02*
X0001098472Y0002729491D01*
X0001098472Y0002729491D02*
X0001342472Y0002729491D01*
D34*
X0001104330Y0002303149D02*
X0001104330Y0002488188D01*
X0001104330Y0002488188D02*
X0001344488Y0002488188D01*
X0001344488Y0002488188D02*
X0001344488Y0002303149D01*
X0001344488Y0002303149D02*
X0001104330Y0002303149D01*
X0001204724Y0002303149D02*
X0001204724Y0002326771D01*
X0001204724Y0002326771D02*
X0001127952Y0002326771D01*
X0001127952Y0002326771D02*
X0001127952Y0002464566D01*
X0001127952Y0002464566D02*
X0001320866Y0002464566D01*
X0001320866Y0002464566D02*
X0001320866Y0002326771D01*
X0001320866Y0002326771D02*
X0001244094Y0002326771D01*
X0001244094Y0002326771D02*
X0001244094Y0002303149D01*
X0001104330Y0002354330D02*
X0001127952Y0002354330D01*
X0001104330Y0002405511D02*
X0001127952Y0002405511D01*
X0001344488Y0002354330D02*
X0001320866Y0002354330D01*
X0001344488Y0002405511D02*
X0001320866Y0002405511D01*
X0001173228Y0002303149D02*
X0001173228Y0002295275D01*
X0001173228Y0002295275D02*
X0001161417Y0002295275D01*
X0001161417Y0002295275D02*
X0001161417Y0002303149D01*
X0001173228Y0002299212D02*
X0001161417Y0002299212D01*
X0001220472Y0002464566D02*
X0001220472Y0002444881D01*
X0001220472Y0002444881D02*
X0001228346Y0002444881D01*
X0001228346Y0002444881D02*
X0001228346Y0002464566D01*
X0001224409Y0002464566D02*
X0001224409Y0002444881D01*
X0001141732Y0002291338D02*
X0001092519Y0002291338D01*
X0001092519Y0002291338D02*
X0001092519Y0002340551D01*
D33*
X0001128046Y0002851706D02*
X0001156167Y0002851706D01*
X0001161792Y0002853580D01*
X0001165541Y0002857330D01*
X0001167416Y0002862954D01*
X0001167416Y0002866704D01*
X0001167416Y0002812335D02*
X0001167416Y0002834833D01*
X0001167416Y0002823584D02*
X0001128046Y0002823584D01*
X0001133670Y0002827334D01*
X0001137420Y0002831083D01*
X0001139295Y0002834833D01*
X0001128046Y0002629658D02*
X0001156167Y0002629658D01*
X0001161792Y0002631533D01*
X0001165541Y0002635283D01*
X0001167416Y0002640907D01*
X0001167416Y0002644656D01*
X0001131795Y0002612785D02*
X0001129921Y0002610911D01*
X0001128046Y0002607161D01*
X0001128046Y0002597787D01*
X0001129921Y0002594038D01*
X0001131795Y0002592163D01*
X0001135545Y0002590288D01*
X0001139295Y0002590288D01*
X0001144919Y0002592163D01*
X0001167416Y0002614660D01*
X0001167416Y0002590288D01*
X0001237532Y0002454630D02*
X0001237532Y0002426509D01*
X0001239407Y0002420884D01*
X0001243157Y0002417135D01*
X0001248781Y0002415260D01*
X0001252530Y0002415260D01*
X0001222534Y0002454630D02*
X0001198162Y0002454630D01*
X0001211286Y0002439632D01*
X0001205661Y0002439632D01*
X0001201912Y0002437757D01*
X0001200037Y0002435883D01*
X0001198162Y0002432133D01*
X0001198162Y0002422759D01*
X0001200037Y0002419010D01*
X0001201912Y0002417135D01*
X0001205661Y0002415260D01*
X0001216910Y0002415260D01*
X0001220659Y0002417135D01*
X0001222534Y0002419010D01*
G04 next file*
G04 #@! TF.FileFunction,Legend,Bot*
G04 Gerber Fmt 4.6, Leading zero omitted, Abs format (unit mm)*
G04 Created by KiCad (PCBNEW 4.0.7) date 06/06/18 08:36:06*
G01G01*
G04 APERTURE LIST*
G04 APERTURE END LIST*
D35*
D36*
X0001514060Y0002187148D02*
X0001514060Y0002210770D01*
X0001521934Y0002193897D01*
X0001529808Y0002210770D01*
X0001529808Y0002187148D01*
X0001541057Y0002187148D02*
X0001541057Y0002210770D01*
X0001548931Y0002193897D01*
X0001556805Y0002210770D01*
X0001556805Y0002187148D01*
X0001584926Y0002188273D02*
X0001588301Y0002187148D01*
X0001593925Y0002187148D01*
X0001596175Y0002188273D01*
X0001597300Y0002189398D01*
X0001598425Y0002191647D01*
X0001598425Y0002193897D01*
X0001597300Y0002196147D01*
X0001596175Y0002197272D01*
X0001593925Y0002198397D01*
X0001589426Y0002199521D01*
X0001587176Y0002200646D01*
X0001586051Y0002201771D01*
X0001584926Y0002204021D01*
X0001584926Y0002206271D01*
X0001586051Y0002208520D01*
X0001587176Y0002209645D01*
X0001589426Y0002210770D01*
X0001595050Y0002210770D01*
X0001598425Y0002209645D01*
X0001618672Y0002187148D02*
X0001618672Y0002199521D01*
X0001617547Y0002201771D01*
X0001615298Y0002202896D01*
X0001610798Y0002202896D01*
X0001608548Y0002201771D01*
X0001618672Y0002188273D02*
X0001616422Y0002187148D01*
X0001610798Y0002187148D01*
X0001608548Y0002188273D01*
X0001607424Y0002190523D01*
X0001607424Y0002192772D01*
X0001608548Y0002195022D01*
X0001610798Y0002196147D01*
X0001616422Y0002196147D01*
X0001618672Y0002197272D01*
X0001629921Y0002187148D02*
X0001629921Y0002210770D01*
X0001629921Y0002201771D02*
X0001632170Y0002202896D01*
X0001636670Y0002202896D01*
X0001638920Y0002201771D01*
X0001640045Y0002200646D01*
X0001641169Y0002198397D01*
X0001641169Y0002191647D01*
X0001640045Y0002189398D01*
X0001638920Y0002188273D01*
X0001636670Y0002187148D01*
X0001632170Y0002187148D01*
X0001629921Y0002188273D01*
X0001651293Y0002187148D02*
X0001651293Y0002202896D01*
X0001651293Y0002198397D02*
X0001652418Y0002200646D01*
X0001653543Y0002201771D01*
X0001655793Y0002202896D01*
X0001658042Y0002202896D01*
X0001674915Y0002188273D02*
X0001672665Y0002187148D01*
X0001668166Y0002187148D01*
X0001665916Y0002188273D01*
X0001664791Y0002190523D01*
X0001664791Y0002199521D01*
X0001665916Y0002201771D01*
X0001668166Y0002202896D01*
X0001672665Y0002202896D01*
X0001674915Y0002201771D01*
X0001676040Y0002199521D01*
X0001676040Y0002197272D01*
X0001664791Y0002195022D01*
X0001505624Y0002146934D02*
X0001508998Y0002145809D01*
X0001514623Y0002145809D01*
X0001516872Y0002146934D01*
X0001517997Y0002148059D01*
X0001519122Y0002150309D01*
X0001519122Y0002152559D01*
X0001517997Y0002154808D01*
X0001516872Y0002155933D01*
X0001514623Y0002157058D01*
X0001510123Y0002158183D01*
X0001507874Y0002159308D01*
X0001506749Y0002160433D01*
X0001505624Y0002162682D01*
X0001505624Y0002164932D01*
X0001506749Y0002167182D01*
X0001507874Y0002168307D01*
X0001510123Y0002169431D01*
X0001515748Y0002169431D01*
X0001519122Y0002168307D01*
X0001538245Y0002146934D02*
X0001535995Y0002145809D01*
X0001531496Y0002145809D01*
X0001529246Y0002146934D01*
X0001528121Y0002149184D01*
X0001528121Y0002158183D01*
X0001529246Y0002160433D01*
X0001531496Y0002161557D01*
X0001535995Y0002161557D01*
X0001538245Y0002160433D01*
X0001539370Y0002158183D01*
X0001539370Y0002155933D01*
X0001528121Y0002153683D01*
X0001552868Y0002145809D02*
X0001550618Y0002146934D01*
X0001549493Y0002149184D01*
X0001549493Y0002169431D01*
X0001578740Y0002146934D02*
X0001582114Y0002145809D01*
X0001587739Y0002145809D01*
X0001589988Y0002146934D01*
X0001591113Y0002148059D01*
X0001592238Y0002150309D01*
X0001592238Y0002152559D01*
X0001591113Y0002154808D01*
X0001589988Y0002155933D01*
X0001587739Y0002157058D01*
X0001583239Y0002158183D01*
X0001580989Y0002159308D01*
X0001579865Y0002160433D01*
X0001578740Y0002162682D01*
X0001578740Y0002164932D01*
X0001579865Y0002167182D01*
X0001580989Y0002168307D01*
X0001583239Y0002169431D01*
X0001588863Y0002169431D01*
X0001592238Y0002168307D01*
X0001600112Y0002161557D02*
X0001604611Y0002145809D01*
X0001609111Y0002157058D01*
X0001613610Y0002145809D01*
X0001618110Y0002161557D01*
X0001627109Y0002145809D02*
X0001627109Y0002161557D01*
X0001627109Y0002169431D02*
X0001625984Y0002168307D01*
X0001627109Y0002167182D01*
X0001628234Y0002168307D01*
X0001627109Y0002169431D01*
X0001627109Y0002167182D01*
X0001634983Y0002161557D02*
X0001643982Y0002161557D01*
X0001638357Y0002169431D02*
X0001638357Y0002149184D01*
X0001639482Y0002146934D01*
X0001641732Y0002145809D01*
X0001643982Y0002145809D01*
X0001661979Y0002146934D02*
X0001659730Y0002145809D01*
X0001655230Y0002145809D01*
X0001652980Y0002146934D01*
X0001651856Y0002148059D01*
X0001650731Y0002150309D01*
X0001650731Y0002157058D01*
X0001651856Y0002159308D01*
X0001652980Y0002160433D01*
X0001655230Y0002161557D01*
X0001659730Y0002161557D01*
X0001661979Y0002160433D01*
X0001672103Y0002145809D02*
X0001672103Y0002169431D01*
X0001682227Y0002145809D02*
X0001682227Y0002158183D01*
X0001681102Y0002160433D01*
X0001678852Y0002161557D01*
X0001675478Y0002161557D01*
X0001673228Y0002160433D01*
X0001672103Y0002159308D01*
D37*
X0001429133Y0002781496D02*
X0001614173Y0002781496D01*
X0001614173Y0002781496D02*
X0001614173Y0002541338D01*
X0001614173Y0002541338D02*
X0001429133Y0002541338D01*
X0001429133Y0002541338D02*
X0001429133Y0002781496D01*
X0001429133Y0002681102D02*
X0001452755Y0002681102D01*
X0001452755Y0002681102D02*
X0001452755Y0002757874D01*
X0001452755Y0002757874D02*
X0001590551Y0002757874D01*
X0001590551Y0002757874D02*
X0001590551Y0002564960D01*
X0001590551Y0002564960D02*
X0001452755Y0002564960D01*
X0001452755Y0002564960D02*
X0001452755Y0002641732D01*
X0001452755Y0002641732D02*
X0001429133Y0002641732D01*
X0001480314Y0002781496D02*
X0001480314Y0002757874D01*
X0001531496Y0002781496D02*
X0001531496Y0002757874D01*
X0001480314Y0002541338D02*
X0001480314Y0002564960D01*
X0001531496Y0002541338D02*
X0001531496Y0002564960D01*
X0001429133Y0002712598D02*
X0001421259Y0002712598D01*
X0001421259Y0002712598D02*
X0001421259Y0002724409D01*
X0001421259Y0002724409D02*
X0001429133Y0002724409D01*
X0001425196Y0002712598D02*
X0001425196Y0002724409D01*
X0001590551Y0002665354D02*
X0001570866Y0002665354D01*
X0001570866Y0002665354D02*
X0001570866Y0002657480D01*
X0001570866Y0002657480D02*
X0001590551Y0002657480D01*
X0001590551Y0002661417D02*
X0001570866Y0002661417D01*
X0001417322Y0002744094D02*
X0001417322Y0002793307D01*
X0001417322Y0002793307D02*
X0001466535Y0002793307D01*
X0001624015Y0002781496D02*
X0001809055Y0002781496D01*
X0001809055Y0002781496D02*
X0001809055Y0002541338D01*
X0001809055Y0002541338D02*
X0001624015Y0002541338D01*
X0001624015Y0002541338D02*
X0001624015Y0002781496D01*
X0001624015Y0002681102D02*
X0001647637Y0002681102D01*
X0001647637Y0002681102D02*
X0001647637Y0002757874D01*
X0001647637Y0002757874D02*
X0001785433Y0002757874D01*
X0001785433Y0002757874D02*
X0001785433Y0002564960D01*
X0001785433Y0002564960D02*
X0001647637Y0002564960D01*
X0001647637Y0002564960D02*
X0001647637Y0002641732D01*
X0001647637Y0002641732D02*
X0001624015Y0002641732D01*
X0001675196Y0002781496D02*
X0001675196Y0002757874D01*
X0001726377Y0002781496D02*
X0001726377Y0002757874D01*
X0001675196Y0002541338D02*
X0001675196Y0002564960D01*
X0001726377Y0002541338D02*
X0001726377Y0002564960D01*
X0001624015Y0002712598D02*
X0001616141Y0002712598D01*
X0001616141Y0002712598D02*
X0001616141Y0002724409D01*
X0001616141Y0002724409D02*
X0001624015Y0002724409D01*
X0001620078Y0002712598D02*
X0001620078Y0002724409D01*
X0001785433Y0002665354D02*
X0001765748Y0002665354D01*
X0001765748Y0002665354D02*
X0001765748Y0002657480D01*
X0001765748Y0002657480D02*
X0001785433Y0002657480D01*
X0001785433Y0002661417D02*
X0001765748Y0002661417D01*
X0001612204Y0002744094D02*
X0001612204Y0002793307D01*
X0001612204Y0002793307D02*
X0001661417Y0002793307D01*
X0001820866Y0002781496D02*
X0002005905Y0002781496D01*
X0002005905Y0002781496D02*
X0002005905Y0002541338D01*
X0002005905Y0002541338D02*
X0001820866Y0002541338D01*
X0001820866Y0002541338D02*
X0001820866Y0002781496D01*
X0001820866Y0002681102D02*
X0001844488Y0002681102D01*
X0001844488Y0002681102D02*
X0001844488Y0002757874D01*
X0001844488Y0002757874D02*
X0001982283Y0002757874D01*
X0001982283Y0002757874D02*
X0001982283Y0002564960D01*
X0001982283Y0002564960D02*
X0001844488Y0002564960D01*
X0001844488Y0002564960D02*
X0001844488Y0002641732D01*
X0001844488Y0002641732D02*
X0001820866Y0002641732D01*
X0001872047Y0002781496D02*
X0001872047Y0002757874D01*
X0001923228Y0002781496D02*
X0001923228Y0002757874D01*
X0001872047Y0002541338D02*
X0001872047Y0002564960D01*
X0001923228Y0002541338D02*
X0001923228Y0002564960D01*
X0001820866Y0002712598D02*
X0001812992Y0002712598D01*
X0001812992Y0002712598D02*
X0001812992Y0002724409D01*
X0001812992Y0002724409D02*
X0001820866Y0002724409D01*
X0001816929Y0002712598D02*
X0001816929Y0002724409D01*
X0001982283Y0002665354D02*
X0001962598Y0002665354D01*
X0001962598Y0002665354D02*
X0001962598Y0002657480D01*
X0001962598Y0002657480D02*
X0001982283Y0002657480D01*
X0001982283Y0002661417D02*
X0001962598Y0002661417D01*
X0001809055Y0002744094D02*
X0001809055Y0002793307D01*
X0001809055Y0002793307D02*
X0001858267Y0002793307D01*
D36*
X0001537495Y0002670603D02*
X0001565616Y0002670603D01*
X0001571241Y0002672478D01*
X0001574990Y0002676227D01*
X0001576865Y0002681852D01*
X0001576865Y0002685601D01*
X0001576865Y0002631233D02*
X0001576865Y0002653730D01*
X0001576865Y0002642482D02*
X0001537495Y0002642482D01*
X0001543119Y0002646231D01*
X0001546869Y0002649981D01*
X0001548743Y0002653730D01*
X0001732377Y0002674540D02*
X0001760498Y0002674540D01*
X0001766122Y0002676415D01*
X0001769872Y0002680165D01*
X0001771747Y0002685789D01*
X0001771747Y0002689538D01*
X0001736126Y0002657667D02*
X0001734251Y0002655793D01*
X0001732377Y0002652043D01*
X0001732377Y0002642669D01*
X0001734251Y0002638920D01*
X0001736126Y0002637045D01*
X0001739876Y0002635170D01*
X0001743625Y0002635170D01*
X0001749250Y0002637045D01*
X0001771747Y0002659542D01*
X0001771747Y0002635170D01*
X0001929227Y0002674540D02*
X0001957349Y0002674540D01*
X0001962973Y0002676415D01*
X0001966722Y0002680165D01*
X0001968597Y0002685789D01*
X0001968597Y0002689538D01*
X0001929227Y0002659542D02*
X0001929227Y0002635170D01*
X0001944225Y0002648293D01*
X0001944225Y0002642669D01*
X0001946100Y0002638920D01*
X0001947975Y0002637045D01*
X0001951724Y0002635170D01*
X0001961098Y0002635170D01*
X0001964848Y0002637045D01*
X0001966722Y0002638920D01*
X0001968597Y0002642669D01*
X0001968597Y0002653918D01*
X0001966722Y0002657667D01*
X0001964848Y0002659542D01*
G04 next file*
G04 #@! TF.FileFunction,Legend,Bot*
G04 Gerber Fmt 4.6, Leading zero omitted, Abs format (unit mm)*
G04 Created by KiCad (PCBNEW 4.0.7) date 06/06/18 08:15:27*
G01G01*
G04 APERTURE LIST*
G04 APERTURE END LIST*
D38*
D39*
X0001947131Y0000494235D02*
X0001947131Y0000517857D01*
X0001955005Y0000500984D01*
X0001962879Y0000517857D01*
X0001962879Y0000494235D01*
X0001974128Y0000494235D02*
X0001974128Y0000517857D01*
X0001982002Y0000500984D01*
X0001989876Y0000517857D01*
X0001989876Y0000494235D01*
X0002017997Y0000495359D02*
X0002021372Y0000494235D01*
X0002026996Y0000494235D01*
X0002029246Y0000495359D01*
X0002030371Y0000496484D01*
X0002031496Y0000498734D01*
X0002031496Y0000500984D01*
X0002030371Y0000503233D01*
X0002029246Y0000504358D01*
X0002026996Y0000505483D01*
X0002022497Y0000506608D01*
X0002020247Y0000507733D01*
X0002019122Y0000508858D01*
X0002017997Y0000511107D01*
X0002017997Y0000513357D01*
X0002019122Y0000515607D01*
X0002020247Y0000516732D01*
X0002022497Y0000517857D01*
X0002028121Y0000517857D01*
X0002031496Y0000516732D01*
X0002051743Y0000494235D02*
X0002051743Y0000506608D01*
X0002050618Y0000508858D01*
X0002048368Y0000509983D01*
X0002043869Y0000509983D01*
X0002041619Y0000508858D01*
X0002051743Y0000495359D02*
X0002049493Y0000494235D01*
X0002043869Y0000494235D01*
X0002041619Y0000495359D01*
X0002040494Y0000497609D01*
X0002040494Y0000499859D01*
X0002041619Y0000502109D01*
X0002043869Y0000503233D01*
X0002049493Y0000503233D01*
X0002051743Y0000504358D01*
X0002062992Y0000494235D02*
X0002062992Y0000517857D01*
X0002062992Y0000508858D02*
X0002065241Y0000509983D01*
X0002069741Y0000509983D01*
X0002071991Y0000508858D01*
X0002073115Y0000507733D01*
X0002074240Y0000505483D01*
X0002074240Y0000498734D01*
X0002073115Y0000496484D01*
X0002071991Y0000495359D01*
X0002069741Y0000494235D01*
X0002065241Y0000494235D01*
X0002062992Y0000495359D01*
X0002084364Y0000494235D02*
X0002084364Y0000509983D01*
X0002084364Y0000505483D02*
X0002085489Y0000507733D01*
X0002086614Y0000508858D01*
X0002088863Y0000509983D01*
X0002091113Y0000509983D01*
X0002107986Y0000495359D02*
X0002105736Y0000494235D01*
X0002101237Y0000494235D01*
X0002098987Y0000495359D01*
X0002097862Y0000497609D01*
X0002097862Y0000506608D01*
X0002098987Y0000508858D01*
X0002101237Y0000509983D01*
X0002105736Y0000509983D01*
X0002107986Y0000508858D01*
X0002109111Y0000506608D01*
X0002109111Y0000504358D01*
X0002097862Y0000502109D01*
X0001938695Y0000454021D02*
X0001942069Y0000452896D01*
X0001947694Y0000452896D01*
X0001949943Y0000454021D01*
X0001951068Y0000455146D01*
X0001952193Y0000457395D01*
X0001952193Y0000459645D01*
X0001951068Y0000461895D01*
X0001949943Y0000463020D01*
X0001947694Y0000464145D01*
X0001943194Y0000465269D01*
X0001940944Y0000466394D01*
X0001939820Y0000467519D01*
X0001938695Y0000469769D01*
X0001938695Y0000472019D01*
X0001939820Y0000474268D01*
X0001940944Y0000475393D01*
X0001943194Y0000476518D01*
X0001948818Y0000476518D01*
X0001952193Y0000475393D01*
X0001971316Y0000454021D02*
X0001969066Y0000452896D01*
X0001964566Y0000452896D01*
X0001962317Y0000454021D01*
X0001961192Y0000456271D01*
X0001961192Y0000465269D01*
X0001962317Y0000467519D01*
X0001964566Y0000468644D01*
X0001969066Y0000468644D01*
X0001971316Y0000467519D01*
X0001972440Y0000465269D01*
X0001972440Y0000463020D01*
X0001961192Y0000460770D01*
X0001985939Y0000452896D02*
X0001983689Y0000454021D01*
X0001982564Y0000456271D01*
X0001982564Y0000476518D01*
X0002011811Y0000454021D02*
X0002015185Y0000452896D01*
X0002020809Y0000452896D01*
X0002023059Y0000454021D01*
X0002024184Y0000455146D01*
X0002025309Y0000457395D01*
X0002025309Y0000459645D01*
X0002024184Y0000461895D01*
X0002023059Y0000463020D01*
X0002020809Y0000464145D01*
X0002016310Y0000465269D01*
X0002014060Y0000466394D01*
X0002012935Y0000467519D01*
X0002011811Y0000469769D01*
X0002011811Y0000472019D01*
X0002012935Y0000474268D01*
X0002014060Y0000475393D01*
X0002016310Y0000476518D01*
X0002021934Y0000476518D01*
X0002025309Y0000475393D01*
X0002033183Y0000468644D02*
X0002037682Y0000452896D01*
X0002042182Y0000464145D01*
X0002046681Y0000452896D01*
X0002051181Y0000468644D01*
X0002060180Y0000452896D02*
X0002060180Y0000468644D01*
X0002060180Y0000476518D02*
X0002059055Y0000475393D01*
X0002060180Y0000474268D01*
X0002061304Y0000475393D01*
X0002060180Y0000476518D01*
X0002060180Y0000474268D01*
X0002068054Y0000468644D02*
X0002077052Y0000468644D01*
X0002071428Y0000476518D02*
X0002071428Y0000456271D01*
X0002072553Y0000454021D01*
X0002074803Y0000452896D01*
X0002077052Y0000452896D01*
X0002095050Y0000454021D02*
X0002092800Y0000452896D01*
X0002088301Y0000452896D01*
X0002086051Y0000454021D01*
X0002084926Y0000455146D01*
X0002083802Y0000457395D01*
X0002083802Y0000464145D01*
X0002084926Y0000466394D01*
X0002086051Y0000467519D01*
X0002088301Y0000468644D01*
X0002092800Y0000468644D01*
X0002095050Y0000467519D01*
X0002105174Y0000452896D02*
X0002105174Y0000476518D01*
X0002115298Y0000452896D02*
X0002115298Y0000465269D01*
X0002114173Y0000467519D01*
X0002111923Y0000468644D01*
X0002108548Y0000468644D01*
X0002106299Y0000467519D01*
X0002105174Y0000466394D01*
D40*
X0002055118Y0001088582D02*
X0002240157Y0001088582D01*
X0002240157Y0001088582D02*
X0002240157Y0000848425D01*
X0002240157Y0000848425D02*
X0002055118Y0000848425D01*
X0002055118Y0000848425D02*
X0002055118Y0001088582D01*
X0002055118Y0000988188D02*
X0002078740Y0000988188D01*
X0002078740Y0000988188D02*
X0002078740Y0001064960D01*
X0002078740Y0001064960D02*
X0002216535Y0001064960D01*
X0002216535Y0001064960D02*
X0002216535Y0000872047D01*
X0002216535Y0000872047D02*
X0002078740Y0000872047D01*
X0002078740Y0000872047D02*
X0002078740Y0000948818D01*
X0002078740Y0000948818D02*
X0002055118Y0000948818D01*
X0002106299Y0001088582D02*
X0002106299Y0001064960D01*
X0002157480Y0001088582D02*
X0002157480Y0001064960D01*
X0002106299Y0000848425D02*
X0002106299Y0000872047D01*
X0002157480Y0000848425D02*
X0002157480Y0000872047D01*
X0002055118Y0001019685D02*
X0002047244Y0001019685D01*
X0002047244Y0001019685D02*
X0002047244Y0001031496D01*
X0002047244Y0001031496D02*
X0002055118Y0001031496D01*
X0002051181Y0001019685D02*
X0002051181Y0001031496D01*
X0002216535Y0000972440D02*
X0002196850Y0000972440D01*
X0002196850Y0000972440D02*
X0002196850Y0000964566D01*
X0002196850Y0000964566D02*
X0002216535Y0000964566D01*
X0002216535Y0000968503D02*
X0002196850Y0000968503D01*
X0002043307Y0001051181D02*
X0002043307Y0001100393D01*
X0002043307Y0001100393D02*
X0002092519Y0001100393D01*
X0002253937Y0001088582D02*
X0002438976Y0001088582D01*
X0002438976Y0001088582D02*
X0002438976Y0000848425D01*
X0002438976Y0000848425D02*
X0002253937Y0000848425D01*
X0002253937Y0000848425D02*
X0002253937Y0001088582D01*
X0002253937Y0000988188D02*
X0002277559Y0000988188D01*
X0002277559Y0000988188D02*
X0002277559Y0001064960D01*
X0002277559Y0001064960D02*
X0002415354Y0001064960D01*
X0002415354Y0001064960D02*
X0002415354Y0000872047D01*
X0002415354Y0000872047D02*
X0002277559Y0000872047D01*
X0002277559Y0000872047D02*
X0002277559Y0000948818D01*
X0002277559Y0000948818D02*
X0002253937Y0000948818D01*
X0002305118Y0001088582D02*
X0002305118Y0001064960D01*
X0002356299Y0001088582D02*
X0002356299Y0001064960D01*
X0002305118Y0000848425D02*
X0002305118Y0000872047D01*
X0002356299Y0000848425D02*
X0002356299Y0000872047D01*
X0002253937Y0001019685D02*
X0002246062Y0001019685D01*
X0002246062Y0001019685D02*
X0002246062Y0001031496D01*
X0002246062Y0001031496D02*
X0002253937Y0001031496D01*
X0002250000Y0001019685D02*
X0002250000Y0001031496D01*
X0002415354Y0000972440D02*
X0002395669Y0000972440D01*
X0002395669Y0000972440D02*
X0002395669Y0000964566D01*
X0002395669Y0000964566D02*
X0002415354Y0000964566D01*
X0002415354Y0000968503D02*
X0002395669Y0000968503D01*
X0002242125Y0001051181D02*
X0002242125Y0001100393D01*
X0002242125Y0001100393D02*
X0002291338Y0001100393D01*
D39*
X0002040514Y0001074840D02*
X0001820114Y0001074840D01*
X0001827914Y0001094440D02*
X0001827914Y0001074840D01*
X0002032714Y0001074840D02*
X0002032714Y0001094440D01*
X0001930314Y0001094440D02*
X0001930314Y0001074840D01*
X0001820114Y0000866140D02*
X0002040514Y0000866140D01*
X0001820114Y0001094440D02*
X0002040514Y0001094440D01*
X0002040514Y0001094440D02*
X0002040514Y0000850440D01*
X0002040514Y0000850440D02*
X0001820114Y0000850440D01*
X0001820114Y0000850440D02*
X0001820114Y0001094440D01*
X0002163479Y0000977690D02*
X0002191601Y0000977690D01*
X0002197225Y0000979565D01*
X0002200974Y0000983314D01*
X0002202849Y0000988938D01*
X0002202849Y0000992688D01*
X0002202849Y0000938320D02*
X0002202849Y0000960817D01*
X0002202849Y0000949568D02*
X0002163479Y0000949568D01*
X0002169103Y0000953318D01*
X0002172853Y0000957067D01*
X0002174728Y0000960817D01*
X0002362298Y0000981627D02*
X0002390419Y0000981627D01*
X0002396044Y0000983502D01*
X0002399793Y0000987251D01*
X0002401668Y0000992875D01*
X0002401668Y0000996625D01*
X0002362298Y0000966629D02*
X0002362298Y0000942257D01*
X0002377296Y0000955380D01*
X0002377296Y0000949756D01*
X0002379171Y0000946006D01*
X0002381046Y0000944131D01*
X0002384795Y0000942257D01*
X0002394169Y0000942257D01*
X0002397919Y0000944131D01*
X0002399793Y0000946006D01*
X0002401668Y0000949756D01*
X0002401668Y0000961004D01*
X0002399793Y0000964754D01*
X0002397919Y0000966629D01*
X0001917191Y0000880999D02*
X0001917191Y0000909120D01*
X0001915316Y0000914744D01*
X0001911567Y0000918494D01*
X0001905942Y0000920369D01*
X0001902193Y0000920369D01*
X0001934064Y0000884748D02*
X0001935939Y0000882873D01*
X0001939688Y0000880999D01*
X0001949062Y0000880999D01*
X0001952812Y0000882873D01*
X0001954686Y0000884748D01*
X0001956561Y0000888498D01*
X0001956561Y0000892247D01*
X0001954686Y0000897872D01*
X0001932189Y0000920369D01*
X0001956561Y0000920369D01*
G04 next file*
G04 #@! TF.FileFunction,Legend,Bot*
G04 Gerber Fmt 4.6, Leading zero omitted, Abs format (unit mm)*
G04 Created by KiCad (PCBNEW 4.0.7) date 06/06/18 08:13:09*
G01G01*
G04 APERTURE LIST*
G04 APERTURE END LIST*
D41*
D42*
X0001542979Y0001066272D02*
X0001515419Y0001066272D01*
X0001535105Y0001057086D01*
X0001515419Y0001047900D01*
X0001542979Y0001047900D01*
X0001542979Y0001034776D02*
X0001515419Y0001034776D01*
X0001535105Y0001025590D01*
X0001515419Y0001016404D01*
X0001542979Y0001016404D01*
X0001541666Y0000983595D02*
X0001542979Y0000979658D01*
X0001542979Y0000973097D01*
X0001541666Y0000970472D01*
X0001540354Y0000969160D01*
X0001537729Y0000967847D01*
X0001535105Y0000967847D01*
X0001532480Y0000969160D01*
X0001531167Y0000970472D01*
X0001529855Y0000973097D01*
X0001528543Y0000978346D01*
X0001527230Y0000980971D01*
X0001525918Y0000982283D01*
X0001523293Y0000983595D01*
X0001520669Y0000983595D01*
X0001518044Y0000982283D01*
X0001516732Y0000980971D01*
X0001515419Y0000978346D01*
X0001515419Y0000971784D01*
X0001516732Y0000967847D01*
X0001542979Y0000944225D02*
X0001528543Y0000944225D01*
X0001525918Y0000945537D01*
X0001524606Y0000948162D01*
X0001524606Y0000953412D01*
X0001525918Y0000956036D01*
X0001541666Y0000944225D02*
X0001542979Y0000946850D01*
X0001542979Y0000953412D01*
X0001541666Y0000956036D01*
X0001539042Y0000957349D01*
X0001536417Y0000957349D01*
X0001533792Y0000956036D01*
X0001532480Y0000953412D01*
X0001532480Y0000946850D01*
X0001531167Y0000944225D01*
X0001542979Y0000931102D02*
X0001515419Y0000931102D01*
X0001525918Y0000931102D02*
X0001524606Y0000928477D01*
X0001524606Y0000923228D01*
X0001525918Y0000920603D01*
X0001527230Y0000919291D01*
X0001529855Y0000917978D01*
X0001537729Y0000917978D01*
X0001540354Y0000919291D01*
X0001541666Y0000920603D01*
X0001542979Y0000923228D01*
X0001542979Y0000928477D01*
X0001541666Y0000931102D01*
X0001542979Y0000906167D02*
X0001524606Y0000906167D01*
X0001529855Y0000906167D02*
X0001527230Y0000904855D01*
X0001525918Y0000903543D01*
X0001524606Y0000900918D01*
X0001524606Y0000898293D01*
X0001541666Y0000878608D02*
X0001542979Y0000881233D01*
X0001542979Y0000886482D01*
X0001541666Y0000889107D01*
X0001539042Y0000890419D01*
X0001528543Y0000890419D01*
X0001525918Y0000889107D01*
X0001524606Y0000886482D01*
X0001524606Y0000881233D01*
X0001525918Y0000878608D01*
X0001528543Y0000877296D01*
X0001531167Y0000877296D01*
X0001533792Y0000890419D01*
X0001576771Y0001073490D02*
X0001578083Y0001069553D01*
X0001579396Y0001068241D01*
X0001582020Y0001066929D01*
X0001585957Y0001066929D01*
X0001588582Y0001068241D01*
X0001589895Y0001069553D01*
X0001591207Y0001072178D01*
X0001591207Y0001082677D01*
X0001563648Y0001082677D01*
X0001563648Y0001073490D01*
X0001564960Y0001070866D01*
X0001566272Y0001069553D01*
X0001568897Y0001068241D01*
X0001571522Y0001068241D01*
X0001574146Y0001069553D01*
X0001575459Y0001070866D01*
X0001576771Y0001073490D01*
X0001576771Y0001082677D01*
X0001591207Y0001043307D02*
X0001576771Y0001043307D01*
X0001574146Y0001044619D01*
X0001572834Y0001047244D01*
X0001572834Y0001052493D01*
X0001574146Y0001055118D01*
X0001589895Y0001043307D02*
X0001591207Y0001045931D01*
X0001591207Y0001052493D01*
X0001589895Y0001055118D01*
X0001587270Y0001056430D01*
X0001584645Y0001056430D01*
X0001582020Y0001055118D01*
X0001580708Y0001052493D01*
X0001580708Y0001045931D01*
X0001579396Y0001043307D01*
X0001589895Y0001031496D02*
X0001591207Y0001028871D01*
X0001591207Y0001023622D01*
X0001589895Y0001020997D01*
X0001587270Y0001019685D01*
X0001585957Y0001019685D01*
X0001583333Y0001020997D01*
X0001582020Y0001023622D01*
X0001582020Y0001027559D01*
X0001580708Y0001030183D01*
X0001578083Y0001031496D01*
X0001576771Y0001031496D01*
X0001574146Y0001030183D01*
X0001572834Y0001027559D01*
X0001572834Y0001023622D01*
X0001574146Y0001020997D01*
X0001589895Y0001009186D02*
X0001591207Y0001006561D01*
X0001591207Y0001001312D01*
X0001589895Y0000998687D01*
X0001587270Y0000997375D01*
X0001585957Y0000997375D01*
X0001583333Y0000998687D01*
X0001582020Y0001001312D01*
X0001582020Y0001005249D01*
X0001580708Y0001007873D01*
X0001578083Y0001009186D01*
X0001576771Y0001009186D01*
X0001574146Y0001007873D01*
X0001572834Y0001005249D01*
X0001572834Y0001001312D01*
X0001574146Y0000998687D01*
X0001562335Y0000965879D02*
X0001597769Y0000989501D01*
X0001591207Y0000956692D02*
X0001563648Y0000956692D01*
X0001583333Y0000947506D01*
X0001563648Y0000938320D01*
X0001591207Y0000938320D01*
X0001591207Y0000925196D02*
X0001572834Y0000925196D01*
X0001563648Y0000925196D02*
X0001564960Y0000926509D01*
X0001566272Y0000925196D01*
X0001564960Y0000923884D01*
X0001563648Y0000925196D01*
X0001566272Y0000925196D01*
X0001591207Y0000914698D02*
X0001572834Y0000900262D01*
X0001572834Y0000914698D02*
X0001591207Y0000900262D01*
X0001589895Y0000879265D02*
X0001591207Y0000881889D01*
X0001591207Y0000887139D01*
X0001589895Y0000889763D01*
X0001587270Y0000891076D01*
X0001576771Y0000891076D01*
X0001574146Y0000889763D01*
X0001572834Y0000887139D01*
X0001572834Y0000881889D01*
X0001574146Y0000879265D01*
X0001576771Y0000877952D01*
X0001579396Y0000877952D01*
X0001582020Y0000891076D01*
X0001591207Y0000866141D02*
X0001572834Y0000866141D01*
X0001578083Y0000866141D02*
X0001575459Y0000864829D01*
X0001574146Y0000863517D01*
X0001572834Y0000860892D01*
X0001572834Y0000858267D01*
X0001636811Y0001070209D02*
X0001638123Y0001071522D01*
X0001639435Y0001075459D01*
X0001639435Y0001078083D01*
X0001638123Y0001082020D01*
X0001635498Y0001084645D01*
X0001632874Y0001085957D01*
X0001627624Y0001087270D01*
X0001623687Y0001087270D01*
X0001618438Y0001085957D01*
X0001615813Y0001084645D01*
X0001613188Y0001082020D01*
X0001611876Y0001078083D01*
X0001611876Y0001075459D01*
X0001613188Y0001071522D01*
X0001614501Y0001070209D01*
X0001625000Y0001049212D02*
X0001626312Y0001045275D01*
X0001627624Y0001043963D01*
X0001630249Y0001042650D01*
X0001634186Y0001042650D01*
X0001636811Y0001043963D01*
X0001638123Y0001045275D01*
X0001639435Y0001047900D01*
X0001639435Y0001058398D01*
X0001611876Y0001058398D01*
X0001611876Y0001049212D01*
X0001613188Y0001046587D01*
X0001614501Y0001045275D01*
X0001617125Y0001043963D01*
X0001619750Y0001043963D01*
X0001622375Y0001045275D01*
X0001623687Y0001046587D01*
X0001625000Y0001049212D01*
X0001625000Y0001058398D01*
X0001639435Y0001030839D02*
X0001611876Y0001030839D01*
X0001611876Y0001024278D01*
X0001613188Y0001020341D01*
X0001615813Y0001017716D01*
X0001618438Y0001016404D01*
X0001623687Y0001015091D01*
X0001627624Y0001015091D01*
X0001632874Y0001016404D01*
X0001635498Y0001017716D01*
X0001638123Y0001020341D01*
X0001639435Y0001024278D01*
X0001639435Y0001030839D01*
X0001639435Y0000982283D02*
X0001611876Y0000982283D01*
X0001611876Y0000975721D01*
X0001613188Y0000971784D01*
X0001615813Y0000969160D01*
X0001618438Y0000967847D01*
X0001623687Y0000966535D01*
X0001627624Y0000966535D01*
X0001632874Y0000967847D01*
X0001635498Y0000969160D01*
X0001638123Y0000971784D01*
X0001639435Y0000975721D01*
X0001639435Y0000982283D01*
X0001638123Y0000944225D02*
X0001639435Y0000946850D01*
X0001639435Y0000952099D01*
X0001638123Y0000954724D01*
X0001635498Y0000956036D01*
X0001625000Y0000956036D01*
X0001622375Y0000954724D01*
X0001621062Y0000952099D01*
X0001621062Y0000946850D01*
X0001622375Y0000944225D01*
X0001625000Y0000942913D01*
X0001627624Y0000942913D01*
X0001630249Y0000956036D01*
X0001638123Y0000932414D02*
X0001639435Y0000929790D01*
X0001639435Y0000924540D01*
X0001638123Y0000921915D01*
X0001635498Y0000920603D01*
X0001634186Y0000920603D01*
X0001631561Y0000921915D01*
X0001630249Y0000924540D01*
X0001630249Y0000928477D01*
X0001628937Y0000931102D01*
X0001626312Y0000932414D01*
X0001625000Y0000932414D01*
X0001622375Y0000931102D01*
X0001621062Y0000928477D01*
X0001621062Y0000924540D01*
X0001622375Y0000921915D01*
X0001639435Y0000908792D02*
X0001621062Y0000908792D01*
X0001611876Y0000908792D02*
X0001613188Y0000910104D01*
X0001614501Y0000908792D01*
X0001613188Y0000907480D01*
X0001611876Y0000908792D01*
X0001614501Y0000908792D01*
X0001621062Y0000883858D02*
X0001643372Y0000883858D01*
X0001645997Y0000885170D01*
X0001647309Y0000886482D01*
X0001648622Y0000889107D01*
X0001648622Y0000893044D01*
X0001647309Y0000895669D01*
X0001638123Y0000883858D02*
X0001639435Y0000886482D01*
X0001639435Y0000891732D01*
X0001638123Y0000894356D01*
X0001636811Y0000895669D01*
X0001634186Y0000896981D01*
X0001626312Y0000896981D01*
X0001623687Y0000895669D01*
X0001622375Y0000894356D01*
X0001621062Y0000891732D01*
X0001621062Y0000886482D01*
X0001622375Y0000883858D01*
X0001621062Y0000870734D02*
X0001639435Y0000870734D01*
X0001623687Y0000870734D02*
X0001622375Y0000869422D01*
X0001621062Y0000866797D01*
X0001621062Y0000862860D01*
X0001622375Y0000860236D01*
X0001625000Y0000858923D01*
X0001639435Y0000858923D01*
D43*
X0001507874Y0001106299D02*
X0001145669Y0001106299D01*
X0001507874Y0000429133D02*
X0001145669Y0000429133D01*
X0001507874Y0001106299D02*
X0001507874Y0000429133D01*
X0001145669Y0001106299D02*
X0001145669Y0000429133D01*
X0001708661Y0000643700D02*
X0001523622Y0000643700D01*
X0001523622Y0000643700D02*
X0001523622Y0000883858D01*
X0001523622Y0000883858D02*
X0001708661Y0000883858D01*
X0001708661Y0000883858D02*
X0001708661Y0000643700D01*
X0001708661Y0000744094D02*
X0001685039Y0000744094D01*
X0001685039Y0000744094D02*
X0001685039Y0000667322D01*
X0001685039Y0000667322D02*
X0001547244Y0000667322D01*
X0001547244Y0000667322D02*
X0001547244Y0000860236D01*
X0001547244Y0000860236D02*
X0001685039Y0000860236D01*
X0001685039Y0000860236D02*
X0001685039Y0000783464D01*
X0001685039Y0000783464D02*
X0001708661Y0000783464D01*
X0001657480Y0000643700D02*
X0001657480Y0000667322D01*
X0001606299Y0000643700D02*
X0001606299Y0000667322D01*
X0001657480Y0000883858D02*
X0001657480Y0000860236D01*
X0001606299Y0000883858D02*
X0001606299Y0000860236D01*
X0001708661Y0000712598D02*
X0001716535Y0000712598D01*
X0001716535Y0000712598D02*
X0001716535Y0000700787D01*
X0001716535Y0000700787D02*
X0001708661Y0000700787D01*
X0001712598Y0000712598D02*
X0001712598Y0000700787D01*
X0001547244Y0000759842D02*
X0001566929Y0000759842D01*
X0001566929Y0000759842D02*
X0001566929Y0000767716D01*
X0001566929Y0000767716D02*
X0001547244Y0000767716D01*
X0001547244Y0000763779D02*
X0001566929Y0000763779D01*
X0001720472Y0000681102D02*
X0001720472Y0000631889D01*
X0001720472Y0000631889D02*
X0001671259Y0000631889D01*
D44*
X0001200131Y0001095144D02*
X0001190944Y0001082020D01*
X0001184383Y0001095144D02*
X0001184383Y0001067585D01*
X0001194881Y0001067585D01*
X0001197506Y0001068897D01*
X0001198818Y0001070209D01*
X0001200131Y0001072834D01*
X0001200131Y0001076771D01*
X0001198818Y0001079396D01*
X0001197506Y0001080708D01*
X0001194881Y0001082020D01*
X0001184383Y0001082020D01*
X0001208005Y0001067585D02*
X0001217191Y0001095144D01*
X0001226377Y0001067585D01*
X0001250000Y0001095144D02*
X0001234251Y0001095144D01*
X0001242125Y0001095144D02*
X0001242125Y0001067585D01*
X0001239501Y0001071522D01*
X0001236876Y0001074146D01*
X0001234251Y0001075459D01*
X0001563648Y0000772965D02*
X0001583333Y0000772965D01*
X0001587270Y0000774278D01*
X0001589895Y0000776902D01*
X0001591207Y0000780839D01*
X0001591207Y0000783464D01*
X0001591207Y0000745406D02*
X0001591207Y0000761154D01*
X0001591207Y0000753280D02*
X0001563648Y0000753280D01*
X0001567585Y0000755905D01*
X0001570209Y0000758530D01*
X0001571522Y0000761154D01*
G04 next file*
G04 #@! TF.FileFunction,Legend,Bot*
G04 Gerber Fmt 4.6, Leading zero omitted, Abs format (unit mm)*
G04 Created by KiCad (PCBNEW 4.0.7) date 06/06/18 08:32:26*
G01G01*
G04 APERTURE LIST*
G04 APERTURE END LIST*
D45*
D46*
X0000061164Y0002856017D02*
X0000084786Y0002856017D01*
X0000067913Y0002848143D01*
X0000084786Y0002840269D01*
X0000061164Y0002840269D01*
X0000061164Y0002829021D02*
X0000084786Y0002829021D01*
X0000067913Y0002821147D01*
X0000084786Y0002813273D01*
X0000061164Y0002813273D01*
X0000062289Y0002785151D02*
X0000061164Y0002781777D01*
X0000061164Y0002776152D01*
X0000062289Y0002773903D01*
X0000063413Y0002772778D01*
X0000065663Y0002771653D01*
X0000067913Y0002771653D01*
X0000070163Y0002772778D01*
X0000071287Y0002773903D01*
X0000072412Y0002776152D01*
X0000073537Y0002780652D01*
X0000074662Y0002782902D01*
X0000075787Y0002784027D01*
X0000078037Y0002785151D01*
X0000080286Y0002785151D01*
X0000082536Y0002784027D01*
X0000083661Y0002782902D01*
X0000084786Y0002780652D01*
X0000084786Y0002775028D01*
X0000083661Y0002771653D01*
X0000061164Y0002751406D02*
X0000073537Y0002751406D01*
X0000075787Y0002752530D01*
X0000076912Y0002754780D01*
X0000076912Y0002759280D01*
X0000075787Y0002761529D01*
X0000062289Y0002751406D02*
X0000061164Y0002753655D01*
X0000061164Y0002759280D01*
X0000062289Y0002761529D01*
X0000064538Y0002762654D01*
X0000066788Y0002762654D01*
X0000069038Y0002761529D01*
X0000070163Y0002759280D01*
X0000070163Y0002753655D01*
X0000071287Y0002751406D01*
X0000061164Y0002740157D02*
X0000084786Y0002740157D01*
X0000075787Y0002740157D02*
X0000076912Y0002737907D01*
X0000076912Y0002733408D01*
X0000075787Y0002731158D01*
X0000074662Y0002730033D01*
X0000072412Y0002728908D01*
X0000065663Y0002728908D01*
X0000063413Y0002730033D01*
X0000062289Y0002731158D01*
X0000061164Y0002733408D01*
X0000061164Y0002737907D01*
X0000062289Y0002740157D01*
X0000061164Y0002718785D02*
X0000076912Y0002718785D01*
X0000072412Y0002718785D02*
X0000074662Y0002717660D01*
X0000075787Y0002716535D01*
X0000076912Y0002714285D01*
X0000076912Y0002712035D01*
X0000062289Y0002695163D02*
X0000061164Y0002697412D01*
X0000061164Y0002701912D01*
X0000062289Y0002704161D01*
X0000064538Y0002705286D01*
X0000073537Y0002705286D01*
X0000075787Y0002704161D01*
X0000076912Y0002701912D01*
X0000076912Y0002697412D01*
X0000075787Y0002695163D01*
X0000073537Y0002694038D01*
X0000071287Y0002694038D01*
X0000069038Y0002705286D01*
X0000022075Y0002856580D02*
X0000020950Y0002857705D01*
X0000019825Y0002861079D01*
X0000019825Y0002863329D01*
X0000020950Y0002866704D01*
X0000023200Y0002868953D01*
X0000025449Y0002870078D01*
X0000029949Y0002871203D01*
X0000033323Y0002871203D01*
X0000037823Y0002870078D01*
X0000040073Y0002868953D01*
X0000042322Y0002866704D01*
X0000043447Y0002863329D01*
X0000043447Y0002861079D01*
X0000042322Y0002857705D01*
X0000041197Y0002856580D01*
X0000019825Y0002843082D02*
X0000020950Y0002845331D01*
X0000022075Y0002846456D01*
X0000024325Y0002847581D01*
X0000031074Y0002847581D01*
X0000033323Y0002846456D01*
X0000034448Y0002845331D01*
X0000035573Y0002843082D01*
X0000035573Y0002839707D01*
X0000034448Y0002837457D01*
X0000033323Y0002836332D01*
X0000031074Y0002835208D01*
X0000024325Y0002835208D01*
X0000022075Y0002836332D01*
X0000020950Y0002837457D01*
X0000019825Y0002839707D01*
X0000019825Y0002843082D01*
X0000019825Y0002825084D02*
X0000035573Y0002825084D01*
X0000043447Y0002825084D02*
X0000042322Y0002826209D01*
X0000041197Y0002825084D01*
X0000042322Y0002823959D01*
X0000043447Y0002825084D01*
X0000041197Y0002825084D01*
X0000019825Y0002810461D02*
X0000020950Y0002812710D01*
X0000023200Y0002813835D01*
X0000043447Y0002813835D01*
X0000020950Y0002784589D02*
X0000019825Y0002781214D01*
X0000019825Y0002775590D01*
X0000020950Y0002773340D01*
X0000022075Y0002772215D01*
X0000024325Y0002771091D01*
X0000026574Y0002771091D01*
X0000028824Y0002772215D01*
X0000029949Y0002773340D01*
X0000031074Y0002775590D01*
X0000032199Y0002780090D01*
X0000033323Y0002782339D01*
X0000034448Y0002783464D01*
X0000036698Y0002784589D01*
X0000038948Y0002784589D01*
X0000041197Y0002783464D01*
X0000042322Y0002782339D01*
X0000043447Y0002780090D01*
X0000043447Y0002774465D01*
X0000042322Y0002771091D01*
X0000035573Y0002763217D02*
X0000019825Y0002758717D01*
X0000031074Y0002754218D01*
X0000019825Y0002749718D01*
X0000035573Y0002745219D01*
X0000019825Y0002736220D02*
X0000035573Y0002736220D01*
X0000043447Y0002736220D02*
X0000042322Y0002737345D01*
X0000041197Y0002736220D01*
X0000042322Y0002735095D01*
X0000043447Y0002736220D01*
X0000041197Y0002736220D01*
X0000035573Y0002728346D02*
X0000035573Y0002719347D01*
X0000043447Y0002724971D02*
X0000023200Y0002724971D01*
X0000020950Y0002723847D01*
X0000019825Y0002721597D01*
X0000019825Y0002719347D01*
X0000020950Y0002701349D02*
X0000019825Y0002703599D01*
X0000019825Y0002708099D01*
X0000020950Y0002710348D01*
X0000022075Y0002711473D01*
X0000024325Y0002712598D01*
X0000031074Y0002712598D01*
X0000033323Y0002711473D01*
X0000034448Y0002710348D01*
X0000035573Y0002708099D01*
X0000035573Y0002703599D01*
X0000034448Y0002701349D01*
X0000019825Y0002691226D02*
X0000043447Y0002691226D01*
X0000019825Y0002681102D02*
X0000032199Y0002681102D01*
X0000034448Y0002682227D01*
X0000035573Y0002684476D01*
X0000035573Y0002687851D01*
X0000034448Y0002690101D01*
X0000033323Y0002691226D01*
X0000614210Y0002729563D02*
X0000614210Y0002949963D01*
X0000633811Y0002942163D02*
X0000614210Y0002942163D01*
X0000614210Y0002737363D02*
X0000633811Y0002737363D01*
X0000633811Y0002839763D02*
X0000614210Y0002839763D01*
X0000405511Y0002949963D02*
X0000405511Y0002729563D01*
X0000633811Y0002949963D02*
X0000633811Y0002729563D01*
X0000633811Y0002729563D02*
X0000389810Y0002729563D01*
X0000389810Y0002729563D02*
X0000389810Y0002949963D01*
X0000389810Y0002949963D02*
X0000633811Y0002949963D01*
X0000614210Y0002509091D02*
X0000614210Y0002729491D01*
X0000633811Y0002721691D02*
X0000614210Y0002721691D01*
X0000614210Y0002516891D02*
X0000633811Y0002516891D01*
X0000633811Y0002619291D02*
X0000614210Y0002619291D01*
X0000405511Y0002729491D02*
X0000405511Y0002509091D01*
X0000633811Y0002729491D02*
X0000633811Y0002509091D01*
X0000633811Y0002509091D02*
X0000389810Y0002509091D01*
X0000389810Y0002509091D02*
X0000389810Y0002729491D01*
X0000389810Y0002729491D02*
X0000633811Y0002729491D01*
D47*
X0000395669Y0002303149D02*
X0000395669Y0002488188D01*
X0000395669Y0002488188D02*
X0000635826Y0002488188D01*
X0000635826Y0002488188D02*
X0000635826Y0002303149D01*
X0000635826Y0002303149D02*
X0000395669Y0002303149D01*
X0000496062Y0002303149D02*
X0000496062Y0002326771D01*
X0000496062Y0002326771D02*
X0000419291Y0002326771D01*
X0000419291Y0002326771D02*
X0000419291Y0002464566D01*
X0000419291Y0002464566D02*
X0000612204Y0002464566D01*
X0000612204Y0002464566D02*
X0000612204Y0002326771D01*
X0000612204Y0002326771D02*
X0000535433Y0002326771D01*
X0000535433Y0002326771D02*
X0000535433Y0002303149D01*
X0000395669Y0002354330D02*
X0000419291Y0002354330D01*
X0000395669Y0002405511D02*
X0000419291Y0002405511D01*
X0000635826Y0002354330D02*
X0000612204Y0002354330D01*
X0000635826Y0002405511D02*
X0000612204Y0002405511D01*
X0000464566Y0002303149D02*
X0000464566Y0002295275D01*
X0000464566Y0002295275D02*
X0000452755Y0002295275D01*
X0000452755Y0002295275D02*
X0000452755Y0002303149D01*
X0000464566Y0002299212D02*
X0000452755Y0002299212D01*
X0000511811Y0002464566D02*
X0000511811Y0002444881D01*
X0000511811Y0002444881D02*
X0000519685Y0002444881D01*
X0000519685Y0002444881D02*
X0000519685Y0002464566D01*
X0000515747Y0002464566D02*
X0000515747Y0002444881D01*
X0000433070Y0002291338D02*
X0000383858Y0002291338D01*
X0000383858Y0002291338D02*
X0000383858Y0002340551D01*
D46*
X0000419385Y0002851706D02*
X0000447506Y0002851706D01*
X0000453130Y0002853580D01*
X0000456880Y0002857330D01*
X0000458755Y0002862954D01*
X0000458755Y0002866704D01*
X0000458755Y0002812335D02*
X0000458755Y0002834833D01*
X0000458755Y0002823584D02*
X0000419385Y0002823584D01*
X0000425009Y0002827334D01*
X0000428758Y0002831083D01*
X0000430633Y0002834833D01*
X0000419385Y0002629658D02*
X0000447506Y0002629658D01*
X0000453130Y0002631533D01*
X0000456880Y0002635283D01*
X0000458755Y0002640907D01*
X0000458755Y0002644656D01*
X0000423134Y0002612785D02*
X0000421259Y0002610911D01*
X0000419385Y0002607161D01*
X0000419385Y0002597787D01*
X0000421259Y0002594038D01*
X0000423134Y0002592163D01*
X0000426884Y0002590288D01*
X0000430633Y0002590288D01*
X0000436257Y0002592163D01*
X0000458755Y0002614660D01*
X0000458755Y0002590288D01*
X0000528871Y0002454630D02*
X0000528871Y0002426509D01*
X0000530746Y0002420884D01*
X0000534495Y0002417135D01*
X0000540119Y0002415260D01*
X0000543869Y0002415260D01*
X0000513873Y0002454630D02*
X0000489501Y0002454630D01*
X0000502624Y0002439632D01*
X0000497000Y0002439632D01*
X0000493250Y0002437757D01*
X0000491376Y0002435883D01*
X0000489501Y0002432133D01*
X0000489501Y0002422759D01*
X0000491376Y0002419010D01*
X0000493250Y0002417135D01*
X0000497000Y0002415260D01*
X0000508248Y0002415260D01*
X0000511998Y0002417135D01*
X0000513873Y0002419010D01*
M02*