%MOIN*%
%OFA0B0*%
%FSLAX44Y44*%
%IPPOS*%
%LPD*%
%ADD10C,0*%
D10*
X00008025Y00022047D02*
X00008025Y00022047D01*
X00004179Y00022047D01*
X00004117Y00022052D01*
X00004057Y00022066D01*
X00004000Y00022090D01*
X00003947Y00022122D01*
X00003900Y00022162D01*
X00003860Y00022209D01*
X00003828Y00022262D01*
X00003804Y00022319D01*
X00003790Y00022379D01*
X00003785Y00022440D01*
X00003790Y00022502D01*
X00003804Y00022562D01*
X00003828Y00022619D01*
X00003860Y00022672D01*
X00003900Y00022719D01*
X00003947Y00022759D01*
X00004000Y00022791D01*
X00004057Y00022815D01*
X00004117Y00022829D01*
X00004179Y00022834D01*
X00004179Y00022834D01*
X00005905Y00022834D01*
X00005905Y00024562D01*
X00006299Y00024562D01*
X00005910Y00024624D01*
X00005924Y00024684D01*
X00005948Y00024741D01*
X00005980Y00024794D01*
X00006020Y00024841D01*
X00006067Y00024881D01*
X00006120Y00024913D01*
X00006177Y00024937D01*
X00006237Y00024951D01*
X00006299Y00024956D01*
X00006360Y00024951D01*
X00006420Y00024937D01*
X00006477Y00024913D01*
X00006530Y00024881D01*
X00006577Y00024841D01*
X00006617Y00024794D01*
X00006650Y00024741D01*
X00006673Y00024684D01*
X00006688Y00024624D01*
X00006692Y00024562D01*
X00006692Y00022834D01*
X00008025Y00022834D01*
X00008117Y00022823D01*
X00008204Y00022791D01*
X00008281Y00022740D01*
X00008343Y00022672D01*
X00008389Y00022591D01*
X00008414Y00022502D01*
X00008417Y00022410D01*
X00008399Y00022319D01*
X00008361Y00022235D01*
X00008303Y00022162D01*
X00008231Y00022105D01*
X00008147Y00022066D01*
X00008056Y00022048D01*
X00007963Y00022052D01*
X00007874Y00022077D01*
X00007794Y00022122D01*
X00007726Y00022185D01*
X00007674Y00022262D01*
X00007642Y00022349D01*
X00008025Y00022440D01*
X00007642Y00022532D01*
X00007674Y00022619D01*
X00007726Y00022696D01*
X00007794Y00022759D01*
X00007874Y00022804D01*
X00007963Y00022829D01*
X00008056Y00022833D01*
X00008147Y00022815D01*
X00008231Y00022776D01*
X00008303Y00022719D01*
X00008361Y00022646D01*
X00008399Y00022562D01*
X00008417Y00022471D01*
X00008414Y00022379D01*
X00008389Y00022290D01*
X00008343Y00022209D01*
X00008281Y00022141D01*
X00008204Y00022090D01*
X00008117Y00022058D01*
X00008025Y00022047D01*
X00010629Y00007276D02*
X00010629Y00007276D01*
X00010629Y00011023D01*
X00006446Y00011023D01*
X00006415Y00011024D01*
X00006384Y00011028D01*
X00006354Y00011034D01*
X00006324Y00011042D01*
X00006295Y00011053D01*
X00006267Y00011066D01*
X00006240Y00011081D01*
X00006215Y00011098D01*
X00006190Y00011117D01*
X00006168Y00011138D01*
X00006147Y00011161D01*
X00006127Y00011185D01*
X00006110Y00011211D01*
X00006095Y00011238D01*
X00006082Y00011266D01*
X00006072Y00011295D01*
X00006063Y00011325D01*
X00006057Y00011355D01*
X00006053Y00011386D01*
X00006446Y00011417D01*
X00006053Y00011448D01*
X00006057Y00011478D01*
X00006063Y00011509D01*
X00006072Y00011538D01*
X00006082Y00011567D01*
X00006095Y00011596D01*
X00006110Y00011623D01*
X00006127Y00011648D01*
X00006147Y00011673D01*
X00006168Y00011695D01*
X00006190Y00011716D01*
X00006215Y00011735D01*
X00006240Y00011753D01*
X00006267Y00011768D01*
X00006295Y00011781D01*
X00006324Y00011791D01*
X00006354Y00011800D01*
X00006384Y00011806D01*
X00006415Y00011809D01*
X00006446Y00011811D01*
X00010629Y00011811D01*
X00010629Y00015786D01*
X00011023Y00015786D01*
X00010634Y00015848D01*
X00010649Y00015908D01*
X00010672Y00015965D01*
X00010705Y00016018D01*
X00010745Y00016065D01*
X00010792Y00016105D01*
X00010844Y00016137D01*
X00010901Y00016161D01*
X00010962Y00016175D01*
X00011023Y00016180D01*
X00011085Y00016175D01*
X00011145Y00016161D01*
X00011202Y00016137D01*
X00011255Y00016105D01*
X00011302Y00016065D01*
X00011342Y00016018D01*
X00011374Y00015965D01*
X00011398Y00015908D01*
X00011412Y00015848D01*
X00011417Y00015786D01*
X00011417Y00011811D01*
X00014180Y00011811D01*
X00014180Y00011811D01*
X00014242Y00011806D01*
X00014302Y00011791D01*
X00014359Y00011768D01*
X00014411Y00011735D01*
X00014458Y00011695D01*
X00014498Y00011648D01*
X00014531Y00011596D01*
X00014554Y00011538D01*
X00014569Y00011478D01*
X00014574Y00011417D01*
X00014569Y00011355D01*
X00014554Y00011295D01*
X00014531Y00011238D01*
X00014498Y00011185D01*
X00014458Y00011138D01*
X00014411Y00011098D01*
X00014359Y00011066D01*
X00014302Y00011042D01*
X00014242Y00011028D01*
X00014180Y00011023D01*
X00011417Y00011023D01*
X00011417Y00007276D01*
X00011412Y00007214D01*
X00011398Y00007154D01*
X00011374Y00007097D01*
X00011342Y00007044D01*
X00011302Y00006997D01*
X00011255Y00006957D01*
X00011202Y00006925D01*
X00011145Y00006901D01*
X00011085Y00006887D01*
X00011023Y00006882D01*
X00010962Y00006887D01*
X00010901Y00006901D01*
X00010844Y00006925D01*
X00010792Y00006957D01*
X00010745Y00006997D01*
X00010705Y00007044D01*
X00010672Y00007097D01*
X00010649Y00007154D01*
X00010634Y00007214D01*
X00011023Y00007276D01*
X00010629Y00007276D01*
X00018110Y00029133D02*
X00018110Y00029133D01*
X00012204Y00029133D01*
X00012204Y00026601D01*
X00012203Y00026570D01*
X00012199Y00026539D01*
X00012193Y00026509D01*
X00012185Y00026479D01*
X00012174Y00026450D01*
X00012161Y00026422D01*
X00012146Y00026395D01*
X00012129Y00026369D01*
X00012110Y00026345D01*
X00012089Y00026322D01*
X00012066Y00026301D01*
X00012042Y00026282D01*
X00012016Y00026265D01*
X00011989Y00026250D01*
X00011961Y00026237D01*
X00011932Y00026226D01*
X00011902Y00026218D01*
X00011872Y00026212D01*
X00011841Y00026208D01*
X00011811Y00026207D01*
X00011811Y00026207D01*
X00011780Y00026208D01*
X00011749Y00026212D01*
X00011719Y00026218D01*
X00011689Y00026226D01*
X00011660Y00026237D01*
X00011632Y00026250D01*
X00011605Y00026265D01*
X00011579Y00026282D01*
X00011555Y00026301D01*
X00011532Y00026322D01*
X00011511Y00026345D01*
X00011492Y00026369D01*
X00011475Y00026395D01*
X00011460Y00026422D01*
X00011447Y00026450D01*
X00011436Y00026479D01*
X00011428Y00026509D01*
X00011422Y00026539D01*
X00011418Y00026570D01*
X00011417Y00026601D01*
X00011417Y00027952D01*
X00006692Y00027952D01*
X00006692Y00026580D01*
X00006688Y00026518D01*
X00006673Y00026458D01*
X00006650Y00026401D01*
X00006617Y00026348D01*
X00006577Y00026301D01*
X00006530Y00026261D01*
X00006477Y00026229D01*
X00006420Y00026205D01*
X00006360Y00026191D01*
X00006299Y00026186D01*
X00006237Y00026191D01*
X00006177Y00026205D01*
X00006120Y00026229D01*
X00006067Y00026261D01*
X00006020Y00026301D01*
X00005980Y00026348D01*
X00005948Y00026401D01*
X00005924Y00026458D01*
X00005910Y00026518D01*
X00006299Y00026580D01*
X00005905Y00026580D01*
X00005905Y00028740D01*
X00000000Y00028740D01*
X00000000Y00022834D01*
X00002119Y00022834D01*
X00002181Y00022829D01*
X00002241Y00022815D01*
X00002298Y00022791D01*
X00002351Y00022759D01*
X00002398Y00022719D01*
X00002438Y00022672D01*
X00002470Y00022619D01*
X00002494Y00022562D01*
X00002508Y00022502D01*
X00002513Y00022440D01*
X00002508Y00022379D01*
X00002494Y00022319D01*
X00002470Y00022262D01*
X00002438Y00022209D01*
X00002398Y00022162D01*
X00002351Y00022122D01*
X00002298Y00022090D01*
X00002241Y00022066D01*
X00002181Y00022052D01*
X00002119Y00022047D01*
X00002119Y00022047D01*
X00000393Y00022047D01*
X00000393Y00011811D01*
X00004387Y00011811D01*
X00004448Y00011806D01*
X00004508Y00011791D01*
X00004565Y00011768D01*
X00004618Y00011735D01*
X00004665Y00011695D01*
X00004705Y00011648D01*
X00004737Y00011596D01*
X00004761Y00011538D01*
X00004775Y00011478D01*
X00004780Y00011417D01*
X00004775Y00011355D01*
X00004761Y00011295D01*
X00004737Y00011238D01*
X00004705Y00011185D01*
X00004665Y00011138D01*
X00004618Y00011098D01*
X00004565Y00011066D01*
X00004508Y00011042D01*
X00004448Y00011028D01*
X00004387Y00011023D01*
X00004387Y00011023D01*
X00000000Y00011023D01*
X00000000Y00000000D01*
X00010629Y00000000D01*
X00010629Y00005216D01*
X00010629Y00005216D01*
X00010634Y00005278D01*
X00010649Y00005338D01*
X00010672Y00005395D01*
X00010705Y00005448D01*
X00010745Y00005495D01*
X00010792Y00005535D01*
X00010844Y00005567D01*
X00010901Y00005591D01*
X00010962Y00005605D01*
X00011023Y00005610D01*
X00011085Y00005605D01*
X00011145Y00005591D01*
X00011202Y00005567D01*
X00011255Y00005535D01*
X00011302Y00005495D01*
X00011342Y00005448D01*
X00011374Y00005395D01*
X00011398Y00005338D01*
X00011412Y00005278D01*
X00011417Y00005216D01*
X00011417Y00002559D01*
X00019094Y00002559D01*
X00019094Y00011023D01*
X00016239Y00011023D01*
X00016208Y00011024D01*
X00016178Y00011028D01*
X00016147Y00011034D01*
X00016118Y00011042D01*
X00016089Y00011053D01*
X00016061Y00011066D01*
X00016034Y00011081D01*
X00016008Y00011098D01*
X00015984Y00011117D01*
X00015961Y00011138D01*
X00015940Y00011161D01*
X00015921Y00011185D01*
X00015904Y00011211D01*
X00015888Y00011238D01*
X00015876Y00011266D01*
X00015865Y00011295D01*
X00015856Y00011325D01*
X00015850Y00011355D01*
X00015847Y00011386D01*
X00016239Y00011417D01*
X00015847Y00011448D01*
X00015850Y00011478D01*
X00015856Y00011509D01*
X00015865Y00011538D01*
X00015876Y00011567D01*
X00015888Y00011596D01*
X00015904Y00011623D01*
X00015921Y00011648D01*
X00015940Y00011673D01*
X00015961Y00011695D01*
X00015984Y00011716D01*
X00016008Y00011735D01*
X00016034Y00011753D01*
X00016061Y00011768D01*
X00016089Y00011781D01*
X00016118Y00011791D01*
X00016147Y00011800D01*
X00016178Y00011806D01*
X00016208Y00011809D01*
X00016239Y00011811D01*
X00018897Y00011811D01*
X00018897Y00021653D01*
X00016187Y00021653D01*
X00016156Y00021654D01*
X00016125Y00021658D01*
X00016095Y00021664D01*
X00016065Y00021672D01*
X00016036Y00021683D01*
X00016008Y00021696D01*
X00015981Y00021711D01*
X00015955Y00021728D01*
X00015931Y00021747D01*
X00015908Y00021768D01*
X00015887Y00021791D01*
X00015868Y00021815D01*
X00015851Y00021841D01*
X00015836Y00021868D01*
X00015823Y00021896D01*
X00015812Y00021925D01*
X00015804Y00021955D01*
X00015798Y00021985D01*
X00015794Y00022016D01*
X00016187Y00022047D01*
X00015794Y00022078D01*
X00015798Y00022108D01*
X00015804Y00022139D01*
X00015812Y00022168D01*
X00015823Y00022197D01*
X00015836Y00022225D01*
X00015851Y00022252D01*
X00015868Y00022278D01*
X00015887Y00022302D01*
X00015908Y00022325D01*
X00015931Y00022346D01*
X00015955Y00022365D01*
X00015981Y00022382D01*
X00016008Y00022398D01*
X00016036Y00022410D01*
X00016065Y00022421D01*
X00016095Y00022430D01*
X00016125Y00022436D01*
X00016156Y00022439D01*
X00016187Y00022440D01*
X00018110Y00022440D01*
X00018110Y00029133D01*
X00010084Y00022047D02*
X00010084Y00022047D01*
X00010053Y00022048D01*
X00010023Y00022052D01*
X00009992Y00022058D01*
X00009963Y00022066D01*
X00009934Y00022077D01*
X00009906Y00022090D01*
X00009879Y00022105D01*
X00009853Y00022122D01*
X00009829Y00022141D01*
X00009806Y00022162D01*
X00009785Y00022185D01*
X00009766Y00022209D01*
X00009749Y00022235D01*
X00009733Y00022262D01*
X00009721Y00022290D01*
X00009710Y00022319D01*
X00009701Y00022349D01*
X00009695Y00022379D01*
X00009692Y00022410D01*
X00010084Y00022440D01*
X00009692Y00022471D01*
X00009695Y00022502D01*
X00009701Y00022532D01*
X00009710Y00022562D01*
X00009721Y00022591D01*
X00009733Y00022619D01*
X00009749Y00022646D01*
X00009766Y00022672D01*
X00009785Y00022696D01*
X00009806Y00022719D01*
X00009829Y00022740D01*
X00009853Y00022759D01*
X00009879Y00022776D01*
X00009906Y00022791D01*
X00009934Y00022804D01*
X00009963Y00022815D01*
X00009992Y00022823D01*
X00010023Y00022829D01*
X00010053Y00022833D01*
X00010084Y00022834D01*
X00011417Y00022834D01*
X00011417Y00024541D01*
X00011418Y00024572D01*
X00011422Y00024603D01*
X00011428Y00024633D01*
X00011436Y00024663D01*
X00011447Y00024692D01*
X00011460Y00024720D01*
X00011475Y00024747D01*
X00011492Y00024773D01*
X00011511Y00024797D01*
X00011532Y00024820D01*
X00011555Y00024841D01*
X00011579Y00024860D01*
X00011605Y00024877D01*
X00011632Y00024892D01*
X00011660Y00024905D01*
X00011689Y00024916D01*
X00011719Y00024924D01*
X00011749Y00024930D01*
X00011780Y00024934D01*
X00011811Y00024935D01*
X00011811Y00024935D01*
X00011841Y00024934D01*
X00011872Y00024930D01*
X00011902Y00024924D01*
X00011932Y00024916D01*
X00011961Y00024905D01*
X00011989Y00024892D01*
X00012016Y00024877D01*
X00012042Y00024860D01*
X00012066Y00024841D01*
X00012089Y00024820D01*
X00012110Y00024797D01*
X00012129Y00024773D01*
X00012146Y00024747D01*
X00012161Y00024720D01*
X00012174Y00024692D01*
X00012185Y00024663D01*
X00012193Y00024633D01*
X00012199Y00024603D01*
X00012203Y00024572D01*
X00012204Y00024541D01*
X00012204Y00022440D01*
X00014127Y00022440D01*
X00014219Y00022430D01*
X00014306Y00022398D01*
X00014383Y00022346D01*
X00014446Y00022278D01*
X00014491Y00022197D01*
X00014516Y00022108D01*
X00014520Y00022016D01*
X00014502Y00021925D01*
X00014463Y00021841D01*
X00014406Y00021768D01*
X00014333Y00021711D01*
X00014249Y00021672D01*
X00014158Y00021654D01*
X00014066Y00021658D01*
X00013977Y00021683D01*
X00013896Y00021728D01*
X00013828Y00021791D01*
X00013777Y00021868D01*
X00013744Y00021955D01*
X00014127Y00022047D01*
X00013744Y00022139D01*
X00013777Y00022225D01*
X00013828Y00022302D01*
X00013896Y00022365D01*
X00013977Y00022410D01*
X00014066Y00022436D01*
X00014158Y00022439D01*
X00014249Y00022421D01*
X00014333Y00022382D01*
X00014406Y00022325D01*
X00014463Y00022252D01*
X00014502Y00022168D01*
X00014520Y00022078D01*
X00014516Y00021985D01*
X00014491Y00021896D01*
X00014446Y00021815D01*
X00014383Y00021747D01*
X00014306Y00021696D01*
X00014219Y00021664D01*
X00014127Y00021653D01*
X00011417Y00021653D01*
X00011417Y00017846D01*
X00011412Y00017784D01*
X00011398Y00017724D01*
X00011374Y00017667D01*
X00011342Y00017614D01*
X00011302Y00017567D01*
X00011255Y00017527D01*
X00011202Y00017495D01*
X00011145Y00017471D01*
X00011085Y00017457D01*
X00011023Y00017452D01*
X00010962Y00017457D01*
X00010901Y00017471D01*
X00010844Y00017495D01*
X00010792Y00017527D01*
X00010745Y00017567D01*
X00010705Y00017614D01*
X00010672Y00017667D01*
X00010649Y00017724D01*
X00010634Y00017784D01*
X00011023Y00017846D01*
X00010629Y00017846D01*
X00010629Y00022047D01*
X00010084Y00022047D01*
M02*