%MOIN*%
%OFA0B0*%
%FSLAX46Y46*%
%IPPOS*%
%LPD*%
%ADD10C,0.0039370078740157488*%
%ADD11C,0.006889763779527559*%
%ADD12C,0.005905511811023622*%
%ADD23C,0.0039370078740157488*%
%ADD24C,0.005905511811023622*%
%ADD25C,0.0039370078740157488*%
%ADD26C,0.005905511811023622*%
%ADD27C,0.0047244094488188976*%
%ADD28C,0.0039370078740157488*%
%ADD29C,0.005905511811023622*%
%ADD30C,0.0047244094488188976*%
%ADD31C,0.0039370078740157488*%
%ADD32C,0.006889763779527559*%
%ADD33C,0.005905511811023622*%
%ADD34C,0.0039370078740157488*%
%ADD35C,0.005905511811023622*%
%ADD36C,0.0039370078740157488*%
%ADD37C,0.005905511811023622*%
G01G01*
D10*
D11*
X0001389435Y0000217191D02*
X0001361876Y0000217191D01*
X0001381561Y0000226377D01*
X0001361876Y0000235564D01*
X0001389435Y0000235564D01*
X0001389435Y0000248687D02*
X0001361876Y0000248687D01*
X0001381561Y0000257874D01*
X0001361876Y0000267060D01*
X0001389435Y0000267060D01*
X0001388123Y0000299868D02*
X0001389435Y0000303805D01*
X0001389435Y0000310367D01*
X0001388123Y0000312992D01*
X0001386811Y0000314304D01*
X0001384186Y0000315616D01*
X0001381561Y0000315616D01*
X0001378937Y0000314304D01*
X0001377624Y0000312992D01*
X0001376312Y0000310367D01*
X0001375000Y0000305118D01*
X0001373687Y0000302493D01*
X0001372375Y0000301181D01*
X0001369750Y0000299868D01*
X0001367125Y0000299868D01*
X0001364501Y0000301181D01*
X0001363188Y0000302493D01*
X0001361876Y0000305118D01*
X0001361876Y0000311679D01*
X0001363188Y0000315616D01*
X0001389435Y0000339238D02*
X0001375000Y0000339238D01*
X0001372375Y0000337926D01*
X0001371062Y0000335301D01*
X0001371062Y0000330052D01*
X0001372375Y0000327427D01*
X0001388123Y0000339238D02*
X0001389435Y0000336614D01*
X0001389435Y0000330052D01*
X0001388123Y0000327427D01*
X0001385498Y0000326115D01*
X0001382874Y0000326115D01*
X0001380249Y0000327427D01*
X0001378937Y0000330052D01*
X0001378937Y0000336614D01*
X0001377624Y0000339238D01*
X0001389435Y0000352362D02*
X0001361876Y0000352362D01*
X0001372375Y0000352362D02*
X0001371062Y0000354986D01*
X0001371062Y0000360236D01*
X0001372375Y0000362860D01*
X0001373687Y0000364173D01*
X0001376312Y0000365485D01*
X0001384186Y0000365485D01*
X0001386811Y0000364173D01*
X0001388123Y0000362860D01*
X0001389435Y0000360236D01*
X0001389435Y0000354986D01*
X0001388123Y0000352362D01*
X0001389435Y0000377296D02*
X0001371062Y0000377296D01*
X0001376312Y0000377296D02*
X0001373687Y0000378608D01*
X0001372375Y0000379921D01*
X0001371062Y0000382545D01*
X0001371062Y0000385170D01*
X0001388123Y0000404855D02*
X0001389435Y0000402230D01*
X0001389435Y0000396981D01*
X0001388123Y0000394356D01*
X0001385498Y0000393044D01*
X0001375000Y0000393044D01*
X0001372375Y0000394356D01*
X0001371062Y0000396981D01*
X0001371062Y0000402230D01*
X0001372375Y0000404855D01*
X0001375000Y0000406167D01*
X0001377624Y0000406167D01*
X0001380249Y0000393044D01*
X0001423228Y0000209973D02*
X0001424540Y0000213910D01*
X0001425853Y0000215223D01*
X0001428477Y0000216535D01*
X0001432414Y0000216535D01*
X0001435039Y0000215223D01*
X0001436351Y0000213910D01*
X0001437664Y0000211286D01*
X0001437664Y0000200787D01*
X0001410105Y0000200787D01*
X0001410105Y0000209973D01*
X0001411417Y0000212598D01*
X0001412729Y0000213910D01*
X0001415354Y0000215223D01*
X0001417979Y0000215223D01*
X0001420603Y0000213910D01*
X0001421916Y0000212598D01*
X0001423228Y0000209973D01*
X0001423228Y0000200787D01*
X0001437664Y0000240157D02*
X0001423228Y0000240157D01*
X0001420603Y0000238845D01*
X0001419291Y0000236220D01*
X0001419291Y0000230971D01*
X0001420603Y0000228346D01*
X0001436351Y0000240157D02*
X0001437664Y0000237532D01*
X0001437664Y0000230971D01*
X0001436351Y0000228346D01*
X0001433727Y0000227034D01*
X0001431102Y0000227034D01*
X0001428477Y0000228346D01*
X0001427165Y0000230971D01*
X0001427165Y0000237532D01*
X0001425853Y0000240157D01*
X0001436351Y0000251968D02*
X0001437664Y0000254593D01*
X0001437664Y0000259842D01*
X0001436351Y0000262467D01*
X0001433727Y0000263779D01*
X0001432414Y0000263779D01*
X0001429790Y0000262467D01*
X0001428477Y0000259842D01*
X0001428477Y0000255905D01*
X0001427165Y0000253280D01*
X0001424540Y0000251968D01*
X0001423228Y0000251968D01*
X0001420603Y0000253280D01*
X0001419291Y0000255905D01*
X0001419291Y0000259842D01*
X0001420603Y0000262467D01*
X0001436351Y0000274278D02*
X0001437664Y0000276902D01*
X0001437664Y0000282152D01*
X0001436351Y0000284776D01*
X0001433727Y0000286089D01*
X0001432414Y0000286089D01*
X0001429790Y0000284776D01*
X0001428477Y0000282152D01*
X0001428477Y0000278215D01*
X0001427165Y0000275590D01*
X0001424540Y0000274278D01*
X0001423228Y0000274278D01*
X0001420603Y0000275590D01*
X0001419291Y0000278215D01*
X0001419291Y0000282152D01*
X0001420603Y0000284776D01*
X0001408792Y0000317585D02*
X0001444225Y0000293963D01*
X0001437664Y0000326771D02*
X0001410105Y0000326771D01*
X0001429790Y0000335957D01*
X0001410105Y0000345144D01*
X0001437664Y0000345144D01*
X0001437664Y0000358267D02*
X0001419291Y0000358267D01*
X0001410105Y0000358267D02*
X0001411417Y0000356955D01*
X0001412729Y0000358267D01*
X0001411417Y0000359580D01*
X0001410105Y0000358267D01*
X0001412729Y0000358267D01*
X0001437664Y0000368766D02*
X0001419291Y0000383202D01*
X0001419291Y0000368766D02*
X0001437664Y0000383202D01*
X0001436351Y0000404199D02*
X0001437664Y0000401574D01*
X0001437664Y0000396325D01*
X0001436351Y0000393700D01*
X0001433727Y0000392388D01*
X0001423228Y0000392388D01*
X0001420603Y0000393700D01*
X0001419291Y0000396325D01*
X0001419291Y0000401574D01*
X0001420603Y0000404199D01*
X0001423228Y0000405511D01*
X0001425853Y0000405511D01*
X0001428477Y0000392388D01*
X0001437664Y0000417322D02*
X0001419291Y0000417322D01*
X0001424540Y0000417322D02*
X0001421916Y0000418635D01*
X0001420603Y0000419947D01*
X0001419291Y0000422572D01*
X0001419291Y0000425196D01*
X0001483267Y0000213254D02*
X0001484580Y0000211942D01*
X0001485892Y0000208005D01*
X0001485892Y0000205380D01*
X0001484580Y0000201443D01*
X0001481955Y0000198818D01*
X0001479330Y0000197506D01*
X0001474081Y0000196194D01*
X0001470144Y0000196194D01*
X0001464895Y0000197506D01*
X0001462270Y0000198818D01*
X0001459645Y0000201443D01*
X0001458333Y0000205380D01*
X0001458333Y0000208005D01*
X0001459645Y0000211942D01*
X0001460957Y0000213254D01*
X0001471456Y0000234251D02*
X0001472769Y0000238189D01*
X0001474081Y0000239501D01*
X0001476706Y0000240813D01*
X0001480643Y0000240813D01*
X0001483267Y0000239501D01*
X0001484580Y0000238189D01*
X0001485892Y0000235564D01*
X0001485892Y0000225065D01*
X0001458333Y0000225065D01*
X0001458333Y0000234251D01*
X0001459645Y0000236876D01*
X0001460957Y0000238189D01*
X0001463582Y0000239501D01*
X0001466207Y0000239501D01*
X0001468832Y0000238189D01*
X0001470144Y0000236876D01*
X0001471456Y0000234251D01*
X0001471456Y0000225065D01*
X0001485892Y0000252624D02*
X0001458333Y0000252624D01*
X0001458333Y0000259186D01*
X0001459645Y0000263123D01*
X0001462270Y0000265748D01*
X0001464895Y0000267060D01*
X0001470144Y0000268372D01*
X0001474081Y0000268372D01*
X0001479330Y0000267060D01*
X0001481955Y0000265748D01*
X0001484580Y0000263123D01*
X0001485892Y0000259186D01*
X0001485892Y0000252624D01*
X0001485892Y0000301181D02*
X0001458333Y0000301181D01*
X0001458333Y0000307742D01*
X0001459645Y0000311679D01*
X0001462270Y0000314304D01*
X0001464895Y0000315616D01*
X0001470144Y0000316929D01*
X0001474081Y0000316929D01*
X0001479330Y0000315616D01*
X0001481955Y0000314304D01*
X0001484580Y0000311679D01*
X0001485892Y0000307742D01*
X0001485892Y0000301181D01*
X0001484580Y0000339238D02*
X0001485892Y0000336614D01*
X0001485892Y0000331364D01*
X0001484580Y0000328740D01*
X0001481955Y0000327427D01*
X0001471456Y0000327427D01*
X0001468832Y0000328740D01*
X0001467519Y0000331364D01*
X0001467519Y0000336614D01*
X0001468832Y0000339238D01*
X0001471456Y0000340551D01*
X0001474081Y0000340551D01*
X0001476706Y0000327427D01*
X0001484580Y0000351049D02*
X0001485892Y0000353674D01*
X0001485892Y0000358923D01*
X0001484580Y0000361548D01*
X0001481955Y0000362860D01*
X0001480643Y0000362860D01*
X0001478018Y0000361548D01*
X0001476706Y0000358923D01*
X0001476706Y0000354986D01*
X0001475393Y0000352362D01*
X0001472769Y0000351049D01*
X0001471456Y0000351049D01*
X0001468832Y0000352362D01*
X0001467519Y0000354986D01*
X0001467519Y0000358923D01*
X0001468832Y0000361548D01*
X0001485892Y0000374671D02*
X0001467519Y0000374671D01*
X0001458333Y0000374671D02*
X0001459645Y0000373359D01*
X0001460957Y0000374671D01*
X0001459645Y0000375984D01*
X0001458333Y0000374671D01*
X0001460957Y0000374671D01*
X0001467519Y0000399606D02*
X0001489829Y0000399606D01*
X0001492454Y0000398293D01*
X0001493766Y0000396981D01*
X0001495078Y0000394356D01*
X0001495078Y0000390419D01*
X0001493766Y0000387795D01*
X0001484580Y0000399606D02*
X0001485892Y0000396981D01*
X0001485892Y0000391732D01*
X0001484580Y0000389107D01*
X0001483267Y0000387795D01*
X0001480643Y0000386482D01*
X0001472769Y0000386482D01*
X0001470144Y0000387795D01*
X0001468832Y0000389107D01*
X0001467519Y0000391732D01*
X0001467519Y0000396981D01*
X0001468832Y0000399606D01*
X0001467519Y0000412729D02*
X0001485892Y0000412729D01*
X0001470144Y0000412729D02*
X0001468832Y0000414042D01*
X0001467519Y0000416666D01*
X0001467519Y0000420603D01*
X0001468832Y0000423228D01*
X0001471456Y0000424540D01*
X0001485892Y0000424540D01*
D12*
X0001569741Y0000666479D02*
X0001569741Y0000679977D01*
X0001593363Y0000673228D02*
X0001569741Y0000673228D01*
X0001593363Y0000701349D02*
X0001582114Y0000693475D01*
X0001593363Y0000687851D02*
X0001569741Y0000687851D01*
X0001569741Y0000696850D01*
X0001570866Y0000699100D01*
X0001571990Y0000700225D01*
X0001574240Y0000701349D01*
X0001577615Y0000701349D01*
X0001579865Y0000700225D01*
X0001580989Y0000699100D01*
X0001582114Y0000696850D01*
X0001582114Y0000687851D01*
X0001580989Y0000719347D02*
X0001582114Y0000722722D01*
X0001583239Y0000723847D01*
X0001585489Y0000724971D01*
X0001588863Y0000724971D01*
X0001591113Y0000723847D01*
X0001592238Y0000722722D01*
X0001593363Y0000720472D01*
X0001593363Y0000711473D01*
X0001569741Y0000711473D01*
X0001569741Y0000719347D01*
X0001570866Y0000721597D01*
X0001571990Y0000722722D01*
X0001574240Y0000723847D01*
X0001576490Y0000723847D01*
X0001578740Y0000722722D01*
X0001579865Y0000721597D01*
X0001580989Y0000719347D01*
X0001580989Y0000711473D01*
X0001786276Y0000670978D02*
X0001809898Y0000678852D01*
X0001786276Y0000686726D01*
X0001786276Y0000699100D02*
X0001786276Y0000703599D01*
X0001787401Y0000705849D01*
X0001789651Y0000708099D01*
X0001794150Y0000709223D01*
X0001802024Y0000709223D01*
X0001806524Y0000708099D01*
X0001808773Y0000705849D01*
X0001809898Y0000703599D01*
X0001809898Y0000699100D01*
X0001808773Y0000696850D01*
X0001806524Y0000694600D01*
X0001802024Y0000693475D01*
X0001794150Y0000693475D01*
X0001789651Y0000694600D01*
X0001787401Y0000696850D01*
X0001786276Y0000699100D01*
X0001809898Y0000730596D02*
X0001809898Y0000719347D01*
X0001786276Y0000719347D01*
X0001760967Y0000317772D02*
X0001760967Y0000294150D01*
X0001753093Y0000311023D01*
X0001745219Y0000294150D01*
X0001745219Y0000317772D01*
X0001733970Y0000317772D02*
X0001733970Y0000294150D01*
X0001726096Y0000311023D01*
X0001718222Y0000294150D01*
X0001718222Y0000317772D01*
X0001708098Y0000316647D02*
X0001704724Y0000317772D01*
X0001699100Y0000317772D01*
X0001696850Y0000316647D01*
X0001695725Y0000315523D01*
X0001694600Y0000313273D01*
X0001694600Y0000311023D01*
X0001695725Y0000308773D01*
X0001696850Y0000307649D01*
X0001699100Y0000306524D01*
X0001703599Y0000305399D01*
X0001705849Y0000304274D01*
X0001706974Y0000303149D01*
X0001708098Y0000300899D01*
X0001708098Y0000298650D01*
X0001706974Y0000296400D01*
X0001705849Y0000295275D01*
X0001703599Y0000294150D01*
X0001697975Y0000294150D01*
X0001694600Y0000295275D01*
X0001759280Y0000513498D02*
X0001755905Y0000514623D01*
X0001750281Y0000514623D01*
X0001748031Y0000513498D01*
X0001746906Y0000512373D01*
X0001745781Y0000510123D01*
X0001745781Y0000507874D01*
X0001746906Y0000505624D01*
X0001748031Y0000504499D01*
X0001750281Y0000503374D01*
X0001754780Y0000502249D01*
X0001757030Y0000501124D01*
X0001758155Y0000499999D01*
X0001759280Y0000497750D01*
X0001759280Y0000495500D01*
X0001758155Y0000493250D01*
X0001757030Y0000492125D01*
X0001754780Y0000491001D01*
X0001749156Y0000491001D01*
X0001745781Y0000492125D01*
X0001735658Y0000502249D02*
X0001727784Y0000502249D01*
X0001724409Y0000514623D02*
X0001735658Y0000514623D01*
X0001735658Y0000491001D01*
X0001724409Y0000491001D01*
X0001703037Y0000514623D02*
X0001714285Y0000514623D01*
X0001714285Y0000491001D01*
X0001795837Y0001034308D02*
X0001795837Y0001051181D01*
X0001796962Y0001054555D01*
X0001799212Y0001056805D01*
X0001802587Y0001057930D01*
X0001804836Y0001057930D01*
X0001771091Y0001055680D02*
X0001772215Y0001056805D01*
X0001775590Y0001057930D01*
X0001777840Y0001057930D01*
X0001781214Y0001056805D01*
X0001783464Y0001054555D01*
X0001784589Y0001052305D01*
X0001785714Y0001047806D01*
X0001785714Y0001044431D01*
X0001784589Y0001039932D01*
X0001783464Y0001037682D01*
X0001781214Y0001035433D01*
X0001777840Y0001034308D01*
X0001775590Y0001034308D01*
X0001772215Y0001035433D01*
X0001771091Y0001036557D01*
X0001894825Y0001034308D02*
X0001894825Y0001051181D01*
X0001895950Y0001054555D01*
X0001898200Y0001056805D01*
X0001901574Y0001057930D01*
X0001903824Y0001057930D01*
X0001883577Y0001057930D02*
X0001883577Y0001034308D01*
X0001883577Y0001045556D02*
X0001870078Y0001045556D01*
X0001870078Y0001057930D02*
X0001870078Y0001034308D01*
X0001247469Y0001045556D02*
X0001239595Y0001045556D01*
X0001236220Y0001057930D02*
X0001247469Y0001057930D01*
X0001247469Y0001034308D01*
X0001236220Y0001034308D01*
X0001227221Y0001051181D02*
X0001215972Y0001051181D01*
X0001229471Y0001057930D02*
X0001221597Y0001034308D01*
X0001213723Y0001057930D01*
X0001344769Y0001045556D02*
X0001341394Y0001046681D01*
X0001340269Y0001047806D01*
X0001339145Y0001050056D01*
X0001339145Y0001053430D01*
X0001340269Y0001055680D01*
X0001341394Y0001056805D01*
X0001343644Y0001057930D01*
X0001352643Y0001057930D01*
X0001352643Y0001034308D01*
X0001344769Y0001034308D01*
X0001342519Y0001035433D01*
X0001341394Y0001036557D01*
X0001340269Y0001038807D01*
X0001340269Y0001041057D01*
X0001341394Y0001043307D01*
X0001342519Y0001044431D01*
X0001344769Y0001045556D01*
X0001352643Y0001045556D01*
X0001315523Y0001055680D02*
X0001316647Y0001056805D01*
X0001320022Y0001057930D01*
X0001322272Y0001057930D01*
X0001325646Y0001056805D01*
X0001327896Y0001054555D01*
X0001329021Y0001052305D01*
X0001330146Y0001047806D01*
X0001330146Y0001044431D01*
X0001329021Y0001039932D01*
X0001327896Y0001037682D01*
X0001325646Y0001035433D01*
X0001322272Y0001034308D01*
X0001320022Y0001034308D01*
X0001316647Y0001035433D01*
X0001315523Y0001036557D01*
X0001443757Y0001045556D02*
X0001440382Y0001046681D01*
X0001439257Y0001047806D01*
X0001438132Y0001050056D01*
X0001438132Y0001053430D01*
X0001439257Y0001055680D01*
X0001440382Y0001056805D01*
X0001442632Y0001057930D01*
X0001451631Y0001057930D01*
X0001451631Y0001034308D01*
X0001443757Y0001034308D01*
X0001441507Y0001035433D01*
X0001440382Y0001036557D01*
X0001439257Y0001038807D01*
X0001439257Y0001041057D01*
X0001440382Y0001043307D01*
X0001441507Y0001044431D01*
X0001443757Y0001045556D01*
X0001451631Y0001045556D01*
X0001428008Y0001057930D02*
X0001428008Y0001034308D01*
X0001428008Y0001045556D02*
X0001414510Y0001045556D01*
X0001414510Y0001057930D02*
X0001414510Y0001034308D01*
X0001577615Y0001057930D02*
X0001577615Y0001034308D01*
X0001564116Y0001057930D01*
X0001564116Y0001034308D01*
X0001539370Y0001055680D02*
X0001540494Y0001056805D01*
X0001543869Y0001057930D01*
X0001546119Y0001057930D01*
X0001549493Y0001056805D01*
X0001551743Y0001054555D01*
X0001552868Y0001052305D01*
X0001553993Y0001047806D01*
X0001553993Y0001044431D01*
X0001552868Y0001039932D01*
X0001551743Y0001037682D01*
X0001549493Y0001035433D01*
X0001546119Y0001034308D01*
X0001543869Y0001034308D01*
X0001540494Y0001035433D01*
X0001539370Y0001036557D01*
X0001680539Y0001057930D02*
X0001680539Y0001034308D01*
X0001667041Y0001057930D01*
X0001667041Y0001034308D01*
X0001655793Y0001057930D02*
X0001655793Y0001034308D01*
X0001655793Y0001045556D02*
X0001642294Y0001045556D01*
X0001642294Y0001057930D02*
X0001642294Y0001034308D01*
G04 next file*
G04 #@! TF.FileFunction,Legend,Top*
G04 Gerber Fmt 4.6, Leading zero omitted, Abs format (unit mm)*
G04 Created by KiCad (PCBNEW 4.0.7) date 06/05/18 11:05:24*
G01G01*
G04 APERTURE LIST*
G04 APERTURE END LIST*
D23*
D24*
X0000159167Y0000156917D02*
X0000158042Y0000153543D01*
X0000156917Y0000152418D01*
X0000154668Y0000151293D01*
X0000151293Y0000151293D01*
X0000149043Y0000152418D01*
X0000147918Y0000153543D01*
X0000146794Y0000155793D01*
X0000146794Y0000164791D01*
X0000170416Y0000164791D01*
X0000170416Y0000156917D01*
X0000169291Y0000154668D01*
X0000168166Y0000153543D01*
X0000165916Y0000152418D01*
X0000163667Y0000152418D01*
X0000161417Y0000153543D01*
X0000160292Y0000154668D01*
X0000159167Y0000156917D01*
X0000159167Y0000164791D01*
X0000153543Y0000142294D02*
X0000153543Y0000131046D01*
X0000146794Y0000144544D02*
X0000170416Y0000136670D01*
X0000146794Y0000128796D01*
X0000147918Y0000122047D02*
X0000146794Y0000118672D01*
X0000146794Y0000113048D01*
X0000147918Y0000110798D01*
X0000149043Y0000109673D01*
X0000151293Y0000108548D01*
X0000153543Y0000108548D01*
X0000155793Y0000109673D01*
X0000156917Y0000110798D01*
X0000158042Y0000113048D01*
X0000159167Y0000117547D01*
X0000160292Y0000119797D01*
X0000161417Y0000120922D01*
X0000163667Y0000122047D01*
X0000165916Y0000122047D01*
X0000168166Y0000120922D01*
X0000169291Y0000119797D01*
X0000170416Y0000117547D01*
X0000170416Y0000111923D01*
X0000169291Y0000108548D01*
X0000147918Y0000099550D02*
X0000146794Y0000096175D01*
X0000146794Y0000090551D01*
X0000147918Y0000088301D01*
X0000149043Y0000087176D01*
X0000151293Y0000086051D01*
X0000153543Y0000086051D01*
X0000155793Y0000087176D01*
X0000156917Y0000088301D01*
X0000158042Y0000090551D01*
X0000159167Y0000095050D01*
X0000160292Y0000097300D01*
X0000161417Y0000098425D01*
X0000163667Y0000099550D01*
X0000165916Y0000099550D01*
X0000168166Y0000098425D01*
X0000169291Y0000097300D01*
X0000170416Y0000095050D01*
X0000170416Y0000089426D01*
X0000169291Y0000086051D01*
X0000166479Y0000533745D02*
X0000166479Y0000520247D01*
X0000142857Y0000526996D02*
X0000166479Y0000526996D01*
X0000142857Y0000498875D02*
X0000154105Y0000506749D01*
X0000142857Y0000512373D02*
X0000166479Y0000512373D01*
X0000166479Y0000503374D01*
X0000165354Y0000501124D01*
X0000164229Y0000499999D01*
X0000161979Y0000498875D01*
X0000158605Y0000498875D01*
X0000156355Y0000499999D01*
X0000155230Y0000501124D01*
X0000154105Y0000503374D01*
X0000154105Y0000512373D01*
X0000155230Y0000488751D02*
X0000155230Y0000480877D01*
X0000142857Y0000477502D02*
X0000142857Y0000488751D01*
X0000166479Y0000488751D01*
X0000166479Y0000477502D01*
X0000155230Y0000459505D02*
X0000154105Y0000456130D01*
X0000152980Y0000455005D01*
X0000150731Y0000453880D01*
X0000147356Y0000453880D01*
X0000145106Y0000455005D01*
X0000143982Y0000456130D01*
X0000142857Y0000458380D01*
X0000142857Y0000467379D01*
X0000166479Y0000467379D01*
X0000166479Y0000459505D01*
X0000165354Y0000457255D01*
X0000164229Y0000456130D01*
X0000161979Y0000455005D01*
X0000159730Y0000455005D01*
X0000157480Y0000456130D01*
X0000156355Y0000457255D01*
X0000155230Y0000459505D01*
X0000155230Y0000467379D01*
X0000142857Y0000432508D02*
X0000142857Y0000443757D01*
X0000166479Y0000443757D01*
X0000155230Y0000424634D02*
X0000155230Y0000416760D01*
X0000142857Y0000413385D02*
X0000142857Y0000424634D01*
X0000166479Y0000424634D01*
X0000166479Y0000413385D01*
X0001012092Y0000498875D02*
X0001013217Y0000502249D01*
X0001014341Y0000503374D01*
X0001016591Y0000504499D01*
X0001019966Y0000504499D01*
X0001022215Y0000503374D01*
X0001023340Y0000502249D01*
X0001024465Y0000500000D01*
X0001024465Y0000491001D01*
X0001000843Y0000491001D01*
X0001000843Y0000498875D01*
X0001001968Y0000501124D01*
X0001003093Y0000502249D01*
X0001005343Y0000503374D01*
X0001007592Y0000503374D01*
X0001009842Y0000502249D01*
X0001010967Y0000501124D01*
X0001012092Y0000498875D01*
X0001012092Y0000491001D01*
X0001015466Y0000514623D02*
X0001015466Y0000532620D01*
X0001024465Y0000523622D02*
X0001006467Y0000523622D01*
X0001012092Y0000400449D02*
X0001013217Y0000403824D01*
X0001014341Y0000404949D01*
X0001016591Y0000406074D01*
X0001019966Y0000406074D01*
X0001022215Y0000404949D01*
X0001023340Y0000403824D01*
X0001024465Y0000401574D01*
X0001024465Y0000392575D01*
X0001000843Y0000392575D01*
X0001000843Y0000400449D01*
X0001001968Y0000402699D01*
X0001003093Y0000403824D01*
X0001005343Y0000404949D01*
X0001007592Y0000404949D01*
X0001009842Y0000403824D01*
X0001010967Y0000402699D01*
X0001012092Y0000400449D01*
X0001012092Y0000392575D01*
X0001015466Y0000416197D02*
X0001015466Y0000434195D01*
X0001000843Y0000171541D02*
X0001017716Y0000171541D01*
X0001021091Y0000170416D01*
X0001023340Y0000168166D01*
X0001024465Y0000164791D01*
X0001024465Y0000162542D01*
X0001000843Y0000179415D02*
X0001000843Y0000192913D01*
X0001024465Y0000186164D02*
X0001000843Y0000186164D01*
X0001000843Y0000267154D02*
X0001017716Y0000267154D01*
X0001021091Y0000266029D01*
X0001023340Y0000263779D01*
X0001024465Y0000260404D01*
X0001024465Y0000258155D01*
X0001024465Y0000291901D02*
X0001013217Y0000284027D01*
X0001024465Y0000278402D02*
X0001000843Y0000278402D01*
X0001000843Y0000287401D01*
X0001001968Y0000289651D01*
X0001003093Y0000290776D01*
X0001005343Y0000291901D01*
X0001008717Y0000291901D01*
X0001010967Y0000290776D01*
X0001012092Y0000289651D01*
X0001013217Y0000287401D01*
X0001013217Y0000278402D01*
X0001000843Y0000066929D02*
X0001017716Y0000066929D01*
X0001021091Y0000065804D01*
X0001023340Y0000063554D01*
X0001024465Y0000060179D01*
X0001024465Y0000057930D01*
X0001023340Y0000077052D02*
X0001024465Y0000080427D01*
X0001024465Y0000086051D01*
X0001023340Y0000088301D01*
X0001022215Y0000089426D01*
X0001019966Y0000090551D01*
X0001017716Y0000090551D01*
X0001015466Y0000089426D01*
X0001014341Y0000088301D01*
X0001013217Y0000086051D01*
X0001012092Y0000081552D01*
X0001010967Y0000079302D01*
X0001009842Y0000078177D01*
X0001007592Y0000077052D01*
X0001005343Y0000077052D01*
X0001003093Y0000078177D01*
X0001001968Y0000079302D01*
X0001000843Y0000081552D01*
X0001000843Y0000087176D01*
X0001001968Y0000090551D01*
X0000825084Y0000904668D02*
X0000825084Y0000928290D01*
X0000832958Y0000911417D01*
X0000840832Y0000928290D01*
X0000840832Y0000904668D01*
X0000852080Y0000904668D02*
X0000852080Y0000928290D01*
X0000859954Y0000911417D01*
X0000867828Y0000928290D01*
X0000867828Y0000904668D01*
X0000895950Y0000905793D02*
X0000899325Y0000904668D01*
X0000904949Y0000904668D01*
X0000907199Y0000905793D01*
X0000908323Y0000906917D01*
X0000909448Y0000909167D01*
X0000909448Y0000911417D01*
X0000908323Y0000913667D01*
X0000907199Y0000914791D01*
X0000904949Y0000915916D01*
X0000900449Y0000917041D01*
X0000898200Y0000918166D01*
X0000897075Y0000919291D01*
X0000895950Y0000921541D01*
X0000895950Y0000923790D01*
X0000897075Y0000926040D01*
X0000898200Y0000927165D01*
X0000900449Y0000928290D01*
X0000906074Y0000928290D01*
X0000909448Y0000927165D01*
X0000929696Y0000904668D02*
X0000929696Y0000917041D01*
X0000928571Y0000919291D01*
X0000926321Y0000920416D01*
X0000921822Y0000920416D01*
X0000919572Y0000919291D01*
X0000929696Y0000905793D02*
X0000927446Y0000904668D01*
X0000921822Y0000904668D01*
X0000919572Y0000905793D01*
X0000918447Y0000908042D01*
X0000918447Y0000910292D01*
X0000919572Y0000912542D01*
X0000921822Y0000913667D01*
X0000927446Y0000913667D01*
X0000929696Y0000914791D01*
X0000940944Y0000904668D02*
X0000940944Y0000928290D01*
X0000940944Y0000919291D02*
X0000943194Y0000920416D01*
X0000947694Y0000920416D01*
X0000949943Y0000919291D01*
X0000951068Y0000918166D01*
X0000952193Y0000915916D01*
X0000952193Y0000909167D01*
X0000951068Y0000906917D01*
X0000949943Y0000905793D01*
X0000947694Y0000904668D01*
X0000943194Y0000904668D01*
X0000940944Y0000905793D01*
X0000962317Y0000904668D02*
X0000962317Y0000920416D01*
X0000962317Y0000915916D02*
X0000963442Y0000918166D01*
X0000964566Y0000919291D01*
X0000966816Y0000920416D01*
X0000969066Y0000920416D01*
X0000985939Y0000905793D02*
X0000983689Y0000904668D01*
X0000979190Y0000904668D01*
X0000976940Y0000905793D01*
X0000975815Y0000908042D01*
X0000975815Y0000917041D01*
X0000976940Y0000919291D01*
X0000979190Y0000920416D01*
X0000983689Y0000920416D01*
X0000985939Y0000919291D01*
X0000987064Y0000917041D01*
X0000987064Y0000914791D01*
X0000975815Y0000912542D01*
X0000800899Y0000886951D02*
X0000808773Y0000863329D01*
X0000816647Y0000886951D01*
X0000827896Y0000863329D02*
X0000825646Y0000864454D01*
X0000824521Y0000865579D01*
X0000823397Y0000867828D01*
X0000823397Y0000874578D01*
X0000824521Y0000876827D01*
X0000825646Y0000877952D01*
X0000827896Y0000879077D01*
X0000831271Y0000879077D01*
X0000833520Y0000877952D01*
X0000834645Y0000876827D01*
X0000835770Y0000874578D01*
X0000835770Y0000867828D01*
X0000834645Y0000865579D01*
X0000833520Y0000864454D01*
X0000831271Y0000863329D01*
X0000827896Y0000863329D01*
X0000849268Y0000863329D02*
X0000847019Y0000864454D01*
X0000845894Y0000866704D01*
X0000845894Y0000886951D01*
X0000868391Y0000879077D02*
X0000868391Y0000863329D01*
X0000858267Y0000879077D02*
X0000858267Y0000866704D01*
X0000859392Y0000864454D01*
X0000861642Y0000863329D01*
X0000865016Y0000863329D01*
X0000867266Y0000864454D01*
X0000868391Y0000865579D01*
X0000879640Y0000863329D02*
X0000879640Y0000879077D01*
X0000879640Y0000876827D02*
X0000880764Y0000877952D01*
X0000883014Y0000879077D01*
X0000886389Y0000879077D01*
X0000888638Y0000877952D01*
X0000889763Y0000875703D01*
X0000889763Y0000863329D01*
X0000889763Y0000875703D02*
X0000890888Y0000877952D01*
X0000893138Y0000879077D01*
X0000896512Y0000879077D01*
X0000898762Y0000877952D01*
X0000899887Y0000875703D01*
X0000899887Y0000863329D01*
X0000920135Y0000864454D02*
X0000917885Y0000863329D01*
X0000913385Y0000863329D01*
X0000911136Y0000864454D01*
X0000910011Y0000866704D01*
X0000910011Y0000875703D01*
X0000911136Y0000877952D01*
X0000913385Y0000879077D01*
X0000917885Y0000879077D01*
X0000920135Y0000877952D01*
X0000921259Y0000875703D01*
X0000921259Y0000873453D01*
X0000910011Y0000871203D01*
X0000948256Y0000870078D02*
X0000959505Y0000870078D01*
X0000946006Y0000863329D02*
X0000953880Y0000886951D01*
X0000961754Y0000863329D01*
X0000986501Y0000888076D02*
X0000966254Y0000857705D01*
X0000994375Y0000863329D02*
X0000994375Y0000886951D01*
X0001003374Y0000886951D01*
X0001005624Y0000885826D01*
X0001006749Y0000884701D01*
X0001007873Y0000882452D01*
X0001007873Y0000879077D01*
X0001006749Y0000876827D01*
X0001005624Y0000875703D01*
X0001003374Y0000874578D01*
X0000994375Y0000874578D01*
X0000821709Y0000824240D02*
X0000820584Y0000823115D01*
X0000817210Y0000821990D01*
X0000814960Y0000821990D01*
X0000811586Y0000823115D01*
X0000809336Y0000825365D01*
X0000808211Y0000827615D01*
X0000807086Y0000832114D01*
X0000807086Y0000835489D01*
X0000808211Y0000839988D01*
X0000809336Y0000842238D01*
X0000811586Y0000844488D01*
X0000814960Y0000845613D01*
X0000817210Y0000845613D01*
X0000820584Y0000844488D01*
X0000821709Y0000843363D01*
X0000839707Y0000834364D02*
X0000843082Y0000833239D01*
X0000844207Y0000832114D01*
X0000845331Y0000829864D01*
X0000845331Y0000826490D01*
X0000844207Y0000824240D01*
X0000843082Y0000823115D01*
X0000840832Y0000821990D01*
X0000831833Y0000821990D01*
X0000831833Y0000845613D01*
X0000839707Y0000845613D01*
X0000841957Y0000844488D01*
X0000843082Y0000843363D01*
X0000844207Y0000841113D01*
X0000844207Y0000838863D01*
X0000843082Y0000836614D01*
X0000841957Y0000835489D01*
X0000839707Y0000834364D01*
X0000831833Y0000834364D01*
X0000855455Y0000821990D02*
X0000855455Y0000845613D01*
X0000861079Y0000845613D01*
X0000864454Y0000844488D01*
X0000866704Y0000842238D01*
X0000867829Y0000839988D01*
X0000868953Y0000835489D01*
X0000868953Y0000832114D01*
X0000867829Y0000827615D01*
X0000866704Y0000825365D01*
X0000864454Y0000823115D01*
X0000861079Y0000821990D01*
X0000855455Y0000821990D01*
X0000897075Y0000821990D02*
X0000897075Y0000845613D01*
X0000902699Y0000845613D01*
X0000906074Y0000844488D01*
X0000908323Y0000842238D01*
X0000909448Y0000839988D01*
X0000910573Y0000835489D01*
X0000910573Y0000832114D01*
X0000909448Y0000827615D01*
X0000908323Y0000825365D01*
X0000906074Y0000823115D01*
X0000902699Y0000821990D01*
X0000897075Y0000821990D01*
X0000929696Y0000823115D02*
X0000927446Y0000821990D01*
X0000922947Y0000821990D01*
X0000920697Y0000823115D01*
X0000919572Y0000825365D01*
X0000919572Y0000834364D01*
X0000920697Y0000836614D01*
X0000922947Y0000837739D01*
X0000927446Y0000837739D01*
X0000929696Y0000836614D01*
X0000930821Y0000834364D01*
X0000930821Y0000832114D01*
X0000919572Y0000829864D01*
X0000939820Y0000823115D02*
X0000942069Y0000821990D01*
X0000946569Y0000821990D01*
X0000948818Y0000823115D01*
X0000949943Y0000825365D01*
X0000949943Y0000826490D01*
X0000948818Y0000828740D01*
X0000946569Y0000829864D01*
X0000943194Y0000829864D01*
X0000940944Y0000830989D01*
X0000939820Y0000833239D01*
X0000939820Y0000834364D01*
X0000940944Y0000836614D01*
X0000943194Y0000837739D01*
X0000946569Y0000837739D01*
X0000948818Y0000836614D01*
X0000960067Y0000821990D02*
X0000960067Y0000837739D01*
X0000960067Y0000845613D02*
X0000958942Y0000844488D01*
X0000960067Y0000843363D01*
X0000961192Y0000844488D01*
X0000960067Y0000845613D01*
X0000960067Y0000843363D01*
X0000981439Y0000837739D02*
X0000981439Y0000818616D01*
X0000980315Y0000816366D01*
X0000979190Y0000815241D01*
X0000976940Y0000814116D01*
X0000973565Y0000814116D01*
X0000971316Y0000815241D01*
X0000981439Y0000823115D02*
X0000979190Y0000821990D01*
X0000974690Y0000821990D01*
X0000972440Y0000823115D01*
X0000971316Y0000824240D01*
X0000970191Y0000826490D01*
X0000970191Y0000833239D01*
X0000971316Y0000835489D01*
X0000972440Y0000836614D01*
X0000974690Y0000837739D01*
X0000979190Y0000837739D01*
X0000981439Y0000836614D01*
X0000992688Y0000837739D02*
X0000992688Y0000821990D01*
X0000992688Y0000835489D02*
X0000993813Y0000836614D01*
X0000996062Y0000837739D01*
X0000999437Y0000837739D01*
X0001001687Y0000836614D01*
X0001002812Y0000834364D01*
X0001002812Y0000821990D01*
G04 next file*
G04 #@! TF.FileFunction,Legend,Top*
G04 Gerber Fmt 4.6, Leading zero omitted, Abs format (unit mm)*
G04 Created by KiCad (PCBNEW 4.0.4-1.fc24-product) date Mon Jun  4 16:00:14 2018*
G01G01*
G04 APERTURE LIST*
G04 APERTURE END LIST*
D25*
D26*
X0000801462Y0001388920D02*
X0000801462Y0001412542D01*
X0000809336Y0001395669D01*
X0000817210Y0001412542D01*
X0000817210Y0001388920D01*
X0000828458Y0001388920D02*
X0000828458Y0001412542D01*
X0000836332Y0001395669D01*
X0000844206Y0001412542D01*
X0000844206Y0001388920D01*
X0000872328Y0001390045D02*
X0000875702Y0001388920D01*
X0000881327Y0001388920D01*
X0000883577Y0001390045D01*
X0000884701Y0001391169D01*
X0000885826Y0001393419D01*
X0000885826Y0001395669D01*
X0000884701Y0001397919D01*
X0000883577Y0001399043D01*
X0000881327Y0001400168D01*
X0000876827Y0001401293D01*
X0000874578Y0001402418D01*
X0000873453Y0001403543D01*
X0000872328Y0001405793D01*
X0000872328Y0001408042D01*
X0000873453Y0001410292D01*
X0000874578Y0001411417D01*
X0000876827Y0001412542D01*
X0000882452Y0001412542D01*
X0000885826Y0001411417D01*
X0000906074Y0001388920D02*
X0000906074Y0001401293D01*
X0000904949Y0001403543D01*
X0000902699Y0001404668D01*
X0000898200Y0001404668D01*
X0000895950Y0001403543D01*
X0000906074Y0001390045D02*
X0000903824Y0001388920D01*
X0000898200Y0001388920D01*
X0000895950Y0001390045D01*
X0000894825Y0001392294D01*
X0000894825Y0001394544D01*
X0000895950Y0001396794D01*
X0000898200Y0001397919D01*
X0000903824Y0001397919D01*
X0000906074Y0001399043D01*
X0000917322Y0001388920D02*
X0000917322Y0001412542D01*
X0000917322Y0001403543D02*
X0000919572Y0001404668D01*
X0000924072Y0001404668D01*
X0000926321Y0001403543D01*
X0000927446Y0001402418D01*
X0000928571Y0001400168D01*
X0000928571Y0001393419D01*
X0000927446Y0001391169D01*
X0000926321Y0001390045D01*
X0000924072Y0001388920D01*
X0000919572Y0001388920D01*
X0000917322Y0001390045D01*
X0000938695Y0001388920D02*
X0000938695Y0001404668D01*
X0000938695Y0001400168D02*
X0000939820Y0001402418D01*
X0000940944Y0001403543D01*
X0000943194Y0001404668D01*
X0000945444Y0001404668D01*
X0000962317Y0001390045D02*
X0000960067Y0001388920D01*
X0000955568Y0001388920D01*
X0000953318Y0001390045D01*
X0000952193Y0001392294D01*
X0000952193Y0001401293D01*
X0000953318Y0001403543D01*
X0000955568Y0001404668D01*
X0000960067Y0001404668D01*
X0000962317Y0001403543D01*
X0000963442Y0001401293D01*
X0000963442Y0001399043D01*
X0000952193Y0001396794D01*
X0000804836Y0001359955D02*
X0000808211Y0001358830D01*
X0000809336Y0001357705D01*
X0000810461Y0001355455D01*
X0000810461Y0001352080D01*
X0000809336Y0001349831D01*
X0000808211Y0001348706D01*
X0000805961Y0001347581D01*
X0000796962Y0001347581D01*
X0000796962Y0001371203D01*
X0000804836Y0001371203D01*
X0000807086Y0001370078D01*
X0000808211Y0001368953D01*
X0000809336Y0001366704D01*
X0000809336Y0001364454D01*
X0000808211Y0001362204D01*
X0000807086Y0001361079D01*
X0000804836Y0001359955D01*
X0000796962Y0001359955D01*
X0000837457Y0001372328D02*
X0000817210Y0001341957D01*
X0000841957Y0001371203D02*
X0000855455Y0001371203D01*
X0000848706Y0001347581D02*
X0000848706Y0001371203D01*
X0000880202Y0001348706D02*
X0000883577Y0001347581D01*
X0000889201Y0001347581D01*
X0000891451Y0001348706D01*
X0000892575Y0001349831D01*
X0000893700Y0001352080D01*
X0000893700Y0001354330D01*
X0000892575Y0001356580D01*
X0000891451Y0001357705D01*
X0000889201Y0001358830D01*
X0000884701Y0001359955D01*
X0000882452Y0001361079D01*
X0000881327Y0001362204D01*
X0000880202Y0001364454D01*
X0000880202Y0001366704D01*
X0000881327Y0001368953D01*
X0000882452Y0001370078D01*
X0000884701Y0001371203D01*
X0000890326Y0001371203D01*
X0000893700Y0001370078D01*
X0000900449Y0001363329D02*
X0000909448Y0001363329D01*
X0000903824Y0001371203D02*
X0000903824Y0001350956D01*
X0000904949Y0001348706D01*
X0000907199Y0001347581D01*
X0000909448Y0001347581D01*
X0000927446Y0001347581D02*
X0000927446Y0001359955D01*
X0000926321Y0001362204D01*
X0000924072Y0001363329D01*
X0000919572Y0001363329D01*
X0000917322Y0001362204D01*
X0000927446Y0001348706D02*
X0000925196Y0001347581D01*
X0000919572Y0001347581D01*
X0000917322Y0001348706D01*
X0000916197Y0001350956D01*
X0000916197Y0001353205D01*
X0000917322Y0001355455D01*
X0000919572Y0001356580D01*
X0000925196Y0001356580D01*
X0000927446Y0001357705D01*
X0000948818Y0001348706D02*
X0000946569Y0001347581D01*
X0000942069Y0001347581D01*
X0000939820Y0001348706D01*
X0000938695Y0001349831D01*
X0000937570Y0001352080D01*
X0000937570Y0001358830D01*
X0000938695Y0001361079D01*
X0000939820Y0001362204D01*
X0000942069Y0001363329D01*
X0000946569Y0001363329D01*
X0000948818Y0001362204D01*
X0000958942Y0001347581D02*
X0000958942Y0001371203D01*
X0000961192Y0001356580D02*
X0000967941Y0001347581D01*
X0000967941Y0001363329D02*
X0000958942Y0001354330D01*
X0000798087Y0001308492D02*
X0000796962Y0001307367D01*
X0000793588Y0001306242D01*
X0000791338Y0001306242D01*
X0000787964Y0001307367D01*
X0000785714Y0001309617D01*
X0000784589Y0001311867D01*
X0000783464Y0001316366D01*
X0000783464Y0001319741D01*
X0000784589Y0001324240D01*
X0000785714Y0001326490D01*
X0000787964Y0001328740D01*
X0000791338Y0001329865D01*
X0000793588Y0001329865D01*
X0000796962Y0001328740D01*
X0000798087Y0001327615D01*
X0000816085Y0001318616D02*
X0000819460Y0001317491D01*
X0000820584Y0001316366D01*
X0000821709Y0001314116D01*
X0000821709Y0001310742D01*
X0000820584Y0001308492D01*
X0000819460Y0001307367D01*
X0000817210Y0001306242D01*
X0000808211Y0001306242D01*
X0000808211Y0001329865D01*
X0000816085Y0001329865D01*
X0000818335Y0001328740D01*
X0000819460Y0001327615D01*
X0000820584Y0001325365D01*
X0000820584Y0001323115D01*
X0000819460Y0001320866D01*
X0000818335Y0001319741D01*
X0000816085Y0001318616D01*
X0000808211Y0001318616D01*
X0000831833Y0001306242D02*
X0000831833Y0001329865D01*
X0000837457Y0001329865D01*
X0000840832Y0001328740D01*
X0000843082Y0001326490D01*
X0000844207Y0001324240D01*
X0000845331Y0001319741D01*
X0000845331Y0001316366D01*
X0000844207Y0001311867D01*
X0000843082Y0001309617D01*
X0000840832Y0001307367D01*
X0000837457Y0001306242D01*
X0000831833Y0001306242D01*
X0000873453Y0001306242D02*
X0000873453Y0001329865D01*
X0000879077Y0001329865D01*
X0000882452Y0001328740D01*
X0000884701Y0001326490D01*
X0000885826Y0001324240D01*
X0000886951Y0001319741D01*
X0000886951Y0001316366D01*
X0000885826Y0001311867D01*
X0000884701Y0001309617D01*
X0000882452Y0001307367D01*
X0000879077Y0001306242D01*
X0000873453Y0001306242D01*
X0000906074Y0001307367D02*
X0000903824Y0001306242D01*
X0000899325Y0001306242D01*
X0000897075Y0001307367D01*
X0000895950Y0001309617D01*
X0000895950Y0001318616D01*
X0000897075Y0001320866D01*
X0000899325Y0001321990D01*
X0000903824Y0001321990D01*
X0000906074Y0001320866D01*
X0000907199Y0001318616D01*
X0000907199Y0001316366D01*
X0000895950Y0001314116D01*
X0000916198Y0001307367D02*
X0000918447Y0001306242D01*
X0000922947Y0001306242D01*
X0000925196Y0001307367D01*
X0000926321Y0001309617D01*
X0000926321Y0001310742D01*
X0000925196Y0001312992D01*
X0000922947Y0001314116D01*
X0000919572Y0001314116D01*
X0000917322Y0001315241D01*
X0000916198Y0001317491D01*
X0000916198Y0001318616D01*
X0000917322Y0001320866D01*
X0000919572Y0001321990D01*
X0000922947Y0001321990D01*
X0000925196Y0001320866D01*
X0000936445Y0001306242D02*
X0000936445Y0001321990D01*
X0000936445Y0001329865D02*
X0000935320Y0001328740D01*
X0000936445Y0001327615D01*
X0000937570Y0001328740D01*
X0000936445Y0001329865D01*
X0000936445Y0001327615D01*
X0000957817Y0001321990D02*
X0000957817Y0001302868D01*
X0000956692Y0001300618D01*
X0000955568Y0001299493D01*
X0000953318Y0001298368D01*
X0000949943Y0001298368D01*
X0000947694Y0001299493D01*
X0000957817Y0001307367D02*
X0000955568Y0001306242D01*
X0000951068Y0001306242D01*
X0000948818Y0001307367D01*
X0000947694Y0001308492D01*
X0000946569Y0001310742D01*
X0000946569Y0001317491D01*
X0000947694Y0001319741D01*
X0000948818Y0001320866D01*
X0000951068Y0001321990D01*
X0000955568Y0001321990D01*
X0000957817Y0001320866D01*
X0000969066Y0001321990D02*
X0000969066Y0001306242D01*
X0000969066Y0001319741D02*
X0000970191Y0001320866D01*
X0000972440Y0001321990D01*
X0000975815Y0001321990D01*
X0000978065Y0001320866D01*
X0000979190Y0001318616D01*
X0000979190Y0001306242D01*
X0000340551Y0001751968D02*
X0000340551Y0001712598D01*
X0000407480Y0001712598D02*
X0000407480Y0001751968D01*
X0000249015Y0001535433D02*
X0000249015Y0001574803D01*
X0000302165Y0001574803D02*
X0000302165Y0001535433D01*
X0000663385Y0002047244D02*
X0000663385Y0002086614D01*
X0000596456Y0002086614D02*
X0000596456Y0002047244D01*
X0000759291Y0001851968D02*
X0000759291Y0001651968D01*
X0000759291Y0001651968D02*
X0000579291Y0001651968D01*
X0000579291Y0001651968D02*
X0000579291Y0001851968D01*
X0000579291Y0001851968D02*
X0000759291Y0001851968D01*
X0000699291Y0001851968D02*
X0000699291Y0001831968D01*
X0000699291Y0001831968D02*
X0000649291Y0001831968D01*
X0000649291Y0001831968D02*
X0000649291Y0001851968D01*
D27*
X0000403149Y0001402755D02*
X0000403149Y0001366141D01*
X0000403149Y0001278346D02*
X0000403149Y0001314960D01*
X0000403149Y0001278346D02*
X0000488188Y0001278346D01*
X0000403149Y0001402755D02*
X0000460629Y0001402755D01*
D26*
X0000255905Y0001395669D02*
X0000295275Y0001395669D01*
X0000295275Y0001462598D02*
X0000255905Y0001462598D01*
X0000610236Y0001395669D02*
X0000649606Y0001395669D01*
X0000649606Y0001462598D02*
X0000610236Y0001462598D01*
X0000627952Y0001606299D02*
X0000655511Y0001606299D01*
X0000655511Y0001559055D02*
X0000627952Y0001559055D01*
X0000209645Y0001291338D02*
X0000209645Y0001330708D01*
X0000262795Y0001330708D02*
X0000262795Y0001291338D01*
X0000288385Y0001291338D02*
X0000288385Y0001330708D01*
X0000341535Y0001330708D02*
X0000341535Y0001291338D01*
X0000563976Y0001291338D02*
X0000563976Y0001330708D01*
X0000617125Y0001330708D02*
X0000617125Y0001291338D01*
X0000642716Y0001291338D02*
X0000642716Y0001330708D01*
X0000695866Y0001330708D02*
X0000695866Y0001291338D01*
X0000497047Y0001535433D02*
X0000497047Y0001574803D01*
X0000550196Y0001574803D02*
X0000550196Y0001535433D01*
X0000392716Y0001574803D02*
X0000392716Y0001535433D01*
X0000339566Y0001535433D02*
X0000339566Y0001574803D01*
X0000471456Y0001574803D02*
X0000471456Y0001535433D01*
X0000418307Y0001535433D02*
X0000418307Y0001574803D01*
X0000170275Y0001535433D02*
X0000170275Y0001574803D01*
X0000223425Y0001574803D02*
X0000223425Y0001535433D01*
X0000712598Y0001936023D02*
X0000751968Y0001936023D01*
X0000751968Y0001882874D02*
X0000712598Y0001882874D01*
X0000787401Y0001560039D02*
X0000748031Y0001560039D01*
X0000748031Y0001613188D02*
X0000787401Y0001613188D01*
D27*
X0000247244Y0001771653D02*
X0000247244Y0001692913D01*
X0000327559Y0001692913D02*
X0000327559Y0001771653D01*
X0000574803Y0001885826D02*
X0000547244Y0001885826D01*
X0000547244Y0001933070D02*
X0000574803Y0001933070D01*
X0000714566Y0002054330D02*
X0000753937Y0002054330D01*
X0000753937Y0002000787D02*
X0000714566Y0002000787D01*
D26*
X0000429133Y0001718503D02*
X0000429133Y0001746062D01*
X0000476377Y0001746062D02*
X0000476377Y0001718503D01*
X0000369422Y0001805118D02*
X0000368110Y0001803805D01*
X0000364173Y0001802493D01*
X0000361548Y0001802493D01*
X0000357611Y0001803805D01*
X0000354986Y0001806430D01*
X0000353674Y0001809055D01*
X0000352362Y0001814304D01*
X0000352362Y0001818241D01*
X0000353674Y0001823490D01*
X0000354986Y0001826115D01*
X0000357611Y0001828740D01*
X0000361548Y0001830052D01*
X0000364173Y0001830052D01*
X0000368110Y0001828740D01*
X0000369422Y0001827427D01*
X0000394356Y0001830052D02*
X0000381233Y0001830052D01*
X0000379921Y0001816929D01*
X0000381233Y0001818241D01*
X0000383858Y0001819553D01*
X0000390419Y0001819553D01*
X0000393044Y0001818241D01*
X0000394356Y0001816929D01*
X0000395669Y0001814304D01*
X0000395669Y0001807742D01*
X0000394356Y0001805118D01*
X0000393044Y0001803805D01*
X0000390419Y0001802493D01*
X0000383858Y0001802493D01*
X0000381233Y0001803805D01*
X0000379921Y0001805118D01*
X0000257874Y0001605643D02*
X0000248687Y0001618766D01*
X0000242125Y0001605643D02*
X0000242125Y0001633202D01*
X0000252624Y0001633202D01*
X0000255249Y0001631889D01*
X0000256561Y0001630577D01*
X0000257874Y0001627952D01*
X0000257874Y0001624015D01*
X0000256561Y0001621391D01*
X0000255249Y0001620078D01*
X0000252624Y0001618766D01*
X0000242125Y0001618766D01*
X0000284120Y0001605643D02*
X0000268372Y0001605643D01*
X0000276246Y0001605643D02*
X0000276246Y0001633202D01*
X0000273622Y0001629265D01*
X0000270997Y0001626640D01*
X0000268372Y0001625328D01*
X0000310367Y0001605643D02*
X0000294619Y0001605643D01*
X0000302493Y0001605643D02*
X0000302493Y0001633202D01*
X0000299868Y0001629265D01*
X0000297244Y0001626640D01*
X0000294619Y0001625328D01*
X0000612204Y0002143700D02*
X0000610892Y0002142388D01*
X0000606955Y0002141076D01*
X0000604330Y0002141076D01*
X0000600393Y0002142388D01*
X0000597769Y0002145013D01*
X0000596456Y0002147637D01*
X0000595144Y0002152887D01*
X0000595144Y0002156824D01*
X0000596456Y0002162073D01*
X0000597769Y0002164698D01*
X0000600393Y0002167322D01*
X0000604330Y0002168635D01*
X0000606955Y0002168635D01*
X0000610892Y0002167322D01*
X0000612204Y0002166010D01*
X0000638451Y0002141076D02*
X0000622703Y0002141076D01*
X0000630577Y0002141076D02*
X0000630577Y0002168635D01*
X0000627952Y0002164698D01*
X0000625328Y0002162073D01*
X0000622703Y0002160761D01*
X0000647637Y0002168635D02*
X0000664698Y0002168635D01*
X0000655511Y0002158136D01*
X0000659448Y0002158136D01*
X0000662073Y0002156824D01*
X0000663385Y0002155511D01*
X0000664698Y0002152887D01*
X0000664698Y0002146325D01*
X0000663385Y0002143700D01*
X0000662073Y0002142388D01*
X0000659448Y0002141076D01*
X0000651574Y0002141076D01*
X0000648950Y0002142388D01*
X0000647637Y0002143700D01*
X0000648156Y0001767060D02*
X0000648156Y0001744750D01*
X0000649468Y0001742125D01*
X0000650780Y0001740813D01*
X0000653405Y0001739501D01*
X0000658654Y0001739501D01*
X0000661279Y0001740813D01*
X0000662591Y0001742125D01*
X0000663904Y0001744750D01*
X0000663904Y0001767060D01*
X0000691463Y0001739501D02*
X0000675715Y0001739501D01*
X0000683589Y0001739501D02*
X0000683589Y0001767060D01*
X0000680964Y0001763123D01*
X0000678339Y0001760498D01*
X0000675715Y0001759186D01*
X0000448162Y0001339895D02*
X0000446850Y0001337270D01*
X0000444225Y0001334645D01*
X0000440288Y0001330708D01*
X0000438976Y0001328083D01*
X0000438976Y0001325459D01*
X0000445538Y0001326771D02*
X0000444225Y0001324146D01*
X0000441601Y0001321522D01*
X0000436351Y0001320209D01*
X0000427165Y0001320209D01*
X0000421916Y0001321522D01*
X0000419291Y0001324146D01*
X0000417979Y0001326771D01*
X0000417979Y0001332020D01*
X0000419291Y0001334645D01*
X0000421916Y0001337270D01*
X0000427165Y0001338582D01*
X0000436351Y0001338582D01*
X0000441601Y0001337270D01*
X0000444225Y0001334645D01*
X0000445538Y0001332020D01*
X0000445538Y0001326771D01*
X0000445538Y0001364829D02*
X0000445538Y0001349081D01*
X0000445538Y0001356955D02*
X0000417979Y0001356955D01*
X0000421916Y0001354330D01*
X0000424540Y0001351705D01*
X0000425852Y0001349081D01*
X0000270997Y0001474409D02*
X0000269685Y0001473097D01*
X0000265748Y0001471784D01*
X0000263123Y0001471784D01*
X0000259186Y0001473097D01*
X0000256561Y0001475721D01*
X0000255249Y0001478346D01*
X0000253936Y0001483595D01*
X0000253936Y0001487532D01*
X0000255249Y0001492782D01*
X0000256561Y0001495406D01*
X0000259186Y0001498031D01*
X0000263123Y0001499343D01*
X0000265748Y0001499343D01*
X0000269685Y0001498031D01*
X0000270997Y0001496719D01*
X0000297244Y0001471784D02*
X0000281496Y0001471784D01*
X0000289370Y0001471784D02*
X0000289370Y0001499343D01*
X0000286745Y0001495406D01*
X0000284120Y0001492782D01*
X0000281496Y0001491469D01*
X0000585957Y0001474409D02*
X0000584645Y0001473097D01*
X0000580708Y0001471784D01*
X0000578084Y0001471784D01*
X0000574147Y0001473097D01*
X0000571522Y0001475721D01*
X0000570210Y0001478346D01*
X0000568897Y0001483595D01*
X0000568897Y0001487532D01*
X0000570210Y0001492782D01*
X0000571522Y0001495406D01*
X0000574147Y0001498031D01*
X0000578084Y0001499343D01*
X0000580708Y0001499343D01*
X0000584645Y0001498031D01*
X0000585957Y0001496719D01*
X0000596456Y0001496719D02*
X0000597769Y0001498031D01*
X0000600393Y0001499343D01*
X0000606955Y0001499343D01*
X0000609580Y0001498031D01*
X0000610892Y0001496719D01*
X0000612204Y0001494094D01*
X0000612204Y0001491469D01*
X0000610892Y0001487532D01*
X0000595144Y0001471784D01*
X0000612204Y0001471784D01*
X0000635170Y0001527559D02*
X0000633858Y0001526246D01*
X0000629921Y0001524934D01*
X0000627296Y0001524934D01*
X0000623359Y0001526246D01*
X0000620734Y0001528871D01*
X0000619422Y0001531496D01*
X0000618110Y0001536745D01*
X0000618110Y0001540682D01*
X0000619422Y0001545931D01*
X0000620734Y0001548556D01*
X0000623359Y0001551181D01*
X0000627296Y0001552493D01*
X0000629921Y0001552493D01*
X0000633858Y0001551181D01*
X0000635170Y0001549868D01*
X0000650918Y0001540682D02*
X0000648293Y0001541994D01*
X0000646981Y0001543307D01*
X0000645669Y0001545931D01*
X0000645669Y0001547244D01*
X0000646981Y0001549868D01*
X0000648293Y0001551181D01*
X0000650918Y0001552493D01*
X0000656167Y0001552493D01*
X0000658792Y0001551181D01*
X0000660105Y0001549868D01*
X0000661417Y0001547244D01*
X0000661417Y0001545931D01*
X0000660105Y0001543307D01*
X0000658792Y0001541994D01*
X0000656167Y0001540682D01*
X0000650918Y0001540682D01*
X0000648293Y0001539370D01*
X0000646981Y0001538057D01*
X0000645669Y0001535433D01*
X0000645669Y0001530183D01*
X0000646981Y0001527559D01*
X0000648293Y0001526246D01*
X0000650918Y0001524934D01*
X0000656167Y0001524934D01*
X0000658792Y0001526246D01*
X0000660105Y0001527559D01*
X0000661417Y0001530183D01*
X0000661417Y0001535433D01*
X0000660105Y0001538057D01*
X0000658792Y0001539370D01*
X0000656167Y0001540682D01*
X0000227690Y0001361548D02*
X0000218503Y0001374671D01*
X0000211942Y0001361548D02*
X0000211942Y0001389107D01*
X0000222440Y0001389107D01*
X0000225065Y0001387795D01*
X0000226377Y0001386482D01*
X0000227690Y0001383858D01*
X0000227690Y0001379921D01*
X0000226377Y0001377296D01*
X0000225065Y0001375984D01*
X0000222440Y0001374671D01*
X0000211942Y0001374671D01*
X0000253936Y0001361548D02*
X0000238188Y0001361548D01*
X0000246062Y0001361548D02*
X0000246062Y0001389107D01*
X0000243438Y0001385170D01*
X0000240813Y0001382545D01*
X0000238188Y0001381233D01*
X0000310367Y0001361548D02*
X0000301181Y0001374671D01*
X0000294619Y0001361548D02*
X0000294619Y0001389107D01*
X0000305118Y0001389107D01*
X0000307742Y0001387795D01*
X0000309055Y0001386482D01*
X0000310367Y0001383858D01*
X0000310367Y0001379921D01*
X0000309055Y0001377296D01*
X0000307742Y0001375984D01*
X0000305118Y0001374671D01*
X0000294619Y0001374671D01*
X0000320866Y0001386482D02*
X0000322178Y0001387795D01*
X0000324803Y0001389107D01*
X0000331364Y0001389107D01*
X0000333989Y0001387795D01*
X0000335301Y0001386482D01*
X0000336614Y0001383858D01*
X0000336614Y0001381233D01*
X0000335301Y0001377296D01*
X0000319553Y0001361548D01*
X0000336614Y0001361548D01*
X0000585957Y0001361548D02*
X0000576771Y0001374671D01*
X0000570210Y0001361548D02*
X0000570210Y0001389107D01*
X0000580708Y0001389107D01*
X0000583333Y0001387795D01*
X0000584645Y0001386482D01*
X0000585957Y0001383858D01*
X0000585957Y0001379921D01*
X0000584645Y0001377296D01*
X0000583333Y0001375984D01*
X0000580708Y0001374671D01*
X0000570210Y0001374671D01*
X0000595144Y0001389107D02*
X0000612204Y0001389107D01*
X0000603018Y0001378608D01*
X0000606955Y0001378608D01*
X0000609580Y0001377296D01*
X0000610892Y0001375984D01*
X0000612204Y0001373359D01*
X0000612204Y0001366797D01*
X0000610892Y0001364173D01*
X0000609580Y0001362860D01*
X0000606955Y0001361548D01*
X0000599081Y0001361548D01*
X0000596456Y0001362860D01*
X0000595144Y0001364173D01*
X0000664698Y0001361548D02*
X0000655511Y0001374671D01*
X0000648950Y0001361548D02*
X0000648950Y0001389107D01*
X0000659448Y0001389107D01*
X0000662073Y0001387795D01*
X0000663385Y0001386482D01*
X0000664698Y0001383858D01*
X0000664698Y0001379921D01*
X0000663385Y0001377296D01*
X0000662073Y0001375984D01*
X0000659448Y0001374671D01*
X0000648950Y0001374671D01*
X0000688320Y0001379921D02*
X0000688320Y0001361548D01*
X0000681758Y0001390419D02*
X0000675196Y0001370734D01*
X0000692257Y0001370734D01*
X0000519028Y0001605643D02*
X0000509842Y0001618766D01*
X0000503280Y0001605643D02*
X0000503280Y0001633202D01*
X0000513779Y0001633202D01*
X0000516404Y0001631889D01*
X0000517716Y0001630577D01*
X0000519028Y0001627952D01*
X0000519028Y0001624015D01*
X0000517716Y0001621391D01*
X0000516404Y0001620078D01*
X0000513779Y0001618766D01*
X0000503280Y0001618766D01*
X0000543963Y0001633202D02*
X0000530839Y0001633202D01*
X0000529527Y0001620078D01*
X0000530839Y0001621391D01*
X0000533464Y0001622703D01*
X0000540026Y0001622703D01*
X0000542650Y0001621391D01*
X0000543963Y0001620078D01*
X0000545275Y0001617454D01*
X0000545275Y0001610892D01*
X0000543963Y0001608267D01*
X0000542650Y0001606955D01*
X0000540026Y0001605643D01*
X0000533464Y0001605643D01*
X0000530839Y0001606955D01*
X0000529527Y0001608267D01*
X0000361548Y0001605643D02*
X0000352362Y0001618766D01*
X0000345800Y0001605643D02*
X0000345800Y0001633202D01*
X0000356299Y0001633202D01*
X0000358923Y0001631889D01*
X0000360236Y0001630577D01*
X0000361548Y0001627952D01*
X0000361548Y0001624015D01*
X0000360236Y0001621391D01*
X0000358923Y0001620078D01*
X0000356299Y0001618766D01*
X0000345800Y0001618766D01*
X0000385170Y0001633202D02*
X0000379921Y0001633202D01*
X0000377296Y0001631889D01*
X0000375984Y0001630577D01*
X0000373359Y0001626640D01*
X0000372047Y0001621391D01*
X0000372047Y0001610892D01*
X0000373359Y0001608267D01*
X0000374671Y0001606955D01*
X0000377296Y0001605643D01*
X0000382545Y0001605643D01*
X0000385170Y0001606955D01*
X0000386482Y0001608267D01*
X0000387795Y0001610892D01*
X0000387795Y0001617454D01*
X0000386482Y0001620078D01*
X0000385170Y0001621391D01*
X0000382545Y0001622703D01*
X0000377296Y0001622703D01*
X0000374671Y0001621391D01*
X0000373359Y0001620078D01*
X0000372047Y0001617454D01*
X0000440288Y0001605643D02*
X0000431102Y0001618766D01*
X0000424540Y0001605643D02*
X0000424540Y0001633202D01*
X0000435039Y0001633202D01*
X0000437664Y0001631889D01*
X0000438976Y0001630577D01*
X0000440288Y0001627952D01*
X0000440288Y0001624015D01*
X0000438976Y0001621391D01*
X0000437664Y0001620078D01*
X0000435039Y0001618766D01*
X0000424540Y0001618766D01*
X0000449475Y0001633202D02*
X0000467847Y0001633202D01*
X0000456036Y0001605643D01*
X0000192257Y0001605643D02*
X0000183070Y0001618766D01*
X0000176509Y0001605643D02*
X0000176509Y0001633202D01*
X0000187007Y0001633202D01*
X0000189632Y0001631889D01*
X0000190944Y0001630577D01*
X0000192257Y0001627952D01*
X0000192257Y0001624015D01*
X0000190944Y0001621391D01*
X0000189632Y0001620078D01*
X0000187007Y0001618766D01*
X0000176509Y0001618766D01*
X0000208005Y0001621391D02*
X0000205380Y0001622703D01*
X0000204068Y0001624015D01*
X0000202755Y0001626640D01*
X0000202755Y0001627952D01*
X0000204068Y0001630577D01*
X0000205380Y0001631889D01*
X0000208005Y0001633202D01*
X0000213254Y0001633202D01*
X0000215879Y0001631889D01*
X0000217191Y0001630577D01*
X0000218503Y0001627952D01*
X0000218503Y0001626640D01*
X0000217191Y0001624015D01*
X0000215879Y0001622703D01*
X0000213254Y0001621391D01*
X0000208005Y0001621391D01*
X0000205380Y0001620078D01*
X0000204068Y0001618766D01*
X0000202755Y0001616141D01*
X0000202755Y0001610892D01*
X0000204068Y0001608267D01*
X0000205380Y0001606955D01*
X0000208005Y0001605643D01*
X0000213254Y0001605643D01*
X0000215879Y0001606955D01*
X0000217191Y0001608267D01*
X0000218503Y0001610892D01*
X0000218503Y0001616141D01*
X0000217191Y0001618766D01*
X0000215879Y0001620078D01*
X0000213254Y0001621391D01*
X0000714566Y0001948162D02*
X0000705380Y0001961286D01*
X0000698818Y0001948162D02*
X0000698818Y0001975721D01*
X0000709317Y0001975721D01*
X0000711942Y0001974409D01*
X0000713254Y0001973097D01*
X0000714566Y0001970472D01*
X0000714566Y0001966535D01*
X0000713254Y0001963910D01*
X0000711942Y0001962598D01*
X0000709317Y0001961286D01*
X0000698818Y0001961286D01*
X0000740813Y0001948162D02*
X0000725065Y0001948162D01*
X0000732939Y0001948162D02*
X0000732939Y0001975721D01*
X0000730314Y0001971784D01*
X0000727690Y0001969160D01*
X0000725065Y0001967847D01*
X0000751312Y0001973097D02*
X0000752624Y0001974409D01*
X0000755249Y0001975721D01*
X0000761810Y0001975721D01*
X0000764435Y0001974409D01*
X0000765747Y0001973097D01*
X0000767060Y0001970472D01*
X0000767060Y0001967847D01*
X0000765747Y0001963910D01*
X0000750000Y0001948162D01*
X0000767060Y0001948162D01*
X0000750000Y0001524934D02*
X0000740813Y0001538057D01*
X0000734251Y0001524934D02*
X0000734251Y0001552493D01*
X0000744750Y0001552493D01*
X0000747375Y0001551181D01*
X0000748687Y0001549868D01*
X0000750000Y0001547244D01*
X0000750000Y0001543307D01*
X0000748687Y0001540682D01*
X0000747375Y0001539370D01*
X0000744750Y0001538057D01*
X0000734251Y0001538057D01*
X0000776246Y0001524934D02*
X0000760498Y0001524934D01*
X0000768372Y0001524934D02*
X0000768372Y0001552493D01*
X0000765747Y0001548556D01*
X0000763123Y0001545931D01*
X0000760498Y0001544619D01*
X0000785433Y0001552493D02*
X0000802493Y0001552493D01*
X0000793307Y0001541994D01*
X0000797244Y0001541994D01*
X0000799868Y0001540682D01*
X0000801181Y0001539370D01*
X0000802493Y0001536745D01*
X0000802493Y0001530183D01*
X0000801181Y0001527559D01*
X0000799868Y0001526246D01*
X0000797244Y0001524934D01*
X0000789370Y0001524934D01*
X0000786745Y0001526246D01*
X0000785433Y0001527559D01*
X0000269685Y0001828740D02*
X0000268372Y0001827427D01*
X0000264435Y0001826115D01*
X0000261811Y0001826115D01*
X0000257874Y0001827427D01*
X0000255249Y0001830052D01*
X0000253936Y0001832677D01*
X0000252624Y0001837926D01*
X0000252624Y0001841863D01*
X0000253936Y0001847112D01*
X0000255249Y0001849737D01*
X0000257874Y0001852362D01*
X0000261811Y0001853674D01*
X0000264435Y0001853674D01*
X0000268372Y0001852362D01*
X0000269685Y0001851049D01*
X0000295931Y0001826115D02*
X0000280183Y0001826115D01*
X0000288057Y0001826115D02*
X0000288057Y0001853674D01*
X0000285433Y0001849737D01*
X0000282808Y0001847112D01*
X0000280183Y0001845800D01*
X0000322178Y0001826115D02*
X0000306430Y0001826115D01*
X0000314304Y0001826115D02*
X0000314304Y0001853674D01*
X0000311679Y0001849737D01*
X0000309055Y0001847112D01*
X0000306430Y0001845800D01*
X0000556430Y0001940944D02*
X0000555118Y0001939632D01*
X0000551181Y0001938320D01*
X0000548556Y0001938320D01*
X0000544619Y0001939632D01*
X0000541994Y0001942257D01*
X0000540682Y0001944881D01*
X0000539370Y0001950131D01*
X0000539370Y0001954068D01*
X0000540682Y0001959317D01*
X0000541994Y0001961942D01*
X0000544619Y0001964566D01*
X0000548556Y0001965879D01*
X0000551181Y0001965879D01*
X0000555118Y0001964566D01*
X0000556430Y0001963254D01*
X0000565616Y0001965879D02*
X0000583989Y0001965879D01*
X0000572178Y0001938320D01*
X0000712598Y0002062335D02*
X0000703412Y0002075459D01*
X0000696850Y0002062335D02*
X0000696850Y0002089894D01*
X0000707349Y0002089894D01*
X0000709973Y0002088582D01*
X0000711286Y0002087270D01*
X0000712598Y0002084645D01*
X0000712598Y0002080708D01*
X0000711286Y0002078083D01*
X0000709973Y0002076771D01*
X0000707349Y0002075459D01*
X0000696850Y0002075459D01*
X0000738845Y0002062335D02*
X0000723097Y0002062335D01*
X0000730971Y0002062335D02*
X0000730971Y0002089894D01*
X0000728346Y0002085957D01*
X0000725721Y0002083333D01*
X0000723097Y0002082020D01*
X0000762467Y0002089894D02*
X0000757217Y0002089894D01*
X0000754593Y0002088582D01*
X0000753280Y0002087270D01*
X0000750656Y0002083333D01*
X0000749343Y0002078083D01*
X0000749343Y0002067585D01*
X0000750656Y0002064960D01*
X0000751968Y0002063648D01*
X0000754593Y0002062335D01*
X0000759842Y0002062335D01*
X0000762467Y0002063648D01*
X0000763779Y0002064960D01*
X0000765091Y0002067585D01*
X0000765091Y0002074146D01*
X0000763779Y0002076771D01*
X0000762467Y0002078083D01*
X0000759842Y0002079396D01*
X0000754593Y0002079396D01*
X0000751968Y0002078083D01*
X0000750656Y0002076771D01*
X0000749343Y0002074146D01*
X0000448162Y0001789370D02*
X0000446850Y0001788057D01*
X0000442913Y0001786745D01*
X0000440288Y0001786745D01*
X0000436351Y0001788057D01*
X0000433727Y0001790682D01*
X0000432414Y0001793307D01*
X0000431102Y0001798556D01*
X0000431102Y0001802493D01*
X0000432414Y0001807742D01*
X0000433727Y0001810367D01*
X0000436351Y0001812992D01*
X0000440288Y0001814304D01*
X0000442913Y0001814304D01*
X0000446850Y0001812992D01*
X0000448162Y0001811679D01*
X0000471784Y0001805118D02*
X0000471784Y0001786745D01*
X0000465223Y0001815616D02*
X0000458661Y0001795931D01*
X0000475721Y0001795931D01*
G04 next file*
G04 #@! TF.FileFunction,Legend,Top*
G04 Gerber Fmt 4.6, Leading zero omitted, Abs format (unit mm)*
G04 Created by KiCad (PCBNEW 4.0.4-1.fc24-product) date Tue Jun  5 17:09:06 2018*
G01G01*
G04 APERTURE LIST*
G04 APERTURE END LIST*
D28*
D29*
X0001675478Y0001300337D02*
X0001675478Y0001323959D01*
X0001683352Y0001307086D01*
X0001691226Y0001323959D01*
X0001691226Y0001300337D01*
X0001702474Y0001300337D02*
X0001702474Y0001323959D01*
X0001710348Y0001307086D01*
X0001718222Y0001323959D01*
X0001718222Y0001300337D01*
X0001746344Y0001301462D02*
X0001749718Y0001300337D01*
X0001755343Y0001300337D01*
X0001757592Y0001301462D01*
X0001758717Y0001302587D01*
X0001759842Y0001304836D01*
X0001759842Y0001307086D01*
X0001758717Y0001309336D01*
X0001757592Y0001310461D01*
X0001755343Y0001311586D01*
X0001750843Y0001312710D01*
X0001748593Y0001313835D01*
X0001747469Y0001314960D01*
X0001746344Y0001317210D01*
X0001746344Y0001319460D01*
X0001747469Y0001321709D01*
X0001748593Y0001322834D01*
X0001750843Y0001323959D01*
X0001756467Y0001323959D01*
X0001759842Y0001322834D01*
X0001780089Y0001300337D02*
X0001780089Y0001312710D01*
X0001778965Y0001314960D01*
X0001776715Y0001316085D01*
X0001772215Y0001316085D01*
X0001769966Y0001314960D01*
X0001780089Y0001301462D02*
X0001777840Y0001300337D01*
X0001772215Y0001300337D01*
X0001769966Y0001301462D01*
X0001768841Y0001303712D01*
X0001768841Y0001305961D01*
X0001769966Y0001308211D01*
X0001772215Y0001309336D01*
X0001777840Y0001309336D01*
X0001780089Y0001310461D01*
X0001791338Y0001300337D02*
X0001791338Y0001323959D01*
X0001791338Y0001314960D02*
X0001793588Y0001316085D01*
X0001798087Y0001316085D01*
X0001800337Y0001314960D01*
X0001801462Y0001313835D01*
X0001802587Y0001311586D01*
X0001802587Y0001304836D01*
X0001801462Y0001302587D01*
X0001800337Y0001301462D01*
X0001798087Y0001300337D01*
X0001793588Y0001300337D01*
X0001791338Y0001301462D01*
X0001812710Y0001300337D02*
X0001812710Y0001316085D01*
X0001812710Y0001311586D02*
X0001813835Y0001313835D01*
X0001814960Y0001314960D01*
X0001817210Y0001316085D01*
X0001819460Y0001316085D01*
X0001836332Y0001301462D02*
X0001834083Y0001300337D01*
X0001829583Y0001300337D01*
X0001827334Y0001301462D01*
X0001826209Y0001303712D01*
X0001826209Y0001312710D01*
X0001827334Y0001314960D01*
X0001829583Y0001316085D01*
X0001834083Y0001316085D01*
X0001836332Y0001314960D01*
X0001837457Y0001312710D01*
X0001837457Y0001310461D01*
X0001826209Y0001308211D01*
X0001674353Y0001258998D02*
X0001674353Y0001282620D01*
X0001682227Y0001265748D01*
X0001690101Y0001282620D01*
X0001690101Y0001258998D01*
X0001701349Y0001258998D02*
X0001701349Y0001274746D01*
X0001701349Y0001282620D02*
X0001700224Y0001281496D01*
X0001701349Y0001280371D01*
X0001702474Y0001281496D01*
X0001701349Y0001282620D01*
X0001701349Y0001280371D01*
X0001722722Y0001258998D02*
X0001722722Y0001282620D01*
X0001722722Y0001260123D02*
X0001720472Y0001258998D01*
X0001715972Y0001258998D01*
X0001713723Y0001260123D01*
X0001712598Y0001261248D01*
X0001711473Y0001263498D01*
X0001711473Y0001270247D01*
X0001712598Y0001272497D01*
X0001713723Y0001273622D01*
X0001715972Y0001274746D01*
X0001720472Y0001274746D01*
X0001722722Y0001273622D01*
X0001750843Y0001260123D02*
X0001754218Y0001258998D01*
X0001759842Y0001258998D01*
X0001762092Y0001260123D01*
X0001763217Y0001261248D01*
X0001764341Y0001263498D01*
X0001764341Y0001265748D01*
X0001763217Y0001267997D01*
X0001762092Y0001269122D01*
X0001759842Y0001270247D01*
X0001755343Y0001271372D01*
X0001753093Y0001272497D01*
X0001751968Y0001273622D01*
X0001750843Y0001275871D01*
X0001750843Y0001278121D01*
X0001751968Y0001280371D01*
X0001753093Y0001281496D01*
X0001755343Y0001282620D01*
X0001760967Y0001282620D01*
X0001764341Y0001281496D01*
X0001771091Y0001274746D02*
X0001780089Y0001274746D01*
X0001774465Y0001282620D02*
X0001774465Y0001262373D01*
X0001775590Y0001260123D01*
X0001777840Y0001258998D01*
X0001780089Y0001258998D01*
X0001798087Y0001258998D02*
X0001798087Y0001271372D01*
X0001796962Y0001273622D01*
X0001794713Y0001274746D01*
X0001790213Y0001274746D01*
X0001787964Y0001273622D01*
X0001798087Y0001260123D02*
X0001795837Y0001258998D01*
X0001790213Y0001258998D01*
X0001787964Y0001260123D01*
X0001786839Y0001262373D01*
X0001786839Y0001264623D01*
X0001787964Y0001266872D01*
X0001790213Y0001267997D01*
X0001795837Y0001267997D01*
X0001798087Y0001269122D01*
X0001819460Y0001260123D02*
X0001817210Y0001258998D01*
X0001812710Y0001258998D01*
X0001810461Y0001260123D01*
X0001809336Y0001261248D01*
X0001808211Y0001263498D01*
X0001808211Y0001270247D01*
X0001809336Y0001272497D01*
X0001810461Y0001273622D01*
X0001812710Y0001274746D01*
X0001817210Y0001274746D01*
X0001819460Y0001273622D01*
X0001829583Y0001258998D02*
X0001829583Y0001282620D01*
X0001831833Y0001267997D02*
X0001838582Y0001258998D01*
X0001838582Y0001274746D02*
X0001829583Y0001265748D01*
X0001672103Y0001219910D02*
X0001670978Y0001218785D01*
X0001667604Y0001217660D01*
X0001665354Y0001217660D01*
X0001661979Y0001218785D01*
X0001659730Y0001221034D01*
X0001658605Y0001223284D01*
X0001657480Y0001227784D01*
X0001657480Y0001231158D01*
X0001658605Y0001235657D01*
X0001659730Y0001237907D01*
X0001661979Y0001240157D01*
X0001665354Y0001241282D01*
X0001667604Y0001241282D01*
X0001670978Y0001240157D01*
X0001672103Y0001239032D01*
X0001690101Y0001230033D02*
X0001693475Y0001228908D01*
X0001694600Y0001227784D01*
X0001695725Y0001225534D01*
X0001695725Y0001222159D01*
X0001694600Y0001219910D01*
X0001693475Y0001218785D01*
X0001691226Y0001217660D01*
X0001682227Y0001217660D01*
X0001682227Y0001241282D01*
X0001690101Y0001241282D01*
X0001692350Y0001240157D01*
X0001693475Y0001239032D01*
X0001694600Y0001236782D01*
X0001694600Y0001234533D01*
X0001693475Y0001232283D01*
X0001692350Y0001231158D01*
X0001690101Y0001230033D01*
X0001682227Y0001230033D01*
X0001705849Y0001217660D02*
X0001705849Y0001241282D01*
X0001711473Y0001241282D01*
X0001714848Y0001240157D01*
X0001717097Y0001237907D01*
X0001718222Y0001235657D01*
X0001719347Y0001231158D01*
X0001719347Y0001227784D01*
X0001718222Y0001223284D01*
X0001717097Y0001221034D01*
X0001714848Y0001218785D01*
X0001711473Y0001217660D01*
X0001705849Y0001217660D01*
X0001747469Y0001217660D02*
X0001747469Y0001241282D01*
X0001753093Y0001241282D01*
X0001756467Y0001240157D01*
X0001758717Y0001237907D01*
X0001759842Y0001235657D01*
X0001760967Y0001231158D01*
X0001760967Y0001227784D01*
X0001759842Y0001223284D01*
X0001758717Y0001221034D01*
X0001756467Y0001218785D01*
X0001753093Y0001217660D01*
X0001747469Y0001217660D01*
X0001780090Y0001218785D02*
X0001777840Y0001217660D01*
X0001773340Y0001217660D01*
X0001771091Y0001218785D01*
X0001769966Y0001221034D01*
X0001769966Y0001230033D01*
X0001771091Y0001232283D01*
X0001773340Y0001233408D01*
X0001777840Y0001233408D01*
X0001780090Y0001232283D01*
X0001781214Y0001230033D01*
X0001781214Y0001227784D01*
X0001769966Y0001225534D01*
X0001790213Y0001218785D02*
X0001792463Y0001217660D01*
X0001796962Y0001217660D01*
X0001799212Y0001218785D01*
X0001800337Y0001221034D01*
X0001800337Y0001222159D01*
X0001799212Y0001224409D01*
X0001796962Y0001225534D01*
X0001793588Y0001225534D01*
X0001791338Y0001226659D01*
X0001790213Y0001228908D01*
X0001790213Y0001230033D01*
X0001791338Y0001232283D01*
X0001793588Y0001233408D01*
X0001796962Y0001233408D01*
X0001799212Y0001232283D01*
X0001810461Y0001217660D02*
X0001810461Y0001233408D01*
X0001810461Y0001241282D02*
X0001809336Y0001240157D01*
X0001810461Y0001239032D01*
X0001811586Y0001240157D01*
X0001810461Y0001241282D01*
X0001810461Y0001239032D01*
X0001831833Y0001233408D02*
X0001831833Y0001214285D01*
X0001830708Y0001212035D01*
X0001829583Y0001210911D01*
X0001827334Y0001209786D01*
X0001823959Y0001209786D01*
X0001821709Y0001210911D01*
X0001831833Y0001218785D02*
X0001829583Y0001217660D01*
X0001825084Y0001217660D01*
X0001822834Y0001218785D01*
X0001821709Y0001219910D01*
X0001820584Y0001222159D01*
X0001820584Y0001228908D01*
X0001821709Y0001231158D01*
X0001822834Y0001232283D01*
X0001825084Y0001233408D01*
X0001829583Y0001233408D01*
X0001831833Y0001232283D01*
X0001843082Y0001233408D02*
X0001843082Y0001217660D01*
X0001843082Y0001231158D02*
X0001844207Y0001232283D01*
X0001846456Y0001233408D01*
X0001849831Y0001233408D01*
X0001852080Y0001232283D01*
X0001853205Y0001230033D01*
X0001853205Y0001217660D01*
X0001653543Y0001351377D02*
X0001614173Y0001351377D01*
X0001614173Y0001404527D02*
X0001653543Y0001404527D01*
X0001456692Y0001351377D02*
X0001417322Y0001351377D01*
X0001417322Y0001404527D02*
X0001456692Y0001404527D01*
X0001220472Y0001404527D02*
X0001259842Y0001404527D01*
X0001259842Y0001351377D02*
X0001220472Y0001351377D01*
D30*
X0001259842Y0001293307D02*
X0001220472Y0001293307D01*
X0001220472Y0001226377D02*
X0001259842Y0001226377D01*
X0001397637Y0001219685D02*
X0001476377Y0001219685D01*
X0001476377Y0001299999D02*
X0001397637Y0001299999D01*
D29*
X0001574147Y0001411745D02*
X0001564960Y0001424868D01*
X0001558398Y0001411745D02*
X0001558398Y0001439304D01*
X0001568897Y0001439304D01*
X0001571522Y0001437992D01*
X0001572834Y0001436679D01*
X0001574147Y0001434055D01*
X0001574147Y0001430118D01*
X0001572834Y0001427493D01*
X0001571522Y0001426181D01*
X0001568897Y0001424868D01*
X0001558398Y0001424868D01*
X0001583333Y0001439304D02*
X0001600393Y0001439304D01*
X0001591207Y0001428805D01*
X0001595144Y0001428805D01*
X0001597769Y0001427493D01*
X0001599081Y0001426181D01*
X0001600393Y0001423556D01*
X0001600393Y0001416994D01*
X0001599081Y0001414370D01*
X0001597769Y0001413057D01*
X0001595144Y0001411745D01*
X0001587270Y0001411745D01*
X0001584645Y0001413057D01*
X0001583333Y0001414370D01*
X0001432414Y0001412729D02*
X0001423228Y0001425853D01*
X0001416666Y0001412729D02*
X0001416666Y0001440288D01*
X0001427165Y0001440288D01*
X0001429790Y0001438976D01*
X0001431102Y0001437664D01*
X0001432414Y0001435039D01*
X0001432414Y0001431102D01*
X0001431102Y0001428477D01*
X0001429790Y0001427165D01*
X0001427165Y0001425853D01*
X0001416666Y0001425853D01*
X0001442913Y0001437664D02*
X0001444225Y0001438976D01*
X0001446850Y0001440288D01*
X0001453412Y0001440288D01*
X0001456036Y0001438976D01*
X0001457349Y0001437664D01*
X0001458661Y0001435039D01*
X0001458661Y0001432414D01*
X0001457349Y0001428477D01*
X0001441601Y0001412729D01*
X0001458661Y0001412729D01*
X0001239501Y0001412729D02*
X0001230314Y0001425853D01*
X0001223753Y0001412729D02*
X0001223753Y0001440288D01*
X0001234251Y0001440288D01*
X0001236876Y0001438976D01*
X0001238188Y0001437664D01*
X0001239501Y0001435039D01*
X0001239501Y0001431102D01*
X0001238188Y0001428477D01*
X0001236876Y0001427165D01*
X0001234251Y0001425853D01*
X0001223753Y0001425853D01*
X0001265748Y0001412729D02*
X0001250000Y0001412729D01*
X0001257873Y0001412729D02*
X0001257873Y0001440288D01*
X0001255249Y0001436351D01*
X0001252624Y0001433727D01*
X0001250000Y0001432414D01*
X0001235564Y0001303149D02*
X0001234251Y0001301837D01*
X0001230314Y0001300524D01*
X0001227690Y0001300524D01*
X0001223753Y0001301837D01*
X0001221128Y0001304461D01*
X0001219816Y0001307086D01*
X0001218503Y0001312335D01*
X0001218503Y0001316272D01*
X0001219816Y0001321522D01*
X0001221128Y0001324146D01*
X0001223753Y0001326771D01*
X0001227690Y0001328083D01*
X0001230314Y0001328083D01*
X0001234251Y0001326771D01*
X0001235564Y0001325459D01*
X0001246062Y0001325459D02*
X0001247375Y0001326771D01*
X0001250000Y0001328083D01*
X0001256561Y0001328083D01*
X0001259186Y0001326771D01*
X0001260498Y0001325459D01*
X0001261811Y0001322834D01*
X0001261811Y0001320209D01*
X0001260498Y0001316272D01*
X0001244750Y0001300524D01*
X0001261811Y0001300524D01*
X0001430446Y0001309055D02*
X0001429133Y0001307742D01*
X0001425196Y0001306430D01*
X0001422572Y0001306430D01*
X0001418635Y0001307742D01*
X0001416010Y0001310367D01*
X0001414698Y0001312992D01*
X0001413385Y0001318241D01*
X0001413385Y0001322178D01*
X0001414698Y0001327427D01*
X0001416010Y0001330052D01*
X0001418635Y0001332677D01*
X0001422572Y0001333989D01*
X0001425196Y0001333989D01*
X0001429133Y0001332677D01*
X0001430446Y0001331364D01*
X0001456692Y0001306430D02*
X0001440944Y0001306430D01*
X0001448818Y0001306430D02*
X0001448818Y0001333989D01*
X0001446194Y0001330052D01*
X0001443569Y0001327427D01*
X0001440944Y0001326115D01*
G04 next file*
G04 #@! TF.FileFunction,Legend,Top*
G04 Gerber Fmt 4.6, Leading zero omitted, Abs format (unit mm)*
G04 Created by KiCad (PCBNEW 4.0.7) date 06/05/18 11:02:08*
G01G01*
G04 APERTURE LIST*
G04 APERTURE END LIST*
D31*
D32*
X0000324967Y0002335301D02*
X0000297408Y0002335301D01*
X0000317093Y0002344488D01*
X0000297408Y0002353674D01*
X0000324967Y0002353674D01*
X0000324967Y0002366797D02*
X0000297408Y0002366797D01*
X0000317093Y0002375984D01*
X0000297408Y0002385170D01*
X0000324967Y0002385170D01*
X0000323654Y0002417979D02*
X0000324967Y0002421916D01*
X0000324967Y0002428477D01*
X0000323654Y0002431102D01*
X0000322342Y0002432414D01*
X0000319717Y0002433727D01*
X0000317093Y0002433727D01*
X0000314468Y0002432414D01*
X0000313156Y0002431102D01*
X0000311843Y0002428477D01*
X0000310531Y0002423228D01*
X0000309219Y0002420603D01*
X0000307906Y0002419291D01*
X0000305282Y0002417979D01*
X0000302657Y0002417979D01*
X0000300032Y0002419291D01*
X0000298720Y0002420603D01*
X0000297408Y0002423228D01*
X0000297408Y0002429790D01*
X0000298720Y0002433727D01*
X0000324967Y0002457349D02*
X0000310531Y0002457349D01*
X0000307906Y0002456036D01*
X0000306594Y0002453412D01*
X0000306594Y0002448162D01*
X0000307906Y0002445538D01*
X0000323654Y0002457349D02*
X0000324967Y0002454724D01*
X0000324967Y0002448162D01*
X0000323654Y0002445538D01*
X0000321030Y0002444225D01*
X0000318405Y0002444225D01*
X0000315780Y0002445538D01*
X0000314468Y0002448162D01*
X0000314468Y0002454724D01*
X0000313156Y0002457349D01*
X0000324967Y0002470472D02*
X0000297408Y0002470472D01*
X0000307906Y0002470472D02*
X0000306594Y0002473097D01*
X0000306594Y0002478346D01*
X0000307906Y0002480971D01*
X0000309219Y0002482283D01*
X0000311843Y0002483595D01*
X0000319717Y0002483595D01*
X0000322342Y0002482283D01*
X0000323654Y0002480971D01*
X0000324967Y0002478346D01*
X0000324967Y0002473097D01*
X0000323654Y0002470472D01*
X0000324967Y0002495406D02*
X0000306594Y0002495406D01*
X0000311843Y0002495406D02*
X0000309219Y0002496719D01*
X0000307906Y0002498031D01*
X0000306594Y0002500656D01*
X0000306594Y0002503280D01*
X0000323654Y0002522965D02*
X0000324967Y0002520341D01*
X0000324967Y0002515091D01*
X0000323654Y0002512467D01*
X0000321030Y0002511154D01*
X0000310531Y0002511154D01*
X0000307906Y0002512467D01*
X0000306594Y0002515091D01*
X0000306594Y0002520341D01*
X0000307906Y0002522965D01*
X0000310531Y0002524278D01*
X0000313156Y0002524278D01*
X0000315780Y0002511154D01*
X0000358759Y0002383202D02*
X0000360072Y0002387139D01*
X0000361384Y0002388451D01*
X0000364009Y0002389763D01*
X0000367946Y0002389763D01*
X0000370570Y0002388451D01*
X0000371883Y0002387139D01*
X0000373195Y0002384514D01*
X0000373195Y0002374015D01*
X0000345636Y0002374015D01*
X0000345636Y0002383202D01*
X0000346948Y0002385826D01*
X0000348261Y0002387139D01*
X0000350885Y0002388451D01*
X0000353510Y0002388451D01*
X0000356135Y0002387139D01*
X0000357447Y0002385826D01*
X0000358759Y0002383202D01*
X0000358759Y0002374015D01*
X0000373195Y0002401574D02*
X0000354822Y0002401574D01*
X0000360072Y0002401574D02*
X0000357447Y0002402887D01*
X0000356135Y0002404199D01*
X0000354822Y0002406824D01*
X0000354822Y0002409448D01*
X0000373195Y0002418635D02*
X0000354822Y0002418635D01*
X0000345636Y0002418635D02*
X0000346948Y0002417322D01*
X0000348261Y0002418635D01*
X0000346948Y0002419947D01*
X0000345636Y0002418635D01*
X0000348261Y0002418635D01*
X0000354822Y0002443569D02*
X0000377132Y0002443569D01*
X0000379757Y0002442257D01*
X0000381069Y0002440944D01*
X0000382381Y0002438320D01*
X0000382381Y0002434383D01*
X0000381069Y0002431758D01*
X0000371883Y0002443569D02*
X0000373195Y0002440944D01*
X0000373195Y0002435695D01*
X0000371883Y0002433070D01*
X0000370570Y0002431758D01*
X0000367946Y0002430446D01*
X0000360072Y0002430446D01*
X0000357447Y0002431758D01*
X0000356135Y0002433070D01*
X0000354822Y0002435695D01*
X0000354822Y0002440944D01*
X0000356135Y0002443569D01*
X0000373195Y0002456692D02*
X0000345636Y0002456692D01*
X0000373195Y0002468503D02*
X0000358759Y0002468503D01*
X0000356135Y0002467191D01*
X0000354822Y0002464566D01*
X0000354822Y0002460629D01*
X0000356135Y0002458005D01*
X0000357447Y0002456692D01*
X0000354822Y0002477690D02*
X0000354822Y0002488188D01*
X0000345636Y0002481627D02*
X0000369258Y0002481627D01*
X0000371883Y0002482939D01*
X0000373195Y0002485564D01*
X0000373195Y0002488188D01*
D33*
X0000280708Y0002328740D02*
X0000280708Y0002828740D01*
X0000280708Y0002828740D02*
X0000005118Y0002828740D01*
X0000005118Y0002828740D02*
X0000005118Y0002328740D01*
X0000005118Y0002328740D02*
X0000280708Y0002328740D01*
X0000247337Y0002565429D02*
X0000207967Y0002565429D01*
X0000207967Y0002580427D01*
X0000209842Y0002584177D01*
X0000211717Y0002586051D01*
X0000215466Y0002587926D01*
X0000221091Y0002587926D01*
X0000224840Y0002586051D01*
X0000226715Y0002584177D01*
X0000228590Y0002580427D01*
X0000228590Y0002565429D01*
X0000247337Y0002625421D02*
X0000247337Y0002602924D01*
X0000247337Y0002614173D02*
X0000207967Y0002614173D01*
X0000213592Y0002610423D01*
X0000217341Y0002606674D01*
X0000219216Y0002602924D01*
G04 next file*
G04 #@! TF.FileFunction,Legend,Top*
G04 Gerber Fmt 4.6, Leading zero omitted, Abs format (unit mm)*
G04 Created by KiCad (PCBNEW 4.0.4-1.fc24-product) date Mon Jun  4 16:03:53 2018*
G01G01*
G04 APERTURE LIST*
G04 APERTURE END LIST*
D34*
D35*
X0001206692Y0002149606D02*
X0001706692Y0002149606D01*
X0001706692Y0002149606D02*
X0001706692Y0002598425D01*
X0001706692Y0002598425D02*
X0001206692Y0002598425D01*
X0001206692Y0002598425D02*
X0001206692Y0002149606D01*
X0001524934Y0002397825D02*
X0001519310Y0002399700D01*
X0001509936Y0002399700D01*
X0001506186Y0002397825D01*
X0001504311Y0002395950D01*
X0001502437Y0002392200D01*
X0001502437Y0002388451D01*
X0001504311Y0002384701D01*
X0001506186Y0002382827D01*
X0001509936Y0002380952D01*
X0001517435Y0002379077D01*
X0001521184Y0002377202D01*
X0001523059Y0002375328D01*
X0001524934Y0002371578D01*
X0001524934Y0002367828D01*
X0001523059Y0002364079D01*
X0001521184Y0002362204D01*
X0001517435Y0002360329D01*
X0001508061Y0002360329D01*
X0001502437Y0002362204D01*
X0001489313Y0002360329D02*
X0001479940Y0002399700D01*
X0001472440Y0002371578D01*
X0001464941Y0002399700D01*
X0001455568Y0002360329D01*
X0001419947Y0002399700D02*
X0001442444Y0002399700D01*
X0001431196Y0002399700D02*
X0001431196Y0002360329D01*
X0001434945Y0002365954D01*
X0001438695Y0002369703D01*
X0001442444Y0002371578D01*
G04 next file*
G04 #@! TF.FileFunction,Legend,Top*
G04 Gerber Fmt 4.6, Leading zero omitted, Abs format (unit mm)*
G04 Created by KiCad (PCBNEW 4.0.4-1.fc24-product) date Mon Jun  4 16:06:22 2018*
G01G01*
G04 APERTURE LIST*
G04 APERTURE END LIST*
D36*
D37*
X0000576771Y0002326771D02*
X0001076771Y0002326771D01*
X0001076771Y0002326771D02*
X0001076771Y0002775590D01*
X0001076771Y0002775590D02*
X0000576771Y0002775590D01*
X0000576771Y0002775590D02*
X0000576771Y0002326771D01*
X0000895013Y0002574990D02*
X0000889388Y0002576865D01*
X0000880014Y0002576865D01*
X0000876265Y0002574990D01*
X0000874390Y0002573115D01*
X0000872515Y0002569366D01*
X0000872515Y0002565616D01*
X0000874390Y0002561867D01*
X0000876265Y0002559992D01*
X0000880014Y0002558117D01*
X0000887514Y0002556242D01*
X0000891263Y0002554368D01*
X0000893138Y0002552493D01*
X0000895013Y0002548743D01*
X0000895013Y0002544994D01*
X0000893138Y0002541244D01*
X0000891263Y0002539370D01*
X0000887514Y0002537495D01*
X0000878140Y0002537495D01*
X0000872515Y0002539370D01*
X0000859392Y0002537495D02*
X0000850018Y0002576865D01*
X0000842519Y0002548743D01*
X0000835020Y0002576865D01*
X0000825646Y0002537495D01*
X0000790026Y0002576865D02*
X0000812523Y0002576865D01*
X0000801274Y0002576865D02*
X0000801274Y0002537495D01*
X0000805024Y0002543119D01*
X0000808773Y0002546869D01*
X0000812523Y0002548743D01*
M02*