%MOIN*%
%OFA0B0*%
%FSLAX46Y46*%
%IPPOS*%
%LPD*%
%ADD10C,0.0039370078740157488*%
%ADD11O,0.094448031496063X0.094448031496063*%
%ADD12R,0.094448031496063X0.094448031496063*%
%ADD13C,0.086614173228346469*%
%ADD14R,0.082677165354330714X0.062992125984251982*%
%ADD15O,0.082677165354330714X0.062992125984251982*%
%ADD16R,0.062992125984251982X0.082677165354330714*%
%ADD17O,0.062992125984251982X0.082677165354330714*%
%ADD28C,0.0039370078740157488*%
%ADD29O,0.10236220472440946X0.10236220472440946*%
%ADD30O,0.19291338582677167X0.10236220472440946*%
%ADD31O,0.094448031496063X0.094448031496063*%
%ADD32R,0.094448031496063X0.094448031496063*%
%ADD33R,0.082677165354330714X0.062992125984251982*%
%ADD34O,0.082677165354330714X0.062992125984251982*%
%ADD35C,0.0039370078740157488*%
%ADD36C,0.086614173228346469*%
%ADD37R,0.082677165354330714X0.062992125984251982*%
%ADD38O,0.082677165354330714X0.062992125984251982*%
%ADD39R,0.086648031496063X0.11414803149606301*%
%ADD40R,0.064960629921259838X0.055118110236220472*%
%ADD41R,0.047244094488188976X0.0452755905511811*%
%ADD42R,0.035433070866141732X0.051181102362204731*%
%ADD43R,0.07874015748031496X0.055118110236220472*%
%ADD44C,0.0039370078740157488*%
%ADD45R,0.082677165354330714X0.062992125984251982*%
%ADD46O,0.082677165354330714X0.062992125984251982*%
%ADD47C,0.086614173228346469*%
%ADD48C,0.0039370078740157488*%
%ADD49C,0.086614173228346469*%
%ADD50O,0.086614173228346469X0.086614173228346469*%
%ADD51R,0.082677165354330714X0.062992125984251982*%
%ADD52O,0.082677165354330714X0.062992125984251982*%
%ADD53C,0.0039370078740157488*%
%ADD54R,0.062992125984251982X0.082677165354330714*%
%ADD55O,0.062992125984251982X0.082677165354330714*%
%ADD56O,0.086614173228346469X0.086614173228346469*%
%ADD57C,0.086614173228346469*%
%ADD58C,0.0039370078740157488*%
%ADD59R,0.062992125984251982X0.082677165354330714*%
%ADD60O,0.062992125984251982X0.082677165354330714*%
%ADD61O,0.086614173228346469X0.086614173228346469*%
%ADD62C,0.086614173228346469*%
G01G01*
D10*
D11*
X-0002027559Y-0004921259D02*
X0001659055Y0000974409D03*
D12*
X0001559055Y0000974409D03*
D11*
X0001432283Y0000974409D03*
D12*
X0001232283Y0000974409D03*
D11*
X0001332283Y0000974409D03*
D13*
X0001318897Y0000688976D03*
X0001318897Y0000492125D03*
X0001318897Y0000295275D03*
D14*
X0001862204Y0000657480D03*
D15*
X0001862204Y0000736220D03*
D14*
X0001649606Y0000657480D03*
D15*
X0001649606Y0000736220D03*
D11*
X0001885826Y0000974409D03*
D12*
X0001785826Y0000974409D03*
D16*
X0001616141Y0000236220D03*
D17*
X0001694881Y0000236220D03*
X0001773622Y0000236220D03*
X0001852362Y0000236220D03*
D16*
X0001616141Y0000433070D03*
D17*
X0001694881Y0000433070D03*
X0001773622Y0000433070D03*
X0001852362Y0000433070D03*
G04 next file*
G04 #@! TF.FileFunction,Soldermask,Bot*
G04 Gerber Fmt 4.6, Leading zero omitted, Abs format (unit mm)*
G04 Created by KiCad (PCBNEW 4.0.7) date 06/05/18 11:05:24*
G01G01*
G04 APERTURE LIST*
G04 APERTURE END LIST*
D28*
D29*
X-0004055118Y0003858267D02*
X0000728346Y0001023622D03*
X0000531496Y0001023622D03*
X0000334645Y0001023622D03*
X0000433070Y0000610236D03*
X0000433070Y0000452755D03*
X0000433070Y0000295275D03*
X0000629921Y0000610236D03*
X0000629921Y0000452755D03*
X0000629921Y0000295275D03*
D30*
X0000531496Y0000129921D03*
D31*
X0000940944Y0000407874D03*
D32*
X0000940944Y0000507874D03*
D31*
X0000940944Y0000070866D03*
D32*
X0000940944Y0000270866D03*
D31*
X0000940944Y0000170866D03*
D33*
X0000090551Y0000590551D03*
D34*
X0000090551Y0000511811D03*
X0000090551Y0000433070D03*
X0000090551Y0000354330D03*
D33*
X0000090551Y0000169291D03*
D34*
X0000090551Y0000090551D03*
G04 next file*
G04 #@! TF.FileFunction,Soldermask,Bot*
G04 Gerber Fmt 4.6, Leading zero omitted, Abs format (unit mm)*
G04 Created by KiCad (PCBNEW 4.0.4-1.fc24-product) date Mon Jun  4 16:00:14 2018*
G01G01*
G04 APERTURE LIST*
G04 APERTURE END LIST*
D35*
D36*
X-0005708661Y0005610236D02*
X0000531496Y0002086614D03*
X0000334645Y0002086614D03*
X0000137795Y0002086614D03*
D37*
X0000937007Y0001618110D03*
D38*
X0000937007Y0001696850D03*
D37*
X0000937007Y0001885826D03*
D38*
X0000937007Y0001964566D03*
X0000937007Y0002043307D03*
X0000937007Y0002122047D03*
D39*
X0000354330Y0001476337D03*
X0000354330Y0001318937D03*
D37*
X0000090551Y0001535433D03*
D38*
X0000090551Y0001456692D03*
X0000090551Y0001377952D03*
X0000090551Y0001299212D03*
D40*
X0000751968Y0001748031D03*
X0000751968Y0001669291D03*
D41*
X0000781496Y0001905511D03*
X0000722440Y0001905511D03*
D42*
X0000482283Y0001594488D03*
X0000541338Y0001594488D03*
X0000600393Y0001594488D03*
X0000659448Y0001594488D03*
X0000781496Y0002003937D03*
X0000722440Y0002003937D03*
X0000722440Y0002102362D03*
X0000781496Y0002102362D03*
D43*
X0000629921Y0001456692D03*
X0000629921Y0001338582D03*
X0000511811Y0001456692D03*
X0000511811Y0001338582D03*
D37*
X0000090551Y0001775590D03*
D38*
X0000090551Y0001696850D03*
G04 next file*
G04 #@! TF.FileFunction,Soldermask,Bot*
G04 Gerber Fmt 4.6, Leading zero omitted, Abs format (unit mm)*
G04 Created by KiCad (PCBNEW 4.0.4-1.fc24-product) date Tue Jun  5 17:09:06 2018*
G01G01*
G04 APERTURE LIST*
G04 APERTURE END LIST*
D44*
D45*
X-0003956692Y0005236220D02*
X0001807086Y0001667322D03*
D46*
X0001807086Y0001746062D03*
X0001807086Y0001824803D03*
X0001807086Y0001903543D03*
D47*
X0001545275Y0001909448D03*
X0001397637Y0001909448D03*
X0001250000Y0001909448D03*
X0001545275Y0001712598D03*
X0001397637Y0001712598D03*
X0001250000Y0001712598D03*
X0001250000Y0001515748D03*
X0001397637Y0001515748D03*
X0001545275Y0001515748D03*
G04 next file*
G04 #@! TF.FileFunction,Soldermask,Bot*
G04 Gerber Fmt 4.6, Leading zero omitted, Abs format (unit mm)*
G04 Created by KiCad (PCBNEW 4.0.7) date 06/05/18 11:02:08*
G01G01*
G04 APERTURE LIST*
G04 APERTURE END LIST*
D48*
D49*
X-0005433070Y0006771653D02*
X0000141732Y0002393700D03*
D50*
X0000141732Y0002578740D03*
X0000141732Y0002763779D03*
D51*
X0000385826Y0002539370D03*
D52*
X0000385826Y0002618110D03*
G04 next file*
G04 #@! TF.FileFunction,Soldermask,Bot*
G04 Gerber Fmt 4.6, Leading zero omitted, Abs format (unit mm)*
G04 Created by KiCad (PCBNEW 4.0.4-1.fc24-product) date Mon Jun  4 16:03:53 2018*
G01G01*
G04 APERTURE LIST*
G04 APERTURE END LIST*
D53*
D54*
X-0002066929Y-0003248031D02*
X0001574803Y0002681102D03*
D55*
X0001496062Y0002681102D03*
X0001417322Y0002681102D03*
X0001338582Y0002681102D03*
D56*
X0001456692Y0002279527D03*
D57*
X0001271653Y0002279527D03*
D56*
X0001641732Y0002279527D03*
D57*
X0001271653Y0002469685D03*
D56*
X0001456692Y0002469685D03*
X0001641732Y0002469685D03*
G04 next file*
G04 #@! TF.FileFunction,Soldermask,Bot*
G04 Gerber Fmt 4.6, Leading zero omitted, Abs format (unit mm)*
G04 Created by KiCad (PCBNEW 4.0.4-1.fc24-product) date Mon Jun  4 16:06:22 2018*
G01G01*
G04 APERTURE LIST*
G04 APERTURE END LIST*
D58*
D59*
X-0002696850Y-0003070866D02*
X0000944881Y0002862204D03*
D60*
X0000866141Y0002862204D03*
X0000787401Y0002862204D03*
X0000708661Y0002862204D03*
D61*
X0000826771Y0002456692D03*
D62*
X0000641732Y0002456692D03*
D61*
X0001011811Y0002456692D03*
D62*
X0000641732Y0002646850D03*
D61*
X0000826771Y0002646850D03*
X0001011811Y0002646850D03*
M02*