%MOIN*%
%OFA0B0*%
%FSLAX46Y46*%
%IPPOS*%
%LPD*%
%ADD10C,0.0039370078740157488*%
%ADD21C,0.0039370078740157488*%
%ADD22C,0.0039370078740157488*%
%ADD23C,0.005905511811023622*%
%ADD24C,0.0039370078740157488*%
%ADD25C,0.005905511811023622*%
%ADD26C,0.0039370078740157488*%
%ADD27C,0.0047244094488188976*%
%ADD28C,0.005905511811023622*%
G01G01*
D10*
G04 next file*
G04 #@! TF.FileFunction,Legend,Top*
G04 Gerber Fmt 4.6, Leading zero omitted, Abs format (unit mm)*
G04 Created by KiCad (PCBNEW 4.0.4-1.fc24-product) date Tue Jun 12 13:17:57 2018*
G01G01*
G04 APERTURE LIST*
G04 APERTURE END LIST*
D21*
G04 next file*
G04 #@! TF.FileFunction,Legend,Top*
G04 Gerber Fmt 4.6, Leading zero omitted, Abs format (unit mm)*
G04 Created by KiCad (PCBNEW 4.0.4-1.fc24-product) date Tue Jun 12 13:44:11 2018*
G01G01*
G04 APERTURE LIST*
G04 APERTURE END LIST*
D22*
D23*
X0000444330Y0000474015D02*
X0000444330Y0000274015D01*
X0000444330Y0000274015D02*
X0000264330Y0000274015D01*
X0000264330Y0000274015D02*
X0000264330Y0000474015D01*
X0000264330Y0000474015D02*
X0000444330Y0000474015D01*
X0000384330Y0000474015D02*
X0000384330Y0000454015D01*
X0000384330Y0000454015D02*
X0000334330Y0000454015D01*
X0000334330Y0000454015D02*
X0000334330Y0000474015D01*
X0000574803Y0000171259D02*
X0000574803Y0000143700D01*
X0000527559Y0000143700D02*
X0000527559Y0000171259D01*
X0000448818Y0000143700D02*
X0000448818Y0000171259D01*
X0000496062Y0000171259D02*
X0000496062Y0000143700D01*
X0000212598Y0000576771D02*
X0000212598Y0000604330D01*
X0000259842Y0000604330D02*
X0000259842Y0000576771D01*
X0000348425Y0000570866D02*
X0000348425Y0000610236D01*
X0000281496Y0000610236D02*
X0000281496Y0000570866D01*
X0000417322Y0000604330D02*
X0000417322Y0000576771D01*
X0000370078Y0000576771D02*
X0000370078Y0000604330D01*
X0000496062Y0000604330D02*
X0000496062Y0000576771D01*
X0000448818Y0000576771D02*
X0000448818Y0000604330D01*
X0000771653Y0000407480D02*
X0000771653Y0000379921D01*
X0000724409Y0000379921D02*
X0000724409Y0000407480D01*
X0000624015Y0000570866D02*
X0000624015Y0000610236D01*
X0000557086Y0000610236D02*
X0000557086Y0000570866D01*
X0000614173Y0000407480D02*
X0000614173Y0000379921D01*
X0000566929Y0000379921D02*
X0000566929Y0000407480D01*
X0000645669Y0000379921D02*
X0000645669Y0000407480D01*
X0000692913Y0000407480D02*
X0000692913Y0000379921D01*
X0000793307Y0000413385D02*
X0000793307Y0000374015D01*
X0000860236Y0000374015D02*
X0000860236Y0000413385D01*
X0000724409Y0000143700D02*
X0000724409Y0000171259D01*
X0000771653Y0000171259D02*
X0000771653Y0000143700D01*
X0000803149Y0000576771D02*
X0000803149Y0000604330D01*
X0000850393Y0000604330D02*
X0000850393Y0000576771D01*
X0000202755Y0000177165D02*
X0000202755Y0000137795D01*
X0000269685Y0000137795D02*
X0000269685Y0000177165D01*
X0000702755Y0000137795D02*
X0000702755Y0000177165D01*
X0000635826Y0000177165D02*
X0000635826Y0000137795D01*
X0000360236Y0000177165D02*
X0000360236Y0000137795D01*
X0000427165Y0000137795D02*
X0000427165Y0000177165D01*
X0000338582Y0000171259D02*
X0000338582Y0000143700D01*
X0000291338Y0000143700D02*
X0000291338Y0000171259D01*
X0000803149Y0000143700D02*
X0000803149Y0000171259D01*
X0000850393Y0000171259D02*
X0000850393Y0000143700D01*
X0000546587Y0000227690D02*
X0000537401Y0000240813D01*
X0000530839Y0000227690D02*
X0000530839Y0000255249D01*
X0000541338Y0000255249D01*
X0000543963Y0000253937D01*
X0000545275Y0000252624D01*
X0000546587Y0000249999D01*
X0000546587Y0000246062D01*
X0000545275Y0000243438D01*
X0000543963Y0000242125D01*
X0000541338Y0000240813D01*
X0000530839Y0000240813D01*
X0000570210Y0000255249D02*
X0000564960Y0000255249D01*
X0000562335Y0000253937D01*
X0000561023Y0000252624D01*
X0000558398Y0000248687D01*
X0000557086Y0000243438D01*
X0000557086Y0000232939D01*
X0000558398Y0000230314D01*
X0000559711Y0000229002D01*
X0000562335Y0000227690D01*
X0000567585Y0000227690D01*
X0000570210Y0000229002D01*
X0000571522Y0000230314D01*
X0000572834Y0000232939D01*
X0000572834Y0000239501D01*
X0000571522Y0000242125D01*
X0000570210Y0000243438D01*
X0000567585Y0000244750D01*
X0000562335Y0000244750D01*
X0000559711Y0000243438D01*
X0000558398Y0000242125D01*
X0000557086Y0000239501D01*
X0000454724Y0000227690D02*
X0000445537Y0000240813D01*
X0000438976Y0000227690D02*
X0000438976Y0000255249D01*
X0000449475Y0000255249D01*
X0000452099Y0000253937D01*
X0000453412Y0000252624D01*
X0000454724Y0000249999D01*
X0000454724Y0000246062D01*
X0000453412Y0000243438D01*
X0000452099Y0000242125D01*
X0000449475Y0000240813D01*
X0000438976Y0000240813D01*
X0000480971Y0000227690D02*
X0000465223Y0000227690D01*
X0000473097Y0000227690D02*
X0000473097Y0000255249D01*
X0000470472Y0000251312D01*
X0000467847Y0000248687D01*
X0000465223Y0000247375D01*
X0000498031Y0000255249D02*
X0000500656Y0000255249D01*
X0000503280Y0000253937D01*
X0000504593Y0000252624D01*
X0000505905Y0000249999D01*
X0000507217Y0000244750D01*
X0000507217Y0000238188D01*
X0000505905Y0000232939D01*
X0000504593Y0000230314D01*
X0000503280Y0000229002D01*
X0000500656Y0000227690D01*
X0000498031Y0000227690D01*
X0000495406Y0000229002D01*
X0000494094Y0000230314D01*
X0000492782Y0000232939D01*
X0000491469Y0000238188D01*
X0000491469Y0000244750D01*
X0000492782Y0000249999D01*
X0000494094Y0000252624D01*
X0000495406Y0000253937D01*
X0000498031Y0000255249D01*
X0000231627Y0000663385D02*
X0000230314Y0000662073D01*
X0000226377Y0000660761D01*
X0000223753Y0000660761D01*
X0000219816Y0000662073D01*
X0000217191Y0000664698D01*
X0000215879Y0000667322D01*
X0000214566Y0000672572D01*
X0000214566Y0000676509D01*
X0000215879Y0000681758D01*
X0000217191Y0000684383D01*
X0000219816Y0000687007D01*
X0000223753Y0000688320D01*
X0000226377Y0000688320D01*
X0000230314Y0000687007D01*
X0000231627Y0000685695D01*
X0000256561Y0000688320D02*
X0000243438Y0000688320D01*
X0000242125Y0000675196D01*
X0000243438Y0000676509D01*
X0000246062Y0000677821D01*
X0000252624Y0000677821D01*
X0000255249Y0000676509D01*
X0000256561Y0000675196D01*
X0000257874Y0000672572D01*
X0000257874Y0000666010D01*
X0000256561Y0000663385D01*
X0000255249Y0000662073D01*
X0000252624Y0000660761D01*
X0000246062Y0000660761D01*
X0000243438Y0000662073D01*
X0000242125Y0000663385D01*
X0000297244Y0000663385D02*
X0000295931Y0000662073D01*
X0000291994Y0000660761D01*
X0000289370Y0000660761D01*
X0000285433Y0000662073D01*
X0000282808Y0000664698D01*
X0000281496Y0000667322D01*
X0000280183Y0000672572D01*
X0000280183Y0000676509D01*
X0000281496Y0000681758D01*
X0000282808Y0000684383D01*
X0000285433Y0000687007D01*
X0000289370Y0000688320D01*
X0000291994Y0000688320D01*
X0000295931Y0000687007D01*
X0000297244Y0000685695D01*
X0000323490Y0000660761D02*
X0000307742Y0000660761D01*
X0000315616Y0000660761D02*
X0000315616Y0000688320D01*
X0000312992Y0000684383D01*
X0000310367Y0000681758D01*
X0000307742Y0000680446D01*
X0000340551Y0000688320D02*
X0000343175Y0000688320D01*
X0000345800Y0000687007D01*
X0000347112Y0000685695D01*
X0000348425Y0000683070D01*
X0000349737Y0000677821D01*
X0000349737Y0000671259D01*
X0000348425Y0000666010D01*
X0000347112Y0000663385D01*
X0000345800Y0000662073D01*
X0000343175Y0000660761D01*
X0000340551Y0000660761D01*
X0000337926Y0000662073D01*
X0000336614Y0000663385D01*
X0000335301Y0000666010D01*
X0000333989Y0000671259D01*
X0000333989Y0000677821D01*
X0000335301Y0000683070D01*
X0000336614Y0000685695D01*
X0000337926Y0000687007D01*
X0000340551Y0000688320D01*
X0000389107Y0000660761D02*
X0000379921Y0000673884D01*
X0000373359Y0000660761D02*
X0000373359Y0000688320D01*
X0000383858Y0000688320D01*
X0000386482Y0000687007D01*
X0000387795Y0000685695D01*
X0000389107Y0000683070D01*
X0000389107Y0000679133D01*
X0000387795Y0000676509D01*
X0000386482Y0000675196D01*
X0000383858Y0000673884D01*
X0000373359Y0000673884D01*
X0000402230Y0000660761D02*
X0000407480Y0000660761D01*
X0000410104Y0000662073D01*
X0000411417Y0000663385D01*
X0000414042Y0000667322D01*
X0000415354Y0000672572D01*
X0000415354Y0000683070D01*
X0000414042Y0000685695D01*
X0000412729Y0000687007D01*
X0000410104Y0000688320D01*
X0000404855Y0000688320D01*
X0000402230Y0000687007D01*
X0000400918Y0000685695D01*
X0000399606Y0000683070D01*
X0000399606Y0000676509D01*
X0000400918Y0000673884D01*
X0000402230Y0000672572D01*
X0000404855Y0000671259D01*
X0000410104Y0000671259D01*
X0000412729Y0000672572D01*
X0000414042Y0000673884D01*
X0000415354Y0000676509D01*
X0000467847Y0000660761D02*
X0000458661Y0000673884D01*
X0000452099Y0000660761D02*
X0000452099Y0000688320D01*
X0000462598Y0000688320D01*
X0000465223Y0000687007D01*
X0000466535Y0000685695D01*
X0000467847Y0000683070D01*
X0000467847Y0000679133D01*
X0000466535Y0000676509D01*
X0000465223Y0000675196D01*
X0000462598Y0000673884D01*
X0000452099Y0000673884D01*
X0000478346Y0000685695D02*
X0000479658Y0000687007D01*
X0000482283Y0000688320D01*
X0000488845Y0000688320D01*
X0000491469Y0000687007D01*
X0000492782Y0000685695D01*
X0000494094Y0000683070D01*
X0000494094Y0000680446D01*
X0000492782Y0000676509D01*
X0000477034Y0000660761D01*
X0000494094Y0000660761D01*
X0000743438Y0000463910D02*
X0000734251Y0000477034D01*
X0000727690Y0000463910D02*
X0000727690Y0000491469D01*
X0000738188Y0000491469D01*
X0000740813Y0000490157D01*
X0000742125Y0000488845D01*
X0000743438Y0000486220D01*
X0000743438Y0000482283D01*
X0000742125Y0000479658D01*
X0000740813Y0000478346D01*
X0000738188Y0000477034D01*
X0000727690Y0000477034D01*
X0000768372Y0000491469D02*
X0000755249Y0000491469D01*
X0000753937Y0000478346D01*
X0000755249Y0000479658D01*
X0000757874Y0000480971D01*
X0000764435Y0000480971D01*
X0000767060Y0000479658D01*
X0000768372Y0000478346D01*
X0000769685Y0000475721D01*
X0000769685Y0000469160D01*
X0000768372Y0000466535D01*
X0000767060Y0000465223D01*
X0000764435Y0000463910D01*
X0000757874Y0000463910D01*
X0000755249Y0000465223D01*
X0000753937Y0000466535D01*
X0000585957Y0000663385D02*
X0000584645Y0000662073D01*
X0000580708Y0000660761D01*
X0000578084Y0000660761D01*
X0000574147Y0000662073D01*
X0000571522Y0000664698D01*
X0000570210Y0000667322D01*
X0000568897Y0000672572D01*
X0000568897Y0000676509D01*
X0000570210Y0000681758D01*
X0000571522Y0000684383D01*
X0000574147Y0000687007D01*
X0000578084Y0000688320D01*
X0000580708Y0000688320D01*
X0000584645Y0000687007D01*
X0000585957Y0000685695D01*
X0000596456Y0000685695D02*
X0000597769Y0000687007D01*
X0000600393Y0000688320D01*
X0000606955Y0000688320D01*
X0000609580Y0000687007D01*
X0000610892Y0000685695D01*
X0000612204Y0000683070D01*
X0000612204Y0000680446D01*
X0000610892Y0000676509D01*
X0000595144Y0000660761D01*
X0000612204Y0000660761D01*
X0000585957Y0000466535D02*
X0000584645Y0000465223D01*
X0000580708Y0000463910D01*
X0000578084Y0000463910D01*
X0000574147Y0000465223D01*
X0000571522Y0000467847D01*
X0000570210Y0000470472D01*
X0000568897Y0000475721D01*
X0000568897Y0000479658D01*
X0000570210Y0000484908D01*
X0000571522Y0000487532D01*
X0000574147Y0000490157D01*
X0000578084Y0000491469D01*
X0000580708Y0000491469D01*
X0000584645Y0000490157D01*
X0000585957Y0000488845D01*
X0000595144Y0000491469D02*
X0000613517Y0000491469D01*
X0000601706Y0000463910D01*
X0000664698Y0000466535D02*
X0000663385Y0000465223D01*
X0000659448Y0000463910D01*
X0000656824Y0000463910D01*
X0000652887Y0000465223D01*
X0000650262Y0000467847D01*
X0000648950Y0000470472D01*
X0000647637Y0000475721D01*
X0000647637Y0000479658D01*
X0000648950Y0000484908D01*
X0000650262Y0000487532D01*
X0000652887Y0000490157D01*
X0000656824Y0000491469D01*
X0000659448Y0000491469D01*
X0000663385Y0000490157D01*
X0000664698Y0000488845D01*
X0000680446Y0000479658D02*
X0000677821Y0000480971D01*
X0000676509Y0000482283D01*
X0000675196Y0000484908D01*
X0000675196Y0000486220D01*
X0000676509Y0000488845D01*
X0000677821Y0000490157D01*
X0000680446Y0000491469D01*
X0000685695Y0000491469D01*
X0000688320Y0000490157D01*
X0000689632Y0000488845D01*
X0000690944Y0000486220D01*
X0000690944Y0000484908D01*
X0000689632Y0000482283D01*
X0000688320Y0000480971D01*
X0000685695Y0000479658D01*
X0000680446Y0000479658D01*
X0000677821Y0000478346D01*
X0000676509Y0000477034D01*
X0000675196Y0000474409D01*
X0000675196Y0000469160D01*
X0000676509Y0000466535D01*
X0000677821Y0000465223D01*
X0000680446Y0000463910D01*
X0000685695Y0000463910D01*
X0000688320Y0000465223D01*
X0000689632Y0000466535D01*
X0000690944Y0000469160D01*
X0000690944Y0000474409D01*
X0000689632Y0000477034D01*
X0000688320Y0000478346D01*
X0000685695Y0000479658D01*
X0000822178Y0000466535D02*
X0000820866Y0000465223D01*
X0000816929Y0000463910D01*
X0000814304Y0000463910D01*
X0000810367Y0000465223D01*
X0000807742Y0000467847D01*
X0000806430Y0000470472D01*
X0000805118Y0000475721D01*
X0000805118Y0000479658D01*
X0000806430Y0000484908D01*
X0000807742Y0000487532D01*
X0000810367Y0000490157D01*
X0000814304Y0000491469D01*
X0000816929Y0000491469D01*
X0000820866Y0000490157D01*
X0000822178Y0000488845D01*
X0000845800Y0000482283D02*
X0000845800Y0000463910D01*
X0000839238Y0000492782D02*
X0000832677Y0000473097D01*
X0000849737Y0000473097D01*
X0000743438Y0000227690D02*
X0000734251Y0000240813D01*
X0000727690Y0000227690D02*
X0000727690Y0000255249D01*
X0000738188Y0000255249D01*
X0000740813Y0000253937D01*
X0000742125Y0000252624D01*
X0000743438Y0000249999D01*
X0000743438Y0000246062D01*
X0000742125Y0000243438D01*
X0000740813Y0000242125D01*
X0000738188Y0000240813D01*
X0000727690Y0000240813D01*
X0000767060Y0000246062D02*
X0000767060Y0000227690D01*
X0000760498Y0000256561D02*
X0000753937Y0000236876D01*
X0000770997Y0000236876D01*
X0000805118Y0000660761D02*
X0000795931Y0000673884D01*
X0000789370Y0000660761D02*
X0000789370Y0000688320D01*
X0000799868Y0000688320D01*
X0000802493Y0000687007D01*
X0000803805Y0000685695D01*
X0000805118Y0000683070D01*
X0000805118Y0000679133D01*
X0000803805Y0000676509D01*
X0000802493Y0000675196D01*
X0000799868Y0000673884D01*
X0000789370Y0000673884D01*
X0000831364Y0000660761D02*
X0000815616Y0000660761D01*
X0000823490Y0000660761D02*
X0000823490Y0000688320D01*
X0000820866Y0000684383D01*
X0000818241Y0000681758D01*
X0000815616Y0000680446D01*
X0000857611Y0000660761D02*
X0000841863Y0000660761D01*
X0000849737Y0000660761D02*
X0000849737Y0000688320D01*
X0000847112Y0000684383D01*
X0000844488Y0000681758D01*
X0000841863Y0000680446D01*
X0000227690Y0000230314D02*
X0000226377Y0000229002D01*
X0000222440Y0000227690D01*
X0000219816Y0000227690D01*
X0000215879Y0000229002D01*
X0000213254Y0000231627D01*
X0000211942Y0000234251D01*
X0000210629Y0000239501D01*
X0000210629Y0000243438D01*
X0000211942Y0000248687D01*
X0000213254Y0000251312D01*
X0000215879Y0000253937D01*
X0000219816Y0000255249D01*
X0000222440Y0000255249D01*
X0000226377Y0000253937D01*
X0000227690Y0000252624D01*
X0000253936Y0000227690D02*
X0000238188Y0000227690D01*
X0000246062Y0000227690D02*
X0000246062Y0000255249D01*
X0000243438Y0000251312D01*
X0000240813Y0000248687D01*
X0000238188Y0000247375D01*
X0000664698Y0000230314D02*
X0000663385Y0000229002D01*
X0000659448Y0000227690D01*
X0000656824Y0000227690D01*
X0000652887Y0000229002D01*
X0000650262Y0000231627D01*
X0000648950Y0000234251D01*
X0000647637Y0000239501D01*
X0000647637Y0000243438D01*
X0000648950Y0000248687D01*
X0000650262Y0000251312D01*
X0000652887Y0000253937D01*
X0000656824Y0000255249D01*
X0000659448Y0000255249D01*
X0000663385Y0000253937D01*
X0000664698Y0000252624D01*
X0000673884Y0000255249D02*
X0000690944Y0000255249D01*
X0000681758Y0000244750D01*
X0000685695Y0000244750D01*
X0000688320Y0000243438D01*
X0000689632Y0000242125D01*
X0000690944Y0000239501D01*
X0000690944Y0000232939D01*
X0000689632Y0000230314D01*
X0000688320Y0000229002D01*
X0000685695Y0000227690D01*
X0000677821Y0000227690D01*
X0000675196Y0000229002D01*
X0000673884Y0000230314D01*
X0000375984Y0000230314D02*
X0000374671Y0000229002D01*
X0000370734Y0000227690D01*
X0000368110Y0000227690D01*
X0000364173Y0000229002D01*
X0000361548Y0000231627D01*
X0000360236Y0000234251D01*
X0000358923Y0000239501D01*
X0000358923Y0000243438D01*
X0000360236Y0000248687D01*
X0000361548Y0000251312D01*
X0000364173Y0000253937D01*
X0000368110Y0000255249D01*
X0000370734Y0000255249D01*
X0000374671Y0000253937D01*
X0000375984Y0000252624D01*
X0000402230Y0000227690D02*
X0000386482Y0000227690D01*
X0000394356Y0000227690D02*
X0000394356Y0000255249D01*
X0000391732Y0000251312D01*
X0000389107Y0000248687D01*
X0000386482Y0000247375D01*
X0000428477Y0000227690D02*
X0000412729Y0000227690D01*
X0000420603Y0000227690D02*
X0000420603Y0000255249D01*
X0000417979Y0000251312D01*
X0000415354Y0000248687D01*
X0000412729Y0000247375D01*
X0000310367Y0000227690D02*
X0000301181Y0000240813D01*
X0000294619Y0000227690D02*
X0000294619Y0000255249D01*
X0000305118Y0000255249D01*
X0000307742Y0000253937D01*
X0000309055Y0000252624D01*
X0000310367Y0000249999D01*
X0000310367Y0000246062D01*
X0000309055Y0000243438D01*
X0000307742Y0000242125D01*
X0000305118Y0000240813D01*
X0000294619Y0000240813D01*
X0000336614Y0000227690D02*
X0000320866Y0000227690D01*
X0000328740Y0000227690D02*
X0000328740Y0000255249D01*
X0000326115Y0000251312D01*
X0000323490Y0000248687D01*
X0000320866Y0000247375D01*
X0000822178Y0000227690D02*
X0000812992Y0000240813D01*
X0000806430Y0000227690D02*
X0000806430Y0000255249D01*
X0000816929Y0000255249D01*
X0000819553Y0000253937D01*
X0000820866Y0000252624D01*
X0000822178Y0000249999D01*
X0000822178Y0000246062D01*
X0000820866Y0000243438D01*
X0000819553Y0000242125D01*
X0000816929Y0000240813D01*
X0000806430Y0000240813D01*
X0000831364Y0000255249D02*
X0000848425Y0000255249D01*
X0000839238Y0000244750D01*
X0000843175Y0000244750D01*
X0000845800Y0000243438D01*
X0000847112Y0000242125D01*
X0000848425Y0000239501D01*
X0000848425Y0000232939D01*
X0000847112Y0000230314D01*
X0000845800Y0000229002D01*
X0000843175Y0000227690D01*
X0000835301Y0000227690D01*
X0000832677Y0000229002D01*
X0000831364Y0000230314D01*
G04 next file*
G04 #@! TF.FileFunction,Legend,Top*
G04 Gerber Fmt 4.6, Leading zero omitted, Abs format (unit mm)*
G04 Created by KiCad (PCBNEW 4.0.4-1.fc24-product) date Tue Jun 12 13:21:53 2018*
G01G01*
G04 APERTURE LIST*
G04 APERTURE END LIST*
D24*
D25*
X0001264763Y0000626968D02*
X0001270472Y0000626968D01*
X0001264763Y0000790354D02*
X0001270472Y0000790354D01*
X0001467519Y0000790354D02*
X0001461811Y0000790354D01*
X0001467519Y0000626968D02*
X0001461811Y0000626968D01*
X0001264763Y0000626968D02*
X0001264763Y0000790354D01*
X0001467519Y0000626968D02*
X0001467519Y0000790354D01*
X0001270472Y0000626968D02*
X0001270472Y0000571850D01*
X0001692913Y0000171259D02*
X0001653543Y0000171259D01*
X0001653543Y0000104330D02*
X0001692913Y0000104330D01*
X0001653543Y0000399606D02*
X0001692913Y0000399606D01*
X0001692913Y0000466535D02*
X0001653543Y0000466535D01*
X0001653543Y0000596456D02*
X0001692913Y0000596456D01*
X0001692913Y0000663385D02*
X0001653543Y0000663385D01*
X0001116141Y0000535433D02*
X0001143700Y0000535433D01*
X0001143700Y0000488188D02*
X0001116141Y0000488188D01*
X0001307086Y0000891732D02*
X0001346456Y0000891732D01*
X0001346456Y0000958661D02*
X0001307086Y0000958661D01*
X0001653543Y0000262795D02*
X0001692913Y0000262795D01*
X0001692913Y0000209645D02*
X0001653543Y0000209645D01*
X0001653543Y0000361220D02*
X0001692913Y0000361220D01*
X0001692913Y0000308070D02*
X0001653543Y0000308070D01*
X0001653543Y0000577755D02*
X0001692913Y0000577755D01*
X0001692913Y0000524606D02*
X0001653543Y0000524606D01*
X0001110236Y0000636811D02*
X0001149606Y0000636811D01*
X0001149606Y0000583661D02*
X0001110236Y0000583661D01*
X0001110236Y0000833661D02*
X0001149606Y0000833661D01*
X0001149606Y0000780511D02*
X0001110236Y0000780511D01*
X0001110236Y0000951771D02*
X0001149606Y0000951771D01*
X0001149606Y0000898622D02*
X0001110236Y0000898622D01*
X0001692913Y0000682086D02*
X0001653543Y0000682086D01*
X0001653543Y0000735236D02*
X0001692913Y0000735236D01*
X0001213254Y0000687664D02*
X0001235564Y0000687664D01*
X0001238188Y0000688976D01*
X0001239501Y0000690288D01*
X0001240813Y0000692913D01*
X0001240813Y0000698162D01*
X0001239501Y0000700787D01*
X0001238188Y0000702099D01*
X0001235564Y0000703412D01*
X0001213254Y0000703412D01*
X0001240813Y0000730971D02*
X0001240813Y0000715223D01*
X0001240813Y0000723097D02*
X0001213254Y0000723097D01*
X0001217191Y0000720472D01*
X0001219816Y0000717847D01*
X0001221128Y0000715223D01*
X0001588582Y0000133202D02*
X0001589895Y0000131889D01*
X0001591207Y0000127952D01*
X0001591207Y0000125328D01*
X0001589895Y0000121391D01*
X0001587270Y0000118766D01*
X0001584645Y0000117454D01*
X0001579396Y0000116141D01*
X0001575459Y0000116141D01*
X0001570209Y0000117454D01*
X0001567585Y0000118766D01*
X0001564960Y0000121391D01*
X0001563648Y0000125328D01*
X0001563648Y0000127952D01*
X0001564960Y0000131889D01*
X0001566272Y0000133202D01*
X0001591207Y0000159448D02*
X0001591207Y0000143700D01*
X0001591207Y0000151574D02*
X0001563648Y0000151574D01*
X0001567585Y0000148950D01*
X0001570209Y0000146325D01*
X0001571522Y0000143700D01*
X0001588582Y0000428477D02*
X0001589895Y0000427165D01*
X0001591207Y0000423228D01*
X0001591207Y0000420603D01*
X0001589895Y0000416666D01*
X0001587270Y0000414042D01*
X0001584645Y0000412729D01*
X0001579396Y0000411417D01*
X0001575459Y0000411417D01*
X0001570209Y0000412729D01*
X0001567585Y0000414042D01*
X0001564960Y0000416666D01*
X0001563648Y0000420603D01*
X0001563648Y0000423228D01*
X0001564960Y0000427165D01*
X0001566272Y0000428477D01*
X0001566272Y0000438976D02*
X0001564960Y0000440288D01*
X0001563648Y0000442913D01*
X0001563648Y0000449475D01*
X0001564960Y0000452099D01*
X0001566272Y0000453412D01*
X0001568897Y0000454724D01*
X0001571522Y0000454724D01*
X0001575459Y0000453412D01*
X0001591207Y0000437664D01*
X0001591207Y0000454724D01*
X0001588582Y0000625328D02*
X0001589895Y0000624015D01*
X0001591207Y0000620078D01*
X0001591207Y0000617454D01*
X0001589895Y0000613517D01*
X0001587270Y0000610892D01*
X0001584645Y0000609580D01*
X0001579396Y0000608267D01*
X0001575459Y0000608267D01*
X0001570209Y0000609580D01*
X0001567585Y0000610892D01*
X0001564960Y0000613517D01*
X0001563648Y0000617454D01*
X0001563648Y0000620078D01*
X0001564960Y0000624015D01*
X0001566272Y0000625328D01*
X0001563648Y0000634514D02*
X0001563648Y0000651574D01*
X0001574146Y0000642388D01*
X0001574146Y0000646325D01*
X0001575459Y0000648950D01*
X0001576771Y0000650262D01*
X0001579396Y0000651574D01*
X0001585957Y0000651574D01*
X0001588582Y0000650262D01*
X0001589895Y0000648950D01*
X0001591207Y0000646325D01*
X0001591207Y0000638451D01*
X0001589895Y0000635826D01*
X0001588582Y0000634514D01*
X0001049212Y0000507217D02*
X0001050524Y0000505905D01*
X0001051837Y0000501968D01*
X0001051837Y0000499343D01*
X0001050524Y0000495406D01*
X0001047900Y0000492782D01*
X0001045275Y0000491469D01*
X0001040026Y0000490157D01*
X0001036089Y0000490157D01*
X0001030839Y0000491469D01*
X0001028215Y0000492782D01*
X0001025590Y0000495406D01*
X0001024278Y0000499343D01*
X0001024278Y0000501968D01*
X0001025590Y0000505905D01*
X0001026902Y0000507217D01*
X0001033464Y0000530839D02*
X0001051837Y0000530839D01*
X0001022965Y0000524278D02*
X0001042650Y0000517716D01*
X0001042650Y0000534776D01*
X0001253937Y0000916666D02*
X0001255249Y0000915354D01*
X0001256561Y0000911417D01*
X0001256561Y0000908792D01*
X0001255249Y0000904855D01*
X0001252624Y0000902230D01*
X0001250000Y0000900918D01*
X0001244750Y0000899606D01*
X0001240813Y0000899606D01*
X0001235564Y0000900918D01*
X0001232939Y0000902230D01*
X0001230314Y0000904855D01*
X0001229002Y0000908792D01*
X0001229002Y0000911417D01*
X0001230314Y0000915354D01*
X0001231627Y0000916666D01*
X0001229002Y0000940288D02*
X0001229002Y0000935039D01*
X0001230314Y0000932414D01*
X0001231627Y0000931102D01*
X0001235564Y0000928477D01*
X0001240813Y0000927165D01*
X0001251312Y0000927165D01*
X0001253937Y0000928477D01*
X0001255249Y0000929790D01*
X0001256561Y0000932414D01*
X0001256561Y0000937664D01*
X0001255249Y0000940288D01*
X0001253937Y0000941601D01*
X0001251312Y0000942913D01*
X0001244750Y0000942913D01*
X0001242125Y0000941601D01*
X0001240813Y0000940288D01*
X0001239501Y0000937664D01*
X0001239501Y0000932414D01*
X0001240813Y0000929790D01*
X0001242125Y0000928477D01*
X0001244750Y0000927165D01*
X0001591207Y0000231627D02*
X0001578083Y0000222440D01*
X0001591207Y0000215879D02*
X0001563648Y0000215879D01*
X0001563648Y0000226377D01*
X0001564960Y0000229002D01*
X0001566272Y0000230314D01*
X0001568897Y0000231627D01*
X0001572834Y0000231627D01*
X0001575459Y0000230314D01*
X0001576771Y0000229002D01*
X0001578083Y0000226377D01*
X0001578083Y0000215879D01*
X0001591207Y0000257874D02*
X0001591207Y0000242125D01*
X0001591207Y0000249999D02*
X0001563648Y0000249999D01*
X0001567585Y0000247375D01*
X0001570209Y0000244750D01*
X0001571522Y0000242125D01*
X0001591207Y0000330052D02*
X0001578083Y0000320866D01*
X0001591207Y0000314304D02*
X0001563648Y0000314304D01*
X0001563648Y0000324803D01*
X0001564960Y0000327427D01*
X0001566272Y0000328740D01*
X0001568897Y0000330052D01*
X0001572834Y0000330052D01*
X0001575459Y0000328740D01*
X0001576771Y0000327427D01*
X0001578083Y0000324803D01*
X0001578083Y0000314304D01*
X0001566272Y0000340551D02*
X0001564960Y0000341863D01*
X0001563648Y0000344488D01*
X0001563648Y0000351049D01*
X0001564960Y0000353674D01*
X0001566272Y0000354986D01*
X0001568897Y0000356299D01*
X0001571522Y0000356299D01*
X0001575459Y0000354986D01*
X0001591207Y0000339238D01*
X0001591207Y0000356299D01*
X0001591207Y0000546587D02*
X0001578083Y0000537401D01*
X0001591207Y0000530839D02*
X0001563648Y0000530839D01*
X0001563648Y0000541338D01*
X0001564960Y0000543963D01*
X0001566272Y0000545275D01*
X0001568897Y0000546587D01*
X0001572834Y0000546587D01*
X0001575459Y0000545275D01*
X0001576771Y0000543963D01*
X0001578083Y0000541338D01*
X0001578083Y0000530839D01*
X0001563648Y0000555774D02*
X0001563648Y0000572834D01*
X0001574146Y0000563648D01*
X0001574146Y0000567585D01*
X0001575459Y0000570210D01*
X0001576771Y0000571522D01*
X0001579396Y0000572834D01*
X0001585957Y0000572834D01*
X0001588582Y0000571522D01*
X0001589895Y0000570210D01*
X0001591207Y0000567585D01*
X0001591207Y0000559711D01*
X0001589895Y0000557086D01*
X0001588582Y0000555774D01*
X0001051837Y0000605643D02*
X0001038713Y0000596456D01*
X0001051837Y0000589895D02*
X0001024278Y0000589895D01*
X0001024278Y0000600393D01*
X0001025590Y0000603018D01*
X0001026902Y0000604330D01*
X0001029527Y0000605643D01*
X0001033464Y0000605643D01*
X0001036089Y0000604330D01*
X0001037401Y0000603018D01*
X0001038713Y0000600393D01*
X0001038713Y0000589895D01*
X0001024278Y0000629265D02*
X0001024278Y0000624015D01*
X0001025590Y0000621391D01*
X0001026902Y0000620078D01*
X0001030839Y0000617454D01*
X0001036089Y0000616141D01*
X0001046587Y0000616141D01*
X0001049212Y0000617454D01*
X0001050524Y0000618766D01*
X0001051837Y0000621391D01*
X0001051837Y0000626640D01*
X0001050524Y0000629265D01*
X0001049212Y0000630577D01*
X0001046587Y0000631889D01*
X0001040026Y0000631889D01*
X0001037401Y0000630577D01*
X0001036089Y0000629265D01*
X0001034776Y0000626640D01*
X0001034776Y0000621391D01*
X0001036089Y0000618766D01*
X0001037401Y0000617454D01*
X0001040026Y0000616141D01*
X0001051837Y0000802493D02*
X0001038713Y0000793307D01*
X0001051837Y0000786745D02*
X0001024278Y0000786745D01*
X0001024278Y0000797244D01*
X0001025590Y0000799868D01*
X0001026902Y0000801181D01*
X0001029527Y0000802493D01*
X0001033464Y0000802493D01*
X0001036089Y0000801181D01*
X0001037401Y0000799868D01*
X0001038713Y0000797244D01*
X0001038713Y0000786745D01*
X0001036089Y0000818241D02*
X0001034776Y0000815616D01*
X0001033464Y0000814304D01*
X0001030839Y0000812992D01*
X0001029527Y0000812992D01*
X0001026902Y0000814304D01*
X0001025590Y0000815616D01*
X0001024278Y0000818241D01*
X0001024278Y0000823490D01*
X0001025590Y0000826115D01*
X0001026902Y0000827427D01*
X0001029527Y0000828740D01*
X0001030839Y0000828740D01*
X0001033464Y0000827427D01*
X0001034776Y0000826115D01*
X0001036089Y0000823490D01*
X0001036089Y0000818241D01*
X0001037401Y0000815616D01*
X0001038713Y0000814304D01*
X0001041338Y0000812992D01*
X0001046587Y0000812992D01*
X0001049212Y0000814304D01*
X0001050524Y0000815616D01*
X0001051837Y0000818241D01*
X0001051837Y0000823490D01*
X0001050524Y0000826115D01*
X0001049212Y0000827427D01*
X0001046587Y0000828740D01*
X0001041338Y0000828740D01*
X0001038713Y0000827427D01*
X0001037401Y0000826115D01*
X0001036089Y0000823490D01*
X0001051837Y0000920603D02*
X0001038713Y0000911417D01*
X0001051837Y0000904855D02*
X0001024278Y0000904855D01*
X0001024278Y0000915354D01*
X0001025590Y0000917978D01*
X0001026902Y0000919291D01*
X0001029527Y0000920603D01*
X0001033464Y0000920603D01*
X0001036089Y0000919291D01*
X0001037401Y0000917978D01*
X0001038713Y0000915354D01*
X0001038713Y0000904855D01*
X0001051837Y0000933727D02*
X0001051837Y0000938976D01*
X0001050524Y0000941601D01*
X0001049212Y0000942913D01*
X0001045275Y0000945538D01*
X0001040026Y0000946850D01*
X0001029527Y0000946850D01*
X0001026902Y0000945538D01*
X0001025590Y0000944225D01*
X0001024278Y0000941601D01*
X0001024278Y0000936351D01*
X0001025590Y0000933727D01*
X0001026902Y0000932414D01*
X0001029527Y0000931102D01*
X0001036089Y0000931102D01*
X0001038713Y0000932414D01*
X0001040026Y0000933727D01*
X0001041338Y0000936351D01*
X0001041338Y0000941601D01*
X0001040026Y0000944225D01*
X0001038713Y0000945538D01*
X0001036089Y0000946850D01*
X0001591207Y0000690944D02*
X0001578083Y0000681758D01*
X0001591207Y0000675196D02*
X0001563648Y0000675196D01*
X0001563648Y0000685695D01*
X0001564960Y0000688320D01*
X0001566272Y0000689632D01*
X0001568897Y0000690944D01*
X0001572834Y0000690944D01*
X0001575459Y0000689632D01*
X0001576771Y0000688320D01*
X0001578083Y0000685695D01*
X0001578083Y0000675196D01*
X0001591207Y0000717191D02*
X0001591207Y0000701443D01*
X0001591207Y0000709317D02*
X0001563648Y0000709317D01*
X0001567585Y0000706692D01*
X0001570209Y0000704068D01*
X0001571522Y0000701443D01*
X0001563648Y0000734251D02*
X0001563648Y0000736876D01*
X0001564960Y0000739501D01*
X0001566272Y0000740813D01*
X0001568897Y0000742125D01*
X0001574146Y0000743438D01*
X0001580708Y0000743438D01*
X0001585957Y0000742125D01*
X0001588582Y0000740813D01*
X0001589895Y0000739501D01*
X0001591207Y0000736876D01*
X0001591207Y0000734251D01*
X0001589895Y0000731627D01*
X0001588582Y0000730314D01*
X0001585957Y0000729002D01*
X0001580708Y0000727690D01*
X0001574146Y0000727690D01*
X0001568897Y0000729002D01*
X0001566272Y0000730314D01*
X0001564960Y0000731627D01*
X0001563648Y0000734251D01*
G04 next file*
G04 #@! TF.FileFunction,Legend,Top*
G04 Gerber Fmt 4.6, Leading zero omitted, Abs format (unit mm)*
G04 Created by KiCad (PCBNEW 4.0.4-1.fc24-product) date Tue Jun 12 13:21:22 2018*
G01G01*
G04 APERTURE LIST*
G04 APERTURE END LIST*
D26*
D27*
X0000633464Y0002896456D02*
X0000633464Y0003001181D01*
X0000231102Y0002896456D02*
X0000633464Y0002896456D01*
X0000231102Y0003001181D02*
X0000633464Y0003001181D01*
X0000231102Y0002896456D02*
X0000231102Y0003001181D01*
X0000181102Y0002896456D02*
X0000128740Y0002896456D01*
X0000128740Y0002896456D02*
X0000128740Y0002948818D01*
X0000633464Y0002780314D02*
X0000633464Y0002885039D01*
X0000231102Y0002780314D02*
X0000633464Y0002780314D01*
X0000231102Y0002885039D02*
X0000633464Y0002885039D01*
X0000231102Y0002780314D02*
X0000231102Y0002885039D01*
X0000181102Y0002780314D02*
X0000128740Y0002780314D01*
X0000128740Y0002780314D02*
X0000128740Y0002832677D01*
X0000633464Y0002664173D02*
X0000633464Y0002768897D01*
X0000231102Y0002664173D02*
X0000633464Y0002664173D01*
X0000231102Y0002768897D02*
X0000633464Y0002768897D01*
X0000231102Y0002664173D02*
X0000231102Y0002768897D01*
X0000181102Y0002664173D02*
X0000128740Y0002664173D01*
X0000128740Y0002664173D02*
X0000128740Y0002716535D01*
D28*
X0000877990Y0002774373D02*
X0000877990Y0002553973D01*
X0000897590Y0002561773D02*
X0000877990Y0002561773D01*
X0000877990Y0002766573D02*
X0000897590Y0002766573D01*
X0000897590Y0002664173D02*
X0000877990Y0002664173D01*
X0000669290Y0002553973D02*
X0000669290Y0002774373D01*
X0000897590Y0002553973D02*
X0000897590Y0002774373D01*
X0000897590Y0002774373D02*
X0000653590Y0002774373D01*
X0000653590Y0002774373D02*
X0000653590Y0002553973D01*
X0000653590Y0002553973D02*
X0000897590Y0002553973D01*
X0000653590Y0002533840D02*
X0000653590Y0002211040D01*
X0000669290Y0002533840D02*
X0000669290Y0002211040D01*
X0000877990Y0002533840D02*
X0000877990Y0002211040D01*
X0000897590Y0002211040D02*
X0000897590Y0002533840D01*
X0000877990Y0002423640D02*
X0000897590Y0002423640D01*
X0000897590Y0002218940D02*
X0000877990Y0002218940D01*
X0000877990Y0002526040D02*
X0000897590Y0002526040D01*
X0000897590Y0002321340D02*
X0000877990Y0002321340D01*
X0000897590Y0002533840D02*
X0000653590Y0002533840D01*
X0000653590Y0002211140D02*
X0000897590Y0002211140D01*
X0000642388Y0002939632D02*
X0000662073Y0002939632D01*
X0000666010Y0002938320D01*
X0000668635Y0002935695D01*
X0000669947Y0002931758D01*
X0000669947Y0002929133D01*
X0000642388Y0002950131D02*
X0000642388Y0002967191D01*
X0000652887Y0002958005D01*
X0000652887Y0002961942D01*
X0000654199Y0002964566D01*
X0000655511Y0002965879D01*
X0000658136Y0002967191D01*
X0000664698Y0002967191D01*
X0000667322Y0002965879D01*
X0000668635Y0002964566D01*
X0000669947Y0002961942D01*
X0000669947Y0002954068D01*
X0000668635Y0002951443D01*
X0000667322Y0002950131D01*
X0000642388Y0002823490D02*
X0000662073Y0002823490D01*
X0000666010Y0002822178D01*
X0000668635Y0002819553D01*
X0000669947Y0002815616D01*
X0000669947Y0002812992D01*
X0000669947Y0002851049D02*
X0000669947Y0002835301D01*
X0000669947Y0002843175D02*
X0000642388Y0002843175D01*
X0000646325Y0002840551D01*
X0000648950Y0002837926D01*
X0000650262Y0002835301D01*
X0000166010Y0002624671D02*
X0000185695Y0002624671D01*
X0000189632Y0002623359D01*
X0000192257Y0002620734D01*
X0000193569Y0002616797D01*
X0000193569Y0002614173D01*
X0000168635Y0002636482D02*
X0000167322Y0002637795D01*
X0000166010Y0002640419D01*
X0000166010Y0002646981D01*
X0000167322Y0002649606D01*
X0000168635Y0002650918D01*
X0000171259Y0002652230D01*
X0000173884Y0002652230D01*
X0000177821Y0002650918D01*
X0000193569Y0002635170D01*
X0000193569Y0002652230D01*
X0000614829Y0002604986D02*
X0000634514Y0002604986D01*
X0000638451Y0002603674D01*
X0000641076Y0002601049D01*
X0000642388Y0002597112D01*
X0000642388Y0002594488D01*
X0000624015Y0002629921D02*
X0000642388Y0002629921D01*
X0000613517Y0002623359D02*
X0000633202Y0002616797D01*
X0000633202Y0002633858D01*
X0000614829Y0002262467D02*
X0000634514Y0002262467D01*
X0000638451Y0002261154D01*
X0000641076Y0002258530D01*
X0000642388Y0002254593D01*
X0000642388Y0002251968D01*
X0000614829Y0002288713D02*
X0000614829Y0002275590D01*
X0000627952Y0002274278D01*
X0000626640Y0002275590D01*
X0000625328Y0002278215D01*
X0000625328Y0002284776D01*
X0000626640Y0002287401D01*
X0000627952Y0002288713D01*
X0000630577Y0002290026D01*
X0000637139Y0002290026D01*
X0000639763Y0002288713D01*
X0000641076Y0002287401D01*
X0000642388Y0002284776D01*
X0000642388Y0002278215D01*
X0000641076Y0002275590D01*
X0000639763Y0002274278D01*
G04 next file*
G36*
X0000663300Y0001945899D02*
G01G01*
X0000664200Y0001946000D01*
X0000664999Y0001946400D01*
X0000665599Y0001947100D01*
X0000666100Y0001947900D01*
X0000666200Y0001948800D01*
X0000666100Y0001949700D01*
X0000665599Y0001950600D01*
X0000664999Y0001951200D01*
X0000664200Y0001951600D01*
X0000663300Y0001951800D01*
X0000163299Y0001951800D01*
X0000162300Y0001951600D01*
X0000161500Y0001951200D01*
X0000160900Y0001950600D01*
X0000160400Y0001949700D01*
X0000160299Y0001948800D01*
X0000160400Y0001947900D01*
X0000160900Y0001947100D01*
X0000161500Y0001946400D01*
X0000162300Y0001946000D01*
X0000163299Y0001945899D01*
X0000663300Y0001945899D01*
G37*
G36*
X0000160299Y0001122100D02*
G01G01*
X0000166200Y0001122100D01*
X0000166200Y0001948800D01*
X0000166100Y0001949700D01*
X0000165599Y0001950600D01*
X0000165000Y0001951200D01*
X0000164200Y0001951600D01*
X0000163299Y0001951800D01*
X0000162300Y0001951600D01*
X0000161500Y0001951200D01*
X0000160900Y0001950600D01*
X0000160400Y0001949700D01*
X0000160299Y0001948800D01*
X0000160299Y0001122100D01*
G37*
G36*
X0000160299Y0001122100D02*
G01G01*
X0000666200Y0001122100D01*
X0000666100Y0001123000D01*
X0000665599Y0001123800D01*
X0000664999Y0001124500D01*
X0000664200Y0001124900D01*
X0000663300Y0001125000D01*
X0000163299Y0001125000D01*
X0000162300Y0001124900D01*
X0000161500Y0001124500D01*
X0000160900Y0001123800D01*
X0000160400Y0001123000D01*
X0000160299Y0001122100D01*
G37*
G36*
X0000660300Y0001122100D02*
G01G01*
X0000666200Y0001122100D01*
X0000666200Y0001948800D01*
X0000666100Y0001949700D01*
X0000665599Y0001950600D01*
X0000664999Y0001951200D01*
X0000664200Y0001951600D01*
X0000663300Y0001951800D01*
X0000662299Y0001951600D01*
X0000661500Y0001951200D01*
X0000660900Y0001950600D01*
X0000660400Y0001949700D01*
X0000660300Y0001948800D01*
X0000660300Y0001122100D01*
G37*
G36*
X0000370300Y0001892600D02*
G01G01*
X0000371200Y0001892800D01*
X0000372099Y0001893200D01*
X0000372700Y0001893900D01*
X0000373100Y0001894700D01*
X0000373300Y0001895600D01*
X0000373100Y0001896500D01*
X0000372700Y0001897299D01*
X0000372099Y0001898000D01*
X0000371200Y0001898400D01*
X0000365600Y0001900300D01*
X0000364700Y0001900400D01*
X0000363800Y0001900300D01*
X0000362999Y0001899900D01*
X0000362300Y0001899200D01*
X0000361900Y0001898400D01*
X0000361700Y0001897499D01*
X0000361900Y0001896600D01*
X0000362300Y0001895700D01*
X0000362999Y0001895100D01*
X0000363800Y0001894700D01*
X0000369400Y0001892800D01*
X0000370300Y0001892600D01*
G37*
G36*
X0000379699Y0001892600D02*
G01G01*
X0000380600Y0001892800D01*
X0000381400Y0001893200D01*
X0000382100Y0001893900D01*
X0000382500Y0001894700D01*
X0000382699Y0001895600D01*
X0000382500Y0001896500D01*
X0000382100Y0001897299D01*
X0000381400Y0001898000D01*
X0000380600Y0001898400D01*
X0000379699Y0001898500D01*
X0000370300Y0001898500D01*
X0000369400Y0001898400D01*
X0000368600Y0001898000D01*
X0000367900Y0001897299D01*
X0000367499Y0001896500D01*
X0000367399Y0001895600D01*
X0000367499Y0001894700D01*
X0000367900Y0001893900D01*
X0000368600Y0001893200D01*
X0000369400Y0001892800D01*
X0000370300Y0001892600D01*
X0000379699Y0001892600D01*
G37*
G36*
X0000379699Y0001892600D02*
G01G01*
X0000380600Y0001892800D01*
X0000384400Y0001894700D01*
X0000385200Y0001895100D01*
X0000385799Y0001895700D01*
X0000386300Y0001896600D01*
X0000386400Y0001897499D01*
X0000386300Y0001898400D01*
X0000385799Y0001899200D01*
X0000385200Y0001899900D01*
X0000384400Y0001900300D01*
X0000383400Y0001900400D01*
X0000382500Y0001900300D01*
X0000378800Y0001898400D01*
X0000378000Y0001898000D01*
X0000377300Y0001897299D01*
X0000376900Y0001896500D01*
X0000376699Y0001895600D01*
X0000376900Y0001894700D01*
X0000377300Y0001893900D01*
X0000378000Y0001893200D01*
X0000378800Y0001892800D01*
X0000379699Y0001892600D01*
G37*
G36*
X0000383400Y0001894500D02*
G01G01*
X0000384400Y0001894700D01*
X0000385200Y0001895100D01*
X0000387700Y0001897600D01*
X0000388100Y0001898400D01*
X0000388300Y0001899300D01*
X0000388100Y0001900300D01*
X0000387700Y0001901100D01*
X0000387100Y0001901700D01*
X0000386200Y0001902100D01*
X0000385300Y0001902300D01*
X0000384400Y0001902100D01*
X0000383600Y0001901700D01*
X0000381099Y0001899200D01*
X0000380600Y0001898400D01*
X0000380500Y0001897499D01*
X0000380600Y0001896600D01*
X0000381099Y0001895700D01*
X0000381700Y0001895100D01*
X0000382500Y0001894700D01*
X0000383400Y0001894500D01*
G37*
G36*
X0000385300Y0001896400D02*
G01G01*
X0000386200Y0001896500D01*
X0000387100Y0001897000D01*
X0000387700Y0001897600D01*
X0000388100Y0001898400D01*
X0000390000Y0001902200D01*
X0000390100Y0001903099D01*
X0000390000Y0001904000D01*
X0000389600Y0001904800D01*
X0000388900Y0001905500D01*
X0000388100Y0001905900D01*
X0000387199Y0001906000D01*
X0000386300Y0001905900D01*
X0000385500Y0001905500D01*
X0000384800Y0001904800D01*
X0000384400Y0001904000D01*
X0000382500Y0001900300D01*
X0000382400Y0001899300D01*
X0000382500Y0001898400D01*
X0000382900Y0001897600D01*
X0000383600Y0001897000D01*
X0000384400Y0001896500D01*
X0000385300Y0001896400D01*
G37*
G36*
X0000387199Y0001900100D02*
G01G01*
X0000388100Y0001900300D01*
X0000388900Y0001900700D01*
X0000389600Y0001901400D01*
X0000390000Y0001902200D01*
X0000390100Y0001903099D01*
X0000390100Y0001906800D01*
X0000390000Y0001907800D01*
X0000389600Y0001908600D01*
X0000388900Y0001909200D01*
X0000388100Y0001909600D01*
X0000387199Y0001909800D01*
X0000386300Y0001909600D01*
X0000385500Y0001909200D01*
X0000384800Y0001908600D01*
X0000384400Y0001907800D01*
X0000384199Y0001906800D01*
X0000384199Y0001903099D01*
X0000384400Y0001902200D01*
X0000384800Y0001901400D01*
X0000385500Y0001900700D01*
X0000386300Y0001900300D01*
X0000387199Y0001900100D01*
G37*
G36*
X0000387199Y0001903899D02*
G01G01*
X0000388100Y0001904000D01*
X0000388900Y0001904400D01*
X0000389600Y0001905100D01*
X0000390000Y0001905900D01*
X0000390100Y0001906800D01*
X0000390000Y0001907800D01*
X0000388100Y0001911500D01*
X0000387700Y0001912300D01*
X0000387100Y0001913000D01*
X0000386200Y0001913400D01*
X0000385300Y0001913500D01*
X0000384400Y0001913400D01*
X0000383600Y0001913000D01*
X0000382900Y0001912300D01*
X0000382500Y0001911500D01*
X0000382400Y0001910600D01*
X0000382500Y0001909699D01*
X0000382500Y0001909600D01*
X0000384400Y0001905900D01*
X0000384800Y0001905100D01*
X0000385500Y0001904400D01*
X0000386300Y0001904000D01*
X0000387199Y0001903899D01*
G37*
G36*
X0000385300Y0001907600D02*
G01G01*
X0000386200Y0001907800D01*
X0000387100Y0001908200D01*
X0000387700Y0001908899D01*
X0000388100Y0001909699D01*
X0000388300Y0001910600D01*
X0000388100Y0001911500D01*
X0000387700Y0001912300D01*
X0000385200Y0001914899D01*
X0000384400Y0001915299D01*
X0000383400Y0001915400D01*
X0000382500Y0001915299D01*
X0000381700Y0001914899D01*
X0000381099Y0001914200D01*
X0000380600Y0001913400D01*
X0000380500Y0001912500D01*
X0000380600Y0001911600D01*
X0000381099Y0001910700D01*
X0000383600Y0001908200D01*
X0000384400Y0001907800D01*
X0000385300Y0001907600D01*
G37*
G36*
X0000383400Y0001909499D02*
G01G01*
X0000384400Y0001909699D01*
X0000385200Y0001910099D01*
X0000385799Y0001910700D01*
X0000386300Y0001911600D01*
X0000386400Y0001912500D01*
X0000386300Y0001913400D01*
X0000385799Y0001914200D01*
X0000385200Y0001914899D01*
X0000384400Y0001915299D01*
X0000380600Y0001917100D01*
X0000379699Y0001917300D01*
X0000378800Y0001917100D01*
X0000378000Y0001916700D01*
X0000377300Y0001916099D01*
X0000376900Y0001915299D01*
X0000376699Y0001914300D01*
X0000376900Y0001913400D01*
X0000377300Y0001912600D01*
X0000378000Y0001911900D01*
X0000378800Y0001911500D01*
X0000382500Y0001909699D01*
X0000383400Y0001909499D01*
G37*
G36*
X0000379699Y0001911400D02*
G01G01*
X0000380600Y0001911500D01*
X0000381400Y0001911900D01*
X0000382100Y0001912600D01*
X0000382500Y0001913400D01*
X0000382699Y0001914300D01*
X0000382500Y0001915299D01*
X0000382100Y0001916099D01*
X0000381400Y0001916700D01*
X0000380600Y0001917100D01*
X0000373100Y0001919000D01*
X0000372199Y0001919200D01*
X0000371300Y0001919000D01*
X0000370499Y0001918600D01*
X0000369800Y0001917900D01*
X0000369400Y0001917100D01*
X0000369199Y0001916200D01*
X0000369400Y0001915299D01*
X0000369800Y0001914500D01*
X0000370499Y0001913800D01*
X0000371300Y0001913400D01*
X0000378800Y0001911500D01*
X0000379699Y0001911400D01*
G37*
G36*
X0000372199Y0001913300D02*
G01G01*
X0000373100Y0001913400D01*
X0000373900Y0001913800D01*
X0000374600Y0001914500D01*
X0000374999Y0001915299D01*
X0000375199Y0001916200D01*
X0000374999Y0001917100D01*
X0000374600Y0001917900D01*
X0000373900Y0001918600D01*
X0000373100Y0001919000D01*
X0000369400Y0001920900D01*
X0000368400Y0001921000D01*
X0000367499Y0001920900D01*
X0000366700Y0001920500D01*
X0000366099Y0001919800D01*
X0000365600Y0001919000D01*
X0000365500Y0001918100D01*
X0000365600Y0001917200D01*
X0000366099Y0001916400D01*
X0000366700Y0001915699D01*
X0000367499Y0001915299D01*
X0000371300Y0001913400D01*
X0000372199Y0001913300D01*
G37*
G36*
X0000368400Y0001915099D02*
G01G01*
X0000369400Y0001915299D01*
X0000370200Y0001915699D01*
X0000370800Y0001916400D01*
X0000371300Y0001917200D01*
X0000371400Y0001918100D01*
X0000371300Y0001919000D01*
X0000370800Y0001919800D01*
X0000370200Y0001920500D01*
X0000368999Y0001921699D01*
X0000368999Y0001921699D01*
X0000368300Y0001922400D01*
X0000367499Y0001922800D01*
X0000366600Y0001922900D01*
X0000365700Y0001922800D01*
X0000364800Y0001922400D01*
X0000364200Y0001921699D01*
X0000363800Y0001920900D01*
X0000363600Y0001920000D01*
X0000363800Y0001919000D01*
X0000364200Y0001918200D01*
X0000364800Y0001917600D01*
X0000366099Y0001916400D01*
X0000366099Y0001916400D01*
X0000366700Y0001915699D01*
X0000367499Y0001915299D01*
X0000368400Y0001915099D01*
G37*
G36*
X0000366600Y0001917000D02*
G01G01*
X0000367499Y0001917200D01*
X0000368300Y0001917600D01*
X0000368999Y0001918200D01*
X0000369400Y0001919000D01*
X0000369500Y0001920000D01*
X0000369400Y0001920900D01*
X0000367499Y0001924600D01*
X0000367100Y0001925400D01*
X0000366400Y0001926100D01*
X0000365600Y0001926500D01*
X0000364700Y0001926700D01*
X0000363800Y0001926500D01*
X0000362999Y0001926100D01*
X0000362300Y0001925400D01*
X0000361900Y0001924600D01*
X0000361700Y0001923700D01*
X0000361900Y0001922800D01*
X0000361900Y0001922800D01*
X0000363800Y0001919000D01*
X0000364200Y0001918200D01*
X0000364800Y0001917600D01*
X0000365700Y0001917200D01*
X0000366600Y0001917000D01*
G37*
G36*
X0000364700Y0001920800D02*
G01G01*
X0000365600Y0001920900D01*
X0000366400Y0001921299D01*
X0000367100Y0001922000D01*
X0000367499Y0001922800D01*
X0000367700Y0001923700D01*
X0000367700Y0001927499D01*
X0000367499Y0001928400D01*
X0000367100Y0001929200D01*
X0000366400Y0001929800D01*
X0000365600Y0001930300D01*
X0000364700Y0001930400D01*
X0000363800Y0001930300D01*
X0000362999Y0001929800D01*
X0000362300Y0001929200D01*
X0000361900Y0001928400D01*
X0000361700Y0001927499D01*
X0000361700Y0001923700D01*
X0000361900Y0001922800D01*
X0000362300Y0001922000D01*
X0000362999Y0001921299D01*
X0000363800Y0001920900D01*
X0000364700Y0001920800D01*
G37*
G36*
X0000364700Y0001924500D02*
G01G01*
X0000365600Y0001924700D01*
X0000366400Y0001925100D01*
X0000367100Y0001925700D01*
X0000367499Y0001926500D01*
X0000369400Y0001930300D01*
X0000369500Y0001931200D01*
X0000369400Y0001932100D01*
X0000368999Y0001932900D01*
X0000368300Y0001933600D01*
X0000367499Y0001934000D01*
X0000366600Y0001934200D01*
X0000365700Y0001934000D01*
X0000364800Y0001933600D01*
X0000364200Y0001932900D01*
X0000363800Y0001932100D01*
X0000361900Y0001928400D01*
X0000361700Y0001927499D01*
X0000361900Y0001926500D01*
X0000362300Y0001925700D01*
X0000362999Y0001925100D01*
X0000363800Y0001924700D01*
X0000364700Y0001924500D01*
G37*
G36*
X0000366600Y0001928299D02*
G01G01*
X0000367499Y0001928400D01*
X0000368300Y0001928800D01*
X0000368999Y0001929500D01*
X0000370800Y0001931300D01*
X0000371300Y0001932200D01*
X0000371400Y0001933100D01*
X0000371300Y0001934000D01*
X0000370800Y0001934800D01*
X0000370200Y0001935500D01*
X0000369400Y0001935900D01*
X0000368400Y0001936000D01*
X0000367499Y0001935900D01*
X0000366700Y0001935500D01*
X0000366099Y0001934800D01*
X0000364200Y0001932900D01*
X0000363800Y0001932100D01*
X0000363600Y0001931200D01*
X0000363800Y0001930300D01*
X0000364200Y0001929500D01*
X0000364800Y0001928800D01*
X0000365700Y0001928400D01*
X0000366600Y0001928299D01*
G37*
G36*
X0000368400Y0001930100D02*
G01G01*
X0000369400Y0001930300D01*
X0000373100Y0001932200D01*
X0000373900Y0001932600D01*
X0000374600Y0001933200D01*
X0000374999Y0001934000D01*
X0000375199Y0001935000D01*
X0000374999Y0001935900D01*
X0000374600Y0001936700D01*
X0000373900Y0001937300D01*
X0000373100Y0001937800D01*
X0000372199Y0001937900D01*
X0000371300Y0001937800D01*
X0000367499Y0001935900D01*
X0000366700Y0001935500D01*
X0000366099Y0001934800D01*
X0000365600Y0001934000D01*
X0000365500Y0001933100D01*
X0000365600Y0001932200D01*
X0000366099Y0001931300D01*
X0000366700Y0001930700D01*
X0000367499Y0001930300D01*
X0000368400Y0001930100D01*
G37*
G36*
X0000381600Y0001932000D02*
G01G01*
X0000382500Y0001932200D01*
X0000383300Y0001932600D01*
X0000384000Y0001933200D01*
X0000384400Y0001934000D01*
X0000384500Y0001935000D01*
X0000384400Y0001935900D01*
X0000384000Y0001936700D01*
X0000383300Y0001937300D01*
X0000382500Y0001937800D01*
X0000381600Y0001937900D01*
X0000372199Y0001937900D01*
X0000371300Y0001937800D01*
X0000370499Y0001937300D01*
X0000369800Y0001936700D01*
X0000369400Y0001935900D01*
X0000369199Y0001935000D01*
X0000369400Y0001934000D01*
X0000369800Y0001933200D01*
X0000370499Y0001932600D01*
X0000371300Y0001932200D01*
X0000372199Y0001932000D01*
X0000381600Y0001932000D01*
G37*
G36*
X0000387199Y0001930100D02*
G01G01*
X0000388100Y0001930300D01*
X0000388900Y0001930700D01*
X0000389600Y0001931300D01*
X0000390000Y0001932200D01*
X0000390100Y0001933100D01*
X0000390000Y0001934000D01*
X0000389600Y0001934800D01*
X0000388900Y0001935500D01*
X0000388100Y0001935900D01*
X0000382500Y0001937800D01*
X0000381600Y0001937900D01*
X0000380700Y0001937800D01*
X0000379800Y0001937300D01*
X0000379200Y0001936700D01*
X0000378800Y0001935900D01*
X0000378600Y0001935000D01*
X0000378800Y0001934000D01*
X0000379200Y0001933200D01*
X0000379800Y0001932600D01*
X0000380700Y0001932200D01*
X0000386300Y0001930300D01*
X0000387199Y0001930100D01*
G37*
G36*
X0000409700Y0001892600D02*
G01G01*
X0000410600Y0001892800D01*
X0000411400Y0001893200D01*
X0000412100Y0001893900D01*
X0000412500Y0001894700D01*
X0000412600Y0001895600D01*
X0000412500Y0001896500D01*
X0000403100Y0001935900D01*
X0000402700Y0001936700D01*
X0000402100Y0001937300D01*
X0000401200Y0001937800D01*
X0000400300Y0001937900D01*
X0000399399Y0001937800D01*
X0000398600Y0001937300D01*
X0000397899Y0001936700D01*
X0000397500Y0001935900D01*
X0000397400Y0001935000D01*
X0000397500Y0001934000D01*
X0000406900Y0001894700D01*
X0000407300Y0001893900D01*
X0000408000Y0001893200D01*
X0000408800Y0001892800D01*
X0000409700Y0001892600D01*
G37*
G36*
X0000409700Y0001892600D02*
G01G01*
X0000410600Y0001892800D01*
X0000411400Y0001893200D01*
X0000412100Y0001893900D01*
X0000412500Y0001894700D01*
X0000420000Y0001922800D01*
X0000420100Y0001923700D01*
X0000420000Y0001924600D01*
X0000419600Y0001925400D01*
X0000418900Y0001926100D01*
X0000418100Y0001926500D01*
X0000417200Y0001926700D01*
X0000416300Y0001926500D01*
X0000415500Y0001926100D01*
X0000414800Y0001925400D01*
X0000414400Y0001924600D01*
X0000406900Y0001896500D01*
X0000406700Y0001895600D01*
X0000406900Y0001894700D01*
X0000407300Y0001893900D01*
X0000408000Y0001893200D01*
X0000408800Y0001892800D01*
X0000409700Y0001892600D01*
G37*
G36*
X0000424700Y0001892600D02*
G01G01*
X0000425600Y0001892800D01*
X0000426400Y0001893200D01*
X0000427100Y0001893900D01*
X0000427500Y0001894700D01*
X0000427600Y0001895600D01*
X0000427500Y0001896500D01*
X0000420000Y0001924600D01*
X0000419600Y0001925400D01*
X0000418900Y0001926100D01*
X0000418100Y0001926500D01*
X0000417200Y0001926700D01*
X0000416300Y0001926500D01*
X0000415500Y0001926100D01*
X0000414800Y0001925400D01*
X0000414400Y0001924600D01*
X0000414200Y0001923700D01*
X0000414400Y0001922800D01*
X0000421900Y0001894700D01*
X0000422300Y0001893900D01*
X0000423000Y0001893200D01*
X0000423800Y0001892800D01*
X0000424700Y0001892600D01*
G37*
G36*
X0000424700Y0001892600D02*
G01G01*
X0000425600Y0001892800D01*
X0000426400Y0001893200D01*
X0000427100Y0001893900D01*
X0000427500Y0001894700D01*
X0000436900Y0001934000D01*
X0000437000Y0001935000D01*
X0000436900Y0001935900D01*
X0000436500Y0001936700D01*
X0000435800Y0001937300D01*
X0000435000Y0001937800D01*
X0000434100Y0001937900D01*
X0000433200Y0001937800D01*
X0000432300Y0001937300D01*
X0000431700Y0001936700D01*
X0000431300Y0001935900D01*
X0000421900Y0001896500D01*
X0000421700Y0001895600D01*
X0000421900Y0001894700D01*
X0000422300Y0001893900D01*
X0000423000Y0001893200D01*
X0000423800Y0001892800D01*
X0000424700Y0001892600D01*
G37*
G36*
X0000469700Y0001892600D02*
G01G01*
X0000470600Y0001892800D01*
X0000471400Y0001893200D01*
X0000472100Y0001893900D01*
X0000472500Y0001894700D01*
X0000472600Y0001895600D01*
X0000472500Y0001896500D01*
X0000472100Y0001897299D01*
X0000471400Y0001898000D01*
X0000470600Y0001898400D01*
X0000469700Y0001898500D01*
X0000447200Y0001898500D01*
X0000446300Y0001898400D01*
X0000445500Y0001898000D01*
X0000444800Y0001897299D01*
X0000444400Y0001896500D01*
X0000444200Y0001895600D01*
X0000444400Y0001894700D01*
X0000444800Y0001893900D01*
X0000445500Y0001893200D01*
X0000446300Y0001892800D01*
X0000447200Y0001892600D01*
X0000469700Y0001892600D01*
G37*
G36*
X0000458400Y0001892600D02*
G01G01*
X0000459400Y0001892800D01*
X0000460200Y0001893200D01*
X0000460800Y0001893900D01*
X0000461200Y0001894700D01*
X0000461400Y0001895600D01*
X0000461400Y0001935000D01*
X0000461200Y0001935900D01*
X0000460800Y0001936700D01*
X0000460200Y0001937300D01*
X0000459400Y0001937800D01*
X0000458400Y0001937900D01*
X0000457500Y0001937800D01*
X0000456700Y0001937300D01*
X0000456000Y0001936700D01*
X0000455600Y0001935900D01*
X0000455500Y0001935000D01*
X0000455500Y0001895600D01*
X0000455600Y0001894700D01*
X0000456000Y0001893900D01*
X0000456700Y0001893200D01*
X0000457500Y0001892800D01*
X0000458400Y0001892600D01*
G37*
G36*
X0000454700Y0001926400D02*
G01G01*
X0000455600Y0001926500D01*
X0000456400Y0001926900D01*
X0000457100Y0001927600D01*
X0000460800Y0001933200D01*
X0000461200Y0001934000D01*
X0000461400Y0001935000D01*
X0000461200Y0001935900D01*
X0000460800Y0001936700D01*
X0000460200Y0001937300D01*
X0000459400Y0001937800D01*
X0000458400Y0001937900D01*
X0000457500Y0001937800D01*
X0000456700Y0001937300D01*
X0000456000Y0001936700D01*
X0000452300Y0001931100D01*
X0000451900Y0001930200D01*
X0000451700Y0001929300D01*
X0000451900Y0001928400D01*
X0000452300Y0001927600D01*
X0000453000Y0001926900D01*
X0000453800Y0001926500D01*
X0000454700Y0001926400D01*
G37*
G36*
X0000450900Y0001922600D02*
G01G01*
X0000451900Y0001922800D01*
X0000452700Y0001923200D01*
X0000453300Y0001923900D01*
X0000456400Y0001926900D01*
X0000457100Y0001927600D01*
X0000457500Y0001928400D01*
X0000457600Y0001929300D01*
X0000457500Y0001930200D01*
X0000457100Y0001931100D01*
X0000456400Y0001931700D01*
X0000455600Y0001932100D01*
X0000454700Y0001932300D01*
X0000453800Y0001932100D01*
X0000453000Y0001931700D01*
X0000449200Y0001928000D01*
X0000449200Y0001928000D01*
X0000448500Y0001927299D01*
X0000448100Y0001926500D01*
X0000448000Y0001925600D01*
X0000448100Y0001924700D01*
X0000448500Y0001923900D01*
X0000449200Y0001923200D01*
X0000450000Y0001922800D01*
X0000450900Y0001922600D01*
G37*
G36*
X0000447200Y0001920800D02*
G01G01*
X0000448100Y0001920900D01*
X0000451900Y0001922800D01*
X0000452700Y0001923200D01*
X0000453300Y0001923900D01*
X0000453700Y0001924700D01*
X0000453900Y0001925600D01*
X0000453700Y0001926500D01*
X0000453300Y0001927299D01*
X0000452700Y0001928000D01*
X0000451900Y0001928400D01*
X0000450900Y0001928500D01*
X0000450000Y0001928400D01*
X0000446300Y0001926500D01*
X0000445500Y0001926100D01*
X0000444800Y0001925400D01*
X0000444400Y0001924600D01*
X0000444200Y0001923700D01*
X0000444400Y0001922800D01*
X0000444800Y0001922000D01*
X0000445500Y0001921299D01*
X0000446300Y0001920900D01*
X0000447200Y0001920800D01*
G37*
G04 next file*
G36*
X0001572000Y0002626400D02*
G01G01*
X0001572700Y0002626500D01*
X0001573300Y0002626800D01*
X0001573900Y0002627300D01*
X0001574200Y0002628000D01*
X0001574300Y0002628699D01*
X0001574200Y0002629500D01*
X0001573900Y0002630100D01*
X0001573300Y0002630600D01*
X0001572700Y0002631000D01*
X0001572000Y0002631100D01*
X0001467200Y0002631100D01*
X0001466500Y0002631000D01*
X0001465800Y0002630600D01*
X0001465300Y0002630100D01*
X0001465000Y0002629500D01*
X0001464900Y0002628699D01*
X0001465000Y0002628000D01*
X0001465300Y0002627300D01*
X0001465800Y0002626800D01*
X0001466500Y0002626500D01*
X0001467200Y0002626400D01*
X0001572000Y0002626400D01*
G37*
G36*
X0001467200Y0002626400D02*
G01G01*
X0001468000Y0002626500D01*
X0001468600Y0002626800D01*
X0001469100Y0002627300D01*
X0001469500Y0002628000D01*
X0001469599Y0002628699D01*
X0001469599Y0002831100D01*
X0001469500Y0002831800D01*
X0001469100Y0002832500D01*
X0001468600Y0002833000D01*
X0001468000Y0002833300D01*
X0001467200Y0002833500D01*
X0001466500Y0002833300D01*
X0001465800Y0002833000D01*
X0001465300Y0002832500D01*
X0001465000Y0002831800D01*
X0001464900Y0002831100D01*
X0001464900Y0002628699D01*
X0001465000Y0002628000D01*
X0001465300Y0002627300D01*
X0001465800Y0002626800D01*
X0001466500Y0002626500D01*
X0001467200Y0002626400D01*
G37*
G36*
X0001572000Y0002626400D02*
G01G01*
X0001572700Y0002626500D01*
X0001573300Y0002626800D01*
X0001573900Y0002627300D01*
X0001574200Y0002628000D01*
X0001574300Y0002628699D01*
X0001574300Y0002831100D01*
X0001574200Y0002831800D01*
X0001573900Y0002832500D01*
X0001573300Y0002833000D01*
X0001572700Y0002833300D01*
X0001572000Y0002833500D01*
X0001571200Y0002833300D01*
X0001570600Y0002833000D01*
X0001570000Y0002832500D01*
X0001569699Y0002831800D01*
X0001569600Y0002831100D01*
X0001569600Y0002628699D01*
X0001569699Y0002628000D01*
X0001570000Y0002627300D01*
X0001570600Y0002626800D01*
X0001571200Y0002626500D01*
X0001572000Y0002626400D01*
G37*
G36*
X0001572000Y0002828700D02*
G01G01*
X0001572700Y0002828800D01*
X0001573300Y0002829200D01*
X0001573900Y0002829700D01*
X0001574200Y0002830399D01*
X0001574300Y0002831100D01*
X0001574200Y0002831800D01*
X0001573900Y0002832500D01*
X0001573300Y0002833000D01*
X0001572700Y0002833300D01*
X0001572000Y0002833500D01*
X0001467200Y0002833500D01*
X0001466500Y0002833300D01*
X0001465800Y0002833000D01*
X0001465300Y0002832500D01*
X0001465000Y0002831800D01*
X0001464900Y0002831100D01*
X0001465000Y0002830399D01*
X0001465300Y0002829700D01*
X0001465800Y0002829200D01*
X0001466500Y0002828800D01*
X0001467200Y0002828700D01*
X0001572000Y0002828700D01*
G37*
G36*
X0001467200Y0002878700D02*
G01G01*
X0001468000Y0002878799D01*
X0001468600Y0002879199D01*
X0001469100Y0002879700D01*
X0001469500Y0002880399D01*
X0001469599Y0002881100D01*
X0001469599Y0002933100D01*
X0001464900Y0002933100D01*
X0001464900Y0002881100D01*
X0001465000Y0002880399D01*
X0001465300Y0002879700D01*
X0001465800Y0002879199D01*
X0001466500Y0002878799D01*
X0001467200Y0002878700D01*
G37*
G36*
X0001519600Y0002931100D02*
G01G01*
X0001520300Y0002931200D01*
X0001521000Y0002931500D01*
X0001521500Y0002932100D01*
X0001521800Y0002932700D01*
X0001521900Y0002933100D01*
X0001464900Y0002933100D01*
X0001465000Y0002932700D01*
X0001465300Y0002932100D01*
X0001465800Y0002931500D01*
X0001466500Y0002931200D01*
X0001467200Y0002931100D01*
X0001519600Y0002931100D01*
G37*
G36*
X0001572000Y0002421600D02*
G01G01*
X0001572700Y0002421800D01*
X0001573300Y0002422100D01*
X0001573900Y0002422600D01*
X0001574200Y0002423300D01*
X0001574300Y0002424000D01*
X0001574200Y0002424700D01*
X0001573900Y0002425400D01*
X0001573300Y0002425900D01*
X0001572700Y0002426300D01*
X0001572000Y0002426400D01*
X0001467200Y0002426400D01*
X0001466500Y0002426300D01*
X0001465800Y0002425900D01*
X0001465300Y0002425400D01*
X0001465000Y0002424700D01*
X0001464900Y0002424000D01*
X0001465000Y0002423300D01*
X0001465300Y0002422600D01*
X0001465800Y0002422100D01*
X0001466500Y0002421800D01*
X0001467200Y0002421600D01*
X0001572000Y0002421600D01*
G37*
G36*
X0001467200Y0002421600D02*
G01G01*
X0001468000Y0002421800D01*
X0001468600Y0002422100D01*
X0001469100Y0002422600D01*
X0001469500Y0002423300D01*
X0001469599Y0002424000D01*
X0001469599Y0002526399D01*
X0001469500Y0002527100D01*
X0001469100Y0002527800D01*
X0001468600Y0002528300D01*
X0001468000Y0002528600D01*
X0001467200Y0002528700D01*
X0001466500Y0002528600D01*
X0001465800Y0002528300D01*
X0001465300Y0002527800D01*
X0001465000Y0002527100D01*
X0001464900Y0002526399D01*
X0001464900Y0002424000D01*
X0001465000Y0002423300D01*
X0001465300Y0002422600D01*
X0001465800Y0002422100D01*
X0001466500Y0002421800D01*
X0001467200Y0002421600D01*
G37*
G36*
X0001572000Y0002421600D02*
G01G01*
X0001572700Y0002421800D01*
X0001573300Y0002422100D01*
X0001573900Y0002422600D01*
X0001574200Y0002423300D01*
X0001574300Y0002424000D01*
X0001574300Y0002526399D01*
X0001574200Y0002527100D01*
X0001573900Y0002527800D01*
X0001573300Y0002528300D01*
X0001572700Y0002528600D01*
X0001572000Y0002528700D01*
X0001571200Y0002528600D01*
X0001570600Y0002528300D01*
X0001570000Y0002527800D01*
X0001569699Y0002527100D01*
X0001569600Y0002526399D01*
X0001569600Y0002424000D01*
X0001569699Y0002423300D01*
X0001570000Y0002422600D01*
X0001570600Y0002422100D01*
X0001571200Y0002421800D01*
X0001572000Y0002421600D01*
G37*
G36*
X0001572000Y0002524000D02*
G01G01*
X0001572700Y0002524100D01*
X0001573300Y0002524500D01*
X0001573900Y0002525000D01*
X0001574200Y0002525600D01*
X0001574300Y0002526399D01*
X0001574200Y0002527100D01*
X0001573900Y0002527800D01*
X0001573300Y0002528300D01*
X0001572700Y0002528600D01*
X0001572000Y0002528700D01*
X0001467200Y0002528700D01*
X0001466500Y0002528600D01*
X0001465800Y0002528300D01*
X0001465300Y0002527800D01*
X0001465000Y0002527100D01*
X0001464900Y0002526399D01*
X0001465000Y0002525600D01*
X0001465300Y0002525000D01*
X0001465800Y0002524500D01*
X0001466500Y0002524100D01*
X0001467200Y0002524000D01*
X0001572000Y0002524000D01*
G37*
G36*
X0001467200Y0002574000D02*
G01G01*
X0001468000Y0002574100D01*
X0001468600Y0002574500D01*
X0001469100Y0002575000D01*
X0001469500Y0002575599D01*
X0001469599Y0002576399D01*
X0001469599Y0002628699D01*
X0001469500Y0002629500D01*
X0001469100Y0002630100D01*
X0001468600Y0002630600D01*
X0001468000Y0002631000D01*
X0001467200Y0002631100D01*
X0001466500Y0002631000D01*
X0001465800Y0002630600D01*
X0001465300Y0002630100D01*
X0001465000Y0002629500D01*
X0001464900Y0002628699D01*
X0001464900Y0002576399D01*
X0001465000Y0002575599D01*
X0001465300Y0002575000D01*
X0001465800Y0002574500D01*
X0001466500Y0002574100D01*
X0001467200Y0002574000D01*
G37*
G36*
X0001519600Y0002626400D02*
G01G01*
X0001520300Y0002626500D01*
X0001521000Y0002626800D01*
X0001521500Y0002627300D01*
X0001521800Y0002628000D01*
X0001522000Y0002628699D01*
X0001521800Y0002629500D01*
X0001521500Y0002630100D01*
X0001521000Y0002630600D01*
X0001520300Y0002631000D01*
X0001519600Y0002631100D01*
X0001467200Y0002631100D01*
X0001466500Y0002631000D01*
X0001465800Y0002630600D01*
X0001465300Y0002630100D01*
X0001465000Y0002629500D01*
X0001464900Y0002628699D01*
X0001465000Y0002628000D01*
X0001465300Y0002627300D01*
X0001465800Y0002626800D01*
X0001466500Y0002626500D01*
X0001467200Y0002626400D01*
X0001519600Y0002626400D01*
G37*
G36*
X0001435600Y0002766600D02*
G01G01*
X0001436500Y0002766700D01*
X0001437300Y0002767200D01*
X0001438000Y0002767800D01*
X0001438400Y0002768600D01*
X0001438600Y0002769500D01*
X0001438400Y0002770500D01*
X0001438000Y0002771300D01*
X0001437300Y0002771900D01*
X0001436500Y0002772400D01*
X0001435600Y0002772500D01*
X0001407500Y0002772500D01*
X0001406600Y0002772400D01*
X0001405800Y0002771900D01*
X0001405100Y0002771300D01*
X0001404700Y0002770500D01*
X0001404500Y0002769500D01*
X0001404700Y0002768600D01*
X0001405100Y0002767800D01*
X0001405800Y0002767200D01*
X0001406600Y0002766700D01*
X0001407500Y0002766600D01*
X0001435600Y0002766600D01*
G37*
G36*
X0001441200Y0002764700D02*
G01G01*
X0001442100Y0002764900D01*
X0001443000Y0002765300D01*
X0001443600Y0002765900D01*
X0001444000Y0002766800D01*
X0001444200Y0002767700D01*
X0001444000Y0002768600D01*
X0001443600Y0002769400D01*
X0001443000Y0002770100D01*
X0001442100Y0002770500D01*
X0001436500Y0002772400D01*
X0001435600Y0002772500D01*
X0001434700Y0002772400D01*
X0001433900Y0002771900D01*
X0001433199Y0002771300D01*
X0001432800Y0002770500D01*
X0001432700Y0002769500D01*
X0001432800Y0002768600D01*
X0001433199Y0002767800D01*
X0001433900Y0002767200D01*
X0001434700Y0002766700D01*
X0001440300Y0002764900D01*
X0001441200Y0002764700D01*
G37*
G36*
X0001445000Y0002761000D02*
G01G01*
X0001445900Y0002761100D01*
X0001446700Y0002761499D01*
X0001447400Y0002762200D01*
X0001447800Y0002763000D01*
X0001447900Y0002763900D01*
X0001447800Y0002764800D01*
X0001447400Y0002765700D01*
X0001443600Y0002769400D01*
X0001443600Y0002769400D01*
X0001443000Y0002770100D01*
X0001442100Y0002770500D01*
X0001441200Y0002770600D01*
X0001440300Y0002770500D01*
X0001439500Y0002770100D01*
X0001438800Y0002769400D01*
X0001438400Y0002768600D01*
X0001438300Y0002767700D01*
X0001438400Y0002766800D01*
X0001438800Y0002765900D01*
X0001439500Y0002765300D01*
X0001443200Y0002761499D01*
X0001444100Y0002761100D01*
X0001445000Y0002761000D01*
G37*
G36*
X0001446900Y0002755299D02*
G01G01*
X0001447800Y0002755500D01*
X0001448600Y0002755900D01*
X0001449200Y0002756600D01*
X0001449700Y0002757400D01*
X0001449800Y0002758300D01*
X0001449700Y0002759199D01*
X0001447800Y0002764800D01*
X0001447400Y0002765700D01*
X0001446700Y0002766300D01*
X0001445900Y0002766700D01*
X0001445000Y0002766899D01*
X0001444100Y0002766700D01*
X0001443200Y0002766300D01*
X0001442600Y0002765700D01*
X0001442200Y0002764800D01*
X0001442000Y0002763900D01*
X0001442200Y0002763000D01*
X0001444000Y0002757400D01*
X0001444500Y0002756600D01*
X0001445100Y0002755900D01*
X0001445900Y0002755500D01*
X0001446900Y0002755299D01*
G37*
G36*
X0001446900Y0002751600D02*
G01G01*
X0001447800Y0002751700D01*
X0001448600Y0002752200D01*
X0001449200Y0002752800D01*
X0001449700Y0002753600D01*
X0001449800Y0002754499D01*
X0001449800Y0002758300D01*
X0001449700Y0002759199D01*
X0001449200Y0002759999D01*
X0001448600Y0002760700D01*
X0001447800Y0002761100D01*
X0001446900Y0002761300D01*
X0001445900Y0002761100D01*
X0001445100Y0002760700D01*
X0001444500Y0002759999D01*
X0001444000Y0002759199D01*
X0001443900Y0002758300D01*
X0001443900Y0002754499D01*
X0001444000Y0002753600D01*
X0001444500Y0002752800D01*
X0001445100Y0002752200D01*
X0001445900Y0002751700D01*
X0001446900Y0002751600D01*
G37*
G36*
X0001446900Y0002783500D02*
G01G01*
X0001447800Y0002783599D01*
X0001448600Y0002783999D01*
X0001449200Y0002784700D01*
X0001449700Y0002785500D01*
X0001449800Y0002786400D01*
X0001449800Y0002808900D01*
X0001449700Y0002809800D01*
X0001449200Y0002810700D01*
X0001448600Y0002811300D01*
X0001447800Y0002811700D01*
X0001446900Y0002811900D01*
X0001445900Y0002811700D01*
X0001445100Y0002811300D01*
X0001444500Y0002810700D01*
X0001444000Y0002809800D01*
X0001443900Y0002808900D01*
X0001443900Y0002786400D01*
X0001444000Y0002785500D01*
X0001444500Y0002784700D01*
X0001445100Y0002783999D01*
X0001445900Y0002783599D01*
X0001446900Y0002783500D01*
G37*
G36*
X0001446900Y0002794700D02*
G01G01*
X0001447800Y0002794900D01*
X0001448600Y0002795300D01*
X0001449200Y0002795900D01*
X0001449700Y0002796800D01*
X0001449800Y0002797700D01*
X0001449700Y0002798600D01*
X0001449200Y0002799400D01*
X0001448600Y0002800100D01*
X0001447800Y0002800500D01*
X0001446900Y0002800600D01*
X0001407500Y0002800600D01*
X0001406600Y0002800500D01*
X0001405800Y0002800100D01*
X0001405100Y0002799400D01*
X0001404700Y0002798600D01*
X0001404500Y0002797700D01*
X0001404700Y0002796800D01*
X0001405100Y0002795900D01*
X0001405800Y0002795300D01*
X0001406600Y0002794900D01*
X0001407500Y0002794700D01*
X0001446900Y0002794700D01*
G37*
G36*
X0001413100Y0002791000D02*
G01G01*
X0001414000Y0002791100D01*
X0001414800Y0002791500D01*
X0001415500Y0002792200D01*
X0001415900Y0002793000D01*
X0001416100Y0002793900D01*
X0001415900Y0002794799D01*
X0001415500Y0002795700D01*
X0001414800Y0002796300D01*
X0001409199Y0002800100D01*
X0001408400Y0002800500D01*
X0001407500Y0002800600D01*
X0001406600Y0002800500D01*
X0001405800Y0002800100D01*
X0001405100Y0002799400D01*
X0001404700Y0002798600D01*
X0001404500Y0002797700D01*
X0001404700Y0002796800D01*
X0001405100Y0002795900D01*
X0001405800Y0002795300D01*
X0001411400Y0002791500D01*
X0001412200Y0002791100D01*
X0001413100Y0002791000D01*
G37*
G36*
X0001416900Y0002787200D02*
G01G01*
X0001417800Y0002787400D01*
X0001418600Y0002787800D01*
X0001419300Y0002788400D01*
X0001419700Y0002789300D01*
X0001419800Y0002790200D01*
X0001419700Y0002791100D01*
X0001419300Y0002791900D01*
X0001415500Y0002795700D01*
X0001414800Y0002796300D01*
X0001414000Y0002796700D01*
X0001413100Y0002796900D01*
X0001412200Y0002796700D01*
X0001411400Y0002796300D01*
X0001410700Y0002795700D01*
X0001410300Y0002794799D01*
X0001410199Y0002793900D01*
X0001410300Y0002793000D01*
X0001410700Y0002792200D01*
X0001411400Y0002791500D01*
X0001411400Y0002791500D01*
X0001414500Y0002788400D01*
X0001415100Y0002787800D01*
X0001415900Y0002787400D01*
X0001416900Y0002787200D01*
G37*
G36*
X0001418700Y0002783500D02*
G01G01*
X0001419600Y0002783599D01*
X0001420500Y0002783999D01*
X0001421100Y0002784700D01*
X0001421500Y0002785500D01*
X0001421700Y0002786400D01*
X0001421500Y0002787300D01*
X0001419700Y0002791100D01*
X0001419300Y0002791900D01*
X0001418600Y0002792600D01*
X0001417800Y0002793000D01*
X0001416900Y0002793100D01*
X0001415900Y0002793000D01*
X0001415100Y0002792600D01*
X0001414500Y0002791900D01*
X0001414100Y0002791100D01*
X0001413900Y0002790200D01*
X0001414100Y0002789300D01*
X0001414100Y0002789200D01*
X0001415900Y0002785500D01*
X0001416300Y0002784700D01*
X0001417000Y0002783999D01*
X0001417800Y0002783599D01*
X0001418700Y0002783500D01*
G37*
G36*
X0001431700Y0002509100D02*
G01G01*
X0001432600Y0002509300D01*
X0001433399Y0002509700D01*
X0001434100Y0002510300D01*
X0001434500Y0002511200D01*
X0001434600Y0002512100D01*
X0001434500Y0002513000D01*
X0001434100Y0002513800D01*
X0001433399Y0002514500D01*
X0001432600Y0002514900D01*
X0001431700Y0002515000D01*
X0001403599Y0002515000D01*
X0001402600Y0002514900D01*
X0001401800Y0002514500D01*
X0001401200Y0002513800D01*
X0001400700Y0002513000D01*
X0001400600Y0002512100D01*
X0001400700Y0002511200D01*
X0001401200Y0002510300D01*
X0001401800Y0002509700D01*
X0001402600Y0002509300D01*
X0001403599Y0002509100D01*
X0001431700Y0002509100D01*
G37*
G36*
X0001437300Y0002507200D02*
G01G01*
X0001438200Y0002507400D01*
X0001439000Y0002507800D01*
X0001439700Y0002508500D01*
X0001440100Y0002509300D01*
X0001440199Y0002510200D01*
X0001440100Y0002511100D01*
X0001439700Y0002511900D01*
X0001439000Y0002512600D01*
X0001438200Y0002513000D01*
X0001432600Y0002514900D01*
X0001431700Y0002515000D01*
X0001430800Y0002514900D01*
X0001429900Y0002514500D01*
X0001429300Y0002513800D01*
X0001428900Y0002513000D01*
X0001428700Y0002512100D01*
X0001428900Y0002511200D01*
X0001429300Y0002510300D01*
X0001429900Y0002509700D01*
X0001430800Y0002509300D01*
X0001436400Y0002507400D01*
X0001437300Y0002507200D01*
G37*
G36*
X0001441000Y0002503500D02*
G01G01*
X0001442000Y0002503600D01*
X0001442800Y0002504100D01*
X0001443400Y0002504700D01*
X0001443900Y0002505500D01*
X0001444000Y0002506400D01*
X0001443900Y0002507400D01*
X0001443400Y0002508200D01*
X0001439700Y0002511900D01*
X0001439700Y0002511900D01*
X0001439000Y0002512600D01*
X0001438200Y0002513000D01*
X0001437300Y0002513100D01*
X0001436400Y0002513000D01*
X0001435600Y0002512600D01*
X0001434900Y0002511900D01*
X0001434500Y0002511100D01*
X0001434300Y0002510200D01*
X0001434500Y0002509300D01*
X0001434900Y0002508500D01*
X0001435600Y0002507800D01*
X0001439300Y0002504100D01*
X0001440100Y0002503600D01*
X0001441000Y0002503500D01*
G37*
G36*
X0001442900Y0002497900D02*
G01G01*
X0001443800Y0002498000D01*
X0001444700Y0002498400D01*
X0001445300Y0002499100D01*
X0001445700Y0002499900D01*
X0001445900Y0002500800D01*
X0001445700Y0002501700D01*
X0001443900Y0002507400D01*
X0001443400Y0002508200D01*
X0001442800Y0002508800D01*
X0001442000Y0002509200D01*
X0001441000Y0002509400D01*
X0001440100Y0002509200D01*
X0001439300Y0002508800D01*
X0001438700Y0002508200D01*
X0001438200Y0002507400D01*
X0001438100Y0002506400D01*
X0001438200Y0002505500D01*
X0001440100Y0002499900D01*
X0001440500Y0002499100D01*
X0001441200Y0002498400D01*
X0001442000Y0002498000D01*
X0001442900Y0002497900D01*
G37*
G36*
X0001442900Y0002494100D02*
G01G01*
X0001443800Y0002494300D01*
X0001444700Y0002494700D01*
X0001445300Y0002495300D01*
X0001445700Y0002496200D01*
X0001445900Y0002497100D01*
X0001445900Y0002500800D01*
X0001445700Y0002501700D01*
X0001445300Y0002502600D01*
X0001444700Y0002503200D01*
X0001443800Y0002503600D01*
X0001442900Y0002503800D01*
X0001442000Y0002503600D01*
X0001441200Y0002503200D01*
X0001440500Y0002502600D01*
X0001440100Y0002501700D01*
X0001439999Y0002500800D01*
X0001439999Y0002497100D01*
X0001440100Y0002496200D01*
X0001440500Y0002495300D01*
X0001441200Y0002494700D01*
X0001442000Y0002494300D01*
X0001442900Y0002494100D01*
G37*
G36*
X0001407300Y0002526000D02*
G01G01*
X0001408200Y0002526100D01*
X0001408999Y0002526600D01*
X0001409700Y0002527199D01*
X0001410100Y0002527999D01*
X0001410300Y0002528900D01*
X0001410100Y0002529900D01*
X0001409700Y0002530699D01*
X0001407200Y0002533200D01*
X0001406300Y0002533600D01*
X0001405400Y0002533800D01*
X0001404500Y0002533600D01*
X0001403700Y0002533200D01*
X0001402999Y0002532500D01*
X0001402600Y0002531700D01*
X0001402500Y0002530800D01*
X0001402600Y0002529900D01*
X0001402999Y0002529100D01*
X0001405600Y0002526600D01*
X0001406400Y0002526100D01*
X0001407300Y0002526000D01*
G37*
G36*
X0001405400Y0002527900D02*
G01G01*
X0001406300Y0002527999D01*
X0001407200Y0002528399D01*
X0001407800Y0002529100D01*
X0001408200Y0002529900D01*
X0001408400Y0002530800D01*
X0001408200Y0002531700D01*
X0001406400Y0002535500D01*
X0001405900Y0002536300D01*
X0001405300Y0002537000D01*
X0001404500Y0002537400D01*
X0001403599Y0002537500D01*
X0001402600Y0002537400D01*
X0001401800Y0002537000D01*
X0001401200Y0002536300D01*
X0001400700Y0002535500D01*
X0001400600Y0002534600D01*
X0001400700Y0002533700D01*
X0001402600Y0002529900D01*
X0001402999Y0002529100D01*
X0001403700Y0002528399D01*
X0001404500Y0002527999D01*
X0001405400Y0002527900D01*
G37*
G36*
X0001403599Y0002531600D02*
G01G01*
X0001404500Y0002531800D01*
X0001405300Y0002532200D01*
X0001405900Y0002532800D01*
X0001406400Y0002533700D01*
X0001406500Y0002534600D01*
X0001406500Y0002543899D01*
X0001406400Y0002544800D01*
X0001405900Y0002545700D01*
X0001405300Y0002546300D01*
X0001404500Y0002546700D01*
X0001403599Y0002546900D01*
X0001402600Y0002546700D01*
X0001401800Y0002546300D01*
X0001401200Y0002545700D01*
X0001400700Y0002544800D01*
X0001400600Y0002543899D01*
X0001400600Y0002534600D01*
X0001400700Y0002533700D01*
X0001401200Y0002532800D01*
X0001401800Y0002532200D01*
X0001402600Y0002531800D01*
X0001403599Y0002531600D01*
G37*
G36*
X0001403599Y0002541000D02*
G01G01*
X0001404500Y0002541100D01*
X0001405300Y0002541500D01*
X0001405900Y0002542200D01*
X0001406400Y0002543000D01*
X0001408200Y0002546800D01*
X0001408400Y0002547700D01*
X0001408200Y0002548600D01*
X0001407800Y0002549400D01*
X0001407200Y0002550100D01*
X0001406300Y0002550500D01*
X0001405400Y0002550600D01*
X0001404500Y0002550500D01*
X0001403700Y0002550100D01*
X0001402999Y0002549400D01*
X0001402600Y0002548600D01*
X0001400700Y0002544800D01*
X0001400600Y0002543899D01*
X0001400700Y0002543000D01*
X0001401200Y0002542200D01*
X0001401800Y0002541500D01*
X0001402600Y0002541100D01*
X0001403599Y0002541000D01*
G37*
G36*
X0001405400Y0002544700D02*
G01G01*
X0001406300Y0002544900D01*
X0001407200Y0002545300D01*
X0001409700Y0002547800D01*
X0001410100Y0002548600D01*
X0001410300Y0002549600D01*
X0001410100Y0002550500D01*
X0001409700Y0002551300D01*
X0001408999Y0002551999D01*
X0001408200Y0002552399D01*
X0001407300Y0002552500D01*
X0001406400Y0002552399D01*
X0001405600Y0002551999D01*
X0001402999Y0002549400D01*
X0001402600Y0002548600D01*
X0001402500Y0002547700D01*
X0001402600Y0002546800D01*
X0001402999Y0002546000D01*
X0001403700Y0002545300D01*
X0001404500Y0002544900D01*
X0001405400Y0002544700D01*
G37*
G36*
X0001407300Y0002546600D02*
G01G01*
X0001408200Y0002546800D01*
X0001412000Y0002548600D01*
X0001412800Y0002549000D01*
X0001413400Y0002549700D01*
X0001413900Y0002550500D01*
X0001414000Y0002551400D01*
X0001413900Y0002552300D01*
X0001413400Y0002553199D01*
X0001412800Y0002553800D01*
X0001412000Y0002554200D01*
X0001411000Y0002554400D01*
X0001410100Y0002554200D01*
X0001406400Y0002552399D01*
X0001405600Y0002551999D01*
X0001404900Y0002551300D01*
X0001404500Y0002550500D01*
X0001404300Y0002549600D01*
X0001404500Y0002548600D01*
X0001404900Y0002547800D01*
X0001405600Y0002547200D01*
X0001406400Y0002546800D01*
X0001407300Y0002546600D01*
G37*
G36*
X0001414800Y0002548499D02*
G01G01*
X0001415700Y0002548600D01*
X0001416500Y0002549000D01*
X0001417200Y0002549700D01*
X0001417600Y0002550500D01*
X0001417800Y0002551400D01*
X0001417600Y0002552300D01*
X0001417200Y0002553199D01*
X0001416500Y0002553800D01*
X0001415700Y0002554200D01*
X0001414800Y0002554400D01*
X0001411000Y0002554400D01*
X0001410100Y0002554200D01*
X0001409300Y0002553800D01*
X0001408700Y0002553199D01*
X0001408200Y0002552300D01*
X0001408100Y0002551400D01*
X0001408200Y0002550500D01*
X0001408700Y0002549700D01*
X0001409300Y0002549000D01*
X0001410100Y0002548600D01*
X0001411000Y0002548499D01*
X0001414800Y0002548499D01*
G37*
G36*
X0001420400Y0002546600D02*
G01G01*
X0001421300Y0002546800D01*
X0001422199Y0002547200D01*
X0001422800Y0002547800D01*
X0001423200Y0002548600D01*
X0001423400Y0002549600D01*
X0001423200Y0002550500D01*
X0001422800Y0002551300D01*
X0001422199Y0002551999D01*
X0001421300Y0002552399D01*
X0001415700Y0002554200D01*
X0001414800Y0002554400D01*
X0001413900Y0002554200D01*
X0001413100Y0002553800D01*
X0001412400Y0002553199D01*
X0001412000Y0002552300D01*
X0001411800Y0002551400D01*
X0001412000Y0002550500D01*
X0001412400Y0002549700D01*
X0001413100Y0002549000D01*
X0001413900Y0002548600D01*
X0001419500Y0002546800D01*
X0001420400Y0002546600D01*
G37*
G36*
X0001442900Y0002524100D02*
G01G01*
X0001443800Y0002524300D01*
X0001444700Y0002524700D01*
X0001445300Y0002525300D01*
X0001445700Y0002526200D01*
X0001445900Y0002527100D01*
X0001445700Y0002527999D01*
X0001445300Y0002528799D01*
X0001422199Y0002551999D01*
X0001421300Y0002552399D01*
X0001420400Y0002552500D01*
X0001419500Y0002552399D01*
X0001418700Y0002551999D01*
X0001418000Y0002551300D01*
X0001417600Y0002550500D01*
X0001417500Y0002549600D01*
X0001417600Y0002548600D01*
X0001418000Y0002547800D01*
X0001441200Y0002524700D01*
X0001442000Y0002524300D01*
X0001442900Y0002524100D01*
G37*
G36*
X0001442900Y0002524100D02*
G01G01*
X0001443800Y0002524300D01*
X0001444700Y0002524700D01*
X0001445300Y0002525300D01*
X0001445700Y0002526200D01*
X0001445900Y0002527100D01*
X0001445900Y0002551400D01*
X0001445700Y0002552300D01*
X0001445300Y0002553199D01*
X0001444700Y0002553800D01*
X0001443800Y0002554200D01*
X0001442900Y0002554400D01*
X0001442000Y0002554200D01*
X0001441200Y0002553800D01*
X0001440500Y0002553199D01*
X0001440100Y0002552300D01*
X0001439999Y0002551400D01*
X0001439999Y0002527100D01*
X0001440100Y0002526200D01*
X0001440500Y0002525300D01*
X0001441200Y0002524700D01*
X0001442000Y0002524300D01*
X0001442900Y0002524100D01*
G37*
M02*