%MOIN*%
%OFA0B0*%
%FSLAX46Y46*%
%IPPOS*%
%LPD*%
%ADD10C,0.0039370078740157488*%
%ADD21C,0.0039370078740157488*%
%ADD22C,0.0039370078740157488*%
%ADD23C,0.005905511811023622*%
%ADD24C,0.0047244094488188976*%
%ADD25C,0.0039370078740157488*%
%ADD26C,0.005905511811023622*%
%ADD27C,0.0039370078740157488*%
%ADD28C,0.0047244094488188976*%
%ADD29C,0.005905511811023622*%
G01G01*
D10*
G04 next file*
G04 #@! TF.FileFunction,Legend,Top*
G04 Gerber Fmt 4.6, Leading zero omitted, Abs format (unit mm)*
G04 Created by KiCad (PCBNEW 4.0.4-1.fc24-product) date Tue Jun 12 10:09:51 2018*
G01G01*
G04 APERTURE LIST*
G04 APERTURE END LIST*
D21*
G04 next file*
G04 #@! TF.FileFunction,Legend,Top*
G04 Gerber Fmt 4.6, Leading zero omitted, Abs format (unit mm)*
G04 Created by KiCad (PCBNEW 4.0.4-1.fc24-product) date Tue Jun 12 10:10:09 2018*
G01G01*
G04 APERTURE LIST*
G04 APERTURE END LIST*
D22*
D23*
X0000613188Y0000854330D02*
X0000613188Y0000775590D01*
X0000693897Y0000775590D02*
X0000693897Y0000854330D01*
X0000309055Y0000098425D02*
X0000309055Y0000137795D01*
X0000242125Y0000137795D02*
X0000242125Y0000098425D01*
X0000535433Y0000131889D02*
X0000535433Y0000104330D01*
X0000488188Y0000104330D02*
X0000488188Y0000131889D01*
X0000720472Y0000301181D02*
X0000720472Y0000328740D01*
X0000767716Y0000328740D02*
X0000767716Y0000301181D01*
X0000610236Y0000301181D02*
X0000610236Y0000328740D01*
X0000657480Y0000328740D02*
X0000657480Y0000301181D01*
X0000330708Y0000104330D02*
X0000330708Y0000131889D01*
X0000377952Y0000131889D02*
X0000377952Y0000104330D01*
X0000456692Y0000131889D02*
X0000456692Y0000104330D01*
X0000409448Y0000104330D02*
X0000409448Y0000131889D01*
X0000251968Y0000537401D02*
X0000251968Y0000564960D01*
X0000299212Y0000564960D02*
X0000299212Y0000537401D01*
X0000771653Y0000131889D02*
X0000771653Y0000104330D01*
X0000724409Y0000104330D02*
X0000724409Y0000131889D01*
X0000653543Y0000564960D02*
X0000653543Y0000537401D01*
X0000606299Y0000537401D02*
X0000606299Y0000564960D01*
X0000771653Y0000564960D02*
X0000771653Y0000537401D01*
X0000724409Y0000537401D02*
X0000724409Y0000564960D01*
X0000854330Y0000564960D02*
X0000854330Y0000537401D01*
X0000807086Y0000537401D02*
X0000807086Y0000564960D01*
X0000488188Y0000537401D02*
X0000488188Y0000564960D01*
X0000535433Y0000564960D02*
X0000535433Y0000537401D01*
X0000483700Y0000434645D02*
X0000483700Y0000234645D01*
X0000483700Y0000234645D02*
X0000303700Y0000234645D01*
X0000303700Y0000234645D02*
X0000303700Y0000434645D01*
X0000303700Y0000434645D02*
X0000483700Y0000434645D01*
X0000423700Y0000434645D02*
X0000423700Y0000414645D01*
X0000423700Y0000414645D02*
X0000373700Y0000414645D01*
X0000373700Y0000414645D02*
X0000373700Y0000434645D01*
X0000860236Y0000295275D02*
X0000860236Y0000334645D01*
X0000793307Y0000334645D02*
X0000793307Y0000295275D01*
X0000399606Y0000570866D02*
X0000399606Y0000531496D01*
X0000466535Y0000531496D02*
X0000466535Y0000570866D01*
X0000320866Y0000570866D02*
X0000320866Y0000531496D01*
X0000387795Y0000531496D02*
X0000387795Y0000570866D01*
D24*
X0000596456Y0000139763D02*
X0000596456Y0000100393D01*
X0000663385Y0000100393D02*
X0000663385Y0000139763D01*
D23*
X0000635826Y0000907480D02*
X0000634514Y0000906167D01*
X0000630577Y0000904855D01*
X0000627952Y0000904855D01*
X0000624015Y0000906167D01*
X0000621391Y0000908792D01*
X0000620078Y0000911417D01*
X0000618766Y0000916666D01*
X0000618766Y0000920603D01*
X0000620078Y0000925853D01*
X0000621391Y0000928477D01*
X0000624015Y0000931102D01*
X0000627952Y0000932414D01*
X0000630577Y0000932414D01*
X0000634514Y0000931102D01*
X0000635826Y0000929790D01*
X0000662073Y0000904855D02*
X0000646325Y0000904855D01*
X0000654199Y0000904855D02*
X0000654199Y0000932414D01*
X0000651574Y0000928477D01*
X0000648950Y0000925853D01*
X0000646325Y0000924540D01*
X0000679133Y0000932414D02*
X0000681758Y0000932414D01*
X0000684383Y0000931102D01*
X0000685695Y0000929790D01*
X0000687007Y0000927165D01*
X0000688320Y0000921916D01*
X0000688320Y0000915354D01*
X0000687007Y0000910105D01*
X0000685695Y0000907480D01*
X0000684383Y0000906167D01*
X0000681758Y0000904855D01*
X0000679133Y0000904855D01*
X0000676509Y0000906167D01*
X0000675196Y0000907480D01*
X0000673884Y0000910105D01*
X0000672572Y0000915354D01*
X0000672572Y0000921916D01*
X0000673884Y0000927165D01*
X0000675196Y0000929790D01*
X0000676509Y0000931102D01*
X0000679133Y0000932414D01*
X0000270997Y0000190944D02*
X0000269685Y0000189632D01*
X0000265748Y0000188320D01*
X0000263123Y0000188320D01*
X0000259186Y0000189632D01*
X0000256561Y0000192257D01*
X0000255249Y0000194881D01*
X0000253936Y0000200131D01*
X0000253936Y0000204068D01*
X0000255249Y0000209317D01*
X0000256561Y0000211942D01*
X0000259186Y0000214566D01*
X0000263123Y0000215879D01*
X0000265748Y0000215879D01*
X0000269685Y0000214566D01*
X0000270997Y0000213254D01*
X0000297244Y0000188320D02*
X0000281496Y0000188320D01*
X0000289370Y0000188320D02*
X0000289370Y0000215879D01*
X0000286745Y0000211942D01*
X0000284120Y0000209317D01*
X0000281496Y0000208005D01*
X0000507217Y0000190944D02*
X0000505905Y0000189632D01*
X0000501968Y0000188320D01*
X0000499343Y0000188320D01*
X0000495406Y0000189632D01*
X0000492782Y0000192257D01*
X0000491469Y0000194881D01*
X0000490157Y0000200131D01*
X0000490157Y0000204068D01*
X0000491469Y0000209317D01*
X0000492782Y0000211942D01*
X0000495406Y0000214566D01*
X0000499343Y0000215879D01*
X0000501968Y0000215879D01*
X0000505905Y0000214566D01*
X0000507217Y0000213254D01*
X0000517716Y0000213254D02*
X0000519028Y0000214566D01*
X0000521653Y0000215879D01*
X0000528215Y0000215879D01*
X0000530839Y0000214566D01*
X0000532152Y0000213254D01*
X0000533464Y0000210629D01*
X0000533464Y0000208005D01*
X0000532152Y0000204068D01*
X0000516404Y0000188320D01*
X0000533464Y0000188320D01*
X0000739501Y0000387795D02*
X0000738188Y0000386482D01*
X0000734251Y0000385170D01*
X0000731627Y0000385170D01*
X0000727690Y0000386482D01*
X0000725065Y0000389107D01*
X0000723753Y0000391732D01*
X0000722440Y0000396981D01*
X0000722440Y0000400918D01*
X0000723753Y0000406167D01*
X0000725065Y0000408792D01*
X0000727690Y0000411417D01*
X0000731627Y0000412729D01*
X0000734251Y0000412729D01*
X0000738188Y0000411417D01*
X0000739501Y0000410105D01*
X0000748687Y0000412729D02*
X0000767060Y0000412729D01*
X0000755249Y0000385170D01*
X0000625328Y0000387795D02*
X0000624015Y0000386482D01*
X0000620078Y0000385170D01*
X0000617454Y0000385170D01*
X0000613517Y0000386482D01*
X0000610892Y0000389107D01*
X0000609580Y0000391732D01*
X0000608267Y0000396981D01*
X0000608267Y0000400918D01*
X0000609580Y0000406167D01*
X0000610892Y0000408792D01*
X0000613517Y0000411417D01*
X0000617454Y0000412729D01*
X0000620078Y0000412729D01*
X0000624015Y0000411417D01*
X0000625328Y0000410105D01*
X0000641076Y0000400918D02*
X0000638451Y0000402230D01*
X0000637139Y0000403543D01*
X0000635826Y0000406167D01*
X0000635826Y0000407480D01*
X0000637139Y0000410105D01*
X0000638451Y0000411417D01*
X0000641076Y0000412729D01*
X0000646325Y0000412729D01*
X0000648950Y0000411417D01*
X0000650262Y0000410105D01*
X0000651574Y0000407480D01*
X0000651574Y0000406167D01*
X0000650262Y0000403543D01*
X0000648950Y0000402230D01*
X0000646325Y0000400918D01*
X0000641076Y0000400918D01*
X0000638451Y0000399606D01*
X0000637139Y0000398293D01*
X0000635826Y0000395669D01*
X0000635826Y0000390419D01*
X0000637139Y0000387795D01*
X0000638451Y0000386482D01*
X0000641076Y0000385170D01*
X0000646325Y0000385170D01*
X0000648950Y0000386482D01*
X0000650262Y0000387795D01*
X0000651574Y0000390419D01*
X0000651574Y0000395669D01*
X0000650262Y0000398293D01*
X0000648950Y0000399606D01*
X0000646325Y0000400918D01*
X0000349737Y0000188320D02*
X0000340551Y0000201443D01*
X0000333989Y0000188320D02*
X0000333989Y0000215879D01*
X0000344488Y0000215879D01*
X0000347112Y0000214566D01*
X0000348425Y0000213254D01*
X0000349737Y0000210629D01*
X0000349737Y0000206692D01*
X0000348425Y0000204068D01*
X0000347112Y0000202755D01*
X0000344488Y0000201443D01*
X0000333989Y0000201443D01*
X0000375984Y0000188320D02*
X0000360236Y0000188320D01*
X0000368110Y0000188320D02*
X0000368110Y0000215879D01*
X0000365485Y0000211942D01*
X0000362860Y0000209317D01*
X0000360236Y0000208005D01*
X0000428477Y0000188320D02*
X0000419291Y0000201443D01*
X0000412729Y0000188320D02*
X0000412729Y0000215879D01*
X0000423228Y0000215879D01*
X0000425852Y0000214566D01*
X0000427165Y0000213254D01*
X0000428477Y0000210629D01*
X0000428477Y0000206692D01*
X0000427165Y0000204068D01*
X0000425852Y0000202755D01*
X0000423228Y0000201443D01*
X0000412729Y0000201443D01*
X0000438976Y0000213254D02*
X0000440288Y0000214566D01*
X0000442913Y0000215879D01*
X0000449475Y0000215879D01*
X0000452099Y0000214566D01*
X0000453412Y0000213254D01*
X0000454724Y0000210629D01*
X0000454724Y0000208005D01*
X0000453412Y0000204068D01*
X0000437664Y0000188320D01*
X0000454724Y0000188320D01*
X0000270997Y0000621391D02*
X0000261811Y0000634514D01*
X0000255249Y0000621391D02*
X0000255249Y0000648950D01*
X0000265748Y0000648950D01*
X0000268372Y0000647637D01*
X0000269685Y0000646325D01*
X0000270997Y0000643700D01*
X0000270997Y0000639763D01*
X0000269685Y0000637139D01*
X0000268372Y0000635826D01*
X0000265748Y0000634514D01*
X0000255249Y0000634514D01*
X0000280183Y0000648950D02*
X0000297244Y0000648950D01*
X0000288057Y0000638451D01*
X0000291994Y0000638451D01*
X0000294619Y0000637139D01*
X0000295931Y0000635826D01*
X0000297244Y0000633202D01*
X0000297244Y0000626640D01*
X0000295931Y0000624015D01*
X0000294619Y0000622703D01*
X0000291994Y0000621391D01*
X0000284120Y0000621391D01*
X0000281496Y0000622703D01*
X0000280183Y0000624015D01*
X0000739501Y0000188320D02*
X0000730314Y0000201443D01*
X0000723753Y0000188320D02*
X0000723753Y0000215879D01*
X0000734251Y0000215879D01*
X0000736876Y0000214566D01*
X0000738188Y0000213254D01*
X0000739501Y0000210629D01*
X0000739501Y0000206692D01*
X0000738188Y0000204068D01*
X0000736876Y0000202755D01*
X0000734251Y0000201443D01*
X0000723753Y0000201443D01*
X0000763123Y0000206692D02*
X0000763123Y0000188320D01*
X0000756561Y0000217191D02*
X0000750000Y0000197506D01*
X0000767060Y0000197506D01*
X0000625328Y0000621391D02*
X0000616141Y0000634514D01*
X0000609580Y0000621391D02*
X0000609580Y0000648950D01*
X0000620078Y0000648950D01*
X0000622703Y0000647637D01*
X0000624015Y0000646325D01*
X0000625328Y0000643700D01*
X0000625328Y0000639763D01*
X0000624015Y0000637139D01*
X0000622703Y0000635826D01*
X0000620078Y0000634514D01*
X0000609580Y0000634514D01*
X0000650262Y0000648950D02*
X0000637139Y0000648950D01*
X0000635826Y0000635826D01*
X0000637139Y0000637139D01*
X0000639763Y0000638451D01*
X0000646325Y0000638451D01*
X0000648950Y0000637139D01*
X0000650262Y0000635826D01*
X0000651574Y0000633202D01*
X0000651574Y0000626640D01*
X0000650262Y0000624015D01*
X0000648950Y0000622703D01*
X0000646325Y0000621391D01*
X0000639763Y0000621391D01*
X0000637139Y0000622703D01*
X0000635826Y0000624015D01*
X0000743438Y0000621391D02*
X0000734251Y0000634514D01*
X0000727690Y0000621391D02*
X0000727690Y0000648950D01*
X0000738188Y0000648950D01*
X0000740813Y0000647637D01*
X0000742125Y0000646325D01*
X0000743438Y0000643700D01*
X0000743438Y0000639763D01*
X0000742125Y0000637139D01*
X0000740813Y0000635826D01*
X0000738188Y0000634514D01*
X0000727690Y0000634514D01*
X0000767060Y0000648950D02*
X0000761810Y0000648950D01*
X0000759186Y0000647637D01*
X0000757874Y0000646325D01*
X0000755249Y0000642388D01*
X0000753937Y0000637139D01*
X0000753937Y0000626640D01*
X0000755249Y0000624015D01*
X0000756561Y0000622703D01*
X0000759186Y0000621391D01*
X0000764435Y0000621391D01*
X0000767060Y0000622703D01*
X0000768372Y0000624015D01*
X0000769685Y0000626640D01*
X0000769685Y0000633202D01*
X0000768372Y0000635826D01*
X0000767060Y0000637139D01*
X0000764435Y0000638451D01*
X0000759186Y0000638451D01*
X0000756561Y0000637139D01*
X0000755249Y0000635826D01*
X0000753937Y0000633202D01*
X0000826115Y0000621391D02*
X0000816929Y0000634514D01*
X0000810367Y0000621391D02*
X0000810367Y0000648950D01*
X0000820866Y0000648950D01*
X0000823490Y0000647637D01*
X0000824803Y0000646325D01*
X0000826115Y0000643700D01*
X0000826115Y0000639763D01*
X0000824803Y0000637139D01*
X0000823490Y0000635826D01*
X0000820866Y0000634514D01*
X0000810367Y0000634514D01*
X0000839238Y0000621391D02*
X0000844488Y0000621391D01*
X0000847112Y0000622703D01*
X0000848425Y0000624015D01*
X0000851049Y0000627952D01*
X0000852362Y0000633202D01*
X0000852362Y0000643700D01*
X0000851049Y0000646325D01*
X0000849737Y0000647637D01*
X0000847112Y0000648950D01*
X0000841863Y0000648950D01*
X0000839238Y0000647637D01*
X0000837926Y0000646325D01*
X0000836614Y0000643700D01*
X0000836614Y0000637139D01*
X0000837926Y0000634514D01*
X0000839238Y0000633202D01*
X0000841863Y0000631889D01*
X0000847112Y0000631889D01*
X0000849737Y0000633202D01*
X0000851049Y0000634514D01*
X0000852362Y0000637139D01*
X0000494094Y0000621391D02*
X0000484908Y0000634514D01*
X0000478346Y0000621391D02*
X0000478346Y0000648950D01*
X0000488845Y0000648950D01*
X0000491469Y0000647637D01*
X0000492782Y0000646325D01*
X0000494094Y0000643700D01*
X0000494094Y0000639763D01*
X0000492782Y0000637139D01*
X0000491469Y0000635826D01*
X0000488845Y0000634514D01*
X0000478346Y0000634514D01*
X0000520341Y0000621391D02*
X0000504593Y0000621391D01*
X0000512467Y0000621391D02*
X0000512467Y0000648950D01*
X0000509842Y0000645013D01*
X0000507217Y0000642388D01*
X0000504593Y0000641076D01*
X0000537401Y0000648950D02*
X0000540026Y0000648950D01*
X0000542650Y0000647637D01*
X0000543963Y0000646325D01*
X0000545275Y0000643700D01*
X0000546587Y0000638451D01*
X0000546587Y0000631889D01*
X0000545275Y0000626640D01*
X0000543963Y0000624015D01*
X0000542650Y0000622703D01*
X0000540026Y0000621391D01*
X0000537401Y0000621391D01*
X0000534776Y0000622703D01*
X0000533464Y0000624015D01*
X0000532152Y0000626640D01*
X0000530839Y0000631889D01*
X0000530839Y0000638451D01*
X0000532152Y0000643700D01*
X0000533464Y0000646325D01*
X0000534776Y0000647637D01*
X0000537401Y0000648950D01*
X0000822178Y0000387795D02*
X0000820866Y0000386482D01*
X0000816929Y0000385170D01*
X0000814304Y0000385170D01*
X0000810367Y0000386482D01*
X0000807742Y0000389107D01*
X0000806430Y0000391732D01*
X0000805118Y0000396981D01*
X0000805118Y0000400918D01*
X0000806430Y0000406167D01*
X0000807742Y0000408792D01*
X0000810367Y0000411417D01*
X0000814304Y0000412729D01*
X0000816929Y0000412729D01*
X0000820866Y0000411417D01*
X0000822178Y0000410105D01*
X0000847112Y0000412729D02*
X0000833989Y0000412729D01*
X0000832677Y0000399606D01*
X0000833989Y0000400918D01*
X0000836614Y0000402230D01*
X0000843175Y0000402230D01*
X0000845800Y0000400918D01*
X0000847112Y0000399606D01*
X0000848425Y0000396981D01*
X0000848425Y0000390419D01*
X0000847112Y0000387795D01*
X0000845800Y0000386482D01*
X0000843175Y0000385170D01*
X0000836614Y0000385170D01*
X0000833989Y0000386482D01*
X0000832677Y0000387795D01*
X0000415354Y0000624015D02*
X0000414041Y0000622703D01*
X0000410104Y0000621391D01*
X0000407480Y0000621391D01*
X0000403543Y0000622703D01*
X0000400918Y0000625328D01*
X0000399606Y0000627952D01*
X0000398293Y0000633202D01*
X0000398293Y0000637139D01*
X0000399606Y0000642388D01*
X0000400918Y0000645013D01*
X0000403543Y0000647637D01*
X0000407480Y0000648950D01*
X0000410104Y0000648950D01*
X0000414041Y0000647637D01*
X0000415354Y0000646325D01*
X0000441601Y0000621391D02*
X0000425852Y0000621391D01*
X0000433726Y0000621391D02*
X0000433726Y0000648950D01*
X0000431102Y0000645013D01*
X0000428477Y0000642388D01*
X0000425852Y0000641076D01*
X0000467847Y0000621391D02*
X0000452099Y0000621391D01*
X0000459973Y0000621391D02*
X0000459973Y0000648950D01*
X0000457349Y0000645013D01*
X0000454724Y0000642388D01*
X0000452099Y0000641076D01*
X0000349737Y0000624015D02*
X0000348425Y0000622703D01*
X0000344488Y0000621391D01*
X0000341863Y0000621391D01*
X0000337926Y0000622703D01*
X0000335301Y0000625328D01*
X0000333989Y0000627952D01*
X0000332677Y0000633202D01*
X0000332677Y0000637139D01*
X0000333989Y0000642388D01*
X0000335301Y0000645013D01*
X0000337926Y0000647637D01*
X0000341863Y0000648950D01*
X0000344488Y0000648950D01*
X0000348425Y0000647637D01*
X0000349737Y0000646325D01*
X0000373359Y0000639763D02*
X0000373359Y0000621391D01*
X0000366797Y0000650262D02*
X0000360236Y0000630577D01*
X0000377296Y0000630577D01*
X0000623359Y0000192913D02*
X0000622047Y0000191601D01*
X0000618110Y0000190288D01*
X0000615485Y0000190288D01*
X0000611548Y0000191601D01*
X0000608923Y0000194225D01*
X0000607611Y0000196850D01*
X0000606299Y0000202099D01*
X0000606299Y0000206036D01*
X0000607611Y0000211286D01*
X0000608923Y0000213910D01*
X0000611548Y0000216535D01*
X0000615485Y0000217847D01*
X0000618110Y0000217847D01*
X0000622047Y0000216535D01*
X0000623359Y0000215223D01*
X0000632545Y0000217847D02*
X0000649606Y0000217847D01*
X0000640419Y0000207349D01*
X0000644356Y0000207349D01*
X0000646981Y0000206036D01*
X0000648293Y0000204724D01*
X0000649606Y0000202099D01*
X0000649606Y0000195538D01*
X0000648293Y0000192913D01*
X0000646981Y0000191601D01*
X0000644356Y0000190288D01*
X0000636482Y0000190288D01*
X0000633858Y0000191601D01*
X0000632545Y0000192913D01*
G04 next file*
G04 #@! TF.FileFunction,Legend,Top*
G04 Gerber Fmt 4.6, Leading zero omitted, Abs format (unit mm)*
G04 Created by KiCad (PCBNEW 4.0.4-1.fc24-product) date Tue Jun 12 10:10:46 2018*
G01G01*
G04 APERTURE LIST*
G04 APERTURE END LIST*
D25*
D26*
X0001245078Y0000626968D02*
X0001250787Y0000626968D01*
X0001245078Y0000790354D02*
X0001250787Y0000790354D01*
X0001447834Y0000790354D02*
X0001442125Y0000790354D01*
X0001447834Y0000626968D02*
X0001442125Y0000626968D01*
X0001245078Y0000626968D02*
X0001245078Y0000790354D01*
X0001447834Y0000626968D02*
X0001447834Y0000790354D01*
X0001250787Y0000626968D02*
X0001250787Y0000571850D01*
X0001673228Y0000171259D02*
X0001633858Y0000171259D01*
X0001633858Y0000104330D02*
X0001673228Y0000104330D01*
X0001633858Y0000399606D02*
X0001673228Y0000399606D01*
X0001673228Y0000466535D02*
X0001633858Y0000466535D01*
X0001633858Y0000596456D02*
X0001673228Y0000596456D01*
X0001673228Y0000663385D02*
X0001633858Y0000663385D01*
X0001096456Y0000535433D02*
X0001124015Y0000535433D01*
X0001124015Y0000488188D02*
X0001096456Y0000488188D01*
X0001287401Y0000891732D02*
X0001326771Y0000891732D01*
X0001326771Y0000958661D02*
X0001287401Y0000958661D01*
X0001633858Y0000262795D02*
X0001673228Y0000262795D01*
X0001673228Y0000209645D02*
X0001633858Y0000209645D01*
X0001633858Y0000361220D02*
X0001673228Y0000361220D01*
X0001673228Y0000308070D02*
X0001633858Y0000308070D01*
X0001633858Y0000577755D02*
X0001673228Y0000577755D01*
X0001673228Y0000524606D02*
X0001633858Y0000524606D01*
X0001090551Y0000636811D02*
X0001129921Y0000636811D01*
X0001129921Y0000583661D02*
X0001090551Y0000583661D01*
X0001090551Y0000833661D02*
X0001129921Y0000833661D01*
X0001129921Y0000780511D02*
X0001090551Y0000780511D01*
X0001090551Y0000951771D02*
X0001129921Y0000951771D01*
X0001129921Y0000898622D02*
X0001090551Y0000898622D01*
X0001673228Y0000682086D02*
X0001633858Y0000682086D01*
X0001633858Y0000735236D02*
X0001673228Y0000735236D01*
X0001193569Y0000687664D02*
X0001215879Y0000687664D01*
X0001218503Y0000688976D01*
X0001219816Y0000690288D01*
X0001221128Y0000692913D01*
X0001221128Y0000698162D01*
X0001219816Y0000700787D01*
X0001218503Y0000702099D01*
X0001215879Y0000703412D01*
X0001193569Y0000703412D01*
X0001221128Y0000730971D02*
X0001221128Y0000715223D01*
X0001221128Y0000723097D02*
X0001193569Y0000723097D01*
X0001197506Y0000720472D01*
X0001200131Y0000717847D01*
X0001201443Y0000715223D01*
X0001568897Y0000133202D02*
X0001570209Y0000131889D01*
X0001571522Y0000127952D01*
X0001571522Y0000125328D01*
X0001570209Y0000121391D01*
X0001567585Y0000118766D01*
X0001564960Y0000117454D01*
X0001559711Y0000116141D01*
X0001555774Y0000116141D01*
X0001550524Y0000117454D01*
X0001547900Y0000118766D01*
X0001545275Y0000121391D01*
X0001543963Y0000125328D01*
X0001543963Y0000127952D01*
X0001545275Y0000131889D01*
X0001546587Y0000133202D01*
X0001571522Y0000159448D02*
X0001571522Y0000143700D01*
X0001571522Y0000151574D02*
X0001543963Y0000151574D01*
X0001547900Y0000148950D01*
X0001550524Y0000146325D01*
X0001551837Y0000143700D01*
X0001568897Y0000428477D02*
X0001570209Y0000427165D01*
X0001571522Y0000423228D01*
X0001571522Y0000420603D01*
X0001570209Y0000416666D01*
X0001567585Y0000414042D01*
X0001564960Y0000412729D01*
X0001559711Y0000411417D01*
X0001555774Y0000411417D01*
X0001550524Y0000412729D01*
X0001547900Y0000414042D01*
X0001545275Y0000416666D01*
X0001543963Y0000420603D01*
X0001543963Y0000423228D01*
X0001545275Y0000427165D01*
X0001546587Y0000428477D01*
X0001546587Y0000438976D02*
X0001545275Y0000440288D01*
X0001543963Y0000442913D01*
X0001543963Y0000449475D01*
X0001545275Y0000452099D01*
X0001546587Y0000453412D01*
X0001549212Y0000454724D01*
X0001551837Y0000454724D01*
X0001555774Y0000453412D01*
X0001571522Y0000437664D01*
X0001571522Y0000454724D01*
X0001568897Y0000625328D02*
X0001570209Y0000624015D01*
X0001571522Y0000620078D01*
X0001571522Y0000617454D01*
X0001570209Y0000613517D01*
X0001567585Y0000610892D01*
X0001564960Y0000609580D01*
X0001559711Y0000608267D01*
X0001555774Y0000608267D01*
X0001550524Y0000609580D01*
X0001547900Y0000610892D01*
X0001545275Y0000613517D01*
X0001543963Y0000617454D01*
X0001543963Y0000620078D01*
X0001545275Y0000624015D01*
X0001546587Y0000625328D01*
X0001543963Y0000634514D02*
X0001543963Y0000651574D01*
X0001554461Y0000642388D01*
X0001554461Y0000646325D01*
X0001555774Y0000648950D01*
X0001557086Y0000650262D01*
X0001559711Y0000651574D01*
X0001566272Y0000651574D01*
X0001568897Y0000650262D01*
X0001570209Y0000648950D01*
X0001571522Y0000646325D01*
X0001571522Y0000638451D01*
X0001570209Y0000635826D01*
X0001568897Y0000634514D01*
X0001029527Y0000507217D02*
X0001030839Y0000505905D01*
X0001032152Y0000501968D01*
X0001032152Y0000499343D01*
X0001030839Y0000495406D01*
X0001028215Y0000492782D01*
X0001025590Y0000491469D01*
X0001020341Y0000490157D01*
X0001016404Y0000490157D01*
X0001011154Y0000491469D01*
X0001008530Y0000492782D01*
X0001005905Y0000495406D01*
X0001004593Y0000499343D01*
X0001004593Y0000501968D01*
X0001005905Y0000505905D01*
X0001007217Y0000507217D01*
X0001013779Y0000530839D02*
X0001032152Y0000530839D01*
X0001003280Y0000524278D02*
X0001022965Y0000517716D01*
X0001022965Y0000534776D01*
X0001234251Y0000916666D02*
X0001235564Y0000915354D01*
X0001236876Y0000911417D01*
X0001236876Y0000908792D01*
X0001235564Y0000904855D01*
X0001232939Y0000902230D01*
X0001230314Y0000900918D01*
X0001225065Y0000899606D01*
X0001221128Y0000899606D01*
X0001215879Y0000900918D01*
X0001213254Y0000902230D01*
X0001210629Y0000904855D01*
X0001209317Y0000908792D01*
X0001209317Y0000911417D01*
X0001210629Y0000915354D01*
X0001211942Y0000916666D01*
X0001209317Y0000940288D02*
X0001209317Y0000935039D01*
X0001210629Y0000932414D01*
X0001211942Y0000931102D01*
X0001215879Y0000928477D01*
X0001221128Y0000927165D01*
X0001231627Y0000927165D01*
X0001234251Y0000928477D01*
X0001235564Y0000929790D01*
X0001236876Y0000932414D01*
X0001236876Y0000937664D01*
X0001235564Y0000940288D01*
X0001234251Y0000941601D01*
X0001231627Y0000942913D01*
X0001225065Y0000942913D01*
X0001222440Y0000941601D01*
X0001221128Y0000940288D01*
X0001219816Y0000937664D01*
X0001219816Y0000932414D01*
X0001221128Y0000929790D01*
X0001222440Y0000928477D01*
X0001225065Y0000927165D01*
X0001571522Y0000231627D02*
X0001558398Y0000222440D01*
X0001571522Y0000215879D02*
X0001543963Y0000215879D01*
X0001543963Y0000226377D01*
X0001545275Y0000229002D01*
X0001546587Y0000230314D01*
X0001549212Y0000231627D01*
X0001553149Y0000231627D01*
X0001555774Y0000230314D01*
X0001557086Y0000229002D01*
X0001558398Y0000226377D01*
X0001558398Y0000215879D01*
X0001571522Y0000257874D02*
X0001571522Y0000242125D01*
X0001571522Y0000249999D02*
X0001543963Y0000249999D01*
X0001547900Y0000247375D01*
X0001550524Y0000244750D01*
X0001551837Y0000242125D01*
X0001571522Y0000330052D02*
X0001558398Y0000320866D01*
X0001571522Y0000314304D02*
X0001543963Y0000314304D01*
X0001543963Y0000324803D01*
X0001545275Y0000327427D01*
X0001546587Y0000328740D01*
X0001549212Y0000330052D01*
X0001553149Y0000330052D01*
X0001555774Y0000328740D01*
X0001557086Y0000327427D01*
X0001558398Y0000324803D01*
X0001558398Y0000314304D01*
X0001546587Y0000340551D02*
X0001545275Y0000341863D01*
X0001543963Y0000344488D01*
X0001543963Y0000351049D01*
X0001545275Y0000353674D01*
X0001546587Y0000354986D01*
X0001549212Y0000356299D01*
X0001551837Y0000356299D01*
X0001555774Y0000354986D01*
X0001571522Y0000339238D01*
X0001571522Y0000356299D01*
X0001571522Y0000546587D02*
X0001558398Y0000537401D01*
X0001571522Y0000530839D02*
X0001543963Y0000530839D01*
X0001543963Y0000541338D01*
X0001545275Y0000543963D01*
X0001546587Y0000545275D01*
X0001549212Y0000546587D01*
X0001553149Y0000546587D01*
X0001555774Y0000545275D01*
X0001557086Y0000543963D01*
X0001558398Y0000541338D01*
X0001558398Y0000530839D01*
X0001543963Y0000555774D02*
X0001543963Y0000572834D01*
X0001554461Y0000563648D01*
X0001554461Y0000567585D01*
X0001555774Y0000570210D01*
X0001557086Y0000571522D01*
X0001559711Y0000572834D01*
X0001566272Y0000572834D01*
X0001568897Y0000571522D01*
X0001570209Y0000570210D01*
X0001571522Y0000567585D01*
X0001571522Y0000559711D01*
X0001570209Y0000557086D01*
X0001568897Y0000555774D01*
X0001032152Y0000605643D02*
X0001019028Y0000596456D01*
X0001032152Y0000589895D02*
X0001004593Y0000589895D01*
X0001004593Y0000600393D01*
X0001005905Y0000603018D01*
X0001007217Y0000604330D01*
X0001009842Y0000605643D01*
X0001013779Y0000605643D01*
X0001016404Y0000604330D01*
X0001017716Y0000603018D01*
X0001019028Y0000600393D01*
X0001019028Y0000589895D01*
X0001004593Y0000629265D02*
X0001004593Y0000624015D01*
X0001005905Y0000621391D01*
X0001007217Y0000620078D01*
X0001011154Y0000617454D01*
X0001016404Y0000616141D01*
X0001026902Y0000616141D01*
X0001029527Y0000617454D01*
X0001030839Y0000618766D01*
X0001032152Y0000621391D01*
X0001032152Y0000626640D01*
X0001030839Y0000629265D01*
X0001029527Y0000630577D01*
X0001026902Y0000631889D01*
X0001020341Y0000631889D01*
X0001017716Y0000630577D01*
X0001016404Y0000629265D01*
X0001015091Y0000626640D01*
X0001015091Y0000621391D01*
X0001016404Y0000618766D01*
X0001017716Y0000617454D01*
X0001020341Y0000616141D01*
X0001032152Y0000802493D02*
X0001019028Y0000793307D01*
X0001032152Y0000786745D02*
X0001004593Y0000786745D01*
X0001004593Y0000797244D01*
X0001005905Y0000799868D01*
X0001007217Y0000801181D01*
X0001009842Y0000802493D01*
X0001013779Y0000802493D01*
X0001016404Y0000801181D01*
X0001017716Y0000799868D01*
X0001019028Y0000797244D01*
X0001019028Y0000786745D01*
X0001016404Y0000818241D02*
X0001015091Y0000815616D01*
X0001013779Y0000814304D01*
X0001011154Y0000812992D01*
X0001009842Y0000812992D01*
X0001007217Y0000814304D01*
X0001005905Y0000815616D01*
X0001004593Y0000818241D01*
X0001004593Y0000823490D01*
X0001005905Y0000826115D01*
X0001007217Y0000827427D01*
X0001009842Y0000828740D01*
X0001011154Y0000828740D01*
X0001013779Y0000827427D01*
X0001015091Y0000826115D01*
X0001016404Y0000823490D01*
X0001016404Y0000818241D01*
X0001017716Y0000815616D01*
X0001019028Y0000814304D01*
X0001021653Y0000812992D01*
X0001026902Y0000812992D01*
X0001029527Y0000814304D01*
X0001030839Y0000815616D01*
X0001032152Y0000818241D01*
X0001032152Y0000823490D01*
X0001030839Y0000826115D01*
X0001029527Y0000827427D01*
X0001026902Y0000828740D01*
X0001021653Y0000828740D01*
X0001019028Y0000827427D01*
X0001017716Y0000826115D01*
X0001016404Y0000823490D01*
X0001032152Y0000920603D02*
X0001019028Y0000911417D01*
X0001032152Y0000904855D02*
X0001004593Y0000904855D01*
X0001004593Y0000915354D01*
X0001005905Y0000917978D01*
X0001007217Y0000919291D01*
X0001009842Y0000920603D01*
X0001013779Y0000920603D01*
X0001016404Y0000919291D01*
X0001017716Y0000917978D01*
X0001019028Y0000915354D01*
X0001019028Y0000904855D01*
X0001032152Y0000933727D02*
X0001032152Y0000938976D01*
X0001030839Y0000941601D01*
X0001029527Y0000942913D01*
X0001025590Y0000945538D01*
X0001020341Y0000946850D01*
X0001009842Y0000946850D01*
X0001007217Y0000945538D01*
X0001005905Y0000944225D01*
X0001004593Y0000941601D01*
X0001004593Y0000936351D01*
X0001005905Y0000933727D01*
X0001007217Y0000932414D01*
X0001009842Y0000931102D01*
X0001016404Y0000931102D01*
X0001019028Y0000932414D01*
X0001020341Y0000933727D01*
X0001021653Y0000936351D01*
X0001021653Y0000941601D01*
X0001020341Y0000944225D01*
X0001019028Y0000945538D01*
X0001016404Y0000946850D01*
X0001571522Y0000690944D02*
X0001558398Y0000681758D01*
X0001571522Y0000675196D02*
X0001543963Y0000675196D01*
X0001543963Y0000685695D01*
X0001545275Y0000688320D01*
X0001546587Y0000689632D01*
X0001549212Y0000690944D01*
X0001553149Y0000690944D01*
X0001555774Y0000689632D01*
X0001557086Y0000688320D01*
X0001558398Y0000685695D01*
X0001558398Y0000675196D01*
X0001571522Y0000717191D02*
X0001571522Y0000701443D01*
X0001571522Y0000709317D02*
X0001543963Y0000709317D01*
X0001547900Y0000706692D01*
X0001550524Y0000704068D01*
X0001551837Y0000701443D01*
X0001543963Y0000734251D02*
X0001543963Y0000736876D01*
X0001545275Y0000739501D01*
X0001546587Y0000740813D01*
X0001549212Y0000742125D01*
X0001554461Y0000743438D01*
X0001561023Y0000743438D01*
X0001566272Y0000742125D01*
X0001568897Y0000740813D01*
X0001570209Y0000739501D01*
X0001571522Y0000736876D01*
X0001571522Y0000734251D01*
X0001570209Y0000731627D01*
X0001568897Y0000730314D01*
X0001566272Y0000729002D01*
X0001561023Y0000727690D01*
X0001554461Y0000727690D01*
X0001549212Y0000729002D01*
X0001546587Y0000730314D01*
X0001545275Y0000731627D01*
X0001543963Y0000734251D01*
G04 next file*
G04 #@! TF.FileFunction,Legend,Top*
G04 Gerber Fmt 4.6, Leading zero omitted, Abs format (unit mm)*
G04 Created by KiCad (PCBNEW 4.0.4-1.fc24-product) date Tue Jun 12 10:11:03 2018*
G01G01*
G04 APERTURE LIST*
G04 APERTURE END LIST*
D27*
D28*
X0000633464Y0002857086D02*
X0000633464Y0002961810D01*
X0000231102Y0002857086D02*
X0000633464Y0002857086D01*
X0000231102Y0002961810D02*
X0000633464Y0002961810D01*
X0000231102Y0002857086D02*
X0000231102Y0002961810D01*
X0000181102Y0002857086D02*
X0000128740Y0002857086D01*
X0000128740Y0002857086D02*
X0000128740Y0002909448D01*
X0000633464Y0002740944D02*
X0000633464Y0002845669D01*
X0000231102Y0002740944D02*
X0000633464Y0002740944D01*
X0000231102Y0002845669D02*
X0000633464Y0002845669D01*
X0000231102Y0002740944D02*
X0000231102Y0002845669D01*
X0000181102Y0002740944D02*
X0000128740Y0002740944D01*
X0000128740Y0002740944D02*
X0000128740Y0002793307D01*
X0000633464Y0002624803D02*
X0000633464Y0002729527D01*
X0000231102Y0002624803D02*
X0000633464Y0002624803D01*
X0000231102Y0002729527D02*
X0000633464Y0002729527D01*
X0000231102Y0002624803D02*
X0000231102Y0002729527D01*
X0000181102Y0002624803D02*
X0000128740Y0002624803D01*
X0000128740Y0002624803D02*
X0000128740Y0002677165D01*
D29*
X0000877990Y0002735003D02*
X0000877990Y0002514603D01*
X0000897590Y0002522403D02*
X0000877990Y0002522403D01*
X0000877990Y0002727203D02*
X0000897590Y0002727203D01*
X0000897590Y0002624803D02*
X0000877990Y0002624803D01*
X0000669290Y0002514603D02*
X0000669290Y0002735003D01*
X0000897590Y0002514603D02*
X0000897590Y0002735003D01*
X0000897590Y0002735003D02*
X0000653590Y0002735003D01*
X0000653590Y0002735003D02*
X0000653590Y0002514603D01*
X0000653590Y0002514603D02*
X0000897590Y0002514603D01*
X0000653590Y0002494470D02*
X0000653590Y0002171670D01*
X0000669290Y0002494470D02*
X0000669290Y0002171670D01*
X0000877990Y0002494470D02*
X0000877990Y0002171670D01*
X0000897590Y0002171670D02*
X0000897590Y0002494470D01*
X0000877990Y0002384270D02*
X0000897590Y0002384270D01*
X0000897590Y0002179570D02*
X0000877990Y0002179570D01*
X0000877990Y0002486670D02*
X0000897590Y0002486670D01*
X0000897590Y0002281970D02*
X0000877990Y0002281970D01*
X0000897590Y0002494470D02*
X0000653590Y0002494470D01*
X0000653590Y0002171770D02*
X0000897590Y0002171770D01*
X0000642388Y0002900262D02*
X0000662073Y0002900262D01*
X0000666010Y0002898950D01*
X0000668635Y0002896325D01*
X0000669947Y0002892388D01*
X0000669947Y0002889763D01*
X0000642388Y0002910761D02*
X0000642388Y0002927821D01*
X0000652887Y0002918635D01*
X0000652887Y0002922572D01*
X0000654199Y0002925196D01*
X0000655511Y0002926509D01*
X0000658136Y0002927821D01*
X0000664698Y0002927821D01*
X0000667322Y0002926509D01*
X0000668635Y0002925196D01*
X0000669947Y0002922572D01*
X0000669947Y0002914698D01*
X0000668635Y0002912073D01*
X0000667322Y0002910761D01*
X0000642388Y0002784120D02*
X0000662073Y0002784120D01*
X0000666010Y0002782808D01*
X0000668635Y0002780183D01*
X0000669947Y0002776246D01*
X0000669947Y0002773622D01*
X0000669947Y0002811679D02*
X0000669947Y0002795931D01*
X0000669947Y0002803805D02*
X0000642388Y0002803805D01*
X0000646325Y0002801181D01*
X0000648950Y0002798556D01*
X0000650262Y0002795931D01*
X0000166010Y0002585301D02*
X0000185695Y0002585301D01*
X0000189632Y0002583989D01*
X0000192257Y0002581364D01*
X0000193569Y0002577427D01*
X0000193569Y0002574803D01*
X0000168635Y0002597112D02*
X0000167322Y0002598425D01*
X0000166010Y0002601049D01*
X0000166010Y0002607611D01*
X0000167322Y0002610236D01*
X0000168635Y0002611548D01*
X0000171259Y0002612860D01*
X0000173884Y0002612860D01*
X0000177821Y0002611548D01*
X0000193569Y0002595800D01*
X0000193569Y0002612860D01*
X0000614829Y0002565616D02*
X0000634514Y0002565616D01*
X0000638451Y0002564304D01*
X0000641076Y0002561679D01*
X0000642388Y0002557742D01*
X0000642388Y0002555118D01*
X0000624015Y0002590551D02*
X0000642388Y0002590551D01*
X0000613517Y0002583989D02*
X0000633202Y0002577427D01*
X0000633202Y0002594488D01*
X0000614829Y0002223097D02*
X0000634514Y0002223097D01*
X0000638451Y0002221784D01*
X0000641076Y0002219160D01*
X0000642388Y0002215223D01*
X0000642388Y0002212598D01*
X0000614829Y0002249343D02*
X0000614829Y0002236220D01*
X0000627952Y0002234908D01*
X0000626640Y0002236220D01*
X0000625328Y0002238845D01*
X0000625328Y0002245406D01*
X0000626640Y0002248031D01*
X0000627952Y0002249343D01*
X0000630577Y0002250656D01*
X0000637139Y0002250656D01*
X0000639763Y0002249343D01*
X0000641076Y0002248031D01*
X0000642388Y0002245406D01*
X0000642388Y0002238845D01*
X0000641076Y0002236220D01*
X0000639763Y0002234908D01*
G04 next file*
G36*
X0000663300Y0001926200D02*
G01G01*
X0000664200Y0001926300D01*
X0000664999Y0001926700D01*
X0000665599Y0001927400D01*
X0000666100Y0001928200D01*
X0000666200Y0001929100D01*
X0000666100Y0001930000D01*
X0000665599Y0001930900D01*
X0000664999Y0001931500D01*
X0000664200Y0001931900D01*
X0000663300Y0001932100D01*
X0000163299Y0001932100D01*
X0000162300Y0001931900D01*
X0000161500Y0001931500D01*
X0000160900Y0001930900D01*
X0000160400Y0001930000D01*
X0000160299Y0001929100D01*
X0000160400Y0001928200D01*
X0000160900Y0001927400D01*
X0000161500Y0001926700D01*
X0000162300Y0001926300D01*
X0000163299Y0001926200D01*
X0000663300Y0001926200D01*
G37*
G36*
X0000160299Y0001102400D02*
G01G01*
X0000166200Y0001102400D01*
X0000166200Y0001929100D01*
X0000166100Y0001930000D01*
X0000165599Y0001930900D01*
X0000165000Y0001931500D01*
X0000164200Y0001931900D01*
X0000163299Y0001932100D01*
X0000162300Y0001931900D01*
X0000161500Y0001931500D01*
X0000160900Y0001930900D01*
X0000160400Y0001930000D01*
X0000160299Y0001929100D01*
X0000160299Y0001102400D01*
G37*
G36*
X0000160299Y0001102400D02*
G01G01*
X0000666200Y0001102400D01*
X0000666100Y0001103300D01*
X0000665599Y0001104100D01*
X0000664999Y0001104800D01*
X0000664200Y0001105200D01*
X0000663300Y0001105300D01*
X0000163299Y0001105300D01*
X0000162300Y0001105200D01*
X0000161500Y0001104800D01*
X0000160900Y0001104100D01*
X0000160400Y0001103300D01*
X0000160299Y0001102400D01*
G37*
G36*
X0000660300Y0001102400D02*
G01G01*
X0000666200Y0001102400D01*
X0000666200Y0001929100D01*
X0000666100Y0001930000D01*
X0000665599Y0001930900D01*
X0000664999Y0001931500D01*
X0000664200Y0001931900D01*
X0000663300Y0001932100D01*
X0000662299Y0001931900D01*
X0000661500Y0001931500D01*
X0000660900Y0001930900D01*
X0000660400Y0001930000D01*
X0000660300Y0001929100D01*
X0000660300Y0001102400D01*
G37*
G36*
X0000370300Y0001872899D02*
G01G01*
X0000371200Y0001873099D01*
X0000372099Y0001873499D01*
X0000372700Y0001874200D01*
X0000373100Y0001875000D01*
X0000373300Y0001875900D01*
X0000373100Y0001876800D01*
X0000372700Y0001877600D01*
X0000372099Y0001878300D01*
X0000371200Y0001878699D01*
X0000365600Y0001880600D01*
X0000364700Y0001880700D01*
X0000363800Y0001880600D01*
X0000362999Y0001880200D01*
X0000362300Y0001879499D01*
X0000361900Y0001878699D01*
X0000361700Y0001877800D01*
X0000361900Y0001876900D01*
X0000362300Y0001876000D01*
X0000362999Y0001875400D01*
X0000363800Y0001875000D01*
X0000369400Y0001873099D01*
X0000370300Y0001872899D01*
G37*
G36*
X0000379699Y0001872899D02*
G01G01*
X0000380600Y0001873099D01*
X0000381400Y0001873499D01*
X0000382100Y0001874200D01*
X0000382500Y0001875000D01*
X0000382699Y0001875900D01*
X0000382500Y0001876800D01*
X0000382100Y0001877600D01*
X0000381400Y0001878300D01*
X0000380600Y0001878699D01*
X0000379699Y0001878800D01*
X0000370300Y0001878800D01*
X0000369400Y0001878699D01*
X0000368600Y0001878300D01*
X0000367900Y0001877600D01*
X0000367499Y0001876800D01*
X0000367399Y0001875900D01*
X0000367499Y0001875000D01*
X0000367900Y0001874200D01*
X0000368600Y0001873499D01*
X0000369400Y0001873099D01*
X0000370300Y0001872899D01*
X0000379699Y0001872899D01*
G37*
G36*
X0000379699Y0001872899D02*
G01G01*
X0000380600Y0001873099D01*
X0000384400Y0001875000D01*
X0000385200Y0001875400D01*
X0000385799Y0001876000D01*
X0000386300Y0001876900D01*
X0000386400Y0001877800D01*
X0000386300Y0001878699D01*
X0000385799Y0001879499D01*
X0000385200Y0001880200D01*
X0000384400Y0001880600D01*
X0000383400Y0001880700D01*
X0000382500Y0001880600D01*
X0000378800Y0001878699D01*
X0000378000Y0001878300D01*
X0000377300Y0001877600D01*
X0000376900Y0001876800D01*
X0000376699Y0001875900D01*
X0000376900Y0001875000D01*
X0000377300Y0001874200D01*
X0000378000Y0001873499D01*
X0000378800Y0001873099D01*
X0000379699Y0001872899D01*
G37*
G36*
X0000383400Y0001874800D02*
G01G01*
X0000384400Y0001875000D01*
X0000385200Y0001875400D01*
X0000387700Y0001877900D01*
X0000388100Y0001878699D01*
X0000388300Y0001879600D01*
X0000388100Y0001880600D01*
X0000387700Y0001881400D01*
X0000387100Y0001882000D01*
X0000386200Y0001882400D01*
X0000385300Y0001882600D01*
X0000384400Y0001882400D01*
X0000383600Y0001882000D01*
X0000381099Y0001879499D01*
X0000380600Y0001878699D01*
X0000380500Y0001877800D01*
X0000380600Y0001876900D01*
X0000381099Y0001876000D01*
X0000381700Y0001875400D01*
X0000382500Y0001875000D01*
X0000383400Y0001874800D01*
G37*
G36*
X0000385300Y0001876700D02*
G01G01*
X0000386200Y0001876800D01*
X0000387100Y0001877300D01*
X0000387700Y0001877900D01*
X0000388100Y0001878699D01*
X0000390000Y0001882500D01*
X0000390100Y0001883400D01*
X0000390000Y0001884300D01*
X0000389600Y0001885099D01*
X0000388900Y0001885800D01*
X0000388100Y0001886200D01*
X0000387199Y0001886300D01*
X0000386300Y0001886200D01*
X0000385500Y0001885800D01*
X0000384800Y0001885099D01*
X0000384400Y0001884300D01*
X0000382500Y0001880600D01*
X0000382400Y0001879600D01*
X0000382500Y0001878699D01*
X0000382900Y0001877900D01*
X0000383600Y0001877300D01*
X0000384400Y0001876800D01*
X0000385300Y0001876700D01*
G37*
G36*
X0000387199Y0001880400D02*
G01G01*
X0000388100Y0001880600D01*
X0000388900Y0001881000D01*
X0000389600Y0001881700D01*
X0000390000Y0001882500D01*
X0000390100Y0001883400D01*
X0000390100Y0001887100D01*
X0000390000Y0001888100D01*
X0000389600Y0001888900D01*
X0000388900Y0001889500D01*
X0000388100Y0001889900D01*
X0000387199Y0001890100D01*
X0000386300Y0001889900D01*
X0000385500Y0001889500D01*
X0000384800Y0001888900D01*
X0000384400Y0001888100D01*
X0000384199Y0001887100D01*
X0000384199Y0001883400D01*
X0000384400Y0001882500D01*
X0000384800Y0001881700D01*
X0000385500Y0001881000D01*
X0000386300Y0001880600D01*
X0000387199Y0001880400D01*
G37*
G36*
X0000387199Y0001884200D02*
G01G01*
X0000388100Y0001884300D01*
X0000388900Y0001884699D01*
X0000389600Y0001885400D01*
X0000390000Y0001886200D01*
X0000390100Y0001887100D01*
X0000390000Y0001888100D01*
X0000388100Y0001891800D01*
X0000387700Y0001892600D01*
X0000387100Y0001893300D01*
X0000386200Y0001893700D01*
X0000385300Y0001893800D01*
X0000384400Y0001893700D01*
X0000383600Y0001893300D01*
X0000382900Y0001892600D01*
X0000382500Y0001891800D01*
X0000382400Y0001890899D01*
X0000382500Y0001890000D01*
X0000382500Y0001889900D01*
X0000384400Y0001886200D01*
X0000384800Y0001885400D01*
X0000385500Y0001884699D01*
X0000386300Y0001884300D01*
X0000387199Y0001884200D01*
G37*
G36*
X0000385300Y0001887900D02*
G01G01*
X0000386200Y0001888100D01*
X0000387100Y0001888500D01*
X0000387700Y0001889200D01*
X0000388100Y0001890000D01*
X0000388300Y0001890899D01*
X0000388100Y0001891800D01*
X0000387700Y0001892600D01*
X0000385200Y0001895200D01*
X0000384400Y0001895600D01*
X0000383400Y0001895700D01*
X0000382500Y0001895600D01*
X0000381700Y0001895200D01*
X0000381099Y0001894500D01*
X0000380600Y0001893700D01*
X0000380500Y0001892800D01*
X0000380600Y0001891899D01*
X0000381099Y0001891000D01*
X0000383600Y0001888500D01*
X0000384400Y0001888100D01*
X0000385300Y0001887900D01*
G37*
G36*
X0000383400Y0001889800D02*
G01G01*
X0000384400Y0001890000D01*
X0000385200Y0001890400D01*
X0000385799Y0001891000D01*
X0000386300Y0001891899D01*
X0000386400Y0001892800D01*
X0000386300Y0001893700D01*
X0000385799Y0001894500D01*
X0000385200Y0001895200D01*
X0000384400Y0001895600D01*
X0000380600Y0001897400D01*
X0000379699Y0001897600D01*
X0000378800Y0001897400D01*
X0000378000Y0001897000D01*
X0000377300Y0001896400D01*
X0000376900Y0001895600D01*
X0000376699Y0001894600D01*
X0000376900Y0001893700D01*
X0000377300Y0001892900D01*
X0000378000Y0001892200D01*
X0000378800Y0001891800D01*
X0000382500Y0001890000D01*
X0000383400Y0001889800D01*
G37*
G36*
X0000379699Y0001891699D02*
G01G01*
X0000380600Y0001891800D01*
X0000381400Y0001892200D01*
X0000382100Y0001892900D01*
X0000382500Y0001893700D01*
X0000382699Y0001894600D01*
X0000382500Y0001895600D01*
X0000382100Y0001896400D01*
X0000381400Y0001897000D01*
X0000380600Y0001897400D01*
X0000373100Y0001899300D01*
X0000372199Y0001899500D01*
X0000371300Y0001899300D01*
X0000370499Y0001898900D01*
X0000369800Y0001898200D01*
X0000369400Y0001897400D01*
X0000369199Y0001896500D01*
X0000369400Y0001895600D01*
X0000369800Y0001894800D01*
X0000370499Y0001894100D01*
X0000371300Y0001893700D01*
X0000378800Y0001891800D01*
X0000379699Y0001891699D01*
G37*
G36*
X0000372199Y0001893600D02*
G01G01*
X0000373100Y0001893700D01*
X0000373900Y0001894100D01*
X0000374600Y0001894800D01*
X0000374999Y0001895600D01*
X0000375199Y0001896500D01*
X0000374999Y0001897400D01*
X0000374600Y0001898200D01*
X0000373900Y0001898900D01*
X0000373100Y0001899300D01*
X0000369400Y0001901200D01*
X0000368400Y0001901300D01*
X0000367499Y0001901200D01*
X0000366700Y0001900800D01*
X0000366099Y0001900100D01*
X0000365600Y0001899300D01*
X0000365500Y0001898400D01*
X0000365600Y0001897499D01*
X0000366099Y0001896699D01*
X0000366700Y0001896000D01*
X0000367499Y0001895600D01*
X0000371300Y0001893700D01*
X0000372199Y0001893600D01*
G37*
G36*
X0000368400Y0001895400D02*
G01G01*
X0000369400Y0001895600D01*
X0000370200Y0001896000D01*
X0000370800Y0001896699D01*
X0000371300Y0001897499D01*
X0000371400Y0001898400D01*
X0000371300Y0001899300D01*
X0000370800Y0001900100D01*
X0000370200Y0001900800D01*
X0000368999Y0001902000D01*
X0000368999Y0001902000D01*
X0000368300Y0001902700D01*
X0000367499Y0001903099D01*
X0000366600Y0001903200D01*
X0000365700Y0001903099D01*
X0000364800Y0001902700D01*
X0000364200Y0001902000D01*
X0000363800Y0001901200D01*
X0000363600Y0001900300D01*
X0000363800Y0001899300D01*
X0000364200Y0001898500D01*
X0000364800Y0001897899D01*
X0000366099Y0001896699D01*
X0000366099Y0001896699D01*
X0000366700Y0001896000D01*
X0000367499Y0001895600D01*
X0000368400Y0001895400D01*
G37*
G36*
X0000366600Y0001897299D02*
G01G01*
X0000367499Y0001897499D01*
X0000368300Y0001897899D01*
X0000368999Y0001898500D01*
X0000369400Y0001899300D01*
X0000369500Y0001900300D01*
X0000369400Y0001901200D01*
X0000367499Y0001904900D01*
X0000367100Y0001905700D01*
X0000366400Y0001906400D01*
X0000365600Y0001906800D01*
X0000364700Y0001907000D01*
X0000363800Y0001906800D01*
X0000362999Y0001906400D01*
X0000362300Y0001905700D01*
X0000361900Y0001904900D01*
X0000361700Y0001904000D01*
X0000361900Y0001903099D01*
X0000361900Y0001903099D01*
X0000363800Y0001899300D01*
X0000364200Y0001898500D01*
X0000364800Y0001897899D01*
X0000365700Y0001897499D01*
X0000366600Y0001897299D01*
G37*
G36*
X0000364700Y0001901100D02*
G01G01*
X0000365600Y0001901200D01*
X0000366400Y0001901600D01*
X0000367100Y0001902300D01*
X0000367499Y0001903099D01*
X0000367700Y0001904000D01*
X0000367700Y0001907800D01*
X0000367499Y0001908700D01*
X0000367100Y0001909499D01*
X0000366400Y0001910099D01*
X0000365600Y0001910600D01*
X0000364700Y0001910700D01*
X0000363800Y0001910600D01*
X0000362999Y0001910099D01*
X0000362300Y0001909499D01*
X0000361900Y0001908700D01*
X0000361700Y0001907800D01*
X0000361700Y0001904000D01*
X0000361900Y0001903099D01*
X0000362300Y0001902300D01*
X0000362999Y0001901600D01*
X0000363800Y0001901200D01*
X0000364700Y0001901100D01*
G37*
G36*
X0000364700Y0001904800D02*
G01G01*
X0000365600Y0001905000D01*
X0000366400Y0001905400D01*
X0000367100Y0001906000D01*
X0000367499Y0001906800D01*
X0000369400Y0001910600D01*
X0000369500Y0001911500D01*
X0000369400Y0001912400D01*
X0000368999Y0001913200D01*
X0000368300Y0001913900D01*
X0000367499Y0001914300D01*
X0000366600Y0001914500D01*
X0000365700Y0001914300D01*
X0000364800Y0001913900D01*
X0000364200Y0001913200D01*
X0000363800Y0001912400D01*
X0000361900Y0001908700D01*
X0000361700Y0001907800D01*
X0000361900Y0001906800D01*
X0000362300Y0001906000D01*
X0000362999Y0001905400D01*
X0000363800Y0001905000D01*
X0000364700Y0001904800D01*
G37*
G36*
X0000366600Y0001908600D02*
G01G01*
X0000367499Y0001908700D01*
X0000368300Y0001909099D01*
X0000368999Y0001909800D01*
X0000370800Y0001911600D01*
X0000371300Y0001912500D01*
X0000371400Y0001913400D01*
X0000371300Y0001914300D01*
X0000370800Y0001915099D01*
X0000370200Y0001915800D01*
X0000369400Y0001916200D01*
X0000368400Y0001916299D01*
X0000367499Y0001916200D01*
X0000366700Y0001915800D01*
X0000366099Y0001915099D01*
X0000364200Y0001913200D01*
X0000363800Y0001912400D01*
X0000363600Y0001911500D01*
X0000363800Y0001910600D01*
X0000364200Y0001909800D01*
X0000364800Y0001909099D01*
X0000365700Y0001908700D01*
X0000366600Y0001908600D01*
G37*
G36*
X0000368400Y0001910400D02*
G01G01*
X0000369400Y0001910600D01*
X0000373100Y0001912500D01*
X0000373900Y0001912900D01*
X0000374600Y0001913500D01*
X0000374999Y0001914300D01*
X0000375199Y0001915299D01*
X0000374999Y0001916200D01*
X0000374600Y0001917000D01*
X0000373900Y0001917600D01*
X0000373100Y0001918100D01*
X0000372199Y0001918200D01*
X0000371300Y0001918100D01*
X0000367499Y0001916200D01*
X0000366700Y0001915800D01*
X0000366099Y0001915099D01*
X0000365600Y0001914300D01*
X0000365500Y0001913400D01*
X0000365600Y0001912500D01*
X0000366099Y0001911600D01*
X0000366700Y0001911000D01*
X0000367499Y0001910600D01*
X0000368400Y0001910400D01*
G37*
G36*
X0000381600Y0001912300D02*
G01G01*
X0000382500Y0001912500D01*
X0000383300Y0001912900D01*
X0000384000Y0001913500D01*
X0000384400Y0001914300D01*
X0000384500Y0001915299D01*
X0000384400Y0001916200D01*
X0000384000Y0001917000D01*
X0000383300Y0001917600D01*
X0000382500Y0001918100D01*
X0000381600Y0001918200D01*
X0000372199Y0001918200D01*
X0000371300Y0001918100D01*
X0000370499Y0001917600D01*
X0000369800Y0001917000D01*
X0000369400Y0001916200D01*
X0000369199Y0001915299D01*
X0000369400Y0001914300D01*
X0000369800Y0001913500D01*
X0000370499Y0001912900D01*
X0000371300Y0001912500D01*
X0000372199Y0001912300D01*
X0000381600Y0001912300D01*
G37*
G36*
X0000387199Y0001910400D02*
G01G01*
X0000388100Y0001910600D01*
X0000388900Y0001911000D01*
X0000389600Y0001911600D01*
X0000390000Y0001912500D01*
X0000390100Y0001913400D01*
X0000390000Y0001914300D01*
X0000389600Y0001915099D01*
X0000388900Y0001915800D01*
X0000388100Y0001916200D01*
X0000382500Y0001918100D01*
X0000381600Y0001918200D01*
X0000380700Y0001918100D01*
X0000379800Y0001917600D01*
X0000379200Y0001917000D01*
X0000378800Y0001916200D01*
X0000378600Y0001915299D01*
X0000378800Y0001914300D01*
X0000379200Y0001913500D01*
X0000379800Y0001912900D01*
X0000380700Y0001912500D01*
X0000386300Y0001910600D01*
X0000387199Y0001910400D01*
G37*
G36*
X0000409700Y0001872899D02*
G01G01*
X0000410600Y0001873099D01*
X0000411400Y0001873499D01*
X0000412100Y0001874200D01*
X0000412500Y0001875000D01*
X0000412600Y0001875900D01*
X0000412500Y0001876800D01*
X0000403100Y0001916200D01*
X0000402700Y0001917000D01*
X0000402100Y0001917600D01*
X0000401200Y0001918100D01*
X0000400300Y0001918200D01*
X0000399399Y0001918100D01*
X0000398600Y0001917600D01*
X0000397899Y0001917000D01*
X0000397500Y0001916200D01*
X0000397400Y0001915299D01*
X0000397500Y0001914300D01*
X0000406900Y0001875000D01*
X0000407300Y0001874200D01*
X0000408000Y0001873499D01*
X0000408800Y0001873099D01*
X0000409700Y0001872899D01*
G37*
G36*
X0000409700Y0001872899D02*
G01G01*
X0000410600Y0001873099D01*
X0000411400Y0001873499D01*
X0000412100Y0001874200D01*
X0000412500Y0001875000D01*
X0000420000Y0001903099D01*
X0000420100Y0001904000D01*
X0000420000Y0001904900D01*
X0000419600Y0001905700D01*
X0000418900Y0001906400D01*
X0000418100Y0001906800D01*
X0000417200Y0001907000D01*
X0000416300Y0001906800D01*
X0000415500Y0001906400D01*
X0000414800Y0001905700D01*
X0000414400Y0001904900D01*
X0000406900Y0001876800D01*
X0000406700Y0001875900D01*
X0000406900Y0001875000D01*
X0000407300Y0001874200D01*
X0000408000Y0001873499D01*
X0000408800Y0001873099D01*
X0000409700Y0001872899D01*
G37*
G36*
X0000424700Y0001872899D02*
G01G01*
X0000425600Y0001873099D01*
X0000426400Y0001873499D01*
X0000427100Y0001874200D01*
X0000427500Y0001875000D01*
X0000427600Y0001875900D01*
X0000427500Y0001876800D01*
X0000420000Y0001904900D01*
X0000419600Y0001905700D01*
X0000418900Y0001906400D01*
X0000418100Y0001906800D01*
X0000417200Y0001907000D01*
X0000416300Y0001906800D01*
X0000415500Y0001906400D01*
X0000414800Y0001905700D01*
X0000414400Y0001904900D01*
X0000414200Y0001904000D01*
X0000414400Y0001903099D01*
X0000421900Y0001875000D01*
X0000422300Y0001874200D01*
X0000423000Y0001873499D01*
X0000423800Y0001873099D01*
X0000424700Y0001872899D01*
G37*
G36*
X0000424700Y0001872899D02*
G01G01*
X0000425600Y0001873099D01*
X0000426400Y0001873499D01*
X0000427100Y0001874200D01*
X0000427500Y0001875000D01*
X0000436900Y0001914300D01*
X0000437000Y0001915299D01*
X0000436900Y0001916200D01*
X0000436500Y0001917000D01*
X0000435800Y0001917600D01*
X0000435000Y0001918100D01*
X0000434100Y0001918200D01*
X0000433200Y0001918100D01*
X0000432300Y0001917600D01*
X0000431700Y0001917000D01*
X0000431300Y0001916200D01*
X0000421900Y0001876800D01*
X0000421700Y0001875900D01*
X0000421900Y0001875000D01*
X0000422300Y0001874200D01*
X0000423000Y0001873499D01*
X0000423800Y0001873099D01*
X0000424700Y0001872899D01*
G37*
G36*
X0000469700Y0001872899D02*
G01G01*
X0000470600Y0001873099D01*
X0000471400Y0001873499D01*
X0000472100Y0001874200D01*
X0000472500Y0001875000D01*
X0000472600Y0001875900D01*
X0000472500Y0001876800D01*
X0000472100Y0001877600D01*
X0000471400Y0001878300D01*
X0000470600Y0001878699D01*
X0000469700Y0001878800D01*
X0000447200Y0001878800D01*
X0000446300Y0001878699D01*
X0000445500Y0001878300D01*
X0000444800Y0001877600D01*
X0000444400Y0001876800D01*
X0000444200Y0001875900D01*
X0000444400Y0001875000D01*
X0000444800Y0001874200D01*
X0000445500Y0001873499D01*
X0000446300Y0001873099D01*
X0000447200Y0001872899D01*
X0000469700Y0001872899D01*
G37*
G36*
X0000458400Y0001872899D02*
G01G01*
X0000459400Y0001873099D01*
X0000460200Y0001873499D01*
X0000460800Y0001874200D01*
X0000461200Y0001875000D01*
X0000461400Y0001875900D01*
X0000461400Y0001915299D01*
X0000461200Y0001916200D01*
X0000460800Y0001917000D01*
X0000460200Y0001917600D01*
X0000459400Y0001918100D01*
X0000458400Y0001918200D01*
X0000457500Y0001918100D01*
X0000456700Y0001917600D01*
X0000456000Y0001917000D01*
X0000455600Y0001916200D01*
X0000455500Y0001915299D01*
X0000455500Y0001875900D01*
X0000455600Y0001875000D01*
X0000456000Y0001874200D01*
X0000456700Y0001873499D01*
X0000457500Y0001873099D01*
X0000458400Y0001872899D01*
G37*
G36*
X0000454700Y0001906700D02*
G01G01*
X0000455600Y0001906800D01*
X0000456400Y0001907200D01*
X0000457100Y0001907900D01*
X0000460800Y0001913500D01*
X0000461200Y0001914300D01*
X0000461400Y0001915299D01*
X0000461200Y0001916200D01*
X0000460800Y0001917000D01*
X0000460200Y0001917600D01*
X0000459400Y0001918100D01*
X0000458400Y0001918200D01*
X0000457500Y0001918100D01*
X0000456700Y0001917600D01*
X0000456000Y0001917000D01*
X0000452300Y0001911400D01*
X0000451900Y0001910500D01*
X0000451700Y0001909600D01*
X0000451900Y0001908700D01*
X0000452300Y0001907900D01*
X0000453000Y0001907200D01*
X0000453800Y0001906800D01*
X0000454700Y0001906700D01*
G37*
G36*
X0000450900Y0001902899D02*
G01G01*
X0000451900Y0001903099D01*
X0000452700Y0001903499D01*
X0000453300Y0001904200D01*
X0000456400Y0001907200D01*
X0000457100Y0001907900D01*
X0000457500Y0001908700D01*
X0000457600Y0001909600D01*
X0000457500Y0001910500D01*
X0000457100Y0001911400D01*
X0000456400Y0001912000D01*
X0000455600Y0001912400D01*
X0000454700Y0001912600D01*
X0000453800Y0001912400D01*
X0000453000Y0001912000D01*
X0000449200Y0001908300D01*
X0000449200Y0001908300D01*
X0000448500Y0001907600D01*
X0000448100Y0001906800D01*
X0000448000Y0001905900D01*
X0000448100Y0001905000D01*
X0000448500Y0001904200D01*
X0000449200Y0001903499D01*
X0000450000Y0001903099D01*
X0000450900Y0001902899D01*
G37*
G36*
X0000447200Y0001901100D02*
G01G01*
X0000448100Y0001901200D01*
X0000451900Y0001903099D01*
X0000452700Y0001903499D01*
X0000453300Y0001904200D01*
X0000453700Y0001905000D01*
X0000453900Y0001905900D01*
X0000453700Y0001906800D01*
X0000453300Y0001907600D01*
X0000452700Y0001908300D01*
X0000451900Y0001908700D01*
X0000450900Y0001908800D01*
X0000450000Y0001908700D01*
X0000446300Y0001906800D01*
X0000445500Y0001906400D01*
X0000444800Y0001905700D01*
X0000444400Y0001904900D01*
X0000444200Y0001904000D01*
X0000444400Y0001903099D01*
X0000444800Y0001902300D01*
X0000445500Y0001901600D01*
X0000446300Y0001901200D01*
X0000447200Y0001901100D01*
G37*
G04 next file*
G36*
X0001290800Y0003166499D02*
G01G01*
X0001290700Y0003167200D01*
X0001290400Y0003167800D01*
X0001289900Y0003168400D01*
X0001289200Y0003168700D01*
X0001288500Y0003168800D01*
X0001287700Y0003168700D01*
X0001287100Y0003168400D01*
X0001286600Y0003167800D01*
X0001286200Y0003167200D01*
X0001286100Y0003166499D01*
X0001286100Y0003061700D01*
X0001286200Y0003061000D01*
X0001286600Y0003060300D01*
X0001287100Y0003059800D01*
X0001287700Y0003059500D01*
X0001288500Y0003059400D01*
X0001289200Y0003059500D01*
X0001289900Y0003059800D01*
X0001290400Y0003060300D01*
X0001290700Y0003061000D01*
X0001290800Y0003061700D01*
X0001290800Y0003166499D01*
G37*
G36*
X0001290800Y0003061700D02*
G01G01*
X0001290700Y0003062500D01*
X0001290400Y0003063100D01*
X0001289900Y0003063600D01*
X0001289200Y0003064000D01*
X0001288500Y0003064100D01*
X0001086100Y0003064100D01*
X0001085400Y0003064000D01*
X0001084700Y0003063600D01*
X0001084200Y0003063100D01*
X0001083900Y0003062500D01*
X0001083700Y0003061700D01*
X0001083900Y0003061000D01*
X0001084200Y0003060300D01*
X0001084700Y0003059800D01*
X0001085400Y0003059500D01*
X0001086100Y0003059400D01*
X0001288500Y0003059400D01*
X0001289200Y0003059500D01*
X0001289900Y0003059800D01*
X0001290400Y0003060300D01*
X0001290700Y0003061000D01*
X0001290800Y0003061700D01*
G37*
G36*
X0001290800Y0003166499D02*
G01G01*
X0001290700Y0003167200D01*
X0001290400Y0003167800D01*
X0001289900Y0003168400D01*
X0001289200Y0003168700D01*
X0001288500Y0003168800D01*
X0001086100Y0003168800D01*
X0001085400Y0003168700D01*
X0001084700Y0003168400D01*
X0001084200Y0003167800D01*
X0001083900Y0003167200D01*
X0001083700Y0003166499D01*
X0001083900Y0003165699D01*
X0001084200Y0003165100D01*
X0001084700Y0003164500D01*
X0001085400Y0003164200D01*
X0001086100Y0003164100D01*
X0001288500Y0003164100D01*
X0001289200Y0003164200D01*
X0001289900Y0003164500D01*
X0001290400Y0003165100D01*
X0001290700Y0003165699D01*
X0001290800Y0003166499D01*
G37*
G36*
X0001088500Y0003166499D02*
G01G01*
X0001088400Y0003167200D01*
X0001088000Y0003167800D01*
X0001087500Y0003168400D01*
X0001086800Y0003168700D01*
X0001086100Y0003168800D01*
X0001085400Y0003168700D01*
X0001084700Y0003168400D01*
X0001084200Y0003167800D01*
X0001083900Y0003167200D01*
X0001083700Y0003166499D01*
X0001083700Y0003061700D01*
X0001083900Y0003061000D01*
X0001084200Y0003060300D01*
X0001084700Y0003059800D01*
X0001085400Y0003059500D01*
X0001086100Y0003059400D01*
X0001086800Y0003059500D01*
X0001087500Y0003059800D01*
X0001088000Y0003060300D01*
X0001088400Y0003061000D01*
X0001088500Y0003061700D01*
X0001088500Y0003166499D01*
G37*
G36*
X0001038500Y0003061700D02*
G01G01*
X0001038400Y0003062500D01*
X0001038000Y0003063100D01*
X0001037500Y0003063600D01*
X0001036800Y0003064000D01*
X0001036100Y0003064100D01*
X0000984100Y0003064100D01*
X0000984100Y0003059400D01*
X0001036100Y0003059400D01*
X0001036800Y0003059500D01*
X0001037500Y0003059800D01*
X0001038000Y0003060300D01*
X0001038400Y0003061000D01*
X0001038500Y0003061700D01*
G37*
G36*
X0000986100Y0003114100D02*
G01G01*
X0000986000Y0003114800D01*
X0000985700Y0003115500D01*
X0000985100Y0003116000D01*
X0000984500Y0003116300D01*
X0000984100Y0003116400D01*
X0000984100Y0003059400D01*
X0000984500Y0003059500D01*
X0000985100Y0003059800D01*
X0000985700Y0003060300D01*
X0000986000Y0003061000D01*
X0000986100Y0003061700D01*
X0000986100Y0003114100D01*
G37*
G36*
X0001495600Y0003166499D02*
G01G01*
X0001495400Y0003167200D01*
X0001495100Y0003167800D01*
X0001494599Y0003168400D01*
X0001493900Y0003168700D01*
X0001493200Y0003168800D01*
X0001492500Y0003168700D01*
X0001491800Y0003168400D01*
X0001491300Y0003167800D01*
X0001490900Y0003167200D01*
X0001490800Y0003166499D01*
X0001490800Y0003061700D01*
X0001490900Y0003061000D01*
X0001491300Y0003060300D01*
X0001491800Y0003059800D01*
X0001492500Y0003059500D01*
X0001493200Y0003059400D01*
X0001493900Y0003059500D01*
X0001494599Y0003059800D01*
X0001495100Y0003060300D01*
X0001495400Y0003061000D01*
X0001495600Y0003061700D01*
X0001495600Y0003166499D01*
G37*
G36*
X0001495600Y0003061700D02*
G01G01*
X0001495400Y0003062500D01*
X0001495100Y0003063100D01*
X0001494599Y0003063600D01*
X0001493900Y0003064000D01*
X0001493200Y0003064100D01*
X0001390799Y0003064100D01*
X0001390100Y0003064000D01*
X0001389400Y0003063600D01*
X0001388900Y0003063100D01*
X0001388600Y0003062500D01*
X0001388500Y0003061700D01*
X0001388600Y0003061000D01*
X0001388900Y0003060300D01*
X0001389400Y0003059800D01*
X0001390100Y0003059500D01*
X0001390799Y0003059400D01*
X0001493200Y0003059400D01*
X0001493900Y0003059500D01*
X0001494599Y0003059800D01*
X0001495100Y0003060300D01*
X0001495400Y0003061000D01*
X0001495600Y0003061700D01*
G37*
G36*
X0001495600Y0003166499D02*
G01G01*
X0001495400Y0003167200D01*
X0001495100Y0003167800D01*
X0001494599Y0003168400D01*
X0001493900Y0003168700D01*
X0001493200Y0003168800D01*
X0001390799Y0003168800D01*
X0001390100Y0003168700D01*
X0001389400Y0003168400D01*
X0001388900Y0003167800D01*
X0001388600Y0003167200D01*
X0001388500Y0003166499D01*
X0001388600Y0003165699D01*
X0001388900Y0003165100D01*
X0001389400Y0003164500D01*
X0001390100Y0003164200D01*
X0001390799Y0003164100D01*
X0001493200Y0003164100D01*
X0001493900Y0003164200D01*
X0001494599Y0003164500D01*
X0001495100Y0003165100D01*
X0001495400Y0003165699D01*
X0001495600Y0003166499D01*
G37*
G36*
X0001393200Y0003166499D02*
G01G01*
X0001393100Y0003167200D01*
X0001392700Y0003167800D01*
X0001392200Y0003168400D01*
X0001391599Y0003168700D01*
X0001390799Y0003168800D01*
X0001390100Y0003168700D01*
X0001389400Y0003168400D01*
X0001388900Y0003167800D01*
X0001388600Y0003167200D01*
X0001388500Y0003166499D01*
X0001388500Y0003061700D01*
X0001388600Y0003061000D01*
X0001388900Y0003060300D01*
X0001389400Y0003059800D01*
X0001390100Y0003059500D01*
X0001390799Y0003059400D01*
X0001391599Y0003059500D01*
X0001392200Y0003059800D01*
X0001392700Y0003060300D01*
X0001393100Y0003061000D01*
X0001393200Y0003061700D01*
X0001393200Y0003166499D01*
G37*
G36*
X0001343199Y0003061700D02*
G01G01*
X0001343100Y0003062500D01*
X0001342700Y0003063100D01*
X0001342199Y0003063600D01*
X0001341600Y0003064000D01*
X0001340800Y0003064100D01*
X0001288500Y0003064100D01*
X0001287700Y0003064000D01*
X0001287100Y0003063600D01*
X0001286600Y0003063100D01*
X0001286200Y0003062500D01*
X0001286100Y0003061700D01*
X0001286200Y0003061000D01*
X0001286600Y0003060300D01*
X0001287100Y0003059800D01*
X0001287700Y0003059500D01*
X0001288500Y0003059400D01*
X0001340800Y0003059400D01*
X0001341600Y0003059500D01*
X0001342199Y0003059800D01*
X0001342700Y0003060300D01*
X0001343100Y0003061000D01*
X0001343199Y0003061700D01*
G37*
G36*
X0001290800Y0003114100D02*
G01G01*
X0001290700Y0003114800D01*
X0001290400Y0003115500D01*
X0001289900Y0003116000D01*
X0001289200Y0003116300D01*
X0001288500Y0003116500D01*
X0001287700Y0003116300D01*
X0001287100Y0003116000D01*
X0001286600Y0003115500D01*
X0001286200Y0003114800D01*
X0001286100Y0003114100D01*
X0001286100Y0003061700D01*
X0001286200Y0003061000D01*
X0001286600Y0003060300D01*
X0001287100Y0003059800D01*
X0001287700Y0003059500D01*
X0001288500Y0003059400D01*
X0001289200Y0003059500D01*
X0001289900Y0003059800D01*
X0001290400Y0003060300D01*
X0001290700Y0003061000D01*
X0001290800Y0003061700D01*
X0001290800Y0003114100D01*
G37*
G36*
X0001150600Y0003030100D02*
G01G01*
X0001150500Y0003031000D01*
X0001150000Y0003031800D01*
X0001149400Y0003032499D01*
X0001148600Y0003032899D01*
X0001147700Y0003033100D01*
X0001146700Y0003032899D01*
X0001145900Y0003032499D01*
X0001145300Y0003031800D01*
X0001144800Y0003031000D01*
X0001144700Y0003030100D01*
X0001144700Y0003001999D01*
X0001144800Y0003001100D01*
X0001145300Y0003000300D01*
X0001145900Y0002999600D01*
X0001146700Y0002999200D01*
X0001147700Y0002999000D01*
X0001148600Y0002999200D01*
X0001149400Y0002999600D01*
X0001150000Y0003000300D01*
X0001150500Y0003001100D01*
X0001150600Y0003001999D01*
X0001150600Y0003030100D01*
G37*
G36*
X0001152500Y0003035700D02*
G01G01*
X0001152300Y0003036600D01*
X0001151900Y0003037500D01*
X0001151300Y0003038100D01*
X0001150400Y0003038500D01*
X0001149500Y0003038700D01*
X0001148600Y0003038500D01*
X0001147800Y0003038100D01*
X0001147100Y0003037500D01*
X0001146700Y0003036600D01*
X0001144800Y0003031000D01*
X0001144700Y0003030100D01*
X0001144800Y0003029200D01*
X0001145300Y0003028400D01*
X0001145900Y0003027700D01*
X0001146700Y0003027300D01*
X0001147700Y0003027200D01*
X0001148600Y0003027300D01*
X0001149400Y0003027700D01*
X0001150000Y0003028400D01*
X0001150500Y0003029200D01*
X0001152300Y0003034800D01*
X0001152500Y0003035700D01*
G37*
G36*
X0001156200Y0003039500D02*
G01G01*
X0001156100Y0003040400D01*
X0001155700Y0003041200D01*
X0001155000Y0003041900D01*
X0001154200Y0003042300D01*
X0001153300Y0003042400D01*
X0001152400Y0003042300D01*
X0001151500Y0003041900D01*
X0001147800Y0003038100D01*
X0001147800Y0003038100D01*
X0001147100Y0003037500D01*
X0001146700Y0003036600D01*
X0001146600Y0003035700D01*
X0001146700Y0003034800D01*
X0001147100Y0003034000D01*
X0001147800Y0003033299D01*
X0001148600Y0003032899D01*
X0001149500Y0003032800D01*
X0001150400Y0003032899D01*
X0001151300Y0003033299D01*
X0001151900Y0003034000D01*
X0001155700Y0003037700D01*
X0001156100Y0003038600D01*
X0001156200Y0003039500D01*
G37*
G36*
X0001161900Y0003041400D02*
G01G01*
X0001161700Y0003042300D01*
X0001161300Y0003043100D01*
X0001160600Y0003043700D01*
X0001159800Y0003044200D01*
X0001158900Y0003044300D01*
X0001158000Y0003044200D01*
X0001152400Y0003042300D01*
X0001151500Y0003041900D01*
X0001150900Y0003041200D01*
X0001150500Y0003040400D01*
X0001150300Y0003039500D01*
X0001150500Y0003038600D01*
X0001150900Y0003037700D01*
X0001151500Y0003037100D01*
X0001152400Y0003036700D01*
X0001153300Y0003036500D01*
X0001154200Y0003036700D01*
X0001159800Y0003038500D01*
X0001160600Y0003039000D01*
X0001161300Y0003039600D01*
X0001161700Y0003040400D01*
X0001161900Y0003041400D01*
G37*
G36*
X0001165600Y0003041400D02*
G01G01*
X0001165500Y0003042300D01*
X0001165000Y0003043100D01*
X0001164400Y0003043700D01*
X0001163600Y0003044200D01*
X0001162700Y0003044300D01*
X0001158900Y0003044300D01*
X0001158000Y0003044200D01*
X0001157200Y0003043700D01*
X0001156500Y0003043100D01*
X0001156100Y0003042300D01*
X0001155900Y0003041400D01*
X0001156100Y0003040400D01*
X0001156500Y0003039600D01*
X0001157200Y0003039000D01*
X0001158000Y0003038500D01*
X0001158900Y0003038400D01*
X0001162700Y0003038400D01*
X0001163600Y0003038500D01*
X0001164400Y0003039000D01*
X0001165000Y0003039600D01*
X0001165500Y0003040400D01*
X0001165600Y0003041400D01*
G37*
G36*
X0001133700Y0003041400D02*
G01G01*
X0001133600Y0003042300D01*
X0001133200Y0003043100D01*
X0001132500Y0003043700D01*
X0001131700Y0003044200D01*
X0001130800Y0003044300D01*
X0001108300Y0003044300D01*
X0001107400Y0003044200D01*
X0001106500Y0003043700D01*
X0001105900Y0003043100D01*
X0001105500Y0003042300D01*
X0001105300Y0003041400D01*
X0001105500Y0003040400D01*
X0001105900Y0003039600D01*
X0001106500Y0003039000D01*
X0001107400Y0003038500D01*
X0001108300Y0003038400D01*
X0001130800Y0003038400D01*
X0001131700Y0003038500D01*
X0001132500Y0003039000D01*
X0001133200Y0003039600D01*
X0001133600Y0003040400D01*
X0001133700Y0003041400D01*
G37*
G36*
X0001122500Y0003041400D02*
G01G01*
X0001122300Y0003042300D01*
X0001121900Y0003043100D01*
X0001121300Y0003043700D01*
X0001120400Y0003044200D01*
X0001119500Y0003044300D01*
X0001118600Y0003044200D01*
X0001117800Y0003043700D01*
X0001117100Y0003043100D01*
X0001116700Y0003042300D01*
X0001116600Y0003041400D01*
X0001116600Y0003001999D01*
X0001116700Y0003001100D01*
X0001117100Y0003000300D01*
X0001117800Y0002999600D01*
X0001118600Y0002999200D01*
X0001119500Y0002999000D01*
X0001120400Y0002999200D01*
X0001121300Y0002999600D01*
X0001121900Y0003000300D01*
X0001122300Y0003001100D01*
X0001122500Y0003001999D01*
X0001122500Y0003041400D01*
G37*
G36*
X0001126200Y0003007600D02*
G01G01*
X0001126100Y0003008499D01*
X0001125700Y0003009299D01*
X0001125000Y0003010000D01*
X0001124200Y0003010400D01*
X0001123300Y0003010600D01*
X0001122400Y0003010400D01*
X0001121500Y0003010000D01*
X0001120900Y0003009299D01*
X0001117100Y0003003700D01*
X0001116700Y0003002900D01*
X0001116600Y0003001999D01*
X0001116700Y0003001100D01*
X0001117100Y0003000300D01*
X0001117800Y0002999600D01*
X0001118600Y0002999200D01*
X0001119500Y0002999000D01*
X0001120400Y0002999200D01*
X0001121300Y0002999600D01*
X0001121900Y0003000300D01*
X0001125700Y0003005900D01*
X0001126100Y0003006700D01*
X0001126200Y0003007600D01*
G37*
G36*
X0001130000Y0003011400D02*
G01G01*
X0001129800Y0003012300D01*
X0001129400Y0003013100D01*
X0001128800Y0003013800D01*
X0001127900Y0003014200D01*
X0001127000Y0003014300D01*
X0001126100Y0003014200D01*
X0001125300Y0003013800D01*
X0001121500Y0003010000D01*
X0001120900Y0003009299D01*
X0001120500Y0003008499D01*
X0001120300Y0003007600D01*
X0001120500Y0003006700D01*
X0001120900Y0003005900D01*
X0001121500Y0003005200D01*
X0001122400Y0003004800D01*
X0001123300Y0003004700D01*
X0001124200Y0003004800D01*
X0001125000Y0003005200D01*
X0001125700Y0003005900D01*
X0001125700Y0003005900D01*
X0001128800Y0003009000D01*
X0001129400Y0003009600D01*
X0001129800Y0003010400D01*
X0001130000Y0003011400D01*
G37*
G36*
X0001133700Y0003013199D02*
G01G01*
X0001133600Y0003014100D01*
X0001133200Y0003015000D01*
X0001132500Y0003015600D01*
X0001131700Y0003016000D01*
X0001130800Y0003016200D01*
X0001129900Y0003016000D01*
X0001126100Y0003014200D01*
X0001125300Y0003013800D01*
X0001124600Y0003013100D01*
X0001124200Y0003012300D01*
X0001124100Y0003011400D01*
X0001124200Y0003010400D01*
X0001124600Y0003009600D01*
X0001125300Y0003009000D01*
X0001126100Y0003008600D01*
X0001127000Y0003008400D01*
X0001127900Y0003008600D01*
X0001128000Y0003008600D01*
X0001131700Y0003010400D01*
X0001132500Y0003010800D01*
X0001133200Y0003011500D01*
X0001133600Y0003012300D01*
X0001133700Y0003013199D01*
G37*
G36*
X0001408100Y0003026200D02*
G01G01*
X0001407900Y0003027100D01*
X0001407500Y0003027900D01*
X0001406900Y0003028600D01*
X0001406000Y0003029000D01*
X0001405100Y0003029100D01*
X0001404199Y0003029000D01*
X0001403399Y0003028600D01*
X0001402700Y0003027900D01*
X0001402300Y0003027100D01*
X0001402200Y0003026200D01*
X0001402200Y0002998099D01*
X0001402300Y0002997100D01*
X0001402700Y0002996300D01*
X0001403399Y0002995700D01*
X0001404199Y0002995200D01*
X0001405100Y0002995100D01*
X0001406000Y0002995200D01*
X0001406900Y0002995700D01*
X0001407500Y0002996300D01*
X0001407900Y0002997100D01*
X0001408100Y0002998099D01*
X0001408100Y0003026200D01*
G37*
G36*
X0001409999Y0003031800D02*
G01G01*
X0001409799Y0003032700D01*
X0001409399Y0003033500D01*
X0001408700Y0003034200D01*
X0001407900Y0003034600D01*
X0001407000Y0003034700D01*
X0001406100Y0003034600D01*
X0001405300Y0003034200D01*
X0001404600Y0003033500D01*
X0001404199Y0003032700D01*
X0001402300Y0003027100D01*
X0001402200Y0003026200D01*
X0001402300Y0003025300D01*
X0001402700Y0003024399D01*
X0001403399Y0003023800D01*
X0001404199Y0003023400D01*
X0001405100Y0003023200D01*
X0001406000Y0003023400D01*
X0001406900Y0003023800D01*
X0001407500Y0003024399D01*
X0001407900Y0003025300D01*
X0001409799Y0003030900D01*
X0001409999Y0003031800D01*
G37*
G36*
X0001413700Y0003035500D02*
G01G01*
X0001413600Y0003036500D01*
X0001413100Y0003037300D01*
X0001412500Y0003037900D01*
X0001411700Y0003038400D01*
X0001410800Y0003038500D01*
X0001409799Y0003038400D01*
X0001408999Y0003037900D01*
X0001405300Y0003034200D01*
X0001405300Y0003034200D01*
X0001404600Y0003033500D01*
X0001404199Y0003032700D01*
X0001404100Y0003031800D01*
X0001404199Y0003030900D01*
X0001404600Y0003030100D01*
X0001405300Y0003029400D01*
X0001406100Y0003029000D01*
X0001407000Y0003028800D01*
X0001407900Y0003029000D01*
X0001408700Y0003029400D01*
X0001409399Y0003030100D01*
X0001413100Y0003033800D01*
X0001413600Y0003034600D01*
X0001413700Y0003035500D01*
G37*
G36*
X0001419300Y0003037400D02*
G01G01*
X0001419200Y0003038300D01*
X0001418800Y0003039200D01*
X0001418100Y0003039800D01*
X0001417300Y0003040200D01*
X0001416400Y0003040400D01*
X0001415500Y0003040200D01*
X0001409799Y0003038400D01*
X0001408999Y0003037900D01*
X0001408400Y0003037300D01*
X0001408000Y0003036500D01*
X0001407800Y0003035500D01*
X0001408000Y0003034600D01*
X0001408400Y0003033800D01*
X0001408999Y0003033200D01*
X0001409799Y0003032700D01*
X0001410800Y0003032600D01*
X0001411700Y0003032700D01*
X0001417300Y0003034600D01*
X0001418100Y0003035000D01*
X0001418800Y0003035700D01*
X0001419200Y0003036500D01*
X0001419300Y0003037400D01*
G37*
G36*
X0001423100Y0003037400D02*
G01G01*
X0001422900Y0003038300D01*
X0001422500Y0003039200D01*
X0001421900Y0003039800D01*
X0001420999Y0003040200D01*
X0001420100Y0003040400D01*
X0001416400Y0003040400D01*
X0001415500Y0003040200D01*
X0001414600Y0003039800D01*
X0001414000Y0003039200D01*
X0001413600Y0003038300D01*
X0001413400Y0003037400D01*
X0001413600Y0003036500D01*
X0001414000Y0003035700D01*
X0001414600Y0003035000D01*
X0001415500Y0003034600D01*
X0001416400Y0003034499D01*
X0001420100Y0003034499D01*
X0001420999Y0003034600D01*
X0001421900Y0003035000D01*
X0001422500Y0003035700D01*
X0001422900Y0003036500D01*
X0001423100Y0003037400D01*
G37*
G36*
X0001391199Y0003001800D02*
G01G01*
X0001391100Y0003002700D01*
X0001390599Y0003003500D01*
X0001390000Y0003004200D01*
X0001389200Y0003004600D01*
X0001388300Y0003004800D01*
X0001387300Y0003004600D01*
X0001386500Y0003004200D01*
X0001384000Y0003001700D01*
X0001383600Y0003000799D01*
X0001383400Y0002999900D01*
X0001383600Y0002999000D01*
X0001384000Y0002998200D01*
X0001384700Y0002997500D01*
X0001385500Y0002997100D01*
X0001386400Y0002997000D01*
X0001387300Y0002997100D01*
X0001388100Y0002997500D01*
X0001390599Y0003000100D01*
X0001391100Y0003000900D01*
X0001391199Y0003001800D01*
G37*
G36*
X0001389300Y0002999900D02*
G01G01*
X0001389200Y0003000799D01*
X0001388800Y0003001700D01*
X0001388100Y0003002300D01*
X0001387300Y0003002700D01*
X0001386400Y0003002900D01*
X0001385500Y0003002700D01*
X0001381700Y0003000900D01*
X0001380900Y0003000399D01*
X0001380200Y0002999800D01*
X0001379799Y0002999000D01*
X0001379700Y0002998099D01*
X0001379799Y0002997100D01*
X0001380200Y0002996300D01*
X0001380900Y0002995700D01*
X0001381700Y0002995200D01*
X0001382600Y0002995100D01*
X0001383500Y0002995200D01*
X0001387300Y0002997100D01*
X0001388100Y0002997500D01*
X0001388800Y0002998200D01*
X0001389200Y0002999000D01*
X0001389300Y0002999900D01*
G37*
G36*
X0001385599Y0002998099D02*
G01G01*
X0001385399Y0002999000D01*
X0001384999Y0002999800D01*
X0001384400Y0003000399D01*
X0001383500Y0003000900D01*
X0001382600Y0003001000D01*
X0001373300Y0003001000D01*
X0001372399Y0003000900D01*
X0001371500Y0003000399D01*
X0001370900Y0002999800D01*
X0001370500Y0002999000D01*
X0001370300Y0002998099D01*
X0001370500Y0002997100D01*
X0001370900Y0002996300D01*
X0001371500Y0002995700D01*
X0001372399Y0002995200D01*
X0001373300Y0002995100D01*
X0001382600Y0002995100D01*
X0001383500Y0002995200D01*
X0001384400Y0002995700D01*
X0001384999Y0002996300D01*
X0001385399Y0002997100D01*
X0001385599Y0002998099D01*
G37*
G36*
X0001376200Y0002998099D02*
G01G01*
X0001376100Y0002999000D01*
X0001375700Y0002999800D01*
X0001375000Y0003000399D01*
X0001374200Y0003000900D01*
X0001370400Y0003002700D01*
X0001369500Y0003002900D01*
X0001368600Y0003002700D01*
X0001367799Y0003002300D01*
X0001367100Y0003001700D01*
X0001366700Y0003000799D01*
X0001366599Y0002999900D01*
X0001366700Y0002999000D01*
X0001367100Y0002998200D01*
X0001367799Y0002997500D01*
X0001368600Y0002997100D01*
X0001372399Y0002995200D01*
X0001373300Y0002995100D01*
X0001374200Y0002995200D01*
X0001375000Y0002995700D01*
X0001375700Y0002996300D01*
X0001376100Y0002997100D01*
X0001376200Y0002998099D01*
G37*
G36*
X0001372500Y0002999900D02*
G01G01*
X0001372300Y0003000799D01*
X0001371900Y0003001700D01*
X0001369400Y0003004200D01*
X0001368600Y0003004600D01*
X0001367599Y0003004800D01*
X0001366700Y0003004600D01*
X0001365900Y0003004200D01*
X0001365200Y0003003500D01*
X0001364800Y0003002700D01*
X0001364700Y0003001800D01*
X0001364800Y0003000900D01*
X0001365200Y0003000100D01*
X0001367799Y0002997500D01*
X0001368600Y0002997100D01*
X0001369500Y0002997000D01*
X0001370400Y0002997100D01*
X0001371200Y0002997500D01*
X0001371900Y0002998200D01*
X0001372300Y0002999000D01*
X0001372500Y0002999900D01*
G37*
G36*
X0001370600Y0003001800D02*
G01G01*
X0001370400Y0003002700D01*
X0001368600Y0003006500D01*
X0001368200Y0003007300D01*
X0001367500Y0003007900D01*
X0001366700Y0003008400D01*
X0001365800Y0003008499D01*
X0001364900Y0003008400D01*
X0001364000Y0003007900D01*
X0001363400Y0003007300D01*
X0001363000Y0003006500D01*
X0001362800Y0003005500D01*
X0001363000Y0003004600D01*
X0001364800Y0003000900D01*
X0001365200Y0003000100D01*
X0001365900Y0002999400D01*
X0001366700Y0002999000D01*
X0001367599Y0002998800D01*
X0001368600Y0002999000D01*
X0001369400Y0002999400D01*
X0001370000Y0003000100D01*
X0001370400Y0003000900D01*
X0001370600Y0003001800D01*
G37*
G36*
X0001368700Y0003009299D02*
G01G01*
X0001368600Y0003010200D01*
X0001368200Y0003011000D01*
X0001367500Y0003011700D01*
X0001366700Y0003012100D01*
X0001365800Y0003012300D01*
X0001364900Y0003012100D01*
X0001364000Y0003011700D01*
X0001363400Y0003011000D01*
X0001363000Y0003010200D01*
X0001362800Y0003009299D01*
X0001362800Y0003005500D01*
X0001363000Y0003004600D01*
X0001363400Y0003003800D01*
X0001364000Y0003003200D01*
X0001364900Y0003002700D01*
X0001365800Y0003002600D01*
X0001366700Y0003002700D01*
X0001367500Y0003003200D01*
X0001368200Y0003003800D01*
X0001368600Y0003004600D01*
X0001368700Y0003005500D01*
X0001368700Y0003009299D01*
G37*
G36*
X0001370600Y0003014900D02*
G01G01*
X0001370400Y0003015800D01*
X0001370000Y0003016700D01*
X0001369400Y0003017300D01*
X0001368600Y0003017700D01*
X0001367599Y0003017900D01*
X0001366700Y0003017700D01*
X0001365900Y0003017300D01*
X0001365200Y0003016700D01*
X0001364800Y0003015800D01*
X0001363000Y0003010200D01*
X0001362800Y0003009299D01*
X0001363000Y0003008400D01*
X0001363400Y0003007600D01*
X0001364000Y0003006900D01*
X0001364900Y0003006500D01*
X0001365800Y0003006300D01*
X0001366700Y0003006500D01*
X0001367500Y0003006900D01*
X0001368200Y0003007600D01*
X0001368600Y0003008400D01*
X0001370400Y0003013999D01*
X0001370600Y0003014900D01*
G37*
G36*
X0001393100Y0003037400D02*
G01G01*
X0001392900Y0003038300D01*
X0001392500Y0003039200D01*
X0001391900Y0003039800D01*
X0001390999Y0003040200D01*
X0001390100Y0003040400D01*
X0001389200Y0003040200D01*
X0001388400Y0003039800D01*
X0001365200Y0003016700D01*
X0001364800Y0003015800D01*
X0001364700Y0003014900D01*
X0001364800Y0003013999D01*
X0001365200Y0003013199D01*
X0001365900Y0003012500D01*
X0001366700Y0003012100D01*
X0001367599Y0003012000D01*
X0001368600Y0003012100D01*
X0001369400Y0003012500D01*
X0001392500Y0003035700D01*
X0001392900Y0003036500D01*
X0001393100Y0003037400D01*
G37*
G36*
X0001393100Y0003037400D02*
G01G01*
X0001392900Y0003038300D01*
X0001392500Y0003039200D01*
X0001391900Y0003039800D01*
X0001390999Y0003040200D01*
X0001390100Y0003040400D01*
X0001365800Y0003040400D01*
X0001364900Y0003040200D01*
X0001364000Y0003039800D01*
X0001363400Y0003039200D01*
X0001363000Y0003038300D01*
X0001362800Y0003037400D01*
X0001363000Y0003036500D01*
X0001363400Y0003035700D01*
X0001364000Y0003035000D01*
X0001364900Y0003034600D01*
X0001365800Y0003034499D01*
X0001390100Y0003034499D01*
X0001390999Y0003034600D01*
X0001391900Y0003035000D01*
X0001392500Y0003035700D01*
X0001392900Y0003036500D01*
X0001393100Y0003037400D01*
G37*
M02*