%
M48
METRIC,000.000
T01C0.75
T02C1.00
T03C1.10
T10C1.20
T11C0.40
%
T01
X040050Y032500
X042050Y032500
X044050Y032500
X046050Y032500
X040050Y037500
X042050Y037500
X044050Y037500
X046050Y037500
X040900Y043199
X046300Y043199
X040900Y045199
X046300Y045199
X002299Y015000
X002299Y013000
X002299Y011000
X002299Y009000
X002299Y004299
X002299Y002299
X002300Y045099
X002300Y043099
X002300Y039000
X002300Y037000
X002300Y035000
X002300Y033000
X023800Y053900
X023800Y051900
X023800Y049900
X023800Y047900
X023800Y043099
X023800Y041099
X046900Y024349
X046900Y022349
X046900Y020349
X046900Y018349
X040800Y064500
X040800Y062500
X003500Y072600
X005500Y072600
X007500Y072600
X009500Y072600
X019000Y072699
X021000Y072699
X023000Y072699
X025000Y072699
T02
X032500Y034000
X032500Y039000
X032500Y044000
X003500Y053000
X008500Y053000
X013500Y053000
X032750Y024500
X032750Y019500
X032750Y014500
X036500Y024500
X036500Y019500
X036500Y014500
X040250Y024500
X040250Y019500
X040250Y014500
X034599Y068200
X034599Y063500
X034599Y058800
X001800Y062400
X006500Y062400
X011200Y062400
X001800Y067229
X006500Y067229
X011200Y067229
X017300Y062400
X022000Y062400
X026700Y062400
X017300Y067229
X022000Y067229
X026700Y067229
T03
X030300Y051250
X032840Y051250
X035380Y051250
X038600Y051250
X041140Y051250
X044360Y051250
X046900Y051250
X023900Y012900
X023900Y010360
X023900Y006879
X023900Y004340
X023900Y001799
T10
X008500Y026000G85X008500Y026000
X011000Y015500G85X011000Y015500
X011000Y011500G85X011000Y011500
X011000Y007500G85X011000Y007500
X013500Y026000G85X013500Y026000
X012349Y003299G85X014650Y003299
X016000Y015500G85X016000Y015500
X016000Y011500G85X016000Y011500
X016000Y007500G85X016000Y007500
X018500Y026000G85X018500Y026000
T11
X009500Y046050
X009900Y041500
X010939Y051500
X010969Y035506
X011500Y046900
X013849Y041750
X014050Y032549
X015000Y046405
X015250Y041750
X017300Y053500
X017900Y039200
X018300Y047200
X020000Y038099
X021250Y045099
X021250Y042599
X035000Y008000
X038599Y012099
M30