%MOIN*%
%OFA0B0*%
%FSLAX46Y46*%
%IPPOS*%
%LPD*%
%ADD10C,0.0039370078740157488*%
%ADD11C,0.086614173228346469*%
%ADD12R,0.082677165354330714X0.082677165354330714*%
%ADD13O,0.082677165354330714X0.082677165354330714*%
%ADD24C,0.0039370078740157488*%
%ADD25C,0.086614173228346469*%
%ADD26R,0.082677165354330714X0.082677165354330714*%
%ADD27O,0.082677165354330714X0.082677165354330714*%
%ADD28C,0.0039370078740157488*%
%ADD29C,0.086614173228346469*%
%ADD30R,0.082677165354330714X0.082677165354330714*%
%ADD31O,0.082677165354330714X0.082677165354330714*%
%ADD32R,0.11414803149606301X0.086648031496063*%
%ADD33R,0.062992125984251982X0.0452755905511811*%
%ADD34R,0.055118110236220472X0.07874015748031496*%
%ADD35R,0.07874015748031496X0.055118110236220472*%
%ADD36C,0.0039370078740157488*%
%ADD37R,0.055118110236220472X0.064960629921259838*%
%ADD38R,0.051181102362204731X0.062992125984251982*%
%ADD39R,0.062992125984251982X0.051181102362204731*%
%ADD40R,0.082677165354330714X0.082677165354330714*%
%ADD41O,0.082677165354330714X0.082677165354330714*%
%ADD42C,0.086614173228346469*%
%ADD43C,0.0039370078740157488*%
%ADD44R,0.082677165354330714X0.082677165354330714*%
%ADD45O,0.082677165354330714X0.082677165354330714*%
%ADD46O,0.086614173228346469X0.086614173228346469*%
%ADD47C,0.086614173228346469*%
%ADD48O,0.094448031496063X0.094448031496063*%
%ADD49R,0.094448031496063X0.094448031496063*%
%ADD50C,0.0039370078740157488*%
%ADD51O,0.094448031496063X0.094448031496063*%
%ADD52R,0.094448031496063X0.094448031496063*%
%ADD53O,0.086614173228346469X0.086614173228346469*%
%ADD54C,0.086614173228346469*%
%ADD55R,0.082677165354330714X0.082677165354330714*%
%ADD56O,0.082677165354330714X0.082677165354330714*%
%ADD57C,0.0039370078740157488*%
%ADD58O,0.086614173228346469X0.086614173228346469*%
%ADD59C,0.086614173228346469*%
%ADD60R,0.082677165354330714X0.082677165354330714*%
%ADD61O,0.082677165354330714X0.082677165354330714*%
G01G01*
D10*
D11*
X-0004074803Y0004901574D02*
X0001535433Y0001555118D03*
X0001338582Y0001555118D03*
X0001141732Y0001555118D03*
D12*
X0001141732Y0001240157D03*
D13*
X0001241732Y0001240157D03*
G04 next file*
G04 #@! TF.FileFunction,Soldermask,Bot*
G04 Gerber Fmt 4.6, Leading zero omitted, Abs format (unit mm)*
G04 Created by KiCad (PCBNEW 4.0.4-1.fc24-product) date Tue Jun 12 13:17:57 2018*
G01G01*
G04 APERTURE LIST*
G04 APERTURE END LIST*
D24*
D25*
X-0003090551Y0005078740D02*
X0001535433Y0002165354D03*
X0001338582Y0002165354D03*
X0001141732Y0002165354D03*
D26*
X0001438582Y0001885826D03*
D27*
X0001338582Y0001885826D03*
X0001238582Y0001885826D03*
G04 next file*
G04 #@! TF.FileFunction,Soldermask,Bot*
G04 Gerber Fmt 4.6, Leading zero omitted, Abs format (unit mm)*
G04 Created by KiCad (PCBNEW 4.0.4-1.fc24-product) date Tue Jun 12 13:44:11 2018*
G01G01*
G04 APERTURE LIST*
G04 APERTURE END LIST*
D28*
D29*
X-0005708661Y0004409448D02*
X0000539370Y0000870078D03*
X0000342519Y0000870078D03*
X0000145669Y0000870078D03*
D30*
X0000787401Y0000905511D03*
D31*
X0000787401Y0000805511D03*
D30*
X0000118110Y0000137795D03*
D31*
X0000118110Y0000237795D03*
X0000118110Y0000337795D03*
X0000118110Y0000437795D03*
X0000118110Y0000537795D03*
D32*
X0000275630Y0000118110D03*
X0000433030Y0000118110D03*
D33*
X0000549212Y0000236220D03*
X0000624015Y0000236220D03*
X0000620078Y0000118110D03*
X0000545275Y0000118110D03*
D34*
X0000267716Y0000248031D03*
X0000385826Y0000248031D03*
D35*
X0000748031Y0000114173D03*
X0000748031Y0000232283D03*
G04 next file*
G04 #@! TF.FileFunction,Soldermask,Bot*
G04 Gerber Fmt 4.6, Leading zero omitted, Abs format (unit mm)*
G04 Created by KiCad (PCBNEW 4.0.4-1.fc24-product) date Tue Jun 12 13:21:53 2018*
G01G01*
G04 APERTURE LIST*
G04 APERTURE END LIST*
D36*
D37*
X-0002185039Y-0005078740D02*
X0001232283Y0000748031D03*
X0001153543Y0000748031D03*
D38*
X0001350393Y0000751968D03*
X0001350393Y0000665354D03*
D39*
X0001236220Y0000669291D03*
X0001149606Y0000669291D03*
D40*
X0001594488Y0000929133D03*
D41*
X0001594488Y0000829133D03*
X0001694488Y0000929133D03*
X0001694488Y0000829133D03*
D42*
X0001122047Y0000403543D03*
X0001122047Y0000255905D03*
X0001122047Y0000108267D03*
X0001318897Y0000403543D03*
X0001318897Y0000255905D03*
X0001318897Y0000108267D03*
X0001515748Y0000108267D03*
X0001515748Y0000255905D03*
X0001515748Y0000403543D03*
G04 next file*
G04 #@! TF.FileFunction,Soldermask,Bot*
G04 Gerber Fmt 4.6, Leading zero omitted, Abs format (unit mm)*
G04 Created by KiCad (PCBNEW 4.0.4-1.fc24-product) date Tue Jun 12 13:21:22 2018*
G01G01*
G04 APERTURE LIST*
G04 APERTURE END LIST*
D43*
D44*
X-0003818897Y-0003228346D02*
X0000181102Y0002948818D03*
D45*
X0000281102Y0002948818D03*
X0000381102Y0002948818D03*
X0000481102Y0002948818D03*
X0000581102Y0002948818D03*
D44*
X0000181102Y0002832677D03*
D45*
X0000281102Y0002832677D03*
X0000381102Y0002832677D03*
X0000481102Y0002832677D03*
X0000581102Y0002832677D03*
D46*
X0000389763Y0002334645D03*
D47*
X0000574803Y0002334645D03*
D46*
X0000204724Y0002334645D03*
D47*
X0000574803Y0002524803D03*
D46*
X0000389763Y0002524803D03*
X0000204724Y0002524803D03*
D44*
X0000181102Y0002716535D03*
D45*
X0000281102Y0002716535D03*
X0000381102Y0002716535D03*
X0000481102Y0002716535D03*
X0000581102Y0002716535D03*
D48*
X0000775590Y0002714173D03*
D49*
X0000775590Y0002614173D03*
D48*
X0000775590Y0002472440D03*
D49*
X0000775590Y0002272440D03*
D48*
X0000775590Y0002372440D03*
G04 next file*
G04 #@! TF.FileFunction,Soldermask,Bot*
G04 Gerber Fmt 4.6, Leading zero omitted, Abs format (unit mm)*
G04 Created by KiCad (PCBNEW 4.0.4-1.fc24-product) date Tue Jun 12 13:22:28 2018*
G01G01*
G04 APERTURE LIST*
G04 APERTURE END LIST*
D50*
D51*
X-0005236220Y0005216535D02*
X0000779527Y0001696850D03*
D52*
X0000779527Y0001796850D03*
D53*
X0000413385Y0001440944D03*
D54*
X0000598425Y0001440944D03*
D53*
X0000228346Y0001440944D03*
D54*
X0000598425Y0001250787D03*
D53*
X0000413385Y0001250787D03*
X0000228346Y0001250787D03*
D54*
X0000598425Y0001629921D03*
D53*
X0000413385Y0001629921D03*
X0000228346Y0001629921D03*
D54*
X0000598425Y0001818897D03*
D53*
X0000413385Y0001818897D03*
X0000228346Y0001818897D03*
D51*
X0000779527Y0001915748D03*
D52*
X0000779527Y0002015748D03*
D51*
X0000779527Y0001433070D03*
D52*
X0000779527Y0001533070D03*
D51*
X0000779527Y0001212598D03*
D52*
X0000779527Y0001312598D03*
D55*
X0000518897Y0002027559D03*
D56*
X0000418897Y0002027559D03*
X0000318897Y0002027559D03*
G04 next file*
G04 #@! TF.FileFunction,Soldermask,Bot*
G04 Gerber Fmt 4.6, Leading zero omitted, Abs format (unit mm)*
G04 Created by KiCad (PCBNEW 4.0.4-1.fc24-product) date Tue Jun 12 13:23:07 2018*
G01G01*
G04 APERTURE LIST*
G04 APERTURE END LIST*
D57*
D58*
X-0004389763Y0006240157D02*
X0001137795Y0002677165D03*
D59*
X0001137795Y0002492125D03*
D58*
X0001137795Y0002862204D03*
D59*
X0001327952Y0002492125D03*
D58*
X0001327952Y0002677165D03*
X0001327952Y0002862204D03*
D60*
X0001519685Y0002881102D03*
D61*
X0001519685Y0002781102D03*
X0001519685Y0002681102D03*
D60*
X0001519685Y0002576377D03*
D61*
X0001519685Y0002476377D03*
M02*