%MOIN*%
%OFA0B0*%
%FSLAX46Y46*%
%IPPOS*%
%LPD*%
%ADD10C,0.0039370078740157488*%
%ADD21C,0.0039370078740157488*%
%ADD22C,0.0039370078740157488*%
%ADD23R,0.049212598425196853X0.03937007874015748*%
%ADD24R,0.035433070866141732X0.01968503937007874*%
%ADD25R,0.045000000000000005X0.02*%
%ADD26R,0.035433070866141732X0.031496062992125991*%
%ADD27R,0.03937007874015748X0.049212598425196853*%
%ADD28R,0.031496062992125991X0.029527559055118113*%
%ADD29R,0.01968503937007874X0.035433070866141732*%
%ADD30R,0.062992125984251982X0.03937007874015748*%
%ADD31R,0.029527559055118113X0.031496062992125991*%
%ADD32C,0.0039370078740157488*%
%ADD33R,0.047244094488188976X0.035433070866141732*%
%ADD34R,0.03937007874015748X0.049212598425196853*%
%ADD35R,0.03937007874015748X0.062992125984251982*%
%ADD36C,0.0039370078740157488*%
%ADD37C,0.0039370078740157488*%
%ADD38C,0.0039370078740157488*%
G01G01*
D10*
G04 next file*
G04 #@! TF.FileFunction,Paste,Top*
G04 Gerber Fmt 4.6, Leading zero omitted, Abs format (unit mm)*
G04 Created by KiCad (PCBNEW 4.0.4-1.fc24-product) date Mon Jun  4 16:01:06 2018*
G01G01*
G04 APERTURE LIST*
G04 APERTURE END LIST*
D21*
G04 next file*
G04 #@! TF.FileFunction,Paste,Top*
G04 Gerber Fmt 4.6, Leading zero omitted, Abs format (unit mm)*
G04 Created by KiCad (PCBNEW 4.0.4-1.fc24-product) date Mon Jun  4 16:00:14 2018*
G01G01*
G04 APERTURE LIST*
G04 APERTURE END LIST*
D22*
D23*
X-0005708661Y0005610236D02*
X0000374015Y0001692913D03*
X0000374015Y0001771653D03*
D24*
X0000275590Y0001584645D03*
X0000275590Y0001525590D03*
D23*
X0000629921Y0002106299D03*
X0000629921Y0002027559D03*
D25*
X0000794291Y0001826968D03*
X0000794291Y0001776968D03*
X0000794291Y0001726968D03*
X0000794291Y0001676968D03*
X0000544291Y0001676968D03*
X0000544291Y0001726968D03*
X0000544291Y0001776968D03*
X0000544291Y0001826968D03*
D26*
X0000472440Y0001303149D03*
X0000472440Y0001377952D03*
X0000393700Y0001340551D03*
D27*
X0000314960Y0001429133D03*
X0000236220Y0001429133D03*
X0000669291Y0001429133D03*
X0000590551Y0001429133D03*
D28*
X0000612204Y0001582677D03*
X0000671259Y0001582677D03*
D24*
X0000236220Y0001340551D03*
X0000236220Y0001281496D03*
X0000314960Y0001340551D03*
X0000314960Y0001281496D03*
X0000590551Y0001340551D03*
X0000590551Y0001281496D03*
X0000669291Y0001340551D03*
X0000669291Y0001281496D03*
X0000523622Y0001584645D03*
X0000523622Y0001525590D03*
X0000366141Y0001525590D03*
X0000366141Y0001584645D03*
X0000444881Y0001525590D03*
X0000444881Y0001584645D03*
X0000196850Y0001584645D03*
X0000196850Y0001525590D03*
D29*
X0000761810Y0001909448D03*
X0000702755Y0001909448D03*
X0000738188Y0001586614D03*
X0000797244Y0001586614D03*
D30*
X0000287401Y0001673228D03*
X0000287401Y0001791338D03*
D28*
X0000590551Y0001909448D03*
X0000531496Y0001909448D03*
D29*
X0000763779Y0002027559D03*
X0000704724Y0002027559D03*
D31*
X0000452755Y0001702755D03*
X0000452755Y0001761811D03*
G04 next file*
G04 #@! TF.FileFunction,Paste,Top*
G04 Gerber Fmt 4.6, Leading zero omitted, Abs format (unit mm)*
G04 Created by KiCad (PCBNEW 4.0.4-1.fc24-product) date Mon Jun  4 16:01:59 2018*
G01G01*
G04 APERTURE LIST*
G04 APERTURE END LIST*
D32*
D33*
X-0003917322Y0004291338D02*
X0001322834Y0000433070D03*
X0001236220Y0000433070D03*
X0001433070Y0000433070D03*
X0001519685Y0000433070D03*
X0001629921Y0000433070D03*
X0001716535Y0000433070D03*
D34*
X0001519685Y0000314960D03*
X0001440944Y0000314960D03*
D35*
X0001220472Y0000314960D03*
X0001338582Y0000314960D03*
G04 next file*
G04 #@! TF.FileFunction,Paste,Top*
G04 Gerber Fmt 4.6, Leading zero omitted, Abs format (unit mm)*
G04 Created by KiCad (PCBNEW 4.0.4-1.fc24-product) date Mon Jun  4 16:23:53 2018*
G01G01*
G04 APERTURE LIST*
G04 APERTURE END LIST*
D36*
G04 next file*
G04 #@! TF.FileFunction,Paste,Top*
G04 Gerber Fmt 4.6, Leading zero omitted, Abs format (unit mm)*
G04 Created by KiCad (PCBNEW 4.0.4-1.fc24-product) date Mon Jun  4 16:03:53 2018*
G01G01*
G04 APERTURE LIST*
G04 APERTURE END LIST*
D37*
G04 next file*
G04 #@! TF.FileFunction,Paste,Top*
G04 Gerber Fmt 4.6, Leading zero omitted, Abs format (unit mm)*
G04 Created by KiCad (PCBNEW 4.0.4-1.fc24-product) date Mon Jun  4 16:06:22 2018*
G01G01*
G04 APERTURE LIST*
G04 APERTURE END LIST*
D38*
M02*