%
M48
METRIC,000.000
T01C1.00
T10C0.40
T11C1.10
T12C0.50
%
T01
X029000Y050500
X037000Y050500
X037000Y053039
X029000Y055500
X029000Y060500
X029000Y031500
X036099Y033959
X029000Y036500
X036099Y036500
X036099Y039040
X029000Y041500
X003000Y013659
X003000Y011120
X003000Y008579
X003000Y006040
X003000Y003500
X003699Y022099
X008699Y022099
X013699Y022099
X020000Y022000
X020000Y019459
X028000Y002750
X033000Y002750
X038000Y002750
X028000Y006500
X033000Y006500
X038000Y006500
X028000Y010250
X033000Y010250
X038000Y010250
X040000Y021060
X042540Y021060
X040000Y023599
X042540Y023599
X005200Y058300
X009900Y058300
X014600Y058300
X005200Y063129
X009900Y063129
X014600Y063129
X004600Y068000
X007140Y068000
X009680Y068000
X012220Y068000
X014760Y068000
X004600Y070949
X007140Y070949
X009680Y070949
X012220Y070949
X014760Y070949
X004600Y073900
X007140Y073900
X009680Y073900
X012220Y073900
X014760Y073900
X005800Y045700
X005800Y040900
X005800Y036099
X005800Y031269
X008099Y051000
X010500Y045700
X010500Y040900
X010500Y036099
X010500Y031269
X010639Y051000
X013180Y051000
X015199Y045700
X015199Y040900
X015199Y036099
X015199Y031269
X026800Y069400
X031500Y069400
X036200Y069400
X026800Y074229
X031500Y074229
X036200Y074229
X026320Y079100
X028860Y079100
X031400Y079100
X034060Y079100
X036600Y079100
T10
X008000Y011700
X008000Y006599
X009199Y007799
X010800Y011700
X011599Y009799
X016000Y011700
X017300Y003000
X017599Y007700
X021000Y006000
X040816Y007216
X042000Y012300
X044200Y012300
X036100Y014000
X035400Y018300
X032800Y019099
X027100Y024500
T11
X019700Y056720
X019700Y059259
X019700Y061800
X019700Y065400
X019700Y067940
X019800Y050700
X019800Y048160
X019800Y045140
X019800Y042599
X019800Y038440
X019800Y035900
X019800Y032840
X019800Y030299
T12
X014785Y026250
X013785Y026250
X012785Y026250
X011785Y026250
X010785Y026250
X010429Y027750
X011429Y027750
X012429Y027750
X013429Y027750
X014429Y027750
X011429Y054750
X012429Y054750
X013429Y054750
X014429Y054750
X015429Y054750
X014785Y053250
X013785Y053250
X012785Y053250
X011785Y053250
X024750Y040178
X024750Y039178
X024750Y038178
X024750Y037178
X024750Y036178
X023250Y036607
X023250Y037607
X023250Y038607
X023250Y039607
X024750Y052178
X024750Y051178
X024750Y050178
X024750Y049178
X024750Y048178
X023250Y048607
X023250Y049607
X023250Y050607
X023250Y051607
X024750Y061178
X024750Y060178
X024750Y059178
X024750Y058178
X023250Y057607
X023250Y058607
X023250Y059607
X023250Y060607
X023250Y061607
X031429Y027750
X032429Y027750
X033429Y027750
X034429Y027750
X034785Y026250
X033785Y026250
X032785Y026250
X031785Y026250
X030785Y026250
X029429Y046750
X030429Y046750
X031429Y046750
X032429Y046750
X033429Y046750
X034429Y046750
X034785Y045250
X033785Y045250
X032785Y045250
X031785Y045250
X030785Y045250
X029785Y045250
X023250Y011607
X023250Y012607
X023250Y013607
X023250Y014607
X024750Y015178
X024750Y014178
X024750Y013178
X024750Y012178
X024750Y011178
X033785Y064250
X032785Y064250
X031785Y064250
X030785Y064250
X029785Y064250
X030429Y065750
X031429Y065750
X032429Y065750
X033429Y065750
X023250Y068607
X023250Y069607
X023250Y070607
X023250Y071607
X024750Y072178
X024750Y071178
X024750Y070178
X024750Y069178
X024750Y068178
M30