%MOIN*%
%OFA0B0*%
%FSLAX46Y46*%
%IPPOS*%
%LPD*%
%ADD10C,0.0039370078740157488*%
%ADD11C,0.070866141732283464*%
%ADD12R,0.066929133858267723X0.066929133858267723*%
%ADD13O,0.066929133858267723X0.066929133858267723*%
%ADD14C,0.011811023622047244*%
%ADD25C,0.0039370078740157488*%
%ADD26C,0.070866141732283464*%
%ADD27R,0.066929133858267723X0.066929133858267723*%
%ADD28O,0.066929133858267723X0.066929133858267723*%
%ADD29C,0.011811023622047244*%
%ADD30C,0.0039370078740157488*%
%ADD31R,0.066929133858267723X0.066929133858267723*%
%ADD32O,0.066929133858267723X0.066929133858267723*%
%ADD33C,0.070866141732283464*%
%ADD34R,0.0984X0.0709*%
%ADD35R,0.047244094488188976X0.029527559055118113*%
%ADD36R,0.03937007874015748X0.062992125984251982*%
%ADD37C,0.023622047244094488*%
%ADD38C,0.01968503937007874*%
%ADD39C,0.011811023622047244*%
%ADD40C,0.015748031496062995*%
%ADD41C,0.0039370078740157488*%
%ADD42R,0.03937007874015748X0.049212598425196853*%
%ADD43R,0.035433070866141732X0.047244094488188976*%
%ADD44R,0.047244094488188976X0.035433070866141732*%
%ADD45R,0.066929133858267723X0.066929133858267723*%
%ADD46O,0.066929133858267723X0.066929133858267723*%
%ADD47C,0.070866141732283464*%
%ADD48C,0.023622047244094488*%
%ADD49C,0.015748031496062995*%
%ADD50C,0.011811023622047244*%
%ADD51C,0.0039370078740157488*%
%ADD52R,0.066929133858267723X0.066929133858267723*%
%ADD53O,0.066929133858267723X0.066929133858267723*%
%ADD54O,0.070866141732283464X0.070866141732283464*%
%ADD55C,0.070866141732283464*%
%ADD56O,0.0787X0.0787*%
%ADD57R,0.0787X0.0787*%
%ADD58C,0.01968503937007874*%
%ADD59C,0.015748031496062995*%
%ADD60C,0.011811023622047244*%
%ADD61C,0.0039370078740157488*%
%ADD62O,0.0787X0.0787*%
%ADD63R,0.0787X0.0787*%
%ADD64O,0.070866141732283464X0.070866141732283464*%
%ADD65C,0.070866141732283464*%
%ADD66R,0.066929133858267723X0.066929133858267723*%
%ADD67O,0.066929133858267723X0.066929133858267723*%
%ADD68C,0.01968503937007874*%
%ADD69C,0.011811023622047244*%
%ADD70C,0.0039370078740157488*%
%ADD71O,0.070866141732283464X0.070866141732283464*%
%ADD72C,0.070866141732283464*%
%ADD73R,0.066929133858267723X0.066929133858267723*%
%ADD74O,0.066929133858267723X0.066929133858267723*%
%ADD75C,0.01968503937007874*%
%ADD76C,0.011811023622047244*%
G01G01*
D10*
D11*
X-0002204724Y-0003228346D02*
X0001141732Y0002381889D03*
X0001141732Y0002185039D03*
X0001141732Y0001988188D03*
D12*
X0001456692Y0001988188D03*
D13*
X0001456692Y0002088188D03*
D14*
G36*
X0001554133Y0002499015D02*
X0001554133Y0001871062D01*
X0001423228Y0001871062D01*
X0001423228Y0001936660D01*
X0001490157Y0001936660D01*
X0001496722Y0001937896D01*
X0001502752Y0001941776D01*
X0001506797Y0001947696D01*
X0001508221Y0001954724D01*
X0001508221Y0002021653D01*
X0001506985Y0002028218D01*
X0001503105Y0002034248D01*
X0001497185Y0002038294D01*
X0001490157Y0002039717D01*
X0001475354Y0002039717D01*
X0001476279Y0002039901D01*
X0001492883Y0002050995D01*
X0001503978Y0002067600D01*
X0001507874Y0002087186D01*
X0001507874Y0002089191D01*
X0001503978Y0002108777D01*
X0001492883Y0002125382D01*
X0001476279Y0002136476D01*
X0001456692Y0002140372D01*
X0001437106Y0002136476D01*
X0001420502Y0002125382D01*
X0001409407Y0002108777D01*
X0001405511Y0002089191D01*
X0001405511Y0002087186D01*
X0001409407Y0002067600D01*
X0001420502Y0002050995D01*
X0001437106Y0002039901D01*
X0001438031Y0002039717D01*
X0001423228Y0002039717D01*
X0001416662Y0002038481D01*
X0001410633Y0002034601D01*
X0001406587Y0002028681D01*
X0001405164Y0002021653D01*
X0001405164Y0001954724D01*
X0001406400Y0001948159D01*
X0001410280Y0001942129D01*
X0001416200Y0001938083D01*
X0001423228Y0001936660D01*
X0001423228Y0001871062D01*
X0001152257Y0001871062D01*
X0001152257Y0001935030D01*
X0001171799Y0001943104D01*
X0001186764Y0001958042D01*
X0001194872Y0001977570D01*
X0001194891Y0001998714D01*
X0001186816Y0002018256D01*
X0001171878Y0002033220D01*
X0001152350Y0002041329D01*
X0001152257Y0002041329D01*
X0001152257Y0002131880D01*
X0001171799Y0002139955D01*
X0001186764Y0002154893D01*
X0001194872Y0002174420D01*
X0001194891Y0002195565D01*
X0001186816Y0002215106D01*
X0001171878Y0002230071D01*
X0001152350Y0002238179D01*
X0001152257Y0002238179D01*
X0001152257Y0002328730D01*
X0001171799Y0002336805D01*
X0001186764Y0002351743D01*
X0001194872Y0002371271D01*
X0001194891Y0002392415D01*
X0001186816Y0002411957D01*
X0001171878Y0002426921D01*
X0001152350Y0002435030D01*
X0001131206Y0002435048D01*
X0001111664Y0002426974D01*
X0001096700Y0002412035D01*
X0001088591Y0002392508D01*
X0001088573Y0002371364D01*
X0001096647Y0002351822D01*
X0001111586Y0002336857D01*
X0001131113Y0002328749D01*
X0001152257Y0002328730D01*
X0001152257Y0002238179D01*
X0001131206Y0002238198D01*
X0001111664Y0002230123D01*
X0001096700Y0002215185D01*
X0001088591Y0002195657D01*
X0001088573Y0002174513D01*
X0001096647Y0002154971D01*
X0001111586Y0002140007D01*
X0001131113Y0002131899D01*
X0001152257Y0002131880D01*
X0001152257Y0002041329D01*
X0001131206Y0002041347D01*
X0001111664Y0002033273D01*
X0001096700Y0002018335D01*
X0001088591Y0001998807D01*
X0001088573Y0001977663D01*
X0001096647Y0001958121D01*
X0001111586Y0001943157D01*
X0001131113Y0001935048D01*
X0001152257Y0001935030D01*
X0001152257Y0001871062D01*
X0001004921Y0001871062D01*
X0001004921Y0002499015D01*
X0001554133Y0002499015D01*
X0001554133Y0002499015D01*
G37*
X0001554133Y0002499015D02*
X0001554133Y0001871062D01*
X0001423228Y0001871062D01*
X0001423228Y0001936660D01*
X0001490157Y0001936660D01*
X0001496722Y0001937896D01*
X0001502752Y0001941776D01*
X0001506797Y0001947696D01*
X0001508221Y0001954724D01*
X0001508221Y0002021653D01*
X0001506985Y0002028218D01*
X0001503105Y0002034248D01*
X0001497185Y0002038294D01*
X0001490157Y0002039717D01*
X0001475354Y0002039717D01*
X0001476279Y0002039901D01*
X0001492883Y0002050995D01*
X0001503978Y0002067600D01*
X0001507874Y0002087186D01*
X0001507874Y0002089191D01*
X0001503978Y0002108777D01*
X0001492883Y0002125382D01*
X0001476279Y0002136476D01*
X0001456692Y0002140372D01*
X0001437106Y0002136476D01*
X0001420502Y0002125382D01*
X0001409407Y0002108777D01*
X0001405511Y0002089191D01*
X0001405511Y0002087186D01*
X0001409407Y0002067600D01*
X0001420502Y0002050995D01*
X0001437106Y0002039901D01*
X0001438031Y0002039717D01*
X0001423228Y0002039717D01*
X0001416662Y0002038481D01*
X0001410633Y0002034601D01*
X0001406587Y0002028681D01*
X0001405164Y0002021653D01*
X0001405164Y0001954724D01*
X0001406400Y0001948159D01*
X0001410280Y0001942129D01*
X0001416200Y0001938083D01*
X0001423228Y0001936660D01*
X0001423228Y0001871062D01*
X0001152257Y0001871062D01*
X0001152257Y0001935030D01*
X0001171799Y0001943104D01*
X0001186764Y0001958042D01*
X0001194872Y0001977570D01*
X0001194891Y0001998714D01*
X0001186816Y0002018256D01*
X0001171878Y0002033220D01*
X0001152350Y0002041329D01*
X0001152257Y0002041329D01*
X0001152257Y0002131880D01*
X0001171799Y0002139955D01*
X0001186764Y0002154893D01*
X0001194872Y0002174420D01*
X0001194891Y0002195565D01*
X0001186816Y0002215106D01*
X0001171878Y0002230071D01*
X0001152350Y0002238179D01*
X0001152257Y0002238179D01*
X0001152257Y0002328730D01*
X0001171799Y0002336805D01*
X0001186764Y0002351743D01*
X0001194872Y0002371271D01*
X0001194891Y0002392415D01*
X0001186816Y0002411957D01*
X0001171878Y0002426921D01*
X0001152350Y0002435030D01*
X0001131206Y0002435048D01*
X0001111664Y0002426974D01*
X0001096700Y0002412035D01*
X0001088591Y0002392508D01*
X0001088573Y0002371364D01*
X0001096647Y0002351822D01*
X0001111586Y0002336857D01*
X0001131113Y0002328749D01*
X0001152257Y0002328730D01*
X0001152257Y0002238179D01*
X0001131206Y0002238198D01*
X0001111664Y0002230123D01*
X0001096700Y0002215185D01*
X0001088591Y0002195657D01*
X0001088573Y0002174513D01*
X0001096647Y0002154971D01*
X0001111586Y0002140007D01*
X0001131113Y0002131899D01*
X0001152257Y0002131880D01*
X0001152257Y0002041329D01*
X0001131206Y0002041347D01*
X0001111664Y0002033273D01*
X0001096700Y0002018335D01*
X0001088591Y0001998807D01*
X0001088573Y0001977663D01*
X0001096647Y0001958121D01*
X0001111586Y0001943157D01*
X0001131113Y0001935048D01*
X0001152257Y0001935030D01*
X0001152257Y0001871062D01*
X0001004921Y0001871062D01*
X0001004921Y0002499015D01*
X0001554133Y0002499015D01*
G04 next file*
G04 #@! TF.FileFunction,Copper,L2,Bot,Signal*
G04 Gerber Fmt 4.6, Leading zero omitted, Abs format (unit mm)*
G04 Created by KiCad (PCBNEW 4.0.4-1.fc24-product) date Tue Jun 12 10:09:51 2018*
G01G01*
G04 APERTURE LIST*
G04 APERTURE END LIST*
D25*
D26*
X-0001771653Y-0002992125D02*
X0001141732Y0001633858D03*
X0001141732Y0001437007D03*
X0001141732Y0001240157D03*
D27*
X0001421259Y0001537007D03*
D28*
X0001421259Y0001437007D03*
X0001421259Y0001337007D03*
D29*
G36*
X0001475393Y0001750984D02*
X0001475393Y0001123031D01*
X0001435045Y0001123031D01*
X0001435045Y0001287717D01*
X0001452858Y0001296745D01*
X0001465861Y0001311902D01*
X0001470549Y0001323222D01*
X0001467637Y0001331102D01*
X0001427165Y0001331102D01*
X0001427165Y0001290597D01*
X0001435045Y0001287717D01*
X0001435045Y0001123031D01*
X0001407473Y0001123031D01*
X0001407473Y0001287717D01*
X0001415354Y0001290597D01*
X0001415354Y0001331102D01*
X0001374882Y0001331102D01*
X0001374882Y0001342913D01*
X0001415354Y0001342913D01*
X0001415354Y0001343700D01*
X0001427165Y0001343700D01*
X0001427165Y0001342913D01*
X0001467637Y0001342913D01*
X0001470549Y0001350793D01*
X0001465861Y0001362113D01*
X0001452858Y0001377270D01*
X0001435045Y0001386297D01*
X0001427165Y0001383418D01*
X0001427165Y0001386802D01*
X0001441848Y0001389722D01*
X0001458453Y0001400817D01*
X0001469547Y0001417421D01*
X0001473443Y0001437007D01*
X0001469547Y0001456594D01*
X0001458453Y0001473198D01*
X0001441848Y0001484293D01*
X0001435883Y0001485479D01*
X0001454724Y0001485479D01*
X0001461289Y0001486715D01*
X0001467319Y0001490595D01*
X0001471364Y0001496515D01*
X0001472788Y0001503543D01*
X0001472788Y0001570472D01*
X0001471552Y0001577037D01*
X0001467672Y0001583067D01*
X0001461752Y0001587112D01*
X0001454724Y0001588536D01*
X0001387795Y0001588536D01*
X0001381229Y0001587300D01*
X0001375200Y0001583420D01*
X0001371154Y0001577500D01*
X0001369731Y0001570472D01*
X0001369731Y0001503543D01*
X0001370967Y0001496977D01*
X0001374847Y0001490948D01*
X0001380767Y0001486902D01*
X0001387795Y0001485479D01*
X0001406636Y0001485479D01*
X0001400670Y0001484293D01*
X0001384066Y0001473198D01*
X0001372971Y0001456594D01*
X0001369075Y0001437007D01*
X0001372971Y0001417421D01*
X0001384066Y0001400817D01*
X0001400670Y0001389722D01*
X0001415354Y0001386802D01*
X0001415354Y0001383418D01*
X0001407473Y0001386297D01*
X0001389660Y0001377270D01*
X0001376658Y0001362113D01*
X0001371970Y0001350793D01*
X0001374882Y0001342913D01*
X0001374882Y0001331102D01*
X0001371970Y0001323222D01*
X0001376658Y0001311902D01*
X0001389660Y0001296745D01*
X0001407473Y0001287717D01*
X0001407473Y0001123031D01*
X0001180846Y0001123031D01*
X0001180846Y0001209395D01*
X0001188783Y0001213272D01*
X0001195490Y0001233324D01*
X0001194013Y0001254417D01*
X0001188783Y0001267042D01*
X0001180846Y0001270919D01*
X0001150083Y0001240157D01*
X0001180846Y0001209395D01*
X0001180846Y0001123031D01*
X0001134899Y0001123031D01*
X0001134899Y0001186399D01*
X0001155991Y0001187876D01*
X0001168617Y0001193106D01*
X0001172494Y0001201043D01*
X0001141732Y0001231805D01*
X0001141732Y0001248509D01*
X0001172494Y0001279271D01*
X0001168617Y0001287208D01*
X0001152257Y0001292680D01*
X0001152257Y0001383849D01*
X0001171799Y0001391923D01*
X0001186764Y0001406861D01*
X0001194872Y0001426389D01*
X0001194891Y0001447533D01*
X0001186816Y0001467075D01*
X0001171878Y0001482039D01*
X0001152350Y0001490148D01*
X0001152257Y0001490148D01*
X0001152257Y0001580699D01*
X0001171799Y0001588773D01*
X0001186764Y0001603712D01*
X0001194872Y0001623239D01*
X0001194891Y0001644383D01*
X0001186816Y0001663925D01*
X0001171878Y0001678890D01*
X0001152350Y0001686998D01*
X0001131206Y0001687017D01*
X0001111664Y0001678942D01*
X0001096700Y0001664004D01*
X0001088591Y0001644476D01*
X0001088573Y0001623332D01*
X0001096647Y0001603790D01*
X0001111586Y0001588826D01*
X0001131113Y0001580717D01*
X0001152257Y0001580699D01*
X0001152257Y0001490148D01*
X0001131206Y0001490166D01*
X0001111664Y0001482092D01*
X0001096700Y0001467153D01*
X0001088591Y0001447626D01*
X0001088573Y0001426482D01*
X0001096647Y0001406940D01*
X0001111586Y0001391976D01*
X0001131113Y0001383867D01*
X0001152257Y0001383849D01*
X0001152257Y0001292680D01*
X0001148565Y0001293915D01*
X0001127472Y0001292438D01*
X0001114847Y0001287208D01*
X0001110969Y0001279271D01*
X0001141732Y0001248509D01*
X0001141732Y0001231805D01*
X0001110969Y0001201043D01*
X0001114847Y0001193106D01*
X0001134899Y0001186399D01*
X0001134899Y0001123031D01*
X0001102618Y0001123031D01*
X0001102618Y0001209395D01*
X0001133380Y0001240157D01*
X0001102618Y0001270919D01*
X0001094680Y0001267042D01*
X0001087973Y0001246990D01*
X0001089451Y0001225897D01*
X0001094680Y0001213272D01*
X0001102618Y0001209395D01*
X0001102618Y0001123031D01*
X0001004921Y0001123031D01*
X0001004921Y0001750984D01*
X0001475393Y0001750984D01*
X0001475393Y0001750984D01*
G37*
X0001475393Y0001750984D02*
X0001475393Y0001123031D01*
X0001435045Y0001123031D01*
X0001435045Y0001287717D01*
X0001452858Y0001296745D01*
X0001465861Y0001311902D01*
X0001470549Y0001323222D01*
X0001467637Y0001331102D01*
X0001427165Y0001331102D01*
X0001427165Y0001290597D01*
X0001435045Y0001287717D01*
X0001435045Y0001123031D01*
X0001407473Y0001123031D01*
X0001407473Y0001287717D01*
X0001415354Y0001290597D01*
X0001415354Y0001331102D01*
X0001374882Y0001331102D01*
X0001374882Y0001342913D01*
X0001415354Y0001342913D01*
X0001415354Y0001343700D01*
X0001427165Y0001343700D01*
X0001427165Y0001342913D01*
X0001467637Y0001342913D01*
X0001470549Y0001350793D01*
X0001465861Y0001362113D01*
X0001452858Y0001377270D01*
X0001435045Y0001386297D01*
X0001427165Y0001383418D01*
X0001427165Y0001386802D01*
X0001441848Y0001389722D01*
X0001458453Y0001400817D01*
X0001469547Y0001417421D01*
X0001473443Y0001437007D01*
X0001469547Y0001456594D01*
X0001458453Y0001473198D01*
X0001441848Y0001484293D01*
X0001435883Y0001485479D01*
X0001454724Y0001485479D01*
X0001461289Y0001486715D01*
X0001467319Y0001490595D01*
X0001471364Y0001496515D01*
X0001472788Y0001503543D01*
X0001472788Y0001570472D01*
X0001471552Y0001577037D01*
X0001467672Y0001583067D01*
X0001461752Y0001587112D01*
X0001454724Y0001588536D01*
X0001387795Y0001588536D01*
X0001381229Y0001587300D01*
X0001375200Y0001583420D01*
X0001371154Y0001577500D01*
X0001369731Y0001570472D01*
X0001369731Y0001503543D01*
X0001370967Y0001496977D01*
X0001374847Y0001490948D01*
X0001380767Y0001486902D01*
X0001387795Y0001485479D01*
X0001406636Y0001485479D01*
X0001400670Y0001484293D01*
X0001384066Y0001473198D01*
X0001372971Y0001456594D01*
X0001369075Y0001437007D01*
X0001372971Y0001417421D01*
X0001384066Y0001400817D01*
X0001400670Y0001389722D01*
X0001415354Y0001386802D01*
X0001415354Y0001383418D01*
X0001407473Y0001386297D01*
X0001389660Y0001377270D01*
X0001376658Y0001362113D01*
X0001371970Y0001350793D01*
X0001374882Y0001342913D01*
X0001374882Y0001331102D01*
X0001371970Y0001323222D01*
X0001376658Y0001311902D01*
X0001389660Y0001296745D01*
X0001407473Y0001287717D01*
X0001407473Y0001123031D01*
X0001180846Y0001123031D01*
X0001180846Y0001209395D01*
X0001188783Y0001213272D01*
X0001195490Y0001233324D01*
X0001194013Y0001254417D01*
X0001188783Y0001267042D01*
X0001180846Y0001270919D01*
X0001150083Y0001240157D01*
X0001180846Y0001209395D01*
X0001180846Y0001123031D01*
X0001134899Y0001123031D01*
X0001134899Y0001186399D01*
X0001155991Y0001187876D01*
X0001168617Y0001193106D01*
X0001172494Y0001201043D01*
X0001141732Y0001231805D01*
X0001141732Y0001248509D01*
X0001172494Y0001279271D01*
X0001168617Y0001287208D01*
X0001152257Y0001292680D01*
X0001152257Y0001383849D01*
X0001171799Y0001391923D01*
X0001186764Y0001406861D01*
X0001194872Y0001426389D01*
X0001194891Y0001447533D01*
X0001186816Y0001467075D01*
X0001171878Y0001482039D01*
X0001152350Y0001490148D01*
X0001152257Y0001490148D01*
X0001152257Y0001580699D01*
X0001171799Y0001588773D01*
X0001186764Y0001603712D01*
X0001194872Y0001623239D01*
X0001194891Y0001644383D01*
X0001186816Y0001663925D01*
X0001171878Y0001678890D01*
X0001152350Y0001686998D01*
X0001131206Y0001687017D01*
X0001111664Y0001678942D01*
X0001096700Y0001664004D01*
X0001088591Y0001644476D01*
X0001088573Y0001623332D01*
X0001096647Y0001603790D01*
X0001111586Y0001588826D01*
X0001131113Y0001580717D01*
X0001152257Y0001580699D01*
X0001152257Y0001490148D01*
X0001131206Y0001490166D01*
X0001111664Y0001482092D01*
X0001096700Y0001467153D01*
X0001088591Y0001447626D01*
X0001088573Y0001426482D01*
X0001096647Y0001406940D01*
X0001111586Y0001391976D01*
X0001131113Y0001383867D01*
X0001152257Y0001383849D01*
X0001152257Y0001292680D01*
X0001148565Y0001293915D01*
X0001127472Y0001292438D01*
X0001114847Y0001287208D01*
X0001110969Y0001279271D01*
X0001141732Y0001248509D01*
X0001141732Y0001231805D01*
X0001110969Y0001201043D01*
X0001114847Y0001193106D01*
X0001134899Y0001186399D01*
X0001134899Y0001123031D01*
X0001102618Y0001123031D01*
X0001102618Y0001209395D01*
X0001133380Y0001240157D01*
X0001102618Y0001270919D01*
X0001094680Y0001267042D01*
X0001087973Y0001246990D01*
X0001089451Y0001225897D01*
X0001094680Y0001213272D01*
X0001102618Y0001209395D01*
X0001102618Y0001123031D01*
X0001004921Y0001123031D01*
X0001004921Y0001750984D01*
X0001475393Y0001750984D01*
G04 next file*
G04 #@! TF.FileFunction,Copper,L2,Bot,Signal*
G04 Gerber Fmt 4.6, Leading zero omitted, Abs format (unit mm)*
G04 Created by KiCad (PCBNEW 4.0.4-1.fc24-product) date Tue Jun 12 10:10:09 2018*
G01G01*
G04 APERTURE LIST*
G04 APERTURE END LIST*
D30*
D31*
X-0005708661Y0004409448D02*
X0000787401Y0000866141D03*
D32*
X0000787401Y0000766141D03*
D31*
X0000118110Y0000137795D03*
D32*
X0000118110Y0000237795D03*
X0000118110Y0000337795D03*
X0000118110Y0000437795D03*
X0000118110Y0000537795D03*
D33*
X0000539370Y0000870078D03*
X0000342519Y0000870078D03*
X0000145669Y0000870078D03*
D34*
X0000275630Y0000118110D03*
X0000433030Y0000118110D03*
D35*
X0000549212Y0000236220D03*
X0000624015Y0000236220D03*
X0000620078Y0000118110D03*
X0000545275Y0000118110D03*
D36*
X0000267716Y0000248031D03*
X0000385826Y0000248031D03*
X0000728346Y0000118110D03*
X0000846456Y0000118110D03*
D37*
X0000314960Y0000259842D03*
X0000826771Y0000236220D03*
X0000456692Y0000385826D03*
X0000692913Y0000303149D03*
X0000629921Y0000460629D03*
X0000425196Y0000460629D03*
X0000314960Y0000460629D03*
X0000362204Y0000307086D03*
X0000681102Y0000118110D03*
D38*
X0000267716Y0000248031D02*
X0000267716Y0000354330D01*
X0000299212Y0000385826D02*
X0000439989Y0000385826D01*
X0000267716Y0000354330D02*
X0000299212Y0000385826D01*
X0000439989Y0000385826D02*
X0000456692Y0000385826D01*
X0000267716Y0000188976D02*
X0000267716Y0000126024D01*
X0000267716Y0000248031D02*
X0000267716Y0000188976D01*
X0000267716Y0000188976D02*
X0000458661Y0000188976D01*
X0000458661Y0000188976D02*
X0000505905Y0000236220D01*
X0000267716Y0000126024D02*
X0000275630Y0000118110D01*
X0000549212Y0000236220D02*
X0000505905Y0000236220D01*
X0000204724Y0000118110D02*
X0000185039Y0000137795D01*
X0000185039Y0000137795D02*
X0000118110Y0000137795D01*
X0000204724Y0000118110D02*
X0000275630Y0000118110D01*
D39*
X0000692913Y0000881889D02*
X0000692913Y0000319852D01*
X0000224409Y0000948818D02*
X0000625984Y0000948818D01*
X0000145669Y0000870078D02*
X0000224409Y0000948818D01*
X0000692913Y0000319852D02*
X0000692913Y0000303149D01*
X0000625984Y0000948818D02*
X0000692913Y0000881889D01*
X0000629921Y0000460629D02*
X0000629921Y0000460629D01*
X0000425196Y0000460629D02*
X0000629921Y0000460629D01*
X0000275590Y0000500000D02*
X0000314960Y0000460629D01*
X0000275590Y0000803149D02*
X0000275590Y0000500000D01*
X0000342519Y0000870078D02*
X0000275590Y0000803149D01*
X0000425196Y0000460629D02*
X0000425196Y0000460629D01*
X0000314960Y0000460629D02*
X0000425196Y0000460629D01*
D40*
X0000624015Y0000236220D02*
X0000624015Y0000265748D01*
X0000624015Y0000265748D02*
X0000582677Y0000307086D01*
X0000582677Y0000307086D02*
X0000378907Y0000307086D01*
X0000378907Y0000307086D02*
X0000362204Y0000307086D01*
X0000624015Y0000236220D02*
X0000624015Y0000122047D01*
X0000624015Y0000122047D02*
X0000620078Y0000118110D01*
X0000681102Y0000118110D02*
X0000620078Y0000118110D01*
X0000728346Y0000118110D02*
X0000681102Y0000118110D01*
D39*
G36*
X0000884842Y0000020669D02*
X0000020669Y0000020669D01*
X0000020669Y0000437795D01*
X0000065926Y0000437795D01*
X0000069822Y0000418209D01*
X0000080917Y0000401604D01*
X0000097521Y0000390510D01*
X0000111169Y0000387795D01*
X0000097521Y0000385080D01*
X0000080917Y0000373985D01*
X0000069822Y0000357381D01*
X0000065926Y0000337795D01*
X0000069822Y0000318209D01*
X0000080917Y0000301604D01*
X0000097521Y0000290510D01*
X0000111169Y0000287795D01*
X0000097521Y0000285080D01*
X0000080917Y0000273985D01*
X0000069822Y0000257381D01*
X0000065926Y0000237795D01*
X0000069822Y0000218209D01*
X0000080917Y0000201604D01*
X0000097521Y0000190510D01*
X0000103487Y0000189323D01*
X0000084645Y0000189323D01*
X0000078080Y0000188088D01*
X0000072050Y0000184207D01*
X0000068005Y0000178287D01*
X0000066582Y0000171259D01*
X0000066582Y0000104330D01*
X0000067817Y0000097765D01*
X0000071697Y0000091735D01*
X0000077617Y0000087690D01*
X0000084645Y0000086267D01*
X0000151574Y0000086267D01*
X0000158140Y0000087502D01*
X0000164170Y0000091382D01*
X0000168215Y0000097302D01*
X0000169638Y0000104330D01*
X0000169638Y0000110236D01*
X0000173624Y0000110236D01*
X0000185237Y0000098623D01*
X0000194177Y0000092648D01*
X0000204724Y0000090551D01*
X0000204724Y0000090551D01*
X0000208367Y0000090551D01*
X0000208367Y0000082660D01*
X0000209602Y0000076094D01*
X0000213482Y0000070065D01*
X0000219402Y0000066019D01*
X0000226430Y0000064596D01*
X0000324830Y0000064596D01*
X0000331396Y0000065831D01*
X0000337425Y0000069712D01*
X0000341471Y0000075632D01*
X0000342894Y0000082660D01*
X0000342894Y0000107775D01*
X0000366114Y0000107775D01*
X0000366114Y0000079136D01*
X0000368811Y0000072624D01*
X0000373795Y0000067640D01*
X0000380306Y0000064943D01*
X0000422696Y0000064943D01*
X0000427125Y0000069372D01*
X0000427125Y0000112204D01*
X0000438936Y0000112204D01*
X0000438936Y0000069372D01*
X0000443365Y0000064943D01*
X0000485754Y0000064943D01*
X0000492266Y0000067640D01*
X0000497250Y0000072624D01*
X0000499947Y0000079136D01*
X0000499947Y0000107775D01*
X0000503937Y0000107775D01*
X0000503937Y0000099822D01*
X0000506634Y0000093310D01*
X0000511617Y0000088327D01*
X0000518129Y0000085629D01*
X0000534940Y0000085629D01*
X0000539370Y0000090059D01*
X0000539370Y0000112204D01*
X0000508366Y0000112204D01*
X0000503937Y0000107775D01*
X0000499947Y0000107775D01*
X0000495518Y0000112204D01*
X0000438936Y0000112204D01*
X0000427125Y0000112204D01*
X0000370543Y0000112204D01*
X0000366114Y0000107775D01*
X0000342894Y0000107775D01*
X0000342894Y0000153560D01*
X0000341658Y0000160125D01*
X0000340827Y0000161417D01*
X0000367908Y0000161417D01*
X0000366114Y0000157084D01*
X0000366114Y0000128444D01*
X0000370543Y0000124015D01*
X0000427125Y0000124015D01*
X0000427125Y0000124803D01*
X0000438936Y0000124803D01*
X0000438936Y0000124015D01*
X0000495518Y0000124015D01*
X0000499947Y0000128444D01*
X0000499947Y0000136398D01*
X0000503937Y0000136398D01*
X0000503937Y0000128444D01*
X0000508366Y0000124015D01*
X0000539370Y0000124015D01*
X0000539370Y0000146161D01*
X0000534940Y0000150590D01*
X0000518129Y0000150590D01*
X0000511617Y0000147893D01*
X0000506634Y0000142909D01*
X0000503937Y0000136398D01*
X0000499947Y0000136398D01*
X0000499947Y0000157084D01*
X0000497250Y0000163595D01*
X0000492266Y0000168579D01*
X0000485754Y0000171276D01*
X0000479936Y0000171276D01*
X0000515540Y0000206881D01*
X0000518562Y0000204816D01*
X0000525590Y0000203393D01*
X0000572834Y0000203393D01*
X0000579399Y0000204628D01*
X0000585429Y0000208508D01*
X0000586584Y0000210198D01*
X0000587445Y0000208861D01*
X0000593365Y0000204816D01*
X0000598425Y0000203791D01*
X0000598425Y0000150937D01*
X0000596456Y0000150937D01*
X0000589891Y0000149702D01*
X0000583861Y0000145822D01*
X0000582701Y0000144124D01*
X0000578933Y0000147893D01*
X0000572421Y0000150590D01*
X0000555610Y0000150590D01*
X0000551181Y0000146161D01*
X0000551181Y0000124015D01*
X0000551968Y0000124015D01*
X0000551968Y0000112204D01*
X0000551181Y0000112204D01*
X0000551181Y0000090059D01*
X0000555610Y0000085629D01*
X0000572421Y0000085629D01*
X0000578933Y0000088327D01*
X0000582666Y0000092060D01*
X0000583508Y0000090751D01*
X0000589428Y0000086705D01*
X0000596456Y0000085282D01*
X0000643700Y0000085282D01*
X0000650266Y0000086518D01*
X0000656295Y0000090398D01*
X0000657745Y0000092519D01*
X0000665734Y0000092519D01*
X0000675203Y0000088587D01*
X0000686950Y0000088577D01*
X0000690597Y0000090084D01*
X0000690597Y0000086614D01*
X0000691833Y0000080048D01*
X0000695713Y0000074018D01*
X0000701633Y0000069973D01*
X0000708661Y0000068550D01*
X0000748031Y0000068550D01*
X0000754596Y0000069785D01*
X0000760626Y0000073665D01*
X0000764671Y0000079586D01*
X0000766095Y0000086614D01*
X0000766095Y0000107775D01*
X0000809055Y0000107775D01*
X0000809055Y0000083090D01*
X0000811752Y0000076578D01*
X0000816735Y0000071594D01*
X0000823247Y0000068897D01*
X0000836122Y0000068897D01*
X0000840551Y0000073326D01*
X0000840551Y0000112204D01*
X0000852362Y0000112204D01*
X0000852362Y0000073326D01*
X0000856791Y0000068897D01*
X0000869665Y0000068897D01*
X0000876177Y0000071594D01*
X0000881161Y0000076578D01*
X0000883858Y0000083090D01*
X0000883858Y0000107775D01*
X0000879429Y0000112204D01*
X0000852362Y0000112204D01*
X0000840551Y0000112204D01*
X0000813484Y0000112204D01*
X0000809055Y0000107775D01*
X0000766095Y0000107775D01*
X0000766095Y0000149606D01*
X0000765432Y0000153130D01*
X0000809055Y0000153130D01*
X0000809055Y0000128444D01*
X0000813484Y0000124015D01*
X0000840551Y0000124015D01*
X0000840551Y0000162893D01*
X0000852362Y0000162893D01*
X0000852362Y0000124015D01*
X0000879429Y0000124015D01*
X0000883858Y0000128444D01*
X0000883858Y0000153130D01*
X0000881161Y0000159641D01*
X0000876177Y0000164625D01*
X0000869665Y0000167322D01*
X0000856791Y0000167322D01*
X0000852362Y0000162893D01*
X0000840551Y0000162893D01*
X0000836122Y0000167322D01*
X0000823247Y0000167322D01*
X0000816735Y0000164625D01*
X0000811752Y0000159641D01*
X0000809055Y0000153130D01*
X0000765432Y0000153130D01*
X0000764859Y0000156171D01*
X0000760979Y0000162201D01*
X0000755059Y0000166246D01*
X0000748031Y0000167669D01*
X0000708661Y0000167669D01*
X0000702096Y0000166434D01*
X0000696066Y0000162554D01*
X0000692020Y0000156634D01*
X0000690597Y0000149606D01*
X0000690597Y0000146139D01*
X0000687001Y0000147632D01*
X0000675254Y0000147642D01*
X0000665714Y0000143700D01*
X0000657786Y0000143700D01*
X0000656648Y0000145469D01*
X0000650728Y0000149514D01*
X0000649606Y0000149741D01*
X0000649606Y0000203763D01*
X0000654203Y0000204628D01*
X0000660232Y0000208508D01*
X0000664278Y0000214428D01*
X0000665701Y0000221456D01*
X0000665701Y0000250984D01*
X0000664466Y0000257549D01*
X0000660585Y0000263579D01*
X0000654665Y0000267624D01*
X0000649004Y0000268771D01*
X0000647658Y0000275541D01*
X0000647658Y0000275541D01*
X0000642110Y0000283843D01*
X0000600772Y0000325181D01*
X0000592470Y0000330729D01*
X0000590845Y0000331052D01*
X0000582677Y0000332677D01*
X0000377572Y0000332677D01*
X0000368103Y0000336609D01*
X0000356357Y0000336619D01*
X0000345500Y0000332133D01*
X0000337186Y0000323834D01*
X0000332682Y0000312985D01*
X0000332671Y0000301238D01*
X0000337157Y0000290382D01*
X0000345456Y0000282068D01*
X0000348425Y0000280836D01*
X0000348425Y0000258366D01*
X0000352854Y0000253937D01*
X0000379921Y0000253937D01*
X0000379921Y0000254724D01*
X0000391732Y0000254724D01*
X0000391732Y0000253937D01*
X0000418799Y0000253937D01*
X0000423228Y0000258366D01*
X0000423228Y0000281496D01*
X0000572077Y0000281496D01*
X0000588919Y0000264653D01*
X0000587798Y0000263932D01*
X0000586643Y0000262241D01*
X0000585782Y0000263579D01*
X0000579862Y0000267624D01*
X0000572834Y0000269047D01*
X0000525590Y0000269047D01*
X0000519025Y0000267812D01*
X0000512995Y0000263932D01*
X0000512890Y0000263779D01*
X0000505905Y0000263779D01*
X0000495359Y0000261681D01*
X0000490397Y0000258366D01*
X0000486418Y0000255707D01*
X0000447246Y0000216535D01*
X0000423228Y0000216535D01*
X0000423228Y0000237696D01*
X0000418799Y0000242125D01*
X0000391732Y0000242125D01*
X0000391732Y0000241338D01*
X0000379921Y0000241338D01*
X0000379921Y0000242125D01*
X0000352854Y0000242125D01*
X0000348425Y0000237696D01*
X0000348425Y0000216535D01*
X0000305465Y0000216535D01*
X0000305465Y0000279527D01*
X0000304229Y0000286092D01*
X0000300349Y0000292122D01*
X0000295275Y0000295589D01*
X0000295275Y0000342915D01*
X0000310627Y0000358267D01*
X0000446065Y0000358267D01*
X0000450793Y0000356304D01*
X0000462540Y0000356294D01*
X0000473397Y0000360779D01*
X0000481710Y0000369078D01*
X0000486215Y0000379927D01*
X0000486225Y0000391674D01*
X0000481739Y0000402530D01*
X0000473440Y0000410844D01*
X0000462592Y0000415349D01*
X0000450845Y0000415359D01*
X0000446068Y0000413385D01*
X0000299212Y0000413385D01*
X0000288666Y0000411287D01*
X0000279725Y0000405313D01*
X0000248229Y0000373817D01*
X0000242255Y0000364877D01*
X0000242255Y0000364877D01*
X0000240157Y0000354330D01*
X0000240157Y0000295513D01*
X0000235436Y0000292475D01*
X0000231390Y0000286555D01*
X0000229967Y0000279527D01*
X0000229967Y0000216535D01*
X0000231203Y0000209970D01*
X0000235083Y0000203940D01*
X0000240157Y0000200473D01*
X0000240157Y0000171623D01*
X0000226430Y0000171623D01*
X0000219865Y0000170388D01*
X0000213835Y0000166508D01*
X0000209790Y0000160587D01*
X0000208367Y0000153560D01*
X0000208367Y0000153441D01*
X0000204526Y0000157282D01*
X0000195585Y0000163256D01*
X0000185039Y0000165354D01*
X0000169638Y0000165354D01*
X0000169638Y0000171259D01*
X0000168403Y0000177825D01*
X0000164522Y0000183855D01*
X0000158602Y0000187900D01*
X0000151574Y0000189323D01*
X0000132733Y0000189323D01*
X0000138699Y0000190510D01*
X0000155303Y0000201604D01*
X0000166398Y0000218209D01*
X0000170294Y0000237795D01*
X0000166398Y0000257381D01*
X0000155303Y0000273985D01*
X0000138699Y0000285080D01*
X0000125050Y0000287795D01*
X0000138699Y0000290510D01*
X0000155303Y0000301604D01*
X0000166398Y0000318209D01*
X0000170294Y0000337795D01*
X0000166398Y0000357381D01*
X0000155303Y0000373985D01*
X0000138699Y0000385080D01*
X0000125050Y0000387795D01*
X0000138699Y0000390510D01*
X0000155303Y0000401604D01*
X0000166398Y0000418209D01*
X0000170294Y0000437795D01*
X0000166398Y0000457381D01*
X0000155303Y0000473985D01*
X0000138699Y0000485080D01*
X0000124015Y0000488001D01*
X0000124015Y0000491384D01*
X0000131896Y0000488505D01*
X0000149709Y0000497532D01*
X0000162711Y0000512690D01*
X0000167399Y0000524009D01*
X0000164487Y0000531889D01*
X0000124015Y0000531889D01*
X0000124015Y0000531102D01*
X0000112204Y0000531102D01*
X0000112204Y0000531889D01*
X0000071732Y0000531889D01*
X0000068820Y0000524009D01*
X0000073508Y0000512690D01*
X0000086511Y0000497532D01*
X0000104324Y0000488505D01*
X0000112204Y0000491384D01*
X0000112204Y0000488001D01*
X0000097521Y0000485080D01*
X0000080917Y0000473985D01*
X0000069822Y0000457381D01*
X0000065926Y0000437795D01*
X0000020669Y0000437795D01*
X0000020669Y0000551581D01*
X0000068820Y0000551581D01*
X0000071732Y0000543700D01*
X0000112204Y0000543700D01*
X0000112204Y0000584205D01*
X0000124015Y0000584205D01*
X0000124015Y0000543700D01*
X0000164487Y0000543700D01*
X0000167399Y0000551581D01*
X0000162711Y0000562900D01*
X0000149709Y0000578057D01*
X0000131896Y0000587085D01*
X0000124015Y0000584205D01*
X0000112204Y0000584205D01*
X0000104324Y0000587085D01*
X0000086511Y0000578057D01*
X0000073508Y0000562900D01*
X0000068820Y0000551581D01*
X0000020669Y0000551581D01*
X0000020669Y0000803149D01*
X0000251968Y0000803149D01*
X0000251968Y0000500000D01*
X0000253766Y0000490960D01*
X0000258887Y0000483296D01*
X0000285429Y0000456754D01*
X0000285427Y0000454782D01*
X0000289913Y0000443925D01*
X0000298212Y0000435612D01*
X0000309061Y0000431107D01*
X0000320808Y0000431097D01*
X0000331664Y0000435583D01*
X0000333092Y0000437007D01*
X0000407055Y0000437007D01*
X0000408449Y0000435612D01*
X0000419297Y0000431107D01*
X0000431044Y0000431097D01*
X0000441901Y0000435583D01*
X0000443328Y0000437007D01*
X0000611780Y0000437007D01*
X0000613173Y0000435612D01*
X0000624022Y0000431107D01*
X0000635768Y0000431097D01*
X0000646625Y0000435583D01*
X0000654938Y0000443882D01*
X0000659443Y0000454730D01*
X0000659453Y0000466477D01*
X0000654968Y0000477334D01*
X0000646669Y0000485647D01*
X0000635820Y0000490152D01*
X0000624073Y0000490162D01*
X0000613217Y0000485676D01*
X0000611789Y0000484251D01*
X0000443337Y0000484251D01*
X0000441944Y0000485647D01*
X0000431095Y0000490152D01*
X0000419349Y0000490162D01*
X0000408492Y0000485676D01*
X0000407065Y0000484251D01*
X0000333101Y0000484251D01*
X0000331708Y0000485647D01*
X0000320859Y0000490152D01*
X0000318843Y0000490154D01*
X0000299212Y0000509784D01*
X0000299212Y0000793365D01*
X0000325460Y0000819612D01*
X0000331901Y0000816938D01*
X0000353045Y0000816919D01*
X0000372587Y0000824994D01*
X0000387551Y0000839932D01*
X0000395660Y0000859460D01*
X0000395660Y0000859552D01*
X0000486211Y0000859552D01*
X0000494285Y0000840011D01*
X0000509223Y0000825046D01*
X0000528751Y0000816938D01*
X0000549895Y0000816919D01*
X0000569437Y0000824994D01*
X0000584401Y0000839932D01*
X0000592510Y0000859460D01*
X0000592528Y0000880604D01*
X0000584454Y0000900146D01*
X0000569516Y0000915110D01*
X0000549988Y0000923219D01*
X0000528844Y0000923237D01*
X0000509302Y0000915163D01*
X0000494338Y0000900224D01*
X0000486229Y0000880697D01*
X0000486211Y0000859552D01*
X0000395660Y0000859552D01*
X0000395678Y0000880604D01*
X0000387604Y0000900146D01*
X0000372665Y0000915110D01*
X0000353138Y0000923219D01*
X0000331993Y0000923237D01*
X0000312452Y0000915163D01*
X0000297487Y0000900224D01*
X0000289379Y0000880697D01*
X0000289360Y0000859552D01*
X0000292058Y0000853024D01*
X0000258887Y0000819852D01*
X0000253766Y0000812189D01*
X0000251968Y0000803149D01*
X0000020669Y0000803149D01*
X0000020669Y0000859552D01*
X0000092510Y0000859552D01*
X0000100584Y0000840011D01*
X0000115523Y0000825046D01*
X0000135050Y0000816938D01*
X0000156195Y0000816919D01*
X0000175736Y0000824994D01*
X0000190701Y0000839932D01*
X0000198809Y0000859460D01*
X0000198828Y0000880604D01*
X0000196130Y0000887133D01*
X0000234194Y0000925196D01*
X0000616199Y0000925196D01*
X0000669291Y0000872105D01*
X0000669291Y0000321290D01*
X0000667895Y0000319897D01*
X0000663390Y0000309048D01*
X0000663380Y0000297301D01*
X0000667866Y0000286445D01*
X0000676165Y0000278131D01*
X0000687014Y0000273627D01*
X0000698760Y0000273616D01*
X0000709617Y0000278102D01*
X0000717930Y0000286401D01*
X0000722435Y0000297250D01*
X0000722446Y0000308997D01*
X0000717960Y0000319853D01*
X0000716535Y0000321281D01*
X0000716535Y0000881889D01*
X0000714737Y0000890929D01*
X0000709616Y0000898593D01*
X0000708603Y0000899606D01*
X0000735873Y0000899606D01*
X0000735873Y0000832677D01*
X0000737108Y0000826111D01*
X0000740988Y0000820081D01*
X0000746909Y0000816036D01*
X0000753937Y0000814613D01*
X0000768740Y0000814613D01*
X0000767815Y0000814429D01*
X0000751211Y0000803334D01*
X0000740116Y0000786730D01*
X0000736220Y0000767144D01*
X0000736220Y0000765139D01*
X0000740116Y0000745552D01*
X0000751211Y0000728948D01*
X0000767815Y0000717853D01*
X0000787401Y0000713957D01*
X0000806987Y0000717853D01*
X0000823592Y0000728948D01*
X0000834686Y0000745552D01*
X0000838582Y0000765139D01*
X0000838582Y0000767144D01*
X0000834686Y0000786730D01*
X0000823592Y0000803334D01*
X0000806987Y0000814429D01*
X0000806062Y0000814613D01*
X0000820866Y0000814613D01*
X0000827431Y0000815848D01*
X0000833461Y0000819729D01*
X0000837506Y0000825649D01*
X0000838929Y0000832677D01*
X0000838929Y0000899606D01*
X0000837694Y0000906171D01*
X0000833814Y0000912201D01*
X0000827893Y0000916246D01*
X0000820866Y0000917669D01*
X0000753937Y0000917669D01*
X0000747371Y0000916434D01*
X0000741341Y0000912554D01*
X0000737296Y0000906634D01*
X0000735873Y0000899606D01*
X0000708603Y0000899606D01*
X0000642687Y0000965522D01*
X0000635024Y0000970642D01*
X0000625984Y0000972440D01*
X0000224409Y0000972440D01*
X0000215369Y0000970642D01*
X0000207706Y0000965522D01*
X0000162728Y0000920544D01*
X0000156287Y0000923219D01*
X0000135143Y0000923237D01*
X0000115601Y0000915163D01*
X0000100637Y0000900224D01*
X0000092528Y0000880697D01*
X0000092510Y0000859552D01*
X0000020669Y0000859552D01*
X0000020669Y0001002952D01*
X0000884842Y0001002952D01*
X0000884842Y0000020669D01*
X0000884842Y0000020669D01*
G37*
X0000884842Y0000020669D02*
X0000020669Y0000020669D01*
X0000020669Y0000437795D01*
X0000065926Y0000437795D01*
X0000069822Y0000418209D01*
X0000080917Y0000401604D01*
X0000097521Y0000390510D01*
X0000111169Y0000387795D01*
X0000097521Y0000385080D01*
X0000080917Y0000373985D01*
X0000069822Y0000357381D01*
X0000065926Y0000337795D01*
X0000069822Y0000318209D01*
X0000080917Y0000301604D01*
X0000097521Y0000290510D01*
X0000111169Y0000287795D01*
X0000097521Y0000285080D01*
X0000080917Y0000273985D01*
X0000069822Y0000257381D01*
X0000065926Y0000237795D01*
X0000069822Y0000218209D01*
X0000080917Y0000201604D01*
X0000097521Y0000190510D01*
X0000103487Y0000189323D01*
X0000084645Y0000189323D01*
X0000078080Y0000188088D01*
X0000072050Y0000184207D01*
X0000068005Y0000178287D01*
X0000066582Y0000171259D01*
X0000066582Y0000104330D01*
X0000067817Y0000097765D01*
X0000071697Y0000091735D01*
X0000077617Y0000087690D01*
X0000084645Y0000086267D01*
X0000151574Y0000086267D01*
X0000158140Y0000087502D01*
X0000164170Y0000091382D01*
X0000168215Y0000097302D01*
X0000169638Y0000104330D01*
X0000169638Y0000110236D01*
X0000173624Y0000110236D01*
X0000185237Y0000098623D01*
X0000194177Y0000092648D01*
X0000204724Y0000090551D01*
X0000204724Y0000090551D01*
X0000208367Y0000090551D01*
X0000208367Y0000082660D01*
X0000209602Y0000076094D01*
X0000213482Y0000070065D01*
X0000219402Y0000066019D01*
X0000226430Y0000064596D01*
X0000324830Y0000064596D01*
X0000331396Y0000065831D01*
X0000337425Y0000069712D01*
X0000341471Y0000075632D01*
X0000342894Y0000082660D01*
X0000342894Y0000107775D01*
X0000366114Y0000107775D01*
X0000366114Y0000079136D01*
X0000368811Y0000072624D01*
X0000373795Y0000067640D01*
X0000380306Y0000064943D01*
X0000422696Y0000064943D01*
X0000427125Y0000069372D01*
X0000427125Y0000112204D01*
X0000438936Y0000112204D01*
X0000438936Y0000069372D01*
X0000443365Y0000064943D01*
X0000485754Y0000064943D01*
X0000492266Y0000067640D01*
X0000497250Y0000072624D01*
X0000499947Y0000079136D01*
X0000499947Y0000107775D01*
X0000503937Y0000107775D01*
X0000503937Y0000099822D01*
X0000506634Y0000093310D01*
X0000511617Y0000088327D01*
X0000518129Y0000085629D01*
X0000534940Y0000085629D01*
X0000539370Y0000090059D01*
X0000539370Y0000112204D01*
X0000508366Y0000112204D01*
X0000503937Y0000107775D01*
X0000499947Y0000107775D01*
X0000495518Y0000112204D01*
X0000438936Y0000112204D01*
X0000427125Y0000112204D01*
X0000370543Y0000112204D01*
X0000366114Y0000107775D01*
X0000342894Y0000107775D01*
X0000342894Y0000153560D01*
X0000341658Y0000160125D01*
X0000340827Y0000161417D01*
X0000367908Y0000161417D01*
X0000366114Y0000157084D01*
X0000366114Y0000128444D01*
X0000370543Y0000124015D01*
X0000427125Y0000124015D01*
X0000427125Y0000124803D01*
X0000438936Y0000124803D01*
X0000438936Y0000124015D01*
X0000495518Y0000124015D01*
X0000499947Y0000128444D01*
X0000499947Y0000136398D01*
X0000503937Y0000136398D01*
X0000503937Y0000128444D01*
X0000508366Y0000124015D01*
X0000539370Y0000124015D01*
X0000539370Y0000146161D01*
X0000534940Y0000150590D01*
X0000518129Y0000150590D01*
X0000511617Y0000147893D01*
X0000506634Y0000142909D01*
X0000503937Y0000136398D01*
X0000499947Y0000136398D01*
X0000499947Y0000157084D01*
X0000497250Y0000163595D01*
X0000492266Y0000168579D01*
X0000485754Y0000171276D01*
X0000479936Y0000171276D01*
X0000515540Y0000206881D01*
X0000518562Y0000204816D01*
X0000525590Y0000203393D01*
X0000572834Y0000203393D01*
X0000579399Y0000204628D01*
X0000585429Y0000208508D01*
X0000586584Y0000210198D01*
X0000587445Y0000208861D01*
X0000593365Y0000204816D01*
X0000598425Y0000203791D01*
X0000598425Y0000150937D01*
X0000596456Y0000150937D01*
X0000589891Y0000149702D01*
X0000583861Y0000145822D01*
X0000582701Y0000144124D01*
X0000578933Y0000147893D01*
X0000572421Y0000150590D01*
X0000555610Y0000150590D01*
X0000551181Y0000146161D01*
X0000551181Y0000124015D01*
X0000551968Y0000124015D01*
X0000551968Y0000112204D01*
X0000551181Y0000112204D01*
X0000551181Y0000090059D01*
X0000555610Y0000085629D01*
X0000572421Y0000085629D01*
X0000578933Y0000088327D01*
X0000582666Y0000092060D01*
X0000583508Y0000090751D01*
X0000589428Y0000086705D01*
X0000596456Y0000085282D01*
X0000643700Y0000085282D01*
X0000650266Y0000086518D01*
X0000656295Y0000090398D01*
X0000657745Y0000092519D01*
X0000665734Y0000092519D01*
X0000675203Y0000088587D01*
X0000686950Y0000088577D01*
X0000690597Y0000090084D01*
X0000690597Y0000086614D01*
X0000691833Y0000080048D01*
X0000695713Y0000074018D01*
X0000701633Y0000069973D01*
X0000708661Y0000068550D01*
X0000748031Y0000068550D01*
X0000754596Y0000069785D01*
X0000760626Y0000073665D01*
X0000764671Y0000079586D01*
X0000766095Y0000086614D01*
X0000766095Y0000107775D01*
X0000809055Y0000107775D01*
X0000809055Y0000083090D01*
X0000811752Y0000076578D01*
X0000816735Y0000071594D01*
X0000823247Y0000068897D01*
X0000836122Y0000068897D01*
X0000840551Y0000073326D01*
X0000840551Y0000112204D01*
X0000852362Y0000112204D01*
X0000852362Y0000073326D01*
X0000856791Y0000068897D01*
X0000869665Y0000068897D01*
X0000876177Y0000071594D01*
X0000881161Y0000076578D01*
X0000883858Y0000083090D01*
X0000883858Y0000107775D01*
X0000879429Y0000112204D01*
X0000852362Y0000112204D01*
X0000840551Y0000112204D01*
X0000813484Y0000112204D01*
X0000809055Y0000107775D01*
X0000766095Y0000107775D01*
X0000766095Y0000149606D01*
X0000765432Y0000153130D01*
X0000809055Y0000153130D01*
X0000809055Y0000128444D01*
X0000813484Y0000124015D01*
X0000840551Y0000124015D01*
X0000840551Y0000162893D01*
X0000852362Y0000162893D01*
X0000852362Y0000124015D01*
X0000879429Y0000124015D01*
X0000883858Y0000128444D01*
X0000883858Y0000153130D01*
X0000881161Y0000159641D01*
X0000876177Y0000164625D01*
X0000869665Y0000167322D01*
X0000856791Y0000167322D01*
X0000852362Y0000162893D01*
X0000840551Y0000162893D01*
X0000836122Y0000167322D01*
X0000823247Y0000167322D01*
X0000816735Y0000164625D01*
X0000811752Y0000159641D01*
X0000809055Y0000153130D01*
X0000765432Y0000153130D01*
X0000764859Y0000156171D01*
X0000760979Y0000162201D01*
X0000755059Y0000166246D01*
X0000748031Y0000167669D01*
X0000708661Y0000167669D01*
X0000702096Y0000166434D01*
X0000696066Y0000162554D01*
X0000692020Y0000156634D01*
X0000690597Y0000149606D01*
X0000690597Y0000146139D01*
X0000687001Y0000147632D01*
X0000675254Y0000147642D01*
X0000665714Y0000143700D01*
X0000657786Y0000143700D01*
X0000656648Y0000145469D01*
X0000650728Y0000149514D01*
X0000649606Y0000149741D01*
X0000649606Y0000203763D01*
X0000654203Y0000204628D01*
X0000660232Y0000208508D01*
X0000664278Y0000214428D01*
X0000665701Y0000221456D01*
X0000665701Y0000250984D01*
X0000664466Y0000257549D01*
X0000660585Y0000263579D01*
X0000654665Y0000267624D01*
X0000649004Y0000268771D01*
X0000647658Y0000275541D01*
X0000647658Y0000275541D01*
X0000642110Y0000283843D01*
X0000600772Y0000325181D01*
X0000592470Y0000330729D01*
X0000590845Y0000331052D01*
X0000582677Y0000332677D01*
X0000377572Y0000332677D01*
X0000368103Y0000336609D01*
X0000356357Y0000336619D01*
X0000345500Y0000332133D01*
X0000337186Y0000323834D01*
X0000332682Y0000312985D01*
X0000332671Y0000301238D01*
X0000337157Y0000290382D01*
X0000345456Y0000282068D01*
X0000348425Y0000280836D01*
X0000348425Y0000258366D01*
X0000352854Y0000253937D01*
X0000379921Y0000253937D01*
X0000379921Y0000254724D01*
X0000391732Y0000254724D01*
X0000391732Y0000253937D01*
X0000418799Y0000253937D01*
X0000423228Y0000258366D01*
X0000423228Y0000281496D01*
X0000572077Y0000281496D01*
X0000588919Y0000264653D01*
X0000587798Y0000263932D01*
X0000586643Y0000262241D01*
X0000585782Y0000263579D01*
X0000579862Y0000267624D01*
X0000572834Y0000269047D01*
X0000525590Y0000269047D01*
X0000519025Y0000267812D01*
X0000512995Y0000263932D01*
X0000512890Y0000263779D01*
X0000505905Y0000263779D01*
X0000495359Y0000261681D01*
X0000490397Y0000258366D01*
X0000486418Y0000255707D01*
X0000447246Y0000216535D01*
X0000423228Y0000216535D01*
X0000423228Y0000237696D01*
X0000418799Y0000242125D01*
X0000391732Y0000242125D01*
X0000391732Y0000241338D01*
X0000379921Y0000241338D01*
X0000379921Y0000242125D01*
X0000352854Y0000242125D01*
X0000348425Y0000237696D01*
X0000348425Y0000216535D01*
X0000305465Y0000216535D01*
X0000305465Y0000279527D01*
X0000304229Y0000286092D01*
X0000300349Y0000292122D01*
X0000295275Y0000295589D01*
X0000295275Y0000342915D01*
X0000310627Y0000358267D01*
X0000446065Y0000358267D01*
X0000450793Y0000356304D01*
X0000462540Y0000356294D01*
X0000473397Y0000360779D01*
X0000481710Y0000369078D01*
X0000486215Y0000379927D01*
X0000486225Y0000391674D01*
X0000481739Y0000402530D01*
X0000473440Y0000410844D01*
X0000462592Y0000415349D01*
X0000450845Y0000415359D01*
X0000446068Y0000413385D01*
X0000299212Y0000413385D01*
X0000288666Y0000411287D01*
X0000279725Y0000405313D01*
X0000248229Y0000373817D01*
X0000242255Y0000364877D01*
X0000242255Y0000364877D01*
X0000240157Y0000354330D01*
X0000240157Y0000295513D01*
X0000235436Y0000292475D01*
X0000231390Y0000286555D01*
X0000229967Y0000279527D01*
X0000229967Y0000216535D01*
X0000231203Y0000209970D01*
X0000235083Y0000203940D01*
X0000240157Y0000200473D01*
X0000240157Y0000171623D01*
X0000226430Y0000171623D01*
X0000219865Y0000170388D01*
X0000213835Y0000166508D01*
X0000209790Y0000160587D01*
X0000208367Y0000153560D01*
X0000208367Y0000153441D01*
X0000204526Y0000157282D01*
X0000195585Y0000163256D01*
X0000185039Y0000165354D01*
X0000169638Y0000165354D01*
X0000169638Y0000171259D01*
X0000168403Y0000177825D01*
X0000164522Y0000183855D01*
X0000158602Y0000187900D01*
X0000151574Y0000189323D01*
X0000132733Y0000189323D01*
X0000138699Y0000190510D01*
X0000155303Y0000201604D01*
X0000166398Y0000218209D01*
X0000170294Y0000237795D01*
X0000166398Y0000257381D01*
X0000155303Y0000273985D01*
X0000138699Y0000285080D01*
X0000125050Y0000287795D01*
X0000138699Y0000290510D01*
X0000155303Y0000301604D01*
X0000166398Y0000318209D01*
X0000170294Y0000337795D01*
X0000166398Y0000357381D01*
X0000155303Y0000373985D01*
X0000138699Y0000385080D01*
X0000125050Y0000387795D01*
X0000138699Y0000390510D01*
X0000155303Y0000401604D01*
X0000166398Y0000418209D01*
X0000170294Y0000437795D01*
X0000166398Y0000457381D01*
X0000155303Y0000473985D01*
X0000138699Y0000485080D01*
X0000124015Y0000488001D01*
X0000124015Y0000491384D01*
X0000131896Y0000488505D01*
X0000149709Y0000497532D01*
X0000162711Y0000512690D01*
X0000167399Y0000524009D01*
X0000164487Y0000531889D01*
X0000124015Y0000531889D01*
X0000124015Y0000531102D01*
X0000112204Y0000531102D01*
X0000112204Y0000531889D01*
X0000071732Y0000531889D01*
X0000068820Y0000524009D01*
X0000073508Y0000512690D01*
X0000086511Y0000497532D01*
X0000104324Y0000488505D01*
X0000112204Y0000491384D01*
X0000112204Y0000488001D01*
X0000097521Y0000485080D01*
X0000080917Y0000473985D01*
X0000069822Y0000457381D01*
X0000065926Y0000437795D01*
X0000020669Y0000437795D01*
X0000020669Y0000551581D01*
X0000068820Y0000551581D01*
X0000071732Y0000543700D01*
X0000112204Y0000543700D01*
X0000112204Y0000584205D01*
X0000124015Y0000584205D01*
X0000124015Y0000543700D01*
X0000164487Y0000543700D01*
X0000167399Y0000551581D01*
X0000162711Y0000562900D01*
X0000149709Y0000578057D01*
X0000131896Y0000587085D01*
X0000124015Y0000584205D01*
X0000112204Y0000584205D01*
X0000104324Y0000587085D01*
X0000086511Y0000578057D01*
X0000073508Y0000562900D01*
X0000068820Y0000551581D01*
X0000020669Y0000551581D01*
X0000020669Y0000803149D01*
X0000251968Y0000803149D01*
X0000251968Y0000500000D01*
X0000253766Y0000490960D01*
X0000258887Y0000483296D01*
X0000285429Y0000456754D01*
X0000285427Y0000454782D01*
X0000289913Y0000443925D01*
X0000298212Y0000435612D01*
X0000309061Y0000431107D01*
X0000320808Y0000431097D01*
X0000331664Y0000435583D01*
X0000333092Y0000437007D01*
X0000407055Y0000437007D01*
X0000408449Y0000435612D01*
X0000419297Y0000431107D01*
X0000431044Y0000431097D01*
X0000441901Y0000435583D01*
X0000443328Y0000437007D01*
X0000611780Y0000437007D01*
X0000613173Y0000435612D01*
X0000624022Y0000431107D01*
X0000635768Y0000431097D01*
X0000646625Y0000435583D01*
X0000654938Y0000443882D01*
X0000659443Y0000454730D01*
X0000659453Y0000466477D01*
X0000654968Y0000477334D01*
X0000646669Y0000485647D01*
X0000635820Y0000490152D01*
X0000624073Y0000490162D01*
X0000613217Y0000485676D01*
X0000611789Y0000484251D01*
X0000443337Y0000484251D01*
X0000441944Y0000485647D01*
X0000431095Y0000490152D01*
X0000419349Y0000490162D01*
X0000408492Y0000485676D01*
X0000407065Y0000484251D01*
X0000333101Y0000484251D01*
X0000331708Y0000485647D01*
X0000320859Y0000490152D01*
X0000318843Y0000490154D01*
X0000299212Y0000509784D01*
X0000299212Y0000793365D01*
X0000325460Y0000819612D01*
X0000331901Y0000816938D01*
X0000353045Y0000816919D01*
X0000372587Y0000824994D01*
X0000387551Y0000839932D01*
X0000395660Y0000859460D01*
X0000395660Y0000859552D01*
X0000486211Y0000859552D01*
X0000494285Y0000840011D01*
X0000509223Y0000825046D01*
X0000528751Y0000816938D01*
X0000549895Y0000816919D01*
X0000569437Y0000824994D01*
X0000584401Y0000839932D01*
X0000592510Y0000859460D01*
X0000592528Y0000880604D01*
X0000584454Y0000900146D01*
X0000569516Y0000915110D01*
X0000549988Y0000923219D01*
X0000528844Y0000923237D01*
X0000509302Y0000915163D01*
X0000494338Y0000900224D01*
X0000486229Y0000880697D01*
X0000486211Y0000859552D01*
X0000395660Y0000859552D01*
X0000395678Y0000880604D01*
X0000387604Y0000900146D01*
X0000372665Y0000915110D01*
X0000353138Y0000923219D01*
X0000331993Y0000923237D01*
X0000312452Y0000915163D01*
X0000297487Y0000900224D01*
X0000289379Y0000880697D01*
X0000289360Y0000859552D01*
X0000292058Y0000853024D01*
X0000258887Y0000819852D01*
X0000253766Y0000812189D01*
X0000251968Y0000803149D01*
X0000020669Y0000803149D01*
X0000020669Y0000859552D01*
X0000092510Y0000859552D01*
X0000100584Y0000840011D01*
X0000115523Y0000825046D01*
X0000135050Y0000816938D01*
X0000156195Y0000816919D01*
X0000175736Y0000824994D01*
X0000190701Y0000839932D01*
X0000198809Y0000859460D01*
X0000198828Y0000880604D01*
X0000196130Y0000887133D01*
X0000234194Y0000925196D01*
X0000616199Y0000925196D01*
X0000669291Y0000872105D01*
X0000669291Y0000321290D01*
X0000667895Y0000319897D01*
X0000663390Y0000309048D01*
X0000663380Y0000297301D01*
X0000667866Y0000286445D01*
X0000676165Y0000278131D01*
X0000687014Y0000273627D01*
X0000698760Y0000273616D01*
X0000709617Y0000278102D01*
X0000717930Y0000286401D01*
X0000722435Y0000297250D01*
X0000722446Y0000308997D01*
X0000717960Y0000319853D01*
X0000716535Y0000321281D01*
X0000716535Y0000881889D01*
X0000714737Y0000890929D01*
X0000709616Y0000898593D01*
X0000708603Y0000899606D01*
X0000735873Y0000899606D01*
X0000735873Y0000832677D01*
X0000737108Y0000826111D01*
X0000740988Y0000820081D01*
X0000746909Y0000816036D01*
X0000753937Y0000814613D01*
X0000768740Y0000814613D01*
X0000767815Y0000814429D01*
X0000751211Y0000803334D01*
X0000740116Y0000786730D01*
X0000736220Y0000767144D01*
X0000736220Y0000765139D01*
X0000740116Y0000745552D01*
X0000751211Y0000728948D01*
X0000767815Y0000717853D01*
X0000787401Y0000713957D01*
X0000806987Y0000717853D01*
X0000823592Y0000728948D01*
X0000834686Y0000745552D01*
X0000838582Y0000765139D01*
X0000838582Y0000767144D01*
X0000834686Y0000786730D01*
X0000823592Y0000803334D01*
X0000806987Y0000814429D01*
X0000806062Y0000814613D01*
X0000820866Y0000814613D01*
X0000827431Y0000815848D01*
X0000833461Y0000819729D01*
X0000837506Y0000825649D01*
X0000838929Y0000832677D01*
X0000838929Y0000899606D01*
X0000837694Y0000906171D01*
X0000833814Y0000912201D01*
X0000827893Y0000916246D01*
X0000820866Y0000917669D01*
X0000753937Y0000917669D01*
X0000747371Y0000916434D01*
X0000741341Y0000912554D01*
X0000737296Y0000906634D01*
X0000735873Y0000899606D01*
X0000708603Y0000899606D01*
X0000642687Y0000965522D01*
X0000635024Y0000970642D01*
X0000625984Y0000972440D01*
X0000224409Y0000972440D01*
X0000215369Y0000970642D01*
X0000207706Y0000965522D01*
X0000162728Y0000920544D01*
X0000156287Y0000923219D01*
X0000135143Y0000923237D01*
X0000115601Y0000915163D01*
X0000100637Y0000900224D01*
X0000092528Y0000880697D01*
X0000092510Y0000859552D01*
X0000020669Y0000859552D01*
X0000020669Y0001002952D01*
X0000884842Y0001002952D01*
X0000884842Y0000020669D01*
G04 next file*
G04 #@! TF.FileFunction,Copper,L2,Bot,Signal*
G04 Gerber Fmt 4.6, Leading zero omitted, Abs format (unit mm)*
G04 Created by KiCad (PCBNEW 4.0.4-1.fc24-product) date Tue Jun 12 10:10:46 2018*
G01G01*
G04 APERTURE LIST*
G04 APERTURE END LIST*
D41*
D42*
X-0002204724Y-0005078740D02*
X0001212598Y0000748031D03*
X0001133858Y0000748031D03*
D43*
X0001330708Y0000751968D03*
X0001330708Y0000665354D03*
D44*
X0001216535Y0000669291D03*
X0001129921Y0000669291D03*
D45*
X0001574803Y0000929133D03*
D46*
X0001574803Y0000829133D03*
X0001674803Y0000929133D03*
X0001674803Y0000829133D03*
D47*
X0001102362Y0000403543D03*
X0001102362Y0000255905D03*
X0001102362Y0000108267D03*
X0001299212Y0000403543D03*
X0001299212Y0000255905D03*
X0001299212Y0000108267D03*
X0001496062Y0000108267D03*
X0001496062Y0000255905D03*
X0001496062Y0000403543D03*
D48*
X0001393700Y0000720472D03*
X0001740157Y0000484251D03*
X0001606917Y0000284082D03*
X0001653543Y0000484251D03*
X0001421259Y0000551181D03*
X0001066929Y0000964566D03*
X0001291338Y0000751968D03*
D49*
X0001330708Y0000665354D02*
X0001362204Y0000665354D01*
X0001362204Y0000665354D02*
X0001393700Y0000696850D01*
X0001393700Y0000696850D02*
X0001393700Y0000720472D01*
X0001330708Y0000665354D02*
X0001220472Y0000665354D01*
X0001220472Y0000665354D02*
X0001216535Y0000669291D01*
X0001216535Y0000669291D02*
X0001216535Y0000744094D01*
X0001216535Y0000744094D02*
X0001212598Y0000748031D01*
X0001496062Y0000108267D02*
X0001740157Y0000352362D01*
X0001740157Y0000352362D02*
X0001740157Y0000467548D01*
X0001740157Y0000467548D02*
X0001740157Y0000484251D01*
X0001356491Y0000313184D02*
X0001577814Y0000313184D01*
X0001299212Y0000255905D02*
X0001356491Y0000313184D01*
X0001595106Y0000295893D02*
X0001606917Y0000284082D01*
X0001577814Y0000313184D02*
X0001595106Y0000295893D01*
X0001379921Y0000484251D02*
X0001636840Y0000484251D01*
X0001299212Y0000403543D02*
X0001379921Y0000484251D01*
X0001636840Y0000484251D02*
X0001653543Y0000484251D01*
X0001102362Y0000403543D02*
X0001152472Y0000403543D01*
X0001152472Y0000403543D02*
X0001299212Y0000403543D01*
X0001611811Y0000992125D02*
X0001531496Y0000992125D01*
X0001531496Y0000992125D02*
X0001330708Y0000791338D01*
X0001330708Y0000791338D02*
X0001330708Y0000751968D01*
X0001674803Y0000929133D02*
X0001611811Y0000992125D01*
X0001330708Y0000751968D02*
X0001291338Y0000751968D01*
D50*
G36*
X0001506132Y0001002952D02*
X0001312613Y0000809433D01*
X0001307066Y0000801131D01*
X0001306742Y0000799506D01*
X0001305172Y0000791611D01*
X0001300396Y0000788538D01*
X0001296351Y0000782618D01*
X0001296123Y0000781491D01*
X0001285490Y0000781501D01*
X0001274634Y0000777015D01*
X0001266320Y0000768716D01*
X0001261816Y0000757867D01*
X0001261805Y0000746120D01*
X0001266291Y0000735264D01*
X0001274590Y0000726950D01*
X0001285439Y0000722446D01*
X0001296040Y0000722436D01*
X0001296163Y0000721781D01*
X0001300043Y0000715751D01*
X0001305964Y0000711705D01*
X0001312992Y0000710282D01*
X0001348425Y0000710282D01*
X0001354990Y0000711518D01*
X0001361020Y0000715398D01*
X0001364172Y0000720011D01*
X0001364168Y0000714624D01*
X0001367418Y0000706758D01*
X0001361709Y0000701049D01*
X0001361373Y0000701571D01*
X0001355452Y0000705616D01*
X0001348425Y0000707040D01*
X0001312992Y0000707040D01*
X0001306426Y0000705804D01*
X0001300396Y0000701924D01*
X0001296351Y0000696004D01*
X0001295327Y0000690944D01*
X0001257480Y0000690944D01*
X0001256985Y0000693573D01*
X0001253105Y0000699603D01*
X0001247185Y0000703648D01*
X0001242125Y0000704672D01*
X0001242125Y0000708705D01*
X0001244878Y0000710477D01*
X0001248923Y0000716397D01*
X0001250347Y0000723425D01*
X0001250347Y0000772637D01*
X0001249111Y0000779203D01*
X0001245231Y0000785233D01*
X0001239311Y0000789278D01*
X0001232283Y0000790701D01*
X0001192913Y0000790701D01*
X0001186348Y0000789466D01*
X0001180318Y0000785585D01*
X0001176272Y0000779665D01*
X0001174849Y0000772637D01*
X0001174849Y0000723425D01*
X0001176085Y0000716859D01*
X0001179965Y0000710829D01*
X0001185885Y0000706784D01*
X0001190944Y0000705760D01*
X0001190944Y0000704701D01*
X0001186348Y0000703836D01*
X0001180318Y0000699956D01*
X0001176272Y0000694035D01*
X0001174849Y0000687007D01*
X0001174849Y0000651574D01*
X0001176085Y0000645009D01*
X0001179965Y0000638979D01*
X0001185885Y0000634934D01*
X0001192913Y0000633511D01*
X0001240157Y0000633511D01*
X0001246722Y0000634746D01*
X0001252752Y0000638626D01*
X0001253529Y0000639763D01*
X0001295298Y0000639763D01*
X0001296163Y0000635166D01*
X0001300043Y0000629137D01*
X0001305964Y0000625091D01*
X0001312992Y0000623668D01*
X0001348425Y0000623668D01*
X0001354990Y0000624903D01*
X0001361020Y0000628784D01*
X0001365065Y0000634704D01*
X0001366253Y0000640569D01*
X0001366284Y0000640575D01*
X0001371997Y0000641711D01*
X0001380299Y0000647259D01*
X0001411796Y0000678755D01*
X0001417343Y0000687057D01*
X0001419291Y0000696850D01*
X0001419291Y0000705103D01*
X0001423223Y0000714572D01*
X0001423233Y0000726319D01*
X0001418747Y0000737176D01*
X0001410448Y0000745489D01*
X0001399599Y0000749994D01*
X0001387853Y0000750004D01*
X0001376996Y0000745518D01*
X0001368683Y0000737219D01*
X0001366488Y0000731935D01*
X0001366488Y0000775590D01*
X0001365253Y0000782155D01*
X0001362302Y0000786741D01*
X0001523274Y0000947714D01*
X0001523274Y0000895669D01*
X0001524510Y0000889103D01*
X0001528390Y0000883074D01*
X0001534310Y0000879028D01*
X0001541338Y0000877605D01*
X0001556141Y0000877605D01*
X0001555217Y0000877421D01*
X0001538612Y0000866327D01*
X0001527517Y0000849722D01*
X0001523622Y0000830136D01*
X0001523622Y0000828131D01*
X0001527517Y0000808545D01*
X0001538612Y0000791940D01*
X0001555217Y0000780845D01*
X0001574803Y0000776950D01*
X0001594389Y0000780845D01*
X0001610993Y0000791940D01*
X0001622088Y0000808545D01*
X0001625009Y0000823228D01*
X0001628392Y0000823228D01*
X0001625513Y0000815347D01*
X0001634540Y0000797534D01*
X0001649697Y0000784532D01*
X0001661017Y0000779844D01*
X0001668897Y0000782756D01*
X0001668897Y0000823228D01*
X0001668110Y0000823228D01*
X0001668110Y0000835039D01*
X0001668897Y0000835039D01*
X0001668897Y0000835826D01*
X0001680708Y0000835826D01*
X0001680708Y0000835039D01*
X0001721213Y0000835039D01*
X0001724093Y0000842919D01*
X0001715065Y0000860732D01*
X0001699908Y0000873735D01*
X0001688588Y0000878423D01*
X0001680708Y0000875511D01*
X0001680708Y0000878124D01*
X0001694389Y0000880845D01*
X0001710993Y0000891940D01*
X0001722088Y0000908545D01*
X0001725984Y0000928131D01*
X0001725984Y0000930136D01*
X0001722088Y0000949722D01*
X0001710993Y0000966327D01*
X0001694389Y0000977421D01*
X0001674803Y0000981317D01*
X0001661463Y0000978664D01*
X0001637174Y0001002952D01*
X0001750984Y0001002952D01*
X0001750984Y0000511728D01*
X0001746056Y0000513774D01*
X0001734309Y0000513784D01*
X0001723453Y0000509298D01*
X0001715139Y0000500999D01*
X0001710635Y0000490151D01*
X0001710624Y0000478404D01*
X0001714566Y0000468863D01*
X0001714566Y0000362962D01*
X0001688588Y0000336984D01*
X0001688588Y0000779844D01*
X0001699908Y0000784532D01*
X0001715065Y0000797534D01*
X0001724093Y0000815347D01*
X0001721213Y0000823228D01*
X0001680708Y0000823228D01*
X0001680708Y0000782756D01*
X0001688588Y0000779844D01*
X0001688588Y0000336984D01*
X0001636445Y0000284840D01*
X0001636449Y0000289930D01*
X0001631963Y0000300786D01*
X0001623664Y0000309100D01*
X0001614131Y0000313058D01*
X0001613201Y0000313988D01*
X0001613201Y0000313988D01*
X0001595910Y0000331279D01*
X0001587607Y0000336827D01*
X0001577814Y0000338775D01*
X0001506588Y0000338775D01*
X0001506588Y0000350384D01*
X0001526130Y0000358458D01*
X0001541094Y0000373397D01*
X0001549203Y0000392924D01*
X0001549221Y0000414069D01*
X0001541147Y0000433610D01*
X0001526209Y0000448575D01*
X0001506681Y0000456683D01*
X0001485537Y0000456702D01*
X0001465995Y0000448627D01*
X0001451031Y0000433689D01*
X0001442922Y0000414161D01*
X0001442904Y0000393017D01*
X0001450978Y0000373475D01*
X0001465916Y0000358511D01*
X0001485444Y0000350402D01*
X0001506588Y0000350384D01*
X0001506588Y0000338775D01*
X0001356491Y0000338775D01*
X0001346698Y0000336827D01*
X0001346698Y0000336827D01*
X0001338396Y0000331279D01*
X0001314304Y0000307188D01*
X0001309831Y0000309045D01*
X0001288686Y0000309064D01*
X0001269145Y0000300989D01*
X0001254180Y0000286051D01*
X0001246072Y0000266524D01*
X0001246053Y0000245379D01*
X0001254128Y0000225837D01*
X0001269066Y0000210873D01*
X0001288594Y0000202765D01*
X0001309738Y0000202746D01*
X0001329280Y0000210821D01*
X0001344244Y0000225759D01*
X0001352352Y0000245286D01*
X0001352371Y0000266431D01*
X0001350487Y0000270990D01*
X0001367091Y0000287593D01*
X0001452576Y0000287593D01*
X0001451031Y0000286051D01*
X0001442922Y0000266524D01*
X0001442904Y0000245379D01*
X0001450978Y0000225837D01*
X0001465916Y0000210873D01*
X0001485444Y0000202765D01*
X0001506588Y0000202746D01*
X0001526130Y0000210821D01*
X0001541094Y0000225759D01*
X0001549203Y0000245286D01*
X0001549221Y0000266431D01*
X0001541147Y0000285972D01*
X0001539529Y0000287593D01*
X0001567214Y0000287593D01*
X0001577010Y0000277798D01*
X0001577010Y0000277798D01*
X0001577954Y0000276854D01*
X0001581870Y0000267378D01*
X0001590169Y0000259064D01*
X0001601017Y0000254559D01*
X0001606160Y0000254555D01*
X0001511155Y0000159550D01*
X0001506681Y0000161408D01*
X0001485537Y0000161426D01*
X0001465995Y0000153352D01*
X0001451031Y0000138413D01*
X0001442922Y0000118886D01*
X0001442904Y0000097741D01*
X0001450978Y0000078200D01*
X0001465916Y0000063235D01*
X0001485444Y0000055127D01*
X0001506588Y0000055108D01*
X0001526130Y0000063183D01*
X0001541094Y0000078121D01*
X0001549203Y0000097649D01*
X0001549221Y0000118793D01*
X0001547338Y0000123352D01*
X0001750984Y0000326998D01*
X0001750984Y0000020669D01*
X0001309738Y0000020669D01*
X0001309738Y0000055108D01*
X0001329280Y0000063183D01*
X0001344244Y0000078121D01*
X0001352352Y0000097649D01*
X0001352371Y0000118793D01*
X0001344296Y0000138335D01*
X0001329358Y0000153299D01*
X0001309831Y0000161408D01*
X0001288686Y0000161426D01*
X0001269145Y0000153352D01*
X0001254180Y0000138413D01*
X0001246072Y0000118886D01*
X0001246053Y0000097741D01*
X0001254128Y0000078200D01*
X0001269066Y0000063235D01*
X0001288594Y0000055127D01*
X0001309738Y0000055108D01*
X0001309738Y0000020669D01*
X0001112887Y0000020669D01*
X0001112887Y0000055108D01*
X0001132429Y0000063183D01*
X0001147393Y0000078121D01*
X0001155502Y0000097649D01*
X0001155521Y0000118793D01*
X0001147446Y0000138335D01*
X0001132508Y0000153299D01*
X0001112980Y0000161408D01*
X0001112887Y0000161408D01*
X0001112887Y0000202746D01*
X0001132429Y0000210821D01*
X0001147393Y0000225759D01*
X0001155502Y0000245286D01*
X0001155521Y0000266431D01*
X0001147446Y0000285972D01*
X0001132508Y0000300937D01*
X0001112980Y0000309045D01*
X0001112887Y0000309045D01*
X0001112887Y0000350384D01*
X0001132429Y0000358458D01*
X0001147393Y0000373397D01*
X0001149285Y0000377952D01*
X0001252278Y0000377952D01*
X0001254128Y0000373475D01*
X0001269066Y0000358511D01*
X0001288594Y0000350402D01*
X0001309738Y0000350384D01*
X0001329280Y0000358458D01*
X0001344244Y0000373397D01*
X0001352352Y0000392924D01*
X0001352371Y0000414069D01*
X0001350487Y0000418627D01*
X0001390521Y0000458661D01*
X0001638175Y0000458661D01*
X0001647644Y0000454729D01*
X0001659390Y0000454719D01*
X0001670247Y0000459205D01*
X0001678560Y0000467504D01*
X0001683065Y0000478352D01*
X0001683075Y0000490099D01*
X0001678590Y0000500956D01*
X0001670291Y0000509269D01*
X0001659442Y0000513774D01*
X0001647695Y0000513784D01*
X0001638155Y0000509842D01*
X0001379921Y0000509842D01*
X0001370128Y0000507894D01*
X0001368110Y0000506546D01*
X0001361826Y0000502347D01*
X0001314304Y0000454826D01*
X0001309831Y0000456683D01*
X0001288686Y0000456702D01*
X0001269145Y0000448627D01*
X0001254180Y0000433689D01*
X0001252289Y0000429133D01*
X0001149296Y0000429133D01*
X0001147446Y0000433610D01*
X0001140255Y0000440813D01*
X0001140255Y0000633858D01*
X0001157067Y0000633858D01*
X0001163578Y0000636555D01*
X0001168562Y0000641539D01*
X0001171259Y0000648050D01*
X0001171259Y0000658956D01*
X0001166830Y0000663385D01*
X0001135826Y0000663385D01*
X0001135826Y0000675196D01*
X0001166830Y0000675196D01*
X0001171259Y0000679625D01*
X0001171259Y0000690531D01*
X0001168562Y0000697043D01*
X0001163578Y0000702027D01*
X0001157067Y0000704724D01*
X0001144192Y0000704724D01*
X0001144192Y0000705708D01*
X0001157067Y0000705708D01*
X0001163578Y0000708405D01*
X0001168562Y0000713389D01*
X0001171259Y0000719901D01*
X0001171259Y0000737696D01*
X0001166830Y0000742125D01*
X0001139763Y0000742125D01*
X0001139763Y0000753937D01*
X0001166830Y0000753937D01*
X0001171259Y0000758366D01*
X0001171259Y0000776161D01*
X0001168562Y0000782673D01*
X0001163578Y0000787657D01*
X0001157067Y0000790354D01*
X0001144192Y0000790354D01*
X0001139763Y0000785925D01*
X0001139763Y0000753937D01*
X0001139763Y0000742125D01*
X0001139763Y0000710137D01*
X0001144192Y0000705708D01*
X0001144192Y0000704724D01*
X0001140255Y0000704724D01*
X0001135826Y0000700295D01*
X0001135826Y0000675196D01*
X0001135826Y0000663385D01*
X0001135826Y0000638287D01*
X0001140255Y0000633858D01*
X0001140255Y0000440813D01*
X0001132508Y0000448575D01*
X0001112980Y0000456683D01*
X0001102775Y0000456692D01*
X0001102775Y0000633858D01*
X0001119586Y0000633858D01*
X0001124015Y0000638287D01*
X0001124015Y0000663385D01*
X0001093011Y0000663385D01*
X0001093011Y0000675196D01*
X0001124015Y0000675196D01*
X0001124015Y0000700295D01*
X0001119586Y0000704724D01*
X0001110649Y0000704724D01*
X0001110649Y0000705708D01*
X0001123523Y0000705708D01*
X0001127952Y0000710137D01*
X0001127952Y0000742125D01*
X0001100885Y0000742125D01*
X0001100885Y0000753937D01*
X0001127952Y0000753937D01*
X0001127952Y0000785925D01*
X0001123523Y0000790354D01*
X0001110649Y0000790354D01*
X0001104137Y0000787657D01*
X0001099153Y0000782673D01*
X0001096456Y0000776161D01*
X0001096456Y0000758366D01*
X0001100885Y0000753937D01*
X0001100885Y0000742125D01*
X0001096456Y0000737696D01*
X0001096456Y0000719901D01*
X0001099153Y0000713389D01*
X0001104137Y0000708405D01*
X0001110649Y0000705708D01*
X0001110649Y0000704724D01*
X0001102775Y0000704724D01*
X0001096263Y0000702027D01*
X0001091279Y0000697043D01*
X0001088582Y0000690531D01*
X0001088582Y0000679625D01*
X0001093011Y0000675196D01*
X0001093011Y0000663385D01*
X0001088582Y0000658956D01*
X0001088582Y0000648050D01*
X0001091279Y0000641539D01*
X0001096263Y0000636555D01*
X0001102775Y0000633858D01*
X0001102775Y0000456692D01*
X0001091836Y0000456702D01*
X0001072294Y0000448627D01*
X0001057330Y0000433689D01*
X0001049221Y0000414161D01*
X0001049203Y0000393017D01*
X0001057277Y0000373475D01*
X0001072216Y0000358511D01*
X0001091743Y0000350402D01*
X0001112887Y0000350384D01*
X0001112887Y0000309045D01*
X0001091836Y0000309064D01*
X0001072294Y0000300989D01*
X0001057330Y0000286051D01*
X0001049221Y0000266524D01*
X0001049203Y0000245379D01*
X0001057277Y0000225837D01*
X0001072216Y0000210873D01*
X0001091743Y0000202765D01*
X0001112887Y0000202746D01*
X0001112887Y0000161408D01*
X0001091836Y0000161426D01*
X0001072294Y0000153352D01*
X0001057330Y0000138413D01*
X0001049221Y0000118886D01*
X0001049203Y0000097741D01*
X0001057277Y0000078200D01*
X0001072216Y0000063235D01*
X0001091743Y0000055127D01*
X0001112887Y0000055108D01*
X0001112887Y0000020669D01*
X0001004921Y0000020669D01*
X0001004921Y0001002952D01*
X0001506132Y0001002952D01*
X0001506132Y0001002952D01*
G37*
X0001506132Y0001002952D02*
X0001312613Y0000809433D01*
X0001307066Y0000801131D01*
X0001306742Y0000799506D01*
X0001305172Y0000791611D01*
X0001300396Y0000788538D01*
X0001296351Y0000782618D01*
X0001296123Y0000781491D01*
X0001285490Y0000781501D01*
X0001274634Y0000777015D01*
X0001266320Y0000768716D01*
X0001261816Y0000757867D01*
X0001261805Y0000746120D01*
X0001266291Y0000735264D01*
X0001274590Y0000726950D01*
X0001285439Y0000722446D01*
X0001296040Y0000722436D01*
X0001296163Y0000721781D01*
X0001300043Y0000715751D01*
X0001305964Y0000711705D01*
X0001312992Y0000710282D01*
X0001348425Y0000710282D01*
X0001354990Y0000711518D01*
X0001361020Y0000715398D01*
X0001364172Y0000720011D01*
X0001364168Y0000714624D01*
X0001367418Y0000706758D01*
X0001361709Y0000701049D01*
X0001361373Y0000701571D01*
X0001355452Y0000705616D01*
X0001348425Y0000707040D01*
X0001312992Y0000707040D01*
X0001306426Y0000705804D01*
X0001300396Y0000701924D01*
X0001296351Y0000696004D01*
X0001295327Y0000690944D01*
X0001257480Y0000690944D01*
X0001256985Y0000693573D01*
X0001253105Y0000699603D01*
X0001247185Y0000703648D01*
X0001242125Y0000704672D01*
X0001242125Y0000708705D01*
X0001244878Y0000710477D01*
X0001248923Y0000716397D01*
X0001250347Y0000723425D01*
X0001250347Y0000772637D01*
X0001249111Y0000779203D01*
X0001245231Y0000785233D01*
X0001239311Y0000789278D01*
X0001232283Y0000790701D01*
X0001192913Y0000790701D01*
X0001186348Y0000789466D01*
X0001180318Y0000785585D01*
X0001176272Y0000779665D01*
X0001174849Y0000772637D01*
X0001174849Y0000723425D01*
X0001176085Y0000716859D01*
X0001179965Y0000710829D01*
X0001185885Y0000706784D01*
X0001190944Y0000705760D01*
X0001190944Y0000704701D01*
X0001186348Y0000703836D01*
X0001180318Y0000699956D01*
X0001176272Y0000694035D01*
X0001174849Y0000687007D01*
X0001174849Y0000651574D01*
X0001176085Y0000645009D01*
X0001179965Y0000638979D01*
X0001185885Y0000634934D01*
X0001192913Y0000633511D01*
X0001240157Y0000633511D01*
X0001246722Y0000634746D01*
X0001252752Y0000638626D01*
X0001253529Y0000639763D01*
X0001295298Y0000639763D01*
X0001296163Y0000635166D01*
X0001300043Y0000629137D01*
X0001305964Y0000625091D01*
X0001312992Y0000623668D01*
X0001348425Y0000623668D01*
X0001354990Y0000624903D01*
X0001361020Y0000628784D01*
X0001365065Y0000634704D01*
X0001366253Y0000640569D01*
X0001366284Y0000640575D01*
X0001371997Y0000641711D01*
X0001380299Y0000647259D01*
X0001411796Y0000678755D01*
X0001417343Y0000687057D01*
X0001419291Y0000696850D01*
X0001419291Y0000705103D01*
X0001423223Y0000714572D01*
X0001423233Y0000726319D01*
X0001418747Y0000737176D01*
X0001410448Y0000745489D01*
X0001399599Y0000749994D01*
X0001387853Y0000750004D01*
X0001376996Y0000745518D01*
X0001368683Y0000737219D01*
X0001366488Y0000731935D01*
X0001366488Y0000775590D01*
X0001365253Y0000782155D01*
X0001362302Y0000786741D01*
X0001523274Y0000947714D01*
X0001523274Y0000895669D01*
X0001524510Y0000889103D01*
X0001528390Y0000883074D01*
X0001534310Y0000879028D01*
X0001541338Y0000877605D01*
X0001556141Y0000877605D01*
X0001555217Y0000877421D01*
X0001538612Y0000866327D01*
X0001527517Y0000849722D01*
X0001523622Y0000830136D01*
X0001523622Y0000828131D01*
X0001527517Y0000808545D01*
X0001538612Y0000791940D01*
X0001555217Y0000780845D01*
X0001574803Y0000776950D01*
X0001594389Y0000780845D01*
X0001610993Y0000791940D01*
X0001622088Y0000808545D01*
X0001625009Y0000823228D01*
X0001628392Y0000823228D01*
X0001625513Y0000815347D01*
X0001634540Y0000797534D01*
X0001649697Y0000784532D01*
X0001661017Y0000779844D01*
X0001668897Y0000782756D01*
X0001668897Y0000823228D01*
X0001668110Y0000823228D01*
X0001668110Y0000835039D01*
X0001668897Y0000835039D01*
X0001668897Y0000835826D01*
X0001680708Y0000835826D01*
X0001680708Y0000835039D01*
X0001721213Y0000835039D01*
X0001724093Y0000842919D01*
X0001715065Y0000860732D01*
X0001699908Y0000873735D01*
X0001688588Y0000878423D01*
X0001680708Y0000875511D01*
X0001680708Y0000878124D01*
X0001694389Y0000880845D01*
X0001710993Y0000891940D01*
X0001722088Y0000908545D01*
X0001725984Y0000928131D01*
X0001725984Y0000930136D01*
X0001722088Y0000949722D01*
X0001710993Y0000966327D01*
X0001694389Y0000977421D01*
X0001674803Y0000981317D01*
X0001661463Y0000978664D01*
X0001637174Y0001002952D01*
X0001750984Y0001002952D01*
X0001750984Y0000511728D01*
X0001746056Y0000513774D01*
X0001734309Y0000513784D01*
X0001723453Y0000509298D01*
X0001715139Y0000500999D01*
X0001710635Y0000490151D01*
X0001710624Y0000478404D01*
X0001714566Y0000468863D01*
X0001714566Y0000362962D01*
X0001688588Y0000336984D01*
X0001688588Y0000779844D01*
X0001699908Y0000784532D01*
X0001715065Y0000797534D01*
X0001724093Y0000815347D01*
X0001721213Y0000823228D01*
X0001680708Y0000823228D01*
X0001680708Y0000782756D01*
X0001688588Y0000779844D01*
X0001688588Y0000336984D01*
X0001636445Y0000284840D01*
X0001636449Y0000289930D01*
X0001631963Y0000300786D01*
X0001623664Y0000309100D01*
X0001614131Y0000313058D01*
X0001613201Y0000313988D01*
X0001613201Y0000313988D01*
X0001595910Y0000331279D01*
X0001587607Y0000336827D01*
X0001577814Y0000338775D01*
X0001506588Y0000338775D01*
X0001506588Y0000350384D01*
X0001526130Y0000358458D01*
X0001541094Y0000373397D01*
X0001549203Y0000392924D01*
X0001549221Y0000414069D01*
X0001541147Y0000433610D01*
X0001526209Y0000448575D01*
X0001506681Y0000456683D01*
X0001485537Y0000456702D01*
X0001465995Y0000448627D01*
X0001451031Y0000433689D01*
X0001442922Y0000414161D01*
X0001442904Y0000393017D01*
X0001450978Y0000373475D01*
X0001465916Y0000358511D01*
X0001485444Y0000350402D01*
X0001506588Y0000350384D01*
X0001506588Y0000338775D01*
X0001356491Y0000338775D01*
X0001346698Y0000336827D01*
X0001346698Y0000336827D01*
X0001338396Y0000331279D01*
X0001314304Y0000307188D01*
X0001309831Y0000309045D01*
X0001288686Y0000309064D01*
X0001269145Y0000300989D01*
X0001254180Y0000286051D01*
X0001246072Y0000266524D01*
X0001246053Y0000245379D01*
X0001254128Y0000225837D01*
X0001269066Y0000210873D01*
X0001288594Y0000202765D01*
X0001309738Y0000202746D01*
X0001329280Y0000210821D01*
X0001344244Y0000225759D01*
X0001352352Y0000245286D01*
X0001352371Y0000266431D01*
X0001350487Y0000270990D01*
X0001367091Y0000287593D01*
X0001452576Y0000287593D01*
X0001451031Y0000286051D01*
X0001442922Y0000266524D01*
X0001442904Y0000245379D01*
X0001450978Y0000225837D01*
X0001465916Y0000210873D01*
X0001485444Y0000202765D01*
X0001506588Y0000202746D01*
X0001526130Y0000210821D01*
X0001541094Y0000225759D01*
X0001549203Y0000245286D01*
X0001549221Y0000266431D01*
X0001541147Y0000285972D01*
X0001539529Y0000287593D01*
X0001567214Y0000287593D01*
X0001577010Y0000277798D01*
X0001577010Y0000277798D01*
X0001577954Y0000276854D01*
X0001581870Y0000267378D01*
X0001590169Y0000259064D01*
X0001601017Y0000254559D01*
X0001606160Y0000254555D01*
X0001511155Y0000159550D01*
X0001506681Y0000161408D01*
X0001485537Y0000161426D01*
X0001465995Y0000153352D01*
X0001451031Y0000138413D01*
X0001442922Y0000118886D01*
X0001442904Y0000097741D01*
X0001450978Y0000078200D01*
X0001465916Y0000063235D01*
X0001485444Y0000055127D01*
X0001506588Y0000055108D01*
X0001526130Y0000063183D01*
X0001541094Y0000078121D01*
X0001549203Y0000097649D01*
X0001549221Y0000118793D01*
X0001547338Y0000123352D01*
X0001750984Y0000326998D01*
X0001750984Y0000020669D01*
X0001309738Y0000020669D01*
X0001309738Y0000055108D01*
X0001329280Y0000063183D01*
X0001344244Y0000078121D01*
X0001352352Y0000097649D01*
X0001352371Y0000118793D01*
X0001344296Y0000138335D01*
X0001329358Y0000153299D01*
X0001309831Y0000161408D01*
X0001288686Y0000161426D01*
X0001269145Y0000153352D01*
X0001254180Y0000138413D01*
X0001246072Y0000118886D01*
X0001246053Y0000097741D01*
X0001254128Y0000078200D01*
X0001269066Y0000063235D01*
X0001288594Y0000055127D01*
X0001309738Y0000055108D01*
X0001309738Y0000020669D01*
X0001112887Y0000020669D01*
X0001112887Y0000055108D01*
X0001132429Y0000063183D01*
X0001147393Y0000078121D01*
X0001155502Y0000097649D01*
X0001155521Y0000118793D01*
X0001147446Y0000138335D01*
X0001132508Y0000153299D01*
X0001112980Y0000161408D01*
X0001112887Y0000161408D01*
X0001112887Y0000202746D01*
X0001132429Y0000210821D01*
X0001147393Y0000225759D01*
X0001155502Y0000245286D01*
X0001155521Y0000266431D01*
X0001147446Y0000285972D01*
X0001132508Y0000300937D01*
X0001112980Y0000309045D01*
X0001112887Y0000309045D01*
X0001112887Y0000350384D01*
X0001132429Y0000358458D01*
X0001147393Y0000373397D01*
X0001149285Y0000377952D01*
X0001252278Y0000377952D01*
X0001254128Y0000373475D01*
X0001269066Y0000358511D01*
X0001288594Y0000350402D01*
X0001309738Y0000350384D01*
X0001329280Y0000358458D01*
X0001344244Y0000373397D01*
X0001352352Y0000392924D01*
X0001352371Y0000414069D01*
X0001350487Y0000418627D01*
X0001390521Y0000458661D01*
X0001638175Y0000458661D01*
X0001647644Y0000454729D01*
X0001659390Y0000454719D01*
X0001670247Y0000459205D01*
X0001678560Y0000467504D01*
X0001683065Y0000478352D01*
X0001683075Y0000490099D01*
X0001678590Y0000500956D01*
X0001670291Y0000509269D01*
X0001659442Y0000513774D01*
X0001647695Y0000513784D01*
X0001638155Y0000509842D01*
X0001379921Y0000509842D01*
X0001370128Y0000507894D01*
X0001368110Y0000506546D01*
X0001361826Y0000502347D01*
X0001314304Y0000454826D01*
X0001309831Y0000456683D01*
X0001288686Y0000456702D01*
X0001269145Y0000448627D01*
X0001254180Y0000433689D01*
X0001252289Y0000429133D01*
X0001149296Y0000429133D01*
X0001147446Y0000433610D01*
X0001140255Y0000440813D01*
X0001140255Y0000633858D01*
X0001157067Y0000633858D01*
X0001163578Y0000636555D01*
X0001168562Y0000641539D01*
X0001171259Y0000648050D01*
X0001171259Y0000658956D01*
X0001166830Y0000663385D01*
X0001135826Y0000663385D01*
X0001135826Y0000675196D01*
X0001166830Y0000675196D01*
X0001171259Y0000679625D01*
X0001171259Y0000690531D01*
X0001168562Y0000697043D01*
X0001163578Y0000702027D01*
X0001157067Y0000704724D01*
X0001144192Y0000704724D01*
X0001144192Y0000705708D01*
X0001157067Y0000705708D01*
X0001163578Y0000708405D01*
X0001168562Y0000713389D01*
X0001171259Y0000719901D01*
X0001171259Y0000737696D01*
X0001166830Y0000742125D01*
X0001139763Y0000742125D01*
X0001139763Y0000753937D01*
X0001166830Y0000753937D01*
X0001171259Y0000758366D01*
X0001171259Y0000776161D01*
X0001168562Y0000782673D01*
X0001163578Y0000787657D01*
X0001157067Y0000790354D01*
X0001144192Y0000790354D01*
X0001139763Y0000785925D01*
X0001139763Y0000753937D01*
X0001139763Y0000742125D01*
X0001139763Y0000710137D01*
X0001144192Y0000705708D01*
X0001144192Y0000704724D01*
X0001140255Y0000704724D01*
X0001135826Y0000700295D01*
X0001135826Y0000675196D01*
X0001135826Y0000663385D01*
X0001135826Y0000638287D01*
X0001140255Y0000633858D01*
X0001140255Y0000440813D01*
X0001132508Y0000448575D01*
X0001112980Y0000456683D01*
X0001102775Y0000456692D01*
X0001102775Y0000633858D01*
X0001119586Y0000633858D01*
X0001124015Y0000638287D01*
X0001124015Y0000663385D01*
X0001093011Y0000663385D01*
X0001093011Y0000675196D01*
X0001124015Y0000675196D01*
X0001124015Y0000700295D01*
X0001119586Y0000704724D01*
X0001110649Y0000704724D01*
X0001110649Y0000705708D01*
X0001123523Y0000705708D01*
X0001127952Y0000710137D01*
X0001127952Y0000742125D01*
X0001100885Y0000742125D01*
X0001100885Y0000753937D01*
X0001127952Y0000753937D01*
X0001127952Y0000785925D01*
X0001123523Y0000790354D01*
X0001110649Y0000790354D01*
X0001104137Y0000787657D01*
X0001099153Y0000782673D01*
X0001096456Y0000776161D01*
X0001096456Y0000758366D01*
X0001100885Y0000753937D01*
X0001100885Y0000742125D01*
X0001096456Y0000737696D01*
X0001096456Y0000719901D01*
X0001099153Y0000713389D01*
X0001104137Y0000708405D01*
X0001110649Y0000705708D01*
X0001110649Y0000704724D01*
X0001102775Y0000704724D01*
X0001096263Y0000702027D01*
X0001091279Y0000697043D01*
X0001088582Y0000690531D01*
X0001088582Y0000679625D01*
X0001093011Y0000675196D01*
X0001093011Y0000663385D01*
X0001088582Y0000658956D01*
X0001088582Y0000648050D01*
X0001091279Y0000641539D01*
X0001096263Y0000636555D01*
X0001102775Y0000633858D01*
X0001102775Y0000456692D01*
X0001091836Y0000456702D01*
X0001072294Y0000448627D01*
X0001057330Y0000433689D01*
X0001049221Y0000414161D01*
X0001049203Y0000393017D01*
X0001057277Y0000373475D01*
X0001072216Y0000358511D01*
X0001091743Y0000350402D01*
X0001112887Y0000350384D01*
X0001112887Y0000309045D01*
X0001091836Y0000309064D01*
X0001072294Y0000300989D01*
X0001057330Y0000286051D01*
X0001049221Y0000266524D01*
X0001049203Y0000245379D01*
X0001057277Y0000225837D01*
X0001072216Y0000210873D01*
X0001091743Y0000202765D01*
X0001112887Y0000202746D01*
X0001112887Y0000161408D01*
X0001091836Y0000161426D01*
X0001072294Y0000153352D01*
X0001057330Y0000138413D01*
X0001049221Y0000118886D01*
X0001049203Y0000097741D01*
X0001057277Y0000078200D01*
X0001072216Y0000063235D01*
X0001091743Y0000055127D01*
X0001112887Y0000055108D01*
X0001112887Y0000020669D01*
X0001004921Y0000020669D01*
X0001004921Y0001002952D01*
X0001506132Y0001002952D01*
G04 next file*
G04 #@! TF.FileFunction,Copper,L2,Bot,Signal*
G04 Gerber Fmt 4.6, Leading zero omitted, Abs format (unit mm)*
G04 Created by KiCad (PCBNEW 4.0.4-1.fc24-product) date Tue Jun 12 10:11:03 2018*
G01G01*
G04 APERTURE LIST*
G04 APERTURE END LIST*
D51*
D52*
X-0003818897Y-0003267716D02*
X0000181102Y0002909448D03*
D53*
X0000281102Y0002909448D03*
X0000381102Y0002909448D03*
X0000481102Y0002909448D03*
X0000581102Y0002909448D03*
D52*
X0000181102Y0002793307D03*
D53*
X0000281102Y0002793307D03*
X0000381102Y0002793307D03*
X0000481102Y0002793307D03*
X0000581102Y0002793307D03*
D54*
X0000389763Y0002295275D03*
D55*
X0000574803Y0002295275D03*
D54*
X0000204724Y0002295275D03*
D55*
X0000574803Y0002485433D03*
D54*
X0000389763Y0002485433D03*
X0000204724Y0002485433D03*
D52*
X0000181102Y0002677165D03*
D53*
X0000281102Y0002677165D03*
X0000381102Y0002677165D03*
X0000481102Y0002677165D03*
X0000581102Y0002677165D03*
D56*
X0000775590Y0002674803D03*
D57*
X0000775590Y0002574803D03*
D56*
X0000775590Y0002433070D03*
D57*
X0000775590Y0002233070D03*
D56*
X0000775590Y0002333070D03*
D58*
X0000481102Y0002670078D02*
X0000481102Y0002677165D01*
D59*
X0000381102Y0002677165D02*
X0000381102Y0002617322D01*
X0000381102Y0002617322D02*
X0000311023Y0002547244D01*
X0000311023Y0002547244D02*
X0000311023Y0002374015D01*
X0000311023Y0002374015D02*
X0000389763Y0002295275D01*
D60*
X0000204724Y0002295275D02*
X0000283464Y0002374015D01*
X0000283464Y0002374015D02*
X0000283464Y0002578740D01*
X0000283464Y0002578740D02*
X0000331102Y0002626377D01*
X0000331102Y0002626377D02*
X0000331102Y0002743307D01*
X0000331102Y0002743307D02*
X0000381102Y0002793307D01*
X0000389763Y0002485433D02*
X0000431496Y0002527165D01*
X0000431496Y0002527165D02*
X0000431496Y0002743700D01*
X0000431496Y0002743700D02*
X0000481102Y0002793307D01*
D59*
X0000381889Y0002908464D02*
X0000381889Y0002905511D01*
X0000608267Y0002850393D02*
X0000657480Y0002801181D01*
X0000381889Y0002905511D02*
X0000437007Y0002850393D01*
X0000657480Y0002377952D02*
X0000574803Y0002295275D01*
X0000437007Y0002850393D02*
X0000608267Y0002850393D01*
X0000657480Y0002801181D02*
X0000657480Y0002377952D01*
D60*
X0000138779Y0002628193D02*
X0000138779Y0002186023D01*
X0000138779Y0002744335D02*
X0000138779Y0002726136D01*
X0000138779Y0002860477D02*
X0000138779Y0002842278D01*
X0000148228Y0002625984D02*
X0000148228Y0002186023D01*
X0000148228Y0002742125D02*
X0000148228Y0002728346D01*
X0000148228Y0002858267D02*
X0000148228Y0002844488D01*
X0000157677Y0002270299D02*
X0000157677Y0002186023D01*
X0000157677Y0002460457D02*
X0000157677Y0002320251D01*
X0000157677Y0002625984D02*
X0000157677Y0002510408D01*
X0000157677Y0002742125D02*
X0000157677Y0002728346D01*
X0000157677Y0002858267D02*
X0000157677Y0002844488D01*
X0000167125Y0002257008D02*
X0000167125Y0002186023D01*
X0000167125Y0002447165D02*
X0000167125Y0002333543D01*
X0000167125Y0002625984D02*
X0000167125Y0002523700D01*
X0000167125Y0002742125D02*
X0000167125Y0002728346D01*
X0000167125Y0002858267D02*
X0000167125Y0002844488D01*
X0000176574Y0002250694D02*
X0000176574Y0002186023D01*
X0000176574Y0002440852D02*
X0000176574Y0002339856D01*
X0000176574Y0002916141D02*
X0000176574Y0002530014D01*
X0000186023Y0002245638D02*
X0000186023Y0002186023D01*
X0000186023Y0002435796D02*
X0000186023Y0002344912D01*
X0000186023Y0002916141D02*
X0000186023Y0002535070D01*
X0000195472Y0002243759D02*
X0000195472Y0002186023D01*
X0000195472Y0002433916D02*
X0000195472Y0002346792D01*
X0000195472Y0002625984D02*
X0000195472Y0002536949D01*
X0000195472Y0002742125D02*
X0000195472Y0002728346D01*
X0000195472Y0002858267D02*
X0000195472Y0002844488D01*
X0000204921Y0002242125D02*
X0000204921Y0002186023D01*
X0000204921Y0002432283D02*
X0000204921Y0002348425D01*
X0000204921Y0002625984D02*
X0000204921Y0002538582D01*
X0000204921Y0002742125D02*
X0000204921Y0002728346D01*
X0000204921Y0002858267D02*
X0000204921Y0002844488D01*
X0000214370Y0002243837D02*
X0000214370Y0002186023D01*
X0000214370Y0002433994D02*
X0000214370Y0002346713D01*
X0000214370Y0002625984D02*
X0000214370Y0002536871D01*
X0000214370Y0002742125D02*
X0000214370Y0002728346D01*
X0000214370Y0002858267D02*
X0000214370Y0002844488D01*
X0000223818Y0002245716D02*
X0000223818Y0002186023D01*
X0000223818Y0002435874D02*
X0000223818Y0002347776D01*
X0000223818Y0002628356D02*
X0000223818Y0002534991D01*
X0000223818Y0002744498D02*
X0000223818Y0002725973D01*
X0000223818Y0002860640D02*
X0000223818Y0002842115D01*
X0000233267Y0002250957D02*
X0000233267Y0002186023D01*
X0000233267Y0002441115D02*
X0000233267Y0002357225D01*
X0000233267Y0002659338D02*
X0000233267Y0002529750D01*
X0000233267Y0002775480D02*
X0000233267Y0002694991D01*
X0000233267Y0002891622D02*
X0000233267Y0002811133D01*
X0000242716Y0002257271D02*
X0000242716Y0002186023D01*
X0000242716Y0002447428D02*
X0000242716Y0002366674D01*
X0000242716Y0002643257D02*
X0000242716Y0002523437D01*
X0000242716Y0002759399D02*
X0000242716Y0002711073D01*
X0000242716Y0002875541D02*
X0000242716Y0002827214D01*
X0000252165Y0002270889D02*
X0000252165Y0002186023D01*
X0000252165Y0002461046D02*
X0000252165Y0002376123D01*
X0000252165Y0002635125D02*
X0000252165Y0002509819D01*
X0000252165Y0002751267D02*
X0000252165Y0002719205D01*
X0000252165Y0002867408D02*
X0000252165Y0002835346D01*
X0000261614Y0002318758D02*
X0000261614Y0002186023D01*
X0000261614Y0002628858D02*
X0000261614Y0002587646D01*
X0000261614Y0002744999D02*
X0000261614Y0002725472D01*
X0000261614Y0002861141D02*
X0000261614Y0002841614D01*
X0000271062Y0002328207D02*
X0000271062Y0002186023D01*
X0000271062Y0002626978D02*
X0000271062Y0002599745D01*
X0000271062Y0002743120D02*
X0000271062Y0002727352D01*
X0000271062Y0002859261D02*
X0000271062Y0002843493D01*
X0000280511Y0002337656D02*
X0000280511Y0002186023D01*
X0000280511Y0002625099D02*
X0000280511Y0002609194D01*
X0000280511Y0002741240D02*
X0000280511Y0002729231D01*
X0000280511Y0002857382D02*
X0000280511Y0002845373D01*
X0000289960Y0002347105D02*
X0000289960Y0002186023D01*
X0000289960Y0002626743D02*
X0000289960Y0002618642D01*
X0000289960Y0002742885D02*
X0000289960Y0002727587D01*
X0000289960Y0002859026D02*
X0000289960Y0002843728D01*
X0000299409Y0002349439D02*
X0000299409Y0002186023D01*
X0000299409Y0002628622D02*
X0000299409Y0002628091D01*
X0000299409Y0002744764D02*
X0000299409Y0002725707D01*
X0000299409Y0002860906D02*
X0000299409Y0002841849D01*
X0000308858Y0002339990D02*
X0000308858Y0002186023D01*
X0000308858Y0002750478D02*
X0000308858Y0002750234D01*
X0000308858Y0002866619D02*
X0000308858Y0002836136D01*
X0000318307Y0002330541D02*
X0000318307Y0002186023D01*
X0000318307Y0002873773D02*
X0000318307Y0002828982D01*
X0000327755Y0002321092D02*
X0000327755Y0002186023D01*
X0000327755Y0002887914D02*
X0000327755Y0002814841D01*
X0000337204Y0002287071D02*
X0000337204Y0002186023D01*
X0000337204Y0002311644D02*
X0000337204Y0002303479D01*
X0000337204Y0002477229D02*
X0000337204Y0002384025D01*
X0000337204Y0002883790D02*
X0000337204Y0002818965D01*
X0000346653Y0002264407D02*
X0000346653Y0002186023D01*
X0000346653Y0002454565D02*
X0000346653Y0002374576D01*
X0000346653Y0002871091D02*
X0000346653Y0002831664D01*
X0000356102Y0002254377D02*
X0000356102Y0002186023D01*
X0000356102Y0002444534D02*
X0000356102Y0002365127D01*
X0000356102Y0002864778D02*
X0000356102Y0002837977D01*
X0000365551Y0002248063D02*
X0000365551Y0002186023D01*
X0000365551Y0002438221D02*
X0000365551Y0002355678D01*
X0000365551Y0002860358D02*
X0000365551Y0002842397D01*
X0000375000Y0002244855D02*
X0000375000Y0002186023D01*
X0000375000Y0002435013D02*
X0000375000Y0002346229D01*
X0000375000Y0002858478D02*
X0000375000Y0002844277D01*
X0000384448Y0002242976D02*
X0000384448Y0002186023D01*
X0000384448Y0002433133D02*
X0000384448Y0002347575D01*
X0000384448Y0002857930D02*
X0000384448Y0002844825D01*
X0000393897Y0002242741D02*
X0000393897Y0002186023D01*
X0000393897Y0002432898D02*
X0000393897Y0002347810D01*
X0000393897Y0002857313D02*
X0000393897Y0002842945D01*
X0000403346Y0002244620D02*
X0000403346Y0002186023D01*
X0000403346Y0002434778D02*
X0000403346Y0002345930D01*
X0000403346Y0002847864D02*
X0000403346Y0002839818D01*
X0000412795Y0002247274D02*
X0000412795Y0002186023D01*
X0000412795Y0002437432D02*
X0000412795Y0002343276D01*
X0000412795Y0002838415D02*
X0000412795Y0002833505D01*
X0000422244Y0002253588D02*
X0000422244Y0002186023D01*
X0000422244Y0002443745D02*
X0000422244Y0002336962D01*
X0000422244Y0002830072D02*
X0000422244Y0002823090D01*
X0000431692Y0002262640D02*
X0000431692Y0002186023D01*
X0000431692Y0002452797D02*
X0000431692Y0002327911D01*
X0000431692Y0002825860D02*
X0000431692Y0002803216D01*
X0000441141Y0002281134D02*
X0000441141Y0002186023D01*
X0000441141Y0002471291D02*
X0000441141Y0002309416D01*
X0000441141Y0002503404D02*
X0000441141Y0002499574D01*
X0000450590Y0002514040D02*
X0000450590Y0002186023D01*
X0000460039Y0002630889D02*
X0000460039Y0002186023D01*
X0000460039Y0002738837D02*
X0000460039Y0002723440D01*
X0000469488Y0002628678D02*
X0000469488Y0002186023D01*
X0000469488Y0002743433D02*
X0000469488Y0002725652D01*
X0000478937Y0002741554D02*
X0000478937Y0002186023D01*
X0000488385Y0002630278D02*
X0000488385Y0002186023D01*
X0000488385Y0002742572D02*
X0000488385Y0002724052D01*
X0000497834Y0002629096D02*
X0000497834Y0002186023D01*
X0000497834Y0002744451D02*
X0000497834Y0002725234D01*
X0000507283Y0002633486D02*
X0000507283Y0002186023D01*
X0000507283Y0002749425D02*
X0000507283Y0002720843D01*
X0000516732Y0002641592D02*
X0000516732Y0002186023D01*
X0000516732Y0002755739D02*
X0000516732Y0002712738D01*
X0000526181Y0002273770D02*
X0000526181Y0002186023D01*
X0000526181Y0002462339D02*
X0000526181Y0002316775D01*
X0000526181Y0002655069D02*
X0000526181Y0002507622D01*
X0000526181Y0002769416D02*
X0000526181Y0002699260D01*
X0000535629Y0002259286D02*
X0000535629Y0002186023D01*
X0000535629Y0002454699D02*
X0000535629Y0002331270D01*
X0000535629Y0002653863D02*
X0000535629Y0002516166D01*
X0000535629Y0002770005D02*
X0000535629Y0002700467D01*
X0000545078Y0002250068D02*
X0000545078Y0002186023D01*
X0000545078Y0002444194D02*
X0000545078Y0002340501D01*
X0000545078Y0002464060D02*
X0000545078Y0002447357D01*
X0000545078Y0002523509D02*
X0000545078Y0002506805D01*
X0000545078Y0002639860D02*
X0000545078Y0002526672D01*
X0000545078Y0002756002D02*
X0000545078Y0002714470D01*
X0000554527Y0002246145D02*
X0000554527Y0002186023D01*
X0000554527Y0002436170D02*
X0000554527Y0002344405D01*
X0000554527Y0002473509D02*
X0000554527Y0002456805D01*
X0000554527Y0002514060D02*
X0000554527Y0002497357D01*
X0000554527Y0002633547D02*
X0000554527Y0002535222D01*
X0000554527Y0002749688D02*
X0000554527Y0002720783D01*
X0000563976Y0002242221D02*
X0000563976Y0002186023D01*
X0000563976Y0002433010D02*
X0000563976Y0002348310D01*
X0000563976Y0002482957D02*
X0000563976Y0002466254D01*
X0000563976Y0002504611D02*
X0000563976Y0002487908D01*
X0000563976Y0002628388D02*
X0000563976Y0002537954D01*
X0000563976Y0002744529D02*
X0000563976Y0002725942D01*
X0000573425Y0002242127D02*
X0000573425Y0002186023D01*
X0000573425Y0002432056D02*
X0000573425Y0002348426D01*
X0000573425Y0002495162D02*
X0000573425Y0002475703D01*
X0000573425Y0002626508D02*
X0000573425Y0002538616D01*
X0000573425Y0002742650D02*
X0000573425Y0002727822D01*
X0000582874Y0002242118D02*
X0000582874Y0002186023D01*
X0000582874Y0002432718D02*
X0000582874Y0002348418D01*
X0000582874Y0002501855D02*
X0000582874Y0002469010D01*
X0000582874Y0002625333D02*
X0000582874Y0002538777D01*
X0000582874Y0002741475D02*
X0000582874Y0002728996D01*
X0000592322Y0002245006D02*
X0000592322Y0002186023D01*
X0000592322Y0002434502D02*
X0000592322Y0002348985D01*
X0000592322Y0002476265D02*
X0000592322Y0002459561D01*
X0000592322Y0002511304D02*
X0000592322Y0002494601D01*
X0000592322Y0002627213D02*
X0000592322Y0002535616D01*
X0000592322Y0002743355D02*
X0000592322Y0002727117D01*
X0000601771Y0002248910D02*
X0000601771Y0002186023D01*
X0000601771Y0002438552D02*
X0000601771Y0002358434D01*
X0000601771Y0002466816D02*
X0000601771Y0002450112D01*
X0000601771Y0002520753D02*
X0000601771Y0002504049D01*
X0000601771Y0002629601D02*
X0000601771Y0002532313D01*
X0000601771Y0002745742D02*
X0000601771Y0002724729D01*
X0000611220Y0002256530D02*
X0000611220Y0002186023D01*
X0000611220Y0002457367D02*
X0000611220Y0002367883D01*
X0000611220Y0002635914D02*
X0000611220Y0002513498D01*
X0000611220Y0002752056D02*
X0000611220Y0002718415D01*
X0000611220Y0002951771D02*
X0000611220Y0002950699D01*
X0000620669Y0002267138D02*
X0000620669Y0002186023D01*
X0000620669Y0002457968D02*
X0000620669Y0002377332D01*
X0000620669Y0002645025D02*
X0000620669Y0002512897D01*
X0000620669Y0002761167D02*
X0000620669Y0002709305D01*
X0000620669Y0002877308D02*
X0000620669Y0002872293D01*
X0000620669Y0002951771D02*
X0000620669Y0002941588D01*
X0000630118Y0002314400D02*
X0000630118Y0002186023D01*
X0000630118Y0002665276D02*
X0000630118Y0002386781D01*
X0000630118Y0002781418D02*
X0000630118Y0002689053D01*
X0000630118Y0002897560D02*
X0000630118Y0002864733D01*
X0000630118Y0002951771D02*
X0000630118Y0002921337D01*
X0000639566Y0002323848D02*
X0000639566Y0002186023D01*
X0000639566Y0002951771D02*
X0000639566Y0002855284D01*
X0000649015Y0002333297D02*
X0000649015Y0002186023D01*
X0000649015Y0002951771D02*
X0000649015Y0002845836D01*
X0000658464Y0002342746D02*
X0000658464Y0002186023D01*
X0000658464Y0002951771D02*
X0000658464Y0002836387D01*
X0000667913Y0002352195D02*
X0000667913Y0002186023D01*
X0000667913Y0002951771D02*
X0000667913Y0002826938D01*
X0000677362Y0002362531D02*
X0000677362Y0002186023D01*
X0000677362Y0002951771D02*
X0000677362Y0002816602D01*
X0000686811Y0002951771D02*
X0000686811Y0002186023D01*
X0000696259Y0002951771D02*
X0000696259Y0002186023D01*
X0000705708Y0002951771D02*
X0000705708Y0002186023D01*
X0000715157Y0002951771D02*
X0000715157Y0002186023D01*
X0000724606Y0002238976D02*
X0000724606Y0002227165D01*
X0000724606Y0002307512D02*
X0000724606Y0002285841D01*
X0000724606Y0002407512D02*
X0000724606Y0002358628D01*
X0000724606Y0002521960D02*
X0000724606Y0002458628D01*
X0000724606Y0002649245D02*
X0000724606Y0002627719D01*
X0000724606Y0002951771D02*
X0000724606Y0002700361D01*
X0000734055Y0002238976D02*
X0000734055Y0002227165D01*
X0000734055Y0002293371D02*
X0000734055Y0002290137D01*
X0000734055Y0002393371D02*
X0000734055Y0002372770D01*
X0000734055Y0002517832D02*
X0000734055Y0002472770D01*
X0000734055Y0002635103D02*
X0000734055Y0002631805D01*
X0000734055Y0002951771D02*
X0000734055Y0002714502D01*
X0000743503Y0002238976D02*
X0000743503Y0002227165D01*
X0000743503Y0002386077D02*
X0000743503Y0002380063D01*
X0000743503Y0002517389D02*
X0000743503Y0002480063D01*
X0000743503Y0002951771D02*
X0000743503Y0002721796D01*
X0000752952Y0002238976D02*
X0000752952Y0002227165D01*
X0000752952Y0002517389D02*
X0000752952Y0002486377D01*
X0000752952Y0002951771D02*
X0000752952Y0002728109D01*
X0000762401Y0002238976D02*
X0000762401Y0002227165D01*
X0000762401Y0002517389D02*
X0000762401Y0002488631D01*
X0000762401Y0002951771D02*
X0000762401Y0002730364D01*
X0000771850Y0002239763D02*
X0000771850Y0002226377D01*
X0000771850Y0002517389D02*
X0000771850Y0002490511D01*
X0000771850Y0002951771D02*
X0000771850Y0002732243D01*
X0000781299Y0002239763D02*
X0000781299Y0002226377D01*
X0000781299Y0002517389D02*
X0000781299Y0002490119D01*
X0000781299Y0002951771D02*
X0000781299Y0002731852D01*
X0000790748Y0002238976D02*
X0000790748Y0002227165D01*
X0000790748Y0002517389D02*
X0000790748Y0002488240D01*
X0000790748Y0002951771D02*
X0000790748Y0002729972D01*
X0000800196Y0002238976D02*
X0000800196Y0002227165D01*
X0000800196Y0002517389D02*
X0000800196Y0002485062D01*
X0000800196Y0002951771D02*
X0000800196Y0002726794D01*
X0000809645Y0002238976D02*
X0000809645Y0002227165D01*
X0000809645Y0002387393D02*
X0000809645Y0002378748D01*
X0000809645Y0002517389D02*
X0000809645Y0002478748D01*
X0000809645Y0002951771D02*
X0000809645Y0002720480D01*
X0000819094Y0002238976D02*
X0000819094Y0002227165D01*
X0000819094Y0002296317D02*
X0000819094Y0002289876D01*
X0000819094Y0002396317D02*
X0000819094Y0002369823D01*
X0000819094Y0002518171D02*
X0000819094Y0002469823D01*
X0000819094Y0002638050D02*
X0000819094Y0002631375D01*
X0000819094Y0002951771D02*
X0000819094Y0002711556D01*
X0000828543Y0002239291D02*
X0000828543Y0002226850D01*
X0000828543Y0002311271D02*
X0000828543Y0002283873D01*
X0000828543Y0002411271D02*
X0000828543Y0002354870D01*
X0000828543Y0002523979D02*
X0000828543Y0002454870D01*
X0000828543Y0002653003D02*
X0000828543Y0002625731D01*
X0000828543Y0002951771D02*
X0000828543Y0002696602D01*
X0000837992Y0002951771D02*
X0000837992Y0002186023D01*
X0000847440Y0002951771D02*
X0000847440Y0002186023D01*
X0000856889Y0002951771D02*
X0000856889Y0002186023D01*
X0000866338Y0002951771D02*
X0000866338Y0002186023D01*
X0000875787Y0002951771D02*
X0000875787Y0002186023D01*
X0000144113Y0002625984D02*
X0000170767Y0002625984D01*
X0000175196Y0002630413D01*
X0000175196Y0002671259D01*
X0000174409Y0002671259D01*
X0000174409Y0002683070D01*
X0000175196Y0002683070D01*
X0000175196Y0002723917D01*
X0000170767Y0002728346D01*
X0000144113Y0002728346D01*
X0000138779Y0002726136D01*
X0000138779Y0002744335D01*
X0000144113Y0002742125D01*
X0000170767Y0002742125D01*
X0000175196Y0002746555D01*
X0000175196Y0002787401D01*
X0000174409Y0002787401D01*
X0000174409Y0002799212D01*
X0000175196Y0002799212D01*
X0000175196Y0002840059D01*
X0000170767Y0002844488D01*
X0000144113Y0002844488D01*
X0000138779Y0002842278D01*
X0000138779Y0002860477D01*
X0000144113Y0002858267D01*
X0000170767Y0002858267D01*
X0000175196Y0002862696D01*
X0000175196Y0002903543D01*
X0000174409Y0002903543D01*
X0000174409Y0002915354D01*
X0000175196Y0002915354D01*
X0000175196Y0002916141D01*
X0000187007Y0002916141D01*
X0000187007Y0002915354D01*
X0000187795Y0002915354D01*
X0000187795Y0002903543D01*
X0000187007Y0002903543D01*
X0000187007Y0002862696D01*
X0000191437Y0002858267D01*
X0000218090Y0002858267D01*
X0000224602Y0002860964D01*
X0000229586Y0002865948D01*
X0000232283Y0002872460D01*
X0000232283Y0002896570D01*
X0000233817Y0002888859D01*
X0000244911Y0002872255D01*
X0000261516Y0002861160D01*
X0000281102Y0002857265D01*
X0000300688Y0002861160D01*
X0000317292Y0002872255D01*
X0000328387Y0002888859D01*
X0000331102Y0002902508D01*
X0000333817Y0002888859D01*
X0000344911Y0002872255D01*
X0000361516Y0002861160D01*
X0000381102Y0002857265D01*
X0000391815Y0002859395D01*
X0000418912Y0002832298D01*
X0000427214Y0002826751D01*
X0000427214Y0002826751D01*
X0000437007Y0002824803D01*
X0000441105Y0002824803D01*
X0000433817Y0002813895D01*
X0000431102Y0002800247D01*
X0000428387Y0002813895D01*
X0000417292Y0002830500D01*
X0000400688Y0002841594D01*
X0000381102Y0002845490D01*
X0000361516Y0002841594D01*
X0000344911Y0002830500D01*
X0000333817Y0002813895D01*
X0000331102Y0002800247D01*
X0000328387Y0002813895D01*
X0000317292Y0002830500D01*
X0000300688Y0002841594D01*
X0000281102Y0002845490D01*
X0000261516Y0002841594D01*
X0000244911Y0002830500D01*
X0000233817Y0002813895D01*
X0000232283Y0002806185D01*
X0000232283Y0002830295D01*
X0000229586Y0002836807D01*
X0000224602Y0002841790D01*
X0000218090Y0002844488D01*
X0000191437Y0002844488D01*
X0000187007Y0002840059D01*
X0000187007Y0002799212D01*
X0000187795Y0002799212D01*
X0000187795Y0002787401D01*
X0000187007Y0002787401D01*
X0000187007Y0002746555D01*
X0000191437Y0002742125D01*
X0000218090Y0002742125D01*
X0000224602Y0002744823D01*
X0000229586Y0002749806D01*
X0000232283Y0002756318D01*
X0000232283Y0002780428D01*
X0000233817Y0002772718D01*
X0000244911Y0002756113D01*
X0000261516Y0002745019D01*
X0000281102Y0002741123D01*
X0000300688Y0002745019D01*
X0000308914Y0002750515D01*
X0000307480Y0002743307D01*
X0000307480Y0002720915D01*
X0000300688Y0002725453D01*
X0000281102Y0002729349D01*
X0000261516Y0002725453D01*
X0000244911Y0002714358D01*
X0000233817Y0002697754D01*
X0000232283Y0002690043D01*
X0000232283Y0002714153D01*
X0000229586Y0002720665D01*
X0000224602Y0002725649D01*
X0000218090Y0002728346D01*
X0000191437Y0002728346D01*
X0000187007Y0002723917D01*
X0000187007Y0002683070D01*
X0000187795Y0002683070D01*
X0000187795Y0002671259D01*
X0000187007Y0002671259D01*
X0000187007Y0002630413D01*
X0000191437Y0002625984D01*
X0000218090Y0002625984D01*
X0000224602Y0002628681D01*
X0000229586Y0002633665D01*
X0000232283Y0002640176D01*
X0000232283Y0002664287D01*
X0000233817Y0002656576D01*
X0000244911Y0002639972D01*
X0000261516Y0002628877D01*
X0000281102Y0002624981D01*
X0000300072Y0002628755D01*
X0000266761Y0002595443D01*
X0000261640Y0002587779D01*
X0000259842Y0002578740D01*
X0000259842Y0002383800D01*
X0000221364Y0002345322D01*
X0000205765Y0002348425D01*
X0000203683Y0002348425D01*
X0000203683Y0002432283D01*
X0000205765Y0002432283D01*
X0000226105Y0002436329D01*
X0000243348Y0002447850D01*
X0000254869Y0002465093D01*
X0000258915Y0002485433D01*
X0000254869Y0002505772D01*
X0000243348Y0002523015D01*
X0000226105Y0002534536D01*
X0000205765Y0002538582D01*
X0000203683Y0002538582D01*
X0000183343Y0002534536D01*
X0000166100Y0002523015D01*
X0000154579Y0002505772D01*
X0000150533Y0002485433D01*
X0000154579Y0002465093D01*
X0000166100Y0002447850D01*
X0000183343Y0002436329D01*
X0000203683Y0002432283D01*
X0000203683Y0002348425D01*
X0000183343Y0002344379D01*
X0000166100Y0002332858D01*
X0000154579Y0002315615D01*
X0000150533Y0002295275D01*
X0000154579Y0002274936D01*
X0000166100Y0002257693D01*
X0000183343Y0002246171D01*
X0000203683Y0002242125D01*
X0000205765Y0002242125D01*
X0000226105Y0002246171D01*
X0000243348Y0002257693D01*
X0000254869Y0002274936D01*
X0000258915Y0002295275D01*
X0000255466Y0002312611D01*
X0000295852Y0002352996D01*
X0000338559Y0002310289D01*
X0000335572Y0002295275D01*
X0000339618Y0002274936D01*
X0000351140Y0002257693D01*
X0000368383Y0002246171D01*
X0000388722Y0002242125D01*
X0000390805Y0002242125D01*
X0000411144Y0002246171D01*
X0000428387Y0002257693D01*
X0000439908Y0002274936D01*
X0000443954Y0002295275D01*
X0000439908Y0002315615D01*
X0000428387Y0002332858D01*
X0000411144Y0002344379D01*
X0000390805Y0002348425D01*
X0000388722Y0002348425D01*
X0000375445Y0002345784D01*
X0000336614Y0002384615D01*
X0000336614Y0002480198D01*
X0000339618Y0002465093D01*
X0000351140Y0002447850D01*
X0000368383Y0002436329D01*
X0000388722Y0002432283D01*
X0000390805Y0002432283D01*
X0000411144Y0002436329D01*
X0000428387Y0002447850D01*
X0000439908Y0002465093D01*
X0000443954Y0002485433D01*
X0000440506Y0002502768D01*
X0000448199Y0002510462D01*
X0000453319Y0002518125D01*
X0000455118Y0002527165D01*
X0000455118Y0002633318D01*
X0000455997Y0002632563D01*
X0000467316Y0002627875D01*
X0000475196Y0002630787D01*
X0000475196Y0002671259D01*
X0000474409Y0002671259D01*
X0000474409Y0002683070D01*
X0000475196Y0002683070D01*
X0000475196Y0002723542D01*
X0000467316Y0002726454D01*
X0000455997Y0002721766D01*
X0000455118Y0002721012D01*
X0000455118Y0002733916D01*
X0000465440Y0002744238D01*
X0000481102Y0002741123D01*
X0000500688Y0002745019D01*
X0000517292Y0002756113D01*
X0000528387Y0002772718D01*
X0000531102Y0002786366D01*
X0000533817Y0002772718D01*
X0000544911Y0002756113D01*
X0000561516Y0002745019D01*
X0000581102Y0002741123D01*
X0000600688Y0002745019D01*
X0000617292Y0002756113D01*
X0000628387Y0002772718D01*
X0000631889Y0002790325D01*
X0000631889Y0002680147D01*
X0000628387Y0002697754D01*
X0000617292Y0002714358D01*
X0000600688Y0002725453D01*
X0000581102Y0002729349D01*
X0000561516Y0002725453D01*
X0000544911Y0002714358D01*
X0000533817Y0002697754D01*
X0000530896Y0002683070D01*
X0000527513Y0002683070D01*
X0000530392Y0002690951D01*
X0000521364Y0002708764D01*
X0000506207Y0002721766D01*
X0000494888Y0002726454D01*
X0000487007Y0002723542D01*
X0000487007Y0002683070D01*
X0000487795Y0002683070D01*
X0000487795Y0002671259D01*
X0000487007Y0002671259D01*
X0000487007Y0002630787D01*
X0000494888Y0002627875D01*
X0000506207Y0002632563D01*
X0000521364Y0002645566D01*
X0000530392Y0002663379D01*
X0000527513Y0002671259D01*
X0000530896Y0002671259D01*
X0000533817Y0002656576D01*
X0000544911Y0002639972D01*
X0000561516Y0002628877D01*
X0000581102Y0002624981D01*
X0000600688Y0002628877D01*
X0000617292Y0002639972D01*
X0000628387Y0002656576D01*
X0000631889Y0002674183D01*
X0000631889Y0002388552D01*
X0000613917Y0002370580D01*
X0000613917Y0002454670D01*
X0000621854Y0002458547D01*
X0000628561Y0002478600D01*
X0000627084Y0002499692D01*
X0000621854Y0002512318D01*
X0000613917Y0002516195D01*
X0000583154Y0002485433D01*
X0000613917Y0002454670D01*
X0000613917Y0002370580D01*
X0000589895Y0002346558D01*
X0000585421Y0002348415D01*
X0000567970Y0002348431D01*
X0000567970Y0002431674D01*
X0000589062Y0002433152D01*
X0000601688Y0002438381D01*
X0000605565Y0002446319D01*
X0000574803Y0002477081D01*
X0000574803Y0002493784D01*
X0000605565Y0002524547D01*
X0000601688Y0002532484D01*
X0000581636Y0002539191D01*
X0000560543Y0002537714D01*
X0000547917Y0002532484D01*
X0000544040Y0002524547D01*
X0000574803Y0002493784D01*
X0000574803Y0002477081D01*
X0000544040Y0002446319D01*
X0000547917Y0002438381D01*
X0000567970Y0002431674D01*
X0000567970Y0002348431D01*
X0000564277Y0002348434D01*
X0000544735Y0002340359D01*
X0000535689Y0002331329D01*
X0000535689Y0002454670D01*
X0000566451Y0002485433D01*
X0000535689Y0002516195D01*
X0000527751Y0002512318D01*
X0000521044Y0002492265D01*
X0000522522Y0002471173D01*
X0000527751Y0002458547D01*
X0000535689Y0002454670D01*
X0000535689Y0002331329D01*
X0000529771Y0002325421D01*
X0000521662Y0002305894D01*
X0000521644Y0002284749D01*
X0000529718Y0002265208D01*
X0000544657Y0002250243D01*
X0000564184Y0002242135D01*
X0000585328Y0002242116D01*
X0000604870Y0002250191D01*
X0000619834Y0002265129D01*
X0000627943Y0002284657D01*
X0000627961Y0002305801D01*
X0000626078Y0002310360D01*
X0000675575Y0002359857D01*
X0000679282Y0002365404D01*
X0000681122Y0002368159D01*
X0000683070Y0002377952D01*
X0000683070Y0002801181D01*
X0000681446Y0002809349D01*
X0000681122Y0002810974D01*
X0000675575Y0002819276D01*
X0000626362Y0002868488D01*
X0000618352Y0002873841D01*
X0000628387Y0002888859D01*
X0000632283Y0002908446D01*
X0000632283Y0002910451D01*
X0000628387Y0002930037D01*
X0000617292Y0002946642D01*
X0000609615Y0002951771D01*
X0000884842Y0002951771D01*
X0000884842Y0002186023D01*
X0000830928Y0002186023D01*
X0000832657Y0002190196D01*
X0000832657Y0002222736D01*
X0000828227Y0002227165D01*
X0000781496Y0002227165D01*
X0000781496Y0002226377D01*
X0000769685Y0002226377D01*
X0000769685Y0002227165D01*
X0000722953Y0002227165D01*
X0000722953Y0002238976D01*
X0000769685Y0002238976D01*
X0000769685Y0002239763D01*
X0000781496Y0002239763D01*
X0000781496Y0002238976D01*
X0000828227Y0002238976D01*
X0000832657Y0002243405D01*
X0000832657Y0002275944D01*
X0000829959Y0002282456D01*
X0000824976Y0002287440D01*
X0000818464Y0002290137D01*
X0000813752Y0002290137D01*
X0000815942Y0002291600D01*
X0000828313Y0002310114D01*
X0000832657Y0002331952D01*
X0000832657Y0002334188D01*
X0000828313Y0002356027D01*
X0000815942Y0002374540D01*
X0000803176Y0002383070D01*
X0000815942Y0002391600D01*
X0000828313Y0002410114D01*
X0000832657Y0002431952D01*
X0000832657Y0002434188D01*
X0000828313Y0002456027D01*
X0000815942Y0002474540D01*
X0000797428Y0002486911D01*
X0000775590Y0002491255D01*
X0000753752Y0002486911D01*
X0000736240Y0002475210D01*
X0000736240Y0002517389D01*
X0000814940Y0002517389D01*
X0000821505Y0002518624D01*
X0000827535Y0002522505D01*
X0000831581Y0002528425D01*
X0000833004Y0002535453D01*
X0000833004Y0002614153D01*
X0000831768Y0002620718D01*
X0000827888Y0002626748D01*
X0000821968Y0002630793D01*
X0000814940Y0002632216D01*
X0000814272Y0002632216D01*
X0000815942Y0002633333D01*
X0000828313Y0002651846D01*
X0000832657Y0002673685D01*
X0000832657Y0002675921D01*
X0000828313Y0002697759D01*
X0000815942Y0002716273D01*
X0000797428Y0002728643D01*
X0000775590Y0002732987D01*
X0000753752Y0002728643D01*
X0000735238Y0002716273D01*
X0000722867Y0002697759D01*
X0000718524Y0002675921D01*
X0000718524Y0002673685D01*
X0000722867Y0002651846D01*
X0000735238Y0002633333D01*
X0000736909Y0002632216D01*
X0000736240Y0002632216D01*
X0000729675Y0002630981D01*
X0000723645Y0002627101D01*
X0000719600Y0002621180D01*
X0000718176Y0002614153D01*
X0000718176Y0002535453D01*
X0000719412Y0002528887D01*
X0000723292Y0002522857D01*
X0000729212Y0002518812D01*
X0000736240Y0002517389D01*
X0000736240Y0002475210D01*
X0000735238Y0002474540D01*
X0000722867Y0002456027D01*
X0000718524Y0002434188D01*
X0000718524Y0002431952D01*
X0000722867Y0002410114D01*
X0000735238Y0002391600D01*
X0000748004Y0002383070D01*
X0000735238Y0002374540D01*
X0000722867Y0002356027D01*
X0000718524Y0002334188D01*
X0000718524Y0002331952D01*
X0000722867Y0002310114D01*
X0000735238Y0002291600D01*
X0000737428Y0002290137D01*
X0000732716Y0002290137D01*
X0000726204Y0002287440D01*
X0000721221Y0002282456D01*
X0000718524Y0002275944D01*
X0000718524Y0002243405D01*
X0000722953Y0002238976D01*
X0000722953Y0002227165D01*
X0000718524Y0002222736D01*
X0000718524Y0002190196D01*
X0000720252Y0002186023D01*
X0000138779Y0002186023D01*
X0000138779Y0002628193D01*
X0000144113Y0002625984D01*
G04 next file*
G04 #@! TF.FileFunction,Copper,L2,Bot,Signal*
G04 Gerber Fmt 4.6, Leading zero omitted, Abs format (unit mm)*
G04 Created by KiCad (PCBNEW 4.0.4-1.fc24-product) date Tue Jun 12 10:11:22 2018*
G01G01*
G04 APERTURE LIST*
G04 APERTURE END LIST*
D61*
D62*
X-0005236220Y0005196850D02*
X0000779527Y0001677165D03*
D63*
X0000779527Y0001777165D03*
D64*
X0000413385Y0001421259D03*
D65*
X0000598425Y0001421259D03*
D64*
X0000228346Y0001421259D03*
D65*
X0000598425Y0001231102D03*
D64*
X0000413385Y0001231102D03*
X0000228346Y0001231102D03*
D65*
X0000598425Y0001610236D03*
D64*
X0000413385Y0001610236D03*
X0000228346Y0001610236D03*
D65*
X0000598425Y0001799212D03*
D64*
X0000413385Y0001799212D03*
X0000228346Y0001799212D03*
D62*
X0000779527Y0001896062D03*
D63*
X0000779527Y0001996062D03*
D62*
X0000779527Y0001413385D03*
D63*
X0000779527Y0001513385D03*
D62*
X0000779527Y0001192913D03*
D63*
X0000779527Y0001292913D03*
D66*
X0000518897Y0002007874D03*
D67*
X0000418897Y0002007874D03*
X0000318897Y0002007874D03*
D68*
X0000596614Y0001692913D02*
X0000496062Y0001692913D01*
X0000496062Y0001692913D02*
X0000413385Y0001610236D01*
X0000779527Y0001777165D02*
X0000680866Y0001777165D01*
X0000680866Y0001777165D02*
X0000596614Y0001692913D01*
X0000779527Y0001513385D02*
X0000606062Y0001513385D01*
X0000606062Y0001513385D02*
X0000413385Y0001320708D01*
X0000413385Y0001320708D02*
X0000413385Y0001281212D01*
X0000413385Y0001281212D02*
X0000413385Y0001231102D01*
X0000779527Y0001292913D02*
X0000660236Y0001292913D01*
X0000660236Y0001292913D02*
X0000598425Y0001231102D01*
X0000598425Y0001799212D02*
X0000527559Y0001728346D01*
X0000527559Y0001728346D02*
X0000346456Y0001728346D01*
X0000346456Y0001728346D02*
X0000263779Y0001645669D01*
X0000263779Y0001645669D02*
X0000228346Y0001610236D01*
X0000779527Y0001896062D02*
X0000695275Y0001896062D01*
X0000695275Y0001896062D02*
X0000598425Y0001799212D01*
X0000606299Y0001413385D02*
X0000598425Y0001421259D01*
D69*
G36*
X0000884842Y0001123031D02*
X0000178149Y0001123031D01*
X0000178149Y0001211023D01*
X0000178201Y0001210762D01*
X0000189722Y0001193519D01*
X0000206965Y0001181998D01*
X0000227305Y0001177952D01*
X0000229387Y0001177952D01*
X0000249727Y0001181998D01*
X0000266970Y0001193519D01*
X0000278491Y0001210762D01*
X0000282537Y0001231102D01*
X0000359194Y0001231102D01*
X0000363240Y0001210762D01*
X0000374762Y0001193519D01*
X0000392005Y0001181998D01*
X0000412344Y0001177952D01*
X0000414427Y0001177952D01*
X0000434766Y0001181998D01*
X0000452009Y0001193519D01*
X0000463530Y0001210762D01*
X0000465482Y0001220576D01*
X0000545266Y0001220576D01*
X0000553340Y0001201034D01*
X0000568279Y0001186070D01*
X0000587806Y0001177962D01*
X0000608950Y0001177943D01*
X0000628492Y0001186018D01*
X0000643456Y0001200956D01*
X0000651565Y0001220483D01*
X0000651583Y0001241628D01*
X0000650514Y0001244217D01*
X0000671651Y0001265354D01*
X0000722113Y0001265354D01*
X0000722113Y0001253563D01*
X0000723349Y0001246998D01*
X0000727229Y0001240968D01*
X0000733149Y0001236922D01*
X0000740177Y0001235499D01*
X0000740845Y0001235499D01*
X0000739175Y0001234383D01*
X0000726804Y0001215869D01*
X0000722461Y0001194031D01*
X0000722461Y0001191795D01*
X0000726804Y0001169956D01*
X0000739175Y0001151443D01*
X0000757689Y0001139072D01*
X0000779527Y0001134728D01*
X0000801365Y0001139072D01*
X0000819879Y0001151443D01*
X0000832250Y0001169956D01*
X0000836594Y0001191795D01*
X0000836594Y0001194031D01*
X0000832250Y0001215869D01*
X0000819879Y0001234383D01*
X0000818209Y0001235499D01*
X0000818877Y0001235499D01*
X0000825442Y0001236735D01*
X0000831472Y0001240615D01*
X0000835518Y0001246535D01*
X0000836941Y0001253563D01*
X0000836941Y0001332263D01*
X0000835705Y0001338828D01*
X0000831825Y0001344858D01*
X0000825905Y0001348903D01*
X0000818877Y0001350327D01*
X0000740177Y0001350327D01*
X0000733612Y0001349091D01*
X0000727582Y0001345211D01*
X0000723537Y0001339291D01*
X0000722113Y0001332263D01*
X0000722113Y0001320472D01*
X0000660236Y0001320472D01*
X0000649689Y0001318374D01*
X0000649689Y0001318374D01*
X0000649689Y0001318374D01*
X0000640749Y0001312400D01*
X0000611550Y0001283201D01*
X0000609043Y0001284242D01*
X0000587899Y0001284261D01*
X0000568357Y0001276186D01*
X0000553393Y0001261248D01*
X0000545284Y0001241720D01*
X0000545266Y0001220576D01*
X0000465482Y0001220576D01*
X0000467576Y0001231102D01*
X0000463530Y0001251441D01*
X0000452009Y0001268684D01*
X0000440944Y0001276077D01*
X0000440944Y0001309293D01*
X0000545268Y0001413617D01*
X0000545266Y0001410734D01*
X0000553340Y0001391192D01*
X0000568279Y0001376228D01*
X0000587806Y0001368119D01*
X0000608950Y0001368100D01*
X0000628492Y0001376175D01*
X0000643456Y0001391113D01*
X0000646596Y0001398673D01*
X0000724389Y0001398673D01*
X0000734216Y0001378693D01*
X0000750942Y0001363994D01*
X0000764815Y0001358248D01*
X0000773622Y0001361080D01*
X0000773622Y0001407480D01*
X0000785433Y0001407480D01*
X0000785433Y0001361080D01*
X0000794239Y0001358248D01*
X0000808112Y0001363994D01*
X0000824838Y0001378693D01*
X0000834665Y0001398673D01*
X0000831859Y0001407480D01*
X0000785433Y0001407480D01*
X0000773622Y0001407480D01*
X0000727196Y0001407480D01*
X0000724389Y0001398673D01*
X0000646596Y0001398673D01*
X0000651565Y0001410641D01*
X0000651583Y0001431785D01*
X0000643509Y0001451327D01*
X0000628571Y0001466291D01*
X0000609043Y0001474400D01*
X0000606054Y0001474402D01*
X0000617478Y0001485826D01*
X0000722113Y0001485826D01*
X0000722113Y0001474035D01*
X0000723349Y0001467470D01*
X0000727229Y0001461440D01*
X0000733149Y0001457395D01*
X0000740177Y0001455972D01*
X0000743198Y0001455972D01*
X0000734216Y0001448078D01*
X0000724389Y0001428097D01*
X0000727196Y0001419291D01*
X0000773622Y0001419291D01*
X0000773622Y0001420078D01*
X0000785433Y0001420078D01*
X0000785433Y0001419291D01*
X0000831859Y0001419291D01*
X0000834665Y0001428097D01*
X0000824838Y0001448078D01*
X0000815856Y0001455972D01*
X0000818877Y0001455972D01*
X0000825442Y0001457207D01*
X0000831472Y0001461087D01*
X0000835518Y0001467008D01*
X0000836941Y0001474035D01*
X0000836941Y0001552735D01*
X0000835705Y0001559301D01*
X0000831825Y0001565331D01*
X0000825905Y0001569376D01*
X0000818877Y0001570799D01*
X0000740177Y0001570799D01*
X0000733612Y0001569564D01*
X0000727582Y0001565683D01*
X0000723537Y0001559763D01*
X0000722113Y0001552735D01*
X0000722113Y0001540944D01*
X0000606062Y0001540944D01*
X0000595516Y0001538847D01*
X0000595516Y0001538847D01*
X0000595516Y0001538847D01*
X0000586575Y0001532872D01*
X0000463651Y0001409948D01*
X0000461747Y0001415354D01*
X0000419291Y0001415354D01*
X0000419291Y0001372867D01*
X0000424689Y0001370986D01*
X0000393898Y0001340195D01*
X0000387924Y0001331255D01*
X0000387924Y0001331255D01*
X0000385826Y0001320708D01*
X0000385826Y0001276077D01*
X0000374762Y0001268684D01*
X0000363240Y0001251441D01*
X0000359194Y0001231102D01*
X0000282537Y0001231102D01*
X0000278491Y0001251441D01*
X0000266970Y0001268684D01*
X0000249727Y0001280206D01*
X0000229387Y0001284251D01*
X0000227305Y0001284251D01*
X0000206965Y0001280206D01*
X0000189722Y0001268684D01*
X0000178201Y0001251441D01*
X0000178149Y0001251181D01*
X0000178149Y0001401180D01*
X0000178201Y0001400920D01*
X0000189722Y0001383677D01*
X0000206965Y0001372155D01*
X0000227305Y0001368110D01*
X0000229387Y0001368110D01*
X0000249727Y0001372155D01*
X0000266970Y0001383677D01*
X0000278491Y0001400920D01*
X0000279733Y0001407164D01*
X0000362139Y0001407164D01*
X0000367181Y0001394990D01*
X0000380751Y0001379308D01*
X0000399289Y0001370012D01*
X0000407480Y0001372867D01*
X0000407480Y0001415354D01*
X0000365024Y0001415354D01*
X0000362139Y0001407164D01*
X0000279733Y0001407164D01*
X0000282537Y0001421259D01*
X0000279733Y0001435355D01*
X0000362139Y0001435355D01*
X0000365024Y0001427165D01*
X0000407480Y0001427165D01*
X0000407480Y0001469651D01*
X0000419291Y0001469651D01*
X0000419291Y0001427165D01*
X0000461747Y0001427165D01*
X0000464632Y0001435355D01*
X0000459590Y0001447529D01*
X0000446020Y0001463211D01*
X0000427481Y0001472506D01*
X0000419291Y0001469651D01*
X0000407480Y0001469651D01*
X0000399289Y0001472506D01*
X0000380751Y0001463211D01*
X0000367181Y0001447529D01*
X0000362139Y0001435355D01*
X0000279733Y0001435355D01*
X0000278491Y0001441599D01*
X0000266970Y0001458842D01*
X0000249727Y0001470363D01*
X0000229387Y0001474409D01*
X0000227305Y0001474409D01*
X0000206965Y0001470363D01*
X0000189722Y0001458842D01*
X0000178201Y0001441599D01*
X0000178149Y0001441339D01*
X0000178149Y0001590157D01*
X0000178201Y0001589896D01*
X0000189722Y0001572653D01*
X0000206965Y0001561132D01*
X0000227305Y0001557086D01*
X0000229387Y0001557086D01*
X0000249727Y0001561132D01*
X0000266970Y0001572653D01*
X0000278491Y0001589896D01*
X0000282537Y0001610236D01*
X0000280012Y0001622928D01*
X0000357872Y0001700787D01*
X0000464962Y0001700787D01*
X0000425381Y0001661206D01*
X0000414427Y0001663385D01*
X0000412344Y0001663385D01*
X0000392005Y0001659340D01*
X0000374762Y0001647818D01*
X0000363240Y0001630575D01*
X0000359194Y0001610236D01*
X0000363240Y0001589896D01*
X0000374762Y0001572653D01*
X0000392005Y0001561132D01*
X0000412344Y0001557086D01*
X0000414427Y0001557086D01*
X0000434766Y0001561132D01*
X0000452009Y0001572653D01*
X0000463530Y0001589896D01*
X0000465482Y0001599710D01*
X0000545266Y0001599710D01*
X0000553340Y0001580168D01*
X0000568279Y0001565204D01*
X0000587806Y0001557095D01*
X0000608950Y0001557077D01*
X0000628492Y0001565151D01*
X0000643456Y0001580090D01*
X0000651565Y0001599617D01*
X0000651583Y0001620761D01*
X0000643509Y0001640303D01*
X0000628571Y0001655267D01*
X0000611267Y0001662453D01*
X0000724389Y0001662453D01*
X0000734216Y0001642472D01*
X0000750942Y0001627773D01*
X0000764815Y0001622027D01*
X0000773622Y0001624860D01*
X0000773622Y0001671259D01*
X0000785433Y0001671259D01*
X0000785433Y0001624860D01*
X0000794239Y0001622027D01*
X0000808112Y0001627773D01*
X0000824838Y0001642472D01*
X0000834665Y0001662453D01*
X0000831859Y0001671259D01*
X0000785433Y0001671259D01*
X0000773622Y0001671259D01*
X0000727196Y0001671259D01*
X0000724389Y0001662453D01*
X0000611267Y0001662453D01*
X0000609043Y0001663376D01*
X0000587899Y0001663395D01*
X0000568357Y0001655320D01*
X0000553393Y0001640382D01*
X0000545284Y0001620854D01*
X0000545266Y0001599710D01*
X0000465482Y0001599710D01*
X0000467576Y0001610236D01*
X0000465052Y0001622928D01*
X0000507478Y0001665354D01*
X0000596614Y0001665354D01*
X0000607160Y0001667452D01*
X0000616101Y0001673426D01*
X0000692281Y0001749606D01*
X0000722113Y0001749606D01*
X0000722113Y0001737815D01*
X0000723349Y0001731249D01*
X0000727229Y0001725220D01*
X0000733149Y0001721174D01*
X0000740177Y0001719751D01*
X0000743198Y0001719751D01*
X0000734216Y0001711857D01*
X0000724389Y0001691877D01*
X0000727196Y0001683070D01*
X0000773622Y0001683070D01*
X0000773622Y0001683858D01*
X0000785433Y0001683858D01*
X0000785433Y0001683070D01*
X0000831859Y0001683070D01*
X0000834665Y0001691877D01*
X0000824838Y0001711857D01*
X0000815856Y0001719751D01*
X0000818877Y0001719751D01*
X0000825442Y0001720987D01*
X0000831472Y0001724867D01*
X0000835518Y0001730787D01*
X0000836941Y0001737815D01*
X0000836941Y0001816515D01*
X0000835705Y0001823080D01*
X0000831825Y0001829110D01*
X0000825905Y0001833155D01*
X0000818877Y0001834578D01*
X0000740177Y0001834578D01*
X0000733612Y0001833343D01*
X0000727582Y0001829463D01*
X0000723537Y0001823543D01*
X0000722113Y0001816515D01*
X0000722113Y0001804724D01*
X0000680866Y0001804724D01*
X0000670319Y0001802626D01*
X0000661378Y0001796652D01*
X0000650319Y0001785593D01*
X0000651565Y0001788594D01*
X0000651583Y0001809738D01*
X0000650514Y0001812327D01*
X0000706690Y0001868503D01*
X0000729880Y0001868503D01*
X0000739175Y0001854592D01*
X0000757689Y0001842222D01*
X0000779527Y0001837878D01*
X0000801365Y0001842222D01*
X0000819879Y0001854592D01*
X0000832250Y0001873106D01*
X0000836594Y0001894945D01*
X0000836594Y0001897180D01*
X0000832250Y0001919019D01*
X0000819879Y0001937533D01*
X0000818209Y0001938649D01*
X0000818877Y0001938649D01*
X0000825442Y0001939884D01*
X0000831472Y0001943764D01*
X0000835518Y0001949685D01*
X0000836941Y0001956712D01*
X0000836941Y0002035412D01*
X0000835705Y0002041978D01*
X0000831825Y0002048008D01*
X0000825905Y0002052053D01*
X0000818877Y0002053476D01*
X0000740177Y0002053476D01*
X0000733612Y0002052241D01*
X0000727582Y0002048361D01*
X0000723537Y0002042440D01*
X0000722113Y0002035412D01*
X0000722113Y0001956712D01*
X0000723349Y0001950147D01*
X0000727229Y0001944117D01*
X0000733149Y0001940072D01*
X0000740177Y0001938649D01*
X0000740845Y0001938649D01*
X0000739175Y0001937533D01*
X0000729880Y0001923622D01*
X0000695275Y0001923622D01*
X0000684729Y0001921524D01*
X0000675788Y0001915550D01*
X0000675788Y0001915550D01*
X0000611550Y0001851312D01*
X0000609043Y0001852352D01*
X0000587899Y0001852371D01*
X0000568357Y0001844296D01*
X0000553393Y0001829358D01*
X0000545284Y0001809831D01*
X0000545266Y0001788686D01*
X0000546336Y0001786097D01*
X0000516143Y0001755905D01*
X0000443316Y0001755905D01*
X0000446020Y0001757260D01*
X0000459590Y0001772942D01*
X0000464632Y0001785116D01*
X0000461747Y0001793307D01*
X0000419291Y0001793307D01*
X0000419291Y0001792519D01*
X0000407480Y0001792519D01*
X0000407480Y0001793307D01*
X0000365024Y0001793307D01*
X0000362139Y0001785116D01*
X0000367181Y0001772942D01*
X0000380751Y0001757260D01*
X0000383454Y0001755905D01*
X0000346456Y0001755905D01*
X0000335910Y0001753807D01*
X0000326969Y0001747833D01*
X0000240342Y0001661206D01*
X0000229387Y0001663385D01*
X0000227305Y0001663385D01*
X0000206965Y0001659340D01*
X0000189722Y0001647818D01*
X0000178201Y0001630575D01*
X0000178149Y0001630315D01*
X0000178149Y0001779133D01*
X0000178201Y0001778873D01*
X0000189722Y0001761630D01*
X0000206965Y0001750108D01*
X0000227305Y0001746062D01*
X0000229387Y0001746062D01*
X0000249727Y0001750108D01*
X0000266970Y0001761630D01*
X0000278491Y0001778873D01*
X0000282537Y0001799212D01*
X0000279733Y0001813308D01*
X0000362139Y0001813308D01*
X0000365024Y0001805118D01*
X0000407480Y0001805118D01*
X0000407480Y0001847604D01*
X0000419291Y0001847604D01*
X0000419291Y0001805118D01*
X0000461747Y0001805118D01*
X0000464632Y0001813308D01*
X0000459590Y0001825482D01*
X0000446020Y0001841164D01*
X0000427481Y0001850459D01*
X0000419291Y0001847604D01*
X0000407480Y0001847604D01*
X0000399289Y0001850459D01*
X0000380751Y0001841164D01*
X0000367181Y0001825482D01*
X0000362139Y0001813308D01*
X0000279733Y0001813308D01*
X0000278491Y0001819552D01*
X0000266970Y0001836795D01*
X0000249727Y0001848316D01*
X0000229387Y0001852362D01*
X0000227305Y0001852362D01*
X0000206965Y0001848316D01*
X0000189722Y0001836795D01*
X0000178201Y0001819552D01*
X0000178149Y0001819291D01*
X0000178149Y0002008876D01*
X0000267716Y0002008876D01*
X0000267716Y0002006871D01*
X0000271612Y0001987285D01*
X0000282707Y0001970680D01*
X0000299311Y0001959586D01*
X0000318897Y0001955690D01*
X0000338483Y0001959586D01*
X0000355088Y0001970680D01*
X0000366182Y0001987285D01*
X0000368897Y0002000933D01*
X0000371612Y0001987285D01*
X0000382707Y0001970680D01*
X0000399311Y0001959586D01*
X0000418897Y0001955690D01*
X0000438483Y0001959586D01*
X0000455088Y0001970680D01*
X0000466182Y0001987285D01*
X0000467716Y0001994995D01*
X0000467716Y0001970885D01*
X0000470413Y0001964373D01*
X0000475397Y0001959390D01*
X0000481909Y0001956692D01*
X0000508562Y0001956692D01*
X0000512992Y0001961122D01*
X0000512992Y0002001968D01*
X0000524803Y0002001968D01*
X0000524803Y0001961122D01*
X0000529232Y0001956692D01*
X0000555886Y0001956692D01*
X0000562397Y0001959390D01*
X0000567381Y0001964373D01*
X0000570078Y0001970885D01*
X0000570078Y0001997539D01*
X0000565649Y0002001968D01*
X0000524803Y0002001968D01*
X0000512992Y0002001968D01*
X0000512204Y0002001968D01*
X0000512204Y0002013779D01*
X0000512992Y0002013779D01*
X0000512992Y0002054625D01*
X0000524803Y0002054625D01*
X0000524803Y0002013779D01*
X0000565649Y0002013779D01*
X0000570078Y0002018208D01*
X0000570078Y0002044862D01*
X0000567381Y0002051374D01*
X0000562397Y0002056357D01*
X0000555886Y0002059055D01*
X0000529232Y0002059055D01*
X0000524803Y0002054625D01*
X0000512992Y0002054625D01*
X0000508562Y0002059055D01*
X0000481909Y0002059055D01*
X0000475397Y0002056357D01*
X0000470413Y0002051374D01*
X0000467716Y0002044862D01*
X0000467716Y0002020752D01*
X0000466182Y0002028462D01*
X0000455088Y0002045067D01*
X0000438483Y0002056161D01*
X0000418897Y0002060057D01*
X0000399311Y0002056161D01*
X0000382707Y0002045067D01*
X0000371612Y0002028462D01*
X0000368897Y0002014814D01*
X0000366182Y0002028462D01*
X0000355088Y0002045067D01*
X0000338483Y0002056161D01*
X0000318897Y0002060057D01*
X0000299311Y0002056161D01*
X0000282707Y0002045067D01*
X0000271612Y0002028462D01*
X0000267716Y0002008876D01*
X0000178149Y0002008876D01*
X0000178149Y0002065944D01*
X0000884842Y0002065944D01*
X0000884842Y0001123031D01*
X0000884842Y0001123031D01*
G37*
X0000884842Y0001123031D02*
X0000178149Y0001123031D01*
X0000178149Y0001211023D01*
X0000178201Y0001210762D01*
X0000189722Y0001193519D01*
X0000206965Y0001181998D01*
X0000227305Y0001177952D01*
X0000229387Y0001177952D01*
X0000249727Y0001181998D01*
X0000266970Y0001193519D01*
X0000278491Y0001210762D01*
X0000282537Y0001231102D01*
X0000359194Y0001231102D01*
X0000363240Y0001210762D01*
X0000374762Y0001193519D01*
X0000392005Y0001181998D01*
X0000412344Y0001177952D01*
X0000414427Y0001177952D01*
X0000434766Y0001181998D01*
X0000452009Y0001193519D01*
X0000463530Y0001210762D01*
X0000465482Y0001220576D01*
X0000545266Y0001220576D01*
X0000553340Y0001201034D01*
X0000568279Y0001186070D01*
X0000587806Y0001177962D01*
X0000608950Y0001177943D01*
X0000628492Y0001186018D01*
X0000643456Y0001200956D01*
X0000651565Y0001220483D01*
X0000651583Y0001241628D01*
X0000650514Y0001244217D01*
X0000671651Y0001265354D01*
X0000722113Y0001265354D01*
X0000722113Y0001253563D01*
X0000723349Y0001246998D01*
X0000727229Y0001240968D01*
X0000733149Y0001236922D01*
X0000740177Y0001235499D01*
X0000740845Y0001235499D01*
X0000739175Y0001234383D01*
X0000726804Y0001215869D01*
X0000722461Y0001194031D01*
X0000722461Y0001191795D01*
X0000726804Y0001169956D01*
X0000739175Y0001151443D01*
X0000757689Y0001139072D01*
X0000779527Y0001134728D01*
X0000801365Y0001139072D01*
X0000819879Y0001151443D01*
X0000832250Y0001169956D01*
X0000836594Y0001191795D01*
X0000836594Y0001194031D01*
X0000832250Y0001215869D01*
X0000819879Y0001234383D01*
X0000818209Y0001235499D01*
X0000818877Y0001235499D01*
X0000825442Y0001236735D01*
X0000831472Y0001240615D01*
X0000835518Y0001246535D01*
X0000836941Y0001253563D01*
X0000836941Y0001332263D01*
X0000835705Y0001338828D01*
X0000831825Y0001344858D01*
X0000825905Y0001348903D01*
X0000818877Y0001350327D01*
X0000740177Y0001350327D01*
X0000733612Y0001349091D01*
X0000727582Y0001345211D01*
X0000723537Y0001339291D01*
X0000722113Y0001332263D01*
X0000722113Y0001320472D01*
X0000660236Y0001320472D01*
X0000649689Y0001318374D01*
X0000649689Y0001318374D01*
X0000649689Y0001318374D01*
X0000640749Y0001312400D01*
X0000611550Y0001283201D01*
X0000609043Y0001284242D01*
X0000587899Y0001284261D01*
X0000568357Y0001276186D01*
X0000553393Y0001261248D01*
X0000545284Y0001241720D01*
X0000545266Y0001220576D01*
X0000465482Y0001220576D01*
X0000467576Y0001231102D01*
X0000463530Y0001251441D01*
X0000452009Y0001268684D01*
X0000440944Y0001276077D01*
X0000440944Y0001309293D01*
X0000545268Y0001413617D01*
X0000545266Y0001410734D01*
X0000553340Y0001391192D01*
X0000568279Y0001376228D01*
X0000587806Y0001368119D01*
X0000608950Y0001368100D01*
X0000628492Y0001376175D01*
X0000643456Y0001391113D01*
X0000646596Y0001398673D01*
X0000724389Y0001398673D01*
X0000734216Y0001378693D01*
X0000750942Y0001363994D01*
X0000764815Y0001358248D01*
X0000773622Y0001361080D01*
X0000773622Y0001407480D01*
X0000785433Y0001407480D01*
X0000785433Y0001361080D01*
X0000794239Y0001358248D01*
X0000808112Y0001363994D01*
X0000824838Y0001378693D01*
X0000834665Y0001398673D01*
X0000831859Y0001407480D01*
X0000785433Y0001407480D01*
X0000773622Y0001407480D01*
X0000727196Y0001407480D01*
X0000724389Y0001398673D01*
X0000646596Y0001398673D01*
X0000651565Y0001410641D01*
X0000651583Y0001431785D01*
X0000643509Y0001451327D01*
X0000628571Y0001466291D01*
X0000609043Y0001474400D01*
X0000606054Y0001474402D01*
X0000617478Y0001485826D01*
X0000722113Y0001485826D01*
X0000722113Y0001474035D01*
X0000723349Y0001467470D01*
X0000727229Y0001461440D01*
X0000733149Y0001457395D01*
X0000740177Y0001455972D01*
X0000743198Y0001455972D01*
X0000734216Y0001448078D01*
X0000724389Y0001428097D01*
X0000727196Y0001419291D01*
X0000773622Y0001419291D01*
X0000773622Y0001420078D01*
X0000785433Y0001420078D01*
X0000785433Y0001419291D01*
X0000831859Y0001419291D01*
X0000834665Y0001428097D01*
X0000824838Y0001448078D01*
X0000815856Y0001455972D01*
X0000818877Y0001455972D01*
X0000825442Y0001457207D01*
X0000831472Y0001461087D01*
X0000835518Y0001467008D01*
X0000836941Y0001474035D01*
X0000836941Y0001552735D01*
X0000835705Y0001559301D01*
X0000831825Y0001565331D01*
X0000825905Y0001569376D01*
X0000818877Y0001570799D01*
X0000740177Y0001570799D01*
X0000733612Y0001569564D01*
X0000727582Y0001565683D01*
X0000723537Y0001559763D01*
X0000722113Y0001552735D01*
X0000722113Y0001540944D01*
X0000606062Y0001540944D01*
X0000595516Y0001538847D01*
X0000595516Y0001538847D01*
X0000595516Y0001538847D01*
X0000586575Y0001532872D01*
X0000463651Y0001409948D01*
X0000461747Y0001415354D01*
X0000419291Y0001415354D01*
X0000419291Y0001372867D01*
X0000424689Y0001370986D01*
X0000393898Y0001340195D01*
X0000387924Y0001331255D01*
X0000387924Y0001331255D01*
X0000385826Y0001320708D01*
X0000385826Y0001276077D01*
X0000374762Y0001268684D01*
X0000363240Y0001251441D01*
X0000359194Y0001231102D01*
X0000282537Y0001231102D01*
X0000278491Y0001251441D01*
X0000266970Y0001268684D01*
X0000249727Y0001280206D01*
X0000229387Y0001284251D01*
X0000227305Y0001284251D01*
X0000206965Y0001280206D01*
X0000189722Y0001268684D01*
X0000178201Y0001251441D01*
X0000178149Y0001251181D01*
X0000178149Y0001401180D01*
X0000178201Y0001400920D01*
X0000189722Y0001383677D01*
X0000206965Y0001372155D01*
X0000227305Y0001368110D01*
X0000229387Y0001368110D01*
X0000249727Y0001372155D01*
X0000266970Y0001383677D01*
X0000278491Y0001400920D01*
X0000279733Y0001407164D01*
X0000362139Y0001407164D01*
X0000367181Y0001394990D01*
X0000380751Y0001379308D01*
X0000399289Y0001370012D01*
X0000407480Y0001372867D01*
X0000407480Y0001415354D01*
X0000365024Y0001415354D01*
X0000362139Y0001407164D01*
X0000279733Y0001407164D01*
X0000282537Y0001421259D01*
X0000279733Y0001435355D01*
X0000362139Y0001435355D01*
X0000365024Y0001427165D01*
X0000407480Y0001427165D01*
X0000407480Y0001469651D01*
X0000419291Y0001469651D01*
X0000419291Y0001427165D01*
X0000461747Y0001427165D01*
X0000464632Y0001435355D01*
X0000459590Y0001447529D01*
X0000446020Y0001463211D01*
X0000427481Y0001472506D01*
X0000419291Y0001469651D01*
X0000407480Y0001469651D01*
X0000399289Y0001472506D01*
X0000380751Y0001463211D01*
X0000367181Y0001447529D01*
X0000362139Y0001435355D01*
X0000279733Y0001435355D01*
X0000278491Y0001441599D01*
X0000266970Y0001458842D01*
X0000249727Y0001470363D01*
X0000229387Y0001474409D01*
X0000227305Y0001474409D01*
X0000206965Y0001470363D01*
X0000189722Y0001458842D01*
X0000178201Y0001441599D01*
X0000178149Y0001441339D01*
X0000178149Y0001590157D01*
X0000178201Y0001589896D01*
X0000189722Y0001572653D01*
X0000206965Y0001561132D01*
X0000227305Y0001557086D01*
X0000229387Y0001557086D01*
X0000249727Y0001561132D01*
X0000266970Y0001572653D01*
X0000278491Y0001589896D01*
X0000282537Y0001610236D01*
X0000280012Y0001622928D01*
X0000357872Y0001700787D01*
X0000464962Y0001700787D01*
X0000425381Y0001661206D01*
X0000414427Y0001663385D01*
X0000412344Y0001663385D01*
X0000392005Y0001659340D01*
X0000374762Y0001647818D01*
X0000363240Y0001630575D01*
X0000359194Y0001610236D01*
X0000363240Y0001589896D01*
X0000374762Y0001572653D01*
X0000392005Y0001561132D01*
X0000412344Y0001557086D01*
X0000414427Y0001557086D01*
X0000434766Y0001561132D01*
X0000452009Y0001572653D01*
X0000463530Y0001589896D01*
X0000465482Y0001599710D01*
X0000545266Y0001599710D01*
X0000553340Y0001580168D01*
X0000568279Y0001565204D01*
X0000587806Y0001557095D01*
X0000608950Y0001557077D01*
X0000628492Y0001565151D01*
X0000643456Y0001580090D01*
X0000651565Y0001599617D01*
X0000651583Y0001620761D01*
X0000643509Y0001640303D01*
X0000628571Y0001655267D01*
X0000611267Y0001662453D01*
X0000724389Y0001662453D01*
X0000734216Y0001642472D01*
X0000750942Y0001627773D01*
X0000764815Y0001622027D01*
X0000773622Y0001624860D01*
X0000773622Y0001671259D01*
X0000785433Y0001671259D01*
X0000785433Y0001624860D01*
X0000794239Y0001622027D01*
X0000808112Y0001627773D01*
X0000824838Y0001642472D01*
X0000834665Y0001662453D01*
X0000831859Y0001671259D01*
X0000785433Y0001671259D01*
X0000773622Y0001671259D01*
X0000727196Y0001671259D01*
X0000724389Y0001662453D01*
X0000611267Y0001662453D01*
X0000609043Y0001663376D01*
X0000587899Y0001663395D01*
X0000568357Y0001655320D01*
X0000553393Y0001640382D01*
X0000545284Y0001620854D01*
X0000545266Y0001599710D01*
X0000465482Y0001599710D01*
X0000467576Y0001610236D01*
X0000465052Y0001622928D01*
X0000507478Y0001665354D01*
X0000596614Y0001665354D01*
X0000607160Y0001667452D01*
X0000616101Y0001673426D01*
X0000692281Y0001749606D01*
X0000722113Y0001749606D01*
X0000722113Y0001737815D01*
X0000723349Y0001731249D01*
X0000727229Y0001725220D01*
X0000733149Y0001721174D01*
X0000740177Y0001719751D01*
X0000743198Y0001719751D01*
X0000734216Y0001711857D01*
X0000724389Y0001691877D01*
X0000727196Y0001683070D01*
X0000773622Y0001683070D01*
X0000773622Y0001683858D01*
X0000785433Y0001683858D01*
X0000785433Y0001683070D01*
X0000831859Y0001683070D01*
X0000834665Y0001691877D01*
X0000824838Y0001711857D01*
X0000815856Y0001719751D01*
X0000818877Y0001719751D01*
X0000825442Y0001720987D01*
X0000831472Y0001724867D01*
X0000835518Y0001730787D01*
X0000836941Y0001737815D01*
X0000836941Y0001816515D01*
X0000835705Y0001823080D01*
X0000831825Y0001829110D01*
X0000825905Y0001833155D01*
X0000818877Y0001834578D01*
X0000740177Y0001834578D01*
X0000733612Y0001833343D01*
X0000727582Y0001829463D01*
X0000723537Y0001823543D01*
X0000722113Y0001816515D01*
X0000722113Y0001804724D01*
X0000680866Y0001804724D01*
X0000670319Y0001802626D01*
X0000661378Y0001796652D01*
X0000650319Y0001785593D01*
X0000651565Y0001788594D01*
X0000651583Y0001809738D01*
X0000650514Y0001812327D01*
X0000706690Y0001868503D01*
X0000729880Y0001868503D01*
X0000739175Y0001854592D01*
X0000757689Y0001842222D01*
X0000779527Y0001837878D01*
X0000801365Y0001842222D01*
X0000819879Y0001854592D01*
X0000832250Y0001873106D01*
X0000836594Y0001894945D01*
X0000836594Y0001897180D01*
X0000832250Y0001919019D01*
X0000819879Y0001937533D01*
X0000818209Y0001938649D01*
X0000818877Y0001938649D01*
X0000825442Y0001939884D01*
X0000831472Y0001943764D01*
X0000835518Y0001949685D01*
X0000836941Y0001956712D01*
X0000836941Y0002035412D01*
X0000835705Y0002041978D01*
X0000831825Y0002048008D01*
X0000825905Y0002052053D01*
X0000818877Y0002053476D01*
X0000740177Y0002053476D01*
X0000733612Y0002052241D01*
X0000727582Y0002048361D01*
X0000723537Y0002042440D01*
X0000722113Y0002035412D01*
X0000722113Y0001956712D01*
X0000723349Y0001950147D01*
X0000727229Y0001944117D01*
X0000733149Y0001940072D01*
X0000740177Y0001938649D01*
X0000740845Y0001938649D01*
X0000739175Y0001937533D01*
X0000729880Y0001923622D01*
X0000695275Y0001923622D01*
X0000684729Y0001921524D01*
X0000675788Y0001915550D01*
X0000675788Y0001915550D01*
X0000611550Y0001851312D01*
X0000609043Y0001852352D01*
X0000587899Y0001852371D01*
X0000568357Y0001844296D01*
X0000553393Y0001829358D01*
X0000545284Y0001809831D01*
X0000545266Y0001788686D01*
X0000546336Y0001786097D01*
X0000516143Y0001755905D01*
X0000443316Y0001755905D01*
X0000446020Y0001757260D01*
X0000459590Y0001772942D01*
X0000464632Y0001785116D01*
X0000461747Y0001793307D01*
X0000419291Y0001793307D01*
X0000419291Y0001792519D01*
X0000407480Y0001792519D01*
X0000407480Y0001793307D01*
X0000365024Y0001793307D01*
X0000362139Y0001785116D01*
X0000367181Y0001772942D01*
X0000380751Y0001757260D01*
X0000383454Y0001755905D01*
X0000346456Y0001755905D01*
X0000335910Y0001753807D01*
X0000326969Y0001747833D01*
X0000240342Y0001661206D01*
X0000229387Y0001663385D01*
X0000227305Y0001663385D01*
X0000206965Y0001659340D01*
X0000189722Y0001647818D01*
X0000178201Y0001630575D01*
X0000178149Y0001630315D01*
X0000178149Y0001779133D01*
X0000178201Y0001778873D01*
X0000189722Y0001761630D01*
X0000206965Y0001750108D01*
X0000227305Y0001746062D01*
X0000229387Y0001746062D01*
X0000249727Y0001750108D01*
X0000266970Y0001761630D01*
X0000278491Y0001778873D01*
X0000282537Y0001799212D01*
X0000279733Y0001813308D01*
X0000362139Y0001813308D01*
X0000365024Y0001805118D01*
X0000407480Y0001805118D01*
X0000407480Y0001847604D01*
X0000419291Y0001847604D01*
X0000419291Y0001805118D01*
X0000461747Y0001805118D01*
X0000464632Y0001813308D01*
X0000459590Y0001825482D01*
X0000446020Y0001841164D01*
X0000427481Y0001850459D01*
X0000419291Y0001847604D01*
X0000407480Y0001847604D01*
X0000399289Y0001850459D01*
X0000380751Y0001841164D01*
X0000367181Y0001825482D01*
X0000362139Y0001813308D01*
X0000279733Y0001813308D01*
X0000278491Y0001819552D01*
X0000266970Y0001836795D01*
X0000249727Y0001848316D01*
X0000229387Y0001852362D01*
X0000227305Y0001852362D01*
X0000206965Y0001848316D01*
X0000189722Y0001836795D01*
X0000178201Y0001819552D01*
X0000178149Y0001819291D01*
X0000178149Y0002008876D01*
X0000267716Y0002008876D01*
X0000267716Y0002006871D01*
X0000271612Y0001987285D01*
X0000282707Y0001970680D01*
X0000299311Y0001959586D01*
X0000318897Y0001955690D01*
X0000338483Y0001959586D01*
X0000355088Y0001970680D01*
X0000366182Y0001987285D01*
X0000368897Y0002000933D01*
X0000371612Y0001987285D01*
X0000382707Y0001970680D01*
X0000399311Y0001959586D01*
X0000418897Y0001955690D01*
X0000438483Y0001959586D01*
X0000455088Y0001970680D01*
X0000466182Y0001987285D01*
X0000467716Y0001994995D01*
X0000467716Y0001970885D01*
X0000470413Y0001964373D01*
X0000475397Y0001959390D01*
X0000481909Y0001956692D01*
X0000508562Y0001956692D01*
X0000512992Y0001961122D01*
X0000512992Y0002001968D01*
X0000524803Y0002001968D01*
X0000524803Y0001961122D01*
X0000529232Y0001956692D01*
X0000555886Y0001956692D01*
X0000562397Y0001959390D01*
X0000567381Y0001964373D01*
X0000570078Y0001970885D01*
X0000570078Y0001997539D01*
X0000565649Y0002001968D01*
X0000524803Y0002001968D01*
X0000512992Y0002001968D01*
X0000512204Y0002001968D01*
X0000512204Y0002013779D01*
X0000512992Y0002013779D01*
X0000512992Y0002054625D01*
X0000524803Y0002054625D01*
X0000524803Y0002013779D01*
X0000565649Y0002013779D01*
X0000570078Y0002018208D01*
X0000570078Y0002044862D01*
X0000567381Y0002051374D01*
X0000562397Y0002056357D01*
X0000555886Y0002059055D01*
X0000529232Y0002059055D01*
X0000524803Y0002054625D01*
X0000512992Y0002054625D01*
X0000508562Y0002059055D01*
X0000481909Y0002059055D01*
X0000475397Y0002056357D01*
X0000470413Y0002051374D01*
X0000467716Y0002044862D01*
X0000467716Y0002020752D01*
X0000466182Y0002028462D01*
X0000455088Y0002045067D01*
X0000438483Y0002056161D01*
X0000418897Y0002060057D01*
X0000399311Y0002056161D01*
X0000382707Y0002045067D01*
X0000371612Y0002028462D01*
X0000368897Y0002014814D01*
X0000366182Y0002028462D01*
X0000355088Y0002045067D01*
X0000338483Y0002056161D01*
X0000318897Y0002060057D01*
X0000299311Y0002056161D01*
X0000282707Y0002045067D01*
X0000271612Y0002028462D01*
X0000267716Y0002008876D01*
X0000178149Y0002008876D01*
X0000178149Y0002065944D01*
X0000884842Y0002065944D01*
X0000884842Y0001123031D01*
G04 next file*
G04 #@! TF.FileFunction,Copper,L2,Bot,Signal*
G04 Gerber Fmt 4.6, Leading zero omitted, Abs format (unit mm)*
G04 Created by KiCad (PCBNEW 4.0.4-1.fc24-product) date Tue Jun 12 10:11:38 2018*
G01G01*
G04 APERTURE LIST*
G04 APERTURE END LIST*
D70*
D71*
X-0002322834Y-0002795275D02*
X0001240157Y0002732283D03*
D72*
X0001425196Y0002732283D03*
D71*
X0001055118Y0002732283D03*
D72*
X0001425196Y0002922440D03*
D71*
X0001240157Y0002922440D03*
X0001055118Y0002922440D03*
D73*
X0001036220Y0003114173D03*
D74*
X0001136220Y0003114173D03*
X0001236220Y0003114173D03*
D73*
X0001340944Y0003114173D03*
D74*
X0001440944Y0003114173D03*
D75*
X0001055118Y0002922440D02*
X0001055118Y0002921259D01*
X0001055118Y0002921259D02*
X0001161417Y0002814960D01*
X0001161417Y0002814960D02*
X0001342519Y0002814960D01*
X0001342519Y0002814960D02*
X0001340944Y0002816535D01*
X0001340944Y0002816535D02*
X0001340944Y0002958267D01*
X0001340944Y0002958267D02*
X0001340944Y0003114173D01*
X0001342519Y0002814960D02*
X0001389763Y0002767716D01*
X0001389763Y0002767716D02*
X0001425196Y0002732283D01*
D76*
G36*
X0001069685Y0003062645D02*
X0001076250Y0003063880D01*
X0001082280Y0003067760D01*
X0001086325Y0003073680D01*
X0001087748Y0003080708D01*
X0001087748Y0003099550D01*
X0001088935Y0003093584D01*
X0001100029Y0003076980D01*
X0001116634Y0003065885D01*
X0001136220Y0003061989D01*
X0001155806Y0003065885D01*
X0001172410Y0003076980D01*
X0001183505Y0003093584D01*
X0001186426Y0003108267D01*
X0001189809Y0003108267D01*
X0001186930Y0003100387D01*
X0001195958Y0003082574D01*
X0001211115Y0003069571D01*
X0001222434Y0003064883D01*
X0001230314Y0003067795D01*
X0001230314Y0003108267D01*
X0001229527Y0003108267D01*
X0001229527Y0003120078D01*
X0001230314Y0003120078D01*
X0001230314Y0003160550D01*
X0001222434Y0003163462D01*
X0001211115Y0003158774D01*
X0001195958Y0003145772D01*
X0001186930Y0003127959D01*
X0001189809Y0003120078D01*
X0001186426Y0003120078D01*
X0001183505Y0003134762D01*
X0001172410Y0003151366D01*
X0001155806Y0003162461D01*
X0001136220Y0003166357D01*
X0001116634Y0003162461D01*
X0001100029Y0003151366D01*
X0001088935Y0003134762D01*
X0001087748Y0003128796D01*
X0001087748Y0003147637D01*
X0001086513Y0003154203D01*
X0001082633Y0003160232D01*
X0001076712Y0003164278D01*
X0001069685Y0003165701D01*
X0001004921Y0003165701D01*
X0001004921Y0003168307D01*
X0001475393Y0003168307D01*
X0001475393Y0003150759D01*
X0001466050Y0003158774D01*
X0001454730Y0003163462D01*
X0001446850Y0003160550D01*
X0001446850Y0003120078D01*
X0001447637Y0003120078D01*
X0001447637Y0003108267D01*
X0001446850Y0003108267D01*
X0001446850Y0003067795D01*
X0001454730Y0003064883D01*
X0001466050Y0003069571D01*
X0001475393Y0003077587D01*
X0001475393Y0002941732D01*
X0001472248Y0002949326D01*
X0001464310Y0002953203D01*
X0001433548Y0002922440D01*
X0001464310Y0002891678D01*
X0001472248Y0002895555D01*
X0001475393Y0002904960D01*
X0001475393Y0002749977D01*
X0001470281Y0002762350D01*
X0001455342Y0002777315D01*
X0001435815Y0002785423D01*
X0001418363Y0002785439D01*
X0001418363Y0002868682D01*
X0001439456Y0002870159D01*
X0001452082Y0002875389D01*
X0001455959Y0002883326D01*
X0001425196Y0002914089D01*
X0001425196Y0002930792D01*
X0001455959Y0002961554D01*
X0001452082Y0002969492D01*
X0001432029Y0002976199D01*
X0001410937Y0002974722D01*
X0001398311Y0002969492D01*
X0001394434Y0002961554D01*
X0001425196Y0002930792D01*
X0001425196Y0002914089D01*
X0001394434Y0002883326D01*
X0001398311Y0002875389D01*
X0001418363Y0002868682D01*
X0001418363Y0002785439D01*
X0001414671Y0002785442D01*
X0001412082Y0002784372D01*
X0001386082Y0002810371D01*
X0001386082Y0002891678D01*
X0001416845Y0002922440D01*
X0001386082Y0002953203D01*
X0001378145Y0002949326D01*
X0001371438Y0002929273D01*
X0001372915Y0002908181D01*
X0001378145Y0002895555D01*
X0001386082Y0002891678D01*
X0001386082Y0002810371D01*
X0001368503Y0002827950D01*
X0001368503Y0003062645D01*
X0001374409Y0003062645D01*
X0001380974Y0003063880D01*
X0001387004Y0003067760D01*
X0001391049Y0003073680D01*
X0001392473Y0003080708D01*
X0001392473Y0003098772D01*
X0001400682Y0003082574D01*
X0001415839Y0003069571D01*
X0001427159Y0003064883D01*
X0001435039Y0003067795D01*
X0001435039Y0003108267D01*
X0001434251Y0003108267D01*
X0001434251Y0003120078D01*
X0001435039Y0003120078D01*
X0001435039Y0003160550D01*
X0001427159Y0003163462D01*
X0001415839Y0003158774D01*
X0001400682Y0003145772D01*
X0001392473Y0003129573D01*
X0001392473Y0003147637D01*
X0001391237Y0003154203D01*
X0001387357Y0003160232D01*
X0001381437Y0003164278D01*
X0001374409Y0003165701D01*
X0001307480Y0003165701D01*
X0001300914Y0003164466D01*
X0001294885Y0003160585D01*
X0001290839Y0003154665D01*
X0001289416Y0003147637D01*
X0001289416Y0003080708D01*
X0001290652Y0003074143D01*
X0001294532Y0003068113D01*
X0001300452Y0003064068D01*
X0001307480Y0003062645D01*
X0001313385Y0003062645D01*
X0001313385Y0002842519D01*
X0001239116Y0002842519D01*
X0001239116Y0002869291D01*
X0001241198Y0002869291D01*
X0001261538Y0002873337D01*
X0001278781Y0002884858D01*
X0001290302Y0002902101D01*
X0001294348Y0002922440D01*
X0001290302Y0002942780D01*
X0001278781Y0002960023D01*
X0001261538Y0002971544D01*
X0001250006Y0002973838D01*
X0001250006Y0003064883D01*
X0001261325Y0003069571D01*
X0001276482Y0003082574D01*
X0001285510Y0003100387D01*
X0001282631Y0003108267D01*
X0001242125Y0003108267D01*
X0001242125Y0003120078D01*
X0001282631Y0003120078D01*
X0001285510Y0003127959D01*
X0001276482Y0003145772D01*
X0001261325Y0003158774D01*
X0001250006Y0003163462D01*
X0001242125Y0003160550D01*
X0001242125Y0003120078D01*
X0001242125Y0003108267D01*
X0001242125Y0003067795D01*
X0001250006Y0003064883D01*
X0001250006Y0002973838D01*
X0001241198Y0002975590D01*
X0001239116Y0002975590D01*
X0001218776Y0002971544D01*
X0001201533Y0002960023D01*
X0001190012Y0002942780D01*
X0001185966Y0002922440D01*
X0001190012Y0002902101D01*
X0001201533Y0002884858D01*
X0001218776Y0002873337D01*
X0001239116Y0002869291D01*
X0001239116Y0002842519D01*
X0001172832Y0002842519D01*
X0001106588Y0002908763D01*
X0001109308Y0002922440D01*
X0001105263Y0002942780D01*
X0001093741Y0002960023D01*
X0001076498Y0002971544D01*
X0001056159Y0002975590D01*
X0001054076Y0002975590D01*
X0001033737Y0002971544D01*
X0001016494Y0002960023D01*
X0001004973Y0002942780D01*
X0001004921Y0002942520D01*
X0001004921Y0003062645D01*
X0001069685Y0003062645D01*
X0001069685Y0003062645D01*
G37*
X0001069685Y0003062645D02*
X0001076250Y0003063880D01*
X0001082280Y0003067760D01*
X0001086325Y0003073680D01*
X0001087748Y0003080708D01*
X0001087748Y0003099550D01*
X0001088935Y0003093584D01*
X0001100029Y0003076980D01*
X0001116634Y0003065885D01*
X0001136220Y0003061989D01*
X0001155806Y0003065885D01*
X0001172410Y0003076980D01*
X0001183505Y0003093584D01*
X0001186426Y0003108267D01*
X0001189809Y0003108267D01*
X0001186930Y0003100387D01*
X0001195958Y0003082574D01*
X0001211115Y0003069571D01*
X0001222434Y0003064883D01*
X0001230314Y0003067795D01*
X0001230314Y0003108267D01*
X0001229527Y0003108267D01*
X0001229527Y0003120078D01*
X0001230314Y0003120078D01*
X0001230314Y0003160550D01*
X0001222434Y0003163462D01*
X0001211115Y0003158774D01*
X0001195958Y0003145772D01*
X0001186930Y0003127959D01*
X0001189809Y0003120078D01*
X0001186426Y0003120078D01*
X0001183505Y0003134762D01*
X0001172410Y0003151366D01*
X0001155806Y0003162461D01*
X0001136220Y0003166357D01*
X0001116634Y0003162461D01*
X0001100029Y0003151366D01*
X0001088935Y0003134762D01*
X0001087748Y0003128796D01*
X0001087748Y0003147637D01*
X0001086513Y0003154203D01*
X0001082633Y0003160232D01*
X0001076712Y0003164278D01*
X0001069685Y0003165701D01*
X0001004921Y0003165701D01*
X0001004921Y0003168307D01*
X0001475393Y0003168307D01*
X0001475393Y0003150759D01*
X0001466050Y0003158774D01*
X0001454730Y0003163462D01*
X0001446850Y0003160550D01*
X0001446850Y0003120078D01*
X0001447637Y0003120078D01*
X0001447637Y0003108267D01*
X0001446850Y0003108267D01*
X0001446850Y0003067795D01*
X0001454730Y0003064883D01*
X0001466050Y0003069571D01*
X0001475393Y0003077587D01*
X0001475393Y0002941732D01*
X0001472248Y0002949326D01*
X0001464310Y0002953203D01*
X0001433548Y0002922440D01*
X0001464310Y0002891678D01*
X0001472248Y0002895555D01*
X0001475393Y0002904960D01*
X0001475393Y0002749977D01*
X0001470281Y0002762350D01*
X0001455342Y0002777315D01*
X0001435815Y0002785423D01*
X0001418363Y0002785439D01*
X0001418363Y0002868682D01*
X0001439456Y0002870159D01*
X0001452082Y0002875389D01*
X0001455959Y0002883326D01*
X0001425196Y0002914089D01*
X0001425196Y0002930792D01*
X0001455959Y0002961554D01*
X0001452082Y0002969492D01*
X0001432029Y0002976199D01*
X0001410937Y0002974722D01*
X0001398311Y0002969492D01*
X0001394434Y0002961554D01*
X0001425196Y0002930792D01*
X0001425196Y0002914089D01*
X0001394434Y0002883326D01*
X0001398311Y0002875389D01*
X0001418363Y0002868682D01*
X0001418363Y0002785439D01*
X0001414671Y0002785442D01*
X0001412082Y0002784372D01*
X0001386082Y0002810371D01*
X0001386082Y0002891678D01*
X0001416845Y0002922440D01*
X0001386082Y0002953203D01*
X0001378145Y0002949326D01*
X0001371438Y0002929273D01*
X0001372915Y0002908181D01*
X0001378145Y0002895555D01*
X0001386082Y0002891678D01*
X0001386082Y0002810371D01*
X0001368503Y0002827950D01*
X0001368503Y0003062645D01*
X0001374409Y0003062645D01*
X0001380974Y0003063880D01*
X0001387004Y0003067760D01*
X0001391049Y0003073680D01*
X0001392473Y0003080708D01*
X0001392473Y0003098772D01*
X0001400682Y0003082574D01*
X0001415839Y0003069571D01*
X0001427159Y0003064883D01*
X0001435039Y0003067795D01*
X0001435039Y0003108267D01*
X0001434251Y0003108267D01*
X0001434251Y0003120078D01*
X0001435039Y0003120078D01*
X0001435039Y0003160550D01*
X0001427159Y0003163462D01*
X0001415839Y0003158774D01*
X0001400682Y0003145772D01*
X0001392473Y0003129573D01*
X0001392473Y0003147637D01*
X0001391237Y0003154203D01*
X0001387357Y0003160232D01*
X0001381437Y0003164278D01*
X0001374409Y0003165701D01*
X0001307480Y0003165701D01*
X0001300914Y0003164466D01*
X0001294885Y0003160585D01*
X0001290839Y0003154665D01*
X0001289416Y0003147637D01*
X0001289416Y0003080708D01*
X0001290652Y0003074143D01*
X0001294532Y0003068113D01*
X0001300452Y0003064068D01*
X0001307480Y0003062645D01*
X0001313385Y0003062645D01*
X0001313385Y0002842519D01*
X0001239116Y0002842519D01*
X0001239116Y0002869291D01*
X0001241198Y0002869291D01*
X0001261538Y0002873337D01*
X0001278781Y0002884858D01*
X0001290302Y0002902101D01*
X0001294348Y0002922440D01*
X0001290302Y0002942780D01*
X0001278781Y0002960023D01*
X0001261538Y0002971544D01*
X0001250006Y0002973838D01*
X0001250006Y0003064883D01*
X0001261325Y0003069571D01*
X0001276482Y0003082574D01*
X0001285510Y0003100387D01*
X0001282631Y0003108267D01*
X0001242125Y0003108267D01*
X0001242125Y0003120078D01*
X0001282631Y0003120078D01*
X0001285510Y0003127959D01*
X0001276482Y0003145772D01*
X0001261325Y0003158774D01*
X0001250006Y0003163462D01*
X0001242125Y0003160550D01*
X0001242125Y0003120078D01*
X0001242125Y0003108267D01*
X0001242125Y0003067795D01*
X0001250006Y0003064883D01*
X0001250006Y0002973838D01*
X0001241198Y0002975590D01*
X0001239116Y0002975590D01*
X0001218776Y0002971544D01*
X0001201533Y0002960023D01*
X0001190012Y0002942780D01*
X0001185966Y0002922440D01*
X0001190012Y0002902101D01*
X0001201533Y0002884858D01*
X0001218776Y0002873337D01*
X0001239116Y0002869291D01*
X0001239116Y0002842519D01*
X0001172832Y0002842519D01*
X0001106588Y0002908763D01*
X0001109308Y0002922440D01*
X0001105263Y0002942780D01*
X0001093741Y0002960023D01*
X0001076498Y0002971544D01*
X0001056159Y0002975590D01*
X0001054076Y0002975590D01*
X0001033737Y0002971544D01*
X0001016494Y0002960023D01*
X0001004973Y0002942780D01*
X0001004921Y0002942520D01*
X0001004921Y0003062645D01*
X0001069685Y0003062645D01*
G36*
X0001008913Y0002706013D02*
X0001022483Y0002690331D01*
X0001041022Y0002681036D01*
X0001049212Y0002683891D01*
X0001049212Y0002726377D01*
X0001048425Y0002726377D01*
X0001048425Y0002738188D01*
X0001049212Y0002738188D01*
X0001049212Y0002780675D01*
X0001041022Y0002783530D01*
X0001022483Y0002774235D01*
X0001008913Y0002758553D01*
X0001004921Y0002748913D01*
X0001004921Y0002902361D01*
X0001004973Y0002902101D01*
X0001016494Y0002884858D01*
X0001033737Y0002873337D01*
X0001054076Y0002869291D01*
X0001056159Y0002869291D01*
X0001066129Y0002871274D01*
X0001141930Y0002795473D01*
X0001150870Y0002789499D01*
X0001150870Y0002789499D01*
X0001161417Y0002787401D01*
X0001331104Y0002787401D01*
X0001373097Y0002745408D01*
X0001372056Y0002742901D01*
X0001372038Y0002721757D01*
X0001380112Y0002702215D01*
X0001395050Y0002687251D01*
X0001414578Y0002679143D01*
X0001435722Y0002679124D01*
X0001455264Y0002687199D01*
X0001470228Y0002702137D01*
X0001475393Y0002714576D01*
X0001475393Y0002619094D01*
X0001239116Y0002619094D01*
X0001239116Y0002679133D01*
X0001241198Y0002679133D01*
X0001261538Y0002683179D01*
X0001278781Y0002694700D01*
X0001290302Y0002711943D01*
X0001294348Y0002732283D01*
X0001290302Y0002752622D01*
X0001278781Y0002769865D01*
X0001261538Y0002781387D01*
X0001241198Y0002785433D01*
X0001239116Y0002785433D01*
X0001218776Y0002781387D01*
X0001201533Y0002769865D01*
X0001190012Y0002752622D01*
X0001185966Y0002732283D01*
X0001190012Y0002711943D01*
X0001201533Y0002694700D01*
X0001218776Y0002683179D01*
X0001239116Y0002679133D01*
X0001239116Y0002619094D01*
X0001069213Y0002619094D01*
X0001069213Y0002681036D01*
X0001087752Y0002690331D01*
X0001101322Y0002706013D01*
X0001106364Y0002718187D01*
X0001103479Y0002726377D01*
X0001061023Y0002726377D01*
X0001061023Y0002738188D01*
X0001103479Y0002738188D01*
X0001106364Y0002746379D01*
X0001101322Y0002758553D01*
X0001087752Y0002774235D01*
X0001069213Y0002783530D01*
X0001061023Y0002780675D01*
X0001061023Y0002738188D01*
X0001061023Y0002726377D01*
X0001061023Y0002683891D01*
X0001069213Y0002681036D01*
X0001069213Y0002619094D01*
X0001004921Y0002619094D01*
X0001004921Y0002715653D01*
X0001008913Y0002706013D01*
X0001008913Y0002706013D01*
G37*
X0001008913Y0002706013D02*
X0001022483Y0002690331D01*
X0001041022Y0002681036D01*
X0001049212Y0002683891D01*
X0001049212Y0002726377D01*
X0001048425Y0002726377D01*
X0001048425Y0002738188D01*
X0001049212Y0002738188D01*
X0001049212Y0002780675D01*
X0001041022Y0002783530D01*
X0001022483Y0002774235D01*
X0001008913Y0002758553D01*
X0001004921Y0002748913D01*
X0001004921Y0002902361D01*
X0001004973Y0002902101D01*
X0001016494Y0002884858D01*
X0001033737Y0002873337D01*
X0001054076Y0002869291D01*
X0001056159Y0002869291D01*
X0001066129Y0002871274D01*
X0001141930Y0002795473D01*
X0001150870Y0002789499D01*
X0001150870Y0002789499D01*
X0001161417Y0002787401D01*
X0001331104Y0002787401D01*
X0001373097Y0002745408D01*
X0001372056Y0002742901D01*
X0001372038Y0002721757D01*
X0001380112Y0002702215D01*
X0001395050Y0002687251D01*
X0001414578Y0002679143D01*
X0001435722Y0002679124D01*
X0001455264Y0002687199D01*
X0001470228Y0002702137D01*
X0001475393Y0002714576D01*
X0001475393Y0002619094D01*
X0001239116Y0002619094D01*
X0001239116Y0002679133D01*
X0001241198Y0002679133D01*
X0001261538Y0002683179D01*
X0001278781Y0002694700D01*
X0001290302Y0002711943D01*
X0001294348Y0002732283D01*
X0001290302Y0002752622D01*
X0001278781Y0002769865D01*
X0001261538Y0002781387D01*
X0001241198Y0002785433D01*
X0001239116Y0002785433D01*
X0001218776Y0002781387D01*
X0001201533Y0002769865D01*
X0001190012Y0002752622D01*
X0001185966Y0002732283D01*
X0001190012Y0002711943D01*
X0001201533Y0002694700D01*
X0001218776Y0002683179D01*
X0001239116Y0002679133D01*
X0001239116Y0002619094D01*
X0001069213Y0002619094D01*
X0001069213Y0002681036D01*
X0001087752Y0002690331D01*
X0001101322Y0002706013D01*
X0001106364Y0002718187D01*
X0001103479Y0002726377D01*
X0001061023Y0002726377D01*
X0001061023Y0002738188D01*
X0001103479Y0002738188D01*
X0001106364Y0002746379D01*
X0001101322Y0002758553D01*
X0001087752Y0002774235D01*
X0001069213Y0002783530D01*
X0001061023Y0002780675D01*
X0001061023Y0002738188D01*
X0001061023Y0002726377D01*
X0001061023Y0002683891D01*
X0001069213Y0002681036D01*
X0001069213Y0002619094D01*
X0001004921Y0002619094D01*
X0001004921Y0002715653D01*
X0001008913Y0002706013D01*
M02*