G04 #@! TF.FileFunction,Legend,Bot*
%FSLAX46Y46*%
G04 Gerber Fmt 4.6, Leading zero omitted, Abs format (unit mm)*
G04 Created by KiCad (PCBNEW 4.0.4-1.fc24-product) date Mon Aug 27 11:40:59 2018*
%MOMM*%
%LPD*%
G01*
G04 APERTURE LIST*
%ADD10C,0.100000*%
%ADD11C,0.120000*%
%ADD12C,0.150000*%
G04 APERTURE END LIST*
D10*
D11*
X149760000Y-94850000D02*
X136140000Y-94850000D01*
X149760000Y-108160000D02*
X136140000Y-108160000D01*
X149760000Y-94850000D02*
X149760000Y-108160000D01*
X136140000Y-94850000D02*
X136140000Y-108160000D01*
D12*
X149360440Y-107651200D02*
X157559560Y-107651200D01*
X149360440Y-108049980D02*
X157559560Y-108049980D01*
X149360440Y-113350960D02*
X157559560Y-113350960D01*
X157559560Y-113848800D02*
X149360440Y-113848800D01*
X152159520Y-113350960D02*
X152159520Y-113848800D01*
X157358900Y-113848800D02*
X157358900Y-113350960D01*
X149558560Y-113350960D02*
X149558560Y-113848800D01*
X154757940Y-113848800D02*
X154757940Y-113350960D01*
X149360440Y-113848800D02*
X149360440Y-107651200D01*
X157557020Y-107651200D02*
X157557020Y-113848800D01*
X157930920Y-113350960D02*
X163529080Y-113350960D01*
X163330960Y-113848800D02*
X163330960Y-113350960D01*
X158129040Y-113350960D02*
X158129040Y-113848800D01*
X160730000Y-113848800D02*
X160730000Y-113350960D01*
X163529080Y-108049980D02*
X157930920Y-108049980D01*
X163529080Y-113848800D02*
X157930920Y-113848800D01*
X157930920Y-113848800D02*
X157930920Y-107651200D01*
X157930920Y-107651200D02*
X163529080Y-107651200D01*
X163529080Y-107651200D02*
X163529080Y-113848800D01*
X161325000Y-100100000D02*
X161325000Y-101100000D01*
X162675000Y-101100000D02*
X162675000Y-100100000D01*
X160275000Y-101100000D02*
X160275000Y-100100000D01*
X158925000Y-100100000D02*
X158925000Y-101100000D01*
X161099140Y-106500060D02*
X161099140Y-106149540D01*
X161099140Y-102999940D02*
X161099140Y-103350460D01*
X157049560Y-106500060D02*
X157049560Y-106149540D01*
X161550440Y-106500060D02*
X161550440Y-106149540D01*
X161550440Y-102999940D02*
X161550440Y-103350460D01*
X157049560Y-102999940D02*
X157049560Y-103350460D01*
X161550440Y-106500060D02*
X157049560Y-106500060D01*
X161550440Y-102999940D02*
X157049560Y-102999940D01*
X151150000Y-98600000D02*
X151150000Y-97600000D01*
X152850000Y-97600000D02*
X152850000Y-98600000D01*
D11*
X146870000Y-109620000D02*
X146870000Y-112280000D01*
X141730000Y-109620000D02*
X146870000Y-109620000D01*
X141730000Y-112280000D02*
X146870000Y-112280000D01*
X141730000Y-109620000D02*
X141730000Y-112280000D01*
X140460000Y-109620000D02*
X139130000Y-109620000D01*
X139130000Y-109620000D02*
X139130000Y-110950000D01*
D12*
X157157630Y-98792762D02*
X154363630Y-98792762D01*
X157157630Y-98221262D02*
X157157630Y-101777262D01*
X157157630Y-101777262D02*
X154363630Y-101777262D01*
X154363630Y-101777262D02*
X154363630Y-98221262D01*
X154363630Y-98221262D02*
X157157630Y-98221262D01*
X160230000Y-90230000D02*
X147530000Y-90230000D01*
X147530000Y-90230000D02*
X147530000Y-92770000D01*
X147530000Y-92770000D02*
X160230000Y-92770000D01*
X163050000Y-89950000D02*
X161500000Y-89950000D01*
X160230000Y-90230000D02*
X160230000Y-92770000D01*
X161500000Y-93050000D02*
X163050000Y-93050000D01*
X163050000Y-93050000D02*
X163050000Y-89950000D01*
X137657143Y-109171429D02*
X137857143Y-108885714D01*
X138000000Y-109171429D02*
X138000000Y-108571429D01*
X137771428Y-108571429D01*
X137714286Y-108600000D01*
X137685714Y-108628571D01*
X137657143Y-108685714D01*
X137657143Y-108771429D01*
X137685714Y-108828571D01*
X137714286Y-108857143D01*
X137771428Y-108885714D01*
X138000000Y-108885714D01*
X137485714Y-108571429D02*
X137285714Y-109171429D01*
X137085714Y-108571429D01*
X136914285Y-108628571D02*
X136885714Y-108600000D01*
X136828571Y-108571429D01*
X136685714Y-108571429D01*
X136628571Y-108600000D01*
X136600000Y-108628571D01*
X136571428Y-108685714D01*
X136571428Y-108742857D01*
X136600000Y-108828571D01*
X136942857Y-109171429D01*
X136571428Y-109171429D01*
X153942857Y-109021429D02*
X153942857Y-108421429D01*
X153714285Y-108421429D01*
X153657143Y-108450000D01*
X153628571Y-108478571D01*
X153600000Y-108535714D01*
X153600000Y-108621429D01*
X153628571Y-108678571D01*
X153657143Y-108707143D01*
X153714285Y-108735714D01*
X153942857Y-108735714D01*
X153028571Y-109021429D02*
X153371428Y-109021429D01*
X153200000Y-109021429D02*
X153200000Y-108421429D01*
X153257143Y-108507143D01*
X153314285Y-108564286D01*
X153371428Y-108592857D01*
X161192857Y-109021429D02*
X161192857Y-108421429D01*
X160964285Y-108421429D01*
X160907143Y-108450000D01*
X160878571Y-108478571D01*
X160850000Y-108535714D01*
X160850000Y-108621429D01*
X160878571Y-108678571D01*
X160907143Y-108707143D01*
X160964285Y-108735714D01*
X161192857Y-108735714D01*
X160621428Y-108478571D02*
X160592857Y-108450000D01*
X160535714Y-108421429D01*
X160392857Y-108421429D01*
X160335714Y-108450000D01*
X160307143Y-108478571D01*
X160278571Y-108535714D01*
X160278571Y-108592857D01*
X160307143Y-108678571D01*
X160650000Y-109021429D01*
X160278571Y-109021429D01*
X161171429Y-99400000D02*
X160885714Y-99200000D01*
X161171429Y-99057143D02*
X160571429Y-99057143D01*
X160571429Y-99285715D01*
X160600000Y-99342857D01*
X160628571Y-99371429D01*
X160685714Y-99400000D01*
X160771429Y-99400000D01*
X160828571Y-99371429D01*
X160857143Y-99342857D01*
X160885714Y-99285715D01*
X160885714Y-99057143D01*
X160628571Y-99628572D02*
X160600000Y-99657143D01*
X160571429Y-99714286D01*
X160571429Y-99857143D01*
X160600000Y-99914286D01*
X160628571Y-99942857D01*
X160685714Y-99971429D01*
X160742857Y-99971429D01*
X160828571Y-99942857D01*
X161171429Y-99600000D01*
X161171429Y-99971429D01*
X158771429Y-99400000D02*
X158485714Y-99200000D01*
X158771429Y-99057143D02*
X158171429Y-99057143D01*
X158171429Y-99285715D01*
X158200000Y-99342857D01*
X158228571Y-99371429D01*
X158285714Y-99400000D01*
X158371429Y-99400000D01*
X158428571Y-99371429D01*
X158457143Y-99342857D01*
X158485714Y-99285715D01*
X158485714Y-99057143D01*
X158171429Y-99600000D02*
X158171429Y-99971429D01*
X158400000Y-99771429D01*
X158400000Y-99857143D01*
X158428571Y-99914286D01*
X158457143Y-99942857D01*
X158514286Y-99971429D01*
X158657143Y-99971429D01*
X158714286Y-99942857D01*
X158742857Y-99914286D01*
X158771429Y-99857143D01*
X158771429Y-99685715D01*
X158742857Y-99628572D01*
X158714286Y-99600000D01*
X162692857Y-106521429D02*
X162692857Y-105921429D01*
X162550000Y-105921429D01*
X162464285Y-105950000D01*
X162407143Y-106007143D01*
X162378571Y-106064286D01*
X162350000Y-106178571D01*
X162350000Y-106264286D01*
X162378571Y-106378571D01*
X162407143Y-106435714D01*
X162464285Y-106492857D01*
X162550000Y-106521429D01*
X162692857Y-106521429D01*
X161778571Y-106521429D02*
X162121428Y-106521429D01*
X161950000Y-106521429D02*
X161950000Y-105921429D01*
X162007143Y-106007143D01*
X162064285Y-106064286D01*
X162121428Y-106092857D01*
X150964286Y-97150000D02*
X150992857Y-97121429D01*
X151021429Y-97035715D01*
X151021429Y-96978572D01*
X150992857Y-96892857D01*
X150935714Y-96835715D01*
X150878571Y-96807143D01*
X150764286Y-96778572D01*
X150678571Y-96778572D01*
X150564286Y-96807143D01*
X150507143Y-96835715D01*
X150450000Y-96892857D01*
X150421429Y-96978572D01*
X150421429Y-97035715D01*
X150450000Y-97121429D01*
X150478571Y-97150000D01*
X151021429Y-97435715D02*
X151021429Y-97550000D01*
X150992857Y-97607143D01*
X150964286Y-97635715D01*
X150878571Y-97692857D01*
X150764286Y-97721429D01*
X150535714Y-97721429D01*
X150478571Y-97692857D01*
X150450000Y-97664286D01*
X150421429Y-97607143D01*
X150421429Y-97492857D01*
X150450000Y-97435715D01*
X150478571Y-97407143D01*
X150535714Y-97378572D01*
X150678571Y-97378572D01*
X150735714Y-97407143D01*
X150764286Y-97435715D01*
X150792857Y-97492857D01*
X150792857Y-97607143D01*
X150764286Y-97664286D01*
X150735714Y-97692857D01*
X150678571Y-97721429D01*
X138431429Y-111550000D02*
X138860000Y-111550000D01*
X138945714Y-111521428D01*
X139002857Y-111464285D01*
X139031429Y-111378571D01*
X139031429Y-111321428D01*
X139031429Y-112150000D02*
X139031429Y-111807143D01*
X139031429Y-111978571D02*
X138431429Y-111978571D01*
X138517143Y-111921428D01*
X138574286Y-111864286D01*
X138602857Y-111807143D01*
X157800655Y-101888632D02*
X157829226Y-101860061D01*
X157857798Y-101774347D01*
X157857798Y-101717204D01*
X157829226Y-101631489D01*
X157772083Y-101574347D01*
X157714940Y-101545775D01*
X157600655Y-101517204D01*
X157514940Y-101517204D01*
X157400655Y-101545775D01*
X157343512Y-101574347D01*
X157286369Y-101631489D01*
X157257798Y-101717204D01*
X157257798Y-101774347D01*
X157286369Y-101860061D01*
X157314940Y-101888632D01*
X157314940Y-102117204D02*
X157286369Y-102145775D01*
X157257798Y-102202918D01*
X157257798Y-102345775D01*
X157286369Y-102402918D01*
X157314940Y-102431489D01*
X157372083Y-102460061D01*
X157429226Y-102460061D01*
X157514940Y-102431489D01*
X157857798Y-102088632D01*
X157857798Y-102460061D01*
X147071429Y-90257143D02*
X146471429Y-90257143D01*
X146471429Y-90485715D01*
X146500000Y-90542857D01*
X146528571Y-90571429D01*
X146585714Y-90600000D01*
X146671429Y-90600000D01*
X146728571Y-90571429D01*
X146757143Y-90542857D01*
X146785714Y-90485715D01*
X146785714Y-90257143D01*
X146471429Y-90800000D02*
X146471429Y-91171429D01*
X146700000Y-90971429D01*
X146700000Y-91057143D01*
X146728571Y-91114286D01*
X146757143Y-91142857D01*
X146814286Y-91171429D01*
X146957143Y-91171429D01*
X147014286Y-91142857D01*
X147042857Y-91114286D01*
X147071429Y-91057143D01*
X147071429Y-90885715D01*
X147042857Y-90828572D01*
X147014286Y-90800000D01*
M02*
