M48
;DRILL file {KiCad 4.0.4-1.fc24-product} date Mon Apr 30 10:47:42 2018
;FORMAT={-:-/ absolute / metric / decimal}
FMAT,2
METRIC,TZ
T1C0.400
T2C0.750
T3C1.000
T4C1.097
%
G90
G05
M71
T1
X156.489Y-114.001
X158.739Y-107.25
X161.989Y-110.501
X162.339Y-102.401
X163.209Y-111.701
X167.489Y-104.001
X171.989Y-116.141
X173.349Y-108.601
T2
X154.489Y-100.251
X156.489Y-100.251
X165.382Y-100.318
X167.382Y-100.318
X169.382Y-100.318
X171.382Y-100.318
T3
X147.989Y-106.851
X147.989Y-110.601
X147.989Y-114.351
X150.449Y-119.951
X152.989Y-106.851
X152.989Y-110.601
X152.989Y-114.351
X152.989Y-119.951
X155.529Y-119.951
T4
X160.909Y-119.751
X163.449Y-119.751
X165.989Y-119.751
X169.449Y-119.751
X171.989Y-119.751
T0
M30
