G04 #@! TF.FileFunction,Legend,Bot*
%FSLAX46Y46*%
G04 Gerber Fmt 4.6, Leading zero omitted, Abs format (unit mm)*
G04 Created by KiCad (PCBNEW 4.0.4-1.fc24-product) date Tue Jun  5 15:13:36 2018*
%MOMM*%
%LPD*%
G01*
G04 APERTURE LIST*
%ADD10C,0.100000*%
%ADD11C,0.120000*%
%ADD12C,0.150000*%
G04 APERTURE END LIST*
D10*
D11*
X152810000Y-84610000D02*
X152810000Y-75940000D01*
X143190000Y-84610000D02*
X143190000Y-75940000D01*
X152810000Y-84610000D02*
X143190000Y-84610000D01*
X152810000Y-75940000D02*
X143190000Y-75940000D01*
X144950000Y-93500000D02*
X144950000Y-88800000D01*
X144950000Y-88800000D02*
X151050000Y-88800000D01*
X151050000Y-88800000D02*
X151050000Y-93500000D01*
X151050000Y-93500000D02*
X144950000Y-93500000D01*
X147500000Y-93500000D02*
X147500000Y-92900000D01*
X147500000Y-92900000D02*
X145550000Y-92900000D01*
X145550000Y-92900000D02*
X145550000Y-89400000D01*
X145550000Y-89400000D02*
X150450000Y-89400000D01*
X150450000Y-89400000D02*
X150450000Y-92900000D01*
X150450000Y-92900000D02*
X148500000Y-92900000D01*
X148500000Y-92900000D02*
X148500000Y-93500000D01*
X144950000Y-92200000D02*
X145550000Y-92200000D01*
X144950000Y-90900000D02*
X145550000Y-90900000D01*
X151050000Y-92200000D02*
X150450000Y-92200000D01*
X151050000Y-90900000D02*
X150450000Y-90900000D01*
X146700000Y-93500000D02*
X146700000Y-93700000D01*
X146700000Y-93700000D02*
X146400000Y-93700000D01*
X146400000Y-93700000D02*
X146400000Y-93500000D01*
X146700000Y-93600000D02*
X146400000Y-93600000D01*
X147900000Y-89400000D02*
X147900000Y-89900000D01*
X147900000Y-89900000D02*
X148100000Y-89900000D01*
X148100000Y-89900000D02*
X148100000Y-89400000D01*
X148000000Y-89400000D02*
X148000000Y-89900000D01*
X145900000Y-93800000D02*
X144650000Y-93800000D01*
X144650000Y-93800000D02*
X144650000Y-92550000D01*
X144130000Y-88030000D02*
X144130000Y-85370000D01*
X149270000Y-88030000D02*
X144130000Y-88030000D01*
X149270000Y-85370000D02*
X144130000Y-85370000D01*
X149270000Y-88030000D02*
X149270000Y-85370000D01*
X150540000Y-88030000D02*
X151870000Y-88030000D01*
X151870000Y-88030000D02*
X151870000Y-86700000D01*
D12*
X152157143Y-84371429D02*
X152357143Y-84085714D01*
X152500000Y-84371429D02*
X152500000Y-83771429D01*
X152271428Y-83771429D01*
X152214286Y-83800000D01*
X152185714Y-83828571D01*
X152157143Y-83885714D01*
X152157143Y-83971429D01*
X152185714Y-84028571D01*
X152214286Y-84057143D01*
X152271428Y-84085714D01*
X152500000Y-84085714D01*
X151985714Y-83771429D02*
X151785714Y-84371429D01*
X151585714Y-83771429D01*
X151071428Y-84371429D02*
X151414285Y-84371429D01*
X151242857Y-84371429D02*
X151242857Y-83771429D01*
X151300000Y-83857143D01*
X151357142Y-83914286D01*
X151414285Y-83942857D01*
X150842857Y-88471429D02*
X150842857Y-87871429D01*
X150614285Y-87871429D01*
X150557143Y-87900000D01*
X150528571Y-87928571D01*
X150500000Y-87985714D01*
X150500000Y-88071429D01*
X150528571Y-88128571D01*
X150557143Y-88157143D01*
X150614285Y-88185714D01*
X150842857Y-88185714D01*
X149928571Y-88471429D02*
X150271428Y-88471429D01*
X150100000Y-88471429D02*
X150100000Y-87871429D01*
X150157143Y-87957143D01*
X150214285Y-88014286D01*
X150271428Y-88042857D01*
X151740000Y-88271429D02*
X151740000Y-88700000D01*
X151768572Y-88785714D01*
X151825715Y-88842857D01*
X151911429Y-88871429D01*
X151968572Y-88871429D01*
X151140000Y-88871429D02*
X151482857Y-88871429D01*
X151311429Y-88871429D02*
X151311429Y-88271429D01*
X151368572Y-88357143D01*
X151425714Y-88414286D01*
X151482857Y-88442857D01*
M02*
