%TF.GenerationSoftware,KiCad,Pcbnew,4.0.4-1.fc24-product*%
%TF.CreationDate,2018-01-16T15:59:38+11:00*%
%TF.ProjectId,BT_STACK,42545F535441434B2E6B696361645F70,rev?*%
%TF.FileFunction,Copper,L2,Bot,Signal*%
%FSLAX46Y46*%
G04 Gerber Fmt 4.6, Leading zero omitted, Abs format (unit mm)*
G04 Created by KiCad (PCBNEW 4.0.4-1.fc24-product) date Tue Jan 16 15:59:38 2018*
%MOMM*%
%LPD*%
G01*
G04 APERTURE LIST*
%ADD10C,0.100000*%
%ADD11R,1.500000X1.500000*%
%ADD12C,1.500000*%
%ADD13C,1.800000*%
%ADD14R,1.500000X1.250000*%
%ADD15C,0.600000*%
%ADD16C,0.500000*%
%ADD17C,0.300000*%
G04 APERTURE END LIST*
D10*
D11*
X181000000Y-95200000D03*
D12*
X183000000Y-95200000D03*
X185000000Y-95200000D03*
X187000000Y-95200000D03*
X189000000Y-95200000D03*
D13*
X187500000Y-70000000D03*
X185000000Y-70000000D03*
X182500000Y-70000000D03*
X187500000Y-75000000D03*
X185000000Y-75000000D03*
X182500000Y-75000000D03*
D14*
X186200000Y-89100000D03*
X183700000Y-89100000D03*
D15*
X187300000Y-86300000D03*
X185796600Y-91292000D03*
X183966200Y-82248500D03*
X180000000Y-79400000D03*
X188800000Y-80900000D03*
X177300004Y-85500000D03*
X185000000Y-85000000D03*
D16*
X187000001Y-86599999D02*
X187300000Y-86300000D01*
X186200000Y-87400000D02*
X187000001Y-86599999D01*
X186200000Y-89350000D02*
X186200000Y-87400000D01*
X186200000Y-90888600D02*
X186200000Y-89350000D01*
X185796600Y-91292000D02*
X186200000Y-90888600D01*
D17*
X181500000Y-80900000D02*
X180000000Y-79400000D01*
X188800000Y-80900000D02*
X181500000Y-80900000D01*
X177300004Y-85075736D02*
X177300004Y-85500000D01*
X177300004Y-80199996D02*
X177300004Y-85075736D01*
X182500000Y-75000000D02*
X177300004Y-80199996D01*
X183000000Y-95200000D02*
X183700000Y-94500000D01*
X183700000Y-94500000D02*
X183700000Y-89100000D01*
X183700000Y-89100000D02*
X183700000Y-86300000D01*
X183700000Y-86300000D02*
X185000000Y-85000000D01*
G36*
X194475000Y-97475000D02*
X175525000Y-97475000D01*
X175525000Y-94450000D01*
X179791184Y-94450000D01*
X179791184Y-95950000D01*
X179822562Y-96116760D01*
X179921117Y-96269919D01*
X180071495Y-96372668D01*
X180250000Y-96408816D01*
X181750000Y-96408816D01*
X181916760Y-96377438D01*
X182069919Y-96278883D01*
X182172668Y-96128505D01*
X182182558Y-96079668D01*
X182319367Y-96216717D01*
X182760258Y-96399791D01*
X183237647Y-96400207D01*
X183678857Y-96217903D01*
X183812518Y-96084475D01*
X184327657Y-96084475D01*
X184407617Y-96270540D01*
X184862388Y-96415745D01*
X185338108Y-96375864D01*
X185592383Y-96270540D01*
X185672343Y-96084475D01*
X185000000Y-95412132D01*
X184327657Y-96084475D01*
X183812518Y-96084475D01*
X184016717Y-95880633D01*
X184034600Y-95837566D01*
X184115525Y-95872343D01*
X184787868Y-95200000D01*
X185212132Y-95200000D01*
X185884475Y-95872343D01*
X185965091Y-95837699D01*
X185982097Y-95878857D01*
X186319367Y-96216717D01*
X186760258Y-96399791D01*
X187237647Y-96400207D01*
X187678857Y-96217903D01*
X188000265Y-95897057D01*
X188319367Y-96216717D01*
X188760258Y-96399791D01*
X189237647Y-96400207D01*
X189678857Y-96217903D01*
X190016717Y-95880633D01*
X190199791Y-95439742D01*
X190200207Y-94962353D01*
X190017903Y-94521143D01*
X189680633Y-94183283D01*
X189239742Y-94000209D01*
X188762353Y-93999793D01*
X188321143Y-94182097D01*
X187999735Y-94502943D01*
X187680633Y-94183283D01*
X187239742Y-94000209D01*
X186762353Y-93999793D01*
X186321143Y-94182097D01*
X185983283Y-94519367D01*
X185965400Y-94562434D01*
X185884475Y-94527657D01*
X185212132Y-95200000D01*
X184787868Y-95200000D01*
X184773726Y-95185858D01*
X184985858Y-94973726D01*
X185000000Y-94987868D01*
X185672343Y-94315525D01*
X185592383Y-94129460D01*
X185137612Y-93984255D01*
X184661892Y-94024136D01*
X184407617Y-94129460D01*
X184327658Y-94315524D01*
X184300000Y-94287866D01*
X184300000Y-90183816D01*
X184450000Y-90183816D01*
X184616760Y-90152438D01*
X184769919Y-90053883D01*
X184872668Y-89903505D01*
X184908816Y-89725000D01*
X184908816Y-88475000D01*
X184991184Y-88475000D01*
X184991184Y-89725000D01*
X185022562Y-89891760D01*
X185121117Y-90044919D01*
X185271495Y-90147668D01*
X185450000Y-90183816D01*
X185500000Y-90183816D01*
X185500000Y-90598650D01*
X185492499Y-90606151D01*
X185372314Y-90655811D01*
X185161152Y-90866605D01*
X185046731Y-91142161D01*
X185046470Y-91440530D01*
X185160411Y-91716286D01*
X185371205Y-91927448D01*
X185646761Y-92041869D01*
X185945130Y-92042130D01*
X186220886Y-91928189D01*
X186432048Y-91717395D01*
X186482389Y-91596161D01*
X186694975Y-91383575D01*
X186846716Y-91156479D01*
X186900001Y-90888600D01*
X186900000Y-90888595D01*
X186900000Y-90183816D01*
X186950000Y-90183816D01*
X187116760Y-90152438D01*
X187269919Y-90053883D01*
X187372668Y-89903505D01*
X187408816Y-89725000D01*
X187408816Y-88475000D01*
X187377438Y-88308240D01*
X187278883Y-88155081D01*
X187128505Y-88052332D01*
X186950000Y-88016184D01*
X186900000Y-88016184D01*
X186900000Y-87689950D01*
X187604101Y-86985849D01*
X187724286Y-86936189D01*
X187935448Y-86725395D01*
X188049869Y-86449839D01*
X188050130Y-86151470D01*
X187936189Y-85875714D01*
X187725395Y-85664552D01*
X187449839Y-85550131D01*
X187151470Y-85549870D01*
X186875714Y-85663811D01*
X186664552Y-85874605D01*
X186614211Y-85995839D01*
X185705025Y-86905025D01*
X185553284Y-87132121D01*
X185553284Y-87132122D01*
X185500000Y-87400000D01*
X185500000Y-88016184D01*
X185450000Y-88016184D01*
X185283240Y-88047562D01*
X185130081Y-88146117D01*
X185027332Y-88296495D01*
X184991184Y-88475000D01*
X184908816Y-88475000D01*
X184877438Y-88308240D01*
X184778883Y-88155081D01*
X184628505Y-88052332D01*
X184450000Y-88016184D01*
X184300000Y-88016184D01*
X184300000Y-86548528D01*
X185098442Y-85750086D01*
X185148530Y-85750130D01*
X185424286Y-85636189D01*
X185635448Y-85425395D01*
X185749869Y-85149839D01*
X185750130Y-84851470D01*
X185636189Y-84575714D01*
X185425395Y-84364552D01*
X185149839Y-84250131D01*
X184851470Y-84249870D01*
X184575714Y-84363811D01*
X184364552Y-84574605D01*
X184250131Y-84850161D01*
X184250086Y-84901386D01*
X183275736Y-85875736D01*
X183145672Y-86070390D01*
X183100000Y-86300000D01*
X183100000Y-88016184D01*
X182950000Y-88016184D01*
X182783240Y-88047562D01*
X182630081Y-88146117D01*
X182527332Y-88296495D01*
X182491184Y-88475000D01*
X182491184Y-89725000D01*
X182522562Y-89891760D01*
X182621117Y-90044919D01*
X182771495Y-90147668D01*
X182950000Y-90183816D01*
X183100000Y-90183816D01*
X183100000Y-94000087D01*
X182762353Y-93999793D01*
X182321143Y-94182097D01*
X182184140Y-94318860D01*
X182177438Y-94283240D01*
X182078883Y-94130081D01*
X181928505Y-94027332D01*
X181750000Y-93991184D01*
X180250000Y-93991184D01*
X180083240Y-94022562D01*
X179930081Y-94121117D01*
X179827332Y-94271495D01*
X179791184Y-94450000D01*
X175525000Y-94450000D01*
X175525000Y-85648530D01*
X176549874Y-85648530D01*
X176663815Y-85924286D01*
X176874609Y-86135448D01*
X177150165Y-86249869D01*
X177448534Y-86250130D01*
X177724290Y-86136189D01*
X177935452Y-85925395D01*
X178049873Y-85649839D01*
X178050134Y-85351470D01*
X177936193Y-85075714D01*
X177900004Y-85039462D01*
X177900004Y-80448524D01*
X179357898Y-78990630D01*
X179250131Y-79250161D01*
X179249870Y-79548530D01*
X179363811Y-79824286D01*
X179574605Y-80035448D01*
X179850161Y-80149869D01*
X179901386Y-80149914D01*
X181075736Y-81324264D01*
X181270389Y-81454328D01*
X181500000Y-81500000D01*
X188339219Y-81500000D01*
X188374605Y-81535448D01*
X188650161Y-81649869D01*
X188948530Y-81650130D01*
X189224286Y-81536189D01*
X189435448Y-81325395D01*
X189549869Y-81049839D01*
X189550130Y-80751470D01*
X189436189Y-80475714D01*
X189225395Y-80264552D01*
X188949839Y-80150131D01*
X188651470Y-80149870D01*
X188375714Y-80263811D01*
X188339462Y-80300000D01*
X181748528Y-80300000D01*
X180750086Y-79301558D01*
X180750130Y-79251470D01*
X180636189Y-78975714D01*
X180425395Y-78764552D01*
X180149839Y-78650131D01*
X179851470Y-78649870D01*
X179591056Y-78757472D01*
X182066694Y-76281834D01*
X182230290Y-76349765D01*
X182767353Y-76350234D01*
X183263715Y-76145142D01*
X183643807Y-75765712D01*
X183750007Y-75509955D01*
X183854858Y-75763715D01*
X184234288Y-76143807D01*
X184730290Y-76349765D01*
X185267353Y-76350234D01*
X185763715Y-76145142D01*
X186143807Y-75765712D01*
X186250007Y-75509955D01*
X186354858Y-75763715D01*
X186734288Y-76143807D01*
X187230290Y-76349765D01*
X187767353Y-76350234D01*
X188263715Y-76145142D01*
X188643807Y-75765712D01*
X188849765Y-75269710D01*
X188850234Y-74732647D01*
X188645142Y-74236285D01*
X188265712Y-73856193D01*
X187769710Y-73650235D01*
X187232647Y-73649766D01*
X186736285Y-73854858D01*
X186356193Y-74234288D01*
X186249993Y-74490045D01*
X186145142Y-74236285D01*
X185765712Y-73856193D01*
X185269710Y-73650235D01*
X184732647Y-73649766D01*
X184236285Y-73854858D01*
X183856193Y-74234288D01*
X183749993Y-74490045D01*
X183645142Y-74236285D01*
X183265712Y-73856193D01*
X182769710Y-73650235D01*
X182232647Y-73649766D01*
X181736285Y-73854858D01*
X181356193Y-74234288D01*
X181150235Y-74730290D01*
X181149766Y-75267353D01*
X181218286Y-75433186D01*
X176875740Y-79775732D01*
X176745676Y-79970386D01*
X176700004Y-80199996D01*
X176700004Y-85039219D01*
X176664556Y-85074605D01*
X176550135Y-85350161D01*
X176549874Y-85648530D01*
X175525000Y-85648530D01*
X175525000Y-70267353D01*
X181149766Y-70267353D01*
X181354858Y-70763715D01*
X181734288Y-71143807D01*
X182230290Y-71349765D01*
X182767353Y-71350234D01*
X183263715Y-71145142D01*
X183643807Y-70765712D01*
X183750007Y-70509955D01*
X183854858Y-70763715D01*
X184234288Y-71143807D01*
X184730290Y-71349765D01*
X185267353Y-71350234D01*
X185763715Y-71145142D01*
X186143807Y-70765712D01*
X186250007Y-70509955D01*
X186354858Y-70763715D01*
X186734288Y-71143807D01*
X187230290Y-71349765D01*
X187767353Y-71350234D01*
X188263715Y-71145142D01*
X188643807Y-70765712D01*
X188849765Y-70269710D01*
X188850234Y-69732647D01*
X188645142Y-69236285D01*
X188265712Y-68856193D01*
X187769710Y-68650235D01*
X187232647Y-68649766D01*
X186736285Y-68854858D01*
X186356193Y-69234288D01*
X186249993Y-69490045D01*
X186145142Y-69236285D01*
X185765712Y-68856193D01*
X185269710Y-68650235D01*
X184732647Y-68649766D01*
X184236285Y-68854858D01*
X183856193Y-69234288D01*
X183749993Y-69490045D01*
X183645142Y-69236285D01*
X183265712Y-68856193D01*
X182769710Y-68650235D01*
X182232647Y-68649766D01*
X181736285Y-68854858D01*
X181356193Y-69234288D01*
X181150235Y-69730290D01*
X181149766Y-70267353D01*
X175525000Y-70267353D01*
X175525000Y-68525000D01*
X194475000Y-68525000D01*
X194475000Y-97475000D01*
X194475000Y-97475000D01*
G37*
X194475000Y-97475000D02*
X175525000Y-97475000D01*
X175525000Y-94450000D01*
X179791184Y-94450000D01*
X179791184Y-95950000D01*
X179822562Y-96116760D01*
X179921117Y-96269919D01*
X180071495Y-96372668D01*
X180250000Y-96408816D01*
X181750000Y-96408816D01*
X181916760Y-96377438D01*
X182069919Y-96278883D01*
X182172668Y-96128505D01*
X182182558Y-96079668D01*
X182319367Y-96216717D01*
X182760258Y-96399791D01*
X183237647Y-96400207D01*
X183678857Y-96217903D01*
X183812518Y-96084475D01*
X184327657Y-96084475D01*
X184407617Y-96270540D01*
X184862388Y-96415745D01*
X185338108Y-96375864D01*
X185592383Y-96270540D01*
X185672343Y-96084475D01*
X185000000Y-95412132D01*
X184327657Y-96084475D01*
X183812518Y-96084475D01*
X184016717Y-95880633D01*
X184034600Y-95837566D01*
X184115525Y-95872343D01*
X184787868Y-95200000D01*
X185212132Y-95200000D01*
X185884475Y-95872343D01*
X185965091Y-95837699D01*
X185982097Y-95878857D01*
X186319367Y-96216717D01*
X186760258Y-96399791D01*
X187237647Y-96400207D01*
X187678857Y-96217903D01*
X188000265Y-95897057D01*
X188319367Y-96216717D01*
X188760258Y-96399791D01*
X189237647Y-96400207D01*
X189678857Y-96217903D01*
X190016717Y-95880633D01*
X190199791Y-95439742D01*
X190200207Y-94962353D01*
X190017903Y-94521143D01*
X189680633Y-94183283D01*
X189239742Y-94000209D01*
X188762353Y-93999793D01*
X188321143Y-94182097D01*
X187999735Y-94502943D01*
X187680633Y-94183283D01*
X187239742Y-94000209D01*
X186762353Y-93999793D01*
X186321143Y-94182097D01*
X185983283Y-94519367D01*
X185965400Y-94562434D01*
X185884475Y-94527657D01*
X185212132Y-95200000D01*
X184787868Y-95200000D01*
X184773726Y-95185858D01*
X184985858Y-94973726D01*
X185000000Y-94987868D01*
X185672343Y-94315525D01*
X185592383Y-94129460D01*
X185137612Y-93984255D01*
X184661892Y-94024136D01*
X184407617Y-94129460D01*
X184327658Y-94315524D01*
X184300000Y-94287866D01*
X184300000Y-90183816D01*
X184450000Y-90183816D01*
X184616760Y-90152438D01*
X184769919Y-90053883D01*
X184872668Y-89903505D01*
X184908816Y-89725000D01*
X184908816Y-88475000D01*
X184991184Y-88475000D01*
X184991184Y-89725000D01*
X185022562Y-89891760D01*
X185121117Y-90044919D01*
X185271495Y-90147668D01*
X185450000Y-90183816D01*
X185500000Y-90183816D01*
X185500000Y-90598650D01*
X185492499Y-90606151D01*
X185372314Y-90655811D01*
X185161152Y-90866605D01*
X185046731Y-91142161D01*
X185046470Y-91440530D01*
X185160411Y-91716286D01*
X185371205Y-91927448D01*
X185646761Y-92041869D01*
X185945130Y-92042130D01*
X186220886Y-91928189D01*
X186432048Y-91717395D01*
X186482389Y-91596161D01*
X186694975Y-91383575D01*
X186846716Y-91156479D01*
X186900001Y-90888600D01*
X186900000Y-90888595D01*
X186900000Y-90183816D01*
X186950000Y-90183816D01*
X187116760Y-90152438D01*
X187269919Y-90053883D01*
X187372668Y-89903505D01*
X187408816Y-89725000D01*
X187408816Y-88475000D01*
X187377438Y-88308240D01*
X187278883Y-88155081D01*
X187128505Y-88052332D01*
X186950000Y-88016184D01*
X186900000Y-88016184D01*
X186900000Y-87689950D01*
X187604101Y-86985849D01*
X187724286Y-86936189D01*
X187935448Y-86725395D01*
X188049869Y-86449839D01*
X188050130Y-86151470D01*
X187936189Y-85875714D01*
X187725395Y-85664552D01*
X187449839Y-85550131D01*
X187151470Y-85549870D01*
X186875714Y-85663811D01*
X186664552Y-85874605D01*
X186614211Y-85995839D01*
X185705025Y-86905025D01*
X185553284Y-87132121D01*
X185553284Y-87132122D01*
X185500000Y-87400000D01*
X185500000Y-88016184D01*
X185450000Y-88016184D01*
X185283240Y-88047562D01*
X185130081Y-88146117D01*
X185027332Y-88296495D01*
X184991184Y-88475000D01*
X184908816Y-88475000D01*
X184877438Y-88308240D01*
X184778883Y-88155081D01*
X184628505Y-88052332D01*
X184450000Y-88016184D01*
X184300000Y-88016184D01*
X184300000Y-86548528D01*
X185098442Y-85750086D01*
X185148530Y-85750130D01*
X185424286Y-85636189D01*
X185635448Y-85425395D01*
X185749869Y-85149839D01*
X185750130Y-84851470D01*
X185636189Y-84575714D01*
X185425395Y-84364552D01*
X185149839Y-84250131D01*
X184851470Y-84249870D01*
X184575714Y-84363811D01*
X184364552Y-84574605D01*
X184250131Y-84850161D01*
X184250086Y-84901386D01*
X183275736Y-85875736D01*
X183145672Y-86070390D01*
X183100000Y-86300000D01*
X183100000Y-88016184D01*
X182950000Y-88016184D01*
X182783240Y-88047562D01*
X182630081Y-88146117D01*
X182527332Y-88296495D01*
X182491184Y-88475000D01*
X182491184Y-89725000D01*
X182522562Y-89891760D01*
X182621117Y-90044919D01*
X182771495Y-90147668D01*
X182950000Y-90183816D01*
X183100000Y-90183816D01*
X183100000Y-94000087D01*
X182762353Y-93999793D01*
X182321143Y-94182097D01*
X182184140Y-94318860D01*
X182177438Y-94283240D01*
X182078883Y-94130081D01*
X181928505Y-94027332D01*
X181750000Y-93991184D01*
X180250000Y-93991184D01*
X180083240Y-94022562D01*
X179930081Y-94121117D01*
X179827332Y-94271495D01*
X179791184Y-94450000D01*
X175525000Y-94450000D01*
X175525000Y-85648530D01*
X176549874Y-85648530D01*
X176663815Y-85924286D01*
X176874609Y-86135448D01*
X177150165Y-86249869D01*
X177448534Y-86250130D01*
X177724290Y-86136189D01*
X177935452Y-85925395D01*
X178049873Y-85649839D01*
X178050134Y-85351470D01*
X177936193Y-85075714D01*
X177900004Y-85039462D01*
X177900004Y-80448524D01*
X179357898Y-78990630D01*
X179250131Y-79250161D01*
X179249870Y-79548530D01*
X179363811Y-79824286D01*
X179574605Y-80035448D01*
X179850161Y-80149869D01*
X179901386Y-80149914D01*
X181075736Y-81324264D01*
X181270389Y-81454328D01*
X181500000Y-81500000D01*
X188339219Y-81500000D01*
X188374605Y-81535448D01*
X188650161Y-81649869D01*
X188948530Y-81650130D01*
X189224286Y-81536189D01*
X189435448Y-81325395D01*
X189549869Y-81049839D01*
X189550130Y-80751470D01*
X189436189Y-80475714D01*
X189225395Y-80264552D01*
X188949839Y-80150131D01*
X188651470Y-80149870D01*
X188375714Y-80263811D01*
X188339462Y-80300000D01*
X181748528Y-80300000D01*
X180750086Y-79301558D01*
X180750130Y-79251470D01*
X180636189Y-78975714D01*
X180425395Y-78764552D01*
X180149839Y-78650131D01*
X179851470Y-78649870D01*
X179591056Y-78757472D01*
X182066694Y-76281834D01*
X182230290Y-76349765D01*
X182767353Y-76350234D01*
X183263715Y-76145142D01*
X183643807Y-75765712D01*
X183750007Y-75509955D01*
X183854858Y-75763715D01*
X184234288Y-76143807D01*
X184730290Y-76349765D01*
X185267353Y-76350234D01*
X185763715Y-76145142D01*
X186143807Y-75765712D01*
X186250007Y-75509955D01*
X186354858Y-75763715D01*
X186734288Y-76143807D01*
X187230290Y-76349765D01*
X187767353Y-76350234D01*
X188263715Y-76145142D01*
X188643807Y-75765712D01*
X188849765Y-75269710D01*
X188850234Y-74732647D01*
X188645142Y-74236285D01*
X188265712Y-73856193D01*
X187769710Y-73650235D01*
X187232647Y-73649766D01*
X186736285Y-73854858D01*
X186356193Y-74234288D01*
X186249993Y-74490045D01*
X186145142Y-74236285D01*
X185765712Y-73856193D01*
X185269710Y-73650235D01*
X184732647Y-73649766D01*
X184236285Y-73854858D01*
X183856193Y-74234288D01*
X183749993Y-74490045D01*
X183645142Y-74236285D01*
X183265712Y-73856193D01*
X182769710Y-73650235D01*
X182232647Y-73649766D01*
X181736285Y-73854858D01*
X181356193Y-74234288D01*
X181150235Y-74730290D01*
X181149766Y-75267353D01*
X181218286Y-75433186D01*
X176875740Y-79775732D01*
X176745676Y-79970386D01*
X176700004Y-80199996D01*
X176700004Y-85039219D01*
X176664556Y-85074605D01*
X176550135Y-85350161D01*
X176549874Y-85648530D01*
X175525000Y-85648530D01*
X175525000Y-70267353D01*
X181149766Y-70267353D01*
X181354858Y-70763715D01*
X181734288Y-71143807D01*
X182230290Y-71349765D01*
X182767353Y-71350234D01*
X183263715Y-71145142D01*
X183643807Y-70765712D01*
X183750007Y-70509955D01*
X183854858Y-70763715D01*
X184234288Y-71143807D01*
X184730290Y-71349765D01*
X185267353Y-71350234D01*
X185763715Y-71145142D01*
X186143807Y-70765712D01*
X186250007Y-70509955D01*
X186354858Y-70763715D01*
X186734288Y-71143807D01*
X187230290Y-71349765D01*
X187767353Y-71350234D01*
X188263715Y-71145142D01*
X188643807Y-70765712D01*
X188849765Y-70269710D01*
X188850234Y-69732647D01*
X188645142Y-69236285D01*
X188265712Y-68856193D01*
X187769710Y-68650235D01*
X187232647Y-68649766D01*
X186736285Y-68854858D01*
X186356193Y-69234288D01*
X186249993Y-69490045D01*
X186145142Y-69236285D01*
X185765712Y-68856193D01*
X185269710Y-68650235D01*
X184732647Y-68649766D01*
X184236285Y-68854858D01*
X183856193Y-69234288D01*
X183749993Y-69490045D01*
X183645142Y-69236285D01*
X183265712Y-68856193D01*
X182769710Y-68650235D01*
X182232647Y-68649766D01*
X181736285Y-68854858D01*
X181356193Y-69234288D01*
X181150235Y-69730290D01*
X181149766Y-70267353D01*
X175525000Y-70267353D01*
X175525000Y-68525000D01*
X194475000Y-68525000D01*
X194475000Y-97475000D01*
M02*
