G04 #@! TF.FileFunction,Legend,Bot*
%FSLAX46Y46*%
G04 Gerber Fmt 4.6, Leading zero omitted, Abs format (unit mm)*
G04 Created by KiCad (PCBNEW 4.0.4-1.fc24-product) date Thu Mar  1 09:38:40 2018*
%MOMM*%
%LPD*%
G01*
G04 APERTURE LIST*
%ADD10C,0.100000*%
%ADD11C,0.150000*%
%ADD12C,0.120000*%
G04 APERTURE END LIST*
D10*
D11*
X147000000Y-90975000D02*
X148000000Y-90975000D01*
X148000000Y-89625000D02*
X147000000Y-89625000D01*
X146200000Y-93900000D02*
X146200000Y-93200000D01*
X145000000Y-93200000D02*
X145000000Y-93900000D01*
X147325000Y-92900000D02*
X147325000Y-93900000D01*
X148675000Y-93900000D02*
X148675000Y-92900000D01*
X137925000Y-96075000D02*
X137925000Y-95930000D01*
X142075000Y-96075000D02*
X142075000Y-95930000D01*
X142075000Y-90925000D02*
X142075000Y-91070000D01*
X137925000Y-90925000D02*
X137925000Y-91070000D01*
X137925000Y-96075000D02*
X142075000Y-96075000D01*
X137925000Y-90925000D02*
X142075000Y-90925000D01*
X137925000Y-95930000D02*
X136525000Y-95930000D01*
D12*
X162600000Y-94860000D02*
X162600000Y-78240000D01*
X149290000Y-94860000D02*
X149290000Y-78240000D01*
X162600000Y-94860000D02*
X149290000Y-94860000D01*
X162600000Y-78240000D02*
X149290000Y-78240000D01*
X153750000Y-102600000D02*
X153750000Y-97900000D01*
X153750000Y-97900000D02*
X159850000Y-97900000D01*
X159850000Y-97900000D02*
X159850000Y-102600000D01*
X159850000Y-102600000D02*
X153750000Y-102600000D01*
X156300000Y-102600000D02*
X156300000Y-102000000D01*
X156300000Y-102000000D02*
X154350000Y-102000000D01*
X154350000Y-102000000D02*
X154350000Y-98500000D01*
X154350000Y-98500000D02*
X159250000Y-98500000D01*
X159250000Y-98500000D02*
X159250000Y-102000000D01*
X159250000Y-102000000D02*
X157300000Y-102000000D01*
X157300000Y-102000000D02*
X157300000Y-102600000D01*
X153750000Y-101300000D02*
X154350000Y-101300000D01*
X153750000Y-100000000D02*
X154350000Y-100000000D01*
X159850000Y-101300000D02*
X159250000Y-101300000D01*
X159850000Y-100000000D02*
X159250000Y-100000000D01*
X155500000Y-102600000D02*
X155500000Y-102800000D01*
X155500000Y-102800000D02*
X155200000Y-102800000D01*
X155200000Y-102800000D02*
X155200000Y-102600000D01*
X155500000Y-102700000D02*
X155200000Y-102700000D01*
X156700000Y-98500000D02*
X156700000Y-99000000D01*
X156700000Y-99000000D02*
X156900000Y-99000000D01*
X156900000Y-99000000D02*
X156900000Y-98500000D01*
X156800000Y-98500000D02*
X156800000Y-99000000D01*
X154700000Y-102900000D02*
X153450000Y-102900000D01*
X153450000Y-102900000D02*
X153450000Y-101650000D01*
X140850000Y-102600000D02*
X140850000Y-97900000D01*
X140850000Y-97900000D02*
X152950000Y-97900000D01*
X152950000Y-97900000D02*
X152950000Y-102600000D01*
X152950000Y-102600000D02*
X140850000Y-102600000D01*
X143400000Y-102600000D02*
X143400000Y-102000000D01*
X143400000Y-102000000D02*
X141450000Y-102000000D01*
X141450000Y-102000000D02*
X141450000Y-98500000D01*
X141450000Y-98500000D02*
X152350000Y-98500000D01*
X152350000Y-98500000D02*
X152350000Y-102000000D01*
X152350000Y-102000000D02*
X150400000Y-102000000D01*
X150400000Y-102000000D02*
X150400000Y-102600000D01*
X140850000Y-101300000D02*
X141450000Y-101300000D01*
X140850000Y-100000000D02*
X141450000Y-100000000D01*
X152950000Y-101300000D02*
X152350000Y-101300000D01*
X152950000Y-100000000D02*
X152350000Y-100000000D01*
X142600000Y-102600000D02*
X142600000Y-102800000D01*
X142600000Y-102800000D02*
X142300000Y-102800000D01*
X142300000Y-102800000D02*
X142300000Y-102600000D01*
X142600000Y-102700000D02*
X142300000Y-102700000D01*
X143800000Y-98500000D02*
X143800000Y-99000000D01*
X143800000Y-99000000D02*
X144000000Y-99000000D01*
X144000000Y-99000000D02*
X144000000Y-98500000D01*
X143900000Y-98500000D02*
X143900000Y-99000000D01*
X145800000Y-98500000D02*
X145800000Y-99000000D01*
X145800000Y-99000000D02*
X146000000Y-99000000D01*
X146000000Y-99000000D02*
X146000000Y-98500000D01*
X145900000Y-98500000D02*
X145900000Y-99000000D01*
X147800000Y-98500000D02*
X147800000Y-99000000D01*
X147800000Y-99000000D02*
X148000000Y-99000000D01*
X148000000Y-99000000D02*
X148000000Y-98500000D01*
X147900000Y-98500000D02*
X147900000Y-99000000D01*
X149800000Y-98500000D02*
X149800000Y-99000000D01*
X149800000Y-99000000D02*
X150000000Y-99000000D01*
X150000000Y-99000000D02*
X150000000Y-98500000D01*
X149900000Y-98500000D02*
X149900000Y-99000000D01*
X141800000Y-102900000D02*
X140550000Y-102900000D01*
X140550000Y-102900000D02*
X140550000Y-101650000D01*
D11*
X125804064Y-84044764D02*
X125804064Y-89642924D01*
X125306224Y-89444804D02*
X125804064Y-89444804D01*
X125804064Y-84242884D02*
X125306224Y-84242884D01*
X125306224Y-86843844D02*
X125804064Y-86843844D01*
X131105044Y-89642924D02*
X131105044Y-84044764D01*
X125306224Y-89642924D02*
X125306224Y-84044764D01*
X125306224Y-84044764D02*
X131503824Y-84044764D01*
X131503824Y-84044764D02*
X131503824Y-89642924D01*
X131503824Y-89642924D02*
X125306224Y-89642924D01*
X131598800Y-89940440D02*
X131598800Y-98139560D01*
X131200020Y-89940440D02*
X131200020Y-98139560D01*
X125899040Y-89940440D02*
X125899040Y-98139560D01*
X125401200Y-98139560D02*
X125401200Y-89940440D01*
X125899040Y-92739520D02*
X125401200Y-92739520D01*
X125401200Y-97938900D02*
X125899040Y-97938900D01*
X125899040Y-90138560D02*
X125401200Y-90138560D01*
X125401200Y-95337940D02*
X125899040Y-95337940D01*
X125401200Y-89940440D02*
X131598800Y-89940440D01*
X131598800Y-98137020D02*
X125401200Y-98137020D01*
X125799040Y-78330920D02*
X125799040Y-83929080D01*
X125301200Y-83730960D02*
X125799040Y-83730960D01*
X125799040Y-78529040D02*
X125301200Y-78529040D01*
X125301200Y-81130000D02*
X125799040Y-81130000D01*
X131100020Y-83929080D02*
X131100020Y-78330920D01*
X125301200Y-83929080D02*
X125301200Y-78330920D01*
X125301200Y-78330920D02*
X131498800Y-78330920D01*
X131498800Y-78330920D02*
X131498800Y-83929080D01*
X131498800Y-83929080D02*
X125301200Y-83929080D01*
X125899040Y-98330920D02*
X125899040Y-103929080D01*
X125401200Y-103730960D02*
X125899040Y-103730960D01*
X125899040Y-98529040D02*
X125401200Y-98529040D01*
X125401200Y-101130000D02*
X125899040Y-101130000D01*
X131200020Y-103929080D02*
X131200020Y-98330920D01*
X125401200Y-103929080D02*
X125401200Y-98330920D01*
X125401200Y-98330920D02*
X131598800Y-98330920D01*
X131598800Y-98330920D02*
X131598800Y-103929080D01*
X131598800Y-103929080D02*
X125401200Y-103929080D01*
X146500000Y-85325000D02*
X145500000Y-85325000D01*
X145500000Y-86675000D02*
X146500000Y-86675000D01*
X146500000Y-87825000D02*
X145500000Y-87825000D01*
X145500000Y-89175000D02*
X146500000Y-89175000D01*
X148385715Y-89371429D02*
X148585715Y-89085714D01*
X148728572Y-89371429D02*
X148728572Y-88771429D01*
X148500000Y-88771429D01*
X148442858Y-88800000D01*
X148414286Y-88828571D01*
X148385715Y-88885714D01*
X148385715Y-88971429D01*
X148414286Y-89028571D01*
X148442858Y-89057143D01*
X148500000Y-89085714D01*
X148728572Y-89085714D01*
X147814286Y-89371429D02*
X148157143Y-89371429D01*
X147985715Y-89371429D02*
X147985715Y-88771429D01*
X148042858Y-88857143D01*
X148100000Y-88914286D01*
X148157143Y-88942857D01*
X147614286Y-88771429D02*
X147214286Y-88771429D01*
X147471429Y-89371429D01*
X144714286Y-92450000D02*
X144742857Y-92421429D01*
X144771429Y-92335715D01*
X144771429Y-92278572D01*
X144742857Y-92192857D01*
X144685714Y-92135715D01*
X144628571Y-92107143D01*
X144514286Y-92078572D01*
X144428571Y-92078572D01*
X144314286Y-92107143D01*
X144257143Y-92135715D01*
X144200000Y-92192857D01*
X144171429Y-92278572D01*
X144171429Y-92335715D01*
X144200000Y-92421429D01*
X144228571Y-92450000D01*
X144171429Y-92964286D02*
X144171429Y-92850000D01*
X144200000Y-92792857D01*
X144228571Y-92764286D01*
X144314286Y-92707143D01*
X144428571Y-92678572D01*
X144657143Y-92678572D01*
X144714286Y-92707143D01*
X144742857Y-92735715D01*
X144771429Y-92792857D01*
X144771429Y-92907143D01*
X144742857Y-92964286D01*
X144714286Y-92992857D01*
X144657143Y-93021429D01*
X144514286Y-93021429D01*
X144457143Y-92992857D01*
X144428571Y-92964286D01*
X144400000Y-92907143D01*
X144400000Y-92792857D01*
X144428571Y-92735715D01*
X144457143Y-92707143D01*
X144514286Y-92678572D01*
X147071429Y-92500000D02*
X146785714Y-92300000D01*
X147071429Y-92157143D02*
X146471429Y-92157143D01*
X146471429Y-92385715D01*
X146500000Y-92442857D01*
X146528571Y-92471429D01*
X146585714Y-92500000D01*
X146671429Y-92500000D01*
X146728571Y-92471429D01*
X146757143Y-92442857D01*
X146785714Y-92385715D01*
X146785714Y-92157143D01*
X147071429Y-92785715D02*
X147071429Y-92900000D01*
X147042857Y-92957143D01*
X147014286Y-92985715D01*
X146928571Y-93042857D01*
X146814286Y-93071429D01*
X146585714Y-93071429D01*
X146528571Y-93042857D01*
X146500000Y-93014286D01*
X146471429Y-92957143D01*
X146471429Y-92842857D01*
X146500000Y-92785715D01*
X146528571Y-92757143D01*
X146585714Y-92728572D01*
X146728571Y-92728572D01*
X146785714Y-92757143D01*
X146814286Y-92785715D01*
X146842857Y-92842857D01*
X146842857Y-92957143D01*
X146814286Y-93014286D01*
X146785714Y-93042857D01*
X146728571Y-93071429D01*
X140457143Y-93171429D02*
X140457143Y-93657143D01*
X140428571Y-93714286D01*
X140400000Y-93742857D01*
X140342857Y-93771429D01*
X140228571Y-93771429D01*
X140171429Y-93742857D01*
X140142857Y-93714286D01*
X140114286Y-93657143D01*
X140114286Y-93171429D01*
X139514286Y-93771429D02*
X139857143Y-93771429D01*
X139685715Y-93771429D02*
X139685715Y-93171429D01*
X139742858Y-93257143D01*
X139800000Y-93314286D01*
X139857143Y-93342857D01*
X162542857Y-77871429D02*
X162542857Y-77271429D01*
X162314285Y-77271429D01*
X162257143Y-77300000D01*
X162228571Y-77328571D01*
X162200000Y-77385714D01*
X162200000Y-77471429D01*
X162228571Y-77528571D01*
X162257143Y-77557143D01*
X162314285Y-77585714D01*
X162542857Y-77585714D01*
X161657143Y-77271429D02*
X161942857Y-77271429D01*
X161971428Y-77557143D01*
X161942857Y-77528571D01*
X161885714Y-77500000D01*
X161742857Y-77500000D01*
X161685714Y-77528571D01*
X161657143Y-77557143D01*
X161628571Y-77614286D01*
X161628571Y-77757143D01*
X161657143Y-77814286D01*
X161685714Y-77842857D01*
X161742857Y-77871429D01*
X161885714Y-77871429D01*
X161942857Y-77842857D01*
X161971428Y-77814286D01*
X157742857Y-103871429D02*
X157742857Y-103271429D01*
X157514285Y-103271429D01*
X157457143Y-103300000D01*
X157428571Y-103328571D01*
X157400000Y-103385714D01*
X157400000Y-103471429D01*
X157428571Y-103528571D01*
X157457143Y-103557143D01*
X157514285Y-103585714D01*
X157742857Y-103585714D01*
X157200000Y-103271429D02*
X156800000Y-103271429D01*
X157057143Y-103871429D01*
X152942857Y-97671429D02*
X152942857Y-97071429D01*
X152714285Y-97071429D01*
X152657143Y-97100000D01*
X152628571Y-97128571D01*
X152600000Y-97185714D01*
X152600000Y-97271429D01*
X152628571Y-97328571D01*
X152657143Y-97357143D01*
X152714285Y-97385714D01*
X152942857Y-97385714D01*
X152085714Y-97071429D02*
X152200000Y-97071429D01*
X152257143Y-97100000D01*
X152285714Y-97128571D01*
X152342857Y-97214286D01*
X152371428Y-97328571D01*
X152371428Y-97557143D01*
X152342857Y-97614286D01*
X152314285Y-97642857D01*
X152257143Y-97671429D01*
X152142857Y-97671429D01*
X152085714Y-97642857D01*
X152057143Y-97614286D01*
X152028571Y-97557143D01*
X152028571Y-97414286D01*
X152057143Y-97357143D01*
X152085714Y-97328571D01*
X152142857Y-97300000D01*
X152257143Y-97300000D01*
X152314285Y-97328571D01*
X152342857Y-97357143D01*
X152371428Y-97414286D01*
X132276453Y-88730987D02*
X131676453Y-88730987D01*
X131676453Y-88959559D01*
X131705024Y-89016701D01*
X131733595Y-89045273D01*
X131790738Y-89073844D01*
X131876453Y-89073844D01*
X131933595Y-89045273D01*
X131962167Y-89016701D01*
X131990738Y-88959559D01*
X131990738Y-88730987D01*
X131733595Y-89302416D02*
X131705024Y-89330987D01*
X131676453Y-89388130D01*
X131676453Y-89530987D01*
X131705024Y-89588130D01*
X131733595Y-89616701D01*
X131790738Y-89645273D01*
X131847881Y-89645273D01*
X131933595Y-89616701D01*
X132276453Y-89273844D01*
X132276453Y-89645273D01*
X132371429Y-97157143D02*
X131771429Y-97157143D01*
X131771429Y-97385715D01*
X131800000Y-97442857D01*
X131828571Y-97471429D01*
X131885714Y-97500000D01*
X131971429Y-97500000D01*
X132028571Y-97471429D01*
X132057143Y-97442857D01*
X132085714Y-97385715D01*
X132085714Y-97157143D01*
X131771429Y-97700000D02*
X131771429Y-98071429D01*
X132000000Y-97871429D01*
X132000000Y-97957143D01*
X132028571Y-98014286D01*
X132057143Y-98042857D01*
X132114286Y-98071429D01*
X132257143Y-98071429D01*
X132314286Y-98042857D01*
X132342857Y-98014286D01*
X132371429Y-97957143D01*
X132371429Y-97785715D01*
X132342857Y-97728572D01*
X132314286Y-97700000D01*
X132366405Y-83043299D02*
X131766405Y-83043299D01*
X131766405Y-83271871D01*
X131794976Y-83329013D01*
X131823547Y-83357585D01*
X131880690Y-83386156D01*
X131966405Y-83386156D01*
X132023547Y-83357585D01*
X132052119Y-83329013D01*
X132080690Y-83271871D01*
X132080690Y-83043299D01*
X132366405Y-83957585D02*
X132366405Y-83614728D01*
X132366405Y-83786156D02*
X131766405Y-83786156D01*
X131852119Y-83729013D01*
X131909262Y-83671871D01*
X131937833Y-83614728D01*
X132371429Y-102917143D02*
X131771429Y-102917143D01*
X131771429Y-103145715D01*
X131800000Y-103202857D01*
X131828571Y-103231429D01*
X131885714Y-103260000D01*
X131971429Y-103260000D01*
X132028571Y-103231429D01*
X132057143Y-103202857D01*
X132085714Y-103145715D01*
X132085714Y-102917143D01*
X131971429Y-103774286D02*
X132371429Y-103774286D01*
X131742857Y-103631429D02*
X132171429Y-103488572D01*
X132171429Y-103860000D01*
X146900000Y-85071429D02*
X147100000Y-84785714D01*
X147242857Y-85071429D02*
X147242857Y-84471429D01*
X147014285Y-84471429D01*
X146957143Y-84500000D01*
X146928571Y-84528571D01*
X146900000Y-84585714D01*
X146900000Y-84671429D01*
X146928571Y-84728571D01*
X146957143Y-84757143D01*
X147014285Y-84785714D01*
X147242857Y-84785714D01*
X146357143Y-84471429D02*
X146642857Y-84471429D01*
X146671428Y-84757143D01*
X146642857Y-84728571D01*
X146585714Y-84700000D01*
X146442857Y-84700000D01*
X146385714Y-84728571D01*
X146357143Y-84757143D01*
X146328571Y-84814286D01*
X146328571Y-84957143D01*
X146357143Y-85014286D01*
X146385714Y-85042857D01*
X146442857Y-85071429D01*
X146585714Y-85071429D01*
X146642857Y-85042857D01*
X146671428Y-85014286D01*
X146900000Y-87571429D02*
X147100000Y-87285714D01*
X147242857Y-87571429D02*
X147242857Y-86971429D01*
X147014285Y-86971429D01*
X146957143Y-87000000D01*
X146928571Y-87028571D01*
X146900000Y-87085714D01*
X146900000Y-87171429D01*
X146928571Y-87228571D01*
X146957143Y-87257143D01*
X147014285Y-87285714D01*
X147242857Y-87285714D01*
X146385714Y-86971429D02*
X146500000Y-86971429D01*
X146557143Y-87000000D01*
X146585714Y-87028571D01*
X146642857Y-87114286D01*
X146671428Y-87228571D01*
X146671428Y-87457143D01*
X146642857Y-87514286D01*
X146614285Y-87542857D01*
X146557143Y-87571429D01*
X146442857Y-87571429D01*
X146385714Y-87542857D01*
X146357143Y-87514286D01*
X146328571Y-87457143D01*
X146328571Y-87314286D01*
X146357143Y-87257143D01*
X146385714Y-87228571D01*
X146442857Y-87200000D01*
X146557143Y-87200000D01*
X146614285Y-87228571D01*
X146642857Y-87257143D01*
X146671428Y-87314286D01*
M02*
