G04 #@! TF.FileFunction,Soldermask,Bot*
%FSLAX46Y46*%
G04 Gerber Fmt 4.6, Leading zero omitted, Abs format (unit mm)*
G04 Created by KiCad (PCBNEW 4.0.4-1.fc24-product) date Thu Mar  1 09:38:40 2018*
%MOMM*%
%LPD*%
G01*
G04 APERTURE LIST*
%ADD10C,0.100000*%
%ADD11R,0.900000X1.300000*%
%ADD12R,1.150000X1.200000*%
%ADD13R,1.300000X0.900000*%
%ADD14R,1.950000X1.000000*%
%ADD15C,2.200000*%
%ADD16R,1.600000X2.100000*%
%ADD17O,1.600000X2.100000*%
%ADD18O,2.398980X2.398980*%
%ADD19R,2.398980X2.398980*%
G04 APERTURE END LIST*
D10*
D11*
X148250000Y-90300000D03*
X146750000Y-90300000D03*
D12*
X145600000Y-94300000D03*
X145600000Y-92800000D03*
D13*
X148000000Y-94150000D03*
X148000000Y-92650000D03*
D14*
X137300000Y-95405000D03*
X137300000Y-94135000D03*
X137300000Y-92865000D03*
X137300000Y-91595000D03*
X142700000Y-91595000D03*
X142700000Y-92865000D03*
X142700000Y-94135000D03*
X142700000Y-95405000D03*
D15*
X159600000Y-80100000D03*
X155850000Y-80100000D03*
X152100000Y-80100000D03*
X159600000Y-85100000D03*
X155850000Y-85100000D03*
X152100000Y-85100000D03*
X152100000Y-90100000D03*
X155850000Y-90100000D03*
X159600000Y-90100000D03*
D16*
X155800000Y-100800000D03*
D17*
X157800000Y-100800000D03*
D16*
X142900000Y-100800000D03*
D17*
X144900000Y-100800000D03*
X146900000Y-100800000D03*
X148900000Y-100800000D03*
X150900000Y-100800000D03*
D18*
X128405024Y-85573844D03*
D19*
X128405024Y-88113844D03*
D18*
X128500000Y-91500000D03*
D19*
X128500000Y-96580000D03*
D18*
X128500000Y-94040000D03*
X128400000Y-79860000D03*
D19*
X128400000Y-82400000D03*
D18*
X128500000Y-99860000D03*
D19*
X128500000Y-102400000D03*
D11*
X145250000Y-86000000D03*
X146750000Y-86000000D03*
X145250000Y-88500000D03*
X146750000Y-88500000D03*
M02*
